<?xml version="1.0" encoding="UTF-8" standalone="no"?>
<!-- Generator: Adobe Illustrator 23.1.1, SVG Export Plug-In . SVG Version: 6.00 Build 0)  -->

<svg
   xmlns:dc="http://purl.org/dc/elements/1.1/"
   xmlns:cc="http://creativecommons.org/ns#"
   xmlns:rdf="http://www.w3.org/1999/02/22-rdf-syntax-ns#"
   xmlns:svg="http://www.w3.org/2000/svg"
   xmlns="http://www.w3.org/2000/svg"
   xmlns:sodipodi="http://sodipodi.sourceforge.net/DTD/sodipodi-0.dtd"
   xmlns:inkscape="http://www.inkscape.org/namespaces/inkscape"
   version="1.1"
   id="Calque_1"
   x="0px"
   y="0px"
   viewBox="0 0 35.6 36.1"
   style="enable-background:new 0 0 35.6 36.1;"
   xml:space="preserve"
   sodipodi:docname="gratuit.svg"
   inkscape:version="0.92.4 (unknown)"><metadata
   id="metadata100"><rdf:RDF><cc:Work
       rdf:about=""><dc:format>image/svg+xml</dc:format><dc:type
         rdf:resource="http://purl.org/dc/dcmitype/StillImage" /><dc:title></dc:title></cc:Work></rdf:RDF></metadata><defs
   id="defs98" /><sodipodi:namedview
   pagecolor="#ffffff"
   bordercolor="#666666"
   borderopacity="1"
   objecttolerance="10"
   gridtolerance="10"
   guidetolerance="10"
   inkscape:pageopacity="0"
   inkscape:pageshadow="2"
   inkscape:window-width="1613"
   inkscape:window-height="995"
   id="namedview96"
   showgrid="false"
   inkscape:zoom="9.2452746"
   inkscape:cx="-18.566874"
   inkscape:cy="11.406097"
   inkscape:window-x="67"
   inkscape:window-y="27"
   inkscape:window-maximized="1"
   inkscape:current-layer="Calque_1" />
<style
   type="text/css"
   id="style21">
	.st0{clip-path:url(#SVGID_2_);fill:#91D900;}
	.st1{clip-path:url(#SVGID_4_);fill:#91D900;}
	.st2{clip-path:url(#SVGID_6_);fill:#91D900;}
	.st3{clip-path:url(#SVGID_8_);fill:#91D900;}
	.st4{clip-path:url(#SVGID_10_);fill:#91D900;}
	.st5{clip-path:url(#SVGID_12_);fill:#91D900;}
	.st6{clip-path:url(#SVGID_14_);fill:#91D900;}
</style>

<path
   style="fill:#91d900;fill-opacity:1;stroke-width:0.97430438"
   d="M 0.14491076,16.18542 C 0.67270178,13.59796 0.38189125,10.942446 0.52496675,8.3237091 0.53617551,6.1066987 0.31148404,3.8678349 0.70382709,1.6704334 1.0767459,0.56239429 2.2782632,0.01550911 3.3756716,0.11232516 c 1.322242,0.0344046 2.5903483,0.52441579 3.9203843,0.4665695 2.3996188,0.0536293 4.7973231,-0.25373892 7.1960681,-0.0897919 0.711357,-0.41215404 1.788021,0.15848296 1.41206,1.04890424 -0.29882,1.0391148 -1.427297,0.7506218 -2.166435,0.5358634 C 10.173816,1.905192 6.5228406,2.6271611 3.0337138,1.5952294 1.9369784,2.2310143 1.9747091,3.6686726 2.0777745,4.7786399 2.186068,6.3130485 2.0718751,7.853135 2.1003661,9.3910913 2.0947568,11.45353 2.0499315,13.520532 1.9702701,15.578072 1.8642724,16.254224 1.1692254,17.49921 0.40993344,16.872948 0.26100984,16.673911 0.19413256,16.426229 0.14491367,16.185419 Z"
   id="path115"
   inkscape:connector-curvature="0" /><path
   style="fill:#91d900;fill-opacity:1;stroke-width:0.97430438"
   d="m 16.259507,1.2700731 c 2.811582,4.0418008 7.512924,6.0624636 10.638133,9.8055449 2.468363,2.536235 4.176887,5.787722 7.091147,7.871173 1.556875,0.613506 1.737052,4.128762 -0.259406,2.340951 -0.976247,-1.615811 -2.59028,-2.517004 -3.785856,-3.918337 C 27.704128,14.518828 25.548049,11.54842 22.685889,9.2923927 19.924783,6.997986 16.652986,5.0878 14.815548,1.8720696 14.420849,0.99172107 15.927318,0.37576038 16.259507,1.2700731 Z"
   id="path119"
   inkscape:connector-curvature="0" /><path
   style="fill:#91d900;fill-opacity:1;stroke-width:0.97430438"
   d="m 35.295909,22.079224 c -1.84654,2.456643 -5.03804,3.497775 -6.590138,6.238728 -1.41139,1.827714 -2.885762,3.646908 -4.616463,5.167729 -1.461672,0.673696 -2.900947,2.48323 -4.484667,2.26181 -0.968263,-1.845392 1.899579,-2.164489 2.905883,-3.141011 1.834962,-1.173997 3.036378,-3.067773 4.472828,-4.671818 1.798367,-3.175125 5.043,-4.453051 7.160582,-6.894788 0.705183,-0.878403 1.904383,0.292231 1.151975,1.03935 z"
   id="path121"
   inkscape:connector-curvature="0"
   sodipodi:nodetypes="cccccccc" /><path
   style="fill:#91d900;fill-opacity:1;stroke-width:0.97430438"
   d="M 19.369218,35.897408 C 14.588423,31.994144 10.963651,26.863435 6.2241597,22.901177 4.6280595,20.472541 0.52432363,19.064164 0.53119588,16.027713 c 2.92502772,0.549109 4.58617942,4.303196 7.12120542,5.9638 3.4561537,3.179917 6.7311957,6.560017 9.7848417,10.14036 1.002996,0.2131 5.221097,4.476871 1.931975,3.765535 z"
   id="path123"
   inkscape:connector-curvature="0" /><path
   style="fill:#91d900;fill-opacity:1;stroke-width:0.64971179"
   d="M 5.8687959,4.5629543 C 3.7802408,3.7960106 2.7300271,7.8485129 5.165275,7.8132721 7.055971,8.0381722 7.7616049,5.5618015 6.1964356,4.6625637 6.3175511,3.1195836 8.6570836,5.0787176 8.3095959,6.1614048 8.3729703,8.1789481 5.7986643,9.2795323 4.1439488,8.6788864 2.1094588,7.8570456 2.0767619,4.6707482 4.0975954,3.8027759 4.8707797,2.720415 7.9367477,4.3358085 5.868794,4.5629543 Z"
   id="path133"
   inkscape:connector-curvature="0" /><g
   id="g200"
   transform="matrix(0.68820158,0.68961732,-0.67946412,0.69848534,15.351069,-48.30501)"><path
     sodipodi:nodetypes="ccccccccccccc"
     inkscape:connector-curvature="0"
     id="path173"
     d="m 48.901898,43.869991 c -1.373857,-1.898342 -4.68171,-2.134447 -6.083981,-0.148643 -0.914989,1.248632 -0.966997,2.992115 -0.20845,4.32763 0.620524,1.217391 1.790009,2.057595 3.075338,2.456913 1.919823,0.696416 4.121624,-0.692936 4.61097,-2.612441 0.605036,-0.832741 0.277564,-1.916577 -0.274249,-2.678381 -1.893231,-3.146076 0.94931,-2.317346 1.733575,0.108616 0.452878,1.719768 -0.118624,3.582696 -1.105695,5.013079 -0.901983,1.327499 -2.502011,2.165901 -4.119081,1.981213 -3.637553,-0.226367 -6.663114,-4.134121 -5.661147,-7.708017 0.522342,-2.23388 2.645918,-4.133613 5.007237,-3.963117 1.445864,0.09266 2.900465,0.704876 3.827894,1.847514 0.232269,1.24164 0.204335,1.859718 -0.802411,1.375634 z"
     style="fill:#91d900;fill-opacity:1;stroke-width:0.8985883" /><path
     sodipodi:nodetypes="cccccccccc"
     inkscape:connector-curvature="0"
     id="path175"
     d="m 58.967806,41.911961 c -1.150842,-0.696072 -2.550828,0.111544 -3.163724,1.151349 -0.697038,1.256192 -1.042475,2.758163 -0.834828,4.191348 0.311992,2.295746 2.937488,3.847906 5.11785,3.14748 0.64928,-0.489151 2.010657,-0.181339 1.642654,0.821789 -0.245944,0.889785 -1.222679,1.005167 -1.98546,0.942016 -2.587648,0.320711 -5.372209,-1.200268 -6.226435,-3.718951 -0.757933,-2.244648 -0.08457,-4.753114 1.170361,-6.684362 1.122064,-1.554627 3.443429,-2.295256 5.132733,-1.22341 1.077554,0.516962 0.08704,2.239406 -0.853151,1.372741 z"
     style="fill:#91d900;fill-opacity:1" /><path
     sodipodi:nodetypes="ccccccc"
     inkscape:connector-curvature="0"
     id="path177"
     d="m 53.141241,45.619177 c 1.192874,-0.953246 2.783326,-0.406004 4.113893,-0.122391 0.723708,0.249261 1.290751,-0.673829 2.08549,-0.392116 1.215086,0.309546 0.237872,1.825999 -0.579531,1.998618 -1.262751,0.39871 -2.514331,-0.274894 -3.763007,-0.409732 -0.652423,0.306176 -1.858988,0.595538 -2.182445,-0.263904 -0.0089,-0.288446 0.05602,-0.652568 0.3256,-0.810475 z"
     style="fill:#91d900;fill-opacity:1" /></g></svg>