<?xml version="1.0" encoding="UTF-8" standalone="no"?>
<!-- Generator: Adobe Illustrator 23.1.1, SVG Export Plug-In . SVG Version: 6.00 Build 0)  -->

<svg
   xmlns:dc="http://purl.org/dc/elements/1.1/"
   xmlns:cc="http://creativecommons.org/ns#"
   xmlns:rdf="http://www.w3.org/1999/02/22-rdf-syntax-ns#"
   xmlns:svg="http://www.w3.org/2000/svg"
   xmlns="http://www.w3.org/2000/svg"
   xmlns:sodipodi="http://sodipodi.sourceforge.net/DTD/sodipodi-0.dtd"
   xmlns:inkscape="http://www.inkscape.org/namespaces/inkscape"
   version="1.1"
   id="Calque_1"
   x="0px"
   y="0px"
   viewBox="0 0 35.6 36.1"
   style="enable-background:new 0 0 35.6 36.1;"
   xml:space="preserve"
   sodipodi:docname="anmauxnonadmi.svg"
   inkscape:version="0.92.4 (unknown)"><metadata
   id="metadata81"><rdf:RDF><cc:Work
       rdf:about=""><dc:format>image/svg+xml</dc:format><dc:type
         rdf:resource="http://purl.org/dc/dcmitype/StillImage" /><dc:title></dc:title></cc:Work></rdf:RDF></metadata><defs
   id="defs79"><inkscape:path-effect
   effect="bspline"
   id="path-effect3832"
   is_visible="true"
   weight="33.333333"
   steps="2"
   helper_size="0"
   apply_no_weight="true"
   apply_with_weight="true"
   only_selected="false" />
	
	
	
	
	
	
	
</defs><sodipodi:namedview
   pagecolor="#ffffff"
   bordercolor="#666666"
   borderopacity="1"
   objecttolerance="10"
   gridtolerance="10"
   guidetolerance="10"
   inkscape:pageopacity="0"
   inkscape:pageshadow="2"
   inkscape:window-width="1613"
   inkscape:window-height="995"
   id="namedview77"
   showgrid="false"
   inkscape:zoom="9.2452746"
   inkscape:cx="38.88151"
   inkscape:cy="16.848044"
   inkscape:window-x="67"
   inkscape:window-y="27"
   inkscape:window-maximized="1"
   inkscape:current-layer="Calque_1" />
<style
   type="text/css"
   id="style2">
	.st0{clip-path:url(#SVGID_2_);fill:#91D900;}
	.st1{clip-path:url(#SVGID_4_);fill:#91D900;}
	.st2{clip-path:url(#SVGID_6_);fill:#91D900;}
	.st3{clip-path:url(#SVGID_8_);fill:#91D900;}
	.st4{clip-path:url(#SVGID_10_);fill:#91D900;}
	.st5{clip-path:url(#SVGID_12_);fill:#91D900;}
	.st6{clip-path:url(#SVGID_14_);fill:#91D900;}
</style>

<path
   style="fill:#91d900;fill-opacity:1;stroke-width:0.99364787"
   d="M 8.9455728,6.2959421 C 6.0673947,9.01148 5.0358113,8.6716119 2.7852738,8.7106423 1.9488021,8.7081317 -0.43215175,9.9477984 0.76346775,8.3155872 2.7768137,6.7383691 5.5856496,8.7919566 8.2781267,5.5126496 8.9574885,4.9748811 9.782003,5.042443 8.9455728,6.2959421 Z"
   id="path4863"
   inkscape:connector-curvature="0"
   sodipodi:nodetypes="ccccc" /><path
   style="fill:#91d900;fill-opacity:1;stroke-width:0.99364787"
   d="m 1.0743935,9.0265627 c 0.1404487,2.1799923 1.3492741,4.2992913 3.4377146,5.1806093 2.0346002,0.700845 4.4718546,1.351041 5.2402307,3.613739 1.3388742,3.23953 0.7759252,6.809786 1.2544902,10.204649 0.276007,2.126534 0.48759,4.324067 1.320332,6.319247 0.839954,1.544517 1.388427,-1.53179 1.822659,-2.244655 0.878978,-2.173007 1.161293,-4.503306 1.186491,-6.829125 -0.284566,-0.852688 0.513513,-2.668944 1.142989,-1.236923 -0.02351,1.678714 -0.0541,3.379092 -0.324754,5.044207 -0.453048,2.080911 -1.171848,4.128216 -2.00317,6.072885 -1.528901,1.90052 -3.354325,-0.08666 -3.343881,-1.871625 C 9.6875045,29.267384 9.7213448,25.076298 9.4435194,20.960194 9.2046722,18.907181 8.3663069,16.463545 6.0879969,15.899282 3.3529231,15.293031 0.69671405,13.337923 0.21503405,10.471511 c 0.0119,-0.7391404 0.37076,-2.2973887 0.85935945,-1.4449483 z"
   id="path4865"
   inkscape:connector-curvature="0"
   sodipodi:nodetypes="ccccccccccccccc" /><path
   style="fill:#91d900;fill-opacity:1;stroke-width:0.99364787"
   d="m 16.500959,22.873779 c 1.618973,1.398973 3.958194,0.928329 5.935258,0.937432 1.726413,0.01299 3.422943,-0.34944 5.05477,-0.841184 1.08876,1.259367 -1.596364,1.697084 -2.578707,1.695336 -2.358783,0.264729 -4.786976,0.433656 -7.134291,0.04564 -1.109934,0.115574 -3.301167,-1.906014 -1.463994,-2.111952 z"
   id="path4867"
   inkscape:connector-curvature="0" /><path
   style="fill:#91d900;fill-opacity:1;stroke-width:0.99364787"
   d="m 27.438035,23.553409 c 0.773437,2.232364 1.621335,4.43502 2.654539,6.557633 0.436845,1.301731 0.983339,3.331475 2.225866,3.733108 0.860716,-1.489483 1.214708,-3.143609 1.301798,-4.839248 0.304128,-3.037202 0.04628,-6.220854 -1.416921,-8.956656 -0.80785,-1.821361 -1.027577,-3.956308 -0.112491,-5.781238 0.691825,-2.334027 1.064998,-4.7659694 1.953916,-7.0363354 -0.02092,-0.7937347 0.519951,-3.3514809 1.413326,-1.8723671 -0.146534,2.6842871 -1.572636,5.0955145 -1.850909,7.7605395 -0.839744,2.171814 -1.555105,4.59262 -0.264309,6.766126 1.129147,2.117975 1.478693,4.496958 1.482929,6.863251 0.08662,2.473713 -0.34785,4.95191 -1.20657,7.267633 -1.751782,2.287074 -4.043754,-0.840534 -4.278315,-2.693232 -0.768437,-2.432924 -2.180503,-4.624655 -2.775363,-7.107285 -0.178792,-0.647591 0.345264,-1.628349 0.872504,-0.661929 z"
   id="path4869"
   inkscape:connector-curvature="0" /><path
   style="fill:#91d900;fill-opacity:1;stroke-width:0.99364787"
   d="m 35.400343,4.9602534 c -0.597733,1.8288563 -2.2652,3.0445202 -3.13793,4.7375077 -0.924363,1.9619099 -2.816825,3.3394869 -5.064248,3.1347639 -3.496724,0.111041 -6.994983,-0.0472 -10.489447,-0.05534 -1.030218,0.183076 -2.96618,-1.088804 -1.015907,-1.303973 1.909938,0.228111 3.786856,0.460387 5.716898,0.301267 2.275932,-0.06205 4.567123,0.151931 6.830588,-0.08495 2.395275,-0.261769 2.990921,-2.8455168 4.349559,-4.3906003 1.003266,-0.8451225 1.319429,-2.6336777 2.526052,-2.9944311 0.201918,0.1617297 0.242946,0.4220829 0.284435,0.6557627 z"
   id="path4871"
   inkscape:connector-curvature="0" /><path
   style="fill:#91d900;fill-opacity:1;stroke-width:0.99364787"
   d="M 8.2781267,5.5126496 C 9.871007,4.1176869 9.4213974,1.2643516 10.836351,0.14583695 c 1.988888,0.60348917 2.074442,3.25487055 2.788262,4.89755465 0.83215,1.9489176 0.439946,4.1533309 1.475018,6.0265324 0.804514,1.164538 -1.012302,1.855856 -1.083358,0.376356 C 13.015158,9.3287145 13.28457,6.9160506 12.384452,4.7684471 12.165331,3.3864502 11.141355,2.0054173 10.882049,0.89930438 11.682881,1.101876 10.609056,3.1927798 10.389866,4.0660825 10.274842,4.8308999 8.1867552,7.843877 8.2781267,5.5126496 Z"
   id="path4873"
   inkscape:connector-curvature="0" /><path
   style="fill:#91d900;fill-opacity:1;stroke-width:0.99364787"
   d="m 15.347038,11.880855 c -1.382248,2.33355 -3.204865,4.707577 -5.8855637,5.622105 -1.8207316,-0.505844 0.7384457,-1.466197 1.4104337,-1.942217 1.526533,-1.187412 2.620253,-2.798688 3.730189,-4.349165 0.405176,-0.224205 0.939406,0.247542 0.744941,0.669277 z"
   id="path4875"
   inkscape:connector-curvature="0" /><path
   style="fill:#91d900;fill-opacity:1;stroke-width:0.99364787"
   d="m 16.334416,12.57748 c -1.03292,2.020716 -2.559595,3.81372 -4.583407,4.91542 -0.541188,0.778602 -3.6558301,2.382985 -2.6841845,0.477222 1.5719895,-1.066176 3.3588205,-1.876148 4.5936535,-3.380831 0.671919,-0.170262 2.039358,-4.443552 2.673938,-2.011811 z"
   id="path4877"
   inkscape:connector-curvature="0" /><path
   style="fill:#91d900;fill-opacity:1"
   id="path4926"
   d="M 32.150367,2.8506641 C 32.071738,2.9513449 31.976056,3.0366015 31.886173,3.1269755 31.735683,3.2811924 31.583031,3.4331987 31.424344,3.5790038 31.245869,3.7446365 31.06736,3.9107061 30.904672,4.0920171 30.673939,4.3564528 30.458806,4.6344103 30.240251,4.90899 29.996528,5.2133003 29.760676,5.523765 29.522924,5.8327259 29.282929,6.145535 29.047128,6.4615805 28.803435,6.7715277 28.546257,7.099649 28.272913,7.4148755 27.993102,7.7237962 27.720817,8.0218875 27.439737,8.3118038 27.160866,8.6037087 26.884844,8.886092 26.611415,9.1708498 26.343571,9.461 c -0.29015,0.3005887 -0.579079,0.602328 -0.869378,0.902775 -0.30066,0.311657 -0.597576,0.626801 -0.891675,0.944651 -0.302705,0.320237 -0.588062,0.656033 -0.879961,0.98597 -0.27498,0.30637 -0.533158,0.627098 -0.791415,0.947512 -0.244681,0.304882 -0.485036,0.613301 -0.722936,0.923508 -0.239456,0.318284 -0.481035,0.634986 -0.720005,0.953632 -0.255434,0.341893 -0.512109,0.682698 -0.781011,1.014157 -0.265537,0.315418 -0.531349,0.630511 -0.805664,0.938352 -0.270189,0.302343 -0.547263,0.598013 -0.829018,0.889554 -0.304686,0.32093 -0.612929,0.638169 -0.927796,0.949127 -0.345099,0.329717 -0.704741,0.643609 -1.055347,0.967411 -0.34687,0.330311 -0.696596,0.657583 -1.048606,0.982405 -0.338812,0.311356 -0.674304,0.626222 -1.004893,0.946285 -0.316632,0.315109 -0.632419,0.631027 -0.937117,0.957725 -0.326368,0.363645 -0.643728,0.735228 -0.962464,1.105541 -0.335937,0.385356 -0.658175,0.782026 -0.973983,1.183935 -0.31172,0.406227 -0.617623,0.816898 -0.920252,1.229933 -0.285259,0.388718 -0.567565,0.779607 -0.854626,1.166999 -0.255743,0.348936 -0.5046429,0.702837 -0.7609926,1.051318 -0.2250124,0.303728 -0.4411977,0.613905 -0.6561319,0.924811 -0.2001896,0.288102 -0.4077246,0.57101 -0.6106687,0.857169 -0.1872309,0.267318 -0.3814793,0.529564 -0.5799198,0.788635 -0.1835586,0.248931 -0.3740644,0.492465 -0.5669702,0.734177 -0.1848677,0.241381 -0.386337,0.469181 -0.5740201,0.708309 -0.1872309,0.234693 -0.3843701,0.461284 -0.5790238,0.689821 -0.1818044,0.213425 -0.3586541,0.431043 -0.5398726,0.645 -0.9042874,1.41038 -2.8988658,0.131525 -1.9945785,-1.278855 v 0 C 3.6890601,32.34024 3.8801452,32.115745 4.0679357,31.888393 4.2496501,31.67831 4.4277659,31.465201 4.6069216,31.252987 4.7932169,31.025351 4.9683196,30.788653 5.16462,30.569129 5.3443418,30.332067 5.5374568,30.10544 5.7104059,29.863139 5.8911689,29.616278 6.0821305,29.376893 6.2556321,29.124686 6.4503085,28.843811 6.638875,28.558648 6.8403802,28.282586 7.060634,27.955283 7.2789887,27.626518 7.5087724,27.30579 7.7588923,26.951272 8.0083,26.59636 8.2582232,26.24166 c 0.2755793,-0.388836 0.555726,-0.774368 0.8313763,-1.163147 0.3083794,-0.442715 0.6307462,-0.875716 0.9564335,-1.305781 0.331863,-0.431145 0.672876,-0.855383 1.030692,-1.265377 0.333475,-0.389283 0.675979,-0.770645 1.017433,-1.152925 0.323335,-0.355223 0.660351,-0.696749 0.998254,-1.03803 0.343128,-0.341914 0.692238,-0.677479 1.046722,-1.007618 0.348929,-0.315383 0.695529,-0.632789 1.033182,-0.960297 0.342498,-0.325821 0.692025,-0.643471 1.049198,-0.953133 0.310999,-0.284228 0.615511,-0.575415 0.902981,-0.883661 0.269871,-0.26988 0.540989,-0.539228 0.790259,-0.828576 0.262462,-0.277594 0.503965,-0.574429 0.749235,-0.867129 0.255803,-0.296043 0.488714,-0.610227 0.72473,-0.922093 0.241849,-0.325028 0.492284,-0.643567 0.73361,-0.969005 0.243898,-0.321446 0.494136,-0.638027 0.738777,-0.958851 0.270974,-0.346852 0.540664,-0.695024 0.829215,-1.02758 0.296955,-0.348982 0.598553,-0.694548 0.909061,-1.0314946 0.302715,-0.3340141 0.612609,-0.6613016 0.930316,-0.9810736 0.287086,-0.2983802 0.575585,-0.5953806 0.865694,-0.8908168 0.283157,-0.2863984 0.548993,-0.58982 0.837191,-0.8715423 0.271036,-0.2710067 0.52614,-0.5576836 0.794404,-0.8314946 0.25178,-0.2706034 0.498934,-0.5458201 0.733196,-0.8318197 0.239679,-0.2992413 0.471222,-0.6046235 0.700944,-0.9115837 0.243811,-0.3191852 0.48465,-0.6406986 0.735094,-0.9547547 0.245661,-0.3089758 0.495808,-0.6150361 0.756395,-0.9114711 0.213953,-0.2336466 0.436609,-0.4557258 0.677226,-0.6621601 0.137661,-0.1173117 0.281714,-0.2263222 0.410356,-0.3536949 0.08906,-0.087273 0.182454,-0.1898123 0.285776,-0.2603381 0.0042,-0.00289 0.0025,0.00995 0.0037,0.014929 0.982541,-1.28743655 2.803251,0.1020856 1.820711,1.3895222 z"
   inkscape:connector-curvature="0" /><path
   style="fill:#91d900;fill-opacity:1"
   id="path4928"
   d="m 5.3019127,2.3972629 c 0.094883,0.1223276 0.1099828,0.1011213 0.2324791,0.2429012 0.1066422,0.093972 0.2120355,0.1897247 0.3160142,0.2870196 0.1547779,0.1360061 0.3123456,0.2668981 0.4604993,0.4107825 0.1741818,0.1668425 0.3536062,0.3288082 0.5363117,0.4863103 0.2111923,0.1976432 0.4322559,0.3838737 0.6513129,0.5726954 0.2810729,0.2364882 0.5526168,0.4838195 0.823962,0.7313562 0.3126946,0.2713361 0.6229804,0.5455632 0.9368999,0.8155188 0.3451889,0.3046811 0.6693754,0.631848 1.0019782,0.9499645 0.333233,0.3102622 0.63475,0.6516571 0.943721,0.985416 0.289669,0.3170481 0.583573,0.6301549 0.873358,0.9470783 0.287227,0.3147134 0.574927,0.6287355 0.856608,0.9484247 0.271692,0.3037476 0.539246,0.6110696 0.798228,0.9257336 0.254794,0.309701 0.507773,0.620871 0.771538,0.923024 0.252217,0.297646 0.512841,0.58771 0.774248,0.877232 0.23942,0.269671 0.484086,0.53436 0.741926,0.786529 0.27662,0.269648 0.544685,0.547663 0.817481,0.821152 0.293969,0.317315 0.595343,0.627315 0.891683,0.942355 0.278373,0.299421 0.561512,0.594348 0.840926,0.892797 0.302153,0.307214 0.595771,0.6218 0.88317,0.942788 0.281017,0.310227 0.550646,0.630528 0.823001,0.948368 0.242897,0.279067 0.481157,0.561913 0.727961,0.837606 0.247835,0.278374 0.500257,0.552507 0.744578,0.834018 0.240383,0.266358 0.465203,0.546049 0.694566,0.821794 0.21231,0.248327 0.41579,0.503912 0.624959,0.754869 0.215623,0.247939 0.434964,0.492401 0.644237,0.745891 0.230564,0.290609 0.465341,0.57777 0.696437,0.867959 0.24673,0.321751 0.489848,0.646431 0.72435,0.977193 0.233057,0.32119 0.455,0.650362 0.680073,0.97719 0.215678,0.308171 0.440201,0.609706 0.669939,0.907466 0.215624,0.288001 0.447542,0.562989 0.68695,0.831395 0.21639,0.246164 0.435916,0.489258 0.667679,0.72112 0.24548,0.249656 0.487871,0.501926 0.73144,0.753451 0.259487,0.277523 0.508173,0.564852 0.767951,0.842084 0.231984,0.273249 0.475451,0.536331 0.710794,0.806597 0.23323,0.261303 0.478581,0.5111 0.724024,0.760851 0.273055,0.290257 0.553769,0.573139 0.829911,0.860448 0.248617,0.268417 0.503628,0.530604 0.752231,0.799043 0.218025,0.235559 0.430356,0.476362 0.648818,0.711519 0.196895,0.213964 0.389843,0.43215 0.578161,0.653778 0.02682,0.02968 0.05365,0.05936 0.08047,0.08904 0.953465,1.372068 -0.986933,2.720472 -1.940398,1.348403 v 0 c -0.03162,-0.0354 -0.06324,-0.07081 -0.09485,-0.106211 -0.183393,-0.200951 -0.363821,-0.404555 -0.553828,-0.599377 -0.216624,-0.231898 -0.434322,-0.462806 -0.652841,-0.692918 -0.245347,-0.254767 -0.495795,-0.504625 -0.74411,-0.75649 -0.288762,-0.28789 -0.565239,-0.587341 -0.844462,-0.884417 -0.252892,-0.272509 -0.50309,-0.547459 -0.750566,-0.8249 -0.234728,-0.256463 -0.460888,-0.52059 -0.699966,-0.773078 C 27.134024,29.826726 26.888542,29.55232 26.636973,29.283543 26.400334,29.032731 26.163442,28.782305 25.922568,28.535505 25.67624,28.274848 25.4289,28.015102 25.19095,27.746691 24.922538,27.440496 24.664672,27.125683 24.42061,26.799631 24.174519,26.474415 23.933538,26.14514 23.704376,25.807723 23.486601,25.492859 23.268817,25.177982 23.044254,24.867903 22.819034,24.562405 22.591632,24.258546 22.361989,23.956359 22.147709,23.677591 21.927088,23.403689 21.707764,23.128887 21.49788,22.8777 21.279596,22.633695 21.071521,22.380968 20.864062,22.131413 20.655865,21.88253 20.44501,21.635829 20.221785,21.371826 19.993529,21.112312 19.761984,20.855569 19.519577,20.580614 19.274615,20.307904 19.030365,20.034587 18.778881,19.750787 18.532685,19.462342 18.278552,19.180882 18.009399,18.873863 17.739129,18.56779 17.463418,18.266629 17.186706,17.957773 16.89705,17.661059 16.615536,17.356619 16.337729,17.061597 16.05711,16.769277 15.776007,16.477392 15.483595,16.172509 15.194177,15.86499 14.908192,15.554083 14.643976,15.278863 14.378381,15.005034 14.106713,14.73712 13.836688,14.457533 13.572939,14.172148 13.31138,13.884629 13.033529,13.58195 12.759513,13.275896 12.494213,12.96209 12.230532,12.648164 11.974256,12.328289 11.712788,12.012532 11.465924,11.719431 11.210622,11.433697 10.951812,11.151106 10.669357,10.841725 10.38393,10.535059 10.101353,10.225784 9.812577,9.9118291 9.5252826,9.5965108 9.2337976,9.2850581 8.9506851,8.9786494 8.6592068,8.6805122 8.3543689,8.3955309 8.0469689,8.0968086 7.7386525,7.7988265 7.4143302,7.5182998 7.0920654,7.2307426 6.7684466,6.9445311 6.4549577,6.6473684 6.2006305,6.4070579 5.942282,6.1713044 5.6821844,5.9372609 5.4621515,5.7381381 5.2456132,5.5354578 5.0280897,5.3336149 4.842987,5.158418 4.6552296,4.9860664 4.4758697,4.8048967 4.3201332,4.6632055 4.1605055,4.5258346 4.0146654,4.3735948 3.872803,4.2329062 3.7298194,4.092632 3.6055716,3.9356846 3.5345574,3.8535089 3.4095593,3.7071074 3.3831574,3.6451569 2.5007631,2.2883921 4.4195183,1.0404981 5.3019127,2.3972629 Z"
   inkscape:connector-curvature="0" /></svg>