<?xml version="1.0" encoding="UTF-8" standalone="no"?>
<!-- Generator: Adobe Illustrator 23.1.1, SVG Export Plug-In . SVG Version: 6.00 Build 0)  -->

<svg
   xmlns:dc="http://purl.org/dc/elements/1.1/"
   xmlns:cc="http://creativecommons.org/ns#"
   xmlns:rdf="http://www.w3.org/1999/02/22-rdf-syntax-ns#"
   xmlns:svg="http://www.w3.org/2000/svg"
   xmlns="http://www.w3.org/2000/svg"
   xmlns:sodipodi="http://sodipodi.sourceforge.net/DTD/sodipodi-0.dtd"
   xmlns:inkscape="http://www.inkscape.org/namespaces/inkscape"
   version="1.1"
   id="Calque_1"
   x="0px"
   y="0px"
   viewBox="0 0 35.6 36.1"
   style="enable-background:new 0 0 35.6 36.1;"
   xml:space="preserve"
   sodipodi:docname="anmauxadmi.svg"
   inkscape:version="0.92.4 (unknown)"><metadata
   id="metadata81"><rdf:RDF><cc:Work
       rdf:about=""><dc:format>image/svg+xml</dc:format><dc:type
         rdf:resource="http://purl.org/dc/dcmitype/StillImage" /><dc:title></dc:title></cc:Work></rdf:RDF></metadata><defs
   id="defs79"><inkscape:path-effect
   effect="bspline"
   id="path-effect3832"
   is_visible="true"
   weight="33.333333"
   steps="2"
   helper_size="0"
   apply_no_weight="true"
   apply_with_weight="true"
   only_selected="false" />
	
	
	
	
	
	
	
</defs><sodipodi:namedview
   pagecolor="#ffffff"
   bordercolor="#666666"
   borderopacity="1"
   objecttolerance="10"
   gridtolerance="10"
   guidetolerance="10"
   inkscape:pageopacity="0"
   inkscape:pageshadow="2"
   inkscape:window-width="1613"
   inkscape:window-height="995"
   id="namedview77"
   showgrid="false"
   inkscape:zoom="13.074793"
   inkscape:cx="45.027366"
   inkscape:cy="15.093927"
   inkscape:window-x="67"
   inkscape:window-y="27"
   inkscape:window-maximized="1"
   inkscape:current-layer="Calque_1" />
<style
   type="text/css"
   id="style2">
	.st0{clip-path:url(#SVGID_2_);fill:#91D900;}
	.st1{clip-path:url(#SVGID_4_);fill:#91D900;}
	.st2{clip-path:url(#SVGID_6_);fill:#91D900;}
	.st3{clip-path:url(#SVGID_8_);fill:#91D900;}
	.st4{clip-path:url(#SVGID_10_);fill:#91D900;}
	.st5{clip-path:url(#SVGID_12_);fill:#91D900;}
	.st6{clip-path:url(#SVGID_14_);fill:#91D900;}
</style>

<path
   style="fill:#91d900;fill-opacity:1;stroke-width:0.99364787"
   d="M 8.9455728,6.2959421 C 6.0673947,9.01148 5.0358113,8.6716119 2.7852738,8.7106423 1.9488021,8.7081317 -0.43215175,9.9477984 0.76346775,8.3155872 2.7768137,6.7383691 5.5856496,8.7919566 8.2781267,5.5126496 8.9574885,4.9748811 9.782003,5.042443 8.9455728,6.2959421 Z"
   id="path4863"
   inkscape:connector-curvature="0"
   sodipodi:nodetypes="ccccc" /><path
   style="fill:#91d900;fill-opacity:1;stroke-width:0.99364787"
   d="m 1.0743935,9.0265627 c 0.1404487,2.1799923 1.3492741,4.2992913 3.4377146,5.1806093 2.0346002,0.700845 4.4718546,1.351041 5.2402307,3.613739 1.3388742,3.23953 0.7759252,6.809786 1.2544902,10.204649 0.276007,2.126534 0.48759,4.324067 1.320332,6.319247 0.839954,1.544517 1.388427,-1.53179 1.822659,-2.244655 0.878978,-2.173007 1.161293,-4.503306 1.186491,-6.829125 -0.284566,-0.852688 0.513513,-2.668944 1.142989,-1.236923 -0.02351,1.678714 -0.0541,3.379092 -0.324754,5.044207 -0.453048,2.080911 -1.171848,4.128216 -2.00317,6.072885 -1.528901,1.90052 -3.354325,-0.08666 -3.343881,-1.871625 C 9.6875045,29.267384 9.7213448,25.076298 9.4435194,20.960194 9.2046722,18.907181 8.3663069,16.463545 6.0879969,15.899282 3.3529231,15.293031 0.69671405,13.337923 0.21503405,10.471511 c 0.0119,-0.7391404 0.37076,-2.2973887 0.85935945,-1.4449483 z"
   id="path4865"
   inkscape:connector-curvature="0"
   sodipodi:nodetypes="ccccccccccccccc" /><path
   style="fill:#91d900;fill-opacity:1;stroke-width:0.99364787"
   d="m 16.500959,22.873779 c 1.618973,1.398973 3.958194,0.928329 5.935258,0.937432 1.726413,0.01299 3.422943,-0.34944 5.05477,-0.841184 1.08876,1.259367 -1.596364,1.697084 -2.578707,1.695336 -2.358783,0.264729 -4.786976,0.433656 -7.134291,0.04564 -1.109934,0.115574 -3.301167,-1.906014 -1.463994,-2.111952 z"
   id="path4867"
   inkscape:connector-curvature="0" /><path
   style="fill:#91d900;fill-opacity:1;stroke-width:0.99364787"
   d="m 27.438035,23.553409 c 0.773437,2.232364 1.621335,4.43502 2.654539,6.557633 0.436845,1.301731 0.983339,3.331475 2.225866,3.733108 0.860716,-1.489483 1.214708,-3.143609 1.301798,-4.839248 0.304128,-3.037202 0.04628,-6.220854 -1.416921,-8.956656 -0.80785,-1.821361 -1.027577,-3.956308 -0.112491,-5.781238 0.691825,-2.334027 1.064998,-4.7659694 1.953916,-7.0363354 -0.02092,-0.7937347 0.519951,-3.3514809 1.413326,-1.8723671 -0.146534,2.6842871 -1.572636,5.0955145 -1.850909,7.7605395 -0.839744,2.171814 -1.555105,4.59262 -0.264309,6.766126 1.129147,2.117975 1.478693,4.496958 1.482929,6.863251 0.08662,2.473713 -0.34785,4.95191 -1.20657,7.267633 -1.751782,2.287074 -4.043754,-0.840534 -4.278315,-2.693232 -0.768437,-2.432924 -2.180503,-4.624655 -2.775363,-7.107285 -0.178792,-0.647591 0.345264,-1.628349 0.872504,-0.661929 z"
   id="path4869"
   inkscape:connector-curvature="0" /><path
   style="fill:#91d900;fill-opacity:1;stroke-width:0.99364787"
   d="m 35.400343,4.9602534 c -0.597733,1.8288563 -2.2652,3.0445202 -3.13793,4.7375077 -0.924363,1.9619099 -2.816825,3.3394869 -5.064248,3.1347639 -3.496724,0.111041 -6.994983,-0.0472 -10.489447,-0.05534 -1.030218,0.183076 -2.96618,-1.088804 -1.015907,-1.303973 1.909938,0.228111 3.786856,0.460387 5.716898,0.301267 2.275932,-0.06205 4.567123,0.151931 6.830588,-0.08495 2.395275,-0.261769 2.990921,-2.8455168 4.349559,-4.3906003 1.003266,-0.8451225 1.319429,-2.6336777 2.526052,-2.9944311 0.201918,0.1617297 0.242946,0.4220829 0.284435,0.6557627 z"
   id="path4871"
   inkscape:connector-curvature="0" /><path
   style="fill:#91d900;fill-opacity:1;stroke-width:0.99364787"
   d="M 8.2781267,5.5126496 C 9.871007,4.1176869 9.4213974,1.2643516 10.836351,0.14583695 c 1.988888,0.60348917 2.074442,3.25487055 2.788262,4.89755465 0.83215,1.9489176 0.439946,4.1533309 1.475018,6.0265324 0.804514,1.164538 -1.012302,1.855856 -1.083358,0.376356 C 13.015158,9.3287145 13.28457,6.9160506 12.384452,4.7684471 12.165331,3.3864502 11.141355,2.0054173 10.882049,0.89930438 11.682881,1.101876 10.609056,3.1927798 10.389866,4.0660825 10.274842,4.8308999 8.1867552,7.843877 8.2781267,5.5126496 Z"
   id="path4873"
   inkscape:connector-curvature="0" /><path
   style="fill:#91d900;fill-opacity:1;stroke-width:0.99364787"
   d="m 15.347038,11.880855 c -1.382248,2.33355 -3.204865,4.707577 -5.8855637,5.622105 -1.8207316,-0.505844 0.7384457,-1.466197 1.4104337,-1.942217 1.526533,-1.187412 2.620253,-2.798688 3.730189,-4.349165 0.405176,-0.224205 0.939406,0.247542 0.744941,0.669277 z"
   id="path4875"
   inkscape:connector-curvature="0" /><path
   style="fill:#91d900;fill-opacity:1;stroke-width:0.99364787"
   d="m 16.334416,12.57748 c -1.03292,2.020716 -2.559595,3.81372 -4.583407,4.91542 -0.541188,0.778602 -3.6558301,2.382985 -2.6841845,0.477222 1.5719895,-1.066176 3.3588205,-1.876148 4.5936535,-3.380831 0.671919,-0.170262 2.039358,-4.443552 2.673938,-2.011811 z"
   id="path4877"
   inkscape:connector-curvature="0" /></svg>