<?xml version="1.0" encoding="UTF-8" standalone="no"?>
<!-- Generator: Adobe Illustrator 23.1.1, SVG Export Plug-In . SVG Version: 6.00 Build 0)  -->

<svg
   xmlns:dc="http://purl.org/dc/elements/1.1/"
   xmlns:cc="http://creativecommons.org/ns#"
   xmlns:rdf="http://www.w3.org/1999/02/22-rdf-syntax-ns#"
   xmlns:svg="http://www.w3.org/2000/svg"
   xmlns="http://www.w3.org/2000/svg"
   xmlns:sodipodi="http://sodipodi.sourceforge.net/DTD/sodipodi-0.dtd"
   xmlns:inkscape="http://www.inkscape.org/namespaces/inkscape"
   version="1.1"
   id="Calque_1"
   x="0px"
   y="0px"
   viewBox="0 0 35.6 36.1"
   style="enable-background:new 0 0 35.6 36.1;"
   xml:space="preserve"
   sodipodi:docname="bar.svg"
   inkscape:version="0.92.4 (unknown)"><metadata
   id="metadata89"><rdf:RDF><cc:Work
       rdf:about=""><dc:format>image/svg+xml</dc:format><dc:type
         rdf:resource="http://purl.org/dc/dcmitype/StillImage" /><dc:title></dc:title></cc:Work></rdf:RDF></metadata><defs
   id="defs87" /><sodipodi:namedview
   pagecolor="#ffffff"
   bordercolor="#666666"
   borderopacity="1"
   objecttolerance="10"
   gridtolerance="10"
   guidetolerance="10"
   inkscape:pageopacity="0"
   inkscape:pageshadow="2"
   inkscape:window-width="1613"
   inkscape:window-height="995"
   id="namedview85"
   showgrid="false"
   inkscape:zoom="7.6586915"
   inkscape:cx="34.208637"
   inkscape:cy="-3.9077919"
   inkscape:window-x="67"
   inkscape:window-y="27"
   inkscape:window-maximized="1"
   inkscape:current-layer="Calque_1" />
<style
   type="text/css"
   id="style10">
	.st0{clip-path:url(#SVGID_2_);fill:#91D900;}
	.st1{clip-path:url(#SVGID_4_);fill:#91D900;}
	.st2{clip-path:url(#SVGID_6_);fill:#91D900;}
	.st3{clip-path:url(#SVGID_8_);fill:#91D900;}
	.st4{clip-path:url(#SVGID_10_);fill:#91D900;}
	.st5{clip-path:url(#SVGID_12_);fill:#91D900;}
	.st6{clip-path:url(#SVGID_14_);fill:#91D900;}
</style>

<path
   style="fill:#91d900;fill-opacity:1"
   id="path175"
   d="m 8.4496718,33.103024 c 0.016312,0.02191 0.1031778,-0.06475 0.1316573,-0.04977 0.023712,0.01248 -0.091821,0.04543 -0.016747,0.02219 0.1048771,-0.04712 0.2098301,-0.09325 0.315317,-0.138886 0.1727655,-0.09096 0.3586026,-0.149364 0.5445775,-0.20586 0.1695799,-0.05148 0.3419356,-0.09004 0.511177,-0.142678 0.1782974,-0.05485 0.3580014,-0.104774 0.5360784,-0.16021 0.213076,-0.07156 0.428551,-0.135375 0.644685,-0.196977 0.230182,-0.0632 0.462801,-0.11708 0.697284,-0.161639 0.23966,-0.04971 0.478866,-0.101617 0.719049,-0.148767 0.250445,-0.04814 0.502115,-0.08948 0.754027,-0.129085 0.252799,-0.03981 0.506542,-0.07263 0.759449,-0.111637 0.278937,-0.04332 0.559094,-0.07772 0.839107,-0.113116 0.293663,-0.03716 0.588289,-0.06614 0.882716,-0.09647 0.305025,-0.0306 0.610601,-0.05496 0.916254,-0.07824 0.300645,-0.02271 0.601463,-0.04302 0.90233,-0.06254 0.530664,-0.04678 1.061916,-0.04391 1.594274,-0.04412 0.321489,0.0043 0.641726,0.0361 0.961653,0.06529 0.318949,0.03157 0.637183,0.07598 0.952841,0.132019 0.322243,0.04999 0.638846,0.129103 0.954618,0.209245 0.314408,0.07348 0.623004,0.167658 0.931792,0.261216 0.305148,0.08416 0.603988,0.190178 0.902084,0.296293 0.290657,0.09508 0.577321,0.201695 0.866708,0.300499 0.284506,0.09862 0.569462,0.196476 0.851144,0.303053 0.278786,0.09823 0.558381,0.19429 0.836155,0.295359 0.183257,0.06465 0.09208,0.03298 0.273524,0.09506 1.489783,0.904578 0.210516,3.011449 -1.279267,2.106871 v 0 c -0.191086,-0.06789 -0.09599,-0.03406 -0.285276,-0.101465 -0.282983,-0.09854 -0.565058,-0.199769 -0.846287,-0.303199 -0.275569,-0.09539 -0.55137,-0.190061 -0.827392,-0.284092 -0.285811,-0.100533 -0.572304,-0.199041 -0.858907,-0.297285 -0.272272,-0.08894 -0.545918,-0.172521 -0.821932,-0.24915 -0.27978,-0.07854 -0.56241,-0.146561 -0.844887,-0.214648 -0.262741,-0.05907 -0.527659,-0.105513 -0.794772,-0.140253 -0.271263,-0.03276 -0.542659,-0.06414 -0.815606,-0.07875 -0.272256,-0.01803 -0.544858,-0.02721 -0.817751,-0.02274 1.140643,-0.0044 0.105144,-0.01425 -0.158551,0.01076 -0.293805,0.01812 -0.587564,0.03702 -0.881182,0.05799 -0.295465,0.02112 -0.590912,0.04257 -0.88626,0.06525 -0.280414,0.02133 -0.56032,0.04803 -0.840306,0.07432 -0.264801,0.02633 -0.529147,0.05732 -0.79334,0.0891 -0.249053,0.03062 -0.49697,0.06891 -0.746155,0.09861 -0.232623,0.03193 -0.465026,0.06548 -0.696822,0.103001 -0.225066,0.03616 -0.449814,0.07429 -0.672511,0.123354 -0.208721,0.04606 -0.420101,0.07812 -0.629466,0.121088 -0.181733,0.03635 -0.361977,0.07999 -0.539716,0.13253 -0.18621,0.05866 -0.371837,0.118329 -0.560122,0.170255 -0.183368,0.05254 -0.361832,0.121563 -0.549487,0.158148 -0.117181,0.02898 -0.233392,0.06168 -0.35458,0.06889 -0.103339,0.03928 -0.20499,0.07688 -0.3075885,0.118331 -0.097801,0.04507 -0.1859449,0.08636 -0.2870137,0.115163 -1.4582771,0.824894 -2.6248539,-1.237421 -1.1665769,-2.062315 z"
   inkscape:connector-curvature="0" /><path
   style="fill:#91d900;fill-opacity:1"
   id="path181"
   d="m 7.6228536,12.343647 c -0.035758,0.02552 -0.035782,0.03527 0.00954,0.03272 0.091555,-0.02443 0.1791982,-0.05253 0.268995,-0.0851 0.138871,-0.05079 0.28132,-0.09051 0.4245256,-0.126882 0.1620756,-0.04091 0.3268232,-0.06951 0.4904178,-0.103358 0.1853572,-0.03518 0.3736188,-0.04261 0.560247,-0.0673 0.4215088,-0.03752 0.844341,-0.004 1.263576,0.03746 0.197156,0.03109 0.395857,0.05056 0.594472,0.06942 0.194429,0.01818 0.389102,0.03356 0.583824,0.04822 0.223959,0.01714 0.446547,0.04852 0.669062,0.07862 0.22204,0.02411 0.4429,0.05375 0.663675,0.087 0.218505,0.02811 0.43741,0.05292 0.656446,0.07648 0.224822,0.02404 0.449954,0.04498 0.67517,0.06495 0.233808,0.02094 0.468045,0.03656 0.702195,0.05313 0.242278,0.01714 0.484688,0.03233 0.727138,0.04681 0.245471,0.01458 0.491038,0.02738 0.736635,0.03961 0.248023,0.01228 0.496115,0.02307 0.744227,0.03338 0.241813,-0.0025 0.483648,10e-4 0.725452,0.0033 -1.156192,0.0028 -0.196405,-0.0027 0.07071,-0.0073 0.253418,-0.0045 0.506809,-0.0099 0.760234,-0.01399 0.258006,-0.004 0.516021,-0.0074 0.774037,-0.01072 0.260075,-0.0028 0.520135,-0.0066 0.780202,-0.01 0.265394,-0.0031 0.530796,-0.0054 0.796199,-0.0076 0.270058,-0.0016 0.54009,-0.0058 0.810139,-0.0084 0.281759,-0.003 0.563525,-0.0049 0.845296,-0.0064 0.263572,0.0016 0.527227,-0.0025 0.790551,-0.0141 0.272249,-0.0173 0.544933,-0.02634 0.817278,-0.04141 0.276011,-0.01732 0.551828,-0.03753 0.827909,-0.05374 0.227956,-0.01696 0.456468,-0.02444 0.684872,-0.03236 1.65915,-0.500731 2.367291,1.845661 0.708141,2.346392 v 0 c -0.207582,0.0058 -0.415155,0.012 -0.622746,0.01748 -0.273898,0.01834 -0.54799,0.03377 -0.821749,0.05419 -0.281591,0.02116 -0.563233,0.0385 -0.845478,0.04901 -0.292987,0.01708 -0.585607,0.03783 -0.879126,0.04422 -0.281218,0.0016 -0.562436,0.0027 -0.843656,0.0034 -0.269409,9.14e-4 -0.538823,5.41e-4 -0.808223,0.0033 -0.264404,0.0021 -0.528806,0.0043 -0.79321,0.0063 -0.2589,0.0016 -0.517797,0.0032 -0.776683,0.0066 -0.25655,0.0028 -0.513099,0.0058 -0.769645,0.009 -0.251972,0.0031 -0.503955,0.0051 -0.755911,0.0093 -0.472656,0.0078 -0.945127,0.02518 -1.417989,0.01218 -0.263354,-0.0036 -0.526971,-0.0055 -0.789854,-0.02306 -0.253803,-0.01219 -0.50758,-0.02496 -0.761261,-0.03949 -0.252458,-0.01454 -0.504877,-0.02978 -0.757159,-0.04714 -0.25083,-0.01736 -0.50161,-0.03553 -0.752172,-0.05646 -0.245958,-0.02081 -0.491663,-0.04417 -0.737167,-0.06981 -0.238212,-0.02498 -0.4763,-0.05121 -0.71392,-0.08136 -0.231261,-0.02953 -0.462314,-0.06068 -0.692845,-0.0955 -0.213073,-0.02668 -0.426864,-0.04784 -0.6395,-0.0785 -0.197797,-0.02272 -0.396286,-0.03836 -0.594636,-0.05512 -0.207581,-0.02016 -0.415051,-0.04152 -0.622135,-0.06633 -0.180411,-0.02158 -0.360791,-0.04898 -0.5424482,-0.05628 -0.07732,-0.0046 -0.1546286,-0.0063 -0.2320686,-0.0081 -0.02398,-5.39e-4 -0.09593,-4.95e-4 -0.07195,-2.98e-4 0.6091058,0.005 0.7783248,0.02427 0.5216918,-0.0019 -0.1192116,-0.03699 -0.2567542,0.01658 -0.3807482,-3.97e-4 -0.1157796,-0.0082 -0.2313202,0.02491 -0.3465318,0.03385 -0.09146,0.01242 -0.1829406,0.02488 -0.2739852,0.04011 -0.09929,0.01906 -0.1896006,0.06126 -0.2874692,0.08478 -0.1249706,0.04707 -0.2536692,0.08609 -0.3833638,0.117528 -1.5840786,0.543865 -2.3533027,-1.696355 -0.7692276,-2.240279 z"
   inkscape:connector-curvature="0" /><path
   style="fill:#91d900;fill-opacity:1"
   id="path185"
   d="m 11.040949,3.604301 c 0.05053,-0.046002 -0.152261,0.096563 -0.165033,0.1051608 -0.07078,0.034908 -0.140189,0.076466 -0.205228,0.1213583 -0.08287,0.0551 -0.166654,0.1101531 -0.24494,0.1718939 C 10.32154,4.091551 10.217558,4.1804478 10.119445,4.276069 9.9961608,4.3954554 9.8822288,4.5239151 9.7670628,4.651027 9.6344778,4.7999342 9.5073271,4.9534704 9.379511,5.1064393 9.2517754,5.2582121 9.1312261,5.415376 9.0158178,5.5766456 8.8915431,5.7449941 8.7806667,5.922387 8.6719587,6.1009907 8.5508721,6.2921758 8.4470252,6.4932417 8.3464362,6.6957066 8.2352107,6.9200958 8.1336615,7.1490229 8.0362978,7.3797024 7.9333842,7.6260786 7.8379779,7.8754299 7.7420609,8.1245765 7.6474951,8.3678059 7.5609599,8.6139975 7.4782832,8.8614832 7.3948616,9.1064413 7.3269718,9.3561381 7.2605622,9.6061087 7.1923647,9.8579557 7.1344624,10.112227 7.0825721,10.367868 c -0.048059,0.238345 -0.082089,0.479259 -0.1082918,0.720903 -0.025835,0.234881 -0.032098,0.471277 -0.029319,0.707378 0.00285,0.251046 0.024439,0.5013 0.048998,0.750995 0.022186,0.255486 0.058617,0.509456 0.098272,0.762731 0.039992,0.246396 0.092068,0.490487 0.148787,0.733503 0.052405,0.24277 0.1283408,0.479318 0.1988783,0.717167 0.060372,0.209492 0.1401429,0.412135 0.2297925,0.61058 0.097082,0.210669 0.1982676,0.419359 0.3053543,0.625128 0.1102098,0.205962 0.2310601,0.406093 0.3537124,0.60483 0.1238092,0.199861 0.2638923,0.388631 0.4030522,0.577849 0.1570143,0.212482 0.3173854,0.422499 0.4744378,0.634953 0.1471024,0.203035 0.3077924,0.395321 0.4719137,0.584632 0.1679893,0.19016 0.3406005,0.375999 0.5113265,0.563651 0.167906,0.168878 0.336551,0.337202 0.518913,0.490545 0.197762,0.170216 0.398746,0.336715 0.603093,0.498967 0.211669,0.162975 0.42108,0.32862 0.644645,0.475116 0.216984,0.143353 0.445068,0.268467 0.675246,0.389028 0.243151,0.13528 0.492655,0.258467 0.744496,0.376587 0.239876,0.115901 0.490198,0.207116 0.739698,0.29957 0.261468,0.0916 0.524949,0.177178 0.789626,0.258985 0.271544,0.07661 0.544306,0.149361 0.818857,0.214445 0.277654,0.07003 0.559524,0.119693 0.841161,0.17029 0.284317,0.04054 0.569122,0.07742 0.854097,0.112982 0.270008,0.02644 0.541088,0.04071 0.812191,0.04996 0.03826,-0.0016 0.07651,-0.0036 0.114786,-0.0049 0.156026,-0.0054 0.306392,-0.0058 0.26704,-0.0058 -1.036283,0.0026 -0.508958,0.0054 -0.279983,-0.0026 0.28777,-0.01454 0.572732,-0.05957 0.85742,-0.101729 0.301304,-0.04609 0.599098,-0.112164 0.896922,-0.176446 0.290333,-0.06341 0.575993,-0.14715 0.859364,-0.236258 0.270073,-0.0843 0.536985,-0.178915 0.799162,-0.285251 0.253964,-0.111214 0.49716,-0.24479 0.729124,-0.396259 0.25747,-0.170657 0.495963,-0.367061 0.729697,-0.568362 0.23469,-0.20255 0.443175,-0.432479 0.650148,-0.66255 0.211522,-0.236825 0.406003,-0.487348 0.587272,-0.747826 0.199704,-0.290988 0.391377,-0.587417 0.579002,-0.886306 0.177216,-0.295301 0.357334,-0.588913 0.529642,-0.887121 0.166656,-0.290536 0.326405,-0.584923 0.484154,-0.880363 0.149475,-0.28295 0.29542,-0.567729 0.435862,-0.855269 0.136821,-0.288758 0.274896,-0.576891 0.407029,-0.867835 0.126951,-0.281561 0.233635,-0.571458 0.341051,-0.860828 0.108596,-0.296962 0.210054,-0.596462 0.300918,-0.89932 0.08706,-0.300153 0.153335,-0.605906 0.21349,-0.912432 0.06116,-0.300078 0.101465,-0.603725 0.135879,-0.90785 0.02974,-0.286958 0.04827,-0.574799 0.05604,-0.863145 0.0091,-0.266551 -0.01328,-0.5326852 -0.04065,-0.7976479 C 27.860451,9.2160361 27.811423,8.9429115 27.759548,8.670525 27.707582,8.4099101 27.64354,8.1520166 27.569721,7.8967906 27.494394,7.6452116 27.400537,7.3997854 27.303372,7.155992 27.200839,6.9119223 27.080786,6.6759849 26.960246,6.4404605 26.836178,6.1972169 26.698467,5.9615275 26.556989,5.7280994 26.413177,5.4905979 26.258915,5.2596798 26.099129,5.0326905 25.94328,4.7919935 25.767885,4.5652769 25.599463,4.333482 25.437926,4.1182076 25.273437,3.9051738 25.101049,3.6984501 24.939029,3.5096283 24.767658,3.3290494 24.592387,3.1525462 24.477928,3.0416722 24.535417,3.0962602 24.419937,2.9887487 23.347214,1.6234747 25.278003,0.10641501 26.350726,1.4716889 v 0 c 0.145325,0.1445655 0.0733,0.071721 0.216069,0.2185288 0.209528,0.2218868 0.415758,0.4471532 0.607556,0.6847179 0.190992,0.2381971 0.378862,0.4790071 0.559295,0.7253324 0.180909,0.2458756 0.356432,0.4954768 0.528655,0.7475143 0.181816,0.2681134 0.358227,0.5399655 0.521305,0.8199773 0.160428,0.2754367 0.313587,0.5549412 0.458141,0.8390705 0.148246,0.2966082 0.293963,0.5947474 0.412931,0.9046345 0.114889,0.3039994 0.223197,0.6106775 0.313028,0.9231415 0.08823,0.3134957 0.16574,0.6300834 0.229087,0.9495919 0.06417,0.3328374 0.12024,0.6672098 0.150728,1.0050782 0.03396,0.3511907 0.05706,0.7037867 0.04773,1.0568548 -0.0094,0.342561 -0.0254,0.684755 -0.05923,1.025922 -0.03677,0.362485 -0.07884,0.724763 -0.150005,1.082405 -0.07122,0.371156 -0.148139,0.741548 -0.253831,1.104711 -0.101361,0.348117 -0.214704,0.692637 -0.338886,1.033308 -0.122337,0.33138 -0.246818,0.662223 -0.387666,0.986272 -0.135843,0.309605 -0.277793,0.61635 -0.42559,0.920439 -0.147627,0.313714 -0.301906,0.624089 -0.462094,0.931589 -0.164782,0.315264 -0.329784,0.630556 -0.505324,0.940006 -0.179777,0.321355 -0.370322,0.63628 -0.556314,0.954041 -0.199178,0.330107 -0.40505,0.656171 -0.621356,0.975367 -0.223782,0.332751 -0.464702,0.652589 -0.724962,0.95788 -0.255294,0.296732 -0.518905,0.586864 -0.797681,0.861796 -0.291627,0.269058 -0.593223,0.527648 -0.916249,0.758694 -0.318122,0.226201 -0.643978,0.43931 -0.995322,0.61137 -0.326078,0.164271 -0.662972,0.301412 -1.00825,0.420235 -0.332945,0.111007 -0.666057,0.221096 -1.004465,0.314716 -0.335949,0.08604 -0.675055,0.158887 -1.01391,0.232464 -0.343928,0.06586 -0.690395,0.117918 -1.037926,0.16086 -0.55093,0.06011 -1.107312,0.06219 -1.660012,0.0255 -0.323268,-0.02295 -0.64642,-0.05034 -0.966999,-0.09902 -0.321334,-0.04569 -0.642705,-0.09315 -0.96054,-0.159523 -0.320986,-0.06518 -0.63982,-0.139956 -0.955881,-0.226095 -0.309629,-0.0853 -0.619378,-0.170786 -0.923145,-0.275553 -0.301558,-0.100261 -0.602344,-0.203595 -0.896441,-0.324333 -0.296108,-0.120685 -0.587744,-0.25159 -0.87377,-0.39469 -0.280586,-0.140629 -0.55818,-0.287049 -0.831285,-0.441785 C 10.778699,22.555376 10.4942,22.379067 10.224859,22.180603 9.9760408,21.99396 9.730528,21.802768 9.4908568,21.604479 9.2609943,21.413705 9.0322087,21.22136 8.8140679,21.017138 8.5999799,20.810802 8.3887776,20.60116 8.1890914,20.380731 7.9978926,20.174795 7.8111963,19.964607 7.6291027,19.750577 7.4421484,19.525403 7.2615759,19.295157 7.0894192,19.058419 6.9244997,18.83894 6.7630542,18.616889 6.6011191,18.395211 6.4322172,18.156764 6.2665769,17.915824 6.118402,17.663749 5.9776718,17.423138 5.8395893,17.180771 5.7136199,16.932034 5.5900073,16.686889 5.470398,16.43973 5.3617836,16.187503 5.2454868,15.911812 5.1393797,15.632067 5.0566667,15.344226 4.9736621,15.066548 4.8909072,14.788636 4.8285972,14.505386 4.7607735,14.211679 4.7008799,13.916184 4.6549549,13.618186 4.6112717,13.326203 4.5687622,13.03374 4.5425067,12.739594 c -0.028101,-0.307688 -0.054715,-0.615892 -0.05486,-0.92515 -0.00219,-0.313503 0.00654,-0.627316 0.039797,-0.939279 0.031321,-0.304076 0.07367,-0.606722 0.1295016,-0.9073349 C 4.7152175,9.6712331 4.7780164,9.375596 4.8564576,9.0835593 4.9323542,8.7939031 5.0135101,8.5056518 5.1062118,8.2208611 5.1969711,7.941137 5.2915622,7.6626178 5.3965033,7.3878441 5.4983864,7.1219368 5.6028206,6.8570452 5.7092421,6.5929252 5.8221726,6.315994 5.9394011,6.0406374 6.0723864,5.7726215 6.2004589,5.5191233 6.3292516,5.2658489 6.4785383,5.0239151 6.6144275,4.8037801 6.7476385,4.5816873 6.8973285,4.3704751 7.0379306,4.175879 7.1759096,3.9789461 7.3300839,3.7946896 7.4707097,3.6198812 7.6148103,3.4479243 7.7619919,3.2786094 7.903759,3.1147633 8.0511758,2.9560482 8.2021823,2.8008012 8.3386323,2.6639491 8.474252,2.5261117 8.6261568,2.4062399 8.7537268,2.2956712 8.8828363,2.1876193 9.0213333,2.0909251 9.1340543,2.0166507 9.2442589,1.9395874 9.3593387,1.8688196 9.4305584,1.8486192 9.490283,1.8086536 9.5492882,1.7653189 10.849645,0.71055541 12.341306,2.5495375 11.040949,3.604301 Z"
   inkscape:connector-curvature="0" /><path
   style="fill:#91d900;fill-opacity:1"
   id="path187"
   d="m 19.073152,24.112905 c 0.0033,0.07172 0.005,0.143498 0.0067,0.215268 0.0023,0.124033 -0.0037,0.248098 -0.0087,0.372018 -0.0052,0.129165 -0.0095,0.258366 -0.01348,0.387575 -0.0047,0.160962 -0.01825,0.321542 -0.02895,0.482194 -0.0099,0.170617 -0.02957,0.340456 -0.0456,0.510567 -0.01644,0.16155 -0.03019,0.323373 -0.0435,0.485208 -0.01288,0.153904 -0.01637,0.308407 -0.02029,0.462743 -0.0036,0.177849 -0.0084,0.355666 -0.01199,0.533516 -0.0035,0.187167 -0.0063,0.374349 -0.0089,0.561531 -0.0014,0.205034 -0.0082,0.409915 -0.01695,0.614748 -0.008,0.191825 -0.02018,0.38349 -0.02406,0.575464 -0.004,0.193999 -0.0035,0.388061 -0.0037,0.582092 -0.0017,0.203262 -0.0015,0.406535 -0.0015,0.609802 -0.0016,0.205662 -0.0013,0.411334 -0.0012,0.617 -8.93e-4,0.137492 -5.69e-4,0.06878 -9.73e-4,0.206146 -0.0033,1.718358 -2.43342,1.713699 -2.430125,-0.0047 v 0 c 2.3e-4,-0.137527 2.32e-4,-0.06874 -7e-6,-0.206366 10e-4,-0.205998 0.0024,-0.411998 0.002,-0.618 0.0012,-0.20391 0.0027,-0.407821 0.0025,-0.611735 0.0014,-0.207856 0.0028,-0.415713 0.0052,-0.62356 0.0056,-0.206421 0.01714,-0.412622 0.02655,-0.618899 0.0092,-0.185972 0.01614,-0.371901 0.01713,-0.558132 0.0042,-0.190392 0.0086,-0.380778 0.01359,-0.57115 0.0047,-0.182538 0.0084,-0.365099 0.01504,-0.54758 0.0064,-0.189941 0.01076,-0.380168 0.0276,-0.569541 0.01453,-0.172311 0.02975,-0.344549 0.04692,-0.516622 0.01591,-0.153088 0.03387,-0.306022 0.04604,-0.459453 0.01112,-0.138504 0.02468,-0.276902 0.0307,-0.415747 0.0068,-0.138761 0.01412,-0.277506 0.02351,-0.416122 0.0061,-0.08776 0.01517,-0.175413 0.01967,-0.263037 0.0017,-0.07177 0.0034,-0.143551 0.0067,-0.215268 0,-1.675813 2.369958,-1.675813 2.369958,0 z"
   inkscape:connector-curvature="0" /><path
   style="fill:#91d900;fill-opacity:1"
   id="path189"
   d="m 7.9091821,14.458111 c 0.060122,-7.06e-4 0.1202147,-0.0031 0.1803173,-0.0047 0.1132045,0.01079 0.2268626,0.0209 0.3411855,0.02455 0.1243074,6.39e-4 0.2485834,0.0041 0.3728578,0.0069 0.153579,0.0041 0.3072172,0.0043 0.4608316,0.0061 0.1803812,0.0026 0.3607583,0.0056 0.5411393,0.0082 0.1939535,0.0028 0.3879124,0.0053 0.5818724,0.0076 0.210631,7.25e-4 0.421252,0.0032 0.631874,0.0052 0.234609,8.64e-4 0.46922,9.4e-5 0.703829,8.48e-4 0.263601,0.0048 0.527155,0.01675 0.790732,0.02523 0.274866,0.0092 0.54999,0.0079 0.824561,0.02405 0.29697,0.01139 0.593435,0.0284 0.889964,0.04745 0.301817,0.01621 0.60254,0.04669 0.90377,0.07102 0.314578,0.0215 0.626804,0.06593 0.939832,0.102168 0.329218,0.03787 0.659313,0.06723 0.989192,0.09855 0.33673,0.03259 0.673638,0.06328 1.01066,0.0927 0.330466,0.02679 0.661025,0.05529 0.992352,0.0687 0.335616,0.01432 0.67122,0.02894 1.006831,0.04336 0.323565,0.01402 0.647101,0.02871 0.970688,0.04223 0.305944,0.01237 0.611956,0.02297 0.917977,0.03322 0.307601,0.01098 0.614925,0.03265 0.920537,0.06941 0.267523,0.03222 0.535399,0.06159 0.803491,0.08866 0.2472,0.02595 0.495084,0.04517 0.742852,0.06485 0.256072,0.01643 0.510433,0.0502 0.765759,0.07518 0.247229,0.03669 0.495495,0.06627 0.744266,0.09022 0.247228,0.02166 0.494675,0.04003 0.740365,0.0756 0.183308,0.02458 0.363724,0.06326 0.53884,0.122621 0.308947,0.127495 0.713176,0.436221 0.735542,0.798245 0.02148,0.347629 -0.118261,0.68647 -0.177391,1.029705 -0.152652,0.188319 -0.339003,0.354965 -0.572296,0.433523 -0.125634,0.04575 -0.25209,0.08965 -0.377697,0.13576 -0.182,0.06968 -0.36966,0.122117 -0.553326,0.186888 -0.230691,0.08262 -0.465352,0.152923 -0.701373,0.218456 -0.260119,0.07599 -0.522397,0.144446 -0.785613,0.2088 -0.300822,0.07375 -0.605178,0.130555 -0.910232,0.18336 -0.311224,0.05179 -0.623888,0.09417 -0.936284,0.138101 -0.318864,0.04421 -0.638544,0.08195 -0.958328,0.118756 -0.340931,0.0389 -0.682428,0.07272 -1.024134,0.104031 -0.360028,0.03077 -0.720376,0.05762 -1.080765,0.08377 -0.370652,0.02597 -0.74154,0.04791 -1.112565,0.06772 -0.353131,0.01847 -0.706319,0.0349 -1.059378,0.05457 -0.357979,0.02239 -0.714688,0.0599 -1.071311,0.09756 -0.370128,0.03472 -0.739279,0.07906 -1.108742,0.120133 -0.350511,0.03464 -0.699895,0.07746 -1.048574,0.127094 -0.362156,0.05204 -0.723969,0.106487 -1.086514,0.155759 -0.335336,0.03813 -0.669148,0.08585 -1.002811,0.13629 -0.280315,0.0427 -0.56082,0.08112 -0.842748,0.111242 -0.133744,0.0082 -0.267917,0.03332 -0.40227,0.02702 0.0079,0.0084 -0.03759,9.83e-4 -0.03402,-0.01032 0.01339,-0.04239 0.110384,-0.09712 0.136361,-0.126297 0.06658,-0.07478 0.12826,-0.153788 0.19239,-0.230683 0.06084,-0.186312 0.16382,-0.363836 0.182511,-0.558936 0.04289,-0.447656 -0.201394,-0.77175 -0.50117,-1.049923 -0.04047,-0.05896 0.104845,-0.03581 0.13578,-0.03551 0.127625,0.0072 0.255365,0.01188 0.383041,0.01811 0.171177,0.0072 0.342368,0.01403 0.513544,0.02135 0.197501,0.0099 0.395135,0.01544 0.592829,0.01954 0.227675,0.0064 0.455369,0.01189 0.683049,0.01815 0.241356,0.0069 0.48277,0.01133 0.724162,0.01678 0.263333,-5.44e-4 0.525995,0.01572 0.788921,0.02766 0.269527,0.0099 0.538328,0.03238 0.80732,0.05179 0.287423,0.01863 0.56975,0.07269 0.853251,0.119732 0.315121,0.06683 0.625519,0.154664 0.934663,0.244793 0.289824,0.08564 0.581886,0.162836 0.875171,0.235561 0.290269,0.07184 0.582996,0.133399 0.876531,0.190266 0.329091,0.05955 0.661133,0.100324 0.992693,0.14315 0.374848,0.05995 0.751418,0.108534 1.126079,0.169589 0.288609,0.04004 0.575502,0.09151 0.862089,0.143842 0.176903,0.02843 0.348931,0.08061 0.524132,0.116312 0.111007,0.02037 0.213533,0.06561 0.31417,0.114479 0.754435,0.407376 0.107773,0.931293 -0.181835,2.163524 -0.01039,0.04421 -0.08772,0.02813 -0.13313,0.02894 -0.600736,0.01062 -0.497375,0.02529 -0.785649,-0.02504 -0.08908,-0.01355 -0.179305,-0.01133 -0.269081,-0.0124 -0.130831,5.23e-4 -0.261683,2.06e-4 -0.392507,-0.0015 -0.192542,-0.0017 -0.385074,8.31e-4 -0.57762,5.95e-4 -0.281594,0.01604 -0.120059,0.0048 0.430838,0.0078 0.03915,2.13e-4 -0.0783,8.2e-5 -0.117452,2.62e-4 -0.123172,5.65e-4 -0.246321,0.0027 -0.369484,0.0042 -0.254552,0.0029 -0.509111,0.0053 -0.76367,0.0075 -0.25016,9.5e-5 -0.500102,0.0044 -0.749982,0.01656 -0.251231,0.0065 -0.501243,0.03192 -0.751462,0.05333 -0.248602,0.02488 -0.496161,0.0597 -0.743164,0.09707 -0.240641,0.03515 -0.476144,0.09597 -0.711318,0.156522 -0.246534,0.06563 -0.493621,0.129352 -0.739358,0.197892 -0.243891,0.07201 -0.489858,0.136331 -0.735004,0.203815 -0.122329,0.03655 -0.246403,0.06665 -0.369759,0.09946 -1.538066,0.775875 -2.635319,-1.399279 -1.097253,-2.175154 v 0 c 0.101455,-0.02218 0.200976,-0.05043 0.301825,-0.07519 0.242838,-0.07092 0.485541,-0.141563 0.730294,-0.205646 0.255904,-0.07466 0.511733,-0.149441 0.769668,-0.216951 0.279869,-0.07706 0.559055,-0.156593 0.841476,-0.223895 0.294093,-0.06506 0.590762,-0.115427 0.889232,-0.156044 0.2864,-0.0382 0.574205,-0.06575 0.861948,-0.09163 0.28009,-0.01649 0.560128,-0.03948 0.840882,-0.03811 0.253972,-0.0018 0.507942,-0.0038 0.761914,-0.0056 0.468707,-0.0027 0.938359,-0.01521 1.406564,0.0048 0.200114,0.0086 0.400027,0.02044 0.599919,0.03317 0.146734,0.009 0.293414,0.02013 0.439448,0.03721 0.09548,0.01056 0.190646,0.02635 0.286627,0.03109 0.384895,-0.161091 -0.678331,-0.0522 -0.688468,0.01286 -0.321576,2.064104 -0.808245,1.630926 -0.137328,2.136544 -0.08604,-0.02443 0.02775,0.01171 -0.0075,0.02347 -0.03538,0.01179 -0.0836,-0.0085 -0.117978,-0.0071 -0.156285,-0.02498 -0.31505,-0.03163 -0.472377,-0.04833 -0.297749,-0.02951 -0.595396,-0.06154 -0.891965,-0.101223 -0.377826,-0.04907 -0.753988,-0.109526 -1.130708,-0.16629 -0.368426,-0.06096 -0.735536,-0.12989 -1.099191,-0.215202 -0.32177,-0.07312 -0.642872,-0.149152 -0.96125,-0.236058 -0.301776,-0.08225 -0.601875,-0.170402 -0.902402,-0.257072 -0.234375,-0.06184 -0.468767,-0.128516 -0.710685,-0.153642 -0.22753,-0.03226 -0.457361,-0.04377 -0.686683,-0.05659 -0.255125,-0.01518 -0.510131,-0.02857 -0.765561,-0.0375 -0.250506,-0.01072 -0.501133,-0.01305 -0.751707,-0.02226 -0.245124,-0.0071 -0.490187,-0.01578 -0.735257,-0.02453 -0.233185,-0.0086 -0.466313,-0.01846 -0.69932,-0.03103 -0.206264,-0.01276 -0.412501,-0.02596 -0.618746,-0.03901 -0.185501,-0.01306 -0.370949,-0.02783 -0.55579,-0.04834 -0.155911,-0.01717 -0.311524,-0.03755 -0.466013,-0.06486 -0.150125,-0.03074 -0.300772,-0.06381 -0.4383008,-0.134279 -0.4119421,-0.225508 -0.7185585,-0.646641 -0.6764981,-1.146457 0.017008,-0.202106 0.1226423,-0.386656 0.1839634,-0.579984 0.1832134,-0.22001 0.3556479,-0.419976 0.6362685,-0.507293 0.178207,-0.06309 0.361714,-0.108238 0.547958,-0.140764 0.263933,-0.04596 0.529166,-0.08185 0.791952,-0.134181 0.350445,-0.05903 0.700033,-0.125088 1.052801,-0.168585 0.352484,-0.04428 0.704863,-0.08925 1.055833,-0.144574 0.37088,-0.05615 0.741491,-0.11586 1.114712,-0.154434 0.37632,-0.0423 0.752456,-0.08624 1.128121,-0.134051 0.375246,-0.03587 0.750502,-0.07162 1.125885,-0.105748 0.365355,-0.03306 0.731427,-0.05411 1.09785,-0.07134 0.36392,-0.01977 0.727904,-0.03843 1.091737,-0.05972 0.350875,-0.01986 0.701607,-0.04203 1.052092,-0.06795 0.327311,-0.02248 0.654516,-0.04622 0.98121,-0.07658 0.304468,-0.02856 0.608696,-0.05995 0.912343,-0.09625 0.296513,-0.03514 0.592227,-0.07651 0.887929,-0.117853 0.270131,-0.03711 0.54042,-0.07411 0.809009,-0.121261 0.232347,-0.04228 0.46328,-0.09084 0.692083,-0.1496 0.206507,-0.0555 0.415149,-0.103067 0.62042,-0.163102 0.185626,-0.05508 0.367001,-0.123873 0.556261,-0.166372 0.135808,-0.03981 0.270697,-0.08266 0.40619,-0.122434 0.183381,-0.05627 -0.162321,0.214697 -0.167907,0.271984 -0.04948,0.332639 -0.175073,0.662676 -0.148432,0.997918 0.0296,0.372477 0.357875,0.488813 0.529582,0.708073 -0.12497,0.02677 -0.25697,-0.0073 -0.382989,-0.0044 -0.254646,-0.01457 -0.508141,-0.04289 -0.761083,-0.07542 -0.239624,-0.0304 -0.479315,-0.06265 -0.72022,-0.08091 -0.246306,-0.02479 -0.492917,-0.04329 -0.739593,-0.06378 -0.257475,-0.02332 -0.514702,-0.04902 -0.771958,-0.07457 -0.259884,-0.02592 -0.519795,-0.05271 -0.780362,-0.07071 -0.273428,-0.01162 -0.546932,-0.02003 -0.820516,-0.02662 -0.309692,-0.01028 -0.619365,-0.02107 -0.929023,-0.03231 -0.3273,-0.01147 -0.654622,-0.0224 -0.981848,-0.03587 -0.348451,-0.01475 -0.696944,-0.02957 -1.044897,-0.05377 -0.347498,-0.02791 -0.694907,-0.05676 -1.042115,-0.0881 -0.346208,-0.03063 -0.692351,-0.06216 -1.038043,-0.09822 -0.342168,-0.03684 -0.683714,-0.07903 -1.024752,-0.12518 -0.284449,-0.0368 -0.570257,-0.06008 -0.8563,-0.08055 -0.289039,-0.02295 -0.578234,-0.0422 -0.867731,-0.05842 -0.281858,-0.0164 -0.564124,-0.02626 -0.846142,-0.03977 -0.270003,-0.0046 -0.53974,-0.018 -0.809597,-0.02759 -0.247888,-0.0085 -0.495724,-0.01749 -0.743784,-0.0162 -0.235818,-0.0038 -0.471604,-0.0094 -0.707392,-0.01475 -0.212529,-0.0036 -0.4250726,-0.0071 -0.6375427,-0.01339 -0.1964633,-0.0044 -0.3929217,-0.009 -0.5893563,-0.0145 -0.1840339,-0.0052 -0.3680684,-0.01065 -0.5520286,-0.0181 -0.1606928,-0.0071 -0.3212653,-0.01647 -0.4818752,-0.02521 -0.1353672,-0.008 -0.2708122,-0.01596 -0.4057053,-0.0301 -0.077904,-0.0068 -0.1575776,-0.01703 -0.2226857,-0.0038 -0.05924,-0.0017 -0.118471,-0.004 -0.1777311,-0.0047 -1.6154592,-0.441939 -0.9904622,-2.726544 0.624997,-2.284604 z"
   inkscape:connector-curvature="0" /></svg>