<?xml version="1.0" encoding="UTF-8" standalone="no"?>
<!-- Generator: Adobe Illustrator 23.1.1, SVG Export Plug-In . SVG Version: 6.00 Build 0)  -->

<svg
   xmlns:dc="http://purl.org/dc/elements/1.1/"
   xmlns:cc="http://creativecommons.org/ns#"
   xmlns:rdf="http://www.w3.org/1999/02/22-rdf-syntax-ns#"
   xmlns:svg="http://www.w3.org/2000/svg"
   xmlns="http://www.w3.org/2000/svg"
   xmlns:sodipodi="http://sodipodi.sourceforge.net/DTD/sodipodi-0.dtd"
   xmlns:inkscape="http://www.inkscape.org/namespaces/inkscape"
   version="1.1"
   id="Calque_1"
   x="0px"
   y="0px"
   viewBox="0 0 35.6 36.1"
   style="enable-background:new 0 0 35.6 36.1;"
   xml:space="preserve"
   sodipodi:docname="cafetaria.svg"
   inkscape:version="0.92.4 (unknown)"><metadata
   id="metadata81"><rdf:RDF><cc:Work
       rdf:about=""><dc:format>image/svg+xml</dc:format><dc:type
         rdf:resource="http://purl.org/dc/dcmitype/StillImage" /><dc:title></dc:title></cc:Work></rdf:RDF></metadata><defs
   id="defs79"><inkscape:path-effect
   effect="bspline"
   id="path-effect3832"
   is_visible="true"
   weight="33.333333"
   steps="2"
   helper_size="0"
   apply_no_weight="true"
   apply_with_weight="true"
   only_selected="false" />
	
	
	
	
	
	
	
</defs><sodipodi:namedview
   pagecolor="#ffffff"
   bordercolor="#666666"
   borderopacity="1"
   objecttolerance="10"
   gridtolerance="10"
   guidetolerance="10"
   inkscape:pageopacity="0"
   inkscape:pageshadow="2"
   inkscape:window-width="1613"
   inkscape:window-height="995"
   id="namedview77"
   showgrid="false"
   inkscape:zoom="3.2686982"
   inkscape:cx="155.41355"
   inkscape:cy="-0.76507891"
   inkscape:window-x="67"
   inkscape:window-y="27"
   inkscape:window-maximized="1"
   inkscape:current-layer="Calque_1" />
<style
   type="text/css"
   id="style2">
	.st0{clip-path:url(#SVGID_2_);fill:#91D900;}
	.st1{clip-path:url(#SVGID_4_);fill:#91D900;}
	.st2{clip-path:url(#SVGID_6_);fill:#91D900;}
	.st3{clip-path:url(#SVGID_8_);fill:#91D900;}
	.st4{clip-path:url(#SVGID_10_);fill:#91D900;}
	.st5{clip-path:url(#SVGID_12_);fill:#91D900;}
	.st6{clip-path:url(#SVGID_14_);fill:#91D900;}
</style>

<path
   style="fill:#91d900;fill-opacity:1;stroke-width:0.98105139"
   d="m 12.746896,0.39718532 c 2.405216,2.10354458 2.380516,6.28050208 0.009,8.39958018 -1.435762,1.2608715 2.602691,3.8626785 0.176866,3.9606155 C 11.223566,11.761783 10.568519,9.111572 12.07789,7.6321848 13.506109,6.10782 13.642532,3.6680101 12.424254,1.9822556 11.547992,1.4178925 11.221492,-0.4685201 12.746899,0.39718532 Z"
   id="path4720"
   inkscape:connector-curvature="0" /><path
   style="fill:#91d900;fill-opacity:1;stroke-width:0.98105139"
   d="m 15.560911,0.7953941 c 1.813056,1.8485633 2.659413,5.136489 0.743249,7.2164063 C 14.908789,9.4274129 15.844138,11.640615 16.202569,12.772989 13.902305,13.302534 13.504315,9.2429947 14.939889,7.9251528 16.353247,6.2135903 16.480887,3.716088 14.894099,2.0766711 14.096933,1.410465 14.54021,-0.06148198 15.560911,0.7953941 Z"
   id="path4722"
   inkscape:connector-curvature="0" /><path
   style="fill:#91d900;fill-opacity:1;stroke-width:0.98105139"
   d="m 18.412612,0.54108282 c 1.975672,1.33473878 3.052697,4.27976118 1.57031,6.35860708 -1.153178,1.3287985 -1.987436,3.2593131 -0.452336,4.6194081 0.382889,2.086672 -1.757265,0.910356 -1.82582,-0.389603 -1.115861,-1.9015521 0.299753,-3.5587068 1.285955,-5.0657828 1.044515,-1.9456671 -0.444335,-3.7744674 -1.631177,-5.021392 -0.04854,-0.56673399 0.632879,-0.92217566 1.053068,-0.50123738 z"
   id="path4724"
   inkscape:connector-curvature="0" /><path
   style="fill:#91d900;fill-opacity:1;stroke-width:0.98105139"
   d="m 3.7608649,13.206139 c -2.0680488,0.880635 0.074176,3.594112 -0.4456307,5.277988 0.1587359,4.544593 1.1803645,8.054239 3.8569917,11.362513 1.4230224,1.161531 2.6869277,-1.585441 0.7651897,-1.809557 -2.94018,-3.690468 -2.9180245,-8.782911 -3.3338683,-12.909442 5.7780567,0.357141 11.1030987,0.264151 16.6008027,0.08247 1.773547,0.103083 4.692798,-0.698059 4.469636,2.042159 0.341213,3.820304 -2.170213,6.972859 -3.162034,10.488186 -1.531196,0.698963 -0.01942,3.156616 0.891347,1.212811 2.208069,-3.09053 2.813776,-6.950565 3.88621,-10.504146 0.53109,-1.671103 1.617822,-5.168896 -1.351255,-4.866229 -2.466182,-0.05908 -4.931737,-0.135693 -7.385592,0.173699 C 13.627668,13.638645 8.6842972,13.514304 3.7608649,13.206139 Z"
   id="path4726"
   inkscape:connector-curvature="0"
   sodipodi:nodetypes="ccccccccccccc" /><path
   style="fill:#91d900;fill-opacity:1;stroke-width:0.98105139"
   d="m 30.437774,14.403849 c -1.550834,0.651352 -4.460144,2.11051 -3.846134,3.920666 -0.207734,1.961978 -0.551751,3.923295 -1.113155,5.80618 0.44944,4.631014 6.885497,3.487967 8.549456,0.914059 1.323191,-1.954244 2.066244,-4.490029 1.166432,-6.772432 -1.390316,-2.746215 -2.141698,-3.537283 -4.756599,-3.868473 z m 0.375516,1.973828 c 1.966673,0.15478 2.847539,2.63721 2.917151,4.350569 -0.180695,2.823385 -3.071276,5.380683 -5.917969,4.705677 -1.584195,-1.157625 -0.02113,-3.40829 -0.243796,-5.034592 0.277738,-1.750727 1.187751,-3.914401 3.244614,-4.021654 z"
   id="path4736"
   inkscape:connector-curvature="0"
   sodipodi:nodetypes="ccccccccccc" /><path
   style="fill:#91d900;fill-opacity:1;stroke-width:0.98105139"
   d="m 28.57361,28.444857 c -5.963,0.09527 -11.43026,0.579542 -16.855335,0.30058 -2.880239,-0.0025 -5.7506622,0.279789 -8.6329741,0.175093 -1.3750096,-0.251681 -4.00540292,0.31565 -2.4318876,2.103087 3.23501,3.437191 6.8477588,4.266836 11.1101587,4.702918 3.267649,0.638598 6.585021,0.08457 9.874888,0.02207 4.056724,-0.264298 6.862093,-2.084388 8.430491,-5.622742 0.292109,-0.926017 -0.551745,-1.849861 -1.495341,-1.681007 z m -11.748263,1.314607 c 0.182621,0.003 0.111364,0.0018 0,0 z m 8.625427,0.773753 c 1.56639,-0.619728 3.33251,0.381869 1.565148,1.740018 -1.490522,1.689489 -3.860449,1.916776 -5.970126,1.906564 -5.09105,-0.05186 -9.822332,0.258629 -14.4304371,-1.15177 -1.2313715,-0.660952 -2.876555,-1.700797 -3.6262079,-2.50951 7.546915,-0.04013 15.806661,0.01474 22.461623,0.01469 z"
   id="path4740"
   inkscape:connector-curvature="0"
   sodipodi:nodetypes="ccccccccccccccccc" /></svg>