<?xml version="1.0" encoding="UTF-8" standalone="no"?>
<!-- Generator: Adobe Illustrator 23.1.1, SVG Export Plug-In . SVG Version: 6.00 Build 0)  -->

<svg
   xmlns:dc="http://purl.org/dc/elements/1.1/"
   xmlns:cc="http://creativecommons.org/ns#"
   xmlns:rdf="http://www.w3.org/1999/02/22-rdf-syntax-ns#"
   xmlns:svg="http://www.w3.org/2000/svg"
   xmlns="http://www.w3.org/2000/svg"
   xmlns:sodipodi="http://sodipodi.sourceforge.net/DTD/sodipodi-0.dtd"
   xmlns:inkscape="http://www.inkscape.org/namespaces/inkscape"
   version="1.1"
   id="Calque_1"
   x="0px"
   y="0px"
   viewBox="0 0 35.6 36.1"
   style="enable-background:new 0 0 35.6 36.1;"
   xml:space="preserve"
   sodipodi:docname="chb_wf.svg"
   inkscape:version="0.92.4 (unknown)"><metadata
   id="metadata89"><rdf:RDF><cc:Work
       rdf:about=""><dc:format>image/svg+xml</dc:format><dc:type
         rdf:resource="http://purl.org/dc/dcmitype/StillImage" /><dc:title></dc:title></cc:Work></rdf:RDF></metadata><defs
   id="defs87" /><sodipodi:namedview
   pagecolor="#ffffff"
   bordercolor="#666666"
   borderopacity="1"
   objecttolerance="10"
   gridtolerance="10"
   guidetolerance="10"
   inkscape:pageopacity="0"
   inkscape:pageshadow="2"
   inkscape:window-width="1613"
   inkscape:window-height="995"
   id="namedview85"
   showgrid="false"
   inkscape:zoom="7.6586915"
   inkscape:cx="34.245594"
   inkscape:cy="-2.9845983"
   inkscape:window-x="67"
   inkscape:window-y="27"
   inkscape:window-maximized="1"
   inkscape:current-layer="Calque_1" />
<style
   type="text/css"
   id="style10">
	.st0{clip-path:url(#SVGID_2_);fill:#91D900;}
	.st1{clip-path:url(#SVGID_4_);fill:#91D900;}
	.st2{clip-path:url(#SVGID_6_);fill:#91D900;}
	.st3{clip-path:url(#SVGID_8_);fill:#91D900;}
	.st4{clip-path:url(#SVGID_10_);fill:#91D900;}
	.st5{clip-path:url(#SVGID_12_);fill:#91D900;}
	.st6{clip-path:url(#SVGID_14_);fill:#91D900;}
</style>

<path
   style="fill:#91d900;fill-opacity:1"
   id="path105"
   d="m 17.370219,12.578398 c 0.02863,0.04631 0.08347,0.08029 0.09929,0.132857 -0.02555,0.01247 -0.0064,0.02621 -0.009,0.0492 -0.02079,0.179265 0.522471,0.221084 0.665877,0.0286 0.0068,-0.01823 0.0063,-0.03716 0.0049,-0.05616 -0.0075,-0.01669 -0.01361,-0.0281 -0.0123,-0.04072 -0.02524,-0.0074 -0.01369,-0.01493 -0.04802,0.01336 -0.01504,0.0044 -0.02509,0.0083 -0.04136,0.02841 -0.01487,0.02065 -0.02872,0.04022 -0.04009,0.06259 0.0014,0.0053 -0.01323,0.03029 -0.0137,0.03117 -0.0046,0.04124 -0.0028,0.08255 -4.46e-4,0.123825 0.008,0.01971 0.01668,0.05915 0.0258,0.08514 0.0088,0.02836 0.02311,0.0322 0.04221,0.05525 0.01414,0.01551 0.04648,0.0224 0.05948,0.02801 0.03254,0.01208 0.0274,-0.0091 0.04481,-0.03257 0.04643,0.0065 0.0335,-0.02209 0.05988,-0.04036 0.02797,-0.01467 0.05335,-0.03373 0.07808,-0.05333 0.270274,-0.934373 -0.817595,-0.04407 -0.621547,0.05671 0.03039,0.0024 0.03574,0.01084 0.0501,0.02742 0.03447,-0.0051 0.065,-0.02408 0.0945,-0.04178 0.100932,-0.07771 0.03877,-0.01406 0.0076,0.06122 -0.01416,0.02923 -0.01839,0.05871 -0.02189,0.08997 0.0056,-0.05009 0.0025,0.01865 0.001,-0.04576 -0.0041,-0.03181 -0.0075,-0.02212 -0.01343,-0.04345 0.0018,0.03059 0.0044,0.06836 0.0016,0.09321 0.02194,0.03709 -0.0025,0.04723 0.0012,0.07807 0.02981,0.06284 -0.05856,0.01969 -0.08757,0.01302 -0.03685,-0.02119 -0.09809,-0.03711 -0.147639,-0.03581 -0.0067,-1.87e-4 -0.01338,-3.75e-4 -0.02007,-5.63e-4 -1.470026,-0.823138 -0.305933,-2.902068 1.164093,-2.07893 v 0 c 0.01998,0.0079 0.03996,0.01573 0.05994,0.0236 0.119415,0.05209 0.238504,0.104399 0.354083,0.162332 0.158784,0.08821 0.315107,0.182767 0.444462,0.312231 0.137756,0.140307 0.270148,0.286664 0.364499,0.460849 0.09724,0.177633 0.176963,0.364147 0.213047,0.564703 0.02756,0.145679 0.04682,0.293102 0.04728,0.441632 -5.79e-4,0.14046 -0.0057,0.281102 -0.03098,0.419648 -0.03247,0.18198 -0.08131,0.360439 -0.160768,0.528122 -0.08764,0.17241 -0.190176,0.331857 -0.32966,0.467289 -0.109928,0.112594 -0.225997,0.219205 -0.352848,0.312686 -0.146935,0.106742 -0.299644,0.204662 -0.469333,0.271826 -0.398054,0.161561 -0.728046,0.208797 -1.191723,0.161914 -0.175538,-0.02266 -0.349612,-0.05651 -0.516778,-0.116151 -0.184089,-0.0681 -0.360555,-0.15497 -0.523481,-0.265043 -0.170687,-0.122538 -0.328638,-0.261187 -0.460158,-0.426022 -0.116121,-0.149773 -0.225716,-0.304385 -0.304287,-0.477935 -0.07471,-0.161004 -0.138945,-0.326724 -0.176961,-0.500642 -0.034,-0.155925 -0.06148,-0.31357 -0.06918,-0.473277 -0.005,-0.141758 -0.0053,-0.283787 0.0103,-0.425006 0.01843,-0.163598 0.04615,-0.326317 0.100434,-0.482339 0.04647,-0.139133 0.100358,-0.275965 0.170779,-0.404943 0.07203,-0.132356 0.149474,-0.262283 0.244012,-0.380073 0.09706,-0.116655 0.197328,-0.231557 0.313182,-0.330144 0.129109,-0.108939 0.265275,-0.208758 0.416929,-0.284586 0.150506,-0.07475 0.30594,-0.139694 0.470361,-0.177266 0.370707,-0.0854 0.763478,-0.06993 1.12444,0.04356 0.123964,0.04216 0.244736,0.09253 0.359662,0.155637 0.128859,0.07357 0.249692,0.159859 0.351863,0.268456 1.103332,1.26044 -0.679199,2.820787 -1.782531,1.560347 z"
   inkscape:connector-curvature="0" /><path
   style="fill:#91d900;fill-opacity:1"
   id="path107"
   d="m 14.65303,8.3856333 c 0.04098,-0.01054 0.102431,-0.06379 0.106035,-0.0686 -0.02012,0.0066 -0.02733,-0.008 -0.04234,-0.01336 -0.02601,-0.0087 -0.05584,0.0074 -0.08015,0.01949 -0.06564,0.03504 -0.123246,0.08195 -0.18507,0.122878 -0.06372,0.03789 -0.119276,0.08701 -0.17354,0.137078 -0.06726,0.05889 -0.130438,0.1218806 -0.189216,0.1891776 -0.07692,0.08496 -0.145695,0.176649 -0.217641,0.265746 -0.07586,0.09833 -0.151641,0.196732 -0.226461,0.29586 -0.07526,0.102094 -0.14753,0.206281 -0.21738,0.312145 -0.07549,0.116983 -0.149457,0.234783 -0.219392,0.3551851 -0.07006,0.12165 -0.13462,0.246338 -0.196072,0.372521 -0.06472,0.134748 -0.123734,0.272112 -0.180871,0.41021 -0.05616,0.137782 -0.104313,0.278486 -0.149184,0.420277 -0.04426,0.136634 -0.07302,0.27699 -0.09775,0.418199 -0.02773,0.160325 -0.04283,0.322353 -0.0553,0.484449 -0.01187,0.180807 -0.02188,0.36181 -0.02741,0.54293 -0.0042,0.17717 -0.0014,0.35444 0.0053,0.531509 0.0083,0.176173 0.02452,0.351841 0.0435,0.527144 0.0211,0.170852 0.05052,0.340341 0.08496,0.508955 0.03265,0.159563 0.07859,0.316087 0.132162,0.469783 0.05376,0.16127 0.116755,0.319592 0.190073,0.472963 0.07303,0.143249 0.154839,0.281644 0.240319,0.417735 0.08483,0.133961 0.176798,0.263222 0.278709,0.384698 0.09472,0.11712 0.198297,0.225153 0.309444,0.326431 0.118997,0.100584 0.241985,0.196429 0.366046,0.290675 0.06637,0.04946 0.133885,0.09735 0.20082,0.146048 1.198771,1.223495 -0.531513,2.918813 -1.730284,1.695318 v 0 c -0.08505,-0.06374 -0.169773,-0.12787 -0.251681,-0.195581 -0.179013,-0.14735 -0.354557,-0.299427 -0.513881,-0.468267 -0.161308,-0.171239 -0.314134,-0.35043 -0.455379,-0.53866 -0.137853,-0.188791 -0.270675,-0.381292 -0.389027,-0.583074 -0.122973,-0.209693 -0.241017,-0.422681 -0.338396,-0.645703 -0.09491,-0.221826 -0.183717,-0.446368 -0.254272,-0.677308 -0.07174,-0.231443 -0.135565,-0.46531 -0.181957,-0.703305 -0.04433,-0.229701 -0.08215,-0.460697 -0.106902,-0.69341 -0.02198,-0.221067 -0.04165,-0.442504 -0.0505,-0.664541 -0.0072,-0.219517 -0.0114,-0.439194 -0.0055,-0.658807 0.0058,-0.21504 0.01872,-0.42982 0.03199,-0.644518 0.01827,-0.225769 0.04059,-0.451311 0.07857,-0.674757 0.03923,-0.222097 0.08349,-0.443583 0.150357,-0.659298 0.05819,-0.194424 0.12223,-0.38714 0.195549,-0.576431 0.07016,-0.1814471 0.146844,-0.3603011 0.22873,-0.5367781 0.07947,-0.168634 0.162499,-0.335613 0.252499,-0.498918 0.0849,-0.153127 0.170911,-0.306171 0.269235,-0.4511656 0.08751,-0.140037 0.177559,-0.278712 0.276582,-0.410958 0.08492,-0.120807 0.174087,-0.2383238 0.264736,-0.3548679 0.08798,-0.1160025 0.179735,-0.2290265 0.269504,-0.3436306 0.100868,-0.1194069 0.199582,-0.2409593 0.311281,-0.3506559 0.107724,-0.1047635 0.214485,-0.2108824 0.330397,-0.306735 0.09341,-0.074786 0.191338,-0.1438135 0.287883,-0.2144779 0.108299,-0.076774 0.217995,-0.1520149 0.334773,-0.2155282 0.09883,-0.053467 0.200144,-0.1013151 0.306391,-0.1379455 0.120976,-0.039865 0.238582,-0.091441 0.365019,-0.1136016 1.614663,-0.4417217 2.239351,1.8417556 0.624689,2.2834776 z"
   inkscape:connector-curvature="0" /><path
   style="fill:#91d900;fill-opacity:1"
   id="path109"
   d="m 23.133876,7.1547585 c 0.04955,0.02872 0.09008,0.073408 0.141065,0.1003873 0.05708,0.03161 0.10224,0.088365 0.162354,0.113415 0.07812,0.058015 0.155937,0.1152683 0.231506,0.1766713 0.117836,0.1047406 0.221796,0.223504 0.328453,0.3392552 0.102246,0.1148299 0.197352,0.2357776 0.290702,0.3578711 0.10061,0.1328667 0.192196,0.2721437 0.280803,0.4131917 0.100131,0.149357 0.186448,0.306992 0.268273,0.4669036 0.08448,0.167526 0.16103,0.338849 0.235295,0.51109 0.07923,0.181898 0.146535,0.3684593 0.211549,0.5557893 0.06568,0.190334 0.12647,0.3823 0.181293,0.576031 0.05804,0.209081 0.104505,0.421174 0.150141,0.63324 0.04573,0.212564 0.08818,0.425754 0.123482,0.6403 0.04038,0.240019 0.05956,0.482482 0.07369,0.72521 0.01596,0.238768 0.01762,0.477885 0.01268,0.717016 -0.0059,0.245767 -0.03043,0.49048 -0.06153,0.734171 -0.03085,0.252648 -0.08636,0.501009 -0.152146,0.746567 -0.06616,0.239868 -0.154602,0.472546 -0.249485,0.702276 -0.09814,0.239986 -0.217008,0.470061 -0.346672,0.694278 -0.138512,0.230993 -0.306646,0.441511 -0.481856,0.645276 -0.156996,0.18078 -0.322236,0.354052 -0.490871,0.523934 -0.174257,0.175686 -0.357274,0.342045 -0.546038,0.501911 -0.1919,0.162799 -0.393921,0.312982 -0.598208,0.459717 -0.207695,0.14729 -0.423681,0.282471 -0.641675,0.413868 -0.217343,0.131203 -0.440901,0.2517 -0.667126,0.366772 -1.369886,1.047244 -2.850913,-0.890068 -1.481026,-1.937312 v 0 c 0.191036,-0.09413 0.381807,-0.188781 0.569133,-0.290179 0.180364,-0.100063 0.358664,-0.203562 0.533635,-0.312857 0.163816,-0.104499 0.32343,-0.215218 0.478315,-0.332602 0.147667,-0.115507 0.295764,-0.230874 0.430289,-0.361861 0.141092,-0.13369 0.279395,-0.270362 0.41046,-0.413984 0.108469,-0.115962 0.217963,-0.231448 0.314741,-0.357573 0.09355,-0.120108 0.159154,-0.258387 0.221479,-0.396612 0.06546,-0.147527 0.129005,-0.295983 0.176859,-0.450372 0.045,-0.15104 0.08448,-0.303639 0.103401,-0.460508 0.02304,-0.174402 0.04053,-0.349479 0.04612,-0.525414 0.0057,-0.183782 0.0021,-0.367549 -0.0092,-0.551097 -0.0095,-0.16996 -0.02131,-0.339905 -0.05121,-0.507759 -0.03144,-0.184092 -0.06907,-0.367029 -0.107478,-0.549781 -0.03592,-0.168191 -0.07166,-0.336561 -0.11815,-0.502228 -0.04491,-0.155122 -0.09361,-0.30917 -0.147218,-0.461519 -0.04998,-0.140353 -0.103503,-0.279399 -0.163215,-0.415943 -0.05724,-0.129309 -0.115993,-0.258042 -0.181699,-0.383322 -0.05565,-0.1032993 -0.1182,-0.2023453 -0.182521,-0.3004563 -0.05982,-0.08847 -0.122006,-0.175335 -0.189824,-0.257905 -0.06209,-0.07661 -0.124363,-0.15313 -0.193708,-0.223419 -0.03461,-0.037 -0.06744,-0.08065 -0.116547,-0.09734 -0.0542,-0.039 -0.10773,-0.07884 -0.162591,-0.1168676 -0.04137,-0.03441 -0.08457,-0.06621 -0.130412,-0.09466 -0.03456,-0.02635 -0.0392,-0.02082 -0.07932,-0.04453 -1.2509,-1.11296 0.323063,-2.8819997 1.573963,-1.7690396 z"
   inkscape:connector-curvature="0" /><path
   style="fill:#91d900;fill-opacity:1"
   id="path111"
   d="m 12.519142,2.4615611 c -0.04714,0.013347 -0.104749,0.062419 -0.155098,0.053646 -0.05669,0.010735 -0.103254,0.035907 -0.161191,0.056476 -0.07149,0.028033 -0.142492,0.060649 -0.217501,0.078636 -0.09107,0.040858 -0.183784,0.077597 -0.275881,0.1159945 -0.125043,0.063944 -0.250241,0.1274955 -0.375292,0.1913771 -0.143446,0.076387 -0.284666,0.1568576 -0.426646,0.2359257 -0.152294,0.086233 -0.303967,0.1734661 -0.455321,0.26132 -0.149861,0.08603 -0.293446,0.1821321 -0.436682,0.2786084 C 9.8535766,3.8445976 9.6968796,3.9628816 9.5396576,4.0804528 9.3806799,4.2026271 9.2214518,4.3249011 9.0680857,4.4540971 8.9035715,4.5935573 8.7477354,4.7427483 8.5917396,4.8915425 8.4358396,5.0387606 8.2870034,5.1930993 8.1433933,5.3522566 7.9958771,5.5172289 7.8595493,5.6916572 7.7265568,5.8684003 7.5927999,6.0454392 7.4686592,6.2292013 7.3532476,6.4186286 7.2362907,6.6117377 7.1329478,6.8124482 7.0347523,7.0155814 6.9332125,7.2223346 6.8481471,7.4362791 6.7625598,7.6499153 6.6808776,7.8568161 6.613838,8.0689509 6.5505726,8.2820616 c -0.063097,0.20817 -0.101143,0.422363 -0.1339467,0.63701 -0.037316,0.251093 -0.059483,0.504105 -0.076901,0.7572506 -0.017933,0.27792 -0.023506,0.5563538 -0.028341,0.8347358 -0.00327,0.296599 -0.00285,0.593213 0.0033,0.889766 0.00796,0.30935 0.025367,0.618349 0.049652,0.926818 0.025039,0.330805 0.057434,0.66095 0.092671,0.990802 0.039605,0.328792 0.083676,0.657016 0.1368625,0.983892 0.051376,0.32393 0.1241314,0.64391 0.1976328,0.96338 0.076097,0.322029 0.1643332,0.641134 0.2563252,0.958954 0.088964,0.315336 0.191342,0.626762 0.300612,0.93559 0.1089025,0.309464 0.2280135,0.615107 0.350167,0.919535 0.1226441,0.29964 0.2553337,0.59493 0.3917882,0.888481 0.1383921,0.292199 0.2857121,0.580069 0.4396132,0.864374 0.1498521,0.281567 0.313653,0.555271 0.4809163,0.826739 0.1616428,0.257527 0.3342624,0.507712 0.5124095,0.75401 0.175013,0.237107 0.365006,0.462645 0.5559084,0.686986 0.192354,0.227552 0.394428,0.446509 0.595313,0.666481 0.197214,0.217312 0.40212,0.427283 0.608624,0.635712 0.20345,0.202066 0.408457,0.402554 0.614453,0.602022 0.182112,0.179525 0.371345,0.351551 0.564311,0.519282 0.02916,0.02471 0.05831,0.04942 0.08747,0.07412 1.118586,1.321212 -0.749891,2.903131 -1.868476,1.581918 v 0 c -0.03472,-0.03019 -0.06946,-0.0604 -0.104186,-0.0906 C 10.362664,25.899106 10.15299,25.704104 9.9466896,25.505452 9.7248206,25.293082 9.5041526,25.079363 9.2901631,24.85901 9.0693721,24.630956 8.8520465,24.399622 8.6387671,24.164512 8.4194956,23.923631 8.2019957,23.681114 7.9935694,23.430707 7.7708526,23.162314 7.5524124,22.890166 7.3526989,22.603995 7.1502559,22.315877 6.9536701,22.023519 6.7706335,21.722601 6.5842766,21.415055 6.4034313,21.104165 6.2369433,20.785313 6.0684846,20.463595 5.9043252,20.139561 5.7542438,19.808774 5.6058286,19.481938 5.4614004,19.153176 5.3286618,18.819612 5.1969048,18.48638 5.0692115,18.151532 4.9515872,17.813009 4.8332428,17.467775 4.722236,17.120126 4.6234245,16.768743 4.5214627,16.412993 4.423328,16.056049 4.3418627,15.694948 4.2597772,15.329398 4.1818522,14.962716 4.1245802,14.592321 c -0.054375,-0.359883 -0.1035949,-0.72051 -0.143565,-1.082307 -0.038572,-0.354549 -0.071551,-0.709687 -0.095398,-1.065559 -0.022466,-0.346081 -0.038179,-0.692625 -0.042496,-1.03945 -0.00403,-0.321035 -0.00482,-0.642122 0.00176,-0.963136 0.00671,-0.315289 0.017042,-0.6305898 0.039408,-0.9452094 0.023989,-0.308252 0.053386,-0.616284 0.1008373,-0.921931 C 4.0330688,8.2728466 4.0932042,7.9728367 4.1793206,7.67926 4.2554842,7.4174537 4.3382739,7.1575947 4.431393,6.9012773 4.5283049,6.6300616 4.6380005,6.363441 4.7609559,6.1029396 4.8840648,5.8423862 5.0113166,5.5838064 5.1566618,5.3347382 5.3027811,5.0857841 5.4544562,4.840038 5.6272493,4.608421 5.7914062,4.3834044 5.9599621,4.1614434 6.1408724,3.9495172 6.316406,3.746175 6.4969137,3.547078 6.6891052,3.359219 6.8708602,3.1815203 7.0553371,3.0065964 7.2438391,2.8360527 7.4246117,2.6775998 7.610086,2.5256873 7.8002581,2.3785918 7.977058,2.2411906 8.1562679,2.1065488 8.3389212,1.9770634 8.517379,1.8482936 8.6992196,1.7241401 8.8853337,1.6066772 9.0480265,1.5066125 9.212755,1.4097631 9.3802996,1.3180104 c 0.155147,-0.089418 0.313141,-0.1734399 0.468858,-0.2618639 0.141583,-0.078415 0.2861874,-0.14980082 0.4311874,-0.22167922 0.128207,-0.068867 0.258685,-0.1319426 0.395012,-0.1832439 0.09205,-0.042709 0.186803,-0.083656 0.284764,-0.10898494 0.07335,-0.027995 0.147864,-0.051453 0.220237,-0.082794 0.01948,-0.00821 0.145751,-0.06719 0.127094,-0.032571 1.438742,-0.85679504 2.650432,1.17789326 1.21169,2.03468766 z"
   inkscape:connector-curvature="0" /><path
   style="fill:#91d900;fill-opacity:1"
   id="path113"
   d="m 26.420531,1.0586638 c 0.01889,0.00153 0.0494,0.02065 0.07038,0.035738 0.05978,0.045034 0.119429,0.090158 0.178247,0.1368056 0.07139,0.053464 0.14526,0.1036688 0.215759,0.157973 0.107901,0.078198 0.205285,0.1690559 0.307187,0.2545082 0.129062,0.1143307 0.249498,0.2376308 0.36715,0.3635617 0.132853,0.144003 0.255168,0.2972301 0.377527,0.4501033 0.135177,0.181824 0.258566,0.371947 0.377376,0.5647345 0.113398,0.1859084 0.224027,0.3734313 0.330125,0.5636013 0.106822,0.188642 0.210519,0.3790249 0.3163,0.5682491 0.100889,0.1833371 0.206131,0.3643357 0.312161,0.5447523 0.112866,0.1937909 0.220871,0.3903727 0.328324,0.5872008 0.108615,0.2018913 0.215347,0.4047767 0.320552,0.6084659 0.108951,0.2129238 0.216026,0.4268218 0.322147,0.6411719 0.113938,0.2324013 0.220881,0.4680765 0.326985,0.7041213 0.120239,0.2680349 0.225246,0.5424087 0.325901,0.8182694 0.101952,0.2820173 0.195385,0.5669841 0.286528,0.8526419 0.09418,0.299016 0.174825,0.6019966 0.253091,0.9054866 0.07956,0.3175154 0.148718,0.6374704 0.211025,0.9587764 0.06293,0.332112 0.11641,0.665925 0.161563,1.000893 0.04847,0.342224 0.07953,0.686475 0.106886,1.030915 0.02594,0.346219 0.04287,0.69323 0.05195,1.040295 0.0089,0.350441 0.0026,0.700925 -0.01056,1.05115 -0.0133,0.341372 -0.03918,0.681958 -0.06901,1.022216 -0.03016,0.33948 -0.07493,0.677346 -0.125126,1.014365 -0.04994,0.340901 -0.12139,0.677853 -0.19998,1.013119 -0.07989,0.340174 -0.180324,0.674834 -0.289614,1.006559 -0.113432,0.341453 -0.254858,0.672314 -0.404636,0.99911 -0.146322,0.317957 -0.312122,0.626168 -0.484418,0.930631 -0.170943,0.304814 -0.359847,0.598762 -0.556844,0.887228 -0.192489,0.279393 -0.401298,0.546871 -0.613852,0.811127 -0.220165,0.279872 -0.463657,0.539459 -0.715832,0.790377 -0.24868,0.247114 -0.517618,0.472199 -0.789011,0.69363 -0.264215,0.218081 -0.54301,0.416812 -0.826264,0.609087 -0.27437,0.184215 -0.560073,0.350459 -0.849287,0.510019 -0.280191,0.154058 -0.566088,0.297201 -0.855865,0.432239 -0.27231,0.126423 -0.552587,0.234177 -0.831296,0.345343 -0.172589,0.06695 -0.08773,0.03463 -0.254536,0.09708 -1.4576,0.936229 -2.781628,-1.125127 -1.324029,-2.061357 v 0 c 0.155841,-0.06123 0.07823,-0.03111 0.232828,-0.09038 0.253291,-0.09938 0.503445,-0.206714 0.757413,-0.304478 0.248265,-0.103923 0.494024,-0.213631 0.731331,-0.341025 0.243051,-0.126946 0.48527,-0.255753 0.718293,-0.400587 0.234931,-0.144754 0.464857,-0.298231 0.681313,-0.469699 0.226999,-0.177575 0.451352,-0.359184 0.666323,-0.551185 0.200573,-0.185365 0.399505,-0.373834 0.573811,-0.584682 0.18428,-0.224179 0.366009,-0.450706 0.535971,-0.686026 0.167969,-0.233077 0.328716,-0.471138 0.471835,-0.720493 0.146578,-0.253391 0.290938,-0.508199 0.416785,-0.772718 0.122375,-0.258101 0.241509,-0.518006 0.336796,-0.787614 0.0949,-0.268506 0.17822,-0.540991 0.24656,-0.817536 0.06736,-0.279612 0.130286,-0.560378 0.171977,-0.845173 0.04519,-0.293384 0.08415,-0.587757 0.110945,-0.883443 0.026,-0.3072 0.04903,-0.61465 0.06116,-0.922764 0.01151,-0.306752 0.01786,-0.61377 0.0095,-0.920711 -0.008,-0.311021 -0.02425,-0.621878 -0.04645,-0.932203 -0.02376,-0.304602 -0.05186,-0.608989 -0.0942,-0.911647 -0.0422,-0.298631 -0.08685,-0.597036 -0.143416,-0.893336 -0.0535,-0.280702 -0.113237,-0.560147 -0.182727,-0.83737 C 28.956313,10.061384 28.886332,9.7975976 28.802237,9.5379506 28.718207,9.277491 28.632969,9.017373 28.539705,8.76004 28.455923,8.5288342 28.369268,8.2985966 28.269188,8.0738492 28.176118,7.8627251 28.08016,7.6528409 27.97801,7.4459316 27.876983,7.2425122 27.776672,7.0387319 27.674038,6.8361155 27.575699,6.6469931 27.477003,6.4580459 27.374914,6.2709113 27.27484,6.0895788 27.17423,5.9085455 27.068485,5.7304313 26.955746,5.5353228 26.841645,5.3409551 26.735138,5.1423305 26.63474,4.9575099 26.533669,4.7730595 26.430513,4.5897591 26.338158,4.4276946 26.244426,4.2663524 26.145116,4.1084245 26.065321,3.9836063 25.984925,3.8585151 25.889382,3.7449414 25.802966,3.6376383 25.715042,3.5312671 25.618158,3.4331428 25.544596,3.3591475 25.468404,3.2877042 25.387039,3.2223432 25.312683,3.1581309 25.232863,3.1007342 25.1556,3.0400661 25.073171,2.9776781 24.995127,2.9092968 24.914798,2.8442155 24.851907,2.7933178 24.789748,2.7417707 24.728696,2.688739 24.660962,2.6284676 24.597422,2.5637062 24.536967,2.4961551 23.520507,1.1642735 25.404072,-0.27321787 26.420531,1.0586638 Z"
   inkscape:connector-curvature="0" /><path
   style="fill:#91d900;fill-opacity:1"
   id="path115"
   d="m 18.146993,19.148288 c -0.0037,0.02071 -0.0035,0.04247 -0.0044,0.06358 -0.0018,0.05147 -0.0039,0.102927 -0.0058,0.154392 -0.0023,0.06818 -0.0039,0.136374 -0.0054,0.20457 -0.0012,0.09717 -0.0063,0.194228 -0.01228,0.291201 -0.0041,0.0829 -0.0039,0.165935 -0.0048,0.248909 -0.0012,0.114062 -0.0014,0.228132 -0.0023,0.342198 -0.001,0.130693 -0.0026,0.261383 -0.003,0.392081 3.01e-4,0.151864 -0.0029,0.303665 -0.0072,0.455458 -0.0037,0.166525 -0.01013,0.332954 -0.01746,0.499354 -0.0079,0.169488 -0.01348,0.33903 -0.01741,0.508652 -0.0039,0.183407 -0.0078,0.366817 -0.01039,0.550246 -0.0024,0.197606 -0.0058,0.395195 -0.0078,0.592806 -0.0026,0.209726 -0.0057,0.419445 -0.0086,0.629166 -0.0022,0.221071 -0.004,0.442146 -0.0064,0.663215 -0.0018,0.231543 -0.0046,0.463078 -0.0071,0.694615 -0.0031,0.223253 -0.0027,0.446527 -2.03e-4,0.66978 0.0045,0.231339 0.0092,0.462673 0.01375,0.69401 0.0046,0.236802 0.009,0.47361 0.01322,0.71042 0.006,0.235742 0.01447,0.471405 0.0196,0.707168 0.005,0.243807 0.0084,0.487625 0.0091,0.731481 0.001,0.247171 -2.21e-4,0.49432 -0.0056,0.741436 -0.0064,0.242995 -0.01405,0.485956 -0.02124,0.72893 -0.006,0.246199 -0.01628,0.492252 -0.02636,0.738308 -0.0098,0.241226 -0.02015,0.482432 -0.02961,0.723674 -0.0098,0.237195 -0.01888,0.474423 -0.02785,0.711651 -0.0087,0.23367 -0.01681,0.467362 -0.0255,0.701032 -0.0092,0.214242 -0.01048,0.42869 -0.01214,0.643089 -0.0014,0.134385 -0.0017,0.268766 -0.001,0.403155 0.01848,1.717451 -2.410363,1.743585 -2.428843,0.02613 v 0 c -0.0029,-0.144562 -0.0053,-0.28912 -0.0049,-0.433718 -7.52e-4,-0.236041 -0.0021,-0.472182 0.0076,-0.708085 0.0074,-0.235361 0.0156,-0.470698 0.02404,-0.706023 0.0085,-0.238934 0.01722,-0.47786 0.02615,-0.71678 0.0095,-0.24271 0.01876,-0.485433 0.02902,-0.728114 0.01,-0.23837 0.02042,-0.476729 0.02635,-0.715244 0.0073,-0.238131 0.01492,-0.47625 0.02163,-0.714397 0.0056,-0.230217 0.0065,-0.460479 0.0059,-0.690759 -3.5e-4,-0.229873 -0.0034,-0.459716 -0.0082,-0.689541 -0.0057,-0.239444 -0.0153,-0.478789 -0.02008,-0.718262 -0.004,-0.235737 -0.008,-0.471473 -0.01232,-0.707204 -0.0043,-0.235881 -0.009,-0.471758 -0.01204,-0.70766 -0.0031,-0.23928 -0.0035,-0.478648 -0.0012,-0.717934 0.0029,-0.2325 0.0056,-0.465004 0.0098,-0.697485 0.0033,-0.222489 0.0074,-0.444964 0.01194,-0.667432 0.0035,-0.211031 0.0069,-0.422064 0.01146,-0.633076 0.0048,-0.19967 0.0085,-0.399365 0.01401,-0.599018 0.0049,-0.187114 0.0087,-0.374253 0.0139,-0.56136 0.0052,-0.18516 0.01161,-0.370276 0.02341,-0.555157 0.0084,-0.155326 0.01902,-0.310546 0.02385,-0.466042 0.0052,-0.139026 0.0094,-0.27805 0.01111,-0.417171 0.0031,-0.132545 0.0052,-0.265112 0.0084,-0.397657 0.0028,-0.117639 0.0066,-0.235251 0.01024,-0.352866 0.0035,-0.111439 0.0076,-0.222862 0.01245,-0.334247 0.0053,-0.07799 0.01275,-0.155827 0.01507,-0.233991 0.0037,-0.07655 0.0076,-0.153092 0.01227,-0.229592 0.0039,-0.06514 0.0077,-0.130279 0.01349,-0.195287 0.0055,-0.06413 0.01186,-0.128178 0.01849,-0.192201 0.187805,-1.662513 2.538954,-1.396916 2.351148,0.265597 z"
   inkscape:connector-curvature="0" /></svg>