<?xml version="1.0" encoding="UTF-8" standalone="no"?>
<!-- Generator: Adobe Illustrator 23.1.1, SVG Export Plug-In . SVG Version: 6.00 Build 0)  -->

<svg
   xmlns:dc="http://purl.org/dc/elements/1.1/"
   xmlns:cc="http://creativecommons.org/ns#"
   xmlns:rdf="http://www.w3.org/1999/02/22-rdf-syntax-ns#"
   xmlns:svg="http://www.w3.org/2000/svg"
   xmlns="http://www.w3.org/2000/svg"
   xmlns:sodipodi="http://sodipodi.sourceforge.net/DTD/sodipodi-0.dtd"
   xmlns:inkscape="http://www.inkscape.org/namespaces/inkscape"
   version="1.1"
   id="Calque_1"
   x="0px"
   y="0px"
   viewBox="0 0 35.6 36.1"
   style="enable-background:new 0 0 35.6 36.1;"
   xml:space="preserve"
   sodipodi:docname="prk.svg"
   inkscape:version="0.92.4 (unknown)"><metadata
   id="metadata89"><rdf:RDF><cc:Work
       rdf:about=""><dc:format>image/svg+xml</dc:format><dc:type
         rdf:resource="http://purl.org/dc/dcmitype/StillImage" /><dc:title></dc:title></cc:Work></rdf:RDF></metadata><defs
   id="defs87" /><sodipodi:namedview
   pagecolor="#ffffff"
   bordercolor="#666666"
   borderopacity="1"
   objecttolerance="10"
   gridtolerance="10"
   guidetolerance="10"
   inkscape:pageopacity="0"
   inkscape:pageshadow="2"
   inkscape:window-width="1613"
   inkscape:window-height="995"
   id="namedview85"
   showgrid="false"
   inkscape:zoom="7.6586915"
   inkscape:cx="34.245594"
   inkscape:cy="-2.9845983"
   inkscape:window-x="67"
   inkscape:window-y="27"
   inkscape:window-maximized="1"
   inkscape:current-layer="Calque_1" />
<style
   type="text/css"
   id="style10">
	.st0{clip-path:url(#SVGID_2_);fill:#91D900;}
	.st1{clip-path:url(#SVGID_4_);fill:#91D900;}
	.st2{clip-path:url(#SVGID_6_);fill:#91D900;}
	.st3{clip-path:url(#SVGID_8_);fill:#91D900;}
	.st4{clip-path:url(#SVGID_10_);fill:#91D900;}
	.st5{clip-path:url(#SVGID_12_);fill:#91D900;}
	.st6{clip-path:url(#SVGID_14_);fill:#91D900;}
</style>

<path
   style="fill:#91d900;fill-opacity:1;stroke-width:0.98187488"
   id="path152"
   d="m 18.524433,32.966137 c 0.05354,-0.0054 0.107406,-0.0053 0.161158,-0.0053 0.405738,-0.06127 -0.871557,-0.01269 -0.383238,-0.02158 0.131935,-0.0032 0.263896,-0.0055 0.395812,-0.0094 0.157834,-0.0038 0.315703,-0.006 0.473566,-0.0081 0.155777,-0.0054 0.311156,0.0039 0.466828,-0.0011 0.167096,-0.0062 0.334139,-0.01396 0.50116,-0.02195 0.173054,-0.0076 0.346134,-0.01471 0.519211,-0.02183 0.178303,-0.0056 0.356563,-0.01238 0.534851,-0.0184 0.184885,-0.0054 0.369789,-0.01028 0.554685,-0.01537 0.196709,-0.0048 0.393381,-0.01093 0.590098,-0.01544 0.210198,-0.0046 0.420414,-0.0082 0.630633,-0.01179 0.217682,-0.0036 0.435374,-0.0067 0.653067,-0.0097 0.229496,-0.0046 0.459032,-0.0069 0.68856,-0.0093 0.234929,-0.0025 0.469861,-0.0046 0.704793,-0.0066 0.236945,-0.0026 0.473897,-0.0034 0.71085,-0.0045 0.234972,-0.0014 0.46994,-0.0029 0.704911,-0.0044 0.233522,-7.92e-4 0.467043,-0.0016 0.700565,-0.0028 0.448711,-0.0075 0.897094,0.0078 1.345468,0.02116 0.223162,0.0048 0.446285,0.01179 0.669483,0.01473 0.232419,-0.0047 0.46402,0.01938 0.696174,0.02008 0.265187,0.0038 1.157929,0.0099 0.01544,0.0039 0.189446,0.008 0.379652,5.87e-4 0.569034,-0.008 0.18764,-0.01176 0.375045,-0.02312 0.562009,-0.04325 0.160756,-0.01172 0.321178,-0.03051 0.480501,-0.05499 0.114332,-0.01045 0.226363,-0.0357 0.34004,-0.05071 0.05647,-0.0092 0.122502,-0.02591 0.172739,-0.02973 0.03282,-0.0018 0.06284,-0.02175 0.08915,-0.03473 0.05168,-0.04485 0.08383,-0.108917 0.117954,-0.167215 0.04992,-0.08599 0.08908,-0.177438 0.125948,-0.269585 0.04092,-0.108398 0.08026,-0.217532 0.110829,-0.329337 0.03305,-0.130302 0.05967,-0.262152 0.0859,-0.393965 0.02374,-0.118581 0.02719,-0.239571 0.03323,-0.359943 0.0056,-0.170265 0.009,-0.340591 0.01455,-0.510856 0.0054,-0.161584 0.0046,-0.323448 -0.0036,-0.484912 -0.01143,-0.187155 -0.01344,-0.374944 -0.02966,-0.561775 -0.02161,-0.211564 -0.04183,-0.423261 -0.06099,-0.635059 -0.02058,-0.228749 -0.03849,-0.457723 -0.05553,-0.686757 -0.01724,-0.233199 -0.03224,-0.466554 -0.04655,-0.699949 -0.01441,-0.236809 -0.02699,-0.473723 -0.03898,-0.710667 -0.01541,-0.252236 -0.01983,-0.504908 -0.02378,-0.757532 -0.0035,-0.234338 -0.01093,-0.468725 -0.02334,-0.702769 -0.0117,-0.238997 -0.03269,-0.477377 -0.0533,-0.715732 -0.02146,-0.261283 -0.04097,-0.522731 -0.05924,-0.784257 -0.02328,-0.26431 -0.045,-0.528753 -0.06576,-0.793272 -0.02091,-0.273493 -0.0408,-0.54707 -0.05933,-0.820735 -0.01848,-0.279611 -0.03523,-0.559321 -0.05034,-0.839131 -0.01189,-0.271528 -0.0317,-0.542584 -0.05031,-0.813708 -0.01799,-0.26849 -0.043,-0.53646 -0.06539,-0.80461 -0.02623,-0.266576 -0.05327,-0.533068 -0.07868,-0.799725 -0.02696,-0.27259 -0.04758,-0.54576 -0.0735,-0.818437 -0.02705,-0.273095 -0.05298,-0.546295 -0.07758,-0.819621 -0.02597,-0.280744 -0.04824,-0.561726 -0.06416,-0.843214 -0.01454,-0.272813 -0.02631,-0.545764 -0.03773,-0.818721 -0.01194,-0.283179 -0.02653,-0.566289 -0.03188,-0.849683 -0.0048,-0.288982 -0.0067,-0.578011 -0.0087,-0.867024 -0.0032,-0.283879 -0.0026,-0.567768 -0.0082,-0.851616 -0.0071,-0.269307 -0.01039,-0.538737 -0.02648,-0.807697 -0.01837,-0.273412 -0.03782,-0.546747 -0.05603,-0.82017 -0.01837,-0.276538 -0.03482,-0.553198 -0.05056,-0.829896 -0.01548,-0.273498 -0.02928,-0.547086 -0.04249,-0.8207013 C 31.305174,9.5578343 31.293617,9.2869516 31.282542,9.0160496 31.272821,8.7561907 31.25449,8.496756 31.240341,8.2371178 31.228725,7.9994813 31.204473,7.7625764 31.177255,7.5262782 31.148663,7.3097788 31.101916,7.0963314 31.058782,6.8824236 31.016052,6.6731943 30.958118,6.4676325 30.898851,6.2625698 30.839226,6.0652737 30.776219,5.8692878 30.697885,5.6785996 30.618024,5.5072131 30.565678,5.318867 30.460348,5.1606173 30.357451,5.0229854 30.254952,4.8850477 30.146824,4.7514616 30.042551,4.6134855 29.924017,4.493419 29.786242,4.3895504 29.641907,4.2538117 29.470427,4.15311 29.304303,4.0470598 29.120191,3.9286741 28.930395,3.8202376 28.732458,3.7268563 28.522598,3.6258132 28.30883,3.5333736 28.093357,3.4450565 27.880785,3.3587208 27.665904,3.2784174 27.445823,3.213438 27.228831,3.1476155 27.006937,3.105135 26.782917,3.072622 26.532673,3.0314881 26.280043,3.0077471 26.02766,2.9843912 25.751747,2.966851 25.475191,2.9489446 25.198634,2.943668 24.902764,2.932157 24.606916,2.934388 24.310916,2.933506 c -0.451443,-0.00187 0.229597,2.957e-4 0.344394,9.193e-4 0.05,2.716e-4 -0.09999,-2.18e-5 -0.149984,2.478e-4 -0.154264,8.32e-4 -0.308501,0.00336 -0.462738,0.00623 -0.311001,0.00539 -0.62202,0.00973 -0.933038,0.013986 -0.303756,0.00443 -0.607535,0.00717 -0.911282,0.012126 -0.539362,0.013227 -1.078702,0.00204 -1.617742,-0.014812 -0.335014,-0.00861 -0.670048,-0.016572 -1.005107,-0.023188 -0.339393,-0.00775 -0.678767,-0.01635 -1.018153,-0.024409 -0.334159,-0.00789 -0.668379,-0.012745 -1.002569,-0.019095 -0.228804,-0.013054 -1.480732,-0.00561 -0.328126,-0.00621 -0.332798,4.943e-4 -0.665579,0.0037 -0.998369,0.00557 -0.339309,0.00243 -0.678629,0.00357 -1.017944,0.00486 -0.337429,0.00161 -0.674858,0.0025 -1.01229,0.00295 -0.334022,4.784e-4 -0.668036,0.00273 -1.002058,0.00333 -0.329573,-1.073e-4 -0.659143,8.156e-4 -0.988714,0.00158 -0.327537,-3.778e-4 -0.655061,9.796e-4 -0.982589,0.00327 -0.338455,0.00135 -0.676908,0.0029 -1.015368,0.00308 -0.3269737,4.959e-4 -0.6539011,-0.00274 -0.9808502,0.00171 -0.295949,-0.00543 -0.5912528,0.019255 -0.8859783,0.042755 -0.2979992,0.023409 -0.5959527,0.04635 -0.8935375,0.074619 -0.302337,0.03197 -0.6051578,0.058542 -0.9081288,0.083599 -0.2855927,0.025905 -0.5717753,0.043821 -0.8577308,0.064746 -0.2330693,0.014253 -0.4651039,0.041266 -0.6971014,0.067046 -0.1844343,0.021352 -0.3673829,0.055628 -0.5479146,0.098769 -0.1383643,0.029065 -0.273927,0.07006 -0.4079494,0.1148152 -0.1115108,0.038424 -0.2173435,0.090202 -0.319119,0.14939 -0.056978,0.027045 -0.1088227,0.063921 -0.1648924,0.09209 -0.02611,0.018 -0.048811,0.031273 -0.063604,0.058998 -0.028967,0.057521 -0.043404,0.1196271 -0.055224,0.182538 -0.00871,0.07024 -0.00844,0.1413761 -0.00366,0.2118829 0.012274,0.1072344 0.028636,0.2141509 0.048841,0.3201917 0.032883,0.1428173 0.06286,0.286279 0.099127,0.4282963 0.042815,0.1706854 0.086072,0.3413452 0.1337674,0.5107445 0.053988,0.2000749 0.1114281,0.3991163 0.1622837,0.6000311 0.060651,0.2237421 0.1147191,0.4491942 0.170057,0.6742912 0.06082,0.2513018 0.1132071,0.5045115 0.1642462,0.7579438 0.055119,0.2727374 0.098444,0.5476696 0.140789,0.8226219 0.036772,0.2716217 0.067306,0.5440317 0.096721,0.8165312 0.031436,0.2692484 0.049686,0.5397124 0.067404,0.8101305 0.017934,0.2667346 0.032671,0.5335956 0.041396,0.8007896 0.00514,0.258653 0.018887,0.516989 0.030917,0.775378 0.013989,0.270789 0.021854,0.54186 0.035846,0.812639 0.012224,0.279194 0.020845,0.558529 0.029433,0.837854 0.00718,0.250384 0.028433,0.500024 0.047246,0.749718 0.022831,0.258414 0.049209,0.516503 0.072683,0.774863 0.024546,0.272952 0.044931,0.546248 0.066331,0.819457 0.020797,0.276205 0.038311,0.552642 0.05525,0.829106 0.016297,0.275296 0.032063,0.550627 0.046731,0.826015 0.01304,0.290641 0.017698,0.58158 0.023172,0.872439 0.00221,0.286645 -9.02e-4,0.5733 -0.00313,0.859936 -0.00219,0.274179 -0.00422,0.548359 -0.00617,0.82254 -7.581e-4,0.279732 -0.011924,0.559287 -0.018771,0.838904 -0.00586,0.279518 -0.01364,0.558993 -0.020709,0.838483 -0.00623,0.291042 -0.010256,0.582123 -0.018185,0.873133 -0.00817,0.308628 -0.029596,0.61672 -0.04825,0.924844 -0.019865,0.28392 -0.029257,0.568357 -0.038173,0.85278 -0.010383,0.27329 -0.013863,0.546718 -0.01081,0.820172 0.00332,0.270637 0.018599,0.540943 0.030749,0.811283 0.014293,0.267223 0.032963,0.534191 0.049944,0.801252 0.012854,0.274561 0.0215,0.549297 0.030163,0.824014 0.010999,0.271389 0.011503,0.542992 0.012011,0.814552 0.00151,0.266484 0.00213,0.532982 6.719e-4,0.799467 -0.00115,0.259168 -6.82e-5,0.51834 -0.00153,0.777506 -0.00171,0.251911 -0.00104,0.503794 1.782e-4,0.7557 -0.0013,0.240961 -0.00102,0.481804 0.00425,0.722717 0.00528,0.211207 0.020727,0.42191 0.037574,0.632447 0.012551,0.199496 0.03481,0.398109 0.056934,0.596712 0.021386,0.195723 0.042098,0.391513 0.061138,0.587479 0.016511,0.158087 0.027288,0.316793 0.053025,0.473751 0.013925,0.06292 0.028275,0.12706 0.06454,0.181228 0.028447,0.01362 0.054146,0.03261 0.080628,0.04967 0.046191,8.3e-5 0.090344,0.03172 0.1343432,0.04764 0.051017,0.02282 0.074934,0.0085 0.111774,-0.02534 0.4253276,-0.19446 -0.7910862,-0.06732 -0.4195174,-0.06034 0.1337357,0.0094 0.2666663,-0.0023 0.3986285,-0.02347 0.1370232,-0.0165 0.271219,-0.04727 0.4053852,-0.07838 0.1730422,-0.05038 0.3413814,-0.114912 0.5115302,-0.17403 0.1868641,-0.06272 0.3757129,-0.11895 0.5648269,-0.174399 0.2094123,-0.06469 0.4235014,-0.113101 0.6390853,-0.151968 0.2075508,-0.0405 0.4174636,-0.06358 0.6277828,-0.08358 0.2039911,-0.01878 0.4082779,-0.03409 0.6126044,-0.04869 0.2005646,-0.0099 0.4006865,-0.02569 0.6007869,-0.04269 0.2137952,-0.01899 0.4277134,-0.03652 0.64172,-0.05293 0.218679,-0.0173 0.437625,-0.03053 0.656581,-0.04364 0.219896,-0.01356 0.439864,-0.02587 0.659871,-0.03746 0.225394,-0.01179 0.450866,-0.02199 0.676358,-0.0317 0.235589,-0.01178 0.471143,-0.01985 0.707011,-0.02227 0.441635,-0.01358 0.882584,0.0068 1.323705,0.02063 0.218179,0.0051 0.435552,0.01142 0.6528,0.03254 0.245316,0.0073 0.743227,-0.0019 -0.352213,0.0046 1.606874,-0.475712 2.279633,1.796751 0.672759,2.272463 v 0 c -0.351486,0.0035 -0.70147,0.01777 -1.051888,-0.0072 -0.202339,-3.5e-4 -0.404465,-0.0049 -0.606739,-0.01101 -0.107316,-0.0027 -0.21469,-0.0056 -0.32204,-0.0065 -0.03419,-2.95e-4 -0.13677,-1.54e-4 -0.102578,0 0.42099,0.0019 0.747454,0.0023 0.425759,0.0018 -0.213698,-5.14e-4 -0.427413,-0.0071 -0.640948,0.0035 -0.220279,0.0075 -0.440548,0.01539 -0.66077,0.02447 -0.213715,0.0088 -0.427419,0.01812 -0.641022,0.02941 -0.211768,0.01166 -0.423506,0.02389 -0.635251,0.03597 -0.205352,0.01251 -0.410682,0.02552 -0.615793,0.04154 -0.213197,0.01739 -0.4260147,0.04013 -0.6393658,0.05435 -0.1938178,0.01045 -0.3876044,0.02148 -0.5812985,0.03403 -0.1671331,0.01072 -0.3346811,0.01746 -0.5013364,0.03157 -0.1457239,0.01644 -0.2915128,0.02942 -0.4358243,0.05608 -0.1629239,0.03926 -0.3248324,0.08304 -0.4852819,0.131412 -0.1724705,0.04908 -0.3421001,0.105775 -0.5100308,0.168653 -0.2033032,0.0761 -0.4101014,0.142183 -0.6214717,0.192117 -0.2232217,0.04741 -0.4457008,0.101896 -0.6734347,0.123667 C 5.332137,35.910235 4.865201,35.924885 4.4244716,35.760424 4.2015657,35.672046 3.9890336,35.561577 3.7970366,35.416509 3.6230087,35.28526 3.4574775,35.142241 3.3217381,34.970453 3.1796302,34.78787 3.0522528,34.594152 2.964757,34.378776 2.8815777,34.16716 2.8125471,33.950007 2.7752381,33.725141 2.7449801,33.533624 2.7215308,33.341262 2.702619,33.148288 2.680693,32.957675 2.659987,32.766922 2.636799,32.576456 2.611392,32.357737 2.584452,32.139156 2.566701,31.919632 2.54551,31.671233 2.526583,31.422711 2.517426,31.173516 2.510116,30.915899 2.504015,30.658244 2.506757,30.400491 c 0.00123,-0.251908 0.0019,-0.503792 2.071e-4,-0.755705 -0.00145,-0.259142 -3.539e-4,-0.518291 -0.0015,-0.777436 -0.00146,-0.265109 -7.64e-4,-0.530229 1.399e-4,-0.79534 C 2.5050282,27.820417 2.504623,27.568787 2.493984,27.317366 2.485734,27.064252 2.478161,26.811049 2.462814,26.558243 2.444513,26.27863 2.424653,25.99912 2.407322,25.719445 2.393738,25.425917 2.378398,25.132358 2.373382,24.838536 c -0.00319,-0.300656 -6.195e-4,-0.601388 0.00912,-0.901913 0.00864,-0.30404 0.017578,-0.608113 0.037697,-0.91166 0.016765,-0.289962 0.035583,-0.579839 0.04796,-0.870029 0.010658,-0.286003 0.013465,-0.572269 0.022809,-0.858322 0.00673,-0.282441 0.013304,-0.5649 0.023564,-0.84724 0.00883,-0.264482 0.017486,-0.529059 0.018498,-0.793703 0.00156,-0.274585 0.0032,-0.54917 0.00494,-0.823755 0.00166,-0.268897 0.00409,-0.53781 0.00199,-0.80671 C 2.53448,17.755658 2.529152,17.486099 2.520559,17.21663 2.507212,16.948147 2.493174,16.679704 2.475873,16.411439 2.45904,16.143009 2.441365,15.874633 2.422294,15.606351 2.403949,15.342709 2.381913,15.079345 2.359231,14.816044 2.336096,14.549022 2.311347,14.282157 2.286524,14.015287 2.265244,13.736167 2.242943,13.457064 2.232155,13.177284 2.223585,12.91069 2.215023,12.644085 2.202925,12.377623 2.1892903,12.102416 2.1808499,11.826997 2.1691429,11.551706 2.1581681,11.285914 2.14732,11.020123 2.1421498,10.754145 2.1340221,10.508873 2.1195866,10.263942 2.1033134,10.019079 2.0872642,9.7769192 2.0703834,9.5347693 2.0416564,9.2937064 2.0150956,9.0513061 1.9884138,8.8087958 1.9513827,8.5677255 1.9128107,8.3202457 1.8723186,8.0730751 1.8288667,7.8264007 1.7845661,7.5976057 1.7346613,7.3699597 1.6819254,7.1429641 1.631704,6.9241098 1.5813915,6.7052687 1.5262613,6.4875848 1.4797141,6.2974099 1.430016,6.1080726 1.3796761,5.9188678 1.3316365,5.7316752 1.2841362,5.5443413 1.2398514,5.3562175 1.1967187,5.1683462 1.1605442,4.9790856 1.1261393,4.7894339 1.0976252,4.6012595 1.0712819,4.4124747 1.0613027,4.2222451 1.0553823,4.0091384 1.0572975,3.7950985 1.0914528,3.5840618 1.1288273,3.3763955 1.1756108,3.169122 1.2550151,2.9729725 1.3477667,2.7454136 1.4563899,2.5248515 1.6141803,2.3342118 1.7603669,2.1588186 1.918832,1.9931928 2.1067661,1.8616233 2.2786717,1.7416085 2.4519624,1.6227378 2.6370981,1.5236666 2.8526788,1.4103567 3.0754058,1.3122954 3.306529,1.2347642 3.5490708,1.1586593 3.7925316,1.0857775 4.0411434,1.0316555 4.3149565,0.97444649 4.5914048,0.93339498 4.8686252,0.89643777 5.159466,0.86419968 5.4507643,0.84017706 5.7426643,0.81932486 c 0.2939179,-0.0244421 0.5878791,-0.0483288 0.8816786,-0.074158 0.3061817,-0.0303245 0.6116395,-0.067799 0.9186213,-0.0894556 0.3347332,-0.0286597 0.6689447,-0.0627807 1.0040176,-0.0873314 0.3384208,-0.008899 0.676724,-0.0197706 1.0153315,-0.0163224 0.3384348,-9.5402e-4 0.6768687,-5.74e-4 1.0153047,-5.9668e-4 0.327434,9.5485e-4 0.654861,8.805e-4 0.982292,-0.001109 0.329095,-8.4852e-4 0.658189,-0.001632 0.987281,-0.003625 0.333675,-0.001315 0.667353,-0.001058 1.001026,-0.002874 0.336877,-0.001861 0.673755,-0.003347 1.010635,-0.004435 0.338892,-0.001432 0.677783,-0.00315 1.016678,-0.003908 0.334438,-0.001297 0.668878,-0.001644 1.003313,-0.003787 0.551876,-7.5819e-4 1.103476,-0.001314 1.655187,0.0125959 0.336494,0.006075 0.672943,0.014124 1.009419,0.021075 0.341974,0.006964 0.683953,0.0139124 1.025869,0.0233872 0.336313,0.0105387 0.672626,0.020961 1.008907,0.0324808 0.153907,0.004005 0.307742,0.007425 0.461689,0.009309 0.05036,6.1625e-4 0.201441,0.001646 0.151078,0.001885 -0.421626,0.002008 -0.693279,-0.004031 -0.35713,0.002384 0.302218,-0.002712 0.604405,-0.008097 0.906601,-0.0126027 0.309809,-0.004944 0.619612,-0.0102163 0.929422,-0.0151438 0.532875,-0.007529 1.065666,-0.0241371 1.598699,-0.0106779 0.321491,0.004597 0.642839,0.0169816 0.963818,0.0357819 0.316622,0.0231769 0.633484,0.0447441 0.947924,0.0900734 0.307936,0.040262 0.614779,0.0898534 0.917554,0.15962985 0.298009,0.073749 0.593142,0.15878107 0.881015,0.26608927 0.264645,0.098473 0.527645,0.2014967 0.78529,0.3172638 0.262225,0.1182909 0.522748,0.2410152 0.773641,0.382122 0.251381,0.146355 0.499381,0.298958 0.736363,0.4679058 0.233064,0.1693568 0.456598,0.3506388 0.663695,0.5513307 0.198237,0.1990907 0.381495,0.4114266 0.551992,0.6348232 0.173504,0.229157 0.343686,0.4622985 0.474661,0.7191652 0.115997,0.2404476 0.222356,0.4855894 0.32066,0.7338136 0.09248,0.2488047 0.174217,0.5012823 0.249455,0.7558327 0.07344,0.2570037 0.140101,0.5158804 0.193649,0.7778441 0.0534,0.2655439 0.10782,0.5312254 0.142098,0.8000813 0.0341,0.2754118 0.06191,0.5516551 0.07647,0.8288623 0.0179,0.271905 0.03496,0.5439304 0.04575,0.8162216 0.01116,0.2659006 0.02282,0.5317811 0.03594,0.7975933 0.01328,0.2677701 0.02715,0.5355117 0.04273,0.8031577 0.01581,0.270146 0.03231,0.540251 0.05076,0.810231 0.01916,0.279807 0.03983,0.559507 0.05836,0.839357 0.01647,0.292046 0.02283,0.584433 0.03103,0.876806 0.0078,0.295513 0.01048,0.591052 0.0094,0.886674 0.0012,0.27878 0.0022,0.557561 0.0058,0.836325 0.0065,0.269157 0.01579,0.538227 0.02585,0.807271 0.01129,0.262835 0.02287,0.525665 0.03733,0.788348 0.01526,0.259371 0.03727,0.518209 0.06127,0.776913 0.025,0.271938 0.05156,0.543723 0.0782,0.815505 0.02469,0.270673 0.04434,0.541783 0.07136,0.812248 0.02664,0.274418 0.05542,0.548622 0.08129,0.823114 0.02368,0.278017 0.04968,0.555874 0.06831,0.834291 0.01972,0.281112 0.04002,0.562196 0.05289,0.843728 0.01485,0.27205 0.02923,0.544134 0.04711,0.816004 0.017,0.265092 0.03494,0.530114 0.05653,0.794881 0.02163,0.272105 0.04533,0.544057 0.06421,0.81637 0.01642,0.252775 0.03393,0.505463 0.05411,0.757972 0.01941,0.258655 0.04282,0.517048 0.05443,0.776232 0.01246,0.258247 0.02134,0.516748 0.02418,0.775288 0.0028,0.228915 0.0049,0.457894 0.01829,0.686507 0.01122,0.230016 0.023,0.460007 0.03651,0.689902 0.0133,0.224858 0.02726,0.44968 0.04332,0.674359 0.01575,0.218829 0.0323,0.437602 0.0513,0.656177 0.01929,0.221525 0.04074,0.442869 0.05793,0.66457 0.01457,0.216402 0.01936,0.433321 0.02668,0.65008 0.0029,0.200391 0.0042,0.400975 -8.86e-4,0.601325 -0.0048,0.181493 -0.01195,0.362931 -0.02102,0.544262 -0.009,0.205264 -0.02317,0.410599 -0.05862,0.613255 -0.03098,0.185909 -0.07096,0.37015 -0.116869,0.552951 -0.04769,0.183755 -0.102878,0.365234 -0.170953,0.542599 -0.06548,0.170972 -0.135531,0.340365 -0.220125,0.502932 -0.08977,0.170798 -0.184417,0.339526 -0.298309,0.495687 -0.133201,0.176887 -0.283515,0.339855 -0.457147,0.478242 -0.177429,0.136344 -0.367537,0.253773 -0.574153,0.341328 -0.191974,0.07967 -0.389637,0.142529 -0.592107,0.189985 -0.199986,0.04074 -0.399608,0.08146 -0.601472,0.112122 -0.208894,0.02387 -0.416618,0.05766 -0.626525,0.07198 -0.234795,0.02365 -0.469885,0.03972 -0.705347,0.05562 -0.446016,-0.0014 -0.892368,0.0018 -1.338189,-0.0152 -0.227148,-0.01125 -0.454491,-0.0097 -0.681788,-0.01737 -0.225272,-0.0066 -0.450625,-0.01 -0.675911,-0.01615 -0.262863,-0.0051 -1.161384,-0.01885 -0.02536,-0.0077 -0.232937,7.62e-4 -0.465868,0.0021 -0.698799,0.0036 -0.234393,8.84e-4 -0.468786,0.0018 -0.703177,0.0032 -0.236182,0.0018 -0.472361,0.0038 -0.708551,0.0046 -0.234111,0.0014 -0.468223,0.0027 -0.702333,0.0043 -0.228535,0.0015 -0.457071,0.0034 -0.685611,0.0035 -0.216354,0.0018 -0.432707,0.0036 -0.649058,0.0057 -0.20847,0.0021 -0.416939,0.0042 -0.625407,0.0066 -0.194172,0.002 -0.388355,0.0027 -0.582509,0.0064 -0.18203,0.0028 -0.364039,0.0064 -0.54604,0.01061 -0.174641,0.0033 -0.349299,0.0065 -0.523871,0.01252 -0.168557,0.004 -0.337079,0.0089 -0.505574,0.01496 -0.166107,0.0054 -0.332191,0.01205 -0.498155,0.02076 -0.177919,0.0091 -0.355216,0.02635 -0.533632,0.01986 -0.157082,-9.3e-5 -0.314165,-2e-5 -0.471243,-0.0011 -0.131735,-0.0016 -0.263483,-0.0011 -0.395225,-0.0013 -0.337827,0.0013 -0.678844,0.03483 -1.012302,-0.02731 -0.08866,-0.01147 -0.177178,-0.02463 -0.264305,-0.04502 -1.53088,-0.606229 -0.673545,-2.771222 0.857337,-2.164993 z"
   inkscape:connector-curvature="0" /><path
   style="fill:#91d900;fill-opacity:1;stroke-width:0.98187488"
   id="path154"
   d="m 9.2562201,29.890535 c 0.023121,-0.08606 0.053754,-0.169865 0.08298,-0.253988 0.031444,-0.09989 0.070727,-0.197005 0.1047969,-0.295985 0.044017,-0.137813 0.088176,-0.275574 0.1314982,-0.413609 0.046566,-0.147948 0.090104,-0.296813 0.1278038,-0.44727 0.042591,-0.161948 0.074124,-0.326063 0.100611,-0.491278 0.02711,-0.17572 0.037615,-0.353321 0.049078,-0.53057 0.013243,-0.211372 0.024208,-0.422877 0.034717,-0.634401 0.00757,-0.212607 0.00799,-0.425372 0.010194,-0.638079 9.535e-4,-0.239167 0.00356,-0.478323 0.00577,-0.717481 0.0028,-0.244898 0.00393,-0.489802 0.00515,-0.734709 0.00174,-0.255392 0.00229,-0.510787 0.00382,-0.76618 0.00163,-0.259127 0.0032,-0.518255 0.00468,-0.777382 8.003e-4,-0.263378 0.00156,-0.526756 0.00277,-0.790133 0.00283,-0.264938 -0.00407,-0.529774 -0.00942,-0.79463 C 9.905609,21.326162 9.899152,21.047514 9.894115,20.768835 9.889775,20.48636 9.884205,20.203906 9.879979,19.921427 9.872539,19.646462 9.862072,19.371588 9.852603,19.096687 9.842005,18.814781 9.824655,18.533179 9.810259,18.251446 9.795578,17.962689 9.78243,17.673857 9.769812,17.385003 9.760802,17.106437 9.742032,16.828377 9.724949,16.550232 9.710313,16.270603 9.691559,15.991282 9.671101,15.712028 9.650339,15.426607 9.629641,15.141182 9.611097,14.855608 9.590128,14.563014 9.577467,14.270032 9.567942,13.976879 9.559282,13.695739 9.552156,13.414557 9.545239,13.133371 c -0.00626,-0.278872 -0.01372,-0.557713 -0.019714,-0.83659 -0.00848,-0.286976 -0.00668,-0.574063 -0.00497,-0.861113 3.299e-4,-0.280856 0.00261,-0.561704 0.0045,-0.842553 0.00189,-0.289821 -2.368e-4,-0.579633 0.00461,-0.869429 C 9.5295279,9.409419 9.5539198,9.0966576 9.5860581,8.7843199 9.6172208,8.5112 9.6599215,8.2396654 9.7010724,7.9679364 9.7402899,7.7096202 9.7930909,7.4537467 9.8533944,7.1996145 9.9086007,6.9611768 9.9788946,6.7267171 10.057773,6.4951542 c 0.07732,-0.2250735 0.174664,-0.4420111 0.286094,-0.652058 0.108971,-0.2142016 0.246741,-0.4104559 0.393296,-0.6001179 0.13236,-0.1686482 0.285029,-0.3187065 0.441422,-0.464624 0.159293,-0.149951 0.33669,-0.2769272 0.522965,-0.3907113 0.180206,-0.1054411 0.368805,-0.1972364 0.564895,-0.2690004 0.204129,-0.074688 0.415148,-0.1254015 0.62909,-0.1619235 0.419777,-0.066708 0.835061,-0.025515 1.248216,0.035894 0.178785,0.020995 0.356506,0.049019 0.535272,0.070392 0.175628,0.021237 0.351294,0.041859 0.527662,0.055948 0.19135,0.016233 0.382788,0.031363 0.5743,0.045544 0.208445,0.01271 0.416851,0.026018 0.625322,0.038296 0.206894,0.017344 0.41415,0.017434 0.62153,0.020459 0.217253,0.00456 0.434533,0.00747 0.651811,0.010799 0.225703,0.00349 0.45141,0.00659 0.67712,0.00953 0.23071,0.00299 0.461425,0.00561 0.692141,0.0081 0.234846,0.00252 0.469695,0.00472 0.704546,0.00683 0.237698,0.00243 0.475412,0.00325 0.713101,0.00645 0.235027,0.00255 0.470065,0.00393 0.705102,0.00537 0.230056,0.00173 0.460112,0.00401 0.690156,0.00701 0.215486,0.00251 0.430983,0.00355 0.646462,0.00656 0.221364,-0.00184 0.440931,0.02906 0.661272,0.045233 0.223757,0.019379 0.441873,0.072006 0.662604,0.1104408 0.211986,0.045748 0.418835,0.1108111 0.62726,0.1699621 0.190874,0.053461 0.381358,0.111111 0.56746,0.1796746 0.224839,0.1001645 0.446003,0.2095877 0.656678,0.3369116 0.211623,0.1345779 0.408777,0.2897991 0.603003,0.4479929 0.202025,0.1697319 0.385013,0.3597879 0.557979,0.5585786 0.175333,0.2018052 0.326797,0.4221926 0.471757,0.6463077 0.156623,0.2278007 0.287113,0.470922 0.404859,0.720551 0.123174,0.2601065 0.217611,0.5318179 0.303632,0.8059978 0.07858,0.2597962 0.145679,0.523282 0.197986,0.789603 0.04946,0.2614294 0.0826,0.5256048 0.106399,0.7904989 0.02468,0.2494639 0.03261,0.4998979 0.03534,0.7504089 0.0062,0.265192 -0.01451,0.529642 -0.04639,0.792635 -0.03662,0.291707 -0.102353,0.577544 -0.191793,0.8573 -0.08796,0.26795 -0.198007,0.527724 -0.309997,0.786289 -0.115231,0.261494 -0.245438,0.516021 -0.383083,0.766323 -0.137311,0.249456 -0.286798,0.491516 -0.44736,0.726585 -0.174127,0.256208 -0.376847,0.490335 -0.589863,0.714525 -0.209722,0.215717 -0.444474,0.403908 -0.684168,0.584774 -0.231394,0.17495 -0.476444,0.329774 -0.725054,0.478701 -0.265757,0.159548 -0.546581,0.290585 -0.831394,0.411804 -0.287585,0.123947 -0.583158,0.227544 -0.881586,0.321853 -0.302737,0.09675 -0.613764,0.163684 -0.925157,0.225505 -0.306136,0.06061 -0.616569,0.09213 -0.92691,0.121296 -0.512074,0.04582 -1.026979,0.03028 -1.539924,0.0068 -0.303999,-0.02836 -0.606078,-0.07052 -0.905508,-0.13019 -0.277569,-0.04561 -0.553328,-0.10106 -0.830013,-0.151675 -0.260423,-0.04754 -0.522483,-0.08535 -0.784386,-0.12366 -0.251082,-0.03684 -0.503764,-0.06756 -0.757359,-0.07945 0.254695,-0.01358 -0.706972,-0.0027 -0.47553,0.0015 0.121551,0.0022 0.803774,0.0019 0.392257,0.002 -0.261068,-0.0028 -0.521421,0.01758 -0.781476,0.03763 -0.280338,0.02647 -0.561457,0.04241 -0.842195,0.06328 -0.276927,0.01919 -0.552423,0.05433 -0.828645,0.08142 -0.255668,0.02578 -0.511668,0.04782 -0.767688,0.06965 -0.20089,0.01608 -0.399644,0.04881 -0.597591,0.08551 -1.508306,0.769996 -2.597246,-1.36307 -1.088941,-2.133066 v 0 c 0.265647,-0.0793 0.534688,-0.146439 0.808052,-0.193538 0.270362,-0.04388 0.542596,-0.07022 0.815068,-0.0976 0.286181,-0.03011 0.57292,-0.05531 0.858276,-0.09285 0.285298,-0.02747 0.570708,-0.04986 0.856895,-0.0665 0.29486,-0.02336 0.58926,-0.05198 0.884408,-0.07155 0.527222,-0.02329 1.055778,-0.02112 1.580139,0.04112 0.290962,0.03708 0.581858,0.07407 0.871119,0.123183 0.279269,0.04513 0.557813,0.09425 0.835839,0.146506 0.264452,0.04845 0.529198,0.09532 0.794486,0.138925 0.220082,0.02515 0.441342,0.04845 0.66316,0.0432 0.04232,8.52e-4 0.08464,0.0022 0.126958,0.0026 0.513804,0.0051 -0.79024,-0.0068 -0.284969,0.0027 0.04195,7.82e-4 0.08391,1.92e-4 0.125868,5.79e-4 0.03795,3.52e-4 0.0759,0.0011 0.113851,0.0017 0.2476,-0.0056 0.494828,-0.02621 0.740958,-0.05307 0.238479,-0.02757 0.474104,-0.072 0.709204,-0.120163 0.238705,-0.06077 0.475239,-0.130029 0.706317,-0.215703 0.214501,-0.08121 0.430609,-0.159475 0.638061,-0.257781 0.18987,-0.09449 0.375159,-0.198911 0.550523,-0.318409 0.167941,-0.114716 0.334591,-0.232412 0.489762,-0.364093 0.144145,-0.122713 0.274556,-0.260954 0.388605,-0.412212 0.129304,-0.174745 0.253091,-0.353307 0.354951,-0.545854 0.114222,-0.195865 0.219636,-0.397044 0.315324,-0.602576 0.0935,-0.195244 0.177542,-0.395222 0.255463,-0.597175 0.05607,-0.153153 0.109556,-0.304769 0.126305,-0.468865 0.02393,-0.170232 0.03725,-0.342175 0.0333,-0.514188 -0.0029,-0.195695 -0.01264,-0.391153 -0.03238,-0.58594 C 25.919858,9.8800911 25.897255,9.6845144 25.858314,9.4916202 25.816561,9.298035 25.764403,9.1067724 25.703409,8.9183843 25.641368,8.7315179 25.570596,8.5477306 25.4844,8.3705013 25.403336,8.2066602 25.304938,8.052616 25.202937,7.9010698 25.10685,7.7630832 25.00636,7.6279688 24.888517,7.5074644 24.779624,7.3964784 24.665151,7.290505 24.539233,7.1989151 24.427619,7.1145608 24.313067,7.0311053 24.183832,6.975881 24.066641,6.9262764 23.952766,6.8615514 23.82539,6.841746 23.667745,6.7997185 23.511839,6.7513201 23.352859,6.7142831 c -0.150904,-0.037731 -0.302909,-0.070659 -0.45809,-0.0854 -0.160662,-0.025681 -0.322227,-0.035783 -0.484881,-0.03981 -0.181107,-0.011673 -0.362033,-0.00552 -0.543364,-0.00432 -0.216426,4.183e-4 -0.432844,-0.00115 -0.649268,-0.00153 -0.231038,-6.92e-5 -0.462081,-9.36e-4 -0.693113,-0.00262 -0.235948,-0.00209 -0.471895,-0.00443 -0.707846,-0.0061 -0.238801,-0.00105 -0.477582,-0.00458 -0.71637,-0.0072 -0.23614,-0.0029 -0.472279,-0.00593 -0.708411,-0.00942 -0.232309,-0.00345 -0.464614,-0.00707 -0.696912,-0.011242 -0.22775,-0.00411 -0.455498,-0.00842 -0.68323,-0.013511 -0.22278,-0.00508 -0.445547,-0.010861 -0.668278,-0.017722 -0.231806,-0.00934 -0.463054,-0.027112 -0.694458,-0.043429 -0.219536,-0.016258 -0.439093,-0.032843 -0.658074,-0.055553 -0.205569,-0.01967 -0.411094,-0.04015 -0.615973,-0.066167 -0.190252,-0.025575 -0.380768,-0.049237 -0.570798,-0.076413 -0.162283,-0.023716 -0.324634,-0.046092 -0.488036,-0.060706 -0.05627,-0.00279 -0.105602,0.00301 -0.161432,0.00566 -0.02127,10e-4 -0.08514,0.00159 -0.06385,0.00136 0.604962,-0.00637 0.774142,0.014795 0.530366,-0.012618 -0.06724,-0.030793 -0.137428,-0.037004 -0.210089,-0.023414 -0.0779,0.010313 -0.158195,0.013476 -0.233982,0.050709 -0.07179,0.026765 -0.147165,0.044013 -0.208824,0.091724 -0.08484,0.061116 -0.1624,0.1325588 -0.237126,0.2054773 -0.07767,0.080839 -0.150118,0.1680811 -0.209329,0.2633923 -0.06521,0.1165291 -0.133472,0.2317087 -0.172829,0.3604441 -0.05984,0.1606954 -0.103654,0.3265104 -0.144899,0.4928296 -0.04538,0.2022351 -0.08606,0.405413 -0.114912,0.6107699 -0.03525,0.2456421 -0.07199,0.4911743 -0.09668,0.738166 -0.02838,0.2526494 -0.04186,0.5062063 -0.04298,0.7604924 -0.005,0.2822383 -0.0051,0.5645653 -0.008,0.8468323 -0.0015,0.280366 -0.0027,0.560735 -0.0057,0.84109 -0.0012,0.269471 -0.0026,0.538969 0.0057,0.80836 0.0057,0.275976 0.01058,0.551971 0.01847,0.827899 0.0073,0.275744 0.01474,0.551484 0.02383,0.827175 0.0094,0.272263 0.02245,0.544311 0.04216,0.816053 0.01814,0.279475 0.03617,0.558957 0.05826,0.838157 0.02162,0.288564 0.04105,0.577243 0.05644,0.866214 0.01691,0.28828 0.03451,0.576532 0.04577,0.865101 0.0131,0.284346 0.02681,0.568664 0.04176,0.85292 0.01524,0.292487 0.03156,0.584977 0.03993,0.877758 0.01051,0.288694 0.0223,0.577355 0.02952,0.866154 0.004,0.280496 0.0072,0.561004 0.01285,0.841476 0.0048,0.277527 0.0088,0.555064 0.01501,0.832565 0.0052,0.280884 0.01,0.561831 0.0053,0.842761 -0.0012,0.264047 -0.0029,0.528087 -0.0051,0.792126 -0.0015,0.25984 -0.0028,0.519678 -0.0047,0.779516 -0.0019,0.25643 -0.0049,0.512845 -0.0074,0.769269 -0.0028,0.246147 -0.006,0.492291 -0.0082,0.738447 -0.0027,0.241231 -0.0051,0.482472 -0.0102,0.723667 -0.0038,0.237985 -0.0082,0.475992 -0.01679,0.71386 -0.01178,0.221461 -0.02412,0.442898 -0.03886,0.664185 -0.01646,0.240663 -0.03308,0.481609 -0.0704,0.72015 -0.03733,0.223139 -0.0792,0.445498 -0.137616,0.66424 -0.05077,0.193271 -0.103848,0.386086 -0.168785,0.57517 -0.05033,0.142372 -0.0965,0.286185 -0.149869,0.42749 -0.03959,0.116253 -0.08068,0.23202 -0.133842,0.342811 -0.01115,0.0291 -0.07057,0.200884 -0.06727,0.141445 -0.403411,1.59482 -2.6588262,1.02431 -2.2554151,-0.570509 z"
   inkscape:connector-curvature="0" /></svg>