<?xml version="1.0" encoding="utf-8"?>
<!-- Generator: Adobe Illustrator 24.3.0, SVG Export Plug-In . SVG Version: 6.00 Build 0)  -->
<svg version="1.1" id="Calque_1" xmlns="http://www.w3.org/2000/svg" xmlns:xlink="http://www.w3.org/1999/xlink" x="0px" y="0px"
	 viewBox="0 0 80 80" style="enable-background:new 0 0 80 80;" xml:space="preserve">
<style type="text/css">
	.st0{fill:#91D902;}
</style>
<g>
	<g>
		<g>
			<path class="st0" d="M18.9,59.7c0.1-0.3,0.1-0.7,0.1-1s0-0.6,0-0.8c0-0.3,0-0.6,0-0.9c0-0.4,0-0.8-0.2-1.1
				c-0.2-0.2-0.3-0.4-0.6-0.4s-0.5,0.1-0.6,0.4c-0.2,0.3-0.2,0.8-0.2,1.1c0,0.3,0,0.6,0.1,0.9c0,0.3,0,0.6,0.1,0.8
				c0,0.3,0,0.7,0.1,1s0.4,0.5,0.7,0.5C18.6,60.2,18.8,60,18.9,59.7L18.9,59.7z"/>
		</g>
	</g>
	<g>
		<g>
			<path class="st0" d="M19.1,34.6c0.1-0.3,0.1-0.7,0.1-1s0-0.6,0-0.8c0-0.3,0-0.6,0-0.9c0-0.4,0-0.8-0.2-1.1
				c-0.2-0.2-0.3-0.4-0.6-0.4s-0.5,0.1-0.6,0.4c-0.2,0.3-0.2,0.8-0.2,1.1s0,0.6,0.1,0.9c0,0.3,0,0.6,0.1,0.8c0,0.3,0,0.7,0.1,1
				s0.4,0.5,0.7,0.5C18.7,35.1,19,34.9,19.1,34.6L19.1,34.6z"/>
		</g>
	</g>
	<g>
		<g>
			<path class="st0" d="M62.4,34.6c0.1-0.3,0.1-0.7,0.1-1s0-0.6,0-0.8c0-0.3,0-0.6,0-0.9c0-0.4,0-0.8-0.2-1.1
				c-0.2-0.2-0.3-0.4-0.6-0.4c-0.3,0-0.5,0.1-0.6,0.4c-0.3,0.3-0.3,0.7-0.2,1.1c0,0.3,0,0.6,0.1,0.9c0,0.3,0,0.6,0.1,0.8
				c0,0.3,0,0.7,0.1,1s0.4,0.5,0.7,0.5C62.1,35.1,62.3,34.9,62.4,34.6L62.4,34.6z"/>
		</g>
	</g>
	<g>
		<g>
			<path class="st0" d="M62.5,59.7c0.1-0.3,0.1-0.7,0.1-1s0-0.6,0-0.8c0-0.3,0-0.6,0-0.9c0-0.4,0-0.8-0.2-1.1
				c-0.2-0.2-0.3-0.4-0.6-0.4c-0.3,0-0.5,0.1-0.6,0.4C61,56.2,61,56.7,61,57s0,0.6,0.1,0.9c0,0.3,0,0.6,0.1,0.8c0,0.3,0,0.7,0.1,1
				s0.4,0.5,0.7,0.5C62.2,60.2,62.4,60,62.5,59.7L62.5,59.7z"/>
		</g>
	</g>
	<g>
		<g>
			<path class="st0" d="M18.2,60.3c2.3,0.1,4.6,0,6.9-0.1c3.5,0,7.1,0,10.6,0c7,0,13.9,0.1,20.9,0.1c1.7,0,3.4,0.1,5.1,0
				c1-0.1,1-1.7,0-1.6c-4.4,0.3-8.9,0-13.3,0c-7.3,0-14.7-0.1-22-0.1c-2.7,0-5.5-0.2-8.2,0.2C17.3,58.8,17.2,60.2,18.2,60.3
				L18.2,60.3z"/>
		</g>
	</g>
	<g>
		<g>
			<path class="st0" d="M18.2,57c2.3,0.1,4.6,0,6.9-0.1c3.5,0,7.1,0,10.6,0c7,0,13.9,0.1,20.9,0.1c1.7,0,3.4,0.1,5.1,0
				c1-0.1,1-1.7,0-1.6c-4.4,0.3-8.9,0-13.3,0c-7.3,0-14.7-0.1-22-0.1c-2.7,0-5.5-0.2-8.2,0.2C17.3,55.6,17.2,57,18.2,57L18.2,57z"/>
		</g>
	</g>
	<g>
		<g>
			<path class="st0" d="M18.2,35.1c2.3,0.1,4.6,0,6.9-0.1c3.5,0,7.1,0,10.6,0c7,0,13.9,0.1,20.9,0.1c1.7,0,3.4,0.1,5.1,0
				c1-0.1,1-1.7,0-1.6c-4.4,0.3-8.9,0-13.3,0c-7.3,0-14.7-0.1-22-0.1c-2.7,0-5.5-0.2-8.2,0.2C17.3,33.7,17.2,35.1,18.2,35.1
				L18.2,35.1z"/>
		</g>
	</g>
	<g>
		<g>
			<g>
				<path class="st0" d="M21,37.8c0.1-0.3,0.1-0.7,0.1-1s0-0.6,0-0.8c0-0.3,0-0.6,0-0.9c0-0.4,0-0.8-0.2-1.1
					c-0.2-0.2-0.3-0.4-0.6-0.4s-0.5,0.1-0.6,0.4c-0.2,0.3-0.2,0.8-0.2,1.1s0,0.6,0.1,0.9c0,0.3,0,0.6,0.1,0.8c0,0.3,0,0.7,0.1,1
					s0.4,0.5,0.7,0.5C20.6,38.3,20.9,38.1,21,37.8L21,37.8z"/>
			</g>
		</g>
		<g>
			<g>
				<path class="st0" d="M31.1,37.8c0.1-0.3,0.1-0.7,0.1-1s0-0.6,0-0.8c0-0.3,0-0.6,0-0.9c0-0.4,0-0.8-0.2-1.1
					c-0.2-0.2-0.3-0.4-0.6-0.4s-0.5,0.1-0.6,0.4c-0.2,0.3-0.2,0.8-0.2,1.1s0,0.6,0.1,0.9c0,0.3,0,0.6,0.1,0.8c0,0.3,0,0.7,0.1,1
					s0.4,0.5,0.7,0.5C30.7,38.3,31,38.1,31.1,37.8L31.1,37.8z"/>
			</g>
		</g>
		<g>
			<g>
				<path class="st0" d="M20.1,38.4c0.8,0.1,1.7,0,2.6,0c0.7,0,1.3,0,2,0c1,0,1.9,0,2.9,0s1.9,0.1,2.9,0.1c1-0.1,1-1.7,0-1.6
					c-1,0.1-1.9-0.1-2.9-0.1s-1.9,0-2.9,0c-0.7,0-1.3,0-2,0c-0.8,0-1.8,0-2.6,0.2C19.4,37,19.3,38.2,20.1,38.4L20.1,38.4z"/>
			</g>
		</g>
		<g>
			<g>
				<path class="st0" d="M20.1,35.1c0.8,0.1,1.7,0,2.6,0c0.7,0,1.3,0,2,0c1,0,1.9,0,2.9,0s1.9,0.1,2.9,0.1c1-0.1,1-1.7,0-1.6
					c-1,0.1-1.9-0.1-2.9-0.1s-1.9,0-2.9,0c-0.7,0-1.3,0-2,0c-0.8,0-1.8,0-2.6,0.2C19.4,33.8,19.3,35,20.1,35.1L20.1,35.1z"/>
			</g>
		</g>
	</g>
	<g>
		<g>
			<g>
				<path class="st0" d="M35.7,37.8c0.1-0.3,0.1-0.7,0.1-1s0-0.6,0-0.8c0-0.3,0-0.6,0-0.9c0-0.4,0-0.8-0.2-1.1
					c-0.2-0.2-0.3-0.4-0.6-0.4s-0.5,0.1-0.6,0.4c-0.2,0.3-0.2,0.8-0.2,1.1s0,0.6,0.1,0.9c0,0.3,0,0.6,0.1,0.8c0,0.3,0,0.7,0.1,1
					s0.4,0.5,0.7,0.5C35.4,38.3,35.6,38.1,35.7,37.8L35.7,37.8z"/>
			</g>
		</g>
		<g>
			<g>
				<path class="st0" d="M45.8,37.8c0.1-0.3,0.1-0.7,0.1-1s0-0.6,0-0.8c0-0.3,0-0.6,0-0.9c0-0.4,0-0.8-0.2-1.1
					c-0.2-0.2-0.3-0.4-0.6-0.4c-0.3,0-0.5,0.1-0.6,0.4c-0.2,0.3-0.2,0.8-0.2,1.1s0,0.6,0.1,0.9c0,0.3,0,0.6,0.1,0.8
					c0,0.3,0,0.7,0.1,1s0.4,0.5,0.7,0.5C45.5,38.3,45.7,38.1,45.8,37.8L45.8,37.8z"/>
			</g>
		</g>
		<g>
			<g>
				<path class="st0" d="M34.9,38.4c0.8,0.1,1.7,0,2.6,0c0.7,0,1.3,0,2,0c1,0,1.9,0,2.9,0s1.9,0.1,2.9,0.1c1-0.1,1-1.7,0-1.6
					c-1,0.1-1.9-0.1-2.9-0.1s-1.9,0-2.9,0c-0.7,0-1.3,0-2,0c-0.8,0-1.8,0-2.6,0.2C34.2,37,34.1,38.2,34.9,38.4L34.9,38.4z"/>
			</g>
		</g>
		<g>
			<g>
				<path class="st0" d="M34.9,35.1c0.8,0.1,1.7,0,2.6,0c0.7,0,1.3,0,2,0c1,0,1.9,0,2.9,0s1.9,0.1,2.9,0.1c1-0.1,1-1.7,0-1.6
					c-1,0.1-1.9-0.1-2.9-0.1s-1.9,0-2.9,0c-0.7,0-1.3,0-2,0c-0.8,0-1.8,0-2.6,0.2C34.2,33.8,34.1,35,34.9,35.1L34.9,35.1z"/>
			</g>
		</g>
	</g>
	<g>
		<g>
			<g>
				<path class="st0" d="M50.3,37.8c0.1-0.3,0.1-0.7,0.1-1s0-0.6,0-0.8c0-0.3,0-0.6,0-0.9c0-0.4,0-0.8-0.2-1.1
					c-0.2-0.2-0.3-0.4-0.6-0.4c-0.3,0-0.5,0.1-0.6,0.4c-0.2,0.3-0.2,0.8-0.2,1.1s0,0.6,0.1,0.9c0,0.3,0,0.6,0.1,0.8
					c0,0.3,0,0.7,0.1,1s0.4,0.5,0.7,0.5C49.9,38.3,50.2,38.1,50.3,37.8L50.3,37.8z"/>
			</g>
		</g>
		<g>
			<g>
				<path class="st0" d="M60.4,37.8c0.1-0.3,0.1-0.7,0.1-1s0-0.6,0-0.8c0-0.3,0-0.6,0-0.9c0-0.4,0-0.8-0.2-1.1
					c-0.2-0.2-0.3-0.4-0.6-0.4c-0.3,0-0.5,0.1-0.6,0.4c-0.2,0.3-0.2,0.8-0.2,1.1s0,0.6,0.1,0.9c0,0.3,0,0.6,0.1,0.8
					c0,0.3,0,0.7,0.1,1s0.4,0.5,0.7,0.5C60,38.3,60.3,38.1,60.4,37.8L60.4,37.8z"/>
			</g>
		</g>
		<g>
			<g>
				<path class="st0" d="M49.4,38.4c0.8,0.1,1.7,0,2.6,0c0.7,0,1.3,0,2,0c1,0,1.9,0,2.9,0s1.9,0.1,2.9,0.1c1-0.1,1-1.7,0-1.6
					c-1,0.1-1.9-0.1-2.9-0.1s-1.9,0-2.9,0c-0.7,0-1.3,0-2,0c-0.8,0-1.8,0-2.6,0.2C48.7,37,48.6,38.2,49.4,38.4L49.4,38.4z"/>
			</g>
		</g>
		<g>
			<g>
				<path class="st0" d="M49.4,35.1c0.8,0.1,1.7,0,2.6,0c0.7,0,1.3,0,2,0c1,0,1.9,0,2.9,0s1.9,0.1,2.9,0.1c1-0.1,1-1.7,0-1.6
					c-1.1,0-2-0.1-3-0.1s-1.9,0-2.9,0c-0.7,0-1.3,0-2,0c-0.8,0-1.8,0-2.6,0.2C48.7,33.8,48.6,35,49.4,35.1L49.4,35.1z"/>
			</g>
		</g>
	</g>
	<g>
		<g>
			<path class="st0" d="M21,37.8c-0.3,2.7-0.3,5.5-0.4,8.2c-0.1,3.4-0.2,7,0.5,10.4c0.2,1,1.9,0.6,1.6-0.4
				c-0.9-3.2-0.5-6.9-0.5-10.1c0.1-2.6,0.4-5.4,0.1-8C22.3,36.9,21.1,36.9,21,37.8L21,37.8z"/>
		</g>
	</g>
	<g>
		<g>
			<path class="st0" d="M28.2,37.8c-0.3,2.7-0.3,5.5-0.4,8.2c-0.1,3.4-0.2,7,0.5,10.4c0.2,1,1.9,0.6,1.6-0.4
				c-0.9-3.2-0.5-6.9-0.5-10.1c0.1-2.6,0.4-5.4,0.1-8C29.5,36.9,28.3,36.9,28.2,37.8L28.2,37.8z"/>
		</g>
	</g>
	<g>
		<g>
			<path class="st0" d="M35.8,37.8c-0.3,2.7-0.3,5.5-0.4,8.2c-0.1,3.4-0.2,7,0.5,10.4c0.2,1,1.9,0.6,1.6-0.4
				c-0.9-3.2-0.5-6.9-0.5-10.1c0.1-2.6,0.4-5.4,0.1-8C37.1,36.9,35.9,36.9,35.8,37.8L35.8,37.8z"/>
		</g>
	</g>
	<g>
		<g>
			<path class="st0" d="M43,37.8c-0.3,2.7-0.3,5.5-0.4,8.2c-0.1,3.4-0.2,7,0.5,10.4c0.2,1,1.9,0.6,1.6-0.4
				c-0.9-3.2-0.5-6.9-0.5-10.1c0.1-2.6,0.4-5.4,0.1-8C44.3,36.9,43.1,36.9,43,37.8L43,37.8z"/>
		</g>
	</g>
	<g>
		<g>
			<path class="st0" d="M50.4,37.2c-0.3,2.7-0.3,5.5-0.4,8.2c-0.1,3.4-0.2,7,0.5,10.4c0.2,1,1.9,0.6,1.6-0.4
				c-0.9-3.2-0.5-6.9-0.5-10.1c0.1-2.6,0.4-5.4,0.1-8C51.7,36.3,50.5,36.3,50.4,37.2L50.4,37.2z"/>
		</g>
	</g>
	<g>
		<g>
			<path class="st0" d="M57.6,37.2c-0.3,2.7-0.3,5.5-0.4,8.2c-0.1,3.4-0.2,7,0.5,10.4c0.2,1,1.9,0.6,1.6-0.4
				c-0.9-3.2-0.5-6.9-0.5-10.1c0.1-2.6,0.4-5.4,0.1-8C58.9,36.3,57.7,36.3,57.6,37.2L57.6,37.2z"/>
		</g>
	</g>
	<g>
		<g>
			<path class="st0" d="M18.8,30.4c-0.1-0.1-0.1-0.1-0.2-0.2c0.1,0.4,0.1,0.8,0.2,1.2c-0.4,0.3,0.6,0,0.7,0c0.4-0.1,0.7-0.3,1.1-0.4
				c0.9-0.4,1.7-0.8,2.6-1.1c1.9-0.7,3.8-1.7,5.5-2.7c1.8-1.1,3.6-2.3,5.6-3.2c1.7-0.8,3.6-2.2,5.4-2.5c1.4-0.3,3.3,1.1,4.6,1.7
				c1.9,0.9,3.7,2,5.5,3.1c3.7,2.3,7.8,3.8,11.5,6.1c1,0.6,1.8-0.9,0.9-1.5c-2.3-1.4-4.5-2.4-6.6-3.4c-2-1-3.9-2.1-5.8-3.3
				c-2-1.2-4-2.2-6-3.2c-1.3-0.6-2.7-1.5-4.1-1.3c-1.9,0.2-3.8,1.6-5.5,2.4c-2.1,1-4,2.2-6,3.4s-4,2.2-6.1,3
				c-0.9,0.3-1.7,0.8-2.5,1.2c-0.7,0.3-1.5,0.2-2,0.9c-0.2,0.3-0.1,0.9,0.3,1c0,0,0,0-0.1-0.1C18.5,32,19.5,31.1,18.8,30.4
				L18.8,30.4z"/>
		</g>
	</g>
</g>
</svg>
