<?xml version="1.0" encoding="utf-8"?>
<!-- Generator: Adobe Illustrator 24.3.0, SVG Export Plug-In . SVG Version: 6.00 Build 0)  -->
<svg version="1.1" id="Calque_1" xmlns="http://www.w3.org/2000/svg" xmlns:xlink="http://www.w3.org/1999/xlink" x="0px" y="0px"
	 viewBox="0 0 80 80" style="enable-background:new 0 0 80 80;" xml:space="preserve">
<style type="text/css">
	.st0{fill:#91D902;}
</style>
<g>
	<g>
		<g>
			<path class="st0" d="M29.7,23.5c-1-0.1-1.9-0.1-2.9-0.1c-0.6,0-1.2,0-1.8,0c-0.5,0-0.9-0.1-1.4,0c-0.6,0.1-1.1,0.3-1.4,0.8
				c-0.3,0.5-0.3,1-0.3,1.5s0,0.9,0,1.4c0,0.6-0.1,1.2,0.1,1.7c0.7,2,3.3,2,5.1,2.1c0.9,0,1.8,0.1,2.6-0.2s1.2-0.9,1.4-1.7
				c0.3-0.9,0.3-1.9,0.1-2.9c-0.1-0.8-0.4-1.8-1.2-2.2c-1-0.5-1.8,0.9-0.9,1.5c0.1,0.1,0,0,0,0l0.1,0.1c-0.1-0.1,0-0.1,0,0
				s0.1,0.1,0.1,0.2c-0.1-0.1,0,0,0,0c0,0.1,0,0.1,0.1,0.2c0,0.2,0.1,0.3,0.1,0.5s0-0.1,0,0.1c0,0.1,0,0.2,0,0.2c0,0.2,0,0.4,0,0.5
				c0,0.2,0,0.3,0,0.5c0,0.1,0,0.2,0,0.2c0-0.2,0,0.1,0,0.1c0,0.1-0.1,0.3-0.1,0.4c0,0.1,0,0.1-0.1,0.2v0.1c0,0.1,0.1-0.1,0,0
				c0,0-0.1,0.1-0.1,0.2c0,0-0.1,0.2,0,0.1c0.1-0.1,0,0-0.1,0s0,0,0.1-0.1c0,0-0.1,0-0.1,0.1c-0.1,0.1,0.1,0-0.1,0
				c-0.1,0-0.1,0-0.2,0.1c-0.1,0-0.1,0-0.2,0c-0.1,0,0,0,0,0c-0.1,0-0.1,0-0.2,0c-0.4,0-0.8,0-1.2,0c-0.7,0-1.3-0.1-2-0.2
				c-0.2,0-0.2,0-0.4-0.1c-0.2,0-0.4-0.1-0.6-0.1c-0.2-0.1-0.2-0.1-0.4-0.2c0,0-0.2-0.2-0.2-0.1c0.2,0,0.2,0,0.2-0.1
				c-0.2-0.3-0.1-0.8-0.1-1.1c0-0.4,0-0.8,0-1.2c0-0.2,0-0.4,0-0.6s0-0.2,0.1-0.4c0,0.1,0-0.1,0.1-0.1c0,0,0,0.1-0.1,0.1
				c-0.1,0.1,0,0,0,0s-0.1,0,0,0c0,0,0.2,0,0.1,0c-0.1,0,0.1,0,0.1,0c0.1,0,0.1,0,0.2,0c0.4,0,0.9,0.1,1.3,0.1c0.6,0,1.2,0,1.8,0
				c0.5,0,1,0,1.4,0c0.5,0,1.1-0.1,1.4-0.5C30.3,24.2,30.2,23.5,29.7,23.5L29.7,23.5z"/>
		</g>
	</g>
	<g>
		<g>
			<path class="st0" d="M26.1,23.9c-0.1,0.2-0.2,0.3-0.3,0.5c0,0.1-0.1,0.3-0.1,0.5s0,0.4-0.1,0.6c0-0.1,0-0.1,0-0.2
				c0,0.1,0,0.2-0.1,0.4c0,0.1-0.1,0.2-0.1,0.3c0,0.2,0,0.4,0.1,0.6s0.3,0.3,0.5,0.4c0.2,0,0.4,0,0.6-0.1c0.1,0,0.1-0.1,0.2-0.1
				c0.1-0.1,0.2-0.2,0.2-0.4c0-0.1,0.1-0.3,0.1-0.4c0-0.1,0-0.2,0-0.2c0-0.2,0-0.3,0-0.5s0-0.3,0-0.5c0-0.1,0-0.2,0-0.2
				c0-0.1,0-0.2,0-0.4c0,0.1,0,0.1,0,0.2c0,0,0,0,0-0.1c0-0.3-0.1-0.5-0.4-0.6c-0.1,0-0.2-0.1-0.3,0C26.4,23.8,26.2,23.8,26.1,23.9
				L26.1,23.9z"/>
		</g>
	</g>
	<g>
		<g>
			<path class="st0" d="M25,23.6L25,23.6c-0.1,0.1-0.2,0.3-0.3,0.5c0.1-0.1,0.2-0.2,0.3-0.3s0.1-0.3,0.1-0.4c0-0.1,0-0.2,0-0.3
				c0-0.3,0-0.5,0-0.8c0-0.1,0-0.3,0-0.4v-0.2c0,0,0,0.2,0,0.1v-0.1c0-0.1,0-0.1,0-0.2v-0.1c0-0.1,0.1-0.1,0,0.1
				c0.1-0.2,0.2-0.5,0.2-0.8c0-0.2-0.2-0.4-0.3-0.5c-0.2-0.1-0.4-0.1-0.6-0.1c-0.4,0.1-0.5,0.4-0.6,0.7c0,0.1-0.1,0.2-0.1,0.3
				c-0.1,0.3-0.1,0.7-0.1,1s0,0.7,0.1,1c0,0.1,0,0.2,0.1,0.3c0,0.2,0.2,0.4,0.4,0.6c-0.1-0.2-0.2-0.3-0.3-0.5l0,0
				c0,0.3,0.2,0.6,0.6,0.6C24.8,24.2,25,24,25,23.6L25,23.6z"/>
		</g>
	</g>
	<g>
		<g>
			<path class="st0" d="M28.8,23.4C28.8,23.5,28.8,23.5,28.8,23.4s0-0.2,0-0.2c0-0.1,0-0.2,0-0.3s0-0.2,0-0.3c0-0.2,0-0.5,0-0.7
				c0-0.5,0-1,0-1.5c0-0.4-0.4-0.8-0.8-0.8c-0.4,0-0.8,0.3-0.8,0.8s0,1,0,1.5c0,0.2,0,0.5,0,0.7c0,0.1,0,0.2,0,0.2c0-0.1,0-0.1,0,0
				s0,0.2,0,0.3c0,0.2,0.1,0.4,0.2,0.5c-0.1-0.1-0.1-0.2-0.2-0.3l0,0c0.1,0.3,0.3,0.5,0.6,0.5C28.5,23.9,28.8,23.7,28.8,23.4
				L28.8,23.4z"/>
		</g>
	</g>
	<g>
		<g>
			<path class="st0" d="M24,30.6c-0.2,1.2-0.2,2.5-0.2,3.8c-0.1,1.2-0.1,2.5-0.2,3.7c-0.1,1.2-0.1,2.5-0.1,3.7c0,0.8,0,1.7,0.4,2.4
				c0.5,0.8,1.5,1.2,2.4,1s1.6-0.9,2.1-1.7c1-1.8,1.1-4,1-6.1c-0.1-1.2-0.2-2.3-0.2-3.4c0-1.3,0-2.6-0.1-4c-0.1-1.1-1.8-1.1-1.7,0
				c0.2,2.4,0.1,4.7,0.2,7.1c0.1,1.1,0.1,2.2-0.1,3.2c-0.1,1-0.4,2.2-1.1,3c-0.3,0.3-0.7,0.4-1.1,0.1c-0.3-0.3-0.3-0.8-0.2-1.2
				c0-1.2,0-2.3,0.1-3.5c0-1.4,0.1-2.8,0.2-4.1c0-1.3,0.2-2.7-0.1-4.1C25.2,29.9,24.1,29.9,24,30.6L24,30.6z"/>
		</g>
	</g>
	<g>
		<g>
			<path class="st0" d="M28.4,38.7c2,0.5,4.1,1.3,5.7,2.7c1.4,1.3,2.1,3.1,2.5,4.9c0.4,1.9,0.4,4.1-0.2,6c-0.6,1.8-2.1,3.4-3.7,4.5
				c-1.6,1.1-3.4,1.8-5.4,1.9c-2.2,0.1-4-0.4-6-1.3c-0.8-0.4-1.8-0.7-2.5-1.4c-0.6-0.5-1.1-1.3-1.5-1.9c-1.1-1.7-1.1-4-0.9-5.9
				c0.2-2.2,1-4.5,2.5-6.2c1.5-1.8,3.7-2.7,5.9-3.2c1.1-0.3,0.6-1.9-0.5-1.7c-2.3,0.5-4.6,1.5-6.2,3.2c-1.6,1.6-2.7,3.8-3.1,6
				c-0.9,4.2-0.3,9.5,3.8,11.8C23,60.5,28,61.4,32.4,59c2-1.1,3.7-2.7,4.9-4.6c1.2-2,1.5-4.5,1.3-6.8c-0.2-2.4-0.9-4.8-2.4-6.7
				c-1.7-2.1-4.6-3.3-7.1-3.9C27.8,36.9,27.4,38.5,28.4,38.7L28.4,38.7z"/>
		</g>
	</g>
	<g>
		<g>
			<path class="st0" d="M28,42.4c1.2,0.4,2.4,0.9,3.3,1.7c0.8,0.8,1.3,1.9,1.5,3.1s0.3,2.6-0.2,3.8c-0.4,1.1-1.2,2-2.1,2.7
				c-2.1,1.7-4.7,1.8-7.1,0.7c-0.5-0.2-1.1-0.5-1.6-0.8c-0.4-0.3-0.7-0.7-1-1.1c-0.4-0.5-0.6-1-0.7-1.6C20,50.3,20,49.7,20,49
				c0-1.4,0.4-2.9,1.2-4.1s2-1.9,3.4-2.3c1.1-0.3,0.6-2-0.5-1.7c-1.5,0.5-2.9,1.2-3.9,2.5c-0.9,1.2-1.6,2.6-1.8,4.1
				s-0.3,3.5,0.4,4.9c0.6,1.2,1.5,2.3,2.7,2.9c1.5,0.7,3,1.4,4.6,1.4c1.6,0.1,3.1-0.3,4.5-1c1.3-0.7,2.4-1.8,3.2-3.1
				c0.8-1.4,1-3.1,0.9-4.6c-0.1-1.6-0.6-3.2-1.6-4.5c-1.1-1.4-2.9-2.2-4.6-2.6C27.4,40.6,27,42.1,28,42.4L28,42.4z"/>
		</g>
	</g>
	<g>
		<g>
			<path class="st0" d="M56.5,23.5c-1-0.1-1.9-0.1-2.9-0.1c-0.6,0-1.2,0-1.8,0c-0.5,0-0.9-0.1-1.4,0c-0.6,0.1-1.1,0.3-1.4,0.8
				s-0.3,1-0.3,1.5s0,0.9,0,1.4c0,0.6-0.1,1.2,0.1,1.7c0.7,2,3.3,2,5.1,2.1c0.9,0,1.8,0.1,2.6-0.2c0.8-0.3,1.2-0.9,1.4-1.7
				c0.3-0.9,0.3-1.9,0.1-2.9c-0.1-0.8-0.4-1.8-1.2-2.2c-1-0.5-1.8,0.9-0.9,1.5c0.1,0.1,0,0,0,0l0.1,0.1c-0.1-0.1,0-0.1,0,0
				s0.1,0.1,0.1,0.2c-0.1-0.1,0,0,0,0c0,0.1,0,0.1,0.1,0.2c0,0.2,0.1,0.3,0.1,0.5s0-0.1,0,0.1c0,0.1,0,0.2,0,0.2c0,0.2,0,0.4,0,0.5
				c0,0.2,0,0.3,0,0.5c0,0.1,0,0.2,0,0.2c0-0.2,0,0.1,0,0.1c0,0.1-0.1,0.3-0.1,0.4c0,0.1,0,0.1-0.1,0.2v0.1c0,0.1,0.1-0.1,0,0
				c0,0-0.1,0.1-0.1,0.2c0,0-0.1,0.2,0,0.1c0.1-0.1,0,0-0.1,0s0,0,0.1-0.1c0,0-0.1,0-0.1,0.1c-0.1,0.1,0.1,0-0.1,0
				c-0.1,0-0.1,0-0.2,0.1c-0.1,0-0.1,0-0.2,0s0,0,0,0c-0.1,0-0.1,0-0.2,0c-0.4,0-0.8,0-1.2,0c-0.7,0-1.3-0.1-2-0.2
				c-0.2,0-0.2,0-0.4-0.1c-0.2,0-0.4-0.1-0.6-0.1c-0.2-0.1-0.2-0.1-0.4-0.2c0,0-0.2-0.2-0.2-0.1c-0.1-0.1-0.1-0.1-0.1-0.1
				c-0.2-0.3-0.1-0.8-0.1-1.1c0-0.4,0-0.8,0-1.2c0-0.2,0-0.4,0-0.6s0-0.2,0.1-0.4c0,0.1,0-0.1,0.1-0.1c0,0,0,0.1-0.1,0.1
				c-0.1,0.1,0,0,0,0s-0.1,0,0,0c0,0,0.2,0,0.1,0s0.1,0,0.1,0c0.1,0,0.1,0,0.2,0c0.4,0,0.9,0.1,1.3,0.1c0.6,0,1.2,0,1.8,0
				c0.5,0,1,0,1.4,0c0.5,0,1.1-0.1,1.4-0.5C57,24.2,57,23.5,56.5,23.5L56.5,23.5z"/>
		</g>
	</g>
	<g>
		<g>
			<path class="st0" d="M52.9,23.9c-0.1,0.2-0.2,0.3-0.3,0.5c0,0.1-0.1,0.3-0.1,0.5s0,0.4-0.1,0.6c0-0.1,0-0.1,0-0.2
				c0,0.1,0,0.2-0.1,0.4c0,0.1-0.1,0.2-0.1,0.3c0,0.2,0,0.4,0.1,0.6s0.3,0.3,0.5,0.4c0.2,0,0.4,0,0.6-0.1c0.1,0,0.1-0.1,0.2-0.1
				c0.1-0.1,0.2-0.2,0.2-0.4c0-0.1,0.1-0.3,0.1-0.4c0-0.1,0-0.2,0-0.2c0-0.2,0-0.3,0-0.5s0-0.3,0-0.5c0-0.1,0-0.2,0-0.2
				c0-0.1,0-0.2,0-0.4c0,0.1,0,0.1,0,0.2c0,0,0,0,0-0.1c0-0.3-0.1-0.5-0.4-0.6c-0.1,0-0.2-0.1-0.3,0C53.1,23.8,53,23.8,52.9,23.9
				L52.9,23.9z"/>
		</g>
	</g>
	<g>
		<g>
			<path class="st0" d="M51.7,23.6L51.7,23.6c-0.1,0.1-0.2,0.3-0.3,0.5c0.1-0.1,0.2-0.2,0.3-0.3c0.1-0.1,0.1-0.2,0.1-0.4
				c0-0.1,0-0.2,0-0.3c0-0.3,0-0.5,0-0.8c0-0.1,0-0.3,0-0.4v-0.2c0,0,0,0.2,0,0.1v-0.1c0-0.1,0-0.1,0-0.2v-0.1c0-0.1,0.1-0.1,0,0.1
				c0.1-0.2,0.2-0.5,0.2-0.8c0-0.2-0.2-0.4-0.3-0.5c-0.2-0.1-0.4-0.1-0.6-0.1c-0.4,0.1-0.5,0.4-0.6,0.7c0,0.1-0.1,0.2-0.1,0.3
				c-0.1,0.3-0.1,0.7-0.1,1s0,0.7,0.1,1c0,0.1,0,0.2,0.1,0.3c0,0.2,0.2,0.4,0.4,0.6c-0.1-0.2-0.2-0.3-0.3-0.5l0,0
				c0,0.3,0.2,0.6,0.6,0.6C51.5,24.2,51.7,24,51.7,23.6L51.7,23.6z"/>
		</g>
	</g>
	<g>
		<g>
			<path class="st0" d="M55.6,23.4C55.5,23.5,55.5,23.5,55.6,23.4c0-0.1,0-0.2,0-0.2c0-0.1,0-0.2,0-0.3s0-0.2,0-0.3
				c0-0.2,0-0.5,0-0.7c0-0.5,0-1,0-1.5c0-0.4-0.4-0.8-0.8-0.8S54,19.9,54,20.4s0,1,0,1.5c0,0.2,0,0.5,0,0.7c0,0.1,0,0.2,0,0.2
				c0-0.1,0-0.1,0,0s0,0.2,0,0.3c0,0.2,0.1,0.4,0.2,0.5c-0.1-0.1-0.1-0.2-0.2-0.3l0,0c0.1,0.3,0.3,0.5,0.6,0.5
				C55.2,23.9,55.5,23.7,55.6,23.4L55.6,23.4z"/>
		</g>
	</g>
	<g>
		<g>
			<path class="st0" d="M50.7,30.6c-0.2,1.2-0.2,2.5-0.2,3.8c-0.1,1.2-0.1,2.5-0.2,3.7s-0.1,2.5-0.1,3.7c0,0.8,0,1.7,0.4,2.4
				c0.5,0.8,1.5,1.2,2.4,1s1.6-0.9,2.1-1.7c1-1.8,1.1-4,1-6.1c-0.1-1.2-0.2-2.3-0.2-3.4c0-1.3,0-2.6-0.1-4c-0.1-1.1-1.8-1.1-1.7,0
				c0.2,2.4,0.1,4.7,0.2,7.1c0.1,1.1,0.1,2.2-0.1,3.2c-0.1,1-0.4,2.2-1.1,3c-0.3,0.3-0.7,0.4-1.1,0.1c-0.3-0.3-0.3-0.8-0.2-1.2
				c0-1.2,0-2.3,0.1-3.5c0-1.4,0.1-2.8,0.2-4.1c0-1.3,0.2-2.7-0.1-4.1C52,29.9,50.9,29.9,50.7,30.6L50.7,30.6z"/>
		</g>
	</g>
	<g>
		<g>
			<path class="st0" d="M55.1,38.7c2,0.5,4.1,1.3,5.7,2.7c1.4,1.3,2.1,3.1,2.5,4.9c0.4,1.9,0.4,4.1-0.2,6c-0.6,1.8-2.1,3.4-3.7,4.5
				S56,58.6,54,58.7c-2.2,0.1-4-0.4-6-1.3c-0.8-0.4-1.8-0.7-2.5-1.4c-0.6-0.5-1.1-1.3-1.5-1.9c-1.1-1.7-1.1-4-0.9-5.9
				c0.2-2.2,1-4.5,2.5-6.2c1.5-1.8,3.7-2.7,5.9-3.2c1.1-0.3,0.6-1.9-0.5-1.7c-2.3,0.5-4.6,1.5-6.2,3.2c-1.6,1.6-2.7,3.8-3.1,6
				c-0.9,4.2-0.3,9.5,3.8,11.8c4.2,2.4,9.2,3.3,13.6,0.9c2-1.1,3.7-2.7,4.9-4.6c1.2-2,1.5-4.5,1.3-6.8c-0.2-2.4-0.9-4.8-2.4-6.7
				c-1.7-2.1-4.6-3.3-7.1-3.9C54.5,36.9,54.1,38.5,55.1,38.7L55.1,38.7z"/>
		</g>
	</g>
	<g>
		<g>
			<path class="st0" d="M54.8,42.4c1.2,0.4,2.4,0.9,3.3,1.7c0.8,0.8,1.3,1.9,1.5,3.1s0.3,2.6-0.2,3.8c-0.4,1.1-1.2,2-2.1,2.7
				c-2.2,1.6-4.8,1.7-7.2,0.7c-0.5-0.2-1.1-0.5-1.6-0.8c-0.4-0.3-0.7-0.7-1-1.1c-0.4-0.5-0.6-1-0.7-1.6s-0.1-1.2-0.1-1.9
				c0-1.4,0.4-2.9,1.2-4.1c0.8-1.2,2-1.9,3.4-2.3c1.1-0.3,0.6-2-0.5-1.7c-1.5,0.5-2.9,1.2-3.9,2.5c-0.9,1.2-1.6,2.6-1.8,4.1
				c-0.2,1.5-0.3,3.5,0.4,4.9c0.6,1.2,1.5,2.3,2.7,2.9c1.5,0.7,3,1.4,4.6,1.4c1.6,0.1,3.1-0.3,4.5-1c1.3-0.7,2.4-1.8,3.2-3.1
				c0.8-1.4,1-3.1,0.9-4.6c-0.2-1.6-0.6-3.2-1.6-4.5c-1.1-1.4-2.9-2.2-4.6-2.6C54.2,40.6,53.8,42.1,54.8,42.4L54.8,42.4z"/>
		</g>
	</g>
</g>
</svg>
