<?xml version="1.0" encoding="utf-8"?>
<!-- Generator: Adobe Illustrator 24.3.0, SVG Export Plug-In . SVG Version: 6.00 Build 0)  -->
<svg version="1.1" id="Calque_1" xmlns="http://www.w3.org/2000/svg" xmlns:xlink="http://www.w3.org/1999/xlink" x="0px" y="0px"
	 viewBox="0 0 80 80" style="enable-background:new 0 0 80 80;" xml:space="preserve">
<style type="text/css">
	.st0{fill:#91D902;}
</style>
<g>
	<g>
		<g>
			<path class="st0" d="M43.7,22.2c-0.9,0.3-1.5,0.9-2.2,1.5c-1.1,0.9-2.1,1.5-3.4,1.9c-1.7,0.4-3.4,0.7-5.1,1
				c-2.5,0.5-6.1,1.7-5.3,5c0.8,3,4.4,3.2,6.9,2.8c1.5-0.2,3-0.6,4.4-1.3c1-0.5,2-1.1,3-1.5c1.3-0.4,2.7-0.2,4.1-0.1
				c2.8,0.2,5.6-0.3,8.3-0.8c2.6-0.4,4.5-1.6,6.6-3.1c0.9-0.6,0.1-2.1-0.9-1.5c-1.6,1.1-3.1,2.2-5,2.7c-2.1,0.5-4.5,0.8-6.7,1
				c-2.1,0.2-4.3-0.4-6.4,0c-1.8,0.4-3.3,1.6-5.1,2.2c-1.9,0.6-5.4,1.6-7.1,0.1c-1-0.8-0.8-2.1,0.2-2.8c1.1-0.7,2.5-1,3.8-1.2
				c1.7-0.3,3.5-0.6,5.2-1.1c0.9-0.3,1.8-0.7,2.5-1.3c0.9-0.7,1.6-1.6,2.7-2.1C45.1,23.2,44.6,21.9,43.7,22.2L43.7,22.2z"/>
		</g>
	</g>
	<g>
		<g>
			<path class="st0" d="M30,33.6c-1.1,1.7-2.1,3.4-3.2,5.1c-0.6,0.8-1.2,1.5-1.9,2.1c-0.3,0.3-0.7,0.6-1,0.9c0,0-0.4,0.2-0.2,0.3
				c-0.1-0.1,0-0.7,0-0.8c0.1-1,0.7-1.9,1.1-2.8c0.5-1,1-2,1.5-3c1.1-2.1,2.4-4.2,3.7-6.1c1.3-1.8,2.5-3.7,3.8-5.5
				c1.3-1.9,2.9-3.2,5.1-3.7c2.8-0.6,5.8-0.4,8.6-0.4c3.1,0,6.3,0,9.4,0.3c1.1,0.1,1.1-1.7,0-1.7c-3.3-0.3-6.7-0.3-10-0.3
				s-7.1-0.3-10.2,1.1c-2.2,1-3.6,2.8-4.9,4.7c-1.6,2.3-3.3,4.5-4.8,6.8c-1.4,2.2-2.5,4.5-3.7,6.9c-0.7,1.4-2.2,4-1,5.5
				c2.6,3.2,8.1-7.1,9.1-8.6C31.9,33.6,30.5,32.8,30,33.6L30,33.6z"/>
		</g>
	</g>
	<g>
		<g>
			<path class="st0" d="M23,41.9c-0.8,0.1-1.1,0.9-0.9,1.7c0.2,0.8,0.9,1.3,1.7,1.4c1.8,0.4,3.4-1,4.6-2.2c0.7-0.6,1.1-1.4,1.7-2.1
				c0.6-0.8,1.1-1.6,1.6-2.4c0.3-0.4,0.5-0.9,0.8-1.3c0.3-0.3,0.6-0.7,0.8-1c0.5-0.6,1.1-1.3,1.4-2.1c0.2-0.4-0.2-1-0.6-1.1
				c-0.5-0.1-0.9,0.2-1.1,0.6c-0.2,0.5-0.6,0.9-0.9,1.3c-0.4,0.6-0.9,1.1-1.3,1.7c-0.8,1.2-1.5,2.4-2.4,3.5
				c-0.4,0.5-0.7,1.1-1.2,1.5s-1,0.9-1.5,1.2c-0.4,0.3-1,0.6-1.5,0.6c-0.2,0-0.5-0.1-0.6-0.2v-0.2C23.9,42.5,23.5,41.8,23,41.9
				L23,41.9z"/>
		</g>
	</g>
	<g>
		<g>
			<path class="st0" d="M29.9,39.8c0.7,0.8,1.8,0.7,2.6,0.3s1.3-1,1.8-1.7c0.6-0.8,1.3-1.6,1.8-2.5c0.2-0.4,0.5-0.8,0.7-1.1
				c0.2-0.4,0.4-0.7,0.7-1c0.8-0.8-0.4-2-1.2-1.2c-0.6,0.6-0.9,1.3-1.4,2c-0.4,0.7-0.9,1.5-1.5,2.1c-0.3,0.3-0.6,0.8-0.8,1.1
				c-0.1,0.1-0.5,0.5-0.6,0.5c-0.1,0.1-0.3,0.2-0.4,0.3c-0.1,0.1,0,0-0.1,0.1c-0.1,0-0.1,0-0.2,0.1c-0.1,0-0.2,0-0.1,0
				c-0.1,0-0.2,0-0.3,0c0.2,0-0.1,0-0.1,0c0.1,0-0.3-0.1-0.1,0c-0.4-0.2-0.8-0.1-1,0.2C29.6,39.1,29.6,39.5,29.9,39.8L29.9,39.8z"/>
		</g>
	</g>
	<g>
		<g>
			<path class="st0" d="M36.3,57.9c0.9-0.3,1.5-0.9,2.2-1.5c1.1-0.9,2.1-1.5,3.4-1.9c1.7-0.4,3.4-0.7,5.1-1c2.5-0.5,6.1-1.7,5.3-5
				c-0.8-3-4.4-3.2-6.9-2.8c-1.5,0.2-3,0.6-4.4,1.3c-1,0.5-2,1.1-3,1.5c-1.3,0.4-2.7,0.2-4.1,0.1c-2.8-0.2-5.6,0.3-8.3,0.8
				C23,49.8,21.1,51,19,52.5c-0.9,0.6-0.1,2.1,0.9,1.5c1.6-1.1,3.1-2.2,5-2.7c2.1-0.5,4.5-0.8,6.7-1c2.1-0.2,4.3,0.4,6.4,0
				c1.8-0.4,3.3-1.6,5.1-2.2c1.9-0.6,5.4-1.6,7.1-0.1c1,0.8,0.8,2.1-0.2,2.8c-1.1,0.7-2.5,1-3.8,1.2c-1.7,0.3-3.5,0.6-5.2,1.1
				c-0.9,0.3-1.8,0.7-2.5,1.3c-0.9,0.7-1.6,1.6-2.7,2.1C35,56.8,35.5,58.2,36.3,57.9L36.3,57.9z"/>
		</g>
	</g>
	<g>
		<g>
			<path class="st0" d="M50.1,46.4c1.1-1.7,2.1-3.4,3.2-5.1c0.6-0.8,1.2-1.5,1.9-2.1c0.3-0.3,0.7-0.6,1-0.9c0,0,0.4-0.2,0.2-0.3
				c0.1,0.1,0,0.7,0,0.8c-0.1,1-0.7,1.9-1.1,2.8c-0.5,1-1,2-1.5,3c-1.1,2.1-2.4,4.2-3.7,6.1c-1.3,1.8-2.5,3.7-3.8,5.5
				c-1.3,1.9-2.9,3.2-5.1,3.7c-2.8,0.6-5.8,0.4-8.6,0.4c-3.1,0-6.3,0-9.4-0.3c-1.1-0.1-1.1,1.7,0,1.7c3.3,0.3,6.7,0.3,10,0.3
				s7.1,0.3,10.2-1.1c2.2-1,3.6-2.8,4.9-4.7c1.6-2.3,3.3-4.5,4.8-6.8c1.4-2.2,2.5-4.5,3.7-6.9c0.7-1.4,2.2-4,1-5.5
				c-2.6-3.2-8.1,7.1-9.1,8.6C48.2,46.6,49.6,47.2,50.1,46.4L50.1,46.4z"/>
		</g>
	</g>
	<g>
		<g>
			<path class="st0" d="M57.1,38.3c0.8-0.1,1.1-0.9,0.9-1.7s-0.9-1.3-1.7-1.4c-1.8-0.4-3.4,1-4.6,2.2C51,38,50.6,38.8,50,39.5
				c-0.6,0.8-1.1,1.6-1.6,2.4c-0.3,0.4-0.5,0.9-0.8,1.3c-0.3,0.3-0.6,0.7-0.8,1c-0.5,0.6-1.1,1.3-1.4,2.1c-0.2,0.4,0.2,1,0.6,1.1
				c0.5,0.1,0.9-0.2,1.1-0.6c0.2-0.5,0.6-0.9,0.9-1.3c0.4-0.6,0.9-1.1,1.3-1.7c0.8-1.2,1.5-2.4,2.4-3.5c0.4-0.5,0.7-1.1,1.2-1.5
				s1-0.9,1.5-1.2c0.4-0.3,1-0.6,1.5-0.6c0.2,0,0.5,0.1,0.6,0.2v0.2C56.2,37.6,56.6,38.3,57.1,38.3L57.1,38.3z"/>
		</g>
	</g>
	<g>
		<g>
			<path class="st0" d="M50.2,40.4c-0.7-0.8-1.8-0.7-2.6-0.3c-0.8,0.4-1.3,1-1.8,1.7c-0.6,0.8-1.3,1.6-1.8,2.5
				c-0.2,0.4-0.5,0.8-0.7,1.1c-0.2,0.4-0.4,0.7-0.7,1c-0.8,0.8,0.4,2,1.2,1.2c0.6-0.6,0.9-1.3,1.4-2c0.4-0.7,0.9-1.5,1.5-2.1
				c0.3-0.3,0.6-0.8,0.8-1.1c0.1-0.1,0.5-0.5,0.6-0.5c0.1-0.1,0.3-0.2,0.4-0.3s0,0,0.1-0.1c0.1,0,0.1,0,0.2-0.1c0.1,0,0.2,0,0.1,0
				c0.1,0,0.2,0,0.3,0c-0.2,0,0.1,0,0.1,0c-0.1,0,0.3,0.1,0.1,0c0.4,0.2,0.8,0.1,1-0.2C50.5,41.1,50.4,40.7,50.2,40.4L50.2,40.4z"/>
		</g>
	</g>
</g>
</svg>
