<?xml version="1.0" encoding="utf-8"?>
<!-- Generator: Adobe Illustrator 24.3.0, SVG Export Plug-In . SVG Version: 6.00 Build 0)  -->
<svg version="1.1" id="Calque_1" xmlns="http://www.w3.org/2000/svg" xmlns:xlink="http://www.w3.org/1999/xlink" x="0px" y="0px"
	 viewBox="0 0 80 80" style="enable-background:new 0 0 80 80;" xml:space="preserve">
<style type="text/css">
	.st0{fill:#91D902;}
</style>
<g>
	<g>
		<g>
			<path class="st0" d="M26.3,46.9c0.3,0.1,0.6,0.1,0.9,0.1c0.3,0,0.9-0.3,1.1-0.1c-0.3-0.1,0,0.3,0,0.6c0,0.3,0,0.6,0,0.9
				c0.1,2,0,4,0,6c-0.1,4.3,0.1,8.6,0.1,12.9c0,1.1,1.7,1.1,1.7,0c0-4.9-0.2-9.8-0.1-14.7c0-1.9,0.1-3.8-0.2-5.6
				c-0.1-0.5-0.3-1.1-0.8-1.4c-0.8-0.4-1.6,0.2-2.4,0C25.8,45.3,25.5,46.5,26.3,46.9L26.3,46.9z"/>
		</g>
	</g>
	<g>
		<g>
			<path class="st0" d="M52.2,45.4c0.3,0.1,0.6,0.1,0.9,0.1s0.9-0.3,1.1-0.1c-0.3-0.1,0,0.3,0,0.6c0,0.3,0,0.6,0,0.9c0.1,2,0,4,0,6
				c-0.1,4.2,0.1,8.3,0.1,12.5c0,1.1,1.7,1.1,1.7,0c0-4.8-0.2-9.5-0.1-14.3c0-1.9,0.1-3.8-0.2-5.6c-0.1-0.5-0.3-1.1-0.8-1.4
				c-0.8-0.4-1.6,0.2-2.4,0C51.7,43.8,51.4,45.1,52.2,45.4L52.2,45.4z"/>
		</g>
	</g>
	<g>
		<g>
			<path class="st0" d="M25.7,46.3c-0.2,1.7-0.1,3.4-0.1,5.1c0,1.8,0.1,3.6,0.2,5.4c0.1,3.6,0.2,7.1,0.4,10.7c0,0.5,0.4,0.8,0.8,0.8
				c2.5,0.1,5-0.5,7.5-0.8c1.3-0.1,2.7-0.3,4-0.5c1.4-0.1,2.8-0.1,4.2-0.1c2.7,0,5.4-0.4,8.1-0.6c1-0.1,2.1-0.2,3.1-0.2
				c0.6,0,1.4,0,1.8-0.4c0.7-0.8-0.4-2-1.2-1.2c0.2-0.2-0.4-0.1-0.6,0c-0.4,0-0.7,0-1.1,0c-1.2,0.1-2.5,0.1-3.7,0.2
				c-2.6,0.2-5.1,0.5-7.7,0.5c-2.5,0-5,0.3-7.5,0.6c-2.3,0.2-4.7,0.8-7,0.7c0.3,0.3,0.6,0.6,0.8,0.8c-0.2-3.6-0.3-7.1-0.5-10.7
				c-0.1-1.8-0.1-3.6-0.2-5.4c0-1.7,0-3.4-0.2-5.1C27,45.6,25.8,45.6,25.7,46.3L25.7,46.3z"/>
		</g>
	</g>
	<g>
		<g>
			<path class="st0" d="M51.8,44.8c-0.4,1.6,0,3.5,0,5.1c0.1,1.8-0.1,3.7-0.1,5.5s0,3.6-0.1,5.4c0,0.8-0.1,1.6-0.1,2.4
				c0,0.5,0.1,1.1,0,1.7c-0.2,1,1.4,1.5,1.6,0.4c0.3-1.3,0-2.7,0.1-4c0.1-1.8,0.1-3.7,0.1-5.5s0.2-3.7,0.1-5.5
				c0-1.8,0.1-3.8-0.4-5.5C53,44.1,52,44.1,51.8,44.8L51.8,44.8z"/>
		</g>
	</g>
	<g>
		<g>
			<path class="st0" d="M29.6,50.2c0.6,0.2,1.3,0.1,1.9-0.1c0.8-0.2,1.5-0.2,2.4-0.2c2.1,0,4.2-0.3,6.3-0.3c3.9,0,7.9,0,11.8-0.2
				c-0.2-0.1-0.4-0.1-0.5-0.2l0,0c0.8,0.6,1.7-0.3,1.1-1.1c-0.3-0.4-0.9-0.3-1.3-0.3c-1.1,0-2.2,0.1-3.2,0.1
				C45.9,48,43.7,48,41.5,48c-2.1,0-4.2,0.1-6.4,0.3c-1,0.1-2-0.1-3,0.1c-0.6,0.1-1.4,0.5-2,0.3C29,48.5,28.7,49.9,29.6,50.2
				L29.6,50.2z"/>
		</g>
	</g>
	<g>
		<g>
			<path class="st0" d="M25.4,48.9c-0.4,0.1-1.6,0.4-1.7,0.2c-0.2-0.3,0.1-1.4,0.1-1.7c0-0.4,0-0.9,0-1.3c0-0.2,0.1-0.9,0-1.1
				c0-0.1,0-0.1,0-0.2c-0.2,0.1-0.4,0.2-0.5,0.3h0.3c0.5,0.1,1.2-0.1,1.8-0.2c1.8-0.1,3.6-0.2,5.4-0.2c6-0.1,12-0.5,18-0.8
				c2.3-0.1,4.6-0.3,6.9-0.6c0.4,0,1.2-0.3,1.5-0.2s0.2,0.5,0.2,0.9c0.1,1.3,0.2,2.5,0.2,3.8c0.3-0.3,0.5-0.5,0.8-0.8
				c-0.5,0-1-0.1-1.5-0.1c-0.3,0-0.8,0.3-1.1,0.1c-0.9-0.6-1.7,0.8-0.8,1.4c0.5,0.3,0.9,0.3,1.4,0.3c0.7-0.1,1.3,0,2-0.1
				c0.4,0,0.8-0.4,0.8-0.8c0-1.3-0.1-2.5-0.2-3.8c-0.1-0.7,0.1-1.7-0.6-2.2c-0.6-0.5-1.4-0.3-2.1-0.2c-1.2,0.1-2.5,0.3-3.7,0.4
				c-4.5,0.3-9.1,0.6-13.6,0.8c-3.3,0.1-6.5,0.2-9.8,0.2c-1,0-2,0-3,0.1s-3.4-0.2-3.9,0.9c-0.4,0.9-0.2,2.1-0.2,3
				c0,0.8-0.2,1.6,0,2.4c0.4,1.7,2.6,1.4,3.9,0.8C26.8,49.9,26.2,48.7,25.4,48.9L25.4,48.9z"/>
		</g>
	</g>
	<g>
		<g>
			<path class="st0" d="M21,57.5c-0.3,0.6,0.1,1.4,0.4,2c0.2,0.4,0.3,0.8,0.5,1.1c0.1,0.1,0.1,0.3,0.2,0.4c0,0.1,0.1,0.2,0.1,0.2
				c0.1,0.2,0-0.1,0,0.1c0.9,2.3,2.2,4.6,3.7,6.6c0.3,0.4,0.7,0.5,1.1,0.3c0.4-0.2,0.6-0.8,0.3-1.1c-0.7-1-1.4-2-2-3s-1.2-2-1.6-3.1
				c-0.3-0.6-0.6-1.3-0.9-1.9c-0.2-0.3-0.3-0.6-0.5-0.9c0-0.1-0.1-0.1-0.1-0.2s0,0.1,0,0s-0.1-0.2-0.1-0.3s0,0.2,0,0.1
				C22.1,57.1,21.3,57,21,57.5L21,57.5z"/>
		</g>
	</g>
	<g>
		<g>
			<path class="st0" d="M21.5,58.4c0.3,0,0.5,0,0.8,0c0,0,0.3,0,0.2,0h0.1l-0.2-0.1c0.1,0.1,0.2,0.2,0.2,0.3
				c0.1,0.2,0.3,0.3,0.4,0.5l0.1,0.1c0.1,0.1,0,0,0-0.1c0,0,0,0.1,0.1,0.1c0.1,0.1,0.2,0.2,0.3,0.4c0.7,0.9,1.4,1.9,2.1,2.9
				c0.2,0.3,0.4,0.7,0.7,1c0.5,0.5,1.3,0.1,1.3-0.6c0-0.4-0.3-0.8-0.5-1.1c-0.3-0.5-0.7-1-1-1.4c-0.7-1-1.4-2-2.2-2.9
				c-0.1-0.2-0.3-0.3-0.4-0.4c-0.5-0.4-1.3-0.3-1.9-0.2C21.3,57,21,57.3,21,57.6C21,58,21.2,58.4,21.5,58.4L21.5,58.4z"/>
		</g>
	</g>
	<g>
		<g>
			<path class="st0" d="M50.4,63.1C50.4,62.9,50.4,63.3,50.4,63.1c0-0.1,0-0.3,0-0.4c0-0.2-0.1-0.3-0.2-0.4
				c-0.1-0.2-0.2-0.5-0.4-0.7c-0.3-0.6-0.6-1.2-0.9-1.8c-0.1-0.3-0.3-0.6-0.4-0.9c-0.1-0.1-0.2-0.2-0.2-0.4c0-0.1,0-0.1-0.1-0.2
				c0,0-0.1-0.2,0-0.1s0-0.1-0.1-0.2c-0.1-0.3-0.2-0.5-0.3-0.8c-0.2-0.5-0.5-1-0.7-1.5c-0.2,0.4-0.5,0.8-0.7,1.2c0.2,0,0.5,0,0.7,0
				c0.1,0,0.2,0,0.3,0c0,0-0.1-0.1,0.1,0.1c0.1,0.1,0.2,0.2,0.3,0.4c0.4,0.5,0.8,1,1.2,1.5c0.5,0.6,1,1.2,1.5,1.9
				c0.4,0.5,0.9,1.1,1.4,1.6c0.7,0.6,1.8-0.2,1.3-1c-0.4-0.7-1-1.3-1.5-1.9s-1.1-1.3-1.6-1.9c-0.4-0.5-0.8-1-1.2-1.4
				c-0.2-0.2-0.4-0.5-0.7-0.6c-0.5-0.3-1.1-0.2-1.7-0.2c-0.7,0-1,0.7-0.7,1.2c0.6,1.3,1.1,2.6,1.7,3.9c0.3,0.6,0.6,1.2,1,1.8
				c0.3,0.5,0.6,1.1,1.2,1.3C50,63.8,50.3,63.5,50.4,63.1L50.4,63.1z"/>
		</g>
	</g>
	<g>
		<g>
			<path class="st0" d="M30,65.1c0.9,0.1,1.8-0.1,2.7-0.2s1.8,0,2.8,0c0.9,0,1.7,0.1,2.6,0c0.9,0,1.7-0.2,2.6-0.3
				c3.6-0.1,7.2-0.8,10.9-0.9c1,0,1-1.6,0-1.6c-3.7,0-7.4,0.7-11,0.9c-0.8,0-1.6,0.2-2.4,0.3c-0.9,0-1.7,0-2.6,0
				c-1.9,0-3.7,0.1-5.6,0.4C28.9,63.9,29.2,65.1,30,65.1L30,65.1z"/>
		</g>
	</g>
	<g>
		<g>
			<path class="st0" d="M47.7,43.5c-0.1,0.4-0.1,0.8-0.1,1.3c0,0.4,0,0.8,0,1.1c0,0.3,0,0.7,0,1c0,0.2,0,0.3,0,0.5c0,0,0,0.3,0,0.1
				c0,0.1-0.1,0.3,0,0.1c0.3-0.1,0.6-0.2,0.9-0.4l0,0c0.2,0.1,0.3,0.2,0.5,0.4c-0.2-0.3-0.6-0.5-0.9-0.4c-0.4,0.1-0.6,0.4-0.6,0.8
				c0,0.3,0.2,0.6,0.4,0.7l0,0c0.4,0.2,0.9,0.1,1.1-0.3s0.2-0.9,0.2-1.3s0-0.7,0-1.1c0-0.8,0.1-1.7-0.2-2.5
				C48.7,42.9,47.9,42.9,47.7,43.5L47.7,43.5z"/>
		</g>
	</g>
	<g>
		<g>
			<path class="st0" d="M44.7,43.5c-0.3,0.4-0.2,0.9-0.2,1.4c0,0.4,0,0.8,0,1.1c0,0.3,0,0.6,0,0.9c0,0.1,0,0.3,0,0.4v0.1
				c0-0.1,0-0.1,0,0s0,0.1-0.1,0.2c-0.1,0.3,0.1,0.8,0.4,0.9c0.1,0,0.1,0.1,0.2,0.1c0.6,0,0.9-0.3,1-0.7c0-0.1,0-0.1,0-0.2
				c0-0.2,0.1-0.4,0.1-0.6c0-0.3,0-0.7-0.1-1c0-0.4,0-0.8-0.1-1.2c0-0.5,0-1-0.3-1.4C45.4,43.1,44.9,43.2,44.7,43.5L44.7,43.5z"/>
		</g>
	</g>
	<g>
		<g>
			<path class="st0" d="M36.3,43.6c-0.6,0.2-0.7,1-0.7,1.5c0,0.4,0,0.9,0.1,1.3c0,0.4,0,0.8,0,1.2c0,0.5-0.1,1.2,0.3,1.5
				c0.3,0.3,0.8,0.3,1.1,0c0.4-0.4,0.2-1,0.2-1.5c0-0.4-0.1-0.8-0.1-1.2s-0.1-0.8-0.1-1.2c0-0.2,0-0.4,0-0.6c0-0.3,0-0.5-0.1-0.7
				C36.9,43.7,36.6,43.6,36.3,43.6L36.3,43.6z"/>
		</g>
	</g>
	<g>
		<g>
			<path class="st0" d="M32.9,43.8c-0.1,0.2-0.2,0.5-0.2,0.8c0,0.1,0,0.3,0.1,0.4v0.1c0,0,0,0.2,0,0.1s0,0.1,0,0.1
				c0,0.1,0,0.1,0,0.2s0,0.2,0,0.4c0,0.3,0,0.5,0,0.8c0,0.5,0,1,0.1,1.4c0,0.2,0,0.5,0,0.7c0.5,0,1.1,0,1.6,0l0,0
				c0-0.3-0.3-0.7-0.6-0.8c-0.2,0-0.3,0-0.4,0c-0.3,0.1-0.6,0.4-0.6,0.8l0,0c0,0.4,0.4,0.8,0.8,0.8c0.5,0,0.8-0.4,0.8-0.8
				c0-0.2,0-0.4,0-0.6c0-0.5-0.1-1-0.1-1.4c0-0.5-0.1-1-0.1-1.5c0-0.2-0.1-0.4-0.1-0.6c0-0.1-0.1-0.2-0.1-0.3v-0.1
				c0,0.1,0-0.1,0-0.1c0-0.3-0.2-0.5-0.5-0.6C33.4,43.4,33.1,43.5,32.9,43.8L32.9,43.8z"/>
		</g>
	</g>
	<g>
		<g>
			<g>
				<path class="st0" d="M37,12c-3-0.4-5.3,0.8-7.7,2.4c-1.9,1.3-3.9,2.7-5,4.9c-0.5,1.1-0.7,2.2-0.7,3.4c0,1.5-0.1,3,0.6,4.4
					c1.1,2.4,3.6,4.2,5.9,5.5c5,2.9,10.8,1.7,15.7-0.9c2-1,3.7-2.4,4.4-4.6c0.7-2.1,0.9-4.7,0.5-6.8c-0.5-2.9-2.1-4.7-4.6-6.2
					c-0.6-0.4-1.3-0.7-2-1c-0.8-0.3-1.7-0.2-2.5-0.4c-1.6-0.4-3.1-0.8-4.8-1c-1.1-0.1-1.1,1.7,0,1.8c1.2,0.1,2.4,0.4,3.6,0.7
					c1.1,0.3,2.2,0.3,3.3,0.6c2,0.7,4.1,2.2,4.8,4.1c1.3,3.3,1,8.3-2.2,10.3c-3.5,2.3-8.7,4-12.8,2.7c-2.2-0.7-4.3-2.1-6-3.6
					c-2-1.8-2.3-4.1-2.1-6.7c0.2-2.5,2.3-4.2,4.2-5.5c2.3-1.6,4.4-2.9,7.3-2.9C37.6,13.5,37.9,12.1,37,12z"/>
			</g>
		</g>
		<g>
			<g>
				<path class="st0" d="M24.1,21.5c-0.3,3,2.1,5.7,4.3,7.4c1.2,0.9,2.4,1.7,3.8,2.3c1.5,0.6,3.2,0.8,4.8,0.8c3,0.1,5.8-0.9,8.5-2.2
					c1.2-0.6,2.2-1.4,3.2-2.4c0.8-0.7,1.9-1.7,2.1-2.9c0.2-1.1-1.5-1.6-1.7-0.5c-0.1,0.9-1.3,1.7-1.9,2.3c-0.8,0.8-1.6,1.4-2.7,1.9
					c-2.3,1.1-4.8,2-7.4,2c-1.5,0-3-0.1-4.4-0.6c-1.2-0.5-2.3-1.2-3.3-2c-2.2-1.6-3.7-3.6-4.1-6.4C25.3,20.4,24.1,20.7,24.1,21.5
					L24.1,21.5z"/>
			</g>
		</g>
		<g>
			<g>
				<path class="st0" d="M36.7,20.2c0.1,0.2,0.3,0.2,0.5,0.3s0.4,0,0.6,0h0.1c0.1,0,0.2-0.1,0.3-0.1c0.1-0.1,0.2-0.1,0.2-0.2
					l0.1-0.1c0.1-0.1,0.1-0.2,0.2-0.2c0-0.1,0.1-0.1,0.1-0.2c0-0.1,0.1-0.1,0.1-0.2c0-0.1,0-0.2,0.1-0.3v-0.1c0-0.1,0-0.2-0.1-0.3
					v-0.1c-0.1-0.1-0.2-0.2-0.3-0.3c0,0,0,0-0.1,0c-0.1-0.1-0.2-0.1-0.4-0.2H38c-0.1,0-0.2,0-0.3,0h-0.1c-0.1,0-0.2,0-0.3,0
					c-0.2,0.1-0.4,0.2-0.6,0.3c-0.1,0.1-0.2,0.2-0.2,0.3l-0.1,0.1c0,0.1-0.1,0.2-0.1,0.3s0,0.2-0.1,0.3c0,0.2,0,0.4,0.1,0.6
					c0.1,0.1,0.2,0.3,0.3,0.3c0.1,0.1,0.3,0.1,0.4,0.1c0.2,0,0.3,0,0.4-0.1c-0.1,0-0.1,0.1-0.2,0.1c0.1,0,0.3-0.1,0.3-0.2
					c0,0,0.1-0.1,0.1-0.2c0-0.1,0-0.1,0.1-0.2c0-0.1,0-0.2,0-0.3s0-0.1,0-0.2c0-0.1-0.1-0.2-0.1-0.2c-0.1-0.1-0.1-0.1-0.2-0.2
					c0.1,0,0.1,0.1,0.2,0.1c0-0.1-0.1-0.1-0.2-0.1c0.1,0,0.1,0.1,0.2,0.1l0,0c0,0.1,0.1,0.1,0.1,0.2c0-0.1-0.1-0.1-0.1-0.2
					c0,0.1,0.1,0.1,0.1,0.2c0-0.1-0.1-0.1-0.1-0.2c0,0.1,0.1,0.1,0.1,0.2l0,0c0,0.1,0.1,0.1,0.1,0.2v-0.1c0,0.1,0,0.1,0,0.2v-0.1
					c0,0.1,0,0.1,0,0.2c0-0.1,0-0.1,0.1-0.2c0,0.1-0.1,0.1-0.1,0.2c0-0.1,0.1-0.1,0.1-0.2c0,0.1-0.1,0.1-0.1,0.2l0.1-0.1
					c-0.1,0-0.1,0.1-0.2,0.1l0.1-0.1c-0.1,0-0.1,0.1-0.2,0.1h0.1c-0.1,0-0.1,0-0.2,0c0.1,0,0.1,0,0.2,0c-0.1,0-0.1,0-0.2,0
					c0.1,0,0.1,0,0.2,0.1c-0.1,0-0.1-0.1-0.2-0.1c0.1,0,0.2,0.1,0.3,0.1c-0.1,0-0.1-0.1-0.2-0.1l0,0c-0.1-0.2-0.2-0.3-0.4-0.5l0,0
					c0-0.1,0-0.1,0-0.2c0,0.1,0,0.1,0,0.2c0-0.1,0-0.1,0-0.2c0,0.1,0,0.1-0.1,0.2c0-0.1,0.1-0.1,0.1-0.2c0,0.1-0.1,0.1-0.1,0.2
					c0-0.1,0.1-0.1,0.1-0.2c0,0.1-0.1,0.1-0.2,0.2c0.1,0,0.1-0.1,0.2-0.1l-0.1,0.1c0.1,0,0.1-0.1,0.2-0.1h-0.1c0.1,0,0.1,0,0.2,0
					c-0.1,0-0.1,0-0.2,0c0.1,0,0.1,0,0.2,0h-0.1c-0.1,0-0.2,0-0.3,0c0.1,0,0.1,0,0.2,0c0,0,0,0-0.1,0s-0.1,0-0.2,0
					c-0.1,0-0.2,0-0.3,0.1c-0.1,0-0.1,0-0.2,0.1c-0.1,0-0.1,0.1-0.2,0.2c-0.1,0.1-0.1,0.2-0.1,0.4c0,0.1,0,0.2,0.1,0.3
					C36.6,20.1,36.7,20.2,36.7,20.2L36.7,20.2z"/>
			</g>
		</g>
		<g>
			<g>
				<path class="st0" d="M39,16.6c-0.6-0.6-1.5-0.6-2.2-0.5c-0.8,0.1-1.5,0.4-2.2,0.8c-0.6,0.4-1.2,1.1-1.4,1.8
					c-0.2,0.8,0,1.6,0.5,2.3c0.9,1.2,2.5,1.7,3.9,1.6c1.4-0.1,3.1-0.7,3.8-2c0.5-0.9,0.4-2-0.2-2.9c-0.5-0.9-1.6-1.8-2.7-1.6
					c-0.8,0.2-0.8,1.4,0,1.6c0.1,0,0.3,0.1,0.4,0.1c0,0,0.2,0.1,0.1,0c0.1,0,0.1,0.1,0.2,0.1c0,0,0.2,0.2,0.1,0.1
					c0.1,0.1,0.1,0.1,0.2,0.2c0.2,0.2,0.1,0.1,0.3,0.4c0,0.1,0.1,0.1,0.1,0.2c0.1,0.2,0-0.1,0,0.1c0,0.1,0.1,0.3,0.1,0.4
					c0-0.2,0,0,0,0.1s0,0.1,0,0.2c0-0.2,0,0,0,0v0.1c0-0.1,0.1-0.1,0,0s-0.1,0.2-0.2,0.3c-0.1,0.2,0.1-0.1,0,0l-0.1,0.1l-0.1,0.1
					c-0.1,0.1,0.2-0.1,0,0c-0.1,0.1-0.2,0.1-0.3,0.2c-0.1,0-0.4,0.2-0.2,0.1c-0.1,0-0.2,0.1-0.4,0.1c-0.1,0-0.3,0.1-0.4,0.1
					c-0.1,0-0.1,0-0.2,0c-0.1,0-0.1,0,0,0H38c-0.3,0-0.5,0-0.8,0c-0.1,0-0.1,0-0.2,0c0,0-0.3,0,0,0c-0.2,0-0.3-0.1-0.5-0.1
					c-0.1,0-0.3-0.1-0.4-0.1c0,0-0.2-0.1,0,0c-0.1,0-0.1-0.1-0.2-0.1c-0.1-0.1-0.2-0.1-0.3-0.2c0,0-0.2-0.1-0.1,0
					c0.1,0.1-0.1-0.1-0.1-0.1L35.3,20c0,0-0.1-0.2,0,0c-0.1-0.1-0.1-0.2-0.2-0.3c-0.1-0.2,0.1,0.2,0,0c0-0.1,0-0.1-0.1-0.2
					c0-0.1,0-0.3,0,0c0-0.1,0-0.2,0-0.3c0-0.2-0.1,0.2,0,0c0-0.1,0-0.1,0-0.2c0-0.1,0,0,0,0c0-0.1,0.1-0.1,0.1-0.2
					c0-0.1,0.1-0.1,0.1-0.2c0.1-0.2-0.1,0.1,0,0s0.2-0.2,0.3-0.3c0.2-0.1-0.1,0.1,0,0s0.2-0.1,0.2-0.2c0.1-0.1,0.3-0.2,0.4-0.2
					c-0.2,0.1,0,0,0.1,0s0.1-0.1,0.2-0.1c0.2-0.1,0.3-0.1,0.5-0.1c0.1,0,0.1,0,0.2,0c0.1,0,0.1,0,0,0h0.1c0.2,0,0.3,0,0.5,0
					c0.1,0,0.1,0,0.2,0H38c-0.1,0-0.1,0,0,0c0.2,0.1,0.4,0.1,0.5,0.1C39.1,17.9,39.4,17,39,16.6L39,16.6z"/>
			</g>
		</g>
	</g>
</g>
</svg>
