<?xml version="1.0" encoding="utf-8"?>
<!-- Generator: Adobe Illustrator 24.3.0, SVG Export Plug-In . SVG Version: 6.00 Build 0)  -->
<svg version="1.1" id="Calque_1" xmlns="http://www.w3.org/2000/svg" xmlns:xlink="http://www.w3.org/1999/xlink" x="0px" y="0px"
	 viewBox="0 0 80 80" style="enable-background:new 0 0 80 80;" xml:space="preserve">
<style type="text/css">
	.st0{fill:#91D902;}
</style>
<g>
	<g>
		<g>
			<path class="st0" d="M27,57.3c3.4-3.2,6.1-6.9,8.8-10.6c1.9-2.7,4-5.3,6.1-7.8c1.7-2.1,3.4-4.2,5.2-6.2c1.5-1.6,2.8-3.5,4.2-5.3
				c1.1-1.5,2.2-3.2,2.2-5.2c-0.1-2.1-1.6-3.2-3.1-4.3c-1.3-1-3-2.3-4.8-1.9c-2.7,0.6-3.7,4.1-5,6.1c-2.8,4.7-5.3,9.6-7.9,14.4
				c-1.3,2.3-2.5,4.6-3.7,6.9c-0.8,1.5-1.5,3-2.4,4.4c-1.3,2.1-3,4-4.2,6.1c-0.3,0.4-0.1,0.9,0.3,1.2c1.1,0.8,2.3,1.7,3.4,2.5
				c0.9,0.7,1.7-0.8,0.9-1.5c-1.1-0.8-2.3-1.7-3.4-2.5c0.1,0.4,0.2,0.8,0.3,1.2c1.1-1.8,2.4-3.3,3.5-5c0.8-1.2,1.5-2.4,2.1-3.6
				c1.2-2.2,2.4-4.5,3.6-6.7c2.5-4.6,5-9.2,7.5-13.8c0.9-1.7,1.9-3.4,2.8-5.1c0.6-1.1,1.4-2.8,2.8-2.9c0.9-0.1,1.7,0.6,2.4,1
				c0.9,0.6,1.9,1.3,2.6,2.1c1.6,1.8,0.1,4.2-1.1,5.8c-1.3,1.7-2.6,3.5-4.1,5.1c-1.7,1.8-3.2,3.6-4.7,5.5
				c-5.2,6.4-9.7,13.3-15.4,19.2C25.3,57,26.3,58,27,57.3z"/>
		</g>
	</g>
	<g>
		<g>
			<path class="st0" d="M23.3,53.7c-1.2,0.1-2,1.1-2.9,1.7s-1.9,1.1-2.6,2c-0.3,0.3-0.1,0.9,0.3,1.1c1.3,0.7,2.2,1.9,3.5,2.7
				c1.4,0.8,2.6,2,3.9,2.8c0.5,0.3,1.1,0,1.3-0.5c0.5-1.3,0.6-2.6,0.9-3.9c0.2-1.2,0.4-2.3,0.6-3.5c0.1-0.4-0.1-0.9-0.6-1
				c-0.4-0.1-1,0.1-1,0.6c-0.2,1.2-0.4,2.3-0.6,3.5c-0.3,1.3-0.4,2.7-0.9,3.9c0.4-0.2,0.8-0.3,1.3-0.5c-1.4-0.9-2.5-2-3.9-2.8
				c-1.3-0.8-2.2-1.9-3.5-2.6c0.1,0.4,0.2,0.8,0.3,1.1c0.5-0.7,1.4-1,2.1-1.5c0.8-0.6,1.4-1.3,2.4-1.7C24.3,54.7,24,53.6,23.3,53.7
				L23.3,53.7z"/>
		</g>
	</g>
	<g>
		<g>
			<path class="st0" d="M29.6,43.4L29.6,43.4c0-0.1,0.1-0.2,0.1-0.3c-0.1,0.2-0.1,0.5,0,0.7s0.2,0.3,0.3,0.5
				c0.2,0.3,0.4,0.5,0.7,0.8c0.2,0.3,0.5,0.5,0.8,0.7c0.7,0.5,1.4,0.9,2.1,1.4l0.1,0.1c0,0,0,0,0.1,0c0.1,0.1-0.1-0.1-0.1-0.1
				c0.1,0.1,0.1,0.1,0.2,0.2l0.1,0.1c0.1,0.1,0.3,0.2,0.1,0.1s0.1,0.1,0.1,0.1c0.1,0,0.4,0.2,0,0c0.4,0.2,0.8,0.1,1-0.3
				c0.4-0.6-0.1-1.1-0.6-1.4c-0.3-0.2-0.6-0.4-1-0.6s-0.8-0.5-1.1-0.7c-0.2-0.1-0.3-0.2-0.5-0.3c-0.1,0-0.1-0.1-0.2-0.1
				c0,0-0.1,0-0.1-0.1c-0.1-0.1,0.2,0.1,0.1,0c-0.2-0.2-0.4-0.3-0.5-0.5c0-0.1-0.1-0.2-0.2-0.2c0,0,0-0.1-0.1-0.1
				c-0.1-0.1,0.1,0.1,0,0c-0.1-0.2-0.3-0.4-0.5-0.5c0.1,0.1,0.2,0.2,0.2,0.2l0,0c-0.2-0.2-0.4-0.4-0.7-0.3
				C29.8,42.8,29.6,43.1,29.6,43.4L29.6,43.4z"/>
		</g>
	</g>
	<g>
		<g>
			<path class="st0" d="M51.8,41.3c-4.6-0.7-8.7,2.2-10.6,6.1c-1,2-1.1,4.6-0.7,6.8c0.4,2.1,2,4,3.5,5.6c1.5,1.7,3.8,2.4,6,2.5
				c2.4,0,5,0,7.1-1.1c4.5-2.1,6.1-7.2,5-11.8c-0.3-1.1-0.9-2.1-1.4-3.1c-0.5-0.9-1-1.8-1.8-2.5c-1.9-1.6-4.8-2.7-7.3-2.7
				c-1.1,0-1.1,1.7,0,1.7c2,0,4,0.9,5.7,2c1.4,0.8,1.9,2.2,2.6,3.6c1,1.8,1,4,0.7,5.9c-0.3,2-1.5,3.7-3.1,4.8
				c-1.7,1.2-3.7,1.4-5.8,1.5c-1.9,0.1-4,0-5.6-1.1c-0.7-0.5-1.2-1.2-1.8-1.9c-0.6-0.7-1.2-1.5-1.7-2.4c-0.5-0.9-0.5-1.8-0.5-2.8
				s0-2,0.2-2.9c0.5-2,2.1-4,3.7-5.2s3.8-1.5,5.7-1.6C52.3,42.6,52.6,41.4,51.8,41.3z"/>
		</g>
	</g>
	<g>
		<g>
			<path class="st0" d="M44.3,44.7c0,0.6,0.4,0.8,0.7,1.3c0.3,0.5,0.5,1.1,0.8,1.6c0.3,0.7,0.6,1.4,0.8,2.1c0.2,0.8,0.2,1.6,0.2,2.4
				c0,1.5,0,2.9-0.6,4.3c-0.3,0.8-1,1.9-1.7,2.5s0.2,1.9,1,1.4c0.9-0.6,1.6-1.8,2-2.7c0.7-1.5,0.9-3.1,0.9-4.8
				c0-1.7-0.1-3.3-0.7-4.9c-0.5-1.2-1.1-3-2.3-3.5c0.1,0.1,0.2,0.3,0.3,0.4c0-0.1,0-0.1,0-0.2C45.6,43.7,44.4,44,44.3,44.7
				L44.3,44.7z"/>
		</g>
	</g>
	<g>
		<g>
			<path class="st0" d="M57.5,43.8c-2.4,1.6-3.7,5.1-4.2,7.9c-0.3,1.6-0.2,3.3,0.5,4.8c0.6,1.4,1.8,2.4,3.1,3.2
				c1,0.6,1.8-0.9,0.9-1.5c-1-0.6-1.9-1.4-2.4-2.4c-0.6-1.3-0.6-2.8-0.3-4.2c0.5-2.4,1.5-4.8,3.3-6.6C58.9,44.4,58.2,43.3,57.5,43.8
				L57.5,43.8z"/>
		</g>
	</g>
</g>
</svg>
