<?xml version="1.0" encoding="utf-8"?>
<!-- Generator: Adobe Illustrator 24.3.0, SVG Export Plug-In . SVG Version: 6.00 Build 0)  -->
<svg version="1.1" id="Calque_1" xmlns="http://www.w3.org/2000/svg" xmlns:xlink="http://www.w3.org/1999/xlink" x="0px" y="0px"
	 viewBox="0 0 80 80" style="enable-background:new 0 0 80 80;" xml:space="preserve">
<style type="text/css">
	.st0{fill:#91D902;}
</style>
<g>
	<g>
		<g>
			<path class="st0" d="M33.7,37.5c0.3-0.8,0.2-1.7,0.2-2.5c0-0.9-0.1-1.8,0-2.7c0-0.4,0-0.9,0-1.3v-0.3c0,0.1,0,0,0.1,0
				c0.3-0.2,0.9-0.2,1.3-0.2c0.5-0.1,1-0.1,1.6-0.2c1.9-0.1,3.8-0.2,5.7-0.3c0.9,0,1.8-0.1,2.7,0c0.8,0,1.6,0,2.4,0.2
				c-0.2-0.2-0.4-0.5-0.6-0.7c0,1.4-0.1,2.9-0.1,4.3c0,0.7,0,1.4-0.1,2.1c-0.1,0.7-0.2,1.3,0,2c0.3,1,1.9,0.6,1.6-0.4
				c-0.2-0.6,0-1.2,0.1-1.7c0.1-0.7,0.1-1.4,0.1-2.2c0-1.4,0-2.7,0-4.1c0-0.3-0.2-0.6-0.6-0.7c-0.9-0.2-1.8-0.2-2.7-0.2
				c-1,0-2.1,0-3.1,0c-2.2,0.1-4.5,0.1-6.7,0.4c-0.8,0.1-1.8,0.1-2.5,0.5c-0.5,0.3-0.7,0.9-0.7,1.5c0,1.1,0,2.2,0,3.3
				c0,1,0,2.1,0.1,3.1C32.5,38.1,33.4,38.2,33.7,37.5L33.7,37.5z"/>
		</g>
	</g>
	<g>
		<g>
			<path class="st0" d="M27.8,38.8c4.3-0.1,8.6-0.3,12.9-0.2c2.2,0,4.4,0.1,6.6,0.1c1.1,0,2.1-0.1,3.2-0.2c1-0.1,1.9,0.1,2.9,0.1
				s1-1.5,0-1.5s-1.9-0.2-2.9-0.1c-1.1,0.1-2.1,0.2-3.2,0.2c-2.3,0.1-4.6,0-6.8-0.1c-2.3-0.1-4.6,0.1-6.9,0.1
				c-1.9,0.1-4-0.3-5.9,0.2C26.9,37.7,27,38.8,27.8,38.8L27.8,38.8z"/>
		</g>
	</g>
	<g>
		<g>
			<path class="st0" d="M29.7,38.8c0.5,1.8,0.8,3.7,1.4,5.5c0.6,1.8,1.1,3.7,1.5,5.5c0.4,1.9,1.1,3.6,1.6,5.5c0.5,2,0.9,4,1.2,6
				c0.2,1,1.7,0.6,1.5-0.4c-0.3-2-0.8-4-1.2-6c-0.5-1.9-1.2-3.7-1.6-5.7c-0.4-1.9-1-3.8-1.6-5.7c-0.5-1.7-0.7-3.6-1.5-5.2
				C30.7,37.5,29.5,38,29.7,38.8L29.7,38.8z"/>
		</g>
	</g>
	<g>
		<g>
			<path class="st0" d="M34.5,40c-0.2,0.6-0.1,1.2,0,1.8c0.2,0.7,0.3,1.4,0.3,2.1c0.1,1.3,0.4,2.6,0.6,4c0.3,1.4,0.5,2.8,0.7,4.2
				c0.2,1.3,0.7,2.7,0.6,4c-0.1,1,1.5,1,1.6,0c0.1-1.3-0.4-2.7-0.6-4c-0.2-1.3-0.4-2.7-0.7-4c-0.5-2.7-0.8-5.4-1.4-8.1
				C35.6,39.4,34.7,39.5,34.5,40L34.5,40z"/>
		</g>
	</g>
	<g>
		<g>
			<path class="st0" d="M39.4,40.2c-0.3,1.4-0.2,2.8-0.2,4.2c0,1.5,0,3,0,4.5c0,1.3,0.2,2.7,0.1,4.1c0,1.1-0.3,2.2-0.1,3.3
				c0.2,0.9,1.4,0.6,1.5-0.2c0.2-2.4,0.1-4.9,0-7.3c0-1.4-0.1-2.9-0.1-4.3s0.1-2.8-0.2-4.2C40.5,39.7,39.6,39.7,39.4,40.2L39.4,40.2
				z"/>
		</g>
	</g>
	<g>
		<g>
			<path class="st0" d="M45,40.2c-0.5,1.2-0.7,2.6-0.9,3.9c-0.2,1.5-0.5,3-0.7,4.4s-0.5,2.8-0.6,4.2c-0.1,1.1,0.1,2.3-0.5,3.3
				c-0.5,0.9,0.8,1.6,1.3,0.8c0.7-0.9,0.7-2.2,0.7-3.3c0.1-1.4,0.3-2.8,0.5-4.3s0.5-3,0.7-4.5c0.2-1.4,0.6-2.9,0.6-4.3
				C46.3,39.9,45.3,39.5,45,40.2L45,40.2z"/>
		</g>
	</g>
	<g>
		<g>
			<path class="st0" d="M50,38.3c-0.1,0.9-0.7,1.8-1,2.7s-0.7,1.8-0.9,2.7c-0.6,2-1.2,4-1.7,6.1c-0.5,2-1,4.1-1.4,6.2
				c-0.2,0.8-0.3,1.6-0.5,2.4c-0.1,0.5,0,1.3-0.3,1.7c-0.5,0.8,0.6,1.5,1.2,0.9c0.4-0.4,0.5-1,0.5-1.5c0.1-0.8,0.3-1.6,0.4-2.4
				c0.4-2.3,0.9-4.5,1.5-6.7c0.5-2.2,1.1-4.3,1.8-6.5c0.3-1,0.7-2.1,1.1-3.1c0.3-0.8,0.8-1.6,0.7-2.5C51.4,37.4,50.1,37.5,50,38.3
				L50,38.3z"/>
		</g>
	</g>
	<g>
		<g>
			<path class="st0" d="M32,44.6c2.8,0.2,5.6,0.2,8.4,0.2c1.4,0,2.8,0,4.2,0c0.6,0,1.2-0.1,1.8-0.1c0.6,0,1.4-0.2,1.9-0.1
				c-0.1-0.5-0.1-1-0.2-1.4c-0.1,0.1-0.2,0.1-0.3,0.2c-0.7,0.6,0.2,1.7,1,1.2c0,0,0.1,0,0.1-0.1c0.7-0.3,0.4-1.2-0.2-1.4
				c-0.5-0.2-1.3-0.1-1.7,0c-0.7,0-1.4,0.1-2.1,0.2c-1.4,0-2.8,0-4.2,0c-2.9,0-5.8-0.3-8.7-0.1C31.1,43.2,31.1,44.6,32,44.6L32,44.6
				z"/>
		</g>
	</g>
	<g>
		<g>
			<path class="st0" d="M33.3,48.7c2.3,0.1,4.6,0.1,6.9,0c1.1,0,2.3-0.1,3.4-0.1c1,0,2.1-0.2,3.1,0c1,0.1,1.4-1.4,0.4-1.5s-2,0-3,0
				c-1.2,0-2.5,0-3.7,0.1c-1.2,0-2.4,0.1-3.6,0.1c-1.2,0-2.4-0.2-3.5,0C32.4,47.4,32.4,48.7,33.3,48.7L33.3,48.7z"/>
		</g>
	</g>
	<g>
		<g>
			<path class="st0" d="M34.9,54c0.9,0.1,1.8,0.3,2.8,0.3s1.9,0,2.9,0c1-0.1,2-0.1,3-0.3c0.8-0.1,1.7-0.4,2.5-0.3
				c1,0.2,1.4-1.3,0.4-1.5s-1.9,0-2.8,0.2c-1,0.2-2.1,0.3-3.1,0.3c-1,0.1-2.1,0.1-3.1,0c-1,0-1.9-0.4-2.9,0
				C33.9,53.1,34.4,54,34.9,54L34.9,54z"/>
		</g>
	</g>
	<g>
		<g>
			<path class="st0" d="M33.5,48.8c-2.4-0.3-5-0.1-7.4,0c-1.3,0.1-3,0.4-4.2-0.2c-1.8-1-2.2-3.5-2.2-5.3c-0.1-2-0.1-4.1-0.2-6.1
				c-0.1-2.2,0.3-4.3,0.3-6.5c0.1-3.4-1.7-8.3,2.5-10c2.1-0.8,4.1-0.8,6.3-0.4c2.2,0.3,4.4,0.1,6.7,0s4.7,0,7-0.1
				c2.4-0.1,4.8-0.1,7.2,0c2.4,0.1,4.8-0.2,7.2,0.2c1,0.2,1.9,0.4,2.6,1.3c0.5,0.7,0.8,1.6,1,2.4c0.2,1.2,0,2.5-0.1,3.7
				c-0.1,1.1-0.1,2.2-0.2,3.3c-0.1,2.3-0.1,4.5-0.1,6.7c0.2,4,0.9,10.1-4.1,11.4c-2.9,0.7-5.9-0.3-8.8-0.3c-1.1,0-1.1,1.7,0,1.7
				c3,0,6,0.9,9,0.3c1.6-0.3,3-1.1,4-2.4c1.3-1.7,1.5-3.9,1.6-5.9c0.1-2.6-0.1-5.3-0.1-7.9c0-2.6,0.1-5.2,0.4-7.7
				c0.2-2,0.1-4.2-1.1-6s-3-2.2-5-2.4c-2.7-0.2-5.5-0.1-8.2-0.2c-2.7-0.1-5.4,0.1-8.1,0.2c-1.3,0-2.6-0.1-4-0.1s-2.8,0.2-4.2,0.2
				c-2.5,0-4.9-0.9-7.4-0.3c-1.7,0.4-3.6,1-4.7,2.5c-1.2,1.6-1.3,3.7-1.2,5.6c0.1,2.2,0.3,4.3,0.1,6.6c-0.2,2.6,0,5.1,0,7.6
				c0,2.2-0.1,4.6,0.8,6.7c0.9,2.1,2.7,3.3,4.9,3.2c3.1-0.1,6.4-0.7,9.5-0.3C34.2,50.4,34.4,48.9,33.5,48.8L33.5,48.8z"/>
		</g>
	</g>
</g>
</svg>
