<?xml version="1.0" encoding="utf-8"?>
<!-- Generator: Adobe Illustrator 24.3.0, SVG Export Plug-In . SVG Version: 6.00 Build 0)  -->
<svg version="1.1" id="Calque_1" xmlns="http://www.w3.org/2000/svg" xmlns:xlink="http://www.w3.org/1999/xlink" x="0px" y="0px"
	 viewBox="0 0 80 80" style="enable-background:new 0 0 80 80;" xml:space="preserve">
<style type="text/css">
	.st0{fill:#91D902;}
</style>
<g>
	<g>
		<g>
			<path class="st0" d="M22.5,54.5c0.5-5.9-0.3-11.7,0-17.6c0.1-2.3,0.3-4.5,0.2-6.8c0-0.8-0.1-1.6,0-2.4c0.1-1.1,0.2-1,1.4-0.8
				c2.1,0.2,4.3,0.3,6.5,0.1c1-0.1,2.9-0.7,2.9,0.6c0,1.1-0.2,2.3-0.2,3.5c0.1,5.3,0.6,10.6,0.3,15.9c-0.1,1.6-0.3,3.1-0.4,4.7
				c0,1-0.3,2.8,0.7,3.4c0.9,0.6,1.8-0.9,0.9-1.5c0.6,0.3,0.1,0.3,0.2,0.1v-0.3c0-0.3,0-0.6,0-1c0-0.9,0.1-1.8,0.2-2.7
				c0.1-1.5,0.2-3,0.2-4.6c0-3.1,0.1-6.2-0.1-9.3c-0.1-1.6-0.2-3.2-0.3-4.8c0-1.3,0.2-2.6,0.2-3.9c0-2.4-2.6-2.1-4.2-1.9
				c-2.4,0.3-4.8,0.1-7.2-0.1c-1.7-0.1-2.5,0.5-2.7,2.3s0,3.7,0,5.5c-0.1,3.6-0.5,7.1-0.2,10.7c0.3,3.6,0,7.2,0.2,10.8
				C21.2,55.4,22.5,55.4,22.5,54.5L22.5,54.5z"/>
		</g>
	</g>
	<g>
		<g>
			<path class="st0" d="M27.7,26.4c-0.2,1.7-0.2,3.5-0.2,5.2c0,2.6-0.1,5.1-0.1,7.7c0,5,0.3,9.9,0.2,14.9c0,1.1,1.7,1.1,1.7,0
				c0.1-5-0.3-9.9-0.3-14.9c0-2.5,0-5,0-7.6c0-1.8,0.1-3.6-0.1-5.3C28.9,25.5,27.8,25.5,27.7,26.4L27.7,26.4z"/>
		</g>
	</g>
	<g>
		<g>
			<path class="st0" d="M22.4,32.8c0.3,0.3,0.7,0.3,1,0.4c0.3,0,0.6,0,0.9,0c0.5,0,1,0,1.6,0c0.4,0,0.9-0.1,1.3-0.1
				c0.2,0,0.4,0,0.6,0c0.1,0-0.2,0,0,0h0.1c0.2,0,0.4,0,0.7-0.1c0.3-0.2,0.4-0.5,0.3-0.8c-0.2-0.6-0.9-0.7-1.5-0.7
				c-0.5,0-0.9,0.1-1.4,0.1s-1,0-1.5,0c-0.3,0-0.6,0-1,0s-0.7-0.1-1.1,0.2C22.1,32.1,22.1,32.5,22.4,32.8L22.4,32.8z"/>
		</g>
	</g>
	<g>
		<g>
			<path class="st0" d="M22.4,48.2L22.4,48.2c0,0-0.1,0-0.3,0c0.4,0.1,0.9,0,1.3,0c0.4,0,0.9,0,1.3,0c0.5,0,0.9,0,1.4,0.1
				c0.4,0,0.9,0.1,1.3,0c0.4,0,0.8-0.3,0.8-0.8c0-0.4-0.4-0.7-0.8-0.8c-0.4,0-0.9,0-1.3-0.1c-0.5,0-0.9,0-1.4,0
				c-0.4,0-0.9,0-1.3,0.1c-0.3,0-0.5,0.1-0.8,0.1c-0.1,0-0.2,0.1-0.3,0.1S22.2,47,22.1,47c0,0-0.2,0.1-0.1,0.1
				c-0.3,0.1-0.4,0.5-0.2,0.8C21.8,48.2,22.1,48.3,22.4,48.2L22.4,48.2z"/>
		</g>
	</g>
	<g>
		<g>
			<path class="st0" d="M21.8,55.1c0.2,0,0.1,0,0.3,0s0.4,0.1,0.7,0.1c0.5,0,0.9,0,1.4,0c1.3,0,2.6,0,3.8,0c2.1,0,4.2,0.1,6.3,0
				c1-0.1,1-1.5,0-1.5c-2.1-0.1-4.2,0-6.3,0c-1.3,0-2.6,0-3.8,0c-0.5,0-0.9,0-1.4,0c-0.2,0-0.4,0-0.6,0.1c-0.2,0-0.1,0-0.3,0
				C21.1,53.9,21.1,55.1,21.8,55.1L21.8,55.1z"/>
		</g>
	</g>
	<g>
		<g>
			<path class="st0" d="M29.3,46.4c0.8,0,1.6,0.1,2.4,0.1c0.8,0,1.6,0,2.3,0c0.4,0,0.8-0.3,0.8-0.8c0-0.4-0.3-0.8-0.8-0.8
				c-0.8,0-1.6,0-2.3,0c-0.8,0-1.6,0-2.4,0.1c-0.4,0-0.7,0.3-0.7,0.7S28.9,46.3,29.3,46.4L29.3,46.4z"/>
		</g>
	</g>
	<g>
		<g>
			<path class="st0" d="M28.9,51.4c0.8,0.2,1.7,0.1,2.6,0.1c0.8,0,1.7,0,2.5-0.1c0.4,0,0.8-0.3,0.8-0.8c0-0.4-0.3-0.8-0.8-0.8
				c-0.8,0-1.7,0-2.5,0s-1.8,0-2.6,0.2C28.2,50.3,28.2,51.2,28.9,51.4L28.9,51.4z"/>
		</g>
	</g>
	<g>
		<g>
			<path class="st0" d="M52.8,53.8c0-2.2,0.2-4.3,0.1-6.5c-0.1-2.4-0.1-4.8-0.2-7.2c-0.1-2.5-0.2-5,0.2-7.6c0.3-2.2,0.1-4.5,0.1-6.7
				c-0.2,0.3-0.4,0.5-0.6,0.8c0.9-0.2,1.7-0.2,2.7-0.2c0.8,0,2.1-0.3,2.2,0.7c0.1,0.6-0.1,1.5-0.1,2.1c0,0.9-0.1,1.8,0,2.6
				c0,2.1,0.2,4.2,0.2,6.3c0.1,5.3,0.1,10.5,0.1,15.8c0,1.1,1.7,1.1,1.7,0c0-5.9,0-11.9-0.2-17.8c-0.1-2.8-0.4-5.6-0.1-8.5
				c0.1-1.3,0-2.4-1.5-2.8c-0.8-0.2-1.6-0.1-2.4-0.1c-1,0-1.9,0-2.9,0.2c-0.3,0.1-0.6,0.4-0.6,0.8c-0.1,2.3,0.1,4.6-0.2,7
				c-0.3,2.5-0.2,5-0.1,7.5c0.1,2.4,0.1,4.8,0.2,7.2c0.1,2.1-0.2,4.3,0.1,6.4C51.6,54.7,52.8,54.5,52.8,53.8L52.8,53.8z"/>
		</g>
	</g>
	<g>
		<g>
			<path class="st0" d="M52.1,45c0.9,0.6,1.9,0.2,2.9,0.3c0.5,0,0.9,0.1,1.4,0.1s1,0.1,1.5,0c0.7-0.2,0.8-1.4,0-1.5
				c-0.5-0.1-0.9,0-1.4,0s-0.9,0-1.4-0.1c-0.4,0-0.8,0-1.3,0c-0.5,0.1-0.8,0.1-1.2-0.1c-0.3-0.1-0.7,0.1-0.8,0.4
				C51.7,44.5,51.8,44.8,52.1,45L52.1,45z"/>
		</g>
	</g>
	<g>
		<g>
			<path class="st0" d="M51.8,54.3c0.9,0.6,1.9,0.2,2.9,0.3c0.5,0,0.9,0.1,1.4,0.1s1,0.1,1.5,0c0.7-0.2,0.8-1.4,0-1.5
				c-0.5-0.1-0.9,0-1.4,0s-0.9,0-1.4-0.1c-0.4,0-0.8,0-1.3,0c-0.5,0.1-0.8,0.1-1.2-0.1c-0.3-0.1-0.7,0.1-0.8,0.4
				C51.4,53.8,51.5,54.1,51.8,54.3L51.8,54.3z"/>
		</g>
	</g>
	<g>
		<g>
			<path class="st0" d="M52.6,40.5c1,0.4,2.2,0.2,3.2,0.2c0.4,0,0.8,0,1.2,0c0.1,0,0.2,0,0.3,0h0.1c0.1,0-0.2,0,0,0l0.2,0.1h-0.1
				c0.1,0,0.1,0.1,0.2,0.1s0.2,0,0.3,0c0.6,0.1,0.9-0.7,0.6-1.1c-0.3-0.5-0.9-0.5-1.4-0.6c-0.4,0-0.9,0-1.3,0s-0.8,0.1-1.3,0.1
				c-0.6,0-1.3,0-1.9,0c-0.3,0-0.6,0.3-0.7,0.6C52,40.1,52.2,40.3,52.6,40.5L52.6,40.5z"/>
		</g>
	</g>
	<g>
		<g>
			<path class="st0" d="M52.1,35.7c0.4,0.4,1.1,0.4,1.6,0.4c0.5,0.1,0.9,0.1,1.4,0.1s0.9,0,1.4-0.1c0.2,0,0.5-0.1,0.7-0.1
				c0.3,0,0.6,0,0.9-0.1s0.5-0.3,0.5-0.6s-0.1-0.6-0.4-0.7c-0.5-0.3-1.2-0.1-1.8,0c-0.4,0.1-0.9,0.1-1.3,0.1c-0.5,0-1-0.1-1.4-0.1
				c-0.5,0-1.2-0.1-1.6,0.3C51.8,35.1,51.8,35.5,52.1,35.7L52.1,35.7z"/>
		</g>
	</g>
	<g>
		<g>
			<path class="st0" d="M52.5,31.5c0.5,0.1,1,0.1,1.5,0.1s0.9,0,1.4,0s0.9,0,1.4,0s1.1,0.1,1.6-0.2c0.4-0.2,0.5-1,0-1.2
				c-0.3-0.1-0.5-0.1-0.9-0.1c-0.2,0-0.5,0-0.7,0c-0.5,0-0.9,0-1.4,0s-0.9,0-1.4,0s-1,0-1.5,0.1C51.9,30.4,51.8,31.3,52.5,31.5
				L52.5,31.5z"/>
		</g>
	</g>
	<g>
		<g>
			<path class="st0" d="M35.4,28.4c0.9-0.7,2.3-1.2,3.3-1.5c0.9-0.3,1,0.1,1.3,0.9c0.2,0.5,0.4,1,0.7,1.5c1.5,2.7,2.7,5.4,3.9,8.3
				c1,2.5,2.1,4.9,3.3,7.2c1.3,2.5,2.2,5.1,3.1,7.9c0.3,1,1.7,0.6,1.5-0.4c-0.5-3-2-6-3.4-8.7c-1.6-3.1-2.8-6.3-4.2-9.5
				c-0.7-1.6-1.4-3.2-2.3-4.7c-0.4-0.7-0.9-1.3-1.2-2.1c-0.2-0.5-0.3-1-0.6-1.4C40.1,25,39,25.3,38,25.7c-1.2,0.5-2.7,1-3.6,1.9
				C33.8,28,34.7,28.9,35.4,28.4L35.4,28.4z"/>
		</g>
	</g>
	<g>
		<g>
			<path class="st0" d="M34.1,29.2c0.5,1.9,1.4,3.7,2.1,5.5c0.7,1.6,1.3,3.2,1.9,4.8c1.6,4,3.1,7.9,4.8,11.8
				c0.5,1.1,0.9,2.5,1.7,3.4c0.7,0.8,1.9-0.4,1.2-1.2c0.1,0.1-0.1-0.2-0.2-0.4c-0.2-0.3-0.3-0.6-0.4-0.9c-0.4-0.9-0.8-1.8-1.2-2.8
				c-1-2.5-2.1-5-3.1-7.5c-1.8-4.5-3.7-8.9-5.6-13.4C35.1,28,34,28.5,34.1,29.2L34.1,29.2z"/>
		</g>
	</g>
	<g>
		<g>
			<path class="st0" d="M45.5,54.9c1-0.3,2-0.6,3-0.9c0.5-0.2,1-0.3,1.5-0.5c0.6-0.2,1.2-0.3,1.8-0.3c0.4-0.1,0.8-0.3,0.8-0.8
				c0-0.4-0.4-0.8-0.8-0.8c-1.3,0.1-2.4,0.5-3.6,0.9c-0.5,0.2-1.1,0.3-1.6,0.5s-1.1,0.3-1.5,0.6c-0.3,0.2-0.4,0.5-0.3,0.8
				C44.8,54.8,45.1,55,45.5,54.9L45.5,54.9z"/>
		</g>
	</g>
</g>
</svg>
