<?xml version="1.0" encoding="utf-8"?>
<!-- Generator: Adobe Illustrator 24.3.0, SVG Export Plug-In . SVG Version: 6.00 Build 0)  -->
<svg version="1.1" id="Calque_1" xmlns="http://www.w3.org/2000/svg" xmlns:xlink="http://www.w3.org/1999/xlink" x="0px" y="0px"
	 viewBox="0 0 80 80" style="enable-background:new 0 0 80 80;" xml:space="preserve">
<style type="text/css">
	.st0{fill:#91D902;}
</style>
<g>
	<g>
		<g>
			<path class="st0" d="M15.1,21.3c1.1,0,2.1-0.2,3.2-0.1c1,0.1,2,0.2,3.1,0.3c2.2,0.1,4.5,0.1,6.7,0.1c4.4,0,8.8-0.2,13.2-0.4
				c4.4-0.1,8.8,0.6,13.2,0.7c2.2,0.1,4.4,0,6.6-0.2c0.8-0.1,2.6-0.5,3.3-0.1c0.8,0.5,1.5-0.7,0.7-1.3s-2.4-0.3-3.3-0.2
				c-2,0.2-3.9,0.3-5.9,0.3c-4.6,0-9.1-0.9-13.7-0.8C37.6,19.7,33,20,28.4,20c-2.2,0-4.5,0-6.7-0.1c-1,0-2.1-0.1-3.1-0.2
				c-1.2-0.1-2.4,0.1-3.6,0.1C14.3,20,14.3,21.3,15.1,21.3L15.1,21.3z"/>
		</g>
	</g>
	<g>
		<g>
			<path class="st0" d="M15,50.5c4.2,0.3,8.3-0.1,12.5-0.1c4.1,0,8.2,0.6,12.4,0.6c8.4,0.1,16.9,0,25.3,0c1,0,1-1.5,0-1.5
				c-0.1,0-0.2,0-0.2,0c-1,0-1,1.5,0,1.5c0.1,0,0.2,0,0.2,0c0-0.5,0-1,0-1.5c-8.4,0-16.9,0.2-25.3,0c-4.1-0.1-8.2-0.7-12.4-0.6
				c-2,0-4.1,0.2-6.1,0.2c-2.1,0-4.2-0.1-6.4,0.1C14.1,49.2,14.1,50.4,15,50.5L15,50.5z"/>
		</g>
	</g>
	<g>
		<g>
			<path class="st0" d="M19.5,49.2c0.1-2.3,0.4-4.6,0.5-6.9c0.2-2.5,0.2-5,0.3-7.5c0.1-2.4,0.1-4.8,0.1-7.2c0-1.1,0-2.3,0-3.4
				c0-0.5,0-1-0.1-1.5c0-0.2-0.1-1.3-0.1-1.4c-0.4-0.3-0.8-0.6-1.2-0.9l-0.1,0.1c-0.5,0.7,0.6,1.5,1.2,0.9c0.1-0.1,0.1-0.2,0.2-0.3
				c0.5-0.7-0.6-1.5-1.2-0.9c-0.5,0.5-0.4,1.5-0.4,2.1c0,1.2,0.1,2.4,0.1,3.5c0,2.6,0,5.2,0,7.8s-0.1,5.2-0.2,7.8
				c-0.1,2.6-0.5,5.2-0.4,7.8C18.2,50.1,19.5,50.1,19.5,49.2L19.5,49.2z"/>
		</g>
	</g>
	<g>
		<g>
			<path class="st0" d="M61.6,49.6c-0.3-0.9-0.1-1.9,0-2.8c0.2-1,0.3-1.9,0.3-2.9c0-2.5-0.3-5-0.2-7.6c0.1-2.5,0.3-5,0.4-7.5
				c0-1.2,0.1-2.4,0.1-3.6c0-1.2-0.2-2.4-0.2-3.6c0-0.4-0.4-0.8-0.8-0.8s-0.6,0.2-0.8,0.5c-0.5,0.9,0.8,1.6,1.4,0.8
				c0,0,0-0.1,0.1-0.1c-0.2,0.1-0.5,0.3-0.7,0.4l0,0c-0.3-0.3-0.5-0.5-0.8-0.8c-0.1,1.2,0.2,2.4,0.2,3.6c0,1.3-0.1,2.6-0.1,3.9
				c-0.1,2.7-0.3,5.3-0.4,8c-0.1,2.5,0.3,5,0.3,7.5c-0.1,1.8-0.9,3.9,0,5.6C60.7,50.8,61.8,50.4,61.6,49.6L61.6,49.6z"/>
		</g>
	</g>
	<g>
		<g>
			<g>
				<path class="st0" d="M24.4,37.6c0.8-0.2,1.7-0.8,2.4-1.1c0.9-0.4,1.6-0.9,2.3-1.5c1.7-1.4,3.1-3.2,4.2-5.2
					c0.8-1.6,1.3-3.3,1.8-5c0.3-1,1-2.6,0.5-3.6c-0.4-0.8-1.8-0.2-1.4,0.6c0,0.1,0-0.2,0,0c0,0.1,0,0.1,0,0.2c0,0.3-0.1,0.6-0.2,0.8
					c-0.2,0.6-0.3,1.3-0.5,1.9c-0.5,1.6-1,3.2-1.8,4.7c-1,1.7-2.3,3.3-3.8,4.6c-0.7,0.6-1.4,1-2.2,1.4c-0.7,0.3-1.5,0.6-2,1.3
					C23.4,37.1,23.9,37.7,24.4,37.6L24.4,37.6z"/>
			</g>
		</g>
		<g>
			<g>
				<path class="st0" d="M23.7,37.2c0.2,0.4,0.5,0.7,0.8,1.1c0.3,0.4,0.6,0.9,0.8,1.3c0.6,1,1,2,1.3,3.1c0.7,2.3,0.9,4.7,0.9,7.1
					c0,1.1,1.6,1.1,1.6,0c0-2.5-0.3-5.3-1.1-7.7c-0.4-1.1-0.9-2.2-1.5-3.3c-0.5-0.8-1.2-2.1-2.2-2.4C24.1,36.3,23.6,36.7,23.7,37.2
					L23.7,37.2z"/>
			</g>
		</g>
		<g>
			<g>
				<path class="st0" d="M16.3,37.6c0,0.9,1.2,1,2,1.1s1.6,0,2.4-0.1c0.9-0.1,1.8-0.1,2.7-0.1c0.5,0,1,0,1.5,0s1.1,0.1,1.6-0.1
					c0.7-0.3,0.7-1.2,0-1.5c-0.4-0.2-1-0.1-1.5-0.1s-1,0-1.5,0c-0.9,0-1.8,0-2.7,0.1c-0.8,0-1.6,0.1-2.3,0.1c-0.3,0-0.6-0.1-0.8-0.1
					C16.9,36.8,16.2,36.9,16.3,37.6L16.3,37.6z"/>
			</g>
		</g>
	</g>
	<g>
		<g>
			<g>
				<path class="st0" d="M56.7,36.6c-0.4-0.6-1.2-0.9-1.9-1.2C54,35,53.2,34.6,52.5,34c-1.5-1.3-2.8-2.8-3.8-4.6
					c-0.8-1.5-1.3-3.1-1.8-4.7c-0.2-0.6-0.3-1.2-0.5-1.8c-0.1-0.3-0.2-0.6-0.2-0.9c0-0.1,0-0.2,0-0.2c0-0.2,0,0.1,0,0
					c0.3-0.8-1.1-1.4-1.4-0.6c-0.5,1,0.2,2.6,0.5,3.6c0.5,1.7,1,3.4,1.9,5c1,1.9,2.4,3.7,4.1,5.1c0.8,0.6,1.6,1.2,2.4,1.6
					c0.7,0.4,1.6,1,2.4,1.1C56.4,37.7,57,37.1,56.7,36.6L56.7,36.6z"/>
			</g>
		</g>
		<g>
			<g>
				<path class="st0" d="M55.8,36.4c-0.9,0.3-1.6,1.6-2.1,2.3c-0.6,1.1-1.1,2.2-1.5,3.3c-0.8,2.4-1.1,5.1-1.1,7.7
					c0,1.1,1.6,1.1,1.6,0c0-2.4,0.2-4.8,0.9-7.1c0.3-1,0.8-2,1.3-3c0.3-0.5,0.5-0.9,0.8-1.3c0.3-0.4,0.7-0.7,0.8-1.2
					C56.8,36.7,56.3,36.3,55.8,36.4L55.8,36.4z"/>
			</g>
		</g>
		<g>
			<g>
				<path class="st0" d="M63.7,36.9c-0.3-0.2-0.7-0.1-1.1,0C62.3,37,62,37,61.7,37c-0.8,0-1.5-0.1-2.3-0.1c-0.9,0-1.7,0-2.6-0.1
					c-0.5,0-0.9,0-1.4,0s-1-0.1-1.5,0.1c-0.7,0.3-0.7,1.2,0,1.5c0.5,0.2,1.1,0.1,1.6,0.1s1.1,0,1.6,0c0.9,0,1.8,0,2.7,0.1
					c0.8,0,1.6,0.1,2.5,0c0.4,0,0.8-0.1,1.2-0.3C64.1,38,64.3,37.3,63.7,36.9L63.7,36.9z"/>
			</g>
		</g>
	</g>
	<g>
		<g>
			<path class="st0" d="M14.4,59.9c0.5,0.4,1.1,0.4,1.6,0.3c0.8,0,1.6,0,2.5,0.1c2.1,0.1,4.2-0.1,6.3-0.1c4.3,0.2,8.7,0.1,13,0.1
				c4.6,0,9.1,0.3,13.7,0.1c4.6-0.2,9.1-0.3,13.6-0.2c1,0,1-1.5,0-1.6c-0.1,0-0.2,0-0.3,0c-0.9-0.2-1.3,1.2-0.4,1.4
				c0.1,0.1,0.3,0.1,0.5,0.1c0.1-0.5,0.1-1,0.2-1.5c-4.4-0.1-8.7,0-13.1,0.2s-8.8,0-13.2-0.1c-2,0-4,0.1-6.1,0.1
				c-2.2-0.1-4.4-0.1-6.6-0.1c-2,0-4-0.1-6,0c-1,0-1.9,0-2.9,0c-0.6,0-1.6,0.3-2.1-0.1C14.3,58.1,13.7,59.4,14.4,59.9L14.4,59.9z"/>
		</g>
	</g>
	<g>
		<g>
			<path class="st0" d="M18.9,59.3c-0.1-0.4,0.3-0.9,0.5-1.2c0.3-0.5,0.7-0.9,1.1-1.3c1-1.2,2.1-2,3.7-1.9c1.3,0.1,2.2,0.6,3,1.6
				c0.3,0.4,0.6,0.8,0.9,1.3c0.1,0.2,0.3,0.4,0.3,0.6c0,0,0,0.2,0.1,0.2c0-0.1,0-0.1,0,0c0-0.1,0-0.2,0.1-0.2
				c-0.5,0.7,0.6,1.5,1.2,0.9c0.8-0.7-0.1-2-0.6-2.7c-0.6-0.9-1.3-1.8-2.2-2.4c-1.3-0.8-3.1-1-4.5-0.6s-2.4,1.5-3.3,2.6
				c-0.8,0.9-2.1,2.5-1.4,3.8C18,60.6,19,60,18.9,59.3L18.9,59.3z"/>
		</g>
	</g>
	<g>
		<g>
			<path class="st0" d="M29.8,58.2c0-0.4,0-0.7,0.2-1.1c0.2-0.5,0.6-0.9,0.9-1.2c0.8-0.8,2.2-1.4,3.4-1.5c1.3-0.1,2.7,0.6,3.6,1.5
				c0.4,0.4,0.7,0.9,1,1.4c0.3,0.6,0.4,1.1,0.3,1.7c-0.1,0.8,1.1,1,1.4,0.4c0.7-1.2-0.1-2.7-0.8-3.7c-0.8-1.1-1.8-2-3.2-2.5
				c-2.5-1-5.7,0.1-7.3,2.2c-0.6,0.8-1.7,2.6-0.5,3.4C29.3,59.1,29.8,58.7,29.8,58.2L29.8,58.2z"/>
		</g>
	</g>
	<g>
		<g>
			<path class="st0" d="M40.9,58.4c0-0.6,0.3-1.2,0.5-1.7c0.3-0.5,0.5-1,1.1-1.3c0.5-0.2,1.1-0.3,1.7-0.4c0.5-0.1,1.1-0.1,1.6-0.1
				c1,0.1,2,0.6,2.7,1.3c0.8,0.8,1.2,1.7,1.1,2.8c-0.1,0.9,1.4,1.1,1.5,0.2c0.4-2.4-1.4-4.5-3.5-5.4c-1-0.4-2.1-0.6-3.3-0.5
				c-1.2,0.2-2.5,0.3-3.4,1.2c-0.5,0.5-0.8,1.1-1.1,1.8s-0.5,1.4-0.4,2.2C39.7,59.4,40.9,59.2,40.9,58.4L40.9,58.4z"/>
		</g>
	</g>
	<g>
		<g>
			<path class="st0" d="M51,58.2c0-0.9,1-1.8,1.6-2.4c0.8-0.8,1.9-1.1,3-0.9s2,0.9,2.8,1.6c0.4,0.4,1,0.8,1.3,1.4
				c0.2,0.5,0.3,1,0.6,1.4c0.5,0.6,1.5,0,1.3-0.7c-0.2-0.6-0.3-1.2-0.7-1.8c-0.5-0.6-1.1-1.2-1.7-1.7c-1.1-1-2.3-1.6-3.8-1.8
				c-1.5-0.1-2.8,0.5-3.9,1.5c-0.9,0.9-2,2.1-2,3.4C49.5,59.2,50.9,59.2,51,58.2L51,58.2z"/>
		</g>
	</g>
</g>
</svg>
