<?xml version="1.0" encoding="utf-8"?>
<!-- Generator: Adobe Illustrator 24.3.0, SVG Export Plug-In . SVG Version: 6.00 Build 0)  -->
<svg version="1.1" id="Calque_1" xmlns="http://www.w3.org/2000/svg" xmlns:xlink="http://www.w3.org/1999/xlink" x="0px" y="0px"
	 viewBox="0 0 80 80" style="enable-background:new 0 0 80 80;" xml:space="preserve">
<style type="text/css">
	.st0{fill:#91D902;}
</style>
<g>
	<g>
		<g>
			<path class="st0" d="M34.5,37.1L34.5,37.1c-0.2,0.3-0.1,0.7,0.1,0.9c0.8,1.1,2.1,2,3.5,1.4c0.7-0.3,1.4-1.5,2.3-1.1
				c0.4,0.2,0.8,0.6,1.2,0.8c0.5,0.3,1.1,0.4,1.7,0.2c0.5-0.1,0.8-0.5,1.2-0.9c0.3-0.4,0.4-0.6,0.9-0.5c0.4,0,0.8-0.4,0.8-0.8
				c0-0.5-0.4-0.8-0.8-0.8c-0.6-0.1-1.1,0.1-1.6,0.5c-0.3,0.3-0.5,0.6-0.8,0.9c-0.5,0.5-1.4-0.6-2-0.8c-1.2-0.5-2.2,0-3.1,0.8
				c-0.3,0.2-0.6,0.5-1,0.4c-0.6-0.2-1-0.8-1.5-1.1C35.1,36.8,34.8,36.9,34.5,37.1C34.5,37,34.5,37.1,34.5,37.1L34.5,37.1z"/>
		</g>
	</g>
	<g>
		<g>
			<path class="st0" d="M36,38.8c-0.6,0.8-0.5,2-0.4,2.9c0,1.4,0.2,2.8,0.2,4.2c0,2.6-0.5,5.3,0.2,7.8c0.3,1,1.8,0.6,1.6-0.4
				c-0.5-2.4-0.1-4.9-0.1-7.3c0-2.3-0.5-4.5-0.3-6.7C37.2,38.4,36.3,38.3,36,38.8L36,38.8z"/>
		</g>
	</g>
	<g>
		<g>
			<path class="st0" d="M43.1,38.7c-0.3,2.3,0,4.8-0.1,7.1c0,2.4-0.2,4.8,0.1,7.2c0.1,1.1,1.8,1.1,1.7,0c-0.3-2.4-0.1-4.8-0.1-7.2
				c0-2.3,0.1-4.8-0.2-7.1C44.3,38.1,43.2,38.1,43.1,38.7L43.1,38.7z"/>
		</g>
	</g>
	<g>
		<g>
			<path class="st0" d="M33.7,54.3c-0.2,1-0.2,2.1,0.1,3c0.3,0.8,0.9,1.4,1.7,1.7c1.8,0.7,3.8,0.2,5.6,0.1c1.6-0.1,3.8,0.3,5-1
				c1.1-1.1,0.8-3,0.7-4.3c-0.1-1.1-1.7-1.1-1.7,0c0,0.5,0.1,1.1,0.1,1.6s0,1.1-0.3,1.5c-0.4,0.4-1.1,0.4-1.6,0.4
				c-0.7,0-1.5,0-2.2,0c-1,0.1-1.9,0.2-2.9,0.3c-0.6,0.1-1.2,0.1-1.8-0.1c-0.5-0.1-1-0.3-1.1-0.9c-0.3-0.8-0.1-1.6-0.2-2.4
				C35,53.6,33.9,53.7,33.7,54.3L33.7,54.3z"/>
		</g>
	</g>
	<g>
		<g>
			<path class="st0" d="M35.1,58.3c-0.2,0.6-0.2,1.3-0.1,1.9c0.1,0.6,0.4,1.2,1,1.5c1.1,0.6,2.4,0.2,3.6,0.3
				c1.3,0.1,2.9,0.3,4.2-0.4c1.1-0.6,1.3-2,1.1-3.1c-0.1-1.1-1.6-1.1-1.7,0c0,0.2,0,0.5,0,0.7s0,0.4,0,0.5s0,0.2-0.1,0.3
				c0-0.1-0.1,0.1,0,0c-0.1,0.1-0.1,0.1-0.3,0.2c-0.5,0.2-1,0.2-1.5,0.2c-0.6,0-1.1-0.1-1.7-0.1c-0.9,0-1.9,0.3-2.6,0
				c-0.2-0.1-0.3-0.2-0.4-0.5c-0.1-0.5,0.1-1-0.1-1.5C36.2,57.7,35.4,57.7,35.1,58.3L35.1,58.3z"/>
		</g>
	</g>
	<g>
		<g>
			<path class="st0" d="M32,54.4c0.9,0.8,2.2,0.4,3.3,0.3c1.4-0.1,2.9,0.1,4.3,0.2c1.4,0,2.8-0.1,4.2-0.2c1.1-0.1,2.3-0.4,3.4,0
				c1,0.3,1.5-1.3,0.4-1.6c-1.1-0.4-2.3-0.2-3.5-0.1c-1.3,0.1-2.7,0.2-4,0.2c-1.4,0-2.9-0.2-4.3-0.2c-0.6,0-1.2,0.1-1.8,0.2
				s-1.1,0-1.7-0.1C31.9,53.1,31.6,54,32,54.4L32,54.4z"/>
		</g>
	</g>
	<g>
		<g>
			<path class="st0" d="M31.9,53.5c0-0.1,0.1-0.2,0.1-0.3c0.4,0.1,0.8,0.2,1.2,0.3c-0.8-1.9,0.4-4.1-0.2-6c-0.5-1.8-2.2-2.8-3-4.4
				c-1.1-2.3-1.2-5.2-1.2-7.6c0-2.6,1.1-4.6,2.9-6.4c1.9-1.8,4.3-2.6,6.9-2.6c2.6,0,5.3,0.1,7.4,1.9c0.8,0.7,1.8,1.4,2.6,2.1
				c0.9,0.8,1.5,2,2,3c1,2.1,1.2,4.8,0.6,7c-0.3,1.2-0.9,2.4-1.7,3.4c-0.7,1-1.7,1.6-2.5,2.5c-0.8,0.8-0.9,1.7-0.8,2.7
				c0,1.4,0.2,2.8,0.1,4.1c-0.1,1.1,1.7,1.1,1.7,0c0.1-1.4-0.1-2.8-0.1-4.1c0-0.7,0-1.1,0.4-1.6s1-0.8,1.4-1.3
				c1.7-1.7,2.9-3.9,3.3-6.3c0.4-2.4,0.1-5-1-7.2c-0.5-1-1-2-1.7-2.8c-0.9-1.1-2.2-1.9-3.3-2.8c-1.9-1.7-4.4-2.2-6.9-2.3
				c-2.6-0.1-5.3,0.1-7.6,1.5c-2,1.2-3.9,3.2-4.9,5.4c-1,2.4-0.7,5.5-0.3,8c0.2,1.4,0.5,2.8,1.1,4.1c0.5,1,1.4,1.8,2.1,2.7
				c1,1.2,1,2.1,0.9,3.6c-0.1,1.3-0.2,2.6,0.4,3.9c0.2,0.5,0.8,0.4,1.2,0.2c0.2-0.2,0.3-0.4,0.3-0.7C33.4,52.5,31.9,52.5,31.9,53.5
				L31.9,53.5z"/>
		</g>
	</g>
	<g>
		<g>
			<path class="st0" d="M40.7,21.5C40.7,21.5,40.7,21.4,40.7,21.5C40.7,21.3,40.7,21.6,40.7,21.5s0-0.1,0-0.2c0-0.1,0,0.1,0,0.1
				c0-0.1,0-0.3,0-0.4c0-0.3,0-0.6,0-0.9c0-0.1,0-0.1,0-0.2v-0.1c0-0.1,0,0.2,0,0.1c0-0.1,0-0.3,0.1-0.4c0-0.1,0.1-0.2,0.1-0.3
				s-0.1,0.2,0,0.1c0-0.1,0.2-0.4,0-0.1c0-0.1,0.1-0.2,0.1-0.3c0.1-0.3-0.1-0.7-0.4-0.9c-0.3-0.2-0.7-0.1-0.9,0.1
				c-0.3,0.2-0.4,0.6-0.4,0.9c-0.1,0.3-0.1,0.7-0.1,1.1c0,0.6,0,1.3,0.3,1.9c0.2,0.3,0.6,0.4,0.9,0.3C40.6,22.2,40.8,21.8,40.7,21.5
				L40.7,21.5z"/>
		</g>
	</g>
	<g>
		<g>
			<path class="st0" d="M51.6,27.3c0.3-0.1,0.5-0.3,0.7-0.5c0.4-0.2,0.7-0.5,1-0.7s0.6-0.5,0.8-0.7c0.3-0.3,0.7-0.7,0.6-1.1
				c0-0.3-0.2-0.6-0.5-0.7c-0.3-0.1-0.6-0.1-0.8,0.2c-0.1,0.1-0.2,0.3-0.3,0.4c-0.1,0.1,0.1-0.1,0-0.1c0,0,0,0.1-0.1,0.1
				c0,0.1-0.1,0.1-0.1,0.2c-0.2,0.3-0.5,0.5-0.8,0.7c-0.1,0.1-0.3,0.2-0.4,0.3c-0.2,0.1,0.1-0.1,0,0c0,0-0.1,0-0.1,0.1
				c-0.1,0.1-0.1,0.1-0.2,0.2c-0.3,0.2-0.5,0.4-0.8,0.6s-0.3,0.7-0.1,0.9C51,27.4,51.3,27.4,51.6,27.3L51.6,27.3z"/>
		</g>
	</g>
	<g>
		<g>
			<path class="st0" d="M55.9,38.4c0.7,0.1,1.4,0.1,2.1,0.1c0.4,0,0.7,0,1.1,0c0.2,0,0.4,0,0.5-0.1c0.2-0.1,0.3-0.1,0.5-0.2
				c0.2-0.2,0.2-0.4,0.2-0.6c0-0.4,0-0.3,0,0.2l0,0c0.1-0.6-0.4-1.1-1-1c-0.1,0,0,0,0.2,0c0.1,0,0.3,0.1,0.4,0.1
				c0.2,0.2,0.2,0.2,0,0c-0.1,0-0.1-0.1-0.2-0.1c-0.2-0.1-0.4,0-0.6,0.1c0.3-0.1,0.1-0.1,0.1,0c-0.1,0-0.1,0-0.2,0h-0.1
				c0.3-0.1,0.1,0,0.1,0c-0.4,0-0.7,0.1-1.1,0.1c-0.7,0-1.3,0-2,0.1c-0.4,0-0.8,0.3-0.7,0.7C55.2,38.1,55.5,38.4,55.9,38.4
				L55.9,38.4z"/>
		</g>
	</g>
	<g>
		<g>
			<path class="st0" d="M50.6,49.1c0.1,0.3,0.2,0.6,0.4,0.9c0.2,0.3,0.3,0.5,0.5,0.8s0.5,0.6,0.7,0.9s0.6,0.6,0.9,0.7s0.7,0,0.8-0.3
				c0.1-0.1,0.1-0.2,0.2-0.4c0-0.2,0-0.3-0.1-0.5s-0.2-0.3-0.4-0.4c-0.1-0.1-0.2-0.2-0.3-0.3c-0.2-0.2-0.4-0.4-0.6-0.7
				c-0.1-0.1-0.2-0.2-0.3-0.3c-0.1-0.1,0.1,0.1,0,0c0,0,0-0.1-0.1-0.1c0-0.1-0.1-0.1-0.1-0.2c-0.2-0.2-0.3-0.5-0.4-0.7
				c-0.2-0.3-0.6-0.4-0.9-0.3C50.7,48.4,50.5,48.8,50.6,49.1L50.6,49.1z"/>
		</g>
	</g>
	<g>
		<g>
			<path class="st0" d="M28.2,48.1c-0.3,0.2-0.5,0.4-0.8,0.7c-0.2,0.2-0.5,0.4-0.7,0.6S26.2,49.8,26,50c-0.1,0.1-0.2,0.2-0.3,0.3
				l-0.1,0.1c-0.1,0.2-0.2,0.3-0.2,0.5c0,0.1,0,0.2,0,0.4c0.1,0.3,0.4,0.6,0.7,0.6c0.2,0,0.5-0.1,0.6-0.2s0.1-0.2,0.2-0.3
				c0,0.1-0.1,0.1-0.1,0.2c0.3-0.4,0.7-0.8,1.1-1.1c0.2-0.2,0.4-0.4,0.6-0.6c0.2-0.2,0.5-0.5,0.6-0.7c0.1-0.3,0.1-0.6-0.1-0.8
				C28.8,48,28.5,47.9,28.2,48.1L28.2,48.1z"/>
		</g>
	</g>
	<g>
		<g>
			<path class="st0" d="M23.8,36.8c-0.1,0-0.2,0-0.3,0l0,0c0.2,0,0.2,0-0.1,0h-0.1c0,0-0.2,0,0,0c0.1,0,0,0,0,0c-0.1,0-0.2,0-0.2,0
				c-0.3,0-0.7,0.1-1,0.1s-0.7,0-1,0c-0.1,0-0.1,0-0.2,0c-0.2,0,0.2,0,0,0s-0.5-0.1-0.7,0s-0.4,0.2-0.5,0.5c-0.1,0.2-0.1,0.5,0,0.7
				c0.2,0.5,0.8,0.5,1.3,0.5c0.3,0,0.7,0,1,0c0.4,0,0.8-0.1,1.2-0.2c0.3-0.1,0.7-0.1,1-0.3C24.8,37.8,24.5,36.8,23.8,36.8L23.8,36.8
				z"/>
		</g>
	</g>
	<g>
		<g>
			<path class="st0" d="M29,25.8c-0.1-0.1-0.2-0.2-0.3-0.3c-0.1,0-0.1-0.1-0.1-0.1s0,0-0.1-0.1c0.2,0.2,0.1,0.1,0,0.1
				c-0.2-0.2-0.3-0.5-0.4-0.8c-0.1-0.3-0.3-0.5-0.4-0.8c-0.1-0.2-0.2-0.3-0.4-0.5c-0.1-0.1-0.2-0.2-0.3-0.2S26.8,23,26.8,23
				c-0.1,0,0,0,0.1,0c-0.1,0-0.1-0.1-0.2-0.1c-0.1-0.1-0.3,0-0.5,0c-0.1,0.1-0.3,0.2-0.4,0.3c-0.2,0.3-0.1,0.6,0.1,0.9
				c0.1,0.1-0.1-0.2,0,0c0,0.1,0.1,0.1,0.2,0.2c0-0.1-0.1-0.1-0.1-0.2c0.1,0.1,0.2,0.3,0.3,0.4c0-0.1-0.1-0.1-0.1-0.2
				c0.3,0.4,0.5,0.8,0.8,1.2c0.2,0.2,0.3,0.5,0.5,0.7c0.1,0.1,0.2,0.2,0.4,0.3s0.4,0.2,0.6,0.2c0.1,0,0.2,0,0.3-0.1s0.2-0.2,0.3-0.3
				C29.2,26.3,29.2,26,29,25.8L29,25.8z"/>
		</g>
	</g>
</g>
</svg>
