<?xml version="1.0" encoding="utf-8"?>
<!-- Generator: Adobe Illustrator 24.3.0, SVG Export Plug-In . SVG Version: 6.00 Build 0)  -->
<svg version="1.1" id="Calque_1" xmlns="http://www.w3.org/2000/svg" xmlns:xlink="http://www.w3.org/1999/xlink" x="0px" y="0px"
	 viewBox="0 0 80 80" style="enable-background:new 0 0 80 80;" xml:space="preserve">
<style type="text/css">
	.st0{fill:#91D902;}
</style>
<g>
	<g>
		<g>
			<path class="st0" d="M8,21.5c3,0.2,6-0.1,8.9,0c3,0,5.9,0.2,8.9,0.1c2.8-0.2,5.6,0,8.3,0.1c6.5,0.2,13.1,0.3,19.6,0.5
				c1.1,0,2.1,0.1,3.2,0.1c2.4,0.1,4.7-0.3,7.1-0.1c1,0,1-1.4,0-1.5c-2.3-0.1-4.6,0.2-6.9,0.1c-0.8,0-1.7-0.1-2.5-0.1
				c-3-0.1-6.1-0.1-9.1-0.2C39.7,20.4,33.8,20,28,20c-1.6,0-3.2,0.2-4.9,0.2s-3.3-0.1-5-0.2c-3.4-0.1-6.8-0.1-10.1,0.1
				C7.1,20.2,7.1,21.5,8,21.5L8,21.5z"/>
		</g>
	</g>
	<g>
		<g>
			<path class="st0" d="M42.1,55.6c0.7,0.2,1.7,0.1,2.5,0.1s1.5,0,2.3,0.1c1.4,0,2.9,0.1,4.3,0.1c1,0,1-1.5,0-1.5
				c-1.4-0.1-2.9-0.1-4.3-0.1c-0.8,0-1.5,0-2.3-0.1c-0.8,0-1.7-0.2-2.5,0C41.4,54.5,41.5,55.4,42.1,55.6L42.1,55.6z"/>
		</g>
	</g>
	<g>
		<g>
			<path class="st0" d="M7.4,55.3c2.2,0.2,4.4,0,6.6,0s4.4,0.1,6.7,0.1c2.1,0.1,4.3-0.1,6.4-0.2c1.8,0,3.5,0.1,5.3,0.2
				c1,0,1-1.5,0-1.5c-1.8-0.1-3.5-0.2-5.3-0.1c-2.1,0-4.3,0.2-6.4,0.2c-4.4-0.1-8.9-0.4-13.2,0C6.5,54.1,6.5,55.2,7.4,55.3L7.4,55.3
				z"/>
		</g>
	</g>
	<g>
		<g>
			<path class="st0" d="M10.8,36.4c2,0.2,4,0.1,6,0.2c2.1,0.1,4.1,0.2,6.2,0.2c2,0.1,3.9,0,5.9,0.1c1.7,0.1,3.3,0.2,5,0.2
				c1,0,1-1.5,0-1.5c-1.7,0.1-3.4-0.1-5-0.2C27,35.3,25,35.3,23,35.3c-2.1-0.1-4.1-0.2-6.2-0.2c-2-0.1-4-0.3-6-0.1
				C10,35.1,10,36.3,10.8,36.4L10.8,36.4z"/>
		</g>
	</g>
	<g>
		<g>
			<path class="st0" d="M10.2,21.4c-0.3,1.2-0.6,2.4-0.8,3.7c-0.2,1.3-0.2,2.5-0.2,3.8c0,2.9,0.1,5.6,0.4,8.4s0,5.6-0.1,8.4
				c-0.1,3,0.4,5.9,0.3,8.8c0,1.1,1.6,1.1,1.7,0c0.1-2.8-0.4-5.6-0.3-8.3c0.1-2.9,0.4-5.8,0.1-8.7c-0.3-2.8-0.5-5.4-0.5-8.2
				c0-1.3-0.1-2.7,0.1-4c0.2-1.3,0.5-2.5,0.6-3.8C11.6,20.8,10.3,20.7,10.2,21.4L10.2,21.4z"/>
		</g>
	</g>
	<g>
		<g>
			<path class="st0" d="M60,34.5c0.3-1.1,0.3-2.3,0.4-3.4c0.1-1.1,0.1-2.2,0.1-3.3c-0.1-2,0-4-0.6-5.9c-0.3-1-2-0.6-1.6,0.5
				c0.6,1.8,0.5,3.8,0.6,5.6c0,1.1,0,2.1-0.1,3.2c-0.1,1.1-0.3,2.2-0.1,3.3C58.7,35.2,59.8,35.1,60,34.5L60,34.5z"/>
		</g>
	</g>
	<g>
		<g>
			<path class="st0" d="M25.8,21.9c0.3,2.4,0.1,4.7,0,7.1c-0.1,2.4-0.5,4.8,0,7.2c0.2,1.1,1.9,0.6,1.6-0.5c-0.5-2.3-0.1-4.7,0-7.1
				c0.1-2.3,0.5-4.7-0.3-6.9C27,21,25.7,21.1,25.8,21.9L25.8,21.9z"/>
		</g>
	</g>
	<g>
		<g>
			<path class="st0" d="M43.2,20.5c-0.4,0.1-0.6,0.5-0.8,0.9c-0.1,0.2-0.2,0.4-0.2,0.6c-0.1,0.4-0.2,0.7-0.2,1.1c0,0.3,0,0.6,0,1
				c0,0.2,0,0.4,0,0.6c0,0.1,0,0.3,0,0.4c0,0.4,0.1,0.7,0.5,0.8c0.2,0.1,0.6,0.1,0.8,0c0.3-0.2,0.5-0.5,0.5-0.8c0-0.1,0-0.3,0-0.4
				c0-0.2,0-0.4,0-0.6c0-0.3,0-0.6,0-1c0-0.1,0-0.3,0-0.4v-0.1c0-0.1,0,0,0,0.1c0-0.1,0-0.2,0-0.3c0-0.2,0.1-0.4,0.1-0.6
				c0.1-0.3,0.2-0.8,0-1.1C43.8,20.6,43.5,20.5,43.2,20.5L43.2,20.5z"/>
		</g>
	</g>
	<g>
		<g>
			<path class="st0" d="M30.7,53.9c0-0.7-0.2-1.5-0.2-2.2c0-0.8,0-1.7,0.1-2.5c0.1-1,0.1-2.1,0.1-3.2c0-1-0.3-2-0.3-3.1
				c-0.3,0.3-0.6,0.6-0.8,0.8c1.6,0,3.3-0.3,4.9-0.2c1.1,0,1.1-1.7,0-1.7c-1.6-0.1-3.3,0.3-4.9,0.3c-0.5,0-0.8,0.4-0.8,0.8
				C28.7,44,29,45,29.1,46.1c0,1.1,0,2.2,0,3.3c0,0.9-0.1,1.7-0.1,2.6c0,0.8,0.1,1.7,0.6,2.4C29.9,54.8,30.7,54.4,30.7,53.9
				L30.7,53.9z"/>
		</g>
	</g>
	<g>
		<g>
			<g>
				<g>
					<path class="st0" d="M36,47.1c0-0.2,0-0.4,0-0.7c0-0.1,0-0.2,0-0.3s0-0.1,0-0.2v-0.2c0,0.1,0-0.1,0-0.1v-0.1
						c0-0.1,0.1-0.2,0.1-0.3c0,0,0.1-0.1,0,0c0,0,0-0.1,0.1-0.1c0.1-0.1,0.1-0.2,0.2-0.3l0.1-0.1c0,0,0.1-0.1,0,0s0-0.1,0.1-0.1
						l0.1-0.1c0.1-0.1,0.1-0.1,0.2-0.2l0.1-0.1c0,0-0.1,0.1,0,0s0.3-0.1,0.4-0.2c0.1-0.1-0.1,0,0,0h0.1c0.1,0,0.2,0,0.2-0.1h0.1
						c0.1,0-0.1,0-0.1,0h0.2c0.1,0,0.1,0,0.2,0c0.1,0,0.1,0,0,0c-0.1-0.1,0,0,0,0c0.1,0,0.1,0,0.2,0h0.1c0.1,0,0.1,0.1,0,0
						c0,0-0.1,0,0,0h0.1c0.1,0,0.1,0.1,0.2,0.1c0.2,0.1-0.1-0.1,0,0s0.1,0.1,0.2,0.2c0,0,0.1,0.2,0.1,0.1s0,0,0,0l0.1,0.1
						c0,0.1,0.1,0.1,0.1,0.2s0-0.1,0-0.1v0.1c0,0.1,0.1,0.3,0.1,0.4v0.1c0,0,0-0.2,0,0c0,0.1,0,0.2,0,0.3c0,0.2,0,0.4,0,0.6
						c0,0.1,0,0.2,0,0.3s0,0.2,0,0.3c0,0,0-0.2,0-0.1v0.1c0,0.1,0,0.2-0.1,0.2c-0.1,0.4,0.1,0.9,0.5,1c0.4,0.2,0.9,0,1.1-0.4
						c0.4-0.8,0.3-1.9,0.1-2.7c-0.1-0.8-0.5-1.6-1.1-2.1c-0.7-0.5-1.5-0.7-2.4-0.6c-0.9,0.1-1.7,0.7-2.2,1.4c-0.3,0.4-0.6,1-0.7,1.5
						c-0.2,0.7,0,1.3,0.1,2c0.1,0.3,0.5,0.6,0.8,0.5C35.7,47.8,35.9,47.5,36,47.1L36,47.1z"/>
				</g>
			</g>
			<g>
				<g>
					<path class="st0" d="M40.2,46.9c-0.3-0.2-0.6-0.2-0.9-0.1c-0.1,0-0.2,0-0.3,0.1h-0.1c0.1,0,0.1,0,0,0c-0.4,0-0.9-0.1-1.3-0.1
						c-0.4,0-0.7,0.1-1.1,0.1c-0.2,0-0.4,0-0.6,0c0.2,0.1-0.1,0-0.1,0c-0.1,0-0.2-0.1-0.2-0.1c-0.4-0.2-1,0.2-1,0.6
						c-0.1,0.5,0.2,0.9,0.6,1c0.7,0.3,1.6,0.2,2.4,0.1c0.4,0,0.8,0,1.3,0c0.2,0,0.5,0,0.7-0.1c0.1,0,0.2-0.1,0.3-0.1s0.1,0,0.2-0.1
						c0.3-0.1-0.1,0.1,0.1,0c0.3-0.1,0.5-0.3,0.5-0.6C40.6,47.3,40.4,47,40.2,46.9L40.2,46.9z"/>
				</g>
			</g>
			<g>
				<g>
					<path class="st0" d="M32.8,58.8c0.1-1.8,0.7-3.5,1.2-5.3c0.5-1.9,0.9-3.9,1.8-5.7c0.4-0.9-0.8-1.6-1.3-0.8
						c-1.1,1.8-1.5,4.1-2,6.2c-0.3,1-0.6,2-0.8,3c-0.2,0.9-0.4,1.9-0.2,2.8C31.5,59.9,32.7,59.6,32.8,58.8L32.8,58.8z"/>
				</g>
			</g>
			<g>
				<g>
					<path class="st0" d="M43.8,59.4c0.4-0.8-0.2-1.6-0.5-2.4c-0.4-1-0.6-2.1-0.8-3.1c-0.6-2.2-1-4.4-1.9-6.5
						c-0.4-0.8-1.8-0.2-1.5,0.6c0.7,2,1.2,4,1.7,6.1c0.2,1,0.5,1.9,0.8,2.9c0.1,0.4,0.3,0.8,0.5,1.1c0.2,0.3,0.3,0.7,0.4,1.1
						C42.7,59.7,43.5,60,43.8,59.4L43.8,59.4z"/>
				</g>
			</g>
			<g>
				<g>
					<path class="st0" d="M31.9,59.6c0.6,0.2,1.2-0.1,1.6-0.4c0.2-0.1,0.5-0.3,0.7-0.4c0,0,0.2-0.1,0.1-0.1c0.1,0,0.3,0.1,0.3,0.2
						c0.5,0.2,1,0.3,1.5,0.6c0.4,0.3,0.8,0.6,1.4,0.5c0.5-0.1,0.9-0.4,1.3-0.7c0.3-0.2,0.6-0.3,0.9-0.5c0.1-0.1,0.3-0.1,0.4-0.2
						c0.1-0.1,0.1,0-0.1,0c0.7,0.3,1.8,0.7,2.3,1.3c0.1-0.5,0.3-1,0.4-1.4h-0.1c-0.7,0.3-0.8,1.3,0,1.6h0.1c0.9,0.3,1.4-0.8,0.8-1.4
						c-0.7-0.8-1.8-1.1-2.7-1.5c-0.6-0.3-1-0.2-1.6,0.1c-0.6,0.3-1.2,0.6-1.7,1c-0.1,0.1-0.2,0.1-0.3,0.2c0.2,0.1,0.2,0.1,0.1,0
						c-0.1,0-0.1-0.1-0.2-0.1c-0.2-0.1-0.4-0.3-0.6-0.4c-0.3-0.2-0.6-0.2-1-0.3c-0.3-0.1-0.6-0.3-0.8-0.4c-0.6-0.2-1.2,0-1.7,0.4
						c-0.5,0.3-1.1,0.5-1.6,0.9C31.1,58.8,31.4,59.4,31.9,59.6L31.9,59.6z"/>
				</g>
			</g>
			<g>
				<g>
					<path class="st0" d="M35.3,58.2c0.5-0.8,0.6-1.8,0.8-2.7c0.1-1,0.2-2,0.3-3c0.1-0.9,0.1-1.7,0.3-2.5c0.2-0.7,0.5-1.5,0.2-2.1
						c-0.4-0.8-1.5-0.3-1.5,0.4c0,0.5-0.2,1-0.3,1.6c-0.2,0.9-0.2,1.8-0.3,2.7c0,0.9-0.1,1.8-0.2,2.7c-0.1,0.9-0.4,1.8-0.5,2.6
						C33.9,58.6,34.9,58.8,35.3,58.2L35.3,58.2z"/>
				</g>
			</g>
			<g>
				<g>
					<path class="st0" d="M38,59.1c0.4-1.7,0.3-3.4,0.1-5.1c-0.1-1-0.1-1.9-0.2-2.9c0-1,0.1-2,0-3c0-1.1-1.6-1.1-1.7,0
						c0,2,0,4,0.2,6c0.1,1,0.1,2,0.2,3c0,0.7-0.2,1.6,0.2,2.1C37.1,59.6,37.8,59.6,38,59.1L38,59.1z"/>
				</g>
			</g>
			<g>
				<g>
					<path class="st0" d="M40.9,57.6c0-0.8-0.3-1.7-0.5-2.5s-0.3-1.6-0.5-2.4c-0.1-0.8-0.2-1.6-0.3-2.4s-0.2-1.6-0.3-2.4
						c-0.2-1-1.9-0.6-1.6,0.4c0.2,0.8,0.2,1.6,0.4,2.4c0.1,0.8,0.2,1.6,0.3,2.3c0.1,0.8,0.2,1.6,0.5,2.3c0.2,0.8,0.4,1.7,0.7,2.4
						C39.8,58.5,40.9,58.4,40.9,57.6L40.9,57.6z"/>
				</g>
			</g>
		</g>
		<g>
			<g>
				<g>
					<path class="st0" d="M36.1,44.2c-1.5-3.4-1.8-7-0.7-10.6c1-3.2,3.3-5.4,6.2-6.9c3.6-1.8,7.5-1.7,11,0.3
						c2.9,1.6,5.2,4.1,5.6,7.4c0.2,1.1,1.9,0.6,1.7-0.5C59,28,52.4,23.5,46.6,23.7c-3.2,0.1-6.2,1.5-8.7,3.4s-3.8,4.4-4.5,7.4
						c-0.8,3.4-0.5,7.3,1.5,10.3C35.4,45.6,36.4,44.9,36.1,44.2L36.1,44.2z"/>
				</g>
			</g>
			<g>
				<g>
					<path class="st0" d="M48.6,50.7c-0.4-0.3-0.9-0.2-1.3-0.3c-0.4,0-0.8-0.1-1.2-0.1c-0.7-0.1-1.4-0.2-2.1-0.4
						c-1.1-0.3-1.9-0.7-2.9-1.2c-1-0.6-1.9,1-0.9,1.5c1,0.6,2.2,1,3.3,1.3c0.7,0.2,1.5,0.3,2.3,0.4c0.4,0.1,0.9,0.1,1.3,0.1
						c0.5,0,1,0.1,1.5-0.2C49.1,51.6,49.1,51,48.6,50.7L48.6,50.7z"/>
				</g>
			</g>
			<g>
				<g>
					<path class="st0" d="M37.2,29.1c0.6,0.8,1.4,1.5,2.1,2.2c0.4,0.4,0.9,0.9,1.3,1.3c0.7,0.8,1.5,1.6,2.2,2.4c1,1.1,2,2.1,3.1,3.1
						c1,0.9,1.9,1.9,3,2.8c0.4,0.3,0.9,0.3,1.2,0c0.3-0.3,0.4-0.9,0-1.2c-1-0.8-2-1.8-3-2.7C46,36,45,34.9,44,33.8
						c-1.8-2-3.7-4.1-5.9-5.6C37.6,27.7,36.8,28.5,37.2,29.1L37.2,29.1z"/>
				</g>
			</g>
			<g>
				<g>
					<path class="st0" d="M40.2,44.6c1.7-1.7,3.6-3,5.3-4.6c1.8-1.7,3.5-3.7,5.4-5.4c2-1.7,3.9-3.6,5.9-5.3c-0.4-0.3-0.9-0.7-1.3-1
						c0.1-0.1,0.2-0.2,0.3-0.3c-0.9,0.6-0.1,2,0.8,1.4c0.1-0.1,0.2-0.2,0.3-0.3c0.5-0.8-0.6-1.6-1.3-1c-1.1,0.9-2,2-3,2.9
						c-0.9,0.9-1.9,1.7-2.8,2.5c-1.9,1.7-3.5,3.6-5.4,5.4c-0.8,0.8-1.8,1.5-2.6,2.3c-0.9,0.7-1.9,1.5-2.6,2.4
						C38.5,44.3,39.5,45.3,40.2,44.6L40.2,44.6z"/>
				</g>
			</g>
			<g>
				<g>
					<path class="st0" d="M45.4,24.7c-0.4,0.5-0.4,1.2-0.3,1.8c0.1,0.7,0.2,1.3,0.4,2c0.4,1.3,0.8,2.8,1.5,4
						c0.7,1.3,1.6,2.4,2.7,3.4c0.7,0.7,1.8,1.4,2.8,1.7s1.5-1,0.7-1.6c-0.7-0.5-1.5-0.7-2.1-1.3c-0.9-0.8-1.9-1.9-2.5-2.9
						s-0.9-2.3-1.3-3.4c-0.4-1.1-0.5-2.2-0.6-3.3C46.5,24.3,45.8,24.1,45.4,24.7L45.4,24.7z"/>
				</g>
			</g>
			<g>
				<g>
					<path class="st0" d="M34.1,37.3c0.8,0.5,1.7,0.6,2.6,0.8c0.9,0.2,1.8,0.6,2.6,1c1.6,0.8,3.1,1.6,4.3,3c1.7,2,2.8,4.5,3.2,7.1
						c0.1,0.5,0.7,0.7,1.1,0.6c0.5-0.1,0.7-0.6,0.6-1.1c-0.4-2.9-1.7-5.7-3.7-7.9c-1.3-1.5-2.9-2.4-4.7-3.2
						c-0.9-0.4-1.9-0.9-2.8-1.1c-0.4-0.1-0.9-0.1-1.3-0.2c-0.5-0.1-1-0.2-1.5-0.3C33.7,36,33.5,37,34.1,37.3L34.1,37.3z"/>
				</g>
			</g>
			<g>
				<g>
					<path class="st0" d="M48.2,46.4c0.3-1.8,0.8-3.9,1.7-5.4c1.1-2,3.1-3.7,5.1-4.7c2.4-1.2,5.4-1.4,8-0.8c2.4,0.5,4.2,2,5.8,3.8
						c1.6,1.8,2.2,4.8,2.4,7.2c0.1,2.5-0.9,5.1-2.3,7.2c-1.3,1.9-3.9,3-6,3.5c-2.4,0.5-4.9,0.7-7.3,0c-2.3-0.7-4.6-2.7-5.9-4.8
						C48.6,50.6,48.1,48.4,48.2,46.4c0.2-1.1-1.5-1.1-1.6,0c-0.5,4.9,2.6,9.6,6.9,11.9c2.5,1.3,5.5,1.4,8.2,1c2.5-0.3,5.4-1.3,7.4-3
						s3.3-4.8,3.8-7.2c0.6-2.8-0.2-6.2-1.3-8.8C71,39,70,38,69,37c-1-0.9-2-1.8-3.3-2.4c-2.6-1.2-5.8-1.4-8.6-0.7
						c-5.8,1.3-9.9,6.5-10.3,12.3C46.7,47.1,48.1,47.3,48.2,46.4z"/>
				</g>
			</g>
			<g>
				<g>
					<path class="st0" d="M55.5,35.5c0.2,0.4,0.6,0.7,1,1c0.3,0.3,0.7,0.6,1,0.8c0.3,0.3,0.6,0.5,0.9,0.8c0.1,0.1,0.3,0.2,0.4,0.3
						l0.1,0.1c0,0,0.1,0.1,0,0s0,0,0,0c0.1,0.1-0.1-0.2,0-0.1c0.1,0.5,0.7,0.8,1.1,0.6c0.5-0.2,0.7-0.6,0.6-1.1
						c-0.1-0.4-0.5-0.8-0.8-1c-0.3-0.3-0.6-0.5-1-0.8s-0.8-0.6-1.2-0.9c-0.4-0.3-0.7-0.6-1.1-0.8c-0.3-0.1-0.7-0.1-0.9,0.1
						C55.4,34.9,55.4,35.2,55.5,35.5L55.5,35.5z"/>
				</g>
			</g>
			<g>
				<g>
					<path class="st0" d="M50.3,38.7c-0.2,0.4-0.2,0.8-0.1,1.2s0.2,0.9,0.3,1.3c0.1,0.4,0.3,0.9,0.5,1.3c0.1,0.2,0.2,0.5,0.2,0.7
						c0,0.1,0.1,0.5,0.2,0.6c-0.1-0.1,0.1-0.4,0.1-0.3l-0.1,0.1c-0.2,0.1-0.3,0.2-0.5,0.3c-0.4,0.3-0.9,0.5-1.3,0.8
						c-0.5,0.3-0.9,0.5-1.4,0.9c0,0-0.1,0-0.1,0.1c0.1,0,0.1,0,0,0c-0.1,0.1-0.2,0.1-0.4,0.1c-0.2,0.1-0.5,0.3-0.6,0.5
						c-0.4,1.1,0.9,1.9,1.6,0.9c-0.2,0.2-0.2,0.2-0.1,0.2s0.3-0.1,0.4-0.2c0.2-0.1,0.5-0.3,0.7-0.4c0.5-0.3,0.9-0.6,1.4-0.9
						c0.4-0.3,0.8-0.5,1.2-0.8c0.4-0.3,0.8-0.7,0.8-1.2s-0.2-0.9-0.3-1.3c-0.1-0.5-0.3-0.9-0.5-1.4c-0.3-0.8-0.5-1.7-0.8-2.6
						C51.3,38.2,50.5,38.3,50.3,38.7L50.3,38.7z"/>
				</g>
			</g>
			<g>
				<g>
					<path class="st0" d="M52.1,44.6c0.5,0.3,1,0.6,1.5,0.8c0.5,0.2,1.1,0.4,1.6,0.2c0.5-0.2,0.9-0.7,1.3-1c0.5-0.3,1-0.6,1.5-0.9
						s1-0.7,1.4-1.1c0.2-0.2,0.4-0.4,0.6-0.5c0.2-0.2,0.4-0.3,0.6-0.6c0.3-0.5,0.1-1.2,0.1-1.7c0-0.6,0.1-1.1-0.1-1.7
						c-0.2-0.5-0.6-0.8-1.1-0.6c-0.4,0.1-0.8,0.6-0.6,1.1C59,39,59,39.3,59,39.7c0,0.2,0,0.4,0,0.7c0,0.1,0,0.2,0,0.3s0,0,0,0.2
						c0.1-0.1,0.2-0.3,0.2-0.4c-0.1,0.1-0.5,0.4-0.7,0.6c-0.2,0.2-0.5,0.4-0.8,0.6c-0.6,0.5-1.3,0.9-1.9,1.3
						c-0.3,0.2-0.6,0.4-0.9,0.7c-0.1,0.1-0.3,0.2-0.4,0.3s-0.1,0.1,0.1,0c0.2,0,0.2,0,0.1-0.1l-0.2-0.1c-0.7-0.2-1.3-0.5-1.9-0.7
						C51.8,43.1,51.3,44.1,52.1,44.6L52.1,44.6z"/>
				</g>
			</g>
			<g>
				<g>
					<path class="st0" d="M59.8,39L59.8,39c-0.1,0-0.2-0.1-0.3-0.1c0.2,0.1,0.4,0.1,0.6,0.1c0.1,0,0.2-0.1,0.3-0.1c-0.1,0,0,0,0,0
						c0.3-0.1,0.5-0.2,0.7-0.3c0.5-0.2,0.9-0.6,1.4-0.9c0.5-0.3,0.9-0.6,1.3-0.9c0.4-0.3,0.8-0.6,1.3-0.8c0.4-0.2,0.5-0.7,0.4-1.1
						c-0.2-0.4-0.6-0.7-1-0.5c-0.3,0.1-0.6,0.3-0.9,0.5c-0.1,0-0.1,0.1-0.2,0.1c0.1-0.1,0,0,0,0c-0.1,0.1-0.2,0.2-0.3,0.2
						c-0.5,0.3-0.9,0.6-1.4,1c-0.5,0.3-0.9,0.7-1.3,1c-0.2,0.1-0.4,0.2-0.6,0.4c-0.1,0.1-0.3,0.2-0.4,0.3s-0.2,0.2-0.2,0.3
						s0,0.2,0,0.3s0,0.1,0,0C59.2,38.8,59.4,39,59.8,39L59.8,39z"/>
				</g>
			</g>
			<g>
				<g>
					<path class="st0" d="M59.4,41c0.1,0.7,0.8,1.1,1.3,1.5l0.1,0.1c-0.1-0.1,0,0,0,0c0.1,0.1,0.2,0.2,0.3,0.3
						c0.2,0.2,0.4,0.4,0.6,0.6c0.5,0.4,1,0.8,1.5,1.1c0.1,0,0.1,0.1,0.2,0.1c0,0,0.2,0.1,0.1,0c0.1,0.1,0.2,0.2,0.3,0.3
						c0.1,0.1,0.2,0.2,0.4,0.3l0.1,0.1c0.2,0.1-0.1-0.1,0,0c0.3,0.3,0.8,0.3,1.2,0.1c0.3-0.2,0.5-0.8,0.2-1.1
						c-0.2-0.3-0.4-0.4-0.7-0.6c0.1,0.1,0,0,0,0c-0.1,0-0.1-0.1-0.2-0.1c-0.1-0.1-0.3-0.2-0.4-0.3c-0.2-0.2-0.5-0.3-0.7-0.5
						c-0.1-0.1-0.2-0.2-0.4-0.3c-0.1,0-0.1-0.1-0.2-0.1c-0.1-0.1,0.1,0.1-0.1,0c-0.4-0.4-0.9-0.8-1.4-1.1c-0.2-0.2-0.5-0.3-0.7-0.4
						c-0.3-0.2-0.6-0.4-0.9-0.4C59.7,40.4,59.3,40.7,59.4,41L59.4,41z"/>
				</g>
			</g>
			<g>
				<g>
					<path class="st0" d="M65.1,45.5c1,0,1-1.5,0-1.5S64.1,45.5,65.1,45.5L65.1,45.5z"/>
				</g>
			</g>
			<g>
				<g>
					<path class="st0" d="M65,45.6c0.5,0,0.9-0.1,1.3-0.3c0.4-0.1,0.8-0.2,1.1-0.4c0.1-0.1,0.2-0.1,0.4-0.2c-0.2,0.1,0,0,0,0
						c0.2-0.1,0.4-0.1,0.5-0.2c0.4-0.2,0.5-0.6,0.6-1.1c0-0.2,0.1-0.3,0.1-0.4s0-0.2,0.1-0.3c0,0,0.1-0.3,0.1-0.2
						c0.2-0.3,0.4-0.6,0.5-1c0.1-0.2,0.2-0.5,0.3-0.7c0-0.1,0.1-0.2,0.1-0.3c0,0,0.1-0.3,0.1-0.1c0.2-0.4,0.4-0.7,0.4-1.2
						s-0.4-0.9-0.9-0.9s-0.9,0.4-0.9,0.9c0-0.2,0-0.1,0,0c0-0.1,0-0.1,0,0c-0.1,0.2-0.2,0.3-0.2,0.5c-0.1,0.2-0.1,0.4-0.2,0.5
						c0,0.1-0.1,0.2-0.1,0.2s-0.1,0.3-0.1,0.2c-0.1,0.3-0.3,0.6-0.5,0.9c-0.2,0.4-0.3,0.8-0.4,1.2c0,0.1,0,0.2-0.1,0.3
						c0,0.1,0,0.1-0.1,0.2c0,0.1,0,0.1,0,0s0.1-0.2,0.2-0.2c-0.1,0.1,0.1,0,0,0s-0.1,0-0.2,0.1c0.1,0.1,0,0.1-0.1,0.1
						c0,0-0.3,0.1-0.1,0.1c-0.3,0.1-0.6,0.2-1,0.3s-0.7,0.3-1.1,0.4C64,44.2,64.1,45.6,65,45.6L65,45.6z"/>
				</g>
			</g>
			<g>
				<g>
					<path class="st0" d="M67.6,43.9L67.6,43.9c-0.1,0.3,0,0.6,0.2,0.7c0.3,0.3,0.6,0.6,0.9,0.8c0.3,0.3,0.6,0.6,0.9,0.9
						c0.2,0.2,0.5,0.3,0.7,0.5c0.1,0.1,0.2,0.1,0.3,0.2c0.1,0,0.1,0.1,0.2,0.1c0.1,0.1-0.2-0.1,0,0c0.2,0.2,0.4,0.3,0.6,0.4
						c0,0,0.1,0,0.1,0.1c0.2,0.1-0.1-0.1,0,0l0.1,0.1c0.1,0.1-0.1-0.2,0,0c0-0.3,0-0.6,0-0.9c-0.1,0.2-0.2,0.4-0.1,0.7
						c0.1,0.3,0.3,0.5,0.6,0.6c0.4,0.1,0.7,0,0.9-0.3c0.2-0.3,0.2-0.7,0.1-1c-0.2-0.5-0.7-0.7-1.1-1s-0.8-0.6-1.2-0.9l-0.1-0.1
						c0.1,0,0.1,0.1,0,0s-0.2-0.1-0.2-0.2c-0.2-0.2-0.3-0.3-0.5-0.5c-0.4-0.4-0.8-0.7-1.3-0.8c-0.2-0.1-0.6,0-0.7,0.2
						C67.7,43.7,67.6,43.7,67.6,43.9L67.6,43.9z"/>
				</g>
			</g>
			<g>
				<g>
					<path class="st0" d="M64,50.7c0.1-0.1,0.3-0.4,0.4-0.6s0.1-0.5,0.2-0.7c0.2-0.5,0.3-1,0.5-1.5c0.1-0.5,0.3-1,0.4-1.4
						c0.1-0.5,0.4-0.9,0.5-1.4c-0.5,0.1-1.1,0.1-1.6,0.2c0,0,0,0,0,0.1c0.3,0.5,1.1,0.5,1.4,0c0,0,0,0,0-0.1c0.3-0.4,0.1-1-0.4-1.2
						s-1,0.1-1.2,0.6c-0.4,1-0.6,1.9-0.9,2.9c-0.1,0.5-0.3,1-0.4,1.4c-0.1,0.2-0.1,0.5-0.1,0.7c-0.1,0.3-0.1,0.6,0,0.8
						C63,51,63.6,51.1,64,50.7L64,50.7z"/>
				</g>
			</g>
			<g>
				<g>
					<path class="st0" d="M62.6,50.8c0.2,0.6,0.6,1.1,0.9,1.6s0.6,0.9,0.8,1.4c0.1,0.2,0.3,0.3,0.5,0.4s0.5,0,0.7-0.1
						c0.4-0.3,0.5-0.8,0.3-1.2c-0.2-0.5-0.5-1-0.8-1.4c-0.3-0.5-0.7-1-1.1-1.4c-0.2-0.2-0.6-0.3-0.9-0.1
						C62.7,50.1,62.5,50.4,62.6,50.8L62.6,50.8z"/>
				</g>
			</g>
			<g>
				<g>
					<path class="st0" d="M64.4,52.8C64.5,52.8,64.5,52.8,64.4,52.8C64.5,52.8,64.4,52.9,64.4,52.8c-0.1,0.1-0.2,0.2-0.2,0.3
						c-0.1,0.1-0.1,0.1-0.1,0.2c-0.1,0.2-0.2,0.4-0.3,0.6c-0.1,0.3-0.2,0.7-0.3,1c-0.2,0.9-0.6,1.7-0.7,2.5c-0.1,0.5,0.1,1,0.6,1.1
						c0.4,0.1,1-0.1,1.1-0.6c0.1-0.8,0.5-1.6,0.7-2.5c0.1-0.3,0.1-0.6,0.2-1c0-0.2,0.1-0.3,0.1-0.5c0-0.1,0-0.2,0.1-0.2
						c0-0.1,0.1-0.3,0-0.1c0.2-0.3,0.1-0.7-0.2-1C65.1,52.5,64.7,52.6,64.4,52.8L64.4,52.8z"/>
				</g>
			</g>
			<g>
				<g>
					<path class="st0" d="M64.9,53.9c0.3,0.1,0.6,0.1,0.9,0.2c0.5,0,0.9,0,1.4,0s0.9,0.1,1.4,0c0.2,0,0.5,0,0.7,0c0.4,0,0.6,0,1-0.1
						c0.6-0.3,0.5-1.2,0-1.5s-1.2-0.2-1.7-0.2s-1,0-1.5,0c-0.4,0-0.9,0-1.3,0c-0.5,0-1.3,0.2-1.3,0.9C64.4,53.6,64.6,53.8,64.9,53.9
						L64.9,53.9z"/>
				</g>
			</g>
			<g>
				<g>
					<path class="st0" d="M49.3,53.6c0.3,0.6,1,0.5,1.6,0.5c0.5,0,1-0.1,1.5-0.1s1,0,1.5,0c0.1,0,0.3,0,0.4-0.1c0.1,0,0.1,0,0,0
						c0.1,0,0.1,0,0.2,0s0.2,0,0.3,0c0.1,0,0.1,0,0,0c0.1,0,0.2,0,0.3,0c0.4,0,0.7-0.2,0.8-0.6c0.1-0.3,0-0.8-0.4-1
						c-0.5-0.3-1.1-0.2-1.6-0.1c-0.1,0-0.1,0,0,0c-0.1,0-0.1,0-0.2,0s-0.3,0-0.4,0c-0.2,0-0.5,0-0.7,0c-0.5,0-1,0.1-1.4,0.1
						c-0.1,0-0.2,0-0.3,0c-0.1,0-0.5,0.1-0.4,0c-0.3,0-0.6,0-0.9,0.2C49.2,52.8,49.1,53.2,49.3,53.6L49.3,53.6z"/>
				</g>
			</g>
			<g>
				<g>
					<path class="st0" d="M54.5,53.1c0,0.3,0,0.5,0.1,0.8c0,0.2,0.1,0.4,0.1,0.6c0.1,0.4,0.2,0.9,0.4,1.3c0.2,0.9,0.5,1.8,0.9,2.6
						c0.2,0.4,0.7,0.5,1.1,0.4c0.4-0.2,0.7-0.6,0.5-1c-0.3-0.8-0.6-1.6-0.8-2.5c-0.1-0.4-0.2-0.8-0.4-1.2c-0.1-0.2-0.1-0.4-0.2-0.6
						c-0.1-0.3-0.2-0.5-0.4-0.7c-0.2-0.3-0.5-0.4-0.8-0.3C54.7,52.5,54.5,52.8,54.5,53.1L54.5,53.1z"/>
				</g>
			</g>
			<g>
				<g>
					<path class="st0" d="M54.7,44.5c-0.5,0.5-0.3,1.2-0.1,1.8c0.2,0.5,0.3,1,0.5,1.5s0.3,1.1,0.4,1.6s0.2,1.1,0.4,1.6
						c0.2,0.4,0.6,0.7,1.1,0.6c0.4-0.1,0.8-0.6,0.6-1.1c-0.2-0.5-0.3-1-0.4-1.5c-0.1-0.6-0.3-1.1-0.4-1.7c-0.2-0.5-0.3-1-0.6-1.5
						c-0.1-0.2-0.2-0.4-0.3-0.7c-0.1-0.2-0.2-0.5-0.4-0.7C55.3,44.3,54.9,44.3,54.7,44.5L54.7,44.5z"/>
				</g>
			</g>
			<g>
				<g>
					<path class="st0" d="M55.7,53.5c0.2-0.1,0.3-0.2,0.5-0.4c0.2-0.2,0.3-0.4,0.5-0.6c0,0.1-0.1,0.1-0.1,0.2
						c0.1-0.1,0.2-0.3,0.3-0.4c0,0.1-0.1,0.1-0.1,0.2c0.2-0.2,0.3-0.4,0.5-0.7c0.1-0.2,0.2-0.4,0.4-0.5c0,0.1-0.1,0.1-0.1,0.2
						c0.1-0.1,0.2-0.2,0.3-0.3c0.2-0.1,0.2-0.4,0.2-0.6S58,50.1,57.9,50c-0.2-0.1-0.4-0.3-0.6-0.2c-0.1,0-0.2,0-0.2,0
						c-0.1,0-0.3,0.1-0.4,0.2c-0.2,0.2-0.4,0.4-0.5,0.7c-0.1,0.2-0.3,0.4-0.4,0.6c0-0.1,0.1-0.1,0.1-0.2c-0.2,0.3-0.4,0.6-0.6,0.9
						c-0.1,0.2-0.3,0.5-0.4,0.7c-0.1,0.3,0,0.5,0.2,0.7c0.1,0.1,0.2,0.1,0.3,0.1C55.4,53.6,55.5,53.5,55.7,53.5L55.7,53.5z"/>
				</g>
			</g>
			<g>
				<g>
					<path class="st0" d="M56.6,51.1c0.5,0.3,1.2,0.2,1.8,0.2c0.5,0,1.1,0,1.6,0.1c0.6,0,1.1,0,1.7,0s1.2,0.1,1.7,0.1
						c-0.2-0.1-0.4-0.2-0.6-0.3l0,0c-0.1-0.2-0.2-0.4-0.3-0.6l0,0c0,0.4,0.2,0.7,0.5,0.8s0.7,0.1,0.9-0.2c0.2-0.2,0.2-0.4,0.3-0.7
						c0.1-0.5-0.5-0.9-0.9-0.9c-0.6,0-1.2-0.1-1.7-0.1c-0.6,0-1.2,0-1.7,0c-0.6,0-1.1,0-1.7,0s-1.3,0-1.8,0.4
						C56.2,50.4,56.3,50.9,56.6,51.1L56.6,51.1z"/>
				</g>
			</g>
		</g>
	</g>
</g>
</svg>
