<?xml version="1.0" encoding="utf-8"?>
<!-- Generator: Adobe Illustrator 24.3.0, SVG Export Plug-In . SVG Version: 6.00 Build 0)  -->
<svg version="1.1" id="Calque_1" xmlns="http://www.w3.org/2000/svg" xmlns:xlink="http://www.w3.org/1999/xlink" x="0px" y="0px"
	 viewBox="0 0 80 80" style="enable-background:new 0 0 80 80;" xml:space="preserve">
<style type="text/css">
	.st0{fill:#91D902;}
</style>
<g>
	<g>
		<g>
			<path class="st0" d="M28.6,27.2c-0.4,3.2-0.1,6.6-0.1,9.9c0,2,0,4.1,0,6.1c0,3.2,0,6.5,0,9.7c0,1.1,1.6,1.1,1.6,0
				c0-3.2,0-6.5,0-9.7c0-2,0-3.9,0-5.9c0-3.3,0.3-6.8-0.2-10.1C29.9,26.2,28.8,26.2,28.6,27.2L28.6,27.2z"/>
		</g>
	</g>
	<g>
		<g>
			<path class="st0" d="M50.6,27.2c-0.4,3.2-0.1,6.6-0.1,9.9c0,2,0,4.1,0,6.1c0,3.2,0,6.5,0,9.7c0,1.1,1.6,1.1,1.6,0
				c0-3.2,0-6.5,0-9.7c0-2,0-3.9,0-5.9c0-3.3,0.3-6.8-0.2-10.1C51.9,26.2,50.7,26.2,50.6,27.2L50.6,27.2z"/>
		</g>
	</g>
	<g>
		<g>
			<path class="st0" d="M22.7,21.2c-0.1,0-0.3,0-0.4,0c-0.3,0,0.1,0-0.1,0c-0.1,0-0.1,0-0.2,0c-0.3,0-0.5,0.1-0.7,0.2
				c-0.5,0.2-0.9,0.5-1.2,1s-0.4,1.1-0.4,1.7c0,0.5,0,1.1,0.2,1.6c0.4,1.1,1.4,2.3,2.7,2c1.1-0.2,1.7-1.5,1.8-2.5
				c0.2-1.4-0.2-2.9-1.1-4c-0.2-0.3-0.7-0.3-1-0.1s-0.5,0.6-0.4,0.9s0.2,0.5,0.3,0.8c0,0.1,0.1,0.2,0.1,0.3c0,0,0,0.1,0.1,0.1
				c0.1,0.2-0.1-0.2,0,0.1c0.1,0.2,0.1,0.4,0.2,0.6c0,0,0.1,0.4,0,0.2c0,0.1,0,0.2,0,0.3s0,0.2,0,0.4c0,0.1,0,0.1,0,0.2
				c0,0.2,0,0,0,0c0,0.2-0.1,0.4-0.1,0.6c0,0-0.1,0.2,0,0.1c0.1-0.1,0,0,0,0c0,0.1-0.1,0.2-0.1,0.2L22.3,26c0,0,0.1-0.1,0,0
				l-0.2,0.2c0-0.1,0.2-0.1,0,0H22c0-0.1,0.2-0.1,0,0c-0.1,0,0.2,0,0.1,0H22c0,0,0.2,0,0.1,0s-0.1,0,0,0C22,26.1,22,26,21.9,26
				c0,0-0.1-0.1,0,0h-0.1c-0.1-0.1-0.1-0.1-0.2-0.2c0.1,0.2,0-0.1-0.1-0.1c0,0,0-0.1-0.1-0.1v-0.1c0,0.1,0,0.1,0,0.1
				c-0.1-0.2-0.1-0.4-0.2-0.5V25c0,0.2,0,0.1,0,0s0-0.2,0-0.3c0-0.2,0-0.4,0-0.6c0-0.1,0,0.2,0,0V24c0-0.1,0.1-0.2,0.1-0.3
				c0,0,0.1-0.1,0,0c0-0.1,0.1-0.1,0.1-0.2l0.1-0.1c0,0-0.1,0.1,0,0c0,0,0.1,0,0.1-0.1c0.1-0.1-0.1,0.1,0,0l0.2-0.1
				c0,0-0.2,0.1-0.1,0c0.1,0,0.2-0.1,0.3-0.1c0.1-0.1-0.2,0.1,0,0h0.1c0.1,0,0.2-0.1,0.3-0.1s0.2,0,0.3-0.1c0,0,0.2-0.1,0,0
				c0.3-0.1,0.5-0.4,0.5-0.8C23.3,21.5,23,21.2,22.7,21.2L22.7,21.2z"/>
		</g>
	</g>
	<g>
		<g>
			<path class="st0" d="M26,19.5c-1.8-0.1-2.9,1.4-3.1,3c-0.1,0.8-0.2,1.6-0.1,2.4c0,0.7,0.1,1.5,0.3,2.2c0.2,0.8,0.6,1.7,1.4,2.1
				c0.9,0.6,2,0.2,2.8-0.5c1.4-1.2,1.5-3.5,1.5-5.3c0-0.9-0.1-1.9-0.6-2.7c-0.5-1-1.6-1.4-2.6-1.2s-0.7,1.7,0.2,1.7
				c0.1,0,0.5,0,0.3,0c0.1,0,0.2,0,0.2,0.1c-0.1-0.1,0,0,0,0s0.2,0.2,0.1,0l0.1,0.1c0.2,0.2-0.1-0.1,0.1,0.1c0,0.1,0.1,0.1,0.1,0.2
				c0,0,0.1,0.2,0.1,0.1c0-0.1,0,0.2,0,0.1c0,0.1,0.1,0.3,0.1,0.4c0,0.1,0,0.1,0,0.2c0,0.2,0-0.2,0,0.1c0,0.2,0,0.3,0,0.5
				c0,0.7,0,1.3-0.1,2c-0.1,0.6-0.2,1.3-0.5,1.9c-0.1,0.2-0.3,0.4-0.6,0.6c0,0-0.3,0.1-0.2,0.1c0,0-0.3,0-0.1,0
				c-0.2,0,0.1,0.1-0.1,0c0,0-0.2-0.1-0.1-0.1c0.1,0.1-0.1-0.1-0.1-0.1c-0.1-0.1,0,0,0,0c-0.1,0-0.1,0-0.1-0.1
				c-0.1-0.3-0.2-0.5-0.3-0.8c0-0.1,0-0.1,0-0.2c0,0,0-0.3,0-0.1c0-0.1,0-0.3,0-0.4c0-0.3,0-0.5-0.1-0.8c0-0.6-0.1-1.2,0-1.8
				c0-0.1,0-0.1,0-0.2c0-0.1,0-0.1,0,0c0-0.1,0-0.1,0-0.2c0-0.2,0.1-0.3,0.1-0.5c0-0.1,0.1-0.4,0.1-0.4s0.1-0.2,0.2-0.3
				c0.1-0.2,0.3-0.4,0.4-0.5c0.1-0.1,0.3-0.2,0.3-0.2c0.2-0.1,0.3-0.1,0.5-0.2C27,20.7,26.8,19.5,26,19.5L26,19.5z"/>
		</g>
	</g>
	<g>
		<g>
			<path class="st0" d="M57.3,27.8c0.1,0,0.3,0,0.4,0c0.3,0-0.1,0,0.1,0c0.1,0,0.1,0,0.2,0c0.3,0,0.5-0.1,0.7-0.2
				c0.5-0.2,0.9-0.5,1.2-1c0.3-0.5,0.4-1.1,0.4-1.7c0-0.5,0-1.1-0.2-1.6c-0.4-1.1-1.4-2.3-2.7-2c-1.1,0.2-1.7,1.5-1.8,2.5
				c-0.2,1.4,0.2,2.9,1.1,4c0.2,0.3,0.7,0.3,1,0.1s0.5-0.6,0.4-0.9c-0.1-0.3-0.2-0.5-0.3-0.8c0-0.1-0.1-0.2-0.1-0.3
				c0,0,0-0.1-0.1-0.1c-0.1-0.2,0.1,0.2,0-0.1c-0.1-0.2-0.1-0.4-0.2-0.6c0,0-0.1-0.4,0-0.2c0-0.1,0-0.2,0-0.3s0-0.2,0-0.4
				c0-0.1,0-0.1,0-0.2c0-0.2,0,0,0,0c0-0.2,0.1-0.4,0.1-0.6c0,0,0.1-0.2,0-0.1c-0.1,0.1,0,0,0,0c0-0.1,0.1-0.2,0.1-0.2l0.1-0.1
				c0,0-0.1,0.1,0,0l0.2-0.2c0,0.1-0.2,0.1,0,0H58c0,0.1-0.2,0.1,0,0c0.1,0-0.2,0-0.1,0H58c0,0-0.2,0-0.1,0s0.1,0,0,0
				c0.1,0,0.1,0.1,0.2,0.1c0,0,0.1,0.1,0,0l0.1,0.1c0.1,0.1,0.1,0.1,0.2,0.2c-0.1-0.2,0,0.1,0.1,0.1c0,0,0,0.1,0.1,0.1v0.1
				c0-0.1,0-0.1,0-0.1c0.1,0.2,0.1,0.4,0.2,0.5V24c0-0.2,0-0.1,0,0s0,0.2,0,0.3c0,0.2,0,0.4,0,0.6c0,0.1,0-0.2,0,0V25
				c0,0.1-0.1,0.2-0.1,0.3c0,0-0.1,0.1,0,0c0,0.1-0.1,0.1-0.1,0.2l-0.1,0.1c0,0,0.1-0.1,0,0c0,0-0.1,0-0.1,0.1c-0.1,0.1,0.1-0.1,0,0
				l-0.2,0.1c0,0,0.2-0.1,0.1,0c-0.1,0-0.2,0.1-0.3,0.1c-0.1,0.1,0.2-0.1,0,0h-0.1c-0.1,0-0.2,0.1-0.3,0.1c-0.1,0-0.2,0-0.3,0.1
				c0,0-0.2,0.1,0,0c-0.3,0.1-0.5,0.4-0.5,0.8C56.7,27.5,57,27.8,57.3,27.8L57.3,27.8z"/>
		</g>
	</g>
	<g>
		<g>
			<path class="st0" d="M54,29.5c1.8,0.1,2.9-1.4,3.1-3c0.1-0.8,0.2-1.6,0.1-2.4c0-0.7-0.1-1.5-0.3-2.2c-0.2-0.8-0.6-1.7-1.4-2.1
				c-0.9-0.6-2-0.2-2.8,0.5c-1.4,1.2-1.5,3.5-1.5,5.3c0,0.9,0.1,1.9,0.6,2.7c0.5,1,1.6,1.4,2.6,1.2s0.7-1.7-0.2-1.7
				c-0.1,0-0.5,0-0.3,0c-0.1,0-0.2,0-0.2-0.1c0.1,0.1,0,0,0,0s-0.2-0.2-0.1,0l-0.1-0.1c-0.2-0.2,0.1,0.1-0.1-0.1
				c0-0.1-0.1-0.1-0.1-0.2c0,0-0.1-0.2-0.1-0.1c0,0.1,0-0.2,0-0.1c0-0.1-0.1-0.3-0.1-0.4c0-0.1,0-0.1,0-0.2c0-0.2,0,0.2,0-0.1
				c0-0.2,0-0.3,0-0.5c0-0.7,0-1.3,0.1-2c0.1-0.6,0.2-1.3,0.5-1.9c0.1-0.2,0.3-0.4,0.6-0.6c0,0,0.3-0.1,0.2-0.1c0,0,0.3,0,0.1,0
				c0.2,0-0.1-0.1,0.1,0c0,0,0.2,0.1,0.1,0.1c-0.1-0.1,0.1,0.1,0.1,0.1c0.1,0.1,0,0,0,0c0.1,0.1,0.1,0.1,0.1,0.2
				c0.1,0.3,0.2,0.5,0.3,0.8c0,0.1,0,0.1,0,0.2c0,0,0,0.3,0,0.1c0,0.1,0,0.3,0,0.4c0,0.3,0,0.5,0.1,0.8c0,0.6,0.1,1.2,0,1.8
				c0,0.1,0,0.1,0,0.2c0,0.1,0,0.1,0,0c0,0.1,0,0.1,0,0.2c0,0.2-0.1,0.3-0.1,0.5c0,0.1-0.1,0.4-0.1,0.4s-0.1,0.2-0.2,0.3
				c-0.1,0.2-0.3,0.4-0.4,0.5s-0.3,0.2-0.3,0.2c-0.2,0.1-0.3,0.1-0.5,0.2C53,28.2,53.2,29.3,54,29.5L54,29.5z"/>
		</g>
	</g>
	<g>
		<g>
			<path class="st0" d="M22.7,52.2c-0.1,0-0.3,0-0.4,0c-0.3,0,0.1,0-0.1,0c-0.1,0-0.1,0-0.2,0c-0.3,0-0.5,0.1-0.7,0.2
				c-0.5,0.2-0.9,0.5-1.2,1s-0.4,1.1-0.4,1.7c0,0.5,0,1.1,0.2,1.6c0.4,1.1,1.4,2.3,2.7,2c1.1-0.2,1.7-1.5,1.8-2.5
				c0.2-1.4-0.2-2.9-1.1-4c-0.2-0.3-0.7-0.3-1-0.1c-0.3,0.2-0.5,0.6-0.4,0.9s0.2,0.5,0.3,0.8c0,0.1,0.1,0.2,0.1,0.3
				c0,0,0,0.1,0.1,0.1c0.1,0.2-0.1-0.2,0,0.1c0.1,0.2,0.1,0.4,0.2,0.6c0,0,0.1,0.4,0,0.2c0,0.1,0,0.2,0,0.3s0,0.2,0,0.4
				c0,0.1,0,0.1,0,0.2c0,0.2,0,0,0,0c0,0.2-0.1,0.4-0.1,0.6c0,0-0.1,0.2,0,0.1s0,0,0,0c0,0.1-0.1,0.2-0.1,0.2L22.3,57
				c0,0,0.1-0.1,0,0l-0.2,0.2c0-0.1,0.2-0.1,0,0H22c0-0.1,0.2-0.1,0,0c-0.1,0,0.2,0,0.1,0H22c0,0,0.2,0,0.1,0s-0.1,0,0,0
				c-0.1,0-0.1-0.1-0.2-0.1c0,0-0.1-0.1,0,0L21.8,57c-0.1-0.1-0.1-0.1-0.2-0.2c0.1,0.2,0-0.1-0.1-0.1c0,0,0-0.1-0.1-0.1v-0.1
				c0,0.1,0,0.1,0,0.1c-0.1-0.2-0.1-0.4-0.2-0.5V56c0,0.2,0,0.1,0,0s0-0.2,0-0.3c0-0.2,0-0.4,0-0.6c0-0.1,0,0.2,0,0V55
				c0-0.1,0.1-0.2,0.1-0.3c0,0,0.1-0.1,0,0c0-0.1,0.1-0.1,0.1-0.2l0.1-0.1c0,0-0.1,0.1,0,0c0,0,0.1,0,0.1-0.1c0.1-0.1-0.1,0.1,0,0
				l0.2-0.1c0,0-0.2,0.1-0.1,0c0.1,0,0.2-0.1,0.3-0.1c0.1-0.1-0.2,0.1,0,0h0.1c0.1,0,0.2-0.1,0.3-0.1s0.2,0,0.3-0.1c0,0,0.2-0.1,0,0
				c0.3-0.1,0.5-0.4,0.5-0.8C23.3,52.6,23,52.2,22.7,52.2L22.7,52.2z"/>
		</g>
	</g>
	<g>
		<g>
			<path class="st0" d="M26,50.6c-1.8-0.1-2.9,1.4-3.1,3c-0.1,0.8-0.2,1.6-0.1,2.4c0,0.7,0.1,1.5,0.3,2.2c0.2,0.8,0.6,1.7,1.4,2.1
				c0.9,0.6,2,0.2,2.8-0.5c1.4-1.2,1.5-3.5,1.5-5.3c0-0.9-0.1-1.9-0.6-2.7c-0.5-1-1.6-1.4-2.6-1.2c-1,0.2-0.7,1.7,0.2,1.7
				c0.1,0,0.5,0,0.3,0c0.1,0,0.2,0,0.2,0.1c-0.1-0.1,0,0,0,0s0.2,0.2,0.1,0l0.1,0.1c0.2,0.2-0.1-0.1,0.1,0.1c0,0.1,0.1,0.1,0.1,0.2
				c0,0,0.1,0.2,0.1,0.1s0,0.2,0,0.1c0,0.1,0.1,0.3,0.1,0.4s0,0.1,0,0.2c0,0.2,0-0.2,0,0.1c0,0.2,0,0.3,0,0.5c0,0.7,0,1.3-0.1,2
				c-0.1,0.6-0.2,1.3-0.5,1.9c-0.1,0.2-0.3,0.4-0.6,0.6c0,0-0.3,0.1-0.2,0.1c0,0-0.3,0-0.1,0c-0.2,0,0.1,0.1-0.1,0
				c0,0-0.2-0.1-0.1-0.1c0.1,0.1-0.1-0.1-0.1-0.1c-0.1-0.1,0,0,0,0C25,58.4,25,58.4,25,58.3c-0.1-0.3-0.2-0.5-0.3-0.8
				c0-0.1,0-0.1,0-0.2c0,0,0-0.3,0-0.1c0-0.1,0-0.3,0-0.4c0-0.3,0-0.5-0.1-0.8c0-0.6-0.1-1.2,0-1.8c0-0.1,0-0.1,0-0.2s0-0.1,0,0
				c0-0.1,0-0.1,0-0.2c0-0.2,0.1-0.3,0.1-0.5c0-0.1,0.1-0.4,0.1-0.4s0.1-0.2,0.2-0.3c0.1-0.2,0.3-0.4,0.4-0.5
				c0.1-0.1,0.3-0.2,0.3-0.2c0.2-0.1,0.3-0.1,0.5-0.2C27,51.8,26.8,50.7,26,50.6L26,50.6z"/>
		</g>
	</g>
	<g>
		<g>
			<path class="st0" d="M57.3,58.8c0.1,0,0.3,0,0.4,0c0.3,0-0.1,0,0.1,0c0.1,0,0.1,0,0.2,0c0.3,0,0.5-0.1,0.7-0.2
				c0.5-0.2,0.9-0.5,1.2-1c0.3-0.5,0.4-1.1,0.4-1.7c0-0.5,0-1.1-0.2-1.6c-0.4-1.1-1.4-2.3-2.7-2c-1.1,0.2-1.7,1.5-1.8,2.5
				c-0.2,1.4,0.2,2.9,1.1,4c0.2,0.3,0.7,0.3,1,0.1c0.3-0.2,0.5-0.6,0.4-0.9s-0.2-0.5-0.3-0.8c0-0.1-0.1-0.2-0.1-0.3
				c0,0,0-0.1-0.1-0.1c-0.1-0.2,0.1,0.2,0-0.1c-0.1-0.2-0.1-0.4-0.2-0.6c0,0-0.1-0.4,0-0.2c0-0.1,0-0.2,0-0.3s0-0.2,0-0.4
				c0-0.1,0-0.1,0-0.2c0-0.2,0,0,0,0c0-0.2,0.1-0.4,0.1-0.6c0,0,0.1-0.2,0-0.1s0,0,0,0c0-0.1,0.1-0.2,0.1-0.2l0.1-0.1
				c0,0-0.1,0.1,0,0l0.2-0.2c0,0.1-0.2,0.1,0,0H58c0,0.1-0.2,0.1,0,0c0.1,0-0.2,0-0.1,0H58c0,0-0.2,0-0.1,0s0.1,0,0,0
				c0.1,0,0.1,0.1,0.2,0.1c0,0,0.1,0.1,0,0l0.1,0.1c0.1,0.1,0.1,0.1,0.2,0.2c-0.1-0.2,0,0.1,0.1,0.1c0,0,0,0.1,0.1,0.1v0.1
				c0-0.1,0-0.1,0-0.1c0.1,0.2,0.1,0.4,0.2,0.5V55c0-0.2,0-0.1,0,0s0,0.2,0,0.3c0,0.2,0,0.4,0,0.6c0,0.1,0-0.2,0,0V56
				c0,0.1-0.1,0.2-0.1,0.3c0,0-0.1,0.1,0,0c0,0.1-0.1,0.1-0.1,0.2l-0.1,0.1c0,0,0.1-0.1,0,0c0,0-0.1,0-0.1,0.1c-0.1,0.1,0.1-0.1,0,0
				l-0.2,0.1c0,0,0.2-0.1,0.1,0c-0.1,0-0.2,0.1-0.3,0.1c-0.1,0.1,0.2-0.1,0,0h-0.1c-0.1,0-0.2,0.1-0.3,0.1c-0.1,0-0.2,0-0.3,0.1
				c0,0-0.2,0.1,0,0c-0.3,0.1-0.5,0.4-0.5,0.8C56.7,58.6,57,58.8,57.3,58.8L57.3,58.8z"/>
		</g>
	</g>
	<g>
		<g>
			<path class="st0" d="M54,60.4c1.8,0.1,2.9-1.4,3.1-3c0.1-0.8,0.2-1.6,0.1-2.4c0-0.7-0.1-1.5-0.3-2.2c-0.2-0.8-0.6-1.7-1.4-2.1
				c-0.9-0.6-2-0.2-2.8,0.5c-1.4,1.2-1.5,3.5-1.5,5.3c0,0.9,0.1,1.9,0.6,2.7c0.5,1,1.6,1.4,2.6,1.2c1-0.2,0.7-1.7-0.2-1.7
				c-0.1,0-0.5,0-0.3,0c-0.1,0-0.2,0-0.2-0.1c0.1,0.1,0,0,0,0s-0.2-0.2-0.1,0l-0.1-0.1c-0.2-0.2,0.1,0.1-0.1-0.1
				c0-0.1-0.1-0.1-0.1-0.2c0,0-0.1-0.2-0.1-0.1s0-0.2,0-0.1c0-0.1-0.1-0.3-0.1-0.4s0-0.1,0-0.2c0-0.2,0,0.2,0-0.1c0-0.2,0-0.3,0-0.5
				c0-0.7,0-1.3,0.1-2c0.1-0.6,0.2-1.3,0.5-1.9c0.1-0.2,0.3-0.4,0.6-0.6c0,0,0.3-0.1,0.2-0.1c0,0,0.3,0,0.1,0c0.2,0-0.1-0.1,0.1,0
				c0,0,0.2,0.1,0.1,0.1c-0.1-0.1,0.1,0.1,0.1,0.1c0.1,0.1,0,0,0,0c0.1,0.1,0.1,0.1,0.1,0.2c0.1,0.3,0.2,0.5,0.3,0.8
				c0,0.1,0,0.1,0,0.2c0,0,0,0.3,0,0.1c0,0.1,0,0.3,0,0.4c0,0.3,0,0.5,0.1,0.8c0,0.6,0.1,1.2,0,1.8c0,0.1,0,0.1,0,0.2s0,0.1,0,0
				c0,0.1,0,0.1,0,0.2c0,0.2-0.1,0.3-0.1,0.5c0,0.1-0.1,0.4-0.1,0.4s-0.1,0.2-0.2,0.3c-0.1,0.2-0.3,0.4-0.4,0.5S54.3,59,54.3,59
				c-0.2,0.1-0.3,0.1-0.5,0.2C53,59.3,53.2,60.4,54,60.4L54,60.4z"/>
		</g>
	</g>
	<g>
		<g>
			<path class="st0" d="M27.8,22.5c1.5,0.6,3.4,0.1,5,0.1c2.2,0,4.3-0.1,6.5-0.1s4.3-0.1,6.5-0.2c2.1-0.1,4.2-0.2,6.4,0
				c1.1,0.1,1-1.5,0-1.7c-4.1-0.5-8.3,0.1-12.4,0.2c-2.2,0-4.3,0.1-6.5,0.1c-1.6,0-3.5,0.5-5,0.1C27.3,21,27,22.2,27.8,22.5
				L27.8,22.5z"/>
		</g>
	</g>
	<g>
		<g>
			<path class="st0" d="M27.7,27.8c1.9,0.3,3.8,0,5.7,0c2.2,0,4.3,0.1,6.5,0.2c2.1,0,4.2,0,6.2-0.1c2.1-0.1,4.1-0.2,6.1,0.4
				c1,0.3,1.5-1.3,0.4-1.6c-1.9-0.6-3.9-0.6-5.8-0.5c-2.1,0.1-4.2,0.2-6.2,0.1c-2.1,0-4.2-0.1-6.2-0.2c-1.1,0-2.2-0.1-3.3,0
				s-2.1,0.2-3.2,0.1C27.1,26.2,26.9,27.7,27.7,27.8L27.7,27.8z"/>
		</g>
	</g>
	<g>
		<g>
			<path class="st0" d="M27.2,53.2c1.5,0.7,3.5,0.6,5.1,0.7c2.6,0.1,5.3,0.2,7.9,0.2c2.3,0,4.7,0.1,7,0.1c0.7,0,1.3,0,2,0
				c1.1,0,2.3,0.3,3.4-0.1c1-0.4,0.6-1.8-0.4-1.6c-1,0.2-2,0-3.1-0.1c-0.7,0-1.4,0-2.1,0c-2.3,0-4.6,0-6.8-0.1
				c-4.2-0.1-8.5-0.2-12.7-0.5C26.9,52,26.6,53,27.2,53.2L27.2,53.2z"/>
		</g>
	</g>
	<g>
		<g>
			<path class="st0" d="M27.2,58.1c1.5,0.7,3.5,0.6,5.1,0.7c2.6,0.1,5.3,0.2,7.9,0.2c2.3,0,4.7,0.1,7,0.1c0.7,0,1.3,0,2,0
				c1.1,0,2.3,0.3,3.4-0.1c1-0.4,0.6-1.8-0.4-1.6c-1,0.2-2,0-3.1-0.1c-0.7,0-1.4,0-2.1,0c-2.3,0-4.6,0-6.8-0.1
				c-4.2-0.1-8.5-0.2-12.7-0.5C26.9,56.8,26.6,57.8,27.2,58.1L27.2,58.1z"/>
		</g>
	</g>
	<g>
		<g>
			<path class="st0" d="M33.6,33.7c0.6,0.3,1.4,0.2,2.1,0.2c0.6,0,1.3,0.1,1.9,0.2c1.1,0.1,2.2,0.1,3.2,0.3c0.4,0.1,0.8-0.1,0.9-0.5
				c0.1-0.4-0.2-0.8-0.5-0.9c-0.6-0.2-1.2-0.3-1.8-0.3s-1.1,0-1.7-0.1c-0.6,0-1.2-0.1-1.9-0.1s-1.6-0.1-2.2,0.2
				C33.2,32.8,33.2,33.5,33.6,33.7L33.6,33.7z"/>
		</g>
	</g>
	<g>
		<g>
			<path class="st0" d="M36.9,37c0.6,0.1,1.2,0.1,1.9,0.1c0.6,0,1.3,0,1.9-0.1c1.2-0.1,2.5-0.1,3.7-0.1c1,0,1-1.5,0-1.5
				c-1.2-0.1-2.5,0-3.7,0c-0.6,0-1.2,0.1-1.8,0.1s-1.3,0-1.9,0.2C36.3,35.8,36.3,36.8,36.9,37L36.9,37z"/>
		</g>
	</g>
	<g>
		<g>
			<path class="st0" d="M34.7,40.5c1.2,0.2,2.5,0.1,3.7,0.1s2.4,0,3.7,0c1,0,1-1.5,0-1.5c-1.2,0-2.4,0-3.7,0c-1.2,0-2.5-0.1-3.7,0.1
				C34,39.2,34,40.3,34.7,40.5L34.7,40.5z"/>
		</g>
	</g>
	<g>
		<g>
			<path class="st0" d="M37.7,43.8c0.5,0.4,1.2,0.4,1.8,0.5s1.2,0.1,1.9,0.1c1.2,0,2.5-0.1,3.7-0.1c1,0,1-1.5,0-1.5
				c-1.2,0-2.4,0.1-3.6,0.1c-0.6,0-1.2,0-1.7,0c-0.3,0-0.5-0.1-0.8-0.1c-0.3-0.1-0.6-0.1-0.9-0.1C37.3,42.7,37.2,43.5,37.7,43.8
				L37.7,43.8z"/>
		</g>
	</g>
</g>
</svg>
