<?xml version="1.0" encoding="utf-8"?>
<!-- Generator: Adobe Illustrator 24.3.0, SVG Export Plug-In . SVG Version: 6.00 Build 0)  -->
<svg version="1.1" id="Calque_1" xmlns="http://www.w3.org/2000/svg" xmlns:xlink="http://www.w3.org/1999/xlink" x="0px" y="0px"
	 viewBox="0 0 80 80" style="enable-background:new 0 0 80 80;" xml:space="preserve">
<style type="text/css">
	.st0{fill:#91D902;}
</style>
<g>
	<g>
		<g>
			<g>
				<path class="st0" d="M22,48.8c-0.7,0-0.9,0.9-1,1.5c-0.1,0.7-0.1,1.5-0.1,2.2s0,1.4-0.1,2.2c-0.1,1.1-0.4,2.2-0.3,3.3
					c0.1,1,1.6,1,1.6,0c-0.1-1,0.2-2,0.3-3c0.1-0.7,0.1-1.4,0.1-2.2c0-0.7,0-1.3,0-2c0-0.3,0-0.5,0.1-0.8c0-0.1,0.1-0.3,0-0.2
					c0-0.1,0.1-0.3,0-0.5C22.6,49,22.3,48.8,22,48.8L22,48.8z"/>
			</g>
		</g>
		<g>
			<g>
				<path class="st0" d="M33.7,21.5c-0.6,1.3-0.6,2.7-0.3,4.1c0.2,1.5,1,2.6,2,3.7c0.5,0.5,1,1,1.5,1.5c0.4,0.4,1.3,1,0.7,1.5
					c-0.4,0.4-1,0.4-1.5,0.5c-0.6,0.1-1.2,0.3-1.7,0.7c-0.8,0.7,0.4,1.9,1.2,1.2c0.4-0.3,1.1-0.3,1.6-0.4c0.7-0.2,1.3-0.4,1.8-1
					c1.2-1.4,0.1-2.7-1-3.7c-1-1-2.3-2-2.9-3.3c-0.5-1.3-0.5-2.8-0.3-4.2C35,21.3,34,20.8,33.7,21.5L33.7,21.5z"/>
			</g>
		</g>
		<g>
			<g>
				<path class="st0" d="M34.5,33.8c-0.3,0.7-0.2,1.4-0.2,2.1c0,0.8,0,1.7,0,2.5c0,0.4,0.4,0.8,0.8,0.8c0.4,0,0.8-0.4,0.8-0.8
					c0-0.8,0-1.6,0-2.4c0-0.3-0.1-0.6-0.1-0.9c0-0.2,0-0.3,0-0.5c0-0.1,0-0.3,0,0c0-0.2,0-0.3,0-0.1v-0.1c0.1-0.4-0.1-0.7-0.4-0.9
					C35.1,33.4,34.6,33.5,34.5,33.8L34.5,33.8z"/>
			</g>
		</g>
		<g>
			<g>
				<path class="st0" d="M35.6,37.8c-0.5-0.3-1.2-0.2-1.8-0.2c-0.5,0-1.1,0-1.6,0c-1.1,0-2.2-0.3-3.3-0.2c-0.4,0-0.7,0.2-0.8,0.6
					c-0.4,1.5,0.1,3.1,1,4.3c0.5,0.7,1.2,1.1,2,1.5c0.3,0.1,0.7,0.2,1,0.3c0.2,0,0.4,0.1,0.5,0.1s0.1,0,0.2,0.1h0.1
					c-0.1,0-0.1,0,0,0c0.9,0.5,1.7-0.9,0.8-1.4c-0.6-0.3-1.2-0.3-1.8-0.5c-0.5-0.2-1.1-0.5-1.5-1l-0.1-0.1c0-0.1-0.1-0.1-0.1-0.2
					C30.1,41,30,40.9,30,40.7c-0.2-0.3-0.2-0.5-0.3-0.8c0-0.1-0.1-0.3-0.1-0.4c0-0.2,0-0.1,0-0.3s0-0.3,0-0.5c0-0.1,0,0.2,0-0.1
					c0-0.1,0-0.2,0.1-0.2c-0.3,0.2-0.5,0.4-0.8,0.6c1.1-0.1,2.2,0.2,3.3,0.2c0.5,0,1.1,0,1.6-0.1c0.6,0,1.3,0,1.8-0.2
					C36,38.7,36,38.1,35.6,37.8L35.6,37.8z"/>
			</g>
		</g>
		<g>
			<g>
				<path class="st0" d="M15.6,46.2c1,1.9,3.7,2.5,5.5,3.2c2,0.9,4,1.7,6.2,1.8c1.8,0.1,3.8-0.2,5.2-1.3c0.7-0.6,1.2-1.4,1.3-2.3
					c0-0.6-0.1-1.1-0.3-1.6c-0.3-0.8-0.2-1.3,0.3-2c0.6-0.9-0.9-1.8-1.4-0.8c-0.6,0.9-0.9,1.9-0.6,3c0.3,0.9,0.6,1.7-0.1,2.4
					c-1.1,1.1-2.9,1.1-4.3,1.1c-1.9-0.1-3.6-0.9-5.4-1.6c-0.9-0.4-1.8-0.7-2.7-1.1c-0.8-0.3-1.8-0.7-2.3-1.5
					C16.3,44.6,15.1,45.3,15.6,46.2L15.6,46.2z"/>
			</g>
		</g>
	</g>
	<g>
		<g>
			<path class="st0" d="M45.4,42.8c-0.2-0.1-0.4-0.2-0.6-0.2c-0.2-0.1-0.5-0.1-0.8-0.1c-0.6,0-1.2,0.2-1.6,0.6
				c-0.7,0.6-0.8,1.8-0.6,2.7c0.1,0.4,0.3,0.8,0.7,1.1c0.4,0.3,0.9,0.5,1.4,0.6c0.9,0.1,2-0.4,2.4-1.3c0.3-0.6,0.3-1.2,0.2-1.8
				C46.4,43.8,46,43.2,45.4,42.8c-0.2-0.1-0.7,0-0.9,0.2c-0.1,0.1-0.2,0.2-0.2,0.4c-0.1,0.2,0,0.5,0.1,0.6s0.2,0.2,0.3,0.3
				c0,0,0,0,0.1,0.1c-0.2-0.2-0.1-0.1,0,0c0,0.1,0.1,0.1,0.1,0.2s0,0.2,0,0c0,0.1,0,0.1,0.1,0.2c0,0.1,0,0.1,0.1,0.2
				c0,0.2,0-0.2,0-0.1V45c0,0.1,0,0.2,0,0.2c0,0.1,0,0.1,0-0.1c0,0.1,0,0.1,0,0.2v0.1c0,0.2,0.1-0.2,0,0c0,0.1-0.1,0.1-0.1,0.2
				c0.1-0.2,0.1-0.1,0,0l-0.1,0.1c0,0,0,0-0.1,0.1c0.1-0.1,0.1-0.1,0.1-0.1s0,0-0.1,0s-0.1,0.1-0.2,0.1c-0.1,0.1,0.2-0.1,0,0h-0.1
				c-0.1,0-0.1,0-0.2,0c-0.2,0,0.2,0,0.1,0h-0.1c-0.1,0-0.1,0-0.2,0c-0.2,0,0.2,0,0.1,0h-0.1c-0.1,0-0.1,0-0.2-0.1
				c-0.1,0,0.2,0.1,0.1,0c0,0-0.1,0-0.1-0.1c0,0-0.1,0-0.1-0.1c-0.1-0.1,0.2,0.1,0.1,0l-0.1-0.1c-0.1-0.1,0.1,0.2,0,0.1
				c0,0,0,0,0-0.1c0,0,0-0.1-0.1-0.1c-0.1-0.2,0,0.1,0,0s0-0.1-0.1-0.2c0-0.1,0-0.3,0,0c0-0.2,0-0.3,0-0.5v-0.1c0-0.1,0.1-0.2,0,0.1
				c0-0.1,0-0.1,0-0.2v-0.1c0-0.1-0.1,0.2,0,0.1c0,0,0,0,0-0.1c0,0,0,0,0-0.1s0,0-0.1,0.1c0,0,0,0,0.1-0.1l0,0c0.1-0.1,0,0-0.1,0.1
				c0,0,0.1,0,0.1-0.1c0.1,0,0.1,0,0,0c0.1,0,0.2-0.1,0.3-0.1l0,0c0.1,0,0.1,0-0.1,0c0,0,0.1,0,0.2,0h0.1h0.1c-0.1,0-0.2,0-0.1,0
				s0.2,0,0.3,0.1c0.3,0.1,0.5,0.1,0.8,0.1c0.4,0,0.7-0.3,0.7-0.6C46,43.3,45.7,43,45.4,42.8L45.4,42.8z"/>
		</g>
	</g>
	<g>
		<g>
			<path class="st0" d="M54.2,42.6c0-0.3-0.1-0.4-0.3-0.6c-0.1-0.1-0.2-0.2-0.3-0.3c-0.3-0.2-0.5-0.2-0.8-0.3c-0.2,0-0.4,0-0.6,0
				s-0.5,0-0.7,0.1c-0.5,0.2-0.9,0.5-1.2,1c-0.2,0.4-0.4,1-0.3,1.5c0,0.5,0.2,1,0.6,1.4s0.9,0.6,1.4,0.7c1,0.1,2.1-0.3,2.6-1.1
				c0.2-0.4,0.3-0.9,0.3-1.3c0-0.7-0.3-1.4-0.9-1.7c-0.3-0.1-0.7-0.1-0.9,0.1c-0.2,0.3-0.3,0.6-0.1,0.9c0.1,0.1,0-0.2,0,0
				c0,0,0.1,0.2,0.1,0.3s0.1,0.1,0.1,0.2s-0.1-0.2,0-0.1v0.1c0,0.1,0,0.2,0,0.2c0-0.1,0-0.2,0-0.2c0,0.2,0,0.3,0,0.5
				c0-0.1,0-0.2,0-0.2c0,0.1,0,0.2-0.1,0.4c0,0.1,0.1-0.2,0-0.1c0,0,0,0.1-0.1,0.1c-0.1,0.1,0.1-0.2,0,0l-0.1,0.1
				c-0.1,0.1-0.2,0.1,0,0c0,0-0.1,0-0.1,0.1c0,0-0.1,0-0.1,0.1c0,0-0.2,0.1,0,0s0,0,0,0h-0.1c-0.1,0-0.2,0-0.3,0.1
				c0.1,0,0.2,0,0.2,0c-0.1,0-0.2,0-0.3,0c-0.1,0-0.1,0-0.2,0c0,0,0,0-0.1,0s0.1,0,0.1,0c-0.1,0-0.2,0-0.3-0.1h-0.1
				c0,0,0.2,0.1,0.1,0l-0.1-0.1c0,0-0.2-0.1,0,0c0.1,0.1,0,0,0,0s-0.1-0.1,0,0s0,0,0-0.1c0,0,0-0.1-0.1-0.1c0-0.1,0.1,0.1,0,0.1
				v-0.1v-0.1c0-0.2,0,0.2,0,0c0-0.1,0-0.2,0-0.3s0,0.2,0,0c0-0.1,0-0.1,0-0.2v-0.1v-0.1c0,0-0.1,0.2,0,0.1c0,0,0-0.1,0.1-0.1
				c0,0,0.1-0.2,0-0.1s0,0,0,0l0.1-0.1c0.1-0.1-0.2,0.1-0.1,0.1l0,0c0,0,0.1,0,0.1-0.1c-0.1,0.1-0.2,0.1-0.1,0h0.1h0.1h0.1
				c0.1,0,0.2,0-0.1,0h0.1c0.2,0,0.5,0,0.7,0c0,0,0.1,0,0,0s0,0,0,0s0,0,0.1,0s-0.1,0-0.1,0h0.1c0.1,0.1-0.2-0.2,0,0
				c0.1,0.1,0.2,0.1,0.3,0.2C53.7,43.4,54.2,43,54.2,42.6L54.2,42.6z"/>
		</g>
	</g>
	<g>
		<g>
			<path class="st0" d="M46.5,43.9c0-0.2,0-0.5,0-0.7c0-0.3,0-0.6,0-0.9c0-0.7,0-1.5,0-2.2s-0.1-1.4-0.1-2.1c0-0.3,0-0.5,0-0.8
				c0-0.1,0-0.3-0.1-0.4c0-0.1,0-0.3,0-0.1c-0.1,0.1-0.1,0.2-0.2,0.4c0-0.1-0.1,0,0,0s0.2,0,0.2,0c0.2,0,0.4,0,0.7-0.1
				c0.8-0.1,1.5-0.2,2.3-0.3s1.5-0.2,2.3-0.4c0.8-0.1,1.5-0.4,2.2-0.5c-0.3-0.3-0.5-0.5-0.8-0.8c0,0.5-0.1,0.9-0.2,1.3
				c-0.1,0.5-0.1,1-0.1,1.5c0,0.6,0,1.3,0,1.9c0,1.3,0.1,2.6,0.2,3.9c0,1.1,1.8,1.1,1.7,0c-0.1-1.3-0.2-2.6-0.2-3.9
				c0-0.6,0-1.2-0.1-1.8c0-0.5,0-1,0-1.5c0.1-0.5,0.2-1,0.2-1.5c0-0.4-0.4-0.9-0.8-0.8c-0.9,0.1-1.7,0.4-2.5,0.5
				c-0.9,0.2-1.7,0.3-2.6,0.4c-0.7,0.1-1.3,0.2-2,0.3c-0.6,0.1-1.3,0.1-1.7,0.5c-0.5,0.5-0.3,1.1-0.3,1.6c0,0.8,0.1,1.5,0.1,2.3
				c0,0.9,0,1.8,0,2.6c0,0.7-0.1,1.4,0.2,2C45.5,45.2,46.7,44.7,46.5,43.9L46.5,43.9z"/>
		</g>
	</g>
	<g>
		<g>
			<path class="st0" d="M45.7,39.9c0.4,0.1,0.8,0.1,1.2,0c0.4-0.1,0.7-0.1,1-0.2c0.8-0.1,1.7-0.2,2.5-0.3c0.7-0.1,1.4-0.2,2.2-0.3
				c0.1,0,0.2,0,0.4-0.1c0.1,0,0.1,0,0.2,0c-0.1,0,0,0,0,0c0.1,0,0.1,0,0.2,0c0,0,0.2,0,0.1,0c-0.2,0,0.1,0,0.1,0c0.1,0,0.1,0,0.2,0
				c0.2,0,0.1,0-0.1,0c0.4,0,0.8-0.4,0.8-0.8c-0.1-1-1-0.9-1.7-0.8c-0.6,0.1-1.2,0.2-1.9,0.3c-0.9,0.1-1.8,0.3-2.6,0.4
				c-0.5,0.1-0.9,0.1-1.4,0.2c-0.4,0.1-0.7,0.2-1.1,0.4C45.1,38.8,45.1,39.7,45.7,39.9L45.7,39.9z"/>
		</g>
	</g>
	<g>
		<g>
			<path class="st0" d="M57.1,52.7C57.1,52.6,57.1,52.6,57.1,52.7C57,52.6,57.1,52.7,57.1,52.7s-0.2-0.2-0.3-0.2
				c-0.1-0.1-0.2-0.1-0.2-0.2c-0.2-0.1-0.4-0.2-0.7-0.3c-0.5-0.2-1.1-0.2-1.5,0c-1,0.4-1.5,1.4-1.5,2.4c-0.1,1,0.5,1.8,1.3,2.2
				c0.9,0.4,2.1,0.3,2.9-0.4c0.5-0.4,0.6-1.1,0.7-1.7s-0.1-1.3-0.5-1.8c-0.3-0.3-0.7-0.3-1-0.1c-0.1,0.1-0.2,0.2-0.3,0.3
				c-0.1,0.2-0.2,0.5-0.1,0.6s0.1,0.3,0.2,0.4s0-0.1,0-0.1v0.1c0,0.1,0,0.1,0.1,0.2c-0.1-0.2,0-0.1,0,0s0,0.1,0,0.2s0,0.2,0,0.3
				c0-0.2,0-0.2,0-0.1v0.1c0,0.1-0.1,0.1-0.1,0.2c0-0.2,0.1-0.1,0,0c0,0,0,0.1-0.1,0.1c-0.1,0.1-0.1,0,0-0.1l-0.1,0.1
				c0,0-0.1,0.1,0,0s0,0,0,0c-0.1,0-0.1,0.1-0.2,0.1c-0.1,0.1,0.2-0.1,0.1,0c-0.1,0-0.1,0-0.2,0h-0.1c-0.1,0-0.2,0,0.1,0
				c-0.1,0-0.1,0-0.2,0h-0.1c0,0-0.2,0,0,0s0,0,0,0c-0.1,0-0.1,0-0.2,0H55c-0.1,0-0.1-0.1,0,0c-0.1,0-0.1-0.1-0.2-0.1
				c0,0-0.1,0-0.1-0.1c-0.1-0.1,0.2,0.1,0,0c-0.1-0.1-0.1-0.1-0.2-0.2c0.2,0.2,0.1,0.1,0,0v-0.1c0.1,0.2,0.1,0.2,0,0.1
				c0-0.1,0-0.1-0.1-0.2c0.1,0.2,0,0.2,0,0.1s0-0.1,0-0.2s0-0.1,0-0.2c0,0.2,0,0.1,0,0V54c0-0.2,0.1-0.3,0.1-0.5c-0.1,0.3,0,0,0,0
				s0-0.1,0.1-0.1c0,0,0.1-0.1,0,0s0,0,0,0l0.1-0.1c0.1-0.1-0.2,0.1-0.1,0c0,0,0.1,0,0.1-0.1c0.1-0.1-0.2,0.1-0.1,0h0.1
				c0.1,0,0.1,0-0.1,0h0.1c0.1,0,0.1,0,0.2,0H55c-0.1,0-0.2,0-0.1,0s0.2,0,0.3,0.1h0.1c-0.2-0.1-0.1,0,0,0s0.2,0.1,0.2,0.1
				c0.2,0.1,0.5,0.2,0.7,0.3s0.4,0,0.6-0.1c0.1-0.1,0.2-0.2,0.3-0.4C57.6,53.2,57.4,52.9,57.1,52.7L57.1,52.7z"/>
		</g>
	</g>
	<g>
		<g>
			<path class="st0" d="M57.9,54c0,0.1,0.1-0.2,0.1-0.3s0.1-0.3,0.1-0.4c0.1-0.3,0.2-0.6,0.3-0.9c0.2-0.7,0.4-1.3,0.5-2
				c0.2-0.7,0.3-1.4,0.5-2c0.1-0.3,0.2-0.5,0.2-0.8c0-0.1,0-0.2,0-0.3s0-0.1,0,0c0-0.1,0-0.1,0-0.2c0,0.1,0,0.1,0,0
				c-0.1,0.1-0.2,0.2-0.3,0.3c0.1-0.1-0.1,0.1-0.1,0c0,0,0.1,0,0.2,0c0.2,0,0.2,0,0.3,0c0.3,0.1,0.6,0.1,0.9,0.2
				c1,0.2,2,0.3,3.1,0.4c0.5,0.1,0.9-0.4,0.9-0.9s-0.4-0.8-0.9-0.9c-0.7-0.1-1.4-0.2-2.1-0.3c-0.3,0-0.7-0.1-1-0.1c0.3,0,0,0,0,0
				c-0.1,0-0.2,0-0.3-0.1c-0.5-0.1-0.9-0.2-1.4,0c-0.6,0.2-0.7,0.7-0.8,1.2c-0.1,0.6-0.3,1.1-0.4,1.7s-0.3,1.3-0.5,1.9
				s-0.3,1.2-0.5,1.8s-0.4,1.1-0.2,1.7c0.1,0.3,0.5,0.6,0.8,0.5C57.7,54.6,57.9,54.4,57.9,54L57.9,54z"/>
		</g>
	</g>
</g>
</svg>
