<?xml version="1.0" encoding="utf-8"?>
<!-- Generator: Adobe Illustrator 24.3.0, SVG Export Plug-In . SVG Version: 6.00 Build 0)  -->
<svg version="1.1" id="Calque_1" xmlns="http://www.w3.org/2000/svg" xmlns:xlink="http://www.w3.org/1999/xlink" x="0px" y="0px"
	 viewBox="0 0 80 80" style="enable-background:new 0 0 80 80;" xml:space="preserve">
<style type="text/css">
	.st0{fill:#91D902;}
</style>
<g>
	<g>
		<g>
			<path class="st0" d="M29.1,32.1c-0.3-0.9,0.2-1.8,0.9-2.4c0.2-0.2,0.5-0.3,0.7-0.4c-0.1,0,0.2-0.1,0.3-0.1s0.4-0.1,0.2-0.1
				c0.1,0,0.3,0,0.4,0c-0.2,0,0.1,0,0.2,0.1c0.1,0-0.1-0.1,0,0c0.1,0,0.1,0.1,0.2,0.1c-0.2-0.1,0.2,0.2,0.1,0.1
				c0.3,0.3,0.7,0.5,1.1,0.4c0.4-0.2,0.6-0.6,0.5-1c-0.2-0.5-0.5-0.9-0.6-1.4c-0.1-0.4,0-0.8,0.2-1.1c0.1-0.2,0.4-0.4,0.6-0.5
				c0.2-0.1,0.4-0.1,0.6-0.2c-0.1,0,0.2,0,0.2,0s0.3,0,0.1,0c0.1,0,0.2,0,0.2,0.1c-0.2-0.1,0.1,0,0.1,0c0.2,0.1-0.1-0.1,0.1,0.1
				c0.1,0.1,0.1,0.1,0.2,0.2c-0.1-0.1,0,0.1,0.1,0.1c0,0.1,0.1,0.1,0.1,0.2c0.1,0.2,0.1,0.1,0.2,0.4c0.3,0.7,0.4,1.5,0.6,2.2
				c0.2,0.5,0.6,0.8,1.1,0.6c0.4-0.1,0.8-0.6,0.6-1.1c-0.6-1.7-0.8-4.4-3.3-4.5c-1.1,0-2.4,0.5-3,1.5c-0.3,0.6-0.5,1.3-0.5,2
				c0.1,0.7,0.4,1.3,0.7,1.9c0.5-0.2,1-0.4,1.6-0.7c-1.1-1.4-3-1.3-4.3-0.3c-1.4,1-2.3,2.8-1.5,4.4C28.2,33.4,29.4,32.9,29.1,32.1
				L29.1,32.1z"/>
		</g>
	</g>
	<g>
		<g>
			<path class="st0" d="M36.1,25.1c0.2-0.2,0.2-0.4,0.2-0.6c0,0,0-0.1,0,0c0,0.2,0-0.1,0-0.1c0,0.2,0,0.1,0,0c0,0.2-0.1,0,0,0l0,0
				c0,0,0,0.1-0.1,0.1c0,0,0.2-0.2,0.1-0.1c-0.1,0.1,0.1-0.1,0.1-0.1l0.1-0.1c0.1-0.1-0.1,0,0,0s0.1-0.1,0.2-0.1
				c0.1-0.1,0.3-0.2,0.4-0.2c0.1,0,0.1-0.1,0.2-0.1c-0.1,0.1,0,0,0,0c0.1-0.1,0.3-0.1,0.4-0.2c0.1,0,0.2-0.1,0.4-0.1h0.1
				c0.1,0-0.2,0,0,0s0.3,0,0.5,0c0.1,0,0.2,0,0.2,0H39c0.1,0-0.1,0,0,0s0.3,0.1,0.4,0.1c0.1,0,0.1,0,0.2,0.1c0,0,0.1,0,0,0
				c-0.1-0.1,0,0,0,0l0.1,0.1c0,0,0,0,0.1,0s-0.1-0.1-0.1,0l0.1,0.1c0,0,0,0.1,0.1,0.1c0.1,0.1-0.1-0.1,0-0.1c0,0.1,0.1,0.1,0.1,0.2
				c0,0,0.1,0.2,0.1,0.1c0-0.1,0,0.1,0,0.1c0,0.1,0,0.1,0.1,0.2c0,0.1,0,0.2,0,0.1c0,0.1,0,0.2,0,0.2c0,0.2,0,0.4,0,0.5
				c0,0.5,0.4,0.9,0.9,0.9s0.9-0.4,0.9-0.9c0-0.7-0.1-1.5-0.5-2.2s-1.1-1-1.9-1.2c-0.8-0.2-1.6-0.2-2.4,0.1
				c-0.7,0.2-1.5,0.6-2.1,1.2c-0.3,0.3-0.6,0.8-0.6,1.3C34.8,24.9,35.5,25.7,36.1,25.1L36.1,25.1z"/>
		</g>
	</g>
	<g>
		<g>
			<path class="st0" d="M42.1,25.2C42.1,25.3,42.1,25.2,42.1,25.2c0.2-0.2,0.3-0.3,0.4-0.3c0.2-0.1,0.6-0.4,0.7-0.4
				c0.6-0.2,1.6-0.2,2.2,0.1c1.1,0.5,1.7,2,1.4,3.2c-0.2,0.8,0.6,1.3,1.3,1c0.6-0.3,1.5,0.4,1.9,0.8c0.5,0.5,0.6,1.6,0.6,2.4
				c0,1.1,1.7,1.1,1.8,0c0.1-1.3-0.3-2.9-1.3-3.8c-1-0.9-2.5-1.6-3.8-0.9c0.4,0.3,0.9,0.7,1.3,1c0.5-2.1-0.7-4.7-2.8-5.4
				c-1.1-0.4-2.4-0.3-3.5,0.2c-0.8,0.4-2.2,1.4-1.5,2.4C41.2,25.9,41.9,25.8,42.1,25.2L42.1,25.2z"/>
		</g>
	</g>
	<g>
		<g>
			<path class="st0" d="M37.8,29.4c0.1-0.3,0.2-0.5,0.4-0.7c0,0,0-0.1,0.1-0.1c-0.1,0.1-0.1,0.1,0,0l0.1-0.1c0-0.1,0.1-0.1,0.2-0.1
				c0.2-0.1-0.1,0.1,0.1,0c0.1-0.1,0.2-0.1,0.4-0.2c-0.1,0.1,0,0,0,0c0.1,0,0.1,0,0.2-0.1c0.1,0,0.1,0,0.2,0c0.2,0-0.1,0,0.1,0
				c0.1,0,0.3,0,0.4,0c0.1,0,0.3,0,0,0c0.1,0,0.1,0,0.2,0c0.1,0,0.3,0.1,0.4,0.1c0.1,0,0.1,0,0.2,0.1c0.2,0.1-0.1-0.1,0.1,0
				c0.1,0.1,0.3,0.1,0.4,0.2c0.1,0,0.1,0.1,0.1,0.1c0.1,0,0,0,0,0s0.1,0,0.1,0.1c0.1,0.1,0.2,0.2,0.3,0.3c0.1,0.2-0.1-0.1,0,0
				c0,0.1,0.1,0.1,0.1,0.2c0,0,0.1,0.2,0,0c0,0.1,0.1,0.2,0.1,0.3c0.2,0.4,0.7,0.5,1.1,0.4c0.4-0.2,0.6-0.6,0.5-1
				c-0.1-0.8-0.9-1.4-1.5-1.8c-0.6-0.4-1.4-0.6-2.1-0.7c-1.6-0.1-3.1,1-3.5,2.6c-0.1,0.4,0.1,0.8,0.4,0.9
				C37.2,29.8,37.6,29.8,37.8,29.4L37.8,29.4z"/>
		</g>
	</g>
	<g>
		<g>
			<path class="st0" d="M28.1,32.7c0.6,0.4,1.4,0.4,2.1,0.3c0.9-0.1,1.8-0.1,2.7-0.1c2.1,0,4.2,0,6.3,0c2.2,0,4.3,0,6.5,0
				c1,0,2-0.1,3,0c0.9,0,1.9,0.2,2.8,0.1c-0.2-0.5-0.4-1-0.6-1.4c0,0,0,0.1-0.1,0.1c-0.7,0.8,0.5,2,1.2,1.2c0,0,0-0.1,0.1-0.1
				c0.4-0.5,0.2-1.5-0.6-1.4c-0.9,0.1-1.9,0-2.8-0.1c-1,0-2,0-3,0c-2.2,0-4.3,0-6.5,0c-2.1,0-4.2,0-6.3,0c-0.9,0-1.8,0.1-2.7,0.2
				c-0.7,0.1-1.4-0.1-2.1,0.2C27.7,31.9,27.8,32.5,28.1,32.7L28.1,32.7z"/>
		</g>
	</g>
	<g>
		<g>
			<path class="st0" d="M32.2,57.9c0.5,0.4,1.2,0.3,1.8,0.3c0.7,0,1.4-0.1,2.1-0.1c1.4,0,2.7,0.1,4.1,0.1c2.5-0.1,5.1-0.1,7.7,0
				c1.1,0,1.1-1.7,0-1.7c-2.6,0-5.2,0-7.8,0.1c-1.4,0-2.8-0.1-4.2-0.1c-0.7,0-1.3,0.1-1.9,0.1c-0.7,0-1.3-0.1-1.8,0.4
				C31.7,57.2,31.9,57.7,32.2,57.9L32.2,57.9z"/>
		</g>
	</g>
	<g>
		<g>
			<path class="st0" d="M33,57.2c-1.1-4.4-1.6-8.8-2.1-13.3c-0.4-4-1.1-7.9-1.7-11.9c-0.1-0.9-1.7-0.7-1.6,0.2c0.2,2,0.7,3.9,1,5.8
				c0.4,2.1,0.5,4.3,0.8,6.4c0.3,2.2,0.5,4.4,0.8,6.6s0.5,4.6,1.6,6.6C32.2,58.4,33.2,57.9,33,57.2L33,57.2z"/>
		</g>
	</g>
	<g>
		<g>
			<path class="st0" d="M35.2,40.3c0.3-0.7,0.1-1.6,0.1-2.3s-0.1-1.3-0.2-2c-0.1-1.3-0.2-2.5-0.2-3.8c-0.1-1.1-1.6-1.1-1.7,0
				c0,0.5,0.1,1.1,0.1,1.6c0.1,0.7,0.1,1.5,0.2,2.2c0.1,0.7,0.1,1.3,0.2,2c0.1,0.8,0,1.7,0.3,2.4C34.3,41,35,40.7,35.2,40.3
				L35.2,40.3z"/>
		</g>
	</g>
	<g>
		<g>
			<path class="st0" d="M35.9,57.3c0-0.9-0.1-1.9-0.2-2.8c-0.1-0.7-0.1-1.4-0.2-2.1c-0.1-1.7-0.1-3.5-0.1-5.2c0-1.1-1.7-1.1-1.7,0
				c0,1.8,0.1,3.6,0.2,5.3c0,0.7,0.1,1.5,0.2,2.2c0.1,0.5,0.1,1,0.2,1.5c0,0.5,0.1,1,0.4,1.4C35.1,58.1,35.9,57.9,35.9,57.3
				L35.9,57.3z"/>
		</g>
	</g>
	<g>
		<g>
			<path class="st0" d="M41,39c0.1-0.1,0.1-0.2,0.2-0.3c0-0.1,0-0.2,0-0.3s0.1-0.2,0,0c0.1-0.3,0-0.6,0-0.9c0-0.6,0-1.3,0-1.9
				c0-1.1,0-2.2,0-3.4c0-0.4-0.4-0.8-0.8-0.8c-0.5,0-0.8,0.4-0.8,0.8c0,0.5,0,0.9,0,1.4c0,0.7,0,1.3,0,2c0,0.6,0,1.3,0,1.9
				c0,0.3,0,0.6,0,0.9c0-0.1,0-0.1,0,0s0,0.2,0,0.3s0.1,0.2,0.2,0.3C40.1,39.4,40.7,39.4,41,39L41,39z"/>
		</g>
	</g>
	<g>
		<g>
			<path class="st0" d="M40.5,57.4c0.2-0.8,0.1-1.7,0-2.5c0-0.7-0.1-1.4,0-2.1c0-1.3,0.1-2.6,0.2-3.9c0.1-1.1-1.6-1.1-1.7,0
				c-0.1,1.3-0.1,2.7-0.2,4c0,0.7,0,1.5,0.1,2.2c0.1,0.8-0.1,1.8,0.4,2.5C39.6,58,40.3,58,40.5,57.4L40.5,57.4z"/>
		</g>
	</g>
	<g>
		<g>
			<path class="st0" d="M48.5,57.5c1-1.9,1.1-4.2,1.4-6.3c0.3-2.3,0.6-4.5,0.8-6.8c0.2-2.1,0.4-4.2,0.8-6.2c0.3-1.9,0.8-3.9,1-5.8
				c0.1-0.9-1.5-1.1-1.6-0.2c-0.6,3.9-1.3,7.8-1.7,11.8c-0.5,4.4-0.9,8.8-1.9,13.1C47.2,57.6,48.2,58.1,48.5,57.5L48.5,57.5z"/>
		</g>
	</g>
	<g>
		<g>
			<path class="st0" d="M46.7,41.5c0.2-0.6,0.2-1.3,0.3-2c0-0.4,0.1-0.8,0.1-1.2c0.1-0.7,0.1-1.3,0.2-2c0.2-1.4,0.5-2.8,0.5-4.1
				c0-0.4-0.4-0.8-0.8-0.8c-0.5,0-0.8,0.4-0.8,0.8c-0.1,1.4-0.3,2.8-0.4,4.1c-0.1,0.7-0.2,1.3-0.2,2c0,0.4-0.1,0.8-0.1,1.1
				c-0.1,0.7-0.2,1.4,0,2.1C45.7,42.1,46.5,42.1,46.7,41.5L46.7,41.5z"/>
		</g>
	</g>
	<g>
		<g>
			<path class="st0" d="M45.3,57.6c0.3-0.4,0.4-1,0.4-1.5c0.1-0.5,0.2-1,0.3-1.6c0.1-0.8,0.2-1.6,0.3-2.4c0.1-2,0.3-4.1,0.4-6.1
				c0.1-1.1-1.6-1.1-1.7,0c-0.1,2-0.2,4-0.3,5.9c-0.1,1.8-0.6,3.5-0.6,5.3C44.1,57.9,45,58,45.3,57.6L45.3,57.6z"/>
		</g>
	</g>
	<g>
		<g>
			<path class="st0" d="M35,46.4c-0.8-0.8-1.5-1.7-1.4-2.9c0.1-1,0.7-2,1.4-2.7c1.5-1.4,4.1-1.7,6.1-1.4c2.1,0.3,4.3,1.6,4.6,3.9
				c0.3,2.2-2.1,3.5-3.9,4.2c-1.2,0.4-2.8,0.5-4.1,0.2c-1-0.3-2-0.9-2.9-1.5c-0.8-0.6-1.8,0.7-1.1,1.4c2.1,1.9,5.4,2.6,8.2,1.8
				c2.6-0.7,5.4-2.6,5.5-5.5c0.1-3.1-2.5-5.3-5.3-6c-2.6-0.6-5.9-0.3-8.1,1.4c-1.2,1-2.1,2.5-2.2,4c-0.2,1.8,0.7,3.3,2.1,4.3
				C34.8,48.2,35.7,47,35,46.4z"/>
		</g>
	</g>
</g>
</svg>
