<?xml version="1.0" encoding="utf-8"?>
<!-- Generator: Adobe Illustrator 24.3.0, SVG Export Plug-In . SVG Version: 6.00 Build 0)  -->
<svg version="1.1" id="Calque_1" xmlns="http://www.w3.org/2000/svg" xmlns:xlink="http://www.w3.org/1999/xlink" x="0px" y="0px"
	 viewBox="0 0 80 80" style="enable-background:new 0 0 80 80;" xml:space="preserve">
<style type="text/css">
	.st0{fill:#91D902;}
</style>
<g>
	<g>
		<path class="st0" d="M54,54c-0.8,0.1-2-0.3-2.9-0.3c-1.1-0.1-2.3-0.1-3.4-0.1c-2.2-0.1-4.4,0-6.6,0c-0.5,0-1.1,0.1-1.6,0
			c-0.4,0-0.7-0.2-1.1-0.2c-1.2-0.1-2.3,0.2-3.4-0.1c-2-0.4-3.8-1.2-5.4-2.3c-2.8-2.1-4.2-5-4.7-8.4c-0.4-3.1-0.2-6.7,1.4-9.4
			c5.7-9.5,22-8,24.9,3c1.8,6.6-1.6,14.8-9,15.6c-1,0.1-1,1.6,0,1.5C49.5,53,53.6,45.7,53.3,39c-0.3-6.2-4.4-11.4-10.4-13.1
			c-5.8-1.7-12.4-0.1-16.4,4.3c-2.3,2.5-3.3,5.7-3.4,9c-0.1,3.5,0.6,7.3,2.6,10.2c1.3,1.8,3.2,3.3,5.3,4.2c1.1,0.5,2.2,0.9,3.4,1.1
			c1.3,0.3,2.5,0.2,3.7,0.2c0.6,0,1.1,0.2,1.7,0.2c0.7,0,1.4,0,2.1,0c1.5,0.1,2.9-0.1,4.4-0.1c1.4,0,2.9,0.1,4.3,0.1
			c1.2,0,2.6,0.4,3.7,0.2C55.2,55.2,54.8,53.9,54,54L54,54z"/>
	</g>
</g>
<g>
	<g>
		<g>
			<g>
				<path class="st0" d="M46.7,36c0.5-0.8,0.3-1.8-0.1-2.6c-0.4-0.7-1-1.3-1.8-1.5c-1.4-0.5-3.1-0.3-4,0.9c-0.8,1-1.1,2.4-0.7,3.6
					c0.5,1.4,1.6,2.2,3,2.4c0.8,0.1,1.6-0.1,2.3-0.5C46.2,37.7,46.8,36.9,46.7,36c-0.1-0.4-0.3-0.7-0.7-0.8c-0.4,0-0.7,0.2-0.8,0.5
					c0,0.1-0.1,0.3-0.1,0.4c0,0.1,0,0.1-0.1,0.2c0,0,0.1-0.1,0-0.1c0,0,0,0.1-0.1,0.1c0,0.1-0.1,0.1-0.1,0.2c0,0,0,0-0.1,0.1
					c0,0,0.1-0.1,0,0s-0.2,0.2-0.3,0.3c0.1-0.1,0,0,0,0c-0.1,0-0.1,0.1-0.2,0.1s-0.1,0.1-0.2,0.1c0.1-0.1,0,0-0.1,0
					s-0.3,0.1-0.4,0.1s-0.2,0,0,0c-0.1,0-0.1,0-0.2,0s-0.2,0-0.4,0h-0.1h0.1c-0.1,0-0.1,0-0.2,0c-0.1,0-0.2-0.1-0.3-0.1
					c0.1,0,0.1,0,0,0S42.3,37,42.2,37l-0.1-0.1c-0.1,0,0.1,0,0.1,0s0,0-0.1-0.1s-0.2-0.2-0.2-0.2c-0.1-0.1-0.1-0.1,0,0l-0.1-0.1
					c-0.1-0.1-0.1-0.2-0.2-0.3c0,0,0-0.2,0-0.1c0,0.1,0,0,0-0.1s-0.1-0.2-0.1-0.3s0-0.1,0-0.2c0-0.2,0,0.2,0,0c0-0.1,0-0.2,0-0.3
					v-0.3c0,0,0,0.2,0,0.1v-0.1c0-0.1,0-0.1,0-0.2c0-0.1,0.1-0.2,0.1-0.3v-0.1c0,0-0.1,0.1,0,0.1c0-0.1,0.1-0.1,0.1-0.2
					c0.1-0.1,0.1-0.2,0.2-0.3c0.1-0.1-0.1,0.1,0,0l0.1-0.1c0.1-0.1,0.2-0.2,0.2-0.2c0.1-0.1,0,0,0,0s0,0,0.1-0.1
					c0.1,0,0.1-0.1,0.2-0.1c0.1,0,0.2-0.1,0,0c0.1,0,0.1,0,0.2-0.1c0.1,0,0.1,0,0.2,0h0.2c-0.1,0,0.1,0,0.1,0c0.1,0,0.1,0,0.2,0
					c0.2,0,0.3,0,0.5,0c-0.1,0,0.1,0,0.1,0c0.1,0,0.2,0,0.2,0.1c0.1,0,0.1,0,0.2,0.1h0.1c-0.1,0,0,0,0,0c0.1,0,0.1,0.1,0.2,0.1
					c0,0,0.1,0.1,0,0s0,0,0,0c0.1,0.1,0.1,0.1,0.2,0.2c0,0,0,0.1,0.1,0.1c0.1,0.1-0.1-0.1,0,0s0.2,0.3,0.3,0.5c0,0.1,0,0,0,0
					s0,0.1,0.1,0.1c0,0.1,0.1,0.2,0.1,0.3v0.1c0-0.1,0,0,0,0c0,0.1,0,0.2,0,0.3v0.1c0-0.2,0,0.1,0,0.1s0,0.1,0,0s0,0.1,0,0.1
					C45.3,36.2,46.3,36.6,46.7,36L46.7,36z"/>
			</g>
		</g>
		<g>
			<g>
				<path class="st0" d="M47.2,46.2c0.5-0.8,0.3-1.8-0.1-2.6c-0.4-0.7-1-1.3-1.8-1.5c-1.4-0.5-3.1-0.3-4,0.9c-0.8,1-1.1,2.4-0.7,3.6
					c0.5,1.4,1.6,2.2,3,2.4c0.8,0.1,1.6-0.1,2.3-0.5C46.6,47.9,47.2,47.1,47.2,46.2c-0.1-0.4-0.3-0.7-0.7-0.8
					c-0.4,0-0.7,0.2-0.8,0.5c0,0.1-0.1,0.3-0.1,0.4s0,0.1-0.1,0.2c0,0,0.1-0.1,0-0.1c0,0,0,0.1-0.1,0.1c0,0.1-0.1,0.1-0.1,0.2
					c0,0,0,0-0.1,0.1c0,0,0.1-0.1,0,0S45,47,44.9,47.1c0.1-0.1,0,0,0,0c-0.1,0-0.1,0.1-0.2,0.1s-0.1,0.1-0.2,0.1c0.1-0.1,0,0-0.1,0
					s-0.3,0.1-0.4,0.1s-0.2,0,0,0c-0.1,0-0.1,0-0.2,0s-0.2,0-0.4,0h-0.1h0.1c-0.1,0-0.1,0-0.2,0s-0.2-0.1-0.3-0.1c0.1,0,0.1,0,0,0
					s-0.1-0.1-0.2-0.1l-0.1-0.1c-0.1,0,0.1,0,0.1,0s0,0-0.1-0.1s-0.2-0.2-0.2-0.2c-0.1-0.1-0.1-0.1,0,0l-0.1-0.1
					c-0.1-0.1-0.1-0.2-0.2-0.3c0,0,0-0.2,0-0.1s0,0,0-0.1S42,46,42,45.9s0-0.1,0-0.2c0-0.2,0,0.2,0,0c0-0.1,0-0.2,0-0.3v-0.3
					c0,0,0,0.2,0,0.1v-0.1c0-0.1,0-0.1,0-0.2s0.1-0.2,0.1-0.3v-0.1c0,0-0.1,0.1,0,0.1c0-0.1,0.1-0.1,0.1-0.2
					c0.1-0.1,0.1-0.2,0.2-0.3c0.1-0.1-0.1,0.1,0,0l0.1-0.1c0.1-0.1,0.2-0.2,0.2-0.2c0.1-0.1,0,0,0,0s0,0,0.1-0.1
					c0.1,0,0.1-0.1,0.2-0.1s0.2-0.1,0,0c0.1,0,0.1,0,0.2-0.1c0.1,0,0.1,0,0.2,0h0.2c-0.1,0,0.1,0,0.1,0c0.1,0,0.1,0,0.2,0
					c0.2,0,0.3,0,0.5,0c-0.1,0,0.1,0,0.1,0c0.1,0,0.2,0,0.2,0.1c0.1,0,0.1,0,0.2,0.1H45c-0.1,0,0,0,0,0c0.1,0,0.1,0.1,0.2,0.1
					c0,0,0.1,0.1,0,0s0,0,0,0c0.1,0.1,0.1,0.1,0.2,0.2c0,0,0,0.1,0.1,0.1c0.1,0.1-0.1-0.1,0,0s0.2,0.3,0.3,0.5c0,0.1,0,0,0,0
					s0,0.1,0.1,0.1c0,0.1,0.1,0.2,0.1,0.3v0.1c0-0.1,0,0,0,0c0,0.1,0,0.2,0,0.3v0.1c0-0.2,0,0.1,0,0.1s0,0.1,0,0s0,0.1,0,0.1
					C45.7,46.4,46.7,46.8,47.2,46.2L47.2,46.2z"/>
			</g>
		</g>
		<g>
			<g>
				<path class="st0" d="M37.3,46.2c0.5-0.8,0.3-1.8-0.1-2.6c-0.4-0.7-1-1.3-1.8-1.5c-1.4-0.5-3.1-0.3-4,0.9c-0.8,1-1.1,2.4-0.7,3.6
					c0.5,1.4,1.6,2.2,3,2.4c0.8,0.1,1.6-0.1,2.3-0.5C36.7,47.9,37.3,47.1,37.3,46.2c-0.1-0.4-0.3-0.7-0.7-0.8
					c-0.4,0-0.7,0.2-0.8,0.5c0,0.1-0.1,0.3-0.1,0.4s0,0.1-0.1,0.2c0,0,0.1-0.1,0-0.1c0,0,0,0.1-0.1,0.1c0,0.1-0.1,0.1-0.1,0.2
					c0,0,0,0-0.1,0.1c0,0,0.1-0.1,0,0S35.1,47,35,47.1c0.1-0.1,0,0,0,0c-0.1,0-0.1,0.1-0.2,0.1c-0.1,0-0.1,0.1-0.2,0.1
					c0.1-0.1,0,0-0.1,0s-0.3,0.1-0.4,0.1c-0.1,0-0.2,0,0,0c-0.1,0-0.1,0-0.2,0c-0.1,0-0.2,0-0.4,0h-0.1h0.1c-0.1,0-0.1,0-0.2,0
					c-0.1,0-0.2-0.1-0.3-0.1c0.1,0,0.1,0,0,0s-0.1-0.1-0.2-0.1l-0.1-0.1c-0.1,0,0.1,0,0.1,0s0,0-0.1-0.1s-0.2-0.2-0.2-0.2
					c-0.1-0.1-0.1-0.1,0,0l-0.1-0.1c-0.1-0.1-0.1-0.2-0.2-0.3c0,0,0-0.2,0-0.1s0,0,0-0.1s-0.1-0.2-0.1-0.3s0-0.1,0-0.2
					c0-0.2,0,0.2,0,0c0-0.1,0-0.2,0-0.3v-0.3c0,0,0,0.2,0,0.1v-0.1c0-0.1,0-0.1,0-0.2s0.1-0.2,0.1-0.3v-0.1c0,0-0.1,0.1,0,0.1
					c0-0.1,0.1-0.1,0.1-0.2c0.1-0.1,0.1-0.2,0.2-0.3c0.1-0.1-0.1,0.1,0,0l0.1-0.1c0.1-0.1,0.2-0.2,0.2-0.2c0.1-0.1,0,0,0,0
					s0,0,0.1-0.1c0.1,0,0.1-0.1,0.2-0.1c0.1,0,0.2-0.1,0,0c0.1,0,0.1,0,0.2-0.1c0.1,0,0.1,0,0.2,0h0.2c-0.1,0,0.1,0,0.1,0
					c0.1,0,0.1,0,0.2,0c0.2,0,0.3,0,0.5,0c-0.1,0,0.1,0,0.1,0c0.1,0,0.2,0,0.2,0.1c0.1,0,0.1,0,0.2,0.1h0.1c-0.1,0,0,0,0,0
					c0.1,0,0.1,0.1,0.2,0.1c0,0,0.1,0.1,0,0s0,0,0,0c0.1,0.1,0.1,0.1,0.2,0.2c0,0,0,0.1,0.1,0.1c0.1,0.1-0.1-0.1,0,0
					s0.2,0.3,0.3,0.5c0,0.1,0,0,0,0s0,0.1,0.1,0.1c0,0.1,0.1,0.2,0.1,0.3v0.1c0-0.1,0,0,0,0c0,0.1,0,0.2,0,0.3v0.1
					c0-0.2,0,0.1,0,0.1s0,0.1,0,0s0,0.1,0,0.1C35.8,46.4,36.9,46.8,37.3,46.2L37.3,46.2z"/>
			</g>
		</g>
		<g>
			<g>
				<path class="st0" d="M37.3,36c0.5-0.8,0.3-1.8-0.1-2.6c-0.4-0.7-1-1.3-1.8-1.5c-1.4-0.5-3.1-0.3-4,0.9c-0.8,1-1.1,2.4-0.7,3.6
					c0.5,1.4,1.6,2.2,3,2.4c0.8,0.1,1.6-0.1,2.3-0.5C36.7,37.7,37.3,36.9,37.3,36c-0.1-0.4-0.3-0.7-0.7-0.8c-0.4,0-0.7,0.2-0.8,0.5
					c0,0.1-0.1,0.3-0.1,0.4c0,0.1,0,0.1-0.1,0.2c0,0,0.1-0.1,0-0.1c0,0,0,0.1-0.1,0.1c0,0.1-0.1,0.1-0.1,0.2c0,0,0,0-0.1,0.1
					c0,0,0.1-0.1,0,0s-0.2,0.2-0.3,0.3c0.1-0.1,0,0,0,0c-0.1,0-0.1,0.1-0.2,0.1c-0.1,0-0.1,0.1-0.2,0.1c0.1-0.1,0,0-0.1,0
					s-0.3,0.1-0.4,0.1c-0.1,0-0.2,0,0,0c-0.1,0-0.1,0-0.2,0c-0.1,0-0.2,0-0.4,0h-0.1h0.1c-0.1,0-0.1,0-0.2,0c-0.1,0-0.2-0.1-0.3-0.1
					c0.1,0,0.1,0,0,0S32.9,37,32.8,37l-0.1-0.1c-0.1,0,0.1,0,0.1,0s0,0-0.1-0.1s-0.2-0.2-0.2-0.2c-0.1-0.1-0.1-0.1,0,0l-0.1-0.1
					c-0.1-0.1-0.1-0.2-0.2-0.3c0,0,0-0.2,0-0.1c0,0.1,0,0,0-0.1s-0.1-0.2-0.1-0.3s0-0.1,0-0.2c0-0.2,0,0.2,0,0c0-0.1,0-0.2,0-0.3
					v-0.3c0,0,0,0.2,0,0.1v-0.1c0-0.1,0-0.1,0-0.2c0-0.1,0.1-0.2,0.1-0.3v-0.1c0,0-0.1,0.1,0,0.1c0-0.1,0.1-0.1,0.1-0.2
					c0.1-0.1,0.1-0.2,0.2-0.3c0.1-0.1-0.1,0.1,0,0l0.1-0.1c0.1-0.1,0.2-0.2,0.2-0.2c0.1-0.1,0,0,0,0s0,0,0.1-0.1
					c0.1,0,0.1-0.1,0.2-0.1c0.1,0,0.2-0.1,0,0c0.1,0,0.1,0,0.2-0.1c0.1,0,0.1,0,0.2,0h0.2c-0.1,0,0.1,0,0.1,0c0.1,0,0.1,0,0.2,0
					c0.2,0,0.3,0,0.5,0c-0.1,0,0.1,0,0.1,0c0.1,0,0.2,0,0.2,0.1c0.1,0,0.1,0,0.2,0.1h0.1c-0.1,0,0,0,0,0c0.1,0,0.1,0.1,0.2,0.1
					c0,0,0.1,0.1,0,0s0,0,0,0c0.1,0.1,0.1,0.1,0.2,0.2c0,0,0,0.1,0.1,0.1c0.1,0.1-0.1-0.1,0,0s0.2,0.3,0.3,0.5c0,0.1,0,0,0,0
					s0,0.1,0.1,0.1c0,0.1,0.1,0.2,0.1,0.3v0.1c0-0.1,0,0,0,0c0,0.1,0,0.2,0,0.3v0.1c0-0.2,0,0.1,0,0.1s0,0.1,0,0s0,0.1,0,0.1
					C35.8,36.2,36.9,36.6,37.3,36L37.3,36z"/>
			</g>
		</g>
	</g>
	<g>
		<g>
			<path class="st0" d="M38.1,39.6c-0.3,0.1-0.4,0.5-0.4,0.8c0,0.2,0.1,0.4,0.1,0.6c0.1,0.1,0.2,0.3,0.3,0.3
				c0.2,0.1,0.3,0.2,0.5,0.3c0.1,0,0.3,0.1,0.4,0.1c0.1,0,0.3,0,0.4,0h0.1c0.1,0,0.2-0.1,0.3-0.1s0.2-0.1,0.2-0.2c0,0,0.1,0,0.1-0.1
				c0.2-0.2,0.3-0.4,0.4-0.7c0-0.1,0-0.3,0-0.4c0-0.1,0-0.3-0.1-0.4c0-0.1-0.1-0.2-0.2-0.3c-0.1-0.1-0.2-0.2-0.3-0.3
				c0,0-0.1-0.1-0.2-0.1c-0.1,0-0.2-0.1-0.3-0.1s-0.3-0.1-0.4-0.1c-0.1,0-0.3,0-0.4,0c-0.1,0-0.3,0.1-0.4,0.2
				c-0.1,0.1-0.2,0.1-0.2,0.2c-0.1,0.1-0.1,0.1-0.2,0.2c0,0,0,0,0,0.1c-0.1,0.2-0.1,0.3-0.1,0.5s0.1,0.4,0.2,0.6l0,0
				c0.1,0,0.1,0.1,0.2,0.1c0.1,0.1,0.2,0.1,0.3,0.1s0.1,0,0.2,0c0.1,0,0.2,0,0.3-0.1s0.3-0.2,0.3-0.3c0.1-0.1,0.1-0.2,0.1-0.3
				c0,0.1-0.1,0.1-0.1,0.2c0,0,0-0.1,0.1-0.1c0,0.1-0.1,0.1-0.1,0.2l0.1-0.1c-0.1,0-0.1,0.1-0.2,0.1l0.1-0.1c-0.1,0-0.1,0.1-0.2,0.1
				c0.1,0,0.1,0,0.2,0c-0.1,0-0.1,0-0.2,0c0.1,0,0.1,0,0.2,0c-0.1,0-0.1,0-0.2,0h0.1c-0.1,0-0.1-0.1-0.2-0.1c0,0,0.1,0,0.1,0.1
				c-0.1,0-0.1-0.1-0.2-0.1l0.1,0.1c0-0.1-0.1-0.1-0.1-0.2l0.1,0.1c0-0.1-0.1-0.1-0.1-0.2c0,0.1,0,0.1,0,0.2c0-0.1,0-0.1,0-0.2
				c0,0.1,0,0.1,0,0.2c0-0.1,0-0.1,0-0.2c0,0.1,0,0.1,0,0.2c0-0.1,0.1-0.1,0.1-0.2c0,0.1-0.1,0.1-0.1,0.1c0-0.1,0.1-0.1,0.1-0.2
				l-0.1,0.1c0.1,0,0.1-0.1,0.2-0.1c0,0-0.1,0-0.1,0.1c0.1,0,0.1-0.1,0.2-0.1c-0.1,0-0.1,0-0.2,0c0.1,0,0.1,0,0.2,0
				c-0.1,0-0.1,0-0.2,0c0.1,0,0.1,0,0.2,0c-0.1,0-0.1,0-0.2-0.1c0.1,0,0.1,0.1,0.2,0.1c0,0-0.1,0-0.1-0.1c0.1,0,0.1,0.1,0.2,0.1
				L39.1,40c0,0.1,0.1,0.1,0.1,0.2l-0.1-0.1c0,0.1,0.1,0.1,0.1,0.2c0-0.1,0-0.1-0.1-0.2c0,0.1,0,0.1,0,0.2v-0.1c0-0.1,0-0.2,0-0.3
				c-0.1-0.2-0.2-0.4-0.4-0.4c-0.1,0-0.2-0.1-0.3-0.1C38.3,39.5,38.2,39.5,38.1,39.6L38.1,39.6z"/>
		</g>
	</g>
</g>
</svg>
