<?xml version="1.0" encoding="utf-8"?>
<!-- Generator: Adobe Illustrator 24.3.0, SVG Export Plug-In . SVG Version: 6.00 Build 0)  -->
<svg version="1.1" id="Calque_1" xmlns="http://www.w3.org/2000/svg" xmlns:xlink="http://www.w3.org/1999/xlink" x="0px" y="0px"
	 viewBox="0 0 80 80" style="enable-background:new 0 0 80 80;" xml:space="preserve">
<style type="text/css">
	.st0{fill:#91D902;}
</style>
<g>
	<g>
		<g>
			<path class="st0" d="M20.6,28.9c-0.2,0-0.2-0.2-0.3-0.5c0-0.4,0.1-0.8,0.2-1.2c0.3-0.9,0.8-1.5,1.8-1.3c1.2,0.2,2.2,1.1,3.3,1.6
				c0.6,0.2,1.2,0.3,1.8,0.5c0.7,0.2,0.7,0.5,0.6,1.2c-0.3,1.5-0.9,2.9-1.4,4.3c-0.5,1.3-0.7,2.7-1.2,4c-1,2.3-3.6,3.1-4.7,5.3
				c-0.5,1,1.1,2,1.6,0.9c0.5-1.1,1.7-1.8,2.6-2.6c0.9-0.8,1.7-1.8,2.1-2.9c0.6-1.4,0.8-2.8,1.3-4.2s1.1-2.9,1.4-4.4
				c0.2-1.1,0.2-2.3-0.9-2.9c-0.5-0.3-1.1-0.4-1.7-0.6c-0.7-0.2-1.3-0.4-2-0.8c-1.1-0.6-2.3-1.3-3.6-1.1c-1,0.1-1.9,0.7-2.3,1.6
				c-0.7,1.4-1.2,4.5,1.1,4.7C21.3,30.5,21.5,29.1,20.6,28.9L20.6,28.9z"/>
		</g>
	</g>
	<g>
		<g>
			<path class="st0" d="M25.1,35.7c-1.1-0.3-2-1-3.2-1.2s-2.4-0.1-3.6,0.2c-2.1,0.5-4.1,1.5-5.6,3.1c-2.9,3-3.6,7.4-2.4,11.3
				c0.6,1.8,1.6,3.5,3.1,4.8c1.6,1.3,3.5,1.7,5.6,1.7c2.3-0.1,5-0.3,7-1.4c1.8-1,3-2.8,3.9-4.5c1.2-2.2,1.6-4.5,1-7
				c-0.3-1.2-0.8-2.4-1.5-3.4c-0.8-1.1-1.8-1.7-2.7-2.6c-0.8-0.8-2.1,0.4-1.3,1.3c0.6,0.6,1.4,1.1,2,1.8s1.1,1.6,1.4,2.5
				c0.6,1.8,0.7,3.7,0,5.4c-0.6,1.5-1.6,3.2-2.8,4.3c-1.4,1.3-3.5,1.6-5.4,1.8C19,53.8,17,54,15.3,53c-1.4-0.8-2.4-2.1-3-3.5
				c-1.4-3.1-1.2-6.8,0.8-9.6c1.2-1.7,3-2.9,5-3.4c1.1-0.3,2.3-0.5,3.4-0.4c1.1,0.1,2,0.8,3.1,1C25.6,37.3,26.1,35.9,25.1,35.7
				L25.1,35.7z"/>
		</g>
	</g>
	<g>
		<g>
			<path class="st0" d="M21.6,42.4c-0.3-0.1-0.5-0.2-0.8-0.2s-0.6,0-0.8,0.1c-0.5,0.1-1,0.4-1.4,0.8c-0.4,0.5-0.6,1.1-0.7,1.7
				c0,0.5,0.2,1.1,0.4,1.6c0.6,0.9,1.5,1.5,2.6,1.6c0.5,0.1,1,0,1.4-0.3c0.5-0.2,0.9-0.7,1.1-1.2c0.5-1.2,0-2.6-0.7-3.6
				c-0.2-0.3-0.6-0.5-0.9-0.4c-0.3,0.1-0.6,0.4-0.6,0.8c0,0.3,0,0.5,0.1,0.8c0.1,0.2,0.2,0.4,0.2,0.6c0.1,0.2,0.1,0.4,0.2,0.6v0.1
				v-0.1v0.1c0,0.1,0,0.3,0,0.4c0,0,0-0.2,0-0.1s0,0.1,0,0.2V46c-0.1,0.2,0.1-0.2,0,0c0,0.1-0.1,0.1-0.1,0.2c0.1-0.2,0.1-0.1,0-0.1
				l-0.1,0.1c0.1-0.2,0.1-0.1,0.1,0c0,0-0.1,0-0.1,0.1c-0.1,0-0.2,0,0.1,0h-0.1c-0.1,0-0.1,0-0.2,0.1c-0.2,0,0.2,0,0.1,0h-0.1
				c-0.1,0-0.1,0-0.2,0c-0.1,0-0.2-0.1,0.1,0h-0.1c-0.2,0-0.3-0.1-0.5-0.1c-0.1,0-0.2-0.1,0,0h-0.1c-0.1,0-0.1-0.1-0.2-0.1l-0.1-0.1
				c0,0,0.1,0,0.1,0.1c0,0-0.1,0-0.1-0.1C20.1,46,20.1,46,20,45.9c0,0,0-0.1-0.1-0.1c0.2,0.2,0,0.1,0,0s-0.1-0.1-0.1-0.2v-0.1v0.1
				v-0.1c0-0.1-0.1-0.2-0.1-0.3s0,0.1,0,0.1s0-0.1,0-0.2s0-0.2,0-0.3c0,0.2,0,0.1,0,0.1v-0.1l0,0c0-0.1,0-0.1,0,0.1l0.1-0.1l0.1-0.1
				c0.1-0.2-0.1,0.1,0,0l0.1-0.1c0.1-0.1,0.2-0.1,0,0c0.1,0,0.2-0.1,0.3-0.2h0.1c-0.1,0.1-0.1,0.1-0.1,0h0.1
				c0.2-0.1,0.4-0.1,0.6-0.1c0.2,0,0.4-0.1,0.6-0.2C22.2,43.4,22.2,42.5,21.6,42.4L21.6,42.4z"/>
		</g>
	</g>
	<g>
		<g>
			<path class="st0" d="M29,31.4c0.9,0.6,2.4,0.3,3.4,0.3c1.7,0,3.3,0.4,5,0.3c3.5-0.2,7.1-0.1,10.6-0.6c1.1-0.1,1.1-1.9,0-1.7
				c-3.4,0.4-6.8,0.3-10.1,0.6c-1.6,0.1-3.1-0.1-4.7-0.2c-1.2-0.1-2.5,0.2-3.7,0C28.8,29.9,28.3,30.9,29,31.4L29,31.4z"/>
		</g>
	</g>
	<g>
		<g>
			<path class="st0" d="M45.2,25.8c0.7,0.2,1.5,0.1,2.2,0.1s1.5,0,2.2,0s1.4,0,2.1,0c0.4,0,0.7,0,1.1,0s0.8,0,1.2-0.1
				c0.7-0.2,0.7-1.3,0-1.5s-1.5-0.1-2.2-0.1s-1.5,0-2.2,0s-1.4,0-2.1,0s-1.5,0-2.2,0.1C44.5,24.5,44.5,25.6,45.2,25.8L45.2,25.8z"/>
		</g>
	</g>
	<g>
		<g>
			<path class="st0" d="M49.3,25.3c-0.3,0.3-0.5,0.7-0.7,1.1c-0.2,0.4-0.3,0.7-0.5,1.1c-0.3,0.7-0.7,1.4-1.1,2.1
				c-0.2,0.4-0.1,0.9,0.3,1.1c0.4,0.2,0.9,0.1,1.1-0.3c0.5-0.7,0.8-1.5,1.1-2.3c0.1-0.4,0.3-0.7,0.4-1.1c0.1-0.2,0.1-0.4,0.2-0.5
				c0-0.1,0.1-0.2,0.1-0.3v-0.1c0,0,0-0.3,0-0.2c0-0.3,0-0.6-0.3-0.7C49.8,25.1,49.5,25.1,49.3,25.3L49.3,25.3z"/>
		</g>
	</g>
	<g>
		<g>
			<path class="st0" d="M47.7,31.1c0.1,0.6,0.5,0.9,0.9,1.3c0.4,0.5,0.7,1,0.9,1.6c0.6,1.2,1.6,2.1,2.4,3.1c0.9,1.1,1.8,2.2,2.7,3.3
				c0.5,0.6,0.9,1.1,1.4,1.7c0.5,0.5,0.9,1.1,1.5,1.5c0.7,0.4,1.6-0.4,1.1-1.1c-0.4-0.6-0.9-1-1.4-1.5s-0.9-1-1.3-1.5
				c-0.9-1.1-1.7-2.2-2.6-3.2c-0.8-0.9-1.7-1.7-2.3-2.8c-0.3-0.5-0.5-1.1-0.9-1.6c-0.2-0.2-0.3-0.4-0.5-0.6
				c-0.1-0.1-0.5-0.3-0.6-0.5C48.8,29.8,47.4,30.1,47.7,31.1L47.7,31.1z"/>
		</g>
	</g>
	<g>
		<g>
			<path class="st0" d="M27.8,34c0.6,2.4,3,3.6,4.7,5.1c1,0.9,1.8,1.9,2.7,2.9c0.8,0.9,1.9,1.7,2.6,2.8c0.6,0.9,2,0,1.4-0.8
				c-0.7-1.1-1.7-1.9-2.6-2.8c-0.9-0.9-1.7-2-2.6-2.9c-0.9-0.8-1.9-1.4-2.7-2.2c-0.9-0.8-1.6-1.6-2.2-2.6
				C28.7,32.9,27.7,33.3,27.8,34L27.8,34z"/>
		</g>
	</g>
	<g>
		<g>
			<path class="st0" d="M43,43.8c-1.6-0.6-3.7-0.6-4.9,0.9c-1,1.2-1.2,3.1-0.4,4.5c0.7,1.4,2.3,1.9,3.8,2s3.2-0.6,3.8-2.1
				c0.7-1.7-0.1-4.1-1.9-4.8c-0.4-0.1-0.9,0.1-1,0.5c-0.2,0.4,0,0.8,0.3,1.1c-0.1-0.1,0.2,0.1,0.2,0.2l0.1,0.1c-0.1-0.1,0,0,0.1,0.1
				c0.1,0,0.1,0.1,0.2,0.2s0.3,0.4,0.4,0.6c0.2,0.4,0.2,0.9,0.1,1.4c0,0.1,0,0.1,0,0.2c-0.1,0.2,0.1-0.1,0,0.1l-0.1,0.1
				c-0.1,0.2,0.1-0.1,0,0s-0.2,0.2-0.2,0.3c-0.2,0.2,0.1-0.1-0.1,0.1c-0.1,0-0.1,0.1-0.2,0.1s-0.1,0.1-0.2,0.1
				c-0.1,0.1,0.2-0.1-0.1,0c-0.1,0-0.3,0.1-0.4,0.1s-0.1,0-0.2,0c-0.3,0.1,0.1,0-0.1,0c-0.1,0-0.3,0-0.4,0c-0.1,0-0.3,0-0.4,0
				c0.2,0,0,0-0.1,0s-0.1,0-0.2,0c-0.3-0.1-0.6-0.1-0.8-0.2c-0.1,0-0.1,0-0.2-0.1c0.1,0.1,0,0,0,0c-0.1-0.1-0.2-0.1-0.3-0.2
				c0,0-0.2-0.2-0.1,0L39.6,49l-0.1-0.1c0,0-0.2-0.2-0.1-0.1C39.1,48.4,39,48,39,47.5c0-0.1,0-0.3,0-0.4c0-0.2,0-0.1,0,0
				c0-0.1,0-0.2,0.1-0.2c0-0.1,0.1-0.2,0.1-0.4c0.1-0.1-0.1,0.2,0-0.1c0-0.1,0.1-0.1,0.1-0.2c0,0,0.2-0.2,0.1-0.1
				c0-0.1,0.1-0.1,0.2-0.2l0.1-0.1c0.1-0.1,0.1-0.1,0,0c0,0,0.1,0,0.1-0.1c0.3-0.2,0.6-0.3,1-0.4c0.6-0.1,1.4,0.1,2.1,0
				C43.5,45.1,43.7,44,43,43.8L43,43.8z"/>
		</g>
	</g>
	<g>
		<g>
			<path class="st0" d="M38.9,40.8c0.6,0.6,1.6,0.6,2.4,0.7c0.4,0,0.8,0,1.2,0c0.2,0,0.3,0,0.5,0c0.1,0,0.1,0,0.2,0
				c0.3,0,0.5-0.1,0.7-0.3c0.3-0.2,0.3-0.8,0-1.1c-0.3-0.2-0.5-0.3-0.9-0.3c-0.2,0-0.3,0-0.5,0c-0.4,0-0.7,0-1.1,0
				c-0.2,0-0.4,0-0.6,0c-0.1,0-0.2,0-0.3,0h-0.1c0.1,0,0.2,0,0,0h-0.1c-0.1,0-0.1,0,0,0h-0.1c-0.1,0-0.2,0-0.2,0
				c-0.1,0-0.1,0-0.2-0.1c-0.1,0,0,0,0.1,0c-0.1,0-0.1,0-0.2-0.1h-0.1C39,39.4,38.4,40.4,38.9,40.8L38.9,40.8z"/>
		</g>
	</g>
	<g>
		<g>
			<path class="st0" d="M40.5,41.3c0,0.4,0,0.8,0,1.2c0,0.2,0,0.4,0,0.6c0,0.1,0,0.2,0,0.3c0,0.2,0,0.4,0.1,0.6
				c0-0.1-0.1-0.1-0.1-0.2l0,0c0.1,0.3,0.3,0.5,0.6,0.5s0.6-0.1,0.7-0.4c0-0.1,0.1-0.2,0.1-0.3s0-0.2,0-0.3s0-0.2,0-0.3
				c0-0.2,0-0.4,0-0.6c0-0.5-0.1-0.9-0.1-1.4c0,0.1,0,0.1,0,0.2l0,0c0-0.2-0.1-0.4-0.2-0.5c-0.1-0.1-0.3-0.2-0.5-0.2
				s-0.4,0.1-0.5,0.2C40.5,40.9,40.5,41,40.5,41.3L40.5,41.3z"/>
		</g>
	</g>
	<g>
		<g>
			<path class="st0" d="M40.9,51.4c-0.1,0.2-0.1,0.5-0.2,0.7c0,0.2,0,0.3,0,0.5s0,0.5,0.1,0.7c0,0.1,0,0.1,0,0.2s0.1,0.2,0.1,0.2
				c0,0.1,0.1,0.2,0.1,0.2c0.2,0.2,0.4,0.2,0.6,0.2c0.1,0,0.1,0,0.2,0c0.1,0,0.2-0.1,0.3-0.1c0.1-0.1,0.2-0.2,0.3-0.4
				c0.1-0.2,0-0.4-0.1-0.6c0,0,0,0,0-0.1c0,0.1,0.1,0.1,0.1,0.2c-0.1-0.1-0.1-0.3-0.1-0.5c0,0.1,0,0.1,0,0.2c0-0.3-0.1-0.6,0-0.9
				c0,0.1,0,0.1,0,0.2c0-0.1,0-0.2,0-0.3s0-0.1,0-0.2s-0.1-0.2-0.1-0.2c-0.1-0.1-0.2-0.2-0.4-0.3C41.4,51,41.1,51.1,40.9,51.4
				L40.9,51.4z"/>
		</g>
	</g>
	<g>
		<g>
			<path class="st0" d="M39.2,55.6c0.3,0.1,0.7,0.1,1,0.1s0.6,0,1,0c0.3,0,0.6,0,0.9,0.1c0.1,0,0,0-0.1,0h0.1c0.1,0,0.1,0,0.2,0
				c0.2,0,0.3,0.1,0.5,0.1c0.4,0.1,0.8-0.1,1-0.5c0.1-0.3,0-0.8-0.3-1C42.8,54.1,42,54,41.3,54c-0.3,0-0.7,0-1,0
				c-0.4,0-0.7,0-1.1,0.2c-0.3,0.1-0.5,0.3-0.5,0.6C38.7,55.2,38.9,55.5,39.2,55.6L39.2,55.6z"/>
		</g>
	</g>
	<g>
		<g>
			<path class="st0" d="M57.9,34.8c-2.2-0.1-4.3,0.7-6,2.1c-1.9,1.5-2.9,3.5-3.5,5.8c-0.3,1.2-0.6,2.5-0.5,3.7
				c0.1,1.3,0.7,2.6,1.1,3.9c0.8,2,3,3.3,4.9,4.1c4,1.8,9.5,1.4,13-1.4c3.2-2.5,4.2-7,2.6-10.7c-1-2.3-2.9-4.6-5.2-5.7
				c-1.9-0.9-4.5-2.5-6.8-1.8c-1.1,0.3-0.6,2,0.5,1.7c1.6-0.4,3.4,0.9,4.8,1.5c1.9,0.8,3.3,2.1,4.4,3.8c1.8,2.9,1.8,6.6-0.6,9.2
				c-2.5,2.7-6.8,3.3-10.2,2.5c-1.7-0.4-3.6-1.4-5-2.5c-0.8-0.7-1-1.7-1.3-2.6c-0.4-1.1-0.6-2.1-0.5-3.3c0.3-2.2,0.9-4.5,2.6-6.1
				c1.5-1.5,3.5-2.4,5.6-2.5C58.8,36.1,58.8,34.8,57.9,34.8L57.9,34.8z"/>
		</g>
	</g>
	<g>
		<g>
			<path class="st0" d="M60.3,42.7c-0.2-0.3-0.4-0.5-0.7-0.6c-0.3-0.2-0.6-0.2-0.9-0.3c-0.5,0-1.1,0.1-1.5,0.4
				c-0.9,0.6-1.6,1.6-1.6,2.7c-0.1,1.3,0.9,2.5,2.2,2.7c1.3,0.3,2.9-0.2,3.5-1.5c0.3-0.6,0.4-1.3,0.2-2c-0.1-0.3-0.3-0.7-0.5-0.9
				C60.8,43,60.6,42.9,60.3,42.7c-0.1,0-0.4,0-0.6,0.1c-0.3,0.1-0.5,0.4-0.6,0.7c0,0.3,0.1,0.6,0.4,0.8c0.1,0.1,0.2,0.1,0.3,0.1
				c0,0,0.1,0,0.1,0.1c0,0,0,0,0.1,0c0.1,0.1-0.2-0.2-0.1-0.1l0.1,0.1c0.1,0.1-0.1-0.1-0.1-0.1s0,0,0,0.1c0,0,0,0.1,0.1,0.1
				c0.1,0.1-0.1-0.1,0-0.1v0.1v0.1v0.1c0,0,0-0.3,0-0.1c0,0.1,0,0.2,0,0.3c0,0,0,0.2,0,0s0,0,0,0.1s0,0.2-0.1,0.3c0,0,0,0,0,0.1
				s0.1-0.2,0-0.1c0,0,0,0.1-0.1,0.1c0,0.1-0.1,0.2-0.2,0.2c0.2-0.2,0.1-0.1,0,0l-0.1,0.1c0,0,0,0-0.1,0c-0.1,0.1,0.1-0.1,0.1,0
				c-0.1,0-0.1,0.1-0.2,0.1S59.2,46,59.1,46H59c0.2-0.1,0.1-0.1,0.1,0c-0.1,0-0.3,0.1-0.4,0.1h-0.2c0,0,0.2,0,0.1,0h-0.1
				c-0.1,0-0.3,0-0.4,0H58c0,0,0.2,0,0.1,0s-0.1,0-0.2,0s-0.1,0-0.2,0h-0.1c0,0,0.2,0.1,0.1,0c-0.1,0-0.1-0.1-0.2-0.1
				c0,0-0.2-0.1-0.1,0s0,0-0.1-0.1l-0.1-0.1c0,0,0,0,0-0.1c-0.1-0.1,0.1,0.2,0.1,0.1l-0.1-0.1c0,0,0-0.1-0.1-0.1c0,0,0,0,0-0.1
				c-0.1-0.1,0,0.1,0,0.1c0-0.1-0.1-0.2-0.1-0.2v-0.1c0.1,0.3,0,0.1,0,0s0-0.2,0-0.3c0-0.2,0,0.2,0,0.1s0-0.1,0-0.2s0-0.2,0.1-0.2
				c0,0,0,0,0-0.1c0,0-0.1,0.2,0,0.1c0,0,0-0.1,0.1-0.1c0-0.1,0.1-0.2,0.1-0.2s0-0.1,0.1-0.1c0.1-0.1-0.1,0.2,0,0
				c0.1-0.1,0.3-0.3,0.4-0.4c-0.2,0.2-0.1,0.1,0,0l0.1-0.1c0.1-0.1,0.2-0.1,0.3-0.1c-0.3,0.1-0.1,0,0,0h0.1h0.1c0.2,0-0.2,0,0,0
				c0.1,0,0.2,0,0.3,0h0.1c0,0-0.2,0-0.1,0h0.1h0.1c0.1,0-0.2-0.1,0,0c0,0,0,0,0.1,0h0.1c0.1,0.1,0.1,0,0,0c0,0,0.1,0,0.1,0.1
				c0.2,0.1,0.6,0.1,0.8-0.1C60.4,43.3,60.5,43,60.3,42.7L60.3,42.7z"/>
		</g>
	</g>
	<g>
		<g>
			<path class="st0" d="M45.5,49.2c0.3,0,0.7-0.1,1-0.2s0.7-0.1,1-0.1c0.9-0.1,1.8-0.4,2.8-0.5c1-0.2,1.9-0.4,2.9-0.6
				c0.5-0.1,1-0.3,1.5-0.4s1.1-0.2,1.5-0.5c0.7-0.4,0.3-1.3-0.4-1.4c-0.5-0.1-1.1,0.2-1.6,0.3s-1,0.3-1.5,0.4c-1,0.3-2,0.5-3.1,0.7
				c-0.9,0.2-1.9,0.4-2.8,0.6c-0.7,0.1-1.5,0.2-1.9,0.8C44.6,48.6,45,49.2,45.5,49.2L45.5,49.2z"/>
		</g>
	</g>
</g>
</svg>
