<?xml version="1.0" encoding="utf-8"?>
<!-- Generator: Adobe Illustrator 24.3.0, SVG Export Plug-In . SVG Version: 6.00 Build 0)  -->
<svg version="1.1" id="Calque_1" xmlns="http://www.w3.org/2000/svg" xmlns:xlink="http://www.w3.org/1999/xlink" x="0px" y="0px"
	 viewBox="0 0 80 80" style="enable-background:new 0 0 80 80;" xml:space="preserve">
<style type="text/css">
	.st0{fill:#91D902;}
</style>
<g>
	<g>
		<g>
			<path class="st0" d="M58.9,40.2c3.3-1.4,5-5.5,5.9-8.7c0.6-2.2,1.1-4.7,1-7c0-2.4-0.8-4.9-1.6-7.1c-0.5-1.4-1.3-3-2.9-3.5
				c-2-0.5-3.9,0.8-5.4,1.9c-4,2.8-8.1,5.2-13,6.2c-2.8,0.6-5.5,0.6-8.3,0c-1.2-0.3-2.3-0.6-3.5-0.7c-1.4-0.1-2.8-0.3-4.2-0.6
				c-2.4-0.5-5.3-0.7-7.7-0.4c-1.7,0.2-3,1.2-3.7,2.7c-0.8,1.8-1.1,4.1-1.2,6c-0.2,2.4,0.9,4.3,2,6.3c2.2,4,6.2,5.9,10.4,7.2
				c5.3,1.7,10.6,2.7,16.2,2.2c2.9-0.3,5.7-0.8,8.5-1.6c1.3-0.4,2.7-0.8,4-1.2c1.4-0.5,2.7-1.2,4.1-1.8c1-0.4,0.6-2.1-0.5-1.7
				c-1,0.4-1.9,1-2.9,1.3c-1.1,0.4-2.2,0.8-3.3,1.1c-2.2,0.7-4.4,1.2-6.7,1.6c-4.6,0.8-9.4,0.9-14-0.2c-3.8-0.9-7.9-2-11.1-4.2
				c-1.8-1.2-2.8-2.8-3.8-4.7c-0.5-1-1.2-1.9-1.3-3c-0.1-1.2,0.1-2.4,0.3-3.6c0.3-1.5,0.4-3.6,1.9-4.4c0.8-0.4,1.7-0.4,2.5-0.4
				c1.3,0,2.6,0,3.8,0.2c1.2,0.1,2.4,0.4,3.6,0.6c1.1,0.2,2.3,0.1,3.5,0.3c2.3,0.4,4.5,1.1,6.8,1.2c4.2,0.1,8.4-1.3,12.1-3.1
				c1.8-0.9,3.6-2,5.3-3.2c1.2-0.9,3.7-3.2,5.4-2.3c1.6,0.8,2,3.9,2.4,5.5c0.8,2.8,0.6,5.4,0,8.3c-0.6,3.3-2,8-5.4,9.5
				C57.2,39.3,58,40.6,58.9,40.2L58.9,40.2z"/>
		</g>
	</g>
	<g>
		<g>
			<path class="st0" d="M15.1,30.1c0.3,1.3,1.4,2.1,2.4,2.8c1.4,0.9,2.8,1.6,4.4,2.2c3.5,1.3,7.1,1.4,10.8,2
				c1.9,0.3,3.7,0.4,5.6,0.6c1.9,0.1,3.9,0.4,5.8,0.4c3.6,0,7.3-0.9,10.6-2.3c1.8-0.7,3.6-1.5,5.4-2.2c1.5-0.6,3-1.4,4.1-2.6
				c0.7-0.8-0.5-2.1-1.2-1.2c-1.2,1.3-2.9,2-4.5,2.6c-2,0.8-3.9,1.7-5.8,2.3c-2,0.7-4.1,1.2-6.2,1.4c-2.2,0.3-4.2,0.1-6.4-0.1
				c-4.3-0.3-8.6-0.7-12.8-1.3c-2.1-0.3-4.1-0.9-6.1-1.7c-1.4-0.6-4.2-1.8-4.7-3.3C16.2,28.9,14.9,29.2,15.1,30.1L15.1,30.1z"/>
		</g>
	</g>
	<g>
		<g>
			<path class="st0" d="M24,35.1c-0.5,0.6-0.6,1.3-0.7,2.1c-0.1,0.8-0.3,1.7-0.1,2.5c0.1,0.6,0.6,1.1,1.3,0.9
				c0.5-0.2,0.7-0.8,0.3-1.2c-0.1-0.1,0.1,0.1,0.1,0.1s-0.1-0.2-0.2-0.2c-0.1-0.1,0,0,0.1,0.1v-0.1c-0.1-0.1,0.1,0.2,0,0.1v-0.1
				v-0.1c0-0.1,0-0.2,0,0c0-0.2,0-0.4,0-0.6c0-0.2,0-0.5,0-0.7c0-0.1,0-0.2,0-0.4c0-0.1,0,0.2,0,0c0-0.1,0-0.1,0-0.2
				c0-0.2,0.1-0.4,0.1-0.6c0-0.2,0.1-0.4,0.1-0.5s0-0.1,0.1-0.2v-0.1c0-0.1-0.1,0.2,0,0.1c0.2-0.3,0.1-0.7-0.2-0.9
				C24.7,34.9,24.2,34.8,24,35.1L24,35.1z"/>
		</g>
	</g>
	<g>
		<g>
			<path class="st0" d="M31.2,36c-1,0.8-1.2,2.1-1.2,3.3c0,0.6,0,1.1,0.1,1.7c0,0.3,0,0.5,0,0.8c0,0.1,0,0.3,0,0.4
				c0,0.1,0,0.1,0,0.2c0,0.1,0,0.2,0.1,0.3c0,0.1,0.1,0.1,0,0c0.2,0.6,1,0.8,1.3,0.2c0.3-0.5,0.2-1.2,0.2-1.7s-0.1-1.1-0.1-1.6
				c0-0.3,0-0.5,0-0.8s0-0.4,0.1-0.6c0.1-0.5,0.3-0.9,0.7-1.3c0.2-0.3,0.1-0.7-0.2-0.9C31.8,35.7,31.4,35.8,31.2,36L31.2,36z"/>
		</g>
	</g>
	<g>
		<g>
			<path class="st0" d="M37.8,36.8c-0.5,0.3-0.9,0.9-1.2,1.4c-0.3,0.6-0.4,1.2-0.4,1.8s0,1.2,0.1,1.8c0.1,0.5,0.2,1.1,0.3,1.6
				c0.1,0.4,0.6,0.7,1,0.6c0.5-0.1,0.6-0.6,0.6-1c-0.1-0.5-0.2-0.9-0.3-1.4c0-0.1,0-0.3-0.1-0.4c0,0,0-0.2,0-0.1c0,0.1,0-0.1,0-0.1
				c0-0.2,0-0.5,0-0.7s0-0.5,0-0.7c0,0.1,0-0.1,0-0.2c0-0.1,0.1-0.2,0.1-0.4c0-0.1,0-0.1,0.1-0.2c0,0.1,0,0,0,0
				c0.1-0.1,0.1-0.2,0.2-0.3c0.1-0.1,0-0.1,0.2-0.2c0.1-0.1,0.2-0.2,0.3-0.3c0.2-0.3,0.3-0.6,0.1-0.9C38.4,36.7,38.1,36.6,37.8,36.8
				L37.8,36.8z"/>
		</g>
	</g>
	<g>
		<g>
			<path class="st0" d="M43.6,37.6c-0.5,0.8-0.6,1.7-0.5,2.6c0,0.2,0.1,0.5,0.1,0.7c0,0.1,0,0.2,0,0.3s0,0.1,0,0c0,0.1,0,0.1,0,0.2
				c0,0.2,0,0.4,0.1,0.6c0,0.2,0,0.5,0.1,0.7c0.1,0.3,0.4,0.6,0.7,0.5c0.4,0,0.6-0.2,0.7-0.5c0.2-0.4,0-1,0-1.4
				c-0.1-0.4-0.1-0.7-0.2-1.1c0-0.1,0-0.1,0,0c0-0.1,0-0.1,0-0.2c0-0.1,0-0.2,0-0.3c0-0.2,0-0.4,0-0.5c0,0,0-0.3,0-0.2
				c0-0.1,0-0.1,0-0.2c0-0.1,0.1-0.2,0.1-0.3c0,0.1,0,0,0.1-0.1c0,0.1,0,0,0,0c0.2-0.3,0.1-0.8-0.3-1C44.3,37.2,43.9,37.3,43.6,37.6
				L43.6,37.6z"/>
		</g>
	</g>
	<g>
		<g>
			<path class="st0" d="M51,36.2c-0.9,0.6-1.1,1.8-1,2.8c0,0.5,0.1,1,0.2,1.5c0,0.1,0,0.1,0,0.2c0,0,0,0.2,0,0.1c0-0.1,0,0.1,0,0.1
				c0,0.1,0,0.1,0,0.2c0,0.3,0,0.6,0.2,0.9c0.3,0.5,0.9,0.4,1.2,0c0.3-0.4,0.1-1.1,0.1-1.5c-0.1-0.4-0.2-0.8-0.2-1.3
				c0,0,0-0.2,0-0.1c0,0.1,0-0.1,0-0.1c0-0.1,0-0.2,0-0.3c0-0.2,0-0.4,0-0.6c0,0.1,0,0.1,0,0s0-0.1,0-0.2c0-0.1,0.1-0.2,0.1-0.3
				c0,0.1,0,0,0,0s0-0.1,0.1-0.1c0.1-0.1,0.1-0.2,0.2-0.3c0.1-0.3,0.1-0.6-0.1-0.8C51.6,36.1,51.2,36,51,36.2L51,36.2z"/>
		</g>
	</g>
	<g>
		<g>
			<path class="st0" d="M57.2,34.8C57.1,34.9,57.2,34.9,57.2,34.8C57.3,34.7,57.3,34.7,57.2,34.8c-0.1,0-0.1,0.1-0.2,0.2
				c-0.1,0.1-0.1,0.3-0.2,0.4c-0.1,0.2-0.1,0.4-0.1,0.6c-0.1,0.5-0.1,1-0.1,1.6c0,0.5,0.1,1,0.3,1.5c0.2,0.5,0.4,1,0.9,1.3
				c0.7,0.4,1.3-0.4,1-1c0.2,0.3-0.1-0.2-0.1-0.1c0,0,0-0.1-0.1-0.1c0-0.1-0.1-0.1-0.1-0.2c0-0.1-0.1-0.2-0.1-0.2c0-0.1,0.1,0.2,0,0
				c0-0.1,0-0.1-0.1-0.2c-0.1-0.2-0.1-0.4-0.2-0.6c0-0.1,0-0.2-0.1-0.3c0-0.1,0-0.1,0,0c0-0.1,0-0.1,0-0.2c0-0.4,0-0.9,0-1.3v-0.1
				c0-0.1,0-0.1,0,0c0-0.1,0-0.2,0.1-0.3c0-0.1,0-0.2,0.1-0.2c0-0.1,0-0.2,0-0.3s0-0.1,0-0.2c0,0.2,0,0.3,0,0.2
				c0.1-0.3-0.1-0.6-0.4-0.7C57.7,34.4,57.4,34.5,57.2,34.8L57.2,34.8z"/>
		</g>
	</g>
	<g>
		<g>
			<path class="st0" d="M23.6,42c-1.1,1.6-1.3,3.9-1.5,5.8c-0.3,2.3-0.5,4.8-0.1,7.1c0.4,2.1,1,4.6,2.2,6.4c1,1.5,2.5,2.4,4.1,3.1
				c4,1.8,9.1,2.3,13.4,1.3c3.6-0.8,6.4-3.7,7.9-7c2.3-4.9,2-10.4,2.5-15.7c0.1-1-1.6-1.2-1.7-0.2c-0.3,2-0.1,4-0.3,6
				c-0.2,2.1-0.5,4.4-1,6.4c-0.9,3.2-2.7,6.4-5.7,8c-1.7,0.9-3.5,1-5.4,1c-2.1,0-4.2-0.1-6.2-0.6c-1.8-0.5-3.8-1.1-5.2-2.4
				c-1.3-1.2-1.7-3.1-2.2-4.7c-0.8-2.4-0.8-4.8-0.6-7.3c0.2-2,0.3-4.6,1.2-6.4C25.2,41.9,24.1,41.2,23.6,42L23.6,42z"/>
		</g>
	</g>
	<g>
		<g>
			<path class="st0" d="M36,44.5c-0.7,2.4-0.7,5-0.6,7.6c0,1.1,1.7,1.1,1.7,0c-0.1-2.4-0.1-4.8,0.4-7.2C37.6,43.9,36.3,43.6,36,44.5
				L36,44.5z"/>
		</g>
	</g>
	<g>
		<g>
			<path class="st0" d="M39.8,49.3c-0.8-0.2-1.7-0.1-2.5-0.1c-0.7,0-1.3-0.1-2-0.1c-1.3-0.2-2.2,0.4-3.1,1.2
				c-0.8,0.7-1.1,1.5-1.3,2.5c-0.3,1.5-0.5,3-0.5,4.6c0,0.5,0,1.2,0.2,1.7s0.7,0.7,1.2,0.9c1.2,0.4,2.5,0.4,3.7,0.4
				c1.4,0,2.9,0.2,4.3-0.1c1-0.2,1.3-0.9,1.3-1.8c0-0.7,0.1-1.4,0.2-2.1c0.1-0.8,0.3-1.7,0.3-2.6c0-0.7-0.3-1.3-0.6-1.8
				s-0.6-0.9-0.7-1.5c-0.1-0.5-0.6-0.7-1.1-0.6s-0.7,0.6-0.6,1.1c0.1,0.5,0.3,0.9,0.5,1.3s0.5,0.7,0.7,1.1c0.2,0.5,0.1,1,0,1.5
				c-0.1,0.7-0.2,1.4-0.3,2c-0.1,0.5-0.1,1-0.1,1.6c0,0.1,0,0.5,0,0.2c0,0,0,0.1,0,0.2c0.1-0.1,0.1-0.1,0-0.1c0-0.1,0.1-0.1,0.2-0.2
				c-0.1,0.1-0.1,0,0.1,0c-0.1,0-0.1,0-0.2,0.1c-0.2,0-0.2,0-0.5,0.1c-0.7,0-1.4,0-2.1,0c-1.2,0-2.3,0-3.5-0.1
				c-0.4,0-0.8-0.1-1.2-0.3c0,0-0.1-0.1-0.2-0.1l0,0c0.1,0.1,0.2,0.2,0.3,0.3c0.1,0,0,0.2,0,0s0-0.3,0-0.5c-0.1-1.3,0.1-2.7,0.3-4
				c0.1-0.4,0.1-0.9,0.2-1.3c0.1-0.3,0.2-0.5,0.3-0.7c0.3-0.4,0.8-0.8,1.2-1S35,51,35.5,51c0.7,0.1,1.3,0.1,2,0.1
				c0.8,0,1.6,0,2.4-0.1C40.6,50.6,40.6,49.4,39.8,49.3L39.8,49.3z"/>
		</g>
	</g>
	<g>
		<g>
			<path class="st0" d="M53.2,43.1c-0.2,1.3-0.2,2.7-0.2,4c0,0.9-0.2,1.8-0.3,2.7c-0.1,0.9-0.1,1.8,0.3,2.6c0.4,0.8,1.2,1.5,2,1.9
				s1.7,0.6,2.5,0.1c0.7-0.4,1.2-1.1,1.7-1.7c0.6-0.7,0.6-1.6,0.6-2.5c0-1.1,0-2.2,0-3.4c0-1.1,0-2.3,0-3.4s-0.1-2.2,0.3-3.2
				c0.3-1-1.3-1.4-1.6-0.4c-0.5,1.5-0.4,3.3-0.3,4.9c0,1.8-0.1,3.7-0.1,5.5c0,0.8,0,1.2-0.5,1.8c-0.3,0.4-0.8,1.1-1.4,1.1
				c-0.6-0.1-1.5-0.8-1.7-1.3c-0.3-0.6-0.2-1.4-0.1-2.1c0.1-0.9,0.2-1.8,0.2-2.7c0-1.3,0.2-2.6,0-3.9C54.5,42.1,53.3,42.1,53.2,43.1
				L53.2,43.1z"/>
		</g>
	</g>
	<g>
		<g>
			<path class="st0" d="M56.2,46.4c0.9,0,0.9-1.4,0-1.4S55.2,46.4,56.2,46.4L56.2,46.4z"/>
		</g>
	</g>
	<g>
		<g>
			<path class="st0" d="M56.2,50c0.9,0,0.9-1.4,0-1.4C55.2,48.6,55.2,50,56.2,50L56.2,50z"/>
		</g>
	</g>
</g>
</svg>
