<?xml version="1.0" encoding="utf-8"?>
<!-- Generator: Adobe Illustrator 24.3.0, SVG Export Plug-In . SVG Version: 6.00 Build 0)  -->
<svg version="1.1" id="Calque_1" xmlns="http://www.w3.org/2000/svg" xmlns:xlink="http://www.w3.org/1999/xlink" x="0px" y="0px"
	 viewBox="0 0 80 80" style="enable-background:new 0 0 80 80;" xml:space="preserve">
<style type="text/css">
	.st0{fill:#91D902;}
</style>
<g>
	<g>
		<g>
			<path class="st0" d="M30.5,32.2c-0.2-0.7,0.1-1.4,0.2-2.1c0.2-0.7,0.2-1.4,0.5-2.1c0.7-1.5,2.1-2.6,3.5-3.3s3-1.2,4.5-1.7
				c1.9-0.6,3.8-0.8,5.8-0.3c2.3,0.6,5.9,1.6,7.1,3.9c1.5,2.9,0.7,6.3-0.6,9.2c-1.2,2.7-2.8,5.2-4.1,7.8c-0.6,1.2-1.3,2.3-2,3.4
				c-1.1,1.9-2.2,3.7-3.4,5.5c-0.8,1.3-1.6,2.7-2.6,3.9c-1,1.1-2.4,1.2-3.8,1.2c-1.7,0-3.1-0.6-4.3-1.9c-1.1-1.2-2-2.8-2.7-4.2
				c-0.9-1.7-0.9-3.4-1.4-5.2c-0.3-1.1-2-0.6-1.7,0.5c0.2,0.9,0.2,1.8,0.4,2.7s0.5,1.7,0.9,2.5c0.7,1.6,1.7,3.1,2.7,4.4
				c2,2.6,5,3.4,8.1,2.9c2.3-0.4,3.4-2,4.6-3.8c1.4-2.1,2.7-4.2,4-6.4c0.9-1.5,1.9-3,2.7-4.7c1.5-3.1,3.4-6,4.7-9.3
				c1.2-3,1.6-6.9-0.2-9.8c-1.6-2.5-5.1-3.6-7.8-4.4c-2.2-0.6-4.5-0.5-6.7,0.2c-1.9,0.6-3.9,1.3-5.6,2.2c-1.6,0.9-3,2.3-3.7,4
				c-0.3,0.8-0.4,1.8-0.6,2.7c-0.2,0.8-0.3,1.6-0.1,2.4C29.4,33.5,30.8,33.1,30.5,32.2L30.5,32.2z"/>
		</g>
	</g>
	<g>
		<g>
			<path class="st0" d="M29.4,47.1c-0.1,1.9,1.3,3.6,2.2,5.2s2.2,3.1,4.2,3.2c3.5,0.2,5.5-3.7,6.8-6.4c2.2-4.5,4-9.1,6-13.7
				c0.9-2,2.2-4,1.4-6.2c-0.6-1.7-2.3-2.5-3.8-3.1c-2.5-0.9-5-0.9-7.6-0.3C37,26.2,34,27.3,34,29.4c0,1.2,1.8,1.2,1.8,0
				c0-0.5,1.2-1,1.5-1.2c0.9-0.4,1.8-0.6,2.8-0.8c2-0.3,3.7-0.2,5.6,0.5c1.5,0.5,3,1.4,2.8,3.3c-0.2,1.8-1.5,3.7-2.2,5.3
				c-0.8,1.8-1.7,3.6-2.5,5.5c-0.7,1.7-1.4,3.5-2.2,5.2c-1,2.1-2.1,5-4.3,6.2c-1.7,1-3.1-0.1-4-1.6c-0.8-1.3-2.2-3-2.3-4.6
				C31,46.1,29.5,46.1,29.4,47.1L29.4,47.1z"/>
		</g>
	</g>
	<g>
		<g>
			<path class="st0" d="M31,29c0.2-0.1,0.5-0.2,0.7-0.2c0.1,0,0.1,0,0.2,0c0,0,0.2,0,0.1,0c-0.1,0,0.1,0,0.1,0c0.1,0,0.2,0,0.2,0
				c0.1,0,0.2,0,0.4,0c0.1,0,0.3,0,0.1,0c0.1,0,0.1,0,0.2,0c0.1,0,0.2,0.1,0.3,0.1s-0.1-0.1,0,0h0.1c0.1,0,0.1,0.1,0.2,0.1
				c0.1,0-0.1,0-0.1,0s0,0,0.1,0.1l0.1,0.1c-0.1-0.1-0.1-0.1,0,0c0,0,0.1,0.2,0.1,0.1c0-0.1,0,0.1,0,0.1s0,0.2,0,0.1
				c0,0.1,0,0.2,0,0.3c0,0,0-0.1,0,0s0,0.1,0,0.2c-0.1,0.4-0.3,0.8-0.4,1.1c-0.2,0.4-0.2,0.9-0.3,1.3C33,32.7,33,33,32.9,33.2
				c0,0.2-0.1,0.5-0.1,0.8c0.1-0.2,0.2-0.4,0.3-0.6l0,0c0.5,0.1,0.9,0.1,1.4,0.2c0.1,0.2,0.1,0.2,0.1,0.1c-0.2-0.7-1.2-0.8-1.5-0.2
				c0,0.1-0.1,0.2-0.1,0.3c-0.2,0.6,0.3,1.1,0.8,1.1c0.9,0,0.9-1,1.1-1.6c0.1-0.5,0.2-1,0.3-1.5s0.4-0.9,0.5-1.4
				c0.2-0.9,0-1.9-0.7-2.6c-0.6-0.5-1.3-0.7-2.1-0.7s-1.7,0.2-2.3,0.8C29.7,28.2,30.3,29.2,31,29L31,29z"/>
		</g>
	</g>
	<g>
		<g>
			<path class="st0" d="M29,32c-0.4,0.3-0.3,0.9-0.2,1.4c0.1,0.4,0.3,0.7,0.6,1.1c0.5,0.6,1.1,1,1.8,1.3s1.4,0.3,2.1,0
				c0.3-0.1,0.6-0.3,0.8-0.4c0.3-0.1,0.6-0.3,0.8-0.5c0.4-0.4,0.3-1.3-0.4-1.4c-0.3-0.1-0.5,0-0.8,0.1c-0.1,0-0.2,0.1-0.3,0.1
				c-0.2,0.1-0.4,0.2-0.6,0.3c0,0-0.1,0-0.1,0.1c-0.2,0.1,0.2-0.1,0,0c-0.1,0-0.2,0.1-0.4,0.1h-0.1c0.1,0,0.1,0,0.1,0
				c-0.1,0-0.2,0-0.2,0c-0.2,0,0.2,0,0,0c-0.1,0-0.1,0-0.2-0.1c-0.1,0-0.2,0-0.2-0.1c0.1,0.1,0,0,0,0c-0.1-0.1-0.2-0.1-0.3-0.2
				c-0.1,0-0.1-0.1-0.2-0.1c0,0-0.1,0-0.1-0.1c0.1,0.1,0.1,0.1,0,0s-0.2-0.2-0.3-0.3s-0.2-0.2-0.3-0.3c0.1,0.1,0,0,0-0.1
				s-0.1-0.1-0.1-0.2c-0.1-0.2,0,0.1,0,0s0-0.1-0.1-0.2c0-0.1,0-0.1,0,0c0-0.1,0-0.1,0-0.2c0-0.1,0-0.2-0.1-0.4
				C29.9,31.7,29.4,31.7,29,32L29,32z"/>
		</g>
	</g>
	<g>
		<g>
			<path class="st0" d="M28.9,32.9c-0.4,0.6-0.7,1.2-1,1.8c-0.4,0.7-0.8,1.4-1.1,2.2c-0.6,1.3-1.2,3.1-0.3,4.4
				c0.8,1.2,2.5,2,3.9,2.1c1.6,0.1,2.8-1,3.2-2.5c0.2-0.8,0.3-1.7,0.4-2.6c0.2-1.2,0.5-2.3,0.8-3.5c0.3-1.1-1.4-1.5-1.7-0.5
				c-0.5,1.6-0.8,3.4-1.1,5c-0.1,0.9-0.3,2.1-1.4,2.2c-0.3,0-0.3,0-0.6-0.1s-0.5-0.2-0.8-0.3c-0.5-0.2-1-0.5-1.4-0.9
				c-0.1-0.1,0.1,0.1,0,0c0,0-0.1-0.2-0.1-0.1c0,0-0.1-0.2-0.1-0.3c0-0.2,0-0.5,0-0.7c0.1-0.6,0.3-1.2,0.6-1.8
				c0.3-0.7,0.7-1.4,1.1-2.1c0.3-0.7,0.7-1.4,0.7-2.1C30.3,32.5,29.3,32.4,28.9,32.9L28.9,32.9z"/>
		</g>
	</g>
	<g>
		<g>
			<path class="st0" d="M26,46.4c-0.3,0.2-0.3,0.6-0.3,0.9c0.1,0.2,0.2,0.4,0.4,0.6c0.2,0.3,0.6,0.6,0.9,0.8
				c0.8,0.5,1.9,0.5,2.7,0.1c0.2-0.1,0.5-0.3,0.6-0.5c0.2-0.3,0.5-0.7,0.4-1c0-0.4-0.2-0.7-0.6-0.8c-0.3-0.1-0.8,0-1,0.4
				c0,0.1-0.1,0.2-0.1,0.3c-0.1,0.2,0.1-0.2,0,0c0,0,0,0.1-0.1,0.1c0.1-0.2,0.1-0.1,0-0.1c-0.1,0.1-0.2,0.1,0,0l-0.1,0.1
				c0,0-0.1,0-0.1,0.1c0.2-0.1,0.1-0.1,0.1,0c-0.1,0-0.2,0.1-0.3,0.1c-0.2,0,0.2,0,0,0h-0.1c-0.1,0-0.2,0-0.3,0c-0.2,0,0.2,0,0,0H28
				h-0.1c-0.1,0-0.1-0.1,0.1,0c-0.1,0-0.1-0.1-0.2-0.1c-0.1,0-0.1-0.1-0.2-0.1l-0.1-0.1c-0.1-0.1,0.2,0.1,0,0
				c-0.1-0.1-0.3-0.2-0.4-0.3c0-0.1,0.1,0.2,0.1,0.1s-0.1-0.2,0,0.1c0-0.1-0.1-0.4,0-0.1c0-0.1,0-0.1,0,0.1c0,0.1-0.1,0.3-0.1,0.4
				l0,0c0.2-0.3,0.1-0.8-0.2-1C26.7,46.1,26.3,46.2,26,46.4L26,46.4z"/>
		</g>
	</g>
	<g>
		<g>
			<path class="st0" d="M27.2,46.4c0.1-0.2,0.1-0.3,0.1-0.5c0-0.1,0-0.2,0-0.3s0-0.2,0-0.3s0,0.2,0,0c0-0.1,0-0.2,0-0.3s0-0.1,0,0
				v-0.1c0-0.1,0-0.2,0.1-0.3c0-0.2,0.1-0.4,0.1-0.6c0.2-0.8,0.4-1.5,0.6-2.3c0.1-0.4-0.1-0.9-0.6-1c-0.4-0.1-0.9,0.1-1,0.6
				c-0.2,0.8-0.4,1.6-0.6,2.4c-0.1,0.5-0.2,0.9-0.2,1.4c0,0.2,0,0.4,0,0.6c0,0.1,0,0.3,0,0.4s0,0.1,0.1,0.2c0,0,0.2,0.3,0.1,0.2
				c0.1,0.2,0.3,0.3,0.6,0.3C26.8,46.7,27.1,46.6,27.2,46.4L27.2,46.4z"/>
		</g>
	</g>
	<g>
		<g>
			<path class="st0" d="M30.7,47.2C30.7,47.1,30.7,47.1,30.7,47.2c0-0.1,0.1-0.1,0.1-0.2c0.1-0.1,0.1-0.2,0.2-0.4
				c0.1-0.2,0.1-0.3,0.2-0.5c0.1-0.3,0.2-0.7,0.3-1c0.2-0.8,0.4-1.5,0.4-2.3c0-0.4-0.4-0.8-0.8-0.8c-0.4,0-0.8,0.4-0.8,0.8
				c0,0.2,0,0.4,0,0.6c0,0,0,0.3,0,0.1c0,0.1,0,0.2,0,0.3c-0.1,0.3-0.2,0.7-0.2,1c-0.1,0.3-0.2,0.7-0.3,1c0,0.2-0.1,0.4-0.1,0.6
				s0,0.4,0,0.6c0,0.3,0.2,0.6,0.5,0.6C30.3,47.7,30.6,47.5,30.7,47.2L30.7,47.2z"/>
		</g>
	</g>
	<g>
		<g>
			<path class="st0" d="M28.8,45.9L28.8,45.9C28.8,45.9,28.8,46,28.8,45.9C28.8,46,28.8,45.9,28.8,45.9L28.8,45.9
				C28.8,46,28.8,46,28.8,45.9c0,0.1,0,0.2,0,0.2l0,0c0,0.1,0,0.1-0.1,0.2l0,0l-0.1,0.1l0,0c-0.3,0-0.6,0-0.9,0
				c0.1,0.2,0.3,0.2,0.5,0.2l0,0c-0.1,0-0.1,0-0.2,0l0,0c-0.2-0.2-0.3-0.3-0.5-0.5c0,0.1,0,0.1,0.1,0.2c0,0.1,0.1,0.1,0.1,0.2
				c0.1,0.1,0.1,0.1,0.2,0.2c0.1,0,0.2,0.1,0.3,0.1s0.2,0,0.3-0.1c0.1,0,0.2-0.1,0.2-0.2c0.1-0.1,0.1-0.1,0.2-0.2
				c0-0.1,0.1-0.2,0.1-0.3s0-0.1,0-0.2s-0.1-0.2-0.2-0.3c-0.1,0-0.1-0.1-0.2-0.1c-0.1-0.1-0.2-0.1-0.4-0.1c-0.1,0-0.1,0-0.2,0
				c-0.1,0-0.2,0.1-0.3,0.1c-0.1,0.1-0.1,0.1-0.2,0.2c0,0.1-0.1,0.1-0.1,0.2c0.1-0.1,0.2-0.3,0.3-0.4c0,0,0,0-0.1,0
				s-0.2,0.1-0.2,0.2c0.2-0.1,0.2-0.1,0.2,0s0,0.1,0,0.2s0,0.3,0.1,0.4l0,0c0-0.2,0-0.4,0-0.6l0,0c0,0,0,0.1-0.1,0.2l0,0l0,0l0,0
				c0,0.1,0,0.1,0,0.2s0,0.2,0,0.2v0.1c0,0.1,0.1,0.2,0.1,0.3s0.1,0.1,0.2,0.2c0.1,0.1,0.1,0.1,0.2,0.1c0.1,0,0.2,0,0.2,0
				c0.1,0,0.2,0,0.2-0.1l0.1-0.1c0.1-0.1,0.1-0.2,0.2-0.3c0-0.1,0-0.1,0-0.2C28.9,46.1,28.8,46,28.8,45.9L28.8,45.9z"/>
		</g>
	</g>
	<g>
		<g>
			<path class="st0" d="M32.4,30.5L32.4,30.5C32.4,30.5,32.4,30.6,32.4,30.5C32.4,30.6,32.4,30.5,32.4,30.5L32.4,30.5L32.4,30.5
				C32.4,30.5,32.3,30.6,32.4,30.5C32.3,30.6,32.4,30.6,32.4,30.5L32.4,30.5C32.3,30.6,32.3,30.6,32.4,30.5
				c-0.1,0.1-0.2,0.1-0.2,0.1h0.1c-0.1,0-0.1,0-0.2,0h0.2l0,0l0,0l0,0c-0.1,0-0.1,0-0.2,0c0,0,0,0,0.1,0c-0.1,0-0.1,0-0.2,0l0,0
				c-0.1,0-0.1,0-0.2-0.1l0,0l-0.1-0.1l0,0l-0.1-0.1l0.1,0.1l-0.1-0.1l0,0c0-0.1,0-0.1-0.1-0.2l0,0c0-0.1,0-0.1,0-0.2l0,0
				c0-0.1,0-0.1,0-0.2c0,0.1,0,0.1,0,0.2l0,0c0-0.1,0-0.1,0-0.2v0.1c0-0.1,0-0.1,0.1-0.2c0,0.1-0.1,0.1-0.1,0.2
				c0-0.1,0.1-0.1,0.1-0.2l0,0c0.2-0.1,0.5-0.1,0.7-0.2l0,0c0.1,0,0.1,0.1,0.2,0.1l0,0c0.1,0,0.1,0.1,0.2,0.1l0,0
				c0,0.1,0.1,0.1,0.1,0.2l0,0c0,0.1,0.1,0.1,0.1,0.2l0,0c0,0.1,0,0.1,0,0.2l0,0c0,0.1,0,0.1,0,0.2l0,0c0,0.1-0.1,0.1-0.1,0.2
				c0-0.1,0.1-0.1,0.1-0.2v-0.1v-0.1V30l0,0l-0.1-0.2l0,0c0-0.1-0.1-0.1-0.1-0.2c-0.1-0.1-0.1-0.1-0.2-0.2c-0.1,0-0.2-0.1-0.3-0.1
				s-0.2,0-0.3,0.1c-0.1,0-0.2,0.1-0.2,0.2c0,0.1-0.1,0.1-0.1,0.2c-0.1,0.1-0.1,0.2-0.1,0.4c0,0.1,0,0.1,0,0.2
				c0,0.1,0.1,0.2,0.2,0.3l0,0c0-0.1-0.1-0.1-0.1-0.2l0,0c0-0.1-0.1-0.1-0.1-0.2l0,0c0-0.1,0-0.1,0-0.2l0,0c0-0.1,0-0.1,0-0.2l0,0
				c0-0.1,0.1-0.1,0.1-0.2c0,0.1-0.1,0.1-0.1,0.2c0,0.1,0,0.3,0,0.4c0.1,0.3,0.3,0.5,0.6,0.6c0.1,0,0.1,0,0.2,0c0.1,0,0.2,0,0.3-0.1
				c0.1,0,0.1,0,0.2-0.1c0.1-0.1,0.1-0.1,0.2-0.2c0,0,0,0,0-0.1s0.1-0.2,0.1-0.2v-0.1c0-0.1,0-0.1,0-0.2l0,0l0,0c0-0.1,0-0.2,0-0.2
				v-0.1v-0.1l0,0c0,0,0-0.1-0.1-0.1c0,0,0-0.1-0.1-0.1l0,0l-0.1-0.1l0,0l0,0l0,0l0,0c0,0-0.1-0.1-0.2-0.1l0,0c0,0-0.1,0-0.2,0l0,0
				l0,0l0,0c-0.1,0-0.1,0-0.2,0l0,0l0,0c-0.1,0-0.1,0-0.2,0.1l0,0c-0.1,0-0.1,0.1-0.2,0.2l0,0l-0.1,0.1l0,0l0.1-0.1
				c-0.1,0.1-0.1,0.1-0.2,0.2l0,0c0,0.1-0.1,0.1-0.1,0.2v0.1c0,0.1,0,0.2,0,0.3s0,0.2,0.1,0.2c0,0.1,0.1,0.1,0.1,0.2
				c0.1,0.1,0.1,0.1,0.2,0.1c0.1,0,0.1,0.1,0.2,0.1c0.1,0,0.1,0,0.2,0c0.1,0,0.2-0.1,0.3-0.2l0.1-0.1C32.3,30.7,32.4,30.6,32.4,30.5
				L32.4,30.5z"/>
		</g>
	</g>
	<g>
		<g>
			<path class="st0" d="M29.2,35.3c-0.1,0.5-0.2,1-0.4,1.4c-0.1,0.2-0.2,0.5-0.3,0.7c0,0.1,0.1-0.2,0-0.1v0.1c0,0,0,0.1-0.1,0.1
				c0,0,0,0.1-0.1,0.1c-0.1,0.2-0.1,0.3-0.1,0.5c0-0.1,0-0.1,0-0.2V38c-0.1,0.3,0.1,0.7,0.3,0.8c0.3,0.2,0.7,0.1,0.9-0.1
				c0.1-0.1,0.2-0.2,0.3-0.3s0.1-0.3,0.2-0.5c0.1-0.2,0.2-0.5,0.3-0.8c0.2-0.5,0.3-1.1,0.3-1.7c0-0.4-0.3-0.7-0.6-0.7
				C29.7,34.8,29.3,35,29.2,35.3L29.2,35.3z"/>
		</g>
	</g>
	<g>
		<g>
			<path class="st0" d="M30.5,35.1c0,0.1-0.2,0.4-0.1,0.2c0,0.1-0.1,0.1-0.1,0.2c-0.1,0.2-0.1,0.4-0.2,0.5c-0.1,0.3-0.2,0.5-0.3,0.8
				s-0.2,0.5-0.2,0.8c-0.1,0.3-0.2,0.6-0.1,0.9c0-0.1,0-0.3,0-0.4l0,0c0.2-0.2,0.4-0.4,0.5-0.5l0,0c0.1,0,0.3,0,0.4,0
				c0.3,0.2,0.4,0.2,0.3,0.1c-0.2-0.2-0.6-0.3-0.9-0.1c-0.3,0.2-0.4,0.5-0.3,0.8c0,0.1,0,0,0-0.1c0,0.1,0,0.1,0,0.2
				c0,0.2,0.1,0.2,0.2,0.4c0.2,0.2,0.5,0.3,0.8,0.2c0.2-0.1,0.4-0.2,0.5-0.4s0.1-0.3,0.1-0.5c0,0.1,0,0.1,0,0.2
				c0-0.2,0.1-0.5,0.2-0.7c0.1-0.2,0.1-0.5,0.2-0.7c0.1-0.5,0.3-1,0.4-1.6c0-0.3-0.2-0.6-0.5-0.6C31,34.7,30.7,34.8,30.5,35.1
				L30.5,35.1z"/>
		</g>
	</g>
	<g>
		<g>
			<path class="st0" d="M32,35.2c0,0.7-0.2,1.4-0.5,2.1c-0.1,0.4-0.3,0.7-0.4,1.1c-0.1,0.4-0.4,0.8-0.3,1.2c0,0.3,0.2,0.6,0.6,0.7
				c0.3,0.1,0.7,0,0.8-0.3c0.1-0.2,0.2-0.4,0.2-0.7c0.1-0.2,0.1-0.4,0.2-0.6c0.1-0.4,0.3-0.8,0.4-1.1c0.3-0.8,0.5-1.7,0.3-2.6
				c-0.1-0.3-0.4-0.5-0.7-0.5C32.2,34.6,32,34.9,32,35.2L32,35.2z"/>
		</g>
	</g>
</g>
</svg>
