<?xml version="1.0" encoding="utf-8"?>
<!-- Generator: Adobe Illustrator 24.3.0, SVG Export Plug-In . SVG Version: 6.00 Build 0)  -->
<svg version="1.1" id="Calque_1" xmlns="http://www.w3.org/2000/svg" xmlns:xlink="http://www.w3.org/1999/xlink" x="0px" y="0px"
	 viewBox="0 0 80 80" style="enable-background:new 0 0 80 80;" xml:space="preserve">
<style type="text/css">
	.st0{fill:#91D902;}
</style>
<g>
	<g>
		<g>
			<path class="st0" d="M23.9,18.4c0.2,0.2,0.3,0.6,0.5,0.9c0.4,0.6,0.8,1.1,1.3,1.6c1,1.2,1.8,2.5,2.8,3.8c1.9,2.6,3.8,5.1,5.5,7.8
				c3.3,5.1,7.4,9.7,10.7,14.8c0.6,0.9,2.1,0.1,1.5-0.9C42.9,41,38.5,36.3,35.1,31c-1.7-2.7-3.7-5.2-5.6-7.8
				c-0.9-1.2-1.7-2.4-2.6-3.6c-0.4-0.5-0.9-1.1-1.3-1.7c-0.2-0.3-0.4-0.7-0.8-0.9C24.1,16.9,23.3,17.8,23.9,18.4L23.9,18.4z"/>
		</g>
	</g>
	<g>
		<g>
			<path class="st0" d="M44.1,55.4c-0.3-0.2-0.4-1.1-0.4-1.4c-0.1-0.8-0.1-1.6,0-2.4c0.3-1.5,0.9-2.8,2.3-3.6
				c1.2-0.7,2.5-0.9,3.9-0.8c0.9,0.1,1.6,0.5,2.3,0.8c0.3,0.2,0.7,0.3,1,0.6c0.2,0.3,0.4,0.6,0.6,0.9c0-0.4,0-0.8,0-1.2
				c-0.4,0.4-1,0.6-1.4,0.9c-0.5,0.4-1,0.7-1.5,1c-1.1,0.7-2.2,1.4-3.3,2.2c-0.8,0.6-1.6,1.4-2.4,2c-0.3,0.2-0.6,0.4-0.9,0.6
				c-0.2,0.1-0.3,0.2-0.5,0.3l-0.2,0.1c0,0,0.2,0,0.1,0C43.8,55.4,44,55.5,44.1,55.4L44.1,55.4c-1-0.4-1.9,1.1-0.9,1.6
				c0.8,0.4,1.7-0.3,2.3-0.7c0.9-0.6,1.6-1.3,2.4-2c1.1-0.9,2.3-1.7,3.5-2.4c0.6-0.4,1.2-0.8,1.7-1.2c0.6-0.4,1.2-0.7,1.7-1.1
				c0.4-0.3,0.3-0.9,0-1.2c-0.2-0.2-0.4-0.6-0.6-0.8c-0.3-0.3-0.6-0.5-1-0.7c-0.7-0.4-1.5-0.8-2.3-1c-1.4-0.4-3-0.3-4.4,0.2
				c-1.3,0.4-2.5,1.1-3.4,2.2c-1,1.3-1.5,3.1-1.5,4.7c0,1.3,0.1,3.4,1.4,4.1C44.2,57.2,44.9,56,44.1,55.4L44.1,55.4z"/>
		</g>
	</g>
	<g>
		<g>
			<path class="st0" d="M46.8,54.9c0.1,0.8,0.8,1.3,1.3,2c0.5,0.8,1,1.6,1.6,2.3c0.5,0.7,1,1.3,1.5,2s1.2,1.3,2.1,1.5
				c1.4,0.3,3.4-0.5,3.6-2c0.2-1.6-0.9-3.2-1.9-4.4c-0.6-0.8-1.2-1.6-1.8-2.5c-0.5-0.8-1.3-1.4-1.7-2.3c-0.5-1-2-0.1-1.5,0.9
				c0.3,0.6,0.8,1.2,1.3,1.7c0.5,0.6,0.9,1.2,1.3,1.9c0.8,1.1,1.8,2.1,2.3,3.4c0.1,0.3,0.2,0.6,0.2,0.9c0,0.1,0,0.2,0,0.3
				c0,0.1-0.1,0.1,0,0.1c-0.2,0.3-1,0.5-1.3,0.5c-0.6-0.1-1-0.5-1.3-1c-0.4-0.6-0.9-1.2-1.4-1.8c-0.5-0.7-0.9-1.4-1.4-2.1
				c-0.2-0.3-0.5-0.7-0.7-1s-0.5-0.5-0.7-0.8C47.7,53.5,46.6,54.1,46.8,54.9L46.8,54.9z"/>
		</g>
	</g>
	<g>
		<g>
			<path class="st0" d="M53.1,51.1c0.8,0.3,1.7,0.3,2.4,0.8c0.7,0.4,1.2,1.1,1.5,1.9c0.3,0.7,0.4,1.6,0,2.3c-0.2,0.4-0.6,0.7-0.9,1
				s-0.5,0.7-0.8,0.9c-1,0.6-0.1,2.1,0.9,1.5c0.5-0.3,0.9-0.8,1.3-1.2c0.4-0.4,0.9-0.9,1.2-1.4c0.6-1.1,0.5-2.5,0.1-3.6
				s-1.2-2.2-2.3-2.8c-0.5-0.3-1-0.5-1.6-0.6c-0.7-0.2-1.3-0.3-1.9,0C52.4,50.1,52.6,50.9,53.1,51.1L53.1,51.1z"/>
		</g>
	</g>
	<g>
		<g>
			<path class="st0" d="M54.7,17.8C53.9,19,53,20,52,21.2c-0.8,1-1.5,2.1-2.3,3.2c-0.9,1.2-1.5,2.5-2.4,3.7
				c-0.8,1.3-1.8,2.4-2.6,3.7c-1.6,2.6-3.4,5.1-5,7.8c-0.8,1.3-1.5,2.6-2.4,3.9C36.5,44.6,35.9,46,35,47c-0.7,0.8,0.5,2.1,1.2,1.2
				c0.8-1,1.3-2.1,2-3.2c0.9-1.3,1.7-2.6,2.5-4c1.6-2.8,3.6-5.4,5.2-8.2c0.8-1.3,1.8-2.4,2.6-3.7c0.9-1.3,1.6-2.6,2.5-3.9
				c0.8-1.2,1.6-2.4,2.5-3.4s1.8-2.1,2.3-3.4C56.4,17.6,55.2,17.1,54.7,17.8L54.7,17.8z"/>
		</g>
	</g>
	<g>
		<g>
			<path class="st0" d="M27,48.9c0.1-0.4,0.8-0.8,1.2-0.9c0.7-0.3,1.5-0.6,2.3-0.7c1.6-0.2,3.1,0.1,4.5,0.9c0.6,0.3,0.9,0.8,1.2,1.3
				c0.4,0.7,0.9,1.4,1,2.2c0.1,0.7-0.1,1.4-0.4,2c-0.3,0.7-0.6,1.4-1.1,1.9c-0.8,0.8,0.4,2.1,1.3,1.3c0.7-0.7,1.1-1.7,1.5-2.6
				s0.6-1.9,0.4-2.8c-0.2-1.1-0.9-2-1.4-2.9c-0.4-0.8-1-1.3-1.7-1.8c-1.9-1-3.9-1.3-6-0.9c-1,0.2-2,0.5-2.8,1
				c-0.6,0.4-1.4,1-1.5,1.7C25.4,49.4,26.8,49.8,27,48.9L27,48.9z"/>
		</g>
	</g>
	<g>
		<g>
			<path class="st0" d="M25.6,49.1c0.2,0.5,0.5,0.8,1,1.1c0.4,0.3,0.8,0.6,1.2,0.9c0.9,0.7,1.9,1.4,2.9,2.1c0.5,0.3,0.9,0.6,1.4,0.8
				c0.5,0.2,1,0.5,1.4,0.8c0.4,0.4,0.8,0.8,1.2,1c0.2,0.1,0.8,0.4,0.9,0.5c0.6,1,2.2,0.1,1.5-0.9c-0.3-0.4-0.7-0.7-1.1-0.9
				c-0.4-0.2-0.7-0.4-1.1-0.8c-0.8-0.8-1.8-1.2-2.8-1.7c-1-0.6-2-1.3-2.9-2c-0.5-0.3-0.9-0.7-1.3-1c-0.3-0.2-0.7-0.4-1-0.7
				C26.4,47.8,25.3,48.4,25.6,49.1L25.6,49.1z"/>
		</g>
	</g>
	<g>
		<g>
			<path class="st0" d="M29,51.1c-0.3,0.3-0.6,0.7-0.9,1c-0.3,0.4-0.6,0.8-1,1.1c-0.6,0.7-1.2,1.5-1.8,2.3c-0.5,0.8-0.9,1.7-1.4,2.5
				c-0.4,0.8-0.8,1.7-0.6,2.6c0.3,1.5,1.8,2.5,3.3,2.3c1.6-0.2,2.9-1.8,3.6-3.2c0.5-0.9,0.9-1.8,1.4-2.7c0.6-1,1.2-1.9,1.7-2.9
				s-1-1.9-1.5-0.9C31,54.7,30,56,29.3,57.5c-0.6,1.2-1.2,2.5-2.3,3.3c-0.4,0.3-0.8,0.5-1.3,0.3c-0.4-0.2-0.7-0.5-0.7-0.9
				c-0.1-0.6,0.4-1.3,0.7-1.9c0.4-0.7,0.7-1.4,1.2-2.1s1.1-1.4,1.6-2.1c0.6-0.7,1.4-1.5,1.7-2.4C30.5,51.1,29.6,50.7,29,51.1
				L29,51.1z"/>
		</g>
	</g>
	<g>
		<g>
			<path class="st0" d="M27.9,49.4c-0.4-0.1-0.7,0-1.1,0.1c-0.3,0-0.6,0.1-0.9,0.1c-0.7,0.2-1.3,0.4-2,0.7c-1.3,0.6-2.3,1.6-2.8,2.9
				c-0.5,1.2-0.3,2.7,0.3,3.8c0.3,0.6,0.7,1,1.1,1.5c0.3,0.4,0.8,0.9,1.3,1s1-0.1,1.1-0.6c0.1-0.4-0.2-1-0.6-1.1c-0.1,0,0,0,0.1,0
				c-0.1-0.1-0.2-0.1-0.2-0.2c-0.2-0.2-0.3-0.3-0.5-0.5c-0.3-0.4-0.6-0.7-0.8-1.2c-0.3-0.8-0.4-1.7,0-2.5c0.4-0.9,1.3-1.5,2.2-1.8
				c0.5-0.2,1-0.4,1.6-0.5c0.5-0.1,1.3-0.2,1.6-0.8C28.5,50,28.4,49.5,27.9,49.4L27.9,49.4z"/>
		</g>
	</g>
</g>
</svg>
