<?xml version="1.0" encoding="utf-8"?>
<!-- Generator: Adobe Illustrator 24.3.0, SVG Export Plug-In . SVG Version: 6.00 Build 0)  -->
<svg version="1.1" id="Calque_1" xmlns="http://www.w3.org/2000/svg" xmlns:xlink="http://www.w3.org/1999/xlink" x="0px" y="0px"
	 viewBox="0 0 80 80" style="enable-background:new 0 0 80 80;" xml:space="preserve">
<style type="text/css">
	.st0{fill:#91D902;}
</style>
<g>
	<g>
		<g>
			<path class="st0" d="M13.3,22.6c-0.2,0.1,0.4,0,0.6,0c0.4,0,0.7,0,1.1,0c0.7,0,1.4-0.1,2.1-0.1c2.4-0.1,4.8-0.1,7.2-0.1
				c4.8,0,9.6,0.1,14.4,0.2c4.8,0.1,9.5,0,14.3,0.1c4.5,0,9,0.2,13.5,0.1c1,0,1-1.5,0-1.5c-4.7,0.1-9.4-0.1-14-0.1c-5,0-10,0-15-0.1
				c-5.1-0.1-10.1-0.2-15.2-0.2c-2.2,0-4.4,0-6.7,0.2c-0.9,0.1-2.4-0.1-3.1,0.6C11.8,22.2,12.7,23.1,13.3,22.6L13.3,22.6z"/>
		</g>
	</g>
	<g>
		<g>
			<path class="st0" d="M13.8,59.2c2.1,0,4.3-0.3,6.5-0.5c2.4-0.2,4.8-0.4,7.2-0.4c5-0.1,9.9,0.1,14.9,0.1s9.9-0.1,14.9-0.2
				c1.9,0,3.8-0.5,5.7-0.5c1.3,0,2.7,0.1,4-0.1c1-0.1,1-1.7,0-1.5c-1.3,0.2-2.7,0.1-4,0.1c-1.9,0-3.8,0.5-5.7,0.5
				c-5,0.1-9.9,0.2-14.9,0.2c-5,0.1-9.9-0.1-14.9-0.1c-4.6,0.1-9.1,0.6-13.6,1C13,57.9,13,59.2,13.8,59.2L13.8,59.2z"/>
		</g>
	</g>
	<g>
		<g>
			<path class="st0" d="M65.8,22c0.3,2.5,0.2,5.1,0.3,7.7c0.1,3.1,0.2,6.2,0,9.3c-0.1,3-0.4,6-0.4,9.1c0,2.9,0.4,5.8,0.5,8.8
				c0,1,1.6,1,1.6,0c-0.1-2.9-0.5-5.8-0.5-8.8c0-3.2,0.3-6.4,0.4-9.5s0-6.2-0.1-9.3c0-1.4-0.1-2.9-0.1-4.3c0-1.1,0-2.2-0.4-3.2
				C66.8,21.1,65.7,21.4,65.8,22L65.8,22z"/>
		</g>
	</g>
	<g>
		<g>
			<path class="st0" d="M12.2,22.1c-0.3,6,0.2,12,0.4,18c0.1,3.2,0.3,6.4,0.4,9.7c0.1,1.6,0,3.2,0,4.9c0,1.2,0.1,2.5,0,3.7
				c-0.1,1,1.5,1,1.6,0c0.1-1.2,0-2.3-0.1-3.5c0-1.6,0.1-3.2,0-4.9c-0.1-3.3-0.4-6.6-0.5-9.9c-0.1-3.2-0.2-6.3-0.3-9.5
				c0-1.5-0.2-3-0.2-4.4s0.1-2.7,0-4.1C13.5,21.2,12.2,21.2,12.2,22.1L12.2,22.1z"/>
		</g>
	</g>
	<g>
		<g>
			<path class="st0" d="M16.7,24.8c0,0,1.2,0,1.5,0c0.6,0,1.3-0.1,1.9-0.1c2-0.1,4.1,0,6.1-0.1c4.2,0,8.4,0.1,12.6,0.2
				c4.2,0.1,8.4,0,12.5,0.1c3.9,0,7.9,0.2,11.8,0.1c1,0,1-1.5,0-1.5c-4.1,0.1-8.2-0.1-12.3-0.1c-4.4,0-8.9,0-13.3-0.1
				s-8.7-0.2-13.1-0.1c-2,0-3.9,0-5.9,0.2c-0.9,0.1-2.1-0.1-2.8,0.5C15.2,24.5,16.1,25.2,16.7,24.8L16.7,24.8z"/>
		</g>
	</g>
	<g>
		<g>
			<path class="st0" d="M17.1,56.9c4.1,0,8.1-0.7,12.2-0.7c4.2-0.1,8.4,0.1,12.6,0.1s8.4-0.1,12.6-0.2c1.8,0,3.5-0.5,5.2-0.4
				c1.3,0,2.6,0.1,3.8-0.1c1-0.1,1-1.7,0-1.5c-1.2,0.2-2.5,0.1-3.7,0.1c-1.8,0-3.5,0.4-5.3,0.4c-4.2,0-8.4,0.2-12.6,0.2
				s-8.4-0.1-12.6-0.1c-4.1,0-8.1,0.5-12.2,0.9C16.3,55.6,16.2,56.9,17.1,56.9L17.1,56.9z"/>
		</g>
	</g>
	<g>
		<g>
			<path class="st0" d="M62.4,24.2c0.3,2.2,0.2,4.3,0.2,6.5c0.1,2.8,0.2,5.6,0,8.4c0,2.7-0.2,5.5-0.2,8.3c0,2.4,0.3,4.8,0.4,7.3
				c0,1,1.6,1,1.6,0C64.3,52.3,64,50,64,47.5c0-2.9,0.2-5.8,0.3-8.8c0.1-2.8,0-5.6-0.1-8.3c0-1.2-0.1-2.3-0.1-3.5c0-1,0-2-0.4-2.9
				C63.4,23.2,62.4,23.6,62.4,24.2L62.4,24.2z"/>
		</g>
	</g>
	<g>
		<g>
			<path class="st0" d="M15.6,24.4c-0.3,5.2,0.2,10.4,0.3,15.7c0.1,2.8,0.3,5.6,0.4,8.4c0,1.4,0,2.9,0,4.3c0,1.1,0.1,2.3,0,3.4
				c-0.1,1,1.5,1,1.6,0c0.1-2.4,0-5,0-7.4c-0.1-2.9-0.3-5.7-0.4-8.6c-0.1-2.7-0.2-5.5-0.3-8.2c-0.1-2.5,0-5-0.2-7.4
				C16.8,23.5,15.6,23.5,15.6,24.4L15.6,24.4z"/>
		</g>
	</g>
	<g>
		<g>
			<path class="st0" d="M39.3,24.7c0.1,1.2,0,2.3,0.1,3.5c0.1,1.3,0.2,2.6,0.2,3.8c0.1,2.8,0,5.6,0,8.3c0,5-0.2,10.1-0.2,15.1
				c0,1.1,1.7,1.1,1.7,0c0-5.1,0.1-10.2,0.1-15.4c0-2.7,0-5.4-0.1-8.1c0-1.4-0.1-2.7-0.2-4.1c-0.1-1.2,0-2.3-0.2-3.5
				C40.6,23.6,39.2,23.8,39.3,24.7L39.3,24.7z"/>
		</g>
	</g>
	<g>
		<g>
			<path class="st0" d="M42,35.9c-1.8-0.8-4.1-0.2-5.3,1.4c-0.5,0.8-0.8,1.8-0.9,2.8c-0.1,1,0.3,2,0.7,3c0.4,1,1.2,1.7,2.2,2
				c0.9,0.3,1.9,0.2,2.8-0.1c1.8-0.5,3.5-2,3.5-4c0-1.2-0.1-2.3-0.8-3.3c-0.7-0.9-1.7-1.6-2.8-2c-0.9-0.3-1.4,1.1-0.7,1.6
				c0.6,0.4,1.3,0.6,1.7,1.1c0.5,0.5,0.7,1.1,0.8,1.9c0,0.3,0,0.7,0,0.9c0,0.4-0.2,0.6-0.3,0.9c-0.3,0.5-0.9,0.8-1.4,1.1
				c-1,0.5-2.7,0.6-3.4-0.6s-1-2.6-0.4-3.9c0.3-0.7,0.7-1.2,1.4-1.4c0.8-0.2,1.5-0.2,2.3-0.1C42.3,37.2,42.7,36.2,42,35.9L42,35.9z"
				/>
		</g>
	</g>
	<g>
		<g>
			<path class="st0" d="M62.7,30.2c-2.2,0.5-4,2.7-5,4.6c-1,2.1-1.5,4.4-1.4,6.7c0.1,2.2,0.6,4.4,1.8,6.2c1,1.5,2.7,3.1,4.7,2.7
				c1.1-0.2,0.6-1.9-0.5-1.7c-0.6,0.1-1.4-0.3-1.8-0.7c-0.7-0.6-1.2-1.4-1.6-2.2c-0.8-1.6-1.1-3.4-1.1-5.1c0-1.8,0.4-3.5,1.2-5.1
				c0.5-1,1.1-1.8,1.8-2.6c0.3-0.3,0.6-0.7,1-1c0.4-0.2,0.9-0.4,1.3-0.6C64.1,31.2,63.5,30,62.7,30.2L62.7,30.2z"/>
		</g>
	</g>
	<g>
		<g>
			<path class="st0" d="M63.7,38c0.3,0.1,0.6,0.1,0.9,0.2c0.2,0,0.4,0,0.6,0s0.4,0,0.6,0c0.1,0,0.2,0,0.3,0c0.1,0,0.3,0,0.4-0.1
				c0.2-0.1,0.4-0.3,0.5-0.5c-0.1,0.2-0.2,0.3-0.4,0.5l0,0c0.2-0.2,0.4-0.4,0.4-0.6s-0.2-0.5-0.4-0.6l0,0c0.1,0.2,0.2,0.3,0.4,0.5
				c-0.1-0.2-0.2-0.4-0.4-0.5c-0.1-0.1-0.3-0.1-0.5-0.1c-0.1,0-0.2,0-0.3,0c-0.2,0-0.4,0-0.6,0s-0.4,0-0.6,0c-0.3,0-0.6,0-0.9,0.2
				C63.3,37,63.3,37.7,63.7,38L63.7,38z"/>
		</g>
	</g>
	<g>
		<g>
			<path class="st0" d="M63.9,43.8c0.1,0.1,0.2,0.1,0.3,0.1c0.1,0,0.1,0,0.2,0s0.2,0.1,0.4,0.1c0.2,0,0.4,0.1,0.5,0.1s0.1,0,0.2,0
				s0.2,0,0.3,0c0.1,0,0.3-0.1,0.4-0.2c0-0.1,0.1-0.1,0.1-0.2s0.1-0.1,0.1-0.2s0-0.2,0-0.3s0-0.1-0.1-0.2c0-0.1-0.1-0.2-0.2-0.3
				c-0.1-0.2-0.3-0.2-0.6-0.2c-0.1,0-0.1,0-0.2,0s-0.2,0-0.4,0c-0.1,0-0.2,0-0.4,0c-0.1,0-0.1,0-0.2,0s-0.2,0-0.3,0
				c-0.1,0-0.2,0.1-0.2,0.1c-0.2,0.1-0.4,0.4-0.4,0.6C63.6,43.4,63.7,43.7,63.9,43.8L63.9,43.8z"/>
		</g>
	</g>
	<g>
		<g>
			<path class="st0" d="M13.7,38.2c0.4,0.1,0.8,0.1,1.3,0.1c0.2,0,0.4,0,0.5,0c0.2,0,0.5,0,0.7,0c0.3-0.1,0.5-0.3,0.6-0.7
				c0-0.3-0.1-0.7-0.4-0.8c-0.2-0.1-0.3-0.1-0.5-0.1h-0.1c-0.1,0-0.2,0-0.3,0c-0.2,0-0.4,0-0.6,0c-0.4,0-0.9,0.1-1.3,0.1
				c-0.1,0-0.1,0-0.2,0.1c-0.1,0-0.2,0.1-0.2,0.2c-0.1,0.1-0.2,0.3-0.2,0.4c0,0.1,0,0.3,0.1,0.4C13.3,38,13.5,38.2,13.7,38.2
				L13.7,38.2z"/>
		</g>
	</g>
	<g>
		<g>
			<path class="st0" d="M13.7,43.9c0.1,0.1,0.2,0.2,0.4,0.2h0.1c0.1,0,0.1,0,0.2,0c0.2,0,0.4,0,0.6,0c0.2,0,0.4,0,0.6-0.1h0.1
				c0,0,0.1,0,0.1-0.1c0.1,0,0.2-0.1,0.3-0.2c0,0,0-0.1,0.1-0.1c0.1-0.1,0.1-0.2,0.2-0.4c0.1-0.2,0-0.5-0.1-0.7s-0.4-0.3-0.6-0.3
				h-0.1c0.1,0,0.1,0,0.2,0c-0.1,0-0.2,0-0.2,0c-0.1,0-0.1,0-0.2,0c-0.1,0-0.1,0.1-0.2,0.1c0.1,0,0.1-0.1,0.2-0.1
				c-0.1,0.1-0.3,0.1-0.5,0.1c0.1,0,0.1,0,0.2,0c-0.2,0-0.3,0-0.5,0.1c0.1,0,0.1,0,0.2,0c-0.3,0-0.8,0-1,0.3
				c-0.1,0.1-0.2,0.3-0.2,0.5C13.5,43.6,13.6,43.8,13.7,43.9L13.7,43.9z"/>
		</g>
	</g>
	<g>
		<g>
			<path class="st0" d="M16.6,31.2c0.6,0.5,1.4,0.6,2,1.1c0.8,0.6,1.7,1.4,2.2,2.3c1,1.7,1.3,3.7,1.6,5.6c0.3,1.9,0,4.2-0.8,6
				c-0.4,0.9-1,1.7-1.8,2.2C18.9,49,18,48.8,17,49c-1.1,0.2-0.6,1.9,0.5,1.7c0.6-0.1,1.2,0,1.7-0.1s1-0.4,1.5-0.7
				c0.9-0.6,1.6-1.4,2.2-2.4c1.1-1.9,1.6-4.5,1.4-6.7c-0.2-2.2-0.6-4.7-1.7-6.7c-0.5-1-1.3-1.8-2.1-2.5c-0.4-0.4-0.9-0.8-1.4-1
				s-1-0.3-1.5-0.5C16.8,29.7,15.9,30.5,16.6,31.2L16.6,31.2z"/>
		</g>
	</g>
</g>
</svg>
