<?xml version="1.0" encoding="utf-8"?>
<!-- Generator: Adobe Illustrator 24.3.0, SVG Export Plug-In . SVG Version: 6.00 Build 0)  -->
<svg version="1.1" id="Calque_1" xmlns="http://www.w3.org/2000/svg" xmlns:xlink="http://www.w3.org/1999/xlink" x="0px" y="0px"
	 viewBox="0 0 80 80" style="enable-background:new 0 0 80 80;" xml:space="preserve">
<style type="text/css">
	.st0{fill:#91D902;}
</style>
<g>
	<g>
		<g>
			<path class="st0" d="M39.4,22.4c0.2,1.3-0.2,2.6-0.3,4c-0.2,1.4-0.1,2.9,0,4.4c0.1,3,0,6,0.1,9c0.1,6,0.3,12.1,0.3,18.1
				c0,1,1.6,1,1.6,0c0-6.2-0.2-12.4-0.3-18.6c-0.1-3,0-6-0.1-9c-0.1-1.5-0.1-3,0.1-4.5c0.2-1.2,0.4-2.5,0.1-3.7
				C40.5,21.1,39.2,21.5,39.4,22.4L39.4,22.4z"/>
		</g>
	</g>
	<g>
		<g>
			<path class="st0" d="M44.3,35.4c-0.7-1.3-2.3-1.2-3.6-1.3c-1.6-0.1-3.1,0.3-4.4,1.2c-2.1,1.6-3.2,4.5-2.9,7.1
				c0.1,1.2,0.5,2.3,1.3,3.3c0.9,1.1,2.3,1.6,3.6,2c1.5,0.6,3,0.6,4.5,0c1.3-0.5,2.5-1.4,3.1-2.7c0.8-1.6,0.9-3.6,0.3-5.3
				c-0.2-0.8-0.6-1.4-0.9-2.1c-0.2-0.5-0.4-1.2-1-1.5c-0.9-0.6-1.8,0.9-0.8,1.4c-0.2-0.1,0,0.2,0.1,0.2c0.1,0.2,0.2,0.3,0.2,0.5
				c0.2,0.5,0.4,0.9,0.6,1.4c0.5,1.2,0.7,2.5,0.3,3.8c-0.7,2.3-3.3,3.5-5.5,2.8c-1.9-0.6-3.9-1.4-4.3-3.5c-0.4-1.9,0.2-4.3,1.5-5.6
				c0.9-0.9,2.1-1.5,3.4-1.5c1.1,0,2.5,0,3.5,0.6C44,36.6,44.6,35.9,44.3,35.4L44.3,35.4z"/>
		</g>
	</g>
	<g>
		<g>
			<path class="st0" d="M16.8,22.2c0,0,1.2,0,1.5,0c0.6,0,1.2-0.1,1.9-0.1c2-0.1,4.1-0.1,6.1-0.1c4.2,0,8.4,0.1,12.6,0.2
				s8.4,0,12.5,0.1c3.9,0,7.9,0.2,11.8,0.1c1,0,1-1.5,0-1.5c-4.1,0.1-8.2-0.1-12.3-0.1c-4.4,0-8.8,0-13.3-0.1
				c-4.4-0.1-8.7-0.2-13.1-0.2c-2,0-3.9,0-5.9,0.2c-0.8,0.1-2.1-0.1-2.8,0.6C15.3,21.9,16.2,22.8,16.8,22.2L16.8,22.2z"/>
		</g>
	</g>
	<g>
		<g>
			<path class="st0" d="M17.2,59.5c2,0,4-0.3,6-0.5s4.1-0.3,6.1-0.4c4.4-0.1,8.7,0.1,13.1,0.1c4.4-0.1,8.7,0,13.1-0.2
				c1.5-0.1,3-0.5,4.5-0.5c1.3,0,2.5,0,3.8-0.1c1-0.1,0.6-1.6-0.4-1.5c-1.2,0.2-2.5,0.1-3.7,0.1c-1.7,0-3.4,0.5-5.1,0.5
				c-4.2,0-8.4,0.2-12.6,0.2c-4.2,0.1-8.4-0.1-12.6-0.1c-4.1,0.1-8.1,0.6-12.2,1C16.4,58.2,16.3,59.5,17.2,59.5L17.2,59.5z"/>
		</g>
	</g>
	<g>
		<g>
			<path class="st0" d="M62.5,21.7c0.2,2.6,0.2,5.2,0.2,7.8c0.1,3.1,0.2,6.2,0,9.3c-0.1,3.1-0.3,6.1-0.3,9.2s0.3,6.1,0.4,9.1
				c0,1,1.6,1,1.6,0c-0.1-3-0.5-6.1-0.4-9.1c0-3.1,0.2-6.3,0.3-9.4c0.1-3.1,0-6.2-0.1-9.3c0-1.4-0.1-2.8-0.1-4.3
				c0-1.1,0.1-2.4-0.3-3.5C63.6,20.8,62.4,20.8,62.5,21.7L62.5,21.7z"/>
		</g>
	</g>
	<g>
		<g>
			<path class="st0" d="M15.7,21.8C15.4,27.9,15.9,34,16,40.2c0.1,3.4,0.3,6.7,0.4,10.1c0.1,2.8,0.2,5.7,0,8.5c0,1,1.5,1,1.6,0
				c0.1-2.8,0-5.7,0-8.5c-0.1-3.4-0.3-6.7-0.4-10.1c-0.1-3.3-0.2-6.6-0.3-9.9c-0.1-2.8,0-5.7-0.2-8.5C17,20.9,15.7,20.9,15.7,21.8
				L15.7,21.8z"/>
		</g>
	</g>
	<g>
		<g>
			<path class="st0" d="M17.9,50.4c1.2,0,2.5-0.1,3.7-0.2c0.6,0,1.1-0.1,1.7-0.2c0.5-0.1,1.1-0.2,1.6-0.2c0.3,0,0.6-0.2,0.7-0.6
				c0-0.3-0.1-0.7-0.5-0.8c-1.1-0.2-2.3,0.3-3.4,0.4c-1.3,0.1-2.5,0.2-3.8,0.2C17.1,49.1,17.1,50.4,17.9,50.4L17.9,50.4z"/>
		</g>
	</g>
	<g>
		<g>
			<path class="st0" d="M16.9,29.9c0.3,0.5,1.1,0.5,1.6,0.5c0.6,0,1.2-0.1,1.8-0.2c1.3-0.2,2.7-0.3,4.1-0.2c0.4,0,0.7-0.3,0.7-0.7
				s-0.3-0.7-0.7-0.7c-1.4-0.1-2.8,0-4.2,0.2c-0.5,0.1-1,0.2-1.5,0.2c-0.3,0-0.5,0-0.8,0c-0.2,0-0.5-0.1-0.7-0.1
				C16.9,29.1,16.8,29.6,16.9,29.9L16.9,29.9z"/>
		</g>
	</g>
	<g>
		<g>
			<path class="st0" d="M24.1,29.1c-0.3,3.5-0.2,7.1-0.2,10.6c0,1.7,0,3.4,0.1,5.2c0.1,1.5,0,3,0.2,4.5c0.1,0.9,1.5,0.5,1.3-0.4
				c-0.2-1.5-0.1-3-0.2-4.5c-0.1-1.7-0.1-3.4-0.1-5.2c0-3.4,0.3-6.8,0-10.2C25.2,28.4,24.2,28.4,24.1,29.1L24.1,29.1z"/>
		</g>
	</g>
	<g>
		<g>
			<path class="st0" d="M18.2,35.6c0.4,0.2,0.8,0.2,1.2,0.2c0.2,0,0.5,0,0.7,0c0.1,0,0.2,0,0.3-0.1c0.1,0,0.2-0.1,0.3-0.2
				c0.1-0.1,0.1-0.1,0.2-0.3C21,35.1,21,35,21,34.9s-0.1-0.3-0.1-0.4c-0.2-0.2-0.4-0.3-0.7-0.2l0,0c0.1,0,0.1,0,0.2,0
				c-0.1,0-0.2,0-0.3,0.1c-0.1,0-0.1,0-0.2,0.1c-0.1,0-0.2,0-0.4,0.1c0.1,0,0.1,0,0.2,0c-0.2,0-0.5,0-0.7,0c0.1,0,0.1,0,0.2,0
				c-0.2,0-0.4-0.1-0.6-0.1c-0.3-0.1-0.7,0.1-0.8,0.4c0,0.2,0,0.3,0.1,0.5C18,35.4,18.1,35.5,18.2,35.6L18.2,35.6z"/>
		</g>
	</g>
	<g>
		<g>
			<path class="st0" d="M18.3,45.7c0.4,0.2,0.9,0.2,1.4,0.1s1.1-0.1,1.5-0.5c0.2-0.2,0.3-0.6,0.1-0.8c-0.2-0.2-0.5-0.4-0.7-0.3
				c-0.1,0-0.2,0.1-0.2,0.1c0.1,0,0.1,0,0.2-0.1c-0.3,0.1-0.7,0.2-1,0.2c0.1,0,0.1,0,0.2,0c-0.3,0-0.5,0.1-0.8,0c0.1,0,0.1,0,0.2,0
				c-0.1,0-0.1,0-0.2,0c-0.1-0.1-0.4,0-0.5,0.1s-0.2,0.2-0.3,0.3C17.9,45.2,18,45.6,18.3,45.7L18.3,45.7z"/>
		</g>
	</g>
	<g>
		<g>
			<path class="st0" d="M19.9,34.9c0,0.8,0.1,1.7,0.1,2.5s0,1.7,0.1,2.5c0,1.7-0.1,3.4,0,5c0,0.9,1.3,0.9,1.3,0c0.1-1.7,0-3.4,0-5.1
				c0-0.9,0-1.7-0.1-2.6c0-0.8,0-1.7-0.3-2.5C20.9,34.1,20,34.2,19.9,34.9L19.9,34.9z"/>
		</g>
	</g>
	<g>
		<g>
			<path class="st0" d="M24.7,35.7c0.8,0.6,1.9,1,2.5,1.8c0.6,0.9,1.1,1.9,1.1,3c0,0.9-0.3,2-1,2.6c-0.8,0.7-1.9,0.8-2.6,1.5
				c-0.6,0.6,0.2,1.6,0.9,1.1c1-0.6,2.3-0.9,3-1.8c0.8-1,1.2-2.3,1.2-3.5c0-1.3-0.6-2.6-1.3-3.6c-0.8-1.1-1.9-1.6-3.1-2.2
				C24.7,34.1,24.1,35.2,24.7,35.7L24.7,35.7z"/>
		</g>
	</g>
	<g>
		<g>
			<path class="st0" d="M63.1,28.4c-1.2,0-2.5,0.1-3.7,0.2c-0.6,0-1.1,0.1-1.7,0.2c-0.5,0.1-1.1,0.2-1.6,0.2c-0.3,0-0.6,0.2-0.7,0.6
				c0,0.3,0.1,0.7,0.5,0.8c1.1,0.2,2.3-0.3,3.4-0.4c1.3-0.1,2.5-0.2,3.8-0.2C64,29.8,64,28.5,63.1,28.4L63.1,28.4z"/>
		</g>
	</g>
	<g>
		<g>
			<path class="st0" d="M64.1,49c-0.2-0.5-1.1-0.5-1.6-0.5c-0.6,0-1.2,0.1-1.8,0.2c-1.3,0.2-2.7,0.3-4.1,0.2c-0.4,0-0.7,0.3-0.7,0.7
				s0.3,0.7,0.7,0.7c1.4,0.1,2.8,0,4.2-0.2c0.5-0.1,1-0.2,1.5-0.2c0.3,0,0.5,0,0.8,0c0.2,0,0.5,0.1,0.7,0.1
				C64.2,49.8,64.3,49.3,64.1,49L64.1,49z"/>
		</g>
	</g>
	<g>
		<g>
			<path class="st0" d="M57,49.8c0.3-3.5,0.2-7.1,0.2-10.6c0-1.7,0-3.4-0.1-5.2c-0.1-1.5,0-3-0.2-4.5c-0.1-0.9-1.5-0.5-1.3,0.4
				c0.2,1.5,0.1,3,0.2,4.5c0.1,1.7,0.1,3.4,0.1,5.2c0,3.4-0.3,6.8,0,10.2C55.8,50.5,56.9,50.5,57,49.8L57,49.8z"/>
		</g>
	</g>
	<g>
		<g>
			<path class="st0" d="M62.8,43.3c-0.4-0.2-0.8-0.2-1.2-0.2c-0.2,0-0.5,0-0.7,0c-0.1,0-0.2,0-0.3,0.1c-0.1,0-0.2,0.1-0.3,0.2
				c-0.1,0.1-0.1,0.1-0.2,0.3C60,43.8,60,43.9,60,44s0.1,0.3,0.1,0.4c0.2,0.2,0.4,0.3,0.7,0.2l0,0c-0.1,0-0.1,0-0.2,0
				c0.1,0,0.2,0,0.3-0.1c0.1,0,0.1,0,0.2-0.1c0.1,0,0.2,0,0.4-0.1c-0.1,0-0.1,0-0.2,0c0.2,0,0.5,0,0.7,0c-0.1,0-0.1,0-0.2,0
				c0.2,0,0.4,0.1,0.6,0.1c0.3,0.1,0.7-0.1,0.8-0.4c0-0.2,0-0.3-0.1-0.5C63.1,43.4,63,43.4,62.8,43.3L62.8,43.3z"/>
		</g>
	</g>
	<g>
		<g>
			<path class="st0" d="M62.8,33.2c-0.4-0.2-0.9-0.2-1.4-0.1c-0.5,0.1-1.1,0.1-1.5,0.5c-0.2,0.2-0.3,0.6-0.1,0.8
				c0.2,0.2,0.5,0.4,0.7,0.3c0.1,0,0.2-0.1,0.2-0.1c-0.1,0-0.1,0-0.2,0.1c0.3-0.1,0.7-0.2,1-0.2c-0.1,0-0.1,0-0.2,0
				c0.3,0,0.5-0.1,0.8,0c-0.1,0-0.1,0-0.2,0c0.1,0,0.1,0,0.2,0c0.1,0.1,0.4,0,0.5-0.1s0.2-0.2,0.3-0.3
				C63.1,33.7,63.1,33.3,62.8,33.2L62.8,33.2z"/>
		</g>
	</g>
	<g>
		<g>
			<path class="st0" d="M61.1,44c0-0.8-0.1-1.7-0.1-2.5s0-1.7-0.1-2.5c0-1.7,0.1-3.4,0-5c0-0.9-1.3-0.9-1.3,0c-0.1,1.7,0,3.4,0,5.1
				c0,0.9,0,1.7,0.1,2.6c0,0.8,0,1.7,0.3,2.5C60.2,44.8,61.1,44.7,61.1,44L61.1,44z"/>
		</g>
	</g>
	<g>
		<g>
			<path class="st0" d="M56.3,43.2c-0.8-0.6-1.9-1-2.5-1.8c-0.6-0.9-1.1-1.9-1.1-3c0-0.9,0.3-2,1-2.6c0.8-0.7,1.9-0.8,2.6-1.5
				c0.6-0.6-0.2-1.6-0.9-1.1c-1,0.6-2.3,0.9-3,1.8c-0.8,1-1.2,2.3-1.2,3.5c0,1.3,0.6,2.6,1.3,3.6c0.8,1.1,1.9,1.6,3.1,2.2
				C56.4,44.8,57,43.7,56.3,43.2L56.3,43.2z"/>
		</g>
	</g>
</g>
</svg>
