<?xml version="1.0" encoding="utf-8"?>
<!-- Generator: Adobe Illustrator 24.3.0, SVG Export Plug-In . SVG Version: 6.00 Build 0)  -->
<svg version="1.1" id="Calque_1" xmlns="http://www.w3.org/2000/svg" xmlns:xlink="http://www.w3.org/1999/xlink" x="0px" y="0px"
	 viewBox="0 0 80 80" style="enable-background:new 0 0 80 80;" xml:space="preserve">
<style type="text/css">
	.st0{fill:#91D902;}
</style>
<g>
	<g>
		<g>
			<path class="st0" d="M26,40.2c-0.4,0-0.8,0.1-1.2,0.3c-0.3,0.2-0.6,0.5-0.8,0.9s-0.3,0.9-0.3,1.3c0,0.5,0.2,1,0.5,1.3
				c0.5,0.6,1.4,0.9,2.2,0.8c0.9-0.1,1.8-0.5,2-1.4c0.1-0.6,0-1.2-0.3-1.7c-0.1-0.2-0.3-0.4-0.5-0.6c-0.2-0.2-0.5-0.4-0.8-0.5
				s-0.6,0-0.8,0.3s-0.2,0.5-0.1,0.8c0.1,0.3,0.5,0.5,0.7,0.8c0,0,0.1,0.2,0,0c0,0,0,0,0,0.1s0.1,0.1,0.1,0.2c0.1,0.1-0.1-0.2,0,0
				v0.1V43c0-0.1,0-0.2,0-0.1c0,0,0,0,0,0.1v0.1c0,0.1,0,0.1,0-0.1c0,0.1,0,0.1,0,0.2c0-0.2,0.1-0.1,0-0.1c0,0,0,0,0,0.1
				c-0.1,0.1,0.1-0.2,0-0.1c0,0,0,0-0.1,0.1s0.2-0.1,0.1,0c0,0,0,0-0.1,0c0,0-0.1,0.1-0.2,0.1c0.2-0.1,0.1,0,0,0s-0.1,0-0.2,0.1
				c-0.2,0,0.2,0,0,0c-0.1,0-0.1,0-0.2,0c-0.1,0-0.1,0-0.2,0h-0.1c-0.2,0,0.2,0,0.1,0c-0.1,0-0.3-0.1-0.4-0.1c-0.1,0,0.1,0.1,0.1,0
				h-0.1c0,0-0.1,0-0.1-0.1c-0.2-0.1,0.1,0.1,0,0l-0.1-0.1c-0.1-0.1,0,0.1,0.1,0.1c0,0,0-0.1-0.1-0.1c0,0,0,0,0-0.1s0-0.2,0,0
				c0-0.1-0.1-0.1-0.1-0.2v-0.1c0.1,0.2,0,0.1,0,0s0-0.1,0-0.2v-0.1c0,0.2,0,0.1,0,0s0-0.2,0.1-0.3c0-0.1,0-0.1,0.1-0.2
				c0-0.1-0.1,0.2,0,0.1c0,0,0-0.1,0.1-0.1c0,0,0-0.1,0.1-0.1c0.1-0.1-0.1,0.1,0,0c0-0.1,0.1-0.1,0.1-0.1s0.1,0,0.1-0.1
				c0.1-0.1-0.1,0.1,0,0c-0.2,0.1,0.3-0.3,0.1-0.1c-0.1,0.1,0,0,0,0c0.1,0,0.1-0.1,0.2-0.1c0.1,0,0,0,0,0s0.1,0,0.2-0.1
				c0.3-0.1,0.5-0.4,0.5-0.7C26.6,40.4,26.3,40.2,26,40.2L26,40.2z"/>
		</g>
	</g>
	<g>
		<g>
			<path class="st0" d="M54.1,40.9c-0.2-0.4-0.7-0.7-1.1-0.8c-0.5-0.1-0.9-0.1-1.4,0c-0.4,0.1-0.9,0.3-1.2,0.6
				c-0.3,0.4-0.5,0.9-0.5,1.4c0,1,0.6,1.9,1.5,2.3c0.6,0.2,1.2,0.3,1.7,0.1c0.3-0.1,0.6-0.3,0.9-0.5c0.2-0.2,0.4-0.5,0.5-0.7
				c0.2-0.5,0.2-1.1,0-1.6C54.5,41.4,54.4,41.2,54.1,40.9c-0.2-0.1-0.4-0.2-0.6-0.3c-0.3-0.2-0.7-0.1-0.9,0.1
				c-0.2,0.2-0.3,0.6-0.1,0.9c0.1,0.1,0.2,0.3,0.4,0.4c0.1,0.1,0.2,0.1,0.2,0.2c0-0.1-0.1-0.1-0.1-0.2c0,0.1,0.1,0.1,0.1,0.2
				c0-0.1-0.1-0.1-0.1-0.2c0,0.1,0.1,0.2,0.1,0.3c0-0.1,0-0.1,0-0.2c0,0.2,0,0.4,0,0.5c0-0.1,0-0.1,0-0.2c0,0.1-0.1,0.3-0.1,0.4
				c0-0.1,0.1-0.1,0.1-0.2c0,0.1-0.1,0.2-0.1,0.2c0-0.1,0.1-0.1,0.1-0.2c0,0.1-0.1,0.1-0.2,0.2c0.1,0,0.1-0.1,0.2-0.1
				c-0.1,0.1-0.2,0.1-0.3,0.2c0.1,0,0.1-0.1,0.2-0.1c-0.1,0.1-0.3,0.1-0.4,0.1c0.1,0,0.1,0,0.2,0c-0.1,0-0.3,0-0.4,0
				c0.1,0,0.1,0,0.2,0c-0.1,0-0.3-0.1-0.4-0.1c0.1,0,0.1,0.1,0.2,0.1c-0.2-0.1-0.3-0.2-0.5-0.3c0.1,0,0.1,0.1,0.2,0.1
				c-0.1-0.1-0.2-0.2-0.3-0.3c0,0.1,0.1,0.1,0.1,0.2c-0.1-0.1-0.2-0.2-0.2-0.4c0,0.1,0.1,0.1,0.1,0.2c-0.1-0.1-0.1-0.3-0.1-0.4
				c0,0.1,0,0.1,0,0.2c0-0.1,0-0.3,0-0.4c0,0.1,0,0.1,0,0.2c0-0.1,0-0.2,0.1-0.3c0,0.1-0.1,0.1-0.1,0.2c0-0.1,0.1-0.1,0.1-0.2
				c0.1-0.1-0.1,0.2,0,0.1l0.1-0.1c0.1-0.1-0.1,0-0.1,0l0.1-0.1c0.1,0,0.1-0.1,0.2-0.1c-0.1,0-0.1,0.1-0.2,0.1
				c0.2-0.1,0.4-0.1,0.6-0.2c-0.1,0-0.1,0-0.2,0c0.2,0,0.5,0,0.7,0c-0.1,0-0.1,0-0.2,0c0.1,0,0.3,0.1,0.4,0.1h0.1c0.1,0-0.2-0.1,0,0
				c0.1,0,0.2,0.2,0.1,0c0.2,0.2,0.6,0.3,0.8,0C54.2,41.5,54.3,41.2,54.1,40.9L54.1,40.9z"/>
		</g>
	</g>
	<g>
		<g>
			<path class="st0" d="M20.5,49.3c1.3-0.3,2.4-1.1,3.4-1.9c0.5-0.4,0.9-0.8,1.3-1.3c0.2-0.2,0.4-0.5,0.6-0.7
				c0.2-0.3,0.5-0.5,0.6-0.8c0.4-0.7-0.6-1.5-1.1-0.9c-0.4,0.4-0.7,0.9-1.1,1.4c-0.4,0.4-0.8,0.9-1.3,1.3c-0.8,0.7-1.8,1.3-2.8,1.7
				c-0.3,0.1-0.6,0.4-0.5,0.8C19.8,49.2,20.2,49.4,20.5,49.3L20.5,49.3z"/>
		</g>
	</g>
	<g>
		<g>
			<path class="st0" d="M26.3,44.7c0.9,0.7,1.6,1.7,2.5,2.4c0.9,0.6,1.9,1.1,3,1.4c2.4,0.7,5,1.4,7.6,1.4c4.9,0.1,10-1.6,13.5-5.1
				c0.7-0.7-0.4-1.7-1.1-1.1c-3.3,3.3-8.3,4.9-12.9,4.7c-2.3-0.1-4.6-0.7-6.7-1.3c-1.1-0.3-2.2-0.8-3.2-1.6
				c-0.7-0.6-1.3-1.4-2.1-1.8C26.2,43.3,25.6,44.2,26.3,44.7L26.3,44.7z"/>
		</g>
	</g>
	<g>
		<g>
			<path class="st0" d="M52.1,43.9c-0.1,0.7,0.7,1.4,1.1,1.8c0.5,0.5,1.1,0.8,1.7,1.2c0.7,0.5,1.6,0.8,2.4,1.1
				c0.3,0.1,0.7,0.3,1,0.4c0.1,0.1,0.3,0.1,0.4,0.2c-0.1-0.1,0.1,0,0.1,0c0.1,0,0.2,0.1,0.3,0.1c0.6,0.1,1-0.3,0.9-0.9
				c-0.2-0.7-1.2-0.9-1.7-1.1c-0.8-0.3-1.5-0.5-2.3-1c-0.6-0.3-1.1-0.7-1.6-1.1c-0.2-0.2-0.5-0.4-0.7-0.6s-0.3-0.5-0.5-0.7
				C52.8,43,52.2,43.3,52.1,43.9L52.1,43.9z"/>
		</g>
	</g>
	<g>
		<g>
			<path class="st0" d="M20,59.5c1.6,0.3,3.3,0.1,4.9,0.1c1.7,0,3.3,0,4.9,0.1c1.7,0,3.3-0.1,5,0s3.4,0.2,5.1,0.4
				c1.6,0.1,3,0.1,4.6-0.2c1.7-0.3,3.3-0.3,4.9-0.2c3.5,0.2,6.9-0.4,10.4-0.4c1,0,1-1.5,0-1.5c-3.4,0-6.7,0.6-10.1,0.4
				c-1.5-0.1-2.9-0.2-4.4,0c-0.9,0.1-1.9,0.4-2.8,0.5c-0.8,0.1-1.7,0-2.5-0.1c-1.6-0.1-3.3-0.2-4.9-0.3c-1.7-0.1-3.3,0.1-5,0
				c-1.7,0-3.5-0.1-5.2-0.1c-1.6,0-3.3-0.1-4.9,0.1C19.3,58.4,19.3,59.4,20,59.5L20,59.5z"/>
		</g>
	</g>
	<g>
		<g>
			<path class="st0" d="M52.2,43.8c-0.4,1.2-0.3,2.5-0.2,3.7c0,1.3-0.1,2.7-0.1,4s0,2.6,0,3.9c0,0.6,0,1.2,0,1.8
				c0,0.5,0,1.1,0.2,1.5c0.5-0.3,0.9-0.5,1.4-0.8l0,0c-0.7-0.6-1.7,0.1-1.3,1l0,0c0.4,0.8,1.5,0.3,1.5-0.4c0-0.5-0.1-1-0.1-1.4
				c-0.1-0.6,0-1.2,0-1.8c0-1.3,0-2.5,0-3.8c0-1.2,0.1-2.5,0-3.7c-0.1-1.3-0.1-2.5-0.1-3.8C53.4,43.3,52.4,43.2,52.2,43.8L52.2,43.8
				z"/>
		</g>
	</g>
	<g>
		<g>
			<path class="st0" d="M25.6,43.8c-0.4,1.2-0.3,2.5-0.2,3.7c0,1.3-0.1,2.7-0.1,4s0,2.6,0,3.9c0,0.6,0,1.2,0,1.8
				c0,0.5,0,1.1,0.2,1.5c0.5-0.3,0.9-0.5,1.4-0.8l0,0c-0.7-0.6-1.7,0.1-1.3,1l0,0c0.4,0.8,1.5,0.3,1.5-0.4c0-0.5-0.1-1-0.1-1.4
				c-0.1-0.6,0-1.2,0-1.8c0-1.3,0-2.5,0-3.8c0-1.2,0.1-2.5,0-3.7c0-1.3,0-2.5,0-3.8C26.8,43.3,25.8,43.2,25.6,43.8L25.6,43.8z"/>
		</g>
	</g>
	<g>
		<g>
			<path class="st0" d="M26,21.2c0.7,0.3,1.4,0.2,2.1,0.2c0.8,0,1.7,0,2.5,0c1.7,0,3.3-0.3,5-0.2c0.9,0,0.9-1.4,0-1.4
				c-1.6,0-3.2,0.2-4.8,0.3c-0.8,0-1.6,0-2.4,0c-0.7,0-1.4,0.1-2,0C25.5,19.8,25.2,20.9,26,21.2L26,21.2z"/>
		</g>
	</g>
	<g>
		<g>
			<path class="st0" d="M25.6,20.5c-0.2,0.5,0.1,1.1,0.1,1.6c0,0.8,0,1.6,0,2.4c-0.1,1.6-0.1,3.2-0.1,4.9c0,0.9,1.4,0.9,1.4,0
				c0-1.6,0-3.1,0.1-4.7c0-0.8,0-1.6,0-2.4c0-0.3,0-0.6-0.1-0.9c0-0.2-0.1-0.5-0.1-0.6C27.1,20.1,26,19.7,25.6,20.5L25.6,20.5z"/>
		</g>
	</g>
	<g>
		<g>
			<path class="st0" d="M35,20.3c-0.1,0.9-0.1,1.8-0.1,2.7s-0.1,1.8-0.2,2.6c0,0.7-0.1,1.4-0.1,2c0,0.3,0,0.5,0.1,0.8
				c0,0.1,0,0.2,0,0.3s0,0.1,0,0c0,0.1,0,0.1,0-0.1c-0.1,0.4-0.1,0.7,0.2,1c0.2,0.2,0.6,0.3,0.9,0.1c0.5-0.4,0.5-1,0.4-1.6
				c0-0.6,0-1.3,0-1.9c0.1-1.9,0.3-3.8,0.1-5.8c0-0.3-0.2-0.6-0.6-0.6C35.3,19.8,35,20,35,20.3L35,20.3z"/>
		</g>
	</g>
	<g>
		<g>
			<path class="st0" d="M26.1,30c0.8,0.3,1.6,0.3,2.4,0.3s1.6,0.1,2.3,0.1c0.8,0,1.5,0.1,2.2,0.1s1.4-0.2,2.1-0.1
				c0.8,0.1,1-1.3,0.2-1.4c-0.7-0.2-1.4,0.1-2.2,0.1c-0.7,0-1.5-0.1-2.2-0.1c-1.6,0-3.1-0.1-4.7-0.2C25.5,28.7,25.5,29.8,26.1,30
				L26.1,30z"/>
		</g>
	</g>
	<g>
		<g>
			<path class="st0" d="M38.8,20.8c-0.1,0.6-0.2,1.3-0.3,1.9c-0.1,0.7-0.1,1.4-0.1,2.2s0.1,1.5,0,2.3c0,0.6,0.1,1.2-0.1,1.7
				c-0.2,0.9,1.2,1.3,1.4,0.4c0.2-0.6,0.1-1.3,0.1-2c0-0.8,0-1.6,0-2.3s0-1.5,0-2.2c0.1-0.7,0.2-1.4,0-2.1
				C39.8,19.9,39,20.1,38.8,20.8L38.8,20.8z"/>
		</g>
	</g>
	<g>
		<g>
			<path class="st0" d="M39.1,21.1c0.7,0.6,1.8,0.6,2.7,0.6c1.2,0,2.3,0,3.5-0.1c1.2,0,2.4-0.1,3.6-0.2c1.2,0,2.4,0,3.7,0.1
				c0.9,0.1,0.9-1.4,0-1.4c-2.3-0.1-4.5-0.1-6.7,0c-1.1,0-2.2,0-3.3,0.1c-1.1,0.1-2.1,0.1-3-0.1C39.1,19.9,38.6,20.7,39.1,21.1
				L39.1,21.1z"/>
		</g>
	</g>
	<g>
		<g>
			<path class="st0" d="M52.4,21.1c-0.1,0.8-0.3,1.5-0.4,2.3s-0.1,1.5-0.1,2.3c0,0.6,0,1.3,0,1.9c0,0.3,0,0.5,0,0.8
				c0,0.2-0.1,0.4-0.1,0.4c-0.2,0.3-0.1,0.8,0.3,1s0.8,0.1,1-0.3c0.3-0.5,0.3-1.1,0.3-1.6c0-0.7,0-1.3,0-2c0-0.8,0-1.6,0.1-2.5
				c0.1-0.8,0.4-1.6,0.1-2.4C53.4,20.6,52.5,20.5,52.4,21.1L52.4,21.1z"/>
		</g>
	</g>
	<g>
		<g>
			<path class="st0" d="M39.5,29.9c1,0,2,0,3.1-0.1c1.1,0,2.1,0.1,3.1,0.1c1.1,0,2.1-0.1,3.2-0.1c1,0,2.1-0.1,3.2,0
				c1,0.1,1-1.4,0-1.5s-2,0-3,0c-1.1,0-2.2,0.1-3.3,0.1c-1,0-2-0.1-3-0.1c-1.1,0-2.1,0.1-3.2,0.2C38.8,28.7,38.6,29.9,39.5,29.9
				L39.5,29.9z"/>
		</g>
	</g>
	<g>
		<g>
			<path class="st0" d="M33.5,33c2.3,0.2,4.6,0.1,6.9,0.1s4.5-0.3,6.8-0.3c1,0,1-1.5,0-1.5c-2.3,0-4.5,0.2-6.8,0.3
				c-2.3,0-4.6-0.1-6.9,0.1C32.8,31.8,32.8,33,33.5,33L33.5,33z"/>
		</g>
	</g>
	<g>
		<g>
			<path class="st0" d="M33,32.6c0,1.8,0.3,3.6,0,5.4c-0.1,0.9-0.1,1.7-0.1,2.6c0,0.9-0.1,1.8-0.1,2.8c0,1,1.5,1,1.5,0
				s0.1-1.9,0.1-2.9c0-0.9,0-1.7,0.1-2.6c0.2-1.8,0.1-3.7-0.2-5.5C34.1,31.7,33,31.9,33,32.6L33,32.6z"/>
		</g>
	</g>
	<g>
		<g>
			<path class="st0" d="M46.6,32.2c-0.2,2,0,4.1-0.1,6.1c-0.1,1-0.2,1.9-0.2,2.9c-0.1,0.9,0,1.8-0.1,2.6c-0.1,1,1.4,1,1.5,0
				c0.1-0.9,0.1-1.7,0.1-2.6c0.1-1,0.2-1.9,0.2-2.9c0.1-1,0-2,0-2.9c0-1.1,0-2.1-0.1-3.2C47.8,31.4,46.7,31.4,46.6,32.2L46.6,32.2z"
				/>
		</g>
	</g>
	<g>
		<g>
			<path class="st0" d="M33,44.3c0.7,0.7,2,0.4,2.9,0.5c1.1,0.1,2.1,0.1,3.2,0c1.2-0.1,2.3-0.1,3.5-0.1s2.4-0.1,3.6-0.1
				c1,0,1-1.5,0-1.5c-2.2-0.1-4.5,0-6.7,0.2c-1.1,0.1-2.1,0.1-3.1,0.1c-0.5,0-1-0.1-1.5,0c-0.5,0-1,0-1.4,0
				C32.8,43.3,32.5,43.9,33,44.3L33,44.3z"/>
		</g>
	</g>
</g>
</svg>
