<?xml version="1.0" encoding="utf-8"?>
<!-- Generator: Adobe Illustrator 24.3.0, SVG Export Plug-In . SVG Version: 6.00 Build 0)  -->
<svg version="1.1" id="Calque_1" xmlns="http://www.w3.org/2000/svg" xmlns:xlink="http://www.w3.org/1999/xlink" x="0px" y="0px"
	 viewBox="0 0 80 80" style="enable-background:new 0 0 80 80;" xml:space="preserve">
<style type="text/css">
	.st0{fill:#91D902;}
</style>
<g>
	<g>
		<g>
			<path class="st0" d="M21.4,22.7c0.6-0.5,0.3-1.4,0.9-1.8c0.4-0.2,0.9-0.2,1.3-0.3c0.5,0,1,0,1.5,0s1-0.1,1.5-0.1
				c0.4,0,0.9,0,1.2,0.2c0.2,0.1,0.4,0.4,0.5,0.6c0.2,0.4,0,0.6,0,1c0,0.7,0.8,1,1.3,0.5c0.5-0.4,0.5-1.2,0.3-1.8
				c-0.1-0.5-0.5-1.1-0.9-1.5c-1-0.9-2.4-0.7-3.7-0.6c-1.2,0.1-2.7-0.1-3.8,0.6c-0.5,0.3-0.9,0.8-1.1,1.4c-0.2,0.5-0.3,1.3,0.1,1.7
				C20.8,22.7,21.1,22.9,21.4,22.7L21.4,22.7z"/>
		</g>
	</g>
	<g>
		<g>
			<path class="st0" d="M31,22.7c0.4-0.2,0.6-0.5,0.7-0.9c0-0.1,0-0.2,0-0.4c0,0.1,0-0.1,0-0.1c0-0.1,0.1-0.2,0.1-0.2
				c0.2-0.2,0.8-0.2,1.1-0.2c0.5,0,1,0.1,1.5,0.1s1-0.1,1.6-0.1c0.2,0,0.5,0,0.7,0c0.1,0,0.3,0.1,0.1,0c0.1,0,0.1,0.1,0.2,0.1
				c0.1,0.1-0.1-0.1,0.1,0.1c0.1,0.1,0.1,0.1,0.2,0.2c0.1,0.1,0.1,0.1,0.2,0.3c0,0,0.1,0.2,0.1,0.1c0-0.1,0,0.1,0,0.1
				c0,0.1,0,0,0-0.1c0,0.1,0,0.1,0,0s0-0.1,0.1-0.1c0,0.1,0,0.1,0,0c-0.3,0.3-0.3,0.8-0.1,1.1s0.7,0.5,1.1,0.2c1-0.8,0.5-2-0.2-2.8
				c-0.3-0.4-0.8-0.7-1.3-0.8c-0.7-0.1-1.4-0.1-2.1,0c-0.6,0.1-1.2,0-1.9,0s-1.5,0-2.1,0.4c-0.5,0.3-0.8,0.7-0.9,1.3
				c-0.1,0.5-0.1,1,0,1.5C30.5,22.7,30.8,22.8,31,22.7L31,22.7z"/>
		</g>
	</g>
	<g>
		<g>
			<path class="st0" d="M23.8,34.8c0,1.9,0,3.7-0.1,5.5s0,3.5,0,5.3c0,1.8-0.1,3.6-0.1,5.5c0,1.7-0.2,3.4,0.1,5.1
				c0.2,1.1,1.8,0.6,1.6-0.4c-0.3-1.7-0.1-3.4,0-5.1c0-1.9,0.1-3.8,0.1-5.7c0-1.8-0.1-3.5,0-5.3c0.1-1.7,0.2-3.4-0.2-5.1
				C25,33.8,23.7,34,23.8,34.8L23.8,34.8z"/>
		</g>
	</g>
	<g>
		<g>
			<path class="st0" d="M33.9,34.6c-0.3,1.8-0.1,3.7-0.1,5.5s0,3.6,0,5.4c0,3.5,0,7-0.1,10.5c0,1.1,1.6,1.1,1.6,0
				c0-3.5,0.1-7,0-10.5c0-1.8,0-3.6,0-5.4c0-1.8,0.1-3.7-0.2-5.5C35.2,33.9,34,33.9,33.9,34.6L33.9,34.6z"/>
		</g>
	</g>
	<g>
		<g>
			<path class="st0" d="M44.1,34.5c-0.8,1.5-0.4,3.5-0.4,5.1c0,2.2,0,4.4,0.1,6.5s0.3,4.2,0.2,6.3c0,0.7-0.1,1.4,0,2.1
				c0,0.4,0.2,1.2,0,1.6c-0.5,0.9,0.8,1.6,1.4,0.8c0.6-0.8,0.2-2.3,0.3-3.2c0-2.1,0-4.2-0.1-6.3c-0.1-2.3-0.2-4.5-0.2-6.8
				c0-2-0.3-3.9-0.2-5.9C45.2,34.2,44.4,34,44.1,34.5L44.1,34.5z"/>
		</g>
	</g>
	<g>
		<g>
			<path class="st0" d="M58.3,34c-0.4-0.4-0.9-0.3-1.4-0.1c-0.3,0.1-0.5,0.4-0.7,0.7s-0.3,0.7-0.3,1c0,0.4,0.2,0.8,0.4,1.2l0.1,0.1
				c0.1,0.1,0.2,0.2,0.3,0.2c0.2,0.1,0.3,0.2,0.5,0.2c0.3,0.1,0.7,0.1,1-0.1c0.3-0.1,0.6-0.3,0.8-0.5c0.2-0.2,0.4-0.5,0.4-0.8
				c0-0.2,0.1-0.5,0-0.7s-0.2-0.4-0.3-0.6C59.1,34.3,58.7,34.1,58.3,34c-0.3,0-0.5,0-0.7,0.1s-0.3,0.3-0.4,0.5c0,0.2,0,0.5,0.1,0.6
				c0.1,0.2,0.3,0.3,0.5,0.4c0.1,0,0.3,0.1,0.4,0.1c-0.1,0-0.1-0.1-0.2-0.1c0.1,0,0.2,0.1,0.2,0.1c-0.1,0-0.1-0.1-0.2-0.1
				c0.1,0,0.1,0.1,0.1,0.1c0-0.1-0.1-0.1-0.1-0.2l0.1,0.1c0-0.1-0.1-0.1-0.1-0.2v0.1c0-0.1,0-0.1,0-0.2c0,0.1,0,0.1,0,0.2
				c0-0.1,0-0.1,0-0.2c0,0.1,0,0.1-0.1,0.2c0-0.1,0.1-0.1,0.1-0.2c0,0.1-0.1,0.1-0.1,0.2c0-0.1,0.1-0.1,0.1-0.2
				c-0.1,0.1-0.1,0.1-0.2,0.2c0.1,0,0.1-0.1,0.2-0.1c-0.1,0.1-0.2,0.1-0.3,0.2c0.1,0,0.1-0.1,0.2-0.1c-0.1,0-0.2,0.1-0.3,0.1
				c0.1,0,0.1,0,0.2,0c-0.1,0-0.2,0-0.3,0c0.1,0,0.1,0,0.2,0c-0.1,0-0.2,0-0.3-0.1c0.1,0,0.1,0.1,0.2,0.1c-0.1,0-0.2-0.1-0.2-0.1
				c0.1,0,0.1,0.1,0.2,0.1c-0.1,0-0.1-0.1-0.2-0.2c0,0.1,0.1,0.1,0.1,0.2c0-0.1-0.1-0.1-0.1-0.2c0,0.1,0.1,0.1,0.1,0.2
				c0-0.1,0-0.1-0.1-0.2c0,0.1,0,0.1,0,0.2c0-0.1,0-0.2,0-0.3c0,0.1,0,0.1,0,0.2c0-0.1,0-0.2,0.1-0.3c0,0.1-0.1,0.1-0.1,0.2
				c0-0.1,0.1-0.2,0.2-0.3c0,0.1-0.1,0.1-0.1,0.2c0.1-0.1,0.1-0.1,0.2-0.2c-0.1,0-0.1,0.1-0.2,0.1c0.1,0,0.1-0.1,0.2-0.1
				c-0.1,0-0.1,0.1-0.2,0.1c0.1,0,0.1,0,0.2,0c-0.1,0-0.1,0-0.2,0h0.1c0.1,0,0.2,0,0.3,0c0.2,0,0.4-0.3,0.5-0.5
				C58.6,34.4,58.5,34.2,58.3,34L58.3,34z"/>
		</g>
	</g>
	<g>
		<g>
			<path class="st0" d="M59.3,41L59.3,41c0.1-0.3,0-0.6-0.2-0.7c-0.1-0.1-0.2-0.2-0.3-0.2c0.1,0,0.1,0.1,0.2,0.1
				c-0.7-0.6-1.6-0.2-2.2,0.3c-0.3,0.3-0.4,0.6-0.6,0.9c-0.1,0.3-0.1,0.7,0,1.1c0.1,0.4,0.4,0.8,0.8,1c0.2,0.1,0.3,0.2,0.5,0.2
				s0.4,0.1,0.5,0.1c0.4,0,0.7-0.1,1-0.3c0.1-0.1,0.3-0.2,0.4-0.3s0.2-0.3,0.3-0.4c0.2-0.4,0.3-0.8,0.1-1.3
				c-0.1-0.3-0.2-0.5-0.4-0.7c-0.2-0.2-0.5-0.4-0.8-0.5c-0.2,0-0.3,0-0.5,0c-0.2,0.1-0.3,0.2-0.4,0.3c-0.2,0.3-0.1,0.7,0.1,1
				c0.1,0.2,0.3,0.3,0.5,0.4c0-0.1-0.1-0.1-0.1-0.2c0,0.1,0.1,0.1,0.1,0.2c0-0.1-0.1-0.1-0.1-0.2c0,0.1,0,0.1,0.1,0.2
				c0-0.1,0-0.2,0-0.2c0,0.1,0,0.1,0,0.2c0-0.1,0-0.2,0-0.2c0,0.1,0,0.1-0.1,0.2c0-0.1,0.1-0.1,0.1-0.2c0,0.1-0.1,0.1-0.1,0.2
				c0-0.1,0.1-0.1,0.1-0.2c-0.1,0.1-0.1,0.1-0.2,0.2c0.1,0,0.1-0.1,0.2-0.1C58.2,42,58.1,42,58,42.1c0.1,0,0.1-0.1,0.2-0.1
				c0,0.1-0.2,0.1-0.3,0.1c0.1,0,0.2,0,0.2,0c-0.1,0-0.2,0-0.3,0c0.1,0,0.2,0,0.2,0c-0.1,0-0.2,0-0.3-0.1c0.2,0.1,0.2,0.1,0.3,0.1
				c-0.1,0-0.2-0.1-0.3-0.1c0.1,0,0.1,0.1,0.2,0.1c-0.1-0.1-0.1-0.1-0.2-0.2c0,0.1,0.1,0.1,0.1,0.2c0-0.1-0.1-0.1-0.1-0.2
				c0,0.1,0.1,0.1,0.1,0.2c0-0.1,0-0.1-0.1-0.2c0,0.1,0,0.1,0,0.2c0-0.1,0-0.2,0-0.3c0,0.1,0,0.1,0,0.2c0-0.1,0-0.2,0.1-0.3
				c0,0.1-0.1,0.1-0.1,0.2c0.1-0.1,0.1-0.3,0.2-0.4c0,0.1-0.1,0.1-0.1,0.2c0.1-0.1,0.2-0.2,0.3-0.3c-0.1,0-0.1,0.1-0.2,0.1
				c0.1-0.1,0.2-0.1,0.3-0.2c-0.1,0-0.1,0.1-0.2,0.1c0.1,0,0.2-0.1,0.3-0.1c-0.1,0-0.1,0-0.2,0c0.1,0,0.2,0,0.2,0
				c-0.1,0-0.1,0-0.2,0c0.1,0,0.2,0,0.2,0c-0.1,0-0.1,0-0.2,0h0.1c-0.1,0-0.1,0-0.2-0.1c0,0,0,0,0.1,0c0.2,0.1,0.5,0.1,0.7,0l0,0
				c-0.1,0-0.1,0-0.2,0.1l0,0C59,41.4,59.2,41.3,59.3,41L59.3,41z"/>
		</g>
	</g>
	<g>
		<g>
			<path class="st0" d="M59,46.8c-0.1-0.2-0.4-0.4-0.6-0.4s-0.4-0.1-0.7,0c-0.3,0.1-0.6,0.3-0.8,0.6c-0.2,0.3-0.4,0.6-0.5,0.9
				c0,0.2-0.1,0.3-0.1,0.5c0,0.3,0.1,0.4,0.2,0.7c0.1,0.1,0.2,0.3,0.3,0.4c0.2,0.2,0.3,0.3,0.6,0.3c0.3,0.1,0.6,0.1,1,0
				c0.2,0,0.3-0.1,0.5-0.2c0.1,0,0.2-0.1,0.2-0.1c0.1-0.1,0.3-0.2,0.4-0.3s0.2-0.2,0.3-0.4c0.1-0.1,0.1-0.3,0.2-0.4
				c0-0.2,0.1-0.5,0-0.7s-0.2-0.4-0.3-0.6c-0.1-0.1-0.2-0.2-0.3-0.2c0,0-0.1,0-0.1-0.1c-0.2-0.1-0.4-0.1-0.7-0.1c0.1,0,0.1,0,0.2,0
				l0,0c-0.3,0-0.6,0.2-0.7,0.4c-0.1,0.2-0.2,0.6,0,0.8l0,0c0-0.1-0.1-0.1-0.1-0.2c0,0.2,0.2,0.4,0.3,0.5l0.1,0.1
				c0-0.1-0.1-0.1-0.1-0.2l0.1,0.1c0-0.1-0.1-0.1-0.1-0.2c0,0,0,0.1,0,0.2c0-0.1,0-0.2,0-0.2c0,0.1,0,0.1,0,0.2c0-0.1,0-0.2,0-0.2
				c0,0.1,0,0.1,0,0.2c0-0.1,0.1-0.1,0.1-0.2c0,0.1-0.1,0.1-0.1,0.2c0-0.1,0.1-0.1,0.1-0.2c-0.1,0.1-0.1,0.2-0.2,0.2
				c0.1,0,0.1-0.1,0.2-0.1c-0.3,0-0.4,0-0.5,0.1c0.1,0,0.1-0.1,0.2-0.1c-0.1,0-0.2,0.1-0.3,0.1c0.1,0,0.2,0,0.2,0
				c-0.1,0-0.2,0-0.3,0c0.1,0,0.2,0,0.2,0c-0.1,0-0.1,0-0.2-0.1c0.1,0,0.1,0.1,0.2,0.1c-0.1,0-0.1-0.1-0.2-0.1
				c0.1,0,0.1,0.1,0.2,0.1c-0.1,0-0.1-0.1-0.1-0.1c0,0.1,0.1,0.1,0.1,0.2l-0.1-0.1c0,0.1,0.1,0.1,0.1,0.2c0-0.1,0-0.1,0-0.2
				c0,0.1,0,0.1,0,0.2c0-0.1,0-0.2,0-0.2c0,0.1,0,0.1,0,0.2c0-0.1,0-0.2,0.1-0.3c0,0.1-0.1,0.1-0.1,0.2c0.1-0.1,0.1-0.2,0.2-0.4
				c0,0.1-0.1,0.1-0.1,0.2c0.1-0.1,0.2-0.2,0.3-0.3c-0.1,0-0.1,0.1-0.2,0.1c0.1,0,0.1-0.1,0.2-0.1c-0.1,0-0.1,0.1-0.2,0.1
				c0.1,0,0.1-0.1,0.2-0.1c-0.1,0-0.1,0-0.2,0c0.1,0,0.2,0,0.3,0c-0.1,0-0.1,0-0.2,0c0.1,0,0.2,0,0.3,0c-0.1,0-0.1,0-0.2,0l0,0
				c0.1,0,0.2,0,0.3-0.1c0.1-0.1,0.2-0.1,0.2-0.2C59.1,47.3,59.1,47,59,46.8L59,46.8z"/>
		</g>
	</g>
	<g>
		<g>
			<path class="st0" d="M59,53c0,0-0.1-0.1-0.2-0.1s-0.1-0.1-0.2-0.1h-0.1c-0.1,0-0.2,0-0.4,0c-0.2,0-0.4,0-0.5,0s-0.1,0-0.2,0
				S57.2,52.9,57,53s-0.4,0.3-0.5,0.5s-0.2,0.3-0.2,0.5c0,0.1,0,0.2,0,0.3s0,0.2,0,0.3c0,0.2,0.1,0.4,0.1,0.6
				c0.1,0.2,0.2,0.4,0.4,0.6c0.4,0.5,1.1,0.8,1.8,0.6c0.3-0.1,0.6-0.2,0.8-0.5c0.2-0.2,0.4-0.5,0.5-0.8c0.1-0.2,0.1-0.5,0.1-0.8
				s-0.1-0.4-0.2-0.7C59.7,53.3,59.4,53.1,59,53c-0.2,0-0.4,0-0.6,0.2c-0.2,0.1-0.3,0.4-0.3,0.6c0,0.1,0,0.1,0,0.2s0,0.2,0.1,0.3
				c0-0.1-0.1-0.1-0.1-0.2c0,0.1,0.1,0.2,0.1,0.3v0.1c0-0.1-0.1-0.1-0.1-0.2c0,0.1,0,0.1,0.1,0.2c0-0.1,0-0.2,0-0.2
				c0,0.1,0,0.2,0,0.3c0-0.1,0-0.2,0-0.2c0,0.1,0,0.2-0.1,0.3c0-0.1,0.1-0.1,0.1-0.2c0,0.1-0.1,0.2-0.2,0.3c0-0.1,0.1-0.1,0.1-0.2
				c-0.1,0.1-0.1,0.1-0.2,0.2c0.1,0,0.1-0.1,0.2-0.1c-0.1,0.1-0.1,0.1-0.2,0.1c0.1,0,0.1-0.1,0.2-0.1c-0.1,0-0.1,0-0.2,0.1
				c0.1,0,0.2,0,0.2,0c-0.1,0-0.1,0-0.2,0c0.1,0,0.2,0,0.2,0c-0.1,0-0.1,0-0.2-0.1c0.1,0,0.1,0.1,0.2,0.1c-0.1,0-0.2-0.1-0.2-0.1
				c0.1,0,0.1,0.1,0.2,0.1c-0.1-0.1-0.2-0.1-0.2-0.2c0,0.1,0.1,0.1,0.1,0.2c-0.1-0.1-0.1-0.2-0.1-0.2c0,0.1,0.1,0.1,0.1,0.2
				c0-0.1-0.1-0.2-0.1-0.2c0,0.1,0,0.1,0,0.2c0-0.1,0-0.2,0-0.2c0,0.1,0,0.1,0,0.2c0-0.1,0-0.2,0.1-0.2c0,0.1-0.1,0.1-0.1,0.2
				c0-0.1,0.1-0.2,0.1-0.2c0,0.1-0.1,0.1-0.1,0.2c0.1-0.1,0.1-0.1,0.2-0.2c-0.1,0-0.1,0.1-0.2,0.1c0.1,0,0.1-0.1,0.2-0.1
				c-0.1,0-0.1,0.1-0.2,0.1c0.1-0.1,0.3-0.1,0.4-0.1c-0.1,0-0.1,0-0.2,0c0.1,0,0.3,0,0.4,0c-0.1,0-0.1,0-0.2,0c0.2,0,0.5,0,0.7-0.2
				c0.1-0.1,0.2-0.3,0.2-0.5c0-0.1,0-0.1,0-0.2C59.2,53.2,59.1,53.1,59,53L59,53z"/>
		</g>
	</g>
	<g>
		<g>
			<path class="st0" d="M21.5,37.7c0.8,0.1,1.7-0.2,2.5-0.2c0.7,0,1.5,0.1,2.2,0.2c0.6,0.1,1,0.3,1.1,0.9c0.1,0.3,0.1,0.6,0.2,0.9
				c0,0.1,0,0.3,0,0.4c0,0,0,0.2,0,0.1c0,0.1-0.1,0.2-0.2,0.2c0,0-0.1,0-0.1,0.1c0,0,0.1,0,0,0s-0.3,0.1-0.4,0.1
				c-0.3,0.1-0.4,0.1-0.6,0.1c-0.4,0-0.7,0.1-1.1,0.1c-1,0.2-2.9,0.8-3.5-0.3c-0.3-0.5-0.3-1.1-0.2-1.6c0,0.1,0-0.2,0.1-0.3
				c0-0.1,0-0.1,0-0.2c0,0,0.1-0.3,0-0.1c0-0.1,0.1-0.1,0.1-0.2c0.1-0.1,0,0,0-0.1c0,0,0.2-0.1,0,0c-0.1,0.1,0,0,0.1,0
				c0.5-0.1,0.7-0.6,0.6-1c-0.1-0.5-0.6-0.7-1-0.6c-1.7,0.2-1.8,2.7-1.6,4c0.2,0.9,0.7,1.8,1.6,2.2c1,0.4,2,0.4,3,0.2
				c0.8-0.1,1.6-0.3,2.4-0.4c0.7-0.1,1.4-0.3,1.9-0.8c0.6-0.6,0.7-1.4,0.6-2.2c-0.1-0.9-0.3-1.8-1-2.4c-0.8-0.7-2-0.8-3.1-0.9
				c-0.6-0.1-1.1,0-1.7,0c-0.6,0-1.2,0.2-1.8,0.2C20.5,36.2,20.5,37.6,21.5,37.7L21.5,37.7z"/>
		</g>
	</g>
	<g>
		<g>
			<path class="st0" d="M31.7,48c0.8,0.1,1.7-0.2,2.5-0.2c0.7,0,1.5,0.1,2.2,0.2c0.6,0.1,1,0.3,1.1,0.9c0.1,0.3,0.1,0.6,0.2,0.9
				c0,0.1,0,0.3,0,0.4c0,0,0,0.2,0,0.1c0,0.1-0.1,0.2-0.2,0.2c0,0-0.1,0-0.1,0.1c0,0,0.1,0,0,0s-0.3,0.1-0.4,0.1
				c-0.3,0.1-0.4,0.1-0.6,0.1c-0.4,0-0.7,0.1-1.1,0.1c-1,0.2-2.9,0.8-3.5-0.3c-0.3-0.5-0.3-1.1-0.2-1.6c0,0.1,0-0.2,0.1-0.3
				c0-0.1,0-0.1,0-0.2c0,0,0.1-0.3,0-0.1c0-0.1,0.1-0.1,0.1-0.2C31.9,48.1,31.8,48.2,31.7,48C31.8,48.1,32,48,31.7,48
				c0,0.2,0.1,0.1,0.2,0.1c0.5-0.1,0.7-0.6,0.6-1c-0.1-0.5-0.6-0.7-1-0.6c-1.7,0.2-1.8,2.7-1.6,4c0.2,0.9,0.7,1.8,1.6,2.2
				c1,0.4,2,0.4,3,0.2c0.8-0.1,1.6-0.3,2.4-0.4c0.7-0.1,1.4-0.3,1.9-0.8c0.6-0.6,0.7-1.4,0.6-2.2c-0.1-0.9-0.3-1.8-1-2.4
				c-0.8-0.7-2-0.8-3.1-0.9c-0.6-0.1-1.1,0-1.7,0c-0.6,0-1.2,0.2-1.8,0.2C30.8,46.5,30.8,48,31.7,48L31.7,48z"/>
		</g>
	</g>
	<g>
		<g>
			<path class="st0" d="M41.8,37.7c0.8,0.1,1.7-0.2,2.5-0.2c0.7,0,1.5,0.1,2.2,0.2c0.6,0.1,1,0.3,1.1,0.9c0.1,0.3,0.1,0.6,0.2,0.9
				c0,0.1,0,0.3,0,0.4c0,0,0,0.2,0,0.1c0,0.1-0.1,0.2-0.2,0.2c0,0-0.1,0-0.1,0.1c0,0,0.1,0,0,0s-0.3,0.1-0.4,0.1
				c-0.3,0.1-0.4,0.1-0.6,0.1c-0.4,0-0.7,0.1-1.1,0.1c-1,0.2-2.9,0.8-3.5-0.3c-0.3-0.5-0.3-1.1-0.2-1.6c0,0.1,0-0.2,0.1-0.3
				c0-0.1,0-0.1,0-0.2c0,0,0.1-0.3,0-0.1c0-0.1,0.1-0.1,0.1-0.2c0.1-0.1,0,0,0-0.1c0,0,0.2-0.1,0,0c-0.1,0.1,0,0,0.1,0
				c0.5-0.1,0.7-0.6,0.6-1c-0.1-0.5-0.6-0.7-1-0.6c-1.7,0.2-1.8,2.7-1.6,4c0.2,0.9,0.7,1.8,1.6,2.2c1,0.4,2,0.4,3,0.2
				c0.8-0.1,1.6-0.3,2.4-0.4c0.7-0.1,1.4-0.3,1.9-0.8c0.6-0.6,0.7-1.4,0.6-2.2c-0.1-0.9-0.3-1.8-1-2.4c-0.8-0.7-2-0.8-3.1-0.9
				c-0.6-0.1-1.1,0-1.7,0s-1.2,0.2-1.8,0.2C40.8,36.2,40.8,37.6,41.8,37.7L41.8,37.7z"/>
		</g>
	</g>
	<g>
		<g>
			<path class="st0" d="M23,26.1c1.1,0.1,2.1-0.1,3.2-0.2c1.3,0,2.6,0,3.8-0.1c1.9-0.1,3.8-0.1,5.8,0.1c2.2,0.2,4.5,0.2,6.7,0.3
				c2.9,0.1,5.9,0.2,8.8,0.3c1.1,0,2.1,0,3.2,0c0.7,0,1.4-0.1,2.1,0c1,0.1,1.3,0.6,1.5,1.6c0.1,0.7,0.1,1.4,0.1,2.1
				c0,0.1-0.2,0.6-0.1,0.4c0.1-0.2,0.3,0,0-0.1c-0.6-0.1-1.4,0.2-2,0.2c-2.6,0.1-5.1,0.1-7.7,0.2c-4.8,0-9.7-0.1-14.5,0.1
				c-3.3,0.1-6.7,0.1-10,0.1c-0.6,0-1.2-0.1-1.8-0.1c-0.5,0,0,0,0,0.1c-0.1-0.3-0.2-0.6-0.3-0.9c-0.1-0.7-0.2-1.5-0.1-2.3
				c0.1-1.1,0.2-1.4,1.4-1.6c0.9-0.1,0.7-1.7-0.2-1.6c-1.6,0.2-2.5,0.9-2.7,2.5c-0.2,1.4-0.1,3.1,0.5,4.4c0.5,1.1,1.5,1,2.5,1
				c1.7,0.1,3.5,0.1,5.2,0c5.6,0,11.2-0.1,16.7-0.2c3.2,0,6.4,0,9.6-0.1c1.2,0,4,0.3,4.7-0.9c0.7-1.1,0.4-2.9,0.1-4.1
				c-0.5-1.7-1.5-2.4-3.3-2.4c-2.8-0.1-5.7,0-8.5-0.1c-3.6-0.1-7.1-0.2-10.7-0.4c-1.5-0.1-3.1-0.2-4.6-0.2c-1.6,0-3.2,0.2-4.8,0.2
				c-1.5,0-3.1,0.3-4.7,0.2C22.1,24.6,22.1,26,23,26.1L23,26.1z"/>
		</g>
	</g>
	<g>
		<g>
			<path class="st0" d="M62.4,59.4c-1.5,0.2-3.1-0.1-4.7-0.1c-1.2,0-2.4,0-3.6-0.1c-3.4-0.1-6.8-0.2-10.1-0.3
				c-4.8-0.2-9.6-0.4-14.4-0.4c-4,0-8,0-11.9,0.3c0.3,0.3,0.5,0.5,0.8,0.8c0-10.8,0-21.7,0-32.5c0-1.5,0-3.1,0-4.6
				c-0.3,0.3-0.5,0.5-0.8,0.8c11.7-1,23.5,0.1,35.2,0.4c1.5,0,3,0.1,4.5,0.1c1.6,0,3.3,0.3,4.9,0.1c-0.2-0.2-0.5-0.5-0.7-0.7
				c0,10.8,0,21.7,0,32.5c0,1.5,0,3.1,0,4.6c0,1,1.5,1,1.5,0c0-10.8,0-21.7,0-32.5c0-1.5,0-3.1,0-4.6c0-0.4-0.3-0.8-0.7-0.7
				c-1.5,0.2-3.1-0.1-4.7-0.1c-1.2,0-2.4,0-3.6-0.1c-3.4-0.1-6.8-0.2-10.1-0.3c-4.8-0.2-9.6-0.4-14.4-0.4c-4,0-8,0-11.9,0.4
				c-0.4,0-0.8,0.3-0.8,0.8c0,10.8,0,21.7,0,32.5c0,1.5,0,3.1,0,4.6c0,0.4,0.4,0.8,0.8,0.8c11.7-1,23.5,0.1,35.2,0.4
				c1.5,0,3,0.1,4.5,0.1c1.6,0,3.3,0.2,4.9,0C63.3,60.8,63.4,59.3,62.4,59.4z"/>
		</g>
	</g>
</g>
</svg>
