<?xml version="1.0" encoding="utf-8"?>
<!-- Generator: Adobe Illustrator 24.3.0, SVG Export Plug-In . SVG Version: 6.00 Build 0)  -->
<svg version="1.1" id="Calque_1" xmlns="http://www.w3.org/2000/svg" xmlns:xlink="http://www.w3.org/1999/xlink" x="0px" y="0px"
	 viewBox="0 0 80 80" style="enable-background:new 0 0 80 80;" xml:space="preserve">
<style type="text/css">
	.st0{fill:#91D902;}
</style>
<g>
	<g>
		<g>
			<path class="st0" d="M33.2,25.2c-3.2,1.7-5.9,4.3-7.3,7.6c-1.4,3.3-2,6.8-1.2,10.3c1.4,6,6.8,10.5,12.5,12.3
				c6.5,2,12.8-1.9,16.1-7.3c3.4-5.6,3.1-13-0.8-18.3c-2.3-3.2-5.7-4.8-9.5-5.4C39.9,23.9,36,23.6,33.2,25.2c-1,0.4-0.2,1.8,0.8,1.4
				c2.4-1.1,5.4-0.9,7.9-0.6c2.9,0.4,6,1.3,8.2,3.4c4.1,4.2,5.3,11,2.8,16.3c-2.3,4.9-7.4,9.2-13.2,8.6c-5.2-0.6-10.5-4.6-12.6-9.3
				c-1.4-3.2-1.4-6.8-0.2-10.1c0.7-1.8,1.5-3.6,2.9-5c1.2-1.2,2.7-2.4,4.2-3.3C34.8,26,34,24.8,33.2,25.2z"/>
		</g>
	</g>
	<g>
		<g>
			<path class="st0" d="M31.3,26.8C31.3,26.8,31.3,27.1,31.3,26.8C31.3,26.9,31.3,27.3,31.3,26.8c0,0,0.1-0.1,0.1-0.3
				c-0.2,0.3-0.1,0.7,0.1,1c0.1,0.2,0.2,0.3,0.4,0.5s0.4,0.5,0.7,0.7c0.2,0.2,0.4,0.5,0.6,0.7l0,0c0,0.1,0,0-0.1-0.1
				c0,0,0,0.1,0.1,0.1c0,0.1,0.1,0.1,0.1,0.2c0,0.1,0.1,0.1,0.1,0.2c0.1,0.2,0.2,0.3,0.4,0.4c0.1,0.1,0.2,0.1,0.4,0.1
				c0.3,0,0.5-0.2,0.6-0.4c0.4-0.6-0.1-1.1-0.5-1.5c-0.2-0.3-0.4-0.5-0.7-0.7c-0.2-0.2-0.5-0.5-0.7-0.7c-0.3-0.3-0.7-0.8-1.2-0.7
				c0.2,0,0.4,0,0.5,0.1s0.1,0.1,0,0c0,0-0.1,0-0.1-0.1c0,0,0,0-0.1,0C31.9,26,31.2,26.3,31.3,26.8L31.3,26.8z"/>
		</g>
	</g>
	<g>
		<g>
			<path class="st0" d="M40.1,27.7L40.1,27.7c0.1-0.1,0.2-0.3,0.3-0.4l0,0C40.2,27.4,40.1,27.6,40.1,27.7c-0.1,0.2-0.1,0.4,0,0.5
				s0.2,0.3,0.3,0.3c0.2,0.1,0.4,0.1,0.6,0.1c0.2,0,0.5-0.2,0.6-0.4c0.1-0.1,0.2-0.2,0.3-0.3c0.3-0.3,0.5-0.6,0.7-0.8
				c0,0.1-0.1,0.1-0.1,0.2c0.2-0.3,0.4-0.5,0.7-0.8c-0.1,0-0.1,0.1-0.2,0.1c0.1-0.1,0.1-0.1,0.2-0.1c0.2-0.1,0.3-0.3,0.4-0.5
				s0-0.4-0.1-0.6c-0.2-0.4-0.7-0.5-1.1-0.3c-0.7,0.4-1.1,1.1-1.6,1.7c0-0.1,0.1-0.1,0.1-0.2c-0.2,0.2-0.3,0.4-0.5,0.6
				c0.1,0,0.1-0.1,0.2-0.1c-0.1,0.1-0.2,0.2-0.3,0.3c0.2-0.1,0.3-0.1,0.5-0.2l0,0c0.2,0.2,0.4,0.4,0.6,0.6c0-0.1,0-0.2,0-0.3
				c-0.1-0.3-0.4-0.5-0.7-0.4C40.3,27.1,40.1,27.4,40.1,27.7L40.1,27.7z"/>
		</g>
	</g>
	<g>
		<g>
			<path class="st0" d="M34.6,30.5c1.1-0.5,2.2-0.4,3.3-0.7c0.5-0.1,1.1-0.3,1.7-0.3c0.3,0,0.5,0.2,0.7,0.5s0.4,0.7,0.6,1.1
				c0.3,0.4,0.6,0.8,0.9,1.2c0.3,0.3,0.6,0.6,0.7,1c0.2,0.4,0,0.8-0.2,1.2c-0.2,0.5-0.4,1.1-0.6,1.6c-0.1,0.2-0.2,0.5-0.3,0.7
				c0,0.1-0.1,0.2-0.1,0.3s-0.1,0.1,0,0s0,0-0.1,0c-0.3,0.1-0.5,0.1-0.8,0.2c-0.6,0.1-1.2,0.2-1.7,0.4c-0.9,0.2-2.1,0.8-2.9,0.2
				c-0.8-0.5-1.3-1.4-1.9-2.1c-0.2-0.3-0.6-0.7-0.7-1c0-0.2,0.2-0.7,0.3-1.1c0.5-1.1,0.7-2.4,1.4-3.4c0.6-0.9-0.9-1.8-1.5-0.9
				c-0.7,1.1-1,2.5-1.6,3.7c-0.5,1.1-0.6,2.1,0.1,3.1c0.7,1,1.5,2,2.4,2.8c0.4,0.4,0.9,0.7,1.5,0.8c0.7,0.1,1.5,0,2.2-0.2
				s1.4-0.4,2.2-0.5c0.6-0.1,1.3-0.2,1.9-0.5c0.4-0.2,0.7-0.6,0.8-1c0.2-0.6,0.4-1.2,0.7-1.8c0.2-0.6,0.5-1.2,0.6-1.8
				c0.1-0.7-0.1-1.3-0.5-1.9c-0.3-0.5-0.7-0.9-1.1-1.3c-0.3-0.4-0.5-0.9-0.8-1.3c-0.3-0.5-0.7-1.1-1.3-1.4c-0.7-0.3-1.4-0.3-2.2-0.1
				c-0.8,0.1-1.6,0.3-2.4,0.4c-0.8,0.1-1.5,0.3-2.2,0.7C33,29.7,33.7,30.8,34.6,30.5L34.6,30.5z"/>
		</g>
	</g>
	<g>
		<g>
			<path class="st0" d="M25.6,37.8c0.1,0.1,0.3,0.1,0.4,0.2c-0.1,0-0.1-0.1-0.2-0.1c0.6,0.3,1.2,0.5,1.9,0.8c0.2,0.1,0.5,0,0.6-0.1
				c0.2-0.1,0.3-0.3,0.4-0.5c0-0.2,0-0.4-0.1-0.6c-0.1-0.2-0.3-0.3-0.5-0.4c-0.3-0.1-0.7-0.2-1-0.4c-0.3-0.1-0.6-0.3-1-0.3
				c-0.2,0-0.4,0-0.6,0.1c-0.1,0.1-0.2,0.2-0.3,0.3C25.1,37.2,25.2,37.6,25.6,37.8L25.6,37.8z"/>
		</g>
	</g>
	<g>
		<g>
			<path class="st0" d="M32.3,34.7c-0.4,0.1-0.7,0.3-1.1,0.5c-0.4,0.2-0.9,0.4-1.3,0.5c-0.7,0.3-1.5,0.6-2.2,1s-1.3,1-1.3,1.9
				c0,0.8,0.4,1.6,0.6,2.4c0.2,0.9,0.4,1.9,0.8,2.7c0.4,0.7,1,0.9,1.6,1.2c0.9,0.3,1.8,0.6,2.7,0.7c0.6,0.1,1.3,0,1.7-0.5
				c0.7-0.7,0.9-1.7,1.2-2.6c0.2-0.5,0.4-1,0.5-1.6c0.1-0.5,0.2-1,0.4-1.5c0.5-1-1-1.8-1.4-0.8c-0.4,0.8-0.5,1.6-0.7,2.4
				c-0.2,0.7-0.5,1.5-0.8,2.2c-0.1,0.2-0.1,0.3-0.2,0.5c0,0.1-0.1,0.1-0.1,0.2c0,0-0.1,0.1,0,0c-0.1,0.1,0,0,0,0c0.1,0,0,0,0,0
				c0.1,0,0,0-0.1,0c-0.7-0.1-1.3-0.2-2-0.4c-0.3-0.1-0.7-0.2-1-0.4c-0.1,0-0.2-0.1-0.2-0.1c-0.1,0-0.1-0.1-0.1,0
				c-0.4-0.6-0.5-1.4-0.7-2.2c-0.1-0.7-0.4-1.3-0.5-2c-0.1-0.2-0.1-0.3,0-0.4c0.1-0.2,0.4-0.3,0.7-0.5c0.7-0.4,1.3-0.6,2-0.9
				c0.8-0.3,1.7-0.7,2.1-1.4C33.3,35.2,32.8,34.5,32.3,34.7L32.3,34.7z"/>
		</g>
	</g>
	<g>
		<g>
			<path class="st0" d="M28.2,47.9C28.2,47.9,28.3,47.7,28.2,47.9c0.2-0.2,0.2-0.3,0.3-0.4s0.1-0.3,0.2-0.4c0.1-0.3,0.3-0.5,0.4-0.8
				c0.3-0.6,0.5-1.2,0.7-1.9c0.1-0.4-0.1-0.8-0.5-0.9s-0.8,0.1-0.9,0.5c-0.2,0.6-0.4,1.2-0.6,1.7c-0.1,0.3-0.2,0.6-0.3,0.8
				c-0.1,0.1-0.1,0.3-0.2,0.4c0,0.1,0,0.2-0.1,0.3c0-0.1,0,0.1,0,0.1c-0.1,0.3,0.1,0.6,0.4,0.7C27.7,48.2,28.1,48.1,28.2,47.9
				L28.2,47.9z"/>
		</g>
	</g>
	<g>
		<g>
			<path class="st0" d="M33.3,45c0.2,0.3,0.4,0.6,0.6,0.9c0.2,0.3,0.4,0.6,0.7,0.9c0.3,0.4,0.6,0.8,1,1.1c0.2,0.2,0.3,0.3,0.5,0.5
				s0.3,0.4,0.5,0.5c-0.2-0.2,0-0.1,0,0l0.1,0.1c0,0,0,0.1,0.1,0.1c-0.1-0.1-0.1-0.2,0-0.1c0.1,0.3,0.3,0.5,0.6,0.7
				c-0.2-0.1-0.2-0.1-0.1,0c0.1,0,0.2,0.1,0.3,0.1c0.2,0,0.3,0,0.4-0.1c0.2-0.1,0.4-0.4,0.4-0.7c0-0.5-0.4-1-0.7-1.3s-0.6-0.6-0.9-1
				c-0.3-0.3-0.6-0.6-0.9-1c-0.4-0.5-0.8-1.1-1.3-1.5c-0.3-0.2-0.6-0.3-1-0.1C33.2,44.2,33.1,44.6,33.3,45L33.3,45z"/>
		</g>
	</g>
	<g>
		<g>
			<path class="st0" d="M40.8,53.9c-0.6-0.6-1.3-1-2-1.4c-0.3-0.2-0.6-0.3-0.9-0.5c-0.1-0.1-0.2-0.1-0.3-0.2c0,0-0.2-0.1-0.1-0.1
				l0,0v0.1c0,0.2,0,0.2,0,0c0-0.1,0.1-0.2,0.1-0.3c0.1-0.3,0.3-0.6,0.4-0.8c0.1-0.3,0.3-0.6,0.4-0.8c0,0,0.2-0.2,0.1-0.1
				c0.1-0.1,0.1-0.1,0.2-0.1c0.6-0.2,1.3-0.3,1.9-0.5c0.7-0.2,1.3-0.5,2-0.7c0.3-0.1,0.5-0.2,0.8-0.2c0.1,0,0.1,0,0.2,0
				c-0.2,0-0.1,0,0,0.1c0.4,0.4,0.7,0.9,0.9,1.4c0.3,0.7-0.2,1.4-0.5,2c-0.4,0.8-0.7,1.6-1.1,2.4c-0.5,1,0.9,1.8,1.5,0.9
				c0.5-0.8,0.8-1.7,1.2-2.5c0.4-0.9,0.9-1.9,0.7-2.9c-0.2-0.7-0.7-1.5-1.2-2.1c-0.5-0.7-1.1-1-2-0.8c-0.7,0.1-1.4,0.4-2.1,0.7
				c-0.4,0.2-0.9,0.3-1.3,0.5c-0.4,0.1-0.8,0.2-1.1,0.3c-0.8,0.2-1.4,0.6-1.8,1.4c-0.2,0.3-0.3,0.6-0.5,1s-0.4,0.7-0.5,1.1
				c-0.3,1,0.4,1.6,1.2,2.1c0.9,0.6,2,0.9,2.9,1.5C40.6,55.6,41.4,54.5,40.8,53.9L40.8,53.9z"/>
		</g>
	</g>
	<g>
		<g>
			<path class="st0" d="M33,52.8c0.3,0.1,0.6,0.2,0.9,0.2c0.4,0,0.7,0,1.1,0c0.3,0,0.7,0,1-0.1c0.5,0,1-0.1,1.3-0.5
				c0.3-0.5,0-1-0.5-1.2c-0.2-0.1-0.4,0-0.7,0c0,0,0,0-0.1,0c-0.2,0,0.2,0,0.1,0c-0.1,0-0.1,0-0.2,0c-0.3,0-0.7,0-1,0.1
				c-0.3,0-0.7,0-1,0c-0.1,0-0.3,0-0.4,0c-0.1,0-0.1,0-0.2,0h-0.1c0.2,0,0.2,0,0.1,0c-0.4-0.1-0.8,0.1-0.9,0.5
				C32.3,52.3,32.6,52.6,33,52.8L33,52.8z"/>
		</g>
	</g>
	<g>
		<g>
			<path class="st0" d="M41.6,38.5c0.1,0.8,0.8,1.4,1.4,1.9c0.5,0.4,1.2,0.9,1.3,1.5c0,0.2,0,0.6,0,0.9c-0.1,0.5-0.2,1-0.4,1.4
				c-0.1,0.5-0.3,0.9-0.5,1.4c-0.2,0.4-0.5,0.9-0.5,1.4c0,0.6,0.7,1.1,1.2,0.7s0.6-0.9,0.9-1.5c0.2-0.5,0.4-1,0.5-1.5
				c0.3-1,0.6-2.1,0.4-3.1c-0.3-1.7-2.2-2.4-3.1-3.7C42.5,37.3,41.5,37.8,41.6,38.5L41.6,38.5z"/>
		</g>
	</g>
	<g>
		<g>
			<path class="st0" d="M43.8,33.6c0.7,0.1,1.4,0.4,2.1,0.7c0.5,0.2,1.1,0.2,1.6,0.3c0.3,0,0.5,0.1,0.8,0.2c0.1,0,0.3,0.2,0.2,0.1
				c0,0.2,0,0.6,0,0.8c0,0.3,0,0.6-0.1,1c-0.1,0.6-0.1,1.2,0,1.9c0,0.2,0.1,0.5,0.1,0.6c0,0.2-0.1,0.2-0.3,0.3
				c-1.3,0.7-2.3,2-3.6,2.8c-1,0.6-0.1,2.1,0.9,1.5c0.8-0.5,1.5-1.1,2.2-1.8c0.3-0.3,0.6-0.6,1-0.9c0.3-0.2,0.6-0.3,0.9-0.6
				c0.7-0.6,0.6-1.4,0.5-2.2c-0.1-0.7,0-1.3,0-2c0.1-0.7,0.1-1.6-0.2-2.2c-0.3-0.6-1-0.9-1.7-1.1c-0.7-0.1-1.3-0.1-2-0.3
				c-0.8-0.2-1.6-0.7-2.5-0.6C42.8,32.2,42.8,33.5,43.8,33.6L43.8,33.6z"/>
		</g>
	</g>
	<g>
		<g>
			<path class="st0" d="M50,39.1c-0.1,0-0.1,0-0.2,0.1h-0.1c-0.2,0.1-0.2,0.1,0,0c-0.3,0.2-0.4,0.5-0.3,0.8s0.3,0.5,0.4,0.6
				s0.3,0.3,0.4,0.4c0.3,0.2,0.5,0.5,0.8,0.7c0.4,0.4,0.7,0.8,1.1,1.1c0.2,0.2,0.4,0.4,0.6,0.5c0.2,0.2,0.5,0.5,0.8,0.5
				c0.3,0.1,0.8,0,0.9-0.4c0.2-0.3,0.2-0.8-0.1-1c-0.1-0.1-0.3-0.2-0.4-0.3L53.8,42c0.2,0.1,0,0,0,0c-0.2-0.2-0.4-0.3-0.6-0.5
				c-0.4-0.4-0.7-0.8-1.1-1.1c-0.3-0.2-0.6-0.5-0.8-0.7c-0.1-0.1-0.3-0.2-0.4-0.4c-0.3-0.3-0.5-0.5-0.9-0.4c0.2,0.1,0.5,0.3,0.7,0.4
				c0,0.1,0,0.3-0.1,0.4C50.7,39.6,50.5,39.1,50,39.1L50,39.1z"/>
		</g>
	</g>
	<g>
		<g>
			<path class="st0" d="M49.3,34.6c0.4,0,0.7-0.3,0.9-0.5c0.3-0.3,0.5-0.6,0.7-1c0.4-0.6,0.7-1.3,1.1-1.9c0.1-0.1,0.1-0.2,0.2-0.3
				s0.1-0.2,0.1-0.3s-0.1,0.2-0.1,0.1c0,0.1-0.2,0.2-0.3,0.2c-0.2,0-0.4,0.1-0.6,0.1l0,0c0.4,0.2,0.8-0.2,0.9-0.5
				c0.1-0.4-0.1-0.8-0.5-0.9l0,0c0.1,0.1,0.2,0.1,0.3,0.2c-0.2-0.2-0.5-0.3-0.7-0.2c-0.1,0-0.1,0.1-0.2,0.1c0,0,0.3-0.1,0.1,0h-0.1
				c-0.2,0.1-0.3,0.3-0.4,0.4c-0.2,0.3-0.3,0.5-0.5,0.8c-0.4,0.7-0.7,1.4-1.1,2c-0.1,0.1-0.2,0.3-0.3,0.4c0,0-0.1,0.1,0,0
				s0,0-0.1,0.1s0.1-0.1,0-0.1c-0.1,0.1-0.1,0.1-0.1,0.2c-0.1,0.1,0.1-0.1,0.1-0.1C48.4,33.9,48.7,34.6,49.3,34.6L49.3,34.6z"/>
		</g>
	</g>
	<g>
		<g>
			<path class="st0" d="M46.4,51c0.9-0.3,1.8-0.7,2.7-1c0.9-0.3,1.9-0.6,2.8-0.9c0.4-0.1,0.7-0.6,0.6-1s-0.6-0.7-1-0.6
				c-1,0.3-1.9,0.6-2.9,1c-0.9,0.4-1.9,0.7-2.8,1.2C45.1,50,45.6,51.2,46.4,51L46.4,51z"/>
		</g>
	</g>
</g>
</svg>
