<?xml version="1.0" encoding="utf-8"?>
<!-- Generator: Adobe Illustrator 24.3.0, SVG Export Plug-In . SVG Version: 6.00 Build 0)  -->
<svg version="1.1" id="Calque_1" xmlns="http://www.w3.org/2000/svg" xmlns:xlink="http://www.w3.org/1999/xlink" x="0px" y="0px"
	 viewBox="0 0 80 80" style="enable-background:new 0 0 80 80;" xml:space="preserve">
<style type="text/css">
	.st0{fill:#91D902;}
</style>
<g>
	<g>
		<g>
			<path class="st0" d="M29.9,36.8c-3-0.2-6.1-0.3-8.8,1.4c-2.2,1.4-4.2,3.8-5.2,6.2c-2,5.1,0.1,11.2,3.9,14.8
				c3.9,3.7,9.7,4.7,14.4,2.2c4.6-2.4,7.6-7.7,7.1-12.9C41,45.8,40,43,38.1,41c-2.3-2.4-5.8-2.5-8.6-3.8c-1-0.5-1.9,1-0.9,1.5
				c2.2,1.1,4.7,1.3,6.9,2.5c2,1.1,3.1,3.3,3.7,5.4c1.2,4.4-0.4,9.1-3.8,12c-3.6,3.1-8.8,3.3-12.7,0.7c-3.9-2.5-6.5-7.8-5.7-12.4
				c0.5-2.7,2.3-5.2,4.4-6.8c2.6-1.9,5.5-1.6,8.5-1.7C30.9,38.4,30.9,36.9,29.9,36.8L29.9,36.8z"/>
		</g>
	</g>
	<g>
		<g>
			<path class="st0" d="M29.5,39.6c-2.4-0.2-4.8-0.2-6.8,1.1c-1.8,1.1-3.3,3-4.1,4.9c-1.6,4,0.1,8.8,3.1,11.6
				c3,2.9,7.6,3.7,11.3,1.7c3.6-1.9,6-6.1,5.6-10.1c-0.2-2.1-1-4.4-2.5-5.9c-1.8-1.9-4.4-1.9-6.7-3c-1-0.5-1.9,1-0.9,1.5
				c1.7,0.9,3.6,1,5.3,1.9c1.5,0.8,2.3,2.5,2.7,4c0.9,3.3-0.3,6.8-2.9,9c-2.7,2.3-6.6,2.5-9.5,0.5c-2.9-1.9-4.9-5.8-4.3-9.3
				c0.3-2,1.7-3.9,3.3-5.1c2-1.5,4.1-1.2,6.4-1.3C30.6,41.2,30.5,39.7,29.5,39.6L29.5,39.6z"/>
		</g>
	</g>
	<g>
		<g>
			<path class="st0" d="M30.3,48.5L30.3,48.5c0,0.1,0,0.2,0,0.3c0,0,0,0,0-0.1c0.1-0.1,0-0.4-0.1-0.6c-0.2-0.2-0.3-0.4-0.5-0.5
				s-0.4-0.2-0.7-0.2s-0.7,0.1-1,0.3c-0.6,0.4-1,1.1-1.1,1.8c-0.1,0.4,0,0.8,0.1,1.1c0.2,0.4,0.5,0.8,0.9,1c0.8,0.4,1.8,0.2,2.4-0.4
				c0.7-0.7,1-1.9,0.4-2.7c-0.2-0.3-0.6-0.5-1-0.3s-0.5,0.5-0.5,0.9c0,0.1,0,0.1,0,0.2c0-0.1,0-0.1,0-0.2c0,0.1,0,0.3,0.1,0.4
				c0-0.1,0-0.1,0-0.2c0,0.2,0,0.3,0,0.5c0-0.1,0-0.1,0-0.2c0,0.1-0.1,0.3-0.1,0.4c0-0.1,0.1-0.1,0.1-0.2c-0.1,0.1-0.1,0.3-0.2,0.4
				c0-0.1,0.1-0.1,0.1-0.2c-0.1,0.1-0.2,0.2-0.3,0.3c0.1,0,0.1-0.1,0.2-0.1c-0.1,0.1-0.2,0.1-0.3,0.2c0.1,0,0.1-0.1,0.2-0.1
				c-0.1,0-0.2,0.1-0.3,0.1c0.1,0,0.1,0,0.2,0c-0.1,0-0.2,0-0.3,0c0.1,0,0.2,0,0.2,0c-0.1,0-0.2,0-0.3-0.1c0.1,0,0.1,0.1,0.2,0.1
				c-0.1,0-0.2-0.1-0.3-0.2c0.1,0,0.1,0.1,0.2,0.1c-0.1-0.1-0.2-0.2-0.3-0.3c0,0.1,0.1,0.1,0.1,0.2c-0.1-0.1-0.1-0.2-0.1-0.2
				c0,0.1,0.1,0.1,0.1,0.2c0-0.1-0.1-0.2-0.1-0.3c0,0.1,0,0.1,0,0.2c0-0.1,0-0.3,0-0.4c0,0.1,0,0.1,0,0.2c0-0.2,0.1-0.3,0.1-0.5
				c0,0.1-0.1,0.1-0.1,0.2c0.1-0.2,0.2-0.3,0.3-0.4c0,0.1-0.1,0.1-0.1,0.2c0.1-0.1,0.2-0.2,0.3-0.3c-0.1,0-0.1,0.1-0.2,0.1
				c0.1-0.1,0.1-0.1,0.2-0.1c-0.1,0-0.1,0.1-0.2,0.1c0.1,0,0.2-0.1,0.2-0.1c-0.1,0-0.1,0-0.2,0c0.1,0,0.1,0,0.2,0
				c-0.1,0-0.1,0-0.2,0c0.1,0,0.1,0,0.2,0.1c-0.1,0-0.1-0.1-0.2-0.1c0.1,0,0.2,0.1,0.2,0.1l-0.1-0.1c0.1,0.1,0.2,0.2,0.3,0.2
				s0.3,0,0.4,0c-0.2,0-0.3,0-0.5-0.1l0,0c0.2,0.1,0.5,0.1,0.7,0C30.3,49,30.4,48.7,30.3,48.5L30.3,48.5z"/>
		</g>
	</g>
	<g>
		<g>
			<path class="st0" d="M31,37.2c0.2-1.2,0.9-2.2,1.4-3.2c0.6-1.1,0.9-2.2,1.4-3.3c0.5-1,1.1-2.3,2.1-2.8c0.9-0.4,1.9-0.1,2.8,0.3
				c4,2,5.9,6.2,9.3,8.7c1.7,1.3,4.5,1.9,5.7,3.6c0.3,0.5,0.8,1.7-0.1,1.7c-0.7,0-1.5-0.6-2-1c-1.9-1.5-4.2-2.5-5.9-4.2
				c-1.2-1.2-2.5-2.8-4.1-3.4c-1.6-0.6-2.5,0.8-3.4,2c-0.6,0.8-1.2,1.7-1.6,2.6c-0.3,0.5-0.7,1.2-0.6,1.8c0.1,1.1,1.8,1.1,1.7,0
				c0-0.4,0.6-1.3,0.9-1.7c0.5-0.9,1.1-1.7,1.7-2.5c0.5-0.6,0.5-0.7,1.2-0.2c0.9,0.6,1.7,1.4,2.4,2.2c0.5,0.6,1.1,1.1,1.7,1.6
				c1.3,1.1,2.9,1.8,4.3,2.8c1.2,0.9,2.9,2.4,4.6,1.8c1.9-0.7,1.4-3.4,0.4-4.6c-1.6-1.9-4.2-2.4-6.1-3.9s-3.2-3.6-4.9-5.2
				c-1.6-1.6-3.4-3.2-5.6-3.8c-2.5-0.8-4.4,0.7-5.5,2.9c-0.7,1.2-1,2.6-1.7,3.8c-0.7,1.3-1.5,2.5-1.6,3.9C29.6,37.8,30.9,38,31,37.2
				L31,37.2z"/>
		</g>
	</g>
	<g>
		<g>
			<path class="st0" d="M38.1,56.8c0.2,1.9,1.3,4.3,3.6,3.4c2.2-0.8,3.2-3.3,3.8-5.4c0.7-2.7,1.2-5.5,1.4-8.3
				c0.1-1.8,0.3-3.8-1.4-4.9c-2.1-1.4-5.2-1-7.6-0.7c-1.1,0.1-1.1,1.8,0,1.8c1.1-0.1,2.3-0.2,3.4-0.2c1.1,0,2.3,0,3.3,0.6
				c0.7,0.4,0.7,1.1,0.7,1.8c0,1.3-0.1,2.6-0.3,3.8c-0.2,1.4-0.5,2.8-0.8,4.2c-0.3,1.1-0.5,2.2-1,3.2c-0.4,0.9-1.2,2.3-2.3,2.5
				c-1,0.1-1.3-1.4-1.4-2.1C39.4,55.8,38,56,38.1,56.8L38.1,56.8z"/>
		</g>
	</g>
	<g>
		<g>
			<path class="st0" d="M46,18.2c-0.7-1-2.3-1.2-3.5-1c-1.1,0.2-2.1,0.8-2.8,1.6c-1.5,1.8-1.6,4.6,0,6.4c1.2,1.5,3.4,2,5.2,1.5
				c1.9-0.5,3.3-2.3,3.1-4.3c-0.1-1.1-0.4-2.2-1-3.2c-0.6-0.9-1.6-1.7-2.7-1.3c-0.4,0.2-0.7,0.6-0.6,1s0.6,0.7,1,0.6h0.1
				c0,0-0.2,0-0.1,0s0.1,0,0.2,0c-0.2,0,0,0,0,0c-0.2,0,0,0,0.1,0c0,0,0,0,0.1,0c0.1,0.1-0.1-0.1,0,0s0.1,0.1,0.2,0.2
				c0,0,0.2,0.2,0.1,0.1c-0.1-0.1,0,0,0,0c0,0.1,0.1,0.1,0.1,0.2c0.1,0.2,0.2,0.3,0.3,0.5c0,0,0.1,0.2,0,0.1c0,0.1,0.1,0.2,0.1,0.3
				c0.1,0.4,0.2,0.7,0.3,1.1c0,0.1,0,0.1,0,0.2c0,0,0-0.1,0,0s0,0.2,0,0.3c0,0.2,0,0.4,0,0.5v0.1c0,0.1,0-0.2,0-0.1
				c0,0.1,0,0.1,0,0.2c0,0.1,0,0.1-0.1,0.2c-0.1,0.1,0-0.1,0,0c0,0,0,0.1-0.1,0.1c-0.2,0.4-0.3,0.5-0.6,0.8c0,0-0.2,0.2-0.1,0.1
				c-0.1,0.1-0.1,0.1-0.2,0.1c-0.2,0.1-0.3,0.2-0.5,0.3c0.2-0.1-0.1,0-0.1,0c-0.1,0-0.2,0-0.2,0.1c-0.1,0-0.2,0-0.2,0.1H44
				c-0.1,0,0.1,0,0,0c-0.2,0-0.3,0-0.5,0c-0.1,0-0.2,0-0.3,0h-0.1c-0.1,0,0.2,0,0,0c-0.2,0-0.3-0.1-0.5-0.1c-0.1,0-0.2-0.1-0.2-0.1
				h-0.1c-0.2-0.1,0.1,0,0,0c-0.2-0.1-0.3-0.2-0.5-0.2c-0.1,0-0.1-0.1-0.2-0.1c-0.1-0.1,0,0,0,0l-0.1-0.1c-0.1-0.1-0.3-0.3-0.4-0.4
				c-0.1-0.1,0,0-0.1-0.1s-0.1-0.2-0.2-0.3c-0.2-0.4-0.3-0.5-0.4-1c-0.2-0.8,0-1.7,0.4-2.4c0.4-0.8,1.1-1.3,1.9-1.5
				c0.1,0,0.2-0.1,0.3-0.1s-0.1,0,0,0s0.1,0,0.2,0s0.3,0,0.4,0c0,0,0.3,0,0.2,0c0.6,0.1,1.1,0.3,1.7,0.4
				C45.9,19.3,46.3,18.6,46,18.2L46,18.2z"/>
		</g>
	</g>
	<g>
		<g>
			<path class="st0" d="M64.3,57.4c0-0.1-0.1-0.2-0.1-0.3S64,56.8,64.1,57c0-0.1-0.1-0.1-0.1-0.2l-0.1-0.1c-0.1-0.1-0.2-0.2-0.3-0.2
				l0.1,0.1c-0.1,0-0.1-0.1-0.2-0.1c0,0-0.1,0-0.1-0.1c0,0-0.1-0.1-0.2-0.1c-0.2-0.1-0.3-0.1-0.5-0.2c-0.6-0.2-1.1-0.2-1.7-0.1
				s-1.1,0.5-1.5,1s-0.5,1.2-0.4,1.8c0.1,0.7,0.3,1.4,0.8,1.9c0.4,0.4,1,0.6,1.5,0.7c1,0.1,2-0.5,2.7-1.3c0.4-0.5,0.7-1.1,0.8-1.7
				c0-0.3,0-0.6-0.1-0.8c0-0.2-0.1-0.3-0.2-0.5c0-0.1-0.1-0.1-0.1-0.2c0,0-0.3-0.3,0-0.1c-0.1-0.1-0.1-0.2-0.2-0.2
				c-0.3-0.3-0.8-0.3-1.1-0.1c-0.3,0.2-0.5,0.7-0.2,1.1c0.1,0.1,0.1,0.2,0.2,0.3c0,0,0,0.1,0.1,0.1c0.1,0.1-0.1-0.2,0-0.1V58
				c0,0.1,0,0.2,0.1,0.2c-0.1-0.3,0-0.2,0-0.1v0.1v0.1c0-0.3,0-0.2,0-0.1s0,0.2-0.1,0.3c-0.1,0.2,0.1-0.2,0-0.1c0,0,0,0.1-0.1,0.1
				c0,0.1-0.1,0.2-0.2,0.2c0,0,0,0.1-0.1,0.1c0.2-0.3,0.1-0.1,0,0s-0.1,0.1-0.2,0.2s-0.1,0.1-0.2,0.2c0,0,0.2-0.1,0.1-0.1
				c0,0,0,0-0.1,0l-0.1,0.1c-0.1,0.1-0.2,0.1-0.2,0.1s-0.1,0-0.1,0.1c-0.1,0.1,0.2-0.1,0,0c-0.1,0-0.2,0.1-0.2,0.1h-0.1
				c-0.1,0-0.3,0,0,0c-0.1,0-0.2,0-0.2,0h-0.1c-0.2,0,0.2,0,0.1,0s-0.1,0-0.2-0.1c-0.1,0,0.2,0.1,0.1,0l0,0c0,0-0.1,0-0.1-0.1l0,0
				c-0.1-0.1,0.2,0.1,0.1,0.1l-0.1-0.1l-0.1-0.1c-0.1-0.1,0.1,0.1,0.1,0.1s0-0.1-0.1-0.1c0-0.1-0.1-0.2-0.1-0.3c0,0,0.1,0.2,0,0.1
				c0,0,0,0,0-0.1s0-0.1-0.1-0.2c0-0.1,0-0.1,0-0.2s0-0.3,0,0c0-0.1,0-0.3,0-0.4v-0.2c0,0,0,0.2,0,0.1c0,0,0,0,0-0.1s0-0.1,0-0.2
				v-0.1c0-0.1-0.1,0.2,0,0.1c0-0.1,0.1-0.2,0.1-0.2c0.1-0.1-0.1,0.2-0.1,0.1c0,0,0,0,0.1-0.1l0.1-0.1c0.1-0.1-0.2,0.1-0.1,0
				l0.1-0.1c0,0,0.1,0,0.1-0.1c0.2-0.1-0.2,0.1,0,0c0.1,0,0.2-0.1,0.3-0.1h0.1c0.1,0-0.2,0-0.1,0s0.1,0,0.2,0s0.2,0,0.3,0
				c0.1,0,0.1,0,0.2,0c0,0,0,0,0.1,0s0.1,0.1-0.1,0c0.1,0,0.2,0.1,0.3,0.1c0.1,0,0.1,0,0.2,0.1c0.1,0-0.1,0-0.1,0
				c0.1,0,0.2,0.1,0.2,0.1c0.2,0.1-0.2-0.1,0,0c0.1,0,0.1,0.1,0.2,0.1s-0.1,0-0.1,0h0.1c0.1,0,0.1,0.1,0.2,0.1c-0.1,0-0.1-0.1-0.1,0
				c0,0,0.2,0.1,0.3,0.1C64,58.3,64.5,57.9,64.3,57.4L64.3,57.4z"/>
		</g>
	</g>
</g>
</svg>
