<?xml version="1.0" encoding="utf-8"?>
<!-- Generator: Adobe Illustrator 24.3.0, SVG Export Plug-In . SVG Version: 6.00 Build 0)  -->
<svg version="1.1" id="Calque_1" xmlns="http://www.w3.org/2000/svg" xmlns:xlink="http://www.w3.org/1999/xlink" x="0px" y="0px"
	 viewBox="0 0 80 80" style="enable-background:new 0 0 80 80;" xml:space="preserve">
<style type="text/css">
	.st0{fill:#91D902;}
</style>
<g>
	<g>
		<g>
			<path class="st0" d="M25.9,35.6c2.4,0.1,4.8,0,7.3,0.1c2.7,0.1,5.4,0,8.2-0.1c2.7-0.1,5.3-0.2,8-0.2c1.1,0,8-0.1,5.8,2.5
				c-1.3,1.5-4,1.1-5.7,1.1c-2.7,0-5.3,0-8,0.1c-2.7,0.1-5.4,0-8.1,0c-1.4,0-2.8,0-4.2-0.1c-1,0-2.2,0.1-3.1-0.3
				c-1.5-0.6-1.8-2.7,0.1-3c0.9-0.1,0.7-1.6-0.2-1.6c-2.4,0.2-3.6,2.6-2.3,4.6c1.2,1.9,3.5,1.8,5.5,1.8c3.5,0.1,7,0.2,10.4,0.2
				c2.7,0,5.4-0.1,8.1-0.1c2.3,0,5,0.4,7.2-0.6c1.9-0.9,3.2-3.2,1.4-4.9c-0.7-0.7-1.7-1-2.7-1.1c-1.8-0.1-3.5-0.1-5.2-0.1
				c-3.8,0-7.6,0.3-11.4,0.3c-2,0-3.9-0.1-5.9-0.1c-1.8,0-3.5,0.1-5.3,0.2C25,34.3,25,35.6,25.9,35.6z"/>
		</g>
	</g>
	<g>
		<g>
			<path class="st0" d="M25.9,58.7c2.4,0.1,4.8,0,7.3,0.1c2.7,0.1,5.4,0,8.2-0.1c2.7-0.1,5.3-0.2,8-0.2c1.1,0,8-0.1,5.8,2.5
				c-1.3,1.5-4,1.1-5.7,1.1c-2.7,0-5.3,0-8,0.1c-2.7,0.1-5.4,0-8.1,0c-1.4,0-2.8,0-4.2-0.1c-1,0-2.2,0.1-3.1-0.3
				c-1.5-0.6-1.8-2.7,0.1-3c0.9-0.1,0.7-1.6-0.2-1.6c-2.4,0.2-3.6,2.6-2.3,4.6c1.2,1.9,3.5,1.8,5.5,1.8c3.5,0.1,7,0.2,10.4,0.2
				c2.7,0,5.4-0.1,8.1-0.1c2.3,0,5,0.4,7.2-0.6c1.9-0.9,3.2-3.2,1.4-4.9c-0.7-0.7-1.7-1-2.7-1.1c-1.7-0.2-3.5-0.2-5.2-0.2
				c-3.8,0-7.6,0.3-11.4,0.3c-2,0-3.9-0.1-5.9-0.1c-1.8,0-3.5,0.1-5.3,0.2C25,57.4,25,58.7,25.9,58.7z"/>
		</g>
	</g>
	<g>
		<g>
			<path class="st0" d="M25.4,40.1C25.4,39.9,25.4,40.1,25.4,40.1c0,0.3,0,0.5,0,0.7c0,0.6,0,1.2-0.1,1.7c0,1.6-0.1,3.3-0.1,4.9
				s-0.1,3.3-0.1,4.9c0,1.8-0.2,3.7,0.3,5.5c0.2,1,1.8,0.6,1.6-0.4c-0.5-1.7-0.3-3.6-0.2-5.4c0-1.7,0.1-3.3,0.1-5c0-1.6,0-3.2,0-4.8
				c0-0.7,0.2-1.8-0.2-2.5C26.3,39.3,25.4,39.5,25.4,40.1L25.4,40.1z"/>
		</g>
	</g>
	<g>
		<g>
			<path class="st0" d="M53.4,40c-0.3,1.5-0.3,3.1-0.2,4.6c0.1,1.6-0.1,3.2-0.1,4.8s0.2,3.2,0.1,4.8c0,0.7-0.2,1.5-0.2,2.2
				c0,0.2,0,0.4,0,0.7c0,0.1-0.1,0.7,0,0.5c-0.6,0.9,0.8,1.7,1.4,0.8c0.2-0.4,0.2-0.9,0.2-1.3c0-0.6,0-1.3,0.1-1.9
				c0.2-1.8,0-3.5,0-5.3s0.2-3.5,0.1-5.3c-0.1-0.9-0.1-1.7-0.1-2.6c0-0.7,0.1-1.4-0.2-2.1C54.3,39.4,53.5,39.5,53.4,40L53.4,40z"/>
		</g>
	</g>
	<g>
		<g>
			<path class="st0" d="M27.2,57.2c0.4-1.4,0.7-2.9,0.9-4.4s0.6-3,1.1-4.5c0.4-1.5,0.8-2.9,1.3-4.3c0.4-1,0.5-2.3,1.3-3.2
				c0.7-0.8-0.5-2-1.2-1.2c-0.8,1-1.1,2.1-1.4,3.3c-0.5,1.5-0.9,3-1.3,4.5c-0.4,1.6-0.9,3.3-1.2,4.9c-0.2,1.5-0.7,3-0.8,4.6
				C25.8,57.8,27,58,27.2,57.2L27.2,57.2z"/>
		</g>
	</g>
	<g>
		<g>
			<path class="st0" d="M35.8,57.9c0.6-1.5,0.9-3.3,1.3-4.9c0.3-1.5,0.6-3,1-4.5s0.9-2.9,1.3-4.3c0.2-0.7,0.4-1.3,0.7-2
				c0.2-0.6,0.3-1.2,0.6-1.7c0.6-0.9-0.8-1.7-1.4-0.8c-0.6,1-0.9,2.4-1.2,3.5c-0.5,1.6-1,3.2-1.4,4.8c-0.5,1.6-0.7,3.2-1,4.8
				c-0.3,1.7-0.9,3.3-1,5C34.5,58.5,35.6,58.5,35.8,57.9L35.8,57.9z"/>
		</g>
	</g>
	<g>
		<g>
			<path class="st0" d="M45.3,57.7c0.3-1.5,0.8-3,1.2-4.4c0.4-1.5,0.7-3,1-4.5c0.4-1.5,0.8-3,1.2-4.6c0.4-1.3,0.5-2.5,1.2-3.7
				c0.5-0.9-0.8-1.7-1.4-0.8c-0.7,1.1-0.9,2.5-1.3,3.8c-0.4,1.5-0.8,3-1.2,4.5c-0.3,1.5-0.6,3-1,4.5c-0.4,1.6-1,3.1-1.2,4.8
				C43.7,58.2,45.1,58.6,45.3,57.7L45.3,57.7z"/>
		</g>
	</g>
	<g>
		<g>
			<path class="st0" d="M48.8,40.7c-0.1,1.3,0.6,2.7,0.9,3.9c0.4,1.5,0.6,3,0.8,4.5c0.5,2.9,1.4,5.6,1.8,8.5c0.2,1,1.8,0.6,1.6-0.4
				c-0.5-2.8-1.3-5.5-1.8-8.3s-1-5.6-2-8.3C49.8,39.9,48.9,40,48.8,40.7L48.8,40.7z"/>
		</g>
	</g>
	<g>
		<g>
			<path class="st0" d="M39.2,40.5c-0.3,1.2,0.5,2.3,0.8,3.4c0.4,1.5,0.7,3,1,4.6s0.6,3.2,1,4.9c0.4,1.6,0.7,3.2,1.2,4.7
				c0.3,1,1.9,0.6,1.6-0.4c-0.5-1.5-0.8-3.2-1.2-4.7c-0.4-1.5-0.7-3-1-4.5c-0.3-1.4-0.6-2.9-0.9-4.3c-0.3-1.2-1.1-2.3-1.3-3.5
				C40.4,39.9,39.4,39.9,39.2,40.5L39.2,40.5z"/>
		</g>
	</g>
	<g>
		<g>
			<path class="st0" d="M30.6,40.7c-0.1,0.7,0.1,1.3,0.3,2s0.2,1.4,0.3,2.1c0.3,1.4,0.9,2.8,1.2,4.2c0.4,1.5,0.7,2.9,1,4.4
				c0.3,1.6,0.8,3.1,1.1,4.7c0.2,1,1.7,0.6,1.6-0.4c-0.3-1.5-0.7-2.9-1.1-4.4c-0.3-1.5-0.6-3-1-4.5c-0.3-1.4-0.9-2.8-1.2-4.2
				c-0.2-0.7-0.2-1.3-0.4-2c-0.2-0.7-0.5-1.3-0.7-2C31.6,39.8,30.7,40,30.6,40.7L30.6,40.7z"/>
		</g>
	</g>
	<g>
		<g>
			<path class="st0" d="M40.3,20c0.1-0.7-0.2-1.4-0.8-1.9c-0.4-0.3-1-0.4-1.6-0.4c-1.1,0-2.3,0.6-2.9,1.6c-0.7,1.2-0.4,2.9,0.6,3.9
				c0.5,0.5,1.2,0.8,1.9,0.9c0.8,0.1,1.5-0.2,2.1-0.7c1.2-0.9,1.8-3.4,0.3-4.4c-0.3-0.2-0.8-0.1-1.1,0.2s-0.2,0.8,0.1,1.1
				c0.1,0.1,0-0.1,0-0.1c0,0.1,0.1,0.1,0.2,0.2c0,0-0.1-0.2-0.1-0.1c0,0,0,0,0,0.1c0,0,0,0,0,0.1c0.1,0.1,0-0.1,0-0.1
				c0,0.1,0,0.1,0.1,0.2v0.1c0,0.1,0,0.1,0-0.1c0,0,0,0.1,0,0.2c0,0.1,0,0.1,0,0.2v0.1c0-0.1,0-0.2,0-0.1c0,0.1-0.1,0.2-0.1,0.3
				s0,0.1-0.1,0.2c0,0.1,0-0.1,0-0.1s0,0.1-0.1,0.1c-0.1,0.1-0.1,0.2-0.2,0.3c0,0-0.2,0.2-0.1,0.1c0.1-0.1,0,0-0.1,0.1l-0.1,0.1
				c-0.1,0.1,0.1-0.1,0,0s-0.2,0.1-0.3,0.2c-0.1,0.1,0.2-0.1,0.1,0c0,0,0,0-0.1,0s-0.1,0-0.2,0.1c0,0-0.2,0-0.1,0c0.2,0-0.1,0-0.1,0
				c-0.1,0-0.1,0-0.2,0c-0.2,0,0.2,0,0,0c-0.1,0-0.2-0.1-0.3-0.1c0,0,0,0-0.1,0s0.2,0.1,0.1,0c0,0-0.1,0-0.1-0.1
				c-0.1,0-0.1-0.1-0.2-0.1c0,0,0,0-0.1,0c-0.1-0.1,0,0,0,0c-0.1-0.1-0.2-0.1-0.2-0.2l-0.1-0.1c0,0-0.1-0.1,0,0s0,0,0,0
				c-0.1-0.1-0.1-0.2-0.2-0.3c0,0,0,0,0-0.1c-0.1-0.1,0,0.1,0,0.1c0-0.1,0-0.1-0.1-0.2c0-0.1,0-0.1,0-0.2c0,0,0-0.2,0-0.1
				c0,0.2,0,0,0-0.1s0-0.1,0-0.2c0-0.1,0-0.1,0-0.2c0,0,0,0.2,0,0.1c0,0,0,0,0-0.1s0-0.1,0-0.2v-0.1c0,0,0.1-0.2,0,0
				c-0.1,0.1,0,0,0-0.1c0,0,0-0.1,0.1-0.1l0.1-0.1c-0.1,0.2-0.1,0.1-0.1,0.1s0,0,0.1-0.1s0.1-0.1,0.2-0.2l0,0
				c0.1-0.1-0.2,0.1-0.1,0.1l0.1-0.1c0.1-0.1,0.2-0.1,0.3-0.1c0,0,0.1,0,0.1-0.1c0.2-0.1-0.2,0.1,0,0s0.4-0.1,0.6-0.2
				c0.2,0-0.2,0,0,0c0.1,0,0.1,0,0.2,0c0.1,0,0.2,0,0.3,0s-0.2,0,0,0h0.1c0.1,0,0.1,0,0.2,0c0.2,0-0.2-0.1,0,0
				c0.1,0,0.2,0.1,0.3,0.1c-0.1,0-0.1-0.1-0.1-0.1s0,0,0.1,0.1l0.1,0.1c0.1,0.1-0.1-0.2-0.1-0.1c0,0,0,0,0.1,0.1l0.1,0.1
				c0.1,0.1,0.1,0.2,0.2,0.3c0.1,0.2,0.4,0.4,0.7,0.3C40,20.5,40.2,20.3,40.3,20L40.3,20z"/>
		</g>
	</g>
	<g>
		<g>
			<path class="st0" d="M40.1,21.1c1.6,0.1,3.2-0.5,4.7-0.9c1.7-0.4,3.5-0.4,5.2-0.7c1.7-0.2,3.4-0.6,5.1-0.9
				c0.6-0.1,1.3-0.3,1.9-0.4c0.3-0.1,0.8-0.3,1.2-0.3c-0.2-0.1-0.4-0.2-0.6-0.2l0,0c0.8,0.6,2-0.5,1.2-1.2c-0.7-0.6-1.8,0-2.5,0.2
				c-1.8,0.5-3.6,0.8-5.4,1c-3.6,0.6-7.3,0.8-10.8,2C39.2,20,39.3,21,40.1,21.1L40.1,21.1z"/>
		</g>
	</g>
	<g>
		<g>
			<path class="st0" d="M44.3,25.5c-0.2-0.3-0.3-0.6-0.6-0.8c-0.3-0.3-0.7-0.4-1.2-0.4c-0.6-0.1-1.2,0.2-1.7,0.5
				c-1.1,0.8-1.6,2.2-1.4,3.6c0.1,0.6,0.4,1.1,0.8,1.5c0.6,0.4,1.2,0.6,1.9,0.7c1.4,0.1,2.9-0.7,3.4-2.1c0.4-1.3-0.2-3.1-1.6-3.4
				c-0.4-0.1-0.9,0.1-1,0.6s0.1,0.9,0.6,1c0.1,0,0.1,0.1,0,0c0,0,0.1,0,0.1,0.1c0,0,0.1,0,0.1,0.1c0.1,0.1,0.1,0.1,0,0
				c0,0.1,0.1,0.1,0.2,0.2c-0.2-0.1-0.1-0.1,0,0c0,0.1,0.1,0.1,0.1,0.2c0.1,0.2-0.1-0.2,0,0v0.1v0.1c0,0.1,0,0.2,0,0
				c0,0.1,0,0.2,0,0.3v0.1c0,0.2,0-0.2,0,0c0,0.1,0,0.2-0.1,0.3c0,0.1-0.1,0.1,0,0c0,0,0,0.1-0.1,0.1c0,0,0,0.1-0.1,0.1
				c-0.1,0.1,0.1-0.2,0,0c-0.1,0.1-0.2,0.2-0.3,0.3c0.2-0.1,0,0,0,0c-0.1,0-0.1,0.1-0.2,0.1c0,0-0.1,0.1-0.2,0.1c0,0,0.2-0.1,0,0
				c-0.1,0-0.2,0.1-0.3,0.1s-0.1,0-0.2,0s-0.1,0,0,0h-0.1c-0.1,0-0.2,0-0.4,0h-0.2h0.1h-0.1c-0.1,0-0.2,0-0.3-0.1
				c-0.1,0-0.1,0-0.1-0.1c-0.1,0,0.2,0.1,0,0c0,0-0.1,0-0.1-0.1c-0.1,0-0.1-0.1,0,0c-0.1-0.1-0.1-0.1-0.2-0.2c-0.1-0.1,0.1,0.2,0,0
				c0,0,0-0.1-0.1-0.1c0,0,0-0.1-0.1-0.1c0.1,0.2,0,0.1,0,0s0-0.2-0.1-0.3c0.1,0.2,0,0.1,0,0s0-0.1,0-0.2c0-0.1,0-0.2,0-0.3v-0.1
				c0,0.1,0,0.2,0,0.1v-0.1c0-0.1,0.1-0.2,0.1-0.3c0.1-0.2-0.1,0.2,0,0c0,0,0-0.1,0.1-0.1c0.1-0.1,0.1-0.2,0.2-0.3c0.1-0.2,0,0,0,0
				s0.1-0.1,0.1-0.2c0.1-0.1,0.2-0.2,0.3-0.2c0,0-0.1,0-0.1,0.1c0,0,0.1,0,0.1-0.1c0.1,0,0.1-0.1,0.2-0.1c0,0,0.1,0,0.1-0.1
				c-0.1,0.1-0.1,0.1-0.1,0h0.1H42c0.1,0-0.2,0,0,0h0.1c0.2,0-0.1,0,0,0h0.1c0.2,0.1-0.1-0.1,0,0s0.2,0.1,0.3,0.1
				c-0.2-0.1,0,0,0,0.1c0.1,0,0.1,0.1,0.1,0.1s0.1,0,0.1,0.1c-0.1,0-0.1,0,0,0C43.8,26.8,44.7,26.2,44.3,25.5L44.3,25.5z"/>
		</g>
	</g>
	<g>
		<g>
			<path class="st0" d="M21.3,24.6c1.6,0.4,3.4,0.7,5.1,0.9c1.9,0.2,3.8,0.5,5.7,0.8c1.6,0.2,3.2,0.5,4.8,0.6
				c0.7,0.1,2.3-0.1,2.7,0.4c0.6,0.7,1.8-0.2,1.3-1c-0.6-0.9-2-0.9-2.9-1c-1.6-0.1-3.3-0.4-4.9-0.6c-2-0.3-4-0.7-5.9-0.9
				C26,23.9,25,23.7,24,23.5c-0.9-0.2-1.7-0.3-2.6-0.2C20.7,23.5,20.7,24.5,21.3,24.6L21.3,24.6z"/>
		</g>
	</g>
</g>
</svg>
