<?xml version="1.0" encoding="utf-8"?>
<!-- Generator: Adobe Illustrator 24.3.0, SVG Export Plug-In . SVG Version: 6.00 Build 0)  -->
<svg version="1.1" id="Calque_1" xmlns="http://www.w3.org/2000/svg" xmlns:xlink="http://www.w3.org/1999/xlink" x="0px" y="0px"
	 viewBox="0 0 80 80" style="enable-background:new 0 0 80 80;" xml:space="preserve">
<style type="text/css">
	.st0{fill:#91D902;}
</style>
<g>
	<g>
		<g>
			<path class="st0" d="M32,42.9c1.2-1.7,1-3.6-0.8-4.8c-1.6-1.1-3.4-0.9-4.7,0.5c-2.4,2.5-1.9,6.5,0.8,8.6c3.1,2.4,7.4,1.3,9.5-1.8
				c2-3,1.4-7.4-1.3-9.8c-2.9-2.5-6.8-2.5-10.1-1c-3.5,1.6-5.8,4.5-5.3,8.4c0.4,3.8,2.3,7.4,5.4,9.8c3.2,2.4,7.2,3.1,11,3.4
				c4.2,0.3,8.4,0.1,12.6,0c2.1-0.1,4.2-0.2,6.4-0.3c1.6-0.1,3.2-0.1,4.8-0.3c1.3-0.1,2.7,0,4-0.4c1.1-0.3,0.6-2.1-0.5-1.7
				c-0.9,0.2-1.9,0.2-2.8,0.3c-1,0.1-2.1,0.1-3.1,0.2c-1.8,0.1-3.6,0.2-5.4,0.3c-2.3,0.1-4.5,0.1-6.8,0.2c-6,0.1-13.3,0.8-18.5-2.6
				c-2.6-1.7-4.3-4.3-5-7.3c-0.4-1.4-0.6-3-0.2-4.4c0.5-1.4,1.7-2.5,2.9-3.3c2.5-1.6,5.7-2.2,8.4-0.7c2.7,1.5,3.8,5,2.4,7.7
				c-1.7,3.2-6.3,4-8.4,0.8c-0.8-1.3-0.9-3,0-4.3c0.6-0.8,1.4-1.5,2.4-1.2c1.5,0.5,1.8,1.7,1,2.9C30,43,31.4,43.7,32,42.9L32,42.9z"
				/>
		</g>
	</g>
	<g>
		<g>
			<path class="st0" d="M26.8,28c1,0.7,2.7,0.5,3.8,0.5c1.6,0,3.3-0.1,4.9-0.1c1.2,0,2.3,0,3.5,0c1,0,1.6-0.1,2.3,0.7
				c0.4,0.4,0.7,0.8,1.1,1.2c0.6,0.7,1.3,1.3,1.9,2c4.5,5,8.9,10.2,13.3,15.4c0.8,0.9,1.6,1.9,2.3,2.8c0.2,0.2,0.4,0.6,0.6,0.9
				c0.4,0.6,0.8,1.3,1.3,1.9c0.4,0.5,1,0.9,1.3,1.5c0.5,1,1.9,0.1,1.5-0.9c-0.5-1.1-1.5-1.7-2.1-2.7c-0.3-0.5-0.6-1-1-1.5
				c-0.6-0.8-1.2-1.5-1.9-2.3c-2.2-2.6-4.4-5.2-6.6-7.8c-2.3-2.7-4.6-5.3-6.9-7.9c-0.7-0.8-1.4-1.6-2.2-2.4c-0.5-0.5-0.9-1-1.4-1.5
				c-1-1.1-2-1.2-3.5-1.2c-2.1,0-4.3,0.1-6.4,0.1c-1,0-2,0-3,0c-0.6,0-1.6,0.1-2-0.2C26.7,26.3,26,27.5,26.8,28L26.8,28z"/>
		</g>
	</g>
	<g>
		<g>
			<path class="st0" d="M21.5,43.7c-0.4-3.3-1.8-6.5-3-9.5c-0.4-0.9-0.7-1.8-1.1-2.6c-0.3-0.7-0.6-1.4-0.7-2.1
				c-0.1-1.2,0.8-2.1,1.8-2.7c1.2-0.7,2.7-1.2,4-1.4c1.8-0.2,2.7,0.7,3.6,2c2,2.9,4.4,5.4,6.5,8.1c0.3-0.4,0.5-0.9,0.8-1.3
				c-0.1,0-0.2,0-0.3,0c-1.1,0.1-1.1,1.7,0,1.7c0.1,0,0.2,0,0.3,0c0.6,0,1.2-0.8,0.8-1.3c-1.8-2.6-4.2-4.8-6-7.3
				c-0.7-1-1.3-2.1-2.4-2.9c-1.1-0.8-2.5-0.9-3.8-0.7c-2.1,0.4-4.8,1.3-6.1,3c-1.7,2.2-0.3,4.8,0.6,7c1.3,3.2,2.8,6.6,3.5,10.1
				C20.2,44.7,21.6,44.6,21.5,43.7L21.5,43.7z"/>
		</g>
	</g>
</g>
</svg>
