<?xml version="1.0" encoding="utf-8"?>
<!-- Generator: Adobe Illustrator 24.3.0, SVG Export Plug-In . SVG Version: 6.00 Build 0)  -->
<svg version="1.1" id="Calque_1" xmlns="http://www.w3.org/2000/svg" xmlns:xlink="http://www.w3.org/1999/xlink" x="0px" y="0px"
	 viewBox="0 0 80 80" style="enable-background:new 0 0 80 80;" xml:space="preserve">
<style type="text/css">
	.st0{fill:#91D902;}
</style>
<g>
	<g>
		<g>
			<path class="st0" d="M45.4,55.5c-1.2-0.5-2.4-1.2-3.8-1.2c-1.4,0-2.7,0.6-3.8,1.4c-1.8,1.5-2.5,4-1.5,6.2
				c1.5,3.3,6.6,4.4,9.1,1.6c0.9-1.1,1.4-2.5,1.3-4c0-0.8-0.2-1.7-0.7-2.4c-0.4-0.6-0.8-1.1-1.2-1.7c-0.2-0.3-0.7-0.5-1-0.3
				c-0.4,0.2-0.6,0.6-0.5,1c0.4,1,1.3,1.7,1.5,2.8c0.2,1,0.1,2.2-0.5,3.1c-0.3,0.5-0.8,0.9-1.4,1.2c0.2-0.1-0.1,0-0.1,0
				c-0.1,0-0.2,0.1-0.2,0.1c-0.1,0-0.3,0.1-0.4,0.1c0,0-0.3,0-0.1,0c-0.1,0-0.2,0-0.3,0c-0.2,0-0.4,0-0.6,0c-0.5,0-1.3-0.2-1.8-0.5
				c-0.3-0.2-0.6-0.4-0.7-0.5c-0.3-0.3-0.5-0.5-0.6-0.7c-0.4-0.6-0.5-1.1-0.6-1.7c0-0.9,0.3-1.7,0.9-2.4c0.7-0.8,1.8-1.4,2.9-1.5
				c1.2-0.1,2.4,0.6,3.5,0.9C45.6,57.1,46.2,55.9,45.4,55.5L45.4,55.5z"/>
		</g>
	</g>
	<g>
		<g>
			<path class="st0" d="M40.6,64c0.2-0.4,0.2-1,0.2-1.4s0.1-0.7,0.2-1.1c0.1-0.4,0.2-0.7,0.4-1c0.1-0.2,0.2-0.3,0.3-0.4
				s0.1-0.1,0.2-0.2c0.1-0.1-0.1,0,0.1-0.1c0.1-0.1,0.3-0.2,0.4-0.2c0.2-0.1,0.2-0.1,0.4-0.2c0.3-0.1,0.7-0.2,1-0.3
				c0.6-0.2,1.8-0.6,2-1.4c0.1-0.6-0.3-1.1-1-1c-0.1,0-0.3,0.1-0.4,0.2c-0.2,0.1-0.2,0.2-0.1,0.1c0.1,0,0,0,0,0
				c-0.1,0.1-0.3,0.2-0.4,0.2c-0.2,0.1,0.1,0-0.1,0c-0.1,0-0.2,0.1-0.3,0.1c-0.2,0.1-0.4,0.1-0.6,0.2c-0.8,0.3-1.6,0.6-2.2,1.1
				c-0.7,0.6-1.1,1.5-1.3,2.4c-0.1,0.5-0.2,1-0.2,1.5s-0.1,1.1,0.1,1.5C39.6,64.5,40.4,64.5,40.6,64L40.6,64z"/>
		</g>
	</g>
	<g>
		<g>
			<path class="st0" d="M59,24.2c0.7-0.6,1.5-1.1,1.5-2.1c0-1.1-0.9-2.1-1.6-2.8c-0.6-0.6-1.5-1.1-2.5-0.9s-1.6,1.2-2.2,1.9
				c-0.8,1-1.8,1.9-2.6,2.9c-1.1,1.2-2.1,2.5-3.2,3.7c-2.1,2.3-4.2,4.6-6.3,6.9c-2.1,2.4-4,5.1-6,7.6c-2.1,2.6-4.2,5.2-6.3,7.8
				c-0.9,1.1-1.8,2.2-2.6,3.3c-0.7,0.9-1.4,2-2.4,2.6c-1.1,0.6-1.5-0.1-1.5-1.2c0-1,0.5-1.9,0.7-2.8c0.4-2.1-2-3.9-3.9-3.5
				c-1.7,0.4-2.7,2.1-3.2,3.6c-1.1,3.7,0.1,8.2,3.9,9.8c4.6,2,8.5-2.1,11.3-5.2c2.5-2.8,4.9-5.5,7.3-8.4c2.6-3.1,5.1-6.3,7.7-9.4
				c1.5-1.9,3.2-3.7,4.8-5.5C54.4,29.9,56.5,26.8,59,24.2c0.9-0.7-0.3-1.9-1.2-1.2c-2.1,2-3.7,4.4-5.6,6.5c-1.6,1.9-3.4,3.7-5,5.6
				c-2.2,2.6-4.3,5.2-6.4,7.8c-3.8,4.7-7.7,9.5-12,13.8c-1.7,1.7-4.2,3.6-6.8,2.8c-2.1-0.6-3.1-2.1-3.5-4.1c-0.3-1.6-0.3-3.5,0.6-5
				c0.4-0.7,1.1-1.3,2-1.1c0.8,0.2,1.3,0.8,1.2,1.5c-0.1,0.4-0.3,0.9-0.4,1.3c-0.3,1.3-0.5,3.1,0.4,4.1c1.2,1.4,3.1,0.6,4.3-0.4
				c1.6-1.4,2.8-3.4,4.2-5.1c1.9-2.4,3.8-4.7,5.7-7c2-2.5,4-5.2,6-7.7c2-2.4,4.1-4.6,6.2-7c2.1-2.3,4.1-4.6,6.1-6.9
				c0.5-0.6,1.2-2.1,2-2.2c0.5-0.1,1.3,0.9,1.5,1.3c0.6,0.9,0.1,1.1-0.6,1.8C57.3,23.8,58.3,24.8,59,24.2z"/>
		</g>
	</g>
	<g>
		<g>
			<path class="st0" d="M57.5,17.7c-0.1,0-0.2-0.1-0.3-0.1c-0.1-0.1-0.1-0.1,0,0c-0.1-0.1-0.1-0.1,0,0c0,0.3-0.1,0.7-0.1,1
				c0.3-0.3,0.5-0.6,0.8-0.8c0.1-0.2,0.3-0.3,0.4-0.5c0.1-0.1,0.1-0.1,0.2-0.2c0,0,0.3-0.2,0.1-0.1c0.1,0,0.1-0.1,0.2-0.1
				c0,0,0.2-0.1,0.1,0c-0.1,0,0,0,0,0s0.2,0,0,0c-0.1,0,0,0,0,0c0.1,0-0.1-0.1,0,0H59c-0.2-0.1,0,0,0.1,0.1l0.1,0.1
				c0.1,0.1-0.1-0.1,0,0c0.2,0.1,0.3,0.3,0.5,0.4c0.3,0.3,0.6,0.6,0.9,0.9s0.7,0.6,1,0.8c0.1,0.1,0.1,0.1,0.2,0.2
				c0.1,0.1-0.1-0.1,0,0c0,0,0-0.1,0-0.2c0,0.1,0-0.2,0-0.1c0,0.2,0.1-0.1,0,0c0,0,0,0.1-0.1,0.1c0,0-0.1,0.1,0,0.1
				c0.1-0.1-0.1,0.1-0.1,0.1l-0.1,0.1c-0.2,0.2-0.4,0.4-0.6,0.6c-0.1,0.1-0.2,0.2-0.2,0.2l-0.1,0.1c-0.1,0.1,0.2-0.1,0,0
				c0,0-0.1,0-0.1,0.1c-0.1,0.1,0-0.1,0,0c0,0-0.4,0,0,0c0,0-0.1,0,0,0c0.2,0,0,0,0,0h-0.1c0.1,0,0.1,0.1,0.1,0h-0.1
				c-0.2-0.1-0.5-0.3-0.7-0.4c-0.4-0.2-0.8-0.1-1.1,0.2c-0.3,0.3-0.2,0.8,0.1,1.1c0.4,0.4,1,0.8,1.5,0.9c0.6,0.1,1.1-0.1,1.5-0.5
				s0.9-0.8,1.2-1.3c0.4-0.5,0.7-1,0.5-1.7c-0.2-0.5-0.6-0.9-1-1.2s-0.8-0.7-1.1-1c-0.8-0.8-1.7-1.8-2.9-1.4
				c-1.2,0.4-1.7,1.5-2.6,2.3c-0.2,0.2-0.3,0.7-0.1,1c0.4,0.5,0.8,0.8,1.4,0.8C57.8,19.1,58.2,18,57.5,17.7L57.5,17.7z"/>
		</g>
	</g>
	<g>
		<g>
			<path class="st0" d="M48.3,29c0.3,0.2,0.6,0.4,0.8,0.6c0,0,0.1,0,0.1,0.1c0.1,0.1-0.1-0.1,0,0c0.1,0,0.1,0.1,0.2,0.1
				c0.1,0.1,0.2,0.2,0.3,0.3c0.2,0.2,0.4,0.4,0.7,0.6c0.1,0.1,0.2,0.2,0.3,0.3c0,0,0,0.1,0.1,0.1c0.1,0.1-0.1-0.2,0,0
				c0,0.1,0.1,0.1,0.1,0.2c0.1-0.4,0.2-0.8,0.3-1.1c0,0,0,0-0.1,0c0.1,0,0.1-0.1,0.2-0.1l0,0c0.1,0,0.1,0,0.2,0l0,0
				c0.1,0,0.1,0,0.2,0l0,0c0.1,0,0.1,0.1,0.2,0.1c-0.2-0.1-0.4-0.2-0.6-0.2c-0.3,0-0.7,0.2-0.7,0.6c-0.1,0.3,0.1,0.7,0.4,0.9
				l-0.1-0.1l0,0c0.1,0.1,0.1,0.1,0.2,0.2c0.2,0.1,0.5,0.2,0.8,0.1c0.3-0.1,0.4-0.2,0.5-0.5c0.1-0.2,0.1-0.5,0-0.7
				c-0.4-0.6-0.9-1-1.4-1.5c-0.6-0.5-1.2-0.9-1.9-1.2c-0.3-0.1-0.7,0.1-0.8,0.3C48,28.4,48,28.8,48.3,29L48.3,29z"/>
		</g>
	</g>
	<g>
		<g>
			<path class="st0" d="M51,25.7L51,25.7c0-0.1,0-0.2-0.1-0.3c0,0.2,0.1,0.4,0.2,0.5s0.1,0.1,0.2,0.1c-0.2-0.1-0.1-0.1-0.1,0
				c0.1,0.1,0.2,0.2,0.3,0.3c0.2,0.2,0.4,0.5,0.7,0.7c0.2,0.3,0.4,0.5,0.7,0.8c0.2,0.2,0.4,0.5,0.7,0.7c0-0.1-0.1-0.1-0.1-0.2l0,0
				c0.1,0.3,0.5,0.4,0.7,0.4c0.3,0,0.5-0.1,0.7-0.3c0.4-0.5,0.1-1.1-0.4-1.3l0,0c0.1,0.1,0.2,0.1,0.4,0.2c-0.3-0.2-0.5-0.5-0.7-0.7
				c-0.2-0.3-0.5-0.5-0.7-0.8c-0.2-0.2-0.4-0.5-0.7-0.7c-0.1-0.1-0.3-0.2-0.5-0.3c-0.1-0.1-0.2-0.1-0.3-0.1c-0.1,0-0.2,0-0.2,0
				c-0.1,0-0.2,0-0.3,0.1c0,0,0,0,0.1,0C51,24.8,50.8,25.3,51,25.7L51,25.7z"/>
		</g>
	</g>
	<g>
		<g>
			<path class="st0" d="M54.1,23c0.1,0.1,0.2,0.1,0.2,0.2l0.1,0.1c0,0,0,0,0.1,0c0.1,0.1-0.2-0.1-0.1,0c0.2,0.1,0.3,0.3,0.5,0.5
				c0.3,0.3,0.6,0.7,0.9,1.1c0-0.1-0.1-0.1-0.1-0.2c0.2,0.2,0.4,0.5,0.5,0.7c0-0.1-0.1-0.3-0.1-0.4l0,0c0-0.1,0-0.1,0-0.2
				c0,0,0,0,0,0.1c0.1-0.1,0.1-0.2,0.2-0.4l0,0c0.1-0.1,0.2-0.1,0.4-0.2l0,0c0.1,0,0.3,0,0.4,0l0,0c0.1,0,0.1,0.1,0.2,0.1
				c-0.3-0.1-0.5-0.2-0.8-0.2c-0.3,0.1-0.5,0.3-0.5,0.6s0.1,0.6,0.4,0.8c-0.2-0.2-0.1-0.1-0.1,0c0-0.1-0.1-0.1-0.1-0.2
				c0.1,0.1,0.2,0.3,0.4,0.4c0.4,0.2,0.9,0.1,1.1-0.3c0.2-0.3,0.2-0.7,0-0.9c0-0.1-0.1-0.1-0.1-0.2c-0.3-0.4-0.5-0.7-0.8-1
				s-0.5-0.6-0.9-0.9s-0.8-0.6-1.2-0.7c-0.3-0.1-0.7,0.1-0.9,0.4C53.6,22.4,53.8,22.8,54.1,23L54.1,23z"/>
		</g>
	</g>
	<g>
		<g>
			<path class="st0" d="M42.6,42.2c1.8,2.8,4.1,5.2,6.2,7.8c0.9,1.2,1.9,2.4,2.8,3.6c0.7,0.9,1.4,1.9,2.3,2.6
				c1.5,1.2,3.9,1.3,4.5-0.9c0.3-0.9,0.1-1.9-0.1-2.8c-0.2-1.1-1.1-2.1,0.2-2.9c2.1-1.4,3.1,2.1,3.2,3.5c0.1,1.7-0.1,3.9-1.4,5.1
				c-4.2,4.1-8.8-1.2-11.5-4.2s-5.5-6-8.1-9.2c-0.7-0.9-2,0.4-1.2,1.2c2.5,3,5.2,5.9,7.8,8.8c2.9,3.3,6.9,8.1,11.8,6.1
				c2.2-0.9,3.6-2.6,4.1-4.8c0.5-2,0.4-4.3-0.5-6.2c-1-2.1-3.3-3.3-5.4-1.8c-1,0.7-1.6,1.8-1.3,3c0.3,1,0.7,1.9,0.7,3
				c-0.1,1.7-1.4,1-2.3,0.2c-1.1-1.1-1.9-2.3-2.8-3.5c-2.6-3.3-5.1-6.6-7.9-9.6C43.2,40.6,42.1,41.5,42.6,42.2L42.6,42.2z"/>
		</g>
	</g>
	<g>
		<g>
			<path class="st0" d="M37.8,41.2c-1.7-2.6-3.8-5-5.9-7.3c-2.4-2.7-4.8-5.4-7.1-8.3c-0.5-0.7-1.1-1.3-1.7-1.9
				c-0.4-0.4-1.5-1.1-1.7-1.7c-0.1-0.5,0.9-1.4,1.3-1.7c0.7-0.5,1-0.1,1.4,0.5c2.1,2.6,4.4,5,6.6,7.5c2.9,3.3,6,6.4,8.6,9.8
				c0.8,1,2.1-0.1,1.4-1.1c-2.7-3.5-5.8-6.7-8.7-10c-1.5-1.7-2.9-3.4-4.4-5c-0.5-0.6-1.1-1.1-1.5-1.7c-0.5-0.6-0.9-1.2-1.5-1.7
				c-2.1-1.6-6,2.1-4.6,4.3c0.4,0.7,1.2,1.2,1.8,1.8c0.7,0.8,1.4,1.6,2.1,2.4c1.4,1.7,2.7,3.4,4.1,4.9c1.4,1.6,2.9,3.1,4.3,4.8
				c1.5,1.7,2.8,3.6,4.4,5.2C37.2,42.7,38.2,41.9,37.8,41.2L37.8,41.2z"/>
		</g>
	</g>
	<g>
		<g>
			<path class="st0" d="M23.1,19.1c0.6,0,1.1-0.3,1.4-0.8c0.2-0.3,0.1-0.8-0.1-1c-0.8-0.6-1.2-1.6-2.2-2.1c-0.6-0.3-1.2-0.3-1.8,0
				c-0.5,0.2-0.9,0.6-1.3,1c-0.3,0.3-0.7,0.7-1,1c-0.4,0.3-0.9,0.7-1.2,1.1c-0.8,1.2,0.5,2.3,1.3,3.1c0.4,0.4,0.9,0.7,1.5,0.7
				s1.4-0.4,1.8-0.9c0.3-0.3,0.3-0.8,0.1-1.1c-0.3-0.3-0.7-0.4-1.1-0.2c-0.2,0.1-0.4,0.3-0.6,0.4c0,0-0.3,0.1-0.1,0.1
				c0.2-0.1-0.1,0-0.1,0c0.1-0.1,0.2,0,0.1,0c-0.1,0,0.1,0,0.1,0h-0.1c-0.1-0.1,0.1,0.1,0.1,0c0,0-0.1-0.1-0.2-0.1
				c-0.1-0.1,0.1,0.1,0,0l-0.1-0.1c-0.4-0.3-0.7-0.7-1.1-1.1c0.1,0.1,0-0.1-0.1-0.1c-0.1-0.2,0.1,0.1,0,0c0,0,0-0.2,0,0
				c0,0.1,0,0.1,0,0.2c0,0.1,0,0,0,0c0.1-0.1-0.1,0.1,0,0c0.3-0.3,0.7-0.6,1-0.9c0.3-0.2,0.5-0.5,0.8-0.8c0.2-0.2,0.3-0.3,0.5-0.5
				c0.1-0.1,0.1-0.1,0.2-0.2c0,0,0.1-0.1,0.1,0c-0.1,0.1,0.1-0.1,0.1-0.1s0.1,0,0.1-0.1c0,0,0.1-0.1,0,0s0.2,0,0.1,0c-0.1,0,0,0,0,0
				c0.1,0-0.1-0.1,0,0h0.1c0.1,0,0,0-0.1,0h0.1c0.1,0,0.2,0.1,0.2,0.2c-0.1-0.1,0.1,0.1,0.2,0.1c0.2,0.2,0.3,0.3,0.5,0.5
				c0.3,0.3,0.6,0.7,0.9,1c0-0.3-0.1-0.7-0.1-1c0-0.1,0,0,0,0c0.1,0,0,0,0,0c-0.1,0.1-0.2,0.1-0.3,0.1C22.1,18,22.4,19.1,23.1,19.1
				L23.1,19.1z"/>
		</g>
	</g>
	<g>
		<g>
			<path class="st0" d="M31.2,27.8c-0.7,0.3-1.3,0.7-1.9,1.2c-0.5,0.4-1,0.9-1.4,1.5c-0.2,0.2-0.1,0.5,0,0.7s0.3,0.4,0.5,0.5
				c0.3,0.1,0.6,0.1,0.8-0.1c0.1,0,0.1-0.1,0.2-0.2c0.1-0.1,0.1-0.1,0,0c0.3-0.2,0.5-0.5,0.4-0.9c-0.1-0.3-0.4-0.6-0.7-0.6
				c-0.2,0-0.4,0.1-0.6,0.2c0.1,0,0.1-0.1,0.2-0.1l0,0c0.1,0,0.1,0,0.2,0l0,0c0.1,0,0.1,0,0.2,0l0,0c0.1,0,0.1,0.1,0.2,0.1
				c0,0,0,0-0.1,0c0.1,0.4,0.2,0.8,0.3,1.1c0-0.1,0.1-0.1,0.1-0.2c0.1-0.1,0,0,0,0.1c0,0,0-0.1,0.1-0.1c0.1-0.1,0.2-0.2,0.3-0.3
				c0.2-0.2,0.4-0.4,0.7-0.6c0.1-0.1,0.2-0.2,0.3-0.3c0.1,0,0.1-0.1,0.2-0.1c0.1-0.1,0,0,0,0s0.1,0,0.1-0.1c0.3-0.2,0.6-0.4,0.9-0.6
				c0.2-0.2,0.3-0.6,0.1-0.9C31.9,27.8,31.6,27.6,31.2,27.8L31.2,27.8z"/>
		</g>
	</g>
	<g>
		<g>
			<path class="st0" d="M28.8,24.7C28.9,24.8,29,24.8,28.8,24.7c0-0.1-0.1-0.1-0.2-0.1s-0.2,0-0.2,0c-0.1,0-0.2,0.1-0.3,0.1
				c-0.2,0.1-0.3,0.2-0.5,0.3c-0.3,0.2-0.5,0.4-0.7,0.7s-0.5,0.5-0.7,0.8c-0.2,0.2-0.4,0.5-0.7,0.7c0.1-0.1,0.2-0.1,0.4-0.2l0,0
				c-0.6,0.2-0.8,0.8-0.4,1.3c0.2,0.2,0.4,0.3,0.7,0.3s0.6-0.2,0.7-0.4l0,0c0,0.1-0.1,0.1-0.1,0.2c0.2-0.2,0.4-0.5,0.7-0.7
				c0.2-0.3,0.4-0.5,0.7-0.8c0.2-0.3,0.4-0.5,0.7-0.7c0.1-0.1,0.2-0.2,0.3-0.3c0,0,0.1-0.1-0.1,0c0.1-0.1,0.1-0.1,0.2-0.1
				c0.2-0.1,0.2-0.3,0.2-0.5c0,0.1-0.1,0.2-0.1,0.3l0,0C29.4,25.3,29.2,24.8,28.8,24.7L28.8,24.7z"/>
		</g>
	</g>
	<g>
		<g>
			<path class="st0" d="M25.6,21.6c-0.5,0.1-0.8,0.4-1.2,0.7c-0.3,0.3-0.6,0.6-0.9,0.9c-0.3,0.3-0.6,0.7-0.8,1
				c0,0.1-0.1,0.1-0.1,0.2c-0.2,0.3-0.1,0.7,0,0.9c0.2,0.4,0.7,0.5,1.1,0.3c0.2-0.1,0.2-0.2,0.4-0.4c0,0.1-0.1,0.1-0.1,0.2
				c0-0.1,0.2-0.1-0.1,0c0.3-0.2,0.4-0.4,0.4-0.8c0-0.3-0.3-0.5-0.5-0.6c-0.3-0.1-0.5,0-0.8,0.2c0.1,0,0.1-0.1,0.2-0.1l0,0
				c0.1,0,0.3,0,0.4,0l0,0c0.1,0.1,0.2,0.1,0.4,0.2l0,0c0.1,0.1,0.1,0.2,0.2,0.4c0,0,0,0,0-0.1c0,0.1,0,0.1,0,0.2l0,0
				c0,0.1-0.1,0.3-0.1,0.4c0.2-0.2,0.3-0.5,0.5-0.7c0,0.1-0.1,0.1-0.1,0.2c0.3-0.4,0.6-0.7,0.9-1.1c0.2-0.2,0.3-0.3,0.5-0.4
				c0.1-0.1,0,0-0.1,0c0,0,0,0,0.1,0l0.1-0.1c0.1-0.1,0.2-0.1,0.3-0.2c0.3-0.2,0.4-0.6,0.3-0.9C26.3,21.7,25.9,21.5,25.6,21.6
				L25.6,21.6z"/>
		</g>
	</g>
</g>
</svg>
