<?xml version="1.0" encoding="utf-8"?>
<!-- Generator: Adobe Illustrator 24.3.0, SVG Export Plug-In . SVG Version: 6.00 Build 0)  -->
<svg version="1.1" id="Calque_1" xmlns="http://www.w3.org/2000/svg" xmlns:xlink="http://www.w3.org/1999/xlink" x="0px" y="0px"
	 viewBox="0 0 80 80" style="enable-background:new 0 0 80 80;" xml:space="preserve">
<style type="text/css">
	.st0{fill:#91D902;}
</style>
<g>
	<g>
		<g>
			<path class="st0" d="M33.4,26.6c-0.5-0.5-1.5-0.5-2.2-0.3c-0.6,0.1-1.2,0.3-1.6,0.6c-0.6,0.4-1,1-1,1.8c0,0.6,0.2,1.2,0.6,1.7
				c0.7,0.8,1.9,0.7,2.8,0.5c0.5-0.1,0.9-0.3,1.3-0.5c0.4-0.2,0.8-0.4,1-0.7c0.5-0.6,0.6-1.4,0.3-2.2c-0.2-0.3-0.4-0.6-0.7-0.8
				c-0.4-0.3-0.9-0.4-1.3-0.3c-0.3,0.1-0.6,0.5-0.6,0.8c0,0.4,0.3,0.7,0.6,0.8c-0.3-0.1,0.2,0.1,0.3,0.1H33c-0.2,0-0.1-0.1,0,0
				c0.1,0,0.1,0.1,0,0l0.1,0.1c0.1,0.1,0.1,0.1,0,0l0.1,0.1c0.1,0.1,0,0.1,0-0.1v0.1c0,0.2,0-0.2,0-0.1v0.1c0,0.2,0.1-0.2,0-0.1v0.1
				c0-0.2,0.1-0.1,0,0c0,0-0.1,0.2,0,0.1c0.1-0.1,0,0,0,0l-0.1,0.1c0.2-0.2,0.2-0.1,0.1-0.1c0,0-0.1,0-0.1,0.1
				c-0.1,0.1-0.3,0.2-0.4,0.2c-0.1,0-0.1,0.1-0.2,0.1c-0.1,0-0.2,0.1,0.1,0h-0.1c-0.2,0.1-0.4,0.1-0.5,0.2c-0.2,0-0.3,0.1-0.5,0.1
				s0.2,0,0.1,0h-0.1c-0.1,0-0.2,0-0.3,0s-0.1,0-0.2,0c-0.1,0-0.1-0.1,0.1,0H31c-0.1,0-0.1,0-0.2-0.1c-0.1,0,0.2,0.1,0.1,0
				c0,0-0.1,0-0.1-0.1c-0.2-0.1,0.1,0.1,0,0c0,0,0-0.1-0.1-0.1c-0.1-0.1,0.1,0.2,0,0.1c0,0,0-0.1-0.1-0.1c-0.1-0.1,0-0.1,0,0.1
				l-0.1-0.3v0.1v-0.1v-0.1c0,0,0,0,0-0.1s0-0.1,0,0.1c0,0,0-0.1,0-0.2l0,0c0-0.1,0-0.1,0,0.1l0.1-0.1l0,0c0.1-0.1,0-0.1,0,0
				l0.1-0.1l0.1-0.1c-0.1,0.1-0.1,0.1-0.1,0.1s0,0,0.1,0l0.1-0.1H31c-0.1,0-0.1,0.1,0,0c0.2-0.1,0.5-0.2,0.7-0.2
				c0.1,0,0.2,0,0.4-0.1c0.2,0-0.2,0,0,0c0.1,0,0.2,0,0.3,0s0.1,0,0,0c0.1,0,0.3,0,0.4,0c0.1,0,0.1,0,0.2,0c0.1,0,0.5,0,0.2,0
				c0.3,0,0.5-0.2,0.6-0.4C33.6,27.1,33.6,26.8,33.4,26.6L33.4,26.6z"/>
		</g>
	</g>
	<g>
		<g>
			<path class="st0" d="M39.3,21.5C38.9,21,38.1,21,37.6,21c-0.6,0-1.2,0.1-1.7,0.3c-0.6,0.2-1.2,0.6-1.6,1.1
				c-0.4,0.6-0.5,1.2-0.4,1.9c0.1,0.8,0.6,1.4,1.2,1.9c0.6,0.5,1.4,0.5,2.2,0.4c0.7-0.1,1.3-0.3,1.9-0.6c0.6-0.3,1.2-0.9,1.3-1.6
				c0.2-0.7,0-1.5-0.3-2.1c-0.2-0.3-0.4-0.6-0.8-0.8c-0.4-0.3-0.8-0.3-1.3-0.2c-0.4,0.1-0.7,0.6-0.6,0.9c0.1,0.4,0.4,0.7,0.8,0.7
				c0.2,0-0.2-0.1,0,0h0.1c0.2,0-0.2-0.1,0,0l0.1,0.1c0,0-0.2-0.1,0,0c0,0,0,0,0.1,0.1s0,0.1,0,0c0,0,0.1,0.1,0.1,0.2
				c0,0,0,0.1,0.1,0.1c0.1,0.2-0.1-0.2,0,0c0,0.1,0.1,0.2,0.1,0.3c0,0,0,0.1,0,0.2c-0.1-0.1,0-0.2,0,0V24c0,0,0,0.2,0,0.1
				c0-0.2,0,0.2,0,0.2s0.1-0.2,0,0l-0.1,0.1c0.2-0.1,0,0,0,0l-0.1,0.1l-0.1,0.1c0.2-0.1-0.1,0-0.1,0.1c-0.1,0.1-0.2,0.1-0.3,0.2
				c0,0-0.2,0.1,0,0h-0.1c-0.3,0.1-0.5,0.2-0.8,0.2h-0.1c-0.2,0,0.2,0,0,0c-0.1,0-0.2,0-0.4,0s0.2,0.1,0,0c-0.1,0-0.1,0-0.2,0
				c0,0-0.1-0.1,0,0c-0.1,0-0.1-0.1-0.2-0.1c0,0-0.2-0.2,0,0l-0.1-0.1l-0.1-0.1c0.1,0.1,0,0.1,0,0c-0.1-0.1-0.1-0.2-0.2-0.3
				c0.1,0.2,0,0,0,0c0-0.1,0-0.2-0.1-0.2c0-0.2,0,0.1,0,0s0-0.1,0-0.2c0-0.1,0-0.1,0-0.2c0-0.2-0.1,0.2,0,0v-0.1c0-0.2-0.1,0.2,0,0
				c0-0.1,0.1-0.2,0.1-0.2l-0.1,0.1c0,0,0,0,0.1-0.1l0.1-0.1l0.1-0.1c-0.1,0.1-0.1,0.1,0,0s0.2-0.1,0.2-0.1s0.1,0,0.1-0.1h0.1
				c0.1,0,0.1,0-0.1,0c0,0,0.2-0.1,0.3-0.1S37,23,37.2,23c0.1,0,0.4,0,0.4-0.1c0,0-0.2,0-0.1,0c0.1,0,0.1,0,0.2,0c0.2,0,0.4,0,0.7,0
				c0.1,0,0.2,0,0.3,0h0.1c0.1,0,0.3,0,0.4-0.1c-0.1,0-0.1,0.1-0.1,0C39.5,22.4,39.6,21.9,39.3,21.5L39.3,21.5z"/>
		</g>
	</g>
	<g>
		<g>
			<path class="st0" d="M45.7,23.2c0-0.2-0.1-0.4-0.2-0.6c0-0.1-0.1-0.1-0.1-0.1s0,0-0.1,0s-0.1-0.1-0.2-0.1c0,0,0.1,0,0.1,0.1
				l-0.4-0.3c-0.1-0.1-0.2-0.1-0.3-0.2c-0.5-0.3-1.1-0.5-1.6-0.6c-1.2-0.3-2.6-0.1-3.3,1c-0.8,1.1-0.5,2.8,0.7,3.6s2.9,1,4.2,0.4
				c0.6-0.3,1.2-0.8,1.5-1.4c0.4-0.8,0.2-1.7-0.4-2.3c-0.3-0.3-0.9-0.4-1.2,0c-0.3,0.3-0.4,0.9,0,1.2l0.1,0.1c0,0,0-0.1-0.1-0.1
				c0,0,0,0.1,0.1,0.1c0.1,0.1-0.1,0,0-0.1c0,0,0,0.1,0,0.2c-0.1-0.1,0-0.2,0-0.1c0,0.1-0.1,0,0-0.1V24c0,0,0.1-0.2,0,0l-0.1,0.1
				c-0.1,0.1,0,0,0,0l-0.2,0.2l-0.1,0.1c0,0,0.1,0,0.1-0.1c0,0-0.1,0-0.1,0.1c-0.1,0.1-0.2,0.1-0.3,0.2l-0.2,0.1c0,0,0.2-0.1,0.1,0
				c-0.1,0-0.2,0.1-0.2,0.1c-0.1,0-0.1,0-0.2,0c0.2,0,0,0-0.1,0c-0.2,0-0.3,0-0.5,0c-0.1,0-0.1,0-0.2,0c0.2,0,0,0-0.1,0
				s-0.2-0.1-0.4-0.1c-0.1,0-0.2-0.1-0.4-0.1c0.2,0.1,0,0-0.1,0s-0.2-0.1-0.2-0.1c-0.1,0-0.1-0.1-0.2-0.1c0,0,0,0-0.1,0
				c-0.1-0.1-0.1,0,0,0l-0.1-0.1c-0.1-0.1,0,0,0,0l-0.1-0.2c0,0,0.1,0.2,0,0c0-0.1,0-0.1,0-0.2c-0.1-0.2,0,0.2,0,0v-0.1v-0.1
				c0-0.2,0,0.2,0,0c0-0.1,0-0.2,0.1-0.3c0.1-0.2-0.1,0.2,0,0l0.1-0.1c0.1-0.2-0.1,0.1,0,0c0,0,0-0.1,0.1-0.1c0.1-0.1,0.1-0.1,0,0
				l0.1-0.1h0.1c0.1-0.1,0.1,0,0,0c0.1,0,0.2-0.1,0.3-0.1c0,0,0.2,0,0,0s0,0,0,0c0.1,0,0.2,0,0.3,0h0.3c0,0-0.2,0-0.1,0
				c0.1,0,0.2,0,0.2,0c0.2,0,0.5,0.1,0.7,0.2c0.1,0,0.2,0.1,0.3,0.1c0,0,0.1,0,0.2,0.1h-0.1h0.1c0.1,0,0.2,0.1,0.3,0.1
				c0,0,0.2,0.1,0,0l0.4,0.2c0,0-0.2-0.1,0,0c0,0,0.1,0,0.1,0.1c0.2,0.1,0.4,0.1,0.7,0.1C45.5,23.7,45.7,23.4,45.7,23.2L45.7,23.2z"
				/>
		</g>
	</g>
	<g>
		<g>
			<path class="st0" d="M50.9,27.9c-0.2-0.8-1-1.2-1.7-1.5c-0.5-0.2-1.1-0.3-1.6-0.4c-0.6-0.1-1.3-0.2-1.9,0
				c-0.7,0.2-1.3,0.8-1.6,1.5c-0.5,1.3,0.3,2.9,1.6,3.5c0.6,0.3,1.3,0.4,2,0.4s1.4-0.1,2.1-0.3c0.7-0.3,1.3-0.9,1.6-1.7
				c0.3-0.7,0.2-1.7-0.6-2.1c-0.4-0.2-1-0.1-1.2,0.3c-0.2,0.4-0.1,0.9,0.3,1.2c-0.2-0.1,0,0-0.1-0.1c0,0-0.1-0.3-0.1-0.1
				c0,0.1,0-0.1,0-0.1v0.1c0,0,0,0.2,0,0.1c0-0.1,0,0,0,0v0.1c0,0,0,0,0,0.1s0,0.1,0-0.1c0,0.1-0.1,0.2-0.1,0.2c0.1-0.1,0,0,0,0
				c0,0.1-0.1,0.1-0.1,0.1s-0.1,0.1,0,0l-0.1,0.1c-0.1,0-0.1,0.1-0.2,0.1c0,0-0.1,0-0.1,0.1c0.1,0,0.1,0,0,0s-0.2,0.1-0.3,0.1
				c-0.1,0-0.3,0-0.1,0c-0.3,0-0.5,0-0.8,0c-0.1,0-0.2,0-0.4,0c-0.1,0-0.1,0-0.2,0c0,0,0.2,0,0,0s-0.4-0.1-0.7-0.2
				c-0.1,0,0.2,0.1,0,0c0,0-0.1,0-0.1-0.1l-0.1-0.1c-0.2-0.1,0.1,0.1,0,0s-0.2-0.2-0.2-0.2c-0.1-0.1,0,0,0,0c0-0.1-0.1-0.1-0.1-0.2
				c0-0.1-0.1-0.1-0.1-0.2c-0.1-0.1,0,0.1,0,0s-0.1-0.2-0.1-0.3c0,0.2,0,0.1,0,0s0-0.1,0-0.2c0-0.1-0.1,0.2,0,0c0-0.1,0-0.1,0.1-0.2
				c-0.1,0.2,0-0.1,0.1-0.1c0.1-0.2-0.1,0,0,0l0.1-0.1c0,0-0.2,0.1,0,0c0,0,0.1,0,0.1-0.1c0,0,0.1,0,0.1-0.1c-0.2,0.1,0,0,0,0
				c0.1,0,0.4-0.1,0.1,0c0.1,0,0.2,0,0.3,0c0.1,0,0.2,0,0.3,0h0.1c-0.2,0,0,0,0,0c0.5,0.1,1,0.2,1.4,0.4c0.1,0,0.2,0.1,0.4,0.1
				c-0.1-0.1,0,0,0,0c0.1,0,0.1,0.1,0.2,0.1c0.1,0.1,0.2,0.1,0.3,0.2c0.1,0,0.1,0.1,0.2,0.1c0,0,0.4,0.2,0.2,0.1
				C50.4,28.9,51,28.5,50.9,27.9L50.9,27.9z"/>
		</g>
	</g>
	<g>
		<g>
			<path class="st0" d="M49.6,30.8L49.6,30.8c0,0,0-0.1-0.1-0.2C49.6,30.7,49.6,30.8,49.6,30.8c0.1,0.2,0.1,0.2,0.2,0.3l0.1,0.1
				c0.2,0.1,0.3,0.3,0.5,0.4c0.2,0.2,0.4,0.3,0.6,0.5c0.1,0.1,0.2,0.1,0.3,0.1c0.1,0,0.2,0,0.3,0c0.2-0.1,0.4-0.2,0.5-0.4
				s0.2-0.4,0.1-0.6c0-0.1-0.1-0.1-0.1-0.2c-0.1-0.1-0.2-0.2-0.3-0.3c-0.2-0.1-0.4-0.2-0.5-0.4c-0.2-0.1-0.4-0.3-0.6-0.4
				c0.1,0,0.1,0.1,0.2,0.1c-0.1-0.1-0.2-0.1-0.3-0.2c0.1,0,0.1,0.1,0.2,0.1l0,0c-0.1-0.1-0.1-0.1-0.2-0.2c-0.1,0-0.2-0.1-0.3-0.1
				c-0.2,0-0.3,0.1-0.5,0.2c-0.1,0.1-0.2,0.2-0.3,0.4c0,0.1,0,0.1,0,0.2C49.5,30.5,49.5,30.7,49.6,30.8L49.6,30.8z"/>
		</g>
	</g>
	<g>
		<g>
			<path class="st0" d="M44.1,25.5c0,0.1,0,0.2,0,0.3s0.1,0.2,0.1,0.3c0-0.1,0-0.1-0.1-0.2c0.1,0.1,0.1,0.2,0.2,0.4
				c0-0.1-0.1-0.1-0.1-0.2c0,0,0,0,0,0.1c0-0.1,0-0.1,0-0.2c0,0.1,0,0.2,0,0.2c0,0.1,0.1,0.2,0.1,0.2s0,0,0,0.1c0,0,0,0.1,0.1,0.2
				c0-0.1-0.1-0.1-0.1-0.2c0.1,0.1,0.1,0.2,0.2,0.4c0-0.1-0.1-0.1-0.1-0.2v0.1c0,0.1,0.1,0.2,0.1,0.3s0.1,0.1,0.1,0.2
				c0.1,0.1,0.2,0.1,0.3,0.2c0.1,0,0.1,0.1,0.2,0.1s0.2,0,0.3,0l0.2-0.1c0.1,0,0.1-0.1,0.2-0.1c0.1-0.1,0.1-0.2,0.2-0.3
				c0-0.1,0.1-0.1,0.1-0.2c0-0.1,0-0.2,0-0.3S46,26.4,46,26.3v-0.1c0-0.1-0.1-0.1-0.1-0.2c0-0.1-0.1-0.1-0.1-0.2c0,0,0-0.1-0.1-0.1
				c-0.1-0.2-0.2-0.2-0.3-0.3c0.1,0,0.1,0.1,0.2,0.1c-0.2-0.2-0.4-0.4-0.7-0.5c-0.1,0-0.2,0-0.3,0c-0.1,0-0.2,0.1-0.2,0.1
				c-0.1,0-0.1,0.1-0.2,0.2C44.1,25.3,44.1,25.4,44.1,25.5L44.1,25.5z"/>
		</g>
	</g>
	<g>
		<g>
			<path class="st0" d="M33.8,27.9c0.3,0,0.5-0.2,0.8-0.3c0.2-0.1,0.4-0.3,0.6-0.4c0.3-0.2,0.5-0.5,0.7-0.7c-0.1,0-0.1,0.1-0.2,0.1
				c0.1-0.1,0.2-0.1,0.2-0.2c0.2-0.1,0.3-0.3,0.4-0.5c0.1-0.2,0-0.4-0.1-0.6s-0.3-0.3-0.5-0.4c-0.2,0-0.4,0-0.6,0.1
				c-0.5,0.3-0.8,0.8-1.3,1.1c0.1,0,0.1-0.1,0.2-0.1c-0.2,0.1-0.3,0.2-0.5,0.4c-0.1,0-0.1,0.1-0.2,0.1c-0.2,0.2-0.3,0.4-0.3,0.6
				c0,0.2,0.1,0.4,0.2,0.5C33.5,27.8,33.6,27.9,33.8,27.9L33.8,27.9z"/>
		</g>
	</g>
	<g>
		<g>
			<path class="st0" d="M27.9,32.4c0.2,0,0.3,0,0.4-0.1c0,0,0.1,0,0.1-0.1c0.1,0,0.2-0.1,0.2-0.1c0.2-0.1,0.3-0.2,0.5-0.3
				c0.3-0.2,0.6-0.5,0.9-0.8c-0.1,0-0.1,0.1-0.2,0.1c0.1-0.1,0.2-0.1,0.3-0.2c0.3-0.2,0.5-0.6,0.3-1s-0.5-0.6-0.9-0.5
				c-0.3,0.1-0.6,0.3-0.9,0.6c-0.2,0.2-0.4,0.4-0.6,0.5c0.1,0,0.1-0.1,0.2-0.1c-0.2,0.1-0.3,0.2-0.5,0.4l0.1-0.1
				c-0.1,0.1-0.2,0.2-0.4,0.3c-0.1,0.1-0.2,0.2-0.3,0.3c-0.1,0.2-0.1,0.4,0,0.7C27.5,32.3,27.7,32.5,27.9,32.4L27.9,32.4z"/>
		</g>
	</g>
	<g>
		<g>
			<path class="st0" d="M30.6,32.4c-0.9-0.6-2.2-0.8-3.2-1.1c-0.9-0.2-1.9-0.5-2.8-0.2c-2.1,0.7-2.6,3.2-3.1,5.1
				c-0.6,2.3-1.5,4.6-1.9,6.9c-0.2,1.3-0.4,2.5-0.7,3.8s-0.8,2.6-1.1,4c-0.2,1.2-0.3,2.4-0.4,3.6c-0.1,0.9,0,1.8,0.5,2.5
				c0.6,0.8,1.7,1.2,2.6,1.5c0.9,0.3,2,0.7,3,0.5c2.2-0.4,2.7-2.6,3.2-4.3c0.8-2.5,1.2-5.1,2-7.6c0.9-2.8,1.7-5.7,2.7-8.5
				c0.6-1.9,1.4-5.3-1.1-6.1c-1.1-0.3-1.6,1.4-0.5,1.7c0.9,0.3,0.4,2.4,0.2,3c-0.3,1-0.6,1.9-0.9,2.8c-0.6,1.9-1,3.8-1.7,5.6
				c-0.6,1.9-0.9,3.7-1.4,5.6c-0.2,0.9-0.5,1.8-0.8,2.7c-0.3,0.8-0.4,1.9-0.9,2.7c-0.5,0.8-1.2,0.9-2.1,0.7
				c-0.9-0.2-2.1-0.4-2.8-1.1c-0.6-0.7-0.3-1.7-0.2-2.5c0.1-1,0.2-2.1,0.5-3.1c0.5-1.9,1.1-3.7,1.4-5.6c0.3-1.8,0.8-3.5,1.1-5.2
				c0.2-1,0.6-2,0.9-3c0.3-1,0.4-1.9,0.9-2.8c0.6-1.1,1.3-1.2,2.5-0.9c1.1,0.2,2.3,0.4,3.3,0.9C30.7,34.1,31.5,32.9,30.6,32.4
				L30.6,32.4z"/>
		</g>
	</g>
	<g>
		<g>
			<path class="st0" d="M22.2,39.5c0.7-0.2,1.3-0.3,2.1-0.4c0.8-0.1,1.5-0.1,2.3-0.2c0.7-0.1,1.3-0.1,2-0.1s1.2-0.4,1.9-0.4
				c0.4,0,0.8-0.3,0.8-0.8c0-0.4-0.4-0.9-0.8-0.8c-0.7,0.1-1.3,0.4-1.9,0.4c-0.8,0-1.5,0-2.3,0.1c-1.5,0.2-3.1,0.2-4.5,0.9
				C20.8,38.6,21.4,39.7,22.2,39.5L22.2,39.5z"/>
		</g>
	</g>
	<g>
		<g>
			<path class="st0" d="M20.7,41.3c0.2,0.8,1.1,1.1,1.8,1.5c0.8,0.4,1.5,0.7,2.3,1.1c0.7,0.3,1.4,0.6,2.1,0.7
				c0.3,0.1,0.5,0.1,0.8,0.2c0.1,0,0.1,0,0.2,0.1c0.2,0.1-0.1,0,0,0s0.1,0.1,0,0c-0.2-0.3,0.2,0.3,0,0c0.4,0.8,1.6,0.4,1.6-0.4
				s-0.8-1.1-1.5-1.3c-0.6-0.2-1.2-0.3-1.8-0.5c-0.8-0.3-1.6-0.7-2.3-1.1c-0.7-0.3-1.4-0.6-2-1C21.3,40.1,20.6,40.7,20.7,41.3
				L20.7,41.3z"/>
		</g>
	</g>
	<g>
		<g>
			<path class="st0" d="M19,47.9L19,47.9c-0.1,0.3,0.1,0.7,0.3,0.9c0.5,0.3,1.1,0.2,1.6,0.1c-0.3,0,0.2,0,0.3,0c0.2,0,0.4,0,0.5,0
				c0.4,0,0.7,0,1.1,0c0.8,0,1.6,0.1,2.3,0c0.8-0.1,1.6-0.3,2.4-0.4c0.4-0.1,0.7-0.6,0.6-1c-0.1-0.5-0.6-0.7-1-0.6
				c-0.7,0.1-1.4,0.3-2.1,0.4c-0.7,0.1-1.4,0-2.1,0c-0.7,0-1.3,0-2,0.1c-0.2,0-0.5,0.1-0.7,0.1c0,0-0.3,0.1-0.2,0
				c-0.1,0-0.3,0-0.2,0c-0.2-0.1-0.6,0-0.7,0.2C19.1,47.7,19,47.8,19,47.9L19,47.9z"/>
		</g>
	</g>
	<g>
		<g>
			<path class="st0" d="M18.3,52.7c-0.1,0.9,1.1,0.9,1.7,0.9c0.6-0.1,1.2-0.1,1.7-0.3c0.1,0-0.2,0-0.1,0c0.1,0,0.3,0,0.4,0
				c0.2,0,0.5,0,0.7,0c0.5,0,1.1,0,1.6-0.1c0.9-0.1,1.8-0.2,2.6-0.6c0.4-0.2,0.5-0.8,0.3-1.2c-0.3-0.4-0.7-0.5-1.2-0.3
				s-1.5,0.3-2.2,0.4c-0.9,0.1-1.8,0-2.7,0.2c-0.5,0.1-1,0.2-1.5,0.3c0.2,0-0.5,0-0.2,0c-0.1,0-0.2,0-0.3,0c0.1,0,0.1,0,0,0
				c-0.2,0-0.3,0-0.5,0C18.5,52.1,18.4,52.4,18.3,52.7L18.3,52.7z"/>
		</g>
	</g>
	<g>
		<g>
			<path class="st0" d="M54.6,30.9c-1.3,0-2.6,0.3-3.9,0.6c-0.9,0.2-1.7,0.5-2.3,1.3c-1.1,1.4-0.7,3.7-0.5,5.3
				c0.3,2.7,1.3,5.3,2.3,7.9c0.9,2.6,1.8,5.1,2.6,7.7c0.5,1.6,1.1,3.9,2.9,4.4c0.9,0.3,1.9,0.1,2.8-0.2c1-0.3,2.2-0.6,3-1.2
				c2-1.5,0.8-3.8,0.3-5.8c-0.7-2.6-0.9-5.5-1.9-8c-0.5-1.3-1.1-2.6-1.3-4c-0.2-1.3-0.5-2.6-0.7-3.9c-0.3-2-1.2-4.7-3.7-4.3
				c-1.1,0.2-0.6,1.9,0.5,1.7c1.4-0.2,1.5,3.7,1.7,4.4c0.2,1.8,0.8,3.6,1.4,5.3c1.4,3.6,1.8,7.6,3,11.3c0.2,0.5,0.3,1,0,1.5
				c-0.3,0.4-0.7,0.6-1.2,0.7c-0.8,0.3-1.7,0.7-2.5,0.7c-1.9,0.1-2.3-2.7-2.7-4.1c-1.1-3.8-2.7-7.5-3.8-11.3c-0.6-2-1.1-4.2-0.9-6.3
				c0.1-0.9,0.4-1.3,1.3-1.6c1.2-0.4,2.6-0.7,3.9-0.8C55.6,32.4,55.6,30.9,54.6,30.9L54.6,30.9z"/>
		</g>
	</g>
	<g>
		<g>
			<path class="st0" d="M48.4,38.7c0.5,0.6,1.1,0.7,1.9,0.7c0.2,0,0.2,0,0.4,0.1c0.2,0,0.4,0.1,0.6,0.1c0.5,0.1,0.9,0.1,1.4,0.1
				c0.9,0.1,1.8,0.2,2.6,0.3c0.4,0,0.7,0.1,1.1,0.1c0.5,0.1,1,0.2,1.4,0c0.7-0.2,0.8-1.4,0-1.5c-0.4-0.1-0.7-0.1-1.1-0.1
				c-0.4-0.1-0.7-0.1-1.1-0.1c-0.8-0.1-1.7-0.2-2.5-0.3s-1.5-0.1-2.3-0.3c-0.3,0-0.6-0.1-0.9-0.1c-0.2,0-0.5-0.1-0.6-0.1
				c-0.3-0.1-0.7-0.1-0.9,0.1C48.3,38,48.2,38.4,48.4,38.7L48.4,38.7z"/>
		</g>
	</g>
	<g>
		<g>
			<path class="st0" d="M50.9,45.4c0.6,0.1,1.2-0.2,1.8-0.5c0.6-0.3,1.3-0.6,1.9-0.9c1.3-0.6,2.6-1.2,3.8-1.8
				c0.4-0.2,0.5-0.8,0.3-1.1c-0.2-0.4-0.7-0.5-1.1-0.3c-1.2,0.6-2.4,1.2-3.6,1.8c-1.1,0.5-2.1,1-3.2,1.5
				C50.3,44.5,50.4,45.3,50.9,45.4L50.9,45.4z"/>
		</g>
	</g>
	<g>
		<g>
			<path class="st0" d="M51.7,48.5c0.7,1,2.1,0.6,3.1,0.5c0.8-0.1,1.6-0.1,2.3-0.1c0.5,0,0.9-0.1,1.4-0.2c0.4-0.1,0.7-0.2,1.1-0.2
				c1.1,0,1.1-1.7,0-1.7c-0.7,0-1.4,0.3-2.2,0.4c-0.8,0.1-1.6,0.1-2.5,0.2c-0.2,0-0.5,0.1-0.7,0.1c-0.1,0-0.2,0-0.3,0c0,0-0.1,0,0,0
				c-0.1,0-0.1,0-0.2,0c-0.2,0-0.5,0.1-0.7,0.1c-0.1,0-0.2,0-0.3,0c0.2,0,0,0,0,0c-0.1,0,0.1,0.1,0.1,0.1c-0.3-0.2-0.6-0.3-0.9-0.1
				C51.7,47.8,51.5,48.2,51.7,48.5L51.7,48.5z"/>
		</g>
	</g>
	<g>
		<g>
			<path class="st0" d="M53.5,53.5c0.4,0.2,0.8,0.2,1.2,0.3c0.4,0.1,0.9,0.2,1.3,0.2s0.9,0,1.3,0c0.5,0,0.9,0.1,1.4,0.1
				c0.6,0,1.1,0,1.7,0c0.5,0,1.4-0.1,1.6-0.6c0.4-0.8-0.4-1.5-1.1-1.1c0.2-0.1,0.2-0.1,0,0c-0.1,0-0.2,0-0.3,0c-0.1,0,0.1,0,0,0
				s-0.1,0-0.2,0s-0.2,0-0.4,0c-0.6,0-1.2,0-1.8,0c-0.4,0-0.8-0.1-1.2-0.1c-0.4,0-0.7,0-1.1,0c-0.7-0.1-1.8-0.5-2.5,0
				C53.1,52.6,53,53.3,53.5,53.5L53.5,53.5z"/>
		</g>
	</g>
</g>
</svg>
