<?xml version="1.0" encoding="utf-8"?>
<!-- Generator: Adobe Illustrator 24.3.0, SVG Export Plug-In . SVG Version: 6.00 Build 0)  -->
<svg version="1.1" id="Calque_1" xmlns="http://www.w3.org/2000/svg" xmlns:xlink="http://www.w3.org/1999/xlink" x="0px" y="0px"
	 viewBox="0 0 80 80" style="enable-background:new 0 0 80 80;" xml:space="preserve">
<style type="text/css">
	.st0{fill:#91D902;}
</style>
<g>
	<g>
		<g>
			<path class="st0" d="M13.8,38.4c-0.3,1.3-0.1,2.7,0,3.9c0.1,1.3,0.1,2.7,0.1,4c0.1,2.6,0.4,5.2,0.9,7.7c0.2,1.1,1.9,0.6,1.7-0.5
				c-0.5-2.5-0.7-5-0.8-7.5c0-1.2,0-2.5-0.1-3.7c-0.1-1.3-0.1-2.7-0.4-3.9C15,37.8,14,37.7,13.8,38.4L13.8,38.4z"/>
		</g>
	</g>
	<g>
		<g>
			<path class="st0" d="M14.1,39.2c0.6,0.3,1.3,0.5,1.9,0.6c1.2,0.3,2.4,0.6,3.5,0.9c2.5,0.6,5.1,1.2,7.6,1.8
				c0.6,0.1,1.2,0.3,1.8,0.4c1.1,0.2,1.6-1.5,0.5-1.7c-1.6-0.3-3.2-0.8-4.7-1.1c-2.6-0.6-5.2-1.3-7.7-1.9c-0.8-0.2-1.6-0.4-2.4-0.4
				C13.8,37.8,13.5,38.9,14.1,39.2L14.1,39.2z"/>
		</g>
	</g>
	<g>
		<g>
			<path class="st0" d="M28.5,41.8c-0.6,0.9-0.5,2.3-0.4,3.3c0.1,1.4,0.2,2.7,0.3,4.1c0,1.5-0.1,3,0,4.6c0.1,1.4-0.1,2.9,0.3,4.2
				c0.3,1.1,2,0.6,1.7-0.5c-0.2-0.7-0.1-1.4-0.1-2.1c0-0.6-0.1-1.3-0.1-1.9c-0.1-1.5,0-2.9,0-4.4c-0.1-1.3-0.2-2.6-0.3-3.9
				c-0.1-1,0.1-2.1-0.1-3.2C29.7,41.3,28.8,41.4,28.5,41.8L28.5,41.8z"/>
		</g>
	</g>
	<g>
		<g>
			<path class="st0" d="M15,53.9c-0.1,1.1,1.7,1.5,2.4,1.8c1.4,0.6,2.8,1,4.3,1.4c2.5,0.6,5.1,1,7.6,1.6c1.1,0.2,1.6-1.4,0.5-1.7
				c-2.3-0.7-4.7-0.9-7.1-1.5c-1.2-0.3-2.4-0.6-3.6-1c-0.6-0.2-1.2-0.5-1.9-0.7c-0.3-0.1-0.5-0.2-0.8-0.3c-0.1,0-0.2-0.1-0.3-0.1
				c0,0-0.3-0.1-0.1,0C15.5,53,15,53.3,15,53.9L15,53.9z"/>
		</g>
	</g>
	<g>
		<g>
			<path class="st0" d="M15.1,39.1c0.5-0.6,1.4-0.9,2.1-1.3c1.1-0.6,2.2-1.3,3.3-1.9c1.1-0.6,2.3-1,3.4-1.4c1.2-0.4,2.3-0.9,3.4-1.3
				c1-0.4,0.6-2-0.5-1.6c-1.2,0.4-2.4,1-3.7,1.4s-2.6,0.9-3.8,1.6c-1.1,0.7-2.3,1.4-3.4,2c-0.8,0.5-1.8,0.9-2.1,1.8
				C13.6,39,14.6,39.6,15.1,39.1L15.1,39.1z"/>
		</g>
	</g>
	<g>
		<g>
			<path class="st0" d="M29.5,42.8c2.1-1,4.1-2,6.2-3c1-0.5,2-0.9,3-1.4c0.9-0.5,1.9-0.8,2.7-1.5c0.7-0.5-0.1-1.6-0.8-1.4
				c-1,0.3-1.9,0.9-2.8,1.4c-1,0.5-2,1-3,1.5c-2.1,1-4.2,1.8-6.1,3.1C27.9,42,28.6,43.2,29.5,42.8L29.5,42.8z"/>
		</g>
	</g>
	<g>
		<g>
			<path class="st0" d="M26.6,32.8c0.6,0.6,1.7,0.7,2.4,1c1,0.3,1.9,0.6,2.9,0.8c1.5,0.4,3,0.8,4.5,1.2c0.7,0.2,1.5,0.4,2.2,0.7
				c0.7,0.2,1.4,0.6,2.2,0.6s1.2-1.2,0.4-1.5c-1.3-0.6-2.8-1-4.2-1.4c-1.5-0.5-3.1-0.9-4.7-1.2c-0.8-0.3-1.7-0.5-2.7-0.8
				c-0.8-0.2-1.9-0.7-2.7-0.5C26.5,31.8,26.2,32.5,26.6,32.8L26.6,32.8z"/>
		</g>
	</g>
	<g>
		<g>
			<path class="st0" d="M40.1,36.3c0.3,2.8,0.2,5.7,0.3,8.5c0.1,2.6,0.1,5.3,0.3,7.9c0.1,1.1,1.9,1.1,1.8,0
				c-0.2-2.7-0.3-5.4-0.4-8.2c0-1.4,0-2.8-0.1-4.2s0.2-3.3-0.6-4.5C41.1,35.4,40.1,35.6,40.1,36.3L40.1,36.3z"/>
		</g>
	</g>
	<g>
		<g>
			<path class="st0" d="M30.1,58.3c0.5-0.5,1.4-0.8,2.1-1.1c0.6-0.3,1.1-0.6,1.7-0.8c0.9-0.3,1.8-0.6,2.8-1c1.1-0.4,2.2-0.8,3.4-1.1
				c0.6-0.2,1.4-0.4,2-0.7c0.8-0.6,0.3-1.7-0.7-1.5c0.4-0.1-0.1,0-0.3,0.1c-0.1,0-0.3,0.1-0.4,0.2c-0.4,0.2-0.9,0.3-1.3,0.5
				c-1.2,0.4-2.3,0.8-3.5,1.2c-0.9,0.3-1.8,0.6-2.6,0.9s-1.5,0.7-2.3,1.1s-1.5,0.8-2,1.5C28.5,58.1,29.5,58.8,30.1,58.3L30.1,58.3z"
				/>
		</g>
	</g>
	<g>
		<g>
			<path class="st0" d="M19.1,42.2c-0.1-0.5-0.7-0.7-1.2-0.6c-0.2,0.1-0.4,0.2-0.5,0.3s-0.2,0.2-0.3,0.3c-0.1,0.3-0.2,0.6-0.2,0.9
				c0,0.3,0,0.5,0.1,0.8s0.2,0.6,0.5,0.8c0.3,0.3,0.8,0.5,1.2,0.5c0.5,0,0.9-0.2,1.3-0.5c0.4-0.4,0.6-0.9,0.5-1.4s-0.3-0.9-0.7-1.2
				c-0.2-0.1-0.4-0.3-0.5-0.4c-0.4-0.2-0.9-0.2-1.2,0.1c-0.2,0.2-0.3,0.6-0.2,0.9c0,0.1,0.1,0.2,0.1,0.2c0.1,0.1,0.2,0.2,0.3,0.3
				c0.1,0,0.1,0.1,0.2,0.1c0.1,0,0.2,0,0.2,0c0.2,0,0.4-0.1,0.5-0.2s0.2-0.2,0.3-0.4s0.1-0.4,0-0.6l0,0c0,0.2-0.1,0.5-0.1,0.7l0,0
				c-0.2,0.1-0.4,0.3-0.5,0.4l0,0c-0.1,0-0.2,0-0.2,0l0,0c-0.2,0-0.3-0.1-0.5-0.1c0.1,0.1,0.3,0.2,0.4,0.3c-0.1,0-0.1-0.1-0.2-0.1
				c0.1,0.1,0.2,0.2,0.3,0.3c0-0.1-0.1-0.1-0.1-0.2c0,0.1,0.1,0.1,0.1,0.2c0-0.1-0.1-0.1-0.1-0.2c0,0.1,0,0.1,0.1,0.2
				c0-0.1,0-0.2,0-0.2c0,0.1,0,0.1,0,0.2c0-0.1,0-0.2,0-0.2c0,0.1,0,0.1-0.1,0.2c0-0.1,0.1-0.1,0.1-0.2c0,0.1-0.1,0.1-0.1,0.2
				c0-0.1,0.1-0.1,0.1-0.2c0,0.1-0.1,0.1-0.2,0.2c0.1,0,0.1-0.1,0.2-0.1c-0.1,0-0.1,0.1-0.2,0.1c0.1,0,0.1-0.1,0.2-0.1
				c0-0.1-0.1,0-0.1,0c0.1,0,0.2,0,0.2,0c-0.1,0-0.2,0-0.2,0c0.1,0,0.2,0,0.2,0c-0.1,0-0.1,0-0.2-0.1c0.1,0,0.1,0.1,0.2,0.1
				c-0.1,0-0.1-0.1-0.2-0.1c0.1,0,0.1,0.1,0.2,0.1c-0.1,0-0.1-0.1-0.1-0.1c0,0.1,0.1,0.1,0.1,0.2c-0.1-0.1-0.1-0.2-0.2-0.3
				c0,0.1,0.1,0.1,0.1,0.2c-0.1-0.1-0.1-0.3-0.1-0.4c0,0.1,0,0.2,0,0.2c0-0.2,0-0.3,0-0.5c0,0.1,0,0.2,0,0.2c0-0.1,0-0.2,0.1-0.3
				c0,0.1-0.1,0.1-0.1,0.2c0-0.1,0.1-0.1,0.1-0.2c0,0.1-0.1,0.1-0.1,0.2c0,0,0,0,0.1-0.1c-0.1,0-0.1,0.1-0.2,0.1h0.1
				c-0.1,0-0.1,0.1-0.2,0.1h0.1c-0.1,0-0.1,0-0.2,0c0.1,0,0.2,0,0.3,0c-0.1,0-0.1,0-0.2,0c0.1,0,0.2,0,0.2,0c-0.1,0-0.1,0-0.2,0
				c0.2,0,0.3,0,0.4-0.1C19.1,42.8,19.2,42.5,19.1,42.2L19.1,42.2z"/>
		</g>
	</g>
	<g>
		<g>
			<path class="st0" d="M37.6,28c-0.3,0.6-0.2,1.4-0.2,2s0.1,1.2,0.1,1.8c0.1,1.3,0.1,2.5,0.1,3.8c0,1.1,1.8,1.1,1.7,0
				c0-1.3,0-2.5-0.1-3.8c0-0.6-0.1-1.2-0.1-1.8s0-1.5-0.3-2S37.9,27.5,37.6,28L37.6,28z"/>
		</g>
	</g>
	<g>
		<g>
			<path class="st0" d="M37.8,28.9c0.6,0.3,1.3,0.5,1.9,0.6c1.2,0.3,2.4,0.6,3.5,0.9c2.5,0.6,5.1,1.2,7.6,1.8
				c0.6,0.1,1.2,0.3,1.8,0.4c1.1,0.2,1.6-1.5,0.5-1.7c-1.6-0.3-3.2-0.8-4.7-1.1c-2.6-0.6-5.2-1.3-7.7-1.9c-0.8-0.2-1.6-0.4-2.4-0.4
				C37.5,27.6,37.2,28.6,37.8,28.9L37.8,28.9z"/>
		</g>
	</g>
	<g>
		<g>
			<path class="st0" d="M52.3,31.5c-0.6,0.9-0.5,2.3-0.4,3.3c0.1,1.4,0.2,2.7,0.3,4.1c0,1.5-0.1,3,0,4.6c0.1,1.4-0.1,2.9,0.3,4.2
				c0.3,1.1,2,0.6,1.7-0.5c-0.2-0.7-0.1-1.4-0.1-2.1c0-0.6-0.1-1.3-0.1-1.9c-0.1-1.5,0-2.9,0-4.4c-0.2-1.3-0.4-2.6-0.4-4
				c-0.1-1,0.1-2.1-0.1-3.2C53.4,31,52.6,31.1,52.3,31.5L52.3,31.5z"/>
		</g>
	</g>
	<g>
		<g>
			<path class="st0" d="M40.8,44.9c0.4,0.5,1.3,0.8,1.9,1s1.1,0.4,1.7,0.5c0.9,0.3,1.8,0.5,2.7,0.7c1.9,0.4,3.9,0.8,5.8,1.2
				c1.1,0.2,1.6-1.4,0.5-1.7c-1.9-0.5-3.8-0.8-5.7-1.2c-0.9-0.2-1.8-0.4-2.7-0.6c-0.5-0.1-1.1-0.3-1.6-0.5c-0.6-0.2-1.4-0.6-2.1-0.5
				C40.7,43.9,40.5,44.5,40.8,44.9L40.8,44.9z"/>
		</g>
	</g>
	<g>
		<g>
			<path class="st0" d="M38.8,28.8c0.5-0.6,1.4-0.9,2.1-1.3c1.1-0.6,2.2-1.3,3.3-1.9c1.1-0.6,2.3-1,3.4-1.4c1.2-0.4,2.3-0.9,3.4-1.3
				c1-0.4,0.6-2-0.5-1.6c-1.2,0.4-2.4,1-3.7,1.4c-1.3,0.4-2.6,0.9-3.8,1.6c-1.1,0.7-2.3,1.4-3.4,2c-0.8,0.5-1.8,0.9-2.1,1.8
				C37.3,28.7,38.4,29.4,38.8,28.8L38.8,28.8z"/>
		</g>
	</g>
	<g>
		<g>
			<path class="st0" d="M53.2,32.5c2.1-1,4.1-2,6.2-3c1-0.5,2-0.9,3-1.4c0.9-0.5,1.9-0.8,2.7-1.5c0.7-0.5-0.1-1.6-0.8-1.4
				c-1,0.3-1.9,0.9-2.8,1.4c-1,0.5-2,1-3,1.5c-2.1,1-4.2,1.8-6.1,3.1C51.7,31.8,52.3,32.9,53.2,32.5L53.2,32.5z"/>
		</g>
	</g>
	<g>
		<g>
			<path class="st0" d="M50.4,22.6c0.6,0.6,1.7,0.7,2.4,1c1,0.3,1.9,0.6,2.9,0.8c1.5,0.4,3,0.8,4.5,1.2c0.7,0.2,1.5,0.4,2.2,0.7
				c0.7,0.2,1.4,0.6,2.2,0.6c0.8,0,1.2-1.2,0.4-1.5c-1.3-0.6-2.8-1-4.2-1.4c-1.5-0.5-3.1-0.9-4.7-1.2c-0.9-0.2-1.9-0.5-2.8-0.8
				c-0.8-0.2-1.9-0.7-2.7-0.5C50.2,21.6,50,22.2,50.4,22.6L50.4,22.6z"/>
		</g>
	</g>
	<g>
		<g>
			<path class="st0" d="M63.9,26c0.3,2.8,0.2,5.7,0.3,8.5c0.1,2.6,0.1,5.3,0.3,7.9c0.1,1.1,1.9,1.1,1.8,0c-0.2-2.7-0.3-5.4-0.4-8.2
				c0-1.4,0-2.8-0.1-4.2s0.2-3.3-0.6-4.5C64.8,25.1,63.8,25.3,63.9,26L63.9,26z"/>
		</g>
	</g>
	<g>
		<g>
			<path class="st0" d="M53.9,48c0.5-0.5,1.4-0.8,2.1-1.1c0.6-0.3,1.1-0.6,1.7-0.8c0.9-0.3,1.8-0.6,2.8-1c1.1-0.4,2.2-0.8,3.4-1.1
				c0.6-0.2,1.4-0.4,2-0.7c0.8-0.6,0.3-1.7-0.7-1.5c0.4-0.1-0.1,0-0.3,0.1c-0.1,0-0.3,0.1-0.4,0.2c-0.4,0.2-0.9,0.3-1.3,0.5
				c-1.2,0.4-2.3,0.8-3.5,1.2c-0.9,0.3-1.8,0.6-2.6,0.9c-0.8,0.3-1.5,0.7-2.3,1.1s-1.5,0.8-2,1.5C52.2,47.8,53.3,48.5,53.9,48
				L53.9,48z"/>
		</g>
	</g>
	<g>
		<g>
			<path class="st0" d="M22.4,47.1c0-0.3-0.1-0.5-0.3-0.7c-0.2-0.1-0.4-0.3-0.6-0.3c-0.4-0.1-0.8,0-1.2,0.2s-0.6,0.7-0.6,1.2
				c0,0.4,0.1,0.7,0.3,1.1c0.1,0.2,0.2,0.4,0.3,0.5c0.2,0.4,0.5,0.7,1,0.8c0.5,0.2,0.9,0,1.3-0.3c0.1-0.1,0.1-0.1,0.2-0.2
				c0.1-0.1,0.1-0.1,0.2-0.2c0.1-0.2,0.2-0.4,0.2-0.5c0.1-0.5,0.1-1-0.1-1.4c-0.1-0.2-0.2-0.3-0.3-0.4s-0.2-0.3-0.4-0.4
				c-0.1-0.1-0.3-0.1-0.4-0.1c-0.2,0-0.3,0-0.4,0.1c-0.3,0.1-0.4,0.4-0.4,0.7c0,0.1,0,0.2,0,0.3c0.1,0.2,0.1,0.3,0.3,0.4l0.1,0.1
				c0.1,0.1,0.1,0.1,0.2,0.2c0-0.1-0.1-0.1-0.1-0.2c0,0.1,0.1,0.1,0.1,0.2c0-0.1-0.1-0.1-0.1-0.2c0,0.1,0,0.1,0.1,0.2
				c0-0.1,0-0.2,0-0.2c0,0.1,0,0.2,0,0.2c0-0.1,0-0.2,0-0.2c0,0.1-0.1,0.3-0.1,0.4c0-0.1,0.1-0.1,0.1-0.2c0,0.1-0.1,0.2-0.1,0.2
				c0-0.1,0.1-0.1,0.1-0.2l-0.1,0.1c0.1,0,0.1-0.1,0.2-0.1c0,0-0.1,0-0.1,0.1c0.1,0,0.1-0.1,0.2-0.1h-0.1c0.1,0,0.2,0,0.2,0H22
				c0.1,0,0.2,0,0.2,0h-0.1c0.1,0,0.1,0.1,0.2,0.1l-0.1-0.1c0.1,0,0.1,0.1,0.2,0.1c-0.1-0.1-0.1-0.1-0.2-0.2c0,0.1,0.1,0.1,0.1,0.2
				c-0.2-0.3-0.4-0.5-0.5-0.8c0,0.1,0.1,0.1,0.1,0.2c0-0.1-0.1-0.2-0.1-0.4c0,0.1,0,0.2,0,0.2c0-0.1,0-0.1,0-0.2c0,0.1,0,0.2,0,0.2
				v-0.1c0,0.1-0.1,0.1-0.1,0.2c0,0,0-0.1,0.1-0.1c0,0.1-0.1,0.1-0.1,0.2l0.1-0.1c-0.1,0-0.1,0.1-0.2,0.1l0.1-0.1
				c-0.1,0-0.1,0.1-0.2,0.1c0.1,0,0.2-0.1,0.3-0.1c-0.1,0-0.1,0-0.2,0c0.1,0,0.2,0,0.3,0c-0.1,0-0.1,0-0.2,0c0,0,0,0,0.1,0
				s0.2,0,0.2,0c-0.1,0-0.1,0-0.2,0c0,0,0,0,0.1,0c-0.1,0-0.1,0-0.2-0.1l0,0c0.1,0.1,0.2,0.1,0.3,0.1s0.2,0,0.3-0.1
				C22.3,47.6,22.4,47.3,22.4,47.1L22.4,47.1z"/>
		</g>
	</g>
	<g>
		<g>
			<path class="st0" d="M26.5,52.2c0.1-0.2,0.1-0.3,0.1-0.5c0-0.1,0-0.1,0-0.2c0-0.2,0-0.4,0-0.6c-0.1-0.5-0.4-0.8-0.8-1.1
				c-0.2-0.1-0.4-0.2-0.5-0.2c-0.2-0.1-0.5-0.1-0.7,0c-0.2,0-0.4,0.2-0.6,0.3c-0.2,0.2-0.3,0.4-0.4,0.6c0,0.3,0,0.4,0,0.6
				c0,0.1,0,0.2,0,0.3c0,0.3,0.1,0.6,0.2,0.9c0.1,0.3,0.3,0.7,0.5,0.9c0.2,0.2,0.4,0.3,0.6,0.3c0.2,0.1,0.5,0.1,0.8,0
				c0.5-0.2,0.8-0.5,1.1-0.9c0.1-0.2,0.2-0.4,0.3-0.6c0-0.1,0-0.1,0.1-0.2c0.1-0.2,0-0.4,0-0.6c0-0.1-0.1-0.1-0.1-0.2
				S27,50.9,27,50.8c-0.1-0.1-0.3-0.2-0.5-0.2s-0.3,0-0.5,0.1s-0.3,0.2-0.4,0.4c-0.1,0.2-0.1,0.3-0.2,0.5c0-0.1,0.1-0.1,0.1-0.2
				c-0.1,0.2-0.2,0.3-0.3,0.4c0-0.1,0.1-0.1,0.1-0.2c-0.1,0.1-0.2,0.2-0.3,0.3c0.1,0,0.1-0.1,0.2-0.1c-0.1,0-0.1,0.1-0.2,0.1
				c0.1,0,0.1-0.1,0.2-0.1h-0.1c0.1,0,0.2,0,0.2,0c-0.1,0-0.1,0-0.2,0c0.1,0,0.2,0,0.2,0h-0.1c0.1,0,0.1,0.1,0.2,0.1
				c0,0-0.1,0-0.1-0.1c0.1,0,0.1,0.1,0.2,0.1l-0.1-0.1c0,0.1,0.1,0.1,0.1,0.2c-0.1-0.1-0.1-0.2-0.2-0.3c0,0.1,0.1,0.1,0.1,0.2
				c-0.1-0.2-0.1-0.4-0.2-0.6c0,0.1,0,0.2,0,0.2c0-0.2,0-0.3,0-0.5c0,0.1,0,0.2,0,0.2c0-0.1,0-0.2,0.1-0.3c0,0.1-0.1,0.1-0.1,0.2
				c0,0,0-0.1,0.1-0.1c0,0.1-0.1,0.1-0.1,0.2c0,0,0-0.1,0.1-0.1c-0.1,0-0.1,0.1-0.2,0.1c0,0,0.1,0,0.1-0.1c-0.1,0-0.1,0.1-0.2,0.1
				h0.1c-0.1,0-0.2,0-0.2,0H25c-0.1,0-0.2,0-0.2,0c0.1,0,0.2,0,0.3,0.1c-0.1,0-0.1-0.1-0.2-0.1c0.1,0.1,0.2,0.1,0.3,0.2
				c-0.1,0-0.1-0.1-0.2-0.1c0.1,0,0.1,0.1,0.1,0.1c0-0.1-0.1-0.1-0.1-0.2c0,0.1,0.1,0.1,0.1,0.2c0-0.1-0.1-0.1-0.1-0.2
				c0.1,0.1,0.1,0.3,0.1,0.4c0-0.1,0-0.1,0-0.2c0,0.1,0,0.1,0,0.2c0,0.2,0,0.3,0.1,0.5C25.6,52.7,26.3,52.7,26.5,52.2L26.5,52.2z"/>
		</g>
	</g>
	<g>
		<g>
			<path class="st0" d="M36.9,45.8c0-0.1,0-0.2,0-0.3c0-0.2-0.1-0.3-0.2-0.5c-0.1-0.1-0.3-0.2-0.4-0.3c-0.2-0.1-0.5-0.1-0.7,0
				c-0.4,0.1-0.7,0.3-1,0.6c-0.3,0.3-0.5,0.7-0.5,1.1c-0.1,0.4-0.1,0.9,0.1,1.2c0.2,0.4,0.4,0.8,0.9,1c0.2,0.1,0.5,0.2,0.7,0.2
				c0.3,0,0.5-0.1,0.7-0.2c0.3-0.1,0.6-0.4,0.8-0.7c0.2-0.3,0.3-0.6,0.4-0.9c0.1-0.4,0.1-0.8,0-1.2c-0.1-0.3-0.2-0.5-0.4-0.7
				s-0.4-0.3-0.7-0.4c-0.2-0.1-0.5,0-0.7,0.1s-0.4,0.3-0.4,0.5c-0.1,0.2,0,0.5,0.1,0.7s0.3,0.3,0.5,0.4l0,0c-0.1,0-0.1-0.1-0.2-0.1
				c0.1,0,0.1,0.1,0.2,0.1c-0.1,0-0.1-0.1-0.2-0.1l0.1,0.1c0-0.1-0.1-0.1-0.1-0.2c0,0.1,0.1,0.1,0.1,0.2c0-0.1-0.1-0.1-0.1-0.2
				c0,0.1,0.1,0.2,0.1,0.3c0-0.1,0-0.2,0-0.2c0,0.1,0,0.3,0,0.4c0-0.1,0-0.2,0-0.2c0,0.2-0.1,0.3-0.1,0.5c0-0.1,0.1-0.1,0.1-0.2
				c-0.1,0.1-0.1,0.3-0.2,0.4c0-0.1,0.1-0.1,0.1-0.2c-0.1,0.1-0.1,0.2-0.2,0.2c0.1,0,0.1-0.1,0.2-0.1c-0.1,0-0.1,0.1-0.2,0.1
				c0.1,0,0.1-0.1,0.2-0.1c0,0-0.1,0-0.2,0c0.1,0,0.2,0,0.2,0c-0.1,0-0.1,0-0.2,0c0.1,0,0.2,0,0.2,0c-0.1,0-0.1,0-0.2,0
				c0.1,0,0.1,0.1,0.2,0.1c-0.1,0-0.1-0.1-0.2-0.1c0.1,0,0.1,0.1,0.2,0.1c-0.1-0.1-0.1-0.1-0.2-0.2c0,0.1,0.1,0.1,0.1,0.2
				c-0.1-0.1-0.1-0.1-0.1-0.2c0,0.1,0.1,0.1,0.1,0.2c0-0.1-0.1-0.2-0.1-0.3c0,0.1,0,0.2,0,0.2c0-0.2,0-0.3,0-0.5c0,0.1,0,0.2,0,0.2
				c0-0.2,0.1-0.3,0.1-0.5c0,0.1-0.1,0.1-0.1,0.2c0.1-0.1,0.1-0.3,0.2-0.4c0,0.1-0.1,0.1-0.1,0.2c0.1-0.1,0.1-0.2,0.2-0.2
				c-0.1,0-0.1,0.1-0.2,0.1c0.1-0.1,0.2-0.1,0.3-0.2c-0.1,0-0.1,0.1-0.2,0.1c0.1,0,0.2-0.1,0.2-0.1c-0.1,0-0.1,0-0.2,0H36
				c0.2,0,0.2,0,0.4-0.1c-0.1,0-0.1,0-0.2,0.1h0.1c-0.1,0-0.1,0-0.2,0l0,0c-0.2-0.1-0.4-0.2-0.5-0.3c-0.1-0.2,0-0.1,0,0
				c0.1,0.2,0.3,0.4,0.6,0.4C36.5,46.2,36.8,46.1,36.9,45.8L36.9,45.8z"/>
		</g>
	</g>
	<g>
		<g>
			<path class="st0" d="M31.4,37.6c0-0.1,0-0.2,0-0.3C31.4,37.4,31.4,37.4,31.4,37.6c0-0.5-0.3-0.9-0.7-1.1
				c-0.3-0.2-0.6-0.3-0.9-0.2c-0.3,0-0.7,0.1-1,0.3s-0.6,0.5-0.7,0.9c-0.1,0.4-0.1,0.8,0.1,1.1c0.2,0.3,0.5,0.5,0.8,0.6
				c0.1,0,0.3,0.1,0.4,0.1c0.2,0,0.3,0,0.5-0.1c0.1,0,0.2-0.1,0.3-0.1s0.2-0.1,0.3-0.2c0.3-0.2,0.5-0.4,0.7-0.7
				C31.3,38.1,31.3,37.9,31.4,37.6c0,0,0-0.1,0-0.3v-0.1c0-0.1,0-0.2,0-0.3s-0.1-0.2-0.1-0.2c0-0.1-0.1-0.1-0.1-0.2
				c-0.1,0-0.1-0.1-0.2-0.1c-0.2-0.1-0.4-0.1-0.6-0.1c-0.2,0-0.3,0.1-0.4,0.2c-0.1,0.1-0.3,0.3-0.3,0.5c0,0.1,0,0.2,0,0.3v0.1
				c0-0.1,0-0.2,0-0.2c0,0.1,0,0.1-0.1,0.2c0-0.1,0.1-0.1,0.1-0.2c0,0.1-0.1,0.1-0.1,0.2c0-0.1,0.1-0.1,0.1-0.2
				c-0.1,0.1-0.1,0.1-0.2,0.2c0.1,0,0.1-0.1,0.2-0.1c-0.1,0.1-0.2,0.1-0.3,0.2c0.1,0,0.1-0.1,0.2-0.1c-0.1,0-0.2,0.1-0.3,0.1
				c0.1,0,0.2,0,0.2,0c-0.1,0-0.2,0-0.2,0c0.1,0,0.2,0,0.2,0h-0.1c0.1,0,0.2,0,0.2,0s-0.1,0-0.1-0.1c0.1,0,0.1,0.1,0.2,0.1
				c0,0,0,0-0.1-0.1c0,0.1,0.1,0.1,0.1,0.2c0,0,0-0.1-0.1-0.1c0,0.1,0.1,0.1,0.1,0.2v-0.1c0,0.1,0,0.2,0,0.2c0-0.1,0-0.1,0-0.2
				c0,0.1,0,0.2,0,0.2c0-0.1,0-0.1,0-0.2c0,0.1-0.1,0.1-0.1,0.2c0,0,0-0.1,0.1-0.1c0,0.1-0.1,0.1-0.1,0.2l0.1-0.1
				c-0.1,0-0.1,0.1-0.2,0.1c0.1,0,0.1-0.1,0.2-0.1c-0.1,0-0.1,0.1-0.2,0.1c0.1,0,0.2-0.1,0.4-0.1c-0.1,0-0.2,0-0.2,0
				c0.1,0,0.3,0,0.4,0c-0.1,0-0.1,0-0.2,0c0.1,0,0.2,0,0.2,0c-0.1,0-0.1,0-0.2,0c0.1,0,0.2,0,0.3,0.1c-0.1,0-0.1,0-0.2-0.1
				c0.1,0,0.2,0.1,0.2,0.1c-0.1,0-0.1,0-0.2-0.1h0.1L30,37.7c0.1,0.1,0.2,0.1,0.3,0.2c-0.1,0-0.1,0-0.2-0.1c0,0,0,0,0.1,0l-0.1-0.1
				l0,0c0.2,0.2,0.4,0.2,0.7,0.1C31.2,38,31.3,37.8,31.4,37.6L31.4,37.6z"/>
		</g>
	</g>
	<g>
		<g>
			<path class="st0" d="M25,34.8c-0.1,0-0.1-0.1-0.2-0.1c-0.1,0-0.2,0-0.2,0c0.1,0,0.1,0,0.2,0c-0.1,0-0.2,0-0.3,0s-0.2,0-0.3,0
				s-0.3,0.1-0.4,0.1c0.1,0,0.1-0.1,0.2-0.1c-0.1,0-0.2,0.1-0.3,0.1c-0.1,0.1-0.2,0.1-0.2,0.2c-0.1,0.1-0.2,0.2-0.3,0.3
				c-0.2,0.2-0.2,0.5-0.3,0.8c0,0.1,0,0.3,0,0.4c0,0.1,0.1,0.2,0.1,0.4c0.2,0.3,0.4,0.5,0.8,0.6c0.7,0.2,1.3-0.1,1.8-0.6l0.1-0.1
				c0.1-0.1,0.2-0.2,0.2-0.3c0.1-0.1,0.1-0.2,0.1-0.3c0,0,0,0,0-0.1s0-0.2,0-0.3c0,0,0,0,0-0.1s0-0.2,0-0.3s-0.1-0.2-0.1-0.3
				c-0.1-0.1-0.2-0.2-0.3-0.3c-0.3-0.2-0.6-0.4-1-0.4c-0.2,0-0.3,0-0.5,0.1L24,34.6l-0.1,0.1c-0.2,0.2-0.3,0.5-0.3,0.8
				c0,0.1,0,0.2,0.1,0.3c0,0.1,0.1,0.2,0.2,0.3c0.1,0,0.1,0.1,0.2,0.1c0.1,0.1,0.2,0.1,0.3,0.1s0.1,0,0.2,0c0.1,0,0.2,0,0.3-0.1
				c0.2-0.1,0.3-0.3,0.4-0.5c0,0,0,0,0-0.1c0,0.1-0.1,0.1-0.1,0.2c0,0,0,0,0-0.1c0,0.1-0.1,0.1-0.1,0.2c0,0,0-0.1,0.1-0.1
				c-0.1,0-0.1,0.1-0.2,0.1c0,0,0,0,0.1,0C25,35.9,25,36,24.9,36c0,0,0,0,0.1,0c-0.1,0-0.2,0-0.2,0h0.1c-0.1,0-0.2,0-0.2,0h0.1
				c-0.1,0-0.1-0.1-0.2-0.1c0.1,0,0.1,0.1,0.1,0.1c-0.1,0-0.1-0.1-0.2-0.1l0.1,0.1c0-0.1-0.1-0.1-0.1-0.2c0,0,0,0.1,0.1,0.1
				c0-0.1-0.1-0.1-0.1-0.2v0.1c0-0.1,0-0.2,0-0.2v0.1c0-0.1,0-0.2,0-0.2v0.1c0-0.1,0.1-0.1,0.1-0.2c0,0.1-0.1,0.1-0.1,0.1
				c0-0.1,0.1-0.1,0.1-0.2c-0.1,0.1-0.2,0.2-0.2,0.2c0.1,0,0.1-0.1,0.2-0.1c-0.1,0.1-0.2,0.2-0.4,0.2c0.1,0,0.1-0.1,0.2-0.1
				c-0.1,0-0.1,0-0.2,0.1c0.1,0,0.2,0,0.2,0c-0.1,0-0.1,0-0.2,0c0.1,0,0.2,0,0.2,0h-0.1c0.1,0,0.1,0.1,0.2,0.1c0,0-0.1,0-0.1-0.1
				c0.1,0,0.1,0.1,0.2,0.1c0,0-0.1,0-0.1-0.1c0,0.1,0.1,0.1,0.1,0.2c0,0,0-0.1-0.1-0.1c0,0.1,0.1,0.1,0.1,0.2v-0.1
				c0,0.1,0,0.1,0,0.2c0-0.1,0-0.1,0-0.2c0,0.1,0,0.1,0,0.2c0-0.1,0-0.1,0.1-0.2c0,0.1-0.1,0.1-0.1,0.2c0-0.1,0.1-0.2,0.1-0.3
				c0,0.1-0.1,0.1-0.1,0.2c0-0.1,0.1-0.1,0.2-0.2c-0.1,0-0.1,0.1-0.2,0.1c0.1,0,0.1-0.1,0.2-0.1c-0.1,0-0.1,0-0.2,0.1
				c0.1,0,0.2-0.1,0.3-0.1c-0.1,0-0.1,0-0.2,0.1c0.1,0,0.1,0,0.2,0c0.1,0,0.2-0.1,0.3-0.2c0.1-0.1,0.2-0.2,0.2-0.4
				c0-0.1,0-0.2,0-0.3C25.2,35,25.1,34.9,25,34.8L25,34.8z"/>
		</g>
	</g>
	<g>
		<g>
			<path class="st0" d="M62,30.7c-0.1-0.1-0.3-0.1-0.4-0.1s-0.2,0-0.3,0c-0.2,0-0.3,0.2-0.5,0.3c-0.2,0.2-0.3,0.4-0.4,0.7
				c0,0.3-0.1,0.6,0,0.9c0.1,0.2,0.2,0.3,0.3,0.5c0.1,0.1,0.2,0.2,0.3,0.2c0.2,0.1,0.4,0.2,0.6,0.1c0.2,0,0.3,0,0.5-0.1
				s0.4-0.2,0.6-0.3c0.1-0.1,0.2-0.3,0.3-0.5c0.1-0.3,0-0.7-0.1-1s-0.3-0.4-0.6-0.6C62.3,30.7,62.1,30.6,62,30.7
				c-0.1-0.2-0.3-0.2-0.4-0.2c-0.2,0-0.3,0-0.5,0.1l0,0c-0.1,0-0.1,0.1-0.2,0.2c-0.1,0.1-0.1,0.2-0.2,0.2c-0.1,0.2-0.1,0.3-0.1,0.5
				c0,0.1,0,0.1,0,0.2c0,0.1,0.1,0.2,0.1,0.3c0.1,0.1,0.2,0.2,0.4,0.3c0.1,0,0.3,0,0.4,0c0.2,0,0.4-0.2,0.5-0.4l0.1-0.1
				c0,0.1-0.1,0.1-0.1,0.2c0,0,0,0,0.1-0.1C62,31.9,62,32,61.9,32c0,0,0,0,0.1,0c-0.1,0-0.1,0.1-0.2,0.1c0,0,0,0,0.1,0
				c-0.1,0-0.1,0-0.2,0h0.1c-0.1,0-0.1,0-0.2,0h0.1c-0.1,0-0.1-0.1-0.2-0.1c0.1,0,0.1,0.1,0.2,0.1c-0.1,0-0.1-0.1-0.2-0.1
				c0.1,0.1,0.1,0.1,0.2,0.2c0-0.1-0.1-0.1-0.1-0.2c0,0.1,0.1,0.1,0.1,0.2c0-0.1-0.1-0.1-0.1-0.2v0.1c0-0.1,0-0.1,0-0.2V32
				c0-0.1,0-0.1,0-0.2v0.1c0-0.1,0.1-0.1,0.1-0.2c0,0,0,0.1-0.1,0.1c0-0.1,0.1-0.1,0.1-0.2l-0.1,0.1c0.1,0,0.1-0.1,0.2-0.1
				c-0.1,0-0.1,0.1-0.2,0.1c0.1,0,0.1-0.1,0.2-0.1c-0.1,0-0.2,0.1-0.2,0.1c0.1,0,0.1,0,0.2,0h-0.1c0.1,0,0.1,0,0.2,0h-0.1
				c0.1,0,0.1,0.1,0.2,0.1c0,0-0.1,0-0.1-0.1c0.1,0,0.1,0.1,0.2,0.1L62,31.7c0,0.1,0.1,0.1,0.1,0.2L62,31.8c0,0.1,0.1,0.1,0.1,0.2
				c0-0.1-0.1-0.2-0.1-0.2c0,0.1,0,0.1,0,0.2c0-0.1,0-0.2,0-0.3c0,0.1,0,0.1,0,0.2c0-0.1,0-0.1,0.1-0.2c0,0.1-0.1,0.1-0.1,0.2
				c0-0.1,0.1-0.1,0.1-0.2c0,0.1-0.1,0.1-0.1,0.2c0,0,0-0.1,0.1-0.1c0,0.1-0.1,0.1-0.1,0.2c0,0,0,0,0.1-0.1C62,31.9,62,32,61.9,32
				c0.1,0,0.1-0.1,0.2-0.2L62,31.9c0,0,0,0,0.1,0c-0.1,0-0.1,0-0.2,0.1c0.1,0,0.1,0,0.2-0.1c0.1,0,0.1-0.1,0.2-0.1l-0.1,0.1l0,0
				c0.2-0.1,0.3-0.3,0.3-0.6C62.3,31,62.2,30.8,62,30.7L62,30.7z"/>
		</g>
	</g>
	<g>
		<g>
			<path class="st0" d="M62.3,35.4L62.3,35.4c-0.1-0.1-0.2-0.2-0.2-0.2c-0.1-0.1-0.3-0.1-0.5-0.1c-0.3,0-0.6,0.1-0.8,0.4
				c-0.2,0.2-0.3,0.4-0.4,0.7s-0.1,0.5,0,0.8c0,0.1,0.1,0.2,0.1,0.3v0.1c0.1,0.2,0.2,0.3,0.4,0.4c0.1,0.1,0.2,0.1,0.3,0.1h0.1
				c0.1,0,0.2,0,0.3,0c0.1,0,0.2,0,0.3-0.1c0.2-0.1,0.4-0.2,0.6-0.4c0.1-0.1,0.2-0.3,0.3-0.4c0.1-0.2,0.2-0.4,0.2-0.7
				c0-0.1,0-0.2,0-0.3s-0.1-0.2-0.1-0.3c-0.1-0.1-0.1-0.2-0.2-0.3s-0.2-0.2-0.3-0.2C62.2,35.1,62,35,61.8,35c-0.1,0-0.2,0-0.3,0
				c0,0,0,0-0.1,0c-0.2,0.1-0.3,0.1-0.4,0.3c-0.1,0.1-0.2,0.3-0.3,0.5c0,0.2,0,0.4,0,0.6c0,0.1,0.1,0.2,0.2,0.3
				c0.1,0,0.1,0.1,0.2,0.1c0.1,0.1,0.2,0.1,0.3,0.1c0.1,0,0.1,0,0.2,0s0.1,0,0.2-0.1c0.1,0,0.1-0.1,0.2-0.1c0.1-0.1,0.2-0.1,0.2-0.2
				c0-0.1,0.1-0.1,0.1-0.2c0,0.1-0.1,0.1-0.1,0.2c0,0,0,0,0.1-0.1c-0.1,0-0.1,0.1-0.2,0.1c0,0,0,0,0.1,0c-0.1,0-0.1,0.1-0.2,0.1h0.1
				c-0.1,0-0.1,0-0.2,0H62c-0.1,0-0.1,0-0.2,0h0.1c-0.1,0-0.1-0.1-0.2-0.1c0,0,0.1,0,0.1,0.1c-0.1,0-0.1-0.1-0.2-0.1l0.1,0.1
				c0-0.1-0.1-0.1-0.1-0.2c0,0,0,0.1,0.1,0.1c0-0.1-0.1-0.1-0.1-0.2v0.1c0-0.1,0-0.1,0-0.2c0,0.1,0,0.1,0,0.2c0-0.1,0-0.1,0-0.2
				c0,0.1,0,0.1-0.1,0.2c0-0.1,0.1-0.1,0.1-0.2c0,0.1-0.1,0.1-0.1,0.2c0-0.1,0.1-0.1,0.1-0.2c0,0.1-0.1,0.1-0.1,0.1
				c0.1,0,0.1-0.1,0.2-0.1l-0.1,0.1c0.1,0,0.1-0.1,0.2-0.1h-0.1c0.1,0,0.1,0,0.2,0h-0.1c0.1,0,0.1,0,0.2,0c-0.1,0-0.1,0-0.2,0
				c0.1,0,0.1,0.1,0.2,0.1c0,0-0.1,0-0.1-0.1c0.1,0,0.1,0.1,0.2,0.1L62,36.2c0,0.1,0.1,0.1,0.1,0.2c0,0,0-0.1-0.1-0.1
				c0,0.1,0.1,0.1,0.1,0.2c0-0.1,0-0.1-0.1-0.2c0,0.1,0,0.1,0,0.2c0-0.1,0-0.2,0-0.2c0,0.1,0,0.1,0,0.2c0-0.1,0-0.2,0.1-0.3
				c0,0.1-0.1,0.1-0.1,0.2c0-0.1,0.1-0.1,0.1-0.2L62,36.3l0,0c0.1-0.1,0.1-0.1,0.2-0.2l-0.1,0.1c0,0,0,0,0.1-0.1l-0.1,0.1
				c0,0,0,0,0.1,0c-0.1,0-0.1,0-0.2,0.1c0.1,0,0.1-0.1,0.2-0.1c-0.1,0-0.1,0-0.2,0.1c0,0,0,0,0.1,0c-0.1,0-0.1,0-0.2,0
				c0,0,0,0,0.1,0c-0.1,0-0.1,0-0.2,0l0,0c0.2,0.1,0.5,0,0.7-0.3c0-0.1,0.1-0.2,0.1-0.3C62.5,35.7,62.4,35.6,62.3,35.4L62.3,35.4z"
				/>
		</g>
	</g>
	<g>
		<g>
			<path class="st0" d="M60.6,40.3c0,0.1-0.1,0.3-0.1,0.4c0-0.1,0-0.1,0-0.2c0,0.2-0.1,0.5,0,0.7c0,0.1,0.1,0.2,0.1,0.3
				s0.1,0.1,0.2,0.2c0.1,0.1,0.1,0.1,0.2,0.1c0.2,0.1,0.4,0.2,0.6,0.2c0.1,0,0.2,0,0.3,0H62c0.1,0,0.2-0.1,0.3-0.1
				c0.1-0.1,0.2-0.1,0.3-0.2c0.1-0.2,0.2-0.3,0.3-0.5c0-0.1,0.1-0.2,0.1-0.4c0-0.1,0-0.3,0-0.4v-0.1c0-0.1-0.1-0.2-0.1-0.3
				c-0.2-0.3-0.5-0.5-0.9-0.6c-0.1,0-0.2,0-0.4,0c-0.1,0-0.2,0-0.3,0c-0.1,0-0.2,0.1-0.3,0.1l-0.1,0.1l-0.1,0.1
				c-0.2,0.2-0.2,0.3-0.3,0.5c-0.1,0.2-0.1,0.3-0.1,0.5c0,0.1,0,0.1,0,0.2c0,0.1,0.1,0.2,0.1,0.3s0.1,0.1,0.1,0.1
				c0.1,0.1,0.2,0.1,0.3,0.1c0.1,0,0.3,0,0.4,0s0.2-0.1,0.3-0.1c0.1-0.1,0.2-0.1,0.2-0.2c0.1-0.1,0.1-0.2,0.2-0.3
				c0-0.1,0-0.1,0.1-0.2c0,0.1-0.1,0.1-0.1,0.2c0,0,0-0.1,0.1-0.1c0,0.1-0.1,0.1-0.1,0.2c0,0,0,0,0.1-0.1c-0.1,0-0.1,0.1-0.2,0.1
				c0,0,0,0,0.1,0c-0.1,0-0.1,0.1-0.2,0.1h0.1c-0.1,0-0.1,0-0.2,0c0.1,0,0.2,0,0.3,0c-0.1,0-0.1,0-0.2,0c0.1,0,0.1,0,0.2,0
				c-0.1,0-0.1-0.1-0.2-0.1c0,0,0.1,0,0.1,0.1c-0.1,0-0.1-0.1-0.2-0.1c0,0,0,0,0.1,0.1c0-0.1-0.1-0.1-0.1-0.2c0,0,0,0.1,0.1,0.1
				c0-0.1-0.1-0.1-0.1-0.2c0,0.1,0,0.1,0.1,0.2c0-0.1,0-0.1,0-0.2c0,0.1,0,0.1,0,0.2c0-0.1,0-0.1,0-0.2v0.1c0-0.1,0.1-0.1,0.1-0.2
				c0,0,0,0.1-0.1,0.1c0-0.1,0.1-0.1,0.1-0.2l-0.1,0.1l0.1-0.1l-0.1,0.1c0.1,0,0.1,0,0.2-0.1c-0.1,0-0.1,0-0.2,0c0.1,0,0.1,0,0.2,0
				c-0.1,0-0.2,0-0.2,0c0.1,0,0.1,0,0.2,0c-0.1,0-0.1,0-0.2,0c0.1,0,0.1,0,0.2,0c-0.1,0-0.1,0-0.2,0c0.1,0,0.1,0,0.2,0.1
				c0,0-0.1,0-0.1-0.1l0.1,0.1l-0.1-0.1l0.1,0.1c0,0-0.1-0.1-0.1-0.2c0,0.1,0,0.1,0.1,0.2c0-0.1,0-0.1,0-0.2c0,0.1,0,0.1,0,0.2v-0.1
				c0,0.1,0,0.1,0,0.2v-0.1c0-0.2,0-0.3-0.1-0.5c-0.1-0.1-0.2-0.2-0.4-0.3c-0.1,0-0.3,0-0.5,0.1C60.8,40,60.7,40.2,60.6,40.3
				L60.6,40.3z"/>
		</g>
	</g>
	<g>
		<g>
			<path class="st0" d="M57.1,40.7C57.1,40.7,57.1,40.6,57.1,40.7L57.1,40.7L57.1,40.7c0,0.2,0,0.2,0,0.3l0,0c0,0.1-0.1,0.2-0.1,0.3
				l0,0c-0.1,0.1-0.2,0.2-0.3,0.3c0.1,0,0.1-0.1,0.2-0.1c0.1-0.1,0.2-0.2,0.2-0.3c0.1-0.2,0-0.4-0.2-0.6c-0.1-0.1-0.2-0.2-0.4-0.2
				c-0.2,0-0.4,0.1-0.6,0.2c-0.2,0.1-0.4,0.4-0.6,0.6c-0.1,0.3-0.2,0.5-0.2,0.8s0.1,0.6,0.2,0.8s0.3,0.3,0.4,0.4
				c0.2,0.1,0.4,0.1,0.6,0.2c0.2,0,0.3,0,0.5,0s0.4-0.2,0.6-0.3c0.1-0.1,0.3-0.3,0.3-0.4c0.1-0.2,0.2-0.3,0.2-0.5s0.1-0.5,0-0.7
				s-0.2-0.4-0.3-0.5c-0.2-0.2-0.4-0.3-0.6-0.3c-0.2-0.1-0.5-0.1-0.7,0c-0.1,0-0.2,0.1-0.3,0.1c-0.1,0.1-0.2,0.1-0.3,0.2
				c-0.2,0.3-0.4,0.7-0.2,1c0.1,0.3,0.3,0.5,0.6,0.6c0.1,0,0.3,0,0.4-0.1s0.3-0.2,0.4-0.3S57,42,57,41.9c0,0.1-0.1,0.1-0.1,0.2
				c0,0,0,0,0-0.1c0,0.1-0.1,0.1-0.1,0.2c0,0,0,0,0.1-0.1c-0.1,0-0.1,0.1-0.2,0.1c0,0,0,0,0.1,0c-0.1,0-0.1,0.1-0.2,0.1h0.1
				c-0.1,0-0.1,0-0.2,0h0.1c-0.1,0-0.1,0-0.2,0c0.1,0,0.1,0,0.2,0c-0.1,0-0.1-0.1-0.2-0.1c0,0,0.1,0,0.1,0.1c-0.1,0-0.1-0.1-0.2-0.1
				l0.1,0.1c0-0.1-0.1-0.1-0.1-0.2c0,0,0,0.1,0.1,0.1c0-0.1-0.1-0.1-0.1-0.2v0.1c0-0.1,0-0.1,0-0.2V42c0-0.1,0-0.1,0-0.2
				c0,0.1,0,0.1-0.1,0.2c0-0.1,0.1-0.1,0.1-0.2c0,0.1-0.1,0.2-0.2,0.3c0-0.1,0.1-0.1,0.1-0.2c0,0.1-0.1,0.1-0.2,0.2
				c0.1,0,0.1-0.1,0.2-0.1l-0.1,0.1c0.1,0,0.1-0.1,0.2-0.1h-0.1c0.1,0,0.1,0,0.2,0c-0.1,0-0.2,0-0.3,0c0.1,0,0.1,0,0.2,0
				c-0.1,0-0.1,0-0.2,0c0.1,0,0.1,0.1,0.2,0.1c0,0-0.1,0-0.1-0.1c0.1,0,0.1,0.1,0.2,0.1L56.3,42c0,0.1,0.1,0.1,0.1,0.2
				c0,0,0-0.1-0.1-0.1c0,0.1,0.1,0.1,0.1,0.2c0-0.1,0-0.1,0-0.2c0,0.1,0,0.1,0,0.2c0-0.1,0-0.2,0-0.3c0,0.1,0,0.1,0,0.2
				c0-0.1,0-0.2,0.1-0.3c0,0.1-0.1,0.1-0.1,0.2c0-0.1,0.1-0.2,0.1-0.2c0,0.1-0.1,0.1-0.1,0.2c0,0,0-0.1,0.1-0.1
				c0.1-0.1,0.1-0.2,0.1-0.3c0,0.1,0,0.1-0.1,0.2c0-0.1,0.1-0.1,0.1-0.2l-0.1,0.1c0.1-0.1,0.2-0.2,0.2-0.3c-0.1,0.1-0.2,0.2-0.3,0.4
				l0,0c0,0-0.1,0-0.1,0.1l0,0c-0.2,0-0.3,0-0.5-0.1l0,0c-0.1-0.1-0.1-0.1-0.2-0.2l0,0c0,0,0-0.1-0.1-0.1l0,0c0-0.1,0-0.1,0-0.2
				c0,0.2,0.1,0.3,0.2,0.4c0.1,0.1,0.3,0.2,0.4,0.2s0.2,0,0.3-0.1C57.2,41.2,57.3,40.9,57.1,40.7L57.1,40.7z"/>
		</g>
	</g>
	<g>
		<g>
			<path class="st0" d="M55.9,36.7c-0.1,0.1-0.2,0.2-0.3,0.4c-0.1,0.1-0.2,0.3-0.2,0.4c-0.1,0.3,0,0.7,0.1,1
				c0.1,0.1,0.1,0.2,0.2,0.3S55.9,39,56,39c0.1,0.1,0.2,0.1,0.4,0.1c0.1,0,0.3,0,0.4,0c0.2,0,0.4-0.1,0.6-0.2
				c0.1-0.1,0.2-0.1,0.3-0.2c0.1-0.2,0.2-0.3,0.3-0.5v-0.1c0-0.1,0-0.2,0-0.3c0-0.4-0.1-0.7-0.4-0.9c-0.1-0.1-0.2-0.2-0.3-0.2
				c-0.1-0.1-0.2-0.1-0.4-0.1c-0.2,0-0.4,0-0.6,0s-0.4,0.2-0.5,0.3c-0.2,0.1-0.3,0.3-0.3,0.5c0,0.1-0.1,0.2-0.1,0.3s0,0.1,0,0.2
				c0,0.1,0,0.2,0.1,0.3c0,0.1,0.1,0.2,0.2,0.3s0.2,0.1,0.3,0.2c0.1,0.1,0.2,0.1,0.3,0.1c0.2,0,0.4-0.1,0.6-0.2
				c0-0.1,0.1-0.1,0.1-0.2c0.1-0.1,0.1-0.3,0.1-0.4l0,0c0,0.1,0,0.1,0,0.2c0-0.1,0-0.2,0.1-0.3c0,0.1-0.1,0.1-0.1,0.2
				c0-0.1,0-0.1,0.1-0.2c0,0.1-0.1,0.1-0.1,0.2l0.1-0.1c-0.1,0-0.1,0.1-0.2,0.1c0,0,0.1,0,0.1-0.1c-0.1,0-0.1,0.1-0.2,0.1H57
				c-0.1,0-0.1,0-0.2,0h0.1c-0.1,0-0.1,0-0.2,0c0.1,0,0.1,0,0.1,0c-0.1,0-0.1-0.1-0.2-0.1c0,0,0.1,0,0.1,0.1c-0.1,0-0.1-0.1-0.2-0.1
				l0.1,0.1c0-0.1-0.1-0.1-0.1-0.2l0.1,0.1c0-0.1-0.1-0.1-0.1-0.2v0.1c0-0.1,0-0.1,0-0.2c0,0.1,0,0.1,0,0.2c0-0.1,0-0.1,0-0.2
				c0,0.1,0,0.1-0.1,0.2c0-0.1,0.1-0.1,0.1-0.2c0,0,0,0.1-0.1,0.1c0-0.1,0.1-0.1,0.1-0.2l-0.1,0.1c0.1,0,0.1-0.1,0.2-0.1
				c0,0-0.1,0-0.1,0.1c0.1,0,0.1-0.1,0.2-0.1h-0.1c0.1,0,0.1,0,0.2,0c-0.1,0-0.1,0-0.2,0c0.1,0,0.1,0,0.2,0c-0.1,0-0.1,0-0.2,0
				c0.1,0,0.1,0.1,0.2,0.1c-0.1,0-0.1-0.1-0.2-0.1c0.1,0,0.1,0.1,0.2,0.1l-0.1-0.1c0,0.1,0.1,0.1,0.1,0.2c0-0.1-0.1-0.1-0.1-0.2
				c0,0.1,0,0.1,0.1,0.2c0,0,0-0.1,0-0.2c0,0.1,0,0.1,0,0.2c0-0.1,0-0.2,0-0.3c0,0.1,0,0.1,0,0.2c0-0.1,0-0.1,0-0.2
				c0,0,0,0.1-0.1,0.1c0-0.1,0.1-0.1,0.1-0.2c0.1-0.1,0.1-0.3,0.1-0.5c0-0.1-0.1-0.2-0.2-0.3s-0.2-0.1-0.3-0.1
				C56.2,36.5,56.1,36.5,55.9,36.7L55.9,36.7z"/>
		</g>
	</g>
	<g>
		<g>
			<path class="st0" d="M55.9,32.9c-0.1,0.2-0.2,0.3-0.3,0.5c-0.1,0.3-0.2,0.5-0.2,0.8c0,0.2,0.1,0.4,0.2,0.6
				c0.1,0.2,0.3,0.3,0.5,0.4c0.2,0.1,0.4,0.2,0.7,0.2c0.1,0,0.2,0,0.3,0c0.1,0,0.2-0.1,0.3-0.1c0.2-0.1,0.3-0.3,0.5-0.4l0.1-0.1
				c0-0.1,0.1-0.2,0.1-0.3c0.1-0.3,0.1-0.6,0-0.8c0-0.1-0.1-0.3-0.2-0.4c-0.1-0.1-0.2-0.2-0.3-0.3c-0.2-0.2-0.4-0.3-0.7-0.4
				C56.5,32.5,56.2,32.6,55.9,32.9c-0.2,0-0.3,0.2-0.4,0.4s0,0.4,0,0.6c0,0.2,0.2,0.4,0.4,0.5c0.1,0,0.1,0.1,0.2,0.1s0.2,0,0.3,0
				c0.2,0,0.3-0.1,0.4-0.2c0-0.1,0.1-0.1,0.1-0.2C57,34,57,33.9,57,33.7l0,0c0,0.1,0,0.1,0,0.2v-0.1c0,0.1-0.1,0.1-0.1,0.2
				c0,0,0-0.1,0.1-0.1c0,0.1-0.1,0.1-0.1,0.2c0,0,0,0,0.1-0.1c-0.1,0-0.1,0.1-0.2,0.1c0,0,0,0,0.1,0c-0.1,0-0.1,0.1-0.2,0.1h0.1
				c-0.1,0-0.1,0-0.2,0h0.1c-0.1,0-0.1,0-0.2,0c0.1,0,0.1,0,0.2,0c-0.1,0-0.1-0.1-0.2-0.1c0.1,0,0.1,0.1,0.2,0.1
				c-0.1,0-0.1-0.1-0.2-0.1c0.1,0.1,0.1,0.1,0.2,0.2c0-0.1-0.1-0.1-0.1-0.2c0,0.1,0.1,0.1,0.1,0.2c0-0.1-0.1-0.1-0.1-0.2
				c0,0.1,0,0.1,0,0.2c0-0.1,0-0.1,0-0.2c0,0.1,0,0.1,0,0.2c0-0.1,0-0.1,0-0.2c0,0.1,0,0.1,0,0.2c0-0.1,0.1-0.1,0.1-0.2
				c0,0.1-0.1,0.1-0.1,0.2c0-0.1,0.1-0.1,0.1-0.2l-0.1,0.1c0.1,0,0.1-0.1,0.2-0.1c0,0-0.1,0-0.1,0.1c0.1,0,0.1-0.1,0.2-0.1h-0.1
				c0.1,0,0.1,0,0.2,0h-0.1c0.1,0,0.1,0,0.2,0c-0.1,0-0.2,0-0.2-0.1c0.1,0,0.1,0,0.2,0.1c-0.1,0-0.1,0-0.1-0.1l0.1,0.1L57,34
				l0.1,0.1c0,0,0-0.1-0.1-0.1c0,0.1,0,0.1,0.1,0.2c0-0.1,0-0.1,0-0.2c0,0.1,0,0.1,0,0.2c0-0.1,0-0.1,0-0.2c0,0.1,0,0.1,0,0.2
				c0-0.1,0.1-0.3,0.1-0.4c0,0.1,0,0.1-0.1,0.2c0-0.1,0.1-0.2,0.2-0.3s0.1-0.3,0.1-0.5s-0.2-0.3-0.3-0.4c-0.2-0.1-0.3-0.1-0.5-0.1
				C56.1,32.7,56,32.8,55.9,32.9L55.9,32.9z"/>
		</g>
	</g>
	<g>
		<g>
			<path class="st0" d="M45.7,26c-0.1,0-0.3,0-0.4,0.1c-0.2,0.1-0.3,0.1-0.5,0.3s-0.4,0.5-0.4,0.8s0.2,0.6,0.4,0.9
				c0.2,0.2,0.5,0.4,0.7,0.4c0.1,0,0.3,0.1,0.5,0c0.1,0,0.2,0,0.3-0.1c0.1,0,0.2-0.1,0.3-0.1c0.1-0.1,0.3-0.2,0.4-0.3
				c0.2-0.1,0.2-0.3,0.3-0.5c0.1-0.2,0.1-0.6,0-0.8c-0.1-0.3-0.2-0.5-0.4-0.7c-0.1-0.1-0.2-0.2-0.4-0.2c-0.1,0-0.2-0.1-0.3-0.1
				c-0.1,0-0.2,0-0.3,0c-0.1,0-0.3,0-0.4,0.1c-0.2,0.1-0.3,0.1-0.4,0.2c-0.2,0.2-0.2,0.4-0.2,0.6s0,0.3,0.1,0.4
				c0.1,0.2,0.3,0.3,0.5,0.4c-0.1,0-0.1-0.1-0.2-0.1l0,0c0.1,0.1,0.2,0.1,0.4,0.1c0.1,0,0.2,0,0.3-0.1c0.1,0,0.2-0.1,0.2-0.1
				c0.1-0.1,0.2-0.2,0.2-0.3l0,0c0,0.1-0.1,0.1-0.1,0.2c0.1-0.1,0.1-0.2,0.1-0.4c0-0.1,0-0.2,0-0.2c0,0.1,0,0.1,0,0.2l0,0
				c0,0.1,0,0.1,0,0.2l0,0c0,0.1-0.1,0.1-0.1,0.2l0,0c-0.2,0.1-0.3,0.2-0.5,0.4c0.1,0,0.1,0,0.2,0c-0.1,0-0.1,0-0.2,0
				c0.1,0,0.1,0,0.2,0c-0.1,0-0.1,0-0.2,0c0.1,0,0.1,0,0.2,0c-0.1,0-0.1-0.1-0.2-0.1c0.1,0,0.1,0.1,0.2,0.1c-0.1,0-0.1-0.1-0.2-0.1
				c0.1,0,0.1,0.1,0.1,0.1c0-0.1-0.1-0.1-0.1-0.2c0,0.1,0.1,0.1,0.1,0.2c0-0.1-0.1-0.1-0.1-0.2c0,0.1,0,0.1,0,0.2c0-0.1,0-0.1,0-0.2
				v0.1c0-0.1,0-0.1,0-0.2v0.1c0-0.1,0.1-0.1,0.1-0.2c0,0,0,0.1-0.1,0.1c0-0.1,0.1-0.1,0.1-0.2l-0.1,0.1c0.1,0,0.1-0.1,0.2-0.1
				c-0.1,0-0.1,0.1-0.2,0.1c0.1,0,0.1-0.1,0.2-0.1c-0.1,0-0.2,0.1-0.3,0.1c0.1,0,0.1,0,0.2,0c-0.1,0-0.1,0-0.2,0c0.1,0,0.1,0,0.2,0
				c-0.1,0-0.1,0-0.2,0c0.1,0,0.1,0.1,0.2,0.1c-0.1,0-0.1-0.1-0.2-0.1c0.1,0,0.1,0.1,0.2,0.1l-0.1-0.1c0,0.1,0.1,0.1,0.1,0.2
				l-0.1-0.1c0,0.1,0.1,0.1,0.1,0.2c0-0.1,0-0.1,0-0.2c0,0.1,0,0.1,0,0.2v-0.1c0,0.1,0,0.1,0,0.2v-0.1c0,0.1,0,0.1-0.1,0.2
				c0,0,0-0.1,0.1-0.1l-0.1,0.1c0-0.1,0.1-0.1,0.1-0.1l-0.1,0.1c0.1,0,0.1-0.1,0.2-0.1l0.1-0.1c0.1-0.1,0.1-0.1,0.1-0.2
				c0-0.1,0.1-0.3,0-0.4C46.2,26.1,46,26,45.7,26L45.7,26z"/>
		</g>
	</g>
	<g>
		<g>
			<path class="st0" d="M50.1,27.3c0.1,0.1,0.2,0.3,0.3,0.4c0.1,0.2,0.3,0.4,0.5,0.6c0,0,0.1,0,0.1,0.1c0.1,0,0.2,0.1,0.3,0.1
				c0.2,0,0.4,0,0.6,0c0.2-0.1,0.4-0.2,0.5-0.3s0.1-0.2,0.2-0.3l0.1-0.1c0-0.1,0.1-0.2,0.1-0.3s0-0.2,0.1-0.3c0-0.1,0-0.3,0-0.4
				c-0.1-0.4-0.3-0.6-0.6-0.8c0,0-0.1,0-0.1-0.1c-0.1,0-0.2-0.1-0.3-0.1h-0.1c-0.1,0-0.2,0-0.3,0c-0.1,0-0.3,0-0.4,0.1
				c-0.1,0-0.3,0.1-0.4,0.2c-0.1,0.1-0.2,0.2-0.3,0.3c-0.1,0.1-0.1,0.2-0.2,0.3c0,0.1-0.1,0.2-0.1,0.3S50.1,27.2,50.1,27.3
				C50.1,27.3,50.1,27.3,50.1,27.3c0,0.2,0,0.2,0,0.3c0,0.1,0,0.1,0,0.2c0,0.1,0.1,0.2,0.1,0.3c0.1,0.1,0.2,0.3,0.4,0.4
				c0.1,0.1,0.2,0.1,0.4,0.1c0.1,0,0.3,0,0.4-0.1s0.2-0.2,0.3-0.3c0.1-0.1,0.1-0.2,0.1-0.4l0,0c0,0.1,0,0.1,0,0.2c0-0.1,0-0.2,0-0.3
				s0-0.1,0-0.2c0,0.1,0,0.1,0,0.2c0-0.1,0-0.2,0-0.3c0,0.1,0,0.1,0,0.2c0-0.1,0-0.1,0-0.2c0,0.1-0.1,0.1-0.1,0.2c0,0,0-0.1,0.1-0.1
				c0,0.1-0.1,0.1-0.1,0.2l0.1-0.1c-0.1,0-0.1,0.1-0.2,0.1c0.1,0,0.1-0.1,0.2-0.1c-0.1,0-0.1,0.1-0.2,0.1c0.1,0,0.1,0,0.2-0.1
				c-0.1,0-0.1,0-0.2,0c0.1,0,0.2,0,0.3,0c-0.1,0-0.1,0-0.2,0c0.1,0,0.2,0,0.2,0.1c-0.1,0-0.1-0.1-0.2-0.1c0.1,0,0.1,0.1,0.2,0.1
				c-0.1,0-0.1-0.1-0.2-0.1l0.1,0.1c0-0.1-0.1-0.1-0.1-0.2l0.1,0.1c0-0.1-0.1-0.1-0.1-0.2c0,0,0,0.1,0,0.2c0-0.1,0-0.1,0-0.2
				c0,0.1,0,0.1,0,0.2c0-0.1,0-0.1,0-0.2c0,0.1,0,0.1-0.1,0.2c0-0.1,0.1-0.1,0.1-0.2c0,0.1-0.1,0.2-0.1,0.2l0.1-0.1l-0.1,0.1
				l0.1-0.1c0,0-0.1,0-0.1,0.1c0.1,0,0.1,0,0.2-0.1h-0.1c0.1,0,0.1,0,0.2,0h-0.1c0.1,0,0.1,0,0.2,0h-0.1c0.1,0,0.1,0,0.2,0.1
				c-0.1,0-0.2-0.1-0.2-0.1l0.1,0.1c-0.1-0.1-0.2-0.2-0.3-0.3l0.1,0.1c-0.1-0.1-0.1-0.2-0.2-0.2c-0.1-0.1-0.2-0.2-0.4-0.3
				c-0.1,0-0.3,0-0.5,0.1C50.1,26.7,50,27,50.1,27.3L50.1,27.3z"/>
		</g>
	</g>
	<g>
		<g>
			<path class="st0" d="M56.7,26.7L56.7,26.7C56.7,26.8,56.7,26.8,56.7,26.7c0,0.3,0,0.3,0.1,0.5c0-0.1,0-0.1-0.1-0.2
				c0.1,0.2,0.1,0.3,0.3,0.5c0.1,0.1,0.2,0.2,0.3,0.2c0.2,0.1,0.5,0.2,0.7,0.2s0.5,0,0.7-0.1s0.3-0.1,0.4-0.3c0,0,0,0,0.1-0.1
				s0.1-0.2,0.2-0.2c0.3-0.6,0.2-1.3-0.3-1.7c-0.1-0.1-0.2-0.2-0.4-0.2c-0.1,0-0.3-0.1-0.4-0.1s-0.3,0-0.4,0s-0.1,0-0.2,0.1
				s-0.3,0.1-0.4,0.2c-0.2,0.1-0.3,0.2-0.4,0.4c-0.1,0.1-0.1,0.3-0.2,0.4c-0.1,0.3,0,0.7,0.2,1c0.2,0.2,0.4,0.2,0.6,0.2
				s0.4-0.2,0.6-0.4c0.1-0.2,0.1-0.4,0.1-0.5c0,0.1,0,0.1,0,0.2c0-0.1,0-0.1,0-0.2c0,0.1-0.1,0.1-0.1,0.2c0-0.1,0.1-0.1,0.1-0.2
				c0,0.1-0.1,0.1-0.1,0.2c0,0,0-0.1,0.1-0.1c0,0.1-0.1,0.1-0.1,0.2l0.1-0.1c-0.1,0-0.1,0.1-0.2,0.1c0.1,0,0.1-0.1,0.2-0.1
				c-0.1,0-0.1,0.1-0.2,0.1c0.1,0,0.1-0.1,0.2-0.1c-0.1,0-0.1,0-0.2,0c0.1,0,0.1,0,0.2,0c-0.1,0-0.1,0-0.2,0c0.1,0,0.1,0,0.2,0
				c-0.1,0-0.1-0.1-0.2-0.1c0,0,0.1,0,0.1,0.1c-0.1,0-0.1-0.1-0.2-0.1l0.1,0.1c0-0.1-0.1-0.1-0.1-0.2c0,0,0,0.1,0.1,0.1
				c0-0.1-0.1-0.1-0.1-0.2v0.1c0-0.1,0-0.1,0-0.2c0,0.1,0,0.1,0,0.2c0-0.1,0-0.1,0-0.2c0,0.1,0,0.1,0,0.2c0-0.1,0.1-0.1,0.1-0.2
				c0,0,0,0.1-0.1,0.1c0-0.1,0.1-0.1,0.1-0.2l-0.1,0.1c0.1,0,0.1-0.1,0.2-0.1c-0.1,0-0.1,0.1-0.2,0.1c0.1,0,0.1-0.1,0.2-0.1
				c-0.1,0-0.1,0-0.2,0.1c0.1,0,0.1,0,0.2,0c-0.1,0-0.2,0-0.3,0c0.1,0,0.1,0,0.2,0c-0.1,0-0.2,0-0.3-0.1c0.1,0,0.1,0,0.2,0.1
				c-0.1,0-0.1-0.1-0.2-0.1l0.1,0.1l-0.1-0.1l0.1,0.1c-0.1-0.1-0.1-0.2-0.3-0.3l0.1,0.1l0,0l0.1,0.1l0,0c-0.1-0.2-0.5-0.4-0.7-0.3
				c-0.1,0-0.2,0.1-0.3,0.2C56.8,26.3,56.7,26.5,56.7,26.7L56.7,26.7z"/>
		</g>
	</g>
	<g>
		<g>
			<path class="st0" d="M42.2,33.5c0.2,0,0.3-0.2,0.4-0.3l-0.1,0.1c0.1-0.1,0.1-0.1,0.1-0.2V33c0-0.1,0-0.3,0-0.4
				c-0.1-0.2-0.1-0.3-0.2-0.4c-0.1-0.2-0.3-0.3-0.6-0.3c-0.3-0.1-0.6,0-0.8,0.1s-0.3,0.3-0.4,0.4c-0.1,0.2-0.1,0.4-0.2,0.6
				c0,0.2,0,0.3,0,0.5c0,0.1,0,0.2,0.1,0.3s0.1,0.3,0.2,0.4c0.1,0.1,0.2,0.2,0.3,0.3c0.2,0.1,0.4,0.3,0.6,0.3c0.4,0.1,0.8,0,1.1-0.2
				c0.2-0.1,0.3-0.3,0.5-0.5c0.1-0.1,0.2-0.3,0.2-0.4c0-0.2,0.1-0.3,0.1-0.5c0-0.3-0.1-0.4-0.2-0.7c-0.1-0.2-0.3-0.4-0.5-0.5
				s-0.4-0.2-0.7-0.2c-0.1,0-0.2,0-0.4,0c-0.1,0-0.2,0.1-0.3,0.1c-0.2,0.1-0.3,0.2-0.4,0.4c-0.1,0.2-0.1,0.3-0.1,0.5
				c0,0.1,0,0.3,0.1,0.4c0.1,0.1,0.2,0.2,0.4,0.3c0.1,0.1,0.3,0.1,0.4,0.1C42,33.6,42.2,33.6,42.2,33.5
				C42.3,33.4,42.3,33.4,42.2,33.5L42.2,33.5C42.2,33.5,42.3,33.5,42.2,33.5c0.1-0.1,0.1-0.1,0.2-0.2C42.4,33.4,42.3,33.4,42.2,33.5
				C42.3,33.5,42.3,33.4,42.2,33.5C42.3,33.4,42.2,33.5,42.2,33.5L42.2,33.5c0,0-0.1,0-0.2,0C42.1,33.5,42.1,33.5,42.2,33.5
				c-0.1,0-0.2,0-0.3,0C42,33.5,42,33.5,42.2,33.5c-0.2,0-0.2-0.1-0.3-0.1c0,0,0.1,0,0.1,0.1c-0.1,0-0.1-0.1-0.2-0.1l0.1,0.1
				c0-0.1-0.1-0.1-0.1-0.2c0,0,0.1,0.1,0.1,0.2c0-0.1-0.1-0.1-0.1-0.2c0,0.1,0,0.1,0,0.2c0-0.1,0-0.1,0-0.2c0,0.1,0,0.1,0,0.2
				c0-0.1,0-0.1,0-0.2c0,0.1,0,0.1-0.1,0.2c0-0.1,0.1-0.1,0.1-0.2c0,0.1-0.1,0.1-0.1,0.2c0-0.1,0.1-0.1,0.1-0.2
				c0,0.1-0.1,0.1-0.1,0.1c0.1,0,0.1-0.1,0.2-0.1l-0.1,0.1c0.1,0,0.1-0.1,0.2-0.1c-0.1,0-0.1,0-0.2,0c0.1,0,0.1,0,0.2,0h-0.1
				c0.1,0,0.1,0,0.2,0c-0.1,0-0.1,0-0.2,0c0.1,0,0.1,0.1,0.2,0.1c0,0-0.1,0-0.1-0.1c0.1,0,0.1,0.1,0.2,0.1l-0.1-0.1
				C42.2,33.3,42.2,33.4,42.2,33.5c0-0.1-0.1-0.2-0.1-0.3C42.1,33.3,42.2,33.3,42.2,33.5c0-0.2-0.1-0.3-0.1-0.3
				C42.1,33.3,42.2,33.3,42.2,33.5c0-0.2-0.1-0.3-0.1-0.4c0,0.1,0,0.1,0,0.2c0-0.1,0-0.2,0-0.2c0,0.1,0,0.1,0,0.2c0-0.1,0-0.1,0-0.2
				c0,0.1-0.1,0.1-0.1,0.2c0,0,0-0.1,0.1-0.1c0,0.1-0.1,0.1-0.1,0.2l0.1-0.1c-0.1,0-0.1,0.1-0.2,0.1c0,0,0,0,0.1,0
				c-0.1,0-0.1,0.1-0.2,0.1h0.1c-0.1,0-0.1,0-0.2,0h0.1c-0.1,0-0.1,0-0.2,0c0.1,0,0.2,0,0.2,0c-0.1,0-0.1,0-0.2,0h0.1
				c-0.1,0-0.1,0-0.2-0.1c0,0,0.1,0,0.1,0.1l-0.1-0.1l0,0l-0.1-0.1c0.1,0.1,0.1,0.2,0.3,0.3l-0.1-0.1l0,0l-0.1-0.1
				c0.1,0.1,0.1,0.2,0.2,0.2c-0.1-0.1-0.2-0.2-0.2-0.2c0,0.1,0.1,0.1,0.1,0.2C41.8,33.5,42,33.5,42.2,33.5L42.2,33.5z"/>
		</g>
	</g>
	<g>
		<g>
			<path class="st0" d="M49.1,33.5c-0.1,0-0.3,0-0.4,0s-0.2,0-0.2,0.1c-0.1,0-0.2,0.1-0.3,0.1c-0.1,0.1-0.2,0.1-0.3,0.2l0.1-0.1
				c-0.1,0-0.1,0.1-0.2,0.1c-0.1,0.1-0.1,0.1-0.1,0.2c0,0,0,0.1-0.1,0.1c-0.1,0.2-0.1,0.3-0.1,0.6v0.1c0,0.1,0,0.2,0,0.3
				s0.1,0.3,0.1,0.4c0.1,0.1,0.1,0.2,0.2,0.3s0.2,0.2,0.3,0.3c0.1,0.1,0.2,0.1,0.4,0.2h0.1c0.1,0,0.2,0,0.3,0c0.1,0,0.2,0,0.3,0h0.1
				c0.2-0.1,0.3-0.2,0.5-0.3l0.1-0.1c0.1-0.1,0.1-0.2,0.2-0.3s0.2-0.3,0.2-0.5c0-0.1,0-0.2,0-0.3v-0.1c0-0.1,0-0.2-0.1-0.3
				c0-0.1-0.1-0.2-0.1-0.3c0,0,0-0.1-0.1-0.1c-0.1-0.1-0.1-0.2-0.2-0.3l-0.1-0.1c-0.1-0.1-0.2-0.1-0.3-0.2
				C49.3,33.4,49.2,33.4,49.1,33.5L49.1,33.5c-0.2-0.1-0.3-0.1-0.4-0.1s-0.2,0-0.3,0c0,0,0,0-0.1,0s-0.2,0.1-0.2,0.1s0,0-0.1,0
				s-0.1,0.1-0.2,0.2l0,0c-0.1,0.1-0.1,0.1-0.2,0.2c-0.1,0.1-0.1,0.2-0.2,0.3v0.1c0,0.2,0,0.3,0,0.5c0-0.1,0-0.1,0-0.2
				c0,0,0,0,0,0.1s0,0.1,0,0.2c0,0.1,0.1,0.2,0.1,0.3s0.1,0.1,0.1,0.1c0.1,0.1,0.2,0.1,0.3,0.1c0.1,0,0.3,0,0.4,0
				c0.2,0,0.3-0.2,0.5-0.4l0,0c0,0.1-0.1,0.1-0.1,0.2c0.1-0.1,0.2-0.3,0.3-0.4c0,0.1-0.1,0.1-0.1,0.2c0-0.1,0.1-0.1,0.2-0.2
				c-0.1,0-0.1,0.1-0.2,0.1l0.1-0.1c-0.1,0-0.1,0.1-0.2,0.1h0.1c-0.1,0-0.1,0-0.2,0h0.1c-0.1,0-0.1,0-0.2,0c0.1,0,0.1,0,0.2,0
				c-0.1,0-0.1-0.1-0.2-0.1c0.1,0,0.1,0.1,0.1,0.1c-0.1,0-0.1-0.1-0.2-0.1l0.1,0.1c0-0.1-0.1-0.1-0.1-0.2c0,0.1,0.1,0.1,0.1,0.2
				c0-0.1-0.1-0.1-0.1-0.2c0,0.1,0,0.1,0,0.2c0-0.1,0-0.1,0-0.2c0,0.1,0,0.1,0,0.2c0-0.1,0-0.1,0-0.2c0,0.1,0,0.2-0.1,0.2
				c0-0.1,0.1-0.1,0.1-0.2c0,0.1-0.1,0.2-0.1,0.2c0-0.1,0.1-0.1,0.1-0.2c0,0.1-0.1,0.1-0.1,0.1c0.1,0,0.1-0.1,0.2-0.1l-0.1,0.1
				c0.1,0,0.1-0.1,0.2-0.1h-0.1c0.1,0,0.1,0,0.2,0h-0.1c0.1,0,0.1,0,0.2,0c-0.1,0-0.1,0-0.2,0c0.1,0,0.1,0.1,0.2,0.1
				c-0.1,0-0.1-0.1-0.2-0.1c0.1,0,0.1,0.1,0.2,0.1c-0.1,0-0.1-0.1-0.2-0.2c0,0.1,0.1,0.1,0.1,0.2c0-0.1-0.1-0.1-0.1-0.2
				c0,0.1,0.1,0.1,0.1,0.2c0-0.1,0-0.1-0.1-0.2c0,0.1,0,0.1,0,0.2c0-0.1,0-0.1,0-0.2c0,0.1,0,0.1,0,0.2c0-0.1,0-0.1,0-0.2
				c0,0.1,0,0.1-0.1,0.2c0-0.1,0.1-0.1,0.1-0.2l-0.1,0.1c0-0.1,0.1-0.1,0.1-0.1l-0.1,0.1c0.1,0,0.1-0.1,0.2-0.1
				c-0.1,0-0.1,0-0.2,0.1c0.1,0,0.2-0.1,0.3-0.1c0.1,0,0.3-0.2,0.4-0.3s0.1-0.2,0.1-0.4c0-0.1-0.1-0.3-0.2-0.3
				C49.4,33.6,49.3,33.5,49.1,33.5L49.1,33.5z"/>
		</g>
	</g>
	<g>
		<g>
			<path class="st0" d="M47.6,40.5c-0.1,0.1-0.1,0.2-0.2,0.3s-0.1,0.2-0.2,0.3c-0.1,0.2-0.1,0.4-0.1,0.6c0,0.3,0.1,0.5,0.3,0.7
				c0.2,0.2,0.4,0.3,0.6,0.4c0.2,0.1,0.4,0.1,0.6,0.1c0.4,0,0.9-0.1,1.1-0.5c0.3-0.3,0.5-0.8,0.5-1.3c0-0.4-0.2-0.9-0.5-1.2
				c-0.1-0.2-0.3-0.3-0.5-0.5c-0.2-0.1-0.5-0.2-0.7-0.2c-0.4,0-0.8,0.1-1.1,0.4c-0.3,0.3-0.4,0.6-0.5,1c0,0.2-0.1,0.4-0.1,0.6
				c0,0.2,0,0.4,0.1,0.5c0,0.1,0.1,0.1,0.1,0.2c0,0.1,0.1,0.2,0.2,0.2c0.1,0.1,0.3,0.2,0.5,0.2c0.1,0,0.3,0,0.4-0.1s0.3-0.3,0.4-0.5
				c0-0.2,0.1-0.4,0.1-0.5c0,0.1,0,0.1,0,0.2c0-0.2,0.1-0.5,0.2-0.7c0,0.1-0.1,0.1-0.1,0.2c0-0.1,0.1-0.2,0.1-0.2
				c0,0.1-0.1,0.1-0.1,0.2l0.1-0.1c-0.1,0-0.1,0.1-0.2,0.1c0,0,0.1,0,0.1-0.1c-0.1,0-0.1,0.1-0.2,0.1h0.1c-0.1,0-0.1,0-0.2,0
				c0.1,0,0.1,0,0.2,0c-0.1,0-0.1,0-0.2,0c0.1,0,0.1,0,0.2,0c-0.1,0-0.1-0.1-0.2-0.1c0.1,0,0.1,0.1,0.2,0.1c-0.1,0-0.1-0.1-0.2-0.1
				c0.1,0.1,0.1,0.1,0.2,0.2c0-0.1-0.1-0.1-0.1-0.2c0.1,0.1,0.1,0.2,0.2,0.3c0-0.1-0.1-0.1-0.1-0.2c0,0.1,0.1,0.2,0.1,0.3
				c0-0.1,0-0.1,0-0.2c0,0.1,0,0.2,0,0.2c0-0.1,0-0.1,0-0.2c0,0.1,0,0.2-0.1,0.3c0-0.1,0.1-0.1,0.1-0.2c0,0.1-0.1,0.1-0.1,0.2
				c0-0.1,0.1-0.1,0.1-0.2l-0.1,0.1c0.1,0,0.1-0.1,0.2-0.1c-0.1,0-0.1,0.1-0.2,0.1c0.1,0,0.1-0.1,0.2-0.1c-0.1,0-0.1,0-0.2,0.1
				c0.1,0,0.1,0,0.2,0c-0.1,0-0.2,0-0.3,0c0.1,0,0.1,0,0.2,0c-0.1,0-0.3-0.1-0.4-0.1c0.1,0,0.1,0,0.2,0.1c-0.1,0-0.1-0.1-0.2-0.1
				l0.1,0.1c0,0,0,0-0.1-0.1l0.1,0.1c0,0,0,0,0-0.1c0,0.1,0,0.1,0.1,0.2v-0.1c0,0.1,0,0.1,0,0.2v-0.1c0,0.1,0,0.1,0,0.2
				c0-0.1,0.1-0.2,0.1-0.4c0,0,0,0.1-0.1,0.1c0.1-0.1,0.1-0.2,0.2-0.3c0.1-0.3,0.1-0.7-0.2-0.8C48.1,40.2,47.7,40.3,47.6,40.5
				L47.6,40.5z"/>
		</g>
	</g>
</g>
</svg>
