<?xml version="1.0" encoding="utf-8"?>
<!-- Generator: Adobe Illustrator 24.3.0, SVG Export Plug-In . SVG Version: 6.00 Build 0)  -->
<svg version="1.1" id="Calque_1" xmlns="http://www.w3.org/2000/svg" xmlns:xlink="http://www.w3.org/1999/xlink" x="0px" y="0px"
	 viewBox="0 0 80 80" style="enable-background:new 0 0 80 80;" xml:space="preserve">
<style type="text/css">
	.st0{fill:#91D902;}
</style>
<g>
	<g>
		<g>
			<path class="st0" d="M20.9,32.6c0,2.7,0.1,5.3,0,8c-0.1,2.5-0.6,5.1-0.1,7.6c0.5-0.2,1-0.4,1.5-0.6c-0.1-0.1-0.2-0.3-0.3-0.4
				c-0.6-0.7-1.8,0.2-1.3,1c0.1,0.1,0.1,0.1,0.2,0.2c0.5,0.8,1.7,0.3,1.5-0.6c-0.5-2.5,0.2-5.1,0.2-7.6c0-1.3,0-2.6,0-3.9
				c0-1.3,0.1-2.7-0.3-3.9C22,31.8,20.9,31.8,20.9,32.6L20.9,32.6z"/>
		</g>
	</g>
	<g>
		<g>
			<path class="st0" d="M22.3,39.5c0.3,0.2,0.6,0.1,0.9,0.2c0.2,0,0.4,0.1,0.6,0.2c0.5,0.2,0.9,0.5,1.3,0.9c0.7,0.7,1.3,1.5,2,2.3
				c0.6,0.8,1.2,1.6,1.7,2.5c0.2,0.4,0.4,0.9,0.6,1.3c0.1,0.4,0.1,0.7,0,1.2c-0.1,0.8,1.2,1.2,1.6,0.4c0.5-1.2,0-2.5-0.6-3.6
				s-1.3-2.1-2.1-3c-0.7-0.9-1.4-1.8-2.3-2.6c-0.5-0.4-1.1-0.8-1.8-1c-0.6-0.2-1.6-0.3-2,0.2C21.9,38.7,21.9,39.2,22.3,39.5
				L22.3,39.5z"/>
		</g>
	</g>
	<g>
		<g>
			<path class="st0" d="M35.6,36.8c-0.5-0.2-1.1-0.2-1.7-0.1c-0.5,0.1-1,0.4-1.5,0.7c-0.4,0.3-0.7,0.8-0.8,1.2
				c-0.1,0.6,0.1,1.3,0.4,1.8c0.6,0.9,1.6,1.7,2.7,1.3c0.8-0.3,1.4-1.1,1.6-1.9c0.1-0.5,0.1-1-0.1-1.4c-0.2-0.6-0.7-1.1-1.4-1.2
				c-0.7,0-1,0.9-0.5,1.3c0.1,0.1,0.2,0.2,0.3,0.3c0,0,0,0.1,0.1,0.1c0,0-0.1-0.2-0.1-0.1l0,0c0,0.1,0.1,0.1,0.1,0.2
				c0-0.1-0.1-0.1-0.1-0.2c0,0.1,0.1,0.2,0.1,0.4c0-0.1,0-0.1,0-0.2c0,0.2,0,0.3,0,0.5c0-0.1,0-0.1,0-0.2c0,0.2-0.1,0.4-0.1,0.5
				c0-0.1,0.1-0.1,0.1-0.2c0,0.1-0.1,0.2-0.1,0.3L34.5,40c-0.1,0.1,0.1-0.2,0.1-0.1l0,0L34.5,40c0,0,0,0-0.1,0
				c-0.1,0.1,0.2-0.1,0.1-0.1C34.4,40,34.3,40,34.3,40c0.1,0,0.1-0.1,0.2-0.1c-0.1,0-0.2,0.1-0.3,0.1c0.1,0,0.1,0,0.2,0
				c-0.1,0-0.2,0-0.3,0c0.1,0,0.1,0,0.2,0c-0.1,0-0.2,0-0.3-0.1c0.1,0,0.1,0.1,0.2,0.1c-0.1,0-0.2-0.1-0.3-0.2
				c-0.1,0-0.1-0.1,0.1,0.1c0,0-0.1,0-0.1-0.1c-0.1,0-0.1-0.1-0.2-0.2c-0.1-0.1-0.1-0.1-0.2-0.2l-0.1-0.1l0.1,0.1c0,0,0,0,0-0.1
				c-0.1-0.1-0.2-0.3-0.2-0.4c0,0.1,0.1,0.1,0.1,0.2c-0.1-0.1-0.1-0.3-0.1-0.4c0,0.1,0,0.1,0,0.2c0-0.1,0-0.2,0-0.3
				c0,0.1,0,0.1,0,0.2c0-0.1,0-0.2,0.1-0.3c0,0.1-0.1,0.1-0.1,0.2c0-0.1,0.1-0.1,0.1-0.2l0,0c0.1-0.1-0.1,0.1-0.1,0.1l0.1-0.1
				l0.1-0.1l0,0c0.1-0.1-0.1,0.1-0.1,0.1c0.1,0,0.1-0.1,0.2-0.1c0.1,0,0.2-0.1,0.2-0.1h0.1c0,0-0.2,0.1-0.1,0h0.1
				c0.2-0.1,0.4-0.1,0.6-0.1c-0.1,0-0.1,0-0.2,0c0.3,0,0.7-0.1,1,0c0.4,0,0.7-0.3,0.7-0.6C36.2,37.2,36,36.9,35.6,36.8L35.6,36.8z"
				/>
		</g>
	</g>
	<g>
		<g>
			<path class="st0" d="M35.1,33.2c1.8,2,3.6,4,6.1,5.1s5.3,1.8,8,2.2c1.3,0.2,2.5,0.4,3.8,0.5c1.2,0.1,2.7,0.1,3.6,1.1
				c0.9,0.9,1,2.3,1.1,3.5c0,0.9-0.3,2.4,0.4,3.1c0.7,0.7,1.9-0.2,1.4-1.1c0-0.1-0.1-0.1-0.1-0.2c-0.5-1-2-0.1-1.5,0.9
				c0,0.1,0.1,0.1,0.1,0.2c0.5-0.4,0.9-0.7,1.4-1.1c0,0,0,0-0.1-0.1c0.1,0.2,0.2,0.4,0.3,0.6c-0.1-2.3,0.1-4.9-1.4-6.8
				c-1.6-2-4.2-1.7-6.5-2c-2.9-0.4-5.7-0.8-8.5-1.8c-3-1-4.8-3.1-7.1-5.2C35.5,31.5,34.5,32.5,35.1,33.2L35.1,33.2z"/>
		</g>
	</g>
	<g>
		<g>
			<path class="st0" d="M48.7,39.9c-0.1,0.6,0,1.2,0,1.8c0,0.5,0,1.1,0,1.6c0.1,1.2,0.2,2.3,0,3.4c0.4-0.2,0.7-0.4,1.1-0.6
				c0.1,0.1,0.1,0.1,0,0c-0.1,0-0.2-0.1-0.2-0.1c-0.5-0.2-1.2,0.4-1,1c-0.1-0.3,0,0.2,0.1,0.3c0.1,0.2,0.2,0.3,0.4,0.4
				c0.5,0.2,1.1,0.1,1.3-0.5c0.3-1.3,0.1-2.6,0-3.8c0-0.6,0-1.2,0-1.8s0-1.4-0.4-1.9c-0.2-0.2-0.4-0.4-0.7-0.3
				C49,39.4,48.7,39.6,48.7,39.9L48.7,39.9z"/>
		</g>
	</g>
	<g>
		<g>
			<path class="st0" d="M45.5,42.8c0.1,0,0.2,0,0.4-0.1l0.1-0.1c0,0,0,0-0.1,0c0-0.1,0.1-0.1,0.2-0.1s0.1-0.1,0.1-0.1
				c0.1-0.2,0.3-0.3,0.4-0.5c0.2-0.4,0.4-0.8,0.6-1.3c0.1-0.4,0.3-0.8,0.3-1.2c0-0.2,0.1-0.4,0.1-0.7c0-0.4-0.1-0.7-0.4-0.9
				s-0.8,0-1,0.3c-0.1,0.2-0.1,0.4-0.1,0.7c0,0.1,0,0.2,0,0.2c0-0.1,0-0.2,0,0v0.1c-0.1,0.4-0.2,0.7-0.3,1.1c0,0.1-0.1,0.2-0.1,0.3
				c0,0,0,0,0,0.1s0,0.1,0,0s0-0.1,0,0v0.1c-0.1,0.2-0.2,0.3-0.2,0.5c-0.1,0.1-0.1,0.3-0.2,0.4c0-0.1-0.1,0.3-0.1,0.3s0.1-0.3,0,0.1
				c0,0.1,0,0.2,0,0.4C45,42.6,45.3,42.8,45.5,42.8L45.5,42.8z"/>
		</g>
	</g>
	<g>
		<g>
			<path class="st0" d="M41.8,41.7c0.1,0,0.2,0.1,0.4,0c0.4,0,0.6-0.2,0.7-0.5c0.5-1.2,1-2.4,1.4-3.7c0.1-0.5-0.2-0.9-0.6-1
				c-0.2,0-0.4,0-0.6,0.2s-0.3,0.4-0.3,0.6c0-0.2,0,0,0,0.1s0,0.2-0.1,0.2c0,0.2-0.1,0.3-0.1,0.5c-0.1,0.3-0.2,0.6-0.3,0.9
				c-0.2,0.6-0.5,1.2-0.7,1.8c0.2-0.2,0.3-0.3,0.5-0.5c-0.1,0-0.1,0-0.2,0c-0.3,0-0.5,0.4-0.5,0.7C41.3,41.3,41.5,41.6,41.8,41.7
				L41.8,41.7z"/>
		</g>
	</g>
	<g>
		<g>
			<path class="st0" d="M38.6,39.8c0.1,0,0.2,0,0.2,0s-0.2,0-0.1,0c0.1,0,0.1,0,0.2,0c-0.2-0.1-0.3-0.1-0.5-0.2
				c0.2,0.2,0.5,0.3,0.7,0.2c0.1,0,0.2-0.1,0.3-0.1c0.1-0.1,0.3-0.2,0.4-0.3c0.3-0.2,0.5-0.5,0.7-0.8l0,0c-0.1,0.1,0,0.1,0.1-0.1
				l0,0c0,0,0-0.1,0.1-0.1c0-0.1,0.1-0.1,0.1-0.2c0.1-0.1,0.2-0.3,0.2-0.4c0.2-0.3,0.3-0.6,0.4-0.9c0-0.1,0.1-0.2,0.1-0.4v-0.1
				c0.1-0.4-0.1-0.7-0.4-0.9c0.1,0.1,0.2,0.3,0.3,0.4c0-0.1-0.1-0.1-0.1-0.2c-0.1-0.2-0.4-0.4-0.6-0.4c-0.3,0-0.5,0.1-0.6,0.4l0,0
				c0.1-0.1,0.3-0.2,0.4-0.3c-0.3,0.1-0.5,0.3-0.5,0.5V36c0,0.1-0.1,0.2-0.1,0.3s0,0.1-0.1,0.2c0,0.1,0.1-0.1,0-0.1v0.1
				c-0.1,0.1-0.1,0.3-0.2,0.4c-0.1,0.3-0.3,0.5-0.5,0.8c-0.1,0.1-0.2,0.2-0.2,0.4c-0.1,0.1,0.1-0.1,0,0c0,0,0,0.1-0.1,0.1
				c0,0.1-0.1,0.1-0.1,0.2c-0.1,0.1-0.2,0.2-0.3,0.3c0,0,0.2-0.1,0.1,0c0,0,0,0-0.1,0c-0.2,0.1-0.3,0.3-0.4,0.5
				c0.1-0.1,0.3-0.3,0.4-0.4c-0.1,0-0.1,0-0.2,0.1c0.2-0.1,0.4-0.1,0.2-0.1c-0.3,0-0.6,0.2-0.6,0.5C38.1,39.4,38.3,39.7,38.6,39.8
				L38.6,39.8z"/>
		</g>
	</g>
	<g>
		<g>
			<path class="st0" d="M35.6,38.5c0.1,0,0.1-0.1,0.2-0.1C35.7,38.4,35.6,38.5,35.6,38.5C35.3,38.5,35.3,38.5,35.6,38.5
				c0,0,0.1,0,0.2,0c0.1,0,0.2-0.1,0.3-0.1s0.1-0.1,0.2-0.1c0.2-0.1,0.4-0.3,0.6-0.4c0.3-0.3,0.6-0.6,0.9-0.9
				c0.3-0.3,0.6-0.7,0.8-1.1c0.2-0.3,0.5-0.8,0.5-1.2c0-0.3-0.1-0.5-0.4-0.6c-0.2-0.1-0.5-0.2-0.7,0c-0.2,0.1-0.3,0.2-0.4,0.4
				c0,0.1-0.1,0.1-0.1,0.2c-0.1,0.1-0.2,0.3-0.3,0.4c-0.1,0.2-0.2,0.3-0.3,0.5c0,0-0.1,0.2,0,0l-0.1,0.1c-0.1,0.1-0.1,0.2-0.2,0.2
				c-0.3,0.3-0.5,0.6-0.8,0.9c-0.1,0.1-0.3,0.3-0.4,0.4l-0.1,0.1c0.1-0.1,0.1-0.1,0,0s-0.1,0.1-0.2,0.2c0,0.1-0.1,0.1-0.1,0.2
				c-0.1,0.2-0.1,0.2,0,0.1c0.1-0.1,0.2-0.2,0.2-0.2s0,0-0.1,0c-0.3,0.2-0.4,0.5-0.3,0.8C35,38.4,35.3,38.6,35.6,38.5L35.6,38.5z"/>
		</g>
	</g>
	<g>
		<g>
			<path class="st0" d="M34,25.2c-0.7,0.2-1.6,0-2.3,0c-1-0.1-2-0.2-3-0.2c-2-0.1-4,0.2-6,0.4c-1.2,0.1-2.5,0.3-3.1,1.6
				c-0.5,1-0.6,2.7-0.5,3.8c0.4,3.9,5.3,2.3,7.9,2.3c2.1,0,4.2,0.2,6.4,0.3c1.4,0.1,2.8-0.1,3.5-1.5c0.7-1.3,0.4-2.9,0.2-4.3
				c-0.2-1.7-1.1-2.6-2.8-2.7c-1.1-0.1-1.1,1.7,0,1.7c0.4,0,0.8,0,1,0.5c0.2,0.4,0.2,0.9,0.2,1.3c0,0.8,0.4,2.1-0.2,2.8
				c-0.3,0.3-0.7,0.4-1.1,0.4c-0.8,0-1.7-0.1-2.6-0.2c-1.7-0.1-3.4-0.3-5.1-0.2c-1.4,0-2.8,0.3-4.2,0.3c-0.4,0-1,0-1.3-0.4
				c-0.3-0.3-0.2-0.9-0.2-1.3c0-0.7,0-2,0.5-2.5c0.3-0.3,0.8-0.3,1.2-0.3c0.8-0.1,1.6-0.2,2.5-0.3c1.8-0.2,3.6-0.2,5.4-0.1
				c1.4,0.1,2.9,0.5,4.2-0.2C35.4,26.2,34.8,25,34,25.2L34,25.2z"/>
		</g>
	</g>
	<g>
		<g>
			<path class="st0" d="M60.3,48c-1.7-0.7-3.7-0.3-5.4-0.3c-2.7-0.1-5.5,0.2-8.2,0.3c-5.4,0.2-10.7-0.1-16.1-0.1
				c-2.6,0-5.2-0.2-7.7,0c-1.2,0.1-3.1-0.6-3.6,1c-0.3,0.9-0.1,2.1,0,3c0.1,0.7-0.1,1.7,0.4,2.3c0.4,0.5,1.3,0.6,1.9,0.7
				c1.3,0.1,2.6,0,3.9-0.1c1.4-0.1,2.8-0.2,4.2-0.1c0.9,0.1,1.7,0.2,2.6,0.3c1.8,0.1,3.3-0.5,4-2.3c-0.5,0.1-0.9,0.2-1.4,0.4
				c0.9,0.9,1.7,1.7,3.1,1.5c1.3-0.2,2.3-1,3.1-2c-0.5-0.1-1-0.1-1.5-0.2c1.3,3.2,5.6,3.4,6.8,0.1c-0.4,0.2-0.8,0.3-1.2,0.5
				c1,0.7,1.5,1.6,2.9,1.4s2.5-1.2,3.1-2.5c-0.5-0.1-1-0.1-1.5-0.2c0.9,2.3,4.5,3.5,5.9,1c-0.4,0.1-0.8,0.2-1.2,0.3
				c1.3,0.9,2.6,1.9,4.2,0.9c1.7-1,1.7-2.7,1.7-4.4c0-1.1-1.7-1.1-1.7,0c0,1,0.2,2.3-0.9,2.9c-0.9,0.5-1.7-0.4-2.5-0.9
				c-0.4-0.3-1-0.1-1.2,0.3c-0.6,1-2.5,0.4-2.8-0.6C51,50.6,50,50.3,49.7,51s-1.2,2-2.2,1.8c-0.6-0.1-1.1-0.8-1.5-1.2
				c-0.5-0.3-1.1,0-1.2,0.5c-0.6,1.7-3,1.6-3.6-0.1c-0.3-0.7-1.1-0.8-1.5-0.2s-1.3,1.2-2,1.2s-1.1-0.6-1.5-1.1
				c-0.5-0.5-1.2-0.2-1.4,0.4c-0.6,1.4-2.3,1.1-3.5,0.9c-1.7-0.2-3.4-0.2-5.2-0.1c-1,0.1-2,0.1-3.1,0.1c-0.4,0-0.9,0-1.3,0
				c0,0-0.8-0.2-0.5,0c0.1,0.1,0,0.1,0-0.2c-0.1-1-0.2-2-0.2-3c0-0.1,0.1-0.4,0-0.5c-0.1-0.3-0.3,0-0.1,0.1c0.3,0.1,0.6,0.1,0.9,0.1
				c0.9,0.1,1.8-0.1,2.7-0.1c1.1,0,2.2,0.1,3.4,0.1c2.2,0,4.3,0,6.5,0c4.3,0.1,8.6,0.2,12.9,0.1c2.5-0.1,5-0.4,7.5-0.3
				c1.6,0,3.7-0.4,5.3,0.1C60.9,49.8,61.2,48.4,60.3,48L60.3,48z"/>
		</g>
	</g>
</g>
</svg>
