<?xml version="1.0" encoding="UTF-8" standalone="no"?>
<svg
   xmlns:dc="http://purl.org/dc/elements/1.1/"
   xmlns:cc="http://creativecommons.org/ns#"
   xmlns:rdf="http://www.w3.org/1999/02/22-rdf-syntax-ns#"
   xmlns:svg="http://www.w3.org/2000/svg"
   xmlns="http://www.w3.org/2000/svg"
   version="1.1"
   id="Calque_1"
   x="0px"
   y="0px"
   viewBox="0 0 80 80"
   style="enable-background:new 0 0 80 80;"
   xml:space="preserve"><metadata
   id="metadata107"><rdf:RDF><cc:Work
       rdf:about=""><dc:format>image/svg+xml</dc:format><dc:type
         rdf:resource="http://purl.org/dc/dcmitype/StillImage" /><dc:title></dc:title></cc:Work></rdf:RDF></metadata><defs
   id="defs105" />
<style
   type="text/css"
   id="style2">
	.st0{fill:#91D902;}
</style>

<path
   id="path10-0"
   d="m 37.226562,11.091797 c -1.920994,0.561459 0.429753,5.015994 -2.828246,3.275499 -1.75362,-1.366766 -6.056606,-3.184156 -4.968445,0.764594 -0.322399,2.941693 -2.148479,5.385696 -4.829965,6.503566 -1.955061,2.292206 -3.637905,4.940753 -7.087045,3.899055 -2.456767,0.08073 -6.477714,1.349267 -6.519343,4.091884 3.002485,-0.621342 6.32082,-3.160354 9.928357,-2.161551 -1.421932,2.232275 -1.783298,6.373492 -3.724221,7.418932 -3.192542,-0.490151 -6.724797,0.06536 -8.9744422,2.579423 -3.1835881,3.415011 -3.0799889,8.588756 -2.3189149,12.909848 1.0275753,3.312502 4.3634851,5.721601 7.6757811,6.28125 2.878868,0.683458 5.553657,-0.420402 8.007813,-1.916016 2.781589,-1.440054 4.970437,-4.197696 4.922754,-7.439566 0.492707,-3.223913 -0.130696,-6.681634 -2.38029,-9.153697 -0.798617,-2.199502 -5.872294,-1.84862 -3.489802,-4.867494 0.669543,-2.695332 2.367189,-7.425932 5.129387,-3.44376 2.329834,0.830138 2.545737,6.39578 5.1045,4.440129 -0.717043,-3.489057 -3.877484,-6.032324 -6.60514,-8.128306 -0.588342,-3.626704 5.295978,-3.568821 5.933048,-7.037833 0.944788,-1.748924 0.663809,-5.640933 3.121807,-2.99071 3.289685,2.112724 6.983004,-1.836834 4.376952,-4.780796 z m -0.0098,8.046875 c -1.399272,0.398853 -6.264135,0.329877 -4.454414,2.476121 2.077752,-0.210387 4.734657,-0.595706 4.325411,2.451983 2.522319,4.739703 8.806912,5.462723 13.53028,4.194516 3.19493,-0.965008 6.627191,-1.822764 9.277763,-3.949206 2.838308,-1.760333 6.193965,0.836802 9.291857,0.578003 2.263113,0.402236 -2.755602,0.358586 -3.449162,0.14992 -2.799821,-0.743678 -3.369929,2.141103 -1.299164,3.592542 0.192817,2.557044 -4.460029,0.385015 -6.277712,1.538814 -4.943337,1.160981 -9.877096,4.074176 -12.024825,8.8636 -1.494854,1.439616 1.166774,6.205936 -2.478772,4.442561 -3.161717,-0.531686 -8.027111,2.705498 -9.365291,-1.882659 -2.582759,-3.034123 0.166387,-6.058997 3.177694,-6.975399 1.646506,-0.599935 5.874895,1.050186 3.532303,-1.839259 -3.301931,-1.627229 -6.28667,1.206943 -8.71579,3.096192 -2.914843,2.365437 0.370109,5.97826 1.379323,8.531919 1.890795,3.145357 5.569839,1.057559 8.347404,0.982249 1.955912,0.05722 7.757821,1.770433 5.930803,-1.96563 -1.068993,-2.242852 4.309787,-0.135851 4.342474,0.140391 -1.346253,4.150455 0.523363,9.097429 4.387465,11.212609 3.374685,2.464431 8.438203,3.269808 11.762326,0.259992 4.217162,-3.216185 4.487916,-9.393613 2.697913,-13.994859 -0.813579,-2.894771 -2.638536,-5.851996 -5.931737,-6.14252 -3.29693,-0.375921 -7.753965,-0.151931 -9.357239,3.316247 -1.580697,1.297491 -1.29187,4.22624 -4.06276,2.940238 -2.577617,0.453206 -5.204539,-1.903483 -2.267724,-3.887236 3.223457,-3.675988 8.113481,-5.779869 13.006945,-5.508223 3.110332,1.236852 6.017089,-2.723671 3.009086,-4.786967 3.54077,0.329849 7.725838,0.03734 10.854322,-1.217 0.295334,-3.319709 -4.008736,-2.885223 -6.249628,-2.683053 -3.149582,-0.06145 -6.194994,-1.37426 -9.312981,-1.321654 -3.033008,1.330632 -5.585082,3.63689 -8.951698,4.197004 -3.998213,1.323961 -9.185812,1.644157 -12.349567,-1.619533 -2.064853,-1.420406 0.202668,-4.789237 -2.304905,-5.191703 z m -3.560547,0.732422 c 1.042837,-0.432705 -0.669561,0.214757 0,0 z m 29.83594,16.808594 c 3.441665,-0.459931 5.529071,2.857503 6.165401,5.779722 1.222556,2.35537 -0.0046,5.967063 0.865744,7.774263 0.549869,0.08536 -2.554671,2.138077 -3.243829,3.221947 -2.925229,2.919374 -7.729728,1.574321 -10.446097,-0.953114 -2.941466,-1.785581 -3.429396,-5.706387 -2.762159,-8.771278 2.394106,-0.07929 4.544876,2.27501 7.103389,2.572383 1.789321,-0.21652 2.608298,2.505705 0.659541,1.203629 -2.271946,-3.051224 -2.540045,2.053794 0.02275,2.346136 3.643283,0.588926 4.4245,-4.885614 2.764953,-7.031911 -2.591651,-1.556932 -5.030149,2.172457 -7.480349,-0.212316 -3.715484,-0.812344 0.906482,-4.387346 2.449361,-5.319116 1.219695,-0.595014 2.572306,-0.658542 3.901291,-0.610345 z m -46.402344,0.0293 c 0.273029,2.949346 -1.124547,5.936002 -2.664215,8.342162 -1.613437,3.43916 2.45333,1.992981 2.600925,-0.340359 1.486506,-2.151979 1.124649,-5.737327 2.923077,-7.281105 4.144577,1.58488 5.508499,6.641512 4.476666,10.629404 0.02584,2.920293 -2.988562,4.672854 -5.322333,5.838667 -2.901832,1.62712 -6.620596,1.27315 -9.1097999,-0.939398 -3.1572367,-2.169123 -2.6439364,-6.400693 -2.4042629,-9.711725 0.2789825,-3.720043 3.6755718,-7.029385 7.5031948,-6.513802 0.665537,0.0095 1.332447,0.03375 1.996748,-0.02384 z m 7.386718,6.048825 c 0.231819,0.0261 -0.106474,0.468767 0,0 z m 39.054688,2.519536 c -0.255718,1.575156 -4.427742,-1.989077 -0.189453,-1.289061 z m -41.826172,7.255859 c 0.253666,0.0076 -0.457384,0.104079 0,0 z m -5.089844,4.128906 -0.10698,0.05267 z"
   style="fill:#91d902;fill-opacity:1;stroke-width:0.19540744" /></svg>