<?xml version="1.0" encoding="UTF-8"?><svg id="Calque_1" xmlns="http://www.w3.org/2000/svg" viewBox="0 0 354.67 222.19"><defs><style>.cls-1{fill:#91d902;}</style></defs><path class="cls-1" d="M225.57,154.81c.46-.08,.89,.06,1.32,.18,7.27,2.02,14.54,4.03,21.81,6.05,.27,.08,.54,.16,.81,.24,1.05,.32,1.4,.39,.84,1.61-.36,.77-.45,1.62-.47,2.47-.08,2.71-.09,5.41,.08,8.11,.05,.76-.06,1.42-.5,2.07-.68,1-.92,2.16-.94,3.37-.03,1.41,.04,2.82,.41,4.19,.45,1.67,1.16,3.18,2.72,4.12,1.41,.84,2.38,2.01,2.9,3.58,.17,.53,.47,1.02,.73,1.52,.47,.9,.53,1.82,.23,2.78-1,3.21,.21,5.89,2.22,8.23,1.39,1.63,3.32,2.07,5.39,1.43,.58-.18,.95-.1,1.35,.31,1.53,1.58,3.21,3,4.98,4.31,.51,.38,.91,.81,1.15,1.42,.49,1.23,1.36,2.2,2.26,3.14,.79,.83,1.79,1.37,2.87,1.72,.96,.31,1.94,.59,2.91,.88,1.16,.34,2.35,.27,3.53,.16,1.09-.1,2.12,.02,3.16,.32,1.08,.31,2.19,.52,3.29,.73,.64,.12,1.17,.31,1.51,.93,.54,1.01,1.45,1.54,2.53,1.82,1.8,.47,3.57,1.07,5.39,1.41,2.57,.47,5.16,.36,7.67-.48,.53-.18,1.04-.43,1.52-.72,.98-.6,1.52-1.45,1.49-2.65-.02-.96,.02-1,.79-1.21,1.63-.45,3.24-.96,4.81-1.59,.39-.16,.75-.16,1.14-.02,2.1,.78,4.11,.23,6.09-.48,1.54-.55,2.68-1.66,3.66-2.91,.7-.88,1.33-1.85,1.68-2.92,.25-.75,.67-1.28,1.26-1.74,.31-.24,.61-.5,.9-.77,.57-.52,1.16-.83,1.99-.61,.68,.18,1.33-.11,1.95-.41,1.42-.71,2.71-1.62,3.92-2.63,.3-.25,.57-.56,.78-.88,1.07-1.61,1.93-3.3,2.33-5.21,.13-.62,.27-1.27,.05-1.83-.29-.76-.01-1.29,.35-1.88,.5-.81,.99-1.64,1.43-2.49,.3-.57,.65-1.01,1.27-1.27,2.94-1.22,4.21-3.77,5.07-6.58,.46-1.52,.46-3.12,.6-4.69,.07-.8-.15-1.59-.76-2.17-.52-.49-.6-1.03-.49-1.68,.18-1.11,.31-2.23,.46-3.35,.12-.88,.46-1.62,1.32-2.02,.77-.36,1.15-1.01,1.44-1.78,.77-2.02,.73-4.09,.47-6.17-.1-.84-.45-1.62-.9-2.35-.42-.69-.9-1.31-1.7-1.56-.49-.15-.73-.45-.83-.95-.36-1.76-.75-3.52-1.13-5.28-.06-.3,0-.57,.24-.76,1.29-1.01,1.4-2.31,1.08-3.8-.39-1.83-.92-3.58-1.97-5.17-.66-.99-1.45-1.71-2.61-1.98-.33-.08-.65-.21-.98-.25-.44-.06-.69-.3-.92-.65-.94-1.47-1.89-2.94-2.85-4.39-.25-.37-.28-.7-.05-1.09,.73-1.25,.52-2.53-.09-3.72-.87-1.72-2.03-3.25-3.59-4.43-.84-.63-1.73-1.06-2.82-.73-.34,.1-.66,0-.99-.07-.44-.1-.9-.21-1.33-.14-.79,.13-1.41-.11-2.03-.56-1.46-1.06-3-2.01-4.59-2.85-.44-.24-.64-.55-.64-1.07,0-1.81-.91-3.1-2.49-3.9-1.05-.53-2.14-1.01-3.26-1.39-2.13-.73-4.13-.35-5.86,1.08-.55,.45-1.01,.56-1.67,.44-1.38-.24-2.78-.41-4.18-.53-.71-.06-1.29-.2-1.75-.81-.55-.72-1.32-1.22-2.03-1.77-1.42-1.09-2.96-1.18-4.44-.36-1.87,1.03-3.82,1.95-5.37,3.48-.3,.29-.64,.43-1.03,.53-.71,.18-1.43,.33-2.12,.58-.92,.33-1.69,.32-2.4-.48-.31-.36-.86-.52-1.32-.73-1.22-.56-2.42-.45-3.56,.24-.87,.52-1.74,1.05-2.55,1.65-1.12,.82-1.76,2.04-2.41,3.22-.19,.34-.34,.71-.49,1.07-.25,.59-.63,1.06-1.17,1.41-.47,.3-.93,.63-1.38,.97-.48,.35-.94,.47-1.57,.32-1.81-.46-3.34,.21-4.6,1.46-.52,.52-1.02,1.03-1.61,1.47-.98,.73-1.68,1.67-1.97,2.87-.19,.76-.47,1.53-.5,2.3-.03,1.02-.39,1.84-1.01,2.61-.21,.26-.37,.57-.52,.87-1.18,2.42-.52,5.28,1.54,6.84,2.32,1.76,5.27,1.4,7.12-.35,.86-.81,1.62-1.72,2.42-2.59,5.81-6.3,12.77-10.72,21.19-12.51,11.02-2.35,21.03-.04,29.8,7.14,5.75,4.7,9.5,10.77,11.71,17.82,1.62,5.17,2.1,10.49,1.68,15.87-.37,4.69-1.5,9.22-3.35,13.55-2.42,5.67-5.83,10.66-10.35,14.88-5.39,5.04-11.65,8.48-18.89,9.95-9.45,1.92-18.28,.25-26.33-5.06-5.89-3.89-10.14-9.22-12.98-15.66-2.69-6.09-3.73-12.49-3.41-19.12,.07-1.54,.2-1.65,1.72-1.23,4.62,1.26,9.23,2.54,13.84,3.82,7.38,2.04,14.76,4.08,22.14,6.1,.76,.21,1.51,.45,2.31,.49,2.74,.13,5.13-1.5,5.95-4.08,.81-2.56-.23-5.27-2.57-6.73-.68-.42-1.42-.68-2.18-.89-8.69-2.39-17.37-4.77-26.06-7.15-9.56-2.62-19.11-5.24-28.67-7.85-7.49-2.05-15-4.07-22.49-6.11-.65-.18-1.3-.36-1.95-.56-.63-.2-.68-.32-.44-1,.87-2.4,2.09-4.62,3.53-6.71,2.96-4.3,6.57-8.01,10.51-11.4,8.97-7.7,19.11-13.51,29.85-18.34,9.38-4.21,19.09-7.44,29.1-9.78,1.75-.41,3.51-.81,5.28-1.15,1.04-.2,2.07-.41,3.17-.21,.89,.16,1.79-.14,2.62-.5,.83-.36,1.63-.76,2.45-1.15,.62-.29,1.19-.67,1.61-1.21,1.36-1.72,2.77-3.42,3.64-5.46,1.32-3.08,1.5-6.21,.31-9.38-.16-.42-.36-.82-.53-1.24-.3-.75-.18-1.01,.67-1.11,1.34-.16,2.69-.27,4.03-.39,1.68-.15,3.37-.27,5.05-.42,3.31-.3,6.62-.61,9.92-.91,1.51-.14,3.03-.28,4.54-.41,2.97-.26,5.95-.5,8.92-.77,.67-.06,1.34-.18,2-.31,2.61-.52,5.22-4.17,4.92-6.92-.28-2.59-2.3-4.73-5.05-5.17-1.72-.28-3.46-.46-5.19-.67-3.75-.44-7.49-.87-11.24-1.29-2.52-.28-5.04-.52-7.56-.8-3.52-.39-7.05-.81-10.57-1.21-2.46-.28-4.93-.52-7.39-.8-2.57-.29-5.15-.58-7.72-.88-1.12-.13-2.24-.27-3.36-.38-.52-.05-.96-.23-1.37-.58-2.2-1.87-5.33-1.39-7.18,.06-5.82,4.59-12.16,8.36-18.84,11.55-9.28,4.44-18.94,7.81-28.95,10.19-4.66,1.11-9.36,1.98-14.11,2.61-6.16,.82-12.35,1.05-18.55,.7-3.43-.2-6.83-.71-10.16-1.59-.96-.25-1.75-.69-2.47-1.38-3.12-3.03-5.92-6.34-8.52-9.82-3.32-4.43-6.3-9.07-8.73-14.05-.92-1.87-1.74-3.78-2.37-5.78-.39-1.25-.69-2.5-.59-3.82,.07-.88-.21-1.66-.51-2.46-.63-1.67-1.88-2.48-3.59-2.64-1.87-.17-3.71,.03-5.52,.54-1.52,.42-3.05,.8-4.56,1.24-2.3,.68-4.66,.75-7.03,.71-.9-.01-1.8-.05-2.7-.08-2.58-.08-4.72,.78-6.4,2.81-.8,.97-1.65,1.91-1.81,3.18-.36,2.9,.28,5.49,2.63,7.43,.94,.77,2.06,1.14,3.3,1.11,3.1-.07,6.2-.13,9.29-.22,1.46-.04,2.93-.13,4.39-.24,.52-.04,.86,.16,1.12,.58,.48,.76,1.01,1.49,1.35,2.34,1.17,2.95,2.78,5.66,4.51,8.3,2.06,3.16,4.05,6.37,6.13,9.51,1.27,1.92,2.41,3.95,4,5.64,2.68,2.84,5.93,4.82,9.49,6.33,3.13,1.33,6.39,2.19,9.72,2.82,7.31,1.39,14.69,1.42,22.06,.93,9.58-.63,18.98-2.43,28.21-5.03,10.11-2.85,19.88-6.59,29.19-11.48,3.99-2.1,7.86-4.41,11.55-7,.37-.26,.75-.5,1.11-.78,.43-.33,.88-.44,1.42-.38,1.84,.22,3.69,.4,5.54,.61,.17,.02,.34,.05,.5,.09,.68,.17,1.46-.15,2.06,.42-.18,.7-.87,.99-1.25,1.54-1.15,1.66-1.7,3.43-1.07,5.42,.29,.91,.6,1.82,.94,2.71,.39,1.03,1.11,1.82,1.97,2.49,.31,.24,.64,.45,.97,.68,.52,.37,.66,.89,.6,1.48-.01,.11-.02,.23-.06,.33-.34,.89-.28,1.9-.79,2.74-.87,.19-1.74,.4-2.62,.57-4.59,.87-9.14,1.93-13.64,3.2-10.6,3-20.84,6.92-30.66,11.92-7.05,3.58-13.78,7.67-20.09,12.44-4.6,3.47-8.87,7.31-12.72,11.6-3.29,3.66-6.14,7.64-8.29,12.09-1.48,3.06-2.61,6.25-3.01,9.64-.43,3.61-.35,7.21,.89,10.69,.55,1.56,.36,1.64-1.21,1.39-1.23-.19-2.46-.26-3.7-.25-2.08,.02-4.17,0-6.25,.06-2.14,.06-4.28,.18-6.41,.3-3.99,.22-7.99,.39-11.98,.69-2.86,.22-5.73,.36-8.57,.82-1.28,.21-2.59,.14-3.85,.47-.48,.13-.86-.1-1.21-.43-1.79-1.71-3.54-3.45-5.18-5.32-1.68-1.91-3.29-3.84-4.56-6.05-.33-.58-.77-1.11-1.2-1.63-1.52-1.83-2.54-3.98-3.92-5.9-.77-1.07-1.16-2.43-1.71-3.66-.17-.38-.08-.76,.14-1.13,.53-.88,1.25-1.59,2.04-2.23,1.45-1.17,3.03-2.16,4.69-3,4.52-2.29,9.32-3.68,14.31-4.4,1.94-.28,3.92-.45,5.9-.38,1.25,.04,2.47,.21,3.69,.44,1.1,.21,2.15,.61,3.14,1.19,1.35,.79,2.8,1.11,4.38,.75,3.66-.84,5.12-4.77,3.76-7.68-.67-1.44-1.79-2.43-3.12-3.23-2.51-1.5-5.26-2.26-8.14-2.64-6.65-.89-13.15,.03-19.54,1.82-4.47,1.25-8.73,3.01-12.68,5.47-2.64,1.64-5.08,3.53-7.06,5.98-1.18,1.46-2.02,3.12-2.91,4.75-.76,1.4-.71,2.97-.36,4.46,.49,2.07,.88,4.2,2,6.07,.17,.29,.3,.61,.4,.93,.4,1.38,1.13,2.57,2.04,3.67,.25,.3,.51,.61,.69,.95,1.05,2.01,2.5,3.74,3.81,5.57,.33,.46,.66,.92,.92,1.41,1.03,1.9,2.4,3.54,3.9,5.07,.2,.2,.42,.38,.59,.6,1.73,2.32,3.89,4.22,5.89,6.28,.68,.7,1.43,1.28,2.34,1.61,.6,.22,1.1,.54,1.55,.99,1.19,1.19,2.65,1.69,4.31,1.55,1.23-.11,2.45-.34,3.68-.48,2.07-.24,4.14-.45,6.21-.66,1.34-.13,2.7-.17,4.04-.36,1.29-.19,2.58-.21,3.87-.25,.96-.03,1.92-.04,2.86-.25,.16-.04,.33-.05,.5-.06,4.11-.16,8.21-.34,12.32-.48,1.41-.05,2.81,0,4.22-.15,1.06-.11,2.13-.04,3.2,.11,1.5,.21,3.02,.34,4.54,.41,1.19,.06,2.36,.21,3.5,.52,1.76,.47,3.55,.61,5.35,.58,3.13-.05,5.43-2.27,5.58-5.4,.03-.67,.03-1.35,.08-2.02,.15-1.92-.52-3.53-1.83-4.91-.33-.35-.9-.53-.91-1.15-.14-.04-.29-.07-.1-.24,0,0,.11,.11,.17,.17Z"/><path class="cls-1" d="M14.82,161.74c.17-10.03,2.67-18.26,8.15-25.46,5.57-7.33,12.92-11.93,21.9-13.95,2.54-.57,5.12-.84,7.71-.88,4.82-.06,9.53,.75,14.1,2.3,1.08,.37,1.79,1.14,2.47,1.97,.15,.18,.17,.42,.08,.64-.23,.57-.47,1.15-.72,1.71-3.43,7.91-6.86,15.81-10.29,23.72-1.7,3.93-3.39,7.86-5.08,11.79-.27,.62-.53,1.25-.7,1.9-.77,2.92,1.03,5.45,3.11,6.21,2.54,.94,5.22,0,6.5-2.42,.79-1.49,1.43-3.06,2.1-4.61,2.8-6.46,5.58-12.93,8.36-19.39,2.87-6.67,5.74-13.35,8.6-20.03,2.87-6.68,5.73-13.35,8.6-20.03,2.29-5.33,4.61-10.65,6.87-15.99,.55-1.3,.81-1.17,1.68-.56,1.34,.93,2.7,1.85,3.93,2.92,1.28,1.1,2.72,1.97,4,3.04,.91,.76,1.8,1.54,2.62,2.39,2.44,2.5,4.84,5.04,7.27,7.55,1.14,1.18,2.1,2.5,2.88,3.94,.83,1.53,1.68,3.05,2.34,4.68,.93,2.29,3.19,3.59,5.68,3.45,2.36-.14,4.37-1.76,5.04-4.09,.09-.32,.18-.66,.18-.99,.04-1.69,.09-3.38-.35-5.04-.67-2.5-1.42-4.95-2.47-7.35-1.2-2.75-2.82-5.26-4.19-7.91-.73-1.41-1.86-2.54-2.94-3.69-3.86-4.13-8.18-7.73-12.74-11.07-1.5-1.1-2.92-2.31-4.59-3.15-.65-.33-1.31-.65-1.97-.96-.37-.17-.46-.44-.37-.82,.95-3.77,2.03-7.5,3.9-10.95,.65-1.21,1.51-2.23,2.73-2.92,1.13-.64,2.24-1.25,3.5-1.65,2.31-.72,4.6-1.51,6.85-2.41,4.19-1.69,7.86-4.14,10.77-7.65,.29-.35,.58-.7,.8-1.09,1.1-2.03,2.4-3.93,3.37-6.05,2.48-5.38,4.6-10.89,6.19-16.6,.51-1.84,1.07-3.68,1.3-5.59,.05-.41,.27-.55,.72-.48,1.06,.16,2.09,.46,3.09,.83,1.85,.69,3.68,1.41,5.52,2.11,.84,.32,1.69,.62,2.54,.93,4.04,1.46,7.97,1.08,11.82-.69,1.18-.54,2.37-1.06,3.5-1.67,1.81-.97,3.38-2.25,4.52-3.98,.73-1.11,1.14-2.32,1.15-3.65,.01-1.58-.04-3.15-.46-4.69-.44-1.62-1.24-3.01-2.53-4.11-1.67-1.42-3.85-1.66-5.66-.63-1.84,1.05-2.75,3.01-2.41,5.16,.2,1.31,.77,2.46,1.51,3.54,.23,.34,.14,.68-.24,.84-1.46,.6-2.8,1.44-4.33,1.89-1.18,.35-2.33,.38-3.48,0-.75-.24-1.49-.52-2.22-.8-2.42-.93-4.81-1.95-7.26-2.78-2.84-.96-5.76-1.61-8.78-1.45-2.68,.14-5.05,1.05-6.96,3.01-1.55,1.59-1.88,3.23-.87,5.23,.36,.72,.4,1.33,.2,2.09-1.09,4.15-2.54,8.17-4.12,12.15-.88,2.2-1.9,4.33-2.9,6.46-.57,1.22-1.33,2.35-2.08,3.48-.34,.51-.8,.96-1.28,1.34-1.89,1.54-3.91,2.87-6.29,3.53-1.2,.33-2.37,.72-3.5,1.22-.41,.18-.84,.33-1.28,.44-2.04,.51-3.88,1.44-5.7,2.49-2.76,1.59-4.94,3.73-6.54,6.45-1.26,2.14-2.23,4.41-3.06,6.76-.77,2.18-1.37,4.41-1.99,6.63-.15,.53-.32,.64-.86,.51-2.36-.57-4.77-.85-7.17-1.12-2.36-.26-4.73-.1-7.09,.02-1.01,.05-2.02,.18-3.03,.21-1.3,.03-2.59,.19-3.85,.47-2.48,.56-5,.8-7.51,1.18-2.79,.42-5.55,.94-8.28,1.6-2.46,.6-4.91,1.26-7.36,1.9-1.2,.32-2.36,.74-3.5,1.23-.93,.4-1.91,.67-2.88,.96-1.08,.32-2.13,.72-3.14,1.23-.65,.33-1.33,.62-2.02,.85-2.05,.67-3.68,1.98-5.09,3.52-2.7,2.95-1.3,7.87,2.57,9.28,1.45,.53,2.88,.48,4.27-.2,.77-.38,1.52-.7,2.39-.75,.43-.03,.89-.19,1.27-.42,1.73-1.02,3.68-1.38,5.57-1.92,2.76-.78,5.52-1.55,8.29-2.3,1.09-.29,2.19-.51,3.29-.74,1.49-.31,2.97-.63,4.47-.9,1.05-.19,2.11-.36,3.18-.42,1.52-.09,3.02-.32,4.52-.58,.44-.08,.89-.16,1.34-.18,3.61-.11,7.21-.04,10.77,.69,1.5,.31,2.88,.97,4.31,1.48,.21,.07,.34,.31,.27,.56-.15,.48-.31,.96-.51,1.43-1.25,2.89-2.52,5.78-3.78,8.68-2.58,5.94-5.16,11.88-7.74,17.82-.95,2.19-.78,1.9-2.78,1.07-.62-.26-1.22-.59-1.86-.81-1.08-.38-2.07-.81-2.66-1.9-.2-.37-.61-.67-.98-.92-1.82-1.25-3.79-2.2-5.94-2.77-.67-.18-1.31-.17-2-.05-1.35,.23-2.62,.65-3.84,1.25-.86,.42-1.74,.8-2.6,1.23-.52,.26-1.06,.38-1.62,.42-1.97,.12-3.93,.3-5.87,.62-.44,.07-.9,.11-1.33,.24-1.6,.48-3.22,.37-4.85,.23-.42-.04-.73-.21-1.05-.46-1.08-.87-2.3-1.04-3.66-.76-1.42,.29-2.63,1-3.85,1.69-1.63,.93-2.97,2.23-4.38,3.43-.96,.82-1.63,1.88-1.56,3.24,.03,.52-.19,.86-.58,1.14-1.49,1.11-2.95,2.26-4.3,3.55-.24,.23-.54,.43-.85,.54-.59,.21-1.1,.55-1.63,.88-.52,.32-1.11,.56-1.69,.74-2.97,.94-5.25,2.8-6.98,5.34-1.36,2-1.91,4.31-2.22,6.67-.12,.88,.23,1.67,.84,2.31,.36,.39,.37,.75,.19,1.22-.54,1.42-1.04,2.86-1.55,4.29-.14,.38-.32,.71-.68,.93-.81,.49-1.26,1.26-1.66,2.08-1.61,3.38-2.76,6.9-3.25,10.62-.2,1.51-.15,3.04,.06,4.55,.23,1.71,.81,2.32,2.54,2.65,.47,.09,.67,.27,.74,.73,.29,1.95,.57,3.9,.91,5.84,.21,1.22,.5,2.43,.82,3.62,.15,.57,.19,1.06-.08,1.62-.67,1.35-.55,2.75-.05,4.11,.45,1.21,.85,2.44,1.26,3.67,.83,2.45,2.45,4.28,4.71,5.52,.46,.25,.83,.55,1.1,1,.38,.63,.77,1.24,1.2,1.84,.66,.93,1.3,1.85,1.3,3.05,1.05,3.3,2.41,6.44,4.76,9.05,.87,.97,1.88,1.77,3,2.45,1.24,.74,2.53,.98,3.86,.29,.65-.34,1.14-.24,1.7,.16,1.05,.75,2.15,1.45,3.23,2.16,.38,.25,.73,.51,1.03,.86,.89,1.02,1.93,1.88,3.03,2.68,.82,.59,1.58,1.28,2.3,1.99,1.92,1.9,4.25,3,6.88,3.32,2.02,.25,4.05,.02,5.81-1.2,.31-.21,.6-.23,.95-.17,2.06,.35,4.13,.59,6.22,.58,.75,0,1.42,.2,2.1,.54,2.99,1.49,6.13,1.79,9.38,1.12,1.35-.28,2.53-.92,3.67-1.66,.49-.32,.88-.73,1.08-1.26,.23-.61,.68-.86,1.24-1.03,2.21-.69,4.36-1.53,6.43-2.56,.53-.26,1.03-.28,1.62-.24,2.93,.18,5.73-.25,8.15-2.07,1.38-1.04,2.22-2.53,2.9-4.09,.23-.52,.29-1.09,.09-1.65-.19-.56,.04-.96,.44-1.35,1.62-1.57,3.08-3.29,4.44-5.09,.28-.38,.64-.61,1.09-.75,2.19-.69,3.58-2.26,4.55-4.25,.39-.81,.67-1.67,.99-2.51,.38-.98,.46-1.98-.02-2.95-.22-.45-.14-.87,.03-1.3,1.17-3,2.1-6.07,2.74-9.22,.12-.56,.31-1.05,.89-1.35,.8-.41,1.18-1.18,1.41-2.02,.64-2.29,1.06-4.6,.63-7-.18-1.04-.5-1.97-1.36-2.62-.44-.33-.65-.73-.66-1.28-.04-1.98-.33-3.93-.67-5.87-.04-.22-.05-.45-.07-.67-.04-.36,.08-.64,.41-.86,1.32-.88,1.53-2.13,1.17-3.57-.11-.43-.21-.88-.22-1.33-.01-1.75-.66-3.3-1.47-4.8-.62-1.14-1.57-1.95-2.87-2.15-.85-.13-1.25-.56-1.59-1.27-.56-1.17-1.16-2.32-1.84-3.42-.99-1.57-2.44-2.48-4.31-2.62-3.9-.28-6.78,3.44-5.62,7.26,.18,.59,.44,1.16,.71,1.71,2.18,4.49,3.69,9.2,4.43,14.13,.71,4.76,.71,9.53-.13,14.3-1.12,6.33-3.49,12.1-7.4,17.22-5.67,7.42-13.09,12.08-22.21,14.05-2.77,.6-5.57,.89-8.39,.84-5.34-.09-10.51-1.13-15.45-3.21-9.81-4.11-17.27-10.87-22.61-20.02-3.02-5.17-4.91-10.75-5.78-16.66-.32-2.17-.57-4.36-.49-5.53Z"/><path class="cls-1" d="M225.57,154.81c-.06-.06-.16-.17-.17-.17-.19,.17-.04,.2,.1,.24l.07-.07Z"/></svg>