<?xml version="1.0" encoding="utf-8"?>
<!-- Generator: Adobe Illustrator 24.3.0, SVG Export Plug-In . SVG Version: 6.00 Build 0)  -->
<svg version="1.1" id="Calque_1" xmlns="http://www.w3.org/2000/svg" xmlns:xlink="http://www.w3.org/1999/xlink" x="0px" y="0px"
	 viewBox="0 0 80 80" style="enable-background:new 0 0 80 80;" xml:space="preserve">
<style type="text/css">
	.st0{fill:#91D902;}
</style>
<g>
	<g>
		<g>
			<g>
				<path class="st0" d="M15.6,65.1c0.1-2,0.8-3.3,2.9-3.6c2.2-0.4,4.6-0.2,6.8-0.2c4.3-0.1,8.5-0.1,12.8-0.2
					c7-0.1,14.1-0.5,21.1-0.4c1.1,0,2.3-0.1,3.3,0.1c1.9,0.4,1.9,2.7,1.9,4.3c0,1.1,1.6,1.1,1.6,0c0-1.9,0-4.1-1.8-5.3
					c-0.9-0.6-1.8-0.7-2.9-0.7c-3.3-0.1-6.6,0-9.9,0.1c-9.1,0.2-18.1,0.4-27.2,0.5c-2.3,0-5.1-0.3-7.3,0.6c-2,0.8-2.8,2.7-2.8,4.8
					C14.2,66,15.6,66,15.6,65.1L15.6,65.1z"/>
			</g>
		</g>
		<g>
			<g>
				<path class="st0" d="M14.9,65.7c2.5,0.2,5,0.1,7.5,0.1c3.2,0,6.3,0.1,9.5,0.1c8,0.1,16,0.4,23.9,0.3c3.2,0,6.4,0,9.6-0.4
					c1-0.1,0.6-1.7-0.4-1.5c-2.8,0.4-5.7,0.3-8.6,0.4c-4.2,0.1-8.4-0.1-12.6-0.1c-6.8-0.2-13.7-0.2-20.5-0.3c-2.8,0-5.8-0.3-8.6,0.2
					C14,64.6,14.2,65.7,14.9,65.7L14.9,65.7z"/>
			</g>
		</g>
	</g>
	<g>
		<g>
			<g>
				<path class="st0" d="M19.7,60c0.1-1.7,0.7-2.7,2.4-2.9C24,56.8,26,57,27.9,57c3.5-0.1,7-0.1,10.5-0.1c5.8-0.1,11.7-0.4,17.5-0.4
					c0.9,0,1.9-0.1,2.7,0.1c1.5,0.3,1.5,2.1,1.5,3.5c0,1.1,1.6,1.1,1.6,0c0-1.6-0.1-3.4-1.4-4.5c-0.7-0.6-1.5-0.6-2.4-0.7
					c-2.8-0.1-5.5,0-8.3,0c-7.7,0.2-15.3,0.3-23,0.4c-2,0-4.3-0.3-6.2,0.6C18.6,56.7,18,58.2,18,60C18.2,60.9,19.7,60.9,19.7,60
					L19.7,60z"/>
			</g>
		</g>
	</g>
	<g>
		<g>
			<path class="st0" d="M23,46c0.5,0.3,1.1,0.4,1.7,0.6c0.6,0.1,1.2,0.3,1.7,0.5c1,0.3,2,0.8,2.7,1.7c0.6,0.8,0.8,1.9,1.1,2.8
				c0.3,1.3,0.6,2.4,0.6,3.8c0.5-0.1,1.1-0.3,1.6-0.4c0-0.1-0.1-0.1-0.1-0.2c-0.2-0.3-0.5-0.5-0.9-0.4c-0.3,0.1-0.6,0.4-0.6,0.8
				c0,0.1,0,0.3,0.1,0.4c0.2,0.9,1.7,0.8,1.7-0.2c-0.1-1.5-0.3-2.9-0.7-4.3c-0.3-1.1-0.6-2.3-1.3-3.3c-0.8-1.1-1.9-1.7-3.1-2.2
				c-0.6-0.2-1.2-0.4-1.9-0.5c-0.7-0.2-1.4-0.4-2.1-0.4C22.7,44.8,22.4,45.7,23,46L23,46z"/>
		</g>
	</g>
	<g>
		<g>
			<path class="st0" d="M56.4,44.7c-0.6,0.1-1.3,0.4-1.9,0.6c-0.7,0.2-1.3,0.4-2,0.5c-1.2,0.3-2.4,0.7-3.2,1.6
				c-0.8,0.8-1.3,1.9-1.5,3c-0.3,1.4-0.4,3,0,4.5c0.3,1.1,2.1,0.6,1.7-0.5c-0.1-0.3-0.2-0.5-0.5-0.7c-0.5-0.3-1.3,0.1-1.2,0.7
				c0,0.1,0,0.1,0,0.2c0.6-0.1,1.1-0.2,1.7-0.2c-0.5-1.9-0.3-4.6,1.3-6.1c0.8-0.7,1.9-0.8,2.8-1.1c1.2-0.3,2.6-0.6,3.5-1.5
				C57.6,45.3,57,44.6,56.4,44.7L56.4,44.7z"/>
		</g>
	</g>
	<g>
		<g>
			<path class="st0" d="M30.5,49.5c2.2,0.2,4.4,0.8,6.5,0.2c1.8-0.5,2.9-1.9,3.5-3.6c-0.5-0.2-1.1-0.3-1.6-0.5
				c-0.4,2.1,1.8,3.3,3.5,3.6c2.2,0.4,4.7,0.6,6.9,0c1.1-0.3,0.6-2-0.5-1.7c-1.5,0.4-3.1,0.2-4.6,0.1c-0.8,0-1.7-0.1-2.5-0.4
				c-0.4-0.1-1.3-0.6-1.3-1.2c0.2-1.1-1.3-1.5-1.6-0.5c-0.5,1.5-1.5,2.5-3.1,2.6c-1,0.1-2,0.1-2.9,0c-0.8-0.1-1.7-0.4-2.5-0.2
				C29.4,48.3,29.7,49.5,30.5,49.5L30.5,49.5z"/>
		</g>
	</g>
	<g>
		<g>
			<path class="st0" d="M23.7,45.1c-0.2-0.3,0.3-1.3,0.5-1.6c0.4-0.7,1.1-1.3,1.8-1.7c1.9-1.2,4.2-1,6.3-1.4c1-0.2,1.9-0.5,2.9-0.7
				c0.7-0.1,1.5-0.3,1.9-0.9c0.3-0.5,0.3-1.3,0.2-1.9c0-0.7,0-1.4-0.3-2s-1.3-0.4-1.4,0.2c-0.2,0.6,0,1.4,0.1,2c0,0.3,0.1,0.7,0,0.9
				c0.1-0.3,0.1-0.1-0.1-0.1c-0.1,0-0.4,0.1-0.5,0.1c-1,0.2-1.9,0.5-2.8,0.7c-1.2,0.2-2.3,0.3-3.5,0.4c-2.2,0.3-4.3,1.3-5.6,3.1
				c-0.6,0.8-1.7,3.2-0.4,3.8C23.4,46.3,24.1,45.7,23.7,45.1L23.7,45.1z"/>
		</g>
	</g>
	<g>
		<g>
			<path class="st0" d="M42.7,35.3c-0.1,0.9-0.2,1.9,0,2.8c0.1,0.6,0.8,0.7,1.2,0.5c-0.2,0.1,0.3,0.1,0.4,0.1c0.3,0,0.5,0.1,0.8,0.1
				c0.5,0.1,1,0.3,1.6,0.4c1.5,0.5,3,0.9,4.6,1.3c1.2,0.3,2.5,0.7,3.4,1.7c0.8,0.8,1,2,1,3.1s1.7,1.1,1.8,0c0-1.4-0.3-2.9-1.2-4
				c-1-1.2-2.5-1.9-4-2.3c-0.8-0.2-1.6-0.4-2.3-0.6c-1-0.3-2-0.6-3.1-0.9c-1.1-0.3-2.5-0.8-3.6-0.3c0.4,0.2,0.8,0.3,1.2,0.5
				c-0.2-0.8-0.1-1.6-0.2-2.4C44,34.4,42.8,34.4,42.7,35.3L42.7,35.3z"/>
		</g>
	</g>
	<g>
		<g>
			<path class="st0" d="M33.9,25.3c-0.1,0.6-0.4,1.1-0.5,1.7c-0.1,0.7,0,1.4,0,2.1c0.1,1.1,0.1,2.2,0.3,3.3c0.2,1,0.5,1.9,1.1,2.7
				c0.6,0.7,1.5,1.2,2.4,1.5c3.2,1.2,7.4,0.1,8.8-3.1c0.5-1.1,0.6-2.3,0.7-3.5c0.1-1.4,0-2.8-0.2-4.2c-0.2-1.1-1.9-0.6-1.7,0.5
				c0.2,1,0.2,2.1,0.2,3.1c0,0.9-0.1,1.9-0.3,2.8c-0.4,1.3-1.4,2.2-2.6,2.8c-1.2,0.5-2.6,0.6-3.9,0.2c-0.7-0.2-1.4-0.5-1.9-0.9
				c-0.6-0.5-0.9-1.3-1-2.1c-0.2-1-0.2-2-0.3-3c-0.1-0.6-0.2-1.3-0.1-1.9c0-0.6,0.1-1.2,0.2-1.8C35.2,24.8,34.1,24.6,33.9,25.3
				L33.9,25.3z"/>
		</g>
	</g>
	<g>
		<g>
			<path class="st0" d="M34.2,31.1c-1.3,0.1-2.2-0.9-2.5-2.1c-0.3-1.3,0.7-2,1.8-2.3c1.2-0.4,2.4-0.5,3.6-0.9
				c1.5-0.5,2.8-1.5,3.9-2.7c-0.5-0.1-0.9-0.1-1.4-0.2c1.2,2.4,3.8,3,6.1,3.7c1.5,0.4,2.7,1.2,3,2.8c0.2,0.8-0.2,1.2-0.7,1.7
				c-0.2,0.2-0.5,0.3-0.7,0.5c-0.1,0.1-0.2,0.1-0.3,0.1c-0.1,0-0.1,0,0,0c-0.8-0.8-2.1,0.5-1.3,1.3c1.2,1.1,2.7,0.1,3.7-0.7
				c1.5-1.4,1.3-3.3,0.3-5c-1.9-3.2-7-1.8-8.6-5.2c-0.2-0.5-1-0.6-1.4-0.2c-1.4,1.5-3,2.2-4.9,2.7c-1.5,0.3-3.2,0.7-4.2,2
				c-1.1,1.3-0.8,3,0,4.3s2.4,2.6,3.9,1.7C35.1,32.1,34.9,31.1,34.2,31.1L34.2,31.1z"/>
		</g>
	</g>
	<g>
		<g>
			<path class="st0" d="M31.2,28.8c-0.1-0.8,0-1.6,0-2.4c0-0.9,0-1.8,0.1-2.7C31.5,22,32,20.4,33,19c1.7-2.4,4.7-4.2,7.7-3.4
				c2.8,0.7,5.1,3,6.3,5.6c0.7,1.5,1.1,3.2,1.5,4.7c0.3,1.3,0.6,2.9,0.2,4.3c-0.3,1.1,1.3,1.5,1.7,0.5c0.9-2.7-0.4-5.8-1.1-8.4
				s-2.3-4.9-4.5-6.6c-2.1-1.6-4.8-2.4-7.5-1.8c-2.7,0.7-5.1,2.8-6.4,5.2c-0.8,1.5-1.2,3.2-1.3,4.9c-0.1,1.6-0.3,3.6,0.2,5.1
				C30.2,30.1,31.5,29.7,31.2,28.8L31.2,28.8z"/>
		</g>
	</g>
</g>
</svg>
