<?xml version="1.0" encoding="utf-8"?>
<!-- Generator: Adobe Illustrator 24.3.0, SVG Export Plug-In . SVG Version: 6.00 Build 0)  -->
<svg version="1.1" id="Calque_1" xmlns="http://www.w3.org/2000/svg" xmlns:xlink="http://www.w3.org/1999/xlink" x="0px" y="0px"
	 viewBox="0 0 80 80" style="enable-background:new 0 0 80 80;" xml:space="preserve">
<style type="text/css">
	.st0{fill:#91D902;}
</style>
<g>
	<g>
		<g>
			<path class="st0" d="M15.1,18.7c2,0.1,4-0.3,6-0.4c2.1-0.2,4.2-0.2,6.2,0c4.1,0.3,8.3,0.7,12.4,0.8s8.2-0.2,12.2-0.7
				c2.1-0.3,4.2-0.5,6.3-0.4c1,0,1.9,0,2.9,0c0.5,0,1,0,1.5,0c0.1,0,1.7,0,1.5-0.1c0-0.3-0.1-0.6-0.1-0.9c0,0,0,0.1-0.1,0.1
				c-0.5,0.8,0.8,1.6,1.3,0.8c0,0,0-0.1,0.1-0.1c0.2-0.3,0.1-0.7-0.1-0.9c-0.5-0.5-1.4-0.3-2.1-0.3c-1.1,0-2.3-0.1-3.4-0.1
				c-2.1,0-4.2,0-6.3,0.3c-4.2,0.5-8.4,1-12.7,0.9s-8.6-0.5-12.9-0.8c-2.1-0.1-4.2-0.2-6.3,0c-2.2,0.2-4.3,0.5-6.5,0.6
				C14.2,17.4,14.2,18.7,15.1,18.7L15.1,18.7z"/>
		</g>
	</g>
	<g>
		<g>
			<path class="st0" d="M15.4,23.8c1-0.2,2.1,0,3.1-0.1c0.9,0,1.9-0.1,2.8-0.1c2.1-0.1,4.1,0.1,6.2,0.2c4.1,0.3,8.2,0.5,12.4,0.5
				s8.3,0,12.5-0.2c2.1-0.1,4.2-0.2,6.4-0.2c1.9,0,4-0.2,5.9,0.3c0.9,0.3,1.3-1.2,0.4-1.4c-1.9-0.6-3.9-0.4-5.8-0.4
				c-2.1,0-4.3,0.1-6.4,0.1c-4.3,0.2-8.7,0.3-13,0.2c-4.3,0-8.6-0.2-12.8-0.5C25,22.1,23,21.9,20.9,22c-1.9,0.1-4-0.2-5.8,0.4
				C14.2,22.7,14.5,23.9,15.4,23.8L15.4,23.8z"/>
		</g>
	</g>
	<g>
		<g>
			<path class="st0" d="M17.5,17.7c-0.7,1.1,1.2,2.3,1.9,2.7c1.2,0.8,2.5,1.6,3.8,2.3c0.3,0.2,0.5,0.3,0.8,0.5
				c0.1,0.1,0.2,0.1,0.3,0.2l0.1,0.1c0.1,0-0.2-0.1,0,0c-0.1-0.2-0.1-0.4-0.2-0.5c0,0,0,0,0,0.1c0-0.1,0.1-0.3,0.1-0.4l0,0
				c0.1-0.1,0.2-0.2,0.3-0.3c-0.1,0.1-0.2,0.1-0.2,0.2c-0.5,0.5,0,1.3,0.7,1.2c0,0,0,0,0.1,0c-0.1,0-0.3,0-0.4,0c0.1,0,0.2,0,0.3,0
				c0.2,0,0.5-0.1,0.6-0.4c0,0,0,0,0-0.1c0.1-0.3,0.1-0.7-0.1-0.9c-0.8-0.7-1.9-1.2-2.8-1.7c-0.6-0.4-1.3-0.7-1.9-1.1
				c-0.3-0.2-0.6-0.4-0.8-0.5c-0.1-0.1-0.3-0.2-0.4-0.3c-0.1,0-0.1-0.1-0.2-0.1c0.1,0.1,0,0-0.1-0.1c-0.2-0.2-0.4-0.4-0.6-0.5
				c-0.1-0.1,0.1,0.2,0,0c0,0,0-0.1-0.1-0.1c0.1,0,0.1,0.2,0,0.1c0-0.1,0,0,0,0s0,0,0,0.1c0-0.1,0-0.1,0-0.2c0,0.3,0,0.2,0,0.1
				C18.8,17.3,17.8,17.2,17.5,17.7L17.5,17.7z"/>
		</g>
	</g>
	<g>
		<g>
			<path class="st0" d="M23.9,23c0-0.1,0.1-0.1,0.1-0.2c0.1-0.1-0.1,0,0.1-0.1c0.1-0.1,0.2-0.2,0.2-0.3c0.2-0.2,0.3-0.3,0.6-0.4
				c0.5-0.3,1-0.6,1.4-0.9c0.6-0.4,1.1-0.9,1.7-1.4c0.3-0.2,0.5-0.4,0.8-0.6c0.4-0.3,0.9-0.6,0.8-1.2c-0.2-0.6-1.1-0.8-1.4-0.2v0.1
				c-0.1,0.2,0,0.1,0.1-0.1c-0.4,0.4-0.1,1.2,0.5,1.2c0.1,0,0.1,0,0.2,0c-0.1,0-0.2,0-0.1,0c-0.2-0.4-0.4-0.8-0.7-1.1c0,0,0,0,0,0.1
				c0.1-0.1,0.2-0.2,0.3-0.3c-0.7,0.4-1.3,0.9-1.9,1.4c-0.3,0.2-0.6,0.5-0.8,0.7c-0.1,0-0.1,0.1-0.2,0.1c0.1-0.1-0.1,0-0.1,0
				c-0.1,0.1-0.2,0.2-0.3,0.2c-0.5,0.3-1,0.7-1.5,1c-0.4,0.3-0.9,0.8-1.1,1.4c-0.1,0.3,0.1,0.7,0.4,0.8C23.4,23.5,23.7,23.3,23.9,23
				L23.9,23z"/>
		</g>
	</g>
	<g>
		<g>
			<path class="st0" d="M27.2,18.3L27.2,18.3c0,0,0-0.1,0-0.2c0,0.4,0.3,0.7,0.5,1s0.4,0.5,0.6,0.8c0.4,0.5,0.8,1,1.3,1.4
				c0.5,0.5,1,0.9,1.5,1.3c0.5,0.4,0.9,0.8,1.4,1.2c0.7,0.5,1.6-0.6,0.9-1.2c-0.9-0.8-1.8-1.6-2.7-2.4c-0.5-0.4-0.9-0.9-1.3-1.4
				c-0.2-0.2-0.4-0.5-0.6-0.7c-0.3-0.3-0.5-0.6-0.9-0.6c0.1,0,0.2,0.1,0.3,0.1c0,0,0,0-0.1,0c-0.2-0.2-0.5-0.1-0.7,0.1
				C27.1,17.8,27.1,18,27.2,18.3L27.2,18.3z"/>
		</g>
	</g>
	<g>
		<g>
			<path class="st0" d="M33.5,23.3C33.6,23.1,33.4,23.4,33.5,23.3s0.3-0.3,0.2-0.2c0.1-0.1,0.2-0.2,0.3-0.3s0.2-0.2,0.3-0.3
				c0,0,0.2-0.2,0.3-0.2c0.4-0.3,0.9-0.6,1.3-0.9c1-0.8,1.9-1.7,3-2.4c0.4-0.2,0.5-0.7,0.3-1.1c-0.2-0.4-0.7-0.5-1.1-0.3
				c-0.6,0.4-1.2,0.8-1.7,1.3c-0.3,0.2-0.5,0.5-0.8,0.7c-0.1,0.1-0.3,0.2-0.4,0.3L35.1,20c0.1-0.1-0.1,0.1-0.1,0.1
				c-0.5,0.4-1,0.7-1.5,1.1c-0.2,0.2-0.4,0.4-0.6,0.6c-0.2,0.3-0.3,0.6-0.5,0.9c-0.1,0.3,0.1,0.6,0.4,0.7
				C33,23.6,33.4,23.6,33.5,23.3L33.5,23.3z"/>
		</g>
	</g>
	<g>
		<g>
			<path class="st0" d="M37.1,19.1c0.7,1.1,1.5,2,2.4,2.9c0.4,0.3,0.8,0.6,1.1,1c0.2,0.2,0.3,0.3,0.5,0.5c0.1,0.1-0.1-0.1,0,0
				c0,0,0,0.1,0.1,0.1c0,0,0,0.1,0.1,0.1c-0.1-0.1-0.1-0.2,0-0.1c0.1,0.2,0.1,0.3,0,0.1c0.1,0.4,0.5,0.6,0.9,0.6
				c0.3,0,0.7-0.4,0.7-0.8c-0.1-0.6-0.4-1-0.8-1.4c-0.4-0.4-0.8-0.7-1.2-1s-0.8-0.7-1.2-1.1c-0.5-0.5-0.9-1.1-1.4-1.6
				c-0.3-0.2-0.6-0.3-0.9-0.1C37.1,18.4,36.9,18.8,37.1,19.1L37.1,19.1z"/>
		</g>
	</g>
	<g>
		<g>
			<path class="st0" d="M42.4,23.8c0.4-0.4,0.8-0.8,1.2-1.2c0.5-0.4,0.9-0.7,1.4-1.1c0.5-0.4,1-0.8,1.5-1.2c0.6-0.4,1.1-0.9,1.6-1.4
				c0.3-0.3,0.3-0.8,0-1.1s-0.8-0.3-1.1,0c-1,0.9-2.1,1.7-3.2,2.6c-0.5,0.4-0.9,0.7-1.4,1.1c-0.4,0.4-1,0.9-1.2,1.4
				c-0.1,0.3-0.1,0.7,0.2,0.9C41.8,24,42.2,24,42.4,23.8L42.4,23.8z"/>
		</g>
	</g>
	<g>
		<g>
			<path class="st0" d="M46.8,19.6c0.1,0,0.2,0.1,0.2,0.1c-0.2-0.1-0.1,0,0,0c0.1,0.1,0.2,0.1,0.3,0.2l0.1,0.1l0,0c0,0,0,0,0.1,0.1
				s0.2,0.2,0.3,0.2c0.3,0.3,0.6,0.7,1,1c0.2,0.2,0.5,0.4,0.8,0.6c0.1,0.1,0.3,0.2,0.4,0.2s0.1,0.1,0.2,0.1s0.2,0.1,0.1,0
				c0.5,0.4,0.9,1.2,1.6,1.2c0.5,0,1-0.7,0.7-1.2c-0.1-0.1-0.2-0.2-0.3-0.3c-0.2-0.1,0.1,0.1,0,0s-0.2-0.2-0.3-0.3
				c-0.2-0.2-0.5-0.5-0.7-0.7c-0.3-0.2-0.6-0.3-0.8-0.5c-0.1,0-0.2-0.1-0.2-0.2c0,0-0.1,0-0.1-0.1l0,0C50.1,20,50,20,50,19.9
				c-0.4-0.3-0.7-0.7-1.1-1c-0.5-0.4-1.1-0.8-1.8-0.5C46.4,18.6,46.4,19.4,46.8,19.6L46.8,19.6z"/>
		</g>
	</g>
	<g>
		<g>
			<path class="st0" d="M52.3,22.8C52.2,23,52.3,22.9,52.3,22.8C52.4,22.6,52.4,22.6,52.3,22.8C52.3,22.8,52.3,22.7,52.3,22.8
				c0.1-0.1,0.1-0.2,0.1-0.2c0-0.1,0.1-0.1,0,0c0.2-0.2,0.3-0.4,0.5-0.5c0.4-0.3,0.8-0.7,1.2-1c0.5-0.4,1-0.9,1.4-1.4
				c0.6-0.6,1.2-1.1,1.8-1.7c0.3-0.3,0.3-0.8,0-1.1s-0.8-0.3-1.1,0c-0.6,0.6-1.2,1.2-1.9,1.8c-0.5,0.5-0.9,1-1.4,1.4
				c-0.4,0.4-0.8,0.7-1.2,1.1c-0.4,0.5-0.8,1-0.7,1.6c0,0.3,0.4,0.5,0.7,0.5C52,23.3,52.2,23.1,52.3,22.8L52.3,22.8z"/>
		</g>
	</g>
	<g>
		<g>
			<path class="st0" d="M55.4,18.4c0,0.1,0.1,0.2,0.1,0.2l0.1,0.1c-0.1-0.1-0.1-0.1,0,0c0.1,0,0.1,0.1,0.2,0.1s-0.1-0.1,0,0
				c0,0,0.3,0.2,0.1,0.1L56,19c0.1,0.1,0.2,0.2,0.3,0.2c0.4,0.3,0.7,0.6,1.1,1c0.5,0.4,0.9,0.8,1.3,1.2c0.5,0.4,0.9,0.9,1.4,1.3
				c0.3,0.3,0.8,0.3,1.2,0c0.3-0.3,0.3-0.8,0-1.2c-0.9-0.9-1.9-1.7-2.8-2.5c-0.4-0.3-0.8-0.6-1.1-0.9c-0.4-0.3-1-0.9-1.6-0.7
				C55.3,17.6,55.2,18,55.4,18.4L55.4,18.4z"/>
		</g>
	</g>
	<g>
		<g>
			<g>
				<path class="st0" d="M37.8,33.1c0-0.1,0-0.2,0-0.3v-0.2v-0.2c0-0.1,0-0.2,0-0.3c0-0.5,0-0.6,0.1-1c0.2-0.9,0.7-1.9,1.4-2.5
					c0.3-0.3,0.6-0.4,1-0.5c-0.1,0,0.1,0,0.1,0c0.1,0,0.2,0,0.3,0s0,0,0,0h0.1c0.1,0,0.2,0.1,0.3,0.1s-0.1,0,0,0h0.1
					c0.1,0,0.2,0.1,0.3,0.2c0,0,0.1,0.1,0,0l0.1,0.1c0.1,0.1,0.1,0.1,0.2,0.2c0.2,0.2,0.4,0.6,0.5,0.9c0.2,0.5,0.2,1.1,0.2,1.6
					c0,0.6,0,1.3,0.2,1.8c0.1,0.3,0.4,0.6,0.8,0.6c0.3,0,0.7-0.2,0.8-0.6c0.1-0.6,0-1.3,0-1.9c0-0.7-0.1-1.3-0.3-2c-0.3-1-1-2-2-2.4
					c-1-0.5-2.2-0.4-3.2,0.2c-1.1,0.7-1.8,1.9-2.2,3.1c-0.2,0.6-0.2,1.2-0.3,1.7c0,0.3,0,0.6,0,0.9c0.1,0.4,0.2,0.6,0.5,0.9
					C37.2,34,37.9,33.6,37.8,33.1L37.8,33.1z"/>
			</g>
		</g>
		<g>
			<g>
				<path class="st0" d="M37.3,33.8c0.5-0.1,1.1,0,1.7,0c0.5,0,1,0,1.5,0c1-0.1,2.1,0,3.2-0.1c0.4-0.1,0.6-0.5,0.6-0.9
					c-0.1-0.4-0.4-0.7-0.8-0.7c-0.5,0-1,0.1-1.5,0.1s-1.1,0-1.6,0.1c-0.6,0-1,0.1-1.6,0.1s-1.3-0.1-1.9,0.1
					c-0.4,0.1-0.6,0.5-0.5,0.9C36.5,33.7,36.9,33.8,37.3,33.8L37.3,33.8z"/>
			</g>
		</g>
	</g>
	<g>
		<g>
			<g>
				<path class="st0" d="M21.4,33.2c0.2,0.1-0.1-0.1-0.2-0.1c0,0-0.2-0.1-0.1-0.1c-0.2-0.1-0.3-0.3-0.5-0.5
					c-0.3-0.3-0.4-0.5-0.6-0.9c-0.5-0.8-0.9-2-0.7-2.9c0-0.1,0-0.2,0.1-0.3c0-0.1,0.1-0.1,0.1-0.2c0-0.1,0.1-0.2,0.1-0.2
					s0-0.1,0.1-0.1c0-0.1,0,0,0-0.1c0.1-0.1,0.1-0.1,0.2-0.2c0,0,0.2-0.2,0.1-0.1c0.1-0.1,0.1-0.1,0.2-0.1c0,0,0.1,0,0.1-0.1
					c0.1-0.1-0.1,0,0,0s0.2-0.1,0.2-0.1s0.3-0.1,0.2,0c-0.1,0,0.2,0,0.2,0c0.1,0,0.2,0,0.3,0c0.2,0,0.1,0,0,0c0.1,0,0.1,0,0.2,0
					c0.1,0,0.2,0,0.2,0.1c0.2,0.1,0.3,0.1,0.5,0.2c0.5,0.3,0.9,0.6,1.3,1c0.4,0.4,0.9,0.9,1.4,1.2c0.3,0.2,0.7,0.1,0.9-0.1
					c0.2-0.2,0.3-0.7,0.1-0.9c-0.4-0.5-0.9-0.9-1.4-1.3c-0.5-0.4-1-0.9-1.6-1.2c-0.9-0.5-2.1-0.7-3.1-0.3s-1.8,1.2-2.1,2.3
					c-0.4,1.3,0,2.8,0.6,3.9c0.3,0.5,0.7,1,1.1,1.5c0.5,0.5,1,1,1.7,0.9c0.3,0,0.5-0.3,0.5-0.6C21.8,33.6,21.6,33.4,21.4,33.2
					L21.4,33.2z"/>
			</g>
		</g>
		<g>
			<g>
				<path class="st0" d="M21.7,34.2C21.6,34.3,21.7,34.1,21.7,34.2c0.1-0.1,0.1-0.2,0.2-0.2c0.1-0.1,0.2-0.2,0.3-0.3
					c0.2-0.2,0.4-0.4,0.7-0.6c0.4-0.3,0.7-0.7,1.1-1.1c0.4-0.4,0.7-0.8,1.1-1.2c0.4-0.4,0.8-0.8,1.1-1.2c0.2-0.3,0.1-0.8-0.2-1.1
					c-0.3-0.2-0.8-0.2-1.1,0.1c-0.4,0.4-0.7,0.7-1,1.1c-0.4,0.4-0.7,0.8-1.1,1.2c-0.1,0.1-0.2,0.2-0.3,0.4c0,0-0.1,0.1,0,0l-0.1,0.1
					c-0.2,0.2-0.4,0.4-0.6,0.6c-0.5,0.4-1,0.9-1.2,1.4c-0.2,0.3-0.1,0.8,0.3,1C21.1,34.6,21.4,34.5,21.7,34.2L21.7,34.2z"/>
			</g>
		</g>
	</g>
	<g>
		<g>
			<g>
				<path class="st0" d="M58,34.5c0.6,0.1,1.1-0.3,1.5-0.7s0.7-0.8,1-1.2c0.8-1.2,1.2-2.6,0.9-4c-0.2-1-0.8-2-1.8-2.4
					c-1-0.5-2.1-0.4-3.1,0c-0.7,0.3-1.2,0.7-1.8,1.2c-0.5,0.5-1.2,0.9-1.6,1.5c-0.2,0.3-0.1,0.7,0.1,0.9s0.6,0.3,0.9,0.1
					c0.4-0.2,0.8-0.7,1.2-1c0.4-0.3,0.8-0.7,1.2-0.9c0.4-0.3,0.6-0.4,1.1-0.5h0.1c0.1,0-0.1,0,0,0s0.2,0,0.3,0c0.1,0,0.2,0,0.3,0
					c0.1,0,0,0,0,0c0.1,0,0.1,0,0.2,0s0.2,0,0.2,0.1c0,0,0.1,0,0,0s0.1,0,0.1,0c0.1,0,0.2,0.1,0.2,0.1s0.1,0.1,0,0s0.1,0.1,0.1,0.1
					c0.1,0.1,0.1,0.1,0.2,0.2l0.1,0.1c0-0.1,0,0,0,0c0.1,0.1,0.1,0.2,0.1,0.2c0.1,0.1,0,0.1,0.1,0.2c0.3,0.9,0.1,1.9-0.3,2.8
					c-0.2,0.4-0.5,0.8-0.7,1.1c-0.2,0.2-0.3,0.4-0.5,0.5c-0.1,0.1,0,0-0.1,0.1s-0.4,0.3-0.2,0.2c-0.2,0.2-0.4,0.4-0.3,0.7
					C57.6,34.1,57.8,34.4,58,34.5L58,34.5z"/>
			</g>
		</g>
		<g>
			<g>
				<path class="st0" d="M58.8,33.4c-0.3-0.5-0.8-1-1.2-1.4c-0.2-0.2-0.4-0.4-0.6-0.6l-0.1-0.1c0.1,0.1,0,0,0,0
					c-0.1-0.1-0.2-0.3-0.3-0.4c-0.3-0.4-0.7-0.8-1.1-1.2c-0.3-0.4-0.7-0.8-1-1.1s-0.8-0.3-1.1-0.1c-0.3,0.2-0.4,0.7-0.2,1.1
					c0.3,0.4,0.7,0.8,1.1,1.2s0.8,0.8,1.1,1.2c0.3,0.4,0.7,0.8,1,1.1c0.2,0.2,0.4,0.4,0.7,0.6c0.1,0.1,0.2,0.2,0.3,0.3
					c0,0.1,0.1,0.1,0.1,0.2c0,0,0.2,0.2,0.1,0.1c0.2,0.3,0.6,0.5,1,0.3C58.9,34.2,59,33.8,58.8,33.4L58.8,33.4z"/>
			</g>
		</g>
	</g>
	<g>
		<g>
			<path class="st0" d="M40.9,26.6L40.9,26.6L40.9,26.6c0-0.1,0.1-0.3,0.1-0.4c0.1-0.2,0.1-0.4,0.1-0.7c0-0.2,0.1-0.5,0.1-0.8
				c0-0.2,0-0.4-0.1-0.6s-0.3-0.4-0.6-0.4c-0.4-0.1-0.7,0.1-0.9,0.4c-0.1,0.1-0.1,0.3,0,0.5s0.2,0.3,0.3,0.4l0,0
				c-0.1,0-0.1-0.1-0.2-0.1l0,0c0-0.1-0.1-0.1-0.1-0.2l0,0c0-0.1-0.1-0.1-0.1-0.2c0,0.1,0,0.1,0,0.2c0-0.1,0-0.1,0-0.2
				c0,0.3,0,0.7-0.1,1c0,0.2,0,0.3,0,0.5s0,0.4,0.1,0.5c0.1,0.3,0.4,0.5,0.7,0.5C40.7,27.2,40.9,26.9,40.9,26.6L40.9,26.6z"/>
		</g>
	</g>
	<g>
		<g>
			<path class="st0" d="M19.1,26.6L19.1,26.6C19.1,26.8,19.1,26.7,19.1,26.6L19.1,26.6c0-0.2,0.1-0.3,0.1-0.4
				c0.1-0.3,0.1-0.5,0.1-0.8c0.1-0.7,0.2-1.7-0.6-1.9c-0.4-0.1-0.7,0.1-0.9,0.4c-0.1,0.1-0.1,0.3,0,0.5s0.2,0.3,0.3,0.4l0,0
				c-0.1,0-0.1-0.1-0.2-0.1l0,0c0-0.1-0.1-0.1-0.1-0.2l0,0c0-0.1-0.1-0.1-0.1-0.2l0,0c0-0.1,0-0.1,0-0.2c0,0.1,0,0.2,0.1,0.4
				c0-0.1,0-0.1,0-0.2c0,0.4,0,0.8-0.1,1.1c0,0.2,0,0.4,0,0.6c0,0.2,0,0.4,0.1,0.6c0.1,0.3,0.4,0.5,0.7,0.5
				C18.9,27.2,19.1,26.9,19.1,26.6L19.1,26.6z"/>
		</g>
	</g>
	<g>
		<g>
			<path class="st0" d="M60.9,26.6L60.9,26.6C60.9,26.8,60.9,26.7,60.9,26.6L60.9,26.6c0-0.2,0.1-0.3,0.1-0.4
				c0.1-0.3,0.1-0.5,0.1-0.8c0.1-0.7,0.2-1.7-0.6-1.9c-0.4-0.1-0.7,0.1-0.9,0.4c-0.1,0.1-0.1,0.3,0,0.5s0.2,0.3,0.3,0.4l0,0
				c-0.1,0-0.1-0.1-0.2-0.1l0,0c0-0.1-0.1-0.1-0.1-0.2l0,0c0-0.1-0.1-0.1-0.1-0.2l0,0c0-0.1,0-0.1,0-0.2c0,0.1,0,0.2,0.1,0.4
				c0-0.1,0-0.1,0-0.2c0,0.4,0,0.8-0.1,1.1c0,0.2,0,0.4,0,0.6c0,0.2,0,0.4,0.1,0.6c0.1,0.3,0.4,0.5,0.7,0.5
				C60.7,27.2,60.9,26.9,60.9,26.6L60.9,26.6z"/>
		</g>
	</g>
	<g>
		<g>
			<path class="st0" d="M15.1,44.2c0.8,0.2,1.7,0.1,2.5,0.1c1.1,0,2.2,0,3.3-0.2c2-0.2,4-0.1,6-0.2c4.2-0.3,8.4-0.1,12.7-0.3
				c8.5-0.4,16.9,0.8,25.4,0.8c0.9,0,0.9-1.5,0-1.5c-8.3,0.1-16.6-1.2-24.9-0.8c-4.1,0.2-8.3,0-12.4,0.3c-2,0.2-4,0-6,0.2
				c-1,0.1-2,0.2-3,0.3c-1,0-2.2,0.2-3.1,0C14.6,42.8,14.3,43.9,15.1,44.2L15.1,44.2z"/>
		</g>
	</g>
	<g>
		<g>
			<g>
				<path class="st0" d="M30.8,50.6c-0.2-0.9-1.2-1.2-2-1.2c-0.7,0-1.4,0.1-2.1,0.3c-0.9,0.4-1.8,0.9-2.4,1.7
					c-0.5,0.7-0.8,1.7-0.6,2.6c0.4,2.9,4.5,3.5,6.5,1.9c0.8-0.6,1.3-1.6,1.3-2.6c0-0.7-0.2-1.4-0.6-1.9c-0.3-0.4-0.8-0.6-1.2-0.9
					c-0.7-0.5-1.6,0.6-0.9,1.2c0.2,0.1,0.3,0.3,0.5,0.4c0.1,0,0.1,0.1,0.2,0.1c0,0,0.1,0,0.1,0.1c-0.1-0.1,0,0,0,0l0.1,0.1
					c0,0,0.1,0.1,0.1,0.2c0.1,0.1,0.1,0.4,0.1,0.6c0,0.4-0.1,0.7-0.2,1c0,0.1-0.1,0.1-0.1,0.1s-0.1,0.2-0.1,0.1
					c0.1-0.1,0,0.1-0.1,0.1l-0.1,0.1l-0.1,0.1c-0.1,0.1,0,0,0,0s0,0-0.1,0c-0.1,0.1-0.2,0.1-0.3,0.2c-0.1,0-0.1,0.1-0.2,0.1
					c0.1-0.1,0.1,0,0,0s-0.2,0.1-0.4,0.1c-0.1,0-0.2,0-0.3,0.1c-0.1,0,0.1,0,0,0s-0.1,0-0.2,0c-0.1,0-0.2,0-0.4,0
					c-0.1,0-0.1,0-0.2,0H27c-0.1,0,0.1,0,0,0c-0.2,0-0.5-0.1-0.7-0.2c-0.1,0-0.1-0.1,0,0c0,0-0.1,0-0.1-0.1
					c-0.1-0.1-0.2-0.1-0.3-0.2c0,0-0.2-0.1-0.1-0.1c0.1,0.1,0,0-0.1-0.1s-0.2-0.2-0.3-0.3s0,0,0,0c0-0.1-0.1-0.1-0.1-0.2l-0.1-0.1
					c0,0,0,0,0-0.1s0,0.1,0,0s-0.1-0.2-0.1-0.3s0-0.1,0,0c0-0.1,0-0.2,0-0.2c0-0.1,0-0.1,0-0.2c0,0,0-0.2,0-0.1s0-0.1,0-0.2
					s0.1-0.2,0.1-0.3c0.2-0.5,0.7-1,1.3-1.3c0.3-0.2,0.5-0.3,0.9-0.4c0.1,0,0.3-0.1,0.4-0.1c0.1,0,0.2,0,0.3,0c-0.1,0,0.1,0,0.1,0
					c0.2,0,0.3,0,0.5,0c0.1,0,0.2,0,0.3,0s-0.1,0,0.1,0c0.1,0,0.2,0,0.2,0.1h0.1c-0.1,0-0.1-0.1,0,0c0,0,0.2,0.1,0.1,0
					c0,0,0.1,0,0.1,0.1c0,0-0.1-0.1,0,0C30,51.7,31,51.3,30.8,50.6L30.8,50.6z"/>
			</g>
		</g>
		<g>
			<g>
				<path class="st0" d="M22.6,62.7c0-0.7,0.4-1.3,0.6-1.9c0.3-0.6,0.5-1.2,0.9-1.7c0.8-1,2-1.5,3.3-1.5c1.2,0,2.4,0.4,3.3,1.2
					c1.1,1,1.6,2.7,1.9,4.1c0.2,1,1.7,0.6,1.5-0.4c-0.4-1.8-1.1-3.7-2.5-4.9c-1.2-1-2.8-1.5-4.3-1.5c-1.6,0.1-3.2,0.7-4.3,2
					c-0.5,0.7-0.9,1.4-1.2,2.2c-0.3,0.8-0.7,1.6-0.6,2.5C21.3,63.6,22.5,63.6,22.6,62.7L22.6,62.7z"/>
			</g>
		</g>
	</g>
	<g>
		<g>
			<g>
				<path class="st0" d="M42.6,50.6c-0.2-0.9-1.2-1.2-2-1.2c-0.7,0-1.4,0.1-2.1,0.3c-0.9,0.4-1.8,0.9-2.4,1.7
					c-0.5,0.7-0.8,1.7-0.6,2.6c0.4,2.9,4.5,3.5,6.5,1.9c0.8-0.6,1.3-1.6,1.3-2.6c0-0.7-0.2-1.4-0.6-1.9c-0.3-0.4-0.8-0.6-1.2-0.9
					c-0.7-0.5-1.6,0.6-0.9,1.2c0.2,0.1,0.3,0.3,0.5,0.4c0.1,0,0.1,0.1,0.2,0.1c0,0,0.1,0,0.1,0.1c-0.1-0.1,0,0,0,0l0.1,0.1
					c0,0,0.1,0.1,0.1,0.2c0.1,0.1,0.1,0.4,0.1,0.6c0,0.4-0.1,0.7-0.2,1c0,0.1-0.1,0.1-0.1,0.1s-0.1,0.2-0.1,0.1
					c0.1-0.1,0,0.1-0.1,0.1l-0.1,0.1L41,54.7c-0.1,0.1,0,0,0,0s0,0-0.1,0c-0.1,0.1-0.2,0.1-0.3,0.2c-0.1,0-0.1,0.1-0.2,0.1
					c0.1-0.1,0.1,0,0,0s-0.2,0.1-0.4,0.1c-0.1,0-0.2,0-0.3,0.1c-0.1,0,0.1,0,0,0s-0.1,0-0.2,0c-0.1,0-0.2,0-0.4,0
					c-0.1,0-0.1,0-0.2,0h-0.1c-0.1,0,0.1,0,0,0c-0.2,0-0.5-0.1-0.7-0.2c-0.1,0-0.1-0.1,0,0c0,0-0.1,0-0.1-0.1
					c-0.1-0.1-0.2-0.1-0.3-0.2c0,0-0.2-0.1-0.1-0.1c0.1,0.1,0,0-0.1-0.1s-0.2-0.2-0.3-0.3s0,0,0,0c0-0.1-0.1-0.1-0.1-0.2L37,53.9
					c0,0,0,0,0-0.1s0,0.1,0,0s-0.1-0.2-0.1-0.3s0-0.1,0,0c0-0.1,0-0.2,0-0.2c0-0.1,0-0.1,0-0.2c0,0,0-0.2,0-0.1s0-0.1,0-0.2
					s0.1-0.2,0.1-0.3c0.2-0.5,0.7-1,1.3-1.3c0.3-0.2,0.5-0.3,0.9-0.4c0.1,0,0.3-0.1,0.4-0.1c0.1,0,0.2,0,0.3,0c-0.1,0,0.1,0,0.1,0
					c0.2,0,0.3,0,0.5,0c0.1,0,0.2,0,0.3,0s-0.1,0,0.1,0c0.1,0,0.2,0,0.2,0.1h0.1c-0.1,0-0.1-0.1,0,0c0,0,0.2,0.1,0.1,0
					c0,0,0.1,0,0.1,0.1c0,0-0.1-0.1,0,0C41.8,51.7,42.7,51.3,42.6,50.6L42.6,50.6z"/>
			</g>
		</g>
		<g>
			<g>
				<path class="st0" d="M34.3,62.7c0-0.7,0.4-1.3,0.6-1.9c0.3-0.6,0.5-1.2,0.9-1.7c0.8-1,2-1.5,3.3-1.5c1.2,0,2.4,0.4,3.3,1.2
					c1.1,1,1.6,2.7,1.9,4.1c0.2,1,1.7,0.6,1.5-0.4c-0.4-1.8-1.1-3.7-2.5-4.9c-1.2-1-2.8-1.5-4.3-1.5c-1.6,0.1-3.2,0.7-4.3,2
					c-0.5,0.7-0.9,1.4-1.2,2.2c-0.3,0.8-0.7,1.6-0.6,2.5C33,63.6,34.3,63.6,34.3,62.7L34.3,62.7z"/>
			</g>
		</g>
	</g>
	<g>
		<g>
			<g>
				<path class="st0" d="M54.2,50.6c-0.2-0.9-1.2-1.2-2-1.2c-0.7,0-1.4,0.1-2.1,0.3c-0.9,0.4-1.8,0.9-2.4,1.7
					c-0.5,0.7-0.7,1.7-0.6,2.6c0.4,2.9,4.5,3.5,6.5,1.9c0.8-0.6,1.3-1.6,1.3-2.6c0-0.7-0.2-1.4-0.6-1.9c-0.3-0.4-0.8-0.6-1.2-0.9
					c-0.7-0.5-1.6,0.6-0.9,1.2c0.2,0.1,0.3,0.3,0.5,0.4c0.1,0,0.1,0.1,0.2,0.1c0,0,0.1,0,0.1,0.1c-0.1-0.1,0,0,0,0l0.1,0.1
					c0,0,0.1,0.1,0.1,0.2c0.1,0.1,0.1,0.4,0.1,0.6c0,0.4-0.1,0.7-0.2,1c0,0.1-0.1,0.1-0.1,0.1s-0.1,0.2-0.1,0.1
					c0.1-0.1,0,0.1-0.1,0.1l-0.1,0.1l-0.1,0.1c-0.1,0.1,0,0,0,0s0,0-0.1,0c-0.1,0.1-0.2,0.1-0.3,0.2c-0.1,0-0.1,0.1-0.2,0.1
					c0.1-0.1,0.1,0,0,0s-0.2,0.1-0.4,0.1c-0.1,0-0.2,0-0.3,0.1c-0.1,0,0.1,0,0,0s-0.1,0-0.2,0s-0.2,0-0.4,0c-0.1,0-0.1,0-0.2,0h-0.1
					c-0.1,0,0.1,0,0,0c-0.2,0-0.5-0.1-0.7-0.2c-0.1,0-0.1-0.1,0,0c0,0-0.1,0-0.1-0.1c-0.1-0.1-0.2-0.1-0.3-0.2c0,0-0.2-0.1-0.1-0.1
					c0.1,0.1,0,0-0.1-0.1s-0.2-0.2-0.3-0.3c-0.1-0.1,0,0,0,0c0-0.1-0.1-0.1-0.1-0.2l-0.1-0.1c0,0,0,0,0-0.1s0,0.1,0,0
					s-0.1-0.2-0.1-0.3s0-0.1,0,0c0-0.1,0-0.2,0-0.2c0-0.1,0-0.1,0-0.2c0,0,0-0.2,0-0.1s0-0.1,0-0.2s0.1-0.2,0.1-0.3
					c0.2-0.5,0.7-1,1.3-1.3c0.3-0.2,0.5-0.3,0.9-0.4c0.1,0,0.3-0.1,0.4-0.1s0.2,0,0.3,0c-0.1,0,0.1,0,0.1,0c0.2,0,0.3,0,0.5,0
					c0.1,0,0.2,0,0.3,0c0.1,0-0.1,0,0.1,0c0.1,0,0.2,0,0.2,0.1h0.1c-0.1,0-0.1-0.1,0,0c0,0,0.2,0.1,0.1,0c0,0,0.1,0,0.1,0.1
					c0,0-0.1-0.1,0,0C53.4,51.7,54.3,51.3,54.2,50.6L54.2,50.6z"/>
			</g>
		</g>
		<g>
			<g>
				<path class="st0" d="M45.9,62.7c0-0.7,0.4-1.3,0.6-1.9c0.3-0.6,0.5-1.2,0.9-1.7c0.8-1,2-1.5,3.3-1.5c1.2,0,2.4,0.4,3.3,1.2
					c1.1,1,1.6,2.7,1.9,4.1c0.2,1,1.7,0.6,1.5-0.4c-0.4-1.8-1.1-3.7-2.5-4.9c-1.2-1-2.8-1.5-4.3-1.5c-1.6,0.1-3.2,0.7-4.3,2
					c-0.5,0.7-0.9,1.4-1.2,2.2c-0.3,0.8-0.7,1.6-0.6,2.5C44.6,63.6,45.9,63.6,45.9,62.7L45.9,62.7z"/>
			</g>
		</g>
	</g>
</g>
</svg>
