<?xml version="1.0" encoding="utf-8"?>
<!-- Generator: Adobe Illustrator 24.3.0, SVG Export Plug-In . SVG Version: 6.00 Build 0)  -->
<svg version="1.1" id="Calque_1" xmlns="http://www.w3.org/2000/svg" xmlns:xlink="http://www.w3.org/1999/xlink" x="0px" y="0px"
	 viewBox="0 0 80 80" style="enable-background:new 0 0 80 80;" xml:space="preserve">
<style type="text/css">
	.st0{fill:#91D902;}
</style>
<g>
	<path class="st0" d="M23.8,36.7L23.8,36.7C23.8,36.7,23.8,36.8,23.8,36.7L23.8,36.7L23.8,36.7z"/>
	<path class="st0" d="M25.5,39.4c0.8-0.5,1.3-1.4,1.3-2.3c0-0.5-0.1-1-0.4-1.4c-0.2-0.4-0.6-0.7-1.1-0.9c0-0.3,0.1-0.5,0.1-0.7
		c0-0.8-0.1-1.5-0.2-2.3c0.1,0,0.1,0,0.2,0c0.3,0,0.5-0.2,0.7-0.4c0,0,0.2-0.2,0.1-0.1c0.1,0,0.1-0.1,0.2-0.1
		c0.3-0.2,0.6-0.4,0.9-0.7c0.6-0.4,1.2-0.9,1.7-1.4c0.4-0.4,0.3-1-0.2-1.3c-0.6-0.4-1.3-0.8-1.9-1.1c-0.3-0.2-0.6-0.4-0.9-0.6
		L25.9,26l0,0c-0.1-0.1-0.1-0.1-0.2-0.2c-0.2-0.1-0.3-0.3-0.5-0.4c-0.1-0.1-0.3-0.1-0.4-0.1c-0.3-0.5-0.9-0.5-1.2,0.1
		c-0.2,0.6-0.2,1.3-0.2,1.9s0,1.2,0,1.8c0,0.8,0.1,1.5,0.2,2.3c0.1,0.7,0.2,1.5,0.2,2.2c0,0.2,0,0.4,0,0.6c0,0.1,0,0.2,0,0.3v0.1
		c0,0.1,0,0.2-0.1,0.3c-0.2,0-0.4,0.1-0.6,0.2c-0.4,0.3-0.7,0.7-0.9,1.2c-0.3,0.9-0.1,1.9,0.5,2.7C23.4,39.7,24.6,39.9,25.5,39.4z
		 M23.7,36.9C23.7,36.9,23.7,37,23.7,36.9C23.7,37,23.7,36.9,23.7,36.9z M24.9,37.7C24.9,37.8,24.9,37.8,24.9,37.7
		c-0.1,0.1-0.1,0.1-0.2,0.2l0,0c0,0,0,0-0.1,0h-0.1c0,0,0,0-0.1,0h-0.1c-0.1,0-0.1,0-0.2,0l0,0l0,0H24c0,0,0,0,0.1,0H24l-0.1-0.1
		l0,0l0,0c0,0-0.1-0.1-0.1-0.2v-0.1c0-0.1,0-0.1,0-0.2v0.1v-0.1l0,0l0,0l0,0l0,0c0-0.1,0-0.1,0-0.2l0,0l0,0c0-0.1,0-0.2,0.1-0.2
		c0,0.1,0,0,0,0v-0.1c0,0,0,0,0,0.1l0,0c0-0.1,0.1-0.1,0.1-0.2c0,0,0,0,0.1-0.1c0,0,0,0,0.1,0s0.1-0.1,0.2-0.1l0,0h0.1
		c0,0,0,0,0.1,0l0,0c-0.1,0,0,0,0,0c0.1,0,0.1,0,0.1,0l0,0c0.1,0,0.1,0.1,0.2,0.1l0,0c0,0,0.1,0,0.1,0.1l0,0c0,0,0,0,0.1,0.1
		l0.1,0.1l0,0c0,0.1,0,0.1,0.1,0.2l0,0c0,0.1,0,0.1,0,0.2c0,0,0,0,0,0.1s-0.1,0.2-0.1,0.4l0,0C25,37.6,25,37.7,24.9,37.7z M26,27.9
		c0.4,0.2,0.7,0.4,1.1,0.6c-0.1,0-0.1,0.1-0.2,0.1l-0.1,0.1c-0.1,0.1-0.3,0.2-0.4,0.3c-0.3,0.2-0.6,0.4-0.9,0.6
		c-0.1,0.1-0.3,0.2-0.4,0.3c0-0.2,0-0.4-0.1-0.6c0-0.6-0.1-1.3-0.1-1.9c0-0.1,0-0.1,0-0.2C25.3,27.5,25.6,27.7,26,27.9z"/>
	<path class="st0" d="M24.1,37.9C24.1,38,24.1,38,24.1,37.9C24.2,38,24.2,38,24.1,37.9C24.2,38,24.2,38,24.1,37.9L24.1,37.9z"/>
	<path class="st0" d="M23.7,37.3L23.7,37.3L23.7,37.3z"/>
	<path class="st0" d="M65.7,28.4c0.5-3.5,0.7-7.6-0.6-11c-0.9-2.5-3.2-3.7-5.8-3.6c-0.5,0-0.7,0.4-0.8,0.8c-0.1,0.1-0.1,0.2-0.1,0.4
		c-0.1,1.8,0,3.6,0.2,5.5c-1,0.6-2.8,0.2-3.9,0.2c-2.2,0.1-4.4,0.4-6.6,0.5c-4.5,0.3-9.1,0-13.6-0.4c-4.3-0.4-8.6-0.6-12.9,0.1
		c-1.4,0.3-2.9,0.5-4.3,0.8c-1.1,0.2-2.2,0.6-2.8,1.6c-0.2,0.3-0.3,0.7-0.4,1.1c0,0,0,0.1-0.1,0.2c-0.2,0.8,0,1.6,0.1,2.4
		c0.2,1.2,0.1,2.4,0.1,3.6c0,2.1,0,4.2,0.2,6.3s0.4,4.2,0.3,6.4c-0.1,2.1-0.2,4.3-0.3,6.4s-0.2,4.2-0.3,6.3c-0.1,2-0.3,4.1-0.2,6.1
		c0.1,2.4,3.2,5.3,5.6,3.6c0.3-0.2,0.4-0.5,0.4-0.8c0-0.1,0-0.1,0-0.2c-0.1-1.2,0.1-2.4,0.1-3.6c0-0.7,0-1.5,0-2.2
		c0.5,0.1,1,0,1.6-0.1c0.8-0.1,1.6-0.1,2.4,0c1.6,0.1,3.3,0.1,4.9,0.3c3.3,0.3,6.6,0.1,9.9-0.2c3.6-0.3,7.1,0,10.7-0.1
		c3.3-0.1,6.5-0.3,9.8-0.1c2.6,0.1,4.5-0.9,5.1-3.6c0.1-0.3,0.1-0.7,0.1-1c0-0.1,0.1-0.2,0.1-0.3s0-0.2-0.1-0.3
		c0-0.6-0.1-1.1-0.1-1.7c0-1.3,0-2.6,0-3.9c0-2.9,0-5.8,0.1-8.7C64.8,35.4,65.2,31.9,65.7,28.4z M64,19.9c0.6,3.1,0.4,6.2-0.1,9.4
		c-0.9,5.6-1.1,11.3-1,17c0,1.7,0,3.3,0.1,5c0,0,0,0-0.1-0.1c-0.3-0.2-0.6-0.3-0.9-0.5c-0.6-0.2-1.3-0.4-1.9-0.4c0-0.2,0-0.4,0-0.5
		c0-0.4,0.1-0.8,0.1-1.3c0.1-0.1,0.1-0.3,0-0.5c0-0.3,0-0.7,0.1-1c0.3-3.6-0.1-7.2-0.2-10.8s0.1-7.2,0.3-10.8
		c0.2-3.3-0.2-6.6-0.5-9.9c0.9,0,1.8,0.2,2.6,0.9C63.6,17.2,63.8,18.6,64,19.9z M48.3,22.8c2.3-0.2,4.6-0.5,6.9-0.5
		c1.1,0,2.4,0.2,3.5-0.1c0,0.8,0.1,1.6,0,2.4c-0.2,3.4-0.5,6.7-0.4,10.1c0,3.3,0.3,6.7,0.3,10c0,0.9-0.1,1.7-0.1,2.5
		c-0.3,0-0.6,0-1,0c-0.9,0-1.3-0.2-1.8-0.9c-0.4-0.4-0.7-0.9-1.1-1.3c-0.3-0.3-0.9-0.6-1.1-0.9s-0.1-0.9-0.3-1.3
		c-0.2-0.3-0.5-0.5-0.8-0.6c-0.9-0.3-1.9,0-2.8,0.2c-0.3-1.2-0.5-2.3-0.6-3.5s-0.4-2-1.2-3c-0.4-0.6-0.8-1.2-1.3-1.7
		c-0.4-0.5-1-0.6-0.5-1.2c0.6-0.8,1.4-1,1.4-2.1c0-1-0.8-1.9-1.5-2.6c-0.4-0.4-0.8-0.8-1.2-1.1c-0.1-0.1-0.2-0.2-0.4-0.2
		c0.1-0.1,0.3-0.2,0.4-0.3c0.4-0.3,0.7-0.6,1-1c0.5-0.8,0.9-1.8,0.9-2.7C47.1,22.9,47.7,22.9,48.3,22.8z M15.6,61.8
		c0-1.6,0.1-3.3,0.1-5c0.1-3.6,0.3-7.3,0.5-10.9c0.1-1.7,0.2-3.4,0.1-5.2c-0.1-1.8-0.3-3.6-0.5-5.4c-0.1-1.8-0.1-3.5-0.1-5.3
		c0-0.7,0-1.3,0-2c0.8,0.5,1.7,0.8,2.7,0.8c0.3,1.2-0.1,2.5-0.1,3.8c-0.1,1.6,0,3.2,0,4.8c0,3.3-0.2,6.6-0.3,10
		c-0.1,3.2,0.2,6.4,0.3,9.6c0,1.6,0,3.1,0,4.7c0,0.8-0.1,1.8,0.1,2.6C17.2,65,15.7,63,15.6,61.8z M58.2,56.8c-3-0.2-6,0.1-8.9,0.2
		c-3.2,0.1-6.3-0.1-9.5,0c-3.3,0.2-6.6,0.5-10,0.3c-1.6-0.1-3.1-0.2-4.7-0.3c-0.8,0-1.6-0.1-2.4-0.1c-0.8,0-1.8,0.4-2.6,0.3H20
		c0-0.4,0-0.8,0-1.2c-0.1-3.2-0.3-6.4-0.2-9.6c0.1-3.3,0.2-6.6,0.2-10c0-1.4-0.1-2.9,0-4.3c0.1-1.3,0.4-2.6-0.1-3.9
		c0-0.1-0.1-0.2-0.2-0.3c-0.1-0.3-0.3-0.5-0.7-0.5c-0.9-0.1-1.8-0.2-2.5-0.8c-0.6-0.5-1-1.6-0.6-2.4c0.6-1.1,2.7-1.1,3.8-1.2
		c2.1-0.3,4.1-0.8,6.3-0.9c2.5-0.1,5,0.1,7.5,0.3c3.9,0.3,7.7,0.6,11.6,0.6c-0.2,1.1-0.9,2.1-1.8,2.7c-0.6,0.4-1.3,0.7-1.1,1.5
		c0.2,0.7,0.9,1,1.5,1.4c0.5,0.3,0.9,0.8,1.3,1.2c0.6,0.7,0.7,1.2,0,1.9c-0.6,0.5-1.2,1.1-1.1,1.9c0.1,0.9,1.2,1.6,1.7,2.3
		c0.4,0.6,1,1.1,1.3,1.8c0.3,0.6,0.3,1.3,0.3,2c0.1,1.3,0.5,2.6,0.8,3.9c0.1,0.4,0.5,0.6,0.8,0.6c0.7,0,1.4-0.2,2.1-0.3
		c0.1,0,0.7-0.1,0.8-0.1c-0.2-0.1-0.1,0.3-0.1,0.3c0.3,1.1,1,1.3,1.8,2.1c0.7,0.8,1.2,1.8,2.3,2.3c0.8,0.4,1.7,0.4,2.6,0.4
		c0,0.2,0,0.4,0,0.6s-0.1,0.4-0.1,0.6s-0.2,0.5,0.1,0.2c-0.7,0.7,0.3,1.8,1.1,1.3c0.2,0,0.4,0.1,0.5,0.1s0.1,0,0.2,0l0,0
		c0.1,0,0.2,0.1,0.4,0.1c0.3,0.1,0.5,0.2,0.8,0.3h0.1c0.1,0,0.1,0.1,0.2,0.1c0.1,0.1,0.2,0.1,0.3,0.2c0,0,0.1,0,0.1,0.1l0.1,0.1
		c0.1,0.1,0.2,0.2,0.3,0.2c0.1,0.1,0.2,0.2,0.3,0.3l0.1,0.1l0.1,0.1c0,0,0,0.1,0.1,0.1c0,0,0.1,0.1,0.1,0.2l0,0c0,0.1,0,0.1,0,0.2
		c0,0.9-0.3,1.9-1,2.5C61,57.2,59.4,56.9,58.2,56.8z"/>
	<path class="st0" d="M52.6,49.5c-0.7-0.4-1.5-0.4-2.2,0.1c-0.3,0.2-0.6,0.5-0.8,0.7c-0.1,0.1-0.3,0.2-0.5,0.3
		c-0.6-1-1.1-2.1-2.4-2.3c-1.5-0.3-3.2,1.2-4.4,1.9c-0.4,0.2-0.9,0.6-1.3,0.7l-0.3,0.2c-0.1,0-0.2-0.6-0.2-0.6
		c-0.3-0.9-0.4-1.8-0.1-2.7c0.4-1.7,1.3-3.2,2.2-4.6c0.8-1.3,1.7-2.5,0.9-4.1C43,38,42.2,36.8,41.3,36c-1.3-1.3-3.4-3-5.4-2.8
		c-1.4,0.1-1.8,1.2-2.3,2.3c-0.4,0.9-0.7,0.9-1.6,1c-0.7,0-1.7,0.3-2.3,0c-0.9-0.4-1.6,0.8-0.7,1.3c1.1,0.6,2.4,0.3,3.5,0.3
		c1.3-0.1,2.1-0.6,2.6-1.9c0.2-0.4,0.3-1.2,0.8-1.4c0.4-0.2,0.9,0,1.2,0.1c1,0.4,1.9,1.1,2.7,1.7c0.8,0.8,1.5,1.6,2.1,2.6
		c0.5,1,0.3,1.4-0.2,2.4c-0.5,0.8-1,1.5-1.4,2.3c-0.7,1.3-1.4,2.8-1.6,4.3c-0.2,1.2,0,3.3,1,4.2c1.3,1.1,3.1-0.4,4.2-1.1
		c0.6-0.3,2-1.5,2.7-1.3c0.5,0.2,0.8,0.9,1.1,1.4l0,0c-0.2,0.1-0.3,0.2-0.4,0.3c-0.2,0-0.4,0-0.5,0.1c-0.4,0.2-0.6,0.8-0.3,1.2
		c0.2,0.3,0.4,0.6,0.6,0.9c0.1,0.1,0.1,0.2,0.2,0.3c0,0,0,0.1,0.1,0.1l0,0c0.1,0.1,0.2,0.2,0.3,0.4c0.4,0.6,0.9,1.1,1.7,1.3
		c0.8,0.1,1.6,0.1,2.3-0.3c0.3-0.1,0.4-0.1,0.8-0.2c0.4,0,0.7,0,1-0.1c0.7-0.3,1-1.2,1.1-2s-0.1-1.6-0.5-2.3
		C53.6,50.5,53.2,49.9,52.6,49.5z M51.5,50.8C51.4,50.8,51.5,50.8,51.5,50.8L51.5,50.8z M52.2,53.8c-0.3,0-0.7,0-1,0.1
		s-0.5,0.3-0.7,0.3h-0.1h-0.1c-0.2,0-0.3,0-0.5,0s-0.2,0-0.3,0h-0.1c-0.1,0-0.1-0.1-0.1,0c-0.1-0.1-0.3-0.4-0.4-0.5
		c-0.2-0.3-0.4-0.6-0.7-0.9c0,0,0.1,0,0.1-0.1c0.3-0.1,0.5-0.3,0.8-0.5c0.5-0.3,1.1-0.5,1.5-1c0.2-0.1,0.3-0.3,0.5-0.4l0.2-0.1
		c-0.1,0,0,0,0,0l0,0c0.4,0.1,0.7,0.3,0.9,0.7c0.2,0.4,0.4,0.9,0.4,1.4c0,0.3,0,0.4-0.1,0.7c0,0.1,0,0.1-0.1,0.2l0,0l0,0
		c0,0,0,0-0.1,0C52.4,53.8,52.3,53.8,52.2,53.8z M52.5,54L52.5,54L52.5,54z"/>
	<path class="st0" d="M32.6,49.2c-0.5-0.3-1.2-0.7-1.5-1.1s0.1-1,0.1-1.4c0.1-0.7,0.2-1.4,0.1-2.1c-0.1-0.7-0.7-1.4-1.3-1.7
		c-0.8-0.4-1.5,0.4-2,0.9c-0.4,0.4-0.9,1.1-1.5,1.3c-0.3,0.1-0.7,0-1,0c-0.1,0-0.2,0-0.3-0.1c-0.1,0-0.4-0.2-0.2-0.1l0,0
		c-0.1-0.1-0.3-0.1-0.4-0.1c-0.4,0-0.9,0.4-0.9,0.9c0,0.1,0.1,0.3,0.1,0.4c0,0.7-0.1,1.3-0.1,2c0,0.3,0,0.7,0,1
		c0,0.4-0.1,0.4-0.4,0.7c-0.4,0.4-0.9,0.7-1.1,1.3c-0.2,0.7,0.3,1.3,0.7,1.9c0.5,0.5,0.9,1.1,1.4,1.6s0.9,1.1,1.7,1.3
		c0.7,0.1,1.3,0,2-0.2c0.8-0.2,1.5-0.4,2.2-0.6c1.3-0.3,2.2-1.2,3.2-2.1c0.4-0.3,0.8-0.7,0.9-1.2c0.2-0.6-0.1-1.1-0.5-1.5
		C33.4,49.8,33,49.5,32.6,49.2z M30.7,52.8c-0.4,0.3-0.7,0.3-1.2,0.5c-0.5,0.1-1,0.3-1.6,0.4c-0.5,0.1-1,0.3-1.4,0.3
		s-0.7-0.4-0.9-0.7c-0.3-0.4-0.6-0.7-0.9-1.1c-0.2-0.2-0.4-0.4-0.5-0.6c-0.1-0.1-0.1-0.2-0.2-0.3c0.2-0.2,0.7-0.7,0.8-0.7
		c0.4-0.4,0.6-0.8,0.6-1.3c0.1-0.9,0-1.8,0-2.6c0.5,0.1,1,0.1,1.5,0c0.6-0.1,1.1-0.4,1.5-0.8c0.3-0.2,0.5-0.5,0.8-0.8
		c0.1-0.1,0.3-0.3,0.4-0.4l0,0c0.3,0.5,0.1,1.2,0,1.7c-0.2,0.9-0.5,1.8,0.1,2.6c0.5,0.7,1.4,1.2,2.1,1.7c0.2,0.2,0.5,0.3,0.7,0.5
		l0,0C32,51.8,31.3,52.4,30.7,52.8z"/>
</g>
</svg>
