<?xml version="1.0" encoding="utf-8"?>
<!-- Generator: Adobe Illustrator 24.3.0, SVG Export Plug-In . SVG Version: 6.00 Build 0)  -->
<svg version="1.1" id="Calque_1" xmlns="http://www.w3.org/2000/svg" xmlns:xlink="http://www.w3.org/1999/xlink" x="0px" y="0px"
	 viewBox="0 0 80 80" style="enable-background:new 0 0 80 80;" xml:space="preserve">
<style type="text/css">
	.st0{fill:#91D902;}
</style>
<g>
	<g>
		<g>
			<path class="st0" d="M48.1,28.7c0,0.4,0.3,0.6,0.6,0.8c0.1,0,0.2,0.1,0.3,0.1c0.2,0.1-0.1-0.1,0,0l0.2,0.1c-0.1-0.1-0.1-0.1,0,0
				l0,0c0,0,0.2,0.2,0.1,0.1c-0.1-0.1,0.1,0.1,0.1,0.1c0,0.1,0.1,0.1,0.1,0.2c-0.1-0.2,0,0,0,0c0,0.1,0,0.1,0.1,0.2c0,0.2,0-0.1,0,0
				s0,0.1,0,0.2c0,0.1,0,0.2,0,0.3v0.1c0-0.1,0-0.2,0-0.1c0,0.1,0,0.1,0,0.2v0.1c0,0.1,0,0,0,0c-0.1,0.1-0.1,0.2-0.2,0.3
				s0.1-0.1,0,0l-0.1,0.1l-0.1,0.1c-0.2,0.2,0.1-0.1,0,0s-0.2,0.1-0.3,0.2c0,0-0.1,0-0.1,0.1c-0.1,0-0.1,0,0.1,0
				c-0.1,0-0.2,0.1-0.3,0.1c-0.4,0.2-0.5,0.7-0.4,1.1c0.2,0.4,0.6,0.6,1,0.5s0.8-0.3,1.1-0.6c0.2-0.2,0.4-0.4,0.6-0.7
				c0.4-0.5,0.5-1.2,0.4-1.9c-0.1-0.8-0.4-1.7-1.1-2.2C50,28,49.7,28,49.4,27.9c-0.1,0-0.1,0-0.2,0c-0.2,0-0.3,0-0.1,0
				c-0.1,0-0.2,0-0.2,0C48.4,28,48.1,28.3,48.1,28.7L48.1,28.7z"/>
		</g>
	</g>
	<g>
		<g>
			<path class="st0" d="M47.7,48.1c-1-0.9-2.1-1.6-3.1-2.5c-1.1-1-1.7-2.2-2.5-3.4c-1.4-2.4-2.3-4.8-2.4-7.6c-0.1-2.6,0.6-5,2.1-7.2
				c0.7-1.1,1.6-2.1,2.6-2.9c0.6-0.5,1.3-1,2-1.4c0.2-0.1,0.6-0.5,0.9-0.5c1.1,0.1,1.1-1.7,0-1.8c-0.9-0.1-2.2,0.9-2.9,1.4
				c-1.3,0.9-2.4,2-3.4,3.3c-1.9,2.4-3,5-3.1,8s0.6,6.1,2.2,8.7c0.8,1.4,1.5,2.8,2.6,3.9c1.2,1.2,2.6,2.2,4,3.1
				C47.5,49.8,48.3,48.7,47.7,48.1L47.7,48.1z"/>
		</g>
	</g>
	<g>
		<g>
			<path class="st0" d="M47,22.5c0.3,0.2,0.6,0.5,0.9,0.7c0.5,0.3,1,0.6,1.5,0.9c1,0.7,2.1,1.6,2.8,2.7c1.5,2.2,2,5.1,2.1,7.7
				c0,2.7-1.2,5-2.4,7.4c-0.5,1-1,2.1-1.6,3c-0.9,1.3-2.1,2.1-3.3,3c0.4,0.1,0.8,0.2,1.2,0.3c0,0.1,0.1,0.2,0.1,0.3
				c0-1.2-1.8-1.2-1.8,0c0,0.2,0,0.4,0.2,0.6c0.2,0.4,0.8,0.6,1.2,0.3c1.3-0.9,2.5-1.8,3.5-3c0.9-1.1,1.5-2.4,2.1-3.7
				c0.7-1.3,1.3-2.7,1.8-4c0.6-1.6,0.8-2.9,0.8-4.7c-0.1-2.9-0.8-6-2.5-8.4c-0.8-1.1-1.9-2.1-3-2.8c-0.6-0.4-1.2-0.7-1.8-1.1
				c-0.4-0.3-0.6-0.5-1.2-0.6C46.6,21,46.4,22.1,47,22.5L47,22.5z"/>
		</g>
	</g>
	<g>
		<g>
			<path class="st0" d="M38.3,35.7c0.7,1.3,2.6,2,3.9,2.6c1.5,0.7,3.2,1,4.8,0.9s3.3-0.4,4.9-1c1.1-0.4,2.9-0.7,3.6-1.9
				c0.6-1-0.9-1.8-1.6-0.9c-0.2,0.3-0.9,0.4-1.2,0.5c-0.6,0.2-1.2,0.5-1.9,0.7c-0.7,0.2-1.5,0.4-2.2,0.5c-0.6,0.1-1.3,0.2-1.9,0.3
				c-1.4,0.1-2.8-0.2-4.1-0.8c-0.6-0.3-1.2-0.5-1.7-0.8c-0.6-0.3-1.1-0.8-1.7-1.1C38.6,34.5,38,35.1,38.3,35.7L38.3,35.7z"/>
		</g>
	</g>
	<g>
		<g>
			<path class="st0" d="M38.7,37.8c-0.7,0.8-1.3,1.7-1.9,2.6c-0.5,0.8-0.9,1.6-1,2.5c-0.3,1.8-0.2,3.6,0.9,5.1
				c0.5,0.7,1,1.4,1.8,1.7c0.4,0.2,0.9,0.2,1.3-0.2c0.3-0.3,0.3-0.6,0.3-0.9c0.2-0.9,0.5-1.6,1.2-2.2c0.3-0.3,0.6-0.5,1-0.7
				c0.3-0.1,0.6-0.2,0.9-0.4c0.8-0.8-0.4-2.1-1.3-1.3c0.3-0.2,0.2-0.1,0-0.1c-0.1,0-0.2,0.1-0.2,0.1c-0.3,0.1-0.6,0.3-0.8,0.4
				c-0.5,0.3-1,0.7-1.3,1.2c-0.4,0.4-0.7,0.9-0.9,1.5c-0.2,0.5-0.2,1.2-0.4,1.6c0.1-0.1,0.2-0.3,0.2-0.4l0,0
				c0.1-0.1,0.3-0.2,0.4-0.2c0.2-0.1,0.1,0-0.1-0.2c-0.2-0.1-0.3-0.3-0.4-0.4c-0.3-0.3-0.5-0.7-0.7-1c-0.4-0.7-0.4-1.6-0.4-2.4
				c0-0.9,0.3-1.8,0.8-2.5c0.6-1,1.3-1.8,1.8-2.9C40.2,37.9,39.2,37.3,38.7,37.8L38.7,37.8z"/>
		</g>
	</g>
	<g>
		<g>
			<path class="st0" d="M54.3,39c0.7,1.8,1.9,3.4,1.9,5.4c0,0.9-0.2,1.8-0.6,2.7c-0.2,0.3-0.4,0.6-0.6,0.8c-0.2,0.2-0.4,0.5-0.6,0.6
				c0.4,0.3,0.9,0.7,1.3,1c0.4-1.2-0.2-2.7-0.8-3.7c-0.4-0.6-0.8-1.1-1.4-1.5c-0.4-0.3-1-0.6-1.4-1c-0.8-0.7-1.8,0.2-1.4,1.1
				c0.2,0.5,0.8,0.8,1.2,1c0.4,0.3,0.9,0.6,1.2,1c0.5,0.6,1.1,1.8,0.8,2.6c-0.3,0.8,0.7,1.3,1.3,1c0.4-0.2,0.6-0.5,0.9-0.8
				c0.3-0.4,0.6-0.7,0.8-1.1c0.5-1,0.9-2.2,0.9-3.3c0.1-2.4-1-4.6-2.4-6.5c-0.2-0.3-0.5-0.4-0.9-0.3C54.4,38.3,54.2,38.7,54.3,39
				L54.3,39z"/>
		</g>
	</g>
	<g>
		<g>
			<path class="st0" d="M46.3,48.2c-0.5,0.3-1,0.4-1.5,0.7c-0.6,0.3-1.1,0.6-1.7,0.9c-1,0.6-2,1.3-2.8,2.2s-1.4,1.9-1.8,3.1
				c-0.3,0.9-0.7,2.3-0.2,3.3s2,0.8,2.9,0.6c1-0.2,2-0.4,2.9-0.7c1.7-0.6,3.5-1.5,3.9-3.4c-0.5,0.1-1.1,0.1-1.6,0.2
				c0.9,1.8,2.8,2.7,4.8,3.1c1.2,0.2,4.8,1,4.8-1.2c0-1-0.8-2.1-1.3-3c-0.6-0.9-1.1-1.8-1.8-2.7c-0.7-0.8-1.4-1.6-2.4-2
				c-1-0.5-2.1-0.7-3.1-1.1c-1.1-0.4-1.6,1.4-0.5,1.8c1.5,0.6,2.9,0.8,4.1,1.9c1.1,1.2,2,2.7,2.7,4.1c0.1,0.1,0.4,0.9,0.4,0.9
				c0.1-0.1,0.2-0.2,0.3-0.3c-0.1,0-0.2,0.1-0.3,0.1c-0.2,0-0.3,0-0.5,0c-0.7,0-1.5-0.1-2.2-0.3c-1.4-0.3-2.8-0.9-3.5-2.2
				c-0.3-0.7-1.4-0.5-1.6,0.2c-0.3,1.3-1.8,1.8-2.9,2.2c-0.6,0.2-1.3,0.3-2,0.5c-0.5,0.1-1,0.1-1.5,0.2c-0.6,0.1,0,0-0.1,0.2
				c0.1-0.1,0-0.5,0-0.6c0.1-1.9,1.3-3.5,2.7-4.6c0.7-0.6,1.5-1.1,2.3-1.5c0.8-0.4,1.7-0.6,2.3-1.3C47.9,48.8,47.1,47.7,46.3,48.2
				L46.3,48.2z"/>
		</g>
	</g>
	<g>
		<g>
			<path class="st0" d="M30.3,21.5c-1.5-0.2-2.9,1-3.3,2.4c-0.4,1.4,0.3,2.9,1.4,3.7c1.1,0.8,2.6,0.8,3.7,0.1
				c1.1-0.7,1.6-1.8,1.5-3.1c0-0.8-0.3-1.6-0.8-2.2c-0.5-0.5-1.3-1-2-0.9c-0.5,0-0.9,0.4-0.9,0.9c0,0.4,0.4,0.9,0.9,0.9
				c0,0,0.1,0,0.2,0l0,0c-0.1,0-0.1,0,0,0h0.1c-0.2,0-0.1,0,0,0c0.1,0.1,0.2,0.1,0.3,0.2c0.1,0.1-0.1-0.1,0,0c0.1,0,0.1,0.1,0.2,0.1
				c0.1,0,0.2,0.1,0.2,0.2c0-0.1-0.1-0.1,0,0c0,0.1,0.1,0.1,0.1,0.2c0,0-0.1-0.2,0,0v0.1c0,0.1,0,0.1,0,0.2v0.1c0-0.1,0-0.1,0,0
				c0,0.2,0,0.4,0,0.6c0,0,0,0.2,0,0.1c0-0.1,0,0.1,0,0.1c0,0.1-0.1,0.2-0.1,0.3c-0.1,0.2,0,0,0,0l-0.1,0.1l-0.1,0.2
				c0.1,0,0.1-0.1,0,0l-0.1,0.1L31.4,26c0,0-0.2,0.1-0.1,0.1c0.1-0.1-0.1,0-0.1,0s-0.1,0-0.1,0.1c-0.1,0.1-0.2,0.1-0.3,0.1
				c-0.1,0.1,0.2-0.1,0,0h-0.1c-0.1,0-0.3,0.1-0.4,0.1c0.2,0-0.1,0-0.2,0c-0.1,0-0.1,0-0.2,0c0,0,0.2,0,0,0c-0.1,0-0.2-0.1-0.3-0.1
				s0.2,0.1,0,0c-0.1,0-0.1-0.1-0.2-0.1c-0.1,0-0.3-0.2-0.1-0.1c-0.1-0.1-0.2-0.2-0.3-0.3s-0.1-0.2-0.2-0.2c0.1,0.1,0,0,0,0
				c0-0.1-0.1-0.1-0.1-0.2c0-0.1-0.1-0.1-0.1-0.2c-0.1-0.1,0,0.2,0,0c0-0.1-0.1-0.2-0.1-0.3c-0.1-0.2,0,0.1,0,0s0-0.1,0-0.2
				c0-0.1,0-0.1,0-0.2c0-0.2,0,0.2,0-0.1c0-0.1,0.1-0.2,0.1-0.4c0,0.1,0,0,0,0c0-0.1,0.1-0.1,0.1-0.2c0-0.1,0.1-0.1,0.1-0.2
				c0,0,0-0.1,0.1-0.1c-0.1,0.1-0.1,0.1,0,0s0.2-0.2,0.3-0.3c0,0,0.1-0.1,0,0c0.1,0,0.1-0.1,0.2-0.1c0.1-0.1,0.1,0,0,0
				c0.1,0,0.2-0.1,0.3-0.1s0.3-0.1,0.4-0.1c0.3-0.1,0.4-0.2,0.7-0.4c0.2-0.2,0.3-0.6,0.2-0.8C30.9,21.6,30.6,21.5,30.3,21.5
				L30.3,21.5z"/>
		</g>
	</g>
	<g>
		<g>
			<path class="st0" d="M23.6,31.5c-1.3,0.4-1.4,2.3-1.3,3.4c0.2,1.6,1.4,3.2,3,3.7c1.5,0.5,3.1-0.1,4.1-1.3s1.4-2.7,1.5-4.2
				c0-0.7,0.1-1.3,0.1-2c0-0.6,0-1.1,0-1.7c0-0.4-0.1-0.9,0-1.3c0.3-1.1-1.4-1.6-1.7-0.5c-0.2,0.7,0,1.4,0,2.1s0,1.4,0,2.1
				c-0.1,1.1-0.1,2.2-0.5,3.3c-0.4,0.8-0.9,1.6-1.9,1.9c-1.2,0.3-2.1-0.5-2.6-1.4C24,35.1,24,34.5,24,33.9c0-0.4,0.1-1,0.3-1.3
				C24.8,32.2,24.2,31.4,23.6,31.5L23.6,31.5z"/>
		</g>
	</g>
</g>
</svg>
