<?xml version="1.0" encoding="utf-8"?>
<!-- Generator: Adobe Illustrator 24.3.0, SVG Export Plug-In . SVG Version: 6.00 Build 0)  -->
<svg version="1.1" id="Calque_1" xmlns="http://www.w3.org/2000/svg" xmlns:xlink="http://www.w3.org/1999/xlink" x="0px" y="0px"
	 viewBox="0 0 80 80" style="enable-background:new 0 0 80 80;" xml:space="preserve">
<style type="text/css">
	.st0{fill:#91D902;}
</style>
<g>
	<g>
		<g>
			<path class="st0" d="M48.5,46.7c-0.8-0.4-1.6,0-2.2,0.6c-0.5,0.5-0.9,1.1-1.2,1.7c-0.8,1.8,0.1,3.8,1.6,4.8
				c1.3,0.9,3,0.8,4.3-0.1s2-2.5,1.6-4.1c-0.2-0.9-0.9-1.8-1.7-2.4c-0.9-0.7-2-1.2-3.2-0.9c-0.5,0.1-0.8,0.6-0.6,1.1
				c0.1,0.5,0.6,0.7,1.1,0.6c0,0,0.3,0,0.1,0c0.1,0,0.2,0,0.3,0c0,0,0.3,0,0.1,0c0.1,0,0.2,0,0.3,0.1c0.1,0,0.1,0,0.2,0.1
				c0.2,0.1-0.1-0.1,0.1,0.1c0.2,0.1,0.4,0.2,0.5,0.3c0,0-0.1-0.1,0,0s0.1,0.1,0.2,0.2s0.2,0.3,0.4,0.4c0.2,0.2,0-0.1,0,0.1
				c0,0.1,0.1,0.1,0.1,0.2s0.1,0.1,0.1,0.2c0,0,0.2,0.3,0.1,0.1c0,0.1,0.1,0.2,0.1,0.3s0,0.1,0,0.2c0,0.2,0-0.2,0,0
				c0,0.1,0,0.2,0,0.3c0,0,0,0.3,0,0c0,0.1,0,0.2-0.1,0.3c0,0.1-0.1,0.2-0.1,0.3c0.1-0.2,0,0,0,0c0,0.1-0.1,0.1-0.1,0.2
				c-0.1,0.1-0.1,0.2-0.2,0.3c0,0,0.1-0.1,0,0s-0.1,0.1-0.2,0.2L50,52c0,0-0.2,0.2,0,0c-0.1,0.1-0.2,0.1-0.3,0.2
				c-0.1,0-0.1,0.1-0.2,0.1c0,0-0.2,0.1,0,0c0.1,0.4-0.1,0.4-0.2,0.4s-0.1,0-0.2,0c-0.2,0.1,0.2,0,0,0c-0.1,0-0.2,0-0.3,0
				c-0.1,0-0.1,0-0.2,0c0.2,0,0,0,0,0c-0.1,0-0.3-0.1-0.4-0.1c0.2,0.1,0,0-0.1,0s-0.1-0.1-0.2-0.1s-0.1-0.1-0.2-0.1c0.1,0.1,0,0,0,0
				c-0.1-0.1-0.3-0.2-0.4-0.4c0,0-0.2-0.2-0.1-0.1c-0.1-0.1-0.1-0.2-0.2-0.2c0-0.1-0.1-0.1-0.1-0.2c0,0-0.1-0.3-0.1-0.1
				c-0.1-0.2-0.1-0.4-0.1-0.6c0-0.1,0-0.1,0-0.2c0,0.2,0-0.1,0-0.1c0-0.1,0-0.2,0-0.3s0-0.1,0-0.2c0,0.1,0,0.1,0,0s0-0.3,0.1-0.4
				c-0.1,0.1,0,0.1,0,0s0.1-0.1,0.1-0.2c0.1-0.1,0.1-0.2,0.2-0.3c0-0.1,0.1-0.1,0.1-0.2c0.1-0.1,0.1-0.1,0,0l0.1-0.1
				c0.1-0.1,0.2-0.2,0.3-0.3c0,0,0.1-0.1,0.2-0.1c0,0,0.2-0.2,0.1-0.1s0.1,0,0.1,0c0.1,0,0.1-0.1,0.2-0.1c0.1-0.1-0.2,0.1,0,0
				s-0.1,0,0,0c0.3,0,0.6-0.2,0.7-0.5C48.9,47.3,48.8,46.8,48.5,46.7L48.5,46.7z"/>
		</g>
	</g>
	<g>
		<g>
			<path class="st0" d="M37.4,31.4c1.1-0.7,2-1.7,3.1-2.4c1.3-0.8,2.7-1.6,4.3-1.6c1.5,0,3.2,0.5,4.6,1c1.1,0.4,2,1.1,2.8,2
				c2.6,3.2,2.5,8.5-0.4,11.5c-1.6,1.6-4.9,3.7-7.2,2.6c-1-0.5-1.9,1-0.9,1.5c2.7,1.3,5.9-0.2,8-1.9c2.1-1.6,3.5-3.8,3.9-6.4
				c0.4-2.5,0-5.2-1.3-7.4c-0.6-1.1-1.5-2-2.5-2.7c-1.4-1-3.1-1.3-4.8-1.7c-2-0.5-3.9-0.3-5.7,0.7c-0.9,0.5-1.8,1-2.6,1.6
				c-0.7,0.5-1.2,1.3-1.9,1.8C35.9,30.6,36.6,31.9,37.4,31.4L37.4,31.4z"/>
		</g>
	</g>
	<g>
		<g>
			<path class="st0" d="M45.9,26.1c-1.3,0.6-1.5,2.5-1.5,3.7c-0.1,1.5,0,3,0.4,4.4c1.1,3.7,4.3,6.7,8.1,7.5c1.1,0.2,1.6-1.5,0.5-1.7
				c-3.2-0.7-5.9-3-6.9-6.1c-0.4-1.1-0.4-2.4-0.4-3.5c0-1,0-2.4,0.6-3.2C47.2,26.5,46.6,25.7,45.9,26.1L45.9,26.1z"/>
		</g>
	</g>
	<g>
		<g>
			<path class="st0" d="M32.6,30.8c-1-0.1-1.9,0.5-2.7,0.9c-1,0.5-2,1.3-2.8,2.1c-1.4,1.7-2.5,3.8-2.8,6c-0.5,4.2,2.2,8.3,5.7,10.5
				c2,1.3,4.3,1.5,6.5,0.7c2-0.7,4.2-1.5,5.8-2.8c1.7-1.4,2.3-3.3,2.5-5.5c0.2-2.2,0.3-4.3-0.6-6.3c-0.5-1.1-1-2.4-1.8-3.3
				c-0.8-1-2-1.7-3.2-2.2s-2.4-0.7-3.7-0.7C34.8,30.2,33.3,30.2,32.6,30.8c-1,0.7-0.1,2.2,0.8,1.5c0.5-0.4,1.6-0.3,2.2-0.3
				c0.9,0,1.9,0.1,2.7,0.5c0.8,0.3,1.7,0.8,2.3,1.4c0.7,0.6,1.1,1.5,1.5,2.4c0.8,1.7,1.2,3.2,1.1,5.1c-0.1,1.7-0.2,3.6-1.3,4.9
				s-3,1.9-4.5,2.5c-1.8,0.7-3.6,1.4-5.4,0.5c-3-1.3-5.6-4.5-5.9-7.8c-0.2-2,0.6-4,1.8-5.7c0.6-0.8,1.2-1.5,2.1-2.1
				c0.4-0.3,0.8-0.5,1.3-0.7c0.4-0.2,0.9-0.6,1.4-0.7C33.6,32.2,33.6,30.9,32.6,30.8L32.6,30.8z"/>
		</g>
	</g>
	<g>
		<g>
			<path class="st0" d="M26.9,45.9c1.6,0.3,3.1-0.8,4.3-1.7c1.3-1,2.5-2.1,3.1-3.6c0.6-1.4,0.9-2.9,0.8-4.4C35,34.5,34.2,33,34,31.4
				c-0.2-1.1-1.8-0.6-1.7,0.5c0.2,1.4,0.9,2.7,1.1,4.1c0.2,1.2,0,2.5-0.5,3.6c-0.5,1.2-1.4,2.2-2.4,3c-1.1,0.9-2.3,1.6-3.7,1.9
				C26.2,44.7,26.2,45.8,26.9,45.9L26.9,45.9z"/>
		</g>
	</g>
	<g>
		<g>
			<path class="st0" d="M34.2,51.3c1.4-0.2,2.7-1.5,3.7-2.4c1.1-1.1,2.1-2.3,2.9-3.6c1.1-1.6,1.8-3.5,2.1-5.4c0.3-1.9,0.5-4-0.3-5.8
				c-0.4-0.9-1.9-0.5-1.5,0.4c1.3,3.1,0.2,7.4-1.7,10.1c-1.5,2.1-3.3,4.4-5.7,5.4C32.8,50.3,33.5,51.4,34.2,51.3L34.2,51.3z"/>
		</g>
	</g>
	<g>
		<g>
			<path class="st0" d="M27.7,35.4c0.6,0.4,1.6,0.2,2.3,0.2c0.9,0,1.7,0,2.6,0.1c1.7,0.1,3.4,0.5,5,1.3c1.4,0.7,2.8,1.6,3.9,2.7
				c1,1,1.5,2.1,1.8,3.4c0.2,0.7,1.3,0.8,1.5,0c0.3-1.4-0.9-3.1-1.7-4.1c-1.1-1.3-2.7-2.4-4.2-3.2c-1.7-0.9-3.5-1.5-5.4-1.6
				c-1-0.1-2-0.1-3-0.1c-0.8,0-2.1-0.2-2.8,0.3C27.3,34.6,27.3,35.2,27.7,35.4L27.7,35.4z"/>
		</g>
	</g>
	<g>
		<g>
			<path class="st0" d="M26.3,41c0.6-0.1,1.1-0.3,1.8-0.2s1.4,0.2,2.1,0.5c1.3,0.4,2.4,1,3.6,1.7c2.5,1.5,5,2.9,6.1,5.7
				c0.4,1,1.8,0.6,1.6-0.4c-0.8-3.3-4.3-5.2-7-6.8c-1.3-0.8-2.8-1.5-4.3-1.9c-1.4-0.4-3.2-0.6-4.4,0.3C25,40.3,25.7,41.1,26.3,41
				L26.3,41z"/>
		</g>
	</g>
	<g>
		<g>
			<path class="st0" d="M42.2,33.7c0-0.1,0-0.2,0-0.3c0,0.1,0,0,0.1-0.1c0.3-0.2,0.7-0.5,1.1-0.6c0.9-0.4,1.9-0.7,2.9-1
				c0.9-0.2,1.9-0.5,2.9-0.5c1.6-0.1,2.9,0.5,4.2,1.2c0.9,0.5,1.7-0.9,0.8-1.4c-1.6-0.9-3.3-1.5-5.2-1.4c-1.2,0.1-2.4,0.3-3.6,0.7
				c-1.2,0.3-2.5,0.7-3.5,1.4c-0.9,0.5-1.9,1.7-0.7,2.6C41.7,34.5,42.2,34.1,42.2,33.7L42.2,33.7z"/>
		</g>
	</g>
	<g>
		<g>
			<path class="st0" d="M44.8,39.8c1.3-1.2,3-1.6,4.7-1.6c0.9,0,1.7,0.1,2.6,0.2c0.4,0.1,0.8,0.2,1.2,0.3c0.4,0.1,0.9,0.3,1.3,0.2
				c0.6-0.1,0.7-0.9,0.3-1.3c-0.3-0.3-0.9-0.4-1.3-0.6c-0.4-0.1-0.9-0.2-1.3-0.3c-1-0.2-2.1-0.3-3.1-0.2c-2,0.1-4.2,0.6-5.4,2.3
				C43.2,39.6,44.3,40.3,44.8,39.8L44.8,39.8z"/>
		</g>
	</g>
</g>
</svg>
