<?xml version="1.0" encoding="utf-8"?>
<!-- Generator: Adobe Illustrator 24.3.0, SVG Export Plug-In . SVG Version: 6.00 Build 0)  -->
<svg version="1.1" id="Calque_1" xmlns="http://www.w3.org/2000/svg" xmlns:xlink="http://www.w3.org/1999/xlink" x="0px" y="0px"
	 viewBox="0 0 80 80" style="enable-background:new 0 0 80 80;" xml:space="preserve">
<style type="text/css">
	.st0{fill:#91D902;}
</style>
<g>
	<g>
		<g>
			<path class="st0" d="M18.3,47.9c1.8-0.3,3.5,1,5,1.8c1.5,0.9,3.1,1.4,4.9,1.2c2-0.3,3.5-1.7,5.4-2.2c2.2-0.5,4.4,0.1,6.4,0.8
				c1.9,0.7,3.6,1.5,5.6,1.4c1.9-0.1,3.5-0.8,5.2-1.5c2.2-0.9,4.1-1,6.3-0.1c1.4,0.6,2.8,1.3,4.3,0.9c1.1-0.3,0.6-2-0.5-1.7
				c-1.5,0.4-3.4-1-4.9-1.4c-1.9-0.5-3.7-0.2-5.5,0.5c-1.9,0.8-3.7,1.7-5.7,1.6c-2.1-0.1-4-1.3-6-1.9c-1.8-0.5-3.8-0.7-5.6-0.2
				c-1.9,0.5-3.6,2.1-5.6,2.2c-3.4,0.1-6.1-4.1-9.6-2.8C17,46.8,17.3,48.1,18.3,47.9L18.3,47.9z"/>
		</g>
	</g>
	<g>
		<g>
			<path class="st0" d="M18.3,52.8c1.8-0.3,3.5,1,5,1.8c1.5,0.9,3.1,1.4,4.9,1.2c2-0.3,3.5-1.7,5.4-2.2c2.2-0.5,4.4,0.1,6.4,0.8
				c1.9,0.7,3.6,1.5,5.6,1.4c1.9-0.1,3.5-0.8,5.2-1.5c2.2-0.9,4.1-1,6.3-0.1c1.4,0.6,2.8,1.3,4.3,0.9c1.1-0.3,0.6-2-0.5-1.7
				c-1.5,0.4-3.4-1-4.9-1.4c-1.9-0.5-3.7-0.2-5.5,0.5c-1.9,0.8-3.7,1.7-5.7,1.6c-2.1-0.1-4-1.3-6-1.9C37,51.7,35,51.5,33.2,52
				c-1.9,0.5-3.6,2.1-5.6,2.2c-3.4,0.1-6.1-4.1-9.6-2.8C17,51.7,17.3,53,18.3,52.8L18.3,52.8z"/>
		</g>
	</g>
	<g>
		<g>
			<path class="st0" d="M18.3,58.3c1.8-0.3,3.5,1,5,1.8c1.5,0.9,3.1,1.4,4.9,1.2c2-0.3,3.5-1.7,5.4-2.2c2.2-0.5,4.4,0.1,6.4,0.8
				c1.9,0.7,3.6,1.5,5.6,1.4c1.9-0.1,3.5-0.8,5.2-1.5c2.2-0.9,4.1-1,6.3-0.1c1.4,0.6,2.8,1.3,4.3,0.9c1.1-0.3,0.6-2-0.5-1.7
				c-1.5,0.4-3.4-1-4.9-1.4c-1.9-0.5-3.7-0.2-5.5,0.5c-1.9,0.8-3.7,1.7-5.7,1.6c-2.1-0.1-4-1.3-6-1.9C37,57.2,35,57,33.2,57.5
				c-1.9,0.5-3.6,2.1-5.6,2.2c-3.4,0.1-6.1-4.1-9.6-2.8C17,57.3,17.3,58.5,18.3,58.3L18.3,58.3z"/>
		</g>
	</g>
	<g>
		<g>
			<path class="st0" d="M28.4,49.6c0.5-1.2,0.2-2.3,0.1-3.6c-0.2-1.5-0.2-3-0.2-4.6c-0.1-3,0.2-6,0.1-9c-0.1-2.7-0.7-6.2,0.8-8.7
				c1.3-2.2,3.9-3.6,6.4-2.8c2.3,0.8,4.1,2.6,4.8,5c0.1,0.4,0.3,1.5-0.6,1.3c-0.4-0.1-0.7-1.2-0.9-1.5c-0.4-1-0.7-1.9-1.5-2.7
				c-1.5-1.5-4.1-1.5-5.7-0.1c-1.7,1.5-2.3,3.8-2.5,6c-0.3,3.2,0,6.4,0,9.6c0,1.7,0,3.4,0.1,5c0.1,1.8,0.5,3.6,0.6,5.4
				c0.1,1.2,1.9,1.2,1.8,0c-0.1-1.7-0.5-3.4-0.6-5.1C31,42,31,40.3,31,38.5c0.1-3.1-0.2-6.3,0-9.4c0.1-1.3,0.3-2.7,1-3.8
				c0.9-1.4,2.7-2.2,4.1-1c1.4,1.3,1.2,5,4,4.7c2.4-0.3,2.3-2.8,1.5-4.5c-1-2.4-2.5-4-4.9-5s-4.9-0.8-6.9,0.9
				c-2.2,1.7-3.1,3.9-3.3,6.6c-0.1,1.8,0,3.6,0.1,5.4c0,1.9,0,3.8-0.1,5.7c0,1.9,0,3.8,0.1,5.7c0,0.9,0,1.9,0.1,2.8s0.3,1.7,0,2.6
				C26.5,50.2,28,50.6,28.4,49.6L28.4,49.6z"/>
		</g>
	</g>
	<g>
		<g>
			<path class="st0" d="M48.6,49.3c0.5-1.2,0.2-2.4,0.1-3.6c-0.1-1.6-0.2-3.3-0.2-4.9c-0.1-3.2,0.2-6.3,0.1-9.5
				c-0.1-2.8-0.6-6.3,1.3-8.7s4.5-2.9,7.2-1.5c1.1,0.6,1.9,1.4,2.6,2.5c0.3,0.6,1.5,2.4,1,3.1c-0.9,1.1-1.7-2-1.9-2.4
				c-0.4-1-1.1-1.8-2-2.2c-2.2-1-4.4-0.2-5.7,1.7c-1.3,1.9-1.5,4.4-1.6,6.6c-0.1,1.8,0.1,3.7,0.1,5.5c0,1.5-0.1,3-0.1,4.5
				c0,2.7,0,5.5,0.4,8.2c0.2,1.1,1.9,0.7,1.7-0.5c-0.4-2.6-0.3-5.4-0.3-8.2c0-1.5,0.1-3,0.1-4.5c0-1.7-0.2-3.5-0.1-5.2
				c0.1-2.3,0.5-7.5,4.1-6.7c2.6,0.6,1.8,4.5,4.3,5.2c0.9,0.3,1.9-0.1,2.4-0.9c0.7-0.9,0.5-2.1,0.1-3.1c-0.9-2.3-2.3-4.2-4.5-5.2
				c-2.4-1.1-4.9-1.2-7.2,0.3c-2.2,1.6-3.4,3.7-3.6,6.5c-0.2,1.8,0,3.6,0,5.4c0.1,2,0,4.1-0.1,6.1c0,1.9,0,3.8,0.1,5.7
				c0,0.9,0,1.8,0.1,2.6c0.1,0.9,0.3,1.9,0,2.8C46.8,49.9,48.3,50.3,48.6,49.3L48.6,49.3z"/>
		</g>
	</g>
	<g>
		<g>
			<path class="st0" d="M30.4,41.4c1.2,0.4,2.8,0.2,4.1,0.2c1.6-0.1,3.1-0.1,4.6-0.1c1.6,0,3.1,0,4.7-0.1c1.2-0.1,2.5-0.1,3.6,0.3
				c1.1,0.3,1.5-1.3,0.5-1.7c-1.2-0.3-2.5-0.3-3.8-0.3c-1.5,0.1-3,0.1-4.5,0.1s-3,0-4.5,0c-1.5,0.1-3,0-4.5,0.2
				C29.7,40.1,29.5,41.2,30.4,41.4L30.4,41.4z"/>
		</g>
	</g>
	<g>
		<g>
			<path class="st0" d="M30.6,33.6c1.4,0.3,3,0.2,4.4,0.3c1.4,0,2.8,0,4.2,0s2.8,0,4.2,0.1s2.8,0.4,4.2,0.4c1.1,0,1.1-1.7,0-1.7
				c-1.4,0-2.8-0.3-4.2-0.4c-1.4-0.1-2.8-0.1-4.2-0.1s-2.8,0-4.2,0s-3-0.3-4.4,0.1C29.9,32.4,29.9,33.4,30.6,33.6L30.6,33.6z"/>
		</g>
	</g>
</g>
</svg>
