<?xml version="1.0" encoding="utf-8"?>
<!-- Generator: Adobe Illustrator 24.3.0, SVG Export Plug-In . SVG Version: 6.00 Build 0)  -->
<svg version="1.1" id="Calque_1" xmlns="http://www.w3.org/2000/svg" xmlns:xlink="http://www.w3.org/1999/xlink" x="0px" y="0px"
	 viewBox="0 0 80 80" style="enable-background:new 0 0 80 80;" xml:space="preserve">
<style type="text/css">
	.st0{fill:#91D902;}
</style>
<g>
	<g>
		<g>
			<path class="st0" d="M22.9,57.8c0-1.9-0.5-3.7-0.6-5.5c-0.1-2.1-0.1-4.2,0.2-6.2c0.6-3.6,2.4-6.8,4.4-9.8c2-3.1,4.4-5.8,7.4-8
				c2.9-2.1,5.9-4.2,9.4-5.2c4.4-1.3,9.2-1,13.5,0.4c1,0.3,1.5-1.3,0.4-1.6c-4-1.3-8.1-1.6-12.3-0.9c-3.9,0.7-7.3,2.7-10.5,4.9
				c-3.1,2.2-5.8,4.5-8.1,7.7c-2.2,3.1-4.3,6.5-5.4,10.2c-0.6,2.2-0.8,4.5-0.8,6.8c0,1.2,0,2.4,0.2,3.5c0.1,1.2,0.5,2.5,0.6,3.7
				C21.6,58.7,22.8,58.8,22.9,57.8L22.9,57.8z"/>
		</g>
	</g>
	<g>
		<g>
			<path class="st0" d="M22,58.8c2.1,0.8,4.6,0.7,6.8,0.6c2.4-0.1,4.8-0.3,7.1-0.9c4.3-1.1,8.5-3.3,12.1-6c3.2-2.4,5.9-5.3,7.9-8.8
				C58,40,59,35.8,59.4,31.6c0.2-1.9-0.1-3.8-0.3-5.7c-0.2-1.2-0.3-3.2-1.7-3.7c-1.1-0.4-1.5,1.3-0.5,1.7c-0.3-0.1,0,0.1,0,0.3
				c0.1,0.3,0.2,0.5,0.2,0.8c0.2,0.7,0.3,1.4,0.3,2.2c0.2,1.6,0.3,3.1,0.2,4.6c-0.4,3.9-1.3,7.6-3.2,11
				c-3.7,6.7-10.6,11.4-17.7,13.7c-4.5,1.5-9.7,1.7-14.3,0.8C21.4,57.1,21,58.4,22,58.8L22,58.8z"/>
		</g>
	</g>
	<g>
		<g>
			<path class="st0" d="M45.5,21.9c-0.8,1,0.2,2.7,0.7,3.6c0.7,1.3,1.4,2.6,2.4,3.7c1.1,1.3,2.4,2.4,3.8,3.4
				c0.7,0.5,1.5,0.9,2.4,1.2c0.8,0.3,1.7,0.4,2.4,0.8c1,0.5,1.9-1,0.9-1.5c-1.4-0.7-3-0.9-4.4-1.7c-1.3-0.9-2.5-1.9-3.6-3
				c-0.9-1-1.7-2.1-2.3-3.3c-0.5-0.9-1.1-1.8-1.1-2.8C46.7,21.5,45.8,21.4,45.5,21.9L45.5,21.9z"/>
		</g>
	</g>
	<g>
		<g>
			<path class="st0" d="M22.3,47.1c0.5,0.1,1.1-0.1,1.6,0c0.6,0.1,1.2,0.4,1.7,0.7c1.1,0.6,2,1.4,2.9,2.3c1,1,1.9,2.2,2.7,3.4
				c0.4,0.6,0.8,1.3,1.1,2.1c0.3,0.8,0.4,1.6,0.6,2.5c0.2,1,1.5,0.6,1.6-0.2c0.1-0.9-0.2-1.9-0.5-2.7c-0.3-0.9-0.8-1.7-1.3-2.5
				c-0.9-1.4-2-2.7-3.2-3.9c-1-1-2.2-2-3.6-2.7c-1.1-0.5-3.2-1.2-4,0C21.7,46.5,21.9,47.1,22.3,47.1L22.3,47.1z"/>
		</g>
	</g>
	<g>
		<g>
			<path class="st0" d="M33,48.3c1.7-0.7,3.2-2.1,4.6-3.4c1.5-1.4,3-2.7,4.4-4.2c1.2-1.3,2.4-2.7,3.6-4.1c0.9-1.1,1.9-2.6,3.3-3.2
				c0.9-0.4,0.5-1.9-0.4-1.5c-1.4,0.6-2.5,1.8-3.5,3c-1.1,1.4-2.3,2.8-3.5,4.1c-1.4,1.5-2.9,2.9-4.4,4.3s-3.1,2.6-4.8,3.8
				C31.5,47.6,32.2,48.6,33,48.3L33,48.3z"/>
		</g>
	</g>
	<g>
		<g>
			<path class="st0" d="M42.6,33.3C42.5,33.2,42.6,33.3,42.6,33.3C42.7,33.3,42.7,33.4,42.6,33.3c0.2,0.2,0.3,0.3,0.4,0.4
				c0.1,0.1,0.3,0.4,0.5,0.6c0.4,0.5,0.7,1.1,1.2,1.5c0.2,0.2,0.5,0.4,0.7,0.6c0.2,0.1,0.3,0.3,0.5,0.4c0.1,0,0.1,0.1,0.2,0.1
				c0.2,0.1-0.1,0,0.1,0.1c0.2,0.2,0.5,0.4,0.7,0.6c0.1,0.1,0.2,0.2,0.4,0.4l0.1,0.1c0-0.1,0-0.1,0,0c0.1,0.1,0.1,0.2,0.2,0.2
				c0.2,0.4,0.8,0.6,1.2,0.3c0.4-0.2,0.6-0.8,0.3-1.2c-0.4-0.6-0.9-1.1-1.5-1.6c-0.2-0.1-0.3-0.2-0.5-0.4c-0.1-0.1-0.1-0.1-0.2-0.2
				c0,0-0.2-0.2-0.1-0.1c-0.3-0.2-0.5-0.4-0.8-0.7c-0.1-0.1-0.2-0.2-0.3-0.4c-0.1-0.1,0.1,0.1,0,0c0-0.1-0.1-0.1-0.1-0.2
				c-0.2-0.3-0.4-0.5-0.6-0.8c-0.4-0.5-0.9-1.1-1.5-1.4c-0.3-0.1-0.7,0.1-0.8,0.4C42.2,32.7,42.3,33.1,42.6,33.3L42.6,33.3z"/>
		</g>
	</g>
	<g>
		<g>
			<path class="st0" d="M38.9,36.5c0.2,0.2,0.5,0.4,0.7,0.6c0.1,0.1,0.2,0.2,0.3,0.3c0,0.1,0.1,0.1,0.1,0.2l0.1,0.1
				c0.4,0.5,0.8,1.1,1.3,1.6c0.9,1,2.1,1.8,3,2.8c0.3,0.3,0.9,0.3,1.2,0c0.3-0.3,0.3-0.8,0-1.2c-0.9-1-2.1-1.8-3.1-2.9
				c-0.4-0.5-0.8-1-1.2-1.5s-1-1.1-1.7-1.2c-0.3,0-0.6,0-0.7,0.3C38.7,36,38.7,36.3,38.9,36.5L38.9,36.5z"/>
		</g>
	</g>
	<g>
		<g>
			<path class="st0" d="M36,39.9c0.1,0,0.1-0.1,0.1-0.2c0-0.1,0-0.1,0,0c-0.2,0.1-0.3,0.1-0.5,0.2c0,0,0,0-0.1,0
				c-0.1-0.1-0.2-0.1-0.3-0.2c0.2,0.3,0.5,0.6,0.8,0.9c0.3,0.3,0.5,0.6,0.8,0.9c0.5,0.5,0.9,1,1.4,1.5c0.5,0.4,1,0.9,1.4,1.4
				c0.2,0.3,0.3,0.4,0.5,0.7c0.2,0.4,0.2,0.5,0.5,0.9s1.2,0.2,1.3-0.3c0-0.3,0.1-0.5,0-0.7s-0.2-0.4-0.2-0.5
				c-0.2-0.3-0.4-0.6-0.7-0.9c-0.5-0.5-1-1-1.5-1.5s-1.1-1-1.6-1.6c-0.6-0.6-1.2-1.3-1.9-1.7c-0.2-0.1-0.5-0.1-0.7,0
				S35,39,34.9,39.2c0,0.1,0,0.1,0,0.2c0,0.1,0,0.2,0,0.1C34.8,39.9,35.6,40.3,36,39.9L36,39.9z"/>
		</g>
	</g>
	<g>
		<g>
			<path class="st0" d="M31.2,42.7c0,0.2,0.2,0.3,0.3,0.4s0.2,0.1,0.3,0.2s0,0,0,0c0.2,0.2,0.5,0.4,0.7,0.7c0.5,0.5,0.9,1,1.3,1.6
				c0.6,0.7,1.1,1.3,1.7,2c0.3,0.4,0.6,0.7,0.9,1.1c0.4,0.4,0.7,0.9,1.2,1.1c0.6,0.2,1.1-0.4,1-1c-0.1-0.5-0.6-1-1-1.3
				c-0.3-0.4-0.7-0.8-1-1.2c-0.6-0.7-1.2-1.3-1.7-2c-0.5-0.6-0.9-1.1-1.4-1.6c-0.3-0.3-0.5-0.4-0.8-0.6c-0.4-0.2-0.9-0.3-1.2,0
				C31.2,42.2,31.2,42.5,31.2,42.7L31.2,42.7z"/>
		</g>
	</g>
</g>
</svg>
