<?xml version="1.0" encoding="utf-8"?>
<!-- Generator: Adobe Illustrator 24.3.0, SVG Export Plug-In . SVG Version: 6.00 Build 0)  -->
<svg version="1.1" id="Calque_1" xmlns="http://www.w3.org/2000/svg" xmlns:xlink="http://www.w3.org/1999/xlink" x="0px" y="0px"
	 viewBox="0 0 80 80" style="enable-background:new 0 0 80 80;" xml:space="preserve">
<style type="text/css">
	.st0{fill:#91D902;}
</style>
<g>
	<g>
		<g>
			<g>
				<path class="st0" d="M29.2,19.4c-0.8,0.4-1.4,1-2.1,1.6c-1,0.8-1.9,1.6-2.7,2.5c-1.2,1.4-1.8,3.1-2.3,4.8
					c-1,4.1-0.8,8.6-0.1,12.7c0.7,4.6,2.3,8.9,4.3,13.1c1.1,2.2,2.1,4.5,3.4,6.6c0.8,1.5,1.9,2.9,3.2,3.9c2.8,2.1,7.4,2,10.6,0.9
					c2.6-0.9,4-2.8,5.5-4.9c1.8-2.6,3.4-5.3,4.8-8c1.2-2.3,2.5-4.6,3.3-7c0.7-2,0.9-4.2,0.9-6.3c0-1.3,0.2-2.5,0.1-3.8
					s-0.4-2.6-0.7-3.8c-0.5-2.4-1.4-4.7-2.5-6.9c-0.5-1-1.2-2.1-2-2.9c-0.3-0.3-1.6-1.1-1.7-1.6c0-1.1-1.8-1.1-1.7,0
					c0,1.2,1.2,1.9,2,2.7c1.5,1.4,2.2,3.4,2.9,5.3c0.8,2,1.3,4,1.7,6.1c0.4,2.1,0.2,4.4,0,6.5c-0.3,5.4-3.5,10.4-6.2,14.9
					c-1.3,2.1-2.5,4.3-4.1,6.2c-2,2.4-5.4,2.8-8.4,2.6c-4.2-0.3-5.9-3.5-7.7-6.9c-2-3.9-4-7.9-5.2-12.2c-1.3-4.5-1.8-9.4-1.4-14.2
					c0.2-2,0.6-4.1,1.7-5.8c0.6-1,1.4-1.8,2.3-2.6c0.8-0.8,1.8-1.7,2.7-2.3C30.7,20.1,30,19,29.2,19.4L29.2,19.4z"/>
			</g>
		</g>
		<g>
			<g>
				<path class="st0" d="M57.3,29.4c0.5-1.1,1.8-2.5,3-1.9s2,2,1.7,3.3s-1.2,2.4-2.1,3.4c-0.6,0.7-1.1,1.4-1.7,2
					c-0.6,0.7-1.2,1.4-1.7,2.1c-0.5,0.8,0.6,1.7,1.3,1c0.8-0.8,1.5-1.8,2.2-2.6c0.6-0.8,1.3-1.5,1.9-2.4c1.1-1.4,2-3.1,1.8-4.9
					c-0.3-1.8-2-3.6-3.8-3.8c-1.9-0.2-3.5,1.7-3.8,3.4C55.9,29.9,57,30.1,57.3,29.4L57.3,29.4z"/>
			</g>
		</g>
		<g>
			<g>
				<path class="st0" d="M57.9,30.8C57.9,30.8,57.9,30.7,57.9,30.8C57.9,30.6,57.9,30.8,57.9,30.8L57.9,30.8l0.2-0.2
					c0,0,0,0,0.1-0.1s-0.2,0.1,0,0c0.1-0.1,0.2-0.1,0.3-0.1c0,0,0.1,0,0.1-0.1c-0.2,0.1-0.1,0,0,0h0.1c0.1,0-0.2,0-0.1,0
					c0,0,0,0,0.1,0h0.1c0.1,0,0.1,0.1-0.1,0h0.1c0,0,0,0,0.1,0s-0.1,0-0.1,0s0,0,0.1,0c0.1,0.1-0.1-0.1-0.1-0.1l0.1,0.1
					c0,0-0.1-0.2-0.1-0.1c0,0,0,0.1,0.1,0.1c0.1,0.1,0-0.1,0-0.1v0.1c0,0.1,0,0.2,0,0v0.1c0,0.1-0.1,0.2,0,0c0,0.1,0,0.2-0.1,0.3
					v0.1c0,0.1,0-0.1,0-0.1c0,0.1-0.1,0.1-0.1,0.2c-0.1,0.2-0.3,0.4-0.4,0.6l-0.1,0.1c0,0,0,0.1-0.1,0.1c0.1-0.2,0.1-0.1,0-0.1
					c-0.1,0.1-0.1,0.1-0.2,0.2c0,0,0.1-0.2,0-0.1c0,0.1-0.1,0.1-0.1,0.2c-0.4,0.5-1.1,1.3-0.9,1.9c0.2,0.5,0.7,0.7,1.2,0.5
					c0.3-0.2,0.4-0.5,0.6-0.8c0.1-0.1,0.2-0.2,0.2-0.3S59,33.1,59,33c0,0,0.1-0.1,0,0s0,0,0,0c0.4-0.5,0.8-1.1,1.1-1.7
					c0.2-0.6,0.3-1.4-0.1-1.9c-0.4-0.6-1.2-0.9-1.9-0.7c-0.7,0.2-1.3,0.7-1.5,1.5c-0.1,0.3,0.1,0.7,0.4,0.8
					C57.3,31.2,57.7,31.1,57.9,30.8L57.9,30.8z"/>
			</g>
		</g>
		<g>
			<g>
				<path class="st0" d="M23,28.7c-0.2-0.5-0.5-0.9-0.8-1.2c-0.3-0.4-0.7-0.8-1.1-1c-1.2-0.6-2.8-0.2-3.7,0.7
					c-1.9,2-1.1,4.9,0.4,6.8c1,1.3,2.4,1.9,3.8,2.5c0.4,0.2,0.9-0.2,1.1-0.6c0.1-0.5-0.2-0.9-0.6-1.1c-1.1-0.4-2.2-0.9-3-1.9
					c-0.7-0.9-1.2-2-1.1-3.2c0.1-1,0.8-1.8,1.8-1.9c0.5,0,0.7,0.2,1,0.4c0.2,0.2,0.4,0.4,0.6,0.6c0.1,0.1,0.2,0.2,0.3,0.3
					c0,0,0.2,0.3,0.1,0.1c0.2,0.3,0.5,0.4,0.9,0.3C22.9,29.4,23.1,29,23,28.7L23,28.7z"/>
			</g>
		</g>
		<g>
			<g>
				<path class="st0" d="M21.8,33.3C22,33.5,21.8,33.2,21.8,33.3c-0.2-0.1-0.4-0.4-0.3-0.2c0.1,0.1,0,0,0,0L21.4,33l-0.1-0.1l0,0
					c-0.1-0.1,0.1,0.1,0.1,0.1c-0.1-0.1-0.1-0.2-0.2-0.3c-0.1-0.1-0.1-0.2-0.1-0.3c0,0,0-0.1-0.1-0.1c-0.1-0.1,0.1,0.2,0,0.1v-0.1
					c-0.1-0.2-0.1-0.4-0.2-0.6v-0.1c0-0.1,0,0.2,0,0.1v-0.1c0-0.1,0-0.2,0-0.3s0.1-0.4,0-0.1c0-0.1,0-0.2,0.1-0.3v-0.1
					c0.1-0.2-0.1,0.2,0,0.1c0,0,0-0.1,0.1-0.1l0,0c0.1-0.1-0.2,0.2-0.1,0.1c0,0,0,0,0.1-0.1s0.1,0-0.1,0c0,0,0.1,0,0.1-0.1
					c0,0,0,0,0.1,0c0.1-0.1-0.2,0.1-0.1,0h0.1c0.2,0-0.2,0,0,0c0.1,0,0.1,0,0.2,0c0,0,0,0,0.1,0s-0.2,0-0.1,0c0.1,0,0.3,0.1,0.4,0.1
					h0.1c0.1,0,0,0,0,0c0.2,0.1,0.3,0.2,0.6,0.2s0.5-0.1,0.7-0.4c0.1-0.2,0.2-0.6,0-0.8c-0.4-0.6-1.4-0.8-2.2-0.7
					c-0.5,0.1-1,0.5-1.2,1c-0.5,1-0.3,2.3,0.3,3.2c0.4,0.6,1,1.3,1.7,1.3c0.3,0,0.5-0.2,0.6-0.4C22.1,33.8,22,33.5,21.8,33.3
					L21.8,33.3z"/>
			</g>
		</g>
		<g>
			<g>
				<path class="st0" d="M26.9,16.3c-0.5,1.9,1.2,4.2,2.9,4.9c1.4,0.5,2.9,0.4,4.4,0.4c1.8,0,3.5,0.2,5.3,0.2
					c1.7,0.1,3.5,0.1,5.2,0.1c1.4,0,3,0.1,4.4-0.5c2.1-0.9,2.5-3.2,2.9-5.2c0.2-1.1-1.4-1.5-1.6-0.4c-0.3,1.5-0.4,3.7-2.1,4.2
					c-1.2,0.4-2.7,0.2-4,0.3c-1.4,0-2.7,0-4.1-0.1c-2.5-0.1-5.1-0.2-7.6-0.2c-1.1,0-2.2-0.1-3.1-0.8c-0.7-0.6-1.3-1.6-1.2-2.6
					C28.4,15.7,27.1,15.5,26.9,16.3L26.9,16.3z"/>
			</g>
		</g>
		<g>
			<g>
				<path class="st0" d="M28.2,16.5c0.9-0.9,3.4-0.9,4.6-0.5c0.8,0.3,1.6,0.7,2.4,0.7c1,0.1,2.1-0.1,3-0.3c2.1-0.4,4.2-1.1,6.4-1
					c2,0.1,4.4,0.4,6.2,1.2c1,0.4,1.8-1,0.8-1.4c-2-0.9-4.3-1.2-6.5-1.4c-2.4-0.2-4.8,0.6-7.2,1c-1.2,0.2-2.4,0.4-3.6,0
					c-0.9-0.3-1.8-0.8-2.8-0.8c-1.3,0-3.8,0.1-4.5,1.5C26.8,16.3,27.6,17.1,28.2,16.5L28.2,16.5z"/>
			</g>
		</g>
		<g>
			<g>
				<path class="st0" d="M27.5,16.7c0.9,0.2,1.9,0.6,2.8,0.9c1,0.3,2,0.6,3,1.1c0.8,0.5,1.6,1,2.5,1.2s2,0.1,2.9-0.1
					c2.2-0.4,4.3-1.2,6.5-1.5s4.3-0.6,6.4-1.7c0.9-0.5,0.1-1.9-0.8-1.4c-2,0.9-3.9,1.2-6,1.5s-4.2,1.1-6.3,1.5
					c-1.1,0.2-2.1,0.3-3.2-0.2c-0.8-0.4-1.5-0.9-2.4-1.2c-1.6-0.6-3.5-1.3-5.2-1.4C26.9,15.2,26.7,16.5,27.5,16.7L27.5,16.7z"/>
			</g>
		</g>
	</g>
	<g>
		<g>
			<path class="st0" d="M51.6,22c-0.8,0.7-1.5,1.4-2.3,2.1c-0.7,0.6-1.6,1.4-1.9,2.3c-0.1,0.4-0.1,0.9,0.1,1.3
				c0.2,0.4,1.1,0.8,1.2,1.2s-0.6,0.9-0.9,1.2c-0.5,0.5-0.8,1-1,1.6c-0.1,0.5,0.3,1.1,0.8,1.1c0.7,0,2.1-0.4,1.6,0.7
				c-0.4,0.8-1.2,1.5-1.7,2.2c-0.4,0.5-0.3,1,0.2,1.4c1,0.7,2.4,1.1,2.1,2.5c-0.4,1.7-1.8,3.1-1.3,4.9c0.2,0.9,1.5,0.7,1.6-0.2
				c0.1-2,1.9-3.7,1.5-5.8c-0.3-1.5-1.9-2.1-3-2.9c0.1,0.5,0.1,0.9,0.2,1.4c0.9-1.1,2.5-2.4,2.4-4.1c-0.2-1.9-2-1.7-3.5-1.8
				c0.3,0.4,0.5,0.7,0.8,1.1c0.3-1.1,1.6-1.5,1.9-2.7c0.1-0.5,0-1-0.2-1.4c-0.2-0.3-0.9-0.7-1.1-1c-0.2-0.6,1.1-1.6,1.5-2.1
				c0.7-0.7,1.4-1.3,2-2C53.2,22.3,52.3,21.4,51.6,22L51.6,22z"/>
		</g>
	</g>
	<g>
		<g>
			<path class="st0" d="M27.9,52.4c-0.1-0.6-0.6-1-0.6-1.7c0.1-0.5,0.3-1,0.6-1.5c0.6-0.8,1.4-1.4,2-2.2c0.3-0.4,0.6-0.7,0.6-1.3
				c0-0.3-0.1-0.5-0.2-0.7c-0.1-0.1-0.3-0.3-0.4-0.5c-0.1-0.2,0.2-0.8,0.4-1c0.3-0.5,0.7-1,1.2-1.4c0.8-0.6,0.1-1.7-0.8-1.3
				c-1.2,0.6-2.2,2-2.4,3.4c-0.1,0.5,0.1,1.3,0.6,1.5c0.2,0.1,0,0,0.1,0c-0.1-0.1,0.2-0.2,0,0c-0.2,0.1-0.4,0.4-0.6,0.6
				c-0.9,0.9-1.8,1.8-2.3,3s-0.5,3.3,1,3.7C27.6,53.4,28,52.9,27.9,52.4L27.9,52.4z"/>
		</g>
	</g>
</g>
</svg>
