<?xml version="1.0" encoding="utf-8"?>
<!-- Generator: Adobe Illustrator 24.3.0, SVG Export Plug-In . SVG Version: 6.00 Build 0)  -->
<svg version="1.1" id="Calque_1" xmlns="http://www.w3.org/2000/svg" xmlns:xlink="http://www.w3.org/1999/xlink" x="0px" y="0px"
	 viewBox="0 0 80 80" style="enable-background:new 0 0 80 80;" xml:space="preserve">
<style type="text/css">
	.st0{fill:#91D902;}
</style>
<g>
	<g>
		<g>
			<path class="st0" d="M46.2,47.4c-2.2,0.4-4.5,0.2-6.6-0.6c-1.9-0.7-4.3-1.5-5.6-3.2c-0.5-0.7-1.1-1.4-1.5-2.2
				c-0.6-1.2-0.7-2.5-0.7-3.8c-0.1-2.1,0.2-4.2,0.9-6.2c1.6-4.2,5.1-6.6,9.5-7.4c4.2-0.7,9.7,1.3,11.9,5.1c1.2,2,1.6,4.4,1.6,6.6
				c0.1,2.7-0.6,5-2.3,7.1c-0.7,0.9,0.5,2.1,1.2,1.2c1.6-2.1,2.6-4.2,2.8-6.8c0.2-2.5-0.1-5.2-1.1-7.5c-1.8-4.6-7.1-7.6-12-7.7
				c-4.9-0.1-10.1,2.4-12.4,6.8c-1.2,2.2-1.8,4.6-1.9,7.1c-0.1,2.6,0.1,5.1,1.6,7.3c0.6,0.9,1.2,1.9,2.1,2.6c1.3,1,2.8,1.6,4.3,2.2
				c2.8,1.2,5.6,1.5,8.5,0.9C47.7,48.7,47.2,47.2,46.2,47.4L46.2,47.4z"/>
		</g>
	</g>
	<g>
		<g>
			<path class="st0" d="M47.6,51.3c-0.5-0.9-0.5-2.1-0.4-3.1c0.1-0.9,0.5-1.9,1.1-2.6s1.5-1.1,2.4-1.4c1.1-0.3,2.1-0.2,3.1,0.3
				c0.9,0.4,1.7,0.9,2.1,1.7c0.4,0.8,0.6,1.8,0.6,2.7c0,1-0.3,1.8-0.9,2.6c-0.6,0.7-1.4,1.3-2.3,1.6c-1.1,0.3-2.3,0.3-3.3-0.2
				c-0.5-0.2-1.1-0.4-1.5-0.7C48.2,52,47.9,51.6,47.6,51.3c-0.6-1-2.1-0.1-1.5,0.8c0.3,0.4,0.6,0.9,1,1.3c0.5,0.5,1.2,0.7,1.8,1
				c1.3,0.6,2.6,0.8,4,0.6c2.5-0.4,4.9-2.4,5.3-5s-0.5-5.4-2.9-6.7c-1.2-0.7-2.6-1.1-4.1-0.9c-1.3,0.2-2.6,0.6-3.6,1.5
				c-1.1,0.9-1.8,2.3-2.1,3.7c-0.3,1.4-0.3,3.3,0.6,4.5C46.8,52.9,48.2,52.2,47.6,51.3z"/>
		</g>
	</g>
	<g>
		<g>
			<path class="st0" d="M32.1,43.2c-0.3,0.6-1,0.9-1.5,1.3c-0.7,0.6-1.4,1.2-2,1.9c-1.2,1.2-2.4,2.4-3.6,3.6
				c-0.7,0.6-1.3,1.3-1.9,1.9c-0.5,0.5-1.3,1-1.4,1.8c0,0.6,0.5,1.1,0.9,1.5c0.6,0.6,1.3,1.2,1.9,1.7c0.5,0.4,0.8,1.1,1.6,1.1
				c0.7,0,1.4-0.7,1.9-1.2c1-1,2-2.1,3-3.1c1.1-1.1,2.2-2.3,3.3-3.5c0.7-0.7,1.3-1.4,1.9-2.2c0.4-0.5,1.1-1.2,0.7-1.9
				c-0.6-0.9-2.1-0.1-1.5,0.9c-0.1-0.1-0.1-0.6,0-0.7c0,0,0,0.1-0.1,0.1c0,0.1-0.1,0.1-0.1,0.2c-0.1,0.1-0.3,0.3-0.5,0.6
				c-0.5,0.6-1,1.2-1.5,1.7c-1,1.1-2.1,2.2-3.1,3.3c-0.6,0.6-1.1,1.1-1.7,1.7c-0.5,0.5-1,1.1-1.5,1.6c-0.2,0.2-0.5,0.5-0.7,0.7
				c0,0-0.1,0-0.1,0.1c-0.3,0.2-0.2,0.2,0.3,0.2c0-0.1-0.3-0.3-0.3-0.4c-0.5-0.5-1-0.9-1.6-1.4c-0.2-0.2-0.5-0.4-0.7-0.6
				c-0.1-0.1-0.2-0.3-0.3-0.3c-0.2-0.2-0.2-0.2-0.1,0.2c0.1-0.1,0.1-0.1,0.2-0.2c0.3-0.1,0.7-0.6,0.9-0.8c0.2-0.2,0.5-0.5,0.7-0.7
				c0.6-0.6,1.2-1.1,1.8-1.7c1.3-1.2,2.4-2.5,3.6-3.6c0.5-0.5,1.1-1,1.7-1.5c0.6-0.4,1-0.9,1.3-1.6C33.7,43,32.5,42.5,32.1,43.2
				L32.1,43.2z"/>
		</g>
	</g>
	<g>
		<g>
			<path class="st0" d="M31.1,33.5c0.5,0.6,0.9,1.2,1.4,1.8c0.6,0.7,1.3,1.3,1.9,1.9c0.6,0.7,1.3,1.3,1.9,2c0.6,0.7,1.2,1.4,1.8,2.1
				c1.2,1.2,2.6,2.2,3.8,3.3c1.4,1.3,2.7,2.6,4,3.9c0.8,0.8,2-0.4,1.2-1.2c-1.3-1.3-2.6-2.6-4-3.9c-1.2-1.2-2.7-2.1-3.9-3.4
				c-0.6-0.6-1.1-1.3-1.7-2c-0.6-0.7-1.3-1.3-1.9-1.9c-0.7-0.7-1.4-1.3-2-2c-0.6-0.6-0.9-1.2-1.6-1.6C31.2,31.9,30.5,32.9,31.1,33.5
				L31.1,33.5z"/>
		</g>
	</g>
</g>
</svg>
