<?xml version="1.0" encoding="utf-8"?>
<!-- Generator: Adobe Illustrator 24.3.0, SVG Export Plug-In . SVG Version: 6.00 Build 0)  -->
<svg version="1.1" id="Calque_1" xmlns="http://www.w3.org/2000/svg" xmlns:xlink="http://www.w3.org/1999/xlink" x="0px" y="0px"
	 viewBox="0 0 80 80" style="enable-background:new 0 0 80 80;" xml:space="preserve">
<style type="text/css">
	.st0{fill:#91D902;}
</style>
<g>
	<g>
		<g>
			<path class="st0" d="M42.4,20.8c-2.5-1.7-5.1-3.5-7.9-4.5c-2.7-1-5.9-0.9-8.7-0.1c-2.7,0.8-5.6,2.6-7.4,4.8
				c-1.8,2.2-2.6,5-2.7,7.8c-0.1,3.1,0.7,6.5,2.2,9.2c1.4,2.6,3.3,5.3,5.6,7.1c4.3,3.3,10.2,3.7,15.2,2c2.7-0.9,5.3-2.4,7.3-4.5
				c2.2-2.4,2.9-5.1,2.9-8.2c0-1.1-1.8-1.1-1.8,0c0,2.6-0.4,4.8-2.2,6.7c-1.5,1.7-3.5,3-5.5,3.8c-4.3,1.8-9.5,2-13.6-0.4
				c-2.3-1.3-3.7-3.4-5.1-5.6c-1.6-2.4-2.7-5-3.1-8c-0.3-2.7,0.1-5.5,1.5-7.9c1.3-2.2,3.6-3.6,5.9-4.7c2.7-1.2,6.2-1.5,9-0.5
				s5.1,3,7.8,4.2C42.6,22.6,43.3,21.4,42.4,20.8L42.4,20.8z"/>
		</g>
	</g>
	<g>
		<g>
			<path class="st0" d="M35.3,47.4c0.3,0.2,0.6,0.3,1,0.4c0.4,0.2,0.8,0.3,1.3,0.4c1,0.3,2,0.5,3,0.8c0.9,0.3,1.8,0.5,2.7,0.8
				c0.5,0.1,0.9,0.3,1.4,0.5c0.4,0.2,0.9,0.4,1.3,0.4c0.7,0,1.1-0.9,0.6-1.4c-0.4-0.3-0.8-0.5-1.3-0.6c-0.5-0.2-0.9-0.3-1.4-0.5
				c-1-0.3-2-0.6-2.9-0.9c-1-0.3-2.1-0.5-3.1-0.8c-0.7-0.2-1.9-0.8-2.5-0.1C35.1,46.8,35.1,47.2,35.3,47.4L35.3,47.4z"/>
		</g>
	</g>
	<g>
		<g>
			<path class="st0" d="M47.3,37c0,0.3,0.1,0.7,0.2,1c0,0.4,0,0.8,0.1,1.2c0.1,0.8,0.4,1.5,0.5,2.3s0.2,1.5,0.4,2.3
				c0.1,0.4,0.2,0.8,0.2,1.2c0.1,0.4,0.1,0.8,0.3,1.1c0.5,0.7,1.4,0.4,1.5-0.4c0-0.4-0.1-0.8-0.2-1.2s-0.2-0.8-0.2-1.2
				c-0.2-0.8-0.3-1.6-0.4-2.4c-0.1-0.8-0.5-1.6-0.5-2.4c-0.1-0.8-0.1-1.7-0.8-2.1C47.9,36.2,47.2,36.5,47.3,37L47.3,37z"/>
		</g>
	</g>
	<g>
		<g>
			<path class="st0" d="M44.7,21.2c-3.3-0.4-6.8,0.8-8.4,3.8c-1.7,3.1-0.8,7.3,1.6,9.8c2.3,2.3,5.8,2.7,8.7,1.4
				c2.8-1.2,4.6-4.2,4.6-7.3c0-3.4-2.8-7-6.1-7.7c-1.1-0.2-1.6,1.5-0.5,1.7c2.4,0.4,4.3,2.7,4.8,5.1c0.4,2.3-0.8,4.9-2.8,6.1
				c-2,1.3-4.9,1.4-6.9-0.1c-2.2-1.6-3.2-5-2.2-7.5c0.5-1.4,1.6-2.6,2.9-3.1c1.4-0.6,2.8-0.5,4.3-0.7C45.7,22.7,45.7,21.4,44.7,21.2
				L44.7,21.2z"/>
		</g>
	</g>
	<g>
		<g>
			<path class="st0" d="M37.9,33.2c1,0.1,1.9-0.7,2.5-1.4c0.7-0.8,1.1-1.6,1.5-2.5c0.8-2,0.9-4.3,0.2-6.4c-0.1-0.3-0.3-0.5-0.6-0.6
				c-0.6-0.1-1,0.1-1.2,0.7c-0.2,0.5,0.3,1.1,0.8,1c0.1,0,0.3,0,0.4-0.1c-0.2,0-0.3,0-0.5,0h0.1c-0.2-0.2-0.4-0.4-0.6-0.6
				c0.5,1.7,0.6,3.6-0.1,5.3c-0.3,0.7-0.6,1.3-1,1.9c-0.5,0.6-1.1,1-1.7,1.4C37,32.3,37.2,33.1,37.9,33.2L37.9,33.2z"/>
		</g>
	</g>
	<g>
		<g>
			<path class="st0" d="M46.1,35.6c0.5-0.9,0.4-2,0.4-3c0-0.9,0.1-1.7,0.5-2.5c0.5-1.2,1.2-2.7,2.5-3.3c0.8-0.4,0.2-1.9-0.7-1.6
				c-1.6,0.7-2.6,2.4-3.2,3.9c-0.4,0.9-0.7,1.7-0.7,2.7c0,0.6,0,1.1,0,1.7c0,0.6-0.1,1.1,0,1.7C44.8,35.9,45.7,36.2,46.1,35.6
				L46.1,35.6z"/>
		</g>
	</g>
	<g>
		<g>
			<path class="st0" d="M20.9,22.5c-1.8,1.7-2.2,4.9-2.1,7.2c0.1,3.2,1.7,6.5,3.5,9.1s4.4,4.9,7.4,5.8c3.3,1,7.2,0.1,10.1-1.6
				c1.3-0.8,2.2-1.8,3-3.1c0.7-1.1,1.6-2.7,1-4.1c-0.4-1-2.1-0.6-1.7,0.5c0.5,1.1-0.8,2.8-1.4,3.6c-0.9,1.3-2.3,1.9-3.7,2.4
				c-2,0.7-4.1,1.1-6.1,0.7c-1.7-0.4-3.3-1.3-4.6-2.5c-2.5-2.2-4.5-5.5-5.4-8.7c-0.7-2.4-0.6-6.4,1.2-8.4
				C22.6,22.9,21.6,21.9,20.9,22.5L20.9,22.5z"/>
		</g>
	</g>
	<g>
		<g>
			<path class="st0" d="M21.8,23.7c0.6-0.5,1-1.2,1.6-1.8s1.5-0.9,2.3-1.1c1.9-0.4,3.9-0.5,5.8-0.5c1.4,0,2.9,0.5,4.1,1.2
				c0.6,0.3,2.1,1.1,2.1,1.8c-0.1,0.7,0.9,1.1,1.3,0.6c1.1-1.3-0.6-2.6-1.6-3.3c-1.4-0.9-3.1-1.6-4.8-1.9c-1.2-0.2-2.5,0-3.7,0.1
				c-1.1,0.1-2.3,0.2-3.4,0.4c-1,0.2-2,0.5-2.8,1.1s-1.5,1.6-2,2.5C20.3,23.6,21.3,24.2,21.8,23.7L21.8,23.7z"/>
		</g>
	</g>
	<g>
		<g>
			<path class="st0" d="M22.1,22.8c1.5,1.4,2.7,3.1,4.3,4.5c1.6,1.5,3.2,2.9,4.7,4.6c1.4,1.7,2.8,3.4,4.3,4.9s3,3.1,4.7,4.3
				c-0.1-0.4-0.2-0.8-0.3-1.2c0,0.1-0.1,0.1-0.1,0.2c-0.4,0.7,0.4,1.6,1.1,1.1c0.1,0,0.1-0.1,0.2-0.1c0.6-0.4,0.5-1.1,0-1.5
				c-3.5-2.6-6.2-6.1-9-9.3c-1.4-1.6-3.1-3-4.6-4.4s-2.6-3.2-4.4-4.2C22.2,21.4,21.5,22.3,22.1,22.8L22.1,22.8z"/>
		</g>
	</g>
	<g>
		<g>
			<path class="st0" d="M19.5,29c1.4,1.7,2.8,3.4,4.3,5c1.4,1.6,3,3,4.5,4.4c1.2,1.1,2.3,2.4,3.5,3.5c0.5,0.4,0.9,0.9,1.4,1.3
				c0.2,0.2,0.5,0.5,0.7,0.7c0,0.1,0.1,0.2,0.2,0.2c0.1,0.1,0.1,0.4,0-0.1c0.1,1.1,1.8,1.1,1.8,0s-1.4-2.1-2.1-2.7
				c-1.2-1.1-2.3-2.4-3.5-3.5c-1.6-1.5-3.3-3-4.8-4.7c-1.6-1.7-3-3.6-4.8-5.2C19.8,27.4,18.9,28.3,19.5,29L19.5,29z"/>
		</g>
	</g>
	<g>
		<g>
			<path class="st0" d="M29,20.4C29,20.4,28.8,20.2,29,20.4C29.1,20.6,28.8,20.1,29,20.4c0.2,0.2,0.3,0.3,0.4,0.3
				c0.2,0.2,0.5,0.5,0.7,0.7c0.5,0.5,0.9,1.1,1.4,1.6c0.6,0.7,1.2,1.4,1.9,2c0.4,0.5,0.9,0.9,1.3,1.4c0.2,0.2,0.4,0.5,0.6,0.7
				c0.1,0.1,0.2,0.2,0.3,0.3c0,0,0.2,0.3,0.2,0.2c0.3-0.4,0.5-0.7,0.8-1.1l0,0c0.1,0,0.3,0.1,0.4,0.1c-0.2-0.1-0.3-0.1-0.6-0.2
				c-0.4-0.1-0.8,0.4-0.8,0.7c0,0.4,0.2,0.8,0.6,0.9c-0.2-0.1,0.1,0.1,0.2,0.1c0.5,0.1,1.1-0.3,1.1-0.8c-0.1-0.7-0.8-1.4-1.3-1.9
				s-0.9-1-1.4-1.5c-0.7-0.7-1.4-1.5-2.1-2.2c-0.5-0.6-1-1.2-1.6-1.7c-0.3-0.3-0.5-0.5-0.9-0.7s-0.9-0.2-1.2,0.2
				C28.7,19.9,28.8,20.3,29,20.4L29,20.4z"/>
		</g>
	</g>
	<g>
		<g>
			<path class="st0" d="M22.1,35.9c1.4-0.4,1.8-1.7,2.7-2.7c1.3-1.4,2.6-2.6,4-3.8c1.3-1.1,2.6-2.3,3.7-3.7c1.1-1.3,2.1-2.7,3.6-3.6
				c0.9-0.6,0-2-0.8-1.4c-1.4,0.9-2.4,2.2-3.5,3.4c-1.1,1.3-2.3,2.6-3.6,3.7c-1.3,1.1-2.6,2.3-3.8,3.6c-0.5,0.6-1.1,1.1-1.5,1.8
				c-0.3,0.5-0.6,1.2-1.2,1.5C20.9,35.1,21.4,36.2,22.1,35.9L22.1,35.9z"/>
		</g>
	</g>
	<g>
		<g>
			<path class="st0" d="M24.9,40.2c1.4-0.6,2.6-1.9,3.6-3c1.1-1.1,2.2-2.2,3.2-3.4c0.9-1.1,1.6-2.3,2.5-3.3c0.7-0.8,1.6-1.7,2.6-2.2
				s0.1-1.8-0.8-1.4c-1,0.4-1.9,1.4-2.7,2.2c-1,1-1.7,2.2-2.5,3.3c-0.9,1.3-2.1,2.4-3.2,3.5c-0.5,0.6-1.1,1.1-1.6,1.6
				c-0.6,0.6-1.2,1-1.7,1.7C23.9,39.7,24.4,40.4,24.9,40.2L24.9,40.2z"/>
		</g>
	</g>
	<g>
		<g>
			<path class="st0" d="M28.9,43.4c1.1-0.3,1.9-1.1,2.7-2s1.6-1.7,2.4-2.5c0.8-0.8,1.8-1.5,2.5-2.5c0.4-0.5,0.8-1.5,1.4-1.7
				c1-0.2,0.6-1.8-0.4-1.5c-0.9,0.2-1.5,1.1-2,1.8c-0.2,0.3-0.4,0.7-0.6,0.9c-0.5,0.5-1,0.9-1.5,1.4c-0.9,0.8-1.8,1.6-2.6,2.6
				c-0.7,0.8-1.4,1.6-2.3,2.2C27.8,42.6,28.1,43.6,28.9,43.4L28.9,43.4z"/>
		</g>
	</g>
	<g>
		<g>
			<path class="st0" d="M34.6,44c0.8-0.2,1.4-0.8,1.9-1.4s0.9-1.3,1.5-1.9c0.7-0.7,1.3-1.4,2-2.2c0.3-0.3,0.6-0.7,0.9-1
				c0.4-0.4,0.8-0.7,1-1.2c0.1-0.3-0.1-0.6-0.3-0.8c-0.3-0.2-0.5-0.2-0.8-0.1c-0.4,0.2-0.7,0.6-1,0.9c-0.3,0.3-0.6,0.7-0.9,1
				c-0.6,0.7-1.2,1.4-1.9,2.1c-0.5,0.6-1,1.2-1.5,1.9c-0.4,0.5-0.8,1.1-1.4,1.5C33.6,43.2,33.9,44.1,34.6,44L34.6,44z"/>
		</g>
	</g>
	<g>
		<g>
			<path class="st0" d="M20.5,30.1c1.1,0.2,1.9-0.7,2.5-1.5c0.7-0.9,1.5-1.7,2.2-2.6c0.7-0.8,1.4-1.6,2.1-2.4c0.3-0.4,0.7-0.8,1-1.1
				c0.4-0.4,0.9-0.7,1-1.3c0.2-0.6-0.4-1-0.9-0.9s-0.8,0.6-1.1,0.9s-0.7,0.7-1,1.1c-0.7,0.8-1.3,1.5-2,2.3s-1.4,1.5-2,2.3
				c-0.5,0.6-1,1.6-1.8,1.8C19.9,29,19.8,30,20.5,30.1L20.5,30.1z"/>
		</g>
	</g>
	<g>
		<g>
			<path class="st0" d="M46.5,50.2c0.8-0.4,1.4-1,1.9-1.7c0.3-0.3,0.6-0.6,0.9-0.9c0,0,0.5-0.4,0.4-0.4c0.2,0,0.6,0.5,0.7,0.6
				c0.7,0.7,1.4,1.5,2.1,2.2c0.8,0.8,1.7,1.5,2.4,2.3c0.7,0.7,1.4,1.6,2.1,2.3c0.8,0.8,1.6,1.5,2.4,2.2c0.7,0.7,1.3,1.4,2,2.1
				c0.2,0.2,0.3,0.3,0.5,0.5c0.1,0.1,0.3,0.3,0.4,0.4s0.1,0.1,0.2,0.2c0.1,0.2,0.2,0,0.1-0.4c-0.1,0-0.7,0.4-0.8,0.5
				c-0.4,0.3-0.7,0.6-1,0.9c-0.3,0.4-0.7,0.7-1,1.1c-0.1,0.1-0.4,0.4-0.4,0.6c-0.1,0.3,0.3-0.1,0.3-0.1c0-0.1-0.4-0.4-0.5-0.5
				c-0.3-0.3-0.6-0.7-0.9-1c-1.7-1.9-3.4-3.7-5.1-5.6c-0.7-0.8-1.4-1.6-2.2-2.3c-1.4-1.3-3.1-2.2-4.2-3.7c-0.7-0.9-2.2,0-1.5,0.9
				c1.2,1.6,2.9,2.7,4.4,4c0.8,0.7,1.5,1.5,2.3,2.3c1.9,2.1,3.8,4.2,5.7,6.3c0.6,0.7,1.5,1.8,2.5,1.3c0.7-0.3,1.2-1.3,1.7-1.8
				c0.4-0.4,0.7-0.8,1.2-1.1c0.4-0.3,0.8-0.5,1.1-0.9c0.4-0.6,0-1.3-0.4-1.8c-0.6-0.7-1.3-1.3-1.9-2c-0.8-0.8-1.6-1.6-2.5-2.3
				c-1-0.9-1.9-1.9-2.8-2.9s-1.9-1.8-2.9-2.7s-1.8-2.1-2.9-2.9c-2-1.4-3.6,2.1-5,2.9C44.9,49.4,45.7,50.7,46.5,50.2L46.5,50.2z"/>
		</g>
	</g>
</g>
</svg>
