<?xml version="1.0" encoding="utf-8"?>
<!-- Generator: Adobe Illustrator 24.3.0, SVG Export Plug-In . SVG Version: 6.00 Build 0)  -->
<svg version="1.1" id="Calque_1" xmlns="http://www.w3.org/2000/svg" xmlns:xlink="http://www.w3.org/1999/xlink" x="0px" y="0px"
	 viewBox="0 0 80 80" style="enable-background:new 0 0 80 80;" xml:space="preserve">
<style type="text/css">
	.st0{fill:#91D902;}
</style>
<g>
	<g>
		<g>
			<path class="st0" d="M41.3,16c-0.8-0.5-2-0.5-3-0.4s-1.9,0.6-2.6,1.4c-1.4,1.6-1.8,4.1-0.7,6c1,1.8,3.2,2.5,5.1,2.3
				c2-0.2,3.6-1.6,4.2-3.5c0.4-1.2,0.2-2.4-0.5-3.5c-0.4-0.6-0.8-1.1-1.2-1.7c-0.2-0.3-0.5-0.5-0.8-0.6s-0.6-0.2-0.8-0.3
				c-1-0.6-1.9,1-0.9,1.5c0.3,0.2,0.7,0.2,1,0.4c0.4,0.3,0.6,0.8,0.9,1.2c0.4,0.6,0.9,1.2,0.8,2c-0.2,1.4-1.1,2.4-2.3,2.7
				s-2.8,0-3.6-1c-0.9-1.1-0.9-2.9-0.1-4c0.5-0.7,1-1.1,1.8-1.3s1.6,0,2.5,0C41.7,17.4,41.9,16.4,41.3,16L41.3,16z"/>
		</g>
	</g>
	<g>
		<g>
			<path class="st0" d="M34.7,21c-0.7,0.5-1.3,1.1-1.9,1.6c-0.6,0.5-1.3,1-2,1.5s-1.2,1.1-1.8,1.7c-0.6,0.5-1.2,1-1.8,1.5
				c-0.5,0.4-1.1,0.9-1.3,1.4c-0.2,0.7,0.2,1.3,0.5,1.9c0.8,1.5,1.9,3,2.9,4.4c0.6,0.9,2.1,0,1.5-0.9c-0.9-1.3-1.8-2.6-2.6-3.9
				c-0.2-0.3-0.4-0.6-0.5-0.9c-0.1-0.1-0.1-0.5-0.2-0.2c0,0.2,0.1,0,0.2-0.1c0.5-0.5,1-0.9,1.5-1.3c1.1-0.9,2.1-1.9,3.2-2.8
				c1.2-0.9,2.3-1.8,3.3-2.9C36.1,21.6,35.4,20.5,34.7,21L34.7,21z"/>
		</g>
	</g>
	<g>
		<g>
			<path class="st0" d="M36.9,23.4c-0.7,0.2-1.3,0.7-1.9,1.1c-0.6,0.4-1.1,0.9-1.7,1.3c-1.1,0.9-2.2,1.8-3.2,2.9
				c-0.4,0.4-0.6,0.9-0.4,1.5c0.2,0.6,0.5,1.1,0.7,1.6c0.2,0.6,0.5,1.2,0.8,1.8c0.2,0.5,0.4,1,0.7,1.4c0.8,0.8,2-0.4,1.2-1.2
				c-0.2-0.2-0.3-0.7-0.5-1c-0.2-0.5-0.5-0.9-0.6-1.4c-0.2-0.5-0.5-1-0.7-1.6l-0.1-0.2c0,0.1,0,0.3-0.1,0.4l0.1-0.1
				c0.2-0.1,0.5-0.5,0.7-0.7c0.8-0.8,1.7-1.6,2.7-2.3c0.5-0.4,1-0.7,1.4-1.1c0.5-0.4,1.1-0.7,1.5-1.2C37.9,24.1,37.6,23.3,36.9,23.4
				L36.9,23.4z"/>
		</g>
	</g>
	<g>
		<g>
			<path class="st0" d="M42.9,22.3c0.3,0.9,1,1.5,1.7,2.2c1,0.9,2,1.7,3,2.6c1.9,1.7,4,3.2,5.9,4.9c1.8,1.7,3.7,3.3,5.6,4.9
				c0.8,0.7,1.7,1.5,2.5,2.3c0.6,0.7,1.3,1.3,2.1,1.7c1,0.4,1.5-1.2,0.5-1.6c-0.8-0.3-1.3-1.2-1.9-1.8c-0.8-0.7-1.5-1.4-2.3-2.1
				c-1.8-1.5-3.6-3.1-5.3-4.7c-1.7-1.5-3.6-2.9-5.3-4.4c-0.9-0.7-1.7-1.5-2.6-2.2c-0.8-0.7-1.8-1.4-2.3-2.3
				C43.8,21,42.6,21.5,42.9,22.3L42.9,22.3z"/>
		</g>
	</g>
	<g>
		<g>
			<path class="st0" d="M41,62.6c-0.7,0-1.4,0.1-2.1,0c-0.8-0.1-1.3-0.3-1.8-0.9c-1-1.1-1.2-2.8-0.5-4.1c0.7-1.2,2.2-1.5,3.5-1.4
				s2.3,1,2.6,2.3c0.2,0.9,0.1,1.5-0.4,2.2c-0.3,0.4-0.6,0.9-0.9,1.3c-0.3,0.4-0.8,0.4-1.2,0.6c-1,0.6-0.1,2.1,0.9,1.5
				c0.5-0.3,1-0.3,1.4-0.7c0.4-0.4,0.8-1,1.1-1.5c0.7-0.9,1.1-1.9,0.9-3.1c-0.3-2-1.6-3.6-3.5-4.2c-1.8-0.5-4.2,0-5.4,1.5
				c-1.3,1.6-1.5,4.2-0.3,6c0.7,1,1.6,1.8,2.8,2.1c1,0.2,2.4,0.3,3.3-0.3C41.9,63.5,41.7,62.6,41,62.6L41,62.6z"/>
		</g>
	</g>
	<g>
		<g>
			<path class="st0" d="M35.6,57.8c-1-1.1-2.1-2-3.3-2.9c-1.1-0.8-2.1-1.9-3.2-2.8c-0.5-0.4-1-0.9-1.5-1.3l-0.3-0.3
				c0,0.1,0,0.2,0.1,0.3c0-0.1,0.1-0.2,0.1-0.2c0.2-0.3,0.3-0.6,0.5-0.8c0.7-1.2,1.6-2.4,2.5-3.6c0.6-0.9-0.8-1.7-1.5-0.9
				c-0.9,1.3-1.9,2.6-2.7,3.9c-0.3,0.6-0.7,1.2-0.5,1.9c0.2,0.6,0.9,1.1,1.4,1.5c0.6,0.5,1.3,1,1.8,1.5c0.6,0.5,1.1,1.1,1.7,1.6
				c0.6,0.5,1.3,0.9,1.9,1.5c0.7,0.6,1.3,1.2,2,1.7C35.4,59.4,36.1,58.4,35.6,57.8L35.6,57.8z"/>
		</g>
	</g>
	<g>
		<g>
			<path class="st0" d="M37.6,55.5c-0.3-0.5-0.9-0.8-1.3-1.2c-0.5-0.4-1-0.7-1.5-1.1c-0.9-0.7-1.8-1.5-2.7-2.3
				c-0.2-0.2-0.4-0.4-0.6-0.6c-0.1-0.1-0.2-0.2-0.3-0.3s-0.1-0.1,0,0.1c0,0.1,0,0.1,0,0.2c0,0,0.5-1,0.6-1.2c0.3-0.8,0.6-1.6,1-2.4
				c0.5-1-1-1.8-1.5-0.9c-0.4,0.9-0.7,1.8-1.1,2.7c-0.2,0.5-0.6,1-0.7,1.6c0,0.6,0.4,1,0.8,1.4c1,0.9,1.9,1.8,3,2.6
				c0.5,0.4,1.1,0.9,1.7,1.3c0.5,0.4,1.2,0.9,1.8,1C37.4,56.6,38,56,37.6,55.5L37.6,55.5z"/>
		</g>
	</g>
	<g>
		<g>
			<path class="st0" d="M44.2,58.2c0.5-0.9,1.4-1.5,2.2-2.2c0.8-0.7,1.7-1.5,2.6-2.2c1.8-1.6,3.7-3,5.5-4.6c1.7-1.5,3.4-3.1,5.2-4.5
				c0.8-0.7,1.6-1.4,2.4-2.1c0.6-0.6,1.2-1.5,2-1.8c1-0.4,0.6-2-0.5-1.6c-0.8,0.3-1.4,0.9-2,1.6c-0.8,0.8-1.6,1.5-2.5,2.3
				c-1.9,1.7-3.8,3.3-5.7,5c-1.9,1.7-3.9,3.2-5.8,4.8c-1,0.9-2,1.7-3,2.6c-0.8,0.7-1.5,1.3-1.8,2.3C42.6,58.5,43.8,59,44.2,58.2
				L44.2,58.2z"/>
		</g>
	</g>
	<g>
		<g>
			<path class="st0" d="M30,35.4c1,0,2.1,0.1,3.1,0.1c0.3,0,0.6,0,1,0c0.2,0,0.7,0.1,0.8,0c-0.3-0.4-0.4-0.5-0.3-0.3
				c0-0.1,0,0,0,0.1s0,0.3,0,0.4c0,0.3-0.1,0.6-0.1,0.9c-0.1,0.9,0.1,1.9,0.1,2.8c0,1,0,2.1,0,3.1c0,0.5,0,1,0,1.6
				c0,0.2,0,0.5,0,0.7s-0.1,0.5,0,0.7c0,0.2,0.1,0.1,0.3-0.2h-0.1c-0.2,0-0.5,0-0.6,0.1c-0.5,0-1,0.1-1.4,0.1c-1,0-2,0-3-0.1
				c0.3,0.3,0.6,0.6,0.9,0.9c-0.1-2.2-0.1-4.4,0-6.5c0-0.9,0.1-1.9,0.1-2.8c0-0.3,0-0.6,0-0.9c0-0.2,0-0.3,0-0.5s0.2-0.3,0,0
				c0.7-0.8-0.5-2.1-1.2-1.2c-0.5,0.6-0.5,1.4-0.5,2.1c0,0.9,0,1.8-0.1,2.7c-0.1,2.4-0.2,4.8-0.1,7.2c0,0.5,0.4,0.8,0.9,0.9
				c1.7,0.2,3.5,0.1,5.3-0.2c0.8-0.1,1.1-0.6,1.2-1.4c0.1-0.9,0-2,0-2.9c0-1,0.1-1.9,0-2.9c0-1-0.1-2-0.2-3c0-1,0.5-2.6-0.8-3
				c-0.6-0.2-1.3-0.1-1.9-0.1c-1.2,0-2.3,0-3.5,0.1C29,33.9,29,35.3,30,35.4L30,35.4z"/>
		</g>
	</g>
	<g>
		<g>
			<path class="st0" d="M33.6,38.4c0.2-0.2,0.2-0.5,0.3-0.7c0-0.1,0-0.2,0-0.3c0-0.2,0-0.4,0-0.5c-0.3,0.3-0.7,0.5-1,0.8l0,0
				c-0.1,0-0.1-0.1-0.2-0.1l0,0c-0.1-0.1-0.2-0.2-0.3-0.3c0.1,0.2,0.1,0.2,0.3,0.3c-0.1,0-0.1-0.1-0.2-0.1l0,0
				c0-0.1-0.1-0.1-0.1-0.2l0,0c0.1,0.2,0.3,0.3,0.5,0.4c0.2,0,0.5,0,0.6-0.1s0.2-0.2,0.3-0.3c0.1-0.2,0.2-0.6,0-0.8
				c-0.1-0.2-0.3-0.4-0.5-0.4c-0.1,0-0.3,0-0.4,0c-0.1,0-0.2,0.1-0.3,0.1c-0.1,0.1-0.2,0.1-0.2,0.2c-0.1,0.1-0.1,0.3-0.1,0.4
				c0,0.2,0,0.4,0,0.5s0,0.2,0,0.3c0,0.3,0,0.5,0.3,0.7c0.1,0.1,0.3,0.2,0.5,0.2C33.3,38.6,33.5,38.6,33.6,38.4L33.6,38.4z"/>
		</g>
	</g>
	<g>
		<g>
			<path class="st0" d="M32.5,42.6L32.5,42.6c0.1-0.1,0.2-0.1,0.3-0.2l0,0c0.1,0,0.1,0,0.2,0l0,0c0.1,0,0.1,0,0.2,0l0,0
				c0.2,0.3,0.3,0.6,0.5,0.9v-0.1v-0.1l0,0c0,0,0,0,0-0.1s0-0.1,0-0.2c0-0.1,0-0.2,0-0.3c0,0.1,0,0.1,0,0.2c0-0.1,0-0.1,0-0.2
				c0-0.1,0.1-0.2,0.1-0.4c0-0.1,0-0.1,0-0.2c0-0.1-0.1-0.1-0.1-0.2c0-0.1-0.1-0.1-0.1-0.2c-0.1-0.1-0.2-0.1-0.3-0.2
				c-0.1,0-0.1-0.1-0.2-0.1c-0.1,0-0.1,0-0.2,0c-0.1,0-0.1,0-0.2,0.1c-0.1,0-0.2,0.1-0.3,0.2l-0.1,0.1c-0.1,0.1-0.1,0.1-0.1,0.2v0.1
				c0,0,0,0,0,0.1s0,0.2,0,0.3s0,0.2,0,0.3c0,0.2,0,0.3,0.1,0.5v0.1c0,0,0,0,0,0.1s0.1,0.2,0.1,0.2c0.1,0.1,0.2,0.2,0.3,0.3
				s0.2,0.1,0.3,0.1s0.2,0,0.3,0s0.2-0.1,0.3-0.2c0,0,0.1-0.1,0.1-0.2v-0.1c0-0.1,0-0.1,0-0.2v-0.1v-0.2c-0.1-0.2-0.3-0.4-0.5-0.5
				c-0.1,0-0.3,0-0.4,0C32.7,42.4,32.6,42.5,32.5,42.6L32.5,42.6z"/>
		</g>
	</g>
	<g>
		<g>
			<path class="st0" d="M22.3,40.7c-0.2,0.2,0.6,0.1,0.8,0.1c0.4,0,0.8,0,1.2,0c1.5,0.1,2.9,0.1,4.5,0s3.1-0.2,4.7-0.2
				c1.5,0,2.9,0.1,4.4,0s3-0.2,4.5,0c1.4,0.2,2.8,0.3,4.2,0.2c1.5-0.1,3-0.1,4.5-0.1c1.5,0.1,3.1,0,4.6,0.4c0-0.5,0-1,0-1.5
				c-0.1,0-0.1,0-0.2,0c-1,0.2-0.6,1.8,0.4,1.5c0.1,0,0.1,0,0.2,0c0.8-0.2,0.8-1.3,0-1.5c-1.4-0.3-2.9-0.3-4.3-0.4
				c-1.7-0.1-3.3-0.1-5,0c-1.6,0.1-3.1,0-4.7-0.2c-1.7-0.2-3.3,0-5,0.1c-1.6,0.1-3.1-0.1-4.7,0c-1.7,0.1-3.4,0.2-5.1,0.3
				c-1.4,0.1-2.7-0.1-4-0.1c-0.6,0-1.6-0.1-2.1,0.5C20.7,40.4,21.6,41.4,22.3,40.7L22.3,40.7z"/>
		</g>
	</g>
	<g>
		<g>
			<path class="st0" d="M60.8,37c-0.5-0.3-1.2-0.3-1.8-0.3c-0.5,0-1-0.1-1.5,0.1c-0.9,0.2-1.6,0.9-2.1,1.7s-0.7,2-0.4,2.9
				c0.3,0.9,1,1.4,1.8,1.8c0.5,0.2,1,0.4,1.6,0.5s1.2,0.2,1.7,0.2c0.4,0.1,1-0.1,1.1-0.6c0.1-0.4-0.1-1-0.6-1.1
				c-0.9-0.1-1.7-0.2-2.6-0.5c-0.1-0.1-0.3-0.1-0.4-0.2h-0.1c0,0,0.1,0.1,0,0c-0.1,0-0.2-0.1-0.2-0.1c-0.1-0.1-0.3-0.1-0.4-0.2
				c0.1,0.1,0,0,0-0.1c0,0,0-0.1-0.1-0.1c-0.1-0.1,0.1,0.1,0,0c0,0-0.1-0.2-0.1-0.1c0,0.1,0-0.1,0-0.2v-0.2c0,0.1,0-0.1,0-0.1
				c0-0.1,0-0.1,0-0.2c0-0.1,0-0.2,0-0.3v-0.1c0,0,0,0.1,0,0s0-0.2,0.1-0.3v-0.1c0,0,0-0.1,0,0c0.1-0.2,0.2-0.3,0.3-0.4
				c-0.1,0.1,0.1-0.1,0.1-0.1c0.1-0.1,0.1-0.1,0.2-0.2l0.1-0.1c0,0,0.1-0.1,0,0s0,0,0,0s0.1,0,0.1-0.1c0.1,0,0.1-0.1,0.2-0.1
				c0,0,0.1,0,0.1-0.1c-0.1,0,0,0,0,0c0.1,0,0.2-0.1,0.3-0.1h0.1c-0.1,0,0,0,0.1,0c0.2,0,0.5,0,0.7,0c0.5,0,1.1,0.1,1.7,0
				C61.3,38.1,61.4,37.3,60.8,37L60.8,37z"/>
		</g>
	</g>
	<g>
		<g>
			<path class="st0" d="M20.9,36.9c-0.4,0.4-0.3,1.1-0.3,1.6s0,1,0,1.5s0,1,0,1.5c0,0.2,0,0.5,0,0.7c0-0.2-0.1,0.5,0,0.3
				c0,0.1,0,0.2,0,0.3c0,0.3,0.2,0.6,0.4,0.7l0.2,0.1c0.5,0.1,0.8-0.1,1-0.6c0-0.1,0-0.2,0-0.3s0-0.2-0.1-0.3c-0.2-0.2-0.2-0.2,0,0
				c0,0.3-0.1,0.7-0.1,1l0,0c-0.1,0.1-0.2,0.1-0.4,0.2l0,0c0.3-0.1,0.6-0.3,0.6-0.6c0-0.5,0-0.9,0-1.4s0-1,0-1.5s-0.1-1-0.1-1.5
				s0-1.3-0.4-1.7C21.5,36.6,21.1,36.6,20.9,36.9L20.9,36.9z"/>
		</g>
	</g>
	<g>
		<g>
			<path class="st0" d="M21.4,36.8c-0.5-0.2-1.1,0.3-1.6,0.5c-0.2,0.1-0.4,0.2-0.7,0.3c-0.1,0.1-0.2,0.1-0.3,0.1s-0.1,0-0.2,0.1
				c0.1,0,0,0,0,0c-1,0.4-1.9,0.7-2.9,1.2c-0.2,0.1-0.4,0.4-0.4,0.6c0,0.3,0.1,0.5,0.2,0.7c0.8,1,2.2,1.3,3.3,2
				c0.4,0.3,0.9,0.6,1.3,0.9c0.3,0.2,0.6,0.5,1,0.6s1-0.1,1.1-0.6c0.1-0.4-0.1-1-0.6-1.1c0.2,0.1,0.2,0.1,0.1,0
				c-0.1,0-0.1-0.1-0.2-0.1c-0.2-0.1-0.4-0.2-0.5-0.4c-0.4-0.3-0.8-0.6-1.2-0.8c-0.4-0.3-0.8-0.5-1.3-0.7c-0.3-0.1-0.6-0.3-0.9-0.5
				c-0.1,0-0.1-0.1-0.2-0.1c0,0-0.2-0.2-0.1,0c-0.1,0-0.1-0.1-0.2-0.1c0,0-0.2-0.3-0.1-0.1c-0.1,0.4-0.2,0.8-0.3,1.2
				c0.1,0,0.2-0.1,0.3-0.1c-0.1,0,0,0,0,0c0.1,0,0.1,0,0.2-0.1c0.2-0.1,0.5-0.2,0.7-0.3c0.5-0.2,1-0.4,1.5-0.6
				c0.5-0.2,0.9-0.4,1.4-0.7s1.2-0.8,1.2-1.4C21.9,37.1,21.7,36.8,21.4,36.8L21.4,36.8z"/>
		</g>
	</g>
</g>
</svg>
