<?xml version="1.0" encoding="utf-8"?>
<!-- Generator: Adobe Illustrator 24.3.0, SVG Export Plug-In . SVG Version: 6.00 Build 0)  -->
<svg version="1.1" id="Calque_1" xmlns="http://www.w3.org/2000/svg" xmlns:xlink="http://www.w3.org/1999/xlink" x="0px" y="0px"
	 viewBox="0 0 80 80" style="enable-background:new 0 0 80 80;" xml:space="preserve">
<style type="text/css">
	.st0{fill:#91D902;}
</style>
<g>
	<g>
		<g>
			<path class="st0" d="M38.5,34.2c-2.1-1.1-3.7,2-4.3,3.6c-0.7,2.2-0.1,4.9,1.7,6.4c2.1,1.8,5.4,1.9,7.8,0.7
				c1.3-0.7,2.4-1.8,2.8-3.2s0.1-2.8-0.5-4.1c-1.3-2.9-4.4-5.1-7.7-4.1c-1.1,0.3-0.6,2,0.5,1.7c2.1-0.7,4.2,0.5,5.2,2.3
				c0.5,0.9,0.9,1.9,0.9,2.9s-0.5,1.9-1.4,2.5c-1.6,1.2-4.1,1.4-5.9,0.4c-0.8-0.4-1.3-1.1-1.7-1.9c-0.2-0.4-0.3-0.8-0.3-1.2
				c0-0.2,0-0.5,0-0.7c0-0.1,0-0.3,0-0.4V39c0,0.1,0,0.1,0,0c0.2-0.8,0.5-1.6,1-2.3c0.2-0.3,0.5-0.7,0.8-0.9
				c0.2-0.2,0.4-0.2,0.6-0.2C38.7,35.8,39.3,34.6,38.5,34.2L38.5,34.2z"/>
		</g>
	</g>
	<g>
		<g>
			<path class="st0" d="M39.3,21.4c-0.2,0.7-0.1,1.5-0.1,2.2c0,0.8,0,1.5,0,2.3c0,1.5,0,3,0,4.5c0,1.1,1.7,1.1,1.7,0
				c0-1.5,0-3-0.1-4.5c0-0.7,0-1.5-0.1-2.2c0-0.8,0-1.6-0.2-2.3C40.4,20.8,39.4,20.8,39.3,21.4L39.3,21.4z"/>
		</g>
	</g>
	<g>
		<g>
			<path class="st0" d="M39.6,48c-0.5,0.6-0.5,1.4-0.5,2.2c0,0.8,0.2,1.6,0.2,2.4c0.1,1.9-0.1,3.7-0.2,5.6c-0.1,1.1,1.6,1.1,1.7,0
				c0.1-1.8,0.3-3.6,0.2-5.4c0-0.8-0.2-1.5-0.2-2.3c-0.1-0.7,0.1-1.5-0.1-2.2C40.5,47.8,39.9,47.8,39.6,48L39.6,48z"/>
		</g>
	</g>
	<g>
		<g>
			<path class="st0" d="M31.6,39.1c-0.6-0.4-1.6-0.3-2.3-0.2c-0.8,0-1.6,0.1-2.4,0.1c-1.6,0.1-3.2,0.1-4.8,0.1
				c-0.7,0-1.1,0.8-0.7,1.3c0,0,0,0,0,0.1c0.2,0.3,0.6,0.5,1,0.4c0.2-0.1,0.3-0.1,0.4-0.3c-0.1,0.1-0.2,0.1-0.4,0.2c0,0,0,0,0.1,0
				c0.6-0.2,0.7-0.8,0.3-1.3c0-0.1-0.6-0.4-0.3-0.2c0.1,0.2,0.3,0.3,0.4,0.5c0,0,0,0,0-0.1c-0.3,0.4-0.6,0.7-0.8,1.1
				c1.6,0.1,3.2,0,4.8-0.1c0.8,0,1.6-0.1,2.3-0.1c0.4,0,0.8,0,1.2-0.1c0.4,0,0.9,0,1.2-0.3C32,40,32,39.5,31.6,39.1L31.6,39.1z"/>
		</g>
	</g>
	<g>
		<g>
			<path class="st0" d="M48.9,40.5c0.8,0.4,1.7,0.4,2.6,0.4c0.8,0,1.6-0.1,2.5-0.1c0.7,0,1.4-0.1,2.1-0.2c0.4,0,0.8-0.1,1.1,0
				c0.1,0,0.2,0,0.3,0.1c0,0,0.1,0,0.2,0.1c0.1,0,0.1,0,0.2,0.1c0.6,0.2,1.2-0.6,0.8-1.1C58.3,39,57.3,39,56.6,39
				c-0.8,0-1.5,0.1-2.3,0.2c-0.8,0.1-1.5,0.1-2.3,0.1c-0.8,0.1-1.7,0.1-2.6-0.1C48.7,39,48.1,40.1,48.9,40.5L48.9,40.5z"/>
		</g>
	</g>
	<g>
		<g>
			<path class="st0" d="M35,26.2c-2.6,0.5-5.2,2.4-6.7,4.5c-1.9,2.5-2.9,5.6-2.9,8.8c0,5.8,3.4,11.2,8.8,13.5
				c6.2,2.6,13.3,0.8,17.7-4.3c2.2-2.5,2.6-5.7,3.1-8.9c0.4-3-0.3-6.3-2-8.8c-0.9-1.5-2.4-2.4-3.8-3.4c-1.5-1.1-3-2.1-4.9-2.4
				c-1-0.2-2-0.1-3-0.2c-1.1-0.1-2.1-0.3-3.2-0.2c-1.3,0.1-3.2,0.4-3.8,1.7c-0.5,1,1,1.8,1.5,0.9c0.5-1.1,2.9-0.9,3.9-0.9
				c1.5,0.1,3.2,0.1,4.7,0.5c1.5,0.3,2.7,1.1,3.9,2c1,0.8,2.1,1.4,3,2.4c1.8,2.1,2.5,5.4,2.2,8s-0.6,5.5-2.2,7.7s-4.1,3.8-6.7,4.8
				c-2.8,1.1-5.7,0.9-8.5,0.1c-4.8-1.5-8.3-5.8-8.8-10.8c-0.9-5.9,2.3-11.9,8.1-13.6C36.3,27.3,35.9,26,35,26.2L35,26.2z"/>
		</g>
	</g>
</g>
</svg>
