<?xml version="1.0" encoding="utf-8"?>
<!-- Generator: Adobe Illustrator 24.3.0, SVG Export Plug-In . SVG Version: 6.00 Build 0)  -->
<svg version="1.1" id="Calque_1" xmlns="http://www.w3.org/2000/svg" xmlns:xlink="http://www.w3.org/1999/xlink" x="0px" y="0px"
	 viewBox="0 0 80 80" style="enable-background:new 0 0 80 80;" xml:space="preserve">
<style type="text/css">
	.st0{fill:#91D902;}
</style>
<g>
	<g>
		<g>
			<path class="st0" d="M15.8,22.1c1.8-0.8,3.9-0.8,5.8-1.3c2.4-0.6,4.7-1.2,7.1-1.7c4.3-0.9,8.9-1,13.1-2.7
				c0.9-0.4,0.5-1.9-0.4-1.5c-4.4,1.6-9,1.8-13.5,2.8c-2.4,0.5-4.7,1.1-7.1,1.7c-1.8,0.4-4,0.4-5.6,1.4
				C14.2,21.4,14.9,22.5,15.8,22.1L15.8,22.1z"/>
		</g>
	</g>
	<g>
		<g>
			<path class="st0" d="M14.6,21.9c0.5,3.6,1.7,7.2,2.6,10.7c0.8,3.1,1.7,6,3.7,8.5c1.9,2.4,4.4,4.4,7.2,5.8c1.4,0.7,3,1.4,4.6,1.7
				c0.5,0.1,1,0.2,1.6,0.3c0.3,0.1,1.4,0.2,1.5,0.4c0.6,0.9,2.1,0.1,1.5-0.9c-0.5-0.8-1.7-1-2.5-1.1c-1.2-0.2-2.4-0.5-3.6-0.9
				c-3.1-1.1-6-3-8.2-5.4c-2.3-2.5-3.3-5.4-4.1-8.5c-0.9-3.6-1.7-7.2-2.8-10.7C15.7,21,14.5,21.1,14.6,21.9L14.6,21.9z"/>
		</g>
	</g>
	<g>
		<g>
			<path class="st0" d="M41.1,15.9c0.1,2.9,1,5.8,1.6,8.6c0.6,3,0.7,6,0.5,9C43,36.4,42.3,39.3,41,42c-1.1,2.3-2.6,4.6-4.7,6.1
				c-0.9,0.6-0.1,2.1,0.9,1.5c2.2-1.4,3.8-3.8,5-6c1.4-2.6,2.3-5.4,2.6-8.4c0.4-3.2,0.4-6.5-0.1-9.7c-0.5-3.3-1.5-6.4-2-9.7
				C42.3,14.9,41.1,15.1,41.1,15.9L41.1,15.9z"/>
		</g>
	</g>
	<g>
		<g>
			<path class="st0" d="M22.3,30.4C22.3,30.5,22.3,30.3,22.3,30.4c0-0.1,0.1-0.4,0.1-0.3c0-0.1,0.1-0.3,0.1-0.4c0,0,0.1-0.2,0-0.1
				c0-0.1,0.1-0.1,0.1-0.2c0.1-0.1,0.2-0.3,0.2-0.4c0.1-0.2,0.3-0.4,0.5-0.5c0,0,0.2-0.2,0.1-0.1c0.1,0,0.1-0.1,0.2-0.1l0.1-0.1
				c0,0,0.2-0.1,0.1-0.1c-0.1,0,0.1,0,0.1,0c0.1,0,0.2,0,0.3-0.1c-0.1,0,0.1,0,0.1,0c0.1,0,0.1,0,0.2,0c0.1,0,0.1,0,0,0h0.1
				c0.1,0,0.1,0,0.2,0c0.1,0,0.1,0,0.2,0.1c-0.1-0.1,0.1,0,0.1,0c0.6,0.3,0.9,0.6,1.5,1c0.3,0.3,0.9,0.1,1.1-0.3
				c0.2-0.4,0.1-0.9-0.3-1.1c-0.6-0.4-1.2-0.9-1.9-1.2c-0.8-0.3-1.6-0.3-2.4,0.1c-0.7,0.3-1.2,0.9-1.6,1.5c-0.4,0.6-0.7,1.4-0.5,2.2
				c0.1,0.3,0.4,0.5,0.7,0.5C22.1,31,22.3,30.7,22.3,30.4L22.3,30.4z"/>
		</g>
	</g>
	<g>
		<g>
			<path class="st0" d="M34.2,27.7C34.1,28.2,34.2,27.8,34.2,27.7c0.1-0.1,0.1-0.2,0.1-0.3s0.1-0.3,0.1-0.4v-0.1c0,0.1,0,0.1,0,0
				s0.1-0.2,0.1-0.2c0.1-0.1,0.1-0.3,0.2-0.4c0.1-0.1,0.2-0.3,0.3-0.4c0,0,0-0.1,0.1-0.1c0,0.1,0,0.1,0,0s0.1-0.1,0.1-0.2
				c0.1-0.1,0.2-0.2,0.3-0.3l0,0c0,0,0.1,0,0.1-0.1c0.1,0,0.1-0.1,0.2-0.1c0.1-0.1-0.1,0,0.1,0c0.1,0,0.2,0,0.2-0.1
				c-0.2,0,0.1,0,0.1,0h0.1c-0.1,0-0.1,0,0,0s0.1,0,0.2,0.1c0,0,0.2,0.1,0.1,0c0.2,0.1,0.3,0.2,0.4,0.3c0.1,0.1-0.1-0.1,0.1,0.1
				c0.1,0.1,0.1,0.1,0.2,0.2c0.1,0.1,0.3,0.3,0.4,0.4c0.3,0.3,0.5,0.7,0.9,0.8s1-0.2,1-0.7s-0.5-1-0.8-1.3s-0.6-0.6-1-0.8
				c-0.8-0.5-1.8-0.6-2.7-0.2c-0.7,0.3-1.3,1-1.7,1.7c-0.2,0.4-0.4,0.7-0.5,1.1c-0.1,0.2-0.1,0.3-0.1,0.5c0,0.1,0,0.3,0,0.4
				c0,0.1,0,0.2,0,0.3s0,0.1,0,0c0,0.4,0.3,0.7,0.7,0.7C33.9,28.4,34.1,28.1,34.2,27.7L34.2,27.7z"/>
		</g>
	</g>
	<g>
		<g>
			<path class="st0" d="M25.8,36.5c0.6,1.1,1.3,2.1,2.2,2.9c1,0.8,2.2,1.2,3.5,1.2c2.5,0.2,5.3-0.8,6.9-2.8c0.8-1,1.5-2.8,0.7-4
				c-0.4-0.6-1.5-0.4-1.4,0.4c0.1,0.6,0.2,1.1,0,1.7c-0.2,0.5-0.6,1-1,1.4c-1,0.8-2.2,1.4-3.5,1.6c-1.1,0.2-2.6,0.1-3.6-0.5
				c-1.1-0.6-1.8-1.7-2.5-2.7C26.5,35.1,25.3,35.7,25.8,36.5L25.8,36.5z"/>
		</g>
	</g>
	<g>
		<g>
			<path class="st0" d="M44.8,31.5c0.7,0.4,1.3,0.9,2.1,1.2c0.9,0.4,1.9,0.5,2.8,0.9c1.8,0.7,3.6,1.5,5.5,1.9c3,0.8,6.5,1.4,8.7,3.8
				c0.6,0.7,1.8-0.2,1.3-1c-2-2.8-6.2-3.5-9.3-4.3c-2.1-0.5-4-1.3-5.9-2c-1-0.4-2.2-0.5-3.1-1c-0.7-0.4-1.4-1-2.1-0.3
				C44.3,30.8,44.4,31.3,44.8,31.5L44.8,31.5z"/>
		</g>
	</g>
	<g>
		<g>
			<path class="st0" d="M34.3,48.3c-0.7,1.2-0.6,2.8-0.3,4.1c0.3,1.4,0.8,2.8,1.2,4.2c0.9,2.9,1.8,5.9,4,8.1
				c0.7,0.8,1.9-0.4,1.2-1.2c-2-1.9-2.7-4.7-3.5-7.3c-0.8-2.4-1.9-4.9-1.3-7.5C35.6,48.1,34.7,47.6,34.3,48.3L34.3,48.3z"/>
		</g>
	</g>
	<g>
		<g>
			<path class="st0" d="M40.5,65.2c1.7-0.7,3.5-1,5.3-1.5c1.9-0.5,3.7-1.3,5.5-2.1c3.2-1.6,5.5-3.7,7.4-6.7c1.9-2.9,3.1-6.1,4.5-9.3
				c0.6-1.3,1.2-2.6,1.6-4c0.3-0.7,0.6-2-0.4-2.3c-0.9-0.2-1.4,1-0.6,1.5c-0.8-0.5-0.1-0.7-0.4-0.2c-0.1,0.2-0.1,0.5-0.2,0.7
				c-0.2,0.5-0.4,0.9-0.5,1.4c-0.6,1.5-1.3,3-1.9,4.5c-1.1,2.7-2.3,5.4-4,7.8c-1.9,2.7-4.3,4.3-7.2,5.7c-1.6,0.7-3.3,1.3-5.1,1.7
				c-1.5,0.4-3.1,0.7-4.5,1.5C39.2,64.2,39.7,65.5,40.5,65.2L40.5,65.2z"/>
		</g>
	</g>
	<g>
		<g>
			<path class="st0" d="M43.8,38.5c0.1,0,0.1,0,0.2,0.1l0,0C44.1,38.6,44.1,38.6,43.8,38.5c0.1,0.2,0.3,0.2,0.4,0.3c0,0,0.2,0.1,0,0
				l0.1,0.1c0.1,0.1,0.1,0.1,0.2,0.2c0,0,0,0,0.1,0.1c-0.1-0.1-0.1-0.1-0.1-0.1l0.1,0.1c0.1,0.1,0.1,0.2,0.2,0.3
				c0,0.1,0,0.1,0.1,0.2c0.1,0.2-0.1-0.2,0,0c0,0.1,0.1,0.2,0.1,0.3s0.1,0.2,0.1,0.3v0.1c0,0.1,0,0.1,0,0c0,0.2,0,0.5,0,0.7
				c0,0.1,0,0.2,0,0.3c0,0.2,0-0.1,0,0v0.1c0,0.3-0.1,0.5-0.2,0.7c0,0.3,0.3,0.7,0.6,0.8c0.4,0.1,0.7-0.1,0.9-0.4
				c0.3-0.4,0.3-1.1,0.3-1.6c0-0.6-0.1-1.1-0.3-1.7c-0.2-0.6-0.5-1.1-0.9-1.5c-0.5-0.5-1-0.7-1.7-0.8c-0.4,0-0.7,0.3-0.7,0.6
				C43.2,38,43.5,38.4,43.8,38.5L43.8,38.5z"/>
		</g>
	</g>
	<g>
		<g>
			<path class="st0" d="M52.1,44.2c0.1-0.1,0.2-0.2,0.3-0.3l0.1-0.1c0.1-0.1-0.1,0.1,0,0l0.1-0.1c0.1-0.1,0.2-0.1,0.3-0.2
				c0.1,0,0.1-0.1,0.2-0.1s-0.1,0-0.1,0h0.1c0.1,0,0.2-0.1,0.3-0.1c0.1,0,0.1,0,0.2,0h0.1c0,0-0.2,0-0.1,0s0.2,0,0.4,0
				c0.1,0,0.3,0,0.4,0c0,0-0.2,0-0.1,0h0.1c0.1,0,0.1,0,0.2,0s0.2,0.1,0.4,0.1c0.2,0.1-0.1-0.1,0,0c0.1,0,0.1,0,0.2,0.1
				s0.2,0.1,0.3,0.2c0.2,0.1-0.1-0.1,0,0l0.1,0.1c0.1,0.1,0.2,0.2,0.3,0.3L55.8,44c0,0,0,0.1,0.1,0.1l0.1,0.1c0,0,0,0.1,0.1,0.1
				c0,0.1,0-0.1,0-0.1v0.1c0,0.1,0.1,0.3,0.1,0.4c0,0,0-0.2,0-0.1v0.1c0,0.1,0,0.1,0,0.2s0,0.1,0,0.2c0-0.2,0,0,0,0.1s0,0.2-0.1,0.3
				v0.1c0,0.2,0,0.3,0,0.2s0-0.1,0,0c-0.1,0.4,0.1,0.8,0.4,0.9s0.8,0,1-0.3c0.7-1.2,0.3-3-0.8-3.9c-1-0.9-2.4-1.1-3.7-0.7
				c-0.8,0.2-1.5,0.7-2,1.4c-0.2,0.3-0.1,0.7,0.2,0.9C51.4,44.5,51.8,44.5,52.1,44.2L52.1,44.2z"/>
		</g>
	</g>
	<g>
		<g>
			<path class="st0" d="M38.7,52.6c0.6-0.5,1.1-1.2,1.8-1.6s1.4-0.6,2.2-0.7c1.3-0.1,2.6,0.2,3.7,0.9c1.1,0.6,2.1,1.5,2.8,2.6
				c0.3,0.5,0.6,1,0.7,1.5c0.1,0.6-0.2,1-0.4,1.5c-0.4,0.8,0.6,1.5,1.2,0.9c0.9-0.8,1-2.3,0.7-3.4c-0.4-1.2-1.3-2.3-2.3-3.1
				c-2-1.8-4.6-2.9-7.3-2.3c-0.8,0.2-1.6,0.5-2.3,1c-0.6,0.5-1.5,1.2-1.7,2C37.7,52.3,38.2,52.9,38.7,52.6L38.7,52.6z"/>
		</g>
	</g>
</g>
</svg>
