<?xml version="1.0" encoding="utf-8"?>
<!-- Generator: Adobe Illustrator 24.3.0, SVG Export Plug-In . SVG Version: 6.00 Build 0)  -->
<svg version="1.1" id="Calque_1" xmlns="http://www.w3.org/2000/svg" xmlns:xlink="http://www.w3.org/1999/xlink" x="0px" y="0px"
	 viewBox="0 0 80 80" style="enable-background:new 0 0 80 80;" xml:space="preserve">
<style type="text/css">
	.st0{fill:#91D902;}
</style>
<g>
	<g>
		<g>
			<path class="st0" d="M18.9,62.3c-0.1-4.3,0.4-8.7,0.5-13c0-3.9,0-7.8,0-11.7s-0.2-7.7-0.1-11.6c-0.3,0.3-0.7,0.5-1,0.8
				c1.2,0.2,2.3-0.2,3.5-0.1c-0.3-0.3-0.5-0.5-0.8-0.8c0.2,6.8,0.1,13.7,0,20.5c0,3.4-0.1,6.7-0.1,10.1c0,1.3,0.1,2.6,0.2,4
				c0,0.8,0.2,1.2-0.6,1.3c-0.6,0-1.3-0.1-1.9-0.1c-1.1,0-1.1,1.7,0,1.7c1.2,0,2.7,0.5,3.7-0.5c0.9-1,0.5-2.7,0.4-3.9
				c-0.2-3.4,0-6.9,0.1-10.3c0.1-7.6,0.3-15.1,0-22.7c0-0.5-0.3-0.8-0.8-0.8c-1-0.1-2.1,0.3-3.1,0.1c-0.5-0.1-1,0.2-1,0.8
				c-0.1,3.8,0.1,7.5,0.1,11.3c0,4,0,8,0,12c0,4.3-0.6,8.7-0.4,13C17.4,63.3,18.9,63.3,18.9,62.3L18.9,62.3z"/>
		</g>
	</g>
	<g>
		<g>
			<path class="st0" d="M58.3,62.3c-0.1-4.3,0.4-8.7,0.5-13c0-3.9,0-7.8,0-11.7s-0.2-7.7-0.1-11.6c-0.3,0.3-0.7,0.5-1,0.8
				c1.2,0.2,2.3-0.2,3.5-0.1c-0.3-0.3-0.5-0.5-0.8-0.8c0.2,6.8,0.1,13.7,0,20.5c0,3.4-0.1,6.7-0.1,10.1c0,1.3,0.1,2.6,0.2,4
				c0,0.8,0.2,1.2-0.6,1.3c-0.6,0-1.3-0.1-1.9-0.1c-1.1,0-1.1,1.7,0,1.7c1.2,0,2.7,0.5,3.7-0.5c0.9-1,0.5-2.7,0.4-3.9
				c-0.2-3.4,0-6.9,0.1-10.3c0.1-7.6,0.3-15.1,0-22.7c0-0.5-0.3-0.8-0.8-0.8c-1-0.1-2.1,0.3-3.1,0.1c-0.5-0.1-1,0.2-1,0.8
				c-0.1,3.8,0.1,7.5,0.1,11.3c0,4,0,8,0,12c0,4.3-0.6,8.7-0.4,13C56.8,63.3,58.3,63.3,58.3,62.3L58.3,62.3z"/>
		</g>
	</g>
	<g>
		<g>
			<path class="st0" d="M22.6,30.7c0.7,0,0.7-1.2,0-1.2C21.8,29.6,21.8,30.7,22.6,30.7L22.6,30.7z"/>
		</g>
	</g>
	<g>
		<g>
			<path class="st0" d="M22.6,30.8c1.5-0.2,3.1-0.1,4.6,0c1.6,0.1,3.1,0,4.7,0.1c3.3,0.1,6.6-0.2,9.9-0.2c3.2,0,6.5,0,9.7-0.2
				c1.2-0.1,2.4-0.1,3.6-0.1c0.6,0,2-0.3,2.5,0c0.9,0.5,1.7-0.9,0.8-1.4c-0.7-0.4-1.6-0.3-2.3-0.3c-1.1,0-2.1,0.1-3.2,0.1
				c-3.5,0.2-6.9,0.3-10.4,0.3c-3.4,0-6.8,0.4-10.1,0.3c-1.7,0-3.4,0-5.1,0c-1.6-0.1-3.2-0.1-4.8,0.1C21.6,29.6,21.8,30.9,22.6,30.8
				L22.6,30.8z"/>
		</g>
	</g>
	<g>
		<g>
			<path class="st0" d="M22.6,34.8c1.5-0.2,3.1-0.1,4.6,0c1.6,0.1,3.1,0,4.7,0.1c3.3,0.1,6.6-0.2,9.9-0.2c3.2,0,6.5,0,9.7-0.2
				c1.2-0.1,2.4-0.1,3.6-0.1c0.6,0,2-0.3,2.5,0c0.9,0.5,1.7-0.9,0.8-1.4c-0.7-0.4-1.6-0.3-2.3-0.3c-1.1,0-2.1,0.1-3.2,0.1
				c-3.5,0.1-7,0.2-10.4,0.2s-6.8,0.4-10.1,0.3c-1.7,0-3.4,0-5.1,0c-1.6-0.1-3.2-0.1-4.8,0.1C21.6,33.5,21.8,34.8,22.6,34.8
				L22.6,34.8z"/>
		</g>
	</g>
	<g>
		<g>
			<path class="st0" d="M22.6,38.1c1.5-0.2,3.1-0.1,4.6,0c1.6,0.1,3.1,0,4.7,0.1c3.3,0.1,6.6-0.2,9.9-0.2c3.2,0,6.5,0,9.7-0.2
				c1.2-0.1,2.4-0.1,3.6-0.1c0.6,0,2-0.3,2.5,0c0.9,0.5,1.7-0.9,0.8-1.4c-0.7-0.4-1.6-0.3-2.3-0.3c-1.1-0.1-2.2,0-3.2,0
				c-3.5,0.2-6.9,0.3-10.4,0.3c-3.4,0-6.8,0.4-10.1,0.3c-1.7,0-3.4,0-5.1,0c-1.6-0.1-3.2-0.1-4.8,0.1C21.6,36.8,21.8,38.2,22.6,38.1
				L22.6,38.1z"/>
		</g>
	</g>
	<g>
		<g>
			<path class="st0" d="M22.6,42.6c1.5-0.2,3.1-0.1,4.6,0c1.6,0.1,3.1,0,4.7,0.1c3.3,0.1,6.6-0.2,9.9-0.2c3.2,0,6.5,0,9.7-0.2
				c1.2-0.1,2.4-0.1,3.6-0.1c0.6,0,2-0.3,2.5,0c0.9,0.5,1.7-0.9,0.8-1.4c-0.7-0.4-1.6-0.3-2.3-0.3c-1.1,0-2.1,0.1-3.2,0.1
				c-3.5,0.2-6.9,0.3-10.4,0.3c-3.4,0-6.8,0.4-10.1,0.3c-1.7,0-3.4,0-5.1,0c-1.6-0.1-3.2-0.1-4.8,0.1C21.6,41.3,21.8,42.6,22.6,42.6
				L22.6,42.6z"/>
		</g>
	</g>
	<g>
		<g>
			<path class="st0" d="M27,30.1c-0.2,0.9-0.1,1.8-0.2,2.7c0,1,0,1.9,0,2.9c0,0.9,0,1.8,0,2.7c0,0.4,0,0.9,0,1.3
				c0,0.5-0.1,1,0.1,1.4c0.2,0.8,1.3,0.8,1.5,0c0.1-0.4,0.1-0.9,0.1-1.3s0-0.9,0-1.3c0-0.9,0-1.9,0-2.8s0-1.9-0.1-2.8
				c0-0.9,0-1.9-0.2-2.8C28.1,29.4,27.1,29.4,27,30.1L27,30.1z"/>
		</g>
	</g>
	<g>
		<g>
			<path class="st0" d="M31.4,30.7c-0.5,1.6,0,3.3-0.1,4.9c-0.1,1.8-0.1,3.5-0.1,5.3c0,1.1,1.7,1.1,1.7,0c0-1.7,0-3.4,0.1-5.2
				c0.1-1.6-0.1-3.2-0.3-4.8C32.6,30.2,31.6,29.9,31.4,30.7L31.4,30.7z"/>
		</g>
	</g>
	<g>
		<g>
			<path class="st0" d="M37.2,30.8c-0.3,0.3-0.2,0.8-0.3,1.2c0,0.5,0,1,0,1.5c0,0.9,0,1.8,0,2.7c0.1,0.8,0.1,1.7,0.2,2.5
				c0,0.4,0,0.9,0,1.3c0,0.4-0.2,0.7-0.2,1.1c-0.1,0.9,0.9,1.4,1.5,0.6c0.4-0.7,0.5-1.7,0.5-2.5c0-0.9-0.1-1.8-0.2-2.8
				c-0.1-0.9,0-1.8-0.1-2.8c0-0.5-0.1-1-0.1-1.5c0-0.5,0-1-0.3-1.4C37.9,30.4,37.5,30.4,37.2,30.8L37.2,30.8z"/>
		</g>
	</g>
	<g>
		<g>
			<path class="st0" d="M41.7,30.4c-0.5,0.6-0.6,1.4-0.6,2.1c0,0.8,0,1.6,0,2.4c0,0.9,0,1.7,0.1,2.6c0,1,0.1,2-0.2,2.9
				c0.3-0.2,0.7-0.4,1-0.6c0,0,0,0-0.1,0c0.2,0.3,0.4,0.5,0.6,0.8c0-0.2,0-0.4-0.2-0.5c-0.4-0.5-1.2-0.5-1.4,0.2v0.1
				c-0.1,0.4,0.1,0.7,0.4,0.9c0,0,0,0,0.1,0c0.4,0.3,1.1,0,1.2-0.5c0.5-1.8,0.2-3.8,0.1-5.7c0-0.8-0.1-1.5-0.1-2.3
				c0-0.7,0.1-1.4,0.1-2.2C42.9,30.3,42,30,41.7,30.4L41.7,30.4z"/>
		</g>
	</g>
	<g>
		<g>
			<path class="st0" d="M46.9,30.4c-0.2,1.7-0.2,3.4-0.2,5.1c-0.1,1.7-0.2,3.4-0.2,5.1c0,1.1,1.7,1.1,1.7,0c0-1.7,0.1-3.4,0.2-5.1
				s0.2-3.5-0.2-5.1C47.9,29.8,46.9,29.7,46.9,30.4L46.9,30.4z"/>
		</g>
	</g>
	<g>
		<g>
			<path class="st0" d="M51.4,30.2c-0.6,0.4-0.7,1.3-0.7,1.9c-0.1,0.8,0,1.6,0,2.3c0,0.9,0,1.8,0,2.7c0,0.6,0,1.1-0.1,1.7
				c-0.1,0.5-0.3,1.1-0.2,1.6c0.1,0.6,0.9,0.7,1.3,0.3c0.4-0.3,0.5-1,0.5-1.5c0.1-0.5,0.1-1.1,0.1-1.7c0-1,0-1.9-0.1-2.9
				c0-0.7-0.1-1.4-0.1-2.1c0-0.4,0-0.7,0-1.1c0-0.1,0-0.3,0-0.3c0-0.1,0.1-0.6,0.1-0.3C52.4,30.4,51.9,29.9,51.4,30.2L51.4,30.2z"/>
		</g>
	</g>
	<g>
		<g>
			<path class="st0" d="M52.7,16.8c-0.4-0.3-0.9-0.3-1.4-0.4c-0.5,0-0.9,0-1.4,0.1c-0.9,0.2-1.7,0.8-2.1,1.7
				c-0.7,1.7-0.5,3.8,0.8,5.2s3.5,1.4,5,0.4s2.3-3,1.9-4.7c-0.5-2-2.8-3-4.7-2.6c-0.4,0.1-0.7,0.5-0.6,0.9s0.4,0.7,0.8,0.7
				c0.3,0,0.6,0,1,0c-0.2,0,0.2,0,0.2,0.1c0.2,0,0.4,0.1,0.5,0.2c-0.2-0.1,0.1,0,0.1,0c0.1,0,0.1,0.1,0.2,0.1l0.1,0.1
				c0,0,0.2,0.2,0.1,0c0.1,0.1,0.2,0.2,0.3,0.3c0.2,0.2-0.1-0.1,0,0.1c0,0.1,0.1,0.2,0.1,0.2s0.1,0.2,0,0c0,0.1,0.1,0.1,0.1,0.2
				c0,0.1,0,0.2,0.1,0.2c0-0.2,0,0.1,0,0.1c0,0.2,0,0.3,0,0.5c0,0,0,0.2,0,0.1c0,0.1,0,0.2-0.1,0.3c0,0.2-0.1,0.3-0.1,0.5
				c-0.1,0.2,0.1-0.1,0,0.1c0,0,0,0.1-0.1,0.1c-0.1,0.1-0.2,0.3-0.3,0.4c0.1-0.1-0.1,0.1-0.1,0.1C53,21.9,53,22,52.9,22
				c-0.2,0.2-0.3,0.3-0.6,0.4c0,0-0.3,0.1-0.1,0.1c-0.1,0-0.2,0.1-0.3,0.1c-0.2,0.1-0.3,0.1-0.5,0.1c0.2,0-0.1,0-0.1,0
				c-0.1,0-0.2,0-0.3,0c0,0-0.3,0-0.1,0c-0.1,0-0.1,0-0.2,0s-0.2,0-0.2-0.1c0,0-0.3-0.1-0.1,0c-0.2-0.1-0.3-0.2-0.5-0.3
				c0.1,0.1,0,0,0,0l-0.1-0.1c-0.1-0.1-0.1-0.1-0.2-0.2c0.1,0.1-0.1-0.1-0.1-0.1c-0.2-0.3-0.3-0.4-0.3-0.8c-0.1-0.5-0.2-1.2,0-1.7
				c0-0.2,0.1-0.3,0.1-0.5c-0.1,0.2,0-0.1,0.1-0.1c0.1-0.1,0.1-0.2,0.2-0.3c-0.1,0.1,0.1-0.1,0.1-0.1l0.1-0.1c-0.1,0,0,0,0,0
				c0.2-0.1,0.2-0.1,0.4-0.2c0.1,0,0.2,0,0.3-0.1c0.1,0,0.1,0,0,0c0.1,0,0.1,0,0.2,0c0.2,0,0.4,0,0.5,0s0.2,0,0.3,0c0.1,0,0.1,0,0,0
				c0.1,0,0.1,0,0.2,0c0.2,0,0.5,0.1,0.7,0C53,18.1,53.3,17.3,52.7,16.8L52.7,16.8z"/>
		</g>
	</g>
</g>
</svg>
