<?xml version="1.0" encoding="utf-8"?>
<!-- Generator: Adobe Illustrator 24.0.1, SVG Export Plug-In . SVG Version: 6.00 Build 0)  -->
<svg version="1.1" id="Calque_1" xmlns="http://www.w3.org/2000/svg" xmlns:xlink="http://www.w3.org/1999/xlink" x="0px" y="0px"
	 viewBox="0 0 122 122" style="enable-background:new 0 0 122 122;" xml:space="preserve">
<style type="text/css">
	.st0{fill:#91D902;}
</style>
<g>
	<path d="M102,6.9c-0.7-4.4-4.8-7.4-9.3-6.8l-76.6,11c-3,0.5-5.1,3.3-4.7,6.3l7.2,48.5c0.6,3.8,2,7.4,4.2,10.5
		c6.8,9.8,22.1,31.8,25.8,36.8c0.9,1.4,3.6,5.5,5.4,8.1c0.7,1,2.2,0.8,2.6-0.3c1.2-3.5,3.2-9.3,4.2-11.7c2.2-5.5,5.6-16.1,6.6-19.3
		c0.2-0.6,0.7-1,1.3-1.2l4.6-0.8l20.9-3.9l14.1-2.9c3-0.5,5.1-3.3,4.6-6.4C110.2,57.4,102,6.9,102,6.9"/>
</g>
<g>
	<g>
		<g>
			<path class="st0" d="M41.1,64.2c0.1-0.3,0.1-0.7,0.1-1c0-0.3,0-0.6,0-0.8c0-0.3,0-0.6,0-0.9c0-0.4,0-0.8-0.2-1.1
				c-0.2-0.2-0.3-0.4-0.6-0.4c-0.3,0-0.5,0.1-0.6,0.4c-0.2,0.3-0.2,0.8-0.2,1.1c0,0.3,0,0.6,0.1,0.9c0,0.3,0,0.6,0.1,0.8
				c0,0.3,0,0.7,0.1,1c0.1,0.3,0.4,0.5,0.7,0.5C40.8,64.7,41,64.5,41.1,64.2L41.1,64.2z"/>
		</g>
	</g>
	<g>
		<g>
			<path class="st0" d="M41.3,39.1c0.1-0.3,0.1-0.7,0.1-1c0-0.3,0-0.6,0-0.8c0-0.3,0-0.6,0-0.9c0-0.4,0-0.8-0.2-1.1
				c-0.2-0.2-0.3-0.4-0.6-0.4c-0.3,0-0.5,0.1-0.6,0.4c-0.2,0.3-0.2,0.8-0.2,1.1c0,0.3,0,0.6,0.1,0.9c0,0.3,0,0.6,0.1,0.8
				c0,0.3,0,0.7,0.1,1c0.1,0.3,0.4,0.5,0.7,0.5C40.9,39.6,41.2,39.4,41.3,39.1L41.3,39.1z"/>
		</g>
	</g>
	<g>
		<g>
			<path class="st0" d="M84.6,39.1c0.1-0.3,0.1-0.7,0.1-1c0-0.3,0-0.6,0-0.8c0-0.3,0-0.6,0-0.9c0-0.4,0-0.8-0.2-1.1
				c-0.2-0.2-0.3-0.4-0.6-0.4c-0.3,0-0.5,0.1-0.6,0.4C83,35.6,83,36,83.1,36.4c0,0.3,0,0.6,0.1,0.9c0,0.3,0,0.6,0.1,0.8
				c0,0.3,0,0.7,0.1,1c0.1,0.3,0.4,0.5,0.7,0.5C84.3,39.6,84.5,39.4,84.6,39.1L84.6,39.1z"/>
		</g>
	</g>
	<g>
		<g>
			<path class="st0" d="M84.7,64.2c0.1-0.3,0.1-0.7,0.1-1c0-0.3,0-0.6,0-0.8c0-0.3,0-0.6,0-0.9c0-0.4,0-0.8-0.2-1.1
				c-0.2-0.2-0.3-0.4-0.6-0.4c-0.3,0-0.5,0.1-0.6,0.4c-0.2,0.3-0.2,0.8-0.2,1.1c0,0.3,0,0.6,0.1,0.9c0,0.3,0,0.6,0.1,0.8
				c0,0.3,0,0.7,0.1,1c0.1,0.3,0.4,0.5,0.7,0.5C84.4,64.7,84.6,64.5,84.7,64.2L84.7,64.2z"/>
		</g>
	</g>
	<g>
		<g>
			<path class="st0" d="M40.4,64.8c2.3,0.1,4.6,0,6.9-0.1c3.5,0,7.1,0,10.6,0c7,0,13.9,0.1,20.9,0.1c1.7,0,3.4,0.1,5.1,0
				c1-0.1,1-1.7,0-1.6c-4.4,0.3-8.9,0-13.3,0c-7.3,0-14.7-0.1-22-0.1c-2.7,0-5.5-0.2-8.2,0.2C39.5,63.3,39.4,64.7,40.4,64.8
				L40.4,64.8z"/>
		</g>
	</g>
	<g>
		<g>
			<path class="st0" d="M40.4,61.5c2.3,0.1,4.6,0,6.9-0.1c3.5,0,7.1,0,10.6,0c7,0,13.9,0.1,20.9,0.1c1.7,0,3.4,0.1,5.1,0
				c1-0.1,1-1.7,0-1.6c-4.4,0.3-8.9,0-13.3,0c-7.3,0-14.7-0.1-22-0.1c-2.7,0-5.5-0.2-8.2,0.2C39.5,60.1,39.4,61.5,40.4,61.5
				L40.4,61.5z"/>
		</g>
	</g>
	<g>
		<g>
			<path class="st0" d="M40.4,39.6c2.3,0.1,4.6,0,6.9-0.1c3.5,0,7.1,0,10.6,0c7,0,13.9,0.1,20.9,0.1c1.7,0,3.4,0.1,5.1,0
				c1-0.1,1-1.7,0-1.6c-4.4,0.3-8.9,0-13.3,0c-7.3,0-14.7-0.1-22-0.1c-2.7,0-5.5-0.2-8.2,0.2C39.5,38.2,39.4,39.6,40.4,39.6
				L40.4,39.6z"/>
		</g>
	</g>
	<g>
		<g>
			<g>
				<path class="st0" d="M43.2,42.3c0.1-0.3,0.1-0.7,0.1-1c0-0.3,0-0.6,0-0.8c0-0.3,0-0.6,0-0.9c0-0.4,0-0.8-0.2-1.1
					c-0.2-0.2-0.3-0.4-0.6-0.4c-0.3,0-0.5,0.1-0.6,0.4c-0.2,0.3-0.2,0.8-0.2,1.1c0,0.3,0,0.6,0.1,0.9c0,0.3,0,0.6,0.1,0.8
					c0,0.3,0,0.7,0.1,1c0.1,0.3,0.4,0.5,0.7,0.5C42.8,42.8,43.1,42.6,43.2,42.3L43.2,42.3z"/>
			</g>
		</g>
		<g>
			<g>
				<path class="st0" d="M53.3,42.3c0.1-0.3,0.1-0.7,0.1-1c0-0.3,0-0.6,0-0.8c0-0.3,0-0.6,0-0.9c0-0.4,0-0.8-0.2-1.1
					c-0.2-0.2-0.3-0.4-0.6-0.4c-0.3,0-0.5,0.1-0.6,0.4c-0.2,0.3-0.2,0.8-0.2,1.1c0,0.3,0,0.6,0.1,0.9c0,0.3,0,0.6,0.1,0.8
					c0,0.3,0,0.7,0.1,1c0.1,0.3,0.4,0.5,0.7,0.5C52.9,42.8,53.2,42.6,53.3,42.3L53.3,42.3z"/>
			</g>
		</g>
		<g>
			<g>
				<path class="st0" d="M42.3,42.9c0.8,0.1,1.7,0,2.6,0c0.7,0,1.3,0,2,0c1,0,1.9,0,2.9,0c1,0,1.9,0.1,2.9,0.1c1-0.1,1-1.7,0-1.6
					c-1,0.1-1.9-0.1-2.9-0.1c-1,0-1.9,0-2.9,0c-0.7,0-1.3,0-2,0c-0.8,0-1.8,0-2.6,0.2C41.6,41.5,41.5,42.7,42.3,42.9L42.3,42.9z"/>
			</g>
		</g>
		<g>
			<g>
				<path class="st0" d="M42.3,39.6c0.8,0.1,1.7,0,2.6,0c0.7,0,1.3,0,2,0c1,0,1.9,0,2.9,0c1,0,1.9,0.1,2.9,0.1c1-0.1,1-1.7,0-1.6
					c-1,0.1-1.9-0.1-2.9-0.1c-1,0-1.9,0-2.9,0c-0.7,0-1.3,0-2,0c-0.8,0-1.8,0-2.6,0.2C41.6,38.3,41.5,39.5,42.3,39.6L42.3,39.6z"/>
			</g>
		</g>
	</g>
	<g>
		<g>
			<g>
				<path class="st0" d="M57.9,42.3c0.1-0.3,0.1-0.7,0.1-1c0-0.3,0-0.6,0-0.8c0-0.3,0-0.6,0-0.9c0-0.4,0-0.8-0.2-1.1
					c-0.2-0.2-0.3-0.4-0.6-0.4c-0.3,0-0.5,0.1-0.6,0.4c-0.2,0.3-0.2,0.8-0.2,1.1c0,0.3,0,0.6,0.1,0.9c0,0.3,0,0.6,0.1,0.8
					c0,0.3,0,0.7,0.1,1c0.1,0.3,0.4,0.5,0.7,0.5C57.6,42.8,57.8,42.6,57.9,42.3L57.9,42.3z"/>
			</g>
		</g>
		<g>
			<g>
				<path class="st0" d="M68,42.3c0.1-0.3,0.1-0.7,0.1-1c0-0.3,0-0.6,0-0.8c0-0.3,0-0.6,0-0.9c0-0.4,0-0.8-0.2-1.1
					c-0.2-0.2-0.3-0.4-0.6-0.4c-0.3,0-0.5,0.1-0.6,0.4c-0.2,0.3-0.2,0.8-0.2,1.1c0,0.3,0,0.6,0.1,0.9c0,0.3,0,0.6,0.1,0.8
					c0,0.3,0,0.7,0.1,1c0.1,0.3,0.4,0.5,0.7,0.5C67.7,42.8,67.9,42.6,68,42.3L68,42.3z"/>
			</g>
		</g>
		<g>
			<g>
				<path class="st0" d="M57.1,42.9c0.8,0.1,1.7,0,2.6,0c0.7,0,1.3,0,2,0c1,0,1.9,0,2.9,0c1,0,1.9,0.1,2.9,0.1c1-0.1,1-1.7,0-1.6
					c-1,0.1-1.9-0.1-2.9-0.1c-1,0-1.9,0-2.9,0c-0.7,0-1.3,0-2,0c-0.8,0-1.8,0-2.6,0.2C56.4,41.5,56.3,42.7,57.1,42.9L57.1,42.9z"/>
			</g>
		</g>
		<g>
			<g>
				<path class="st0" d="M57.1,39.6c0.8,0.1,1.7,0,2.6,0c0.7,0,1.3,0,2,0c1,0,1.9,0,2.9,0c1,0,1.9,0.1,2.9,0.1c1-0.1,1-1.7,0-1.6
					c-1,0.1-1.9-0.1-2.9-0.1c-1,0-1.9,0-2.9,0c-0.7,0-1.3,0-2,0c-0.8,0-1.8,0-2.6,0.2C56.4,38.3,56.3,39.5,57.1,39.6L57.1,39.6z"/>
			</g>
		</g>
	</g>
	<g>
		<g>
			<g>
				<path class="st0" d="M72.5,42.3c0.1-0.3,0.1-0.7,0.1-1c0-0.3,0-0.6,0-0.8c0-0.3,0-0.6,0-0.9c0-0.4,0-0.8-0.2-1.1
					c-0.2-0.2-0.3-0.4-0.6-0.4c-0.3,0-0.5,0.1-0.6,0.4c-0.2,0.3-0.2,0.8-0.2,1.1c0,0.3,0,0.6,0.1,0.9c0,0.3,0,0.6,0.1,0.8
					c0,0.3,0,0.7,0.1,1c0.1,0.3,0.4,0.5,0.7,0.5C72.1,42.8,72.4,42.6,72.5,42.3L72.5,42.3z"/>
			</g>
		</g>
		<g>
			<g>
				<path class="st0" d="M82.6,42.3c0.1-0.3,0.1-0.7,0.1-1c0-0.3,0-0.6,0-0.8c0-0.3,0-0.6,0-0.9c0-0.4,0-0.8-0.2-1.1
					c-0.2-0.2-0.3-0.4-0.6-0.4c-0.3,0-0.5,0.1-0.6,0.4c-0.2,0.3-0.2,0.8-0.2,1.1c0,0.3,0,0.6,0.1,0.9c0,0.3,0,0.6,0.1,0.8
					c0,0.3,0,0.7,0.1,1c0.1,0.3,0.4,0.5,0.7,0.5C82.2,42.8,82.5,42.6,82.6,42.3L82.6,42.3z"/>
			</g>
		</g>
		<g>
			<g>
				<path class="st0" d="M71.6,42.9c0.8,0.1,1.7,0,2.6,0c0.7,0,1.3,0,2,0c1,0,1.9,0,2.9,0c1,0,1.9,0.1,2.9,0.1c1-0.1,1-1.7,0-1.6
					c-1,0.1-1.9-0.1-2.9-0.1c-1,0-1.9,0-2.9,0c-0.7,0-1.3,0-2,0c-0.8,0-1.8,0-2.6,0.2C70.9,41.5,70.8,42.7,71.6,42.9L71.6,42.9z"/>
			</g>
		</g>
		<g>
			<g>
				<path class="st0" d="M71.6,39.6c0.8,0.1,1.7,0,2.6,0c0.7,0,1.3,0,2,0c1,0,1.9,0,2.9,0c1,0,1.9,0.1,2.9,0.1c1-0.1,1-1.7,0-1.6
					C80.9,38.1,80,38,79,38c-1,0-1.9,0-2.9,0c-0.7,0-1.3,0-2,0c-0.8,0-1.8,0-2.6,0.2C70.9,38.3,70.8,39.5,71.6,39.6L71.6,39.6z"/>
			</g>
		</g>
	</g>
	<g>
		<g>
			<path class="st0" d="M43.2,42.3c-0.3,2.7-0.3,5.5-0.4,8.2c-0.1,3.4-0.2,7,0.5,10.4c0.2,1,1.9,0.6,1.6-0.4
				c-0.9-3.2-0.5-6.9-0.5-10.1c0.1-2.6,0.4-5.4,0.1-8C44.5,41.4,43.3,41.4,43.2,42.3L43.2,42.3z"/>
		</g>
	</g>
	<g>
		<g>
			<path class="st0" d="M50.4,42.3c-0.3,2.7-0.3,5.5-0.4,8.2c-0.1,3.4-0.2,7,0.5,10.4c0.2,1,1.9,0.6,1.6-0.4
				c-0.9-3.2-0.5-6.9-0.5-10.1c0.1-2.6,0.4-5.4,0.1-8C51.7,41.4,50.5,41.4,50.4,42.3L50.4,42.3z"/>
		</g>
	</g>
	<g>
		<g>
			<path class="st0" d="M58,42.3c-0.3,2.7-0.3,5.5-0.4,8.2c-0.1,3.4-0.2,7,0.5,10.4c0.2,1,1.9,0.6,1.6-0.4
				c-0.9-3.2-0.5-6.9-0.5-10.1c0.1-2.6,0.4-5.4,0.1-8C59.3,41.4,58.1,41.4,58,42.3L58,42.3z"/>
		</g>
	</g>
	<g>
		<g>
			<path class="st0" d="M65.2,42.3c-0.3,2.7-0.3,5.5-0.4,8.2c-0.1,3.4-0.2,7,0.5,10.4c0.2,1,1.9,0.6,1.6-0.4
				c-0.9-3.2-0.5-6.9-0.5-10.1c0.1-2.6,0.4-5.4,0.1-8C66.5,41.4,65.3,41.4,65.2,42.3L65.2,42.3z"/>
		</g>
	</g>
	<g>
		<g>
			<path class="st0" d="M72.6,41.7c-0.3,2.7-0.3,5.5-0.4,8.2c-0.1,3.4-0.2,7,0.5,10.4c0.2,1,1.9,0.6,1.6-0.4
				c-0.9-3.2-0.5-6.9-0.5-10.1c0.1-2.6,0.4-5.4,0.1-8C73.9,40.8,72.7,40.8,72.6,41.7L72.6,41.7z"/>
		</g>
	</g>
	<g>
		<g>
			<path class="st0" d="M79.8,41.7c-0.3,2.7-0.3,5.5-0.4,8.2c-0.1,3.4-0.2,7,0.5,10.4c0.2,1,1.9,0.6,1.6-0.4
				c-0.9-3.2-0.5-6.9-0.5-10.1c0.1-2.6,0.4-5.4,0.1-8C81.1,40.8,79.9,40.8,79.8,41.7L79.8,41.7z"/>
		</g>
	</g>
	<g>
		<g>
			<path class="st0" d="M41,34.9c-0.1-0.1-0.1-0.1-0.2-0.2c0.1,0.4,0.1,0.8,0.2,1.2c-0.4,0.3,0.6,0,0.7,0c0.4-0.1,0.7-0.3,1.1-0.4
				c0.9-0.4,1.7-0.8,2.6-1.1c1.9-0.7,3.8-1.7,5.5-2.7c1.8-1.1,3.6-2.3,5.6-3.2c1.7-0.8,3.6-2.2,5.4-2.5c1.4-0.3,3.3,1.1,4.6,1.7
				c1.9,0.9,3.7,2,5.5,3.1c3.7,2.3,7.8,3.8,11.5,6.1c1,0.6,1.8-0.9,0.9-1.5C82.1,34,79.9,33,77.8,32c-2-1-3.9-2.1-5.8-3.3
				C70,27.5,68,26.5,66,25.5c-1.3-0.6-2.7-1.5-4.1-1.3c-1.9,0.2-3.8,1.6-5.5,2.4c-2.1,1-4,2.2-6,3.4c-2,1.2-4,2.2-6.1,3
				c-0.9,0.3-1.7,0.8-2.5,1.2c-0.7,0.3-1.5,0.2-2,0.9c-0.2,0.3-0.1,0.9,0.3,1c0,0,0,0-0.1-0.1C40.7,36.5,41.7,35.6,41,34.9L41,34.9z
				"/>
		</g>
	</g>
</g>
</svg>
