<?xml version="1.0" encoding="utf-8"?>
<!-- Generator: Adobe Illustrator 24.0.1, SVG Export Plug-In . SVG Version: 6.00 Build 0)  -->
<svg version="1.1" id="Calque_1" xmlns="http://www.w3.org/2000/svg" xmlns:xlink="http://www.w3.org/1999/xlink" x="0px" y="0px"
	 viewBox="0 0 122 122" style="enable-background:new 0 0 122 122;" xml:space="preserve">
<style type="text/css">
	.st0{fill:#91D902;}
</style>
<g>
	<path d="M101.9,6.8c-0.7-4.4-4.8-7.4-9.3-6.8L16,11c-3,0.5-5.1,3.3-4.7,6.3l7.2,48.5c0.6,3.8,2,7.4,4.2,10.5
		c6.8,9.8,22.1,31.8,25.8,36.8c0.9,1.4,3.6,5.5,5.4,8.1c0.7,1,2.2,0.8,2.6-0.3c1.2-3.5,3.2-9.3,4.2-11.7c2.2-5.5,5.6-16.1,6.6-19.3
		c0.2-0.6,0.7-1,1.3-1.2l4.6-0.8L94.1,84l14.1-2.9c3-0.5,5.1-3.3,4.6-6.4C110.1,57.3,101.9,6.8,101.9,6.8"/>
</g>
<g>
	<g>
		<g>
			<path class="st0" d="M51.9,28.1c-1-0.1-1.9-0.1-2.9-0.1c-0.6,0-1.2,0-1.8,0c-0.5,0-0.9-0.1-1.4,0c-0.6,0.1-1.1,0.3-1.4,0.8
				c-0.3,0.5-0.3,1-0.3,1.5c0,0.5,0,0.9,0,1.4c0,0.6-0.1,1.2,0.1,1.7c0.7,2,3.3,2,5.1,2.1c0.9,0,1.8,0.1,2.6-0.2
				c0.8-0.3,1.2-0.9,1.4-1.7c0.3-0.9,0.3-1.9,0.1-2.9c-0.1-0.8-0.4-1.8-1.2-2.2c-1-0.5-1.8,0.9-0.9,1.5c0.1,0.1,0,0,0,0
				c0,0,0.1,0.1,0.1,0.1c-0.1-0.1,0-0.1,0,0c0,0.1,0.1,0.1,0.1,0.2c-0.1-0.1,0,0,0,0c0,0.1,0,0.1,0.1,0.2c0,0.2,0.1,0.3,0.1,0.5
				c0,0.2,0-0.1,0,0.1c0,0.1,0,0.2,0,0.2c0,0.2,0,0.4,0,0.5c0,0.2,0,0.3,0,0.5c0,0.1,0,0.2,0,0.2c0-0.2,0,0.1,0,0.1
				c0,0.1-0.1,0.3-0.1,0.4c0,0.1,0,0.1-0.1,0.2c0,0,0,0.1,0,0.1c0,0.1,0.1-0.1,0,0c0,0-0.1,0.1-0.1,0.2c0,0-0.1,0.2,0,0.1
				c0.1-0.1,0,0-0.1,0c-0.1,0,0,0,0.1-0.1c0,0-0.1,0-0.1,0.1c-0.1,0.1,0.1,0-0.1,0c-0.1,0-0.1,0-0.2,0.1c-0.1,0-0.1,0-0.2,0
				c-0.1,0,0,0,0,0c-0.1,0-0.1,0-0.2,0c-0.4,0-0.8,0-1.2,0c-0.7,0-1.3-0.1-2-0.2c-0.2,0-0.2,0-0.4-0.1c-0.2,0-0.4-0.1-0.6-0.1
				c-0.2-0.1-0.2-0.1-0.4-0.2c0,0-0.2-0.2-0.2-0.1C46,33,46,33,46,32.9c-0.2-0.3-0.1-0.8-0.1-1.1c0-0.4,0-0.8,0-1.2
				c0-0.2,0-0.4,0-0.6c0-0.2,0-0.2,0.1-0.4c0,0.1,0-0.1,0.1-0.1c0,0,0,0.1-0.1,0.1c-0.1,0.1,0,0,0,0c0,0-0.1,0,0,0c0,0,0.2,0,0.1,0
				c-0.1,0,0.1,0,0.1,0c0.1,0,0.1,0,0.2,0c0.4,0,0.9,0.1,1.3,0.1c0.6,0,1.2,0,1.8,0c0.5,0,1,0,1.4,0c0.5,0,1.1-0.1,1.4-0.5
				C52.5,28.8,52.4,28.1,51.9,28.1L51.9,28.1z"/>
		</g>
	</g>
	<g>
		<g>
			<path class="st0" d="M48.3,28.5c-0.1,0.2-0.2,0.3-0.3,0.5c0,0.1-0.1,0.3-0.1,0.5c0,0.2,0,0.4-0.1,0.6c0-0.1,0-0.1,0-0.2
				c0,0.1,0,0.2-0.1,0.4c0,0.1-0.1,0.2-0.1,0.3c0,0.2,0,0.4,0.1,0.6c0.1,0.2,0.3,0.3,0.5,0.4c0.2,0,0.4,0,0.6-0.1
				c0.1,0,0.1-0.1,0.2-0.1c0.1-0.1,0.2-0.2,0.2-0.4c0-0.1,0.1-0.3,0.1-0.4c0-0.1,0-0.2,0-0.2c0-0.2,0-0.3,0-0.5c0-0.2,0-0.3,0-0.5
				c0-0.1,0-0.2,0-0.2c0-0.1,0-0.2,0-0.4c0,0.1,0,0.1,0,0.2c0,0,0,0,0-0.1c0-0.3-0.1-0.5-0.4-0.6c-0.1,0-0.2-0.1-0.3,0
				C48.6,28.4,48.4,28.4,48.3,28.5L48.3,28.5z"/>
		</g>
	</g>
	<g>
		<g>
			<path class="st0" d="M47.2,28.2C47.2,28.2,47.2,28.2,47.2,28.2c-0.1,0.1-0.2,0.3-0.3,0.5c0.1-0.1,0.2-0.2,0.3-0.3
				c0.1-0.1,0.1-0.3,0.1-0.4c0-0.1,0-0.2,0-0.3c0-0.3,0-0.5,0-0.8c0-0.1,0-0.3,0-0.4c0,0,0-0.2,0-0.2c0,0,0,0.2,0,0.1
				c0,0,0-0.1,0-0.1c0-0.1,0-0.1,0-0.2c0,0,0-0.1,0-0.1c0-0.1,0.1-0.1,0,0.1c0.1-0.2,0.2-0.5,0.2-0.8c0-0.2-0.2-0.4-0.3-0.5
				c-0.2-0.1-0.4-0.1-0.6-0.1c-0.4,0.1-0.5,0.4-0.6,0.7c0,0.1-0.1,0.2-0.1,0.3c-0.1,0.3-0.1,0.7-0.1,1c0,0.3,0,0.7,0.1,1
				c0,0.1,0,0.2,0.1,0.3c0,0.2,0.2,0.4,0.4,0.6c-0.1-0.2-0.2-0.3-0.3-0.5c0,0,0,0,0,0c0,0.3,0.2,0.6,0.6,0.6
				C47,28.8,47.2,28.6,47.2,28.2L47.2,28.2z"/>
		</g>
	</g>
	<g>
		<g>
			<path class="st0" d="M51,28C51,28.1,51,28.1,51,28c0-0.1,0-0.2,0-0.2c0-0.1,0-0.2,0-0.3c0-0.1,0-0.2,0-0.3c0-0.2,0-0.5,0-0.7
				c0-0.5,0-1,0-1.5c0-0.4-0.4-0.8-0.8-0.8c-0.4,0-0.8,0.3-0.8,0.8c0,0.5,0,1,0,1.5c0,0.2,0,0.5,0,0.7c0,0.1,0,0.2,0,0.2
				c0-0.1,0-0.1,0,0c0,0.1,0,0.2,0,0.3c0,0.2,0.1,0.4,0.2,0.5c-0.1-0.1-0.1-0.2-0.2-0.3c0,0,0,0,0,0c0.1,0.3,0.3,0.5,0.6,0.5
				C50.7,28.5,51,28.3,51,28L51,28z"/>
		</g>
	</g>
	<g>
		<g>
			<path class="st0" d="M46.2,35.2C46,36.4,46,37.7,46,39c-0.1,1.2-0.1,2.5-0.2,3.7c-0.1,1.2-0.1,2.5-0.1,3.7c0,0.8,0,1.7,0.4,2.4
				c0.5,0.8,1.5,1.2,2.4,1c0.9-0.2,1.6-0.9,2.1-1.7c1-1.8,1.1-4,1-6.1c-0.1-1.2-0.2-2.3-0.2-3.4c0-1.3,0-2.6-0.1-4
				c-0.1-1.1-1.8-1.1-1.7,0c0.2,2.4,0.1,4.7,0.2,7.1c0.1,1.1,0.1,2.2-0.1,3.2c-0.1,1-0.4,2.2-1.1,3c-0.3,0.3-0.7,0.4-1.1,0.1
				c-0.3-0.3-0.3-0.8-0.2-1.2c0-1.2,0-2.3,0.1-3.5c0-1.4,0.1-2.8,0.2-4.1c0-1.3,0.2-2.7-0.1-4.1C47.4,34.5,46.3,34.5,46.2,35.2
				L46.2,35.2z"/>
		</g>
	</g>
	<g>
		<g>
			<path class="st0" d="M50.6,43.3c2,0.5,4.1,1.3,5.7,2.7c1.4,1.3,2.1,3.1,2.5,4.9c0.4,1.9,0.4,4.1-0.2,6c-0.6,1.8-2.1,3.4-3.7,4.5
				c-1.6,1.1-3.4,1.8-5.4,1.9c-2.2,0.1-4-0.4-6-1.3c-0.8-0.4-1.8-0.7-2.5-1.4c-0.6-0.5-1.1-1.3-1.5-1.9c-1.1-1.7-1.1-4-0.9-5.9
				c0.2-2.2,1-4.5,2.5-6.2c1.5-1.8,3.7-2.7,5.9-3.2c1.1-0.3,0.6-1.9-0.5-1.7c-2.3,0.5-4.6,1.5-6.2,3.2c-1.6,1.6-2.7,3.8-3.1,6
				c-0.9,4.2-0.3,9.5,3.8,11.8c4.2,2.4,9.2,3.3,13.6,0.9c2-1.1,3.7-2.7,4.9-4.6c1.2-2,1.5-4.5,1.3-6.8c-0.2-2.4-0.9-4.8-2.4-6.7
				c-1.7-2.1-4.6-3.3-7.1-3.9C50,41.5,49.6,43.1,50.6,43.3L50.6,43.3z"/>
		</g>
	</g>
	<g>
		<g>
			<path class="st0" d="M50.2,47c1.2,0.4,2.4,0.9,3.3,1.7c0.8,0.8,1.3,1.9,1.5,3.1c0.2,1.2,0.3,2.6-0.2,3.8c-0.4,1.1-1.2,2-2.1,2.7
				C50.6,60,48,60.1,45.6,59c-0.5-0.2-1.1-0.5-1.6-0.8c-0.4-0.3-0.7-0.7-1-1.1c-0.4-0.5-0.6-1-0.7-1.6c-0.1-0.6-0.1-1.2-0.1-1.9
				c0-1.4,0.4-2.9,1.2-4.1c0.8-1.2,2-1.9,3.4-2.3c1.1-0.3,0.6-2-0.5-1.7c-1.5,0.5-2.9,1.2-3.9,2.5c-0.9,1.2-1.6,2.6-1.8,4.1
				c-0.2,1.5-0.3,3.5,0.4,4.9c0.6,1.2,1.5,2.3,2.7,2.9c1.5,0.7,3,1.4,4.6,1.4c1.6,0.1,3.1-0.3,4.5-1c1.3-0.7,2.4-1.8,3.2-3.1
				c0.8-1.4,1-3.1,0.9-4.6c-0.1-1.6-0.6-3.2-1.6-4.5c-1.1-1.4-2.9-2.2-4.6-2.6C49.6,45.2,49.2,46.7,50.2,47L50.2,47z"/>
		</g>
	</g>
	<g>
		<g>
			<path class="st0" d="M78.7,28.1c-1-0.1-1.9-0.1-2.9-0.1c-0.6,0-1.2,0-1.8,0c-0.5,0-0.9-0.1-1.4,0c-0.6,0.1-1.1,0.3-1.4,0.8
				c-0.3,0.5-0.3,1-0.3,1.5c0,0.5,0,0.9,0,1.4c0,0.6-0.1,1.2,0.1,1.7c0.7,2,3.3,2,5.1,2.1c0.9,0,1.8,0.1,2.6-0.2
				c0.8-0.3,1.2-0.9,1.4-1.7c0.3-0.9,0.3-1.9,0.1-2.9c-0.1-0.8-0.4-1.8-1.2-2.2c-1-0.5-1.8,0.9-0.9,1.5c0.1,0.1,0,0,0,0
				c0,0,0.1,0.1,0.1,0.1c-0.1-0.1,0-0.1,0,0c0,0.1,0.1,0.1,0.1,0.2c-0.1-0.1,0,0,0,0c0,0.1,0,0.1,0.1,0.2c0,0.2,0.1,0.3,0.1,0.5
				c0,0.2,0-0.1,0,0.1c0,0.1,0,0.2,0,0.2c0,0.2,0,0.4,0,0.5c0,0.2,0,0.3,0,0.5c0,0.1,0,0.2,0,0.2c0-0.2,0,0.1,0,0.1
				c0,0.1-0.1,0.3-0.1,0.4c0,0.1,0,0.1-0.1,0.2c0,0,0,0.1,0,0.1c0,0.1,0.1-0.1,0,0c0,0-0.1,0.1-0.1,0.2c0,0-0.1,0.2,0,0.1
				c0.1-0.1,0,0-0.1,0c-0.1,0,0,0,0.1-0.1c0,0-0.1,0-0.1,0.1c-0.1,0.1,0.1,0-0.1,0c-0.1,0-0.1,0-0.2,0.1c-0.1,0-0.1,0-0.2,0
				c-0.1,0,0,0,0,0c-0.1,0-0.1,0-0.2,0c-0.4,0-0.8,0-1.2,0c-0.7,0-1.3-0.1-2-0.2c-0.2,0-0.2,0-0.4-0.1c-0.2,0-0.4-0.1-0.6-0.1
				c-0.2-0.1-0.2-0.1-0.4-0.2c0,0-0.2-0.2-0.2-0.1c-0.1-0.1-0.1-0.1-0.1-0.1c-0.2-0.3-0.1-0.8-0.1-1.1c0-0.4,0-0.8,0-1.2
				c0-0.2,0-0.4,0-0.6c0-0.2,0-0.2,0.1-0.4c0,0.1,0-0.1,0.1-0.1c0,0,0,0.1-0.1,0.1c-0.1,0.1,0,0,0,0c0,0-0.1,0,0,0c0,0,0.2,0,0.1,0
				c-0.1,0,0.1,0,0.1,0c0.1,0,0.1,0,0.2,0c0.4,0,0.9,0.1,1.3,0.1c0.6,0,1.2,0,1.8,0c0.5,0,1,0,1.4,0c0.5,0,1.1-0.1,1.4-0.5
				C79.2,28.8,79.2,28.1,78.7,28.1L78.7,28.1z"/>
		</g>
	</g>
	<g>
		<g>
			<path class="st0" d="M75.1,28.5c-0.1,0.2-0.2,0.3-0.3,0.5c0,0.1-0.1,0.3-0.1,0.5c0,0.2,0,0.4-0.1,0.6c0-0.1,0-0.1,0-0.2
				c0,0.1,0,0.2-0.1,0.4c0,0.1-0.1,0.2-0.1,0.3c0,0.2,0,0.4,0.1,0.6c0.1,0.2,0.3,0.3,0.5,0.4c0.2,0,0.4,0,0.6-0.1
				c0.1,0,0.1-0.1,0.2-0.1c0.1-0.1,0.2-0.2,0.2-0.4c0-0.1,0.1-0.3,0.1-0.4c0-0.1,0-0.2,0-0.2c0-0.2,0-0.3,0-0.5c0-0.2,0-0.3,0-0.5
				c0-0.1,0-0.2,0-0.2c0-0.1,0-0.2,0-0.4c0,0.1,0,0.1,0,0.2c0,0,0,0,0-0.1c0-0.3-0.1-0.5-0.4-0.6c-0.1,0-0.2-0.1-0.3,0
				C75.3,28.4,75.2,28.4,75.1,28.5L75.1,28.5z"/>
		</g>
	</g>
	<g>
		<g>
			<path class="st0" d="M73.9,28.2C73.9,28.2,73.9,28.2,73.9,28.2c-0.1,0.1-0.2,0.3-0.3,0.5c0.1-0.1,0.2-0.2,0.3-0.3
				C74,28.3,74,28.2,74,28c0-0.1,0-0.2,0-0.3c0-0.3,0-0.5,0-0.8c0-0.1,0-0.3,0-0.4c0,0,0-0.2,0-0.2c0,0,0,0.2,0,0.1c0,0,0-0.1,0-0.1
				c0-0.1,0-0.1,0-0.2c0,0,0-0.1,0-0.1c0-0.1,0.1-0.1,0,0.1c0.1-0.2,0.2-0.5,0.2-0.8c0-0.2-0.2-0.4-0.3-0.5
				c-0.2-0.1-0.4-0.1-0.6-0.1c-0.4,0.1-0.5,0.4-0.6,0.7c0,0.1-0.1,0.2-0.1,0.3c-0.1,0.3-0.1,0.7-0.1,1c0,0.3,0,0.7,0.1,1
				c0,0.1,0,0.2,0.1,0.3c0,0.2,0.2,0.4,0.4,0.6c-0.1-0.2-0.2-0.3-0.3-0.5c0,0,0,0,0,0c0,0.3,0.2,0.6,0.6,0.6
				C73.7,28.8,73.9,28.6,73.9,28.2L73.9,28.2z"/>
		</g>
	</g>
	<g>
		<g>
			<path class="st0" d="M77.8,28C77.7,28.1,77.7,28.1,77.8,28c0-0.1,0-0.2,0-0.2c0-0.1,0-0.2,0-0.3c0-0.1,0-0.2,0-0.3
				c0-0.2,0-0.5,0-0.7c0-0.5,0-1,0-1.5c0-0.4-0.4-0.8-0.8-0.8c-0.4,0-0.8,0.3-0.8,0.8c0,0.5,0,1,0,1.5c0,0.2,0,0.5,0,0.7
				c0,0.1,0,0.2,0,0.2c0-0.1,0-0.1,0,0c0,0.1,0,0.2,0,0.3c0,0.2,0.1,0.4,0.2,0.5c-0.1-0.1-0.1-0.2-0.2-0.3c0,0,0,0,0,0
				c0.1,0.3,0.3,0.5,0.6,0.5C77.4,28.5,77.7,28.3,77.8,28L77.8,28z"/>
		</g>
	</g>
	<g>
		<g>
			<path class="st0" d="M72.9,35.2c-0.2,1.2-0.2,2.5-0.2,3.8c-0.1,1.2-0.1,2.5-0.2,3.7c-0.1,1.2-0.1,2.5-0.1,3.7
				c0,0.8,0,1.7,0.4,2.4c0.5,0.8,1.5,1.2,2.4,1c0.9-0.2,1.6-0.9,2.1-1.7c1-1.8,1.1-4,1-6.1c-0.1-1.2-0.2-2.3-0.2-3.4
				c0-1.3,0-2.6-0.1-4c-0.1-1.1-1.8-1.1-1.7,0c0.2,2.4,0.1,4.7,0.2,7.1c0.1,1.1,0.1,2.2-0.1,3.2c-0.1,1-0.4,2.2-1.1,3
				c-0.3,0.3-0.7,0.4-1.1,0.1c-0.3-0.3-0.3-0.8-0.2-1.2c0-1.2,0-2.3,0.1-3.5c0-1.4,0.1-2.8,0.2-4.1c0-1.3,0.2-2.7-0.1-4.1
				C74.2,34.5,73.1,34.5,72.9,35.2L72.9,35.2z"/>
		</g>
	</g>
	<g>
		<g>
			<path class="st0" d="M77.3,43.3c2,0.5,4.1,1.3,5.7,2.7c1.4,1.3,2.1,3.1,2.5,4.9c0.4,1.9,0.4,4.1-0.2,6c-0.6,1.8-2.1,3.4-3.7,4.5
				c-1.6,1.1-3.4,1.8-5.4,1.9c-2.2,0.1-4-0.4-6-1.3c-0.8-0.4-1.8-0.7-2.5-1.4c-0.6-0.5-1.1-1.3-1.5-1.9c-1.1-1.7-1.1-4-0.9-5.9
				c0.2-2.2,1-4.5,2.5-6.2c1.5-1.8,3.7-2.7,5.9-3.2c1.1-0.3,0.6-1.9-0.5-1.7c-2.3,0.5-4.6,1.5-6.2,3.2c-1.6,1.6-2.7,3.8-3.1,6
				c-0.9,4.2-0.3,9.5,3.8,11.8c4.2,2.4,9.2,3.3,13.6,0.9c2-1.1,3.7-2.7,4.9-4.6c1.2-2,1.5-4.5,1.3-6.8c-0.2-2.4-0.9-4.8-2.4-6.7
				c-1.7-2.1-4.6-3.3-7.1-3.9C76.7,41.5,76.3,43.1,77.3,43.3L77.3,43.3z"/>
		</g>
	</g>
	<g>
		<g>
			<path class="st0" d="M77,47c1.2,0.4,2.4,0.9,3.3,1.7c0.8,0.8,1.3,1.9,1.5,3.1c0.2,1.2,0.3,2.6-0.2,3.8c-0.4,1.1-1.2,2-2.1,2.7
				c-2.2,1.6-4.8,1.7-7.2,0.7c-0.5-0.2-1.1-0.5-1.6-0.8c-0.4-0.3-0.7-0.7-1-1.1c-0.4-0.5-0.6-1-0.7-1.6c-0.1-0.6-0.1-1.2-0.1-1.9
				c0-1.4,0.4-2.9,1.2-4.1c0.8-1.2,2-1.9,3.4-2.3c1.1-0.3,0.6-2-0.5-1.7c-1.5,0.5-2.9,1.2-3.9,2.5c-0.9,1.2-1.6,2.6-1.8,4.1
				c-0.2,1.5-0.3,3.5,0.4,4.9c0.6,1.2,1.5,2.3,2.7,2.9c1.5,0.7,3,1.4,4.6,1.4c1.6,0.1,3.1-0.3,4.5-1c1.3-0.7,2.4-1.8,3.2-3.1
				c0.8-1.4,1-3.1,0.9-4.6C83.4,51,83,49.4,82,48.1c-1.1-1.4-2.9-2.2-4.6-2.6C76.4,45.2,76,46.7,77,47L77,47z"/>
		</g>
	</g>
</g>
</svg>
