<?xml version="1.0" encoding="utf-8"?>
<!-- Generator: Adobe Illustrator 24.0.1, SVG Export Plug-In . SVG Version: 6.00 Build 0)  -->
<svg version="1.1" id="Calque_1" xmlns="http://www.w3.org/2000/svg" xmlns:xlink="http://www.w3.org/1999/xlink" x="0px" y="0px"
	 viewBox="0 0 122 122" style="enable-background:new 0 0 122 122;" xml:space="preserve">
<style type="text/css">
	.st0{fill:#91D902;}
</style>
<g>
	<path d="M101.7,6.8C101,2.4,96.9-0.6,92.4,0L15.8,11c-3,0.5-5.1,3.3-4.7,6.3l7.2,48.5c0.6,3.8,2,7.4,4.2,10.5
		c6.8,9.8,22.1,31.8,25.8,36.8c0.9,1.4,3.6,5.5,5.4,8.1c0.7,1,2.2,0.8,2.6-0.3c1.2-3.5,3.2-9.3,4.2-11.7c2.2-5.5,5.6-16.1,6.6-19.3
		c0.2-0.6,0.7-1,1.3-1.2l4.6-0.8L93.9,84l14.1-2.9c3-0.5,5.1-3.3,4.6-6.4C109.9,57.3,101.7,6.8,101.7,6.8"/>
</g>
<g>
	<g>
		<g>
			<path class="st0" d="M65.5,28.3c-0.9,0.3-1.5,0.9-2.2,1.5c-1.1,0.9-2.1,1.5-3.4,1.9c-1.7,0.4-3.4,0.7-5.1,1
				c-2.5,0.5-6.1,1.7-5.3,5c0.8,3,4.4,3.2,6.9,2.8c1.5-0.2,3-0.6,4.4-1.3c1-0.5,2-1.1,3-1.5c1.3-0.4,2.7-0.2,4.1-0.1
				c2.8,0.2,5.6-0.3,8.3-0.8c2.6-0.4,4.5-1.6,6.6-3.1c0.9-0.6,0.1-2.1-0.9-1.5c-1.6,1.1-3.1,2.2-5,2.7c-2.1,0.5-4.5,0.8-6.7,1
				c-2.1,0.2-4.3-0.4-6.4,0c-1.8,0.4-3.3,1.6-5.1,2.2c-1.9,0.6-5.4,1.6-7.1,0.1c-1-0.8-0.8-2.1,0.2-2.8c1.1-0.7,2.5-1,3.8-1.2
				c1.7-0.3,3.5-0.6,5.2-1.1c0.9-0.3,1.8-0.7,2.5-1.3c0.9-0.7,1.6-1.6,2.7-2.1C66.9,29.3,66.4,28,65.5,28.3L65.5,28.3z"/>
		</g>
	</g>
	<g>
		<g>
			<path class="st0" d="M51.8,39.7c-1.1,1.7-2.1,3.4-3.2,5.1c-0.6,0.8-1.2,1.5-1.9,2.1c-0.3,0.3-0.7,0.6-1,0.9c0,0-0.4,0.2-0.2,0.3
				c-0.1-0.1,0-0.7,0-0.8c0.1-1,0.7-1.9,1.1-2.8c0.5-1,1-2,1.5-3c1.1-2.1,2.4-4.2,3.7-6.1c1.3-1.8,2.5-3.7,3.8-5.5
				c1.3-1.9,2.9-3.2,5.1-3.7c2.8-0.6,5.8-0.4,8.6-0.4c3.1,0,6.3,0,9.4,0.3c1.1,0.1,1.1-1.7,0-1.7c-3.3-0.3-6.7-0.3-10-0.3
				c-3.3,0-7.1-0.3-10.2,1.1c-2.2,1-3.6,2.8-4.9,4.7c-1.6,2.3-3.3,4.5-4.8,6.8c-1.4,2.2-2.5,4.5-3.7,6.9c-0.7,1.4-2.2,4-1,5.5
				c2.6,3.2,8.1-7.1,9.1-8.6C53.7,39.7,52.3,38.9,51.8,39.7L51.8,39.7z"/>
		</g>
	</g>
	<g>
		<g>
			<path class="st0" d="M44.8,48c-0.8,0.1-1.1,0.9-0.9,1.7c0.2,0.8,0.9,1.3,1.7,1.4c1.8,0.4,3.4-1,4.6-2.2c0.7-0.6,1.1-1.4,1.7-2.1
				c0.6-0.8,1.1-1.6,1.6-2.4c0.3-0.4,0.5-0.9,0.8-1.3c0.3-0.3,0.6-0.7,0.8-1c0.5-0.6,1.1-1.3,1.4-2.1c0.2-0.4-0.2-1-0.6-1.1
				c-0.5-0.1-0.9,0.2-1.1,0.6c-0.2,0.5-0.6,0.9-0.9,1.3c-0.4,0.6-0.9,1.1-1.3,1.7c-0.8,1.2-1.5,2.4-2.4,3.5
				c-0.4,0.5-0.7,1.1-1.2,1.5c-0.5,0.4-1,0.9-1.5,1.2c-0.4,0.3-1,0.6-1.5,0.6c-0.2,0-0.5-0.1-0.6-0.2c0,0,0-0.2,0-0.2
				C45.7,48.6,45.3,47.9,44.8,48L44.8,48z"/>
		</g>
	</g>
	<g>
		<g>
			<path class="st0" d="M51.7,45.9c0.7,0.8,1.8,0.7,2.6,0.3c0.8-0.4,1.3-1,1.8-1.7c0.6-0.8,1.3-1.6,1.8-2.5c0.2-0.4,0.5-0.8,0.7-1.1
				c0.2-0.4,0.4-0.7,0.7-1c0.8-0.8-0.4-2-1.2-1.2c-0.6,0.6-0.9,1.3-1.4,2c-0.4,0.7-0.9,1.5-1.5,2.1c-0.3,0.3-0.6,0.8-0.8,1.1
				c-0.1,0.1-0.5,0.5-0.6,0.5c-0.1,0.1-0.3,0.2-0.4,0.3c-0.1,0.1,0,0-0.1,0.1c-0.1,0-0.1,0-0.2,0.1c-0.1,0-0.2,0-0.1,0
				c-0.1,0-0.2,0-0.3,0c0.2,0-0.1,0-0.1,0c0.1,0-0.3-0.1-0.1,0c-0.4-0.2-0.8-0.1-1,0.2C51.4,45.2,51.4,45.6,51.7,45.9L51.7,45.9z"/>
		</g>
	</g>
	<g>
		<g>
			<path class="st0" d="M58.1,64.1c0.9-0.3,1.5-0.9,2.2-1.5c1.1-0.9,2.1-1.5,3.4-1.9c1.7-0.4,3.4-0.7,5.1-1c2.5-0.5,6.1-1.7,5.3-5
				c-0.8-3-4.4-3.2-6.9-2.8c-1.5,0.2-3,0.6-4.4,1.3c-1,0.5-2,1.1-3,1.5c-1.3,0.4-2.7,0.2-4.1,0.1c-2.8-0.2-5.6,0.3-8.3,0.8
				c-2.6,0.4-4.5,1.6-6.6,3.1c-0.9,0.6-0.1,2.1,0.9,1.5c1.6-1.1,3.1-2.2,5-2.7c2.1-0.5,4.5-0.8,6.7-1c2.1-0.2,4.3,0.4,6.4,0
				c1.8-0.4,3.3-1.6,5.1-2.2c1.9-0.6,5.4-1.6,7.1-0.1c1,0.8,0.8,2.1-0.2,2.8c-1.1,0.7-2.5,1-3.8,1.2c-1.7,0.3-3.5,0.6-5.2,1.1
				c-0.9,0.3-1.8,0.7-2.5,1.3c-0.9,0.7-1.6,1.6-2.7,2.1C56.8,63,57.3,64.4,58.1,64.1L58.1,64.1z"/>
		</g>
	</g>
	<g>
		<g>
			<path class="st0" d="M71.9,52.6c1.1-1.7,2.1-3.4,3.2-5.1c0.6-0.8,1.2-1.5,1.9-2.1c0.3-0.3,0.7-0.6,1-0.9c0,0,0.4-0.2,0.2-0.3
				c0.1,0.1,0,0.7,0,0.8c-0.1,1-0.7,1.9-1.1,2.8c-0.5,1-1,2-1.5,3c-1.1,2.1-2.4,4.2-3.7,6.1c-1.3,1.8-2.5,3.7-3.8,5.5
				c-1.3,1.9-2.9,3.2-5.1,3.7c-2.8,0.6-5.8,0.4-8.6,0.4c-3.1,0-6.3,0-9.4-0.3c-1.1-0.1-1.1,1.7,0,1.7c3.3,0.3,6.7,0.3,10,0.3
				c3.3,0,7.1,0.3,10.2-1.1c2.2-1,3.6-2.8,4.9-4.7c1.6-2.3,3.3-4.5,4.8-6.8c1.4-2.2,2.5-4.5,3.7-6.9c0.7-1.4,2.2-4,1-5.5
				c-2.6-3.2-8.1,7.1-9.1,8.6C70,52.7,71.4,53.4,71.9,52.6L71.9,52.6z"/>
		</g>
	</g>
	<g>
		<g>
			<path class="st0" d="M78.9,44.4c0.8-0.1,1.1-0.9,0.9-1.7c-0.2-0.8-0.9-1.3-1.7-1.4c-1.8-0.4-3.4,1-4.6,2.2
				c-0.7,0.6-1.1,1.4-1.7,2.1c-0.6,0.8-1.1,1.6-1.6,2.4c-0.3,0.4-0.5,0.9-0.8,1.3c-0.3,0.3-0.6,0.7-0.8,1c-0.5,0.6-1.1,1.3-1.4,2.1
				c-0.2,0.4,0.2,1,0.6,1.1c0.5,0.1,0.9-0.2,1.1-0.6c0.2-0.5,0.6-0.9,0.9-1.3c0.4-0.6,0.9-1.1,1.3-1.7c0.8-1.2,1.5-2.4,2.4-3.5
				c0.4-0.5,0.7-1.1,1.2-1.5c0.5-0.4,1-0.9,1.5-1.2c0.4-0.3,1-0.6,1.5-0.6c0.2,0,0.5,0.1,0.6,0.2c0,0,0,0.2,0,0.2
				C78,43.7,78.4,44.4,78.9,44.4L78.9,44.4z"/>
		</g>
	</g>
	<g>
		<g>
			<path class="st0" d="M72,46.5c-0.7-0.8-1.8-0.7-2.6-0.3c-0.8,0.4-1.3,1-1.8,1.7c-0.6,0.8-1.3,1.6-1.8,2.5
				c-0.2,0.4-0.5,0.8-0.7,1.1c-0.2,0.4-0.4,0.7-0.7,1c-0.8,0.8,0.4,2,1.2,1.2c0.6-0.6,0.9-1.3,1.4-2c0.4-0.7,0.9-1.5,1.5-2.1
				c0.3-0.3,0.6-0.8,0.8-1.1c0.1-0.1,0.5-0.5,0.6-0.5c0.1-0.1,0.3-0.2,0.4-0.3c0.1-0.1,0,0,0.1-0.1c0.1,0,0.1,0,0.2-0.1
				c0.1,0,0.2,0,0.1,0c0.1,0,0.2,0,0.3,0c-0.2,0,0.1,0,0.1,0c-0.1,0,0.3,0.1,0.1,0c0.4,0.2,0.8,0.1,1-0.2
				C72.3,47.2,72.2,46.8,72,46.5L72,46.5z"/>
		</g>
	</g>
</g>
</svg>
