<?xml version="1.0" encoding="utf-8"?>
<!-- Generator: Adobe Illustrator 24.0.1, SVG Export Plug-In . SVG Version: 6.00 Build 0)  -->
<svg version="1.1" id="Calque_1" xmlns="http://www.w3.org/2000/svg" xmlns:xlink="http://www.w3.org/1999/xlink" x="0px" y="0px"
	 viewBox="0 0 122 122" style="enable-background:new 0 0 122 122;" xml:space="preserve">
<style type="text/css">
	.st0{fill:#91D902;}
</style>
<g>
	<path d="M101.5,6.9c-0.7-4.4-4.8-7.4-9.3-6.8l-76.6,11c-3,0.5-5.1,3.3-4.7,6.3l7.2,48.5c0.6,3.8,2,7.4,4.2,10.5
		c6.8,9.8,22.1,31.8,25.8,36.8c0.9,1.4,3.6,5.5,5.4,8.1c0.7,1,2.2,0.8,2.6-0.3c1.2-3.5,3.2-9.3,4.2-11.7c2.2-5.5,5.6-16.1,6.6-19.3
		c0.2-0.6,0.7-1,1.3-1.2l4.6-0.8l20.9-3.9l14.1-2.9c3-0.5,5.1-3.3,4.6-6.4C109.7,57.4,101.5,6.9,101.5,6.9"/>
</g>
<g>
	<g>
		<g>
			<path class="st0" d="M48,51.2c0.3,0.1,0.6,0.1,0.9,0.1c0.3,0,0.9-0.3,1.1-0.1c-0.3-0.1,0,0.3,0,0.6c0,0.3,0,0.6,0,0.9
				c0.1,2,0,4,0,6c-0.1,4.3,0.1,8.6,0.1,12.9c0,1.1,1.7,1.1,1.7,0c0-4.9-0.2-9.8-0.1-14.7c0-1.9,0.1-3.8-0.2-5.6
				c-0.1-0.5-0.3-1.1-0.8-1.4c-0.8-0.4-1.6,0.2-2.4,0C47.5,49.6,47.2,50.8,48,51.2L48,51.2z"/>
		</g>
	</g>
	<g>
		<g>
			<path class="st0" d="M73.9,49.7c0.3,0.1,0.6,0.1,0.9,0.1c0.3,0,0.9-0.3,1.1-0.1c-0.3-0.1,0,0.3,0,0.6c0,0.3,0,0.6,0,0.9
				c0.1,2,0,4,0,6c-0.1,4.2,0.1,8.3,0.1,12.5c0,1.1,1.7,1.1,1.7,0c0-4.8-0.2-9.5-0.1-14.3c0-1.9,0.1-3.8-0.2-5.6
				c-0.1-0.5-0.3-1.1-0.8-1.4c-0.8-0.4-1.6,0.2-2.4,0C73.4,48.1,73.1,49.4,73.9,49.7L73.9,49.7z"/>
		</g>
	</g>
	<g>
		<g>
			<path class="st0" d="M47.4,50.6c-0.2,1.7-0.1,3.4-0.1,5.1c0,1.8,0.1,3.6,0.2,5.4c0.1,3.6,0.2,7.1,0.4,10.7c0,0.5,0.4,0.8,0.8,0.8
				c2.5,0.1,5-0.5,7.5-0.8c1.3-0.1,2.7-0.3,4-0.5c1.4-0.1,2.8-0.1,4.2-0.1c2.7,0,5.4-0.4,8.1-0.6c1-0.1,2.1-0.2,3.1-0.2
				c0.6,0,1.4,0,1.8-0.4c0.7-0.8-0.4-2-1.2-1.2c0.2-0.2-0.4-0.1-0.6,0c-0.4,0-0.7,0-1.1,0c-1.2,0.1-2.5,0.1-3.7,0.2
				c-2.6,0.2-5.1,0.5-7.7,0.5c-2.5,0-5,0.3-7.5,0.6c-2.3,0.2-4.7,0.8-7,0.7c0.3,0.3,0.6,0.6,0.8,0.8c-0.2-3.6-0.3-7.1-0.5-10.7
				c-0.1-1.8-0.1-3.6-0.2-5.4c0-1.7,0-3.4-0.2-5.1C48.7,49.9,47.5,49.9,47.4,50.6L47.4,50.6z"/>
		</g>
	</g>
	<g>
		<g>
			<path class="st0" d="M73.5,49.1c-0.4,1.6,0,3.5,0,5.1c0.1,1.8-0.1,3.7-0.1,5.5c0,1.8,0,3.6-0.1,5.4c0,0.8-0.1,1.6-0.1,2.4
				c0,0.5,0.1,1.1,0,1.7c-0.2,1,1.4,1.5,1.6,0.4c0.3-1.3,0-2.7,0.1-4c0.1-1.8,0.1-3.7,0.1-5.5c0-1.8,0.2-3.7,0.1-5.5
				c0-1.8,0.1-3.8-0.4-5.5C74.7,48.4,73.7,48.4,73.5,49.1L73.5,49.1z"/>
		</g>
	</g>
	<g>
		<g>
			<path class="st0" d="M51.3,54.5c0.6,0.2,1.3,0.1,1.9-0.1c0.8-0.2,1.5-0.2,2.4-0.2c2.1,0,4.2-0.3,6.3-0.3c3.9,0,7.9,0,11.8-0.2
				c-0.2-0.1-0.4-0.1-0.5-0.2c0,0,0,0,0,0c0.8,0.6,1.7-0.3,1.1-1.1c-0.3-0.4-0.9-0.3-1.3-0.3c-1.1,0-2.2,0.1-3.2,0.1
				c-2.2,0.1-4.4,0.1-6.6,0.1c-2.1,0-4.2,0.1-6.4,0.3c-1,0.1-2-0.1-3,0.1c-0.6,0.1-1.4,0.5-2,0.3C50.7,52.8,50.4,54.2,51.3,54.5
				L51.3,54.5z"/>
		</g>
	</g>
	<g>
		<g>
			<path class="st0" d="M47.1,53.2c-0.4,0.1-1.6,0.4-1.7,0.2c-0.2-0.3,0.1-1.4,0.1-1.7c0-0.4,0-0.9,0-1.3c0-0.2,0.1-0.9,0-1.1
				c0-0.1,0-0.1,0-0.2c-0.2,0.1-0.4,0.2-0.5,0.3c0,0,0.3,0,0.3,0c0.5,0.1,1.2-0.1,1.8-0.2c1.8-0.1,3.6-0.2,5.4-0.2
				c6-0.1,12-0.5,18-0.8c2.3-0.1,4.6-0.3,6.9-0.6c0.4,0,1.2-0.3,1.5-0.2c0.3,0.1,0.2,0.5,0.2,0.9c0.1,1.3,0.2,2.5,0.2,3.8
				c0.3-0.3,0.5-0.5,0.8-0.8c-0.5,0-1-0.1-1.5-0.1c-0.3,0-0.8,0.3-1.1,0.1c-0.9-0.6-1.7,0.8-0.8,1.4c0.5,0.3,0.9,0.3,1.4,0.3
				c0.7-0.1,1.3,0,2-0.1c0.4,0,0.8-0.4,0.8-0.8c0-1.3-0.1-2.5-0.2-3.8c-0.1-0.7,0.1-1.7-0.6-2.2c-0.6-0.5-1.4-0.3-2.1-0.2
				c-1.2,0.1-2.5,0.3-3.7,0.4c-4.5,0.3-9.1,0.6-13.6,0.8c-3.3,0.1-6.5,0.2-9.8,0.2c-1,0-2,0-3,0.1c-1,0.1-3.4-0.2-3.9,0.9
				c-0.4,0.9-0.2,2.1-0.2,3c0,0.8-0.2,1.6,0,2.4c0.4,1.7,2.6,1.4,3.9,0.8C48.5,54.2,47.9,53,47.1,53.2L47.1,53.2z"/>
		</g>
	</g>
	<g>
		<g>
			<path class="st0" d="M42.7,61.8c-0.3,0.6,0.1,1.4,0.4,2c0.2,0.4,0.3,0.8,0.5,1.1c0.1,0.1,0.1,0.3,0.2,0.4c0,0.1,0.1,0.2,0.1,0.2
				c0.1,0.2,0-0.1,0,0.1c0.9,2.3,2.2,4.6,3.7,6.6c0.3,0.4,0.7,0.5,1.1,0.3c0.4-0.2,0.6-0.8,0.3-1.1c-0.7-1-1.4-2-2-3
				c-0.6-1-1.2-2-1.6-3.1c-0.3-0.6-0.6-1.3-0.9-1.9c-0.2-0.3-0.3-0.6-0.5-0.9c0-0.1-0.1-0.1-0.1-0.2c0-0.1,0,0.1,0,0
				c0-0.1-0.1-0.2-0.1-0.3c0-0.1,0,0.2,0,0.1C43.8,61.4,43,61.3,42.7,61.8L42.7,61.8z"/>
		</g>
	</g>
	<g>
		<g>
			<path class="st0" d="M43.2,62.7c0.3,0,0.5,0,0.8,0c0,0,0.3,0,0.2,0c0,0,0.1,0,0.1,0c0,0-0.2-0.1-0.2-0.1c0.1,0.1,0.2,0.2,0.2,0.3
				c0.1,0.2,0.3,0.3,0.4,0.5c0,0,0.1,0.1,0.1,0.1c0.1,0.1,0,0,0-0.1c0,0,0,0.1,0.1,0.1c0.1,0.1,0.2,0.2,0.3,0.4
				c0.7,0.9,1.4,1.9,2.1,2.9c0.2,0.3,0.4,0.7,0.7,1c0.5,0.5,1.3,0.1,1.3-0.6c0-0.4-0.3-0.8-0.5-1.1c-0.3-0.5-0.7-1-1-1.4
				c-0.7-1-1.4-2-2.2-2.9c-0.1-0.2-0.3-0.3-0.4-0.4c-0.5-0.4-1.3-0.3-1.9-0.2c-0.3,0.1-0.6,0.4-0.6,0.7
				C42.7,62.3,42.9,62.7,43.2,62.7L43.2,62.7z"/>
		</g>
	</g>
	<g>
		<g>
			<path class="st0" d="M72.1,67.4C72.1,67.2,72.1,67.6,72.1,67.4c0-0.1,0-0.3,0-0.4c0-0.2-0.1-0.3-0.2-0.4
				c-0.1-0.2-0.2-0.5-0.4-0.7c-0.3-0.6-0.6-1.2-0.9-1.8c-0.1-0.3-0.3-0.6-0.4-0.9C70.1,63.1,70,63,70,62.8c0-0.1,0-0.1-0.1-0.2
				c0,0-0.1-0.2,0-0.1c0.1,0.1,0-0.1-0.1-0.2c-0.1-0.3-0.2-0.5-0.3-0.8c-0.2-0.5-0.5-1-0.7-1.5c-0.2,0.4-0.5,0.8-0.7,1.2
				c0.2,0,0.5,0,0.7,0c0.1,0,0.2,0,0.3,0c0,0-0.1-0.1,0.1,0.1c0.1,0.1,0.2,0.2,0.3,0.4c0.4,0.5,0.8,1,1.2,1.5c0.5,0.6,1,1.2,1.5,1.9
				c0.4,0.5,0.9,1.1,1.4,1.6c0.7,0.6,1.8-0.2,1.3-1c-0.4-0.7-1-1.3-1.5-1.9c-0.5-0.6-1.1-1.3-1.6-1.9c-0.4-0.5-0.8-1-1.2-1.4
				c-0.2-0.2-0.4-0.5-0.7-0.6c-0.5-0.3-1.1-0.2-1.7-0.2c-0.7,0-1,0.7-0.7,1.2c0.6,1.3,1.1,2.6,1.7,3.9c0.3,0.6,0.6,1.2,1,1.8
				c0.3,0.5,0.6,1.1,1.2,1.3C71.7,68.1,72,67.8,72.1,67.4L72.1,67.4z"/>
		</g>
	</g>
	<g>
		<g>
			<path class="st0" d="M51.7,69.4c0.9,0.1,1.8-0.1,2.7-0.2c0.9-0.1,1.8,0,2.8,0c0.9,0,1.7,0.1,2.6,0c0.9,0,1.7-0.2,2.6-0.3
				c3.6-0.1,7.2-0.8,10.9-0.9c1,0,1-1.6,0-1.6c-3.7,0-7.4,0.7-11,0.9c-0.8,0-1.6,0.2-2.4,0.3c-0.9,0-1.7,0-2.6,0
				c-1.9,0-3.7,0.1-5.6,0.4C50.6,68.2,50.9,69.4,51.7,69.4L51.7,69.4z"/>
		</g>
	</g>
	<g>
		<g>
			<path class="st0" d="M69.4,47.8c-0.1,0.4-0.1,0.8-0.1,1.3c0,0.4,0,0.8,0,1.1c0,0.3,0,0.7,0,1c0,0.2,0,0.3,0,0.5c0,0,0,0.3,0,0.1
				c0,0.1-0.1,0.3,0,0.1c0.3-0.1,0.6-0.2,0.9-0.4c0,0,0,0,0,0c0.2,0.1,0.3,0.2,0.5,0.4c-0.2-0.3-0.6-0.5-0.9-0.4
				c-0.4,0.1-0.6,0.4-0.6,0.8c0,0.3,0.2,0.6,0.4,0.7c0,0,0,0,0,0c0.4,0.2,0.9,0.1,1.1-0.3c0.2-0.4,0.2-0.9,0.2-1.3
				c0-0.4,0-0.7,0-1.1c0-0.8,0.1-1.7-0.2-2.5C70.4,47.2,69.6,47.2,69.4,47.8L69.4,47.8z"/>
		</g>
	</g>
	<g>
		<g>
			<path class="st0" d="M66.4,47.8c-0.3,0.4-0.2,0.9-0.2,1.4c0,0.4,0,0.8,0,1.1c0,0.3,0,0.6,0,0.9c0,0.1,0,0.3,0,0.4
				c0,0,0,0.1,0,0.1c0-0.1,0-0.1,0,0c0,0.1,0,0.1-0.1,0.2c-0.1,0.3,0.1,0.8,0.4,0.9c0.1,0,0.1,0.1,0.2,0.1c0.6,0,0.9-0.3,1-0.7
				c0-0.1,0-0.1,0-0.2c0-0.2,0.1-0.4,0.1-0.6c0-0.3,0-0.7-0.1-1c0-0.4,0-0.8-0.1-1.2c0-0.5,0-1-0.3-1.4
				C67.1,47.4,66.6,47.5,66.4,47.8L66.4,47.8z"/>
		</g>
	</g>
	<g>
		<g>
			<path class="st0" d="M58,47.9c-0.6,0.2-0.7,1-0.7,1.5c0,0.4,0,0.9,0.1,1.3c0,0.4,0,0.8,0,1.2c0,0.5-0.1,1.2,0.3,1.5
				c0.3,0.3,0.8,0.3,1.1,0c0.4-0.4,0.2-1,0.2-1.5c0-0.4-0.1-0.8-0.1-1.2c0-0.4-0.1-0.8-0.1-1.2c0-0.2,0-0.4,0-0.6
				c0-0.3,0-0.5-0.1-0.7C58.6,48,58.3,47.9,58,47.9L58,47.9z"/>
		</g>
	</g>
	<g>
		<g>
			<path class="st0" d="M54.6,48.1c-0.1,0.2-0.2,0.5-0.2,0.8c0,0.1,0,0.3,0.1,0.4c0,0,0,0.1,0,0.1c0,0,0,0.2,0,0.1
				c0-0.1,0,0.1,0,0.1c0,0.1,0,0.1,0,0.2c0,0.1,0,0.2,0,0.4c0,0.3,0,0.5,0,0.8c0,0.5,0,1,0.1,1.4c0,0.2,0,0.5,0,0.7
				c0.5,0,1.1,0,1.6,0c0,0,0,0,0,0c0-0.3-0.3-0.7-0.6-0.8c-0.2,0-0.3,0-0.4,0c-0.3,0.1-0.6,0.4-0.6,0.8c0,0,0,0,0,0
				c0,0.4,0.4,0.8,0.8,0.8c0.5,0,0.8-0.4,0.8-0.8c0-0.2,0-0.4,0-0.6c0-0.5-0.1-1-0.1-1.4c0-0.5-0.1-1-0.1-1.5c0-0.2-0.1-0.4-0.1-0.6
				c0-0.1-0.1-0.2-0.1-0.3c0,0,0-0.1,0-0.1c0,0.1,0-0.1,0-0.1c0-0.3-0.2-0.5-0.5-0.6C55.1,47.7,54.8,47.8,54.6,48.1L54.6,48.1z"/>
		</g>
	</g>
	<g>
		<g>
			<g>
				<path class="st0" d="M58.7,16.3c-3-0.4-5.3,0.8-7.7,2.4c-1.9,1.3-3.9,2.7-5,4.9c-0.5,1.1-0.7,2.2-0.7,3.4c0,1.5-0.1,3,0.6,4.4
					c1.1,2.4,3.6,4.2,5.9,5.5c5,2.9,10.8,1.7,15.7-0.9c2-1,3.7-2.4,4.4-4.6c0.7-2.1,0.9-4.7,0.5-6.8c-0.5-2.9-2.1-4.7-4.6-6.2
					c-0.6-0.4-1.3-0.7-2-1c-0.8-0.3-1.7-0.2-2.5-0.4c-1.6-0.4-3.1-0.8-4.8-1c-1.1-0.1-1.1,1.7,0,1.8c1.2,0.1,2.4,0.4,3.6,0.7
					c1.1,0.3,2.2,0.3,3.3,0.6c2,0.7,4.1,2.2,4.8,4.1c1.3,3.3,1,8.3-2.2,10.3c-3.5,2.3-8.7,4-12.8,2.7c-2.2-0.7-4.3-2.1-6-3.6
					c-2-1.8-2.3-4.1-2.1-6.7c0.2-2.5,2.3-4.2,4.2-5.5c2.3-1.6,4.4-2.9,7.3-2.9C59.3,17.8,59.6,16.4,58.7,16.3z"/>
			</g>
		</g>
		<g>
			<g>
				<path class="st0" d="M45.8,25.8c-0.3,3,2.1,5.7,4.3,7.4c1.2,0.9,2.4,1.7,3.8,2.3c1.5,0.6,3.2,0.8,4.8,0.8c3,0.1,5.8-0.9,8.5-2.2
					c1.2-0.6,2.2-1.4,3.2-2.4c0.8-0.7,1.9-1.7,2.1-2.9c0.2-1.1-1.5-1.6-1.7-0.5c-0.1,0.9-1.3,1.7-1.9,2.3c-0.8,0.8-1.6,1.4-2.7,1.9
					c-2.3,1.1-4.8,2-7.4,2c-1.5,0-3-0.1-4.4-0.6c-1.2-0.5-2.3-1.2-3.3-2c-2.2-1.6-3.7-3.6-4.1-6.4C47,24.7,45.8,25,45.8,25.8
					L45.8,25.8z"/>
			</g>
		</g>
		<g>
			<g>
				<path class="st0" d="M58.4,24.5c0.1,0.2,0.3,0.2,0.5,0.3c0.2,0.1,0.4,0,0.6,0c0,0,0.1,0,0.1,0c0.1,0,0.2-0.1,0.3-0.1
					c0.1-0.1,0.2-0.1,0.2-0.2c0,0,0.1-0.1,0.1-0.1c0.1-0.1,0.1-0.2,0.2-0.2c0-0.1,0.1-0.1,0.1-0.2c0-0.1,0.1-0.1,0.1-0.2
					c0-0.1,0-0.2,0.1-0.3c0,0,0-0.1,0-0.1c0-0.1,0-0.2-0.1-0.3c0,0,0-0.1,0-0.1c-0.1-0.1-0.2-0.2-0.3-0.3c0,0,0,0-0.1,0
					c-0.1-0.1-0.2-0.1-0.4-0.2c0,0-0.1,0-0.1,0c-0.1,0-0.2,0-0.3,0c0,0-0.1,0-0.1,0c-0.1,0-0.2,0-0.3,0c-0.2,0.1-0.4,0.2-0.6,0.3
					c-0.1,0.1-0.2,0.2-0.2,0.3c0,0-0.1,0.1-0.1,0.1c0,0.1-0.1,0.2-0.1,0.3c0,0.1,0,0.2-0.1,0.3c0,0.2,0,0.4,0.1,0.6
					c0.1,0.1,0.2,0.3,0.3,0.3c0.1,0.1,0.3,0.1,0.4,0.1c0.2,0,0.3,0,0.4-0.1c-0.1,0-0.1,0.1-0.2,0.1c0.1,0,0.3-0.1,0.3-0.2
					c0,0,0.1-0.1,0.1-0.2c0-0.1,0-0.1,0.1-0.2c0-0.1,0-0.2,0-0.3c0-0.1,0-0.1,0-0.2c0-0.1-0.1-0.2-0.1-0.2c-0.1-0.1-0.1-0.1-0.2-0.2
					c0.1,0,0.1,0.1,0.2,0.1c0-0.1-0.1-0.1-0.2-0.1c0.1,0,0.1,0.1,0.2,0.1c0,0,0,0,0,0c0,0.1,0.1,0.1,0.1,0.2c0-0.1-0.1-0.1-0.1-0.2
					c0,0.1,0.1,0.1,0.1,0.2c0-0.1-0.1-0.1-0.1-0.2c0,0.1,0.1,0.1,0.1,0.2c0,0,0,0,0,0c0,0.1,0.1,0.1,0.1,0.2c0,0,0-0.1,0-0.1
					c0,0.1,0,0.1,0,0.2c0,0,0-0.1,0-0.1c0,0.1,0,0.1,0,0.2c0-0.1,0-0.1,0.1-0.2c0,0.1-0.1,0.1-0.1,0.2c0-0.1,0.1-0.1,0.1-0.2
					c0,0.1-0.1,0.1-0.1,0.2c0,0,0.1-0.1,0.1-0.1c-0.1,0-0.1,0.1-0.2,0.1c0,0,0.1-0.1,0.1-0.1c-0.1,0-0.1,0.1-0.2,0.1
					c0,0,0.1,0,0.1,0c-0.1,0-0.1,0-0.2,0c0.1,0,0.1,0,0.2,0c-0.1,0-0.1,0-0.2,0c0.1,0,0.1,0,0.2,0.1c-0.1,0-0.1-0.1-0.2-0.1
					c0.1,0,0.2,0.1,0.3,0.1c-0.1,0-0.1-0.1-0.2-0.1c0,0,0,0,0,0c-0.1-0.2-0.2-0.3-0.4-0.5c0,0,0,0,0,0c0-0.1,0-0.1,0-0.2
					c0,0.1,0,0.1,0,0.2c0-0.1,0-0.1,0-0.2c0,0.1,0,0.1-0.1,0.2c0-0.1,0.1-0.1,0.1-0.2c0,0.1-0.1,0.1-0.1,0.2c0-0.1,0.1-0.1,0.1-0.2
					c0,0.1-0.1,0.1-0.2,0.2c0.1,0,0.1-0.1,0.2-0.1c0,0-0.1,0.1-0.1,0.1c0.1,0,0.1-0.1,0.2-0.1c0,0-0.1,0-0.1,0c0.1,0,0.1,0,0.2,0
					c-0.1,0-0.1,0-0.2,0c0.1,0,0.1,0,0.2,0c0,0-0.1,0-0.1,0c-0.1,0-0.2,0-0.3,0c0.1,0,0.1,0,0.2,0c0,0,0,0-0.1,0c-0.1,0-0.1,0-0.2,0
					c-0.1,0-0.2,0-0.3,0.1c-0.1,0-0.1,0-0.2,0.1c-0.1,0-0.1,0.1-0.2,0.2c-0.1,0.1-0.1,0.2-0.1,0.4c0,0.1,0,0.2,0.1,0.3
					C58.3,24.4,58.4,24.5,58.4,24.5L58.4,24.5z"/>
			</g>
		</g>
		<g>
			<g>
				<path class="st0" d="M60.7,20.9c-0.6-0.6-1.5-0.6-2.2-0.5c-0.8,0.1-1.5,0.4-2.2,0.8c-0.6,0.4-1.2,1.1-1.4,1.8
					c-0.2,0.8,0,1.6,0.5,2.3c0.9,1.2,2.5,1.7,3.9,1.6c1.4-0.1,3.1-0.7,3.8-2c0.5-0.9,0.4-2-0.2-2.9c-0.5-0.9-1.6-1.8-2.7-1.6
					c-0.8,0.2-0.8,1.4,0,1.6c0.1,0,0.3,0.1,0.4,0.1c0,0,0.2,0.1,0.1,0c0.1,0,0.1,0.1,0.2,0.1c0,0,0.2,0.2,0.1,0.1
					c0.1,0.1,0.1,0.1,0.2,0.2c0.2,0.2,0.1,0.1,0.3,0.4c0,0.1,0.1,0.1,0.1,0.2c0.1,0.2,0-0.1,0,0.1c0,0.1,0.1,0.3,0.1,0.4
					c0-0.2,0,0,0,0.1c0,0.1,0,0.1,0,0.2c0-0.2,0,0,0,0c0,0,0,0.1,0,0.1c0-0.1,0.1-0.1,0,0c-0.1,0.1-0.1,0.2-0.2,0.3
					c-0.1,0.2,0.1-0.1,0,0c0,0-0.1,0.1-0.1,0.1c0,0-0.1,0.1-0.1,0.1c-0.1,0.1,0.2-0.1,0,0c-0.1,0.1-0.2,0.1-0.3,0.2
					c-0.1,0-0.4,0.2-0.2,0.1c-0.1,0-0.2,0.1-0.4,0.1c-0.1,0-0.3,0.1-0.4,0.1c-0.1,0-0.1,0-0.2,0c-0.1,0-0.1,0,0,0c0,0-0.1,0-0.1,0
					c-0.3,0-0.5,0-0.8,0c-0.1,0-0.1,0-0.2,0c0,0-0.3,0,0,0c-0.2,0-0.3-0.1-0.5-0.1c-0.1,0-0.3-0.1-0.4-0.1c0,0-0.2-0.1,0,0
					c-0.1,0-0.1-0.1-0.2-0.1c-0.1-0.1-0.2-0.1-0.3-0.2c0,0-0.2-0.1-0.1,0c0.1,0.1-0.1-0.1-0.1-0.1c0,0-0.1-0.1-0.1-0.1
					c0,0-0.1-0.2,0,0c-0.1-0.1-0.1-0.2-0.2-0.3c-0.1-0.2,0.1,0.2,0,0c0-0.1,0-0.1-0.1-0.2c0-0.1,0-0.3,0,0c0-0.1,0-0.2,0-0.3
					c0-0.2-0.1,0.2,0,0c0-0.1,0-0.1,0-0.2c0-0.1,0,0,0,0c0-0.1,0.1-0.1,0.1-0.2c0-0.1,0.1-0.1,0.1-0.2c0.1-0.2-0.1,0.1,0,0
					c0.1-0.1,0.2-0.2,0.3-0.3c0.2-0.1-0.1,0.1,0,0c0.1-0.1,0.2-0.1,0.2-0.2c0.1-0.1,0.3-0.2,0.4-0.2c-0.2,0.1,0,0,0.1,0
					c0.1,0,0.1-0.1,0.2-0.1c0.2-0.1,0.3-0.1,0.5-0.1c0.1,0,0.1,0,0.2,0c0.1,0,0.1,0,0,0c0,0,0.1,0,0.1,0c0.2,0,0.3,0,0.5,0
					c0.1,0,0.1,0,0.2,0c0,0,0.1,0,0.1,0c-0.1,0-0.1,0,0,0c0.2,0.1,0.4,0.1,0.5,0.1C60.8,22.2,61.1,21.3,60.7,20.9L60.7,20.9z"/>
			</g>
		</g>
	</g>
</g>
</svg>
