<?xml version="1.0" encoding="utf-8"?>
<!-- Generator: Adobe Illustrator 24.0.1, SVG Export Plug-In . SVG Version: 6.00 Build 0)  -->
<svg version="1.1" id="Calque_1" xmlns="http://www.w3.org/2000/svg" xmlns:xlink="http://www.w3.org/1999/xlink" x="0px" y="0px"
	 viewBox="0 0 122 122" style="enable-background:new 0 0 122 122;" xml:space="preserve">
<style type="text/css">
	.st0{fill:#91D902;}
</style>
<g>
	<path d="M101.3,6.8C100.6,2.4,96.5-0.6,92,0L15.4,11c-3,0.5-5.1,3.3-4.7,6.3l7.2,48.5c0.6,3.8,2,7.4,4.2,10.5
		c6.8,9.8,22.1,31.8,25.8,36.8c0.9,1.4,3.6,5.5,5.4,8.1c0.7,1,2.2,0.8,2.6-0.3c1.2-3.5,3.2-9.3,4.2-11.7c2.2-5.5,5.6-16.1,6.6-19.3
		c0.2-0.6,0.7-1,1.3-1.2l4.6-0.8L93.5,84l14.1-2.9c3-0.5,5.1-3.3,4.6-6.4C109.5,57.3,101.3,6.8,101.3,6.8"/>
</g>
<g>
	<g>
		<g>
			<path class="st0" d="M63,58.8c0.5-0.5,1.1-0.8,1.5-1.3c0.7-0.8,1.4-1.5,2.1-2.3c1.5-1.5,3-3,4.4-4.6c-0.5-0.3-0.9-0.5-1.4-0.8
				c-0.3,1.4-0.2,2.7,0.8,3.7c0.9,1,2.3,1.7,3.6,1.7c-0.3-0.4-0.5-0.9-0.8-1.3c-0.5,1.2-0.6,2.4,0,3.6c0.3,0.5,0.6,1.1,1,1.5
				c0.4,0.5,1,0.5,1.5,0.9c0.1-0.5,0.3-1,0.4-1.5c-1,0.1-2,0.4-2.9,0.6c-1,0.2-2,0.4-3,0.5c-1,0.2-1.9,0.5-2.9,0.8c-1,0.3-2,0.7-3,1
				c-1.1,0.4-0.6,2.1,0.5,1.7c2-0.6,3.9-1.5,6-1.8c1-0.2,2-0.4,3-0.6c1-0.2,2-0.4,3-0.6c0.6-0.1,0.9-1.1,0.4-1.5
				c-0.3-0.3-0.7-0.4-1.1-0.6c-0.4-0.2-0.6-0.5-0.8-0.9c-0.5-0.7-0.7-1.6-0.3-2.4c0.3-0.6,0-1.3-0.8-1.3c-0.9,0-1.7-0.5-2.3-1.1
				c-0.7-0.7-0.6-1.5-0.5-2.4c0.1-0.7-1-1.1-1.4-0.6c-0.6,0.8-1.4,1.5-2.2,2.3c-0.7,0.8-1.5,1.5-2.2,2.3c-0.7,0.7-1.4,1.5-2,2.2
				c-0.5,0.5-1.1,0.9-1.6,1.4C61.2,58.4,62.2,59.5,63,58.8L63,58.8z"/>
		</g>
	</g>
	<g>
		<g>
			<path class="st0" d="M63.7,61c0.7-0.1,1.4-0.7,2.1-1.1c0.9-0.5,1.7-1,2.6-1.5c1-0.5,1.9-1.1,2.9-1.6c0.8-0.5,1.6-1.2,2.5-1.4
				c1.1-0.3,0.6-1.9-0.5-1.6c-0.9,0.3-1.7,0.9-2.5,1.4c-1,0.6-2,1.1-2.9,1.7c-1.6,0.9-3.2,1.7-4.6,2.8C62.4,60.2,62.9,61.2,63.7,61
				L63.7,61z"/>
		</g>
	</g>
	<g>
		<g>
			<path class="st0" d="M65.8,54.9c0.1,0.5,0.4,1,0.6,1.5c0.2,0.5,0.4,0.9,0.7,1.4c0.3,0.5,0.5,0.9,0.8,1.4c0.1,0.2,0.3,0.5,0.4,0.7
				c0.1,0.3,0.2,0.4,0.3,0.6c0.1,0.4,0.6,0.8,1.1,0.6c0.4-0.1,0.8-0.6,0.6-1.1c-0.4-1.1-1-2.1-1.6-3.1c-0.3-0.5-0.5-1-0.7-1.4
				c-0.3-0.5-0.5-1.2-1.1-1.5C66.6,54,66.2,54,66,54.2C65.8,54.4,65.7,54.6,65.8,54.9L65.8,54.9z"/>
		</g>
	</g>
	<g>
		<g>
			<path class="st0" d="M63.7,56.2c-0.3,0.5,0.1,1.1,0.3,1.5c0.2,0.4,0.4,0.7,0.7,1.1c0.6,0.9,1.1,1.9,1.6,2.8
				c0.2,0.4,0.8,0.6,1.2,0.3c0.4-0.3,0.5-0.8,0.3-1.2c-0.5-1-1.1-2-1.7-3c-0.2-0.3-0.5-0.7-0.7-1c-0.1-0.2-0.3-0.4-0.4-0.6
				C64.6,55.7,64,55.7,63.7,56.2L63.7,56.2z"/>
		</g>
	</g>
	<g>
		<g>
			<path class="st0" d="M62.6,57.4c-0.9-0.3-1.9-0.4-2.8-0.2c-0.9,0.2-1.8,0.8-2.4,1.6C56.3,60.3,56,62.3,57,64
				c0.9,1.5,2.6,2.4,4.4,2.4c1,0,2-0.5,2.8-1c0.8-0.5,1.4-1.2,1.5-2.2c0-0.5-0.2-1-0.4-1.5c-0.3-0.4-0.4-0.9-0.6-1.4
				c-0.1-0.2-0.3-0.4-0.4-0.7c-0.1-0.1-0.1-0.2-0.2-0.3c0,0-0.2-0.5-0.1-0.3c-0.2-0.5-0.4-1-0.8-1.4c-0.3-0.3-0.8-0.3-1.1-0.1
				c-0.3,0.3-0.5,0.8-0.2,1.1c0.4,0.6,0.6,1.2,1,1.9c0.2,0.3,0.3,0.5,0.5,0.8c0.2,0.4,0.3,0.8,0.5,1.1c0.2,0.3,0.3,0.4,0.2,0.7
				c0-0.1-0.1,0.2-0.1,0.2c-0.1,0.2-0.1,0.2-0.2,0.3c-0.2,0.1-0.3,0.3-0.6,0.4c-0.3,0.2-0.6,0.3-1,0.5c-1.2,0.4-2.4-0.1-3.2-0.9
				c-0.8-0.9-0.9-2.1-0.3-3.2c0.4-0.6,0.9-1.1,1.6-1.4c0.7-0.2,1.4-0.1,2.1,0.1C63.2,59.3,63.6,57.8,62.6,57.4L62.6,57.4z"/>
		</g>
	</g>
	<g>
		<g>
			<path class="st0" d="M62.2,35.2c-1-2.4-0.9-4.4,0.3-6.7c0.5-1,1-2,1.8-2.7c0.8-0.8,1.8-1.4,2.7-2c1.9-1.4,3.8-2.5,6.1-3
				c2.2-0.5,4.6-0.3,6.6,0.7c2,1,3.8,3.1,4,5.3c0.2,2.1-0.6,4.8-1.4,6.7c-0.8,2-2.2,3.4-3.7,4.9c-1.4,1.4-2.8,3-4.7,3.7
				c-1.3,0.5-2.6,0.4-3.9,0.1c-1.3-0.3-2.1-1-3.2-1.7c-2.1-1.4-3.4-3.3-4.4-5.6c-0.5-1-2-0.1-1.5,0.9c2,4.6,6.6,9,11.9,8.4
				c2.4-0.3,4.2-1.7,5.8-3.3c1.8-1.8,3.7-3.5,4.9-5.8c1.1-2.3,2-5.3,2-7.9c0-2.4-1.5-4.8-3.4-6.3c-4.2-3.3-10.6-2.5-14.7,0.5
				c-1.2,0.9-2.4,1.8-3.6,2.7c-1.2,1-1.9,2.2-2.6,3.5c-1.4,2.8-1.5,5.3-0.3,8.2C61.1,36.6,62.5,36,62.2,35.2z"/>
		</g>
	</g>
	<g>
		<g>
			<path class="st0" d="M61.5,34.2c0.4-0.5,0.9-0.8,1.3-1.2c0.6-0.5,1.1-1.1,1.7-1.6c1.3-1.2,2.7-2.3,3.9-3.6
				c0.6-0.6,1.1-1.3,1.7-1.8c0.6-0.6,1.2-1.1,1.8-1.7c0.6-0.6,1.3-1.3,1.8-2c0.3-0.4,0.6-1.1,1-1.3c1-0.4,0.1-1.9-0.8-1.4
				c-0.6,0.3-0.9,0.9-1.2,1.4c-0.4,0.7-1,1.3-1.6,1.9c-0.6,0.6-1.3,1.2-1.9,1.8c-0.7,0.6-1.3,1.3-1.9,2c-1.2,1.4-2.7,2.5-4,3.8
				c-0.6,0.6-1.1,1.2-1.7,1.7c-0.5,0.4-1,0.8-1.3,1.4C59.9,34,61,34.8,61.5,34.2L61.5,34.2z"/>
		</g>
	</g>
	<g>
		<g>
			<path class="st0" d="M63.4,37.8c0.1-0.3,1-1,1.3-1.3c0.7-0.7,1.4-1.5,2.2-2.2c1.5-1.5,3.2-2.9,4.7-4.5c1.5-1.5,2.7-3.2,4.4-4.5
				c0.8-0.6,1.6-1.3,2.3-2.1c0.7-0.7,1.3-1.5,2.1-2c1-0.5,0.1-2-0.9-1.5c-0.9,0.5-1.5,1.2-2.2,1.9c-0.8,0.8-1.6,1.6-2.5,2.3
				c-1.8,1.4-3.1,3.3-4.7,4.9c-1.6,1.6-3.4,3.1-5,4.7c-0.7,0.7-1.5,1.5-2.2,2.3c-0.4,0.4-1,0.9-1.1,1.5
				C61.8,38.3,63.1,38.7,63.4,37.8L63.4,37.8z"/>
		</g>
	</g>
	<g>
		<g>
			<path class="st0" d="M66.2,40.8c0.4-0.6,1.2-1.2,1.8-1.7c0.8-0.7,1.5-1.3,2.3-2c1.5-1.5,3.1-3,4.6-4.5c1.5-1.5,2.9-3,4.4-4.5
				c0.8-0.8,1.5-1.5,2.3-2.3c0.6-0.6,1-1.3,1.7-1.7c0.9-0.6,0.1-2.1-0.9-1.5c-0.7,0.5-1.2,1.1-1.8,1.7c-0.7,0.8-1.5,1.6-2.3,2.3
				c-1.6,1.6-3.1,3.2-4.7,4.8c-1.6,1.6-3.2,3.2-4.8,4.7c-0.8,0.7-1.6,1.4-2.4,2.1c-0.6,0.6-1.2,1.1-1.4,1.9
				C64.7,41.1,65.7,41.5,66.2,40.8L66.2,40.8z"/>
		</g>
	</g>
	<g>
		<g>
			<path class="st0" d="M69.9,43.3c0.6-0.3,1.1-1,1.5-1.5c0.6-0.7,1.1-1.4,1.8-2.1c1.4-1.2,2.8-2.3,4-3.7c1.2-1.4,2.4-2.6,3.8-3.9
				c0.7-0.7,1.4-1.4,2-2.1c0.5-0.6,1-1.4,1.7-1.8c0.9-0.6,0-2.1-0.9-1.5c-0.7,0.5-1.3,1.2-1.8,1.8c-0.6,0.8-1.3,1.5-2,2.2
				c-1.4,1.4-2.8,2.7-4,4.2c-1.3,1.5-2.8,2.6-4.2,3.9c-0.7,0.6-1.1,1.4-1.7,2.1c-0.5,0.6-1.3,1-1.1,1.9
				C69.1,43.3,69.6,43.5,69.9,43.3L69.9,43.3z"/>
		</g>
	</g>
	<g>
		<g>
			<path class="st0" d="M60.9,30c0.5,1.4,1.5,2.5,2.7,3.3c0.6,0.4,1.2,0.8,1.7,1.3c0.6,0.6,1.1,1.2,1.7,1.8c1.1,1.1,2.3,2.2,3.5,3.3
				c0.5,0.5,1,1.1,1.5,1.6c0.4,0.4,1,0.8,1.2,1.3c0.4,1,2,0.6,1.6-0.5c-0.2-0.6-0.7-1.1-1.2-1.6c-0.5-0.5-0.9-1-1.4-1.5
				c-1.1-1.2-2.4-2.3-3.6-3.5c-1.1-1.1-2.2-2.3-3.5-3.3C64.7,32,64,31.6,63.5,31c-0.5-0.5-0.9-1.2-1.5-1.7
				C61.6,29,60.7,29.3,60.9,30L60.9,30z"/>
		</g>
	</g>
	<g>
		<g>
			<path class="st0" d="M63.5,26.3c0.8,1.4,2.1,2.6,3.2,3.7c0.6,0.6,1.1,1.3,1.7,1.9c0.6,0.6,1.3,1.2,1.9,1.8
				c1.3,1.2,2.2,2.7,3.5,3.9c0.6,0.6,1.3,1.1,1.8,1.7c0.2,0.2,0.4,0.4,0.6,0.6c0.1,0.1,0.2,0.2,0.3,0.3c0.1,0.1,0.2,0.4,0.2,0.1
				c0.1,1.1,1.8,1.1,1.7,0c-0.1-0.7-0.5-1.1-0.9-1.6c-0.5-0.6-1.1-1.1-1.7-1.6c-1.4-1.3-2.5-2.8-3.8-4.2c-0.6-0.7-1.4-1.3-2-1.9
				c-0.7-0.7-1.3-1.4-1.9-2.1c-0.6-0.7-1.3-1.3-1.8-2c-0.6-0.7-1.1-1.4-1.9-1.7C63.7,25.1,63.2,25.8,63.5,26.3L63.5,26.3z"/>
		</g>
	</g>
	<g>
		<g>
			<path class="st0" d="M66.7,23.6c0.3,0.6,0.8,1.1,1.3,1.5c0.5,0.6,1,1.2,1.6,1.8c1.1,1.2,2.3,2.1,3.4,3.3c1.2,1.2,2.5,2.2,3.7,3.4
				c1.3,1.2,2.5,2.5,3.8,3.7c-0.1-0.3-0.1-0.5-0.2-0.8c0-0.1,0.1-0.1,0.1-0.2c-0.5,0.7,0.2,1.9,1,1.3c0.2-0.1,0.3-0.3,0.4-0.5
				c0.2-0.3,0.1-0.8-0.1-1c-1.2-1.1-2.4-2.4-3.6-3.5c-1.2-1.2-2.5-2.2-3.7-3.4c-1.1-1.1-2.3-2-3.3-3.1c-0.6-0.6-1-1.2-1.6-1.8
				c-0.2-0.3-0.5-0.5-0.7-0.8c-0.2-0.2-0.6-0.4-0.8-0.7C67.4,22.2,66.4,22.8,66.7,23.6L66.7,23.6z"/>
		</g>
	</g>
	<g>
		<g>
			<path class="st0" d="M70.5,21.1c0.4,1.3,1.8,2.3,2.7,3.3c1.2,1.1,2.3,2.3,3.5,3.4c1.2,1.1,2.5,1.9,3.6,3c0.5,0.4,1,0.9,1.5,1.3
				c0.2,0.1,0.3,0.3,0.5,0.5c0.1,0.1,0.2,0.2,0.3,0.3c0.1,0.1,0,0.4,0-0.3c0.1,1.1,1.7,1.1,1.7,0c0-0.9-1.2-1.6-1.8-2.2
				c-1.2-1.1-2.5-2.1-3.8-3.2c-1.3-1-2.3-2.3-3.6-3.4c-0.6-0.6-1.2-1.1-1.8-1.7c-0.5-0.5-1-0.9-1.4-1.5
				C71.4,19.8,70.2,20.3,70.5,21.1L70.5,21.1z"/>
		</g>
	</g>
	<g>
		<g>
			<path class="st0" d="M75.8,20.6c0.3,0.2,0.5,0.5,0.7,0.8c0.3,0.4,0.6,0.7,0.9,1.1c0.7,0.8,1.5,1.4,2.3,2.1
				c0.8,0.7,1.5,1.4,2.3,2.1c0.7,0.7,1.4,1.5,2.2,2.1c-0.1-0.4-0.2-0.8-0.3-1.2c0,0,0,0,0,0.1c0.1-0.1,0.2-0.2,0.3-0.3
				c0,0,0,0-0.1,0c-0.8,0.5-0.3,1.7,0.6,1.5c0.1,0,0.2-0.1,0.3-0.1c0.4-0.3,0.6-1,0.2-1.3c-0.8-0.6-1.4-1.3-2.1-2.1
				c-0.8-0.8-1.6-1.5-2.4-2.2c-0.8-0.7-1.6-1.4-2.3-2.1c-0.6-0.7-1.1-1.5-2-1.8c-0.3-0.1-0.7,0.1-0.9,0.4
				C75.4,20,75.5,20.4,75.8,20.6L75.8,20.6z"/>
		</g>
	</g>
	<g>
		<g>
			<path class="st0" d="M50.5,54.2c2.5-2.2,4.8-4.5,6.9-7.1c2.1-2.5,4.8-4.5,6.9-7c0.7-0.8-0.4-1.9-1.1-1.1c-2.2,2.5-4.8,4.5-6.9,7
				c-1.1,1.3-2.1,2.5-3.3,3.7c-1.2,1.1-2.5,2.2-3.5,3.4C48.9,53.9,49.8,54.8,50.5,54.2L50.5,54.2z"/>
		</g>
	</g>
	<g>
		<g>
			<path class="st0" d="M50,54.2c-0.8-0.7-1.1-1.7-2.4-1.8c-1.2-0.1-2.2,0.8-3,1.6c-1.1,1.1-2,2.2-3.1,3.3c-1,1-2.2,1.8-3.1,2.9
				c-0.9,1-1.3,2.2-0.5,3.4c0.7,0.9,1.5,2,2.7,2.2c1.2,0.3,2.4-0.5,3.3-1.2c1.1-0.8,2-1.9,2.9-2.8c1.2-1.2,2.4-2.4,3.6-3.7
				c0.5-0.5,1-1.1,0.8-1.9c-0.2-0.7-0.8-1.2-1.2-1.8c-0.6-0.9-2.1,0-1.5,0.9c0.3,0.4,0.7,0.7,1,1.2c0.2,0.3,0.1,0.1,0.1,0
				c0,0-0.1,0.1-0.1,0.2c-0.2,0.2-0.4,0.4-0.6,0.7c-0.8,0.9-1.7,1.8-2.5,2.6c-0.9,0.9-1.7,1.8-2.6,2.6c-0.6,0.6-1.3,1.2-2.1,1.5
				c-0.8,0.3-1.5-0.4-2-1c-0.2-0.2-0.5-0.5-0.5-0.8c0-0.4,0.5-0.8,0.7-1.1c0.8-0.8,1.7-1.5,2.5-2.3c0.9-0.9,1.7-1.8,2.5-2.7
				c0.6-0.7,1.5-1.9,2.4-2.1c0.4-0.1,0.5,0.2,0.7,0.4c0.3,0.3,0.6,0.7,1,0.9C49.8,55.8,50.7,54.8,50,54.2L50,54.2z"/>
		</g>
	</g>
</g>
</svg>
