<?xml version="1.0" encoding="utf-8"?>
<!-- Generator: Adobe Illustrator 24.0.1, SVG Export Plug-In . SVG Version: 6.00 Build 0)  -->
<svg version="1.1" id="Calque_1" xmlns="http://www.w3.org/2000/svg" xmlns:xlink="http://www.w3.org/1999/xlink" x="0px" y="0px"
	 viewBox="0 0 122 122" style="enable-background:new 0 0 122 122;" xml:space="preserve">
<style type="text/css">
	.st0{fill:#91D902;}
</style>
<g>
	<path d="M101.7,6.8C101,2.4,96.9-0.6,92.4,0L15.8,11c-3,0.5-5.1,3.3-4.7,6.3l7.2,48.5c0.6,3.8,2,7.4,4.2,10.5
		c6.8,9.8,22.1,31.8,25.8,36.8c0.9,1.4,3.6,5.5,5.4,8.1c0.7,1,2.2,0.8,2.6-0.3c1.2-3.5,3.2-9.3,4.2-11.7c2.2-5.5,5.6-16.1,6.6-19.3
		c0.2-0.6,0.7-1,1.3-1.2l4.6-0.8L93.9,84l14.1-2.9c3-0.5,5.1-3.3,4.6-6.4C109.9,57.3,101.7,6.8,101.7,6.8"/>
</g>
<g>
	<g>
		<g>
			<path class="st0" d="M48.8,62.8c3.4-3.2,6.1-6.9,8.8-10.6c1.9-2.7,4-5.3,6.1-7.8c1.7-2.1,3.4-4.2,5.2-6.2
				c1.5-1.6,2.8-3.5,4.2-5.3c1.1-1.5,2.2-3.2,2.2-5.2c-0.1-2.1-1.6-3.2-3.1-4.3c-1.3-1-3-2.3-4.8-1.9c-2.7,0.6-3.7,4.1-5,6.1
				c-2.8,4.7-5.3,9.6-7.9,14.4c-1.3,2.3-2.5,4.6-3.7,6.9c-0.8,1.5-1.5,3-2.4,4.4c-1.3,2.1-3,4-4.2,6.1c-0.3,0.4-0.1,0.9,0.3,1.2
				c1.1,0.8,2.3,1.7,3.4,2.5c0.9,0.7,1.7-0.8,0.9-1.5c-1.1-0.8-2.3-1.7-3.4-2.5c0.1,0.4,0.2,0.8,0.3,1.2c1.1-1.8,2.4-3.3,3.5-5
				c0.8-1.2,1.5-2.4,2.1-3.6c1.2-2.2,2.4-4.5,3.6-6.7c2.5-4.6,5-9.2,7.5-13.8c0.9-1.7,1.9-3.4,2.8-5.1c0.6-1.1,1.4-2.8,2.8-2.9
				c0.9-0.1,1.7,0.6,2.4,1c0.9,0.6,1.9,1.3,2.6,2.1c1.6,1.8,0.1,4.2-1.1,5.8c-1.3,1.7-2.6,3.5-4.1,5.1c-1.7,1.8-3.2,3.6-4.7,5.5
				c-5.2,6.4-9.7,13.3-15.4,19.2C47.1,62.5,48.1,63.5,48.8,62.8z"/>
		</g>
	</g>
	<g>
		<g>
			<path class="st0" d="M45.1,59.2c-1.2,0.1-2,1.1-2.9,1.7c-0.9,0.6-1.9,1.1-2.6,2c-0.3,0.3-0.1,0.9,0.3,1.1
				c1.3,0.7,2.2,1.9,3.5,2.7c1.4,0.8,2.6,2,3.9,2.8c0.5,0.3,1.1,0,1.3-0.5c0.5-1.3,0.6-2.6,0.9-3.9c0.2-1.2,0.4-2.3,0.6-3.5
				c0.1-0.4-0.1-0.9-0.6-1c-0.4-0.1-1,0.1-1,0.6c-0.2,1.2-0.4,2.3-0.6,3.5c-0.3,1.3-0.4,2.7-0.9,3.9c0.4-0.2,0.8-0.3,1.3-0.5
				c-1.4-0.9-2.5-2-3.9-2.8c-1.3-0.8-2.2-1.9-3.5-2.6c0.1,0.4,0.2,0.8,0.3,1.1c0.5-0.7,1.4-1,2.1-1.5c0.8-0.6,1.4-1.3,2.4-1.7
				C46.1,60.2,45.8,59.1,45.1,59.2L45.1,59.2z"/>
		</g>
	</g>
	<g>
		<g>
			<path class="st0" d="M51.4,48.9C51.4,48.9,51.4,48.9,51.4,48.9c0-0.1,0.1-0.2,0.1-0.3c-0.1,0.2-0.1,0.5,0,0.7
				c0.1,0.2,0.2,0.3,0.3,0.5c0.2,0.3,0.4,0.5,0.7,0.8c0.2,0.3,0.5,0.5,0.8,0.7c0.7,0.5,1.4,0.9,2.1,1.4c0,0,0.1,0.1,0.1,0.1
				c0,0,0,0,0.1,0c0.1,0.1-0.1-0.1-0.1-0.1c0.1,0.1,0.1,0.1,0.2,0.2c0,0,0.1,0.1,0.1,0.1c0.1,0.1,0.3,0.2,0.1,0.1
				c-0.2-0.1,0.1,0.1,0.1,0.1c0.1,0,0.4,0.2,0,0c0.4,0.2,0.8,0.1,1-0.3c0.4-0.6-0.1-1.1-0.6-1.4c-0.3-0.2-0.6-0.4-1-0.6
				c-0.4-0.2-0.8-0.5-1.1-0.7c-0.2-0.1-0.3-0.2-0.5-0.3c-0.1,0-0.1-0.1-0.2-0.1c0,0-0.1,0-0.1-0.1c-0.1-0.1,0.2,0.1,0.1,0
				c-0.2-0.2-0.4-0.3-0.5-0.5C53.1,49.1,53,49,52.9,49c0,0,0-0.1-0.1-0.1c-0.1-0.1,0.1,0.1,0,0c-0.1-0.2-0.3-0.4-0.5-0.5
				c0.1,0.1,0.2,0.2,0.2,0.2c0,0,0,0,0,0c-0.2-0.2-0.4-0.4-0.7-0.3C51.6,48.3,51.4,48.6,51.4,48.9L51.4,48.9z"/>
		</g>
	</g>
	<g>
		<g>
			<path class="st0" d="M73.6,46.8C69,46.1,64.9,49,63,52.9c-1,2-1.1,4.6-0.7,6.8c0.4,2.1,2,4,3.5,5.6c1.5,1.7,3.8,2.4,6,2.5
				c2.4,0,5,0,7.1-1.1c4.5-2.1,6.1-7.2,5-11.8c-0.3-1.1-0.9-2.1-1.4-3.1c-0.5-0.9-1-1.8-1.8-2.5c-1.9-1.6-4.8-2.7-7.3-2.7
				c-1.1,0-1.1,1.7,0,1.7c2,0,4,0.9,5.7,2c1.4,0.8,1.9,2.2,2.6,3.6c1,1.8,1,4,0.7,5.9c-0.3,2-1.5,3.7-3.1,4.8
				c-1.7,1.2-3.7,1.4-5.8,1.5c-1.9,0.1-4,0-5.6-1.1c-0.7-0.5-1.2-1.2-1.8-1.9c-0.6-0.7-1.2-1.5-1.7-2.4c-0.5-0.9-0.5-1.8-0.5-2.8
				c0-1,0-2,0.2-2.9c0.5-2,2.1-4,3.7-5.2c1.6-1.2,3.8-1.5,5.7-1.6C74.1,48.1,74.4,46.9,73.6,46.8z"/>
		</g>
	</g>
	<g>
		<g>
			<path class="st0" d="M66.1,50.2c0,0.6,0.4,0.8,0.7,1.3c0.3,0.5,0.5,1.1,0.8,1.6c0.3,0.7,0.6,1.4,0.8,2.1c0.2,0.8,0.2,1.6,0.2,2.4
				c0,1.5,0,2.9-0.6,4.3c-0.3,0.8-1,1.9-1.7,2.5c-0.7,0.6,0.2,1.9,1,1.4c0.9-0.6,1.6-1.8,2-2.7c0.7-1.5,0.9-3.1,0.9-4.8
				c0-1.7-0.1-3.3-0.7-4.9c-0.5-1.2-1.1-3-2.3-3.5c0.1,0.1,0.2,0.3,0.3,0.4c0-0.1,0-0.1,0-0.2C67.4,49.2,66.2,49.5,66.1,50.2
				L66.1,50.2z"/>
		</g>
	</g>
	<g>
		<g>
			<path class="st0" d="M79.3,49.3c-2.4,1.6-3.7,5.1-4.2,7.9c-0.3,1.6-0.2,3.3,0.5,4.8c0.6,1.4,1.8,2.4,3.1,3.2
				c1,0.6,1.8-0.9,0.9-1.5c-1-0.6-1.9-1.4-2.4-2.4c-0.6-1.3-0.6-2.8-0.3-4.2c0.5-2.4,1.5-4.8,3.3-6.6C80.7,49.9,80,48.8,79.3,49.3
				L79.3,49.3z"/>
		</g>
	</g>
</g>
</svg>
