<?xml version="1.0" encoding="utf-8"?>
<!-- Generator: Adobe Illustrator 24.0.1, SVG Export Plug-In . SVG Version: 6.00 Build 0)  -->
<svg version="1.1" id="Calque_1" xmlns="http://www.w3.org/2000/svg" xmlns:xlink="http://www.w3.org/1999/xlink" x="0px" y="0px"
	 viewBox="0 0 122 122" style="enable-background:new 0 0 122 122;" xml:space="preserve">
<style type="text/css">
	.st0{fill:#91D902;}
</style>
<g>
	<path d="M101.2,6.8c-0.7-4.4-4.8-7.4-9.3-6.8L15.3,11c-3,0.5-5.1,3.3-4.7,6.3l7.2,48.5c0.6,3.8,2,7.4,4.2,10.5
		c6.8,9.8,22.1,31.8,25.8,36.8c0.9,1.4,3.6,5.5,5.4,8.1c0.7,1,2.2,0.8,2.6-0.3c1.2-3.5,3.2-9.3,4.2-11.7c2.2-5.5,5.6-16.1,6.6-19.3
		c0.2-0.6,0.7-1,1.3-1.2l4.6-0.8L93.4,84l14.1-2.9c3-0.5,5.1-3.3,4.6-6.4C109.4,57.3,101.2,6.8,101.2,6.8"/>
</g>
<g>
	<g>
		<g>
			<path class="st0" d="M55.1,46.2c0.3-0.8,0.2-1.7,0.2-2.5c0-0.9-0.1-1.8,0-2.7c0-0.4,0-0.9,0-1.3c0,0,0-0.3,0-0.3c0,0.1,0,0,0.1,0
				c0.3-0.2,0.9-0.2,1.3-0.2c0.5-0.1,1-0.1,1.6-0.2c1.9-0.1,3.8-0.2,5.7-0.3c0.9,0,1.8-0.1,2.7,0c0.8,0,1.6,0,2.4,0.2
				c-0.2-0.2-0.4-0.5-0.6-0.7c0,1.4-0.1,2.9-0.1,4.3c0,0.7,0,1.4-0.1,2.1c-0.1,0.7-0.2,1.3,0,2c0.3,1,1.9,0.6,1.6-0.4
				c-0.2-0.6,0-1.2,0.1-1.7c0.1-0.7,0.1-1.4,0.1-2.2c0-1.4,0-2.7,0-4.1c0-0.3-0.2-0.6-0.6-0.7c-0.9-0.2-1.8-0.2-2.7-0.2
				c-1,0-2.1,0-3.1,0c-2.2,0.1-4.5,0.1-6.7,0.4c-0.8,0.1-1.8,0.1-2.5,0.5c-0.5,0.3-0.7,0.9-0.7,1.5c0,1.1,0,2.2,0,3.3
				c0,1,0,2.1,0.1,3.1C53.9,46.8,54.8,46.9,55.1,46.2L55.1,46.2z"/>
		</g>
	</g>
	<g>
		<g>
			<path class="st0" d="M49.2,47.5c4.3-0.1,8.6-0.3,12.9-0.2c2.2,0,4.4,0.1,6.6,0.1c1.1,0,2.1-0.1,3.2-0.2c1-0.1,1.9,0.1,2.9,0.1
				c1,0,1-1.5,0-1.5c-1,0-1.9-0.2-2.9-0.1c-1.1,0.1-2.1,0.2-3.2,0.2c-2.3,0.1-4.6,0-6.8-0.1c-2.3-0.1-4.6,0.1-6.9,0.1
				c-1.9,0.1-4-0.3-5.9,0.2C48.3,46.4,48.4,47.5,49.2,47.5L49.2,47.5z"/>
		</g>
	</g>
	<g>
		<g>
			<path class="st0" d="M51.1,47.5c0.5,1.8,0.8,3.7,1.4,5.5c0.6,1.8,1.1,3.7,1.5,5.5c0.4,1.9,1.1,3.6,1.6,5.5c0.5,2,0.9,4,1.2,6
				c0.2,1,1.7,0.6,1.5-0.4c-0.3-2-0.8-4-1.2-6c-0.5-1.9-1.2-3.7-1.6-5.7c-0.4-1.9-1-3.8-1.6-5.7c-0.5-1.7-0.7-3.6-1.5-5.2
				C52.1,46.2,50.9,46.7,51.1,47.5L51.1,47.5z"/>
		</g>
	</g>
	<g>
		<g>
			<path class="st0" d="M55.9,48.7c-0.2,0.6-0.1,1.2,0,1.8c0.2,0.7,0.3,1.4,0.3,2.1c0.1,1.3,0.4,2.6,0.6,4c0.3,1.4,0.5,2.8,0.7,4.2
				c0.2,1.3,0.7,2.7,0.6,4c-0.1,1,1.5,1,1.6,0c0.1-1.3-0.4-2.7-0.6-4c-0.2-1.3-0.4-2.7-0.7-4c-0.5-2.7-0.8-5.4-1.4-8.1
				C57,48.1,56.1,48.2,55.9,48.7L55.9,48.7z"/>
		</g>
	</g>
	<g>
		<g>
			<path class="st0" d="M60.8,48.9c-0.3,1.4-0.2,2.8-0.2,4.2c0,1.5,0,3,0,4.5c0,1.3,0.2,2.7,0.1,4.1c0,1.1-0.3,2.2-0.1,3.3
				c0.2,0.9,1.4,0.6,1.5-0.2c0.2-2.4,0.1-4.9,0-7.3c0-1.4-0.1-2.9-0.1-4.3c0-1.4,0.1-2.8-0.2-4.2C61.9,48.4,61,48.4,60.8,48.9
				L60.8,48.9z"/>
		</g>
	</g>
	<g>
		<g>
			<path class="st0" d="M66.4,48.9c-0.5,1.2-0.7,2.6-0.9,3.9c-0.2,1.5-0.5,3-0.7,4.4c-0.2,1.4-0.5,2.8-0.6,4.2
				c-0.1,1.1,0.1,2.3-0.5,3.3c-0.5,0.9,0.8,1.6,1.3,0.8c0.7-0.9,0.7-2.2,0.7-3.3c0.1-1.4,0.3-2.8,0.5-4.3c0.2-1.5,0.5-3,0.7-4.5
				c0.2-1.4,0.6-2.9,0.6-4.3C67.7,48.6,66.7,48.2,66.4,48.9L66.4,48.9z"/>
		</g>
	</g>
	<g>
		<g>
			<path class="st0" d="M71.4,47c-0.1,0.9-0.7,1.8-1,2.7c-0.3,0.9-0.7,1.8-0.9,2.7c-0.6,2-1.2,4-1.7,6.1c-0.5,2-1,4.1-1.4,6.2
				c-0.2,0.8-0.3,1.6-0.5,2.4c-0.1,0.5,0,1.3-0.3,1.7c-0.5,0.8,0.6,1.5,1.2,0.9c0.4-0.4,0.5-1,0.5-1.5c0.1-0.8,0.3-1.6,0.4-2.4
				c0.4-2.3,0.9-4.5,1.5-6.7c0.5-2.2,1.1-4.3,1.8-6.5c0.3-1,0.7-2.1,1.1-3.1c0.3-0.8,0.8-1.6,0.7-2.5C72.8,46.1,71.5,46.2,71.4,47
				L71.4,47z"/>
		</g>
	</g>
	<g>
		<g>
			<path class="st0" d="M53.4,53.3c2.8,0.2,5.6,0.2,8.4,0.2c1.4,0,2.8,0,4.2,0c0.6,0,1.2-0.1,1.8-0.1c0.6,0,1.4-0.2,1.9-0.1
				c-0.1-0.5-0.1-1-0.2-1.4c-0.1,0.1-0.2,0.1-0.3,0.2c-0.7,0.6,0.2,1.7,1,1.2c0,0,0.1,0,0.1-0.1c0.7-0.3,0.4-1.2-0.2-1.4
				c-0.5-0.2-1.3-0.1-1.7,0c-0.7,0-1.4,0.1-2.1,0.2C64.9,52,63.5,52,62.1,52c-2.9,0-5.8-0.3-8.7-0.1C52.5,51.9,52.5,53.3,53.4,53.3
				L53.4,53.3z"/>
		</g>
	</g>
	<g>
		<g>
			<path class="st0" d="M54.7,57.4c2.3,0.1,4.6,0.1,6.9,0c1.1,0,2.3-0.1,3.4-0.1c1,0,2.1-0.2,3.1,0c1,0.1,1.4-1.4,0.4-1.5
				c-1-0.1-2,0-3,0c-1.2,0-2.5,0-3.7,0.1c-1.2,0-2.4,0.1-3.6,0.1c-1.2,0-2.4-0.2-3.5,0C53.8,56.1,53.8,57.4,54.7,57.4L54.7,57.4z"/>
		</g>
	</g>
	<g>
		<g>
			<path class="st0" d="M56.3,62.7c0.9,0.1,1.8,0.3,2.8,0.3c1,0,1.9,0,2.9,0c1-0.1,2-0.1,3-0.3c0.8-0.1,1.7-0.4,2.5-0.3
				c1,0.2,1.4-1.3,0.4-1.5c-1-0.2-1.9,0-2.8,0.2c-1,0.2-2.1,0.3-3.1,0.3c-1,0.1-2.1,0.1-3.1,0c-1,0-1.9-0.4-2.9,0
				C55.3,61.8,55.8,62.7,56.3,62.7L56.3,62.7z"/>
		</g>
	</g>
	<g>
		<g>
			<path class="st0" d="M54.9,57.5c-2.4-0.3-5-0.1-7.4,0c-1.3,0.1-3,0.4-4.2-0.2c-1.8-1-2.2-3.5-2.2-5.3c-0.1-2-0.1-4.1-0.2-6.1
				c-0.1-2.2,0.3-4.3,0.3-6.5c0.1-3.4-1.7-8.3,2.5-10c2.1-0.8,4.1-0.8,6.3-0.4c2.2,0.3,4.4,0.1,6.7,0c2.3-0.1,4.7,0,7-0.1
				c2.4-0.1,4.8-0.1,7.2,0c2.4,0.1,4.8-0.2,7.2,0.2c1,0.2,1.9,0.4,2.6,1.3c0.5,0.7,0.8,1.6,1,2.4c0.2,1.2,0,2.5-0.1,3.7
				c-0.1,1.1-0.1,2.2-0.2,3.3c-0.1,2.3-0.1,4.5-0.1,6.7c0.2,4,0.9,10.1-4.1,11.4c-2.9,0.7-5.9-0.3-8.8-0.3c-1.1,0-1.1,1.7,0,1.7
				c3,0,6,0.9,9,0.3c1.6-0.3,3-1.1,4-2.4c1.3-1.7,1.5-3.9,1.6-5.9c0.1-2.6-0.1-5.3-0.1-7.9c0-2.6,0.1-5.2,0.4-7.7
				c0.2-2,0.1-4.2-1.1-6c-1.2-1.8-3-2.2-5-2.4c-2.7-0.2-5.5-0.1-8.2-0.2c-2.7-0.1-5.4,0.1-8.1,0.2c-1.3,0-2.6-0.1-4-0.1
				c-1.4,0-2.8,0.2-4.2,0.2c-2.5,0-4.9-0.9-7.4-0.3c-1.7,0.4-3.6,1-4.7,2.5c-1.2,1.6-1.3,3.7-1.2,5.6c0.1,2.2,0.3,4.3,0.1,6.6
				c-0.2,2.6,0,5.1,0,7.6c0,2.2-0.1,4.6,0.8,6.7c0.9,2.1,2.7,3.3,4.9,3.2c3.1-0.1,6.4-0.7,9.5-0.3C55.6,59.1,55.8,57.6,54.9,57.5
				L54.9,57.5z"/>
		</g>
	</g>
</g>
</svg>
