<?xml version="1.0" encoding="utf-8"?>
<!-- Generator: Adobe Illustrator 24.0.1, SVG Export Plug-In . SVG Version: 6.00 Build 0)  -->
<svg version="1.1" id="Calque_1" xmlns="http://www.w3.org/2000/svg" xmlns:xlink="http://www.w3.org/1999/xlink" x="0px" y="0px"
	 viewBox="0 0 122 122" style="enable-background:new 0 0 122 122;" xml:space="preserve">
<style type="text/css">
	.st0{fill:#91D902;}
</style>
<g>
	<path d="M101.2,6.8c-0.7-4.4-4.8-7.4-9.3-6.8L15.3,11c-3,0.5-5.1,3.3-4.7,6.3l7.2,48.5c0.6,3.8,2,7.4,4.2,10.5
		c6.8,9.8,22.1,31.8,25.8,36.8c0.9,1.4,3.6,5.5,5.4,8.1c0.7,1,2.2,0.8,2.6-0.3c1.2-3.5,3.2-9.3,4.2-11.7c2.2-5.5,5.6-16.1,6.6-19.3
		c0.2-0.6,0.7-1,1.3-1.2l4.6-0.8L93.4,84l14.1-2.9c3-0.5,5.1-3.3,4.6-6.4C109.4,57.3,101.2,6.8,101.2,6.8"/>
</g>
<g>
	<g>
		<g>
			<path class="st0" d="M43.9,59.3c0.5-5.9-0.3-11.7,0-17.6c0.1-2.3,0.3-4.5,0.2-6.8c0-0.8-0.1-1.6,0-2.4c0.1-1.1,0.2-1,1.4-0.8
				c2.1,0.2,4.3,0.3,6.5,0.1c1-0.1,2.9-0.7,2.9,0.6c0,1.1-0.2,2.3-0.2,3.5c0.1,5.3,0.6,10.6,0.3,15.9c-0.1,1.6-0.3,3.1-0.4,4.7
				c0,1-0.3,2.8,0.7,3.4c0.9,0.6,1.8-0.9,0.9-1.5c0.6,0.3,0.1,0.3,0.2,0.1c0,0,0-0.3,0-0.3c0-0.3,0-0.6,0-1c0-0.9,0.1-1.8,0.2-2.7
				c0.1-1.5,0.2-3,0.2-4.6c0-3.1,0.1-6.2-0.1-9.3c-0.1-1.6-0.2-3.2-0.3-4.8c0-1.3,0.2-2.6,0.2-3.9c0-2.4-2.6-2.1-4.2-1.9
				c-2.4,0.3-4.8,0.1-7.2-0.1c-1.7-0.1-2.5,0.5-2.7,2.3c-0.2,1.8,0,3.7,0,5.5c-0.1,3.6-0.5,7.1-0.2,10.7c0.3,3.6,0,7.2,0.2,10.8
				C42.6,60.2,43.9,60.2,43.9,59.3L43.9,59.3z"/>
		</g>
	</g>
	<g>
		<g>
			<path class="st0" d="M49.1,31.2c-0.2,1.7-0.2,3.5-0.2,5.2c0,2.6-0.1,5.1-0.1,7.7c0,5,0.3,9.9,0.2,14.9c0,1.1,1.7,1.1,1.7,0
				c0.1-5-0.3-9.9-0.3-14.9c0-2.5,0-5,0-7.6c0-1.8,0.1-3.6-0.1-5.3C50.3,30.3,49.2,30.3,49.1,31.2L49.1,31.2z"/>
		</g>
	</g>
	<g>
		<g>
			<path class="st0" d="M43.8,37.6c0.3,0.3,0.7,0.3,1,0.4c0.3,0,0.6,0,0.9,0c0.5,0,1,0,1.6,0c0.4,0,0.9-0.1,1.3-0.1
				c0.2,0,0.4,0,0.6,0c0.1,0-0.2,0,0,0c0,0,0.1,0,0.1,0c0.2,0,0.4,0,0.7-0.1c0.3-0.2,0.4-0.5,0.3-0.8c-0.2-0.6-0.9-0.7-1.5-0.7
				c-0.5,0-0.9,0.1-1.4,0.1c-0.5,0-1,0-1.5,0c-0.3,0-0.6,0-1,0c-0.4,0-0.7-0.1-1.1,0.2C43.5,36.9,43.5,37.3,43.8,37.6L43.8,37.6z"/>
		</g>
	</g>
	<g>
		<g>
			<path class="st0" d="M43.8,53C43.8,53,43.8,53,43.8,53c0,0-0.1,0-0.3,0c0.4,0.1,0.9,0,1.3,0c0.4,0,0.9,0,1.3,0
				c0.5,0,0.9,0,1.4,0.1c0.4,0,0.9,0.1,1.3,0c0.4,0,0.8-0.3,0.8-0.8c0-0.4-0.4-0.7-0.8-0.8c-0.4,0-0.9,0-1.3-0.1c-0.5,0-0.9,0-1.4,0
				c-0.4,0-0.9,0-1.3,0.1c-0.3,0-0.5,0.1-0.8,0.1c-0.1,0-0.2,0.1-0.3,0.1c-0.1,0-0.1,0.1-0.2,0.1c0,0-0.2,0.1-0.1,0.1
				c-0.3,0.1-0.4,0.5-0.2,0.8C43.2,53,43.5,53.1,43.8,53L43.8,53z"/>
		</g>
	</g>
	<g>
		<g>
			<path class="st0" d="M43.2,59.9c0.2,0,0.1,0,0.3,0c0.2,0,0.4,0.1,0.7,0.1c0.5,0,0.9,0,1.4,0c1.3,0,2.6,0,3.8,0
				c2.1,0,4.2,0.1,6.3,0c1-0.1,1-1.5,0-1.5c-2.1-0.1-4.2,0-6.3,0c-1.3,0-2.6,0-3.8,0c-0.5,0-0.9,0-1.4,0c-0.2,0-0.4,0-0.6,0.1
				c-0.2,0-0.1,0-0.3,0C42.5,58.7,42.5,59.9,43.2,59.9L43.2,59.9z"/>
		</g>
	</g>
	<g>
		<g>
			<path class="st0" d="M50.7,51.2c0.8,0,1.6,0.1,2.4,0.1c0.8,0,1.6,0,2.3,0c0.4,0,0.8-0.3,0.8-0.8c0-0.4-0.3-0.8-0.8-0.8
				c-0.8,0-1.6,0-2.3,0c-0.8,0-1.6,0-2.4,0.1c-0.4,0-0.7,0.3-0.7,0.7C50,50.9,50.3,51.1,50.7,51.2L50.7,51.2z"/>
		</g>
	</g>
	<g>
		<g>
			<path class="st0" d="M50.3,56.2c0.8,0.2,1.7,0.1,2.6,0.1c0.8,0,1.7,0,2.5-0.1c0.4,0,0.8-0.3,0.8-0.8c0-0.4-0.3-0.8-0.8-0.8
				c-0.8,0-1.7,0-2.5,0c-0.8,0-1.8,0-2.6,0.2C49.6,55.1,49.6,56,50.3,56.2L50.3,56.2z"/>
		</g>
	</g>
	<g>
		<g>
			<path class="st0" d="M74.2,58.6c0-2.2,0.2-4.3,0.1-6.5c-0.1-2.4-0.1-4.8-0.2-7.2c-0.1-2.5-0.2-5,0.2-7.6c0.3-2.2,0.1-4.5,0.1-6.7
				c-0.2,0.3-0.4,0.5-0.6,0.8c0.9-0.2,1.7-0.2,2.7-0.2c0.8,0,2.1-0.3,2.2,0.7c0.1,0.6-0.1,1.5-0.1,2.1c0,0.9-0.1,1.8,0,2.6
				c0,2.1,0.2,4.2,0.2,6.3c0.1,5.3,0.1,10.5,0.1,15.8c0,1.1,1.7,1.1,1.7,0c0-5.9,0-11.9-0.2-17.8c-0.1-2.8-0.4-5.6-0.1-8.5
				c0.1-1.3,0-2.4-1.5-2.8c-0.8-0.2-1.6-0.1-2.4-0.1c-1,0-1.9,0-2.9,0.2c-0.3,0.1-0.6,0.4-0.6,0.8c-0.1,2.3,0.1,4.6-0.2,7
				c-0.3,2.5-0.2,5-0.1,7.5c0.1,2.4,0.1,4.8,0.2,7.2c0.1,2.1-0.2,4.3,0.1,6.4C73,59.5,74.2,59.3,74.2,58.6L74.2,58.6z"/>
		</g>
	</g>
	<g>
		<g>
			<path class="st0" d="M73.5,49.8c0.9,0.6,1.9,0.2,2.9,0.3c0.5,0,0.9,0.1,1.4,0.1c0.5,0,1,0.1,1.5,0c0.7-0.2,0.8-1.4,0-1.5
				c-0.5-0.1-0.9,0-1.4,0c-0.5,0-0.9,0-1.4-0.1c-0.4,0-0.8,0-1.3,0c-0.5,0.1-0.8,0.1-1.2-0.1c-0.3-0.1-0.7,0.1-0.8,0.4
				C73.1,49.3,73.2,49.6,73.5,49.8L73.5,49.8z"/>
		</g>
	</g>
	<g>
		<g>
			<path class="st0" d="M73.2,59.1c0.9,0.6,1.9,0.2,2.9,0.3c0.5,0,0.9,0.1,1.4,0.1c0.5,0,1,0.1,1.5,0c0.7-0.2,0.8-1.4,0-1.5
				c-0.5-0.1-0.9,0-1.4,0c-0.5,0-0.9,0-1.4-0.1c-0.4,0-0.8,0-1.3,0c-0.5,0.1-0.8,0.1-1.2-0.1c-0.3-0.1-0.7,0.1-0.8,0.4
				C72.8,58.6,72.9,58.9,73.2,59.1L73.2,59.1z"/>
		</g>
	</g>
	<g>
		<g>
			<path class="st0" d="M74,45.3c1,0.4,2.2,0.2,3.2,0.2c0.4,0,0.8,0,1.2,0c0.1,0,0.2,0,0.3,0c0,0,0.1,0,0.1,0c0.1,0-0.2,0,0,0
				c0,0,0.2,0.1,0.2,0.1c0,0-0.1,0-0.1,0c0.1,0,0.1,0.1,0.2,0.1c0.1,0,0.2,0,0.3,0c0.6,0.1,0.9-0.7,0.6-1.1
				c-0.3-0.5-0.9-0.5-1.4-0.6c-0.4,0-0.9,0-1.3,0c-0.4,0-0.8,0.1-1.3,0.1c-0.6,0-1.3,0-1.9,0c-0.3,0-0.6,0.3-0.7,0.6
				C73.4,44.9,73.6,45.1,74,45.3L74,45.3z"/>
		</g>
	</g>
	<g>
		<g>
			<path class="st0" d="M73.5,40.5c0.4,0.4,1.1,0.4,1.6,0.4c0.5,0.1,0.9,0.1,1.4,0.1c0.5,0,0.9,0,1.4-0.1c0.2,0,0.5-0.1,0.7-0.1
				c0.3,0,0.6,0,0.9-0.1c0.3-0.1,0.5-0.3,0.5-0.6c0-0.3-0.1-0.6-0.4-0.7c-0.5-0.3-1.2-0.1-1.8,0c-0.4,0.1-0.9,0.1-1.3,0.1
				c-0.5,0-1-0.1-1.4-0.1c-0.5,0-1.2-0.1-1.6,0.3C73.2,39.9,73.2,40.3,73.5,40.5L73.5,40.5z"/>
		</g>
	</g>
	<g>
		<g>
			<path class="st0" d="M73.9,36.3c0.5,0.1,1,0.1,1.5,0.1c0.5,0,0.9,0,1.4,0c0.5,0,0.9,0,1.4,0c0.5,0,1.1,0.1,1.6-0.2
				c0.4-0.2,0.5-1,0-1.2c-0.3-0.1-0.5-0.1-0.9-0.1c-0.2,0-0.5,0-0.7,0c-0.5,0-0.9,0-1.4,0c-0.5,0-0.9,0-1.4,0c-0.5,0-1,0-1.5,0.1
				C73.3,35.2,73.2,36.1,73.9,36.3L73.9,36.3z"/>
		</g>
	</g>
	<g>
		<g>
			<path class="st0" d="M56.8,33.2c0.9-0.7,2.3-1.2,3.3-1.5c0.9-0.3,1,0.1,1.3,0.9c0.2,0.5,0.4,1,0.7,1.5c1.5,2.7,2.7,5.4,3.9,8.3
				c1,2.5,2.1,4.9,3.3,7.2c1.3,2.5,2.2,5.1,3.1,7.9c0.3,1,1.7,0.6,1.5-0.4c-0.5-3-2-6-3.4-8.7c-1.6-3.1-2.8-6.3-4.2-9.5
				c-0.7-1.6-1.4-3.2-2.3-4.7c-0.4-0.7-0.9-1.3-1.2-2.1c-0.2-0.5-0.3-1-0.6-1.4c-0.7-0.9-1.8-0.6-2.8-0.2c-1.2,0.5-2.7,1-3.6,1.9
				C55.2,32.8,56.1,33.7,56.8,33.2L56.8,33.2z"/>
		</g>
	</g>
	<g>
		<g>
			<path class="st0" d="M55.5,34c0.5,1.9,1.4,3.7,2.1,5.5c0.7,1.6,1.3,3.2,1.9,4.8c1.6,4,3.1,7.9,4.8,11.8c0.5,1.1,0.9,2.5,1.7,3.4
				c0.7,0.8,1.9-0.4,1.2-1.2c0.1,0.1-0.1-0.2-0.2-0.4c-0.2-0.3-0.3-0.6-0.4-0.9c-0.4-0.9-0.8-1.8-1.2-2.8c-1-2.5-2.1-5-3.1-7.5
				c-1.8-4.5-3.7-8.9-5.6-13.4C56.5,32.8,55.4,33.3,55.5,34L55.5,34z"/>
		</g>
	</g>
	<g>
		<g>
			<path class="st0" d="M66.9,59.7c1-0.3,2-0.6,3-0.9c0.5-0.2,1-0.3,1.5-0.5c0.6-0.2,1.2-0.3,1.8-0.3c0.4-0.1,0.8-0.3,0.8-0.8
				c0-0.4-0.4-0.8-0.8-0.8c-1.3,0.1-2.4,0.5-3.6,0.9c-0.5,0.2-1.1,0.3-1.6,0.5c-0.5,0.2-1.1,0.3-1.5,0.6c-0.3,0.2-0.4,0.5-0.3,0.8
				C66.2,59.6,66.5,59.8,66.9,59.7L66.9,59.7z"/>
		</g>
	</g>
</g>
</svg>
