<?xml version="1.0" encoding="utf-8"?>
<!-- Generator: Adobe Illustrator 24.0.1, SVG Export Plug-In . SVG Version: 6.00 Build 0)  -->
<svg version="1.1" id="Calque_1" xmlns="http://www.w3.org/2000/svg" xmlns:xlink="http://www.w3.org/1999/xlink" x="0px" y="0px"
	 viewBox="0 0 122 122" style="enable-background:new 0 0 122 122;" xml:space="preserve">
<style type="text/css">
	.st0{fill:#91D902;}
</style>
<g>
	<path d="M101.4,6.8c-0.7-4.4-4.8-7.4-9.3-6.8L15.5,11c-3,0.5-5.1,3.3-4.7,6.3L18,65.8c0.6,3.8,2,7.4,4.2,10.5
		c6.8,9.8,22.1,31.8,25.8,36.8c0.9,1.4,3.6,5.5,5.4,8.1c0.7,1,2.2,0.8,2.6-0.3c1.2-3.5,3.2-9.3,4.2-11.7c2.2-5.5,5.6-16.1,6.6-19.3
		c0.2-0.6,0.7-1,1.3-1.2l4.6-0.8L93.6,84l14.1-2.9c3-0.5,5.1-3.3,4.6-6.4C109.6,57.3,101.4,6.8,101.4,6.8"/>
</g>
<g>
	<g>
		<g>
			<path class="st0" d="M36.7,28.9c1.1,0,2.1-0.2,3.2-0.1c1,0.1,2,0.2,3.1,0.3c2.2,0.1,4.5,0.1,6.7,0.1c4.4,0,8.8-0.2,13.2-0.4
				c4.4-0.1,8.8,0.6,13.2,0.7c2.2,0.1,4.4,0,6.6-0.2c0.8-0.1,2.6-0.5,3.3-0.1c0.8,0.5,1.5-0.7,0.7-1.3c-0.8-0.6-2.4-0.3-3.3-0.2
				c-2,0.2-3.9,0.3-5.9,0.3c-4.6,0-9.1-0.9-13.7-0.8c-4.6,0.1-9.2,0.4-13.8,0.4c-2.2,0-4.5,0-6.7-0.1c-1,0-2.1-0.1-3.1-0.2
				c-1.2-0.1-2.4,0.1-3.6,0.1C35.9,27.6,35.9,28.9,36.7,28.9L36.7,28.9z"/>
		</g>
	</g>
	<g>
		<g>
			<path class="st0" d="M36.6,58.1c4.2,0.3,8.3-0.1,12.5-0.1c4.1,0,8.2,0.6,12.4,0.6c8.4,0.1,16.9,0,25.3,0c1,0,1-1.5,0-1.5
				c-0.1,0-0.2,0-0.2,0c-1,0-1,1.5,0,1.5c0.1,0,0.2,0,0.2,0c0-0.5,0-1,0-1.5c-8.4,0-16.9,0.2-25.3,0c-4.1-0.1-8.2-0.7-12.4-0.6
				c-2,0-4.1,0.2-6.1,0.2c-2.1,0-4.2-0.1-6.4,0.1C35.7,56.8,35.7,58,36.6,58.1L36.6,58.1z"/>
		</g>
	</g>
	<g>
		<g>
			<path class="st0" d="M41.1,56.8c0.1-2.3,0.4-4.6,0.5-6.9c0.2-2.5,0.2-5,0.3-7.5c0.1-2.4,0.1-4.8,0.1-7.2c0-1.1,0-2.3,0-3.4
				c0-0.5,0-1-0.1-1.5c0-0.2-0.1-1.3-0.1-1.4c-0.4-0.3-0.8-0.6-1.2-0.9c0,0-0.1,0.1-0.1,0.1c-0.5,0.7,0.6,1.5,1.2,0.9
				c0.1-0.1,0.1-0.2,0.2-0.3c0.5-0.7-0.6-1.5-1.2-0.9c-0.5,0.5-0.4,1.5-0.4,2.1c0,1.2,0.1,2.4,0.1,3.5c0,2.6,0,5.2,0,7.8
				c0,2.6-0.1,5.2-0.2,7.8c-0.1,2.6-0.5,5.2-0.4,7.8C39.8,57.7,41.1,57.7,41.1,56.8L41.1,56.8z"/>
		</g>
	</g>
	<g>
		<g>
			<path class="st0" d="M83.2,57.2c-0.3-0.9-0.1-1.9,0-2.8c0.2-1,0.3-1.9,0.3-2.9c0-2.5-0.3-5-0.2-7.6c0.1-2.5,0.3-5,0.4-7.5
				c0-1.2,0.1-2.4,0.1-3.6c0-1.2-0.2-2.4-0.2-3.6c0-0.4-0.4-0.8-0.8-0.8c-0.4,0-0.6,0.2-0.8,0.5c-0.5,0.9,0.8,1.6,1.4,0.8
				c0,0,0-0.1,0.1-0.1c-0.2,0.1-0.5,0.3-0.7,0.4c0,0,0,0,0,0c-0.3-0.3-0.5-0.5-0.8-0.8c-0.1,1.2,0.2,2.4,0.2,3.6
				c0,1.3-0.1,2.6-0.1,3.9c-0.1,2.7-0.3,5.3-0.4,8c-0.1,2.5,0.3,5,0.3,7.5c-0.1,1.8-0.9,3.9,0,5.6C82.3,58.4,83.4,58,83.2,57.2
				L83.2,57.2z"/>
		</g>
	</g>
	<g>
		<g>
			<g>
				<path class="st0" d="M46,45.2c0.8-0.2,1.7-0.8,2.4-1.1c0.9-0.4,1.6-0.9,2.3-1.5c1.7-1.4,3.1-3.2,4.2-5.2c0.8-1.6,1.3-3.3,1.8-5
					c0.3-1,1-2.6,0.5-3.6c-0.4-0.8-1.8-0.2-1.4,0.6c0,0.1,0-0.2,0,0c0,0.1,0,0.1,0,0.2c0,0.3-0.1,0.6-0.2,0.8
					c-0.2,0.6-0.3,1.3-0.5,1.9c-0.5,1.6-1,3.2-1.8,4.7c-1,1.7-2.3,3.3-3.8,4.6c-0.7,0.6-1.4,1-2.2,1.4c-0.7,0.3-1.5,0.6-2,1.3
					C45,44.7,45.5,45.3,46,45.2L46,45.2z"/>
			</g>
		</g>
		<g>
			<g>
				<path class="st0" d="M45.3,44.8c0.2,0.4,0.5,0.7,0.8,1.1c0.3,0.4,0.6,0.9,0.8,1.3c0.6,1,1,2,1.3,3.1c0.7,2.3,0.9,4.7,0.9,7.1
					c0,1.1,1.6,1.1,1.6,0c0-2.5-0.3-5.3-1.1-7.7c-0.4-1.1-0.9-2.2-1.5-3.3c-0.5-0.8-1.2-2.1-2.2-2.4C45.7,43.9,45.2,44.3,45.3,44.8
					L45.3,44.8z"/>
			</g>
		</g>
		<g>
			<g>
				<path class="st0" d="M37.9,45.2c0,0.9,1.2,1,2,1.1c0.8,0.1,1.6,0,2.4-0.1c0.9-0.1,1.8-0.1,2.7-0.1c0.5,0,1,0,1.5,0
					c0.5,0,1.1,0.1,1.6-0.1c0.7-0.3,0.7-1.2,0-1.5c-0.4-0.2-1-0.1-1.5-0.1c-0.5,0-1,0-1.5,0c-0.9,0-1.8,0-2.7,0.1
					c-0.8,0-1.6,0.1-2.3,0.1c-0.3,0-0.6-0.1-0.8-0.1C38.5,44.4,37.8,44.5,37.9,45.2L37.9,45.2z"/>
			</g>
		</g>
	</g>
	<g>
		<g>
			<g>
				<path class="st0" d="M78.3,44.2c-0.4-0.6-1.2-0.9-1.9-1.2c-0.8-0.4-1.6-0.8-2.3-1.4c-1.5-1.3-2.8-2.8-3.8-4.6
					c-0.8-1.5-1.3-3.1-1.8-4.7c-0.2-0.6-0.3-1.2-0.5-1.8c-0.1-0.3-0.2-0.6-0.2-0.9c0-0.1,0-0.2,0-0.2c0-0.2,0,0.1,0,0
					c0.3-0.8-1.1-1.4-1.4-0.6c-0.5,1,0.2,2.6,0.5,3.6c0.5,1.7,1,3.4,1.9,5c1,1.9,2.4,3.7,4.1,5.1c0.8,0.6,1.6,1.2,2.4,1.6
					c0.7,0.4,1.6,1,2.4,1.1C78,45.3,78.6,44.7,78.3,44.2L78.3,44.2z"/>
			</g>
		</g>
		<g>
			<g>
				<path class="st0" d="M77.4,44c-0.9,0.3-1.6,1.6-2.1,2.3c-0.6,1.1-1.1,2.2-1.5,3.3c-0.8,2.4-1.1,5.1-1.1,7.7c0,1.1,1.6,1.1,1.6,0
					c0-2.4,0.2-4.8,0.9-7.1c0.3-1,0.8-2,1.3-3c0.3-0.5,0.5-0.9,0.8-1.3c0.3-0.4,0.7-0.7,0.8-1.2C78.4,44.3,77.9,43.9,77.4,44
					L77.4,44z"/>
			</g>
		</g>
		<g>
			<g>
				<path class="st0" d="M85.3,44.5c-0.3-0.2-0.7-0.1-1.1,0c-0.3,0.1-0.6,0.1-0.9,0.1c-0.8,0-1.5-0.1-2.3-0.1c-0.9,0-1.7,0-2.6-0.1
					c-0.5,0-0.9,0-1.4,0c-0.5,0-1-0.1-1.5,0.1c-0.7,0.3-0.7,1.2,0,1.5c0.5,0.2,1.1,0.1,1.6,0.1c0.5,0,1.1,0,1.6,0
					c0.9,0,1.8,0,2.7,0.1c0.8,0,1.6,0.1,2.5,0c0.4,0,0.8-0.1,1.2-0.3C85.7,45.6,85.9,44.9,85.3,44.5L85.3,44.5z"/>
			</g>
		</g>
	</g>
	<g>
		<g>
			<path class="st0" d="M36,67.5c0.5,0.4,1.1,0.4,1.6,0.3c0.8,0,1.6,0,2.5,0.1c2.1,0.1,4.2-0.1,6.3-0.1c4.3,0.2,8.7,0.1,13,0.1
				c4.6,0,9.1,0.3,13.7,0.1c4.6-0.2,9.1-0.3,13.6-0.2c1,0,1-1.5,0-1.6c-0.1,0-0.2,0-0.3,0c-0.9-0.2-1.3,1.2-0.4,1.4
				c0.1,0.1,0.3,0.1,0.5,0.1c0.1-0.5,0.1-1,0.2-1.5c-4.4-0.1-8.7,0-13.1,0.2c-4.4,0.2-8.8,0-13.2-0.1c-2,0-4,0.1-6.1,0.1
				c-2.2-0.1-4.4-0.1-6.6-0.1c-2,0-4-0.1-6,0c-1,0-1.9,0-2.9,0c-0.6,0-1.6,0.3-2.1-0.1C35.9,65.7,35.3,67,36,67.5L36,67.5z"/>
		</g>
	</g>
	<g>
		<g>
			<path class="st0" d="M40.5,66.9c-0.1-0.4,0.3-0.9,0.5-1.2c0.3-0.5,0.7-0.9,1.1-1.3c1-1.2,2.1-2,3.7-1.9c1.3,0.1,2.2,0.6,3,1.6
				c0.3,0.4,0.6,0.8,0.9,1.3c0.1,0.2,0.3,0.4,0.3,0.6c0,0,0,0.2,0.1,0.2c0-0.1,0-0.1,0,0c0-0.1,0-0.2,0.1-0.2
				c-0.5,0.7,0.6,1.5,1.2,0.9c0.8-0.7-0.1-2-0.6-2.7c-0.6-0.9-1.3-1.8-2.2-2.4c-1.3-0.8-3.1-1-4.5-0.6c-1.4,0.4-2.4,1.5-3.3,2.6
				c-0.8,0.9-2.1,2.5-1.4,3.8C39.6,68.2,40.6,67.6,40.5,66.9L40.5,66.9z"/>
		</g>
	</g>
	<g>
		<g>
			<path class="st0" d="M51.4,65.8c0-0.4,0-0.7,0.2-1.1c0.2-0.5,0.6-0.9,0.9-1.2c0.8-0.8,2.2-1.4,3.4-1.5c1.3-0.1,2.7,0.6,3.6,1.5
				c0.4,0.4,0.7,0.9,1,1.4c0.3,0.6,0.4,1.1,0.3,1.7c-0.1,0.8,1.1,1,1.4,0.4c0.7-1.2-0.1-2.7-0.8-3.7c-0.8-1.1-1.8-2-3.2-2.5
				c-2.5-1-5.7,0.1-7.3,2.2c-0.6,0.8-1.7,2.6-0.5,3.4C50.9,66.7,51.4,66.3,51.4,65.8L51.4,65.8z"/>
		</g>
	</g>
	<g>
		<g>
			<path class="st0" d="M62.5,66c0-0.6,0.3-1.2,0.5-1.7c0.3-0.5,0.5-1,1.1-1.3c0.5-0.2,1.1-0.3,1.7-0.4c0.5-0.1,1.1-0.1,1.6-0.1
				c1,0.1,2,0.6,2.7,1.3c0.8,0.8,1.2,1.7,1.1,2.8c-0.1,0.9,1.4,1.1,1.5,0.2c0.4-2.4-1.4-4.5-3.5-5.4c-1-0.4-2.1-0.6-3.3-0.5
				c-1.2,0.2-2.5,0.3-3.4,1.2c-0.5,0.5-0.8,1.1-1.1,1.8c-0.3,0.7-0.5,1.4-0.4,2.2C61.3,67,62.5,66.8,62.5,66L62.5,66z"/>
		</g>
	</g>
	<g>
		<g>
			<path class="st0" d="M72.6,65.8c0-0.9,1-1.8,1.6-2.4c0.8-0.8,1.9-1.1,3-0.9c1.1,0.2,2,0.9,2.8,1.6c0.4,0.4,1,0.8,1.3,1.4
				c0.2,0.5,0.3,1,0.6,1.4c0.5,0.6,1.5,0,1.3-0.7c-0.2-0.6-0.3-1.2-0.7-1.8c-0.5-0.6-1.1-1.2-1.7-1.7c-1.1-1-2.3-1.6-3.8-1.8
				c-1.5-0.1-2.8,0.5-3.9,1.5c-0.9,0.9-2,2.1-2,3.4C71.1,66.8,72.5,66.8,72.6,65.8L72.6,65.8z"/>
		</g>
	</g>
</g>
</svg>
