<?xml version="1.0" encoding="utf-8"?>
<!-- Generator: Adobe Illustrator 24.0.1, SVG Export Plug-In . SVG Version: 6.00 Build 0)  -->
<svg version="1.1" id="Calque_1" xmlns="http://www.w3.org/2000/svg" xmlns:xlink="http://www.w3.org/1999/xlink" x="0px" y="0px"
	 viewBox="0 0 122 122" style="enable-background:new 0 0 122 122;" xml:space="preserve">
<style type="text/css">
	.st0{fill:#91D902;}
</style>
<g>
	<path d="M100.6,6.9c-0.7-4.4-4.8-7.4-9.3-6.8l-76.6,11c-3,0.5-5.1,3.3-4.7,6.3l7.2,48.5c0.6,3.8,2,7.4,4.2,10.5
		c6.8,9.8,22.1,31.8,25.8,36.8c0.9,1.4,3.6,5.5,5.4,8.1c0.7,1,2.2,0.8,2.6-0.3c1.2-3.5,3.2-9.3,4.2-11.7C61.6,103.8,65,93.2,66,90
		c0.2-0.6,0.7-1,1.3-1.2l4.6-0.8l20.9-3.9l14.1-2.9c3-0.5,5.1-3.3,4.6-6.4C108.8,57.4,100.6,6.9,100.6,6.9"/>
</g>
<g>
	<g>
		<g>
			<path class="st0" d="M29,26.3c3,0.2,6-0.1,8.9,0c3,0,5.9,0.2,8.9,0.1c2.8-0.2,5.6,0,8.3,0.1c6.5,0.2,13.1,0.3,19.6,0.5
				c1.1,0,2.1,0.1,3.2,0.1c2.4,0.1,4.7-0.3,7.1-0.1c1,0,1-1.4,0-1.5c-2.3-0.1-4.6,0.2-6.9,0.1c-0.8,0-1.7-0.1-2.5-0.1
				c-3-0.1-6.1-0.1-9.1-0.2c-5.8-0.1-11.7-0.5-17.5-0.5c-1.6,0-3.2,0.2-4.9,0.2c-1.7,0-3.3-0.1-5-0.2c-3.4-0.1-6.8-0.1-10.1,0.1
				C28.1,25,28.1,26.3,29,26.3L29,26.3z"/>
		</g>
	</g>
	<g>
		<g>
			<path class="st0" d="M63.1,60.4c0.7,0.2,1.7,0.1,2.5,0.1c0.8,0,1.5,0,2.3,0.1c1.4,0,2.9,0.1,4.3,0.1c1,0,1-1.5,0-1.5
				c-1.4-0.1-2.9-0.1-4.3-0.1c-0.8,0-1.5,0-2.3-0.1c-0.8,0-1.7-0.2-2.5,0C62.4,59.3,62.5,60.2,63.1,60.4L63.1,60.4z"/>
		</g>
	</g>
	<g>
		<g>
			<path class="st0" d="M28.4,60.1c2.2,0.2,4.4,0,6.6,0c2.2,0,4.4,0.1,6.7,0.1c2.1,0.1,4.3-0.1,6.4-0.2c1.8,0,3.5,0.1,5.3,0.2
				c1,0,1-1.5,0-1.5c-1.8-0.1-3.5-0.2-5.3-0.1c-2.1,0-4.3,0.2-6.4,0.2c-4.4-0.1-8.9-0.4-13.2,0C27.5,58.9,27.5,60,28.4,60.1
				L28.4,60.1z"/>
		</g>
	</g>
	<g>
		<g>
			<path class="st0" d="M31.8,41.2c2,0.2,4,0.1,6,0.2c2.1,0.1,4.1,0.2,6.2,0.2c2,0.1,3.9,0,5.9,0.1c1.7,0.1,3.3,0.2,5,0.2
				c1,0,1-1.5,0-1.5c-1.7,0.1-3.4-0.1-5-0.2c-1.9-0.1-3.9-0.1-5.9-0.1c-2.1-0.1-4.1-0.2-6.2-0.2c-2-0.1-4-0.3-6-0.1
				C31,39.9,31,41.1,31.8,41.2L31.8,41.2z"/>
		</g>
	</g>
	<g>
		<g>
			<path class="st0" d="M31.2,26.2c-0.3,1.2-0.6,2.4-0.8,3.7c-0.2,1.3-0.2,2.5-0.2,3.8c0,2.9,0.1,5.6,0.4,8.4c0.3,2.8,0,5.6-0.1,8.4
				c-0.1,3,0.4,5.9,0.3,8.8c0,1.1,1.6,1.1,1.7,0c0.1-2.8-0.4-5.6-0.3-8.3c0.1-2.9,0.4-5.8,0.1-8.7c-0.3-2.8-0.5-5.4-0.5-8.2
				c0-1.3-0.1-2.7,0.1-4c0.2-1.3,0.5-2.5,0.6-3.8C32.6,25.6,31.3,25.5,31.2,26.2L31.2,26.2z"/>
		</g>
	</g>
	<g>
		<g>
			<path class="st0" d="M81,39.3c0.3-1.1,0.3-2.3,0.4-3.4c0.1-1.1,0.1-2.2,0.1-3.3c-0.1-2,0-4-0.6-5.9c-0.3-1-2-0.6-1.6,0.5
				c0.6,1.8,0.5,3.8,0.6,5.6c0,1.1,0,2.1-0.1,3.2c-0.1,1.1-0.3,2.2-0.1,3.3C79.7,40,80.8,39.9,81,39.3L81,39.3z"/>
		</g>
	</g>
	<g>
		<g>
			<path class="st0" d="M46.8,26.7c0.3,2.4,0.1,4.7,0,7.1c-0.1,2.4-0.5,4.8,0,7.2c0.2,1.1,1.9,0.6,1.6-0.5c-0.5-2.3-0.1-4.7,0-7.1
				c0.1-2.3,0.5-4.7-0.3-6.9C48,25.8,46.7,25.9,46.8,26.7L46.8,26.7z"/>
		</g>
	</g>
	<g>
		<g>
			<path class="st0" d="M64.2,25.3c-0.4,0.1-0.6,0.5-0.8,0.9c-0.1,0.2-0.2,0.4-0.2,0.6c-0.1,0.4-0.2,0.7-0.2,1.1c0,0.3,0,0.6,0,1
				c0,0.2,0,0.4,0,0.6c0,0.1,0,0.3,0,0.4c0,0.4,0.1,0.7,0.5,0.8c0.2,0.1,0.6,0.1,0.8,0c0.3-0.2,0.5-0.5,0.5-0.8c0-0.1,0-0.3,0-0.4
				c0-0.2,0-0.4,0-0.6c0-0.3,0-0.6,0-1c0-0.1,0-0.3,0-0.4c0,0,0-0.1,0-0.1c0-0.1,0,0,0,0.1c0-0.1,0-0.2,0-0.3c0-0.2,0.1-0.4,0.1-0.6
				c0.1-0.3,0.2-0.8,0-1.1C64.8,25.4,64.5,25.3,64.2,25.3L64.2,25.3z"/>
		</g>
	</g>
	<g>
		<g>
			<path class="st0" d="M51.7,58.7c0-0.7-0.2-1.5-0.2-2.2c0-0.8,0-1.7,0.1-2.5c0.1-1,0.1-2.1,0.1-3.2c0-1-0.3-2-0.3-3.1
				c-0.3,0.3-0.6,0.6-0.8,0.8c1.6,0,3.3-0.3,4.9-0.2c1.1,0,1.1-1.7,0-1.7c-1.6-0.1-3.3,0.3-4.9,0.3c-0.5,0-0.8,0.4-0.8,0.8
				c-0.1,1.1,0.2,2.1,0.3,3.2c0,1.1,0,2.2,0,3.3c0,0.9-0.1,1.7-0.1,2.6c0,0.8,0.1,1.7,0.6,2.4C50.9,59.6,51.7,59.2,51.7,58.7
				L51.7,58.7z"/>
		</g>
	</g>
	<g>
		<g>
			<g>
				<g>
					<path class="st0" d="M57,51.9c0-0.2,0-0.4,0-0.7c0-0.1,0-0.2,0-0.3c0-0.1,0-0.1,0-0.2c0,0,0-0.2,0-0.2c0,0.1,0-0.1,0-0.1
						c0,0,0-0.1,0-0.1c0-0.1,0.1-0.2,0.1-0.3c0,0,0.1-0.1,0,0c0,0,0-0.1,0.1-0.1c0.1-0.1,0.1-0.2,0.2-0.3c0,0,0.1-0.1,0.1-0.1
						c0,0,0.1-0.1,0,0c-0.1,0.1,0-0.1,0.1-0.1c0,0,0.1-0.1,0.1-0.1c0.1-0.1,0.1-0.1,0.2-0.2c0,0,0.1-0.1,0.1-0.1c0,0-0.1,0.1,0,0
						c0.1-0.1,0.3-0.1,0.4-0.2c0.1-0.1-0.1,0,0,0c0,0,0.1,0,0.1,0c0.1,0,0.2,0,0.2-0.1c0,0,0.1,0,0.1,0c0.1,0-0.1,0-0.1,0
						c0,0,0.2,0,0.2,0c0.1,0,0.1,0,0.2,0c0.1,0,0.1,0,0,0c-0.1-0.1,0,0,0,0c0.1,0,0.1,0,0.2,0c0,0,0.1,0,0.1,0c0.1,0,0.1,0.1,0,0
						c0,0-0.1,0,0,0c0,0,0.1,0,0.1,0c0.1,0,0.1,0.1,0.2,0.1c0.2,0.1-0.1-0.1,0,0c0.1,0.1,0.1,0.1,0.2,0.2c0,0,0.1,0.2,0.1,0.1
						c0-0.1,0,0,0,0c0,0,0.1,0.1,0.1,0.1c0,0.1,0.1,0.1,0.1,0.2c0,0.1,0-0.1,0-0.1c0,0,0,0.1,0,0.1c0,0.1,0.1,0.3,0.1,0.4
						c0,0,0,0.1,0,0.1c0,0,0-0.2,0,0c0,0.1,0,0.2,0,0.3c0,0.2,0,0.4,0,0.6c0,0.1,0,0.2,0,0.3c0,0.1,0,0.2,0,0.3c0,0,0-0.2,0-0.1
						c0,0,0,0.1,0,0.1c0,0.1,0,0.2-0.1,0.2c-0.1,0.4,0.1,0.9,0.5,1c0.4,0.2,0.9,0,1.1-0.4c0.4-0.8,0.3-1.9,0.1-2.7
						c-0.1-0.8-0.5-1.6-1.1-2.1c-0.7-0.5-1.5-0.7-2.4-0.6c-0.9,0.1-1.7,0.7-2.2,1.4c-0.3,0.4-0.6,1-0.7,1.5c-0.2,0.7,0,1.3,0.1,2
						c0.1,0.3,0.5,0.6,0.8,0.5C56.7,52.6,56.9,52.3,57,51.9L57,51.9z"/>
				</g>
			</g>
			<g>
				<g>
					<path class="st0" d="M61.2,51.7c-0.3-0.2-0.6-0.2-0.9-0.1c-0.1,0-0.2,0-0.3,0.1c0,0-0.1,0-0.1,0c0.1,0,0.1,0,0,0
						c-0.4,0-0.9-0.1-1.3-0.1c-0.4,0-0.7,0.1-1.1,0.1c-0.2,0-0.4,0-0.6,0c0.2,0.1-0.1,0-0.1,0c-0.1,0-0.2-0.1-0.2-0.1
						c-0.4-0.2-1,0.2-1,0.6c-0.1,0.5,0.2,0.9,0.6,1c0.7,0.3,1.6,0.2,2.4,0.1c0.4,0,0.8,0,1.3,0c0.2,0,0.5,0,0.7-0.1
						c0.1,0,0.2-0.1,0.3-0.1c0.1,0,0.1,0,0.2-0.1c0.3-0.1-0.1,0.1,0.1,0c0.3-0.1,0.5-0.3,0.5-0.6C61.6,52.1,61.4,51.8,61.2,51.7
						L61.2,51.7z"/>
				</g>
			</g>
			<g>
				<g>
					<path class="st0" d="M53.8,63.6c0.1-1.8,0.7-3.5,1.2-5.3c0.5-1.9,0.9-3.9,1.8-5.7c0.4-0.9-0.8-1.6-1.3-0.8
						c-1.1,1.8-1.5,4.1-2,6.2c-0.3,1-0.6,2-0.8,3c-0.2,0.9-0.4,1.9-0.2,2.8C52.5,64.7,53.7,64.4,53.8,63.6L53.8,63.6z"/>
				</g>
			</g>
			<g>
				<g>
					<path class="st0" d="M64.8,64.2c0.4-0.8-0.2-1.6-0.5-2.4c-0.4-1-0.6-2.1-0.8-3.1c-0.6-2.2-1-4.4-1.9-6.5
						c-0.4-0.8-1.8-0.2-1.5,0.6c0.7,2,1.2,4,1.7,6.1c0.2,1,0.5,1.9,0.8,2.9c0.1,0.4,0.3,0.8,0.5,1.1c0.2,0.3,0.3,0.7,0.4,1.1
						C63.7,64.5,64.5,64.8,64.8,64.2L64.8,64.2z"/>
				</g>
			</g>
			<g>
				<g>
					<path class="st0" d="M52.9,64.4c0.6,0.2,1.2-0.1,1.6-0.4c0.2-0.1,0.5-0.3,0.7-0.4c0,0,0.2-0.1,0.1-0.1c0.1,0,0.3,0.1,0.3,0.2
						c0.5,0.2,1,0.3,1.5,0.6c0.4,0.3,0.8,0.6,1.4,0.5c0.5-0.1,0.9-0.4,1.3-0.7c0.3-0.2,0.6-0.3,0.9-0.5c0.1-0.1,0.3-0.1,0.4-0.2
						c0.1-0.1,0.1,0-0.1,0c0.7,0.3,1.8,0.7,2.3,1.3c0.1-0.5,0.3-1,0.4-1.4c0,0-0.1,0-0.1,0c-0.7,0.3-0.8,1.3,0,1.6c0,0,0.1,0,0.1,0
						c0.9,0.3,1.4-0.8,0.8-1.4c-0.7-0.8-1.8-1.1-2.7-1.5c-0.6-0.3-1-0.2-1.6,0.1c-0.6,0.3-1.2,0.6-1.7,1c-0.1,0.1-0.2,0.1-0.3,0.2
						c0.2,0.1,0.2,0.1,0.1,0c-0.1,0-0.1-0.1-0.2-0.1c-0.2-0.1-0.4-0.3-0.6-0.4c-0.3-0.2-0.6-0.2-1-0.3c-0.3-0.1-0.6-0.3-0.8-0.4
						c-0.6-0.2-1.2,0-1.7,0.4c-0.5,0.3-1.1,0.5-1.6,0.9C52.1,63.6,52.4,64.2,52.9,64.4L52.9,64.4z"/>
				</g>
			</g>
			<g>
				<g>
					<path class="st0" d="M56.3,63c0.5-0.8,0.6-1.8,0.8-2.7c0.1-1,0.2-2,0.3-3c0.1-0.9,0.1-1.7,0.3-2.5c0.2-0.7,0.5-1.5,0.2-2.1
						c-0.4-0.8-1.5-0.3-1.5,0.4c0,0.5-0.2,1-0.3,1.6c-0.2,0.9-0.2,1.8-0.3,2.7c0,0.9-0.1,1.8-0.2,2.7c-0.1,0.9-0.4,1.8-0.5,2.6
						C54.9,63.4,55.9,63.6,56.3,63L56.3,63z"/>
				</g>
			</g>
			<g>
				<g>
					<path class="st0" d="M59,63.9c0.4-1.7,0.3-3.4,0.1-5.1c-0.1-1-0.1-1.9-0.2-2.9c0-1,0.1-2,0-3c0-1.1-1.6-1.1-1.7,0
						c0,2,0,4,0.2,6c0.1,1,0.1,2,0.2,3c0,0.7-0.2,1.6,0.2,2.1C58.1,64.4,58.8,64.4,59,63.9L59,63.9z"/>
				</g>
			</g>
			<g>
				<g>
					<path class="st0" d="M61.9,62.4c0-0.8-0.3-1.7-0.5-2.5c-0.2-0.8-0.3-1.6-0.5-2.4c-0.1-0.8-0.2-1.6-0.3-2.4
						c-0.1-0.8-0.2-1.6-0.3-2.4c-0.2-1-1.9-0.6-1.6,0.4c0.2,0.8,0.2,1.6,0.4,2.4c0.1,0.8,0.2,1.6,0.3,2.3c0.1,0.8,0.2,1.6,0.5,2.3
						c0.2,0.8,0.4,1.7,0.7,2.4C60.8,63.3,61.9,63.2,61.9,62.4L61.9,62.4z"/>
				</g>
			</g>
		</g>
		<g>
			<g>
				<g>
					<path class="st0" d="M57.1,49c-1.5-3.4-1.8-7-0.7-10.6c1-3.2,3.3-5.4,6.2-6.9c3.6-1.8,7.5-1.7,11,0.3c2.9,1.6,5.2,4.1,5.6,7.4
						c0.2,1.1,1.9,0.6,1.7-0.5c-0.9-5.9-7.5-10.4-13.3-10.2c-3.2,0.1-6.2,1.5-8.7,3.4c-2.5,1.9-3.8,4.4-4.5,7.4
						c-0.8,3.4-0.5,7.3,1.5,10.3C56.4,50.4,57.4,49.7,57.1,49L57.1,49z"/>
				</g>
			</g>
			<g>
				<g>
					<path class="st0" d="M69.6,55.5c-0.4-0.3-0.9-0.2-1.3-0.3c-0.4,0-0.8-0.1-1.2-0.1c-0.7-0.1-1.4-0.2-2.1-0.4
						c-1.1-0.3-1.9-0.7-2.9-1.2c-1-0.6-1.9,1-0.9,1.5c1,0.6,2.2,1,3.3,1.3c0.7,0.2,1.5,0.3,2.3,0.4c0.4,0.1,0.9,0.1,1.3,0.1
						c0.5,0,1,0.1,1.5-0.2C70.1,56.4,70.1,55.8,69.6,55.5L69.6,55.5z"/>
				</g>
			</g>
			<g>
				<g>
					<path class="st0" d="M58.2,33.9c0.6,0.8,1.4,1.5,2.1,2.2c0.4,0.4,0.9,0.9,1.3,1.3c0.7,0.8,1.5,1.6,2.2,2.4c1,1.1,2,2.1,3.1,3.1
						c1,0.9,1.9,1.9,3,2.8c0.4,0.3,0.9,0.3,1.2,0c0.3-0.3,0.4-0.9,0-1.2c-1-0.8-2-1.8-3-2.7c-1.1-1-2.1-2.1-3.1-3.2
						c-1.8-2-3.7-4.1-5.9-5.6C58.6,32.5,57.8,33.3,58.2,33.9L58.2,33.9z"/>
				</g>
			</g>
			<g>
				<g>
					<path class="st0" d="M61.2,49.4c1.7-1.7,3.6-3,5.3-4.6c1.8-1.7,3.5-3.7,5.4-5.4c2-1.7,3.9-3.6,5.9-5.3c-0.4-0.3-0.9-0.7-1.3-1
						c0.1-0.1,0.2-0.2,0.3-0.3c-0.9,0.6-0.1,2,0.8,1.4c0.1-0.1,0.2-0.2,0.3-0.3c0.5-0.8-0.6-1.6-1.3-1c-1.1,0.9-2,2-3,2.9
						c-0.9,0.9-1.9,1.7-2.8,2.5c-1.9,1.7-3.5,3.6-5.4,5.4c-0.8,0.8-1.8,1.5-2.6,2.3c-0.9,0.7-1.9,1.5-2.6,2.4
						C59.5,49.1,60.5,50.1,61.2,49.4L61.2,49.4z"/>
				</g>
			</g>
			<g>
				<g>
					<path class="st0" d="M66.4,29.5C66,30,66,30.7,66.1,31.3c0.1,0.7,0.2,1.3,0.4,2c0.4,1.3,0.8,2.8,1.5,4c0.7,1.3,1.6,2.4,2.7,3.4
						c0.7,0.7,1.8,1.4,2.8,1.7c1,0.3,1.5-1,0.7-1.6c-0.7-0.5-1.5-0.7-2.1-1.3c-0.9-0.8-1.9-1.9-2.5-2.9c-0.6-1-0.9-2.3-1.3-3.4
						c-0.4-1.1-0.5-2.2-0.6-3.3C67.5,29.1,66.8,28.9,66.4,29.5L66.4,29.5z"/>
				</g>
			</g>
			<g>
				<g>
					<path class="st0" d="M55.1,42.1c0.8,0.5,1.7,0.6,2.6,0.8c0.9,0.2,1.8,0.6,2.6,1c1.6,0.8,3.1,1.6,4.3,3c1.7,2,2.8,4.5,3.2,7.1
						c0.1,0.5,0.7,0.7,1.1,0.6c0.5-0.1,0.7-0.6,0.6-1.1c-0.4-2.9-1.7-5.7-3.7-7.9c-1.3-1.5-2.9-2.4-4.7-3.2
						c-0.9-0.4-1.9-0.9-2.8-1.1c-0.4-0.1-0.9-0.1-1.3-0.2c-0.5-0.1-1-0.2-1.5-0.3C54.7,40.8,54.5,41.8,55.1,42.1L55.1,42.1z"/>
				</g>
			</g>
			<g>
				<g>
					<path class="st0" d="M69.2,51.2c0.3-1.8,0.8-3.9,1.7-5.4c1.1-2,3.1-3.7,5.1-4.7c2.4-1.2,5.4-1.4,8-0.8c2.4,0.5,4.2,2,5.8,3.8
						c1.6,1.8,2.2,4.8,2.4,7.2c0.1,2.5-0.9,5.1-2.3,7.2c-1.3,1.9-3.9,3-6,3.5c-2.4,0.5-4.9,0.7-7.3,0c-2.3-0.7-4.6-2.7-5.9-4.8
						c-1.1-1.8-1.6-4-1.4-6c0.1-1.1-1.6-1.1-1.7,0c-0.5,4.9,2.6,9.6,6.9,11.9c2.5,1.3,5.5,1.4,8.2,1c2.5-0.3,5.4-1.3,7.4-3
						c2-1.7,3.3-4.8,3.8-7.2c0.6-2.8-0.2-6.2-1.3-8.8c-0.6-1.3-1.6-2.3-2.6-3.3c-1-0.9-2-1.8-3.3-2.4c-2.6-1.2-5.8-1.4-8.6-0.7
						C72.3,40,68.2,45.2,67.8,51C67.7,51.9,69.1,52.1,69.2,51.2z"/>
				</g>
			</g>
			<g>
				<g>
					<path class="st0" d="M76.5,40.3c0.2,0.4,0.6,0.7,1,1c0.3,0.3,0.7,0.6,1,0.8c0.3,0.3,0.6,0.5,0.9,0.8c0.1,0.1,0.3,0.2,0.4,0.3
						c0,0,0.1,0.1,0.1,0.1c0,0,0.1,0.1,0,0c-0.1-0.1,0,0,0,0c0.1,0.1-0.1-0.2,0-0.1c0.1,0.5,0.7,0.8,1.1,0.6
						c0.5-0.2,0.7-0.6,0.6-1.1c-0.1-0.4-0.5-0.8-0.8-1c-0.3-0.3-0.6-0.5-1-0.8c-0.4-0.3-0.8-0.6-1.2-0.9c-0.4-0.3-0.7-0.6-1.1-0.8
						c-0.3-0.1-0.7-0.1-0.9,0.1C76.4,39.7,76.4,40,76.5,40.3L76.5,40.3z"/>
				</g>
			</g>
			<g>
				<g>
					<path class="st0" d="M71.3,43.5c-0.2,0.4-0.2,0.8-0.1,1.2c0.1,0.4,0.2,0.9,0.3,1.3c0.1,0.4,0.3,0.9,0.5,1.3
						c0.1,0.2,0.2,0.5,0.2,0.7c0,0.1,0.1,0.5,0.2,0.6c-0.1-0.1,0.1-0.4,0.1-0.3c0,0-0.1,0.1-0.1,0.1c-0.2,0.1-0.3,0.2-0.5,0.3
						c-0.4,0.3-0.9,0.5-1.3,0.8c-0.5,0.3-0.9,0.5-1.4,0.9c0,0-0.1,0-0.1,0.1c0.1,0,0.1,0,0,0c-0.1,0.1-0.2,0.1-0.4,0.1
						c-0.2,0.1-0.5,0.3-0.6,0.5C67.7,52.2,69,53,69.7,52c-0.2,0.2-0.2,0.2-0.1,0.2c0.1,0,0.3-0.1,0.4-0.2c0.2-0.1,0.5-0.3,0.7-0.4
						c0.5-0.3,0.9-0.6,1.4-0.9c0.4-0.3,0.8-0.5,1.2-0.8c0.4-0.3,0.8-0.7,0.8-1.2c0-0.5-0.2-0.9-0.3-1.3c-0.1-0.5-0.3-0.9-0.5-1.4
						c-0.3-0.8-0.5-1.7-0.8-2.6C72.3,43,71.5,43.1,71.3,43.5L71.3,43.5z"/>
				</g>
			</g>
			<g>
				<g>
					<path class="st0" d="M73.1,49.4c0.5,0.3,1,0.6,1.5,0.8c0.5,0.2,1.1,0.4,1.6,0.2c0.5-0.2,0.9-0.7,1.3-1c0.5-0.3,1-0.6,1.5-0.9
						c0.5-0.3,1-0.7,1.4-1.1c0.2-0.2,0.4-0.4,0.6-0.5c0.2-0.2,0.4-0.3,0.6-0.6c0.3-0.5,0.1-1.2,0.1-1.7c0-0.6,0.1-1.1-0.1-1.7
						c-0.2-0.5-0.6-0.8-1.1-0.6c-0.4,0.1-0.8,0.6-0.6,1.1c0.1,0.4,0.1,0.7,0.1,1.1c0,0.2,0,0.4,0,0.7c0,0.1,0,0.2,0,0.3
						c0,0.1,0,0,0,0.2c0.1-0.1,0.2-0.3,0.2-0.4c-0.1,0.1-0.5,0.4-0.7,0.6c-0.2,0.2-0.5,0.4-0.8,0.6c-0.6,0.5-1.3,0.9-1.9,1.3
						c-0.3,0.2-0.6,0.4-0.9,0.7c-0.1,0.1-0.3,0.2-0.4,0.3c-0.1,0.1-0.1,0.1,0.1,0c0.2,0,0.2,0,0.1-0.1c0,0-0.2-0.1-0.2-0.1
						c-0.7-0.2-1.3-0.5-1.9-0.7C72.8,47.9,72.3,48.9,73.1,49.4L73.1,49.4z"/>
				</g>
			</g>
			<g>
				<g>
					<path class="st0" d="M80.8,43.8C80.8,43.8,80.8,43.8,80.8,43.8c-0.1,0-0.2-0.1-0.3-0.1c0.2,0.1,0.4,0.1,0.6,0.1
						c0.1,0,0.2-0.1,0.3-0.1c-0.1,0,0,0,0,0c0.3-0.1,0.5-0.2,0.7-0.3c0.5-0.2,0.9-0.6,1.4-0.9c0.5-0.3,0.9-0.6,1.3-0.9
						c0.4-0.3,0.8-0.6,1.3-0.8c0.4-0.2,0.5-0.7,0.4-1.1c-0.2-0.4-0.6-0.7-1-0.5c-0.3,0.1-0.6,0.3-0.9,0.5c-0.1,0-0.1,0.1-0.2,0.1
						c0.1-0.1,0,0,0,0c-0.1,0.1-0.2,0.2-0.3,0.2c-0.5,0.3-0.9,0.6-1.4,1c-0.5,0.3-0.9,0.7-1.3,1c-0.2,0.1-0.4,0.2-0.6,0.4
						c-0.1,0.1-0.3,0.2-0.4,0.3c-0.1,0.1-0.2,0.2-0.2,0.3c0,0.1,0,0.2,0,0.3c0,0.1,0,0.1,0,0C80.2,43.6,80.4,43.8,80.8,43.8
						L80.8,43.8z"/>
				</g>
			</g>
			<g>
				<g>
					<path class="st0" d="M80.4,45.8c0.1,0.7,0.8,1.1,1.3,1.5c0,0,0.1,0.1,0.1,0.1c-0.1-0.1,0,0,0,0c0.1,0.1,0.2,0.2,0.3,0.3
						c0.2,0.2,0.4,0.4,0.6,0.6c0.5,0.4,1,0.8,1.5,1.1c0.1,0,0.1,0.1,0.2,0.1c0,0,0.2,0.1,0.1,0c0.1,0.1,0.2,0.2,0.3,0.3
						c0.1,0.1,0.2,0.2,0.4,0.3c0,0,0.1,0.1,0.1,0.1c0.2,0.1-0.1-0.1,0,0c0.3,0.3,0.8,0.3,1.2,0.1c0.3-0.2,0.5-0.8,0.2-1.1
						c-0.2-0.3-0.4-0.4-0.7-0.6c0.1,0.1,0,0,0,0c-0.1,0-0.1-0.1-0.2-0.1c-0.1-0.1-0.3-0.2-0.4-0.3c-0.2-0.2-0.5-0.3-0.7-0.5
						c-0.1-0.1-0.2-0.2-0.4-0.3c-0.1,0-0.1-0.1-0.2-0.1c-0.1-0.1,0.1,0.1-0.1,0c-0.4-0.4-0.9-0.8-1.4-1.1c-0.2-0.2-0.5-0.3-0.7-0.4
						c-0.3-0.2-0.6-0.4-0.9-0.4C80.7,45.2,80.3,45.5,80.4,45.8L80.4,45.8z"/>
				</g>
			</g>
			<g>
				<g>
					<path class="st0" d="M86.1,50.3c1,0,1-1.5,0-1.5C85.1,48.8,85.1,50.3,86.1,50.3L86.1,50.3z"/>
				</g>
			</g>
			<g>
				<g>
					<path class="st0" d="M86,50.4c0.5,0,0.9-0.1,1.3-0.3c0.4-0.1,0.8-0.2,1.1-0.4c0.1-0.1,0.2-0.1,0.4-0.2c-0.2,0.1,0,0,0,0
						c0.2-0.1,0.4-0.1,0.5-0.2c0.4-0.2,0.5-0.6,0.6-1.1c0-0.2,0.1-0.3,0.1-0.4c0-0.1,0-0.2,0.1-0.3c0,0,0.1-0.3,0.1-0.2
						c0.2-0.3,0.4-0.6,0.5-1c0.1-0.2,0.2-0.5,0.3-0.7c0-0.1,0.1-0.2,0.1-0.3c0,0,0.1-0.3,0.1-0.1c0.2-0.4,0.4-0.7,0.4-1.2
						c0-0.5-0.4-0.9-0.9-0.9c-0.5,0-0.9,0.4-0.9,0.9c0-0.2,0-0.1,0,0c0-0.1,0-0.1,0,0c-0.1,0.2-0.2,0.3-0.2,0.5
						c-0.1,0.2-0.1,0.4-0.2,0.5c0,0.1-0.1,0.2-0.1,0.2c0,0-0.1,0.3-0.1,0.2c-0.1,0.3-0.3,0.6-0.5,0.9c-0.2,0.4-0.3,0.8-0.4,1.2
						c0,0.1,0,0.2-0.1,0.3c0,0.1,0,0.1-0.1,0.2c0,0.1,0,0.1,0,0c0-0.1,0.1-0.2,0.2-0.2c-0.1,0.1,0.1,0,0,0c-0.1,0-0.1,0-0.2,0.1
						C88.2,48,88.1,48,88,48c0,0-0.3,0.1-0.1,0.1c-0.3,0.1-0.6,0.2-1,0.3c-0.4,0.1-0.7,0.3-1.1,0.4C85,49,85.1,50.4,86,50.4L86,50.4
						z"/>
				</g>
			</g>
			<g>
				<g>
					<path class="st0" d="M88.6,48.7C88.6,48.7,88.6,48.7,88.6,48.7c-0.1,0.3,0,0.6,0.2,0.7c0.3,0.3,0.6,0.6,0.9,0.8
						c0.3,0.3,0.6,0.6,0.9,0.9c0.2,0.2,0.5,0.3,0.7,0.5c0.1,0.1,0.2,0.1,0.3,0.2c0.1,0,0.1,0.1,0.2,0.1c0.1,0.1-0.2-0.1,0,0
						c0.2,0.2,0.4,0.3,0.6,0.4c0,0,0.1,0,0.1,0.1c0.2,0.1-0.1-0.1,0,0c0,0,0.1,0.1,0.1,0.1c0.1,0.1-0.1-0.2,0,0c0-0.3,0-0.6,0-0.9
						c-0.1,0.2-0.2,0.4-0.1,0.7c0.1,0.3,0.3,0.5,0.6,0.6c0.4,0.1,0.7,0,0.9-0.3c0.2-0.3,0.2-0.7,0.1-1c-0.2-0.5-0.7-0.7-1.1-1
						c-0.4-0.3-0.8-0.6-1.2-0.9c0,0-0.1-0.1-0.1-0.1c0.1,0,0.1,0.1,0,0c-0.1-0.1-0.2-0.1-0.2-0.2c-0.2-0.2-0.3-0.3-0.5-0.5
						c-0.4-0.4-0.8-0.7-1.3-0.8c-0.2-0.1-0.6,0-0.7,0.2C88.7,48.5,88.6,48.5,88.6,48.7L88.6,48.7z"/>
				</g>
			</g>
			<g>
				<g>
					<path class="st0" d="M85,55.5c0.1-0.1,0.3-0.4,0.4-0.6c0.1-0.2,0.1-0.5,0.2-0.7c0.2-0.5,0.3-1,0.5-1.5c0.1-0.5,0.3-1,0.4-1.4
						c0.1-0.5,0.4-0.9,0.5-1.4c-0.5,0.1-1.1,0.1-1.6,0.2c0,0,0,0,0,0.1c0.3,0.5,1.1,0.5,1.4,0c0,0,0,0,0-0.1c0.3-0.4,0.1-1-0.4-1.2
						c-0.5-0.2-1,0.1-1.2,0.6c-0.4,1-0.6,1.9-0.9,2.9c-0.1,0.5-0.3,1-0.4,1.4c-0.1,0.2-0.1,0.5-0.1,0.7c-0.1,0.3-0.1,0.6,0,0.8
						C84,55.8,84.6,55.9,85,55.5L85,55.5z"/>
				</g>
			</g>
			<g>
				<g>
					<path class="st0" d="M83.6,55.6c0.2,0.6,0.6,1.1,0.9,1.6c0.3,0.5,0.6,0.9,0.8,1.4c0.1,0.2,0.3,0.3,0.5,0.4
						c0.2,0.1,0.5,0,0.7-0.1c0.4-0.3,0.5-0.8,0.3-1.2c-0.2-0.5-0.5-1-0.8-1.4c-0.3-0.5-0.7-1-1.1-1.4c-0.2-0.2-0.6-0.3-0.9-0.1
						C83.7,54.9,83.5,55.2,83.6,55.6L83.6,55.6z"/>
				</g>
			</g>
			<g>
				<g>
					<path class="st0" d="M85.4,57.6C85.5,57.6,85.5,57.6,85.4,57.6C85.5,57.6,85.4,57.7,85.4,57.6c-0.1,0.1-0.2,0.2-0.2,0.3
						c-0.1,0.1-0.1,0.1-0.1,0.2c-0.1,0.2-0.2,0.4-0.3,0.6c-0.1,0.3-0.2,0.7-0.3,1c-0.2,0.9-0.6,1.7-0.7,2.5c-0.1,0.5,0.1,1,0.6,1.1
						c0.4,0.1,1-0.1,1.1-0.6c0.1-0.8,0.5-1.6,0.7-2.5c0.1-0.3,0.1-0.6,0.2-1c0-0.2,0.1-0.3,0.1-0.5c0-0.1,0-0.2,0.1-0.2
						c0-0.1,0.1-0.3,0-0.1c0.2-0.3,0.1-0.7-0.2-1C86.1,57.3,85.7,57.4,85.4,57.6L85.4,57.6z"/>
				</g>
			</g>
			<g>
				<g>
					<path class="st0" d="M85.9,58.7c0.3,0.1,0.6,0.1,0.9,0.2c0.5,0,0.9,0,1.4,0c0.5,0,0.9,0.1,1.4,0c0.2,0,0.5,0,0.7,0
						c0.4,0,0.6,0,1-0.1c0.6-0.3,0.5-1.2,0-1.5c-0.5-0.3-1.2-0.2-1.7-0.2c-0.5,0-1,0-1.5,0c-0.4,0-0.9,0-1.3,0
						c-0.5,0-1.3,0.2-1.3,0.9C85.4,58.4,85.6,58.6,85.9,58.7L85.9,58.7z"/>
				</g>
			</g>
			<g>
				<g>
					<path class="st0" d="M70.3,58.4c0.3,0.6,1,0.5,1.6,0.5c0.5,0,1-0.1,1.5-0.1c0.5,0,1,0,1.5,0c0.1,0,0.3,0,0.4-0.1
						c0.1,0,0.1,0,0,0c0.1,0,0.1,0,0.2,0c0.1,0,0.2,0,0.3,0c0.1,0,0.1,0,0,0c0.1,0,0.2,0,0.3,0c0.4,0,0.7-0.2,0.8-0.6
						c0.1-0.3,0-0.8-0.4-1c-0.5-0.3-1.1-0.2-1.6-0.1c-0.1,0-0.1,0,0,0c-0.1,0-0.1,0-0.2,0c-0.1,0-0.3,0-0.4,0c-0.2,0-0.5,0-0.7,0
						c-0.5,0-1,0.1-1.4,0.1c-0.1,0-0.2,0-0.3,0c-0.1,0-0.5,0.1-0.4,0c-0.3,0-0.6,0-0.9,0.2C70.2,57.6,70.1,58,70.3,58.4L70.3,58.4z"
						/>
				</g>
			</g>
			<g>
				<g>
					<path class="st0" d="M75.5,57.9c0,0.3,0,0.5,0.1,0.8c0,0.2,0.1,0.4,0.1,0.6c0.1,0.4,0.2,0.9,0.4,1.3c0.2,0.9,0.5,1.8,0.9,2.6
						c0.2,0.4,0.7,0.5,1.1,0.4c0.4-0.2,0.7-0.6,0.5-1c-0.3-0.8-0.6-1.6-0.8-2.5c-0.1-0.4-0.2-0.8-0.4-1.2c-0.1-0.2-0.1-0.4-0.2-0.6
						c-0.1-0.3-0.2-0.5-0.4-0.7c-0.2-0.3-0.5-0.4-0.8-0.3C75.7,57.3,75.5,57.6,75.5,57.9L75.5,57.9z"/>
				</g>
			</g>
			<g>
				<g>
					<path class="st0" d="M75.7,49.3c-0.5,0.5-0.3,1.2-0.1,1.8c0.2,0.5,0.3,1,0.5,1.5c0.2,0.5,0.3,1.1,0.4,1.6
						c0.1,0.5,0.2,1.1,0.4,1.6c0.2,0.4,0.6,0.7,1.1,0.6c0.4-0.1,0.8-0.6,0.6-1.1c-0.2-0.5-0.3-1-0.4-1.5c-0.1-0.6-0.3-1.1-0.4-1.7
						c-0.2-0.5-0.3-1-0.6-1.5c-0.1-0.2-0.2-0.4-0.3-0.7c-0.1-0.2-0.2-0.5-0.4-0.7C76.3,49.1,75.9,49.1,75.7,49.3L75.7,49.3z"/>
				</g>
			</g>
			<g>
				<g>
					<path class="st0" d="M76.7,58.3c0.2-0.1,0.3-0.2,0.5-0.4c0.2-0.2,0.3-0.4,0.5-0.6c0,0.1-0.1,0.1-0.1,0.2
						c0.1-0.1,0.2-0.3,0.3-0.4c0,0.1-0.1,0.1-0.1,0.2c0.2-0.2,0.3-0.4,0.5-0.7c0.1-0.2,0.2-0.4,0.4-0.5c0,0.1-0.1,0.1-0.1,0.2
						c0.1-0.1,0.2-0.2,0.3-0.3c0.2-0.1,0.2-0.4,0.2-0.6c0-0.2-0.1-0.5-0.2-0.6c-0.2-0.1-0.4-0.3-0.6-0.2c-0.1,0-0.2,0-0.2,0
						c-0.1,0-0.3,0.1-0.4,0.2c-0.2,0.2-0.4,0.4-0.5,0.7c-0.1,0.2-0.3,0.4-0.4,0.6c0-0.1,0.1-0.1,0.1-0.2c-0.2,0.3-0.4,0.6-0.6,0.9
						c-0.1,0.2-0.3,0.5-0.4,0.7c-0.1,0.3,0,0.5,0.2,0.7c0.1,0.1,0.2,0.1,0.3,0.1C76.4,58.4,76.5,58.3,76.7,58.3L76.7,58.3z"/>
				</g>
			</g>
			<g>
				<g>
					<path class="st0" d="M77.6,55.9c0.5,0.3,1.2,0.2,1.8,0.2c0.5,0,1.1,0,1.6,0.1c0.6,0,1.1,0,1.7,0c0.6,0,1.2,0.1,1.7,0.1
						c-0.2-0.1-0.4-0.2-0.6-0.3c0,0,0,0,0,0c-0.1-0.2-0.2-0.4-0.3-0.6c0,0,0,0,0,0c0,0.4,0.2,0.7,0.5,0.8c0.3,0.1,0.7,0.1,0.9-0.2
						c0.2-0.2,0.2-0.4,0.3-0.7c0.1-0.5-0.5-0.9-0.9-0.9c-0.6,0-1.2-0.1-1.7-0.1c-0.6,0-1.2,0-1.7,0c-0.6,0-1.1,0-1.7,0
						c-0.6,0-1.3,0-1.8,0.4C77.2,55.2,77.3,55.7,77.6,55.9L77.6,55.9z"/>
				</g>
			</g>
		</g>
	</g>
</g>
</svg>
