<?xml version="1.0" encoding="utf-8"?>
<!-- Generator: Adobe Illustrator 24.0.1, SVG Export Plug-In . SVG Version: 6.00 Build 0)  -->
<svg version="1.1" id="Calque_1" xmlns="http://www.w3.org/2000/svg" xmlns:xlink="http://www.w3.org/1999/xlink" x="0px" y="0px"
	 viewBox="0 0 122 122" style="enable-background:new 0 0 122 122;" xml:space="preserve">
<style type="text/css">
	.st0{fill:#91D902;}
</style>
<g>
	<path d="M100.6,6.8c-0.7-4.4-4.8-7.4-9.3-6.8L14.7,11c-3,0.5-5.1,3.3-4.7,6.3l7.2,48.5c0.6,3.8,2,7.4,4.2,10.5
		c6.8,9.8,22.1,31.8,25.8,36.8c0.9,1.4,3.6,5.5,5.4,8.1c0.7,1,2.2,0.8,2.6-0.3c1.2-3.5,3.2-9.3,4.2-11.7c2.2-5.5,5.6-16.1,6.6-19.3
		c0.2-0.6,0.7-1,1.3-1.2l4.6-0.8L92.8,84l14.1-2.9c3-0.5,5.1-3.3,4.6-6.4C108.8,57.3,100.6,6.8,100.6,6.8"/>
</g>
<g>
	<g>
		<g>
			<path class="st0" d="M29,33.7c3,0.2,6-0.1,8.9,0c3,0,5.9,0.2,8.9,0.1c2.8-0.2,5.6,0,8.3,0.1c6.5,0.2,13.1,0.3,19.6,0.5
				c1.1,0,2.1,0.1,3.2,0.1c2.4,0.1,4.7-0.3,7.1-0.1c1,0,1-1.4,0-1.5c-2.3-0.1-4.6,0.2-6.9,0.1c-0.8,0-1.7-0.1-2.5-0.1
				c-3-0.1-6.1-0.1-9.1-0.2c-5.8-0.1-11.7-0.5-17.5-0.5c-1.6,0-3.2,0.2-4.9,0.2c-1.7,0-3.3-0.1-5-0.2c-3.4-0.1-6.8-0.1-10.1,0.1
				C28.1,32.4,28.1,33.6,29,33.7L29,33.7z"/>
		</g>
	</g>
	<g>
		<g>
			<path class="st0" d="M63.1,67.7c0.7,0.2,1.7,0.1,2.5,0.1c0.8,0,1.5,0,2.3,0.1c1.4,0,2.9,0.1,4.3,0.1c1,0,1-1.5,0-1.5
				c-1.4-0.1-2.9-0.1-4.3-0.1c-0.8,0-1.5,0-2.3-0.1c-0.8,0-1.7-0.2-2.5,0C62.4,66.6,62.5,67.5,63.1,67.7L63.1,67.7z"/>
		</g>
	</g>
	<g>
		<g>
			<path class="st0" d="M28.4,67.5c2.2,0.2,4.4,0,6.6,0c2.2,0,4.4,0.1,6.7,0.1c2.1,0.1,4.3-0.1,6.4-0.2c1.8,0,3.5,0.1,5.3,0.2
				c1,0,1-1.5,0-1.5c-1.8-0.1-3.5-0.2-5.3-0.1c-2.1,0-4.3,0.2-6.4,0.2c-4.4-0.1-8.9-0.4-13.2,0C27.5,66.2,27.5,67.4,28.4,67.5
				L28.4,67.5z"/>
		</g>
	</g>
	<g>
		<g>
			<path class="st0" d="M31.8,48.5c2,0.2,4,0.1,6,0.2c2.1,0.1,4.1,0.2,6.2,0.2c2,0.1,3.9,0,5.9,0.1c1.7,0.1,3.3,0.2,5,0.2
				c1,0,1-1.5,0-1.5c-1.7,0.1-3.4-0.1-5-0.2c-1.9-0.1-3.9-0.1-5.9-0.1c-2.1-0.1-4.1-0.2-6.2-0.2c-2-0.1-4-0.3-6-0.1
				C31,47.2,31,48.4,31.8,48.5L31.8,48.5z"/>
		</g>
	</g>
	<g>
		<g>
			<path class="st0" d="M31.2,33.5c-0.3,1.2-0.6,2.4-0.8,3.7c-0.2,1.3-0.2,2.5-0.2,3.8c0,2.9,0.1,5.6,0.4,8.4c0.3,2.8,0,5.6-0.1,8.4
				c-0.1,3,0.4,5.9,0.3,8.8c0,1.1,1.6,1.1,1.7,0c0.1-2.8-0.4-5.6-0.3-8.3c0.1-2.9,0.4-5.8,0.1-8.7c-0.3-2.8-0.5-5.4-0.5-8.2
				c0-1.3-0.1-2.7,0.1-4c0.2-1.3,0.5-2.5,0.6-3.8C32.6,32.9,31.3,32.8,31.2,33.5L31.2,33.5z"/>
		</g>
	</g>
	<g>
		<g>
			<path class="st0" d="M81,46.6c0.3-1.1,0.3-2.3,0.4-3.4c0.1-1.1,0.1-2.2,0.1-3.3c-0.1-2,0-4-0.6-5.9c-0.3-1-2-0.6-1.6,0.5
				c0.6,1.8,0.5,3.8,0.6,5.6c0,1.1,0,2.1-0.1,3.2c-0.1,1.1-0.3,2.2-0.1,3.3C79.7,47.3,80.8,47.2,81,46.6L81,46.6z"/>
		</g>
	</g>
	<g>
		<g>
			<path class="st0" d="M46.8,34.1c0.3,2.4,0.1,4.7,0,7.1c-0.1,2.4-0.5,4.8,0,7.2c0.2,1.1,1.9,0.6,1.6-0.5c-0.5-2.3-0.1-4.7,0-7.1
				c0.1-2.3,0.5-4.7-0.3-6.9C48,33.1,46.7,33.2,46.8,34.1L46.8,34.1z"/>
		</g>
	</g>
	<g>
		<g>
			<path class="st0" d="M64.2,32.7c-0.4,0.1-0.6,0.5-0.8,0.9c-0.1,0.2-0.2,0.4-0.2,0.6c-0.1,0.4-0.2,0.7-0.2,1.1c0,0.3,0,0.6,0,1
				c0,0.2,0,0.4,0,0.6c0,0.1,0,0.3,0,0.4c0,0.4,0.1,0.7,0.5,0.8c0.2,0.1,0.6,0.1,0.8,0c0.3-0.2,0.5-0.5,0.5-0.8c0-0.1,0-0.3,0-0.4
				c0-0.2,0-0.4,0-0.6c0-0.3,0-0.6,0-1c0-0.1,0-0.3,0-0.4c0,0,0-0.1,0-0.1c0-0.1,0,0,0,0.1c0-0.1,0-0.2,0-0.3c0-0.2,0.1-0.4,0.1-0.6
				c0.1-0.3,0.2-0.8,0-1.1C64.8,32.7,64.5,32.6,64.2,32.7L64.2,32.7z"/>
		</g>
	</g>
	<g>
		<g>
			<path class="st0" d="M51.7,66c0-0.7-0.2-1.5-0.2-2.2c0-0.8,0-1.7,0.1-2.5c0.1-1,0.1-2.1,0.1-3.2c0-1-0.3-2-0.3-3.1
				c-0.3,0.3-0.6,0.6-0.8,0.8c1.6,0,3.3-0.3,4.9-0.2c1.1,0,1.1-1.7,0-1.7c-1.6-0.1-3.3,0.3-4.9,0.3c-0.5,0-0.8,0.4-0.8,0.8
				c-0.1,1.1,0.2,2.1,0.3,3.2c0,1.1,0,2.2,0,3.3c0,0.9-0.1,1.7-0.1,2.6c0,0.8,0.1,1.7,0.6,2.4C50.9,67,51.7,66.5,51.7,66L51.7,66z"
				/>
		</g>
	</g>
	<g>
		<g>
			<g>
				<g>
					<path class="st0" d="M57,59.3c0-0.2,0-0.4,0-0.7c0-0.1,0-0.2,0-0.3c0-0.1,0-0.1,0-0.2c0,0,0-0.2,0-0.2c0,0.1,0-0.1,0-0.1
						c0,0,0-0.1,0-0.1c0-0.1,0.1-0.2,0.1-0.3c0,0,0.1-0.1,0,0c0,0,0-0.1,0.1-0.1c0.1-0.1,0.1-0.2,0.2-0.3c0,0,0.1-0.1,0.1-0.1
						c0,0,0.1-0.1,0,0c-0.1,0.1,0-0.1,0.1-0.1c0,0,0.1-0.1,0.1-0.1c0.1-0.1,0.1-0.1,0.2-0.2c0,0,0.1-0.1,0.1-0.1c0,0-0.1,0.1,0,0
						c0.1-0.1,0.3-0.1,0.4-0.2c0.1-0.1-0.1,0,0,0c0,0,0.1,0,0.1,0c0.1,0,0.2,0,0.2-0.1c0,0,0.1,0,0.1,0c0.1,0-0.1,0-0.1,0
						c0,0,0.2,0,0.2,0c0.1,0,0.1,0,0.2,0c0.1,0,0.1,0,0,0c-0.1-0.1,0,0,0,0c0.1,0,0.1,0,0.2,0c0,0,0.1,0,0.1,0c0.1,0,0.1,0.1,0,0
						c0,0-0.1,0,0,0c0,0,0.1,0,0.1,0c0.1,0,0.1,0.1,0.2,0.1c0.2,0.1-0.1-0.1,0,0c0.1,0.1,0.1,0.1,0.2,0.2c0,0,0.1,0.2,0.1,0.1
						c0-0.1,0,0,0,0c0,0,0.1,0.1,0.1,0.1c0,0.1,0.1,0.1,0.1,0.2c0,0.1,0-0.1,0-0.1c0,0,0,0.1,0,0.1c0,0.1,0.1,0.3,0.1,0.4
						c0,0,0,0.1,0,0.1c0,0,0-0.2,0,0c0,0.1,0,0.2,0,0.3c0,0.2,0,0.4,0,0.6c0,0.1,0,0.2,0,0.3c0,0.1,0,0.2,0,0.3c0,0,0-0.2,0-0.1
						c0,0,0,0.1,0,0.1c0,0.1,0,0.2-0.1,0.2c-0.1,0.4,0.1,0.9,0.5,1c0.4,0.2,0.9,0,1.1-0.4c0.4-0.8,0.3-1.9,0.1-2.7
						c-0.1-0.8-0.5-1.6-1.1-2.1c-0.7-0.5-1.5-0.7-2.4-0.6c-0.9,0.1-1.7,0.7-2.2,1.4c-0.3,0.4-0.6,1-0.7,1.5c-0.2,0.7,0,1.3,0.1,2
						c0.1,0.3,0.5,0.6,0.8,0.5C56.7,59.9,56.9,59.6,57,59.3L57,59.3z"/>
				</g>
			</g>
			<g>
				<g>
					<path class="st0" d="M61.2,59c-0.3-0.2-0.6-0.2-0.9-0.1c-0.1,0-0.2,0-0.3,0.1c0,0-0.1,0-0.1,0c0.1,0,0.1,0,0,0
						c-0.4,0-0.9-0.1-1.3-0.1c-0.4,0-0.7,0.1-1.1,0.1c-0.2,0-0.4,0-0.6,0c0.2,0.1-0.1,0-0.1,0c-0.1,0-0.2-0.1-0.2-0.1
						c-0.4-0.2-1,0.2-1,0.6c-0.1,0.5,0.2,0.9,0.6,1c0.7,0.3,1.6,0.2,2.4,0.1c0.4,0,0.8,0,1.3,0c0.2,0,0.5,0,0.7-0.1
						c0.1,0,0.2-0.1,0.3-0.1c0.1,0,0.1,0,0.2-0.1c0.3-0.1-0.1,0.1,0.1,0c0.3-0.1,0.5-0.3,0.5-0.6C61.6,59.4,61.4,59.2,61.2,59
						L61.2,59z"/>
				</g>
			</g>
			<g>
				<g>
					<path class="st0" d="M53.8,71c0.1-1.8,0.7-3.5,1.2-5.3c0.5-1.9,0.9-3.9,1.8-5.7c0.4-0.9-0.8-1.6-1.3-0.8
						c-1.1,1.8-1.5,4.1-2,6.2c-0.3,1-0.6,2-0.8,3c-0.2,0.9-0.4,1.9-0.2,2.8C52.5,72,53.7,71.7,53.8,71L53.8,71z"/>
				</g>
			</g>
			<g>
				<g>
					<path class="st0" d="M64.8,71.6c0.4-0.8-0.2-1.6-0.5-2.4c-0.4-1-0.6-2.1-0.8-3.1c-0.6-2.2-1-4.4-1.9-6.5
						c-0.4-0.8-1.8-0.2-1.5,0.6c0.7,2,1.2,4,1.7,6.1c0.2,1,0.5,1.9,0.8,2.9c0.1,0.4,0.3,0.8,0.5,1.1c0.2,0.3,0.3,0.7,0.4,1.1
						C63.7,71.9,64.5,72.2,64.8,71.6L64.8,71.6z"/>
				</g>
			</g>
			<g>
				<g>
					<path class="st0" d="M52.9,71.7c0.6,0.2,1.2-0.1,1.6-0.4c0.2-0.1,0.5-0.3,0.7-0.4c0,0,0.2-0.1,0.1-0.1c0.1,0,0.3,0.1,0.3,0.2
						c0.5,0.2,1,0.3,1.5,0.6c0.4,0.3,0.8,0.6,1.4,0.5c0.5-0.1,0.9-0.4,1.3-0.7c0.3-0.2,0.6-0.3,0.9-0.5c0.1-0.1,0.3-0.1,0.4-0.2
						c0.1-0.1,0.1,0-0.1,0c0.7,0.3,1.8,0.7,2.3,1.3c0.1-0.5,0.3-1,0.4-1.4c0,0-0.1,0-0.1,0c-0.7,0.3-0.8,1.3,0,1.6c0,0,0.1,0,0.1,0
						c0.9,0.3,1.4-0.8,0.8-1.4c-0.7-0.8-1.8-1.1-2.7-1.5c-0.6-0.3-1-0.2-1.6,0.1c-0.6,0.3-1.2,0.6-1.7,1c-0.1,0.1-0.2,0.1-0.3,0.2
						c0.2,0.1,0.2,0.1,0.1,0c-0.1,0-0.1-0.1-0.2-0.1c-0.2-0.1-0.4-0.3-0.6-0.4c-0.3-0.2-0.6-0.2-1-0.3c-0.3-0.1-0.6-0.3-0.8-0.4
						c-0.6-0.2-1.2,0-1.7,0.4c-0.5,0.3-1.1,0.5-1.6,0.9C52.1,71,52.4,71.6,52.9,71.7L52.9,71.7z"/>
				</g>
			</g>
			<g>
				<g>
					<path class="st0" d="M56.3,70.4c0.5-0.8,0.6-1.8,0.8-2.7c0.1-1,0.2-2,0.3-3c0.1-0.9,0.1-1.7,0.3-2.5c0.2-0.7,0.5-1.5,0.2-2.1
						c-0.4-0.8-1.5-0.3-1.5,0.4c0,0.5-0.2,1-0.3,1.6c-0.2,0.9-0.2,1.8-0.3,2.7c0,0.9-0.1,1.8-0.2,2.7C55.3,68.3,55,69.1,55,70
						C54.9,70.7,55.9,70.9,56.3,70.4L56.3,70.4z"/>
				</g>
			</g>
			<g>
				<g>
					<path class="st0" d="M59,71.2c0.4-1.7,0.3-3.4,0.1-5.1c-0.1-1-0.1-1.9-0.2-2.9c0-1,0.1-2,0-3c0-1.1-1.6-1.1-1.7,0
						c0,2,0,4,0.2,6c0.1,1,0.1,2,0.2,3c0,0.7-0.2,1.6,0.2,2.1C58.1,71.8,58.8,71.8,59,71.2L59,71.2z"/>
				</g>
			</g>
			<g>
				<g>
					<path class="st0" d="M61.9,69.7c0-0.8-0.3-1.7-0.5-2.5c-0.2-0.8-0.3-1.6-0.5-2.4c-0.1-0.8-0.2-1.6-0.3-2.4
						c-0.1-0.8-0.2-1.6-0.3-2.4c-0.2-1-1.9-0.6-1.6,0.4c0.2,0.8,0.2,1.6,0.4,2.4c0.1,0.8,0.2,1.6,0.3,2.3c0.1,0.8,0.2,1.6,0.5,2.3
						c0.2,0.8,0.4,1.7,0.7,2.4C60.8,70.6,61.9,70.5,61.9,69.7L61.9,69.7z"/>
				</g>
			</g>
		</g>
		<g>
			<g>
				<g>
					<path class="st0" d="M57.1,56.3c-1.5-3.4-1.8-7-0.7-10.6c1-3.2,3.3-5.4,6.2-6.9c3.6-1.8,7.5-1.7,11,0.3
						c2.9,1.6,5.2,4.1,5.6,7.4c0.2,1.1,1.9,0.6,1.7-0.5c-0.9-5.9-7.5-10.4-13.3-10.2c-3.2,0.1-6.2,1.5-8.7,3.4
						c-2.5,1.9-3.8,4.4-4.5,7.4c-0.8,3.4-0.5,7.3,1.5,10.3C56.4,57.7,57.4,57.1,57.1,56.3L57.1,56.3z"/>
				</g>
			</g>
			<g>
				<g>
					<path class="st0" d="M69.6,62.8c-0.4-0.3-0.9-0.2-1.3-0.3c-0.4,0-0.8-0.1-1.2-0.1c-0.7-0.1-1.4-0.2-2.1-0.4
						c-1.1-0.3-1.9-0.7-2.9-1.2c-1-0.6-1.9,1-0.9,1.5c1,0.6,2.2,1,3.3,1.3c0.7,0.2,1.5,0.3,2.3,0.4c0.4,0.1,0.9,0.1,1.3,0.1
						c0.5,0,1,0.1,1.5-0.2C70.1,63.7,70.1,63.1,69.6,62.8L69.6,62.8z"/>
				</g>
			</g>
			<g>
				<g>
					<path class="st0" d="M58.2,41.2c0.6,0.8,1.4,1.5,2.1,2.2c0.4,0.4,0.9,0.9,1.3,1.3c0.7,0.8,1.5,1.6,2.2,2.4c1,1.1,2,2.1,3.1,3.1
						c1,0.9,1.9,1.9,3,2.8c0.4,0.3,0.9,0.3,1.2,0c0.3-0.3,0.4-0.9,0-1.2c-1-0.8-2-1.8-3-2.7C67,48,66,47,65,45.9
						c-1.8-2-3.7-4.1-5.9-5.6C58.6,39.8,57.8,40.6,58.2,41.2L58.2,41.2z"/>
				</g>
			</g>
			<g>
				<g>
					<path class="st0" d="M61.2,56.7c1.7-1.7,3.6-3,5.3-4.6c1.8-1.7,3.5-3.7,5.4-5.4c2-1.7,3.9-3.6,5.9-5.3c-0.4-0.3-0.9-0.7-1.3-1
						c0.1-0.1,0.2-0.2,0.3-0.3c-0.9,0.6-0.1,2,0.8,1.4c0.1-0.1,0.2-0.2,0.3-0.3c0.5-0.8-0.6-1.6-1.3-1c-1.1,0.9-2,2-3,2.9
						c-0.9,0.9-1.9,1.7-2.8,2.5c-1.9,1.7-3.5,3.6-5.4,5.4c-0.8,0.8-1.8,1.5-2.6,2.3c-0.9,0.7-1.9,1.5-2.6,2.4
						C59.5,56.4,60.5,57.4,61.2,56.7L61.2,56.7z"/>
				</g>
			</g>
			<g>
				<g>
					<path class="st0" d="M66.4,36.8C66,37.3,66,38,66.1,38.6c0.1,0.7,0.2,1.3,0.4,2c0.4,1.3,0.8,2.8,1.5,4c0.7,1.3,1.6,2.4,2.7,3.4
						c0.7,0.7,1.8,1.4,2.8,1.7c1,0.3,1.5-1,0.7-1.6c-0.7-0.5-1.5-0.7-2.1-1.3c-0.9-0.8-1.9-1.9-2.5-2.9c-0.6-1-0.9-2.3-1.3-3.4
						c-0.4-1.1-0.5-2.2-0.6-3.3C67.5,36.5,66.8,36.3,66.4,36.8L66.4,36.8z"/>
				</g>
			</g>
			<g>
				<g>
					<path class="st0" d="M55.1,49.4c0.8,0.5,1.7,0.6,2.6,0.8c0.9,0.2,1.8,0.6,2.6,1c1.6,0.8,3.1,1.6,4.3,3c1.7,2,2.8,4.5,3.2,7.1
						c0.1,0.5,0.7,0.7,1.1,0.6c0.5-0.1,0.7-0.6,0.6-1.1c-0.4-2.9-1.7-5.7-3.7-7.9c-1.3-1.5-2.9-2.4-4.7-3.2
						c-0.9-0.4-1.9-0.9-2.8-1.1c-0.4-0.1-0.9-0.1-1.3-0.2c-0.5-0.1-1-0.2-1.5-0.3C54.7,48.1,54.5,49.1,55.1,49.4L55.1,49.4z"/>
				</g>
			</g>
			<g>
				<g>
					<path class="st0" d="M69.2,58.6c0.3-1.8,0.8-3.9,1.7-5.4c1.1-2,3.1-3.7,5.1-4.7c2.4-1.2,5.4-1.4,8-0.8c2.4,0.5,4.2,2,5.8,3.8
						c1.6,1.8,2.2,4.8,2.4,7.2c0.1,2.5-0.9,5.1-2.3,7.2c-1.3,1.9-3.9,3-6,3.5c-2.4,0.5-4.9,0.7-7.3,0c-2.3-0.7-4.6-2.7-5.9-4.8
						c-1.1-1.8-1.6-4-1.4-6c0.1-1.1-1.6-1.1-1.7,0c-0.5,4.9,2.6,9.6,6.9,11.9c2.5,1.3,5.5,1.4,8.2,1c2.5-0.3,5.4-1.3,7.4-3
						c2-1.7,3.3-4.8,3.8-7.2c0.6-2.8-0.2-6.2-1.3-8.8C92.1,51,91.1,50,90,49c-1-0.9-2-1.8-3.3-2.4c-2.6-1.2-5.8-1.4-8.6-0.7
						c-5.8,1.4-9.9,6.6-10.3,12.4C67.7,59.2,69.1,59.4,69.2,58.6z"/>
				</g>
			</g>
			<g>
				<g>
					<path class="st0" d="M76.5,47.7c0.2,0.4,0.6,0.7,1,1c0.3,0.3,0.7,0.6,1,0.8c0.3,0.3,0.6,0.5,0.9,0.8c0.1,0.1,0.3,0.2,0.4,0.3
						c0,0,0.1,0.1,0.1,0.1c0,0,0.1,0.1,0,0c-0.1-0.1,0,0,0,0c0.1,0.1-0.1-0.2,0-0.1c0.1,0.5,0.7,0.8,1.1,0.6
						c0.5-0.2,0.7-0.6,0.6-1.1c-0.1-0.4-0.5-0.8-0.8-1c-0.3-0.3-0.6-0.5-1-0.8c-0.4-0.3-0.8-0.6-1.2-0.9c-0.4-0.3-0.7-0.6-1.1-0.8
						c-0.3-0.1-0.7-0.1-0.9,0.1C76.4,47,76.4,47.4,76.5,47.7L76.5,47.7z"/>
				</g>
			</g>
			<g>
				<g>
					<path class="st0" d="M71.3,50.8c-0.2,0.4-0.2,0.8-0.1,1.2c0.1,0.4,0.2,0.9,0.3,1.3c0.1,0.4,0.3,0.9,0.5,1.3
						c0.1,0.2,0.2,0.5,0.2,0.7c0,0.1,0.1,0.5,0.2,0.6c-0.1-0.1,0.1-0.4,0.1-0.3c0,0-0.1,0.1-0.1,0.1c-0.2,0.1-0.3,0.2-0.5,0.3
						c-0.4,0.3-0.9,0.5-1.3,0.8c-0.5,0.3-0.9,0.5-1.4,0.9c0,0-0.1,0-0.1,0.1c0.1,0,0.1,0,0,0c-0.1,0.1-0.2,0.1-0.4,0.1
						c-0.2,0.1-0.5,0.3-0.6,0.5c-0.5,1.1,0.9,1.8,1.6,0.9c-0.2,0.2-0.2,0.2-0.1,0.2c0.1,0,0.3-0.1,0.4-0.2c0.2-0.1,0.5-0.3,0.7-0.4
						c0.5-0.3,0.9-0.6,1.4-0.9c0.4-0.3,0.8-0.5,1.2-0.8c0.4-0.3,0.8-0.7,0.8-1.2c0-0.5-0.2-0.9-0.3-1.3c-0.1-0.5-0.3-0.9-0.5-1.4
						c-0.3-0.8-0.5-1.7-0.8-2.6C72.3,50.3,71.5,50.4,71.3,50.8L71.3,50.8z"/>
				</g>
			</g>
			<g>
				<g>
					<path class="st0" d="M73.1,56.8c0.5,0.3,1,0.6,1.5,0.8c0.5,0.2,1.1,0.4,1.6,0.2c0.5-0.2,0.9-0.7,1.3-1c0.5-0.3,1-0.6,1.5-0.9
						c0.5-0.3,1-0.7,1.4-1.1c0.2-0.2,0.4-0.4,0.6-0.5c0.2-0.2,0.4-0.3,0.6-0.6c0.3-0.5,0.1-1.2,0.1-1.7c0-0.6,0.1-1.1-0.1-1.7
						c-0.2-0.5-0.6-0.8-1.1-0.6c-0.4,0.1-0.8,0.6-0.6,1.1c0.1,0.4,0.1,0.7,0.1,1.1c0,0.2,0,0.4,0,0.7c0,0.1,0,0.2,0,0.3
						c0,0.1,0,0,0,0.2c0.1-0.1,0.2-0.3,0.2-0.4c-0.1,0.1-0.5,0.4-0.7,0.6c-0.2,0.2-0.5,0.4-0.8,0.6c-0.6,0.5-1.3,0.9-1.9,1.3
						c-0.3,0.2-0.6,0.4-0.9,0.7c-0.1,0.1-0.3,0.2-0.4,0.3c-0.1,0.1-0.1,0.1,0.1,0c0.2,0,0.2,0,0.1-0.1c0,0-0.2-0.1-0.2-0.1
						c-0.7-0.2-1.3-0.5-1.9-0.7C72.8,55.2,72.3,56.3,73.1,56.8L73.1,56.8z"/>
				</g>
			</g>
			<g>
				<g>
					<path class="st0" d="M80.8,51.2C80.8,51.2,80.8,51.2,80.8,51.2c-0.1,0-0.2-0.1-0.3-0.1c0.2,0.1,0.4,0.1,0.6,0.1
						c0.1,0,0.2-0.1,0.3-0.1c-0.1,0,0,0,0,0c0.3-0.1,0.5-0.2,0.7-0.3c0.5-0.2,0.9-0.6,1.4-0.9c0.5-0.3,0.9-0.6,1.3-0.9
						c0.4-0.3,0.8-0.6,1.3-0.8c0.4-0.2,0.5-0.7,0.4-1.1c-0.2-0.4-0.6-0.7-1-0.5c-0.3,0.1-0.6,0.3-0.9,0.5c-0.1,0-0.1,0.1-0.2,0.1
						c0.1-0.1,0,0,0,0c-0.1,0.1-0.2,0.2-0.3,0.2c-0.5,0.3-0.9,0.6-1.4,1c-0.5,0.3-0.9,0.7-1.3,1c-0.2,0.1-0.4,0.2-0.6,0.4
						c-0.1,0.1-0.3,0.2-0.4,0.3c-0.1,0.1-0.2,0.2-0.2,0.3c0,0.1,0,0.2,0,0.3c0,0.1,0,0.1,0,0C80.2,50.9,80.4,51.1,80.8,51.2
						L80.8,51.2z"/>
				</g>
			</g>
			<g>
				<g>
					<path class="st0" d="M80.4,53.2c0.1,0.7,0.8,1.1,1.3,1.5c0,0,0.1,0.1,0.1,0.1c-0.1-0.1,0,0,0,0c0.1,0.1,0.2,0.2,0.3,0.3
						c0.2,0.2,0.4,0.4,0.6,0.6c0.5,0.4,1,0.8,1.5,1.1c0.1,0,0.1,0.1,0.2,0.1c0,0,0.2,0.1,0.1,0c0.1,0.1,0.2,0.2,0.3,0.3
						c0.1,0.1,0.2,0.2,0.4,0.3c0,0,0.1,0.1,0.1,0.1c0.2,0.1-0.1-0.1,0,0c0.3,0.3,0.8,0.3,1.2,0.1c0.3-0.2,0.5-0.8,0.2-1.1
						c-0.2-0.3-0.4-0.4-0.7-0.6c0.1,0.1,0,0,0,0c-0.1,0-0.1-0.1-0.2-0.1c-0.1-0.1-0.3-0.2-0.4-0.3c-0.2-0.2-0.5-0.3-0.7-0.5
						c-0.1-0.1-0.2-0.2-0.4-0.3c-0.1,0-0.1-0.1-0.2-0.1c-0.1-0.1,0.1,0.1-0.1,0c-0.4-0.4-0.9-0.8-1.4-1.1c-0.2-0.2-0.5-0.3-0.7-0.4
						c-0.3-0.2-0.6-0.4-0.9-0.4C80.7,52.5,80.3,52.8,80.4,53.2L80.4,53.2z"/>
				</g>
			</g>
			<g>
				<g>
					<path class="st0" d="M86.1,57.7c1,0,1-1.5,0-1.5C85.1,56.2,85.1,57.7,86.1,57.7L86.1,57.7z"/>
				</g>
			</g>
			<g>
				<g>
					<path class="st0" d="M86,57.7c0.5,0,0.9-0.1,1.3-0.3c0.4-0.1,0.8-0.2,1.1-0.4c0.1-0.1,0.2-0.1,0.4-0.2c-0.2,0.1,0,0,0,0
						c0.2-0.1,0.4-0.1,0.5-0.2c0.4-0.2,0.5-0.6,0.6-1.1c0-0.2,0.1-0.3,0.1-0.4c0-0.1,0-0.2,0.1-0.3c0,0,0.1-0.3,0.1-0.2
						c0.2-0.3,0.4-0.6,0.5-1c0.1-0.2,0.2-0.5,0.3-0.7c0-0.1,0.1-0.2,0.1-0.3c0,0,0.1-0.3,0.1-0.1c0.2-0.4,0.4-0.7,0.4-1.2
						c0-0.5-0.4-0.9-0.9-0.9c-0.5,0-0.9,0.4-0.9,0.9c0-0.2,0-0.1,0,0c0-0.1,0-0.1,0,0c-0.1,0.2-0.2,0.3-0.2,0.5
						c-0.1,0.2-0.1,0.4-0.2,0.5c0,0.1-0.1,0.2-0.1,0.2c0,0-0.1,0.3-0.1,0.2c-0.1,0.3-0.3,0.6-0.5,0.9c-0.2,0.4-0.3,0.8-0.4,1.2
						c0,0.1,0,0.2-0.1,0.3c0,0.1,0,0.1-0.1,0.2c0,0.1,0,0.1,0,0c0-0.1,0.1-0.2,0.2-0.2c-0.1,0.1,0.1,0,0,0c-0.1,0-0.1,0-0.2,0.1
						c-0.1,0-0.2,0.1-0.3,0.1c0,0-0.3,0.1-0.1,0.1c-0.3,0.1-0.6,0.2-1,0.3c-0.4,0.1-0.7,0.3-1.1,0.4C85,56.3,85.1,57.8,86,57.7
						L86,57.7z"/>
				</g>
			</g>
			<g>
				<g>
					<path class="st0" d="M88.6,56C88.6,56,88.6,56,88.6,56c-0.1,0.3,0,0.6,0.2,0.7c0.3,0.3,0.6,0.6,0.9,0.8
						c0.3,0.3,0.6,0.6,0.9,0.9c0.2,0.2,0.5,0.3,0.7,0.5c0.1,0.1,0.2,0.1,0.3,0.2c0.1,0,0.1,0.1,0.2,0.1c0.1,0.1-0.2-0.1,0,0
						c0.2,0.2,0.4,0.3,0.6,0.4c0,0,0.1,0,0.1,0.1c0.2,0.1-0.1-0.1,0,0c0,0,0.1,0.1,0.1,0.1c0.1,0.1-0.1-0.2,0,0c0-0.3,0-0.6,0-0.9
						c-0.1,0.2-0.2,0.4-0.1,0.7c0.1,0.3,0.3,0.5,0.6,0.6c0.4,0.1,0.7,0,0.9-0.3c0.2-0.3,0.2-0.7,0.1-1c-0.2-0.5-0.7-0.7-1.1-1
						c-0.4-0.3-0.8-0.6-1.2-0.9c0,0-0.1-0.1-0.1-0.1c0.1,0,0.1,0.1,0,0c-0.1-0.1-0.2-0.1-0.2-0.2c-0.2-0.2-0.3-0.3-0.5-0.5
						c-0.4-0.4-0.8-0.7-1.3-0.8c-0.2-0.1-0.6,0-0.7,0.2C88.7,55.8,88.6,55.9,88.6,56L88.6,56z"/>
				</g>
			</g>
			<g>
				<g>
					<path class="st0" d="M85,62.8c0.1-0.1,0.3-0.4,0.4-0.6c0.1-0.2,0.1-0.5,0.2-0.7c0.2-0.5,0.3-1,0.5-1.5c0.1-0.5,0.3-1,0.4-1.4
						c0.1-0.5,0.4-0.9,0.5-1.4c-0.5,0.1-1.1,0.1-1.6,0.2c0,0,0,0,0,0.1c0.3,0.5,1.1,0.5,1.4,0c0,0,0,0,0-0.1c0.3-0.4,0.1-1-0.4-1.2
						c-0.5-0.2-1,0.1-1.2,0.6c-0.4,1-0.6,1.9-0.9,2.9c-0.1,0.5-0.3,1-0.4,1.4c-0.1,0.2-0.1,0.5-0.1,0.7c-0.1,0.3-0.1,0.6,0,0.8
						C84,63.2,84.6,63.3,85,62.8L85,62.8z"/>
				</g>
			</g>
			<g>
				<g>
					<path class="st0" d="M83.6,62.9c0.2,0.6,0.6,1.1,0.9,1.6c0.3,0.5,0.6,0.9,0.8,1.4c0.1,0.2,0.3,0.3,0.5,0.4
						c0.2,0.1,0.5,0,0.7-0.1c0.4-0.3,0.5-0.8,0.3-1.2c-0.2-0.5-0.5-1-0.8-1.4c-0.3-0.5-0.7-1-1.1-1.4c-0.2-0.2-0.6-0.3-0.9-0.1
						C83.7,62.2,83.5,62.6,83.6,62.9L83.6,62.9z"/>
				</g>
			</g>
			<g>
				<g>
					<path class="st0" d="M85.4,65C85.5,65,85.5,64.9,85.4,65C85.5,65,85.4,65,85.4,65c-0.1,0.1-0.2,0.2-0.2,0.3
						c-0.1,0.1-0.1,0.1-0.1,0.2c-0.1,0.2-0.2,0.4-0.3,0.6c-0.1,0.3-0.2,0.7-0.3,1c-0.2,0.9-0.6,1.7-0.7,2.5c-0.1,0.5,0.1,1,0.6,1.1
						c0.4,0.1,1-0.1,1.1-0.6c0.1-0.8,0.5-1.6,0.7-2.5c0.1-0.3,0.1-0.6,0.2-1c0-0.2,0.1-0.3,0.1-0.5c0-0.1,0-0.2,0.1-0.2
						c0-0.1,0.1-0.3,0-0.1c0.2-0.3,0.1-0.7-0.2-1C86.1,64.7,85.7,64.7,85.4,65L85.4,65z"/>
				</g>
			</g>
			<g>
				<g>
					<path class="st0" d="M85.9,66.1c0.3,0.1,0.6,0.1,0.9,0.2c0.5,0,0.9,0,1.4,0c0.5,0,0.9,0.1,1.4,0c0.2,0,0.5,0,0.7,0
						c0.4,0,0.6,0,1-0.1c0.6-0.3,0.5-1.2,0-1.5c-0.5-0.3-1.2-0.2-1.7-0.2c-0.5,0-1,0-1.5,0c-0.4,0-0.9,0-1.3,0
						c-0.5,0-1.3,0.2-1.3,0.9C85.4,65.7,85.6,66,85.9,66.1L85.9,66.1z"/>
				</g>
			</g>
			<g>
				<g>
					<path class="st0" d="M70.3,65.7c0.3,0.6,1,0.5,1.6,0.5c0.5,0,1-0.1,1.5-0.1c0.5,0,1,0,1.5,0c0.1,0,0.3,0,0.4-0.1
						c0.1,0,0.1,0,0,0c0.1,0,0.1,0,0.2,0c0.1,0,0.2,0,0.3,0c0.1,0,0.1,0,0,0c0.1,0,0.2,0,0.3,0c0.4,0,0.7-0.2,0.8-0.6
						c0.1-0.3,0-0.8-0.4-1c-0.5-0.3-1.1-0.2-1.6-0.1c-0.1,0-0.1,0,0,0c-0.1,0-0.1,0-0.2,0c-0.1,0-0.3,0-0.4,0c-0.2,0-0.5,0-0.7,0
						c-0.5,0-1,0.1-1.4,0.1c-0.1,0-0.2,0-0.3,0c-0.1,0-0.5,0.1-0.4,0c-0.3,0-0.6,0-0.9,0.2C70.2,65,70.1,65.3,70.3,65.7L70.3,65.7z"
						/>
				</g>
			</g>
			<g>
				<g>
					<path class="st0" d="M75.5,65.3c0,0.3,0,0.5,0.1,0.8c0,0.2,0.1,0.4,0.1,0.6c0.1,0.4,0.2,0.9,0.4,1.3c0.2,0.9,0.5,1.8,0.9,2.6
						c0.2,0.4,0.7,0.5,1.1,0.4c0.4-0.2,0.7-0.6,0.5-1c-0.3-0.8-0.6-1.6-0.8-2.5c-0.1-0.4-0.2-0.8-0.4-1.2c-0.1-0.2-0.1-0.4-0.2-0.6
						c-0.1-0.3-0.2-0.5-0.4-0.7c-0.2-0.3-0.5-0.4-0.8-0.3C75.7,64.7,75.5,65,75.5,65.3L75.5,65.3z"/>
				</g>
			</g>
			<g>
				<g>
					<path class="st0" d="M75.7,56.6c-0.5,0.5-0.3,1.2-0.1,1.8c0.2,0.5,0.3,1,0.5,1.5c0.2,0.5,0.3,1.1,0.4,1.6
						c0.1,0.5,0.2,1.1,0.4,1.6c0.2,0.4,0.6,0.7,1.1,0.6c0.4-0.1,0.8-0.6,0.6-1.1c-0.2-0.5-0.3-1-0.4-1.5c-0.1-0.6-0.3-1.1-0.4-1.7
						c-0.2-0.5-0.3-1-0.6-1.5c-0.1-0.2-0.2-0.4-0.3-0.7c-0.1-0.2-0.2-0.5-0.4-0.7C76.3,56.4,75.9,56.4,75.7,56.6L75.7,56.6z"/>
				</g>
			</g>
			<g>
				<g>
					<path class="st0" d="M76.7,65.6c0.2-0.1,0.3-0.2,0.5-0.4c0.2-0.2,0.3-0.4,0.5-0.6c0,0.1-0.1,0.1-0.1,0.2
						c0.1-0.1,0.2-0.3,0.3-0.4c0,0.1-0.1,0.1-0.1,0.2c0.2-0.2,0.3-0.4,0.5-0.7c0.1-0.2,0.2-0.4,0.4-0.5c0,0.1-0.1,0.1-0.1,0.2
						c0.1-0.1,0.2-0.2,0.3-0.3c0.2-0.1,0.2-0.4,0.2-0.6c0-0.2-0.1-0.5-0.2-0.6c-0.2-0.1-0.4-0.3-0.6-0.2c-0.1,0-0.2,0-0.2,0
						c-0.1,0-0.3,0.1-0.4,0.2c-0.2,0.2-0.4,0.4-0.5,0.7c-0.1,0.2-0.3,0.4-0.4,0.6c0-0.1,0.1-0.1,0.1-0.2c-0.2,0.3-0.4,0.6-0.6,0.9
						c-0.1,0.2-0.3,0.5-0.4,0.7c-0.1,0.3,0,0.5,0.2,0.7c0.1,0.1,0.2,0.1,0.3,0.1C76.4,65.7,76.5,65.7,76.7,65.6L76.7,65.6z"/>
				</g>
			</g>
			<g>
				<g>
					<path class="st0" d="M77.6,63.3c0.5,0.3,1.2,0.2,1.8,0.2c0.5,0,1.1,0,1.6,0.1c0.6,0,1.1,0,1.7,0c0.6,0,1.2,0.1,1.7,0.1
						c-0.2-0.1-0.4-0.2-0.6-0.3c0,0,0,0,0,0c-0.1-0.2-0.2-0.4-0.3-0.6c0,0,0,0,0,0c0,0.4,0.2,0.7,0.5,0.8c0.3,0.1,0.7,0.1,0.9-0.2
						c0.2-0.2,0.2-0.4,0.3-0.7c0.1-0.5-0.5-0.9-0.9-0.9c-0.6,0-1.2-0.1-1.7-0.1c-0.6,0-1.2,0-1.7,0c-0.6,0-1.1,0-1.7,0
						c-0.6,0-1.3,0-1.8,0.4C77.2,62.5,77.3,63.1,77.6,63.3L77.6,63.3z"/>
				</g>
			</g>
		</g>
	</g>
	<g>
		<g>
			<g>
				<path class="st0" d="M40.9,27.2c0.2-1.1,0.3-2.2,0.6-3.3c0.3-1.1,0.6-2.2,1-3.3c0.1-0.4,0.3-0.8,0.5-1.1c0.1-0.1,0.1,0-0.1,0
					c-0.1,0-0.1-0.1-0.1,0c0-0.1,0,0,0,0c0.1,0.1,0.1,0.2,0.2,0.4c0.5,1.2,0.5,2.5,0.7,3.7c0.2,1.4,0.8,2.7,1,4.2
					c0,0.4,0.2,0.7,0.6,0.9c0.4,0.1,0.8-0.1,1-0.4c0.1-0.3,0.2-0.5,0.2-0.8c0-1.1-1.6-1.1-1.7,0c0,0.2,0,0.1,0-0.1
					c0.5,0.1,1.1,0.3,1.6,0.4c-0.2-1.5-0.8-3-1-4.5c-0.2-1.5-0.2-3.1-1-4.4c-0.3-0.5-0.8-1-1.5-1c-0.6,0-1.1,0.4-1.5,0.8
					c-0.4,0.5-0.6,1.2-0.8,1.8c-0.2,0.6-0.4,1.3-0.6,2c-0.2,0.8-0.4,1.5-0.5,2.3c-0.1,0.7-0.2,1.5-0.2,2.3c0,0.4,0.2,0.7,0.6,0.7
					C40.4,27.7,40.8,27.5,40.9,27.2L40.9,27.2z"/>
			</g>
		</g>
		<g>
			<g>
				<path class="st0" d="M47.8,17.6c-0.2,0.7-0.1,1.6-0.1,2.3c0,0.8,0.1,1.5,0.1,2.3c0,0.7,0.1,1.5,0,2.2c0,0.8-0.1,1.5-0.1,2.2
					c0,0.9,1.5,1.2,1.7,0.2c0-0.2,0.1-0.3,0.1-0.5c0-0.8-1-0.9-1.4-0.4c0,0,0,0-0.1,0.1c0.5,0.3,0.9,0.5,1.4,0.8
					c0.3-1.5,0.2-3.1,0.1-4.6c0-0.8-0.1-1.6-0.1-2.3c-0.1-0.8,0-1.6-0.2-2.3C49,16.9,47.9,16.9,47.8,17.6L47.8,17.6z"/>
			</g>
		</g>
		<g>
			<g>
				<path class="st0" d="M48.5,18.7c1.1,0.1,2.2,0.4,3,1.1c0.8,0.7,1.2,1.7,1.1,2.8c0,1-0.4,2.1-1.1,2.8c-0.3,0.3-0.7,0.5-1.2,0.6
					c-0.2,0-0.5,0-0.8,0c-0.3,0-0.6-0.2-1-0.1c-0.7,0.1-1.1,0.9-0.6,1.4c0.5,0.5,1.3,0.6,2,0.6c0.6,0,1.2-0.2,1.8-0.5
					c1-0.5,1.8-1.5,2.2-2.6c0.9-2.3,0.4-5.1-1.6-6.6c-1.1-0.8-2.5-1.2-3.8-1.1C47.5,17.3,47.5,18.6,48.5,18.7L48.5,18.7z"/>
			</g>
		</g>
		<g>
			<g>
				<path class="st0" d="M59.5,17.9c-0.5-0.7-1.7-0.7-2.5-0.6c-1.1,0.2-1.4,1.1-1.5,2.1c-0.1,2.2,0.1,4.5-0.4,6.7
					c-0.1,0.6,0.3,1,0.9,1.1c0.6,0.1,1.1,0.1,1.7,0.1c0.6-0.1,1.5-0.2,1.8-0.8c0.3-0.6-0.2-1.4-0.9-1.2c-0.2,0-0.3,0.1-0.4,0.2
					c0.1-0.1-0.1,0-0.1,0c-0.2,0.1-0.3,0.1-0.6,0.1c-0.5,0-0.9,0-1.4-0.1c0.3,0.4,0.6,0.7,0.9,1.1c0.4-2,0.3-4.1,0.3-6.2
					c0-0.4,0-0.8,0-1.1c0,0,0-0.2,0-0.1c0,0,0-0.2,0-0.2c0,0,0.1-0.1,0,0c0,0,0.1,0,0,0c0.6-0.1,1.3,0.1,1.9-0.1
					C59.5,18.9,59.8,18.3,59.5,17.9L59.5,17.9z"/>
			</g>
		</g>
		<g>
			<g>
				<path class="st0" d="M41.1,24c0.3,0.2,0.6,0.2,0.9,0.2c0.2,0,0.5,0,0.7,0c0.5,0,0.9,0,1.4,0c0.4,0,0.9-0.4,0.9-0.9
					c0-0.5-0.4-0.8-0.9-0.9c-0.5,0-0.9,0-1.4,0c-0.2,0-0.5,0-0.7,0c-0.1,0-0.2,0-0.3,0c-0.1,0-0.2,0-0.3,0c0.2,0,0.1,0-0.1,0
					c-0.1,0-0.1,0.1-0.2,0.1c-0.2,0.1-0.3,0.4-0.3,0.6C40.8,23.6,40.9,23.8,41.1,24L41.1,24z"/>
			</g>
		</g>
		<g>
			<g>
				<path class="st0" d="M56.5,23.1C56.5,23.1,56.5,23.1,56.5,23.1c-0.1-0.1-0.3-0.1-0.5-0.2c0.2,0.2,0.4,0.3,0.6,0.2
					c0.1,0,0.1,0,0.2,0c0.1,0,0.3,0,0.4,0c-0.1,0-0.1,0-0.2,0c0.2,0,0.5,0.1,0.7,0.1c0.3,0,0.7,0,0.9-0.3c0.3-0.3,0.3-0.8,0-1.1
					c-0.1-0.1-0.2-0.2-0.4-0.2c0.1,0,0.1,0.1,0.2,0.1c-0.1,0-0.2-0.1-0.3-0.1c-0.1,0-0.2,0-0.3,0c-0.1,0-0.1,0-0.2,0
					c-0.1,0-0.3,0-0.4,0c-0.1,0-0.3,0-0.4,0c-0.1,0-0.2,0-0.4,0.1c-0.3,0.1-0.5,0.3-0.6,0.6c0.1-0.1,0.1-0.2,0.2-0.3c0,0,0,0,0,0
					c0,0-0.1,0.1-0.1,0.1c0,0.1,0,0.1-0.1,0.2c0,0.1,0,0.3,0,0.4C56,22.9,56.2,23.1,56.5,23.1L56.5,23.1z"/>
			</g>
		</g>
		<g>
			<g>
				<path class="st0" d="M62,27.6c0.1-0.4,0.1-0.7,0.1-1.1c0-0.4,0-0.8,0-1.2c0.1-0.8,0.2-1.7,0.2-2.5c0-1-0.1-2.1,0.2-3.1
					c0-0.1,0-0.2,0.1-0.2c0.1-0.2-0.1,0.1,0-0.1c0.1-0.1,0.1-0.2,0.2-0.3c-0.1,0.2,0.1-0.1,0.2-0.2c-0.2,0.2,0.1-0.1,0.2-0.1
					c0.2-0.1-0.2,0,0,0c0.1,0,0.1,0,0.2,0c0.1,0,0.3,0,0,0c0.1,0,0.1,0,0.2,0c0.1,0,0.2,0,0.3,0c-0.2,0,0,0,0,0c0.1,0,0.2,0,0.2,0.1
					c0.1,0,0.4,0.2,0.2,0c0.1,0.1,0.2,0.1,0.3,0.2c0.1,0,0.1,0.1,0.2,0.1c-0.2-0.1-0.1,0,0,0c0.1,0.1,0.2,0.2,0.3,0.3
					c0.2,0.1-0.1-0.1,0,0c0,0,0.1,0.1,0.1,0.1c0,0.1,0.2,0.4,0.1,0.2c0,0.1,0.1,0.3,0.1,0.4c0,0.1,0,0,0,0c0,0.1,0,0.2,0,0.3
					c0,0.1,0,0.1,0,0.2c0-0.2,0,0,0,0.1c0,0.1-0.1,0.3-0.1,0.4c0.1-0.3,0,0-0.1,0.1c0.1-0.2-0.1,0.1-0.2,0.2c-0.4,0.4-1.1,0.8-1.5,1
					c-0.2,0.1-0.3,0.1-0.5,0.1c0.3-0.1-0.3,0-0.2,0c0.2,0-0.1,0-0.1,0c-0.1,0-0.1,0,0.1,0c0,0-0.1,0-0.1-0.1c0,0,0.1,0,0.1,0.1
					c0,0-0.1-0.1-0.1-0.1c0.1,0.1,0.1,0.1,0,0c0,0,0-0.1-0.1-0.1c-0.4-0.9-1.9-0.3-1.6,0.7c0.6,2,3.1,1.1,4.3,0.3
					c0.6-0.4,1.3-1,1.6-1.7c0.3-0.7,0.3-1.6,0-2.3c-0.5-1.4-2-2.4-3.5-2.3c-0.7,0-1.4,0.3-1.9,0.9c-0.7,0.8-0.9,1.8-0.9,2.8
					c0,0.8,0,1.5,0,2.3c0,0.6-0.1,1.2-0.1,1.7c0,0.5-0.1,1-0.1,1.6c0,0.6,0.1,1.2,0.5,1.6C61.3,28.2,61.9,28.1,62,27.6L62,27.6z"/>
			</g>
		</g>
		<g>
			<g>
				<path class="st0" d="M73.1,18c-0.2-0.6-1-0.8-1.6-0.7c-0.6,0-1.2,0.2-1.7,0.6c-1,0.8-1.4,2.1-0.7,3.2c0.3,0.4,0.6,0.8,1,1.2
					c0.2,0.2,0.4,0.4,0.5,0.5c0.1,0.1,0.3,0.3,0.3,0.4c0.3,0.4,0.6,0.8,0.7,1.2c0.1,0.1,0.1,0.3,0.1,0.4c0,0,0,0.3,0,0.2
					c0,0.1,0,0.3,0,0.2c0,0,0,0.1,0,0.1c-0.1,0.1,0.1-0.1,0,0.1c-0.2,0.2-0.4,0.3-0.8,0.2c-0.2-0.1-0.4-0.2-0.6-0.3
					c-0.2-0.1-0.4-0.4-0.6-0.6c-0.3-0.2-0.7-0.1-0.9,0.1c-0.3,0.2-0.4,0.6-0.3,0.9c0.3,1.1,1.8,1.8,2.9,1.7c1.3-0.1,2.3-1.2,2.2-2.5
					c-0.1-1.2-0.8-2.2-1.5-3c-0.3-0.4-0.7-0.7-1-1.1c-0.1-0.1-0.2-0.2-0.2-0.3c0,0-0.2-0.2-0.2-0.2c-0.1-0.1-0.1-0.2-0.2-0.3
					c0,0,0-0.2,0-0.1c0-0.1,0-0.1,0-0.2c0-0.1,0.1-0.2,0.2-0.3c0.1-0.2,0.3-0.3,0.5-0.4c0.6-0.3,1.3,0.1,1.8-0.4
					C73.1,18.5,73.2,18.2,73.1,18L73.1,18z"/>
			</g>
		</g>
	</g>
</g>
</svg>
