<?xml version="1.0" encoding="utf-8"?>
<!-- Generator: Adobe Illustrator 24.0.1, SVG Export Plug-In . SVG Version: 6.00 Build 0)  -->
<svg version="1.1" id="Calque_1" xmlns="http://www.w3.org/2000/svg" xmlns:xlink="http://www.w3.org/1999/xlink" x="0px" y="0px"
	 viewBox="0 0 122 122" style="enable-background:new 0 0 122 122;" xml:space="preserve">
<style type="text/css">
	.st0{fill:#91D902;}
</style>
<g>
	<path d="M101.9,6.8c-0.7-4.4-4.8-7.4-9.3-6.8L16,11c-3,0.5-5.1,3.3-4.7,6.3l7.2,48.5c0.6,3.8,2,7.4,4.2,10.5
		c6.8,9.8,22.1,31.8,25.8,36.8c0.9,1.4,3.6,5.5,5.4,8.1c0.7,1,2.2,0.8,2.6-0.3c1.2-3.5,3.2-9.3,4.2-11.7c2.2-5.5,5.6-16.1,6.6-19.3
		c0.2-0.6,0.7-1,1.3-1.2l4.6-0.8L94.1,84l14.1-2.9c3-0.5,5.1-3.3,4.6-6.4C110.1,57.3,101.9,6.8,101.9,6.8"/>
</g>
<g>
	<g>
		<g>
			<path class="st0" d="M56.5,41.6C56.5,41.6,56.5,41.6,56.5,41.6c-0.2,0.3-0.1,0.7,0.1,0.9c0.8,1.1,2.1,2,3.5,1.4
				c0.7-0.3,1.4-1.5,2.3-1.1c0.4,0.2,0.8,0.6,1.2,0.8c0.5,0.3,1.1,0.4,1.7,0.2c0.5-0.1,0.8-0.5,1.2-0.9c0.3-0.4,0.4-0.6,0.9-0.5
				c0.4,0,0.8-0.4,0.8-0.8c0-0.5-0.4-0.8-0.8-0.8c-0.6-0.1-1.1,0.1-1.6,0.5c-0.3,0.3-0.5,0.6-0.8,0.9c-0.5,0.5-1.4-0.6-2-0.8
				c-1.2-0.5-2.2,0-3.1,0.8c-0.3,0.2-0.6,0.5-1,0.4c-0.6-0.2-1-0.8-1.5-1.1c-0.3-0.2-0.6-0.1-0.9,0.1C56.5,41.5,56.5,41.6,56.5,41.6
				L56.5,41.6z"/>
		</g>
	</g>
	<g>
		<g>
			<path class="st0" d="M58,43.3c-0.6,0.8-0.5,2-0.4,2.9c0,1.4,0.2,2.8,0.2,4.2c0,2.6-0.5,5.3,0.2,7.8c0.3,1,1.8,0.6,1.6-0.4
				c-0.5-2.4-0.1-4.9-0.1-7.3c0-2.3-0.5-4.5-0.3-6.7C59.2,42.9,58.3,42.8,58,43.3L58,43.3z"/>
		</g>
	</g>
	<g>
		<g>
			<path class="st0" d="M65.1,43.2c-0.3,2.3,0,4.8-0.1,7.1c0,2.4-0.2,4.8,0.1,7.2c0.1,1.1,1.8,1.1,1.7,0c-0.3-2.4-0.1-4.8-0.1-7.2
				c0-2.3,0.1-4.8-0.2-7.1C66.3,42.6,65.2,42.6,65.1,43.2L65.1,43.2z"/>
		</g>
	</g>
	<g>
		<g>
			<path class="st0" d="M55.7,58.8c-0.2,1-0.2,2.1,0.1,3c0.3,0.8,0.9,1.4,1.7,1.7c1.8,0.7,3.8,0.2,5.6,0.1c1.6-0.1,3.8,0.3,5-1
				c1.1-1.1,0.8-3,0.7-4.3c-0.1-1.1-1.7-1.1-1.7,0c0,0.5,0.1,1.1,0.1,1.6c0,0.5,0,1.1-0.3,1.5c-0.4,0.4-1.1,0.4-1.6,0.4
				c-0.7,0-1.5,0-2.2,0c-1,0.1-1.9,0.2-2.9,0.3c-0.6,0.1-1.2,0.1-1.8-0.1c-0.5-0.1-1-0.3-1.1-0.9c-0.3-0.8-0.1-1.6-0.2-2.4
				C57,58.1,55.9,58.2,55.7,58.8L55.7,58.8z"/>
		</g>
	</g>
	<g>
		<g>
			<path class="st0" d="M57.1,62.8c-0.2,0.6-0.2,1.3-0.1,1.9c0.1,0.6,0.4,1.2,1,1.5c1.1,0.6,2.4,0.2,3.6,0.3
				c1.3,0.1,2.9,0.3,4.2-0.4c1.1-0.6,1.3-2,1.1-3.1c-0.1-1.1-1.6-1.1-1.7,0c0,0.2,0,0.5,0,0.7c0,0.2,0,0.4,0,0.5
				c0,0.1,0,0.2-0.1,0.3c0-0.1-0.1,0.1,0,0c-0.1,0.1-0.1,0.1-0.3,0.2c-0.5,0.2-1,0.2-1.5,0.2c-0.6,0-1.1-0.1-1.7-0.1
				c-0.9,0-1.9,0.3-2.6,0c-0.2-0.1-0.3-0.2-0.4-0.5c-0.1-0.5,0.1-1-0.1-1.5C58.2,62.2,57.4,62.2,57.1,62.8L57.1,62.8z"/>
		</g>
	</g>
	<g>
		<g>
			<path class="st0" d="M54,58.9c0.9,0.8,2.2,0.4,3.3,0.3c1.4-0.1,2.9,0.1,4.3,0.2c1.4,0,2.8-0.1,4.2-0.2c1.1-0.1,2.3-0.4,3.4,0
				c1,0.3,1.5-1.3,0.4-1.6c-1.1-0.4-2.3-0.2-3.5-0.1c-1.3,0.1-2.7,0.2-4,0.2c-1.4,0-2.9-0.2-4.3-0.2c-0.6,0-1.2,0.1-1.8,0.2
				c-0.6,0.1-1.1,0-1.7-0.1C53.9,57.6,53.6,58.5,54,58.9L54,58.9z"/>
		</g>
	</g>
	<g>
		<g>
			<path class="st0" d="M53.9,58c0-0.1,0.1-0.2,0.1-0.3c0.4,0.1,0.8,0.2,1.2,0.3c-0.8-1.9,0.4-4.1-0.2-6c-0.5-1.8-2.2-2.8-3-4.4
				c-1.1-2.3-1.2-5.2-1.2-7.6c0-2.6,1.1-4.6,2.9-6.4c1.9-1.8,4.3-2.6,6.9-2.6c2.6,0,5.3,0.1,7.4,1.9c0.8,0.7,1.8,1.4,2.6,2.1
				c0.9,0.8,1.5,2,2,3c1,2.1,1.2,4.8,0.6,7c-0.3,1.2-0.9,2.4-1.7,3.4c-0.7,1-1.7,1.6-2.5,2.5c-0.8,0.8-0.9,1.7-0.8,2.7
				c0,1.4,0.2,2.8,0.1,4.1c-0.1,1.1,1.7,1.1,1.7,0c0.1-1.4-0.1-2.8-0.1-4.1c0-0.7,0-1.1,0.4-1.6c0.4-0.5,1-0.8,1.4-1.3
				c1.7-1.7,2.9-3.9,3.3-6.3c0.4-2.4,0.1-5-1-7.2c-0.5-1-1-2-1.7-2.8c-0.9-1.1-2.2-1.9-3.3-2.8c-1.9-1.7-4.4-2.2-6.9-2.3
				c-2.6-0.1-5.3,0.1-7.6,1.5c-2,1.2-3.9,3.2-4.9,5.4c-1,2.4-0.7,5.5-0.3,8c0.2,1.4,0.5,2.8,1.1,4.1c0.5,1,1.4,1.8,2.1,2.7
				c1,1.2,1,2.1,0.9,3.6c-0.1,1.3-0.2,2.6,0.4,3.9c0.2,0.5,0.8,0.4,1.2,0.2c0.2-0.2,0.3-0.4,0.3-0.7C55.4,57,53.9,57,53.9,58
				L53.9,58z"/>
		</g>
	</g>
	<g>
		<g>
			<path class="st0" d="M62.7,26C62.7,26,62.7,25.9,62.7,26C62.7,25.8,62.7,26.1,62.7,26c0-0.1,0-0.1,0-0.2c0-0.1,0,0.1,0,0.1
				c0-0.1,0-0.3,0-0.4c0-0.3,0-0.6,0-0.9c0-0.1,0-0.1,0-0.2c0,0,0-0.1,0-0.1c0-0.1,0,0.2,0,0.1c0-0.1,0-0.3,0.1-0.4
				c0-0.1,0.1-0.2,0.1-0.3c0-0.1-0.1,0.2,0,0.1c0-0.1,0.2-0.4,0-0.1c0-0.1,0.1-0.2,0.1-0.3c0.1-0.3-0.1-0.7-0.4-0.9
				c-0.3-0.2-0.7-0.1-0.9,0.1c-0.3,0.2-0.4,0.6-0.4,0.9c-0.1,0.3-0.1,0.7-0.1,1.1c0,0.6,0,1.3,0.3,1.9c0.2,0.3,0.6,0.4,0.9,0.3
				C62.6,26.7,62.8,26.3,62.7,26L62.7,26z"/>
		</g>
	</g>
	<g>
		<g>
			<path class="st0" d="M73.6,31.8c0.3-0.1,0.5-0.3,0.7-0.5c0.4-0.2,0.7-0.5,1-0.7c0.3-0.2,0.6-0.5,0.8-0.7c0.3-0.3,0.7-0.7,0.6-1.1
				c0-0.3-0.2-0.6-0.5-0.7c-0.3-0.1-0.6-0.1-0.8,0.2c-0.1,0.1-0.2,0.3-0.3,0.4c-0.1,0.1,0.1-0.1,0-0.1c0,0,0,0.1-0.1,0.1
				c0,0.1-0.1,0.1-0.1,0.2c-0.2,0.3-0.5,0.5-0.8,0.7c-0.1,0.1-0.3,0.2-0.4,0.3c-0.2,0.1,0.1-0.1,0,0c0,0-0.1,0-0.1,0.1
				c-0.1,0.1-0.1,0.1-0.2,0.2c-0.3,0.2-0.5,0.4-0.8,0.6c-0.3,0.2-0.3,0.7-0.1,0.9C73,31.9,73.3,31.9,73.6,31.8L73.6,31.8z"/>
		</g>
	</g>
	<g>
		<g>
			<path class="st0" d="M77.9,42.9c0.7,0.1,1.4,0.1,2.1,0.1c0.4,0,0.7,0,1.1,0c0.2,0,0.4,0,0.5-0.1c0.2-0.1,0.3-0.1,0.5-0.2
				c0.2-0.2,0.2-0.4,0.2-0.6c0-0.4,0-0.3,0,0.2c0,0,0,0,0,0c0.1-0.6-0.4-1.1-1-1c-0.1,0,0,0,0.2,0c0.1,0,0.3,0.1,0.4,0.1
				c0.2,0.2,0.2,0.2,0,0c-0.1,0-0.1-0.1-0.2-0.1c-0.2-0.1-0.4,0-0.6,0.1c0.3-0.1,0.1-0.1,0.1,0c-0.1,0-0.1,0-0.2,0c0,0-0.1,0-0.1,0
				c0.3-0.1,0.1,0,0.1,0c-0.4,0-0.7,0.1-1.1,0.1c-0.7,0-1.3,0-2,0.1c-0.4,0-0.8,0.3-0.7,0.7C77.2,42.6,77.5,42.9,77.9,42.9
				L77.9,42.9z"/>
		</g>
	</g>
	<g>
		<g>
			<path class="st0" d="M72.6,53.6c0.1,0.3,0.2,0.6,0.4,0.9c0.2,0.3,0.3,0.5,0.5,0.8c0.2,0.3,0.5,0.6,0.7,0.9
				c0.2,0.3,0.6,0.6,0.9,0.7c0.3,0.1,0.7,0,0.8-0.3c0.1-0.1,0.1-0.2,0.2-0.4c0-0.2,0-0.3-0.1-0.5c-0.1-0.2-0.2-0.3-0.4-0.4
				c-0.1-0.1-0.2-0.2-0.3-0.3c-0.2-0.2-0.4-0.4-0.6-0.7c-0.1-0.1-0.2-0.2-0.3-0.3c-0.1-0.1,0.1,0.1,0,0c0,0,0-0.1-0.1-0.1
				c0-0.1-0.1-0.1-0.1-0.2c-0.2-0.2-0.3-0.5-0.4-0.7c-0.2-0.3-0.6-0.4-0.9-0.3C72.7,52.9,72.5,53.3,72.6,53.6L72.6,53.6z"/>
		</g>
	</g>
	<g>
		<g>
			<path class="st0" d="M50.2,52.6c-0.3,0.2-0.5,0.4-0.8,0.7c-0.2,0.2-0.5,0.4-0.7,0.6c-0.2,0.2-0.5,0.4-0.7,0.6
				c-0.1,0.1-0.2,0.2-0.3,0.3c0,0-0.1,0.1-0.1,0.1c-0.1,0.2-0.2,0.3-0.2,0.5c0,0.1,0,0.2,0,0.4c0.1,0.3,0.4,0.6,0.7,0.6
				c0.2,0,0.5-0.1,0.6-0.2c0.1-0.1,0.1-0.2,0.2-0.3c0,0.1-0.1,0.1-0.1,0.2c0.3-0.4,0.7-0.8,1.1-1.1c0.2-0.2,0.4-0.4,0.6-0.6
				c0.2-0.2,0.5-0.5,0.6-0.7c0.1-0.3,0.1-0.6-0.1-0.8C50.8,52.5,50.5,52.4,50.2,52.6L50.2,52.6z"/>
		</g>
	</g>
	<g>
		<g>
			<path class="st0" d="M45.8,41.3c-0.1,0-0.2,0-0.3,0c0,0,0,0,0,0c0.2,0,0.2,0-0.1,0c0,0-0.1,0-0.1,0c0,0-0.2,0,0,0c0.1,0,0,0,0,0
				c-0.1,0-0.2,0-0.2,0c-0.3,0-0.7,0.1-1,0.1c-0.3,0-0.7,0-1,0c-0.1,0-0.1,0-0.2,0c-0.2,0,0.2,0,0,0c-0.2,0-0.5-0.1-0.7,0
				c-0.2,0.1-0.4,0.2-0.5,0.5c-0.1,0.2-0.1,0.5,0,0.7c0.2,0.5,0.8,0.5,1.3,0.5c0.3,0,0.7,0,1,0c0.4,0,0.8-0.1,1.2-0.2
				c0.3-0.1,0.7-0.1,1-0.3C46.8,42.3,46.5,41.3,45.8,41.3L45.8,41.3z"/>
		</g>
	</g>
	<g>
		<g>
			<path class="st0" d="M51,30.3c-0.1-0.1-0.2-0.2-0.3-0.3c-0.1,0-0.1-0.1-0.1-0.1c0,0,0,0-0.1-0.1c0.2,0.2,0.1,0.1,0,0.1
				c-0.2-0.2-0.3-0.5-0.4-0.8c-0.1-0.3-0.3-0.5-0.4-0.8c-0.1-0.2-0.2-0.3-0.4-0.5c-0.1-0.1-0.2-0.2-0.3-0.2c-0.1,0-0.2-0.1-0.2-0.1
				c-0.1,0,0,0,0.1,0c-0.1,0-0.1-0.1-0.2-0.1c-0.1-0.1-0.3,0-0.5,0c-0.1,0.1-0.3,0.2-0.4,0.3c-0.2,0.3-0.1,0.6,0.1,0.9
				c0.1,0.1-0.1-0.2,0,0c0,0.1,0.1,0.1,0.2,0.2c0-0.1-0.1-0.1-0.1-0.2c0.1,0.1,0.2,0.3,0.3,0.4c0-0.1-0.1-0.1-0.1-0.2
				c0.3,0.4,0.5,0.8,0.8,1.2c0.2,0.2,0.3,0.5,0.5,0.7c0.1,0.1,0.2,0.2,0.4,0.3c0.2,0.1,0.4,0.2,0.6,0.2c0.1,0,0.2,0,0.3-0.1
				c0.1-0.1,0.2-0.2,0.3-0.3C51.2,30.8,51.2,30.5,51,30.3L51,30.3z"/>
		</g>
	</g>
</g>
</svg>
