<?xml version="1.0" encoding="utf-8"?>
<!-- Generator: Adobe Illustrator 24.0.1, SVG Export Plug-In . SVG Version: 6.00 Build 0)  -->
<svg version="1.1" id="Calque_1" xmlns="http://www.w3.org/2000/svg" xmlns:xlink="http://www.w3.org/1999/xlink" x="0px" y="0px"
	 viewBox="0 0 122 122" style="enable-background:new 0 0 122 122;" xml:space="preserve">
<style type="text/css">
	.st0{fill:#91D902;}
</style>
<g>
	<path d="M101.4,6.8c-0.7-4.4-4.8-7.4-9.3-6.8L15.5,11c-3,0.5-5.1,3.3-4.7,6.3L18,65.8c0.6,3.8,2,7.4,4.2,10.5
		c6.8,9.8,22.1,31.8,25.8,36.8c0.9,1.4,3.6,5.5,5.4,8.1c0.7,1,2.2,0.8,2.6-0.3c1.2-3.5,3.2-9.3,4.2-11.7c2.2-5.5,5.6-16.1,6.6-19.3
		c0.2-0.6,0.7-1,1.3-1.2l4.6-0.8L93.6,84l14.1-2.9c3-0.5,5.1-3.3,4.6-6.4C109.6,57.3,101.4,6.8,101.4,6.8"/>
</g>
<g>
	<g>
		<g>
			<path class="st0" d="M39,43.5c1.3-1.5,3.1-2.4,4.7-3.5c2-1.4,3.8-2.9,5.8-4.3c4.1-2.7,8.2-5.5,12.1-8.6c0.8-0.6-0.3-1.6-1.1-1.1
				c-4,3.2-8.3,5.9-12.5,8.8c-1.9,1.3-3.6,2.8-5.5,4.1c-1.6,1.1-3.4,2-4.5,3.5C37.5,43.2,38.5,44.2,39,43.5L39,43.5z"/>
		</g>
	</g>
	<g>
		<g>
			<path class="st0" d="M38.5,38.9c1.6-1.4,3.5-2.3,5.2-3.5c2-1.5,4.2-2.8,6.2-4.3c1.9-1.4,3.8-2.9,5.6-4.4c2.1-1.7,4-3.5,6.3-4.9
				c0.8-0.5,0.1-1.8-0.7-1.3c-2.1,1.3-4,3-5.9,4.5c-2.1,1.7-4.3,3.5-6.6,5c-2.1,1.5-4.3,2.9-6.4,4.5c-1.6,1.1-3.6,1.9-4.8,3.5
				C37,38.8,38,39.4,38.5,38.9L38.5,38.9z"/>
		</g>
	</g>
	<g>
		<g>
			<path class="st0" d="M39.3,43c0-0.2-0.1-0.3-0.1-0.5c0,0,0-0.2,0-0.2c0.1,0.1,0,0.1,0,0c0,0,0-0.1,0-0.1c0-0.3,0-0.7,0-1
				c0-0.9,0-1.8-0.1-2.7c0-0.4-0.4-0.8-0.8-0.8c-0.5,0-0.8,0.4-0.8,0.8c0,0.9,0.1,1.9,0.1,2.8c0,0.4,0,0.8,0.1,1.2
				c0.1,0.5,0.3,1,0.8,1.2C38.9,43.9,39.3,43.5,39.3,43L39.3,43z"/>
		</g>
	</g>
	<g>
		<g>
			<path class="st0" d="M61,21.7c4.4,3.6,9.5,6.3,14.1,9.7c1.8,1.3,3.5,2.6,5.3,3.9c1.3,1,2.7,2.2,4.1,2.9c0.9,0.5,1.7-0.9,0.8-1.4
				c-1.4-0.7-2.7-1.8-3.9-2.7c-1.8-1.3-3.6-2.7-5.4-4c-2.4-1.7-4.9-3.2-7.3-4.8c-2.3-1.5-4.4-3.3-6.8-4.6
				C61.2,20.2,60.3,21.2,61,21.7L61,21.7z"/>
		</g>
	</g>
	<g>
		<g>
			<path class="st0" d="M60.6,27.1c3.5,3,7.4,5.4,11.4,7.9c1.9,1.2,3.9,2.4,5.8,3.7c0.6,0.4,1.2,0.7,1.7,1.1
				c0.9,0.6,1.8,1.1,2.8,1.7c0.8,0.5,1.4,1,2.3,1.2c1,0.3,1.4-1.3,0.4-1.6c-0.9-0.2-1.6-0.9-2.3-1.3c-0.9-0.6-1.8-1.1-2.8-1.7
				c-0.5-0.3-1-0.6-1.5-0.9c-1.9-1.2-3.9-2.4-5.8-3.6c-1.9-1.2-3.8-2.4-5.7-3.6c-1.9-1.2-3.5-2.9-5.5-3.9
				C60.8,25.7,59.9,26.6,60.6,27.1L60.6,27.1z"/>
		</g>
	</g>
	<g>
		<g>
			<path class="st0" d="M84.1,37.3c-0.1,0.3,0,0.7,0,1.1c0,0.4,0.1,0.9,0.1,1.3c0,0.4,0.1,0.9,0.1,1.3c0,0.1,0,0.2,0,0.2
				c0,0,0,0.1,0,0.1c0,0.1,0.1-0.2,0-0.1c0,0.1-0.1,0.3,0,0c-0.1,0.2-0.1,0.3-0.1,0.4c0,0,0.1-0.3,0.1-0.3c-0.2,0.3-0.1,0.6,0.1,0.9
				c0.2,0.3,0.5,0.3,0.8,0.3c0.6-0.1,0.7-0.8,0.8-1.3c0-0.4,0-0.9-0.1-1.3c-0.1-0.9-0.2-1.7-0.4-2.6C85.3,36.7,84.2,36.7,84.1,37.3
				L84.1,37.3z"/>
		</g>
	</g>
	<g>
		<g>
			<path class="st0" d="M72.5,27.2c0-0.2,0-0.5,0.1-0.6c-0.2,0.2-0.5,0.4-0.7,0.6c0.7-0.1,1.3,0,2,0.1c0.7,0.1,1.4,0,2.1,0.1
				c0.5,0,1,0.1,1.5,0c0.2,0,0.5,0,0.7,0c0.1,0,0.1,0,0,0c0.1,0,0.1,0,0.2,0c0.1,0,0.1,0,0,0c0.1,0,0.1,0,0,0c0,0-0.1,0-0.1-0.1
				c0,0.1,0,0.1,0,0c0,0.1,0.1,0.2,0.1,0.3c0-0.1,0,0.2,0,0.2c0,0.1,0,0.2,0,0.3c0,0.4-0.1,0.9-0.1,1.3c0,1.2-0.2,2.4,0.1,3.5
				c0.3,1,1.9,0.6,1.6-0.4c-0.3-0.9-0.1-1.9-0.1-2.8c0-0.8,0.1-1.6,0-2.4c-0.1-0.4-0.2-0.8-0.5-1.2c-0.3-0.3-0.8-0.4-1.3-0.5
				c-0.4,0-0.8,0-1.2,0c-0.4,0-0.9,0-1.3-0.1c-0.7,0-1.3,0-2-0.1c-0.7-0.1-1.3-0.1-2,0c-0.2,0-0.5,0.3-0.5,0.5
				c-0.1,0.6-0.1,1,0.2,1.6C71.6,28.4,72.7,27.9,72.5,27.2L72.5,27.2z"/>
		</g>
	</g>
	<g>
		<g>
			<path class="st0" d="M41.9,66.4c-0.4-1.4,0-3.3,0-4.8c0-2.4-0.1-4.9,0-7.3c0.1-2.4,0.1-4.7-0.1-7.1c-0.1-0.9-0.1-1.8-0.2-2.7
				c0-0.7-0.2-1.6,0.2-2.3c0.5-0.9-0.9-1.7-1.4-0.8c-0.7,1.3-0.4,3.1-0.3,4.6c0.2,2.8,0.2,5.5,0.1,8.2c-0.1,2.7,0.1,5.3,0.1,8
				c0,1.3-0.5,3.7,0.5,4.7C41.2,67.6,42.1,67.1,41.9,66.4L41.9,66.4z"/>
		</g>
	</g>
	<g>
		<g>
			<path class="st0" d="M83.5,66.4c-0.4-1.4,0-3.3,0-4.8c0-2.4-0.1-4.9,0-7.3c0.1-2.4,0.1-4.7-0.1-7.1c-0.1-0.9-0.1-1.8-0.2-2.7
				c0-0.7-0.2-1.6,0.2-2.3c0.5-0.9-0.9-1.7-1.4-0.8c-0.7,1.3-0.4,3.1-0.3,4.6c0.2,2.8,0.2,5.5,0.1,8.2c-0.1,2.7,0.1,5.3,0.1,8
				c0,1.3-0.5,3.7,0.5,4.7C82.8,67.6,83.6,67.1,83.5,66.4L83.5,66.4z"/>
		</g>
	</g>
	<g>
		<g>
			<path class="st0" d="M39,66.5C39,66.5,39,66.5,39,66.5c-0.1,0.3-0.2,0.6-0.3,0.9c-0.4,0.3,0.4,0.2,0.6,0.2c0.4,0,0.8,0,1.2,0
				c1-0.1,1.9-0.1,2.9-0.1c1.8,0,3.6,0.2,5.4,0.2c4.1,0.1,8.1-0.1,12.2-0.3c3.9-0.2,7.9-0.3,11.8-0.2c4.1,0.1,8.2,0.7,12.3,0.7
				c1,0,1-1.6,0-1.6c-4.2,0-8.3-0.6-12.5-0.7c-4.1-0.1-8.2,0-12.3,0.2c-4.1,0.2-8.3,0.5-12.4,0.3C45.9,66,44,65.9,42,66
				c-0.8,0-1.7,0.2-2.5,0.2c-0.6,0-1.2-0.3-1.7,0.1c-0.2,0.2-0.3,0.6-0.1,0.9c0,0,0,0.1,0.1,0.1C38.2,68,39.5,67.3,39,66.5L39,66.5z
				"/>
		</g>
	</g>
	<g>
		<g>
			<path class="st0" d="M40.9,43.7c3.4,0.1,6.8-0.1,10.2-0.2c3.5-0.1,7-0.1,10.4-0.2c3.5-0.1,6.9-0.3,10.4-0.1
				c3.6,0.2,7.3,0.3,10.9,0.3c1,0,1-1.6,0-1.6c-3.6,0-7.1-0.1-10.7-0.3c-3.6-0.2-7.1,0-10.6,0.1c-6.9,0.1-13.7,0.3-20.6,0.5
				C40,42.3,40,43.7,40.9,43.7L40.9,43.7z"/>
		</g>
	</g>
	<g>
		<g>
			<path class="st0" d="M61.8,31.2c-2.3-0.5-4.8,1.4-5.4,3.5c-0.7,2.4,1.4,4.6,3.5,5.4c1.6,0.6,3.6,0.4,5-0.6c1.6-1.2,2.2-3,1.8-5
				c-0.6-2.5-3.2-3.8-5.6-3.8c-1.1,0-1.1,1.7,0,1.7c1.4,0,3.1,0.5,3.7,1.9c0.3,0.6,0.4,1.4,0.3,2c-0.1,0.6-0.4,1-0.8,1.4
				c-0.8,0.8-2.1,1.1-3.2,0.9c-1.4-0.3-3-1.4-3.2-2.9c-0.1-1,0.6-1.9,1.3-2.4c0.8-0.6,1.7-0.7,2.6-0.9
				C62.5,32.3,62.5,31.4,61.8,31.2L61.8,31.2z"/>
		</g>
	</g>
	<g>
		<g>
			<g>
				<path class="st0" d="M53.6,60.4c0.2-0.9,0.1-1.8,0.2-2.6c0-0.9,0-1.8,0.1-2.7c0-1.8,0.1-3.6,0.1-5.4c-0.3,0.3-0.5,0.5-0.8,0.8
					c0.3,0,0.7-0.1,1.1-0.1c0.3,0,0.4,0.2,0.6,0.5c0.5,0.7,0.9,1.4,1.5,2c0.3,0.3,0.8,0.3,1.2,0c0.5-0.4,0.9-0.9,1.3-1.5
					c0.3-0.4,0.7-0.8,1.1-1.2c0.1-0.2,0.1,0,0,0c-0.2,0-0.3,0-0.5-0.1c0,0,0,0-0.1-0.1c0,0,0.1,0.2,0.1,0.2c0,0.4,0,0.7,0,1.1
					c0,1.3,0.1,2.6,0.1,3.8c0,1.5-0.3,3-0.3,4.6c0,1.1,1.7,1.1,1.7,0c0-1.8,0.3-3.6,0.3-5.4c0-0.9-0.1-1.8-0.1-2.7
					c0-0.4,0-0.8,0-1.2c0-0.4-0.1-0.9-0.3-1.3c-0.4-0.5-1-0.7-1.6-0.4c-1.3,0.6-1.9,2.2-2.9,3.1c0.4,0,0.8,0,1.2,0
					c-0.7-0.7-1.1-1.7-1.9-2.3c-0.7-0.6-1.6-0.5-2.4-0.4c-0.4,0-0.7,0.3-0.8,0.8c-0.1,1.8-0.1,3.6-0.2,5.4c0,0.9,0,1.8,0,2.7
					c0,0.9-0.1,1.8,0.1,2.6C52.5,61,53.5,61,53.6,60.4L53.6,60.4z"/>
			</g>
		</g>
		<g>
			<g>
				<path class="st0" d="M64.8,56.6c-0.4,1.5,0.8,3,2.1,3.7c1.3,0.7,3,0.8,4.2-0.2c0.7-0.7,1-1.6,1.2-2.5c0.2-1.2,0.3-2.4,0.3-3.6
					c0-1-0.1-2-0.1-3c0-0.7,0-1.7-0.6-2.2c-0.4-0.4-1-0.3-1.6-0.2c-0.4,0.1-0.9,0-1.4-0.1c-0.5-0.1-1,0-1.5,0c-0.4,0-1,0-1.2-0.1
					c-0.4-0.2-0.9-0.1-1.2,0.3c-0.2,0.4-0.1,1,0.3,1.2c0.7,0.3,1.5,0.3,2.3,0.3c0.3,0,0.7,0,1,0c0.4,0,0.9,0.1,1.3,0.1
					c0.2,0,0.7,0,0.9-0.1c0,0,0.1,0,0.1,0c-0.1-0.1-0.2-0.1-0.3-0.2c-0.1-0.1-0.1-0.2-0.1-0.1c0,0.1,0,0.2,0.1,0.3
					c0.1,0.7,0.1,1.3,0.1,2c0.1,1,0,2.1-0.1,3.1c-0.1,1-0.2,1.9-0.5,2.8c-0.1,0.3-0.2,0.4-0.4,0.6c-0.1,0.1-0.3,0.2-0.4,0.3
					c-0.3,0.1-0.3,0.1-0.6,0.1c-0.2,0-0.4,0-0.7-0.1c-0.5-0.1-1-0.5-1.3-0.9c-0.4-0.4-0.5-0.9-0.6-1.5C66,55.9,65,56,64.8,56.6
					L64.8,56.6z"/>
			</g>
		</g>
	</g>
</g>
</svg>
