<?xml version="1.0" encoding="utf-8"?>
<!-- Generator: Adobe Illustrator 24.0.1, SVG Export Plug-In . SVG Version: 6.00 Build 0)  -->
<svg version="1.1" id="Calque_1" xmlns="http://www.w3.org/2000/svg" xmlns:xlink="http://www.w3.org/1999/xlink" x="0px" y="0px"
	 viewBox="0 0 122 122" style="enable-background:new 0 0 122 122;" xml:space="preserve">
<style type="text/css">
	.st0{fill:#91D902;}
</style>
<g>
	<path d="M100.6,6.8c-0.7-4.4-4.8-7.4-9.3-6.8L14.7,11c-3,0.5-5.1,3.3-4.7,6.3l7.2,48.5c0.6,3.8,2,7.4,4.2,10.5
		c6.8,9.8,22.1,31.8,25.8,36.8c0.9,1.4,3.6,5.5,5.4,8.1c0.7,1,2.2,0.8,2.6-0.3c1.2-3.5,3.2-9.3,4.2-11.7c2.2-5.5,5.6-16.1,6.6-19.3
		c0.2-0.6,0.7-1,1.3-1.2l4.6-0.8L92.8,84l14.1-2.9c3-0.5,5.1-3.3,4.6-6.4C108.8,57.3,100.6,6.8,100.6,6.8"/>
</g>
<g>
	<g>
		<g>
			<path class="st0" d="M49.4,34.4c-0.4,3.2-0.1,6.6-0.1,9.9c0,2,0,4.1,0,6.1c0,3.2,0,6.5,0,9.7c0,1.1,1.6,1.1,1.6,0
				c0-3.2,0-6.5,0-9.7c0-2,0-3.9,0-5.9c0-3.3,0.3-6.8-0.2-10.1C50.7,33.5,49.6,33.5,49.4,34.4L49.4,34.4z"/>
		</g>
	</g>
	<g>
		<g>
			<path class="st0" d="M71.4,34.4c-0.4,3.2-0.1,6.6-0.1,9.9c0,2,0,4.1,0,6.1c0,3.2,0,6.5,0,9.7c0,1.1,1.6,1.1,1.6,0
				c0-3.2,0-6.5,0-9.7c0-2,0-3.9,0-5.9c0-3.3,0.3-6.8-0.2-10.1C72.7,33.5,71.5,33.5,71.4,34.4L71.4,34.4z"/>
		</g>
	</g>
	<g>
		<g>
			<path class="st0" d="M43.5,28.4c-0.1,0-0.3,0-0.4,0c-0.3,0,0.1,0-0.1,0c-0.1,0-0.1,0-0.2,0c-0.3,0-0.5,0.1-0.7,0.2
				c-0.5,0.2-0.9,0.5-1.2,1c-0.3,0.5-0.4,1.1-0.4,1.7c0,0.5,0,1.1,0.2,1.6c0.4,1.1,1.4,2.3,2.7,2c1.1-0.2,1.7-1.5,1.8-2.5
				c0.2-1.4-0.2-2.9-1.1-4c-0.2-0.3-0.7-0.3-1-0.1c-0.3,0.2-0.5,0.6-0.4,0.9c0.1,0.3,0.2,0.5,0.3,0.8c0,0.1,0.1,0.2,0.1,0.3
				c0,0,0,0.1,0.1,0.1c0.1,0.2-0.1-0.2,0,0.1c0.1,0.2,0.1,0.4,0.2,0.6c0,0,0.1,0.4,0,0.2c0,0.1,0,0.2,0,0.3c0,0.1,0,0.2,0,0.4
				c0,0.1,0,0.1,0,0.2c0,0.2,0,0,0,0c0,0.2-0.1,0.4-0.1,0.6c0,0-0.1,0.2,0,0.1c0.1-0.1,0,0,0,0c0,0.1-0.1,0.2-0.1,0.2
				c0,0-0.1,0.1-0.1,0.1c0,0,0.1-0.1,0,0c0,0-0.2,0.2-0.2,0.2c0-0.1,0.2-0.1,0,0c0,0-0.1,0-0.1,0c0-0.1,0.2-0.1,0,0
				c-0.1,0,0.2,0,0.1,0c0,0-0.1,0-0.1,0c0,0,0.2,0,0.1,0c-0.1,0-0.1,0,0,0c-0.1,0-0.1-0.1-0.2-0.1c0,0-0.1-0.1,0,0
				c0,0-0.1-0.1-0.1-0.1c-0.1-0.1-0.1-0.1-0.2-0.2c0.1,0.2,0-0.1-0.1-0.1c0,0,0-0.1-0.1-0.1c0,0,0-0.1,0-0.1c0,0.1,0,0.1,0,0.1
				c-0.1-0.2-0.1-0.4-0.2-0.5c0,0,0-0.1,0-0.1c0,0.2,0,0.1,0,0c0-0.1,0-0.2,0-0.3c0-0.2,0-0.4,0-0.6c0-0.1,0,0.2,0,0
				c0,0,0-0.1,0-0.1c0-0.1,0.1-0.2,0.1-0.3c0,0,0.1-0.1,0,0c0-0.1,0.1-0.1,0.1-0.2c0,0,0.1-0.1,0.1-0.1c0,0-0.1,0.1,0,0
				c0,0,0.1,0,0.1-0.1c0.1-0.1-0.1,0.1,0,0c0,0,0.2-0.1,0.2-0.1c0,0-0.2,0.1-0.1,0c0.1,0,0.2-0.1,0.3-0.1c0.1-0.1-0.2,0.1,0,0
				c0,0,0.1,0,0.1,0c0.1,0,0.2-0.1,0.3-0.1c0.1,0,0.2,0,0.3-0.1c0,0,0.2-0.1,0,0c0.3-0.1,0.5-0.4,0.5-0.8
				C44.1,28.7,43.8,28.5,43.5,28.4L43.5,28.4z"/>
		</g>
	</g>
	<g>
		<g>
			<path class="st0" d="M46.8,26.8c-1.8-0.1-2.9,1.4-3.1,3c-0.1,0.8-0.2,1.6-0.1,2.4c0,0.7,0.1,1.5,0.3,2.2c0.2,0.8,0.6,1.7,1.4,2.1
				c0.9,0.6,2,0.2,2.8-0.5c1.4-1.2,1.5-3.5,1.5-5.3c0-0.9-0.1-1.9-0.6-2.7c-0.5-1-1.6-1.4-2.6-1.2c-1,0.2-0.7,1.7,0.2,1.7
				c0.1,0,0.5,0,0.3,0c0.1,0,0.2,0,0.2,0.1c-0.1-0.1,0,0,0,0c0,0,0.2,0.2,0.1,0c0,0,0.1,0.1,0.1,0.1c0.2,0.2-0.1-0.1,0.1,0.1
				c0,0.1,0.1,0.1,0.1,0.2c0,0,0.1,0.2,0.1,0.1c0-0.1,0,0.2,0,0.1c0,0.1,0.1,0.3,0.1,0.4c0,0.1,0,0.1,0,0.2c0,0.2,0-0.2,0,0.1
				c0,0.2,0,0.3,0,0.5c0,0.7,0,1.3-0.1,2c-0.1,0.6-0.2,1.3-0.5,1.9c-0.1,0.2-0.3,0.4-0.6,0.6c0,0-0.3,0.1-0.2,0.1c0,0-0.3,0-0.1,0
				c-0.2,0,0.1,0.1-0.1,0c0,0-0.2-0.1-0.1-0.1c0.1,0.1-0.1-0.1-0.1-0.1c-0.1-0.1,0,0,0,0c-0.1-0.1-0.1-0.1-0.1-0.2
				c-0.1-0.3-0.2-0.5-0.3-0.8c0-0.1,0-0.1,0-0.2c0,0,0-0.3,0-0.1c0-0.1,0-0.3,0-0.4c0-0.3,0-0.5-0.1-0.8c0-0.6-0.1-1.2,0-1.8
				c0-0.1,0-0.1,0-0.2c0-0.1,0-0.1,0,0c0-0.1,0-0.1,0-0.2c0-0.2,0.1-0.3,0.1-0.5c0-0.1,0.1-0.4,0.1-0.4c0,0,0.1-0.2,0.2-0.3
				c0.1-0.2,0.3-0.4,0.4-0.5c0.1-0.1,0.3-0.2,0.3-0.2c0.2-0.1,0.3-0.1,0.5-0.2C47.8,27.9,47.6,26.8,46.8,26.8L46.8,26.8z"/>
		</g>
	</g>
	<g>
		<g>
			<path class="st0" d="M78.1,35c0.1,0,0.3,0,0.4,0c0.3,0-0.1,0,0.1,0c0.1,0,0.1,0,0.2,0c0.3,0,0.5-0.1,0.7-0.2
				c0.5-0.2,0.9-0.5,1.2-1c0.3-0.5,0.4-1.1,0.4-1.7c0-0.5,0-1.1-0.2-1.6c-0.4-1.1-1.4-2.3-2.7-2c-1.1,0.2-1.7,1.5-1.8,2.5
				c-0.2,1.4,0.2,2.9,1.1,4c0.2,0.3,0.7,0.3,1,0.1c0.3-0.2,0.5-0.6,0.4-0.9c-0.1-0.3-0.2-0.5-0.3-0.8c0-0.1-0.1-0.2-0.1-0.3
				c0,0,0-0.1-0.1-0.1c-0.1-0.2,0.1,0.2,0-0.1c-0.1-0.2-0.1-0.4-0.2-0.6c0,0-0.1-0.4,0-0.2c0-0.1,0-0.2,0-0.3c0-0.1,0-0.2,0-0.4
				c0-0.1,0-0.1,0-0.2c0-0.2,0,0,0,0c0-0.2,0.1-0.4,0.1-0.6c0,0,0.1-0.2,0-0.1c-0.1,0.1,0,0,0,0c0-0.1,0.1-0.2,0.1-0.2
				c0,0,0.1-0.1,0.1-0.1c0,0-0.1,0.1,0,0c0,0,0.2-0.2,0.2-0.2c0,0.1-0.2,0.1,0,0c0,0,0.1,0,0.1,0c0,0.1-0.2,0.1,0,0
				c0.1,0-0.2,0-0.1,0c0,0,0.1,0,0.1,0c0,0-0.2,0-0.1,0c0.1,0,0.1,0,0,0c0.1,0,0.1,0.1,0.2,0.1c0,0,0.1,0.1,0,0c0,0,0.1,0.1,0.1,0.1
				c0.1,0.1,0.1,0.1,0.2,0.2c-0.1-0.2,0,0.1,0.1,0.1c0,0,0,0.1,0.1,0.1c0,0,0,0.1,0,0.1c0-0.1,0-0.1,0-0.1c0.1,0.2,0.1,0.4,0.2,0.5
				c0,0,0,0.1,0,0.1c0-0.2,0-0.1,0,0c0,0.1,0,0.2,0,0.3c0,0.2,0,0.4,0,0.6c0,0.1,0-0.2,0,0c0,0,0,0.1,0,0.1c0,0.1-0.1,0.2-0.1,0.3
				c0,0-0.1,0.1,0,0c0,0.1-0.1,0.1-0.1,0.2c0,0-0.1,0.1-0.1,0.1c0,0,0.1-0.1,0,0c0,0-0.1,0-0.1,0.1c-0.1,0.1,0.1-0.1,0,0
				c0,0-0.2,0.1-0.2,0.1c0,0,0.2-0.1,0.1,0c-0.1,0-0.2,0.1-0.3,0.1c-0.1,0.1,0.2-0.1,0,0c0,0-0.1,0-0.1,0c-0.1,0-0.2,0.1-0.3,0.1
				c-0.1,0-0.2,0-0.3,0.1c0,0-0.2,0.1,0,0c-0.3,0.1-0.5,0.4-0.5,0.8C77.5,34.7,77.8,35,78.1,35L78.1,35z"/>
		</g>
	</g>
	<g>
		<g>
			<path class="st0" d="M74.8,36.7c1.8,0.1,2.9-1.4,3.1-3c0.1-0.8,0.2-1.6,0.1-2.4c0-0.7-0.1-1.5-0.3-2.2c-0.2-0.8-0.6-1.7-1.4-2.1
				c-0.9-0.6-2-0.2-2.8,0.5c-1.4,1.2-1.5,3.5-1.5,5.3c0,0.9,0.1,1.9,0.6,2.7c0.5,1,1.6,1.4,2.6,1.2c1-0.2,0.7-1.7-0.2-1.7
				c-0.1,0-0.5,0-0.3,0c-0.1,0-0.2,0-0.2-0.1c0.1,0.1,0,0,0,0c0,0-0.2-0.2-0.1,0c0,0-0.1-0.1-0.1-0.1c-0.2-0.2,0.1,0.1-0.1-0.1
				c0-0.1-0.1-0.1-0.1-0.2c0,0-0.1-0.2-0.1-0.1c0,0.1,0-0.2,0-0.1c0-0.1-0.1-0.3-0.1-0.4c0-0.1,0-0.1,0-0.2c0-0.2,0,0.2,0-0.1
				c0-0.2,0-0.3,0-0.5c0-0.7,0-1.3,0.1-2c0.1-0.6,0.2-1.3,0.5-1.9c0.1-0.2,0.3-0.4,0.6-0.6c0,0,0.3-0.1,0.2-0.1c0,0,0.3,0,0.1,0
				c0.2,0-0.1-0.1,0.1,0c0,0,0.2,0.1,0.1,0.1c-0.1-0.1,0.1,0.1,0.1,0.1c0.1,0.1,0,0,0,0c0.1,0.1,0.1,0.1,0.1,0.2
				c0.1,0.3,0.2,0.5,0.3,0.8c0,0.1,0,0.1,0,0.2c0,0,0,0.3,0,0.1c0,0.1,0,0.3,0,0.4c0,0.3,0,0.5,0.1,0.8c0,0.6,0.1,1.2,0,1.8
				c0,0.1,0,0.1,0,0.2c0,0.1,0,0.1,0,0c0,0.1,0,0.1,0,0.2c0,0.2-0.1,0.3-0.1,0.5c0,0.1-0.1,0.4-0.1,0.4c0,0-0.1,0.2-0.2,0.3
				c-0.1,0.2-0.3,0.4-0.4,0.5c-0.1,0.1-0.3,0.2-0.3,0.2c-0.2,0.1-0.3,0.1-0.5,0.2C73.8,35.5,74,36.6,74.8,36.7L74.8,36.7z"/>
		</g>
	</g>
	<g>
		<g>
			<path class="st0" d="M43.5,59.5c-0.1,0-0.3,0-0.4,0c-0.3,0,0.1,0-0.1,0c-0.1,0-0.1,0-0.2,0c-0.3,0-0.5,0.1-0.7,0.2
				c-0.5,0.2-0.9,0.5-1.2,1c-0.3,0.5-0.4,1.1-0.4,1.7c0,0.5,0,1.1,0.2,1.6c0.4,1.1,1.4,2.3,2.7,2c1.1-0.2,1.7-1.5,1.8-2.5
				c0.2-1.4-0.2-2.9-1.1-4c-0.2-0.3-0.7-0.3-1-0.1c-0.3,0.2-0.5,0.6-0.4,0.9c0.1,0.3,0.2,0.5,0.3,0.8c0,0.1,0.1,0.2,0.1,0.3
				c0,0,0,0.1,0.1,0.1c0.1,0.2-0.1-0.2,0,0.1c0.1,0.2,0.1,0.4,0.2,0.6c0,0,0.1,0.4,0,0.2c0,0.1,0,0.2,0,0.3c0,0.1,0,0.2,0,0.4
				c0,0.1,0,0.1,0,0.2c0,0.2,0,0,0,0c0,0.2-0.1,0.4-0.1,0.6c0,0-0.1,0.2,0,0.1c0.1-0.1,0,0,0,0c0,0.1-0.1,0.2-0.1,0.2
				c0,0-0.1,0.1-0.1,0.1c0,0,0.1-0.1,0,0c0,0-0.2,0.2-0.2,0.2c0-0.1,0.2-0.1,0,0c0,0-0.1,0-0.1,0c0-0.1,0.2-0.1,0,0
				c-0.1,0,0.2,0,0.1,0c0,0-0.1,0-0.1,0c0,0,0.2,0,0.1,0c-0.1,0-0.1,0,0,0c-0.1,0-0.1-0.1-0.2-0.1c0,0-0.1-0.1,0,0
				c0,0-0.1-0.1-0.1-0.1c-0.1-0.1-0.1-0.1-0.2-0.2c0.1,0.2,0-0.1-0.1-0.1c0,0,0-0.1-0.1-0.1c0,0,0-0.1,0-0.1c0,0.1,0,0.1,0,0.1
				c-0.1-0.2-0.1-0.4-0.2-0.5c0,0,0-0.1,0-0.1c0,0.2,0,0.1,0,0c0-0.1,0-0.2,0-0.3c0-0.2,0-0.4,0-0.6c0-0.1,0,0.2,0,0
				c0,0,0-0.1,0-0.1c0-0.1,0.1-0.2,0.1-0.3c0,0,0.1-0.1,0,0c0-0.1,0.1-0.1,0.1-0.2c0,0,0.1-0.1,0.1-0.1c0,0-0.1,0.1,0,0
				c0,0,0.1,0,0.1-0.1c0.1-0.1-0.1,0.1,0,0c0,0,0.2-0.1,0.2-0.1c0,0-0.2,0.1-0.1,0c0.1,0,0.2-0.1,0.3-0.1c0.1-0.1-0.2,0.1,0,0
				c0,0,0.1,0,0.1,0c0.1,0,0.2-0.1,0.3-0.1c0.1,0,0.2,0,0.3-0.1c0,0,0.2-0.1,0,0c0.3-0.1,0.5-0.4,0.5-0.8
				C44.1,59.8,43.8,59.5,43.5,59.5L43.5,59.5z"/>
		</g>
	</g>
	<g>
		<g>
			<path class="st0" d="M46.8,57.8c-1.8-0.1-2.9,1.4-3.1,3c-0.1,0.8-0.2,1.6-0.1,2.4c0,0.7,0.1,1.5,0.3,2.2c0.2,0.8,0.6,1.7,1.4,2.1
				c0.9,0.6,2,0.2,2.8-0.5c1.4-1.2,1.5-3.5,1.5-5.3c0-0.9-0.1-1.9-0.6-2.7c-0.5-1-1.6-1.4-2.6-1.2c-1,0.2-0.7,1.7,0.2,1.7
				c0.1,0,0.5,0,0.3,0c0.1,0,0.2,0,0.2,0.1c-0.1-0.1,0,0,0,0c0,0,0.2,0.2,0.1,0c0,0,0.1,0.1,0.1,0.1c0.2,0.2-0.1-0.1,0.1,0.1
				c0,0.1,0.1,0.1,0.1,0.2c0,0,0.1,0.2,0.1,0.1c0-0.1,0,0.2,0,0.1c0,0.1,0.1,0.3,0.1,0.4c0,0.1,0,0.1,0,0.2c0,0.2,0-0.2,0,0.1
				c0,0.2,0,0.3,0,0.5c0,0.7,0,1.3-0.1,2c-0.1,0.6-0.2,1.3-0.5,1.9c-0.1,0.2-0.3,0.4-0.6,0.6c0,0-0.3,0.1-0.2,0.1c0,0-0.3,0-0.1,0
				c-0.2,0,0.1,0.1-0.1,0c0,0-0.2-0.1-0.1-0.1c0.1,0.1-0.1-0.1-0.1-0.1c-0.1-0.1,0,0,0,0c-0.1-0.1-0.1-0.1-0.1-0.2
				c-0.1-0.3-0.2-0.5-0.3-0.8c0-0.1,0-0.1,0-0.2c0,0,0-0.3,0-0.1c0-0.1,0-0.3,0-0.4c0-0.3,0-0.5-0.1-0.8c0-0.6-0.1-1.2,0-1.8
				c0-0.1,0-0.1,0-0.2c0-0.1,0-0.1,0,0c0-0.1,0-0.1,0-0.2c0-0.2,0.1-0.3,0.1-0.5c0-0.1,0.1-0.4,0.1-0.4c0,0,0.1-0.2,0.2-0.3
				c0.1-0.2,0.3-0.4,0.4-0.5c0.1-0.1,0.3-0.2,0.3-0.2c0.2-0.1,0.3-0.1,0.5-0.2C47.8,59,47.6,57.9,46.8,57.8L46.8,57.8z"/>
		</g>
	</g>
	<g>
		<g>
			<path class="st0" d="M78.1,66c0.1,0,0.3,0,0.4,0c0.3,0-0.1,0,0.1,0c0.1,0,0.1,0,0.2,0c0.3,0,0.5-0.1,0.7-0.2
				c0.5-0.2,0.9-0.5,1.2-1c0.3-0.5,0.4-1.1,0.4-1.7c0-0.5,0-1.1-0.2-1.6c-0.4-1.1-1.4-2.3-2.7-2c-1.1,0.2-1.7,1.5-1.8,2.5
				c-0.2,1.4,0.2,2.9,1.1,4c0.2,0.3,0.7,0.3,1,0.1c0.3-0.2,0.5-0.6,0.4-0.9c-0.1-0.3-0.2-0.5-0.3-0.8c0-0.1-0.1-0.2-0.1-0.3
				c0,0,0-0.1-0.1-0.1c-0.1-0.2,0.1,0.2,0-0.1c-0.1-0.2-0.1-0.4-0.2-0.6c0,0-0.1-0.4,0-0.2c0-0.1,0-0.2,0-0.3c0-0.1,0-0.2,0-0.4
				c0-0.1,0-0.1,0-0.2c0-0.2,0,0,0,0c0-0.2,0.1-0.4,0.1-0.6c0,0,0.1-0.2,0-0.1c-0.1,0.1,0,0,0,0c0-0.1,0.1-0.2,0.1-0.2
				c0,0,0.1-0.1,0.1-0.1c0,0-0.1,0.1,0,0c0,0,0.2-0.2,0.2-0.2c0,0.1-0.2,0.1,0,0c0,0,0.1,0,0.1,0c0,0.1-0.2,0.1,0,0
				c0.1,0-0.2,0-0.1,0c0,0,0.1,0,0.1,0c0,0-0.2,0-0.1,0c0.1,0,0.1,0,0,0c0.1,0,0.1,0.1,0.2,0.1c0,0,0.1,0.1,0,0c0,0,0.1,0.1,0.1,0.1
				c0.1,0.1,0.1,0.1,0.2,0.2c-0.1-0.2,0,0.1,0.1,0.1c0,0,0,0.1,0.1,0.1c0,0,0,0.1,0,0.1c0-0.1,0-0.1,0-0.1c0.1,0.2,0.1,0.4,0.2,0.5
				c0,0,0,0.1,0,0.1c0-0.2,0-0.1,0,0c0,0.1,0,0.2,0,0.3c0,0.2,0,0.4,0,0.6c0,0.1,0-0.2,0,0c0,0,0,0.1,0,0.1c0,0.1-0.1,0.2-0.1,0.3
				c0,0-0.1,0.1,0,0c0,0.1-0.1,0.1-0.1,0.2c0,0-0.1,0.1-0.1,0.1c0,0,0.1-0.1,0,0c0,0-0.1,0-0.1,0.1c-0.1,0.1,0.1-0.1,0,0
				c0,0-0.2,0.1-0.2,0.1c0,0,0.2-0.1,0.1,0c-0.1,0-0.2,0.1-0.3,0.1c-0.1,0.1,0.2-0.1,0,0c0,0-0.1,0-0.1,0c-0.1,0-0.2,0.1-0.3,0.1
				c-0.1,0-0.2,0-0.3,0.1c0,0-0.2,0.1,0,0c-0.3,0.1-0.5,0.4-0.5,0.8C77.5,65.8,77.8,66,78.1,66L78.1,66z"/>
		</g>
	</g>
	<g>
		<g>
			<path class="st0" d="M74.8,67.7c1.8,0.1,2.9-1.4,3.1-3c0.1-0.8,0.2-1.6,0.1-2.4c0-0.7-0.1-1.5-0.3-2.2c-0.2-0.8-0.6-1.7-1.4-2.1
				c-0.9-0.6-2-0.2-2.8,0.5c-1.4,1.2-1.5,3.5-1.5,5.3c0,0.9,0.1,1.9,0.6,2.7c0.5,1,1.6,1.4,2.6,1.2c1-0.2,0.7-1.7-0.2-1.7
				c-0.1,0-0.5,0-0.3,0c-0.1,0-0.2,0-0.2-0.1c0.1,0.1,0,0,0,0c0,0-0.2-0.2-0.1,0c0,0-0.1-0.1-0.1-0.1c-0.2-0.2,0.1,0.1-0.1-0.1
				c0-0.1-0.1-0.1-0.1-0.2c0,0-0.1-0.2-0.1-0.1c0,0.1,0-0.2,0-0.1c0-0.1-0.1-0.3-0.1-0.4c0-0.1,0-0.1,0-0.2c0-0.2,0,0.2,0-0.1
				c0-0.2,0-0.3,0-0.5c0-0.7,0-1.3,0.1-2c0.1-0.6,0.2-1.3,0.5-1.9c0.1-0.2,0.3-0.4,0.6-0.6c0,0,0.3-0.1,0.2-0.1c0,0,0.3,0,0.1,0
				c0.2,0-0.1-0.1,0.1,0c0,0,0.2,0.1,0.1,0.1c-0.1-0.1,0.1,0.1,0.1,0.1c0.1,0.1,0,0,0,0c0.1,0.1,0.1,0.1,0.1,0.2
				c0.1,0.3,0.2,0.5,0.3,0.8c0,0.1,0,0.1,0,0.2c0,0,0,0.3,0,0.1c0,0.1,0,0.3,0,0.4c0,0.3,0,0.5,0.1,0.8c0,0.6,0.1,1.2,0,1.8
				c0,0.1,0,0.1,0,0.2c0,0.1,0,0.1,0,0c0,0.1,0,0.1,0,0.2c0,0.2-0.1,0.3-0.1,0.5c0,0.1-0.1,0.4-0.1,0.4c0,0-0.1,0.2-0.2,0.3
				c-0.1,0.2-0.3,0.4-0.4,0.5c-0.1,0.1-0.3,0.2-0.3,0.2c-0.2,0.1-0.3,0.1-0.5,0.2C73.8,66.6,74,67.7,74.8,67.7L74.8,67.7z"/>
		</g>
	</g>
	<g>
		<g>
			<path class="st0" d="M48.6,29.8c1.5,0.6,3.4,0.1,5,0.1c2.2,0,4.3-0.1,6.5-0.1c2.2,0,4.3-0.1,6.5-0.2c2.1-0.1,4.2-0.2,6.4,0
				c1.1,0.1,1-1.5,0-1.7c-4.1-0.5-8.3,0.1-12.4,0.2c-2.2,0-4.3,0.1-6.5,0.1c-1.6,0-3.5,0.5-5,0.1C48.1,28.2,47.8,29.5,48.6,29.8
				L48.6,29.8z"/>
		</g>
	</g>
	<g>
		<g>
			<path class="st0" d="M48.5,35c1.9,0.3,3.8,0,5.7,0c2.2,0,4.3,0.1,6.5,0.2c2.1,0,4.2,0,6.2-0.1c2.1-0.1,4.1-0.2,6.1,0.4
				c1,0.3,1.5-1.3,0.4-1.6c-1.9-0.6-3.9-0.6-5.8-0.5c-2.1,0.1-4.2,0.2-6.2,0.1c-2.1,0-4.2-0.1-6.2-0.2c-1.1,0-2.2-0.1-3.3,0
				c-1.1,0.1-2.1,0.2-3.2,0.1C47.9,33.5,47.7,34.9,48.5,35L48.5,35z"/>
		</g>
	</g>
	<g>
		<g>
			<path class="st0" d="M48,60.5c1.5,0.7,3.5,0.6,5.1,0.7c2.6,0.1,5.3,0.2,7.9,0.2c2.3,0,4.7,0.1,7,0.1c0.7,0,1.3,0,2,0
				c1.1,0,2.3,0.3,3.4-0.1c1-0.4,0.6-1.8-0.4-1.6c-1,0.2-2,0-3.1-0.1c-0.7,0-1.4,0-2.1,0c-2.3,0-4.6,0-6.8-0.1
				c-4.2-0.1-8.5-0.2-12.7-0.5C47.7,59.2,47.4,60.2,48,60.5L48,60.5z"/>
		</g>
	</g>
	<g>
		<g>
			<path class="st0" d="M48,65.3c1.5,0.7,3.5,0.6,5.1,0.7c2.6,0.1,5.3,0.2,7.9,0.2c2.3,0,4.7,0.1,7,0.1c0.7,0,1.3,0,2,0
				c1.1,0,2.3,0.3,3.4-0.1c1-0.4,0.6-1.8-0.4-1.6c-1,0.2-2,0-3.1-0.1c-0.7,0-1.4,0-2.1,0c-2.3,0-4.6,0-6.8-0.1
				c-4.2-0.1-8.5-0.2-12.7-0.5C47.7,64,47.4,65,48,65.3L48,65.3z"/>
		</g>
	</g>
	<g>
		<g>
			<path class="st0" d="M54.4,40.9c0.6,0.3,1.4,0.2,2.1,0.2c0.6,0,1.3,0.1,1.9,0.2c1.1,0.1,2.2,0.1,3.2,0.3c0.4,0.1,0.8-0.1,0.9-0.5
				c0.1-0.4-0.2-0.8-0.5-0.9c-0.6-0.2-1.2-0.3-1.8-0.3c-0.6,0-1.1,0-1.7-0.1c-0.6,0-1.2-0.1-1.9-0.1c-0.7,0-1.6-0.1-2.2,0.2
				C54,40,54,40.7,54.4,40.9L54.4,40.9z"/>
		</g>
	</g>
	<g>
		<g>
			<path class="st0" d="M57.7,44.2c0.6,0.1,1.2,0.1,1.9,0.1c0.6,0,1.3,0,1.9-0.1c1.2-0.1,2.5-0.1,3.7-0.1c1,0,1-1.5,0-1.5
				c-1.2-0.1-2.5,0-3.7,0c-0.6,0-1.2,0.1-1.8,0.1c-0.6,0-1.3,0-1.9,0.2C57.1,43.1,57.1,44.1,57.7,44.2L57.7,44.2z"/>
		</g>
	</g>
	<g>
		<g>
			<path class="st0" d="M55.5,47.7c1.2,0.2,2.5,0.1,3.7,0.1c1.2,0,2.4,0,3.7,0c1,0,1-1.5,0-1.5c-1.2,0-2.4,0-3.7,0
				c-1.2,0-2.5-0.1-3.7,0.1C54.8,46.4,54.8,47.6,55.5,47.7L55.5,47.7z"/>
		</g>
	</g>
	<g>
		<g>
			<path class="st0" d="M58.5,51.1c0.5,0.4,1.2,0.4,1.8,0.5c0.6,0.1,1.2,0.1,1.9,0.1c1.2,0,2.5-0.1,3.7-0.1c1,0,1-1.5,0-1.5
				c-1.2,0-2.4,0.1-3.6,0.1c-0.6,0-1.2,0-1.7,0c-0.3,0-0.5-0.1-0.8-0.1c-0.3-0.1-0.6-0.1-0.9-0.1C58.1,49.9,58,50.7,58.5,51.1
				L58.5,51.1z"/>
		</g>
	</g>
</g>
</svg>
