<?xml version="1.0" encoding="utf-8"?>
<!-- Generator: Adobe Illustrator 24.0.1, SVG Export Plug-In . SVG Version: 6.00 Build 0)  -->
<svg version="1.1" id="Calque_1" xmlns="http://www.w3.org/2000/svg" xmlns:xlink="http://www.w3.org/1999/xlink" x="0px" y="0px"
	 viewBox="0 0 122 122" style="enable-background:new 0 0 122 122;" xml:space="preserve">
<style type="text/css">
	.st0{fill:#91D902;}
</style>
<g>
	<path d="M100.6,6.8c-0.7-4.4-4.8-7.4-9.3-6.8L14.7,11c-3,0.5-5.1,3.3-4.7,6.3l7.2,48.5c0.6,3.8,2,7.4,4.2,10.5
		c6.8,9.8,22.1,31.8,25.8,36.8c0.9,1.4,3.6,5.5,5.4,8.1c0.7,1,2.2,0.8,2.6-0.3c1.2-3.5,3.2-9.3,4.2-11.7c2.2-5.5,5.6-16.1,6.6-19.3
		c0.2-0.6,0.7-1,1.3-1.2l4.6-0.8L92.8,84l14.1-2.9c3-0.5,5.1-3.3,4.6-6.4C108.8,57.3,100.6,6.8,100.6,6.8"/>
</g>
<g>
	<g>
		<g>
			<g>
				<path class="st0" d="M42.8,52.4c-0.7,0-0.9,0.9-1,1.5c-0.1,0.7-0.1,1.5-0.1,2.2c0,0.7,0,1.4-0.1,2.2c-0.1,1.1-0.4,2.2-0.3,3.3
					c0.1,1,1.6,1,1.6,0c-0.1-1,0.2-2,0.3-3c0.1-0.7,0.1-1.4,0.1-2.2c0-0.7,0-1.3,0-2c0-0.3,0-0.5,0.1-0.8c0-0.1,0.1-0.3,0-0.2
					c0-0.1,0.1-0.3,0-0.5C43.4,52.6,43.1,52.4,42.8,52.4L42.8,52.4z"/>
			</g>
		</g>
		<g>
			<g>
				<path class="st0" d="M54.5,25.1c-0.6,1.3-0.6,2.7-0.3,4.1c0.2,1.5,1,2.6,2,3.7c0.5,0.5,1,1,1.5,1.5c0.4,0.4,1.3,1,0.7,1.5
					c-0.4,0.4-1,0.4-1.5,0.5c-0.6,0.1-1.2,0.3-1.7,0.7c-0.8,0.7,0.4,1.9,1.2,1.2c0.4-0.3,1.1-0.3,1.6-0.4c0.7-0.2,1.3-0.4,1.8-1
					c1.2-1.4,0.1-2.7-1-3.7c-1-1-2.3-2-2.9-3.3c-0.5-1.3-0.5-2.8-0.3-4.2C55.8,24.9,54.8,24.4,54.5,25.1L54.5,25.1z"/>
			</g>
		</g>
		<g>
			<g>
				<path class="st0" d="M55.3,37.4c-0.3,0.7-0.2,1.4-0.2,2.1c0,0.8,0,1.7,0,2.5c0,0.4,0.4,0.8,0.8,0.8c0.4,0,0.8-0.4,0.8-0.8
					c0-0.8,0-1.6,0-2.4c0-0.3-0.1-0.6-0.1-0.9c0-0.2,0-0.3,0-0.5c0-0.1,0-0.3,0,0c0-0.2,0-0.3,0-0.1c0,0,0-0.1,0-0.1
					c0.1-0.4-0.1-0.7-0.4-0.9C55.9,37,55.4,37.1,55.3,37.4L55.3,37.4z"/>
			</g>
		</g>
		<g>
			<g>
				<path class="st0" d="M56.4,41.4c-0.5-0.3-1.2-0.2-1.8-0.2c-0.5,0-1.1,0-1.6,0c-1.1,0-2.2-0.3-3.3-0.2c-0.4,0-0.7,0.2-0.8,0.6
					c-0.4,1.5,0.1,3.1,1,4.3c0.5,0.7,1.2,1.1,2,1.5c0.3,0.1,0.7,0.2,1,0.3c0.2,0,0.4,0.1,0.5,0.1c0.1,0,0.1,0,0.2,0.1
					c0,0,0.1,0,0.1,0c-0.1,0-0.1,0,0,0c0.9,0.5,1.7-0.9,0.8-1.4c-0.6-0.3-1.2-0.3-1.8-0.5c-0.5-0.2-1.1-0.5-1.5-1
					c0,0-0.1-0.1-0.1-0.1c0-0.1-0.1-0.1-0.1-0.2c-0.1-0.1-0.2-0.2-0.2-0.4c-0.2-0.3-0.2-0.5-0.3-0.8c0-0.1-0.1-0.3-0.1-0.4
					c0-0.2,0-0.1,0-0.3c0-0.2,0-0.3,0-0.5c0-0.1,0,0.2,0-0.1c0-0.1,0-0.2,0.1-0.2c-0.3,0.2-0.5,0.4-0.8,0.6c1.1-0.1,2.2,0.2,3.3,0.2
					c0.5,0,1.1,0,1.6-0.1c0.6,0,1.3,0,1.8-0.2C56.8,42.3,56.8,41.7,56.4,41.4L56.4,41.4z"/>
			</g>
		</g>
		<g>
			<g>
				<path class="st0" d="M36.4,49.8c1,1.9,3.7,2.5,5.5,3.2c2,0.9,4,1.7,6.2,1.8c1.8,0.1,3.8-0.2,5.2-1.3c0.7-0.6,1.2-1.4,1.3-2.3
					c0-0.6-0.1-1.1-0.3-1.6c-0.3-0.8-0.2-1.3,0.3-2c0.6-0.9-0.9-1.8-1.4-0.8c-0.6,0.9-0.9,1.9-0.6,3c0.3,0.9,0.6,1.7-0.1,2.4
					c-1.1,1.1-2.9,1.1-4.3,1.1c-1.9-0.1-3.6-0.9-5.4-1.6c-0.9-0.4-1.8-0.7-2.7-1.1c-0.8-0.3-1.8-0.7-2.3-1.5
					C37.1,48.2,35.9,48.9,36.4,49.8L36.4,49.8z"/>
			</g>
		</g>
	</g>
	<g>
		<g>
			<path class="st0" d="M66.2,46.4c-0.2-0.1-0.4-0.2-0.6-0.2c-0.2-0.1-0.5-0.1-0.8-0.1c-0.6,0-1.2,0.2-1.6,0.6
				c-0.7,0.6-0.8,1.8-0.6,2.7c0.1,0.4,0.3,0.8,0.7,1.1c0.4,0.3,0.9,0.5,1.4,0.6c0.9,0.1,2-0.4,2.4-1.3c0.3-0.6,0.3-1.2,0.2-1.8
				c-0.1-0.6-0.5-1.2-1-1.5c-0.3-0.2-0.8-0.1-1,0.1c-0.1,0.1-0.2,0.2-0.2,0.4c-0.1,0.2,0,0.5,0.1,0.6c0.1,0.1,0.2,0.2,0.3,0.3
				c0,0,0,0,0.1,0.1c-0.2-0.2-0.1-0.1,0,0c0,0.1,0.1,0.1,0.1,0.2c0,0.1,0,0.2,0,0c0,0.1,0,0.1,0.1,0.2c0,0.1,0,0.1,0.1,0.2
				c0,0.2,0-0.2,0-0.1c0,0,0,0.1,0,0.1c0,0.1,0,0.2,0,0.2c0,0.1,0,0.1,0-0.1c0,0.1,0,0.1,0,0.2c0,0,0,0.1,0,0.1c0,0.2,0.1-0.2,0,0
				c0,0.1-0.1,0.1-0.1,0.2c0.1-0.2,0.1-0.1,0,0c0,0-0.1,0.1-0.1,0.1c0,0,0,0-0.1,0.1c0.1-0.1,0.1-0.1,0.1-0.1c0,0,0,0-0.1,0
				c-0.1,0-0.1,0.1-0.2,0.1c-0.1,0.1,0.2-0.1,0,0c0,0-0.1,0-0.1,0c-0.1,0-0.1,0-0.2,0c-0.2,0,0.2,0,0.1,0c0,0-0.1,0-0.1,0
				c-0.1,0-0.1,0-0.2,0c-0.2,0,0.2,0,0.1,0c0,0-0.1,0-0.1,0c-0.1,0-0.1,0-0.2-0.1c-0.1,0,0.2,0.1,0.1,0c0,0-0.1,0-0.1-0.1
				c0,0-0.1,0-0.1-0.1c-0.1-0.1,0.2,0.1,0.1,0c0,0-0.1-0.1-0.1-0.1c-0.1-0.1,0.1,0.2,0,0.1c0,0,0,0,0-0.1c0,0,0-0.1-0.1-0.1
				c-0.1-0.2,0,0.1,0,0c0-0.1,0-0.1-0.1-0.2c0-0.1,0-0.3,0,0c0-0.2,0-0.3,0-0.5c0,0,0-0.1,0-0.1c0-0.1,0.1-0.2,0,0.1
				c0-0.1,0-0.1,0-0.2c0,0,0-0.1,0-0.1c0-0.1-0.1,0.2,0,0.1c0,0,0,0,0-0.1c0,0,0,0,0-0.1c0-0.1,0,0-0.1,0.1c0,0,0,0,0.1-0.1
				c0,0,0,0,0,0c0.1-0.1,0,0-0.1,0.1c0,0,0.1,0,0.1-0.1c0.1,0,0.1,0,0,0c0.1,0,0.2-0.1,0.3-0.1c0,0,0,0,0,0c0.1,0,0.1,0-0.1,0
				c0,0,0.1,0,0.2,0c0,0,0.1,0,0.1,0c0,0,0.1,0,0.1,0c-0.1,0-0.2,0-0.1,0c0.1,0,0.2,0,0.3,0.1c0.3,0.1,0.5,0.1,0.8,0.1
				c0.4,0,0.7-0.3,0.7-0.6C66.8,46.9,66.5,46.6,66.2,46.4L66.2,46.4z"/>
		</g>
	</g>
	<g>
		<g>
			<path class="st0" d="M75,46.2c0-0.3-0.1-0.4-0.3-0.6c-0.1-0.1-0.2-0.2-0.3-0.3c-0.3-0.2-0.5-0.2-0.8-0.3c-0.2,0-0.4,0-0.6,0
				c-0.2,0-0.5,0-0.7,0.1c-0.5,0.2-0.9,0.5-1.2,1c-0.2,0.4-0.4,1-0.3,1.5c0,0.5,0.2,1,0.6,1.4c0.4,0.4,0.9,0.6,1.4,0.7
				c1,0.1,2.1-0.3,2.6-1.1c0.2-0.4,0.3-0.9,0.3-1.3c0-0.7-0.3-1.4-0.9-1.7c-0.3-0.1-0.7-0.1-0.9,0.1c-0.2,0.3-0.3,0.6-0.1,0.9
				c0.1,0.1,0-0.2,0,0c0,0,0.1,0.2,0.1,0.3c0,0.1,0.1,0.1,0.1,0.2c0,0.1-0.1-0.2,0-0.1c0,0,0,0.1,0,0.1c0,0.1,0,0.2,0,0.2
				c0-0.1,0-0.2,0-0.2c0,0.2,0,0.3,0,0.5c0-0.1,0-0.2,0-0.2c0,0.1,0,0.2-0.1,0.4c0,0.1,0.1-0.2,0-0.1c0,0,0,0.1-0.1,0.1
				c-0.1,0.1,0.1-0.2,0,0c0,0-0.1,0.1-0.1,0.1c-0.1,0.1-0.2,0.1,0,0c0,0-0.1,0-0.1,0.1c0,0-0.1,0-0.1,0.1c0,0-0.2,0.1,0,0
				c0.2-0.1,0,0,0,0c0,0-0.1,0-0.1,0c-0.1,0-0.2,0-0.3,0.1c0.1,0,0.2,0,0.2,0c-0.1,0-0.2,0-0.3,0c-0.1,0-0.1,0-0.2,0c0,0,0,0-0.1,0
				c-0.1,0,0.1,0,0.1,0c-0.1,0-0.2,0-0.3-0.1c0,0-0.1,0-0.1,0c0,0,0.2,0.1,0.1,0c0,0-0.1-0.1-0.1-0.1c0,0-0.2-0.1,0,0
				c0.1,0.1,0,0,0,0c0,0-0.1-0.1,0,0c0.1,0.1,0,0,0-0.1c0,0,0-0.1-0.1-0.1c0-0.1,0.1,0.1,0,0.1c0,0,0-0.1,0-0.1c0,0,0-0.1,0-0.1
				c0-0.2,0,0.2,0,0c0-0.1,0-0.2,0-0.3c0-0.1,0,0.2,0,0c0-0.1,0-0.1,0-0.2c0,0,0-0.1,0-0.1c0,0,0-0.1,0-0.1c0,0-0.1,0.2,0,0.1
				c0,0,0-0.1,0.1-0.1c0,0,0.1-0.2,0-0.1c-0.1,0.1,0,0,0,0c0,0,0.1-0.1,0.1-0.1c0.1-0.1-0.2,0.1-0.1,0.1c0,0,0,0,0,0
				c0,0,0.1,0,0.1-0.1c-0.1,0.1-0.2,0.1-0.1,0c0,0,0.1,0,0.1,0c0,0,0.1,0,0.1,0c0,0,0.1,0,0.1,0c0.1,0,0.2,0-0.1,0c0,0,0.1,0,0.1,0
				c0.2,0,0.5,0,0.7,0c0,0,0.1,0,0,0c-0.1,0,0,0,0,0c0,0,0,0,0.1,0c0.1,0-0.1,0-0.1,0c0,0,0.1,0,0.1,0c0.1,0.1-0.2-0.2,0,0
				c0.1,0.1,0.2,0.1,0.3,0.2C74.5,47,75,46.6,75,46.2L75,46.2z"/>
		</g>
	</g>
	<g>
		<g>
			<path class="st0" d="M67.3,47.5c0-0.2,0-0.5,0-0.7c0-0.3,0-0.6,0-0.9c0-0.7,0-1.5,0-2.2c0-0.7-0.1-1.4-0.1-2.1c0-0.3,0-0.5,0-0.8
				c0-0.1,0-0.3-0.1-0.4c0-0.1,0-0.3,0-0.1c-0.1,0.1-0.1,0.2-0.2,0.4c0-0.1-0.1,0,0,0c0.1,0,0.2,0,0.2,0c0.2,0,0.4,0,0.7-0.1
				c0.8-0.1,1.5-0.2,2.3-0.3c0.8-0.1,1.5-0.2,2.3-0.4c0.8-0.1,1.5-0.4,2.2-0.5c-0.3-0.3-0.5-0.5-0.8-0.8c0,0.5-0.1,0.9-0.2,1.3
				c-0.1,0.5-0.1,1-0.1,1.5c0,0.6,0,1.3,0,1.9c0,1.3,0.1,2.6,0.2,3.9c0,1.1,1.8,1.1,1.7,0c-0.1-1.3-0.2-2.6-0.2-3.9
				c0-0.6,0-1.2-0.1-1.8c0-0.5,0-1,0-1.5c0.1-0.5,0.2-1,0.2-1.5c0-0.4-0.4-0.9-0.8-0.8c-0.9,0.1-1.7,0.4-2.5,0.5
				c-0.9,0.2-1.7,0.3-2.6,0.4c-0.7,0.1-1.3,0.2-2,0.3c-0.6,0.1-1.3,0.1-1.7,0.5c-0.5,0.5-0.3,1.1-0.3,1.6c0,0.8,0.1,1.5,0.1,2.3
				c0,0.9,0,1.8,0,2.6c0,0.7-0.1,1.4,0.2,2C66.3,48.8,67.5,48.3,67.3,47.5L67.3,47.5z"/>
		</g>
	</g>
	<g>
		<g>
			<path class="st0" d="M66.5,43.5c0.4,0.1,0.8,0.1,1.2,0c0.4-0.1,0.7-0.1,1-0.2c0.8-0.1,1.7-0.2,2.5-0.3c0.7-0.1,1.4-0.2,2.2-0.3
				c0.1,0,0.2,0,0.4-0.1c0.1,0,0.1,0,0.2,0c-0.1,0,0,0,0,0c0.1,0,0.1,0,0.2,0c0,0,0.2,0,0.1,0c-0.2,0,0.1,0,0.1,0c0.1,0,0.1,0,0.2,0
				c0.2,0,0.1,0-0.1,0c0.4,0,0.8-0.4,0.8-0.8c-0.1-1-1-0.9-1.7-0.8c-0.6,0.1-1.2,0.2-1.9,0.3c-0.9,0.1-1.8,0.3-2.6,0.4
				c-0.5,0.1-0.9,0.1-1.4,0.2c-0.4,0.1-0.7,0.2-1.1,0.4C65.9,42.4,65.9,43.3,66.5,43.5L66.5,43.5z"/>
		</g>
	</g>
	<g>
		<g>
			<path class="st0" d="M77.9,56.3C77.9,56.2,77.9,56.2,77.9,56.3C77.8,56.2,77.9,56.3,77.9,56.3c0,0-0.2-0.2-0.3-0.2
				c-0.1-0.1-0.2-0.1-0.2-0.2c-0.2-0.1-0.4-0.2-0.7-0.3c-0.5-0.2-1.1-0.2-1.5,0c-1,0.4-1.5,1.4-1.5,2.4c-0.1,1,0.5,1.8,1.3,2.2
				c0.9,0.4,2.1,0.3,2.9-0.4c0.5-0.4,0.6-1.1,0.7-1.7c0.1-0.6-0.1-1.3-0.5-1.8c-0.3-0.3-0.7-0.3-1-0.1c-0.1,0.1-0.2,0.2-0.3,0.3
				c-0.1,0.2-0.2,0.5-0.1,0.6c0.1,0.1,0.1,0.3,0.2,0.4c0.1,0.1,0-0.1,0-0.1c0,0,0,0.1,0,0.1c0,0.1,0,0.1,0.1,0.2c-0.1-0.2,0-0.1,0,0
				c0,0.1,0,0.1,0,0.2c0,0.1,0,0.2,0,0.3c0-0.2,0-0.2,0-0.1c0,0,0,0.1,0,0.1c0,0.1-0.1,0.1-0.1,0.2c0-0.2,0.1-0.1,0,0
				c0,0,0,0.1-0.1,0.1c-0.1,0.1-0.1,0,0-0.1c0,0-0.1,0.1-0.1,0.1c0,0-0.1,0.1,0,0c0.1-0.1,0,0,0,0c-0.1,0-0.1,0.1-0.2,0.1
				c-0.1,0.1,0.2-0.1,0.1,0c-0.1,0-0.1,0-0.2,0c0,0-0.1,0-0.1,0c-0.1,0-0.2,0,0.1,0c-0.1,0-0.1,0-0.2,0c0,0-0.1,0-0.1,0
				c0,0-0.2,0,0,0c0.2,0,0,0,0,0c-0.1,0-0.1,0-0.2,0c0,0-0.1,0-0.1,0c-0.1,0-0.1-0.1,0,0c-0.1,0-0.1-0.1-0.2-0.1c0,0-0.1,0-0.1-0.1
				c-0.1-0.1,0.2,0.1,0,0c-0.1-0.1-0.1-0.1-0.2-0.2c0.2,0.2,0.1,0.1,0,0c0,0,0-0.1,0-0.1c0.1,0.2,0.1,0.2,0,0.1c0-0.1,0-0.1-0.1-0.2
				c0.1,0.2,0,0.2,0,0.1c0-0.1,0-0.1,0-0.2c0-0.1,0-0.1,0-0.2c0,0.2,0,0.1,0,0c0,0,0-0.1,0-0.1c0-0.2,0.1-0.3,0.1-0.5
				c-0.1,0.3,0,0,0,0c0,0,0-0.1,0.1-0.1c0,0,0.1-0.1,0,0c-0.1,0.1,0,0,0,0c0,0,0.1-0.1,0.1-0.1c0.1-0.1-0.2,0.1-0.1,0
				c0,0,0.1,0,0.1-0.1c0.1-0.1-0.2,0.1-0.1,0c0,0,0.1,0,0.1,0c0.1,0,0.1,0-0.1,0c0,0,0.1,0,0.1,0c0.1,0,0.1,0,0.2,0c0,0,0.1,0,0.1,0
				c-0.1,0-0.2,0-0.1,0c0.1,0,0.2,0,0.3,0.1c0,0,0.1,0,0.1,0c-0.2-0.1-0.1,0,0,0c0.1,0,0.2,0.1,0.2,0.1c0.2,0.1,0.5,0.2,0.7,0.3
				c0.2,0.1,0.4,0,0.6-0.1c0.1-0.1,0.2-0.2,0.3-0.4C78.4,56.8,78.2,56.5,77.9,56.3L77.9,56.3z"/>
		</g>
	</g>
	<g>
		<g>
			<path class="st0" d="M78.7,57.6c0,0.1,0.1-0.2,0.1-0.3c0-0.1,0.1-0.3,0.1-0.4c0.1-0.3,0.2-0.6,0.3-0.9c0.2-0.7,0.4-1.3,0.5-2
				c0.2-0.7,0.3-1.4,0.5-2c0.1-0.3,0.2-0.5,0.2-0.8c0-0.1,0-0.2,0-0.3c0-0.1,0-0.1,0,0c0-0.1,0-0.1,0-0.2c0,0.1,0,0.1,0,0
				c-0.1,0.1-0.2,0.2-0.3,0.3c0.1-0.1-0.1,0.1-0.1,0c0,0,0.1,0,0.2,0c0.2,0,0.2,0,0.3,0c0.3,0.1,0.6,0.1,0.9,0.2
				c1,0.2,2,0.3,3.1,0.4c0.5,0.1,0.9-0.4,0.9-0.9c0-0.5-0.4-0.8-0.9-0.9c-0.7-0.1-1.4-0.2-2.1-0.3c-0.3,0-0.7-0.1-1-0.1
				c0.3,0,0,0,0,0c-0.1,0-0.2,0-0.3-0.1c-0.5-0.1-0.9-0.2-1.4,0c-0.6,0.2-0.7,0.7-0.8,1.2c-0.1,0.6-0.3,1.1-0.4,1.7
				c-0.1,0.6-0.3,1.3-0.5,1.9c-0.2,0.6-0.3,1.2-0.5,1.8c-0.2,0.6-0.4,1.1-0.2,1.7c0.1,0.3,0.5,0.6,0.8,0.5
				C78.5,58.2,78.7,58,78.7,57.6L78.7,57.6z"/>
		</g>
	</g>
</g>
</svg>
