<?xml version="1.0" encoding="utf-8"?>
<!-- Generator: Adobe Illustrator 24.0.1, SVG Export Plug-In . SVG Version: 6.00 Build 0)  -->
<svg version="1.1" id="Calque_1" xmlns="http://www.w3.org/2000/svg" xmlns:xlink="http://www.w3.org/1999/xlink" x="0px" y="0px"
	 viewBox="0 0 122 122" style="enable-background:new 0 0 122 122;" xml:space="preserve">
<style type="text/css">
	.st0{fill:#91D902;}
</style>
<g>
	<path d="M101.3,6.8C100.6,2.4,96.5-0.6,92,0L15.4,11c-3,0.5-5.1,3.3-4.7,6.3l7.2,48.5c0.6,3.8,2,7.4,4.2,10.5
		c6.8,9.8,22.1,31.8,25.8,36.8c0.9,1.4,3.6,5.5,5.4,8.1c0.7,1,2.2,0.8,2.6-0.3c1.2-3.5,3.2-9.3,4.2-11.7c2.2-5.5,5.6-16.1,6.6-19.3
		c0.2-0.6,0.7-1,1.3-1.2l4.6-0.8L93.5,84l14.1-2.9c3-0.5,5.1-3.3,4.6-6.4C109.5,57.3,101.3,6.8,101.3,6.8"/>
</g>
<g>
	<g>
		<path class="st0" d="M76.5,59.5c-0.8,0.1-2-0.3-2.9-0.3c-1.1-0.1-2.3-0.1-3.4-0.1c-2.2-0.1-4.4,0-6.6,0c-0.5,0-1.1,0.1-1.6,0
			c-0.4,0-0.7-0.2-1.1-0.2c-1.2-0.1-2.3,0.2-3.4-0.1c-2-0.4-3.8-1.2-5.4-2.3c-2.8-2.1-4.2-5-4.7-8.4c-0.4-3.1-0.2-6.7,1.4-9.4
			c5.7-9.5,22-8,24.9,3c1.8,6.6-1.6,14.8-9,15.6c-1,0.1-1,1.6,0,1.5c7.3-0.3,11.4-7.6,11.1-14.3c-0.3-6.2-4.4-11.4-10.4-13.1
			C59.6,29.7,53,31.3,49,35.7c-2.3,2.5-3.3,5.7-3.4,9c-0.1,3.5,0.6,7.3,2.6,10.2c1.3,1.8,3.2,3.3,5.3,4.2c1.1,0.5,2.2,0.9,3.4,1.1
			c1.3,0.3,2.5,0.2,3.7,0.2c0.6,0,1.1,0.2,1.7,0.2c0.7,0,1.4,0,2.1,0c1.5,0.1,2.9-0.1,4.4-0.1c1.4,0,2.9,0.1,4.3,0.1
			c1.2,0,2.6,0.4,3.7,0.2C77.7,60.7,77.3,59.4,76.5,59.5L76.5,59.5z"/>
	</g>
</g>
<g>
	<g>
		<g>
			<g>
				<path class="st0" d="M67.3,41.6c0.5-0.8,0.3-1.8-0.1-2.6c-0.4-0.7-1-1.3-1.8-1.5c-1.4-0.5-3.1-0.3-4,0.9c-0.8,1-1.1,2.4-0.7,3.6
					c0.5,1.4,1.6,2.2,3,2.4c0.8,0.1,1.6-0.1,2.3-0.5C66.8,43.3,67.4,42.5,67.3,41.6c-0.1-0.4-0.3-0.7-0.7-0.8
					c-0.4,0-0.7,0.2-0.8,0.5c0,0.1-0.1,0.3-0.1,0.4c0,0.1,0,0.1-0.1,0.2c0,0,0.1-0.1,0-0.1c0,0,0,0.1-0.1,0.1c0,0.1-0.1,0.1-0.1,0.2
					c0,0,0,0-0.1,0.1c0,0,0.1-0.1,0,0c-0.1,0.1-0.2,0.2-0.3,0.3c0.1-0.1,0,0,0,0c-0.1,0-0.1,0.1-0.2,0.1c-0.1,0-0.1,0.1-0.2,0.1
					c0.1-0.1,0,0-0.1,0c-0.1,0-0.3,0.1-0.4,0.1c-0.1,0-0.2,0,0,0c-0.1,0-0.1,0-0.2,0c-0.1,0-0.2,0-0.4,0c0,0-0.1,0-0.1,0
					c0,0,0.1,0,0.1,0c-0.1,0-0.1,0-0.2,0c-0.1,0-0.2-0.1-0.3-0.1c0.1,0,0.1,0,0,0c-0.1,0-0.1-0.1-0.2-0.1c0,0-0.1-0.1-0.1-0.1
					c-0.1,0,0.1,0,0.1,0c0,0,0,0-0.1-0.1c-0.1-0.1-0.2-0.2-0.2-0.2c-0.1-0.1-0.1-0.1,0,0c0,0-0.1-0.1-0.1-0.1
					c-0.1-0.1-0.1-0.2-0.2-0.3c0,0,0-0.2,0-0.1c0,0.1,0,0,0-0.1c0-0.1-0.1-0.2-0.1-0.3c0-0.1,0-0.1,0-0.2c0-0.2,0,0.2,0,0
					c0-0.1,0-0.2,0-0.3c0,0,0-0.3,0-0.3c0,0,0,0.2,0,0.1c0,0,0-0.1,0-0.1c0-0.1,0-0.1,0-0.2c0-0.1,0.1-0.2,0.1-0.3c0,0,0-0.1,0-0.1
					c0,0-0.1,0.1,0,0.1c0-0.1,0.1-0.1,0.1-0.2c0.1-0.1,0.1-0.2,0.2-0.3c0.1-0.1-0.1,0.1,0,0c0,0,0.1-0.1,0.1-0.1
					c0.1-0.1,0.2-0.2,0.2-0.2c0.1-0.1,0,0,0,0c0,0,0,0,0.1-0.1c0.1,0,0.1-0.1,0.2-0.1c0.1,0,0.2-0.1,0,0c0.1,0,0.1,0,0.2-0.1
					c0.1,0,0.1,0,0.2,0c0,0,0.2,0,0.2,0c-0.1,0,0.1,0,0.1,0c0.1,0,0.1,0,0.2,0c0.2,0,0.3,0,0.5,0c-0.1,0,0.1,0,0.1,0
					c0.1,0,0.2,0,0.2,0.1c0.1,0,0.1,0,0.2,0.1c0,0,0.1,0,0.1,0c-0.1,0,0,0,0,0c0.1,0,0.1,0.1,0.2,0.1c0,0,0.1,0.1,0,0
					c-0.1-0.1,0,0,0,0c0.1,0.1,0.1,0.1,0.2,0.2c0,0,0,0.1,0.1,0.1c0.1,0.1-0.1-0.1,0,0c0.1,0.1,0.2,0.3,0.3,0.5c0,0.1,0,0,0,0
					c0,0,0,0.1,0.1,0.1c0,0.1,0.1,0.2,0.1,0.3c0,0,0,0.1,0,0.1c0-0.1,0,0,0,0c0,0.1,0,0.2,0,0.3c0,0,0,0.1,0,0.1c0-0.2,0,0.1,0,0.1
					c0,0,0,0.1,0,0c0-0.1,0,0.1,0,0.1C65.9,41.8,66.9,42.2,67.3,41.6L67.3,41.6z"/>
			</g>
		</g>
		<g>
			<g>
				<path class="st0" d="M67.8,51.8c0.5-0.8,0.3-1.8-0.1-2.6c-0.4-0.7-1-1.3-1.8-1.5c-1.4-0.5-3.1-0.3-4,0.9c-0.8,1-1.1,2.4-0.7,3.6
					c0.5,1.4,1.6,2.2,3,2.4c0.8,0.1,1.6-0.1,2.3-0.5C67.2,53.5,67.8,52.7,67.8,51.8c-0.1-0.4-0.3-0.7-0.7-0.8
					c-0.4,0-0.7,0.2-0.8,0.5c0,0.1-0.1,0.3-0.1,0.4c0,0.1,0,0.1-0.1,0.2c0,0,0.1-0.1,0-0.1c0,0,0,0.1-0.1,0.1c0,0.1-0.1,0.1-0.1,0.2
					c0,0,0,0-0.1,0.1c0,0,0.1-0.1,0,0c-0.1,0.1-0.2,0.2-0.3,0.3c0.1-0.1,0,0,0,0c-0.1,0-0.1,0.1-0.2,0.1c-0.1,0-0.1,0.1-0.2,0.1
					c0.1-0.1,0,0-0.1,0c-0.1,0-0.3,0.1-0.4,0.1c-0.1,0-0.2,0,0,0c-0.1,0-0.1,0-0.2,0c-0.1,0-0.2,0-0.4,0c0,0-0.1,0-0.1,0
					c0,0,0.1,0,0.1,0c-0.1,0-0.1,0-0.2,0c-0.1,0-0.2-0.1-0.3-0.1c0.1,0,0.1,0,0,0c-0.1,0-0.1-0.1-0.2-0.1c0,0-0.1-0.1-0.1-0.1
					c-0.1,0,0.1,0,0.1,0c0,0,0,0-0.1-0.1c-0.1-0.1-0.2-0.2-0.2-0.2c-0.1-0.1-0.1-0.1,0,0c0,0-0.1-0.1-0.1-0.1
					c-0.1-0.1-0.1-0.2-0.2-0.3c0,0,0-0.2,0-0.1c0,0.1,0,0,0-0.1c0-0.1-0.1-0.2-0.1-0.3c0-0.1,0-0.1,0-0.2c0-0.2,0,0.2,0,0
					c0-0.1,0-0.2,0-0.3c0,0,0-0.3,0-0.3c0,0,0,0.2,0,0.1c0,0,0-0.1,0-0.1c0-0.1,0-0.1,0-0.2c0-0.1,0.1-0.2,0.1-0.3c0,0,0-0.1,0-0.1
					c0,0-0.1,0.1,0,0.1c0-0.1,0.1-0.1,0.1-0.2c0.1-0.1,0.1-0.2,0.2-0.3c0.1-0.1-0.1,0.1,0,0c0,0,0.1-0.1,0.1-0.1
					c0.1-0.1,0.2-0.2,0.2-0.2c0.1-0.1,0,0,0,0c0,0,0,0,0.1-0.1c0.1,0,0.1-0.1,0.2-0.1c0.1,0,0.2-0.1,0,0c0.1,0,0.1,0,0.2-0.1
					c0.1,0,0.1,0,0.2,0c0,0,0.2,0,0.2,0c-0.1,0,0.1,0,0.1,0c0.1,0,0.1,0,0.2,0c0.2,0,0.3,0,0.5,0c-0.1,0,0.1,0,0.1,0
					c0.1,0,0.2,0,0.2,0.1c0.1,0,0.1,0,0.2,0.1c0,0,0.1,0,0.1,0c-0.1,0,0,0,0,0c0.1,0,0.1,0.1,0.2,0.1c0,0,0.1,0.1,0,0
					c-0.1-0.1,0,0,0,0c0.1,0.1,0.1,0.1,0.2,0.2c0,0,0,0.1,0.1,0.1c0.1,0.1-0.1-0.1,0,0c0.1,0.1,0.2,0.3,0.3,0.5c0,0.1,0,0,0,0
					c0,0,0,0.1,0.1,0.1c0,0.1,0.1,0.2,0.1,0.3c0,0,0,0.1,0,0.1c0-0.1,0,0,0,0c0,0.1,0,0.2,0,0.3c0,0,0,0.1,0,0.1c0-0.2,0,0.1,0,0.1
					c0,0,0,0.1,0,0c0-0.1,0,0.1,0,0.1C66.3,52,67.3,52.4,67.8,51.8L67.8,51.8z"/>
			</g>
		</g>
		<g>
			<g>
				<path class="st0" d="M57.9,51.8c0.5-0.8,0.3-1.8-0.1-2.6c-0.4-0.7-1-1.3-1.8-1.5c-1.4-0.5-3.1-0.3-4,0.9c-0.8,1-1.1,2.4-0.7,3.6
					c0.5,1.4,1.6,2.2,3,2.4c0.8,0.1,1.6-0.1,2.3-0.5C57.3,53.5,57.9,52.7,57.9,51.8c-0.1-0.4-0.3-0.7-0.7-0.8
					c-0.4,0-0.7,0.2-0.8,0.5c0,0.1-0.1,0.3-0.1,0.4c0,0.1,0,0.1-0.1,0.2c0,0,0.1-0.1,0-0.1c0,0,0,0.1-0.1,0.1c0,0.1-0.1,0.1-0.1,0.2
					c0,0,0,0-0.1,0.1c0,0,0.1-0.1,0,0c-0.1,0.1-0.2,0.2-0.3,0.3c0.1-0.1,0,0,0,0c-0.1,0-0.1,0.1-0.2,0.1c-0.1,0-0.1,0.1-0.2,0.1
					c0.1-0.1,0,0-0.1,0c-0.1,0-0.3,0.1-0.4,0.1c-0.1,0-0.2,0,0,0c-0.1,0-0.1,0-0.2,0c-0.1,0-0.2,0-0.4,0c0,0-0.1,0-0.1,0
					c0,0,0.1,0,0.1,0c-0.1,0-0.1,0-0.2,0c-0.1,0-0.2-0.1-0.3-0.1c0.1,0,0.1,0,0,0c-0.1,0-0.1-0.1-0.2-0.1c0,0-0.1-0.1-0.1-0.1
					c-0.1,0,0.1,0,0.1,0c0,0,0,0-0.1-0.1c-0.1-0.1-0.2-0.2-0.2-0.2c-0.1-0.1-0.1-0.1,0,0c0,0-0.1-0.1-0.1-0.1
					c-0.1-0.1-0.1-0.2-0.2-0.3c0,0,0-0.2,0-0.1c0,0.1,0,0,0-0.1c0-0.1-0.1-0.2-0.1-0.3c0-0.1,0-0.1,0-0.2c0-0.2,0,0.2,0,0
					c0-0.1,0-0.2,0-0.3c0,0,0-0.3,0-0.3c0,0,0,0.2,0,0.1c0,0,0-0.1,0-0.1c0-0.1,0-0.1,0-0.2c0-0.1,0.1-0.2,0.1-0.3c0,0,0-0.1,0-0.1
					c0,0-0.1,0.1,0,0.1c0-0.1,0.1-0.1,0.1-0.2c0.1-0.1,0.1-0.2,0.2-0.3c0.1-0.1-0.1,0.1,0,0c0,0,0.1-0.1,0.1-0.1
					c0.1-0.1,0.2-0.2,0.2-0.2c0.1-0.1,0,0,0,0c0,0,0,0,0.1-0.1c0.1,0,0.1-0.1,0.2-0.1c0.1,0,0.2-0.1,0,0c0.1,0,0.1,0,0.2-0.1
					c0.1,0,0.1,0,0.2,0c0,0,0.2,0,0.2,0c-0.1,0,0.1,0,0.1,0c0.1,0,0.1,0,0.2,0c0.2,0,0.3,0,0.5,0c-0.1,0,0.1,0,0.1,0
					c0.1,0,0.2,0,0.2,0.1c0.1,0,0.1,0,0.2,0.1c0,0,0.1,0,0.1,0c-0.1,0,0,0,0,0c0.1,0,0.1,0.1,0.2,0.1c0,0,0.1,0.1,0,0
					c-0.1-0.1,0,0,0,0c0.1,0.1,0.1,0.1,0.2,0.2c0,0,0,0.1,0.1,0.1c0.1,0.1-0.1-0.1,0,0c0.1,0.1,0.2,0.3,0.3,0.5c0,0.1,0,0,0,0
					c0,0,0,0.1,0.1,0.1c0,0.1,0.1,0.2,0.1,0.3c0,0,0,0.1,0,0.1c0-0.1,0,0,0,0c0,0.1,0,0.2,0,0.3c0,0,0,0.1,0,0.1c0-0.2,0,0.1,0,0.1
					c0,0,0,0.1,0,0c0-0.1,0,0.1,0,0.1C56.4,52,57.5,52.4,57.9,51.8L57.9,51.8z"/>
			</g>
		</g>
		<g>
			<g>
				<path class="st0" d="M57.9,41.6c0.5-0.8,0.3-1.8-0.1-2.6c-0.4-0.7-1-1.3-1.8-1.5c-1.4-0.5-3.1-0.3-4,0.9c-0.8,1-1.1,2.4-0.7,3.6
					c0.5,1.4,1.6,2.2,3,2.4c0.8,0.1,1.6-0.1,2.3-0.5C57.3,43.3,57.9,42.5,57.9,41.6c-0.1-0.4-0.3-0.7-0.7-0.8
					c-0.4,0-0.7,0.2-0.8,0.5c0,0.1-0.1,0.3-0.1,0.4c0,0.1,0,0.1-0.1,0.2c0,0,0.1-0.1,0-0.1c0,0,0,0.1-0.1,0.1c0,0.1-0.1,0.1-0.1,0.2
					c0,0,0,0-0.1,0.1c0,0,0.1-0.1,0,0c-0.1,0.1-0.2,0.2-0.3,0.3c0.1-0.1,0,0,0,0c-0.1,0-0.1,0.1-0.2,0.1c-0.1,0-0.1,0.1-0.2,0.1
					c0.1-0.1,0,0-0.1,0c-0.1,0-0.3,0.1-0.4,0.1c-0.1,0-0.2,0,0,0c-0.1,0-0.1,0-0.2,0c-0.1,0-0.2,0-0.4,0c0,0-0.1,0-0.1,0
					c0,0,0.1,0,0.1,0c-0.1,0-0.1,0-0.2,0c-0.1,0-0.2-0.1-0.3-0.1c0.1,0,0.1,0,0,0c-0.1,0-0.1-0.1-0.2-0.1c0,0-0.1-0.1-0.1-0.1
					c-0.1,0,0.1,0,0.1,0c0,0,0,0-0.1-0.1c-0.1-0.1-0.2-0.2-0.2-0.2c-0.1-0.1-0.1-0.1,0,0c0,0-0.1-0.1-0.1-0.1
					c-0.1-0.1-0.1-0.2-0.2-0.3c0,0,0-0.2,0-0.1c0,0.1,0,0,0-0.1c0-0.1-0.1-0.2-0.1-0.3c0-0.1,0-0.1,0-0.2c0-0.2,0,0.2,0,0
					c0-0.1,0-0.2,0-0.3c0,0,0-0.3,0-0.3c0,0,0,0.2,0,0.1c0,0,0-0.1,0-0.1c0-0.1,0-0.1,0-0.2c0-0.1,0.1-0.2,0.1-0.3c0,0,0-0.1,0-0.1
					c0,0-0.1,0.1,0,0.1c0-0.1,0.1-0.1,0.1-0.2c0.1-0.1,0.1-0.2,0.2-0.3c0.1-0.1-0.1,0.1,0,0c0,0,0.1-0.1,0.1-0.1
					c0.1-0.1,0.2-0.2,0.2-0.2c0.1-0.1,0,0,0,0c0,0,0,0,0.1-0.1c0.1,0,0.1-0.1,0.2-0.1c0.1,0,0.2-0.1,0,0c0.1,0,0.1,0,0.2-0.1
					c0.1,0,0.1,0,0.2,0c0,0,0.2,0,0.2,0c-0.1,0,0.1,0,0.1,0c0.1,0,0.1,0,0.2,0c0.2,0,0.3,0,0.5,0c-0.1,0,0.1,0,0.1,0
					c0.1,0,0.2,0,0.2,0.1c0.1,0,0.1,0,0.2,0.1c0,0,0.1,0,0.1,0c-0.1,0,0,0,0,0c0.1,0,0.1,0.1,0.2,0.1c0,0,0.1,0.1,0,0
					c-0.1-0.1,0,0,0,0c0.1,0.1,0.1,0.1,0.2,0.2c0,0,0,0.1,0.1,0.1c0.1,0.1-0.1-0.1,0,0c0.1,0.1,0.2,0.3,0.3,0.5c0,0.1,0,0,0,0
					c0,0,0,0.1,0.1,0.1c0,0.1,0.1,0.2,0.1,0.3c0,0,0,0.1,0,0.1c0-0.1,0,0,0,0c0,0.1,0,0.2,0,0.3c0,0,0,0.1,0,0.1c0-0.2,0,0.1,0,0.1
					c0,0,0,0.1,0,0c0-0.1,0,0.1,0,0.1C56.4,41.8,57.5,42.2,57.9,41.6L57.9,41.6z"/>
			</g>
		</g>
	</g>
	<g>
		<g>
			<path class="st0" d="M58.7,45.2c-0.3,0.1-0.4,0.5-0.4,0.8c0,0.2,0.1,0.4,0.1,0.6c0.1,0.1,0.2,0.3,0.3,0.3
				c0.2,0.1,0.3,0.2,0.5,0.3c0.1,0,0.3,0.1,0.4,0.1c0.1,0,0.3,0,0.4,0c0,0,0.1,0,0.1,0c0.1,0,0.2-0.1,0.3-0.1c0.1,0,0.2-0.1,0.2-0.2
				c0,0,0.1,0,0.1-0.1c0.2-0.2,0.3-0.4,0.4-0.7c0-0.1,0-0.3,0-0.4c0-0.1,0-0.3-0.1-0.4c0-0.1-0.1-0.2-0.2-0.3
				c-0.1-0.1-0.2-0.2-0.3-0.3c0,0-0.1-0.1-0.2-0.1c-0.1,0-0.2-0.1-0.3-0.1c-0.1,0-0.3-0.1-0.4-0.1c-0.1,0-0.3,0-0.4,0
				c-0.1,0-0.3,0.1-0.4,0.2c-0.1,0.1-0.2,0.1-0.2,0.2c-0.1,0.1-0.1,0.1-0.2,0.2c0,0,0,0,0,0.1c-0.1,0.2-0.1,0.3-0.1,0.5
				c0,0.2,0.1,0.4,0.2,0.6c0,0,0,0,0,0c0.1,0,0.1,0.1,0.2,0.1c0.1,0.1,0.2,0.1,0.3,0.1c0.1,0,0.1,0,0.2,0c0.1,0,0.2,0,0.3-0.1
				c0.1-0.1,0.3-0.2,0.3-0.3c0.1-0.1,0.1-0.2,0.1-0.3c0,0.1-0.1,0.1-0.1,0.2c0,0,0-0.1,0.1-0.1c0,0.1-0.1,0.1-0.1,0.2
				c0,0,0.1-0.1,0.1-0.1c-0.1,0-0.1,0.1-0.2,0.1c0,0,0.1-0.1,0.1-0.1c-0.1,0-0.1,0.1-0.2,0.1c0.1,0,0.1,0,0.2,0c-0.1,0-0.1,0-0.2,0
				c0.1,0,0.1,0,0.2,0c-0.1,0-0.1,0-0.2,0c0,0,0.1,0,0.1,0c-0.1,0-0.1-0.1-0.2-0.1c0,0,0.1,0,0.1,0.1c-0.1,0-0.1-0.1-0.2-0.1
				c0,0,0.1,0.1,0.1,0.1c0-0.1-0.1-0.1-0.1-0.2c0,0,0.1,0.1,0.1,0.1c0-0.1-0.1-0.1-0.1-0.2c0,0.1,0,0.1,0,0.2c0-0.1,0-0.1,0-0.2
				c0,0.1,0,0.1,0,0.2c0-0.1,0-0.1,0-0.2c0,0.1,0,0.1,0,0.2c0-0.1,0.1-0.1,0.1-0.2c0,0.1-0.1,0.1-0.1,0.1c0-0.1,0.1-0.1,0.1-0.2
				c0,0-0.1,0.1-0.1,0.1c0.1,0,0.1-0.1,0.2-0.1c0,0-0.1,0-0.1,0.1c0.1,0,0.1-0.1,0.2-0.1c-0.1,0-0.1,0-0.2,0c0.1,0,0.1,0,0.2,0
				c-0.1,0-0.1,0-0.2,0c0.1,0,0.1,0,0.2,0c-0.1,0-0.1,0-0.2-0.1c0.1,0,0.1,0.1,0.2,0.1c0,0-0.1,0-0.1-0.1c0.1,0,0.1,0.1,0.2,0.1
				c0,0-0.1-0.1-0.1-0.1c0,0.1,0.1,0.1,0.1,0.2c0,0-0.1-0.1-0.1-0.1c0,0.1,0.1,0.1,0.1,0.2c0-0.1,0-0.1-0.1-0.2c0,0.1,0,0.1,0,0.2
				c0,0,0-0.1,0-0.1c0-0.1,0-0.2,0-0.3c-0.1-0.2-0.2-0.4-0.4-0.4c-0.1,0-0.2-0.1-0.3-0.1C58.9,45.1,58.8,45.1,58.7,45.2L58.7,45.2z"
				/>
		</g>
	</g>
</g>
</svg>
