<?xml version="1.0" encoding="utf-8"?>
<!-- Generator: Adobe Illustrator 24.0.1, SVG Export Plug-In . SVG Version: 6.00 Build 0)  -->
<svg version="1.1" id="Calque_1" xmlns="http://www.w3.org/2000/svg" xmlns:xlink="http://www.w3.org/1999/xlink" x="0px" y="0px"
	 viewBox="0 0 122 122" style="enable-background:new 0 0 122 122;" xml:space="preserve">
<style type="text/css">
	.st0{fill:#91D902;}
</style>
<g>
	<path d="M101.5,6.8c-0.7-4.4-4.8-7.4-9.3-6.8L15.6,11c-3,0.5-5.1,3.3-4.7,6.3l7.2,48.5c0.6,3.8,2,7.4,4.2,10.5
		c6.8,9.8,22.1,31.8,25.8,36.8c0.9,1.4,3.6,5.5,5.4,8.1c0.7,1,2.2,0.8,2.6-0.3c1.2-3.5,3.2-9.3,4.2-11.7c2.2-5.5,5.6-16.1,6.6-19.3
		c0.2-0.6,0.7-1,1.3-1.2l4.6-0.8L93.7,84l14.1-2.9c3-0.5,5.1-3.3,4.6-6.4C109.7,57.3,101.5,6.8,101.5,6.8"/>
</g>
<g>
	<g>
		<g>
			<path class="st0" d="M50.8,40.2c-0.3-0.9,0.2-1.8,0.9-2.4c0.2-0.2,0.5-0.3,0.7-0.4c-0.1,0,0.2-0.1,0.3-0.1c0.1,0,0.4-0.1,0.2-0.1
				c0.1,0,0.3,0,0.4,0c-0.2,0,0.1,0,0.2,0.1c0.1,0-0.1-0.1,0,0c0.1,0,0.1,0.1,0.2,0.1c-0.2-0.1,0.2,0.2,0.1,0.1
				c0.3,0.3,0.7,0.5,1.1,0.4c0.4-0.2,0.6-0.6,0.5-1c-0.2-0.5-0.5-0.9-0.6-1.4c-0.1-0.4,0-0.8,0.2-1.1c0.1-0.2,0.4-0.4,0.6-0.5
				c0.2-0.1,0.4-0.1,0.6-0.2c-0.1,0,0.2,0,0.2,0c0,0,0.3,0,0.1,0c0.1,0,0.2,0,0.2,0.1c-0.2-0.1,0.1,0,0.1,0c0.2,0.1-0.1-0.1,0.1,0.1
				c0.1,0.1,0.1,0.1,0.2,0.2c-0.1-0.1,0,0.1,0.1,0.1c0,0.1,0.1,0.1,0.1,0.2c0.1,0.2,0.1,0.1,0.2,0.4c0.3,0.7,0.4,1.5,0.6,2.2
				c0.2,0.5,0.6,0.8,1.1,0.6c0.4-0.1,0.8-0.6,0.6-1.1c-0.6-1.7-0.8-4.4-3.3-4.5c-1.1,0-2.4,0.5-3,1.5c-0.3,0.6-0.5,1.3-0.5,2
				c0.1,0.7,0.4,1.3,0.7,1.9c0.5-0.2,1-0.4,1.6-0.7c-1.1-1.4-3-1.3-4.3-0.3c-1.4,1-2.3,2.8-1.5,4.4C49.9,41.5,51.1,41,50.8,40.2
				L50.8,40.2z"/>
		</g>
	</g>
	<g>
		<g>
			<path class="st0" d="M57.8,33.2c0.2-0.2,0.2-0.4,0.2-0.6c0,0,0-0.1,0,0c0,0.2,0-0.1,0-0.1c0,0.2,0,0.1,0,0c0,0.2-0.1,0,0,0
				c0,0,0,0,0,0c0,0,0,0.1-0.1,0.1c0,0,0.2-0.2,0.1-0.1c-0.1,0.1,0.1-0.1,0.1-0.1c0,0,0.1-0.1,0.1-0.1c0.1-0.1-0.1,0,0,0
				c0.1,0,0.1-0.1,0.2-0.1c0.1-0.1,0.3-0.2,0.4-0.2c0.1,0,0.1-0.1,0.2-0.1c-0.1,0.1,0,0,0,0c0.1-0.1,0.3-0.1,0.4-0.2
				c0.1,0,0.2-0.1,0.4-0.1c0,0,0.1,0,0.1,0c0.1,0-0.2,0,0,0c0.2,0,0.3,0,0.5,0c0.1,0,0.2,0,0.2,0c0,0,0.1,0,0.1,0c0.1,0-0.1,0,0,0
				c0.1,0,0.3,0.1,0.4,0.1c0.1,0,0.1,0,0.2,0.1c0,0,0.1,0,0,0c-0.1-0.1,0,0,0,0c0,0,0.1,0.1,0.1,0.1c0,0,0,0,0.1,0
				c0.1,0-0.1-0.1-0.1,0c0,0,0.1,0.1,0.1,0.1c0,0,0,0.1,0.1,0.1c0.1,0.1-0.1-0.1,0-0.1c0,0.1,0.1,0.1,0.1,0.2c0,0,0.1,0.2,0.1,0.1
				c0-0.1,0,0.1,0,0.1c0,0.1,0,0.1,0.1,0.2c0,0.1,0,0.2,0,0.1c0,0.1,0,0.2,0,0.2c0,0.2,0,0.4,0,0.5c0,0.5,0.4,0.9,0.9,0.9
				c0.5,0,0.9-0.4,0.9-0.9c0-0.7-0.1-1.5-0.5-2.2c-0.4-0.7-1.1-1-1.9-1.2c-0.8-0.2-1.6-0.2-2.4,0.1c-0.7,0.2-1.5,0.6-2.1,1.2
				c-0.3,0.3-0.6,0.8-0.6,1.3C56.5,33,57.2,33.8,57.8,33.2L57.8,33.2z"/>
		</g>
	</g>
	<g>
		<g>
			<path class="st0" d="M63.8,33.3C63.8,33.4,63.8,33.3,63.8,33.3c0.2-0.2,0.3-0.3,0.4-0.3c0.2-0.1,0.6-0.4,0.7-0.4
				c0.6-0.2,1.6-0.2,2.2,0.1c1.1,0.5,1.7,2,1.4,3.2c-0.2,0.8,0.6,1.3,1.3,1c0.6-0.3,1.5,0.4,1.9,0.8c0.5,0.5,0.6,1.6,0.6,2.4
				c0,1.1,1.7,1.1,1.8,0c0.1-1.3-0.3-2.9-1.3-3.8c-1-0.9-2.5-1.6-3.8-0.9c0.4,0.3,0.9,0.7,1.3,1c0.5-2.1-0.7-4.7-2.8-5.4
				c-1.1-0.4-2.4-0.3-3.5,0.2c-0.8,0.4-2.2,1.4-1.5,2.4C62.9,34,63.6,33.9,63.8,33.3L63.8,33.3z"/>
		</g>
	</g>
	<g>
		<g>
			<path class="st0" d="M59.5,37.5c0.1-0.3,0.2-0.5,0.4-0.7c0,0,0-0.1,0.1-0.1c-0.1,0.1-0.1,0.1,0,0c0,0,0.1-0.1,0.1-0.1
				c0-0.1,0.1-0.1,0.2-0.1c0.2-0.1-0.1,0.1,0.1,0c0.1-0.1,0.2-0.1,0.4-0.2c-0.1,0.1,0,0,0,0c0.1,0,0.1,0,0.2-0.1c0.1,0,0.1,0,0.2,0
				c0.2,0-0.1,0,0.1,0c0.1,0,0.3,0,0.4,0c0.1,0,0.3,0,0,0c0.1,0,0.1,0,0.2,0c0.1,0,0.3,0.1,0.4,0.1c0.1,0,0.1,0,0.2,0.1
				c0.2,0.1-0.1-0.1,0.1,0c0.1,0.1,0.3,0.1,0.4,0.2c0.1,0,0.1,0.1,0.1,0.1c0.1,0,0,0,0,0c0,0,0.1,0,0.1,0.1c0.1,0.1,0.2,0.2,0.3,0.3
				c0.1,0.2-0.1-0.1,0,0c0,0.1,0.1,0.1,0.1,0.2c0,0,0.1,0.2,0,0c0,0.1,0.1,0.2,0.1,0.3c0.2,0.4,0.7,0.5,1.1,0.4
				c0.4-0.2,0.6-0.6,0.5-1c-0.1-0.8-0.9-1.4-1.5-1.8c-0.6-0.4-1.4-0.6-2.1-0.7c-1.6-0.1-3.1,1-3.5,2.6c-0.1,0.4,0.1,0.8,0.4,0.9
				C58.9,37.9,59.3,37.9,59.5,37.5L59.5,37.5z"/>
		</g>
	</g>
	<g>
		<g>
			<path class="st0" d="M49.8,40.8c0.6,0.4,1.4,0.4,2.1,0.3c0.9-0.1,1.8-0.1,2.7-0.1c2.1,0,4.2,0,6.3,0c2.2,0,4.3,0,6.5,0
				c1,0,2-0.1,3,0c0.9,0,1.9,0.2,2.8,0.1c-0.2-0.5-0.4-1-0.6-1.4c0,0,0,0.1-0.1,0.1c-0.7,0.8,0.5,2,1.2,1.2c0,0,0-0.1,0.1-0.1
				c0.4-0.5,0.2-1.5-0.6-1.4c-0.9,0.1-1.9,0-2.8-0.1c-1,0-2,0-3,0c-2.2,0-4.3,0-6.5,0c-2.1,0-4.2,0-6.3,0c-0.9,0-1.8,0.1-2.7,0.2
				c-0.7,0.1-1.4-0.1-2.1,0.2C49.4,40,49.5,40.6,49.8,40.8L49.8,40.8z"/>
		</g>
	</g>
	<g>
		<g>
			<path class="st0" d="M53.9,66c0.5,0.4,1.2,0.3,1.8,0.3c0.7,0,1.4-0.1,2.1-0.1c1.4,0,2.7,0.1,4.1,0.1c2.5-0.1,5.1-0.1,7.7,0
				c1.1,0,1.1-1.7,0-1.7c-2.6,0-5.2,0-7.8,0.1c-1.4,0-2.8-0.1-4.2-0.1c-0.7,0-1.3,0.1-1.9,0.1c-0.7,0-1.3-0.1-1.8,0.4
				C53.4,65.3,53.6,65.8,53.9,66L53.9,66z"/>
		</g>
	</g>
	<g>
		<g>
			<path class="st0" d="M54.7,65.3c-1.1-4.4-1.6-8.8-2.1-13.3c-0.4-4-1.1-7.9-1.7-11.9c-0.1-0.9-1.7-0.7-1.6,0.2
				c0.2,2,0.7,3.9,1,5.8c0.4,2.1,0.5,4.3,0.8,6.4c0.3,2.2,0.5,4.4,0.8,6.6c0.3,2.2,0.5,4.6,1.6,6.6C53.9,66.5,54.9,66,54.7,65.3
				L54.7,65.3z"/>
		</g>
	</g>
	<g>
		<g>
			<path class="st0" d="M56.9,48.4c0.3-0.7,0.1-1.6,0.1-2.3c0-0.7-0.1-1.3-0.2-2c-0.1-1.3-0.2-2.5-0.2-3.8c-0.1-1.1-1.6-1.1-1.7,0
				c0,0.5,0.1,1.1,0.1,1.6c0.1,0.7,0.1,1.5,0.2,2.2c0.1,0.7,0.1,1.3,0.2,2c0.1,0.8,0,1.7,0.3,2.4C56,49.1,56.7,48.8,56.9,48.4
				L56.9,48.4z"/>
		</g>
	</g>
	<g>
		<g>
			<path class="st0" d="M57.6,65.4c0-0.9-0.1-1.9-0.2-2.8c-0.1-0.7-0.1-1.4-0.2-2.1c-0.1-1.7-0.1-3.5-0.1-5.2c0-1.1-1.7-1.1-1.7,0
				c0,1.8,0.1,3.6,0.2,5.3c0,0.7,0.1,1.5,0.2,2.2c0.1,0.5,0.1,1,0.2,1.5c0,0.5,0.1,1,0.4,1.4C56.8,66.2,57.6,66,57.6,65.4L57.6,65.4
				z"/>
		</g>
	</g>
	<g>
		<g>
			<path class="st0" d="M62.7,47.1c0.1-0.1,0.1-0.2,0.2-0.3c0-0.1,0-0.2,0-0.3c0-0.1,0.1-0.2,0,0c0.1-0.3,0-0.6,0-0.9
				c0-0.6,0-1.3,0-1.9c0-1.1,0-2.2,0-3.4c0-0.4-0.4-0.8-0.8-0.8c-0.5,0-0.8,0.4-0.8,0.8c0,0.5,0,0.9,0,1.4c0,0.7,0,1.3,0,2
				c0,0.6,0,1.3,0,1.9c0,0.3,0,0.6,0,0.9c0-0.1,0-0.1,0,0c0,0.1,0,0.2,0,0.3c0,0.1,0.1,0.2,0.2,0.3C61.8,47.5,62.4,47.5,62.7,47.1
				L62.7,47.1z"/>
		</g>
	</g>
	<g>
		<g>
			<path class="st0" d="M62.2,65.5c0.2-0.8,0.1-1.7,0-2.5c0-0.7-0.1-1.4,0-2.1c0-1.3,0.1-2.6,0.2-3.9c0.1-1.1-1.6-1.1-1.7,0
				c-0.1,1.3-0.1,2.7-0.2,4c0,0.7,0,1.5,0.1,2.2c0.1,0.8-0.1,1.8,0.4,2.5C61.3,66.1,62,66.1,62.2,65.5L62.2,65.5z"/>
		</g>
	</g>
	<g>
		<g>
			<path class="st0" d="M70.2,65.6c1-1.9,1.1-4.2,1.4-6.3c0.3-2.3,0.6-4.5,0.8-6.8c0.2-2.1,0.4-4.2,0.8-6.2c0.3-1.9,0.8-3.9,1-5.8
				c0.1-0.9-1.5-1.1-1.6-0.2c-0.6,3.9-1.3,7.8-1.7,11.8c-0.5,4.4-0.9,8.8-1.9,13.1C68.9,65.7,69.9,66.2,70.2,65.6L70.2,65.6z"/>
		</g>
	</g>
	<g>
		<g>
			<path class="st0" d="M68.4,49.6c0.2-0.6,0.2-1.3,0.3-2c0-0.4,0.1-0.8,0.1-1.2c0.1-0.7,0.1-1.3,0.2-2c0.2-1.4,0.5-2.8,0.5-4.1
				c0-0.4-0.4-0.8-0.8-0.8c-0.5,0-0.8,0.4-0.8,0.8c-0.1,1.4-0.3,2.8-0.4,4.1c-0.1,0.7-0.2,1.3-0.2,2c0,0.4-0.1,0.8-0.1,1.1
				c-0.1,0.7-0.2,1.4,0,2.1C67.4,50.2,68.2,50.2,68.4,49.6L68.4,49.6z"/>
		</g>
	</g>
	<g>
		<g>
			<path class="st0" d="M67,65.7c0.3-0.4,0.4-1,0.4-1.5c0.1-0.5,0.2-1,0.3-1.6c0.1-0.8,0.2-1.6,0.3-2.4c0.1-2,0.3-4.1,0.4-6.1
				c0.1-1.1-1.6-1.1-1.7,0c-0.1,2-0.2,4-0.3,5.9c-0.1,1.8-0.6,3.5-0.6,5.3C65.8,66,66.7,66.1,67,65.7L67,65.7z"/>
		</g>
	</g>
	<g>
		<g>
			<path class="st0" d="M56.7,54.5c-0.8-0.8-1.5-1.7-1.4-2.9c0.1-1,0.7-2,1.4-2.7c1.5-1.4,4.1-1.7,6.1-1.4c2.1,0.3,4.3,1.6,4.6,3.9
				c0.3,2.2-2.1,3.5-3.9,4.2c-1.2,0.4-2.8,0.5-4.1,0.2c-1-0.3-2-0.9-2.9-1.5c-0.8-0.6-1.8,0.7-1.1,1.4c2.1,1.9,5.4,2.6,8.2,1.8
				c2.6-0.7,5.4-2.6,5.5-5.5c0.1-3.1-2.5-5.3-5.3-6c-2.6-0.6-5.9-0.3-8.1,1.4c-1.2,1-2.1,2.5-2.2,4c-0.2,1.8,0.7,3.3,2.1,4.3
				C56.5,56.3,57.4,55.1,56.7,54.5z"/>
		</g>
	</g>
</g>
</svg>
