<?xml version="1.0" encoding="utf-8"?>
<!-- Generator: Adobe Illustrator 24.0.1, SVG Export Plug-In . SVG Version: 6.00 Build 0)  -->
<svg version="1.1" id="Calque_1" xmlns="http://www.w3.org/2000/svg" xmlns:xlink="http://www.w3.org/1999/xlink" x="0px" y="0px"
	 viewBox="0 0 122 122" style="enable-background:new 0 0 122 122;" xml:space="preserve">
<style type="text/css">
	.st0{fill:#91D902;}
</style>
<g>
	<path d="M101.9,6.9c-0.7-4.4-4.8-7.4-9.3-6.8L16,11.1c-3,0.5-5.1,3.3-4.7,6.3l7.2,48.5c0.6,3.8,2,7.4,4.2,10.5
		c6.8,9.8,22.1,31.8,25.8,36.8c0.9,1.4,3.6,5.5,5.4,8.1c0.7,1,2.2,0.8,2.6-0.3c1.2-3.5,3.2-9.3,4.2-11.7c2.2-5.5,5.6-16.1,6.6-19.3
		c0.2-0.6,0.7-1,1.3-1.2l4.6-0.8l20.9-3.9l14.1-2.9c3-0.5,5.1-3.3,4.6-6.4C110.1,57.4,101.9,6.9,101.9,6.9"/>
</g>
<g>
	<g>
		<g>
			<path class="st0" d="M42.6,33.9c-0.2,0-0.2-0.2-0.3-0.5c0-0.4,0.1-0.8,0.2-1.2c0.3-0.9,0.8-1.5,1.8-1.3c1.2,0.2,2.2,1.1,3.3,1.6
				c0.6,0.2,1.2,0.3,1.8,0.5c0.7,0.2,0.7,0.5,0.6,1.2c-0.3,1.5-0.9,2.9-1.4,4.3c-0.5,1.3-0.7,2.7-1.2,4c-1,2.3-3.6,3.1-4.7,5.3
				c-0.5,1,1.1,2,1.6,0.9c0.5-1.1,1.7-1.8,2.6-2.6c0.9-0.8,1.7-1.8,2.1-2.9c0.6-1.4,0.8-2.8,1.3-4.2c0.5-1.4,1.1-2.9,1.4-4.4
				c0.2-1.1,0.2-2.3-0.9-2.9c-0.5-0.3-1.1-0.4-1.7-0.6c-0.7-0.2-1.3-0.4-2-0.8c-1.1-0.6-2.3-1.3-3.6-1.1c-1,0.1-1.9,0.7-2.3,1.6
				c-0.7,1.4-1.2,4.5,1.1,4.7C43.3,35.5,43.5,34.1,42.6,33.9L42.6,33.9z"/>
		</g>
	</g>
	<g>
		<g>
			<path class="st0" d="M47.1,40.7c-1.1-0.3-2-1-3.2-1.2c-1.2-0.2-2.4-0.1-3.6,0.2c-2.1,0.5-4.1,1.5-5.6,3.1
				c-2.9,3-3.6,7.4-2.4,11.3c0.6,1.8,1.6,3.5,3.1,4.8c1.6,1.3,3.5,1.7,5.6,1.7c2.3-0.1,5-0.3,7-1.4c1.8-1,3-2.8,3.9-4.5
				c1.2-2.2,1.6-4.5,1-7c-0.3-1.2-0.8-2.4-1.5-3.4c-0.8-1.1-1.8-1.7-2.7-2.6c-0.8-0.8-2.1,0.4-1.3,1.3c0.6,0.6,1.4,1.1,2,1.8
				c0.6,0.7,1.1,1.6,1.4,2.5c0.6,1.8,0.7,3.7,0,5.4c-0.6,1.5-1.6,3.2-2.8,4.3c-1.4,1.3-3.5,1.6-5.4,1.8C41,58.8,39,59,37.3,58
				c-1.4-0.8-2.4-2.1-3-3.5c-1.4-3.1-1.2-6.8,0.8-9.6c1.2-1.7,3-2.9,5-3.4c1.1-0.3,2.3-0.5,3.4-0.4c1.1,0.1,2,0.8,3.1,1
				C47.6,42.3,48.1,40.9,47.1,40.7L47.1,40.7z"/>
		</g>
	</g>
	<g>
		<g>
			<path class="st0" d="M43.6,47.4c-0.3-0.1-0.5-0.2-0.8-0.2c-0.3,0-0.6,0-0.8,0.1c-0.5,0.1-1,0.4-1.4,0.8c-0.4,0.5-0.6,1.1-0.7,1.7
				c0,0.5,0.2,1.1,0.4,1.6c0.6,0.9,1.5,1.5,2.6,1.6c0.5,0.1,1,0,1.4-0.3c0.5-0.2,0.9-0.7,1.1-1.2c0.5-1.2,0-2.6-0.7-3.6
				c-0.2-0.3-0.6-0.5-0.9-0.4c-0.3,0.1-0.6,0.4-0.6,0.8c0,0.3,0,0.5,0.1,0.8c0.1,0.2,0.2,0.4,0.2,0.6c0.1,0.2,0.1,0.4,0.2,0.6
				c0,0,0,0.1,0,0.1c0,0,0-0.1,0-0.1c0,0,0,0.1,0,0.1c0,0.1,0,0.3,0,0.4c0,0,0-0.2,0-0.1c0,0.1,0,0.1,0,0.2c0,0,0,0.1,0,0.1
				c-0.1,0.2,0.1-0.2,0,0c0,0.1-0.1,0.1-0.1,0.2c0.1-0.2,0.1-0.1,0-0.1c0,0-0.1,0.1-0.1,0.1c0.1-0.2,0.1-0.1,0.1,0
				c0,0-0.1,0-0.1,0.1c-0.1,0-0.2,0,0.1,0c0,0-0.1,0-0.1,0c-0.1,0-0.1,0-0.2,0.1c-0.2,0,0.2,0,0.1,0c0,0-0.1,0-0.1,0
				c-0.1,0-0.1,0-0.2,0c-0.1,0-0.2-0.1,0.1,0c0,0-0.1,0-0.1,0c-0.2,0-0.3-0.1-0.5-0.1c-0.1,0-0.2-0.1,0,0c0,0-0.1,0-0.1,0
				c-0.1,0-0.1-0.1-0.2-0.1c0,0-0.1-0.1-0.1-0.1c0,0,0.1,0,0.1,0.1c0,0-0.1,0-0.1-0.1c-0.1-0.1-0.1-0.1-0.2-0.2c0,0,0-0.1-0.1-0.1
				c0.2,0.2,0,0.1,0,0c0-0.1-0.1-0.1-0.1-0.2c0,0,0-0.1,0-0.1c0,0,0,0.1,0,0.1c0,0,0-0.1,0-0.1c0-0.1-0.1-0.2-0.1-0.3
				c0-0.1,0,0.1,0,0.1c0,0,0-0.1,0-0.2c0-0.1,0-0.2,0-0.3c0,0.2,0,0.1,0,0.1c0,0,0-0.1,0-0.1c0,0,0,0,0,0c0-0.1,0-0.1,0,0.1
				c0,0,0.1-0.1,0.1-0.1c0,0,0.1-0.1,0.1-0.1c0.1-0.2-0.1,0.1,0,0c0,0,0.1-0.1,0.1-0.1c0.1-0.1,0.2-0.1,0,0c0.1,0,0.2-0.1,0.3-0.2
				c0,0,0.1,0,0.1,0c-0.1,0.1-0.1,0.1-0.1,0c0,0,0.1,0,0.1,0c0.2-0.1,0.4-0.1,0.6-0.1c0.2,0,0.4-0.1,0.6-0.2
				C44.2,48.4,44.2,47.5,43.6,47.4L43.6,47.4z"/>
		</g>
	</g>
	<g>
		<g>
			<path class="st0" d="M51,36.4c0.9,0.6,2.4,0.3,3.4,0.3c1.7,0,3.3,0.4,5,0.3c3.5-0.2,7.1-0.1,10.6-0.6c1.1-0.1,1.1-1.9,0-1.7
				c-3.4,0.4-6.8,0.3-10.1,0.6c-1.6,0.1-3.1-0.1-4.7-0.2c-1.2-0.1-2.5,0.2-3.7,0C50.8,34.9,50.3,35.9,51,36.4L51,36.4z"/>
		</g>
	</g>
	<g>
		<g>
			<path class="st0" d="M67.2,30.8c0.7,0.2,1.5,0.1,2.2,0.1c0.7,0,1.5,0,2.2,0c0.7,0,1.4,0,2.1,0c0.4,0,0.7,0,1.1,0
				c0.4,0,0.8,0,1.2-0.1c0.7-0.2,0.7-1.3,0-1.5c-0.7-0.2-1.5-0.1-2.2-0.1c-0.7,0-1.5,0-2.2,0c-0.7,0-1.4,0-2.1,0
				c-0.7,0-1.5,0-2.2,0.1C66.5,29.5,66.5,30.6,67.2,30.8L67.2,30.8z"/>
		</g>
	</g>
	<g>
		<g>
			<path class="st0" d="M71.3,30.3c-0.3,0.3-0.5,0.7-0.7,1.1c-0.2,0.4-0.3,0.7-0.5,1.1c-0.3,0.7-0.7,1.4-1.1,2.1
				c-0.2,0.4-0.1,0.9,0.3,1.1c0.4,0.2,0.9,0.1,1.1-0.3c0.5-0.7,0.8-1.5,1.1-2.3c0.1-0.4,0.3-0.7,0.4-1.1c0.1-0.2,0.1-0.4,0.2-0.5
				c0-0.1,0.1-0.2,0.1-0.3c0,0,0-0.1,0-0.1c0,0,0-0.3,0-0.2c0-0.3,0-0.6-0.3-0.7C71.8,30.1,71.5,30.1,71.3,30.3L71.3,30.3z"/>
		</g>
	</g>
	<g>
		<g>
			<path class="st0" d="M69.7,36.1c0.1,0.6,0.5,0.9,0.9,1.3c0.4,0.5,0.7,1,0.9,1.6c0.6,1.2,1.6,2.1,2.4,3.1c0.9,1.1,1.8,2.2,2.7,3.3
				c0.5,0.6,0.9,1.1,1.4,1.7c0.5,0.5,0.9,1.1,1.5,1.5c0.7,0.4,1.6-0.4,1.1-1.1c-0.4-0.6-0.9-1-1.4-1.5c-0.5-0.5-0.9-1-1.3-1.5
				c-0.9-1.1-1.7-2.2-2.6-3.2c-0.8-0.9-1.7-1.7-2.3-2.8c-0.3-0.5-0.5-1.1-0.9-1.6c-0.2-0.2-0.3-0.4-0.5-0.6
				c-0.1-0.1-0.5-0.3-0.6-0.5C70.8,34.8,69.4,35.1,69.7,36.1L69.7,36.1z"/>
		</g>
	</g>
	<g>
		<g>
			<path class="st0" d="M49.8,39c0.6,2.4,3,3.6,4.7,5.1c1,0.9,1.8,1.9,2.7,2.9c0.8,0.9,1.9,1.7,2.6,2.8c0.6,0.9,2,0,1.4-0.8
				c-0.7-1.1-1.7-1.9-2.6-2.8c-0.9-0.9-1.7-2-2.6-2.9c-0.9-0.8-1.9-1.4-2.7-2.2c-0.9-0.8-1.6-1.6-2.2-2.6
				C50.7,37.9,49.7,38.3,49.8,39L49.8,39z"/>
		</g>
	</g>
	<g>
		<g>
			<path class="st0" d="M65,48.8c-1.6-0.6-3.7-0.6-4.9,0.9c-1,1.2-1.2,3.1-0.4,4.5c0.7,1.4,2.3,1.9,3.8,2c1.5,0.1,3.2-0.6,3.8-2.1
				c0.7-1.7-0.1-4.1-1.9-4.8c-0.4-0.1-0.9,0.1-1,0.5c-0.2,0.4,0,0.8,0.3,1.1c-0.1-0.1,0.2,0.1,0.2,0.2c0,0,0.1,0.1,0.1,0.1
				c-0.1-0.1,0,0,0.1,0.1c0.1,0,0.1,0.1,0.2,0.2c0.1,0.1,0.3,0.4,0.4,0.6c0.2,0.4,0.2,0.9,0.1,1.4c0,0.1,0,0.1,0,0.2
				c-0.1,0.2,0.1-0.1,0,0.1c0,0-0.1,0.1-0.1,0.1c-0.1,0.2,0.1-0.1,0,0c-0.1,0.1-0.2,0.2-0.2,0.3c-0.2,0.2,0.1-0.1-0.1,0.1
				c-0.1,0-0.1,0.1-0.2,0.1c-0.1,0-0.1,0.1-0.2,0.1c-0.1,0.1,0.2-0.1-0.1,0c-0.1,0-0.3,0.1-0.4,0.1c-0.1,0-0.1,0-0.2,0
				c-0.3,0.1,0.1,0-0.1,0c-0.1,0-0.3,0-0.4,0c-0.1,0-0.3,0-0.4,0c0.2,0,0,0-0.1,0c-0.1,0-0.1,0-0.2,0c-0.3-0.1-0.6-0.1-0.8-0.2
				c-0.1,0-0.1,0-0.2-0.1c0.1,0.1,0,0,0,0c-0.1-0.1-0.2-0.1-0.3-0.2c0,0-0.2-0.2-0.1,0c0,0-0.1-0.1-0.1-0.1c0,0-0.1-0.1-0.1-0.1
				c0,0-0.2-0.2-0.1-0.1c-0.3-0.4-0.4-0.8-0.4-1.3c0-0.1,0-0.3,0-0.4c0-0.2,0-0.1,0,0c0-0.1,0-0.2,0.1-0.2c0-0.1,0.1-0.2,0.1-0.4
				c0.1-0.1-0.1,0.2,0-0.1c0-0.1,0.1-0.1,0.1-0.2c0,0,0.2-0.2,0.1-0.1c0-0.1,0.1-0.1,0.2-0.2c0,0,0.1-0.1,0.1-0.1
				c0.1-0.1,0.1-0.1,0,0c0,0,0.1,0,0.1-0.1c0.3-0.2,0.6-0.3,1-0.4c0.6-0.1,1.4,0.1,2.1,0C65.5,50.1,65.7,49,65,48.8L65,48.8z"/>
		</g>
	</g>
	<g>
		<g>
			<path class="st0" d="M60.9,45.8c0.6,0.6,1.6,0.6,2.4,0.7c0.4,0,0.8,0,1.2,0c0.2,0,0.3,0,0.5,0c0.1,0,0.1,0,0.2,0
				c0.3,0,0.5-0.1,0.7-0.3c0.3-0.2,0.3-0.8,0-1.1c-0.3-0.2-0.5-0.3-0.9-0.3c-0.2,0-0.3,0-0.5,0c-0.4,0-0.7,0-1.1,0
				c-0.2,0-0.4,0-0.6,0c-0.1,0-0.2,0-0.3,0c0,0-0.1,0-0.1,0c0.1,0,0.2,0,0,0c0,0-0.1,0-0.1,0c-0.1,0-0.1,0,0,0c0,0-0.1,0-0.1,0
				c-0.1,0-0.2,0-0.2,0c-0.1,0-0.1,0-0.2-0.1c-0.1,0,0,0,0.1,0c-0.1,0-0.1,0-0.2-0.1c0,0-0.1,0-0.1,0C61,44.4,60.4,45.4,60.9,45.8
				L60.9,45.8z"/>
		</g>
	</g>
	<g>
		<g>
			<path class="st0" d="M62.5,46.3c0,0.4,0,0.8,0,1.2c0,0.2,0,0.4,0,0.6c0,0.1,0,0.2,0,0.3c0,0.2,0,0.4,0.1,0.6
				c0-0.1-0.1-0.1-0.1-0.2c0,0,0,0,0,0c0.1,0.3,0.3,0.5,0.6,0.5c0.3,0,0.6-0.1,0.7-0.4c0-0.1,0.1-0.2,0.1-0.3c0-0.1,0-0.2,0-0.3
				c0-0.1,0-0.2,0-0.3c0-0.2,0-0.4,0-0.6c0-0.5-0.1-0.9-0.1-1.4c0,0.1,0,0.1,0,0.2c0,0,0,0,0,0c0-0.2-0.1-0.4-0.2-0.5
				c-0.1-0.1-0.3-0.2-0.5-0.2c-0.2,0-0.4,0.1-0.5,0.2C62.5,45.9,62.5,46,62.5,46.3L62.5,46.3z"/>
		</g>
	</g>
	<g>
		<g>
			<path class="st0" d="M62.9,56.4c-0.1,0.2-0.1,0.5-0.2,0.7c0,0.2,0,0.3,0,0.5c0,0.2,0,0.5,0.1,0.7c0,0.1,0,0.1,0,0.2
				c0,0.1,0.1,0.2,0.1,0.2c0,0.1,0.1,0.2,0.1,0.2c0.2,0.2,0.4,0.2,0.6,0.2c0.1,0,0.1,0,0.2,0c0.1,0,0.2-0.1,0.3-0.1
				c0.1-0.1,0.2-0.2,0.3-0.4c0.1-0.2,0-0.4-0.1-0.6c0,0,0,0,0-0.1c0,0.1,0.1,0.1,0.1,0.2c-0.1-0.1-0.1-0.3-0.1-0.5
				c0,0.1,0,0.1,0,0.2c0-0.3-0.1-0.6,0-0.9c0,0.1,0,0.1,0,0.2c0-0.1,0-0.2,0-0.3c0-0.1,0-0.1,0-0.2c0-0.1-0.1-0.2-0.1-0.2
				c-0.1-0.1-0.2-0.2-0.4-0.3C63.4,56,63.1,56.1,62.9,56.4L62.9,56.4z"/>
		</g>
	</g>
	<g>
		<g>
			<path class="st0" d="M61.2,60.6c0.3,0.1,0.7,0.1,1,0.1c0.3,0,0.6,0,1,0c0.3,0,0.6,0,0.9,0.1c0.1,0,0,0-0.1,0c0,0,0.1,0,0.1,0
				c0.1,0,0.1,0,0.2,0c0.2,0,0.3,0.1,0.5,0.1c0.4,0.1,0.8-0.1,1-0.5c0.1-0.3,0-0.8-0.3-1c-0.7-0.3-1.5-0.4-2.2-0.4c-0.3,0-0.7,0-1,0
				c-0.4,0-0.7,0-1.1,0.2c-0.3,0.1-0.5,0.3-0.5,0.6C60.7,60.2,60.9,60.5,61.2,60.6L61.2,60.6z"/>
		</g>
	</g>
	<g>
		<g>
			<path class="st0" d="M79.9,39.8c-2.2-0.1-4.3,0.7-6,2.1c-1.9,1.5-2.9,3.5-3.5,5.8c-0.3,1.2-0.6,2.5-0.5,3.7
				c0.1,1.3,0.7,2.6,1.1,3.9c0.8,2,3,3.3,4.9,4.1c4,1.8,9.5,1.4,13-1.4c3.2-2.5,4.2-7,2.6-10.7c-1-2.3-2.9-4.6-5.2-5.7
				c-1.9-0.9-4.5-2.5-6.8-1.8c-1.1,0.3-0.6,2,0.5,1.7c1.6-0.4,3.4,0.9,4.8,1.5c1.9,0.8,3.3,2.1,4.4,3.8c1.8,2.9,1.8,6.6-0.6,9.2
				c-2.5,2.7-6.8,3.3-10.2,2.5c-1.7-0.4-3.6-1.4-5-2.5c-0.8-0.7-1-1.7-1.3-2.6c-0.4-1.1-0.6-2.1-0.5-3.3c0.3-2.2,0.9-4.5,2.6-6.1
				c1.5-1.5,3.5-2.4,5.6-2.5C80.8,41.1,80.8,39.8,79.9,39.8L79.9,39.8z"/>
		</g>
	</g>
	<g>
		<g>
			<path class="st0" d="M82.3,47.7c-0.2-0.3-0.4-0.5-0.7-0.6c-0.3-0.2-0.6-0.2-0.9-0.3c-0.5,0-1.1,0.1-1.5,0.4
				c-0.9,0.6-1.6,1.6-1.6,2.7c-0.1,1.3,0.9,2.5,2.2,2.7c1.3,0.3,2.9-0.2,3.5-1.5c0.3-0.6,0.4-1.3,0.2-2c-0.1-0.3-0.3-0.7-0.5-0.9
				c-0.2-0.2-0.4-0.3-0.6-0.4c-0.2-0.1-0.5-0.1-0.7,0c-0.3,0.1-0.5,0.4-0.6,0.7c0,0.3,0.1,0.6,0.4,0.8c0.1,0.1,0.2,0.1,0.3,0.1
				c0,0,0.1,0,0.1,0.1c0,0,0,0,0.1,0c0.1,0.1-0.2-0.2-0.1-0.1c0,0,0.1,0.1,0.1,0.1c0.1,0.1-0.1-0.1-0.1-0.1c0,0,0,0,0,0.1
				c0,0,0,0.1,0.1,0.1c0.1,0.1-0.1-0.1,0-0.1c0,0,0,0.1,0,0.1c0,0,0,0.1,0,0.1c0,0,0,0.1,0,0.1c0,0,0-0.3,0-0.1c0,0.1,0,0.2,0,0.3
				c0,0,0,0.2,0,0c0-0.2,0,0,0,0.1c0,0.1,0,0.2-0.1,0.3c0,0,0,0,0,0.1c0,0.1,0.1-0.2,0-0.1c0,0,0,0.1-0.1,0.1c0,0.1-0.1,0.2-0.2,0.2
				c0.2-0.2,0.1-0.1,0,0c0,0-0.1,0.1-0.1,0.1c0,0,0,0-0.1,0c-0.1,0.1,0.1-0.1,0.1,0c-0.1,0-0.1,0.1-0.2,0.1c-0.1,0-0.1,0.1-0.2,0.1
				c0,0-0.1,0-0.1,0c0.2-0.1,0.1-0.1,0.1,0c-0.1,0-0.3,0.1-0.4,0.1c0,0-0.2,0-0.2,0c0,0,0.2,0,0.1,0c0,0-0.1,0-0.1,0
				c-0.1,0-0.3,0-0.4,0c0,0-0.1,0-0.1,0c0,0,0.2,0,0.1,0c-0.1,0-0.1,0-0.2,0c-0.1,0-0.1,0-0.2,0c0,0-0.1,0-0.1,0c0,0,0.2,0.1,0.1,0
				c-0.1,0-0.1-0.1-0.2-0.1c0,0-0.2-0.1-0.1,0c0.1,0.1,0,0-0.1-0.1c0,0-0.1-0.1-0.1-0.1c0,0,0,0,0-0.1c-0.1-0.1,0.1,0.2,0.1,0.1
				c0,0-0.1-0.1-0.1-0.1c0,0,0-0.1-0.1-0.1c0,0,0,0,0-0.1c-0.1-0.1,0,0.1,0,0.1c0-0.1-0.1-0.2-0.1-0.2c0,0,0-0.1,0-0.1
				c0.1,0.3,0,0.1,0,0c0-0.1,0-0.2,0-0.3c0-0.2,0,0.2,0,0.1c0-0.1,0-0.1,0-0.2c0-0.1,0-0.2,0.1-0.2c0,0,0,0,0-0.1c0,0-0.1,0.2,0,0.1
				c0,0,0-0.1,0.1-0.1c0-0.1,0.1-0.2,0.1-0.2c0,0,0-0.1,0.1-0.1c0.1-0.1-0.1,0.2,0,0c0.1-0.1,0.3-0.3,0.4-0.4c-0.2,0.2-0.1,0.1,0,0
				c0,0,0.1-0.1,0.1-0.1c0.1-0.1,0.2-0.1,0.3-0.1c-0.3,0.1-0.1,0,0,0c0,0,0.1,0,0.1,0c0,0,0.1,0,0.1,0c0.2,0-0.2,0,0,0
				c0.1,0,0.2,0,0.3,0c0,0,0.1,0,0.1,0c0,0-0.2,0-0.1,0c0,0,0.1,0,0.1,0c0,0,0.1,0,0.1,0c0.1,0-0.2-0.1,0,0c0,0,0,0,0.1,0
				c0,0,0.1,0,0.1,0c0.1,0.1,0.1,0,0,0c0,0,0.1,0,0.1,0.1c0.2,0.1,0.6,0.1,0.8-0.1C82.4,48.3,82.5,48,82.3,47.7L82.3,47.7z"/>
		</g>
	</g>
	<g>
		<g>
			<path class="st0" d="M67.5,54.2c0.3,0,0.7-0.1,1-0.2c0.3-0.1,0.7-0.1,1-0.1c0.9-0.1,1.8-0.4,2.8-0.5c1-0.2,1.9-0.4,2.9-0.6
				c0.5-0.1,1-0.3,1.5-0.4c0.5-0.1,1.1-0.2,1.5-0.5c0.7-0.4,0.3-1.3-0.4-1.4c-0.5-0.1-1.1,0.2-1.6,0.3c-0.5,0.1-1,0.3-1.5,0.4
				c-1,0.3-2,0.5-3.1,0.7c-0.9,0.2-1.9,0.4-2.8,0.6c-0.7,0.1-1.5,0.2-1.9,0.8C66.6,53.6,67,54.2,67.5,54.2L67.5,54.2z"/>
		</g>
	</g>
</g>
</svg>
