<?xml version="1.0" encoding="utf-8"?>
<!-- Generator: Adobe Illustrator 24.0.1, SVG Export Plug-In . SVG Version: 6.00 Build 0)  -->
<svg version="1.1" id="Calque_1" xmlns="http://www.w3.org/2000/svg" xmlns:xlink="http://www.w3.org/1999/xlink" x="0px" y="0px"
	 viewBox="0 0 122 122" style="enable-background:new 0 0 122 122;" xml:space="preserve">
<style type="text/css">
	.st0{fill:#91D902;}
</style>
<g>
	<path d="M101.3,6.9c-0.7-4.4-4.8-7.4-9.3-6.8l-76.6,11c-3,0.5-5.1,3.3-4.7,6.3l7.2,48.5c0.6,3.8,2,7.4,4.2,10.5
		c6.8,9.8,22.1,31.8,25.8,36.8c0.9,1.4,3.6,5.5,5.4,8.1c0.7,1,2.2,0.8,2.6-0.3c1.2-3.5,3.2-9.3,4.2-11.7c2.2-5.5,5.6-16.1,6.6-19.3
		c0.2-0.6,0.7-1,1.3-1.2l4.6-0.8l20.9-3.9l14.1-2.9c3-0.5,5.1-3.3,4.6-6.4C109.5,57.4,101.3,6.9,101.3,6.9"/>
</g>
<g>
	<g>
		<g>
			<path class="st0" d="M80.3,47.5c3.3-1.4,5-5.5,5.9-8.7c0.6-2.2,1.1-4.7,1-7c0-2.4-0.8-4.9-1.6-7.1c-0.5-1.4-1.3-3-2.9-3.5
				c-2-0.5-3.9,0.8-5.4,1.9c-4,2.8-8.1,5.2-13,6.2c-2.8,0.6-5.5,0.6-8.3,0c-1.2-0.3-2.3-0.6-3.5-0.7c-1.4-0.1-2.8-0.3-4.2-0.6
				c-2.4-0.5-5.3-0.7-7.7-0.4c-1.7,0.2-3,1.2-3.7,2.7c-0.8,1.8-1.1,4.1-1.2,6c-0.2,2.4,0.9,4.3,2,6.3c2.2,4,6.2,5.9,10.4,7.2
				c5.3,1.7,10.6,2.7,16.2,2.2c2.9-0.3,5.7-0.8,8.5-1.6c1.3-0.4,2.7-0.8,4-1.2c1.4-0.5,2.7-1.2,4.1-1.8c1-0.4,0.6-2.1-0.5-1.7
				c-1,0.4-1.9,1-2.9,1.3c-1.1,0.4-2.2,0.8-3.3,1.1c-2.2,0.7-4.4,1.2-6.7,1.6c-4.6,0.8-9.4,0.9-14-0.2c-3.8-0.9-7.9-2-11.1-4.2
				c-1.8-1.2-2.8-2.8-3.8-4.7c-0.5-1-1.2-1.9-1.3-3c-0.1-1.2,0.1-2.4,0.3-3.6c0.3-1.5,0.4-3.6,1.9-4.4c0.8-0.4,1.7-0.4,2.5-0.4
				c1.3,0,2.6,0,3.8,0.2c1.2,0.1,2.4,0.4,3.6,0.6c1.1,0.2,2.3,0.1,3.5,0.3c2.3,0.4,4.5,1.1,6.8,1.2c4.2,0.1,8.4-1.3,12.1-3.1
				c1.8-0.9,3.6-2,5.3-3.2c1.2-0.9,3.7-3.2,5.4-2.3c1.6,0.8,2,3.9,2.4,5.5c0.8,2.8,0.6,5.4,0,8.3c-0.6,3.3-2,8-5.4,9.5
				C78.6,46.6,79.4,47.9,80.3,47.5L80.3,47.5z"/>
		</g>
	</g>
	<g>
		<g>
			<path class="st0" d="M36.5,37.4c0.3,1.3,1.4,2.1,2.4,2.8c1.4,0.9,2.8,1.6,4.4,2.2c3.5,1.3,7.1,1.4,10.8,2
				c1.9,0.3,3.7,0.4,5.6,0.6c1.9,0.1,3.9,0.4,5.8,0.4c3.6,0,7.3-0.9,10.6-2.3c1.8-0.7,3.6-1.5,5.4-2.2c1.5-0.6,3-1.4,4.1-2.6
				c0.7-0.8-0.5-2.1-1.2-1.2c-1.2,1.3-2.9,2-4.5,2.6c-2,0.8-3.9,1.7-5.8,2.3c-2,0.7-4.1,1.2-6.2,1.4c-2.2,0.3-4.2,0.1-6.4-0.1
				c-4.3-0.3-8.6-0.7-12.8-1.3c-2.1-0.3-4.1-0.9-6.1-1.7c-1.4-0.6-4.2-1.8-4.7-3.3C37.6,36.2,36.3,36.5,36.5,37.4L36.5,37.4z"/>
		</g>
	</g>
	<g>
		<g>
			<path class="st0" d="M45.4,42.4c-0.5,0.6-0.6,1.3-0.7,2.1c-0.1,0.8-0.3,1.7-0.1,2.5c0.1,0.6,0.6,1.1,1.3,0.9
				c0.5-0.2,0.7-0.8,0.3-1.2c-0.1-0.1,0.1,0.1,0.1,0.1c0,0-0.1-0.2-0.2-0.2c-0.1-0.1,0,0,0.1,0.1c0,0,0-0.1,0-0.1
				c-0.1-0.1,0.1,0.2,0,0.1c0,0,0-0.1,0-0.1c0,0,0-0.1,0-0.1c0-0.1,0-0.2,0,0c0-0.2,0-0.4,0-0.6c0-0.2,0-0.5,0-0.7
				c0-0.1,0-0.2,0-0.4c0-0.1,0,0.2,0,0c0-0.1,0-0.1,0-0.2c0-0.2,0.1-0.4,0.1-0.6c0-0.2,0.1-0.4,0.1-0.5c0-0.1,0-0.1,0.1-0.2
				c0,0,0-0.1,0-0.1c0-0.1-0.1,0.2,0,0.1c0.2-0.3,0.1-0.7-0.2-0.9C46.1,42.2,45.6,42.1,45.4,42.4L45.4,42.4z"/>
		</g>
	</g>
	<g>
		<g>
			<path class="st0" d="M52.6,43.3c-1,0.8-1.2,2.1-1.2,3.3c0,0.6,0,1.1,0.1,1.7c0,0.3,0,0.5,0,0.8c0,0.1,0,0.3,0,0.4
				c0,0.1,0,0.1,0,0.2c0,0.1,0,0.2,0.1,0.3c0,0.1,0.1,0.1,0,0c0.2,0.6,1,0.8,1.3,0.2c0.3-0.5,0.2-1.2,0.2-1.7c0-0.5-0.1-1.1-0.1-1.6
				c0-0.3,0-0.5,0-0.8c0-0.3,0-0.4,0.1-0.6c0.1-0.5,0.3-0.9,0.7-1.3c0.2-0.3,0.1-0.7-0.2-0.9C53.2,43,52.8,43.1,52.6,43.3L52.6,43.3
				z"/>
		</g>
	</g>
	<g>
		<g>
			<path class="st0" d="M59.2,44.1c-0.5,0.3-0.9,0.9-1.2,1.4c-0.3,0.6-0.4,1.2-0.4,1.8c0,0.6,0,1.2,0.1,1.8c0.1,0.5,0.2,1.1,0.3,1.6
				c0.1,0.4,0.6,0.7,1,0.6c0.5-0.1,0.6-0.6,0.6-1c-0.1-0.5-0.2-0.9-0.3-1.4c0-0.1,0-0.3-0.1-0.4c0,0,0-0.2,0-0.1c0,0.1,0-0.1,0-0.1
				c0-0.2,0-0.5,0-0.7c0-0.2,0-0.5,0-0.7c0,0.1,0-0.1,0-0.2c0-0.1,0.1-0.2,0.1-0.4c0-0.1,0-0.1,0.1-0.2c0,0.1,0,0,0,0
				c0.1-0.1,0.1-0.2,0.2-0.3c0.1-0.1,0-0.1,0.2-0.2c0.1-0.1,0.2-0.2,0.3-0.3c0.2-0.3,0.3-0.6,0.1-0.9C59.8,44,59.5,43.9,59.2,44.1
				L59.2,44.1z"/>
		</g>
	</g>
	<g>
		<g>
			<path class="st0" d="M65,44.9c-0.5,0.8-0.6,1.7-0.5,2.6c0,0.2,0.1,0.5,0.1,0.7c0,0.1,0,0.2,0,0.3c0,0.1,0,0.1,0,0
				c0,0.1,0,0.1,0,0.2c0,0.2,0,0.4,0.1,0.6c0,0.2,0,0.5,0.1,0.7c0.1,0.3,0.4,0.6,0.7,0.5c0.4,0,0.6-0.2,0.7-0.5c0.2-0.4,0-1,0-1.4
				c-0.1-0.4-0.1-0.7-0.2-1.1c0-0.1,0-0.1,0,0c0-0.1,0-0.1,0-0.2c0-0.1,0-0.2,0-0.3c0-0.2,0-0.4,0-0.5c0,0,0-0.3,0-0.2
				c0-0.1,0-0.1,0-0.2c0-0.1,0.1-0.2,0.1-0.3c0,0.1,0,0,0.1-0.1c0,0.1,0,0,0,0c0.2-0.3,0.1-0.8-0.3-1C65.7,44.5,65.3,44.6,65,44.9
				L65,44.9z"/>
		</g>
	</g>
	<g>
		<g>
			<path class="st0" d="M72.4,43.5c-0.9,0.6-1.1,1.8-1,2.8c0,0.5,0.1,1,0.2,1.5c0,0.1,0,0.1,0,0.2c0,0,0,0.2,0,0.1
				c0-0.1,0,0.1,0,0.1c0,0.1,0,0.1,0,0.2c0,0.3,0,0.6,0.2,0.9c0.3,0.5,0.9,0.4,1.2,0c0.3-0.4,0.1-1.1,0.1-1.5
				c-0.1-0.4-0.2-0.8-0.2-1.3c0,0,0-0.2,0-0.1c0,0.1,0-0.1,0-0.1c0-0.1,0-0.2,0-0.3c0-0.2,0-0.4,0-0.6c0,0.1,0,0.1,0,0
				c0-0.1,0-0.1,0-0.2c0-0.1,0.1-0.2,0.1-0.3c0,0.1,0,0,0,0c0,0,0-0.1,0.1-0.1c0.1-0.1,0.1-0.2,0.2-0.3c0.1-0.3,0.1-0.6-0.1-0.8
				C73,43.4,72.6,43.3,72.4,43.5L72.4,43.5z"/>
		</g>
	</g>
	<g>
		<g>
			<path class="st0" d="M78.6,42.1c-0.1,0.1,0,0.1,0.1-0.1C78.7,42,78.7,42,78.6,42.1c-0.1,0-0.1,0.1-0.2,0.2
				c-0.1,0.1-0.1,0.3-0.2,0.4c-0.1,0.2-0.1,0.4-0.1,0.6c-0.1,0.5-0.1,1-0.1,1.6c0,0.5,0.1,1,0.3,1.5c0.2,0.5,0.4,1,0.9,1.3
				c0.7,0.4,1.3-0.4,1-1c0.2,0.3-0.1-0.2-0.1-0.1c0,0,0-0.1-0.1-0.1c0-0.1-0.1-0.1-0.1-0.2c0-0.1-0.1-0.2-0.1-0.2c0-0.1,0.1,0.2,0,0
				c0-0.1,0-0.1-0.1-0.2c-0.1-0.2-0.1-0.4-0.2-0.6c0-0.1,0-0.2-0.1-0.3c0-0.1,0-0.1,0,0c0-0.1,0-0.1,0-0.2c0-0.4,0-0.9,0-1.3
				c0,0,0-0.1,0-0.1c0-0.1,0-0.1,0,0c0-0.1,0-0.2,0.1-0.3c0-0.1,0-0.2,0.1-0.2c0-0.1,0-0.2,0-0.3c0-0.1,0-0.1,0-0.2
				c0,0.2,0,0.3,0,0.2c0.1-0.3-0.1-0.6-0.4-0.7C79.1,41.7,78.8,41.8,78.6,42.1L78.6,42.1z"/>
		</g>
	</g>
	<g>
		<g>
			<path class="st0" d="M45,49.3c-1.1,1.6-1.3,3.9-1.5,5.8c-0.3,2.3-0.5,4.8-0.1,7.1c0.4,2.1,1,4.6,2.2,6.4c1,1.5,2.5,2.4,4.1,3.1
				c4,1.8,9.1,2.3,13.4,1.3c3.6-0.8,6.4-3.7,7.9-7c2.3-4.9,2-10.4,2.5-15.7c0.1-1-1.6-1.2-1.7-0.2c-0.3,2-0.1,4-0.3,6
				c-0.2,2.1-0.5,4.4-1,6.4c-0.9,3.2-2.7,6.4-5.7,8c-1.7,0.9-3.5,1-5.4,1c-2.1,0-4.2-0.1-6.2-0.6c-1.8-0.5-3.8-1.1-5.2-2.4
				c-1.3-1.2-1.7-3.1-2.2-4.7c-0.8-2.4-0.8-4.8-0.6-7.3c0.2-2,0.3-4.6,1.2-6.4C46.6,49.2,45.5,48.5,45,49.3L45,49.3z"/>
		</g>
	</g>
	<g>
		<g>
			<path class="st0" d="M57.4,51.8c-0.7,2.4-0.7,5-0.6,7.6c0,1.1,1.7,1.1,1.7,0c-0.1-2.4-0.1-4.8,0.4-7.2
				C59,51.2,57.7,50.9,57.4,51.8L57.4,51.8z"/>
		</g>
	</g>
	<g>
		<g>
			<path class="st0" d="M61.2,56.6c-0.8-0.2-1.7-0.1-2.5-0.1c-0.7,0-1.3-0.1-2-0.1c-1.3-0.2-2.2,0.4-3.1,1.2
				c-0.8,0.7-1.1,1.5-1.3,2.5c-0.3,1.5-0.5,3-0.5,4.6c0,0.5,0,1.2,0.2,1.7c0.2,0.5,0.7,0.7,1.2,0.9c1.2,0.4,2.5,0.4,3.7,0.4
				c1.4,0,2.9,0.2,4.3-0.1c1-0.2,1.3-0.9,1.3-1.8c0-0.7,0.1-1.4,0.2-2.1c0.1-0.8,0.3-1.7,0.3-2.6c0-0.7-0.3-1.3-0.6-1.8
				c-0.3-0.5-0.6-0.9-0.7-1.5c-0.1-0.5-0.6-0.7-1.1-0.6c-0.5,0.1-0.7,0.6-0.6,1.1c0.1,0.5,0.3,0.9,0.5,1.3c0.2,0.4,0.5,0.7,0.7,1.1
				c0.2,0.5,0.1,1,0,1.5c-0.1,0.7-0.2,1.4-0.3,2c-0.1,0.5-0.1,1-0.1,1.6c0,0.1,0,0.5,0,0.2c0,0,0,0.1,0,0.2c0.1-0.1,0.1-0.1,0-0.1
				c0-0.1,0.1-0.1,0.2-0.2c-0.1,0.1-0.1,0,0.1,0c-0.1,0-0.1,0-0.2,0.1c-0.2,0-0.2,0-0.5,0.1c-0.7,0-1.4,0-2.1,0
				c-1.2,0-2.3,0-3.5-0.1c-0.4,0-0.8-0.1-1.2-0.3c0,0-0.1-0.1-0.2-0.1c0,0,0,0,0,0c0.1,0.1,0.2,0.2,0.3,0.3c0.1,0,0,0.2,0,0
				c0-0.2,0-0.3,0-0.5c-0.1-1.3,0.1-2.7,0.3-4c0.1-0.4,0.1-0.9,0.2-1.3c0.1-0.3,0.2-0.5,0.3-0.7c0.3-0.4,0.8-0.8,1.2-1
				c0.4-0.2,0.7-0.1,1.2-0.1c0.7,0.1,1.3,0.1,2,0.1c0.8,0,1.6,0,2.4-0.1C62,57.9,62,56.7,61.2,56.6L61.2,56.6z"/>
		</g>
	</g>
	<g>
		<g>
			<path class="st0" d="M74.6,50.4c-0.2,1.3-0.2,2.7-0.2,4c0,0.9-0.2,1.8-0.3,2.7c-0.1,0.9-0.1,1.8,0.3,2.6c0.4,0.8,1.2,1.5,2,1.9
				c0.8,0.4,1.7,0.6,2.5,0.1c0.7-0.4,1.2-1.1,1.7-1.7c0.6-0.7,0.6-1.6,0.6-2.5c0-1.1,0-2.2,0-3.4c0-1.1,0-2.3,0-3.4
				c0-1.1-0.1-2.2,0.3-3.2c0.3-1-1.3-1.4-1.6-0.4c-0.5,1.5-0.4,3.3-0.3,4.9c0,1.8-0.1,3.7-0.1,5.5c0,0.8,0,1.2-0.5,1.8
				c-0.3,0.4-0.8,1.1-1.4,1.1c-0.6-0.1-1.5-0.8-1.7-1.3c-0.3-0.6-0.2-1.4-0.1-2.1c0.1-0.9,0.2-1.8,0.2-2.7c0-1.3,0.2-2.6,0-3.9
				C75.9,49.4,74.7,49.4,74.6,50.4L74.6,50.4z"/>
		</g>
	</g>
	<g>
		<g>
			<path class="st0" d="M77.6,53.7c0.9,0,0.9-1.4,0-1.4C76.7,52.3,76.6,53.7,77.6,53.7L77.6,53.7z"/>
		</g>
	</g>
	<g>
		<g>
			<path class="st0" d="M77.6,57.3c0.9,0,0.9-1.4,0-1.4C76.6,55.9,76.6,57.3,77.6,57.3L77.6,57.3z"/>
		</g>
	</g>
</g>
</svg>
