<?xml version="1.0" encoding="utf-8"?>
<!-- Generator: Adobe Illustrator 24.0.1, SVG Export Plug-In . SVG Version: 6.00 Build 0)  -->
<svg version="1.1" id="Calque_1" xmlns="http://www.w3.org/2000/svg" xmlns:xlink="http://www.w3.org/1999/xlink" x="0px" y="0px"
	 viewBox="0 0 122 122" style="enable-background:new 0 0 122 122;" xml:space="preserve">
<style type="text/css">
	.st0{fill:#91D902;}
</style>
<g>
	<path d="M101.4,6.9c-0.7-4.4-4.8-7.4-9.3-6.8l-76.6,11c-3,0.5-5.1,3.3-4.7,6.3L18,65.9c0.6,3.8,2,7.4,4.2,10.5
		c6.8,9.8,22.1,31.8,25.8,36.8c0.9,1.4,3.6,5.5,5.4,8.1c0.7,1,2.2,0.8,2.6-0.3c1.2-3.5,3.2-9.3,4.2-11.7c2.2-5.5,5.6-16.1,6.6-19.3
		c0.2-0.6,0.7-1,1.3-1.2l4.6-0.8l20.9-3.9l14.1-2.9c3-0.5,5.1-3.3,4.6-6.4C109.6,57.4,101.4,6.9,101.4,6.9"/>
</g>
<g>
	<g>
		<g>
			<path class="st0" d="M51.9,41.4c-0.2-0.7,0.1-1.4,0.2-2.1c0.2-0.7,0.2-1.4,0.5-2.1c0.7-1.5,2.1-2.6,3.5-3.3
				c1.4-0.7,3-1.2,4.5-1.7c1.9-0.6,3.8-0.8,5.8-0.3c2.3,0.6,5.9,1.6,7.1,3.9c1.5,2.9,0.7,6.3-0.6,9.2c-1.2,2.7-2.8,5.2-4.1,7.8
				c-0.6,1.2-1.3,2.3-2,3.4c-1.1,1.9-2.2,3.7-3.4,5.5c-0.8,1.3-1.6,2.7-2.6,3.9c-1,1.1-2.4,1.2-3.8,1.2c-1.7,0-3.1-0.6-4.3-1.9
				c-1.1-1.2-2-2.8-2.7-4.2c-0.9-1.7-0.9-3.4-1.4-5.2c-0.3-1.1-2-0.6-1.7,0.5c0.2,0.9,0.2,1.8,0.4,2.7c0.2,0.9,0.5,1.7,0.9,2.5
				c0.7,1.6,1.7,3.1,2.7,4.4c2,2.6,5,3.4,8.1,2.9c2.3-0.4,3.4-2,4.6-3.8c1.4-2.1,2.7-4.2,4-6.4c0.9-1.5,1.9-3,2.7-4.7
				c1.5-3.1,3.4-6,4.7-9.3c1.2-3,1.6-6.9-0.2-9.8c-1.6-2.5-5.1-3.6-7.8-4.4c-2.2-0.6-4.5-0.5-6.7,0.2c-1.9,0.6-3.9,1.3-5.6,2.2
				c-1.6,0.9-3,2.3-3.7,4c-0.3,0.8-0.4,1.8-0.6,2.7c-0.2,0.8-0.3,1.6-0.1,2.4C50.8,42.7,52.2,42.3,51.9,41.4L51.9,41.4z"/>
		</g>
	</g>
	<g>
		<g>
			<path class="st0" d="M50.8,56.3c-0.1,1.9,1.3,3.6,2.2,5.2c0.9,1.6,2.2,3.1,4.2,3.2c3.5,0.2,5.5-3.7,6.8-6.4c2.2-4.5,4-9.1,6-13.7
				c0.9-2,2.2-4,1.4-6.2c-0.6-1.7-2.3-2.5-3.8-3.1c-2.5-0.9-5-0.9-7.6-0.3c-1.6,0.4-4.6,1.5-4.6,3.6c0,1.2,1.8,1.2,1.8,0
				c0-0.5,1.2-1,1.5-1.2c0.9-0.4,1.8-0.6,2.8-0.8c2-0.3,3.7-0.2,5.6,0.5c1.5,0.5,3,1.4,2.8,3.3c-0.2,1.8-1.5,3.7-2.2,5.3
				c-0.8,1.8-1.7,3.6-2.5,5.5c-0.7,1.7-1.4,3.5-2.2,5.2c-1,2.1-2.1,5-4.3,6.2c-1.7,1-3.1-0.1-4-1.6c-0.8-1.3-2.2-3-2.3-4.6
				C52.4,55.3,50.9,55.3,50.8,56.3L50.8,56.3z"/>
		</g>
	</g>
	<g>
		<g>
			<path class="st0" d="M52.4,38.2c0.2-0.1,0.5-0.2,0.7-0.2c0.1,0,0.1,0,0.2,0c0,0,0.2,0,0.1,0c-0.1,0,0.1,0,0.1,0
				c0.1,0,0.2,0,0.2,0c0.1,0,0.2,0,0.4,0c0.1,0,0.3,0,0.1,0c0.1,0,0.1,0,0.2,0c0.1,0,0.2,0.1,0.3,0.1c0.1,0-0.1-0.1,0,0
				c0,0,0.1,0,0.1,0c0.1,0,0.1,0.1,0.2,0.1c0.1,0-0.1,0-0.1,0c0,0,0,0,0.1,0.1c0,0,0.1,0.1,0.1,0.1c-0.1-0.1-0.1-0.1,0,0
				c0,0,0.1,0.2,0.1,0.1c0-0.1,0,0.1,0,0.1c0,0,0,0.2,0,0.1c0,0.1,0,0.2,0,0.3c0,0,0-0.1,0,0c0,0.1,0,0.1,0,0.2
				c-0.1,0.4-0.3,0.8-0.4,1.1c-0.2,0.4-0.2,0.9-0.3,1.3c-0.1,0.3-0.1,0.6-0.2,0.8c0,0.2-0.1,0.5-0.1,0.8c0.1-0.2,0.2-0.4,0.3-0.6
				c0,0,0,0,0,0c0.5,0.1,0.9,0.1,1.4,0.2c0.1,0.2,0.1,0.2,0.1,0.1c-0.2-0.7-1.2-0.8-1.5-0.2c0,0.1-0.1,0.2-0.1,0.3
				c-0.2,0.6,0.3,1.1,0.8,1.1c0.9,0,0.9-1,1.1-1.6c0.1-0.5,0.2-1,0.3-1.5c0.1-0.5,0.4-0.9,0.5-1.4c0.2-0.9,0-1.9-0.7-2.6
				c-0.6-0.5-1.3-0.7-2.1-0.7c-0.8,0-1.7,0.2-2.3,0.8C51.1,37.4,51.7,38.4,52.4,38.2L52.4,38.2z"/>
		</g>
	</g>
	<g>
		<g>
			<path class="st0" d="M50.4,41.2c-0.4,0.3-0.3,0.9-0.2,1.4c0.1,0.4,0.3,0.7,0.6,1.1c0.5,0.6,1.1,1,1.8,1.3c0.7,0.3,1.4,0.3,2.1,0
				c0.3-0.1,0.6-0.3,0.8-0.4c0.3-0.1,0.6-0.3,0.8-0.5c0.4-0.4,0.3-1.3-0.4-1.4c-0.3-0.1-0.5,0-0.8,0.1c-0.1,0-0.2,0.1-0.3,0.1
				c-0.2,0.1-0.4,0.2-0.6,0.3c0,0-0.1,0-0.1,0.1c-0.2,0.1,0.2-0.1,0,0c-0.1,0-0.2,0.1-0.4,0.1c0,0-0.1,0-0.1,0c0.1,0,0.1,0,0.1,0
				c-0.1,0-0.2,0-0.2,0c-0.2,0,0.2,0,0,0c-0.1,0-0.1,0-0.2-0.1c-0.1,0-0.2,0-0.2-0.1c0.1,0.1,0,0,0,0c-0.1-0.1-0.2-0.1-0.3-0.2
				c-0.1,0-0.1-0.1-0.2-0.1c0,0-0.1,0-0.1-0.1c0.1,0.1,0.1,0.1,0,0c-0.1-0.1-0.2-0.2-0.3-0.3c-0.1-0.1-0.2-0.2-0.3-0.3
				c0.1,0.1,0,0,0-0.1c0-0.1-0.1-0.1-0.1-0.2c-0.1-0.2,0,0.1,0,0c0-0.1,0-0.1-0.1-0.2c0-0.1,0-0.1,0,0c0-0.1,0-0.1,0-0.2
				c0-0.1,0-0.2-0.1-0.4C51.3,40.9,50.8,40.9,50.4,41.2L50.4,41.2z"/>
		</g>
	</g>
	<g>
		<g>
			<path class="st0" d="M50.3,42.1c-0.4,0.6-0.7,1.2-1,1.8c-0.4,0.7-0.8,1.4-1.1,2.2c-0.6,1.3-1.2,3.1-0.3,4.4
				c0.8,1.2,2.5,2,3.9,2.1c1.6,0.1,2.8-1,3.2-2.5c0.2-0.8,0.3-1.7,0.4-2.6c0.2-1.2,0.5-2.3,0.8-3.5c0.3-1.1-1.4-1.5-1.7-0.5
				c-0.5,1.6-0.8,3.4-1.1,5c-0.1,0.9-0.3,2.1-1.4,2.2c-0.3,0-0.3,0-0.6-0.1c-0.3-0.1-0.5-0.2-0.8-0.3c-0.5-0.2-1-0.5-1.4-0.9
				c-0.1-0.1,0.1,0.1,0,0c0,0-0.1-0.2-0.1-0.1c0,0-0.1-0.2-0.1-0.3c0-0.2,0-0.5,0-0.7c0.1-0.6,0.3-1.2,0.6-1.8
				c0.3-0.7,0.7-1.4,1.1-2.1c0.3-0.7,0.7-1.4,0.7-2.1C51.7,41.7,50.7,41.6,50.3,42.1L50.3,42.1z"/>
		</g>
	</g>
	<g>
		<g>
			<path class="st0" d="M47.4,55.6c-0.3,0.2-0.3,0.6-0.3,0.9c0.1,0.2,0.2,0.4,0.4,0.6c0.2,0.3,0.6,0.6,0.9,0.8
				c0.8,0.5,1.9,0.5,2.7,0.1c0.2-0.1,0.5-0.3,0.6-0.5c0.2-0.3,0.5-0.7,0.4-1c0-0.4-0.2-0.7-0.6-0.8c-0.3-0.1-0.8,0-1,0.4
				c0,0.1-0.1,0.2-0.1,0.3c-0.1,0.2,0.1-0.2,0,0c0,0,0,0.1-0.1,0.1c0.1-0.2,0.1-0.1,0-0.1c-0.1,0.1-0.2,0.1,0,0c0,0-0.1,0.1-0.1,0.1
				c0,0-0.1,0-0.1,0.1c0.2-0.1,0.1-0.1,0.1,0c-0.1,0-0.2,0.1-0.3,0.1c-0.2,0,0.2,0,0,0c0,0-0.1,0-0.1,0c-0.1,0-0.2,0-0.3,0
				c-0.2,0,0.2,0,0,0c0,0-0.1,0-0.1,0c0,0-0.1,0-0.1,0c-0.1,0-0.1-0.1,0.1,0c-0.1,0-0.1-0.1-0.2-0.1c-0.1,0-0.1-0.1-0.2-0.1
				c0,0-0.1-0.1-0.1-0.1c-0.1-0.1,0.2,0.1,0,0c-0.1-0.1-0.3-0.2-0.4-0.3c0-0.1,0.1,0.2,0.1,0.1c0-0.1-0.1-0.2,0,0.1
				c0-0.1-0.1-0.4,0-0.1c0-0.1,0-0.1,0,0.1c0,0.1-0.1,0.3-0.1,0.4c0,0,0,0,0,0c0.2-0.3,0.1-0.8-0.2-1C48.1,55.3,47.7,55.4,47.4,55.6
				L47.4,55.6z"/>
		</g>
	</g>
	<g>
		<g>
			<path class="st0" d="M48.6,55.6c0.1-0.2,0.1-0.3,0.1-0.5c0-0.1,0-0.2,0-0.3c0-0.1,0-0.2,0-0.3c0-0.1,0,0.2,0,0c0-0.1,0-0.2,0-0.3
				c0-0.1,0-0.1,0,0c0,0,0-0.1,0-0.1c0-0.1,0-0.2,0.1-0.3c0-0.2,0.1-0.4,0.1-0.6c0.2-0.8,0.4-1.5,0.6-2.3c0.1-0.4-0.1-0.9-0.6-1
				c-0.4-0.1-0.9,0.1-1,0.6c-0.2,0.8-0.4,1.6-0.6,2.4c-0.1,0.5-0.2,0.9-0.2,1.4c0,0.2,0,0.4,0,0.6c0,0.1,0,0.3,0,0.4
				c0,0.1,0,0.1,0.1,0.2c0,0,0.2,0.3,0.1,0.2c0.1,0.2,0.3,0.3,0.6,0.3C48.2,55.9,48.5,55.8,48.6,55.6L48.6,55.6z"/>
		</g>
	</g>
	<g>
		<g>
			<path class="st0" d="M52.1,56.4C52.1,56.3,52.1,56.3,52.1,56.4c0-0.1,0.1-0.1,0.1-0.2c0.1-0.1,0.1-0.2,0.2-0.4
				c0.1-0.2,0.1-0.3,0.2-0.5c0.1-0.3,0.2-0.7,0.3-1c0.2-0.8,0.4-1.5,0.4-2.3c0-0.4-0.4-0.8-0.8-0.8c-0.4,0-0.8,0.4-0.8,0.8
				c0,0.2,0,0.4,0,0.6c0,0,0,0.3,0,0.1c0,0.1,0,0.2,0,0.3c-0.1,0.3-0.2,0.7-0.2,1c-0.1,0.3-0.2,0.7-0.3,1c0,0.2-0.1,0.4-0.1,0.6
				c0,0.2,0,0.4,0,0.6c0,0.3,0.2,0.6,0.5,0.6C51.7,56.9,52,56.7,52.1,56.4L52.1,56.4z"/>
		</g>
	</g>
	<g>
		<g>
			<path class="st0" d="M50.2,55.1C50.2,55.1,50.2,55.1,50.2,55.1C50.2,55.1,50.2,55.2,50.2,55.1C50.2,55.2,50.2,55.1,50.2,55.1
				c0,0,0,0.1,0,0.1C50.2,55.2,50.2,55.2,50.2,55.1c0,0.1,0,0.2,0,0.2c0,0,0,0,0,0c0,0.1,0,0.1-0.1,0.2c0,0,0,0,0,0
				c0,0-0.1,0.1-0.1,0.1c0,0,0,0,0,0c-0.3,0-0.6,0-0.9,0c0.1,0.2,0.3,0.2,0.5,0.2c0,0,0,0,0,0c-0.1,0-0.1,0-0.2,0c0,0,0,0,0,0
				c-0.2-0.2-0.3-0.3-0.5-0.5c0,0.1,0,0.1,0.1,0.2c0,0.1,0.1,0.1,0.1,0.2c0.1,0.1,0.1,0.1,0.2,0.2c0.1,0,0.2,0.1,0.3,0.1
				c0.1,0,0.2,0,0.3-0.1c0.1,0,0.2-0.1,0.2-0.2c0.1-0.1,0.1-0.1,0.2-0.2c0-0.1,0.1-0.2,0.1-0.3c0-0.1,0-0.1,0-0.2
				c0-0.1-0.1-0.2-0.2-0.3c-0.1,0-0.1-0.1-0.2-0.1c-0.1-0.1-0.2-0.1-0.4-0.1c-0.1,0-0.1,0-0.2,0c-0.1,0-0.2,0.1-0.3,0.1
				c-0.1,0.1-0.1,0.1-0.2,0.2c0,0.1-0.1,0.1-0.1,0.2c0.1-0.1,0.2-0.3,0.3-0.4c0,0,0,0-0.1,0c-0.1,0-0.2,0.1-0.2,0.2
				C49,54.7,49,54.7,49,54.8c0,0.1,0,0.1,0,0.2c0,0.1,0,0.3,0.1,0.4c0,0,0,0,0,0c0-0.2,0-0.4,0-0.6c0,0,0,0,0,0c0,0,0,0.1-0.1,0.2
				c0,0,0,0,0,0c0,0,0,0,0,0c0,0,0,0,0,0c0,0.1,0,0.1,0,0.2c0,0.1,0,0.2,0,0.2c0,0,0,0.1,0,0.1c0,0.1,0.1,0.2,0.1,0.3
				c0,0.1,0.1,0.1,0.2,0.2c0.1,0.1,0.1,0.1,0.2,0.1c0.1,0,0.2,0,0.2,0c0.1,0,0.2,0,0.2-0.1c0,0,0.1-0.1,0.1-0.1
				c0.1-0.1,0.1-0.2,0.2-0.3c0-0.1,0-0.1,0-0.2C50.3,55.3,50.2,55.2,50.2,55.1L50.2,55.1z"/>
		</g>
	</g>
	<g>
		<g>
			<path class="st0" d="M53.8,39.7C53.8,39.7,53.8,39.7,53.8,39.7C53.8,39.7,53.8,39.8,53.8,39.7C53.8,39.8,53.8,39.7,53.8,39.7
				C53.8,39.7,53.8,39.7,53.8,39.7C53.8,39.7,53.8,39.7,53.8,39.7C53.8,39.7,53.7,39.8,53.8,39.7C53.7,39.8,53.8,39.8,53.8,39.7
				c0,0-0.1,0.1-0.1,0.1C53.7,39.8,53.7,39.8,53.8,39.7c-0.1,0.1-0.2,0.1-0.2,0.1c0,0,0.1,0,0.1,0c-0.1,0-0.1,0-0.2,0
				c0,0,0.2,0,0.2,0c0,0,0,0,0,0c0,0,0,0,0,0c0,0,0,0,0,0c-0.1,0-0.1,0-0.2,0c0,0,0,0,0.1,0c-0.1,0-0.1,0-0.2,0c0,0,0,0,0,0
				c-0.1,0-0.1,0-0.2-0.1c0,0,0,0,0,0c0,0-0.1-0.1-0.1-0.1c0,0,0,0,0,0c0,0-0.1-0.1-0.1-0.1c0,0,0.1,0.1,0.1,0.1
				c0,0-0.1-0.1-0.1-0.1c0,0,0,0,0,0c0-0.1,0-0.1-0.1-0.2c0,0,0,0,0,0c0-0.1,0-0.1,0-0.2c0,0,0,0,0,0c0-0.1,0-0.1,0-0.2
				c0,0.1,0,0.1,0,0.2c0,0,0,0,0,0c0-0.1,0-0.1,0-0.2c0,0,0,0.1,0,0.1c0-0.1,0-0.1,0.1-0.2c0,0.1-0.1,0.1-0.1,0.2
				c0-0.1,0.1-0.1,0.1-0.2c0,0,0,0,0,0c0.2-0.1,0.5-0.1,0.7-0.2c0,0,0,0,0,0c0.1,0,0.1,0.1,0.2,0.1c0,0,0,0,0,0
				c0.1,0,0.1,0.1,0.2,0.1c0,0,0,0,0,0c0,0.1,0.1,0.1,0.1,0.2c0,0,0,0,0,0c0,0.1,0.1,0.1,0.1,0.2c0,0,0,0,0,0c0,0.1,0,0.1,0,0.2
				c0,0,0,0,0,0c0,0.1,0,0.1,0,0.2c0,0,0,0,0,0c0,0.1-0.1,0.1-0.1,0.2c0-0.1,0.1-0.1,0.1-0.2c0,0,0-0.1,0-0.1c0,0,0-0.1,0-0.1
				c0,0,0-0.2,0-0.2c0,0,0,0,0,0c0,0-0.1-0.2-0.1-0.2c0,0,0,0,0,0c0-0.1-0.1-0.1-0.1-0.2c-0.1-0.1-0.1-0.1-0.2-0.2
				c-0.1,0-0.2-0.1-0.3-0.1c-0.1,0-0.2,0-0.3,0.1c-0.1,0-0.2,0.1-0.2,0.2c0,0.1-0.1,0.1-0.1,0.2c-0.1,0.1-0.1,0.2-0.1,0.4
				c0,0.1,0,0.1,0,0.2c0,0.1,0.1,0.2,0.2,0.3c0,0,0,0,0,0c0-0.1-0.1-0.1-0.1-0.2c0,0,0,0,0,0c0-0.1-0.1-0.1-0.1-0.2c0,0,0,0,0,0
				c0-0.1,0-0.1,0-0.2c0,0,0,0,0,0c0-0.1,0-0.1,0-0.2c0,0,0,0,0,0c0-0.1,0.1-0.1,0.1-0.2c0,0.1-0.1,0.1-0.1,0.2c0,0.1,0,0.3,0,0.4
				c0.1,0.3,0.3,0.5,0.6,0.6c0.1,0,0.1,0,0.2,0c0.1,0,0.2,0,0.3-0.1c0.1,0,0.1,0,0.2-0.1c0.1-0.1,0.1-0.1,0.2-0.2c0,0,0,0,0-0.1
				c0-0.1,0.1-0.2,0.1-0.2c0,0,0-0.1,0-0.1c0-0.1,0-0.1,0-0.2c0,0,0,0,0,0c0,0,0,0,0,0c0-0.1,0-0.2,0-0.2c0,0,0-0.1,0-0.1
				c0,0,0-0.1,0-0.1c0,0,0,0,0,0c0,0,0-0.1-0.1-0.1c0,0,0-0.1-0.1-0.1c0,0,0,0,0,0c0,0-0.1-0.1-0.1-0.1c0,0,0,0,0,0c0,0,0,0,0,0
				c0,0,0,0,0,0c0,0,0,0,0,0c0,0-0.1-0.1-0.2-0.1c0,0,0,0,0,0c0,0-0.1,0-0.2,0c0,0,0,0,0,0c0,0,0,0,0,0c0,0,0,0,0,0
				c-0.1,0-0.1,0-0.2,0c0,0,0,0,0,0c0,0,0,0,0,0c-0.1,0-0.1,0-0.2,0.1c0,0,0,0,0,0c-0.1,0-0.1,0.1-0.2,0.2c0,0,0,0,0,0
				c0,0-0.1,0.1-0.1,0.1c0,0,0,0,0,0c0,0,0.1-0.1,0.1-0.1c-0.1,0.1-0.1,0.1-0.2,0.2c0,0,0,0,0,0c0,0.1-0.1,0.1-0.1,0.2
				c0,0,0,0.1,0,0.1c0,0.1,0,0.2,0,0.3c0,0.1,0,0.2,0.1,0.2c0,0.1,0.1,0.1,0.1,0.2c0.1,0.1,0.1,0.1,0.2,0.1c0.1,0,0.1,0.1,0.2,0.1
				c0.1,0,0.1,0,0.2,0c0.1,0,0.2-0.1,0.3-0.2c0,0,0.1-0.1,0.1-0.1C53.7,39.9,53.8,39.8,53.8,39.7L53.8,39.7z"/>
		</g>
	</g>
	<g>
		<g>
			<path class="st0" d="M50.6,44.5c-0.1,0.5-0.2,1-0.4,1.4c-0.1,0.2-0.2,0.5-0.3,0.7c0,0.1,0.1-0.2,0-0.1c0,0,0,0.1,0,0.1
				c0,0,0,0.1-0.1,0.1c0,0,0,0.1-0.1,0.1c-0.1,0.2-0.1,0.3-0.1,0.5c0-0.1,0-0.1,0-0.2c0,0,0,0.1,0,0.1c-0.1,0.3,0.1,0.7,0.3,0.8
				c0.3,0.2,0.7,0.1,0.9-0.1c0.1-0.1,0.2-0.2,0.3-0.3c0.1-0.1,0.1-0.3,0.2-0.5c0.1-0.2,0.2-0.5,0.3-0.8c0.2-0.5,0.3-1.1,0.3-1.7
				c0-0.4-0.3-0.7-0.6-0.7C51.1,44,50.7,44.2,50.6,44.5L50.6,44.5z"/>
		</g>
	</g>
	<g>
		<g>
			<path class="st0" d="M51.9,44.3c0,0.1-0.2,0.4-0.1,0.2c0,0.1-0.1,0.1-0.1,0.2c-0.1,0.2-0.1,0.4-0.2,0.5c-0.1,0.3-0.2,0.5-0.3,0.8
				c-0.1,0.3-0.2,0.5-0.2,0.8c-0.1,0.3-0.2,0.6-0.1,0.9c0-0.1,0-0.3,0-0.4c0,0,0,0,0,0c0.2-0.2,0.4-0.4,0.5-0.5c0,0,0,0,0,0
				c0.1,0,0.3,0,0.4,0c0.3,0.2,0.4,0.2,0.3,0.1c-0.2-0.2-0.6-0.3-0.9-0.1c-0.3,0.2-0.4,0.5-0.3,0.8c0,0.1,0,0,0-0.1
				c0,0.1,0,0.1,0,0.2c0,0.2,0.1,0.2,0.2,0.4c0.2,0.2,0.5,0.3,0.8,0.2c0.2-0.1,0.4-0.2,0.5-0.4c0.1-0.2,0.1-0.3,0.1-0.5
				c0,0.1,0,0.1,0,0.2c0-0.2,0.1-0.5,0.2-0.7c0.1-0.2,0.1-0.5,0.2-0.7c0.1-0.5,0.3-1,0.4-1.6c0-0.3-0.2-0.6-0.5-0.6
				C52.4,43.9,52.1,44,51.9,44.3L51.9,44.3z"/>
		</g>
	</g>
	<g>
		<g>
			<path class="st0" d="M53.4,44.4c0,0.7-0.2,1.4-0.5,2.1c-0.1,0.4-0.3,0.7-0.4,1.1c-0.1,0.4-0.4,0.8-0.3,1.2c0,0.3,0.2,0.6,0.6,0.7
				c0.3,0.1,0.7,0,0.8-0.3c0.1-0.2,0.2-0.4,0.2-0.7c0.1-0.2,0.1-0.4,0.2-0.6c0.1-0.4,0.3-0.8,0.4-1.1c0.3-0.8,0.5-1.7,0.3-2.6
				c-0.1-0.3-0.4-0.5-0.7-0.5C53.6,43.8,53.4,44.1,53.4,44.4L53.4,44.4z"/>
		</g>
	</g>
</g>
</svg>
