<?xml version="1.0" encoding="utf-8"?>
<!-- Generator: Adobe Illustrator 24.0.1, SVG Export Plug-In . SVG Version: 6.00 Build 0)  -->
<svg version="1.1" id="Calque_1" xmlns="http://www.w3.org/2000/svg" xmlns:xlink="http://www.w3.org/1999/xlink" x="0px" y="0px"
	 viewBox="0 0 122 122" style="enable-background:new 0 0 122 122;" xml:space="preserve">
<style type="text/css">
	.st0{fill:#91D902;}
</style>
<g>
	<path d="M102,6.8c-0.7-4.4-4.8-7.4-9.3-6.8L16.1,11c-3,0.5-5.1,3.3-4.7,6.3l7.2,48.5c0.6,3.8,2,7.4,4.2,10.5
		c6.8,9.8,22.1,31.8,25.8,36.8c0.9,1.4,3.6,5.5,5.4,8.1c0.7,1,2.2,0.8,2.6-0.3c1.2-3.5,3.2-9.3,4.2-11.7c2.2-5.5,5.6-16.1,6.6-19.3
		c0.2-0.6,0.7-1,1.3-1.2l4.6-0.8L94.2,84l14.1-2.9c3-0.5,5.1-3.3,4.6-6.4C110.2,57.3,102,6.8,102,6.8"/>
</g>
<g>
	<g>
		<g>
			<path class="st0" d="M46.1,25.7c0.2,0.2,0.3,0.6,0.5,0.9c0.4,0.6,0.8,1.1,1.3,1.6c1,1.2,1.8,2.5,2.8,3.8c1.9,2.6,3.8,5.1,5.5,7.8
				c3.3,5.1,7.4,9.7,10.7,14.8c0.6,0.9,2.1,0.1,1.5-0.9c-3.3-5.4-7.7-10.1-11.1-15.4c-1.7-2.7-3.7-5.2-5.6-7.8
				c-0.9-1.2-1.7-2.4-2.6-3.6c-0.4-0.5-0.9-1.1-1.3-1.7c-0.2-0.3-0.4-0.7-0.8-0.9C46.3,24.2,45.5,25.1,46.1,25.7L46.1,25.7z"/>
		</g>
	</g>
	<g>
		<g>
			<path class="st0" d="M66.3,62.7c-0.3-0.2-0.4-1.1-0.4-1.4c-0.1-0.8-0.1-1.6,0-2.4c0.3-1.5,0.9-2.8,2.3-3.6
				c1.2-0.7,2.5-0.9,3.9-0.8c0.9,0.1,1.6,0.5,2.3,0.8c0.3,0.2,0.7,0.3,1,0.6c0.2,0.3,0.4,0.6,0.6,0.9c0-0.4,0-0.8,0-1.2
				c-0.4,0.4-1,0.6-1.4,0.9c-0.5,0.4-1,0.7-1.5,1c-1.1,0.7-2.2,1.4-3.3,2.2c-0.8,0.6-1.6,1.4-2.4,2c-0.3,0.2-0.6,0.4-0.9,0.6
				c-0.2,0.1-0.3,0.2-0.5,0.3c0,0-0.2,0.1-0.2,0.1c0,0,0.2,0,0.1,0c0.1,0,0.3,0.1,0.4,0.1c0,0,0,0,0,0c-1-0.5-1.9,1-0.9,1.5
				c0.8,0.4,1.7-0.3,2.3-0.7c0.9-0.6,1.6-1.3,2.4-2c1.1-0.9,2.3-1.7,3.5-2.4c0.6-0.4,1.2-0.8,1.7-1.2c0.6-0.4,1.2-0.7,1.7-1.1
				c0.4-0.3,0.3-0.9,0-1.2c-0.2-0.2-0.4-0.6-0.6-0.8c-0.3-0.3-0.6-0.5-1-0.7c-0.7-0.4-1.5-0.8-2.3-1c-1.4-0.4-3-0.3-4.4,0.2
				c-1.3,0.4-2.5,1.1-3.4,2.2c-1,1.3-1.5,3.1-1.5,4.7c0,1.3,0.1,3.4,1.4,4.1C66.4,64.5,67.1,63.3,66.3,62.7L66.3,62.7z"/>
		</g>
	</g>
	<g>
		<g>
			<path class="st0" d="M69,62.2c0.1,0.8,0.8,1.3,1.3,2c0.5,0.8,1,1.6,1.6,2.3c0.5,0.7,1,1.3,1.5,2c0.5,0.7,1.2,1.3,2.1,1.5
				c1.4,0.3,3.4-0.5,3.6-2c0.2-1.6-0.9-3.2-1.9-4.4c-0.6-0.8-1.2-1.6-1.8-2.5c-0.5-0.8-1.3-1.4-1.7-2.3c-0.5-1-2-0.1-1.5,0.9
				c0.3,0.6,0.8,1.2,1.3,1.7c0.5,0.6,0.9,1.2,1.3,1.9c0.8,1.1,1.8,2.1,2.3,3.4c0.1,0.3,0.2,0.6,0.2,0.9c0,0.1,0,0.2,0,0.3
				c0,0.1-0.1,0.1,0,0.1c-0.2,0.3-1,0.5-1.3,0.5c-0.6-0.1-1-0.5-1.3-1c-0.4-0.6-0.9-1.2-1.4-1.8c-0.5-0.7-0.9-1.4-1.4-2.1
				c-0.2-0.3-0.5-0.7-0.7-1c-0.2-0.3-0.5-0.5-0.7-0.8C69.9,60.8,68.8,61.4,69,62.2L69,62.2z"/>
		</g>
	</g>
	<g>
		<g>
			<path class="st0" d="M75.3,58.4c0.8,0.3,1.7,0.3,2.4,0.8c0.7,0.4,1.2,1.1,1.5,1.9c0.3,0.7,0.4,1.6,0,2.3c-0.2,0.4-0.6,0.7-0.9,1
				c-0.3,0.3-0.5,0.7-0.8,0.9c-1,0.6-0.1,2.1,0.9,1.5c0.5-0.3,0.9-0.8,1.3-1.2c0.4-0.4,0.9-0.9,1.2-1.4c0.6-1.1,0.5-2.5,0.1-3.6
				c-0.4-1.1-1.2-2.2-2.3-2.8c-0.5-0.3-1-0.5-1.6-0.6c-0.7-0.2-1.3-0.3-1.9,0C74.6,57.4,74.8,58.2,75.3,58.4L75.3,58.4z"/>
		</g>
	</g>
	<g>
		<g>
			<path class="st0" d="M76.9,25.1c-0.8,1.2-1.7,2.2-2.7,3.4c-0.8,1-1.5,2.1-2.3,3.2c-0.9,1.2-1.5,2.5-2.4,3.7
				c-0.8,1.3-1.8,2.4-2.6,3.7c-1.6,2.6-3.4,5.1-5,7.8c-0.8,1.3-1.5,2.6-2.4,3.9c-0.8,1.1-1.4,2.5-2.3,3.5c-0.7,0.8,0.5,2.1,1.2,1.2
				c0.8-1,1.3-2.1,2-3.2c0.9-1.3,1.7-2.6,2.5-4c1.6-2.8,3.6-5.4,5.2-8.2c0.8-1.3,1.8-2.4,2.6-3.7c0.9-1.3,1.6-2.6,2.5-3.9
				c0.8-1.2,1.6-2.4,2.5-3.4c0.9-1,1.8-2.1,2.3-3.4C78.6,24.9,77.4,24.4,76.9,25.1L76.9,25.1z"/>
		</g>
	</g>
	<g>
		<g>
			<path class="st0" d="M49.2,56.2c0.1-0.4,0.8-0.8,1.2-0.9c0.7-0.3,1.5-0.6,2.3-0.7c1.6-0.2,3.1,0.1,4.5,0.9
				c0.6,0.3,0.9,0.8,1.2,1.3c0.4,0.7,0.9,1.4,1,2.2c0.1,0.7-0.1,1.4-0.4,2c-0.3,0.7-0.6,1.4-1.1,1.9c-0.8,0.8,0.4,2.1,1.3,1.3
				c0.7-0.7,1.1-1.7,1.5-2.6c0.4-0.9,0.6-1.9,0.4-2.8c-0.2-1.1-0.9-2-1.4-2.9c-0.4-0.8-1-1.3-1.7-1.8c-1.9-1-3.9-1.3-6-0.9
				c-1,0.2-2,0.5-2.8,1c-0.6,0.4-1.4,1-1.5,1.7C47.6,56.7,49,57.1,49.2,56.2L49.2,56.2z"/>
		</g>
	</g>
	<g>
		<g>
			<path class="st0" d="M47.8,56.4c0.2,0.5,0.5,0.8,1,1.1c0.4,0.3,0.8,0.6,1.2,0.9c0.9,0.7,1.9,1.4,2.9,2.1c0.5,0.3,0.9,0.6,1.4,0.8
				c0.5,0.2,1,0.5,1.4,0.8c0.4,0.4,0.8,0.8,1.2,1c0.2,0.1,0.8,0.4,0.9,0.5c0.6,1,2.2,0.1,1.5-0.9c-0.3-0.4-0.7-0.7-1.1-0.9
				c-0.4-0.2-0.7-0.4-1.1-0.8c-0.8-0.8-1.8-1.2-2.8-1.7c-1-0.6-2-1.3-2.9-2c-0.5-0.3-0.9-0.7-1.3-1c-0.3-0.2-0.7-0.4-1-0.7
				C48.6,55.1,47.5,55.7,47.8,56.4L47.8,56.4z"/>
		</g>
	</g>
	<g>
		<g>
			<path class="st0" d="M51.2,58.4c-0.3,0.3-0.6,0.7-0.9,1c-0.3,0.4-0.6,0.8-1,1.1c-0.6,0.7-1.2,1.5-1.8,2.3
				c-0.5,0.8-0.9,1.7-1.4,2.5c-0.4,0.8-0.8,1.7-0.6,2.6c0.3,1.5,1.8,2.5,3.3,2.3c1.6-0.2,2.9-1.8,3.6-3.2c0.5-0.9,0.9-1.8,1.4-2.7
				c0.6-1,1.2-1.9,1.7-2.9c0.5-1-1-1.9-1.5-0.9c-0.8,1.5-1.8,2.8-2.5,4.3c-0.6,1.2-1.2,2.5-2.3,3.3c-0.4,0.3-0.8,0.5-1.3,0.3
				c-0.4-0.2-0.7-0.5-0.7-0.9c-0.1-0.6,0.4-1.3,0.7-1.9c0.4-0.7,0.7-1.4,1.2-2.1c0.5-0.7,1.1-1.4,1.6-2.1c0.6-0.7,1.4-1.5,1.7-2.4
				C52.7,58.4,51.8,58,51.2,58.4L51.2,58.4z"/>
		</g>
	</g>
	<g>
		<g>
			<path class="st0" d="M50.1,56.7c-0.4-0.1-0.7,0-1.1,0.1c-0.3,0-0.6,0.1-0.9,0.1c-0.7,0.2-1.3,0.4-2,0.7c-1.3,0.6-2.3,1.6-2.8,2.9
				c-0.5,1.2-0.3,2.7,0.3,3.8c0.3,0.6,0.7,1,1.1,1.5c0.3,0.4,0.8,0.9,1.3,1c0.5,0.1,1-0.1,1.1-0.6c0.1-0.4-0.2-1-0.6-1.1
				c-0.1,0,0,0,0.1,0c-0.1-0.1-0.2-0.1-0.2-0.2c-0.2-0.2-0.3-0.3-0.5-0.5c-0.3-0.4-0.6-0.7-0.8-1.2c-0.3-0.8-0.4-1.7,0-2.5
				c0.4-0.9,1.3-1.5,2.2-1.8c0.5-0.2,1-0.4,1.6-0.5c0.5-0.1,1.3-0.2,1.6-0.8C50.7,57.3,50.6,56.8,50.1,56.7L50.1,56.7z"/>
		</g>
	</g>
</g>
</svg>
