<?xml version="1.0" encoding="utf-8"?>
<!-- Generator: Adobe Illustrator 24.0.1, SVG Export Plug-In . SVG Version: 6.00 Build 0)  -->
<svg version="1.1" id="Calque_1" xmlns="http://www.w3.org/2000/svg" xmlns:xlink="http://www.w3.org/1999/xlink" x="0px" y="0px"
	 viewBox="0 0 122 122" style="enable-background:new 0 0 122 122;" xml:space="preserve">
<style type="text/css">
	.st0{fill:#91D902;}
</style>
<g>
	<path d="M101.3,6.9c-0.7-4.4-4.8-7.4-9.3-6.8l-76.6,11c-3,0.5-5.1,3.3-4.7,6.3l7.2,48.5c0.6,3.8,2,7.4,4.2,10.5
		c6.8,9.8,22.1,31.8,25.8,36.8c0.9,1.4,3.6,5.5,5.4,8.1c0.7,1,2.2,0.8,2.6-0.3c1.2-3.5,3.2-9.3,4.2-11.7c2.2-5.5,5.6-16.1,6.6-19.3
		c0.2-0.6,0.7-1,1.3-1.2l4.6-0.8l20.9-3.9l14.1-2.9c3-0.5,5.1-3.3,4.6-6.4C109.5,57.4,101.3,6.9,101.3,6.9"/>
</g>
<g>
	<g>
		<g>
			<path class="st0" d="M34.9,29.1c-0.2,0.1,0.4,0,0.6,0c0.4,0,0.7,0,1.1,0c0.7,0,1.4-0.1,2.1-0.1c2.4-0.1,4.8-0.1,7.2-0.1
				c4.8,0,9.6,0.1,14.4,0.2c4.8,0.1,9.5,0,14.3,0.1c4.5,0,9,0.2,13.5,0.1c1,0,1-1.5,0-1.5c-4.7,0.1-9.4-0.1-14-0.1c-5,0-10,0-15-0.1
				c-5.1-0.1-10.1-0.2-15.2-0.2c-2.2,0-4.4,0-6.7,0.2c-0.9,0.1-2.4-0.1-3.1,0.6C33.4,28.7,34.3,29.6,34.9,29.1L34.9,29.1z"/>
		</g>
	</g>
	<g>
		<g>
			<path class="st0" d="M35.4,65.7c2.1,0,4.3-0.3,6.5-0.5c2.4-0.2,4.8-0.4,7.2-0.4c5-0.1,9.9,0.1,14.9,0.1c5,0,9.9-0.1,14.9-0.2
				c1.9,0,3.8-0.5,5.7-0.5c1.3,0,2.7,0.1,4-0.1c1-0.1,1-1.7,0-1.5c-1.3,0.2-2.7,0.1-4,0.1c-1.9,0-3.8,0.5-5.7,0.5
				c-5,0.1-9.9,0.2-14.9,0.2c-5,0.1-9.9-0.1-14.9-0.1c-4.6,0.1-9.1,0.6-13.6,1C34.6,64.4,34.6,65.7,35.4,65.7L35.4,65.7z"/>
		</g>
	</g>
	<g>
		<g>
			<path class="st0" d="M87.4,28.5c0.3,2.5,0.2,5.1,0.3,7.7c0.1,3.1,0.2,6.2,0,9.3c-0.1,3-0.4,6-0.4,9.1c0,2.9,0.4,5.8,0.5,8.8
				c0,1,1.6,1,1.6,0c-0.1-2.9-0.5-5.8-0.5-8.8c0-3.2,0.3-6.4,0.4-9.5c0.1-3.1,0-6.2-0.1-9.3c0-1.4-0.1-2.9-0.1-4.3
				c0-1.1,0-2.2-0.4-3.2C88.4,27.6,87.3,27.9,87.4,28.5L87.4,28.5z"/>
		</g>
	</g>
	<g>
		<g>
			<path class="st0" d="M33.8,28.6c-0.3,6,0.2,12,0.4,18c0.1,3.2,0.3,6.4,0.4,9.7c0.1,1.6,0,3.2,0,4.9c0,1.2,0.1,2.5,0,3.7
				c-0.1,1,1.5,1,1.6,0c0.1-1.2,0-2.3-0.1-3.5c0-1.6,0.1-3.2,0-4.9c-0.1-3.3-0.4-6.6-0.5-9.9c-0.1-3.2-0.2-6.3-0.3-9.5
				c0-1.5-0.2-3-0.2-4.4c0-1.4,0.1-2.7,0-4.1C35.1,27.8,33.8,27.8,33.8,28.6L33.8,28.6z"/>
		</g>
	</g>
	<g>
		<g>
			<path class="st0" d="M38.3,31.3c0,0,1.2,0,1.5,0c0.6,0,1.3-0.1,1.9-0.1c2-0.1,4.1,0,6.1-0.1c4.2,0,8.4,0.1,12.6,0.2
				c4.2,0.1,8.4,0,12.5,0.1c3.9,0,7.9,0.2,11.8,0.1c1,0,1-1.5,0-1.5c-4.1,0.1-8.2-0.1-12.3-0.1c-4.4,0-8.9,0-13.3-0.1
				c-4.4-0.1-8.7-0.2-13.1-0.1c-2,0-3.9,0-5.9,0.2c-0.9,0.1-2.1-0.1-2.8,0.5C36.8,31,37.7,31.8,38.3,31.3L38.3,31.3z"/>
		</g>
	</g>
	<g>
		<g>
			<path class="st0" d="M38.7,63.4c4.1,0,8.1-0.7,12.2-0.7c4.2-0.1,8.4,0.1,12.6,0.1c4.2,0,8.4-0.1,12.6-0.2c1.8,0,3.5-0.5,5.2-0.4
				c1.3,0,2.6,0.1,3.8-0.1c1-0.1,1-1.7,0-1.5c-1.2,0.2-2.5,0.1-3.7,0.1c-1.8,0-3.5,0.4-5.3,0.4c-4.2,0-8.4,0.2-12.6,0.2
				c-4.2,0-8.4-0.1-12.6-0.1c-4.1,0-8.1,0.5-12.2,0.9C37.9,62.1,37.8,63.4,38.7,63.4L38.7,63.4z"/>
		</g>
	</g>
	<g>
		<g>
			<path class="st0" d="M84,30.8c0.3,2.2,0.2,4.3,0.2,6.5c0.1,2.8,0.2,5.6,0,8.4C84.2,48.4,84,51.2,84,54c0,2.4,0.3,4.8,0.4,7.3
				c0,1,1.6,1,1.6,0c-0.1-2.4-0.4-4.8-0.4-7.3c0-2.9,0.2-5.8,0.3-8.8c0.1-2.8,0-5.6-0.1-8.3c0-1.2-0.1-2.3-0.1-3.5c0-1,0-2-0.4-2.9
				C85,29.8,84,30.1,84,30.8L84,30.8z"/>
		</g>
	</g>
	<g>
		<g>
			<path class="st0" d="M37.2,30.9c-0.3,5.2,0.2,10.4,0.3,15.7c0.1,2.8,0.3,5.6,0.4,8.4c0,1.4,0,2.9,0,4.3c0,1.1,0.1,2.3,0,3.4
				c-0.1,1,1.5,1,1.6,0c0.1-2.4,0-5,0-7.4c-0.1-2.9-0.3-5.7-0.4-8.6c-0.1-2.7-0.2-5.5-0.3-8.2c-0.1-2.5,0-5-0.2-7.4
				C38.4,30,37.2,30,37.2,30.9L37.2,30.9z"/>
		</g>
	</g>
	<g>
		<g>
			<path class="st0" d="M60.9,31.2c0.1,1.2,0,2.3,0.1,3.5c0.1,1.3,0.2,2.6,0.2,3.8c0.1,2.8,0,5.6,0,8.3c0,5-0.2,10.1-0.2,15.1
				c0,1.1,1.7,1.1,1.7,0c0-5.1,0.1-10.2,0.1-15.4c0-2.7,0-5.4-0.1-8.1c0-1.4-0.1-2.7-0.2-4.1c-0.1-1.2,0-2.3-0.2-3.5
				C62.2,30.1,60.8,30.3,60.9,31.2L60.9,31.2z"/>
		</g>
	</g>
	<g>
		<g>
			<path class="st0" d="M63.6,42.4c-1.8-0.8-4.1-0.2-5.3,1.4c-0.5,0.8-0.8,1.8-0.9,2.8c-0.1,1,0.3,2,0.7,3c0.4,1,1.2,1.7,2.2,2
				c0.9,0.3,1.9,0.2,2.8-0.1c1.8-0.5,3.5-2,3.5-4c0-1.2-0.1-2.3-0.8-3.3c-0.7-0.9-1.7-1.6-2.8-2c-0.9-0.3-1.4,1.1-0.7,1.6
				c0.6,0.4,1.3,0.6,1.7,1.1c0.5,0.5,0.7,1.1,0.8,1.9c0,0.3,0,0.7,0,0.9c0,0.4-0.2,0.6-0.3,0.9c-0.3,0.5-0.9,0.8-1.4,1.1
				c-1,0.5-2.7,0.6-3.4-0.6c-0.7-1.2-1-2.6-0.4-3.9c0.3-0.7,0.7-1.2,1.4-1.4c0.8-0.2,1.5-0.2,2.3-0.1C63.9,43.8,64.3,42.7,63.6,42.4
				L63.6,42.4z"/>
		</g>
	</g>
	<g>
		<g>
			<path class="st0" d="M84.3,36.7c-2.2,0.5-4,2.7-5,4.6c-1,2.1-1.5,4.4-1.4,6.7c0.1,2.2,0.6,4.4,1.8,6.2c1,1.5,2.7,3.1,4.7,2.7
				c1.1-0.2,0.6-1.9-0.5-1.7c-0.6,0.1-1.4-0.3-1.8-0.7c-0.7-0.6-1.2-1.4-1.6-2.2c-0.8-1.6-1.1-3.4-1.1-5.1c0-1.8,0.4-3.5,1.2-5.1
				c0.5-1,1.1-1.8,1.8-2.6c0.3-0.3,0.6-0.7,1-1c0.4-0.2,0.9-0.4,1.3-0.6C85.7,37.7,85.1,36.5,84.3,36.7L84.3,36.7z"/>
		</g>
	</g>
	<g>
		<g>
			<path class="st0" d="M85.3,44.5c0.3,0.1,0.6,0.1,0.9,0.2c0.2,0,0.4,0,0.6,0c0.2,0,0.4,0,0.6,0c0.1,0,0.2,0,0.3,0
				c0.1,0,0.3,0,0.4-0.1c0.2-0.1,0.4-0.3,0.5-0.5c-0.1,0.2-0.2,0.3-0.4,0.5c0,0,0,0,0,0c0.2-0.2,0.4-0.4,0.4-0.6s-0.2-0.5-0.4-0.6
				c0,0,0,0,0,0c0.1,0.2,0.2,0.3,0.4,0.5c-0.1-0.2-0.2-0.4-0.4-0.5c-0.1-0.1-0.3-0.1-0.5-0.1c-0.1,0-0.2,0-0.3,0c-0.2,0-0.4,0-0.6,0
				c-0.2,0-0.4,0-0.6,0c-0.3,0-0.6,0-0.9,0.2C84.9,43.6,84.9,44.2,85.3,44.5L85.3,44.5z"/>
		</g>
	</g>
	<g>
		<g>
			<path class="st0" d="M85.5,50.3c0.1,0.1,0.2,0.1,0.3,0.1c0.1,0,0.1,0,0.2,0c0.1,0,0.2,0.1,0.4,0.1c0.2,0,0.4,0.1,0.5,0.1
				c0.1,0,0.1,0,0.2,0c0.1,0,0.2,0,0.3,0c0.1,0,0.3-0.1,0.4-0.2c0-0.1,0.1-0.1,0.1-0.2c0-0.1,0.1-0.1,0.1-0.2c0-0.1,0-0.2,0-0.3
				c0-0.1,0-0.1-0.1-0.2c0-0.1-0.1-0.2-0.2-0.3C87.6,49,87.4,49,87.1,49c-0.1,0-0.1,0-0.2,0c-0.1,0-0.2,0-0.4,0c-0.1,0-0.2,0-0.4,0
				c-0.1,0-0.1,0-0.2,0c-0.1,0-0.2,0-0.3,0c-0.1,0-0.2,0.1-0.2,0.1c-0.2,0.1-0.4,0.4-0.4,0.6C85.2,49.9,85.3,50.2,85.5,50.3
				L85.5,50.3z"/>
		</g>
	</g>
	<g>
		<g>
			<path class="st0" d="M35.3,44.7c0.4,0.1,0.8,0.1,1.3,0.1c0.2,0,0.4,0,0.5,0c0.2,0,0.5,0,0.7,0c0.3-0.1,0.5-0.3,0.6-0.7
				c0-0.3-0.1-0.7-0.4-0.8c-0.2-0.1-0.3-0.1-0.5-0.1c0,0-0.1,0-0.1,0c-0.1,0-0.2,0-0.3,0c-0.2,0-0.4,0-0.6,0c-0.4,0-0.9,0.1-1.3,0.1
				c-0.1,0-0.1,0-0.2,0.1c-0.1,0-0.2,0.1-0.2,0.2c-0.1,0.1-0.2,0.3-0.2,0.4c0,0.1,0,0.3,0.1,0.4C34.9,44.5,35.1,44.7,35.3,44.7
				L35.3,44.7z"/>
		</g>
	</g>
	<g>
		<g>
			<path class="st0" d="M35.3,50.4c0.1,0.1,0.2,0.2,0.4,0.2c0,0,0.1,0,0.1,0c0.1,0,0.1,0,0.2,0c0.2,0,0.4,0,0.6,0
				c0.2,0,0.4,0,0.6-0.1c0,0,0.1,0,0.1,0c0,0,0.1,0,0.1-0.1c0.1,0,0.2-0.1,0.3-0.2c0,0,0-0.1,0.1-0.1c0.1-0.1,0.1-0.2,0.2-0.4
				c0.1-0.2,0-0.5-0.1-0.7c-0.1-0.2-0.4-0.3-0.6-0.3c0,0-0.1,0-0.1,0c0.1,0,0.1,0,0.2,0c-0.1,0-0.2,0-0.2,0c-0.1,0-0.1,0-0.2,0
				c-0.1,0-0.1,0.1-0.2,0.1c0.1,0,0.1-0.1,0.2-0.1c-0.1,0.1-0.3,0.1-0.5,0.1c0.1,0,0.1,0,0.2,0c-0.2,0-0.3,0-0.5,0.1
				c0.1,0,0.1,0,0.2,0c-0.3,0-0.8,0-1,0.3c-0.1,0.1-0.2,0.3-0.2,0.5C35.1,50.1,35.2,50.3,35.3,50.4L35.3,50.4z"/>
		</g>
	</g>
	<g>
		<g>
			<path class="st0" d="M38.2,37.7c0.6,0.5,1.4,0.6,2,1.1c0.8,0.6,1.7,1.4,2.2,2.3c1,1.7,1.3,3.7,1.6,5.6c0.3,1.9,0,4.2-0.8,6
				c-0.4,0.9-1,1.7-1.8,2.2c-0.9,0.6-1.8,0.4-2.8,0.6c-1.1,0.2-0.6,1.9,0.5,1.7c0.6-0.1,1.2,0,1.7-0.1c0.5-0.1,1-0.4,1.5-0.7
				c0.9-0.6,1.6-1.4,2.2-2.4c1.1-1.9,1.6-4.5,1.4-6.7c-0.2-2.2-0.6-4.7-1.7-6.7c-0.5-1-1.3-1.8-2.1-2.5c-0.4-0.4-0.9-0.8-1.4-1
				c-0.5-0.2-1-0.3-1.5-0.5C38.4,36.2,37.5,37.1,38.2,37.7L38.2,37.7z"/>
		</g>
	</g>
</g>
</svg>
