<?xml version="1.0" encoding="utf-8"?>
<!-- Generator: Adobe Illustrator 24.0.1, SVG Export Plug-In . SVG Version: 6.00 Build 0)  -->
<svg version="1.1" id="Calque_1" xmlns="http://www.w3.org/2000/svg" xmlns:xlink="http://www.w3.org/1999/xlink" x="0px" y="0px"
	 viewBox="0 0 122 122" style="enable-background:new 0 0 122 122;" xml:space="preserve">
<style type="text/css">
	.st0{fill:#91D902;}
</style>
<g>
	<path d="M102,6.8c-0.7-4.4-4.8-7.4-9.3-6.8L16.1,11c-3,0.5-5.1,3.3-4.7,6.3l7.2,48.5c0.6,3.8,2,7.4,4.2,10.5
		c6.8,9.8,22.1,31.8,25.8,36.8c0.9,1.4,3.6,5.5,5.4,8.1c0.7,1,2.2,0.8,2.6-0.3c1.2-3.5,3.2-9.3,4.2-11.7c2.2-5.5,5.6-16.1,6.6-19.3
		c0.2-0.6,0.7-1,1.3-1.2l4.6-0.8L94.2,84l14.1-2.9c3-0.5,5.1-3.3,4.6-6.4C110.2,57.3,102,6.8,102,6.8"/>
</g>
<g>
	<g>
		<g>
			<path class="st0" d="M61.6,26.9c0.2,1.3-0.2,2.6-0.3,4c-0.2,1.4-0.1,2.9,0,4.4c0.1,3,0,6,0.1,9c0.1,6,0.3,12.1,0.3,18.1
				c0,1,1.6,1,1.6,0c0-6.2-0.2-12.4-0.3-18.6c-0.1-3,0-6-0.1-9c-0.1-1.5-0.1-3,0.1-4.5c0.2-1.2,0.4-2.5,0.1-3.7
				C62.7,25.6,61.4,26,61.6,26.9L61.6,26.9z"/>
		</g>
	</g>
	<g>
		<g>
			<path class="st0" d="M66.5,39.9c-0.7-1.3-2.3-1.2-3.6-1.3c-1.6-0.1-3.1,0.3-4.4,1.2c-2.1,1.6-3.2,4.5-2.9,7.1
				c0.1,1.2,0.5,2.3,1.3,3.3c0.9,1.1,2.3,1.6,3.6,2c1.5,0.6,3,0.6,4.5,0c1.3-0.5,2.5-1.4,3.1-2.7c0.8-1.6,0.9-3.6,0.3-5.3
				c-0.2-0.8-0.6-1.4-0.9-2.1c-0.2-0.5-0.4-1.2-1-1.5c-0.9-0.6-1.8,0.9-0.8,1.4c-0.2-0.1,0,0.2,0.1,0.2c0.1,0.2,0.2,0.3,0.2,0.5
				c0.2,0.5,0.4,0.9,0.6,1.4c0.5,1.2,0.7,2.5,0.3,3.8c-0.7,2.3-3.3,3.5-5.5,2.8c-1.9-0.6-3.9-1.4-4.3-3.5c-0.4-1.9,0.2-4.3,1.5-5.6
				c0.9-0.9,2.1-1.5,3.4-1.5c1.1,0,2.5,0,3.5,0.6C66.2,41.1,66.8,40.4,66.5,39.9L66.5,39.9z"/>
		</g>
	</g>
	<g>
		<g>
			<path class="st0" d="M39,26.7c0,0,1.2,0,1.5,0c0.6,0,1.2-0.1,1.9-0.1c2-0.1,4.1-0.1,6.1-0.1c4.2,0,8.4,0.1,12.6,0.2
				c4.2,0.1,8.4,0,12.5,0.1c3.9,0,7.9,0.2,11.8,0.1c1,0,1-1.5,0-1.5c-4.1,0.1-8.2-0.1-12.3-0.1c-4.4,0-8.8,0-13.3-0.1
				c-4.4-0.1-8.7-0.2-13.1-0.2c-2,0-3.9,0-5.9,0.2c-0.8,0.1-2.1-0.1-2.8,0.6C37.5,26.4,38.4,27.3,39,26.7L39,26.7z"/>
		</g>
	</g>
	<g>
		<g>
			<path class="st0" d="M39.4,64c2,0,4-0.3,6-0.5c2-0.2,4.1-0.3,6.1-0.4c4.4-0.1,8.7,0.1,13.1,0.1c4.4-0.1,8.7,0,13.1-0.2
				c1.5-0.1,3-0.5,4.5-0.5c1.3,0,2.5,0,3.8-0.1c1-0.1,0.6-1.6-0.4-1.5c-1.2,0.2-2.5,0.1-3.7,0.1c-1.7,0-3.4,0.5-5.1,0.5
				c-4.2,0-8.4,0.2-12.6,0.2c-4.2,0.1-8.4-0.1-12.6-0.1c-4.1,0.1-8.1,0.6-12.2,1C38.6,62.7,38.5,64,39.4,64L39.4,64z"/>
		</g>
	</g>
	<g>
		<g>
			<path class="st0" d="M84.7,26.2c0.2,2.6,0.2,5.2,0.2,7.8c0.1,3.1,0.2,6.2,0,9.3c-0.1,3.1-0.3,6.1-0.3,9.2c0,3.1,0.3,6.1,0.4,9.1
				c0,1,1.6,1,1.6,0c-0.1-3-0.5-6.1-0.4-9.1c0-3.1,0.2-6.3,0.3-9.4c0.1-3.1,0-6.2-0.1-9.3c0-1.4-0.1-2.8-0.1-4.3
				c0-1.1,0.1-2.4-0.3-3.5C85.8,25.3,84.6,25.3,84.7,26.2L84.7,26.2z"/>
		</g>
	</g>
	<g>
		<g>
			<path class="st0" d="M37.9,26.3c-0.3,6.1,0.2,12.2,0.3,18.4c0.1,3.4,0.3,6.7,0.4,10.1c0.1,2.8,0.2,5.7,0,8.5c0,1,1.5,1,1.6,0
				c0.1-2.8,0-5.7,0-8.5c-0.1-3.4-0.3-6.7-0.4-10.1c-0.1-3.3-0.2-6.6-0.3-9.9c-0.1-2.8,0-5.7-0.2-8.5C39.2,25.4,37.9,25.4,37.9,26.3
				L37.9,26.3z"/>
		</g>
	</g>
	<g>
		<g>
			<path class="st0" d="M40.1,54.9c1.2,0,2.5-0.1,3.7-0.2c0.6,0,1.1-0.1,1.7-0.2c0.5-0.1,1.1-0.2,1.6-0.2c0.3,0,0.6-0.2,0.7-0.6
				c0-0.3-0.1-0.7-0.5-0.8c-1.1-0.2-2.3,0.3-3.4,0.4c-1.3,0.1-2.5,0.2-3.8,0.2C39.3,53.6,39.3,54.9,40.1,54.9L40.1,54.9z"/>
		</g>
	</g>
	<g>
		<g>
			<path class="st0" d="M39.1,34.4c0.3,0.5,1.1,0.5,1.6,0.5c0.6,0,1.2-0.1,1.8-0.2c1.3-0.2,2.7-0.3,4.1-0.2c0.4,0,0.7-0.3,0.7-0.7
				c0-0.4-0.3-0.7-0.7-0.7c-1.4-0.1-2.8,0-4.2,0.2c-0.5,0.1-1,0.2-1.5,0.2c-0.3,0-0.5,0-0.8,0c-0.2,0-0.5-0.1-0.7-0.1
				C39.1,33.6,39,34.1,39.1,34.4L39.1,34.4z"/>
		</g>
	</g>
	<g>
		<g>
			<path class="st0" d="M46.3,33.6c-0.3,3.5-0.2,7.1-0.2,10.6c0,1.7,0,3.4,0.1,5.2c0.1,1.5,0,3,0.2,4.5c0.1,0.9,1.5,0.5,1.3-0.4
				c-0.2-1.5-0.1-3-0.2-4.5c-0.1-1.7-0.1-3.4-0.1-5.2c0-3.4,0.3-6.8,0-10.2C47.4,32.9,46.4,32.9,46.3,33.6L46.3,33.6z"/>
		</g>
	</g>
	<g>
		<g>
			<path class="st0" d="M40.4,40.1c0.4,0.2,0.8,0.2,1.2,0.2c0.2,0,0.5,0,0.7,0c0.1,0,0.2,0,0.3-0.1c0.1,0,0.2-0.1,0.3-0.2
				c0.1-0.1,0.1-0.1,0.2-0.3c0.1-0.1,0.1-0.2,0.1-0.3c0-0.1-0.1-0.3-0.1-0.4c-0.2-0.2-0.4-0.3-0.7-0.2c0,0,0,0,0,0
				c0.1,0,0.1,0,0.2,0c-0.1,0-0.2,0-0.3,0.1c-0.1,0-0.1,0-0.2,0.1c-0.1,0-0.2,0-0.4,0.1c0.1,0,0.1,0,0.2,0c-0.2,0-0.5,0-0.7,0
				c0.1,0,0.1,0,0.2,0c-0.2,0-0.4-0.1-0.6-0.1c-0.3-0.1-0.7,0.1-0.8,0.4c0,0.2,0,0.3,0.1,0.5C40.2,39.9,40.3,40,40.4,40.1L40.4,40.1
				z"/>
		</g>
	</g>
	<g>
		<g>
			<path class="st0" d="M40.5,50.2c0.4,0.2,0.9,0.2,1.4,0.1c0.5-0.1,1.1-0.1,1.5-0.5c0.2-0.2,0.3-0.6,0.1-0.8
				c-0.2-0.2-0.5-0.4-0.7-0.3c-0.1,0-0.2,0.1-0.2,0.1c0.1,0,0.1,0,0.2-0.1c-0.3,0.1-0.7,0.2-1,0.2c0.1,0,0.1,0,0.2,0
				c-0.3,0-0.5,0.1-0.8,0c0.1,0,0.1,0,0.2,0c-0.1,0-0.1,0-0.2,0c-0.1-0.1-0.4,0-0.5,0.1c-0.1,0.1-0.2,0.2-0.3,0.3
				C40.1,49.7,40.2,50.1,40.5,50.2L40.5,50.2z"/>
		</g>
	</g>
	<g>
		<g>
			<path class="st0" d="M42.1,39.4c0,0.8,0.1,1.7,0.1,2.5c0,0.8,0,1.7,0.1,2.5c0,1.7-0.1,3.4,0,5c0,0.9,1.3,0.9,1.3,0
				c0.1-1.7,0-3.4,0-5.1c0-0.9,0-1.7-0.1-2.6c0-0.8,0-1.7-0.3-2.5C43.1,38.6,42.2,38.7,42.1,39.4L42.1,39.4z"/>
		</g>
	</g>
	<g>
		<g>
			<path class="st0" d="M46.9,40.2c0.8,0.6,1.9,1,2.5,1.8c0.6,0.9,1.1,1.9,1.1,3c0,0.9-0.3,2-1,2.6c-0.8,0.7-1.9,0.8-2.6,1.5
				c-0.6,0.6,0.2,1.6,0.9,1.1c1-0.6,2.3-0.9,3-1.8c0.8-1,1.2-2.3,1.2-3.5c0-1.3-0.6-2.6-1.3-3.6c-0.8-1.1-1.9-1.6-3.1-2.2
				C46.9,38.6,46.3,39.7,46.9,40.2L46.9,40.2z"/>
		</g>
	</g>
	<g>
		<g>
			<path class="st0" d="M85.3,32.9c-1.2,0-2.5,0.1-3.7,0.2c-0.6,0-1.1,0.1-1.7,0.2c-0.5,0.1-1.1,0.2-1.6,0.2c-0.3,0-0.6,0.2-0.7,0.6
				c0,0.3,0.1,0.7,0.5,0.8c1.1,0.2,2.3-0.3,3.4-0.4c1.3-0.1,2.5-0.2,3.8-0.2C86.2,34.3,86.2,33,85.3,32.9L85.3,32.9z"/>
		</g>
	</g>
	<g>
		<g>
			<path class="st0" d="M86.3,53.5C86.1,53,85.2,53,84.7,53c-0.6,0-1.2,0.1-1.8,0.2c-1.3,0.2-2.7,0.3-4.1,0.2
				c-0.4,0-0.7,0.3-0.7,0.7c0,0.4,0.3,0.7,0.7,0.7c1.4,0.1,2.8,0,4.2-0.2c0.5-0.1,1-0.2,1.5-0.2c0.3,0,0.5,0,0.8,0
				c0.2,0,0.5,0.1,0.7,0.1C86.4,54.3,86.5,53.8,86.3,53.5L86.3,53.5z"/>
		</g>
	</g>
	<g>
		<g>
			<path class="st0" d="M79.2,54.3c0.3-3.5,0.2-7.1,0.2-10.6c0-1.7,0-3.4-0.1-5.2c-0.1-1.5,0-3-0.2-4.5c-0.1-0.9-1.5-0.5-1.3,0.4
				c0.2,1.5,0.1,3,0.2,4.5c0.1,1.7,0.1,3.4,0.1,5.2c0,3.4-0.3,6.8,0,10.2C78,55,79.1,55,79.2,54.3L79.2,54.3z"/>
		</g>
	</g>
	<g>
		<g>
			<path class="st0" d="M85,47.8c-0.4-0.2-0.8-0.2-1.2-0.2c-0.2,0-0.5,0-0.7,0c-0.1,0-0.2,0-0.3,0.1c-0.1,0-0.2,0.1-0.3,0.2
				c-0.1,0.1-0.1,0.1-0.2,0.3c-0.1,0.1-0.1,0.2-0.1,0.3c0,0.1,0.1,0.3,0.1,0.4c0.2,0.2,0.4,0.3,0.7,0.2c0,0,0,0,0,0
				c-0.1,0-0.1,0-0.2,0c0.1,0,0.2,0,0.3-0.1c0.1,0,0.1,0,0.2-0.1c0.1,0,0.2,0,0.4-0.1c-0.1,0-0.1,0-0.2,0c0.2,0,0.5,0,0.7,0
				c-0.1,0-0.1,0-0.2,0c0.2,0,0.4,0.1,0.6,0.1c0.3,0.1,0.7-0.1,0.8-0.4c0-0.2,0-0.3-0.1-0.5C85.3,47.9,85.2,47.9,85,47.8L85,47.8z"
				/>
		</g>
	</g>
	<g>
		<g>
			<path class="st0" d="M85,37.7c-0.4-0.2-0.9-0.2-1.4-0.1c-0.5,0.1-1.1,0.1-1.5,0.5c-0.2,0.2-0.3,0.6-0.1,0.8
				c0.2,0.2,0.5,0.4,0.7,0.3c0.1,0,0.2-0.1,0.2-0.1c-0.1,0-0.1,0-0.2,0.1c0.3-0.1,0.7-0.2,1-0.2c-0.1,0-0.1,0-0.2,0
				c0.3,0,0.5-0.1,0.8,0c-0.1,0-0.1,0-0.2,0c0.1,0,0.1,0,0.2,0c0.1,0.1,0.4,0,0.5-0.1c0.1-0.1,0.2-0.2,0.3-0.3
				C85.3,38.2,85.3,37.8,85,37.7L85,37.7z"/>
		</g>
	</g>
	<g>
		<g>
			<path class="st0" d="M83.3,48.5c0-0.8-0.1-1.7-0.1-2.5c0-0.8,0-1.7-0.1-2.5c0-1.7,0.1-3.4,0-5c0-0.9-1.3-0.9-1.3,0
				c-0.1,1.7,0,3.4,0,5.1c0,0.9,0,1.7,0.1,2.6c0,0.8,0,1.7,0.3,2.5C82.4,49.3,83.3,49.2,83.3,48.5L83.3,48.5z"/>
		</g>
	</g>
	<g>
		<g>
			<path class="st0" d="M78.5,47.7c-0.8-0.6-1.9-1-2.5-1.8c-0.6-0.9-1.1-1.9-1.1-3c0-0.9,0.3-2,1-2.6c0.8-0.7,1.9-0.8,2.6-1.5
				c0.6-0.6-0.2-1.6-0.9-1.1c-1,0.6-2.3,0.9-3,1.8c-0.8,1-1.2,2.3-1.2,3.5c0,1.3,0.6,2.6,1.3,3.6c0.8,1.1,1.9,1.6,3.1,2.2
				C78.6,49.3,79.2,48.2,78.5,47.7L78.5,47.7z"/>
		</g>
	</g>
</g>
</svg>
