<?xml version="1.0" encoding="utf-8"?>
<!-- Generator: Adobe Illustrator 24.0.1, SVG Export Plug-In . SVG Version: 6.00 Build 0)  -->
<svg version="1.1" id="Calque_1" xmlns="http://www.w3.org/2000/svg" xmlns:xlink="http://www.w3.org/1999/xlink" x="0px" y="0px"
	 viewBox="0 0 122 122" style="enable-background:new 0 0 122 122;" xml:space="preserve">
<style type="text/css">
	.st0{fill:#91D902;}
</style>
<g>
	<path d="M101.3,6.8C100.6,2.4,96.5-0.6,92,0L15.4,11c-3,0.5-5.1,3.3-4.7,6.3l7.2,48.5c0.6,3.8,2,7.4,4.2,10.5
		c6.8,9.8,22.1,31.8,25.8,36.8c0.9,1.4,3.6,5.5,5.4,8.1c0.7,1,2.2,0.8,2.6-0.3c1.2-3.5,3.2-9.3,4.2-11.7c2.2-5.5,5.6-16.1,6.6-19.3
		c0.2-0.6,0.7-1,1.3-1.2l4.6-0.8L93.5,84l14.1-2.9c3-0.5,5.1-3.3,4.6-6.4C109.5,57.3,101.3,6.8,101.3,6.8"/>
</g>
<g>
	<g>
		<g>
			<path class="st0" d="M47.5,46.9c-0.4,0-0.8,0.1-1.2,0.3c-0.3,0.2-0.6,0.5-0.8,0.9c-0.2,0.4-0.3,0.9-0.3,1.3c0,0.5,0.2,1,0.5,1.3
				c0.5,0.6,1.4,0.9,2.2,0.8c0.9-0.1,1.8-0.5,2-1.4c0.1-0.6,0-1.2-0.3-1.7c-0.1-0.2-0.3-0.4-0.5-0.6c-0.2-0.2-0.5-0.4-0.8-0.5
				c-0.3-0.1-0.6,0-0.8,0.3c-0.2,0.3-0.2,0.5-0.1,0.8c0.1,0.3,0.5,0.5,0.7,0.8c0,0,0.1,0.2,0,0c0,0,0,0,0,0.1c0,0.1,0.1,0.1,0.1,0.2
				c0.1,0.1-0.1-0.2,0,0c0,0,0,0.1,0,0.1c0,0,0,0.1,0,0.1c0-0.1,0-0.2,0-0.1c0,0,0,0,0,0.1c0,0,0,0.1,0,0.1c0,0.1,0,0.1,0-0.1
				c0,0.1,0,0.1,0,0.2c0-0.2,0.1-0.1,0-0.1c0,0,0,0,0,0.1c-0.1,0.1,0.1-0.2,0-0.1c0,0,0,0-0.1,0.1c-0.1,0.1,0.2-0.1,0.1,0
				c0,0,0,0-0.1,0c0,0-0.1,0.1-0.2,0.1c0.2-0.1,0.1,0,0,0c-0.1,0-0.1,0-0.2,0.1c-0.2,0,0.2,0,0,0c-0.1,0-0.1,0-0.2,0
				c-0.1,0-0.1,0-0.2,0c0,0-0.1,0-0.1,0c-0.2,0,0.2,0,0.1,0c-0.1,0-0.3-0.1-0.4-0.1c-0.1,0,0.1,0.1,0.1,0c0,0-0.1,0-0.1,0
				c0,0-0.1,0-0.1-0.1c-0.2-0.1,0.1,0.1,0,0c0,0-0.1-0.1-0.1-0.1c-0.1-0.1,0,0.1,0.1,0.1c0,0,0-0.1-0.1-0.1c0,0,0,0,0-0.1
				c0-0.1,0-0.2,0,0c0-0.1-0.1-0.1-0.1-0.2c0,0,0-0.1,0-0.1c0.1,0.2,0,0.1,0,0c0-0.1,0-0.1,0-0.2c0,0,0-0.1,0-0.1c0,0.2,0,0.1,0,0
				c0-0.1,0-0.2,0.1-0.3c0-0.1,0-0.1,0.1-0.2c0-0.1-0.1,0.2,0,0.1c0,0,0-0.1,0.1-0.1c0,0,0-0.1,0.1-0.1c0.1-0.1-0.1,0.1,0,0
				c0-0.1,0.1-0.1,0.1-0.1c0,0,0.1,0,0.1-0.1c0.1-0.1-0.1,0.1,0,0c-0.2,0.1,0.3-0.3,0.1-0.1c-0.1,0.1,0,0,0,0c0.1,0,0.1-0.1,0.2-0.1
				c0.1,0,0,0,0,0c0,0,0.1,0,0.2-0.1c0.3-0.1,0.5-0.4,0.5-0.7C48.1,47.1,47.8,46.9,47.5,46.9L47.5,46.9z"/>
		</g>
	</g>
	<g>
		<g>
			<path class="st0" d="M75.6,47.6c-0.2-0.4-0.7-0.7-1.1-0.8c-0.5-0.1-0.9-0.1-1.4,0c-0.4,0.1-0.9,0.3-1.2,0.6
				c-0.3,0.4-0.5,0.9-0.5,1.4c0,1,0.6,1.9,1.5,2.3c0.6,0.2,1.2,0.3,1.7,0.1c0.3-0.1,0.6-0.3,0.9-0.5c0.2-0.2,0.4-0.5,0.5-0.7
				c0.2-0.5,0.2-1.1,0-1.6C76,48.1,75.9,47.9,75.6,47.6c-0.2-0.1-0.4-0.2-0.6-0.3c-0.3-0.2-0.7-0.1-0.9,0.1
				c-0.2,0.2-0.3,0.6-0.1,0.9c0.1,0.1,0.2,0.3,0.4,0.4c0.1,0.1,0.2,0.1,0.2,0.2c0-0.1-0.1-0.1-0.1-0.2c0,0.1,0.1,0.1,0.1,0.2
				c0-0.1-0.1-0.1-0.1-0.2c0,0.1,0.1,0.2,0.1,0.3c0-0.1,0-0.1,0-0.2c0,0.2,0,0.4,0,0.5c0-0.1,0-0.1,0-0.2c0,0.1-0.1,0.3-0.1,0.4
				c0-0.1,0.1-0.1,0.1-0.2c0,0.1-0.1,0.2-0.1,0.2c0-0.1,0.1-0.1,0.1-0.2c0,0.1-0.1,0.1-0.2,0.2c0.1,0,0.1-0.1,0.2-0.1
				c-0.1,0.1-0.2,0.1-0.3,0.2c0.1,0,0.1-0.1,0.2-0.1c-0.1,0.1-0.3,0.1-0.4,0.1c0.1,0,0.1,0,0.2,0c-0.1,0-0.3,0-0.4,0
				c0.1,0,0.1,0,0.2,0c-0.1,0-0.3-0.1-0.4-0.1c0.1,0,0.1,0.1,0.2,0.1c-0.2-0.1-0.3-0.2-0.5-0.3c0.1,0,0.1,0.1,0.2,0.1
				c-0.1-0.1-0.2-0.2-0.3-0.3c0,0.1,0.1,0.1,0.1,0.2c-0.1-0.1-0.2-0.2-0.2-0.4c0,0.1,0.1,0.1,0.1,0.2c-0.1-0.1-0.1-0.3-0.1-0.4
				c0,0.1,0,0.1,0,0.2c0-0.1,0-0.3,0-0.4c0,0.1,0,0.1,0,0.2c0-0.1,0-0.2,0.1-0.3c0,0.1-0.1,0.1-0.1,0.2c0-0.1,0.1-0.1,0.1-0.2
				c0.1-0.1-0.1,0.2,0,0.1c0,0,0.1-0.1,0.1-0.1c0.1-0.1-0.1,0-0.1,0c0,0,0.1-0.1,0.1-0.1c0.1,0,0.1-0.1,0.2-0.1
				c-0.1,0-0.1,0.1-0.2,0.1c0.2-0.1,0.4-0.1,0.6-0.2c-0.1,0-0.1,0-0.2,0c0.2,0,0.5,0,0.7,0c-0.1,0-0.1,0-0.2,0
				c0.1,0,0.3,0.1,0.4,0.1c0,0,0.1,0,0.1,0c0.1,0-0.2-0.1,0,0c0.1,0,0.2,0.2,0.1,0c0.2,0.2,0.6,0.3,0.8,0
				C75.7,48.2,75.8,47.9,75.6,47.6L75.6,47.6z"/>
		</g>
	</g>
	<g>
		<g>
			<path class="st0" d="M42,56c1.3-0.3,2.4-1.1,3.4-1.9c0.5-0.4,0.9-0.8,1.3-1.3c0.2-0.2,0.4-0.5,0.6-0.7c0.2-0.3,0.5-0.5,0.6-0.8
				c0.4-0.7-0.6-1.5-1.1-0.9c-0.4,0.4-0.7,0.9-1.1,1.4c-0.4,0.4-0.8,0.9-1.3,1.3c-0.8,0.7-1.8,1.3-2.8,1.7c-0.3,0.1-0.6,0.4-0.5,0.8
				C41.3,55.9,41.7,56.1,42,56L42,56z"/>
		</g>
	</g>
	<g>
		<g>
			<path class="st0" d="M47.8,51.4c0.9,0.7,1.6,1.7,2.5,2.4c0.9,0.6,1.9,1.1,3,1.4c2.4,0.7,5,1.4,7.6,1.4c4.9,0.1,10-1.6,13.5-5.1
				c0.7-0.7-0.4-1.7-1.1-1.1c-3.3,3.3-8.3,4.9-12.9,4.7c-2.3-0.1-4.6-0.7-6.7-1.3c-1.1-0.3-2.2-0.8-3.2-1.6
				c-0.7-0.6-1.3-1.4-2.1-1.8C47.7,50,47.1,50.9,47.8,51.4L47.8,51.4z"/>
		</g>
	</g>
	<g>
		<g>
			<path class="st0" d="M73.6,50.6c-0.1,0.7,0.7,1.4,1.1,1.8c0.5,0.5,1.1,0.8,1.7,1.2c0.7,0.5,1.6,0.8,2.4,1.1
				c0.3,0.1,0.7,0.3,1,0.4c0.1,0.1,0.3,0.1,0.4,0.2c-0.1-0.1,0.1,0,0.1,0c0.1,0,0.2,0.1,0.3,0.1c0.6,0.1,1-0.3,0.9-0.9
				c-0.2-0.7-1.2-0.9-1.7-1.1c-0.8-0.3-1.5-0.5-2.3-1c-0.6-0.3-1.1-0.7-1.6-1.1c-0.2-0.2-0.5-0.4-0.7-0.6c-0.2-0.2-0.3-0.5-0.5-0.7
				C74.3,49.7,73.7,50,73.6,50.6L73.6,50.6z"/>
		</g>
	</g>
	<g>
		<g>
			<path class="st0" d="M41.4,66.2c1.6,0.3,3.3,0.1,4.9,0.1c1.7,0,3.3,0,4.9,0.1c1.7,0,3.3-0.1,5,0c1.7,0.1,3.4,0.2,5.1,0.4
				c1.6,0.1,3,0.1,4.6-0.2c1.7-0.3,3.3-0.3,4.9-0.2c3.5,0.2,6.9-0.4,10.4-0.4c1,0,1-1.5,0-1.5c-3.4,0-6.7,0.6-10.1,0.4
				c-1.5-0.1-2.9-0.2-4.4,0c-0.9,0.1-1.9,0.4-2.8,0.5c-0.8,0.1-1.7,0-2.5-0.1c-1.6-0.1-3.3-0.2-4.9-0.3c-1.7-0.1-3.3,0.1-5,0
				c-1.7,0-3.5-0.1-5.2-0.1c-1.6,0-3.3-0.1-4.9,0.1C40.8,65.1,40.8,66.1,41.4,66.2L41.4,66.2z"/>
		</g>
	</g>
	<g>
		<g>
			<path class="st0" d="M73.7,50.5c-0.4,1.2-0.3,2.5-0.2,3.7c0,1.3-0.1,2.7-0.1,4c0,1.3,0,2.6,0,3.9c0,0.6,0,1.2,0,1.8
				c0,0.5,0,1.1,0.2,1.5c0.5-0.3,0.9-0.5,1.4-0.8c0,0,0,0,0,0c-0.7-0.6-1.7,0.1-1.3,1c0,0,0,0,0,0c0.4,0.8,1.5,0.3,1.5-0.4
				c0-0.5-0.1-1-0.1-1.4c-0.1-0.6,0-1.2,0-1.8c0-1.3,0-2.5,0-3.8c0-1.2,0.1-2.5,0-3.7c-0.1-1.3-0.1-2.5-0.1-3.8
				C74.9,50,73.9,49.9,73.7,50.5L73.7,50.5z"/>
		</g>
	</g>
	<g>
		<g>
			<path class="st0" d="M47.1,50.5c-0.4,1.2-0.3,2.5-0.2,3.7c0,1.3-0.1,2.7-0.1,4c0,1.3,0,2.6,0,3.9c0,0.6,0,1.2,0,1.8
				c0,0.5,0,1.1,0.2,1.5c0.5-0.3,0.9-0.5,1.4-0.8c0,0,0,0,0,0c-0.7-0.6-1.7,0.1-1.3,1c0,0,0,0,0,0c0.4,0.8,1.5,0.3,1.5-0.4
				c0-0.5-0.1-1-0.1-1.4c-0.1-0.6,0-1.2,0-1.8c0-1.3,0-2.5,0-3.8c0-1.2,0.1-2.5,0-3.7c-0.1-1.3-0.1-2.5-0.1-3.8
				C48.3,50,47.3,49.9,47.1,50.5L47.1,50.5z"/>
		</g>
	</g>
	<g>
		<g>
			<path class="st0" d="M47.5,27.9c0.7,0.3,1.4,0.2,2.1,0.2c0.8,0,1.7,0,2.5,0c1.7,0,3.3-0.3,5-0.2c0.9,0,0.9-1.4,0-1.4
				c-1.6,0-3.2,0.2-4.8,0.3c-0.8,0-1.6,0-2.4,0c-0.7,0-1.4,0.1-2,0C47,26.5,46.7,27.6,47.5,27.9L47.5,27.9z"/>
		</g>
	</g>
	<g>
		<g>
			<path class="st0" d="M47.1,27.2c-0.2,0.5,0.1,1.1,0.1,1.6c0,0.8,0,1.6,0,2.4c-0.1,1.6-0.1,3.2-0.1,4.9c0,0.9,1.4,0.9,1.4,0
				c0-1.6,0-3.1,0.1-4.7c0-0.8,0-1.6,0-2.4c0-0.3,0-0.6-0.1-0.9c0-0.2-0.1-0.5-0.1-0.6C48.6,26.8,47.4,26.4,47.1,27.2L47.1,27.2z"/>
		</g>
	</g>
	<g>
		<g>
			<path class="st0" d="M56.4,27c-0.1,0.9-0.1,1.8-0.1,2.7c0,0.9-0.1,1.8-0.2,2.6c0,0.7-0.1,1.4-0.1,2c0,0.3,0,0.5,0.1,0.8
				c0,0.1,0,0.2,0,0.3c0,0.1,0,0.1,0,0c0,0.1,0,0.1,0-0.1C56,35.7,56,36,56.3,36.3c0.2,0.2,0.6,0.3,0.9,0.1c0.5-0.4,0.5-1,0.4-1.6
				c0-0.6,0-1.3,0-1.9c0.1-1.9,0.3-3.8,0.1-5.8c0-0.3-0.2-0.6-0.6-0.6C56.8,26.5,56.4,26.7,56.4,27L56.4,27z"/>
		</g>
	</g>
	<g>
		<g>
			<path class="st0" d="M47.6,36.7C48.4,37,49.2,37,50,37c0.8,0,1.6,0.1,2.3,0.1c0.8,0,1.5,0.1,2.2,0.1c0.7,0,1.4-0.2,2.1-0.1
				c0.8,0.1,1-1.3,0.2-1.4c-0.7-0.2-1.4,0.1-2.2,0.1c-0.7,0-1.5-0.1-2.2-0.1c-1.6,0-3.1-0.1-4.7-0.2C47,35.4,47,36.5,47.6,36.7
				L47.6,36.7z"/>
		</g>
	</g>
	<g>
		<g>
			<path class="st0" d="M60.3,27.5c-0.1,0.6-0.2,1.3-0.3,1.9c-0.1,0.7-0.1,1.4-0.1,2.2c0,0.8,0.1,1.5,0,2.3c0,0.6,0.1,1.2-0.1,1.7
				c-0.2,0.9,1.2,1.3,1.4,0.4c0.2-0.6,0.1-1.3,0.1-2c0-0.8,0-1.6,0-2.3c0-0.7,0-1.5,0-2.2c0.1-0.7,0.2-1.4,0-2.1
				C61.2,26.6,60.4,26.8,60.3,27.5L60.3,27.5z"/>
		</g>
	</g>
	<g>
		<g>
			<path class="st0" d="M60.6,27.8c0.7,0.6,1.8,0.6,2.7,0.6c1.2,0,2.3,0,3.5-0.1c1.2,0,2.4-0.1,3.6-0.2c1.2,0,2.4,0,3.7,0.1
				c0.9,0.1,0.9-1.4,0-1.4c-2.3-0.1-4.5-0.1-6.7,0c-1.1,0-2.2,0-3.3,0.1C63,27,62,27,61.1,26.8C60.6,26.6,60.1,27.4,60.6,27.8
				L60.6,27.8z"/>
		</g>
	</g>
	<g>
		<g>
			<path class="st0" d="M73.9,27.8c-0.1,0.8-0.3,1.5-0.4,2.3c-0.1,0.8-0.1,1.5-0.1,2.3c0,0.6,0,1.3,0,1.9c0,0.3,0,0.5,0,0.8
				c0,0.2-0.1,0.4-0.1,0.4c-0.2,0.3-0.1,0.8,0.3,1c0.4,0.2,0.8,0.1,1-0.3c0.3-0.5,0.3-1.1,0.3-1.6c0-0.7,0-1.3,0-2
				c0-0.8,0-1.6,0.1-2.5c0.1-0.8,0.4-1.6,0.1-2.4C74.9,27.3,74,27.2,73.9,27.8L73.9,27.8z"/>
		</g>
	</g>
	<g>
		<g>
			<path class="st0" d="M61,36.6c1,0,2,0,3.1-0.1c1.1,0,2.1,0.1,3.1,0.1c1.1,0,2.1-0.1,3.2-0.1c1,0,2.1-0.1,3.2,0c1,0.1,1-1.4,0-1.5
				c-1-0.1-2,0-3,0c-1.1,0-2.2,0.1-3.3,0.1c-1,0-2-0.1-3-0.1c-1.1,0-2.1,0.1-3.2,0.2C60.2,35.4,60.1,36.6,61,36.6L61,36.6z"/>
		</g>
	</g>
	<g>
		<g>
			<path class="st0" d="M55,39.7c2.3,0.2,4.6,0.1,6.9,0.1c2.3,0,4.5-0.3,6.8-0.3c1,0,1-1.5,0-1.5c-2.3,0-4.5,0.2-6.8,0.3
				c-2.3,0-4.6-0.1-6.9,0.1C54.2,38.5,54.2,39.7,55,39.7L55,39.7z"/>
		</g>
	</g>
	<g>
		<g>
			<path class="st0" d="M54.4,39.3c0,1.8,0.3,3.6,0,5.4c-0.1,0.9-0.1,1.7-0.1,2.6c0,0.9-0.1,1.8-0.1,2.8c0,1,1.5,1,1.5,0
				c0-1,0.1-1.9,0.1-2.9c0-0.9,0-1.7,0.1-2.6c0.2-1.8,0.1-3.7-0.2-5.5C55.6,38.4,54.4,38.6,54.4,39.3L54.4,39.3z"/>
		</g>
	</g>
	<g>
		<g>
			<path class="st0" d="M68.1,38.9c-0.2,2,0,4.1-0.1,6.1c-0.1,1-0.2,1.9-0.2,2.9c-0.1,0.9,0,1.8-0.1,2.6c-0.1,1,1.4,1,1.5,0
				c0.1-0.9,0.1-1.7,0.1-2.6c0.1-1,0.2-1.9,0.2-2.9c0.1-1,0-2,0-2.9c0-1.1,0-2.1-0.1-3.2C69.3,38.1,68.2,38.1,68.1,38.9L68.1,38.9z"
				/>
		</g>
	</g>
	<g>
		<g>
			<path class="st0" d="M54.4,51c0.7,0.7,2,0.4,2.9,0.5c1.1,0.1,2.1,0.1,3.2,0c1.2-0.1,2.3-0.1,3.5-0.1c1.2,0,2.4-0.1,3.6-0.1
				c1,0,1-1.5,0-1.5c-2.2-0.1-4.5,0-6.7,0.2c-1.1,0.1-2.1,0.1-3.1,0.1c-0.5,0-1-0.1-1.5,0c-0.5,0-1,0-1.4,0C54.3,50,54,50.6,54.4,51
				L54.4,51z"/>
		</g>
	</g>
</g>
</svg>
