<?xml version="1.0" encoding="utf-8"?>
<!-- Generator: Adobe Illustrator 24.0.1, SVG Export Plug-In . SVG Version: 6.00 Build 0)  -->
<svg version="1.1" id="Calque_1" xmlns="http://www.w3.org/2000/svg" xmlns:xlink="http://www.w3.org/1999/xlink" x="0px" y="0px"
	 viewBox="0 0 122 122" style="enable-background:new 0 0 122 122;" xml:space="preserve">
<style type="text/css">
	.st0{fill:#91D902;}
</style>
<g>
	<path d="M102,6.8c-0.7-4.4-4.8-7.4-9.3-6.8L16.1,11c-3,0.5-5.1,3.3-4.7,6.3l7.2,48.5c0.6,3.8,2,7.4,4.2,10.5
		c6.8,9.8,22.1,31.8,25.8,36.8c0.9,1.4,3.6,5.5,5.4,8.1c0.7,1,2.2,0.8,2.6-0.3c1.2-3.5,3.2-9.3,4.2-11.7c2.2-5.5,5.6-16.1,6.6-19.3
		c0.2-0.6,0.7-1,1.3-1.2l4.6-0.8L94.2,84l14.1-2.9c3-0.5,5.1-3.3,4.6-6.4C110.2,57.3,102,6.8,102,6.8"/>
</g>
<g>
	<g>
		<g>
			<path class="st0" d="M43.5,28.6c0.6-0.5,0.3-1.4,0.9-1.8c0.4-0.2,0.9-0.2,1.3-0.3c0.5,0,1,0,1.5,0c0.5,0,1-0.1,1.5-0.1
				c0.4,0,0.9,0,1.2,0.2c0.2,0.1,0.4,0.4,0.5,0.6c0.2,0.4,0,0.6,0,1c0,0.7,0.8,1,1.3,0.5c0.5-0.4,0.5-1.2,0.3-1.8
				c-0.1-0.5-0.5-1.1-0.9-1.5c-1-0.9-2.4-0.7-3.7-0.6c-1.2,0.1-2.7-0.1-3.8,0.6c-0.5,0.3-0.9,0.8-1.1,1.4c-0.2,0.5-0.3,1.3,0.1,1.7
				C42.9,28.6,43.2,28.8,43.5,28.6L43.5,28.6z"/>
		</g>
	</g>
	<g>
		<g>
			<path class="st0" d="M53.1,28.6c0.4-0.2,0.6-0.5,0.7-0.9c0-0.1,0-0.2,0-0.4c0,0.1,0-0.1,0-0.1c0-0.1,0.1-0.2,0.1-0.2
				c0.2-0.2,0.8-0.2,1.1-0.2c0.5,0,1,0.1,1.5,0.1c0.5,0,1-0.1,1.6-0.1c0.2,0,0.5,0,0.7,0c0.1,0,0.3,0.1,0.1,0c0.1,0,0.1,0.1,0.2,0.1
				c0.1,0.1-0.1-0.1,0.1,0.1c0.1,0.1,0.1,0.1,0.2,0.2c0.1,0.1,0.1,0.1,0.2,0.3c0,0,0.1,0.2,0.1,0.1c0-0.1,0,0.1,0,0.1
				c0,0.1,0,0,0-0.1c0,0.1,0,0.1,0,0c0-0.1,0-0.1,0.1-0.1c0,0.1,0,0.1,0,0c-0.3,0.3-0.3,0.8-0.1,1.1c0.2,0.3,0.7,0.5,1.1,0.2
				c1-0.8,0.5-2-0.2-2.8c-0.3-0.4-0.8-0.7-1.3-0.8c-0.7-0.1-1.4-0.1-2.1,0c-0.6,0.1-1.2,0-1.9,0c-0.7,0-1.5,0-2.1,0.4
				c-0.5,0.3-0.8,0.7-0.9,1.3c-0.1,0.5-0.1,1,0,1.5C52.6,28.6,52.9,28.7,53.1,28.6L53.1,28.6z"/>
		</g>
	</g>
	<g>
		<g>
			<path class="st0" d="M45.9,40.7c0,1.9,0,3.7-0.1,5.5c-0.1,1.8,0,3.5,0,5.3c0,1.8-0.1,3.6-0.1,5.5c0,1.7-0.2,3.4,0.1,5.1
				c0.2,1.1,1.8,0.6,1.6-0.4c-0.3-1.7-0.1-3.4,0-5.1c0-1.9,0.1-3.8,0.1-5.7c0-1.8-0.1-3.5,0-5.3c0.1-1.7,0.2-3.4-0.2-5.1
				C47.1,39.7,45.8,39.9,45.9,40.7L45.9,40.7z"/>
		</g>
	</g>
	<g>
		<g>
			<path class="st0" d="M56,40.5c-0.3,1.8-0.1,3.7-0.1,5.5c0,1.8,0,3.6,0,5.4c0,3.5,0,7-0.1,10.5c0,1.1,1.6,1.1,1.6,0
				c0-3.5,0.1-7,0-10.5c0-1.8,0-3.6,0-5.4c0-1.8,0.1-3.7-0.2-5.5C57.3,39.8,56.1,39.8,56,40.5L56,40.5z"/>
		</g>
	</g>
	<g>
		<g>
			<path class="st0" d="M66.2,40.4c-0.8,1.5-0.4,3.5-0.4,5.1c0,2.2,0,4.4,0.1,6.5c0.1,2.1,0.3,4.2,0.2,6.3c0,0.7-0.1,1.4,0,2.1
				c0,0.4,0.2,1.2,0,1.6c-0.5,0.9,0.8,1.6,1.4,0.8c0.6-0.8,0.2-2.3,0.3-3.2c0-2.1,0-4.2-0.1-6.3c-0.1-2.3-0.2-4.5-0.2-6.8
				c0-2-0.3-3.9-0.2-5.9C67.3,40.1,66.5,39.9,66.2,40.4L66.2,40.4z"/>
		</g>
	</g>
	<g>
		<g>
			<path class="st0" d="M80.4,39.9c-0.4-0.4-0.9-0.3-1.4-0.1c-0.3,0.1-0.5,0.4-0.7,0.7c-0.2,0.3-0.3,0.7-0.3,1
				c0,0.4,0.2,0.8,0.4,1.2c0,0,0.1,0.1,0.1,0.1c0.1,0.1,0.2,0.2,0.3,0.2c0.2,0.1,0.3,0.2,0.5,0.2c0.3,0.1,0.7,0.1,1-0.1
				c0.3-0.1,0.6-0.3,0.8-0.5c0.2-0.2,0.4-0.5,0.4-0.8c0-0.2,0.1-0.5,0-0.7c-0.1-0.2-0.2-0.4-0.3-0.6C81.2,40.2,80.8,40,80.4,39.9
				c-0.3,0-0.5,0-0.7,0.1c-0.2,0.1-0.3,0.3-0.4,0.5c0,0.2,0,0.5,0.1,0.6c0.1,0.2,0.3,0.3,0.5,0.4c0.1,0,0.3,0.1,0.4,0.1
				c-0.1,0-0.1-0.1-0.2-0.1c0.1,0,0.2,0.1,0.2,0.1c-0.1,0-0.1-0.1-0.2-0.1c0.1,0,0.1,0.1,0.1,0.1c0-0.1-0.1-0.1-0.1-0.2
				c0,0,0.1,0.1,0.1,0.1c0-0.1-0.1-0.1-0.1-0.2c0,0,0,0.1,0,0.1c0-0.1,0-0.1,0-0.2c0,0.1,0,0.1,0,0.2c0-0.1,0-0.1,0-0.2
				c0,0.1,0,0.1-0.1,0.2c0-0.1,0.1-0.1,0.1-0.2c0,0.1-0.1,0.1-0.1,0.2c0-0.1,0.1-0.1,0.1-0.2c-0.1,0.1-0.1,0.1-0.2,0.2
				c0.1,0,0.1-0.1,0.2-0.1c-0.1,0.1-0.2,0.1-0.3,0.2c0.1,0,0.1-0.1,0.2-0.1c-0.1,0-0.2,0.1-0.3,0.1c0.1,0,0.1,0,0.2,0
				c-0.1,0-0.2,0-0.3,0c0.1,0,0.1,0,0.2,0c-0.1,0-0.2,0-0.3-0.1c0.1,0,0.1,0.1,0.2,0.1c-0.1,0-0.2-0.1-0.2-0.1
				c0.1,0,0.1,0.1,0.2,0.1c-0.1,0-0.1-0.1-0.2-0.2c0,0.1,0.1,0.1,0.1,0.2c0-0.1-0.1-0.1-0.1-0.2c0,0.1,0.1,0.1,0.1,0.2
				c0-0.1,0-0.1-0.1-0.2c0,0.1,0,0.1,0,0.2c0-0.1,0-0.2,0-0.3c0,0.1,0,0.1,0,0.2c0-0.1,0-0.2,0.1-0.3c0,0.1-0.1,0.1-0.1,0.2
				c0-0.1,0.1-0.2,0.2-0.3c0,0.1-0.1,0.1-0.1,0.2c0.1-0.1,0.1-0.1,0.2-0.2c-0.1,0-0.1,0.1-0.2,0.1c0.1,0,0.1-0.1,0.2-0.1
				c-0.1,0-0.1,0.1-0.2,0.1c0.1,0,0.1,0,0.2,0c-0.1,0-0.1,0-0.2,0c0,0,0.1,0,0.1,0c0.1,0,0.2,0,0.3,0c0.2,0,0.4-0.3,0.5-0.5
				C80.7,40.3,80.6,40.1,80.4,39.9L80.4,39.9z"/>
		</g>
	</g>
	<g>
		<g>
			<path class="st0" d="M81.4,46.9C81.4,46.9,81.4,46.9,81.4,46.9c0.1-0.3,0-0.6-0.2-0.7C81.1,46.1,81,46,80.9,46
				c0.1,0,0.1,0.1,0.2,0.1c-0.7-0.6-1.6-0.2-2.2,0.3c-0.3,0.3-0.4,0.6-0.6,0.9c-0.1,0.3-0.1,0.7,0,1.1c0.1,0.4,0.4,0.8,0.8,1
				c0.2,0.1,0.3,0.2,0.5,0.2c0.2,0,0.4,0.1,0.5,0.1c0.4,0,0.7-0.1,1-0.3c0.1-0.1,0.3-0.2,0.4-0.3c0.1-0.1,0.2-0.3,0.3-0.4
				c0.2-0.4,0.3-0.8,0.1-1.3c-0.1-0.3-0.2-0.5-0.4-0.7c-0.2-0.2-0.5-0.4-0.8-0.5c-0.2,0-0.3,0-0.5,0c-0.2,0.1-0.3,0.2-0.4,0.3
				c-0.2,0.3-0.1,0.7,0.1,1c0.1,0.2,0.3,0.3,0.5,0.4c0-0.1-0.1-0.1-0.1-0.2c0,0.1,0.1,0.1,0.1,0.2c0-0.1-0.1-0.1-0.1-0.2
				c0,0.1,0,0.1,0.1,0.2c0-0.1,0-0.2,0-0.2c0,0.1,0,0.1,0,0.2c0-0.1,0-0.2,0-0.2c0,0.1,0,0.1-0.1,0.2c0-0.1,0.1-0.1,0.1-0.2
				c0,0.1-0.1,0.1-0.1,0.2c0-0.1,0.1-0.1,0.1-0.2c-0.1,0.1-0.1,0.1-0.2,0.2c0.1,0,0.1-0.1,0.2-0.1c-0.1,0.1-0.2,0.1-0.3,0.2
				c0.1,0,0.1-0.1,0.2-0.1C80.3,48,80.1,48,80,48c0.1,0,0.2,0,0.2,0c-0.1,0-0.2,0-0.3,0c0.1,0,0.2,0,0.2,0c-0.1,0-0.2,0-0.3-0.1
				C80,48,80,48,80.1,48c-0.1,0-0.2-0.1-0.3-0.1c0.1,0,0.1,0.1,0.2,0.1c-0.1-0.1-0.1-0.1-0.2-0.2c0,0.1,0.1,0.1,0.1,0.2
				c0-0.1-0.1-0.1-0.1-0.2c0,0.1,0.1,0.1,0.1,0.2c0-0.1,0-0.1-0.1-0.2c0,0.1,0,0.1,0,0.2c0-0.1,0-0.2,0-0.3c0,0.1,0,0.1,0,0.2
				c0-0.1,0-0.2,0.1-0.3c0,0.1-0.1,0.1-0.1,0.2c0.1-0.1,0.1-0.3,0.2-0.4c0,0.1-0.1,0.1-0.1,0.2c0.1-0.1,0.2-0.2,0.3-0.3
				c-0.1,0-0.1,0.1-0.2,0.1c0.1-0.1,0.2-0.1,0.3-0.2c-0.1,0-0.1,0.1-0.2,0.1c0.1,0,0.2-0.1,0.3-0.1c-0.1,0-0.1,0-0.2,0
				c0.1,0,0.2,0,0.2,0c-0.1,0-0.1,0-0.2,0c0.1,0,0.2,0,0.2,0c-0.1,0-0.1,0-0.2,0c0,0,0.1,0,0.1,0c-0.1,0-0.1,0-0.2-0.1
				c0,0,0,0,0.1,0c0.2,0.1,0.5,0.1,0.7,0c0,0,0,0,0,0c-0.1,0-0.1,0-0.2,0.1c0,0,0,0,0,0C81.1,47.3,81.3,47.2,81.4,46.9L81.4,46.9z"
				/>
		</g>
	</g>
	<g>
		<g>
			<path class="st0" d="M81.1,52.7c-0.1-0.2-0.4-0.4-0.6-0.4c-0.2,0-0.4-0.1-0.7,0c-0.3,0.1-0.6,0.3-0.8,0.6
				c-0.2,0.3-0.4,0.6-0.5,0.9c0,0.2-0.1,0.3-0.1,0.5c0,0.3,0.1,0.4,0.2,0.7c0.1,0.1,0.2,0.3,0.3,0.4c0.2,0.2,0.3,0.3,0.6,0.3
				c0.3,0.1,0.6,0.1,1,0c0.2,0,0.3-0.1,0.5-0.2c0.1,0,0.2-0.1,0.2-0.1c0.1-0.1,0.3-0.2,0.4-0.3c0.1-0.1,0.2-0.2,0.3-0.4
				c0.1-0.1,0.1-0.3,0.2-0.4c0-0.2,0.1-0.5,0-0.7c-0.1-0.2-0.2-0.4-0.3-0.6c-0.1-0.1-0.2-0.2-0.3-0.2c0,0-0.1,0-0.1-0.1
				c-0.2-0.1-0.4-0.1-0.7-0.1c0.1,0,0.1,0,0.2,0c0,0,0,0,0,0c-0.3,0-0.6,0.2-0.7,0.4c-0.1,0.2-0.2,0.6,0,0.8c0,0,0,0,0,0
				c0-0.1-0.1-0.1-0.1-0.2c0,0.2,0.2,0.4,0.3,0.5c0,0,0.1,0.1,0.1,0.1c0-0.1-0.1-0.1-0.1-0.2c0,0,0.1,0.1,0.1,0.1
				c0-0.1-0.1-0.1-0.1-0.2c0,0,0,0.1,0,0.2c0-0.1,0-0.2,0-0.2c0,0.1,0,0.1,0,0.2c0-0.1,0-0.2,0-0.2c0,0.1,0,0.1,0,0.2
				c0-0.1,0.1-0.1,0.1-0.2c0,0.1-0.1,0.1-0.1,0.2c0-0.1,0.1-0.1,0.1-0.2c-0.1,0.1-0.1,0.2-0.2,0.2c0.1,0,0.1-0.1,0.2-0.1
				C80.2,54,80.1,54,80,54.1c0.1,0,0.1-0.1,0.2-0.1c-0.1,0-0.2,0.1-0.3,0.1c0.1,0,0.2,0,0.2,0c-0.1,0-0.2,0-0.3,0c0.1,0,0.2,0,0.2,0
				c-0.1,0-0.1,0-0.2-0.1c0.1,0,0.1,0.1,0.2,0.1c-0.1,0-0.1-0.1-0.2-0.1c0.1,0,0.1,0.1,0.2,0.1c-0.1,0-0.1-0.1-0.1-0.1
				c0,0.1,0.1,0.1,0.1,0.2c0,0-0.1-0.1-0.1-0.1c0,0.1,0.1,0.1,0.1,0.2c0-0.1,0-0.1,0-0.2c0,0.1,0,0.1,0,0.2c0-0.1,0-0.2,0-0.2
				c0,0.1,0,0.1,0,0.2c0-0.1,0-0.2,0.1-0.3c0,0.1-0.1,0.1-0.1,0.2c0.1-0.1,0.1-0.2,0.2-0.4c0,0.1-0.1,0.1-0.1,0.2
				c0.1-0.1,0.2-0.2,0.3-0.3c-0.1,0-0.1,0.1-0.2,0.1c0.1,0,0.1-0.1,0.2-0.1c-0.1,0-0.1,0.1-0.2,0.1c0.1,0,0.1-0.1,0.2-0.1
				c-0.1,0-0.1,0-0.2,0c0.1,0,0.2,0,0.3,0c-0.1,0-0.1,0-0.2,0c0.1,0,0.2,0,0.3,0c-0.1,0-0.1,0-0.2,0c0,0,0,0,0,0
				c0.1,0,0.2,0,0.3-0.1c0.1-0.1,0.2-0.1,0.2-0.2C81.2,53.2,81.2,52.9,81.1,52.7L81.1,52.7z"/>
		</g>
	</g>
	<g>
		<g>
			<path class="st0" d="M81.1,58.9c0,0-0.1-0.1-0.2-0.1c-0.1,0-0.1-0.1-0.2-0.1c0,0-0.1,0-0.1,0c-0.1,0-0.2,0-0.4,0
				c-0.2,0-0.4,0-0.5,0c-0.1,0-0.1,0-0.2,0c-0.1,0-0.2,0.1-0.4,0.2c-0.2,0.1-0.4,0.3-0.5,0.5c-0.1,0.2-0.2,0.3-0.2,0.5
				c0,0.1,0,0.2,0,0.3c0,0.1,0,0.2,0,0.3c0,0.2,0.1,0.4,0.1,0.6c0.1,0.2,0.2,0.4,0.4,0.6c0.4,0.5,1.1,0.8,1.8,0.6
				c0.3-0.1,0.6-0.2,0.8-0.5c0.2-0.2,0.4-0.5,0.5-0.8c0.1-0.2,0.1-0.5,0.1-0.8c0-0.3-0.1-0.4-0.2-0.7C81.8,59.2,81.5,59,81.1,58.9
				c-0.2,0-0.4,0-0.6,0.2c-0.2,0.1-0.3,0.4-0.3,0.6c0,0.1,0,0.1,0,0.2c0,0.1,0,0.2,0.1,0.3c0-0.1-0.1-0.1-0.1-0.2
				c0,0.1,0.1,0.2,0.1,0.3c0,0,0,0.1,0,0.1c0-0.1-0.1-0.1-0.1-0.2c0,0.1,0,0.1,0.1,0.2c0-0.1,0-0.2,0-0.2c0,0.1,0,0.2,0,0.3
				c0-0.1,0-0.2,0-0.2c0,0.1,0,0.2-0.1,0.3c0-0.1,0.1-0.1,0.1-0.2c0,0.1-0.1,0.2-0.2,0.3c0-0.1,0.1-0.1,0.1-0.2
				c-0.1,0.1-0.1,0.1-0.2,0.2c0.1,0,0.1-0.1,0.2-0.1c-0.1,0.1-0.1,0.1-0.2,0.1c0.1,0,0.1-0.1,0.2-0.1c-0.1,0-0.1,0-0.2,0.1
				c0.1,0,0.2,0,0.2,0c-0.1,0-0.1,0-0.2,0c0.1,0,0.2,0,0.2,0c-0.1,0-0.1,0-0.2-0.1c0.1,0,0.1,0.1,0.2,0.1c-0.1,0-0.2-0.1-0.2-0.1
				c0.1,0,0.1,0.1,0.2,0.1c-0.1-0.1-0.2-0.1-0.2-0.2c0,0.1,0.1,0.1,0.1,0.2c-0.1-0.1-0.1-0.2-0.1-0.2c0,0.1,0.1,0.1,0.1,0.2
				c0-0.1-0.1-0.2-0.1-0.2c0,0.1,0,0.1,0,0.2c0-0.1,0-0.2,0-0.2c0,0.1,0,0.1,0,0.2c0-0.1,0-0.2,0.1-0.2c0,0.1-0.1,0.1-0.1,0.2
				c0-0.1,0.1-0.2,0.1-0.2c0,0.1-0.1,0.1-0.1,0.2c0.1-0.1,0.1-0.1,0.2-0.2c-0.1,0-0.1,0.1-0.2,0.1c0.1,0,0.1-0.1,0.2-0.1
				c-0.1,0-0.1,0.1-0.2,0.1c0.1-0.1,0.3-0.1,0.4-0.1c-0.1,0-0.1,0-0.2,0c0.1,0,0.3,0,0.4,0c-0.1,0-0.1,0-0.2,0c0.2,0,0.5,0,0.7-0.2
				c0.1-0.1,0.2-0.3,0.2-0.5c0-0.1,0-0.1,0-0.2C81.3,59.1,81.2,59,81.1,58.9L81.1,58.9z"/>
		</g>
	</g>
	<g>
		<g>
			<path class="st0" d="M43.6,43.6c0.8,0.1,1.7-0.2,2.5-0.2c0.7,0,1.5,0.1,2.2,0.2c0.6,0.1,1,0.3,1.1,0.9c0.1,0.3,0.1,0.6,0.2,0.9
				c0,0.1,0,0.3,0,0.4c0,0,0,0.2,0,0.1c0,0.1-0.1,0.2-0.2,0.2c0,0-0.1,0-0.1,0.1c0,0,0.1,0,0,0c-0.1,0-0.3,0.1-0.4,0.1
				c-0.3,0.1-0.4,0.1-0.6,0.1c-0.4,0-0.7,0.1-1.1,0.1c-1,0.2-2.9,0.8-3.5-0.3c-0.3-0.5-0.3-1.1-0.2-1.6c0,0.1,0-0.2,0.1-0.3
				c0-0.1,0-0.1,0-0.2c0,0,0.1-0.3,0-0.1c0-0.1,0.1-0.1,0.1-0.2c0.1-0.1,0,0,0-0.1c0,0,0.2-0.1,0,0c-0.1,0.1,0,0,0.1,0
				c0.5-0.1,0.7-0.6,0.6-1c-0.1-0.5-0.6-0.7-1-0.6c-1.7,0.2-1.8,2.7-1.6,4c0.2,0.9,0.7,1.8,1.6,2.2c1,0.4,2,0.4,3,0.2
				c0.8-0.1,1.6-0.3,2.4-0.4c0.7-0.1,1.4-0.3,1.9-0.8c0.6-0.6,0.7-1.4,0.6-2.2c-0.1-0.9-0.3-1.8-1-2.4c-0.8-0.7-2-0.8-3.1-0.9
				c-0.6-0.1-1.1,0-1.7,0c-0.6,0-1.2,0.2-1.8,0.2C42.6,42.1,42.6,43.5,43.6,43.6L43.6,43.6z"/>
		</g>
	</g>
	<g>
		<g>
			<path class="st0" d="M53.8,53.9c0.8,0.1,1.7-0.2,2.5-0.2c0.7,0,1.5,0.1,2.2,0.2c0.6,0.1,1,0.3,1.1,0.9c0.1,0.3,0.1,0.6,0.2,0.9
				c0,0.1,0,0.3,0,0.4c0,0,0,0.2,0,0.1c0,0.1-0.1,0.2-0.2,0.2c0,0-0.1,0-0.1,0.1c0,0,0.1,0,0,0c-0.1,0-0.3,0.1-0.4,0.1
				c-0.3,0.1-0.4,0.1-0.6,0.1c-0.4,0-0.7,0.1-1.1,0.1c-1,0.2-2.9,0.8-3.5-0.3c-0.3-0.5-0.3-1.1-0.2-1.6c0,0.1,0-0.2,0.1-0.3
				c0-0.1,0-0.1,0-0.2c0,0,0.1-0.3,0-0.1c0-0.1,0.1-0.1,0.1-0.2c0.1-0.1,0,0,0-0.1c0,0,0.2-0.1,0,0c-0.1,0.1,0,0,0.1,0
				c0.5-0.1,0.7-0.6,0.6-1c-0.1-0.5-0.6-0.7-1-0.6c-1.7,0.2-1.8,2.7-1.6,4c0.2,0.9,0.7,1.8,1.6,2.2c1,0.4,2,0.4,3,0.2
				c0.8-0.1,1.6-0.3,2.4-0.4c0.7-0.1,1.4-0.3,1.9-0.8c0.6-0.6,0.7-1.4,0.6-2.2c-0.1-0.9-0.3-1.8-1-2.4c-0.8-0.7-2-0.8-3.1-0.9
				c-0.6-0.1-1.1,0-1.7,0c-0.6,0-1.2,0.2-1.8,0.2C52.9,52.4,52.9,53.9,53.8,53.9L53.8,53.9z"/>
		</g>
	</g>
	<g>
		<g>
			<path class="st0" d="M63.9,43.6c0.8,0.1,1.7-0.2,2.5-0.2c0.7,0,1.5,0.1,2.2,0.2c0.6,0.1,1,0.3,1.1,0.9c0.1,0.3,0.1,0.6,0.2,0.9
				c0,0.1,0,0.3,0,0.4c0,0,0,0.2,0,0.1c0,0.1-0.1,0.2-0.2,0.2c0,0-0.1,0-0.1,0.1c0,0,0.1,0,0,0c-0.1,0-0.3,0.1-0.4,0.1
				c-0.3,0.1-0.4,0.1-0.6,0.1c-0.4,0-0.7,0.1-1.1,0.1c-1,0.2-2.9,0.8-3.5-0.3c-0.3-0.5-0.3-1.1-0.2-1.6c0,0.1,0-0.2,0.1-0.3
				c0-0.1,0-0.1,0-0.2c0,0,0.1-0.3,0-0.1c0-0.1,0.1-0.1,0.1-0.2c0.1-0.1,0,0,0-0.1c0,0,0.2-0.1,0,0c-0.1,0.1,0,0,0.1,0
				c0.5-0.1,0.7-0.6,0.6-1c-0.1-0.5-0.6-0.7-1-0.6c-1.7,0.2-1.8,2.7-1.6,4c0.2,0.9,0.7,1.8,1.6,2.2c1,0.4,2,0.4,3,0.2
				c0.8-0.1,1.6-0.3,2.4-0.4c0.7-0.1,1.4-0.3,1.9-0.8c0.6-0.6,0.7-1.4,0.6-2.2c-0.1-0.9-0.3-1.8-1-2.4c-0.8-0.7-2-0.8-3.1-0.9
				c-0.6-0.1-1.1,0-1.7,0c-0.6,0-1.2,0.2-1.8,0.2C62.9,42.1,62.9,43.5,63.9,43.6L63.9,43.6z"/>
		</g>
	</g>
	<g>
		<g>
			<path class="st0" d="M45.1,32c1.1,0.1,2.1-0.1,3.2-0.2c1.3,0,2.6,0,3.8-0.1c1.9-0.1,3.8-0.1,5.8,0.1c2.2,0.2,4.5,0.2,6.7,0.3
				c2.9,0.1,5.9,0.2,8.8,0.3c1.1,0,2.1,0,3.2,0c0.7,0,1.4-0.1,2.1,0c1,0.1,1.3,0.6,1.5,1.6c0.1,0.7,0.1,1.4,0.1,2.1
				c0,0.1-0.2,0.6-0.1,0.4c0.1-0.2,0.3,0,0-0.1c-0.6-0.1-1.4,0.2-2,0.2c-2.6,0.1-5.1,0.1-7.7,0.2c-4.8,0-9.7-0.1-14.5,0.1
				c-3.3,0.1-6.7,0.1-10,0.1c-0.6,0-1.2-0.1-1.8-0.1c-0.5,0,0,0,0,0.1c-0.1-0.3-0.2-0.6-0.3-0.9c-0.1-0.7-0.2-1.5-0.1-2.3
				c0.1-1.1,0.2-1.4,1.4-1.6c0.9-0.1,0.7-1.7-0.2-1.6c-1.6,0.2-2.5,0.9-2.7,2.5c-0.2,1.4-0.1,3.1,0.5,4.4c0.5,1.1,1.5,1,2.5,1
				c1.7,0.1,3.5,0.1,5.2,0c5.6,0,11.2-0.1,16.7-0.2c3.2,0,6.4,0,9.6-0.1c1.2,0,4,0.3,4.7-0.9c0.7-1.1,0.4-2.9,0.1-4.1
				c-0.5-1.7-1.5-2.4-3.3-2.4c-2.8-0.1-5.7,0-8.5-0.1c-3.6-0.1-7.1-0.2-10.7-0.4c-1.5-0.1-3.1-0.2-4.6-0.2c-1.6,0-3.2,0.2-4.8,0.2
				c-1.5,0-3.1,0.3-4.7,0.2C44.2,30.5,44.2,31.9,45.1,32L45.1,32z"/>
		</g>
	</g>
	<g>
		<g>
			<path class="st0" d="M84.5,65.3c-1.5,0.2-3.1-0.1-4.7-0.1c-1.2,0-2.4,0-3.6-0.1c-3.4-0.1-6.8-0.2-10.1-0.3
				c-4.8-0.2-9.6-0.4-14.4-0.4c-4,0-8,0-11.9,0.3c0.3,0.3,0.5,0.5,0.8,0.8c0-10.8,0-21.7,0-32.5c0-1.5,0-3.1,0-4.6
				c-0.3,0.3-0.5,0.5-0.8,0.8c11.7-1,23.5,0.1,35.2,0.4c1.5,0,3,0.1,4.5,0.1c1.6,0,3.3,0.3,4.9,0.1c-0.2-0.2-0.5-0.5-0.7-0.7
				c0,10.8,0,21.7,0,32.5c0,1.5,0,3.1,0,4.6c0,1,1.5,1,1.5,0c0-10.8,0-21.7,0-32.5c0-1.5,0-3.1,0-4.6c0-0.4-0.3-0.8-0.7-0.7
				c-1.5,0.2-3.1-0.1-4.7-0.1c-1.2,0-2.4,0-3.6-0.1c-3.4-0.1-6.8-0.2-10.1-0.3c-4.8-0.2-9.6-0.4-14.4-0.4c-4,0-8,0-11.9,0.4
				c-0.4,0-0.8,0.3-0.8,0.8c0,10.8,0,21.7,0,32.5c0,1.5,0,3.1,0,4.6c0,0.4,0.4,0.8,0.8,0.8c11.7-1,23.5,0.1,35.2,0.4
				c1.5,0,3,0.1,4.5,0.1c1.6,0,3.3,0.2,4.9,0C85.4,66.7,85.5,65.2,84.5,65.3z"/>
		</g>
	</g>
</g>
</svg>
