<?xml version="1.0" encoding="utf-8"?>
<!-- Generator: Adobe Illustrator 24.0.1, SVG Export Plug-In . SVG Version: 6.00 Build 0)  -->
<svg version="1.1" id="Calque_1" xmlns="http://www.w3.org/2000/svg" xmlns:xlink="http://www.w3.org/1999/xlink" x="0px" y="0px"
	 viewBox="0 0 122 122" style="enable-background:new 0 0 122 122;" xml:space="preserve">
<style type="text/css">
	.st0{fill:#91D902;}
</style>
<g>
	<path d="M101.5,6.8c-0.7-4.4-4.8-7.4-9.3-6.8L15.6,11c-3,0.5-5.1,3.3-4.7,6.3l7.2,48.5c0.6,3.8,2,7.4,4.2,10.5
		c6.8,9.8,22.1,31.8,25.8,36.8c0.9,1.4,3.6,5.5,5.4,8.1c0.7,1,2.2,0.8,2.6-0.3c1.2-3.5,3.2-9.3,4.2-11.7c2.2-5.5,5.6-16.1,6.6-19.3
		c0.2-0.6,0.7-1,1.3-1.2l4.6-0.8L93.7,84l14.1-2.9c3-0.5,5.1-3.3,4.6-6.4C109.7,57.3,101.5,6.8,101.5,6.8"/>
</g>
<g>
	<g>
		<g>
			<path class="st0" d="M51.5,38.5c-3-0.2-6.1-0.3-8.8,1.4c-2.2,1.4-4.2,3.8-5.2,6.2c-2,5.1,0.1,11.2,3.9,14.8
				c3.9,3.7,9.7,4.7,14.4,2.2c4.6-2.4,7.6-7.7,7.1-12.9c-0.3-2.7-1.3-5.5-3.2-7.5c-2.3-2.4-5.8-2.5-8.6-3.8c-1-0.5-1.9,1-0.9,1.5
				c2.2,1.1,4.7,1.3,6.9,2.5c2,1.1,3.1,3.3,3.7,5.4c1.2,4.4-0.4,9.1-3.8,12c-3.6,3.1-8.8,3.3-12.7,0.7c-3.9-2.5-6.5-7.8-5.7-12.4
				c0.5-2.7,2.3-5.2,4.4-6.8c2.6-1.9,5.5-1.6,8.5-1.7C52.5,40.1,52.5,38.6,51.5,38.5L51.5,38.5z"/>
		</g>
	</g>
	<g>
		<g>
			<path class="st0" d="M51.1,41.3c-2.4-0.2-4.8-0.2-6.8,1.1c-1.8,1.1-3.3,3-4.1,4.9c-1.6,4,0.1,8.8,3.1,11.6
				c3,2.9,7.6,3.7,11.3,1.7c3.6-1.9,6-6.1,5.6-10.1c-0.2-2.1-1-4.4-2.5-5.9c-1.8-1.9-4.4-1.9-6.7-3c-1-0.5-1.9,1-0.9,1.5
				c1.7,0.9,3.6,1,5.3,1.9c1.5,0.8,2.3,2.5,2.7,4c0.9,3.3-0.3,6.8-2.9,9c-2.7,2.3-6.6,2.5-9.5,0.5c-2.9-1.9-4.9-5.8-4.3-9.3
				c0.3-2,1.7-3.9,3.3-5.1c2-1.5,4.1-1.2,6.4-1.3C52.2,42.9,52.1,41.4,51.1,41.3L51.1,41.3z"/>
		</g>
	</g>
	<g>
		<g>
			<path class="st0" d="M51.9,50.2C51.9,50.2,51.9,50.2,51.9,50.2c0,0.1,0,0.2,0,0.3c0,0,0,0,0-0.1c0.1-0.1,0-0.4-0.1-0.6
				c-0.2-0.2-0.3-0.4-0.5-0.5c-0.2-0.1-0.4-0.2-0.7-0.2c-0.3,0-0.7,0.1-1,0.3c-0.6,0.4-1,1.1-1.1,1.8c-0.1,0.4,0,0.8,0.1,1.1
				c0.2,0.4,0.5,0.8,0.9,1c0.8,0.4,1.8,0.2,2.4-0.4c0.7-0.7,1-1.9,0.4-2.7c-0.2-0.3-0.6-0.5-1-0.3c-0.4,0.2-0.5,0.5-0.5,0.9
				c0,0.1,0,0.1,0,0.2c0-0.1,0-0.1,0-0.2c0,0.1,0,0.3,0.1,0.4c0-0.1,0-0.1,0-0.2c0,0.2,0,0.3,0,0.5c0-0.1,0-0.1,0-0.2
				c0,0.1-0.1,0.3-0.1,0.4c0-0.1,0.1-0.1,0.1-0.2c-0.1,0.1-0.1,0.3-0.2,0.4c0-0.1,0.1-0.1,0.1-0.2c-0.1,0.1-0.2,0.2-0.3,0.3
				c0.1,0,0.1-0.1,0.2-0.1c-0.1,0.1-0.2,0.1-0.3,0.2c0.1,0,0.1-0.1,0.2-0.1c-0.1,0-0.2,0.1-0.3,0.1c0.1,0,0.1,0,0.2,0
				c-0.1,0-0.2,0-0.3,0c0.1,0,0.2,0,0.2,0c-0.1,0-0.2,0-0.3-0.1c0.1,0,0.1,0.1,0.2,0.1c-0.1,0-0.2-0.1-0.3-0.2
				c0.1,0,0.1,0.1,0.2,0.1c-0.1-0.1-0.2-0.2-0.3-0.3c0,0.1,0.1,0.1,0.1,0.2c-0.1-0.1-0.1-0.2-0.1-0.2c0,0.1,0.1,0.1,0.1,0.2
				c0-0.1-0.1-0.2-0.1-0.3c0,0.1,0,0.1,0,0.2c0-0.1,0-0.3,0-0.4c0,0.1,0,0.1,0,0.2c0-0.2,0.1-0.3,0.1-0.5c0,0.1-0.1,0.1-0.1,0.2
				c0.1-0.2,0.2-0.3,0.3-0.4c0,0.1-0.1,0.1-0.1,0.2c0.1-0.1,0.2-0.2,0.3-0.3c-0.1,0-0.1,0.1-0.2,0.1c0.1-0.1,0.1-0.1,0.2-0.1
				c-0.1,0-0.1,0.1-0.2,0.1c0.1,0,0.2-0.1,0.2-0.1c-0.1,0-0.1,0-0.2,0c0.1,0,0.1,0,0.2,0c-0.1,0-0.1,0-0.2,0c0.1,0,0.1,0,0.2,0.1
				c-0.1,0-0.1-0.1-0.2-0.1c0.1,0,0.2,0.1,0.2,0.1c0,0-0.1-0.1-0.1-0.1c0.1,0.1,0.2,0.2,0.3,0.2c0.1,0,0.3,0,0.4,0
				c-0.2,0-0.3,0-0.5-0.1c0,0,0,0,0,0c0.2,0.1,0.5,0.1,0.7,0C51.9,50.7,52,50.4,51.9,50.2L51.9,50.2z"/>
		</g>
	</g>
	<g>
		<g>
			<path class="st0" d="M52.6,38.9c0.2-1.2,0.9-2.2,1.4-3.2c0.6-1.1,0.9-2.2,1.4-3.3c0.5-1,1.1-2.3,2.1-2.8c0.9-0.4,1.9-0.1,2.8,0.3
				c4,2,5.9,6.2,9.3,8.7c1.7,1.3,4.5,1.9,5.7,3.6c0.3,0.5,0.8,1.7-0.1,1.7c-0.7,0-1.5-0.6-2-1c-1.9-1.5-4.2-2.5-5.9-4.2
				c-1.2-1.2-2.5-2.8-4.1-3.4c-1.6-0.6-2.5,0.8-3.4,2c-0.6,0.8-1.2,1.7-1.6,2.6c-0.3,0.5-0.7,1.2-0.6,1.8c0.1,1.1,1.8,1.1,1.7,0
				c0-0.4,0.6-1.3,0.9-1.7c0.5-0.9,1.1-1.7,1.7-2.5c0.5-0.6,0.5-0.7,1.2-0.2c0.9,0.6,1.7,1.4,2.4,2.2c0.5,0.6,1.1,1.1,1.7,1.6
				c1.3,1.1,2.9,1.8,4.3,2.8c1.2,0.9,2.9,2.4,4.6,1.8c1.9-0.7,1.4-3.4,0.4-4.6c-1.6-1.9-4.2-2.4-6.1-3.9c-1.9-1.5-3.2-3.6-4.9-5.2
				c-1.6-1.6-3.4-3.2-5.6-3.8c-2.5-0.8-4.4,0.7-5.5,2.9c-0.7,1.2-1,2.6-1.7,3.8c-0.7,1.3-1.5,2.5-1.6,3.9
				C51.2,39.5,52.5,39.7,52.6,38.9L52.6,38.9z"/>
		</g>
	</g>
	<g>
		<g>
			<path class="st0" d="M59.7,58.5c0.2,1.9,1.3,4.3,3.6,3.4c2.2-0.8,3.2-3.3,3.8-5.4c0.7-2.7,1.2-5.5,1.4-8.3
				c0.1-1.8,0.3-3.8-1.4-4.9c-2.1-1.4-5.2-1-7.6-0.7c-1.1,0.1-1.1,1.8,0,1.8c1.1-0.1,2.3-0.2,3.4-0.2c1.1,0,2.3,0,3.3,0.6
				c0.7,0.4,0.7,1.1,0.7,1.8c0,1.3-0.1,2.6-0.3,3.8c-0.2,1.4-0.5,2.8-0.8,4.2c-0.3,1.1-0.5,2.2-1,3.2c-0.4,0.9-1.2,2.3-2.3,2.5
				c-1,0.1-1.3-1.4-1.4-2.1C61,57.5,59.6,57.7,59.7,58.5L59.7,58.5z"/>
		</g>
	</g>
	<g>
		<g>
			<path class="st0" d="M67.6,19.9c-0.7-1-2.3-1.2-3.5-1c-1.1,0.2-2.1,0.8-2.8,1.6c-1.5,1.8-1.6,4.6,0,6.4c1.2,1.5,3.4,2,5.2,1.5
				c1.9-0.5,3.3-2.3,3.1-4.3c-0.1-1.1-0.4-2.2-1-3.2c-0.6-0.9-1.6-1.7-2.7-1.3c-0.4,0.2-0.7,0.6-0.6,1c0.1,0.4,0.6,0.7,1,0.6
				c0,0,0.1,0,0.1,0c0,0-0.2,0-0.1,0c0.1,0,0.1,0,0.2,0c-0.2,0,0,0,0,0c-0.2,0,0,0,0.1,0c0,0,0,0,0.1,0c0.1,0.1-0.1-0.1,0,0
				c0.1,0.1,0.1,0.1,0.2,0.2c0,0,0.2,0.2,0.1,0.1c-0.1-0.1,0,0,0,0c0,0.1,0.1,0.1,0.1,0.2c0.1,0.2,0.2,0.3,0.3,0.5
				c0,0,0.1,0.2,0,0.1c0,0.1,0.1,0.2,0.1,0.3c0.1,0.4,0.2,0.7,0.3,1.1c0,0.1,0,0.1,0,0.2c0,0,0-0.1,0,0c0,0.1,0,0.2,0,0.3
				c0,0.2,0,0.4,0,0.5c0,0,0,0.1,0,0.1c0,0.1,0-0.2,0-0.1c0,0.1,0,0.1,0,0.2c0,0.1,0,0.1-0.1,0.2c-0.1,0.1,0-0.1,0,0
				c0,0,0,0.1-0.1,0.1c-0.2,0.4-0.3,0.5-0.6,0.8c0,0-0.2,0.2-0.1,0.1c-0.1,0.1-0.1,0.1-0.2,0.1c-0.2,0.1-0.3,0.2-0.5,0.3
				c0.2-0.1-0.1,0-0.1,0c-0.1,0-0.2,0-0.2,0.1c-0.1,0-0.2,0-0.2,0.1c0,0-0.1,0-0.1,0c-0.1,0,0.1,0,0,0c-0.2,0-0.3,0-0.5,0
				c-0.1,0-0.2,0-0.3,0c0,0-0.1,0-0.1,0c-0.1,0,0.2,0,0,0c-0.2,0-0.3-0.1-0.5-0.1c-0.1,0-0.2-0.1-0.2-0.1c0,0-0.1,0-0.1,0
				c-0.2-0.1,0.1,0,0,0c-0.2-0.1-0.3-0.2-0.5-0.2c-0.1,0-0.1-0.1-0.2-0.1c-0.1-0.1,0,0,0,0c0,0-0.1-0.1-0.1-0.1
				c-0.1-0.1-0.3-0.3-0.4-0.4c-0.1-0.1,0,0-0.1-0.1c-0.1-0.1-0.1-0.2-0.2-0.3c-0.2-0.4-0.3-0.5-0.4-1c-0.2-0.8,0-1.7,0.4-2.4
				c0.4-0.8,1.1-1.3,1.9-1.5c0.1,0,0.2-0.1,0.3-0.1c0.1,0-0.1,0,0,0c0.1,0,0.1,0,0.2,0c0.1,0,0.3,0,0.4,0c0,0,0.3,0,0.2,0
				c0.6,0.1,1.1,0.3,1.7,0.4C67.5,21,67.9,20.3,67.6,19.9L67.6,19.9z"/>
		</g>
	</g>
	<g>
		<g>
			<path class="st0" d="M85.9,59.1c0-0.1-0.1-0.2-0.1-0.3c0-0.1-0.2-0.3-0.1-0.1c0-0.1-0.1-0.1-0.1-0.2c0,0-0.1-0.1-0.1-0.1
				c-0.1-0.1-0.2-0.2-0.3-0.2c0,0,0.1,0.1,0.1,0.1c-0.1,0-0.1-0.1-0.2-0.1c0,0-0.1,0-0.1-0.1c0,0-0.1-0.1-0.2-0.1
				c-0.2-0.1-0.3-0.1-0.5-0.2c-0.6-0.2-1.1-0.2-1.7-0.1c-0.6,0.1-1.1,0.5-1.5,1c-0.4,0.5-0.5,1.2-0.4,1.8c0.1,0.7,0.3,1.4,0.8,1.9
				c0.4,0.4,1,0.6,1.5,0.7c1,0.1,2-0.5,2.7-1.3c0.4-0.5,0.7-1.1,0.8-1.7c0-0.3,0-0.6-0.1-0.8c0-0.2-0.1-0.3-0.2-0.5
				c0-0.1-0.1-0.1-0.1-0.2c0,0-0.3-0.3,0-0.1c-0.1-0.1-0.1-0.2-0.2-0.2c-0.3-0.3-0.8-0.3-1.1-0.1c-0.3,0.2-0.5,0.7-0.2,1.1
				c0.1,0.1,0.1,0.2,0.2,0.3c0,0,0,0.1,0.1,0.1c0.1,0.1-0.1-0.2,0-0.1c0,0,0,0.1,0,0.1c0,0.1,0,0.2,0.1,0.2c-0.1-0.3,0-0.2,0-0.1
				c0,0,0,0.1,0,0.1c0,0,0,0.1,0,0.1c0-0.3,0-0.2,0-0.1c0,0.1,0,0.2-0.1,0.3c-0.1,0.2,0.1-0.2,0-0.1c0,0,0,0.1-0.1,0.1
				c0,0.1-0.1,0.2-0.2,0.2c0,0,0,0.1-0.1,0.1c0.2-0.3,0.1-0.1,0,0c-0.1,0.1-0.1,0.1-0.2,0.2c-0.1,0.1-0.1,0.1-0.2,0.2
				c0,0,0.2-0.1,0.1-0.1c0,0,0,0-0.1,0c0,0-0.1,0.1-0.1,0.1c-0.1,0.1-0.2,0.1-0.2,0.1c0,0-0.1,0-0.1,0.1c-0.1,0.1,0.2-0.1,0,0
				c-0.1,0-0.2,0.1-0.2,0.1c0,0-0.1,0-0.1,0c-0.1,0-0.3,0,0,0c-0.1,0-0.2,0-0.2,0c0,0-0.1,0-0.1,0c-0.2,0,0.2,0,0.1,0
				c-0.1,0-0.1,0-0.2-0.1c-0.1,0,0.2,0.1,0.1,0c0,0,0,0,0,0c0,0-0.1,0-0.1-0.1c0,0,0,0,0,0c-0.1-0.1,0.2,0.1,0.1,0.1
				c0,0-0.1-0.1-0.1-0.1c0,0-0.1-0.1-0.1-0.1c-0.1-0.1,0.1,0.1,0.1,0.1c0,0,0-0.1-0.1-0.1c0-0.1-0.1-0.2-0.1-0.3c0,0,0.1,0.2,0,0.1
				c0,0,0,0,0-0.1c0-0.1,0-0.1-0.1-0.2c0-0.1,0-0.1,0-0.2c0-0.1,0-0.3,0,0c0-0.1,0-0.3,0-0.4c0,0,0-0.2,0-0.2c0,0,0,0.2,0,0.1
				c0,0,0,0,0-0.1c0-0.1,0-0.1,0-0.2c0,0,0-0.1,0-0.1c0-0.1-0.1,0.2,0,0.1c0-0.1,0.1-0.2,0.1-0.2c0.1-0.1-0.1,0.2-0.1,0.1
				c0,0,0,0,0.1-0.1c0,0,0.1-0.1,0.1-0.1c0.1-0.1-0.2,0.1-0.1,0c0,0,0.1-0.1,0.1-0.1c0,0,0.1,0,0.1-0.1c0.2-0.1-0.2,0.1,0,0
				c0.1,0,0.2-0.1,0.3-0.1c0,0,0.1,0,0.1,0c0.1,0-0.2,0-0.1,0c0.1,0,0.1,0,0.2,0c0.1,0,0.2,0,0.3,0c0.1,0,0.1,0,0.2,0c0,0,0,0,0.1,0
				c0.1,0,0.1,0.1-0.1,0c0.1,0,0.2,0.1,0.3,0.1c0.1,0,0.1,0,0.2,0.1c0.1,0-0.1,0-0.1,0c0.1,0,0.2,0.1,0.2,0.1c0.2,0.1-0.2-0.1,0,0
				c0.1,0,0.1,0.1,0.2,0.1c0.1,0-0.1,0-0.1,0c0,0,0.1,0,0.1,0c0.1,0,0.1,0.1,0.2,0.1c-0.1,0-0.1-0.1-0.1,0c0,0,0.2,0.1,0.3,0.1
				C85.6,60,86.1,59.6,85.9,59.1L85.9,59.1z"/>
		</g>
	</g>
</g>
</svg>
