<?xml version="1.0" encoding="utf-8"?>
<!-- Generator: Adobe Illustrator 24.0.1, SVG Export Plug-In . SVG Version: 6.00 Build 0)  -->
<svg version="1.1" id="Calque_1" xmlns="http://www.w3.org/2000/svg" xmlns:xlink="http://www.w3.org/1999/xlink" x="0px" y="0px"
	 viewBox="0 0 122 122" style="enable-background:new 0 0 122 122;" xml:space="preserve">
<style type="text/css">
	.st0{fill:#91D902;}
</style>
<g>
	<path d="M101.3,6.8C100.6,2.4,96.5-0.6,92,0L15.4,11c-3,0.5-5.1,3.3-4.7,6.3l7.2,48.5c0.6,3.8,2,7.4,4.2,10.5
		c6.8,9.8,22.1,31.8,25.8,36.8c0.9,1.4,3.6,5.5,5.4,8.1c0.7,1,2.2,0.8,2.6-0.3c1.2-3.5,3.2-9.3,4.2-11.7c2.2-5.5,5.6-16.1,6.6-19.3
		c0.2-0.6,0.7-1,1.3-1.2l4.6-0.8L93.5,84l14.1-2.9c3-0.5,5.1-3.3,4.6-6.4C109.5,57.3,101.3,6.8,101.3,6.8"/>
</g>
<g>
	<g>
		<g>
			<path class="st0" d="M54.7,29.7c-3.2,1.7-5.9,4.3-7.3,7.6c-1.4,3.3-2,6.8-1.2,10.3c1.4,6,6.8,10.5,12.5,12.3
				c6.5,2,12.8-1.9,16.1-7.3c3.4-5.6,3.1-13-0.8-18.3c-2.3-3.2-5.7-4.8-9.5-5.4C61.4,28.4,57.5,28.1,54.7,29.7
				c-1,0.4-0.2,1.8,0.8,1.4c2.4-1.1,5.4-0.9,7.9-0.6c2.9,0.4,6,1.3,8.2,3.4c4.1,4.2,5.3,11,2.8,16.3c-2.3,4.9-7.4,9.2-13.2,8.6
				c-5.2-0.6-10.5-4.6-12.6-9.3c-1.4-3.2-1.4-6.8-0.2-10.1c0.7-1.8,1.5-3.6,2.9-5c1.2-1.2,2.7-2.4,4.2-3.3
				C56.3,30.5,55.5,29.3,54.7,29.7z"/>
		</g>
	</g>
	<g>
		<g>
			<path class="st0" d="M52.8,31.3C52.8,31.3,52.8,31.6,52.8,31.3c0,0.1,0,0.5,0,0.1c0-0.1,0.1-0.2,0.1-0.4c-0.2,0.3-0.1,0.7,0.1,1
				c0.1,0.2,0.2,0.3,0.4,0.5c0.2,0.2,0.4,0.5,0.7,0.7c0.2,0.2,0.4,0.5,0.6,0.7c0,0,0,0,0,0c0,0.1,0,0-0.1-0.1c0,0,0,0.1,0.1,0.1
				c0,0.1,0.1,0.1,0.1,0.2c0,0.1,0.1,0.1,0.1,0.2c0.1,0.2,0.2,0.3,0.4,0.4c0.1,0.1,0.2,0.1,0.4,0.1c0.3,0,0.5-0.2,0.6-0.4
				c0.4-0.6-0.1-1.1-0.5-1.5c-0.2-0.3-0.4-0.5-0.7-0.7c-0.2-0.2-0.5-0.5-0.7-0.7c-0.3-0.3-0.7-0.8-1.2-0.7c0.2,0,0.4,0,0.5,0.1
				c0.1,0.1,0.1,0.1,0,0c0,0-0.1,0-0.1-0.1c0,0,0,0-0.1,0C53.4,30.5,52.7,30.8,52.8,31.3L52.8,31.3z"/>
		</g>
	</g>
	<g>
		<g>
			<path class="st0" d="M61.6,32.2c0,0,0,0.1,0,0.1c0.1-0.2,0.2-0.4,0.3-0.5c0,0,0,0,0,0C61.7,31.9,61.6,32.1,61.6,32.2
				c-0.1,0.2-0.1,0.4,0,0.5c0.1,0.1,0.2,0.3,0.3,0.3c0.2,0.1,0.4,0.1,0.6,0.1c0.2,0,0.5-0.2,0.6-0.4c0.1-0.1,0.2-0.2,0.3-0.3
				c0.3-0.3,0.5-0.6,0.7-0.8c0,0.1-0.1,0.1-0.1,0.2c0.2-0.3,0.4-0.5,0.7-0.8c-0.1,0-0.1,0.1-0.2,0.1c0.1-0.1,0.1-0.1,0.2-0.1
				c0.2-0.1,0.3-0.3,0.4-0.5c0.1-0.2,0-0.4-0.1-0.6c-0.2-0.4-0.7-0.5-1.1-0.3c-0.7,0.4-1.1,1.1-1.6,1.7c0-0.1,0.1-0.1,0.1-0.2
				c-0.2,0.2-0.3,0.4-0.5,0.6c0.1,0,0.1-0.1,0.2-0.1c-0.1,0.1-0.2,0.2-0.3,0.3c0.2-0.1,0.3-0.1,0.5-0.2c0,0,0,0,0,0
				c0.2,0.2,0.4,0.4,0.6,0.6c0-0.1,0-0.2,0-0.3c-0.1-0.3-0.4-0.5-0.7-0.4C61.8,31.6,61.6,31.9,61.6,32.2L61.6,32.2z"/>
		</g>
	</g>
	<g>
		<g>
			<path class="st0" d="M56.1,35c1.1-0.5,2.2-0.4,3.3-0.7c0.5-0.1,1.1-0.3,1.7-0.3c0.3,0,0.5,0.2,0.7,0.5c0.2,0.3,0.4,0.7,0.6,1.1
				c0.3,0.4,0.6,0.8,0.9,1.2c0.3,0.3,0.6,0.6,0.7,1c0.2,0.4,0,0.8-0.2,1.2c-0.2,0.5-0.4,1.1-0.6,1.6c-0.1,0.2-0.2,0.5-0.3,0.7
				c0,0.1-0.1,0.2-0.1,0.3c0,0.1-0.1,0.1,0,0c0.1-0.1,0,0-0.1,0c-0.3,0.1-0.5,0.1-0.8,0.2c-0.6,0.1-1.2,0.2-1.7,0.4
				c-0.9,0.2-2.1,0.8-2.9,0.2c-0.8-0.5-1.3-1.4-1.9-2.1c-0.2-0.3-0.6-0.7-0.7-1c0-0.2,0.2-0.7,0.3-1.1c0.5-1.1,0.7-2.4,1.4-3.4
				c0.6-0.9-0.9-1.8-1.5-0.9c-0.7,1.1-1,2.5-1.6,3.7c-0.5,1.1-0.6,2.1,0.1,3.1c0.7,1,1.5,2,2.4,2.8c0.4,0.4,0.9,0.7,1.5,0.8
				c0.7,0.1,1.5,0,2.2-0.2c0.7-0.2,1.4-0.4,2.2-0.5c0.6-0.1,1.3-0.2,1.9-0.5c0.4-0.2,0.7-0.6,0.8-1c0.2-0.6,0.4-1.2,0.7-1.8
				c0.2-0.6,0.5-1.2,0.6-1.8c0.1-0.7-0.1-1.3-0.5-1.9c-0.3-0.5-0.7-0.9-1.1-1.3c-0.3-0.4-0.5-0.9-0.8-1.3c-0.3-0.5-0.7-1.1-1.3-1.4
				c-0.7-0.3-1.4-0.3-2.2-0.1c-0.8,0.1-1.6,0.3-2.4,0.4c-0.8,0.1-1.5,0.3-2.2,0.7C54.5,34.2,55.2,35.3,56.1,35L56.1,35z"/>
		</g>
	</g>
	<g>
		<g>
			<path class="st0" d="M47.1,42.3c0.1,0.1,0.3,0.1,0.4,0.2c-0.1,0-0.1-0.1-0.2-0.1c0.6,0.3,1.2,0.5,1.9,0.8c0.2,0.1,0.5,0,0.6-0.1
				c0.2-0.1,0.3-0.3,0.4-0.5c0-0.2,0-0.4-0.1-0.6c-0.1-0.2-0.3-0.3-0.5-0.4c-0.3-0.1-0.7-0.2-1-0.4c-0.3-0.1-0.6-0.3-1-0.3
				c-0.2,0-0.4,0-0.6,0.1c-0.1,0.1-0.2,0.2-0.3,0.3C46.6,41.7,46.7,42.1,47.1,42.3L47.1,42.3z"/>
		</g>
	</g>
	<g>
		<g>
			<path class="st0" d="M53.8,39.2c-0.4,0.1-0.7,0.3-1.1,0.5c-0.4,0.2-0.9,0.4-1.3,0.5c-0.7,0.3-1.5,0.6-2.2,1
				c-0.7,0.4-1.3,1-1.3,1.9c0,0.8,0.4,1.6,0.6,2.4c0.2,0.9,0.4,1.9,0.8,2.7c0.4,0.7,1,0.9,1.6,1.2c0.9,0.3,1.8,0.6,2.7,0.7
				c0.6,0.1,1.3,0,1.7-0.5c0.7-0.7,0.9-1.7,1.2-2.6c0.2-0.5,0.4-1,0.5-1.6c0.1-0.5,0.2-1,0.4-1.5c0.5-1-1-1.8-1.4-0.8
				c-0.4,0.8-0.5,1.6-0.7,2.4c-0.2,0.7-0.5,1.5-0.8,2.2c-0.1,0.2-0.1,0.3-0.2,0.5c0,0.1-0.1,0.1-0.1,0.2c0,0-0.1,0.1,0,0
				c-0.1,0.1,0,0,0,0c0.1,0,0,0,0,0c0.1,0,0,0-0.1,0c-0.7-0.1-1.3-0.2-2-0.4c-0.3-0.1-0.7-0.2-1-0.4c-0.1,0-0.2-0.1-0.2-0.1
				c-0.1,0-0.1-0.1-0.1,0c-0.4-0.6-0.5-1.4-0.7-2.2c-0.1-0.7-0.4-1.3-0.5-2c-0.1-0.2-0.1-0.3,0-0.4c0.1-0.2,0.4-0.3,0.7-0.5
				c0.7-0.4,1.3-0.6,2-0.9c0.8-0.3,1.7-0.7,2.1-1.4C54.8,39.7,54.3,39,53.8,39.2L53.8,39.2z"/>
		</g>
	</g>
	<g>
		<g>
			<path class="st0" d="M49.7,52.4c0,0,0.1-0.2,0.1-0.1c0.1-0.1,0.1-0.2,0.2-0.3c0.1-0.1,0.1-0.3,0.2-0.4c0.1-0.3,0.3-0.5,0.4-0.8
				c0.3-0.6,0.5-1.2,0.7-1.9c0.1-0.4-0.1-0.8-0.5-0.9c-0.4-0.1-0.8,0.1-0.9,0.5c-0.2,0.6-0.4,1.2-0.6,1.7c-0.1,0.3-0.2,0.6-0.3,0.8
				c-0.1,0.1-0.1,0.3-0.2,0.4c0,0.1,0,0.2-0.1,0.3c0-0.1,0,0.1,0,0.1c-0.1,0.3,0.1,0.6,0.4,0.7C49.2,52.7,49.6,52.6,49.7,52.4
				L49.7,52.4z"/>
		</g>
	</g>
	<g>
		<g>
			<path class="st0" d="M54.8,49.5c0.2,0.3,0.4,0.6,0.6,0.9c0.2,0.3,0.4,0.6,0.7,0.9c0.3,0.4,0.6,0.8,1,1.1c0.2,0.2,0.3,0.3,0.5,0.5
				c0.2,0.2,0.3,0.4,0.5,0.5c-0.2-0.2,0-0.1,0,0c0,0,0.1,0.1,0.1,0.1c0,0,0,0.1,0.1,0.1c-0.1-0.1-0.1-0.2,0-0.1
				c0.1,0.3,0.3,0.5,0.6,0.7c-0.2-0.1-0.2-0.1-0.1,0c0.1,0,0.2,0.1,0.3,0.1c0.2,0,0.3,0,0.4-0.1c0.2-0.1,0.4-0.4,0.4-0.7
				c0-0.5-0.4-1-0.7-1.3c-0.3-0.3-0.6-0.6-0.9-1c-0.3-0.3-0.6-0.6-0.9-1c-0.4-0.5-0.8-1.1-1.3-1.5c-0.3-0.2-0.6-0.3-1-0.1
				C54.7,48.7,54.6,49.1,54.8,49.5L54.8,49.5z"/>
		</g>
	</g>
	<g>
		<g>
			<path class="st0" d="M62.3,58.4c-0.6-0.6-1.3-1-2-1.4c-0.3-0.2-0.6-0.3-0.9-0.5c-0.1-0.1-0.2-0.1-0.3-0.2c0,0-0.2-0.1-0.1-0.1
				c0,0,0,0,0,0c0,0,0,0.1,0,0.1c0,0.2,0,0.2,0,0c0-0.1,0.1-0.2,0.1-0.3c0.1-0.3,0.3-0.6,0.4-0.8c0.1-0.3,0.3-0.6,0.4-0.8
				c0,0,0.2-0.2,0.1-0.1c0.1-0.1,0.1-0.1,0.2-0.1c0.6-0.2,1.3-0.3,1.9-0.5c0.7-0.2,1.3-0.5,2-0.7c0.3-0.1,0.5-0.2,0.8-0.2
				c0.1,0,0.1,0,0.2,0c-0.2,0-0.1,0,0,0.1c0.4,0.4,0.7,0.9,0.9,1.4c0.3,0.7-0.2,1.4-0.5,2c-0.4,0.8-0.7,1.6-1.1,2.4
				c-0.5,1,0.9,1.8,1.5,0.9c0.5-0.8,0.8-1.7,1.2-2.5c0.4-0.9,0.9-1.9,0.7-2.9c-0.2-0.7-0.7-1.5-1.2-2.1c-0.5-0.7-1.1-1-2-0.8
				c-0.7,0.1-1.4,0.4-2.1,0.7c-0.4,0.2-0.9,0.3-1.3,0.5c-0.4,0.1-0.8,0.2-1.1,0.3c-0.8,0.2-1.4,0.6-1.8,1.4c-0.2,0.3-0.3,0.6-0.5,1
				c-0.2,0.4-0.4,0.7-0.5,1.1c-0.3,1,0.4,1.6,1.2,2.1c0.9,0.6,2,0.9,2.9,1.5C62.1,60.1,62.9,59,62.3,58.4L62.3,58.4z"/>
		</g>
	</g>
	<g>
		<g>
			<path class="st0" d="M54.5,57.3c0.3,0.1,0.6,0.2,0.9,0.2c0.4,0,0.7,0,1.1,0c0.3,0,0.7,0,1-0.1c0.5,0,1-0.1,1.3-0.5
				c0.3-0.5,0-1-0.5-1.2c-0.2-0.1-0.4,0-0.7,0c0,0,0,0-0.1,0c-0.2,0,0.2,0,0.1,0c-0.1,0-0.1,0-0.2,0c-0.3,0-0.7,0-1,0.1
				c-0.3,0-0.7,0-1,0c-0.1,0-0.3,0-0.4,0c-0.1,0-0.1,0-0.2,0c0,0-0.1,0-0.1,0c0.2,0,0.2,0,0.1,0c-0.4-0.1-0.8,0.1-0.9,0.5
				C53.8,56.8,54.1,57.1,54.5,57.3L54.5,57.3z"/>
		</g>
	</g>
	<g>
		<g>
			<path class="st0" d="M63.1,43c0.1,0.8,0.8,1.4,1.4,1.9c0.5,0.4,1.2,0.9,1.3,1.5c0,0.2,0,0.6,0,0.9c-0.1,0.5-0.2,1-0.4,1.4
				c-0.1,0.5-0.3,0.9-0.5,1.4c-0.2,0.4-0.5,0.9-0.5,1.4c0,0.6,0.7,1.1,1.2,0.7c0.5-0.4,0.6-0.9,0.9-1.5c0.2-0.5,0.4-1,0.5-1.5
				c0.3-1,0.6-2.1,0.4-3.1c-0.3-1.7-2.2-2.4-3.1-3.7C64,41.8,63,42.3,63.1,43L63.1,43z"/>
		</g>
	</g>
	<g>
		<g>
			<path class="st0" d="M65.3,38.1c0.7,0.1,1.4,0.4,2.1,0.7c0.5,0.2,1.1,0.2,1.6,0.3c0.3,0,0.5,0.1,0.8,0.2c0.1,0,0.3,0.2,0.2,0.1
				C70,39.6,70,40,70,40.2c0,0.3,0,0.6-0.1,1c-0.1,0.6-0.1,1.2,0,1.9c0,0.2,0.1,0.5,0.1,0.6c0,0.2-0.1,0.2-0.3,0.3
				c-1.3,0.7-2.3,2-3.6,2.8c-1,0.6-0.1,2.1,0.9,1.5c0.8-0.5,1.5-1.1,2.2-1.8c0.3-0.3,0.6-0.6,1-0.9c0.3-0.2,0.6-0.3,0.9-0.6
				c0.7-0.6,0.6-1.4,0.5-2.2c-0.1-0.7,0-1.3,0-2c0.1-0.7,0.1-1.6-0.2-2.2c-0.3-0.6-1-0.9-1.7-1.1c-0.7-0.1-1.3-0.1-2-0.3
				c-0.8-0.2-1.6-0.7-2.5-0.6C64.3,36.7,64.3,38,65.3,38.1L65.3,38.1z"/>
		</g>
	</g>
	<g>
		<g>
			<path class="st0" d="M71.5,43.6c-0.1,0-0.1,0-0.2,0.1c0,0-0.1,0-0.1,0c-0.2,0.1-0.2,0.1,0,0c-0.3,0.2-0.4,0.5-0.3,0.8
				c0.1,0.3,0.3,0.5,0.4,0.6c0.1,0.1,0.3,0.3,0.4,0.4c0.3,0.2,0.5,0.5,0.8,0.7c0.4,0.4,0.7,0.8,1.1,1.1c0.2,0.2,0.4,0.4,0.6,0.5
				c0.2,0.2,0.5,0.5,0.8,0.5c0.3,0.1,0.8,0,0.9-0.4c0.2-0.3,0.2-0.8-0.1-1c-0.1-0.1-0.3-0.2-0.4-0.3c0,0-0.1-0.1-0.1-0.1
				c0.2,0.1,0,0,0,0c-0.2-0.2-0.4-0.3-0.6-0.5c-0.4-0.4-0.7-0.8-1.1-1.1c-0.3-0.2-0.6-0.5-0.8-0.7c-0.1-0.1-0.3-0.2-0.4-0.4
				c-0.3-0.3-0.5-0.5-0.9-0.4c0.2,0.1,0.5,0.3,0.7,0.4c0,0.1,0,0.3-0.1,0.4C72.2,44.1,72,43.6,71.5,43.6L71.5,43.6z"/>
		</g>
	</g>
	<g>
		<g>
			<path class="st0" d="M70.8,39.1c0.4,0,0.7-0.3,0.9-0.5c0.3-0.3,0.5-0.6,0.7-1c0.4-0.6,0.7-1.3,1.1-1.9c0.1-0.1,0.1-0.2,0.2-0.3
				c0.1-0.1,0.1-0.2,0.1-0.3c0-0.1-0.1,0.2-0.1,0.1c0,0.1-0.2,0.2-0.3,0.2c-0.2,0-0.4,0.1-0.6,0.1c0,0,0,0,0,0
				c0.4,0.2,0.8-0.2,0.9-0.5c0.1-0.4-0.1-0.8-0.5-0.9c0,0,0,0,0,0c0.1,0.1,0.2,0.1,0.3,0.2c-0.2-0.2-0.5-0.3-0.7-0.2
				c-0.1,0-0.1,0.1-0.2,0.1c0,0,0.3-0.1,0.1,0c0,0-0.1,0-0.1,0c-0.2,0.1-0.3,0.3-0.4,0.4c-0.2,0.3-0.3,0.5-0.5,0.8
				c-0.4,0.7-0.7,1.4-1.1,2c-0.1,0.1-0.2,0.3-0.3,0.4c0,0-0.1,0.1,0,0c0.1-0.1,0,0-0.1,0.1c-0.1,0.1,0.1-0.1,0-0.1
				c-0.1,0.1-0.1,0.1-0.1,0.2c-0.1,0.1,0.1-0.1,0.1-0.1C69.9,38.4,70.2,39.1,70.8,39.1L70.8,39.1z"/>
		</g>
	</g>
	<g>
		<g>
			<path class="st0" d="M67.9,55.5c0.9-0.3,1.8-0.7,2.7-1c0.9-0.3,1.9-0.6,2.8-0.9c0.4-0.1,0.7-0.6,0.6-1c-0.1-0.4-0.6-0.7-1-0.6
				c-1,0.3-1.9,0.6-2.9,1c-0.9,0.4-1.9,0.7-2.8,1.2C66.6,54.5,67.1,55.7,67.9,55.5L67.9,55.5z"/>
		</g>
	</g>
</g>
</svg>
