<?xml version="1.0" encoding="utf-8"?>
<!-- Generator: Adobe Illustrator 24.0.1, SVG Export Plug-In . SVG Version: 6.00 Build 0)  -->
<svg version="1.1" id="Calque_1" xmlns="http://www.w3.org/2000/svg" xmlns:xlink="http://www.w3.org/1999/xlink" x="0px" y="0px"
	 viewBox="0 0 122 122" style="enable-background:new 0 0 122 122;" xml:space="preserve">
<style type="text/css">
	.st0{fill:#91D902;}
</style>
<g>
	<path d="M101.7,6.8C101,2.4,96.9-0.6,92.4,0L15.8,11c-3,0.5-5.1,3.3-4.7,6.3l7.2,48.5c0.6,3.8,2,7.4,4.2,10.5
		c6.8,9.8,22.1,31.8,25.8,36.8c0.9,1.4,3.6,5.5,5.4,8.1c0.7,1,2.2,0.8,2.6-0.3c1.2-3.5,3.2-9.3,4.2-11.7c2.2-5.5,5.6-16.1,6.6-19.3
		c0.2-0.6,0.7-1,1.3-1.2l4.6-0.8L93.9,84l14.1-2.9c3-0.5,5.1-3.3,4.6-6.4C109.9,57.3,101.7,6.8,101.7,6.8"/>
</g>
<g>
	<g>
		<g>
			<path class="st0" d="M47.9,41.7c2.4,0.1,4.8,0,7.3,0.1c2.7,0.1,5.4,0,8.2-0.1c2.7-0.1,5.3-0.2,8-0.2c1.1,0,8-0.1,5.8,2.5
				c-1.3,1.5-4,1.1-5.7,1.1c-2.7,0-5.3,0-8,0.1c-2.7,0.1-5.4,0-8.1,0c-1.4,0-2.8,0-4.2-0.1c-1,0-2.2,0.1-3.1-0.3
				c-1.5-0.6-1.8-2.7,0.1-3c0.9-0.1,0.7-1.6-0.2-1.6c-2.4,0.2-3.6,2.6-2.3,4.6c1.2,1.9,3.5,1.8,5.5,1.8c3.5,0.1,7,0.2,10.4,0.2
				c2.7,0,5.4-0.1,8.1-0.1c2.3,0,5,0.4,7.2-0.6c1.9-0.9,3.2-3.2,1.4-4.9c-0.7-0.7-1.7-1-2.7-1.1C73.8,40,72.1,40,70.4,40
				c-3.8,0-7.6,0.3-11.4,0.3c-2,0-3.9-0.1-5.9-0.1c-1.8,0-3.5,0.1-5.3,0.2C47,40.4,47,41.7,47.9,41.7z"/>
		</g>
	</g>
	<g>
		<g>
			<path class="st0" d="M47.9,64.8c2.4,0.1,4.8,0,7.3,0.1c2.7,0.1,5.4,0,8.2-0.1c2.7-0.1,5.3-0.2,8-0.2c1.1,0,8-0.1,5.8,2.5
				c-1.3,1.5-4,1.1-5.7,1.1c-2.7,0-5.3,0-8,0.1c-2.7,0.1-5.4,0-8.1,0c-1.4,0-2.8,0-4.2-0.1c-1,0-2.2,0.1-3.1-0.3
				c-1.5-0.6-1.8-2.7,0.1-3c0.9-0.1,0.7-1.6-0.2-1.6c-2.4,0.2-3.6,2.6-2.3,4.6c1.2,1.9,3.5,1.8,5.5,1.8c3.5,0.1,7,0.2,10.4,0.2
				c2.7,0,5.4-0.1,8.1-0.1c2.3,0,5,0.4,7.2-0.6c1.9-0.9,3.2-3.2,1.4-4.9c-0.7-0.7-1.7-1-2.7-1.1c-1.7-0.2-3.5-0.2-5.2-0.2
				c-3.8,0-7.6,0.3-11.4,0.3c-2,0-3.9-0.1-5.9-0.1c-1.8,0-3.5,0.1-5.3,0.2C47,63.5,47,64.8,47.9,64.8z"/>
		</g>
	</g>
	<g>
		<g>
			<path class="st0" d="M47.4,46.2c0-0.2,0,0,0,0.1c0,0.2,0,0.4,0,0.6c0,0.6,0,1.2-0.1,1.7c0,1.6-0.1,3.3-0.1,4.9
				c0,1.6-0.1,3.3-0.1,4.9c0,1.8-0.2,3.7,0.3,5.5c0.2,1,1.8,0.6,1.6-0.4c-0.5-1.7-0.3-3.6-0.2-5.4c0-1.7,0.1-3.3,0.1-5
				c0-1.6,0-3.2,0-4.8c0-0.7,0.2-1.8-0.2-2.5C48.3,45.4,47.4,45.6,47.4,46.2L47.4,46.2z"/>
		</g>
	</g>
	<g>
		<g>
			<path class="st0" d="M75.4,46.1c-0.3,1.5-0.3,3.1-0.2,4.6c0.1,1.6-0.1,3.2-0.1,4.8c0,1.6,0.2,3.2,0.1,4.8c0,0.7-0.2,1.5-0.2,2.2
				c0,0.2,0,0.4,0,0.7c0,0.1-0.1,0.7,0,0.5c-0.6,0.9,0.8,1.7,1.4,0.8c0.2-0.4,0.2-0.9,0.2-1.3c0-0.6,0-1.3,0.1-1.9
				c0.2-1.8,0-3.5,0-5.3c0-1.8,0.2-3.5,0.1-5.3c-0.1-0.9-0.1-1.7-0.1-2.6c0-0.7,0.1-1.4-0.2-2.1C76.3,45.5,75.5,45.6,75.4,46.1
				L75.4,46.1z"/>
		</g>
	</g>
	<g>
		<g>
			<path class="st0" d="M49.2,63.3c0.4-1.4,0.7-2.9,0.9-4.4c0.2-1.5,0.6-3,1.1-4.5c0.4-1.5,0.8-2.9,1.3-4.3c0.4-1,0.5-2.3,1.3-3.2
				c0.7-0.8-0.5-2-1.2-1.2c-0.8,1-1.1,2.1-1.4,3.3c-0.5,1.5-0.9,3-1.3,4.5c-0.4,1.6-0.9,3.3-1.2,4.9c-0.2,1.5-0.7,3-0.8,4.6
				C47.8,63.9,49,64.1,49.2,63.3L49.2,63.3z"/>
		</g>
	</g>
	<g>
		<g>
			<path class="st0" d="M57.8,64c0.6-1.5,0.9-3.3,1.3-4.9c0.3-1.5,0.6-3,1-4.5c0.4-1.5,0.9-2.9,1.3-4.3c0.2-0.7,0.4-1.3,0.7-2
				c0.2-0.6,0.3-1.2,0.6-1.7c0.6-0.9-0.8-1.7-1.4-0.8c-0.6,1-0.9,2.4-1.2,3.5c-0.5,1.6-1,3.2-1.4,4.8c-0.5,1.6-0.7,3.2-1,4.8
				c-0.3,1.7-0.9,3.3-1,5C56.5,64.6,57.6,64.6,57.8,64L57.8,64z"/>
		</g>
	</g>
	<g>
		<g>
			<path class="st0" d="M67.3,63.8c0.3-1.5,0.8-3,1.2-4.4c0.4-1.5,0.7-3,1-4.5c0.4-1.5,0.8-3,1.2-4.6c0.4-1.3,0.5-2.5,1.2-3.7
				c0.5-0.9-0.8-1.7-1.4-0.8c-0.7,1.1-0.9,2.5-1.3,3.8c-0.4,1.5-0.8,3-1.2,4.5c-0.3,1.5-0.6,3-1,4.5c-0.4,1.6-1,3.1-1.2,4.8
				C65.7,64.3,67.1,64.7,67.3,63.8L67.3,63.8z"/>
		</g>
	</g>
	<g>
		<g>
			<path class="st0" d="M70.8,46.8c-0.1,1.3,0.6,2.7,0.9,3.9c0.4,1.5,0.6,3,0.8,4.5c0.5,2.9,1.4,5.6,1.8,8.5c0.2,1,1.8,0.6,1.6-0.4
				c-0.5-2.8-1.3-5.5-1.8-8.3c-0.5-2.8-1-5.6-2-8.3C71.8,46,70.9,46.1,70.8,46.8L70.8,46.8z"/>
		</g>
	</g>
	<g>
		<g>
			<path class="st0" d="M61.2,46.6c-0.3,1.2,0.5,2.3,0.8,3.4c0.4,1.5,0.7,3,1,4.6c0.3,1.6,0.6,3.2,1,4.9c0.4,1.6,0.7,3.2,1.2,4.7
				c0.3,1,1.9,0.6,1.6-0.4c-0.5-1.5-0.8-3.2-1.2-4.7c-0.4-1.5-0.7-3-1-4.5c-0.3-1.4-0.6-2.9-0.9-4.3c-0.3-1.2-1.1-2.3-1.3-3.5
				C62.4,46,61.4,46,61.2,46.6L61.2,46.6z"/>
		</g>
	</g>
	<g>
		<g>
			<path class="st0" d="M52.6,46.8c-0.1,0.7,0.1,1.3,0.3,2c0.2,0.7,0.2,1.4,0.3,2.1c0.3,1.4,0.9,2.8,1.2,4.2c0.4,1.5,0.7,2.9,1,4.4
				c0.3,1.6,0.8,3.1,1.1,4.7c0.2,1,1.7,0.6,1.6-0.4c-0.3-1.5-0.7-2.9-1.1-4.4c-0.3-1.5-0.6-3-1-4.5c-0.3-1.4-0.9-2.8-1.2-4.2
				c-0.2-0.7-0.2-1.3-0.4-2c-0.2-0.7-0.5-1.3-0.7-2C53.6,45.9,52.7,46.1,52.6,46.8L52.6,46.8z"/>
		</g>
	</g>
	<g>
		<g>
			<path class="st0" d="M62.3,26.1c0.1-0.7-0.2-1.4-0.8-1.9c-0.4-0.3-1-0.4-1.6-0.4c-1.1,0-2.3,0.6-2.9,1.6
				c-0.7,1.2-0.4,2.9,0.6,3.9c0.5,0.5,1.2,0.8,1.9,0.9c0.8,0.1,1.5-0.2,2.1-0.7c1.2-0.9,1.8-3.4,0.3-4.4c-0.3-0.2-0.8-0.1-1.1,0.2
				c-0.3,0.3-0.2,0.8,0.1,1.1c0.1,0.1,0-0.1,0-0.1c0,0.1,0.1,0.1,0.2,0.2c0,0-0.1-0.2-0.1-0.1c0,0,0,0,0,0.1c0,0,0,0,0,0.1
				c0.1,0.1,0-0.1,0-0.1c0,0.1,0,0.1,0.1,0.2c0,0,0,0.1,0,0.1c0,0.1,0,0.1,0-0.1c0,0,0,0.1,0,0.2c0,0.1,0,0.1,0,0.2c0,0,0,0.1,0,0.1
				c0-0.1,0-0.2,0-0.1c0,0.1-0.1,0.2-0.1,0.3c0,0.1,0,0.1-0.1,0.2c0,0.1,0-0.1,0-0.1c0,0,0,0.1-0.1,0.1c-0.1,0.1-0.1,0.2-0.2,0.3
				c0,0-0.2,0.2-0.1,0.1c0.1-0.1,0,0-0.1,0.1c0,0-0.1,0.1-0.1,0.1c-0.1,0.1,0.1-0.1,0,0c-0.1,0.1-0.2,0.1-0.3,0.2
				c-0.1,0.1,0.2-0.1,0.1,0c0,0,0,0-0.1,0c-0.1,0-0.1,0-0.2,0.1c0,0-0.2,0-0.1,0c0.2,0-0.1,0-0.1,0c-0.1,0-0.1,0-0.2,0
				c-0.2,0,0.2,0,0,0c-0.1,0-0.2-0.1-0.3-0.1c0,0,0,0-0.1,0c-0.1,0,0.2,0.1,0.1,0c0,0-0.1,0-0.1-0.1c-0.1,0-0.1-0.1-0.2-0.1
				c0,0,0,0-0.1,0c-0.1-0.1,0,0,0,0c-0.1-0.1-0.2-0.1-0.2-0.2c0,0-0.1-0.1-0.1-0.1c0,0-0.1-0.1,0,0c0.1,0.1,0,0,0,0
				c-0.1-0.1-0.1-0.2-0.2-0.3c0,0,0,0,0-0.1c-0.1-0.1,0,0.1,0,0.1c0-0.1,0-0.1-0.1-0.2c0-0.1,0-0.1,0-0.2c0,0,0-0.2,0-0.1
				c0,0.2,0,0,0-0.1c0-0.1,0-0.1,0-0.2c0-0.1,0-0.1,0-0.2c0,0,0,0.2,0,0.1c0,0,0,0,0-0.1c0-0.1,0-0.1,0-0.2c0,0,0-0.1,0-0.1
				c0,0,0.1-0.2,0,0c-0.1,0.1,0,0,0-0.1c0,0,0-0.1,0.1-0.1c0,0,0.1-0.1,0.1-0.1c-0.1,0.2-0.1,0.1-0.1,0.1c0,0,0,0,0.1-0.1
				c0.1-0.1,0.1-0.1,0.2-0.2c0,0,0,0,0,0c0.1-0.1-0.2,0.1-0.1,0.1c0,0,0.1-0.1,0.1-0.1c0.1-0.1,0.2-0.1,0.3-0.1c0,0,0.1,0,0.1-0.1
				c0.2-0.1-0.2,0.1,0,0c0.2-0.1,0.4-0.1,0.6-0.2c0.2,0-0.2,0,0,0c0.1,0,0.1,0,0.2,0c0.1,0,0.2,0,0.3,0c0.1,0-0.2,0,0,0
				c0,0,0.1,0,0.1,0c0.1,0,0.1,0,0.2,0c0.2,0-0.2-0.1,0,0c0.1,0,0.2,0.1,0.3,0.1c-0.1,0-0.1-0.1-0.1-0.1c0,0,0,0,0.1,0.1
				c0,0,0.1,0.1,0.1,0.1c0.1,0.1-0.1-0.2-0.1-0.1c0,0,0,0,0.1,0.1c0,0,0.1,0.1,0.1,0.1c0.1,0.1,0.1,0.2,0.2,0.3
				c0.1,0.2,0.4,0.4,0.7,0.3C62,26.6,62.2,26.4,62.3,26.1L62.3,26.1z"/>
		</g>
	</g>
	<g>
		<g>
			<path class="st0" d="M62.1,27.2c1.6,0.1,3.2-0.5,4.7-0.9c1.7-0.4,3.5-0.4,5.2-0.7c1.7-0.2,3.4-0.6,5.1-0.9
				c0.6-0.1,1.3-0.3,1.9-0.4c0.3-0.1,0.8-0.3,1.2-0.3c-0.2-0.1-0.4-0.2-0.6-0.2c0,0,0,0,0,0c0.8,0.6,2-0.5,1.2-1.2
				c-0.7-0.6-1.8,0-2.5,0.2c-1.8,0.5-3.6,0.8-5.4,1c-3.6,0.6-7.3,0.8-10.8,2C61.2,26.1,61.3,27.1,62.1,27.2L62.1,27.2z"/>
		</g>
	</g>
	<g>
		<g>
			<path class="st0" d="M66.3,31.6c-0.2-0.3-0.3-0.6-0.6-0.8c-0.3-0.3-0.7-0.4-1.2-0.4c-0.6-0.1-1.2,0.2-1.7,0.5
				c-1.1,0.8-1.6,2.2-1.4,3.6c0.1,0.6,0.4,1.1,0.8,1.5c0.6,0.4,1.2,0.6,1.9,0.7c1.4,0.1,2.9-0.7,3.4-2.1c0.4-1.3-0.2-3.1-1.6-3.4
				c-0.4-0.1-0.9,0.1-1,0.6c-0.1,0.5,0.1,0.9,0.6,1c0.1,0,0.1,0.1,0,0c0,0,0.1,0,0.1,0.1c0,0,0.1,0,0.1,0.1c0.1,0.1,0.1,0.1,0,0
				c0,0.1,0.1,0.1,0.2,0.2c-0.2-0.1-0.1-0.1,0,0c0,0.1,0.1,0.1,0.1,0.2c0.1,0.2-0.1-0.2,0,0c0,0,0,0.1,0,0.1c0,0,0,0.1,0,0.1
				c0,0.1,0,0.2,0,0c0,0.1,0,0.2,0,0.3c0,0,0,0.1,0,0.1c0,0.2,0-0.2,0,0c0,0.1,0,0.2-0.1,0.3c0,0.1-0.1,0.1,0,0c0,0,0,0.1-0.1,0.1
				c0,0,0,0.1-0.1,0.1c-0.1,0.1,0.1-0.2,0,0c-0.1,0.1-0.2,0.2-0.3,0.3c0.2-0.1,0,0,0,0c-0.1,0-0.1,0.1-0.2,0.1c0,0-0.1,0.1-0.2,0.1
				c0,0,0.2-0.1,0,0c-0.1,0-0.2,0.1-0.3,0.1c-0.1,0-0.1,0-0.2,0c-0.1,0-0.1,0,0,0c0,0-0.1,0-0.1,0c-0.1,0-0.2,0-0.4,0
				c0,0-0.2,0-0.2,0c0,0,0.1,0,0.1,0c0,0-0.1,0-0.1,0c-0.1,0-0.2,0-0.3-0.1c-0.1,0-0.1,0-0.1-0.1c-0.1,0,0.2,0.1,0,0
				c0,0-0.1,0-0.1-0.1c-0.1,0-0.1-0.1,0,0c-0.1-0.1-0.1-0.1-0.2-0.2c-0.1-0.1,0.1,0.2,0,0c0,0,0-0.1-0.1-0.1c0,0,0-0.1-0.1-0.1
				c0.1,0.2,0,0.1,0,0c0-0.1,0-0.2-0.1-0.3c0.1,0.2,0,0.1,0,0c0-0.1,0-0.1,0-0.2c0-0.1,0-0.2,0-0.3c0,0,0-0.1,0-0.1
				c0,0.1,0,0.2,0,0.1c0,0,0-0.1,0-0.1c0-0.1,0.1-0.2,0.1-0.3c0.1-0.2-0.1,0.2,0,0c0,0,0-0.1,0.1-0.1c0.1-0.1,0.1-0.2,0.2-0.3
				c0.1-0.2,0,0,0,0c0,0,0.1-0.1,0.1-0.2c0.1-0.1,0.2-0.2,0.3-0.2c0,0-0.1,0-0.1,0.1c0,0,0.1,0,0.1-0.1c0.1,0,0.1-0.1,0.2-0.1
				c0,0,0.1,0,0.1-0.1c-0.1,0.1-0.1,0.1-0.1,0c0,0,0.1,0,0.1,0c0,0,0.1,0,0.1,0c0.1,0-0.2,0,0,0c0,0,0.1,0,0.1,0c0.2,0-0.1,0,0,0
				c0,0,0.1,0,0.1,0c0.2,0.1-0.1-0.1,0,0c0.1,0.1,0.2,0.1,0.3,0.1c-0.2-0.1,0,0,0,0.1c0.1,0,0.1,0.1,0.1,0.1c0,0,0.1,0,0.1,0.1
				c-0.1,0-0.1,0,0,0C65.8,32.9,66.7,32.3,66.3,31.6L66.3,31.6z"/>
		</g>
	</g>
	<g>
		<g>
			<path class="st0" d="M43.3,30.7c1.6,0.4,3.4,0.7,5.1,0.9c1.9,0.2,3.8,0.5,5.7,0.8c1.6,0.2,3.2,0.5,4.8,0.6
				c0.7,0.1,2.3-0.1,2.7,0.4c0.6,0.7,1.8-0.2,1.3-1c-0.6-0.9-2-0.9-2.9-1c-1.6-0.1-3.3-0.4-4.9-0.6c-2-0.3-4-0.7-5.9-0.9
				C48,30,47,29.8,46,29.6c-0.9-0.2-1.7-0.3-2.6-0.2C42.7,29.6,42.7,30.6,43.3,30.7L43.3,30.7z"/>
		</g>
	</g>
</g>
</svg>
