<?xml version="1.0" encoding="utf-8"?>
<!-- Generator: Adobe Illustrator 24.0.1, SVG Export Plug-In . SVG Version: 6.00 Build 0)  -->
<svg version="1.1" id="Calque_1" xmlns="http://www.w3.org/2000/svg" xmlns:xlink="http://www.w3.org/1999/xlink" x="0px" y="0px"
	 viewBox="0 0 122 122" style="enable-background:new 0 0 122 122;" xml:space="preserve">
<style type="text/css">
	.st0{fill:#91D902;}
</style>
<g>
	<path d="M100.6,6.8c-0.7-4.4-4.8-7.4-9.3-6.8L14.7,11c-3,0.5-5.1,3.3-4.7,6.3l7.2,48.5c0.6,3.8,2,7.4,4.2,10.5
		c6.8,9.8,22.1,31.8,25.8,36.8c0.9,1.4,3.6,5.5,5.4,8.1c0.7,1,2.2,0.8,2.6-0.3c1.2-3.5,3.2-9.3,4.2-11.7c2.2-5.5,5.6-16.1,6.6-19.3
		c0.2-0.6,0.7-1,1.3-1.2l4.6-0.8L92.8,84l14.1-2.9c3-0.5,5.1-3.3,4.6-6.4C108.8,57.3,100.6,6.8,100.6,6.8"/>
</g>
<g>
	<g>
		<g>
			<path class="st0" d="M66.1,60c-1.2-0.5-2.4-1.2-3.8-1.2c-1.4,0-2.7,0.6-3.8,1.4c-1.8,1.5-2.5,4-1.5,6.2c1.5,3.3,6.6,4.4,9.1,1.6
				c0.9-1.1,1.4-2.5,1.3-4c0-0.8-0.2-1.7-0.7-2.4c-0.4-0.6-0.8-1.1-1.2-1.7c-0.2-0.3-0.7-0.5-1-0.3c-0.4,0.2-0.6,0.6-0.5,1
				c0.4,1,1.3,1.7,1.5,2.8c0.2,1,0.1,2.2-0.5,3.1c-0.3,0.5-0.8,0.9-1.4,1.2c0.2-0.1-0.1,0-0.1,0c-0.1,0-0.2,0.1-0.2,0.1
				c-0.1,0-0.3,0.1-0.4,0.1c0,0-0.3,0-0.1,0c-0.1,0-0.2,0-0.3,0c-0.2,0-0.4,0-0.6,0c-0.5,0-1.3-0.2-1.8-0.5
				c-0.3-0.2-0.6-0.4-0.7-0.5c-0.3-0.3-0.5-0.5-0.6-0.7c-0.4-0.6-0.5-1.1-0.6-1.7c0-0.9,0.3-1.7,0.9-2.4c0.7-0.8,1.8-1.4,2.9-1.5
				c1.2-0.1,2.4,0.6,3.5,0.9C66.3,61.6,66.9,60.4,66.1,60L66.1,60z"/>
		</g>
	</g>
	<g>
		<g>
			<path class="st0" d="M61.3,68.5c0.2-0.4,0.2-1,0.2-1.4c0-0.4,0.1-0.7,0.2-1.1c0.1-0.4,0.2-0.7,0.4-1c0.1-0.2,0.2-0.3,0.3-0.4
				c0.1-0.1,0.1-0.1,0.2-0.2c0.1-0.1-0.1,0,0.1-0.1c0.1-0.1,0.3-0.2,0.4-0.2c0.2-0.1,0.2-0.1,0.4-0.2c0.3-0.1,0.7-0.2,1-0.3
				c0.6-0.2,1.8-0.6,2-1.4c0.1-0.6-0.3-1.1-1-1c-0.1,0-0.3,0.1-0.4,0.2c-0.2,0.1-0.2,0.2-0.1,0.1c0.1,0,0,0,0,0
				c-0.1,0.1-0.3,0.2-0.4,0.2c-0.2,0.1,0.1,0-0.1,0c-0.1,0-0.2,0.1-0.3,0.1c-0.2,0.1-0.4,0.1-0.6,0.2c-0.8,0.3-1.6,0.6-2.2,1.1
				c-0.7,0.6-1.1,1.5-1.3,2.4c-0.1,0.5-0.2,1-0.2,1.5c0,0.5-0.1,1.1,0.1,1.5C60.3,69,61.1,69,61.3,68.5L61.3,68.5z"/>
		</g>
	</g>
	<g>
		<g>
			<path class="st0" d="M79.7,28.7c0.7-0.6,1.5-1.1,1.5-2.1c0-1.1-0.9-2.1-1.6-2.8c-0.6-0.6-1.5-1.1-2.5-0.9c-1,0.2-1.6,1.2-2.2,1.9
				c-0.8,1-1.8,1.9-2.6,2.9c-1.1,1.2-2.1,2.5-3.2,3.7c-2.1,2.3-4.2,4.6-6.3,6.9c-2.1,2.4-4,5.1-6,7.6c-2.1,2.6-4.2,5.2-6.3,7.8
				c-0.9,1.1-1.8,2.2-2.6,3.3c-0.7,0.9-1.4,2-2.4,2.6c-1.1,0.6-1.5-0.1-1.5-1.2c0-1,0.5-1.9,0.7-2.8c0.4-2.1-2-3.9-3.9-3.5
				c-1.7,0.4-2.7,2.1-3.2,3.6c-1.1,3.7,0.1,8.2,3.9,9.8c4.6,2,8.5-2.1,11.3-5.2c2.5-2.8,4.9-5.5,7.3-8.4c2.6-3.1,5.1-6.3,7.7-9.4
				c1.5-1.9,3.2-3.7,4.8-5.5C75.1,34.4,77.2,31.3,79.7,28.7c0.9-0.7-0.3-1.9-1.2-1.2c-2.1,2-3.7,4.4-5.6,6.5c-1.6,1.9-3.4,3.7-5,5.6
				c-2.2,2.6-4.3,5.2-6.4,7.8c-3.8,4.7-7.7,9.5-12,13.8c-1.7,1.7-4.2,3.6-6.8,2.8c-2.1-0.6-3.1-2.1-3.5-4.1c-0.3-1.6-0.3-3.5,0.6-5
				c0.4-0.7,1.1-1.3,2-1.1c0.8,0.2,1.3,0.8,1.2,1.5c-0.1,0.4-0.3,0.9-0.4,1.3c-0.3,1.3-0.5,3.1,0.4,4.1c1.2,1.4,3.1,0.6,4.3-0.4
				c1.6-1.4,2.8-3.4,4.2-5.1c1.9-2.4,3.8-4.7,5.7-7c2-2.5,4-5.2,6-7.7c2-2.4,4.1-4.6,6.2-7c2.1-2.3,4.1-4.6,6.1-6.9
				c0.5-0.6,1.2-2.1,2-2.2c0.5-0.1,1.3,0.9,1.5,1.3c0.6,0.9,0.1,1.1-0.6,1.8C78,28.3,79,29.3,79.7,28.7z"/>
		</g>
	</g>
	<g>
		<g>
			<path class="st0" d="M78.2,22.2c-0.1,0-0.2-0.1-0.3-0.1c-0.1-0.1-0.1-0.1,0,0c-0.1-0.1-0.1-0.1,0,0c0,0.3-0.1,0.7-0.1,1
				c0.3-0.3,0.5-0.6,0.8-0.8c0.1-0.2,0.3-0.3,0.4-0.5c0.1-0.1,0.1-0.1,0.2-0.2c0,0,0.3-0.2,0.1-0.1c0.1,0,0.1-0.1,0.2-0.1
				c0,0,0.2-0.1,0.1,0c-0.1,0,0,0,0,0c0,0,0.2,0,0,0c-0.1,0,0,0,0,0c0.1,0-0.1-0.1,0,0c0,0,0.1,0,0.1,0c-0.2-0.1,0,0,0.1,0.1
				c0,0,0.1,0.1,0.1,0.1c0.1,0.1-0.1-0.1,0,0c0.2,0.1,0.3,0.3,0.5,0.4c0.3,0.3,0.6,0.6,0.9,0.9c0.3,0.3,0.7,0.6,1,0.8
				c0.1,0.1,0.1,0.1,0.2,0.2c0.1,0.1-0.1-0.1,0,0c0,0,0-0.1,0-0.2c0,0.1,0-0.2,0-0.1c0,0.2,0.1-0.1,0,0c0,0,0,0.1-0.1,0.1
				c0,0-0.1,0.1,0,0.1c0.1-0.1-0.1,0.1-0.1,0.1c0,0-0.1,0.1-0.1,0.1c-0.2,0.2-0.4,0.4-0.6,0.6c-0.1,0.1-0.2,0.2-0.2,0.2
				c0,0-0.1,0.1-0.1,0.1c-0.1,0.1,0.2-0.1,0,0c0,0-0.1,0-0.1,0.1c-0.1,0.1,0-0.1,0,0c0,0-0.4,0,0,0c0,0-0.1,0,0,0c0.2,0,0,0,0,0
				c0,0-0.1,0-0.1,0c0.1,0,0.1,0.1,0.1,0c0,0-0.1,0-0.1,0c-0.2-0.1-0.5-0.3-0.7-0.4c-0.4-0.2-0.8-0.1-1.1,0.2
				c-0.3,0.3-0.2,0.8,0.1,1.1c0.4,0.4,1,0.8,1.5,0.9c0.6,0.1,1.1-0.1,1.5-0.5c0.4-0.4,0.9-0.8,1.2-1.3c0.4-0.5,0.7-1,0.5-1.7
				c-0.2-0.5-0.6-0.9-1-1.2c-0.4-0.3-0.8-0.7-1.1-1c-0.8-0.8-1.7-1.8-2.9-1.4c-1.2,0.4-1.7,1.5-2.6,2.3c-0.2,0.2-0.3,0.7-0.1,1
				c0.4,0.5,0.8,0.8,1.4,0.8C78.5,23.6,78.9,22.5,78.2,22.2L78.2,22.2z"/>
		</g>
	</g>
	<g>
		<g>
			<path class="st0" d="M69,33.5c0.3,0.2,0.6,0.4,0.8,0.6c0,0,0.1,0,0.1,0.1c0.1,0.1-0.1-0.1,0,0c0.1,0,0.1,0.1,0.2,0.1
				c0.1,0.1,0.2,0.2,0.3,0.3c0.2,0.2,0.4,0.4,0.7,0.6c0.1,0.1,0.2,0.2,0.3,0.3c0,0,0,0.1,0.1,0.1c0.1,0.1-0.1-0.2,0,0
				c0,0.1,0.1,0.1,0.1,0.2c0.1-0.4,0.2-0.8,0.3-1.1c0,0,0,0-0.1,0c0.1,0,0.1-0.1,0.2-0.1c0,0,0,0,0,0c0.1,0,0.1,0,0.2,0c0,0,0,0,0,0
				c0.1,0,0.1,0,0.2,0c0,0,0,0,0,0c0.1,0,0.1,0.1,0.2,0.1c-0.2-0.1-0.4-0.2-0.6-0.2c-0.3,0-0.7,0.2-0.7,0.6
				c-0.1,0.3,0.1,0.7,0.4,0.9c0,0-0.1-0.1-0.1-0.1c0,0,0,0,0,0c0.1,0.1,0.1,0.1,0.2,0.2c0.2,0.1,0.5,0.2,0.8,0.1
				c0.3-0.1,0.4-0.2,0.5-0.5c0.1-0.2,0.1-0.5,0-0.7c-0.4-0.6-0.9-1-1.4-1.5c-0.6-0.5-1.2-0.9-1.9-1.2c-0.3-0.1-0.7,0.1-0.8,0.3
				C68.7,32.9,68.7,33.3,69,33.5L69,33.5z"/>
		</g>
	</g>
	<g>
		<g>
			<path class="st0" d="M71.7,30.2C71.7,30.2,71.7,30.2,71.7,30.2c0-0.1,0-0.2-0.1-0.3c0,0.2,0.1,0.4,0.2,0.5
				c0.1,0.1,0.1,0.1,0.2,0.1c-0.2-0.1-0.1-0.1-0.1,0c0.1,0.1,0.2,0.2,0.3,0.3c0.2,0.2,0.4,0.5,0.7,0.7c0.2,0.3,0.4,0.5,0.7,0.8
				c0.2,0.2,0.4,0.5,0.7,0.7c0-0.1-0.1-0.1-0.1-0.2c0,0,0,0,0,0c0.1,0.3,0.5,0.4,0.7,0.4c0.3,0,0.5-0.1,0.7-0.3
				c0.4-0.5,0.1-1.1-0.4-1.3c0,0,0,0,0,0c0.1,0.1,0.2,0.1,0.4,0.2c-0.3-0.2-0.5-0.5-0.7-0.7c-0.2-0.3-0.5-0.5-0.7-0.8
				c-0.2-0.2-0.4-0.5-0.7-0.7c-0.1-0.1-0.3-0.2-0.5-0.3c-0.1-0.1-0.2-0.1-0.3-0.1c-0.1,0-0.2,0-0.2,0c-0.1,0-0.2,0-0.3,0.1
				c0,0,0,0,0.1,0C71.7,29.3,71.5,29.8,71.7,30.2L71.7,30.2z"/>
		</g>
	</g>
	<g>
		<g>
			<path class="st0" d="M74.8,27.5c0.1,0.1,0.2,0.1,0.2,0.2c0,0,0.1,0.1,0.1,0.1c0,0,0,0,0.1,0c0.1,0.1-0.2-0.1-0.1,0
				c0.2,0.1,0.3,0.3,0.5,0.5c0.3,0.3,0.6,0.7,0.9,1.1c0-0.1-0.1-0.1-0.1-0.2c0.2,0.2,0.4,0.5,0.5,0.7c0-0.1-0.1-0.3-0.1-0.4
				c0,0,0,0,0,0c0-0.1,0-0.1,0-0.2c0,0,0,0,0,0.1c0.1-0.1,0.1-0.2,0.2-0.4c0,0,0,0,0,0c0.1-0.1,0.2-0.1,0.4-0.2c0,0,0,0,0,0
				c0.1,0,0.3,0,0.4,0c0,0,0,0,0,0c0.1,0,0.1,0.1,0.2,0.1c-0.3-0.1-0.5-0.2-0.8-0.2c-0.3,0.1-0.5,0.3-0.5,0.6c0,0.3,0.1,0.6,0.4,0.8
				c-0.2-0.2-0.1-0.1-0.1,0c0-0.1-0.1-0.1-0.1-0.2c0.1,0.1,0.2,0.3,0.4,0.4c0.4,0.2,0.9,0.1,1.1-0.3c0.2-0.3,0.2-0.7,0-0.9
				c0-0.1-0.1-0.1-0.1-0.2c-0.3-0.4-0.5-0.7-0.8-1c-0.3-0.3-0.5-0.6-0.9-0.9c-0.4-0.3-0.8-0.6-1.2-0.7c-0.3-0.1-0.7,0.1-0.9,0.4
				C74.3,26.9,74.5,27.3,74.8,27.5L74.8,27.5z"/>
		</g>
	</g>
	<g>
		<g>
			<path class="st0" d="M63.3,46.7c1.8,2.8,4.1,5.2,6.2,7.8c0.9,1.2,1.9,2.4,2.8,3.6c0.7,0.9,1.4,1.9,2.3,2.6
				c1.5,1.2,3.9,1.3,4.5-0.9c0.3-0.9,0.1-1.9-0.1-2.8c-0.2-1.1-1.1-2.1,0.2-2.9c2.1-1.4,3.1,2.1,3.2,3.5c0.1,1.7-0.1,3.9-1.4,5.1
				c-4.2,4.1-8.8-1.2-11.5-4.2c-2.7-3-5.5-6-8.1-9.2c-0.7-0.9-2,0.4-1.2,1.2c2.5,3,5.2,5.9,7.8,8.8c2.9,3.3,6.9,8.1,11.8,6.1
				c2.2-0.9,3.6-2.6,4.1-4.8c0.5-2,0.4-4.3-0.5-6.2c-1-2.1-3.3-3.3-5.4-1.8c-1,0.7-1.6,1.8-1.3,3c0.3,1,0.7,1.9,0.7,3
				c-0.1,1.7-1.4,1-2.3,0.2c-1.1-1.1-1.9-2.3-2.8-3.5c-2.6-3.3-5.1-6.6-7.9-9.6C63.9,45.1,62.8,46,63.3,46.7L63.3,46.7z"/>
		</g>
	</g>
	<g>
		<g>
			<path class="st0" d="M58.5,45.7c-1.7-2.6-3.8-5-5.9-7.3c-2.4-2.7-4.8-5.4-7.1-8.3c-0.5-0.7-1.1-1.3-1.7-1.9
				c-0.4-0.4-1.5-1.1-1.7-1.7C42,26,43,25.1,43.4,24.8c0.7-0.5,1-0.1,1.4,0.5c2.1,2.6,4.4,5,6.6,7.5c2.9,3.3,6,6.4,8.6,9.8
				c0.8,1,2.1-0.1,1.4-1.1c-2.7-3.5-5.8-6.7-8.7-10c-1.5-1.7-2.9-3.4-4.4-5c-0.5-0.6-1.1-1.1-1.5-1.7c-0.5-0.6-0.9-1.2-1.5-1.7
				c-2.1-1.6-6,2.1-4.6,4.3c0.4,0.7,1.2,1.2,1.8,1.8c0.7,0.8,1.4,1.6,2.1,2.4c1.4,1.7,2.7,3.4,4.1,4.9c1.4,1.6,2.9,3.1,4.3,4.8
				c1.5,1.7,2.8,3.6,4.4,5.2C57.9,47.2,58.9,46.4,58.5,45.7L58.5,45.7z"/>
		</g>
	</g>
	<g>
		<g>
			<path class="st0" d="M43.8,23.6c0.6,0,1.1-0.3,1.4-0.8c0.2-0.3,0.1-0.8-0.1-1c-0.8-0.6-1.2-1.6-2.2-2.1c-0.6-0.3-1.2-0.3-1.8,0
				c-0.5,0.2-0.9,0.6-1.3,1c-0.3,0.3-0.7,0.7-1,1c-0.4,0.3-0.9,0.7-1.2,1.1c-0.8,1.2,0.5,2.3,1.3,3.1c0.4,0.4,0.9,0.7,1.5,0.7
				c0.6,0,1.4-0.4,1.8-0.9c0.3-0.3,0.3-0.8,0.1-1.1c-0.3-0.3-0.7-0.4-1.1-0.2c-0.2,0.1-0.4,0.3-0.6,0.4c0,0-0.3,0.1-0.1,0.1
				c0.2-0.1-0.1,0-0.1,0c0.1-0.1,0.2,0,0.1,0c-0.1,0,0.1,0,0.1,0c0,0-0.1,0-0.1,0c-0.1-0.1,0.1,0.1,0.1,0c0,0-0.1-0.1-0.2-0.1
				c-0.1-0.1,0.1,0.1,0,0c0,0-0.1-0.1-0.1-0.1c-0.4-0.3-0.7-0.7-1.1-1.1c0.1,0.1,0-0.1-0.1-0.1c-0.1-0.2,0.1,0.1,0,0c0,0,0-0.2,0,0
				c0,0.1,0,0.1,0,0.2c0,0.1,0,0,0,0c0.1-0.1-0.1,0.1,0,0c0.3-0.3,0.7-0.6,1-0.9c0.3-0.2,0.5-0.5,0.8-0.8c0.2-0.2,0.3-0.3,0.5-0.5
				c0.1-0.1,0.1-0.1,0.2-0.2c0,0,0.1-0.1,0.1,0c-0.1,0.1,0.1-0.1,0.1-0.1c0,0,0.1,0,0.1-0.1c0,0,0.1-0.1,0,0c-0.1,0.1,0.2,0,0.1,0
				c-0.1,0,0,0,0,0c0.1,0-0.1-0.1,0,0c0,0,0.1,0,0.1,0c0.1,0,0,0-0.1,0c0,0,0.1,0,0.1,0c0.1,0,0.2,0.1,0.2,0.2
				c-0.1-0.1,0.1,0.1,0.2,0.1c0.2,0.2,0.3,0.3,0.5,0.5c0.3,0.3,0.6,0.7,0.9,1c0-0.3-0.1-0.7-0.1-1c0-0.1,0,0,0,0c0.1,0,0,0,0,0
				c-0.1,0.1-0.2,0.1-0.3,0.1C42.8,22.5,43.1,23.6,43.8,23.6L43.8,23.6z"/>
		</g>
	</g>
	<g>
		<g>
			<path class="st0" d="M51.9,32.3c-0.7,0.3-1.3,0.7-1.9,1.2c-0.5,0.4-1,0.9-1.4,1.5c-0.2,0.2-0.1,0.5,0,0.7
				c0.1,0.2,0.3,0.4,0.5,0.5c0.3,0.1,0.6,0.1,0.8-0.1c0.1,0,0.1-0.1,0.2-0.2c0.1-0.1,0.1-0.1,0,0c0.3-0.2,0.5-0.5,0.4-0.9
				c-0.1-0.3-0.4-0.6-0.7-0.6c-0.2,0-0.4,0.1-0.6,0.2c0.1,0,0.1-0.1,0.2-0.1c0,0,0,0,0,0c0.1,0,0.1,0,0.2,0c0,0,0,0,0,0
				c0.1,0,0.1,0,0.2,0c0,0,0,0,0,0c0.1,0,0.1,0.1,0.2,0.1c0,0,0,0-0.1,0c0.1,0.4,0.2,0.8,0.3,1.1c0-0.1,0.1-0.1,0.1-0.2
				c0.1-0.1,0,0,0,0.1c0,0,0-0.1,0.1-0.1c0.1-0.1,0.2-0.2,0.3-0.3c0.2-0.2,0.4-0.4,0.7-0.6c0.1-0.1,0.2-0.2,0.3-0.3
				c0.1,0,0.1-0.1,0.2-0.1c0.1-0.1,0,0,0,0c0,0,0.1,0,0.1-0.1c0.3-0.2,0.6-0.4,0.9-0.6c0.2-0.2,0.3-0.6,0.1-0.9
				C52.6,32.3,52.3,32.1,51.9,32.3L51.9,32.3z"/>
		</g>
	</g>
	<g>
		<g>
			<path class="st0" d="M49.5,29.2c0.1,0.1,0.2,0.1,0.1,0c-0.1-0.1-0.2-0.1-0.3-0.1c-0.1,0-0.2,0-0.2,0c-0.1,0-0.2,0.1-0.3,0.1
				c-0.2,0.1-0.3,0.2-0.5,0.3c-0.3,0.2-0.5,0.4-0.7,0.7c-0.2,0.3-0.5,0.5-0.7,0.8c-0.2,0.2-0.4,0.5-0.7,0.7c0.1-0.1,0.2-0.1,0.4-0.2
				c0,0,0,0,0,0c-0.6,0.2-0.8,0.8-0.4,1.3c0.2,0.2,0.4,0.3,0.7,0.3c0.3,0,0.6-0.2,0.7-0.4c0,0,0,0,0,0c0,0.1-0.1,0.1-0.1,0.2
				c0.2-0.2,0.4-0.5,0.7-0.7c0.2-0.3,0.4-0.5,0.7-0.8c0.2-0.3,0.4-0.5,0.7-0.7c0.1-0.1,0.2-0.2,0.3-0.3c0,0,0.1-0.1-0.1,0
				c0.1-0.1,0.1-0.1,0.2-0.1c0.2-0.1,0.2-0.3,0.2-0.5c0,0.1-0.1,0.2-0.1,0.3c0,0,0,0,0,0C50.1,29.8,49.9,29.3,49.5,29.2L49.5,29.2z"
				/>
		</g>
	</g>
	<g>
		<g>
			<path class="st0" d="M46.3,26.1c-0.5,0.1-0.8,0.4-1.2,0.7c-0.3,0.3-0.6,0.6-0.9,0.9c-0.3,0.3-0.6,0.7-0.8,1
				c0,0.1-0.1,0.1-0.1,0.2c-0.2,0.3-0.1,0.7,0,0.9c0.2,0.4,0.7,0.5,1.1,0.3c0.2-0.1,0.2-0.2,0.4-0.4c0,0.1-0.1,0.1-0.1,0.2
				c0-0.1,0.2-0.1-0.1,0c0.3-0.2,0.4-0.4,0.4-0.8c0-0.3-0.3-0.5-0.5-0.6c-0.3-0.1-0.5,0-0.8,0.2c0.1,0,0.1-0.1,0.2-0.1c0,0,0,0,0,0
				c0.1,0,0.3,0,0.4,0c0,0,0,0,0,0c0.1,0.1,0.2,0.1,0.4,0.2c0,0,0,0,0,0c0.1,0.1,0.1,0.2,0.2,0.4c0,0,0,0,0-0.1c0,0.1,0,0.1,0,0.2
				c0,0,0,0,0,0c0,0.1-0.1,0.3-0.1,0.4c0.2-0.2,0.3-0.5,0.5-0.7c0,0.1-0.1,0.1-0.1,0.2c0.3-0.4,0.6-0.7,0.9-1.1
				c0.2-0.2,0.3-0.3,0.5-0.4c0.1-0.1,0,0-0.1,0c0,0,0,0,0.1,0c0,0,0.1-0.1,0.1-0.1c0.1-0.1,0.2-0.1,0.3-0.2c0.3-0.2,0.4-0.6,0.3-0.9
				C47,26.2,46.6,26,46.3,26.1L46.3,26.1z"/>
		</g>
	</g>
</g>
</svg>
