<?xml version="1.0" encoding="utf-8"?>
<!-- Generator: Adobe Illustrator 24.0.1, SVG Export Plug-In . SVG Version: 6.00 Build 0)  -->
<svg version="1.1" id="Calque_1" xmlns="http://www.w3.org/2000/svg" xmlns:xlink="http://www.w3.org/1999/xlink" x="0px" y="0px"
	 viewBox="0 0 122 122" style="enable-background:new 0 0 122 122;" xml:space="preserve">
<style type="text/css">
	.st0{fill:#91D902;}
</style>
<g>
	<path d="M101.3,6.8C100.6,2.4,96.5-0.6,92,0L15.4,11c-3,0.5-5.1,3.3-4.7,6.3l7.2,48.5c0.6,3.8,2,7.4,4.2,10.5
		c6.8,9.8,22.1,31.8,25.8,36.8c0.9,1.4,3.6,5.5,5.4,8.1c0.7,1,2.2,0.8,2.6-0.3c1.2-3.5,3.2-9.3,4.2-11.7c2.2-5.5,5.6-16.1,6.6-19.3
		c0.2-0.6,0.7-1,1.3-1.2l4.6-0.8L93.5,84l14.1-2.9c3-0.5,5.1-3.3,4.6-6.4C109.5,57.3,101.3,6.8,101.3,6.8"/>
</g>
<g>
	<g>
		<g>
			<path class="st0" d="M54.8,32.9c-0.5-0.5-1.5-0.5-2.2-0.3c-0.6,0.1-1.2,0.3-1.6,0.6c-0.6,0.4-1,1-1,1.8c0,0.6,0.2,1.2,0.6,1.7
				c0.7,0.8,1.9,0.7,2.8,0.5c0.5-0.1,0.9-0.3,1.3-0.5c0.4-0.2,0.8-0.4,1-0.7c0.5-0.6,0.6-1.4,0.3-2.2c-0.2-0.3-0.4-0.6-0.7-0.8
				c-0.4-0.3-0.9-0.4-1.3-0.3c-0.3,0.1-0.6,0.5-0.6,0.8c0,0.4,0.3,0.7,0.6,0.8c-0.3-0.1,0.2,0.1,0.3,0.1c0,0,0.1,0,0.1,0
				c-0.2,0-0.1-0.1,0,0c0.1,0,0.1,0.1,0,0c0,0,0.1,0.1,0.1,0.1c0.1,0.1,0.1,0.1,0,0c0,0,0.1,0.1,0.1,0.1c0.1,0.1,0,0.1,0-0.1
				c0,0,0,0.1,0,0.1c0,0.2,0-0.2,0-0.1c0,0,0,0.1,0,0.1c0,0.2,0.1-0.2,0-0.1c0,0,0,0.1,0,0.1c0-0.2,0.1-0.1,0,0c0,0-0.1,0.2,0,0.1
				c0.1-0.1,0,0,0,0c0,0-0.1,0.1-0.1,0.1c0.2-0.2,0.2-0.1,0.1-0.1c0,0-0.1,0-0.1,0.1c-0.1,0.1-0.3,0.2-0.4,0.2
				c-0.1,0-0.1,0.1-0.2,0.1c-0.1,0-0.2,0.1,0.1,0c0,0-0.1,0-0.1,0c-0.2,0.1-0.4,0.1-0.5,0.2c-0.2,0-0.3,0.1-0.5,0.1
				c-0.2,0,0.2,0,0.1,0c0,0-0.1,0-0.1,0c-0.1,0-0.2,0-0.3,0c-0.1,0-0.1,0-0.2,0c-0.1,0-0.1-0.1,0.1,0c0,0-0.1,0-0.1,0
				c-0.1,0-0.1,0-0.2-0.1c-0.1,0,0.2,0.1,0.1,0c0,0-0.1,0-0.1-0.1c-0.2-0.1,0.1,0.1,0,0c0,0,0-0.1-0.1-0.1c-0.1-0.1,0.1,0.2,0,0.1
				c0,0,0-0.1-0.1-0.1c-0.1-0.1,0-0.1,0,0.1c0,0-0.1-0.3-0.1-0.3c0,0,0,0.1,0,0.1c0,0,0-0.1,0-0.1c0,0,0-0.1,0-0.1c0,0,0,0,0-0.1
				c0-0.1,0-0.1,0,0.1c0,0,0-0.1,0-0.2c0,0,0,0,0,0c0-0.1,0-0.1,0,0.1c0,0,0.1-0.1,0.1-0.1c0,0,0,0,0,0c0.1-0.1,0-0.1,0,0
				c0,0,0.1-0.1,0.1-0.1c0,0,0.1-0.1,0.1-0.1c-0.1,0.1-0.1,0.1-0.1,0.1c0,0,0,0,0.1,0c0,0,0.1-0.1,0.1-0.1c0,0,0.1,0,0.1,0
				c-0.1,0-0.1,0.1,0,0c0.2-0.1,0.5-0.2,0.7-0.2c0.1,0,0.2,0,0.4-0.1c0.2,0-0.2,0,0,0c0.1,0,0.2,0,0.3,0c0.1,0,0.1,0,0,0
				c0.1,0,0.3,0,0.4,0c0.1,0,0.1,0,0.2,0c0.1,0,0.5,0,0.2,0c0.3,0,0.5-0.2,0.6-0.4C55,33.4,55,33.1,54.8,32.9L54.8,32.9z"/>
		</g>
	</g>
	<g>
		<g>
			<path class="st0" d="M60.7,27.8c-0.4-0.5-1.2-0.5-1.7-0.5c-0.6,0-1.2,0.1-1.7,0.3c-0.6,0.2-1.2,0.6-1.6,1.1
				c-0.4,0.6-0.5,1.2-0.4,1.9c0.1,0.8,0.6,1.4,1.2,1.9c0.6,0.5,1.4,0.5,2.2,0.4c0.7-0.1,1.3-0.3,1.9-0.6c0.6-0.3,1.2-0.9,1.3-1.6
				c0.2-0.7,0-1.5-0.3-2.1c-0.2-0.3-0.4-0.6-0.8-0.8c-0.4-0.3-0.8-0.3-1.3-0.2c-0.4,0.1-0.7,0.6-0.6,0.9c0.1,0.4,0.4,0.7,0.8,0.7
				c0.2,0-0.2-0.1,0,0c0,0,0.1,0,0.1,0c0.2,0-0.2-0.1,0,0c0,0,0.1,0.1,0.1,0.1c0,0-0.2-0.1,0,0c0,0,0,0,0.1,0.1c0.1,0.1,0,0.1,0,0
				c0,0,0.1,0.1,0.1,0.2c0,0,0,0.1,0.1,0.1c0.1,0.2-0.1-0.2,0,0c0,0.1,0.1,0.2,0.1,0.3c0,0,0,0.1,0,0.2c-0.1-0.1,0-0.2,0,0
				c0,0,0,0.1,0,0.1c0,0,0,0.2,0,0.1c0-0.2,0,0.2,0,0.2c0,0,0.1-0.2,0,0c0,0-0.1,0.1-0.1,0.1c0.2-0.1,0,0,0,0c0,0-0.1,0.1-0.1,0.1
				c0,0-0.1,0.1-0.1,0.1c0.2-0.1-0.1,0-0.1,0.1c-0.1,0.1-0.2,0.1-0.3,0.2c0,0-0.2,0.1,0,0c0,0-0.1,0-0.1,0c-0.3,0.1-0.5,0.2-0.8,0.2
				c0,0-0.1,0-0.1,0c-0.2,0,0.2,0,0,0c-0.1,0-0.2,0-0.4,0c-0.2,0,0.2,0.1,0,0c-0.1,0-0.1,0-0.2,0c0,0-0.1-0.1,0,0
				c-0.1,0-0.1-0.1-0.2-0.1c0,0-0.2-0.2,0,0c0,0-0.1-0.1-0.1-0.1c0,0-0.1-0.1-0.1-0.1c0.1,0.1,0,0.1,0,0c-0.1-0.1-0.1-0.2-0.2-0.3
				c0.1,0.2,0,0,0,0c0-0.1,0-0.2-0.1-0.2c0-0.2,0,0.1,0,0c0-0.1,0-0.1,0-0.2c0-0.1,0-0.1,0-0.2c0-0.2-0.1,0.2,0,0c0,0,0-0.1,0-0.1
				c0-0.2-0.1,0.2,0,0c0-0.1,0.1-0.2,0.1-0.2c0,0-0.1,0.1-0.1,0.1c0,0,0,0,0.1-0.1c0,0,0.1-0.1,0.1-0.1c0,0,0.1-0.1,0.1-0.1
				c-0.1,0.1-0.1,0.1,0,0c0.1-0.1,0.2-0.1,0.2-0.1c0,0,0.1,0,0.1-0.1c0,0,0.1,0,0.1,0c0.1,0,0.1,0-0.1,0c0,0,0.2-0.1,0.3-0.1
				c0.1,0,0.2-0.1,0.4-0.1c0.1,0,0.4,0,0.4-0.1c0,0-0.2,0-0.1,0c0.1,0,0.1,0,0.2,0c0.2,0,0.4,0,0.7,0c0.1,0,0.2,0,0.3,0
				c0,0,0.1,0,0.1,0c0.1,0,0.3,0,0.4-0.1c-0.1,0-0.1,0.1-0.1,0C60.9,28.7,61,28.2,60.7,27.8L60.7,27.8z"/>
		</g>
	</g>
	<g>
		<g>
			<path class="st0" d="M67.1,29.5c0-0.2-0.1-0.4-0.2-0.6c0-0.1-0.1-0.1-0.1-0.1c0,0,0,0-0.1,0c-0.1,0-0.1-0.1-0.2-0.1
				c0,0,0.1,0,0.1,0.1c0,0-0.4-0.3-0.4-0.3c-0.1-0.1-0.2-0.1-0.3-0.2c-0.5-0.3-1.1-0.5-1.6-0.6c-1.2-0.3-2.6-0.1-3.3,1
				c-0.8,1.1-0.5,2.8,0.7,3.6c1.2,0.8,2.9,1,4.2,0.4c0.6-0.3,1.2-0.8,1.5-1.4c0.4-0.8,0.2-1.7-0.4-2.3c-0.3-0.3-0.9-0.4-1.2,0
				c-0.3,0.3-0.4,0.9,0,1.2c0,0,0.1,0.1,0.1,0.1c0,0,0-0.1-0.1-0.1c0,0,0,0.1,0.1,0.1c0.1,0.1-0.1,0,0-0.1c0,0,0,0.1,0,0.2
				c-0.1-0.1,0-0.2,0-0.1c0,0.1-0.1,0,0-0.1c0,0,0,0.1,0,0.1c0,0,0.1-0.2,0,0c0,0-0.1,0.1-0.1,0.1c-0.1,0.1,0,0,0,0
				c0,0-0.2,0.2-0.2,0.2c0,0-0.1,0.1-0.1,0.1c0,0,0.1,0,0.1-0.1c0,0-0.1,0-0.1,0.1c-0.1,0.1-0.2,0.1-0.3,0.2c0,0-0.2,0.1-0.2,0.1
				c0,0,0.2-0.1,0.1,0c-0.1,0-0.2,0.1-0.2,0.1c-0.1,0-0.1,0-0.2,0c0.2,0,0,0-0.1,0c-0.2,0-0.3,0-0.5,0c-0.1,0-0.1,0-0.2,0
				c0.2,0,0,0-0.1,0c-0.1,0-0.2-0.1-0.4-0.1c-0.1,0-0.2-0.1-0.4-0.1c0.2,0.1,0,0-0.1,0c-0.1,0-0.2-0.1-0.2-0.1
				c-0.1,0-0.1-0.1-0.2-0.1c0,0,0,0-0.1,0c-0.1-0.1-0.1,0,0,0c0,0-0.1-0.1-0.1-0.1c-0.1-0.1,0,0,0,0c0,0-0.1-0.2-0.1-0.2
				c0,0,0.1,0.2,0,0c0-0.1,0-0.1,0-0.2c-0.1-0.2,0,0.2,0,0c0,0,0-0.1,0-0.1c0,0,0-0.1,0-0.1c0-0.2,0,0.2,0,0c0-0.1,0-0.2,0.1-0.3
				c0.1-0.2-0.1,0.2,0,0c0,0,0.1-0.1,0.1-0.1c0.1-0.2-0.1,0.1,0,0c0,0,0-0.1,0.1-0.1c0.1-0.1,0.1-0.1,0,0c0,0,0.1-0.1,0.1-0.1
				c0,0,0.1,0,0.1,0c0.1-0.1,0.1,0,0,0c0.1,0,0.2-0.1,0.3-0.1c0,0,0.2,0,0,0c-0.2,0,0,0,0,0c0.1,0,0.2,0,0.3,0c0,0,0.3,0,0.3,0
				c0,0-0.2,0-0.1,0c0.1,0,0.2,0,0.2,0c0.2,0,0.5,0.1,0.7,0.2c0.1,0,0.2,0.1,0.3,0.1c0,0,0.1,0,0.2,0.1c0,0-0.1,0-0.1,0
				c0,0,0.1,0,0.1,0c0.1,0,0.2,0.1,0.3,0.1c0,0,0.2,0.1,0,0c0,0,0.4,0.2,0.4,0.2c0,0-0.2-0.1,0,0c0,0,0.1,0,0.1,0.1
				c0.2,0.1,0.4,0.1,0.7,0.1C66.9,30,67.1,29.7,67.1,29.5L67.1,29.5z"/>
		</g>
	</g>
	<g>
		<g>
			<path class="st0" d="M72.3,34.2c-0.2-0.8-1-1.2-1.7-1.5c-0.5-0.2-1.1-0.3-1.6-0.4c-0.6-0.1-1.3-0.2-1.9,0
				c-0.7,0.2-1.3,0.8-1.6,1.5c-0.5,1.3,0.3,2.9,1.6,3.5c0.6,0.3,1.3,0.4,2,0.4c0.7,0,1.4-0.1,2.1-0.3c0.7-0.3,1.3-0.9,1.6-1.7
				c0.3-0.7,0.2-1.7-0.6-2.1c-0.4-0.2-1-0.1-1.2,0.3c-0.2,0.4-0.1,0.9,0.3,1.2c-0.2-0.1,0,0-0.1-0.1c0,0-0.1-0.3-0.1-0.1
				c0,0.1,0-0.1,0-0.1c0,0,0,0.1,0,0.1c0,0,0,0.2,0,0.1c0-0.1,0,0,0,0c0,0,0,0.1,0,0.1c0,0,0,0,0,0.1c0,0.1,0,0.1,0-0.1
				c0,0.1-0.1,0.2-0.1,0.2c0.1-0.1,0,0,0,0c0,0.1-0.1,0.1-0.1,0.1c0,0-0.1,0.1,0,0c0,0-0.1,0.1-0.1,0.1c-0.1,0-0.1,0.1-0.2,0.1
				c0,0-0.1,0-0.1,0.1c0.1,0,0.1,0,0,0c-0.1,0-0.2,0.1-0.3,0.1c-0.1,0-0.3,0-0.1,0c-0.3,0-0.5,0-0.8,0c-0.1,0-0.2,0-0.4,0
				c-0.1,0-0.1,0-0.2,0c0,0,0.2,0,0,0c-0.2,0-0.4-0.1-0.7-0.2c-0.1,0,0.2,0.1,0,0c0,0-0.1,0-0.1-0.1c0,0-0.1-0.1-0.1-0.1
				c-0.2-0.1,0.1,0.1,0,0c-0.1-0.1-0.2-0.2-0.2-0.2c-0.1-0.1,0,0,0,0c0-0.1-0.1-0.1-0.1-0.2c0-0.1-0.1-0.1-0.1-0.2
				c-0.1-0.1,0,0.1,0,0c0-0.1-0.1-0.2-0.1-0.3c0,0.2,0,0.1,0,0c0-0.1,0-0.1,0-0.2c0-0.1-0.1,0.2,0,0c0-0.1,0-0.1,0.1-0.2
				c-0.1,0.2,0-0.1,0.1-0.1c0.1-0.2-0.1,0,0,0c0,0,0.1-0.1,0.1-0.1c0,0-0.2,0.1,0,0c0,0,0.1,0,0.1-0.1c0,0,0.1,0,0.1-0.1
				c-0.2,0.1,0,0,0,0c0.1,0,0.4-0.1,0.1,0c0.1,0,0.2,0,0.3,0c0.1,0,0.2,0,0.3,0c0,0,0.1,0,0.1,0c-0.2,0,0,0,0,0
				c0.5,0.1,1,0.2,1.4,0.4c0.1,0,0.2,0.1,0.4,0.1c-0.1-0.1,0,0,0,0c0.1,0,0.1,0.1,0.2,0.1c0.1,0.1,0.2,0.1,0.3,0.2
				c0.1,0,0.1,0.1,0.2,0.1c0,0,0.4,0.2,0.2,0.1C71.8,35.2,72.4,34.8,72.3,34.2L72.3,34.2z"/>
		</g>
	</g>
	<g>
		<g>
			<path class="st0" d="M71,37.1C71,37.1,71,37.1,71,37.1c0,0,0-0.1-0.1-0.2C71,37,71,37.1,71,37.1c0.1,0.2,0.1,0.2,0.2,0.3
				c0,0,0.1,0.1,0.1,0.1c0.2,0.1,0.3,0.3,0.5,0.4c0.2,0.2,0.4,0.3,0.6,0.5c0.1,0.1,0.2,0.1,0.3,0.1c0.1,0,0.2,0,0.3,0
				c0.2-0.1,0.4-0.2,0.5-0.4c0.1-0.2,0.2-0.4,0.1-0.6c0-0.1-0.1-0.1-0.1-0.2c-0.1-0.1-0.2-0.2-0.3-0.3c-0.2-0.1-0.4-0.2-0.5-0.4
				c-0.2-0.1-0.4-0.3-0.6-0.4c0.1,0,0.1,0.1,0.2,0.1c-0.1-0.1-0.2-0.1-0.3-0.2c0.1,0,0.1,0.1,0.2,0.1c0,0,0,0,0,0
				c-0.1-0.1-0.1-0.1-0.2-0.2c-0.1,0-0.2-0.1-0.3-0.1c-0.2,0-0.3,0.1-0.5,0.2c-0.1,0.1-0.2,0.2-0.3,0.4c0,0.1,0,0.1,0,0.2
				C70.9,36.8,70.9,37,71,37.1L71,37.1z"/>
		</g>
	</g>
	<g>
		<g>
			<path class="st0" d="M65.5,31.8c0,0.1,0,0.2,0,0.3c0,0.1,0.1,0.2,0.1,0.3c0-0.1,0-0.1-0.1-0.2c0.1,0.1,0.1,0.2,0.2,0.4
				c0-0.1-0.1-0.1-0.1-0.2c0,0,0,0,0,0.1c0-0.1,0-0.1,0-0.2c0,0.1,0,0.2,0,0.2c0,0.1,0.1,0.2,0.1,0.2c0,0,0,0,0,0.1
				c0,0,0,0.1,0.1,0.2c0-0.1-0.1-0.1-0.1-0.2c0.1,0.1,0.1,0.2,0.2,0.4c0-0.1-0.1-0.1-0.1-0.2c0,0,0,0.1,0,0.1c0,0.1,0.1,0.2,0.1,0.3
				c0,0.1,0.1,0.1,0.1,0.2c0.1,0.1,0.2,0.1,0.3,0.2c0.1,0,0.1,0.1,0.2,0.1c0.1,0,0.2,0,0.3,0c0,0,0.2-0.1,0.2-0.1
				c0.1,0,0.1-0.1,0.2-0.1c0.1-0.1,0.1-0.2,0.2-0.3c0-0.1,0.1-0.1,0.1-0.2c0-0.1,0-0.2,0-0.3c0-0.1-0.1-0.2-0.1-0.3c0,0,0-0.1,0-0.1
				c0-0.1-0.1-0.1-0.1-0.2c0-0.1-0.1-0.1-0.1-0.2c0,0,0-0.1-0.1-0.1c-0.1-0.2-0.2-0.2-0.3-0.3c0.1,0,0.1,0.1,0.2,0.1
				c-0.2-0.2-0.4-0.4-0.7-0.5c-0.1,0-0.2,0-0.3,0c-0.1,0-0.2,0.1-0.2,0.1c-0.1,0-0.1,0.1-0.2,0.2C65.5,31.6,65.5,31.7,65.5,31.8
				L65.5,31.8z"/>
		</g>
	</g>
	<g>
		<g>
			<path class="st0" d="M55.2,34.2c0.3,0,0.5-0.2,0.8-0.3c0.2-0.1,0.4-0.3,0.6-0.4c0.3-0.2,0.5-0.5,0.7-0.7c-0.1,0-0.1,0.1-0.2,0.1
				c0.1-0.1,0.2-0.1,0.2-0.2c0.2-0.1,0.3-0.3,0.4-0.5c0.1-0.2,0-0.4-0.1-0.6c-0.1-0.2-0.3-0.3-0.5-0.4c-0.2,0-0.4,0-0.6,0.1
				c-0.5,0.3-0.8,0.8-1.3,1.1c0.1,0,0.1-0.1,0.2-0.1c-0.2,0.1-0.3,0.2-0.5,0.4c-0.1,0-0.1,0.1-0.2,0.1c-0.2,0.2-0.3,0.4-0.3,0.6
				c0,0.2,0.1,0.4,0.2,0.5C54.9,34.1,55,34.2,55.2,34.2L55.2,34.2z"/>
		</g>
	</g>
	<g>
		<g>
			<path class="st0" d="M49.3,38.7c0.2,0,0.3,0,0.4-0.1c0,0,0.1,0,0.1-0.1c0.1,0,0.2-0.1,0.2-0.1c0.2-0.1,0.3-0.2,0.5-0.3
				c0.3-0.2,0.6-0.5,0.9-0.8c-0.1,0-0.1,0.1-0.2,0.1c0.1-0.1,0.2-0.1,0.3-0.2c0.3-0.2,0.5-0.6,0.3-1c-0.2-0.4-0.5-0.6-0.9-0.5
				c-0.3,0.1-0.6,0.3-0.9,0.6c-0.2,0.2-0.4,0.4-0.6,0.5c0.1,0,0.1-0.1,0.2-0.1c-0.2,0.1-0.3,0.2-0.5,0.4c0,0,0.1-0.1,0.1-0.1
				c-0.1,0.1-0.2,0.2-0.4,0.3c-0.1,0.1-0.2,0.2-0.3,0.3c-0.1,0.2-0.1,0.4,0,0.7C48.9,38.6,49.1,38.8,49.3,38.7L49.3,38.7z"/>
		</g>
	</g>
	<g>
		<g>
			<path class="st0" d="M52,38.7c-0.9-0.6-2.2-0.8-3.2-1.1c-0.9-0.2-1.9-0.5-2.8-0.2c-2.1,0.7-2.6,3.2-3.1,5.1
				c-0.6,2.3-1.5,4.6-1.9,6.9c-0.2,1.3-0.4,2.5-0.7,3.8c-0.3,1.3-0.8,2.6-1.1,4c-0.2,1.2-0.3,2.4-0.4,3.6c-0.1,0.9,0,1.8,0.5,2.5
				c0.6,0.8,1.7,1.2,2.6,1.5c0.9,0.3,2,0.7,3,0.5c2.2-0.4,2.7-2.6,3.2-4.3c0.8-2.5,1.2-5.1,2-7.6c0.9-2.8,1.7-5.7,2.7-8.5
				c0.6-1.9,1.4-5.3-1.1-6.1c-1.1-0.3-1.6,1.4-0.5,1.7c0.9,0.3,0.4,2.4,0.2,3c-0.3,1-0.6,1.9-0.9,2.8c-0.6,1.9-1,3.8-1.7,5.6
				c-0.6,1.9-0.9,3.7-1.4,5.6c-0.2,0.9-0.5,1.8-0.8,2.7c-0.3,0.8-0.4,1.9-0.9,2.7c-0.5,0.8-1.2,0.9-2.1,0.7
				c-0.9-0.2-2.1-0.4-2.8-1.1c-0.6-0.7-0.3-1.7-0.2-2.5c0.1-1,0.2-2.1,0.5-3.1c0.5-1.9,1.1-3.7,1.4-5.6c0.3-1.8,0.8-3.5,1.1-5.2
				c0.2-1,0.6-2,0.9-3c0.3-1,0.4-1.9,0.9-2.8c0.6-1.1,1.3-1.2,2.5-0.9c1.1,0.2,2.3,0.4,3.3,0.9C52.1,40.4,52.9,39.2,52,38.7L52,38.7
				z"/>
		</g>
	</g>
	<g>
		<g>
			<path class="st0" d="M43.6,45.8c0.7-0.2,1.3-0.3,2.1-0.4c0.8-0.1,1.5-0.1,2.3-0.2c0.7-0.1,1.3-0.1,2-0.1c0.7,0,1.2-0.4,1.9-0.4
				c0.4,0,0.8-0.3,0.8-0.8c0-0.4-0.4-0.9-0.8-0.8c-0.7,0.1-1.3,0.4-1.9,0.4c-0.8,0-1.5,0-2.3,0.1c-1.5,0.2-3.1,0.2-4.5,0.9
				C42.2,44.9,42.8,46,43.6,45.8L43.6,45.8z"/>
		</g>
	</g>
	<g>
		<g>
			<path class="st0" d="M42.1,47.6c0.2,0.8,1.1,1.1,1.8,1.5c0.8,0.4,1.5,0.7,2.3,1.1c0.7,0.3,1.4,0.6,2.1,0.7
				c0.3,0.1,0.5,0.1,0.8,0.2c0.1,0,0.1,0,0.2,0.1c0.2,0.1-0.1,0,0,0c0.1,0,0.1,0.1,0,0c-0.2-0.3,0.2,0.3,0,0
				c0.4,0.8,1.6,0.4,1.6-0.4c0-0.8-0.8-1.1-1.5-1.3c-0.6-0.2-1.2-0.3-1.8-0.5c-0.8-0.3-1.6-0.7-2.3-1.1c-0.7-0.3-1.4-0.6-2-1
				C42.7,46.4,42,47,42.1,47.6L42.1,47.6z"/>
		</g>
	</g>
	<g>
		<g>
			<path class="st0" d="M40.4,54.2C40.4,54.2,40.4,54.2,40.4,54.2c-0.1,0.3,0.1,0.7,0.3,0.9c0.5,0.3,1.1,0.2,1.6,0.1
				c-0.3,0,0.2,0,0.3,0c0.2,0,0.4,0,0.5,0c0.4,0,0.7,0,1.1,0c0.8,0,1.6,0.1,2.3,0c0.8-0.1,1.6-0.3,2.4-0.4c0.4-0.1,0.7-0.6,0.6-1
				c-0.1-0.5-0.6-0.7-1-0.6c-0.7,0.1-1.4,0.3-2.1,0.4c-0.7,0.1-1.4,0-2.1,0c-0.7,0-1.3,0-2,0.1c-0.2,0-0.5,0.1-0.7,0.1
				c0,0-0.3,0.1-0.2,0c-0.1,0-0.3,0-0.2,0c-0.2-0.1-0.6,0-0.7,0.2C40.5,54,40.4,54.1,40.4,54.2L40.4,54.2z"/>
		</g>
	</g>
	<g>
		<g>
			<path class="st0" d="M39.7,59c-0.1,0.9,1.1,0.9,1.7,0.9c0.6-0.1,1.2-0.1,1.7-0.3c0.1,0-0.2,0-0.1,0c0.1,0,0.3,0,0.4,0
				c0.2,0,0.5,0,0.7,0c0.5,0,1.1,0,1.6-0.1c0.9-0.1,1.8-0.2,2.6-0.6c0.4-0.2,0.5-0.8,0.3-1.2c-0.3-0.4-0.7-0.5-1.2-0.3
				c-0.5,0.2-1.5,0.3-2.2,0.4c-0.9,0.1-1.8,0-2.7,0.2c-0.5,0.1-1,0.2-1.5,0.3c0.2,0-0.5,0-0.2,0c-0.1,0-0.2,0-0.3,0c0.1,0,0.1,0,0,0
				c-0.2,0-0.3,0-0.5,0C39.9,58.4,39.8,58.7,39.7,59L39.7,59z"/>
		</g>
	</g>
	<g>
		<g>
			<path class="st0" d="M76,37.2c-1.3,0-2.6,0.3-3.9,0.6c-0.9,0.2-1.7,0.5-2.3,1.3c-1.1,1.4-0.7,3.7-0.5,5.3
				c0.3,2.7,1.3,5.3,2.3,7.9c0.9,2.6,1.8,5.1,2.6,7.7c0.5,1.6,1.1,3.9,2.9,4.4c0.9,0.3,1.9,0.1,2.8-0.2c1-0.3,2.2-0.6,3-1.2
				c2-1.5,0.8-3.8,0.3-5.8c-0.7-2.6-0.9-5.5-1.9-8c-0.5-1.3-1.1-2.6-1.3-4c-0.2-1.3-0.5-2.6-0.7-3.9c-0.3-2-1.2-4.7-3.7-4.3
				c-1.1,0.2-0.6,1.9,0.5,1.7c1.4-0.2,1.5,3.7,1.7,4.4c0.2,1.8,0.8,3.6,1.4,5.3c1.4,3.6,1.8,7.6,3,11.3c0.2,0.5,0.3,1,0,1.5
				c-0.3,0.4-0.7,0.6-1.2,0.7c-0.8,0.3-1.7,0.7-2.5,0.7c-1.9,0.1-2.3-2.7-2.7-4.1c-1.1-3.8-2.7-7.5-3.8-11.3c-0.6-2-1.1-4.2-0.9-6.3
				c0.1-0.9,0.4-1.3,1.3-1.6c1.2-0.4,2.6-0.7,3.9-0.8C77,38.7,77,37.2,76,37.2L76,37.2z"/>
		</g>
	</g>
	<g>
		<g>
			<path class="st0" d="M69.8,45c0.5,0.6,1.1,0.7,1.9,0.7c0.2,0,0.2,0,0.4,0.1c0.2,0,0.4,0.1,0.6,0.1c0.5,0.1,0.9,0.1,1.4,0.1
				c0.9,0.1,1.8,0.2,2.6,0.3c0.4,0,0.7,0.1,1.1,0.1c0.5,0.1,1,0.2,1.4,0c0.7-0.2,0.8-1.4,0-1.5c-0.4-0.1-0.7-0.1-1.1-0.1
				c-0.4-0.1-0.7-0.1-1.1-0.1c-0.8-0.1-1.7-0.2-2.5-0.3c-0.8-0.1-1.5-0.1-2.3-0.3c-0.3,0-0.6-0.1-0.9-0.1c-0.2,0-0.5-0.1-0.6-0.1
				c-0.3-0.1-0.7-0.1-0.9,0.1C69.7,44.3,69.6,44.7,69.8,45L69.8,45z"/>
		</g>
	</g>
	<g>
		<g>
			<path class="st0" d="M72.3,51.7c0.6,0.1,1.2-0.2,1.8-0.5c0.6-0.3,1.3-0.6,1.9-0.9c1.3-0.6,2.6-1.2,3.8-1.8
				c0.4-0.2,0.5-0.8,0.3-1.1c-0.2-0.4-0.7-0.5-1.1-0.3c-1.2,0.6-2.4,1.2-3.6,1.8c-1.1,0.5-2.1,1-3.2,1.5
				C71.7,50.8,71.8,51.6,72.3,51.7L72.3,51.7z"/>
		</g>
	</g>
	<g>
		<g>
			<path class="st0" d="M73.1,54.8c0.7,1,2.1,0.6,3.1,0.5c0.8-0.1,1.6-0.1,2.3-0.1c0.5,0,0.9-0.1,1.4-0.2c0.4-0.1,0.7-0.2,1.1-0.2
				c1.1,0,1.1-1.7,0-1.7c-0.7,0-1.4,0.3-2.2,0.4c-0.8,0.1-1.6,0.1-2.5,0.2c-0.2,0-0.5,0.1-0.7,0.1c-0.1,0-0.2,0-0.3,0c0,0-0.1,0,0,0
				c-0.1,0-0.1,0-0.2,0c-0.2,0-0.5,0.1-0.7,0.1c-0.1,0-0.2,0-0.3,0c0.2,0,0,0,0,0c-0.1,0,0.1,0.1,0.1,0.1c-0.3-0.2-0.6-0.3-0.9-0.1
				C73.1,54.1,72.9,54.5,73.1,54.8L73.1,54.8z"/>
		</g>
	</g>
	<g>
		<g>
			<path class="st0" d="M74.9,59.8c0.4,0.2,0.8,0.2,1.2,0.3c0.4,0.1,0.9,0.2,1.3,0.2c0.4,0,0.9,0,1.3,0c0.5,0,0.9,0.1,1.4,0.1
				c0.6,0,1.1,0,1.7,0c0.5,0,1.4-0.1,1.6-0.6c0.4-0.8-0.4-1.5-1.1-1.1c0.2-0.1,0.2-0.1,0,0c-0.1,0-0.2,0-0.3,0c-0.1,0,0.1,0,0,0
				c-0.1,0-0.1,0-0.2,0c-0.1,0-0.2,0-0.4,0c-0.6,0-1.2,0-1.8,0c-0.4,0-0.8-0.1-1.2-0.1c-0.4,0-0.7,0-1.1,0c-0.7-0.1-1.8-0.5-2.5,0
				C74.5,58.9,74.4,59.6,74.9,59.8L74.9,59.8z"/>
		</g>
	</g>
</g>
</svg>
