<?xml version="1.0" encoding="utf-8"?>
<!-- Generator: Adobe Illustrator 24.0.1, SVG Export Plug-In . SVG Version: 6.00 Build 0)  -->
<svg version="1.1" id="Calque_1" xmlns="http://www.w3.org/2000/svg" xmlns:xlink="http://www.w3.org/1999/xlink" x="0px" y="0px"
	 viewBox="0 0 122 122" style="enable-background:new 0 0 122 122;" xml:space="preserve">
<style type="text/css">
	.st0{fill:#91D902;}
</style>
<g>
	<path d="M101.2,6.8c-0.7-4.4-4.8-7.4-9.3-6.8L15.3,11c-3,0.5-5.1,3.3-4.7,6.3l7.2,48.5c0.6,3.8,2,7.4,4.2,10.5
		c6.8,9.8,22.1,31.8,25.8,36.8c0.9,1.4,3.6,5.5,5.4,8.1c0.7,1,2.2,0.8,2.6-0.3c1.2-3.5,3.2-9.3,4.2-11.7c2.2-5.5,5.6-16.1,6.6-19.3
		c0.2-0.6,0.7-1,1.3-1.2l4.6-0.8L93.4,84l14.1-2.9c3-0.5,5.1-3.3,4.6-6.4C109.4,57.3,101.2,6.8,101.2,6.8"/>
</g>
<g>
	<g>
		<g>
			<path class="st0" d="M35.2,41.9c-0.3,1.3-0.1,2.7,0,3.9c0.1,1.3,0.1,2.7,0.1,4c0.1,2.6,0.4,5.2,0.9,7.7c0.2,1.1,1.9,0.6,1.7-0.5
				c-0.5-2.5-0.7-5-0.8-7.5c0-1.2,0-2.5-0.1-3.7c-0.1-1.3-0.1-2.7-0.4-3.9C36.4,41.3,35.4,41.2,35.2,41.9L35.2,41.9z"/>
		</g>
	</g>
	<g>
		<g>
			<path class="st0" d="M35.5,42.7c0.6,0.3,1.3,0.5,1.9,0.6c1.2,0.3,2.4,0.6,3.5,0.9c2.5,0.6,5.1,1.2,7.6,1.8
				c0.6,0.1,1.2,0.3,1.8,0.4c1.1,0.2,1.6-1.5,0.5-1.7c-1.6-0.3-3.2-0.8-4.7-1.1c-2.6-0.6-5.2-1.3-7.7-1.9c-0.8-0.2-1.6-0.4-2.4-0.4
				C35.2,41.3,34.9,42.4,35.5,42.7L35.5,42.7z"/>
		</g>
	</g>
	<g>
		<g>
			<path class="st0" d="M49.9,45.3c-0.6,0.9-0.5,2.3-0.4,3.3c0.1,1.4,0.2,2.7,0.3,4.1c0,1.5-0.1,3,0,4.6c0.1,1.4-0.1,2.9,0.3,4.2
				c0.3,1.1,2,0.6,1.7-0.5c-0.2-0.7-0.1-1.4-0.1-2.1c0-0.6-0.1-1.3-0.1-1.9c-0.1-1.5,0-2.9,0-4.4c-0.1-1.3-0.2-2.6-0.3-3.9
				c-0.1-1,0.1-2.1-0.1-3.2C51.1,44.8,50.2,44.9,49.9,45.3L49.9,45.3z"/>
		</g>
	</g>
	<g>
		<g>
			<path class="st0" d="M36.4,57.4c-0.1,1.1,1.7,1.5,2.4,1.8c1.4,0.6,2.8,1,4.3,1.4c2.5,0.6,5.1,1,7.6,1.6c1.1,0.2,1.6-1.4,0.5-1.7
				c-2.3-0.7-4.7-0.9-7.1-1.5c-1.2-0.3-2.4-0.6-3.6-1c-0.6-0.2-1.2-0.5-1.9-0.7c-0.3-0.1-0.5-0.2-0.8-0.3c-0.1,0-0.2-0.1-0.3-0.1
				c0,0-0.3-0.1-0.1,0C36.9,56.5,36.4,56.8,36.4,57.4L36.4,57.4z"/>
		</g>
	</g>
	<g>
		<g>
			<path class="st0" d="M36.5,42.6c0.5-0.6,1.4-0.9,2.1-1.3c1.1-0.6,2.2-1.3,3.3-1.9c1.1-0.6,2.3-1,3.4-1.4c1.2-0.4,2.3-0.9,3.4-1.3
				c1-0.4,0.6-2-0.5-1.6c-1.2,0.4-2.4,1-3.7,1.4c-1.3,0.4-2.6,0.9-3.8,1.6c-1.1,0.7-2.3,1.4-3.4,2c-0.8,0.5-1.8,0.9-2.1,1.8
				C35,42.5,36,43.1,36.5,42.6L36.5,42.6z"/>
		</g>
	</g>
	<g>
		<g>
			<path class="st0" d="M50.9,46.3c2.1-1,4.1-2,6.2-3c1-0.5,2-0.9,3-1.4c0.9-0.5,1.9-0.8,2.7-1.5c0.7-0.5-0.1-1.6-0.8-1.4
				c-1,0.3-1.9,0.9-2.8,1.4c-1,0.5-2,1-3,1.5c-2.1,1-4.2,1.8-6.1,3.1C49.3,45.5,50,46.7,50.9,46.3L50.9,46.3z"/>
		</g>
	</g>
	<g>
		<g>
			<path class="st0" d="M48,36.3c0.6,0.6,1.7,0.7,2.4,1c1,0.3,1.9,0.6,2.9,0.8c1.5,0.4,3,0.8,4.5,1.2c0.7,0.2,1.5,0.4,2.2,0.7
				c0.7,0.2,1.4,0.6,2.2,0.6c0.8,0,1.2-1.2,0.4-1.5c-1.3-0.6-2.8-1-4.2-1.4c-1.5-0.5-3.1-0.9-4.7-1.2C52.9,36.2,52,36,51,35.7
				c-0.8-0.2-1.9-0.7-2.7-0.5C47.9,35.3,47.6,36,48,36.3L48,36.3z"/>
		</g>
	</g>
	<g>
		<g>
			<path class="st0" d="M61.5,39.8c0.3,2.8,0.2,5.7,0.3,8.5c0.1,2.6,0.1,5.3,0.3,7.9c0.1,1.1,1.9,1.1,1.8,0
				c-0.2-2.7-0.3-5.4-0.4-8.2c0-1.4,0-2.8-0.1-4.2c-0.1-1.4,0.2-3.3-0.6-4.5C62.5,38.9,61.5,39.1,61.5,39.8L61.5,39.8z"/>
		</g>
	</g>
	<g>
		<g>
			<path class="st0" d="M51.5,61.8c0.5-0.5,1.4-0.8,2.1-1.1c0.6-0.3,1.1-0.6,1.7-0.8c0.9-0.3,1.8-0.6,2.8-1c1.1-0.4,2.2-0.8,3.4-1.1
				c0.6-0.2,1.4-0.4,2-0.7c0.8-0.6,0.3-1.7-0.7-1.5c0.4-0.1-0.1,0-0.3,0.1c-0.1,0-0.3,0.1-0.4,0.2c-0.4,0.2-0.9,0.3-1.3,0.5
				c-1.2,0.4-2.3,0.8-3.5,1.2c-0.9,0.3-1.8,0.6-2.6,0.9c-0.8,0.3-1.5,0.7-2.3,1.1c-0.8,0.4-1.5,0.8-2,1.5
				C49.9,61.6,50.9,62.3,51.5,61.8L51.5,61.8z"/>
		</g>
	</g>
	<g>
		<g>
			<path class="st0" d="M40.5,45.7c-0.1-0.5-0.7-0.7-1.2-0.6c-0.2,0.1-0.4,0.2-0.5,0.3c-0.1,0.1-0.2,0.2-0.3,0.3
				c-0.1,0.3-0.2,0.6-0.2,0.9c0,0.3,0,0.5,0.1,0.8c0.1,0.3,0.2,0.6,0.5,0.8c0.3,0.3,0.8,0.5,1.2,0.5c0.5,0,0.9-0.2,1.3-0.5
				c0.4-0.4,0.6-0.9,0.5-1.4c-0.1-0.5-0.3-0.9-0.7-1.2c-0.2-0.1-0.4-0.3-0.5-0.4c-0.4-0.2-0.9-0.2-1.2,0.1c-0.2,0.2-0.3,0.6-0.2,0.9
				c0,0.1,0.1,0.2,0.1,0.2c0.1,0.1,0.2,0.2,0.3,0.3c0.1,0,0.1,0.1,0.2,0.1c0.1,0,0.2,0,0.2,0c0.2,0,0.4-0.1,0.5-0.2
				c0.1-0.1,0.2-0.2,0.3-0.4c0.1-0.2,0.1-0.4,0-0.6c0,0,0,0,0,0c0,0.2-0.1,0.5-0.1,0.7c0,0,0,0,0,0c-0.2,0.1-0.4,0.3-0.5,0.4
				c0,0,0,0,0,0c-0.1,0-0.2,0-0.2,0c0,0,0,0,0,0c-0.2,0-0.3-0.1-0.5-0.1c0.1,0.1,0.3,0.2,0.4,0.3c-0.1,0-0.1-0.1-0.2-0.1
				c0.1,0.1,0.2,0.2,0.3,0.3c0-0.1-0.1-0.1-0.1-0.2c0,0.1,0.1,0.1,0.1,0.2c0-0.1-0.1-0.1-0.1-0.2c0,0.1,0,0.1,0.1,0.2
				c0-0.1,0-0.2,0-0.2c0,0.1,0,0.1,0,0.2c0-0.1,0-0.2,0-0.2c0,0.1,0,0.1-0.1,0.2c0-0.1,0.1-0.1,0.1-0.2c0,0.1-0.1,0.1-0.1,0.2
				c0-0.1,0.1-0.1,0.1-0.2c0,0.1-0.1,0.1-0.2,0.2c0.1,0,0.1-0.1,0.2-0.1c-0.1,0-0.1,0.1-0.2,0.1c0.1,0,0.1-0.1,0.2-0.1
				C40.1,46.9,40,47,40,47c0.1,0,0.2,0,0.2,0c-0.1,0-0.2,0-0.2,0c0.1,0,0.2,0,0.2,0c-0.1,0-0.1,0-0.2-0.1c0.1,0,0.1,0.1,0.2,0.1
				c-0.1,0-0.1-0.1-0.2-0.1c0.1,0,0.1,0.1,0.2,0.1c-0.1,0-0.1-0.1-0.1-0.1c0,0.1,0.1,0.1,0.1,0.2c-0.1-0.1-0.1-0.2-0.2-0.3
				c0,0.1,0.1,0.1,0.1,0.2c-0.1-0.1-0.1-0.3-0.1-0.4c0,0.1,0,0.2,0,0.2c0-0.2,0-0.3,0-0.5c0,0.1,0,0.2,0,0.2c0-0.1,0-0.2,0.1-0.3
				c0,0.1-0.1,0.1-0.1,0.2c0-0.1,0.1-0.1,0.1-0.2c0,0.1-0.1,0.1-0.1,0.2c0,0,0,0,0.1-0.1c-0.1,0-0.1,0.1-0.2,0.1c0,0,0.1,0,0.1,0
				c-0.1,0-0.1,0.1-0.2,0.1c0,0,0.1,0,0.1,0c-0.1,0-0.1,0-0.2,0c0.1,0,0.2,0,0.3,0c-0.1,0-0.1,0-0.2,0c0.1,0,0.2,0,0.2,0
				c-0.1,0-0.1,0-0.2,0c0.2,0,0.3,0,0.4-0.1C40.5,46.3,40.6,46,40.5,45.7L40.5,45.7z"/>
		</g>
	</g>
	<g>
		<g>
			<path class="st0" d="M59,31.5c-0.3,0.6-0.2,1.4-0.2,2c0,0.6,0.1,1.2,0.1,1.8c0.1,1.3,0.1,2.5,0.1,3.8c0,1.1,1.8,1.1,1.7,0
				c0-1.3,0-2.5-0.1-3.8c0-0.6-0.1-1.2-0.1-1.8c0-0.6,0-1.5-0.3-2C59.9,31,59.3,31,59,31.5L59,31.5z"/>
		</g>
	</g>
	<g>
		<g>
			<path class="st0" d="M59.2,32.4c0.6,0.3,1.3,0.5,1.9,0.6c1.2,0.3,2.4,0.6,3.5,0.9c2.5,0.6,5.1,1.2,7.6,1.8
				c0.6,0.1,1.2,0.3,1.8,0.4c1.1,0.2,1.6-1.5,0.5-1.7c-1.6-0.3-3.2-0.8-4.7-1.1c-2.6-0.6-5.2-1.3-7.7-1.9c-0.8-0.2-1.6-0.4-2.4-0.4
				C58.9,31.1,58.6,32.1,59.2,32.4L59.2,32.4z"/>
		</g>
	</g>
	<g>
		<g>
			<path class="st0" d="M73.7,35c-0.6,0.9-0.5,2.3-0.4,3.3c0.1,1.4,0.2,2.7,0.3,4.1c0,1.5-0.1,3,0,4.6c0.1,1.4-0.1,2.9,0.3,4.2
				c0.3,1.1,2,0.6,1.7-0.5c-0.2-0.7-0.1-1.4-0.1-2.1c0-0.6-0.1-1.3-0.1-1.9c-0.1-1.5,0-2.9,0-4.4C75.2,41,75,39.7,75,38.3
				c-0.1-1,0.1-2.1-0.1-3.2C74.8,34.5,74,34.6,73.7,35L73.7,35z"/>
		</g>
	</g>
	<g>
		<g>
			<path class="st0" d="M62.2,48.4c0.4,0.5,1.3,0.8,1.9,1c0.6,0.2,1.1,0.4,1.7,0.5c0.9,0.3,1.8,0.5,2.7,0.7c1.9,0.4,3.9,0.8,5.8,1.2
				c1.1,0.2,1.6-1.4,0.5-1.7c-1.9-0.5-3.8-0.8-5.7-1.2c-0.9-0.2-1.8-0.4-2.7-0.6c-0.5-0.1-1.1-0.3-1.6-0.5c-0.6-0.2-1.4-0.6-2.1-0.5
				C62.1,47.4,61.9,48,62.2,48.4L62.2,48.4z"/>
		</g>
	</g>
	<g>
		<g>
			<path class="st0" d="M60.2,32.3c0.5-0.6,1.4-0.9,2.1-1.3c1.1-0.6,2.2-1.3,3.3-1.9c1.1-0.6,2.3-1,3.4-1.4c1.2-0.4,2.3-0.9,3.4-1.3
				c1-0.4,0.6-2-0.5-1.6c-1.2,0.4-2.4,1-3.7,1.4c-1.3,0.4-2.6,0.9-3.8,1.6c-1.1,0.7-2.3,1.4-3.4,2c-0.8,0.5-1.8,0.9-2.1,1.8
				C58.7,32.2,59.8,32.9,60.2,32.3L60.2,32.3z"/>
		</g>
	</g>
	<g>
		<g>
			<path class="st0" d="M74.6,36c2.1-1,4.1-2,6.2-3c1-0.5,2-0.9,3-1.4c0.9-0.5,1.9-0.8,2.7-1.5c0.7-0.5-0.1-1.6-0.8-1.4
				c-1,0.3-1.9,0.9-2.8,1.4c-1,0.5-2,1-3,1.5c-2.1,1-4.2,1.8-6.1,3.1C73.1,35.3,73.7,36.4,74.6,36L74.6,36z"/>
		</g>
	</g>
	<g>
		<g>
			<path class="st0" d="M71.8,26.1c0.6,0.6,1.7,0.7,2.4,1c1,0.3,1.9,0.6,2.9,0.8c1.5,0.4,3,0.8,4.5,1.2c0.7,0.2,1.5,0.4,2.2,0.7
				c0.7,0.2,1.4,0.6,2.2,0.6c0.8,0,1.2-1.2,0.4-1.5c-1.3-0.6-2.8-1-4.2-1.4c-1.5-0.5-3.1-0.9-4.7-1.2c-0.9-0.2-1.9-0.5-2.8-0.8
				c-0.8-0.2-1.9-0.7-2.7-0.5C71.6,25.1,71.4,25.7,71.8,26.1L71.8,26.1z"/>
		</g>
	</g>
	<g>
		<g>
			<path class="st0" d="M85.3,29.5c0.3,2.8,0.2,5.7,0.3,8.5c0.1,2.6,0.1,5.3,0.3,7.9c0.1,1.1,1.9,1.1,1.8,0
				c-0.2-2.7-0.3-5.4-0.4-8.2c0-1.4,0-2.8-0.1-4.2c-0.1-1.4,0.2-3.3-0.6-4.5C86.2,28.6,85.2,28.8,85.3,29.5L85.3,29.5z"/>
		</g>
	</g>
	<g>
		<g>
			<path class="st0" d="M75.3,51.5c0.5-0.5,1.4-0.8,2.1-1.1c0.6-0.3,1.1-0.6,1.7-0.8c0.9-0.3,1.8-0.6,2.8-1c1.1-0.4,2.2-0.8,3.4-1.1
				c0.6-0.2,1.4-0.4,2-0.7c0.8-0.6,0.3-1.7-0.7-1.5c0.4-0.1-0.1,0-0.3,0.1c-0.1,0-0.3,0.1-0.4,0.2c-0.4,0.2-0.9,0.3-1.3,0.5
				c-1.2,0.4-2.3,0.8-3.5,1.2c-0.9,0.3-1.8,0.6-2.6,0.9c-0.8,0.3-1.5,0.7-2.3,1.1c-0.8,0.4-1.5,0.8-2,1.5
				C73.6,51.3,74.7,52,75.3,51.5L75.3,51.5z"/>
		</g>
	</g>
	<g>
		<g>
			<path class="st0" d="M43.8,50.6c0-0.3-0.1-0.5-0.3-0.7c-0.2-0.1-0.4-0.3-0.6-0.3c-0.4-0.1-0.8,0-1.2,0.2
				c-0.4,0.2-0.6,0.7-0.6,1.2c0,0.4,0.1,0.7,0.3,1.1c0.1,0.2,0.2,0.4,0.3,0.5c0.2,0.4,0.5,0.7,1,0.8c0.5,0.2,0.9,0,1.3-0.3
				c0.1-0.1,0.1-0.1,0.2-0.2c0.1-0.1,0.1-0.1,0.2-0.2c0.1-0.2,0.2-0.4,0.2-0.5c0.1-0.5,0.1-1-0.1-1.4c-0.1-0.2-0.2-0.3-0.3-0.4
				c-0.1-0.1-0.2-0.3-0.4-0.4c-0.1-0.1-0.3-0.1-0.4-0.1c-0.2,0-0.3,0-0.4,0.1c-0.3,0.1-0.4,0.4-0.4,0.7c0,0.1,0,0.2,0,0.3
				c0.1,0.2,0.1,0.3,0.3,0.4c0,0,0.1,0.1,0.1,0.1c0.1,0.1,0.1,0.1,0.2,0.2c0-0.1-0.1-0.1-0.1-0.2c0,0.1,0.1,0.1,0.1,0.2
				c0-0.1-0.1-0.1-0.1-0.2c0,0.1,0,0.1,0.1,0.2c0-0.1,0-0.2,0-0.2c0,0.1,0,0.2,0,0.2c0-0.1,0-0.2,0-0.2c0,0.1-0.1,0.3-0.1,0.4
				c0-0.1,0.1-0.1,0.1-0.2c0,0.1-0.1,0.2-0.1,0.2c0-0.1,0.1-0.1,0.1-0.2c0,0-0.1,0.1-0.1,0.1c0.1,0,0.1-0.1,0.2-0.1
				c0,0-0.1,0-0.1,0.1c0.1,0,0.1-0.1,0.2-0.1c0,0-0.1,0-0.1,0c0.1,0,0.2,0,0.2,0c0,0-0.1,0-0.1,0c0.1,0,0.2,0,0.2,0c0,0-0.1,0-0.1,0
				c0.1,0,0.1,0.1,0.2,0.1c0,0-0.1-0.1-0.1-0.1c0.1,0,0.1,0.1,0.2,0.1c-0.1-0.1-0.1-0.1-0.2-0.2c0,0.1,0.1,0.1,0.1,0.2
				c-0.2-0.3-0.4-0.5-0.5-0.8c0,0.1,0.1,0.1,0.1,0.2c0-0.1-0.1-0.2-0.1-0.4c0,0.1,0,0.2,0,0.2c0-0.1,0-0.1,0-0.2c0,0.1,0,0.2,0,0.2
				c0,0,0-0.1,0-0.1c0,0.1-0.1,0.1-0.1,0.2c0,0,0-0.1,0.1-0.1c0,0.1-0.1,0.1-0.1,0.2c0,0,0.1-0.1,0.1-0.1c-0.1,0-0.1,0.1-0.2,0.1
				c0,0,0.1-0.1,0.1-0.1c-0.1,0-0.1,0.1-0.2,0.1c0.1,0,0.2-0.1,0.3-0.1c-0.1,0-0.1,0-0.2,0c0.1,0,0.2,0,0.3,0c-0.1,0-0.1,0-0.2,0
				c0,0,0,0,0.1,0c0.1,0,0.2,0,0.2,0c-0.1,0-0.1,0-0.2,0c0,0,0,0,0.1,0c-0.1,0-0.1,0-0.2-0.1c0,0,0,0,0,0c0.1,0.1,0.2,0.1,0.3,0.1
				c0.1,0,0.2,0,0.3-0.1C43.7,51.1,43.8,50.8,43.8,50.6L43.8,50.6z"/>
		</g>
	</g>
	<g>
		<g>
			<path class="st0" d="M47.9,55.7c0.1-0.2,0.1-0.3,0.1-0.5c0-0.1,0-0.1,0-0.2c0-0.2,0-0.4,0-0.6c-0.1-0.5-0.4-0.8-0.8-1.1
				c-0.2-0.1-0.4-0.2-0.5-0.2c-0.2-0.1-0.5-0.1-0.7,0c-0.2,0-0.4,0.2-0.6,0.3c-0.2,0.2-0.3,0.4-0.4,0.6C45,54.3,45,54.4,45,54.6
				c0,0.1,0,0.2,0,0.3c0,0.3,0.1,0.6,0.2,0.9c0.1,0.3,0.3,0.7,0.5,0.9c0.2,0.2,0.4,0.3,0.6,0.3c0.2,0.1,0.5,0.1,0.8,0
				c0.5-0.2,0.8-0.5,1.1-0.9c0.1-0.2,0.2-0.4,0.3-0.6c0-0.1,0-0.1,0.1-0.2c0.1-0.2,0-0.4,0-0.6c0-0.1-0.1-0.1-0.1-0.2
				c0-0.1-0.1-0.1-0.1-0.2c-0.1-0.1-0.3-0.2-0.5-0.2c-0.2,0-0.3,0-0.5,0.1c-0.2,0.1-0.3,0.2-0.4,0.4c-0.1,0.2-0.1,0.3-0.2,0.5
				c0-0.1,0.1-0.1,0.1-0.2c-0.1,0.2-0.2,0.3-0.3,0.4c0-0.1,0.1-0.1,0.1-0.2c-0.1,0.1-0.2,0.2-0.3,0.3c0.1,0,0.1-0.1,0.2-0.1
				c-0.1,0-0.1,0.1-0.2,0.1c0.1,0,0.1-0.1,0.2-0.1c0,0-0.1,0-0.1,0c0.1,0,0.2,0,0.2,0c-0.1,0-0.1,0-0.2,0c0.1,0,0.2,0,0.2,0
				c0,0-0.1,0-0.1,0c0.1,0,0.1,0.1,0.2,0.1c0,0-0.1,0-0.1-0.1c0.1,0,0.1,0.1,0.2,0.1c0,0-0.1-0.1-0.1-0.1c0,0.1,0.1,0.1,0.1,0.2
				c-0.1-0.1-0.1-0.2-0.2-0.3c0,0.1,0.1,0.1,0.1,0.2c-0.1-0.2-0.1-0.4-0.2-0.6c0,0.1,0,0.2,0,0.2c0-0.2,0-0.3,0-0.5
				c0,0.1,0,0.2,0,0.2c0-0.1,0-0.2,0.1-0.3c0,0.1-0.1,0.1-0.1,0.2c0,0,0-0.1,0.1-0.1c0,0.1-0.1,0.1-0.1,0.2c0,0,0-0.1,0.1-0.1
				c-0.1,0-0.1,0.1-0.2,0.1c0,0,0.1,0,0.1-0.1c-0.1,0-0.1,0.1-0.2,0.1c0,0,0.1,0,0.1,0c-0.1,0-0.2,0-0.2,0c0,0,0.1,0,0.1,0
				c-0.1,0-0.2,0-0.2,0c0.1,0,0.2,0,0.3,0.1c-0.1,0-0.1-0.1-0.2-0.1c0.1,0.1,0.2,0.1,0.3,0.2c-0.1,0-0.1-0.1-0.2-0.1
				c0.1,0,0.1,0.1,0.1,0.1c0-0.1-0.1-0.1-0.1-0.2c0,0.1,0.1,0.1,0.1,0.2c0-0.1-0.1-0.1-0.1-0.2c0.1,0.1,0.1,0.3,0.1,0.4
				c0-0.1,0-0.1,0-0.2c0,0.1,0,0.1,0,0.2c0,0.2,0,0.3,0.1,0.5C47,56.2,47.7,56.2,47.9,55.7L47.9,55.7z"/>
		</g>
	</g>
	<g>
		<g>
			<path class="st0" d="M58.3,49.3c0-0.1,0-0.2,0-0.3c0-0.2-0.1-0.3-0.2-0.5c-0.1-0.1-0.3-0.2-0.4-0.3c-0.2-0.1-0.5-0.1-0.7,0
				c-0.4,0.1-0.7,0.3-1,0.6c-0.3,0.3-0.5,0.7-0.5,1.1c-0.1,0.4-0.1,0.9,0.1,1.2c0.2,0.4,0.4,0.8,0.9,1c0.2,0.1,0.5,0.2,0.7,0.2
				c0.3,0,0.5-0.1,0.7-0.2c0.3-0.1,0.6-0.4,0.8-0.7c0.2-0.3,0.3-0.6,0.4-0.9c0.1-0.4,0.1-0.8,0-1.2c-0.1-0.3-0.2-0.5-0.4-0.7
				c-0.2-0.2-0.4-0.3-0.7-0.4c-0.2-0.1-0.5,0-0.7,0.1c-0.2,0.1-0.4,0.3-0.4,0.5c-0.1,0.2,0,0.5,0.1,0.7c0.1,0.2,0.3,0.3,0.5,0.4
				c0,0,0,0,0,0c-0.1,0-0.1-0.1-0.2-0.1c0.1,0,0.1,0.1,0.2,0.1c-0.1,0-0.1-0.1-0.2-0.1c0,0,0.1,0.1,0.1,0.1c0-0.1-0.1-0.1-0.1-0.2
				c0,0.1,0.1,0.1,0.1,0.2c0-0.1-0.1-0.1-0.1-0.2c0,0.1,0.1,0.2,0.1,0.3c0-0.1,0-0.2,0-0.2c0,0.1,0,0.3,0,0.4c0-0.1,0-0.2,0-0.2
				c0,0.2-0.1,0.3-0.1,0.5c0-0.1,0.1-0.1,0.1-0.2c-0.1,0.1-0.1,0.3-0.2,0.4c0-0.1,0.1-0.1,0.1-0.2c-0.1,0.1-0.1,0.2-0.2,0.2
				c0.1,0,0.1-0.1,0.2-0.1c-0.1,0-0.1,0.1-0.2,0.1c0.1,0,0.1-0.1,0.2-0.1c0,0-0.1,0-0.2,0c0.1,0,0.2,0,0.2,0c-0.1,0-0.1,0-0.2,0
				c0.1,0,0.2,0,0.2,0c-0.1,0-0.1,0-0.2,0c0.1,0,0.1,0.1,0.2,0.1c-0.1,0-0.1-0.1-0.2-0.1c0.1,0,0.1,0.1,0.2,0.1
				c-0.1-0.1-0.1-0.1-0.2-0.2c0,0.1,0.1,0.1,0.1,0.2c-0.1-0.1-0.1-0.1-0.1-0.2c0,0.1,0.1,0.1,0.1,0.2c0-0.1-0.1-0.2-0.1-0.3
				c0,0.1,0,0.2,0,0.2c0-0.2,0-0.3,0-0.5c0,0.1,0,0.2,0,0.2c0-0.2,0.1-0.3,0.1-0.5c0,0.1-0.1,0.1-0.1,0.2c0.1-0.1,0.1-0.3,0.2-0.4
				c0,0.1-0.1,0.1-0.1,0.2c0.1-0.1,0.1-0.2,0.2-0.2c-0.1,0-0.1,0.1-0.2,0.1c0.1-0.1,0.2-0.1,0.3-0.2c-0.1,0-0.1,0.1-0.2,0.1
				c0.1,0,0.2-0.1,0.2-0.1c-0.1,0-0.1,0-0.2,0c0,0,0.1,0,0.1,0c0.2,0,0.2,0,0.4-0.1c-0.1,0-0.1,0-0.2,0.1c0,0,0.1,0,0.1,0
				c-0.1,0-0.1,0-0.2,0c0,0,0,0,0,0c-0.2-0.1-0.4-0.2-0.5-0.3c-0.1-0.2,0-0.1,0,0c0.1,0.2,0.3,0.4,0.6,0.4
				C57.9,49.7,58.2,49.6,58.3,49.3L58.3,49.3z"/>
		</g>
	</g>
	<g>
		<g>
			<path class="st0" d="M52.8,41.1c0-0.1,0-0.2,0-0.3c0,0.1,0,0.1,0,0.2c0-0.4-0.3-0.8-0.7-1c-0.3-0.2-0.6-0.3-0.9-0.2
				c-0.3,0-0.7,0.1-1,0.3c-0.3,0.2-0.6,0.5-0.7,0.9c-0.1,0.4-0.1,0.8,0.1,1.1c0.2,0.3,0.5,0.5,0.8,0.6c0.1,0,0.3,0.1,0.4,0.1
				c0.2,0,0.3,0,0.5-0.1c0.1,0,0.2-0.1,0.3-0.1c0.1,0,0.2-0.1,0.3-0.2c0.3-0.2,0.5-0.4,0.7-0.7c0.1-0.1,0.1-0.3,0.2-0.5
				c0-0.1,0-0.2,0-0.4c0,0,0-0.1,0-0.1c0-0.1,0-0.2,0-0.3c0-0.1-0.1-0.2-0.1-0.2c0-0.1-0.1-0.1-0.1-0.2c-0.1,0-0.1-0.1-0.2-0.1
				c-0.2-0.1-0.4-0.1-0.6-0.1c-0.2,0-0.3,0.1-0.4,0.2c-0.1,0.1-0.3,0.3-0.3,0.5c0,0.1,0,0.2,0,0.3c0,0,0,0.1,0,0.1
				c0-0.1,0-0.2,0-0.2c0,0.1,0,0.1-0.1,0.2c0-0.1,0.1-0.1,0.1-0.2c0,0.1-0.1,0.1-0.1,0.2c0-0.1,0.1-0.1,0.1-0.2
				c-0.1,0.1-0.1,0.1-0.2,0.2c0.1,0,0.1-0.1,0.2-0.1c-0.1,0.1-0.2,0.1-0.3,0.2c0.1,0,0.1-0.1,0.2-0.1c-0.1,0-0.2,0.1-0.3,0.1
				c0.1,0,0.2,0,0.2,0c-0.1,0-0.2,0-0.2,0c0.1,0,0.2,0,0.2,0c0,0-0.1,0-0.1,0C50.9,41,51,41,51,41c0,0-0.1,0-0.1-0.1
				c0.1,0,0.1,0.1,0.2,0.1c0,0,0,0-0.1-0.1c0,0.1,0.1,0.1,0.1,0.2c0,0,0-0.1-0.1-0.1c0,0.1,0.1,0.1,0.1,0.2c0,0,0-0.1,0-0.1
				c0,0.1,0,0.2,0,0.2c0-0.1,0-0.1,0-0.2c0,0.1,0,0.2,0,0.2c0-0.1,0-0.1,0-0.2c0,0.1-0.1,0.1-0.1,0.2c0,0,0-0.1,0.1-0.1
				c0,0.1-0.1,0.1-0.1,0.2c0,0,0.1-0.1,0.1-0.1c-0.1,0-0.1,0.1-0.2,0.1c0.1,0,0.1-0.1,0.2-0.1c-0.1,0-0.1,0.1-0.2,0.1
				c0.1,0,0.2-0.1,0.4-0.1c-0.1,0-0.2,0-0.2,0c0.1,0,0.3,0,0.4,0c-0.1,0-0.1,0-0.2,0c0.1,0,0.2,0,0.2,0c-0.1,0-0.1,0-0.2,0
				c0.1,0,0.2,0,0.3,0.1c-0.1,0-0.1,0-0.2-0.1c0.1,0,0.2,0.1,0.2,0.1c-0.1,0-0.1,0-0.2-0.1c0,0,0.1,0,0.1,0c0,0-0.1-0.1-0.1-0.1
				c0.1,0.1,0.2,0.1,0.3,0.2c-0.1,0-0.1,0-0.2-0.1c0,0,0,0,0.1,0c0,0-0.1-0.1-0.1-0.1c0,0,0,0,0,0c0.2,0.2,0.4,0.2,0.7,0.1
				C52.6,41.5,52.7,41.3,52.8,41.1L52.8,41.1z"/>
		</g>
	</g>
	<g>
		<g>
			<path class="st0" d="M46.4,38.3c-0.1,0-0.1-0.1-0.2-0.1c-0.1,0-0.2,0-0.2,0c0.1,0,0.1,0,0.2,0c-0.1,0-0.2,0-0.3,0
				c-0.1,0-0.2,0-0.3,0c-0.1,0-0.3,0.1-0.4,0.1c0.1,0,0.1-0.1,0.2-0.1c-0.1,0-0.2,0.1-0.3,0.1c-0.1,0.1-0.2,0.1-0.2,0.2
				c-0.1,0.1-0.2,0.2-0.3,0.3c-0.2,0.2-0.2,0.5-0.3,0.8c0,0.1,0,0.3,0,0.4c0,0.1,0.1,0.2,0.1,0.4c0.2,0.3,0.4,0.5,0.8,0.6
				c0.7,0.2,1.3-0.1,1.8-0.6c0,0,0.1-0.1,0.1-0.1c0.1-0.1,0.2-0.2,0.2-0.3c0.1-0.1,0.1-0.2,0.1-0.3c0,0,0,0,0-0.1c0-0.1,0-0.2,0-0.3
				c0,0,0,0,0-0.1c0-0.1,0-0.2,0-0.3c0-0.1-0.1-0.2-0.1-0.3c-0.1-0.1-0.2-0.2-0.3-0.3c-0.3-0.2-0.6-0.4-1-0.4c-0.2,0-0.3,0-0.5,0.1
				c0,0-0.1,0.1-0.1,0.1c0,0-0.1,0.1-0.1,0.1c-0.2,0.2-0.3,0.5-0.3,0.8c0,0.1,0,0.2,0.1,0.3c0,0.1,0.1,0.2,0.2,0.3
				c0.1,0,0.1,0.1,0.2,0.1c0.1,0.1,0.2,0.1,0.3,0.1c0.1,0,0.1,0,0.2,0c0.1,0,0.2,0,0.3-0.1c0.2-0.1,0.3-0.3,0.4-0.5c0,0,0,0,0-0.1
				c0,0.1-0.1,0.1-0.1,0.2c0,0,0,0,0-0.1c0,0.1-0.1,0.1-0.1,0.2c0,0,0-0.1,0.1-0.1c-0.1,0-0.1,0.1-0.2,0.1c0,0,0,0,0.1,0
				c-0.1,0-0.1,0.1-0.2,0.1c0,0,0,0,0.1,0c-0.1,0-0.2,0-0.2,0c0,0,0.1,0,0.1,0c-0.1,0-0.2,0-0.2,0c0,0,0.1,0,0.1,0
				c-0.1,0-0.1-0.1-0.2-0.1c0.1,0,0.1,0.1,0.1,0.1c-0.1,0-0.1-0.1-0.2-0.1c0,0,0.1,0.1,0.1,0.1c0-0.1-0.1-0.1-0.1-0.2
				c0,0,0,0.1,0.1,0.1c0-0.1-0.1-0.1-0.1-0.2c0,0,0,0.1,0,0.1c0-0.1,0-0.2,0-0.2c0,0,0,0.1,0,0.1c0-0.1,0-0.2,0-0.2c0,0,0,0.1,0,0.1
				c0-0.1,0.1-0.1,0.1-0.2c0,0.1-0.1,0.1-0.1,0.1c0-0.1,0.1-0.1,0.1-0.2c-0.1,0.1-0.2,0.2-0.2,0.2c0.1,0,0.1-0.1,0.2-0.1
				c-0.1,0.1-0.2,0.2-0.4,0.2c0.1,0,0.1-0.1,0.2-0.1c-0.1,0-0.1,0-0.2,0.1c0.1,0,0.2,0,0.2,0c-0.1,0-0.1,0-0.2,0c0.1,0,0.2,0,0.2,0
				c0,0-0.1,0-0.1,0c0.1,0,0.1,0.1,0.2,0.1c0,0-0.1,0-0.1-0.1c0.1,0,0.1,0.1,0.2,0.1c0,0-0.1,0-0.1-0.1c0,0.1,0.1,0.1,0.1,0.2
				c0,0,0-0.1-0.1-0.1c0,0.1,0.1,0.1,0.1,0.2c0,0,0-0.1,0-0.1c0,0.1,0,0.1,0,0.2c0-0.1,0-0.1,0-0.2c0,0.1,0,0.1,0,0.2
				c0-0.1,0-0.1,0.1-0.2c0,0.1-0.1,0.1-0.1,0.2c0-0.1,0.1-0.2,0.1-0.3c0,0.1-0.1,0.1-0.1,0.2c0-0.1,0.1-0.1,0.2-0.2
				c-0.1,0-0.1,0.1-0.2,0.1c0.1,0,0.1-0.1,0.2-0.1c-0.1,0-0.1,0-0.2,0.1c0.1,0,0.2-0.1,0.3-0.1c-0.1,0-0.1,0-0.2,0.1
				c0.1,0,0.1,0,0.2,0c0.1,0,0.2-0.1,0.3-0.2c0.1-0.1,0.2-0.2,0.2-0.4c0-0.1,0-0.2,0-0.3C46.6,38.5,46.5,38.4,46.4,38.3L46.4,38.3z"
				/>
		</g>
	</g>
	<g>
		<g>
			<path class="st0" d="M83.4,34.2c-0.1-0.1-0.3-0.1-0.4-0.1c-0.1,0-0.2,0-0.3,0c-0.2,0-0.3,0.2-0.5,0.3c-0.2,0.2-0.3,0.4-0.4,0.7
				c0,0.3-0.1,0.6,0,0.9c0.1,0.2,0.2,0.3,0.3,0.5c0.1,0.1,0.2,0.2,0.3,0.2c0.2,0.1,0.4,0.2,0.6,0.1c0.2,0,0.3,0,0.5-0.1
				c0.2-0.1,0.4-0.2,0.6-0.3c0.1-0.1,0.2-0.3,0.3-0.5c0.1-0.3,0-0.7-0.1-1c-0.1-0.3-0.3-0.4-0.6-0.6C83.7,34.2,83.5,34.1,83.4,34.2
				C83.3,34,83.1,34,83,34c-0.2,0-0.3,0-0.5,0.1c0,0,0,0,0,0c-0.1,0-0.1,0.1-0.2,0.2c-0.1,0.1-0.1,0.2-0.2,0.2
				c-0.1,0.2-0.1,0.3-0.1,0.5c0,0.1,0,0.1,0,0.2c0,0.1,0.1,0.2,0.1,0.3c0.1,0.1,0.2,0.2,0.4,0.3c0.1,0,0.3,0,0.4,0
				c0.2,0,0.4-0.2,0.5-0.4c0,0,0.1-0.1,0.1-0.1c0,0.1-0.1,0.1-0.1,0.2c0,0,0,0,0.1-0.1c-0.1,0-0.1,0.1-0.2,0.1c0,0,0,0,0.1,0
				c-0.1,0-0.1,0.1-0.2,0.1c0,0,0,0,0.1,0c-0.1,0-0.1,0-0.2,0c0,0,0.1,0,0.1,0c-0.1,0-0.1,0-0.2,0c0,0,0.1,0,0.1,0
				c-0.1,0-0.1-0.1-0.2-0.1c0.1,0,0.1,0.1,0.2,0.1c-0.1,0-0.1-0.1-0.2-0.1c0.1,0.1,0.1,0.1,0.2,0.2c0-0.1-0.1-0.1-0.1-0.2
				c0,0.1,0.1,0.1,0.1,0.2c0-0.1-0.1-0.1-0.1-0.2c0,0,0,0.1,0,0.1c0-0.1,0-0.1,0-0.2c0,0,0,0.1,0,0.1c0-0.1,0-0.1,0-0.2
				c0,0,0,0.1,0,0.1c0-0.1,0.1-0.1,0.1-0.2c0,0,0,0.1-0.1,0.1c0-0.1,0.1-0.1,0.1-0.2c0,0-0.1,0.1-0.1,0.1c0.1,0,0.1-0.1,0.2-0.1
				c-0.1,0-0.1,0.1-0.2,0.1c0.1,0,0.1-0.1,0.2-0.1c-0.1,0-0.2,0.1-0.2,0.1c0.1,0,0.1,0,0.2,0c0,0-0.1,0-0.1,0c0.1,0,0.1,0,0.2,0
				c0,0-0.1,0-0.1,0c0.1,0,0.1,0.1,0.2,0.1c0,0-0.1,0-0.1-0.1c0.1,0,0.1,0.1,0.2,0.1c0,0-0.1-0.1-0.1-0.1c0,0.1,0.1,0.1,0.1,0.2
				c0,0-0.1-0.1-0.1-0.1c0,0.1,0.1,0.1,0.1,0.2c0-0.1-0.1-0.2-0.1-0.2c0,0.1,0,0.1,0,0.2c0-0.1,0-0.2,0-0.3c0,0.1,0,0.1,0,0.2
				c0-0.1,0-0.1,0.1-0.2c0,0.1-0.1,0.1-0.1,0.2c0-0.1,0.1-0.1,0.1-0.2c0,0.1-0.1,0.1-0.1,0.2c0,0,0-0.1,0.1-0.1
				c0,0.1-0.1,0.1-0.1,0.2c0,0,0,0,0.1-0.1c-0.1,0-0.1,0.1-0.2,0.1c0.1,0,0.1-0.1,0.2-0.2c0,0-0.1,0.1-0.1,0.1c0,0,0,0,0.1,0
				c-0.1,0-0.1,0-0.2,0.1c0.1,0,0.1,0,0.2-0.1c0.1,0,0.1-0.1,0.2-0.1c0,0-0.1,0.1-0.1,0.1c0,0,0,0,0,0c0.2-0.1,0.3-0.3,0.3-0.6
				C83.7,34.5,83.6,34.3,83.4,34.2L83.4,34.2z"/>
		</g>
	</g>
	<g>
		<g>
			<path class="st0" d="M83.7,38.9C83.7,38.9,83.7,38.9,83.7,38.9c-0.1-0.1-0.2-0.2-0.2-0.2c-0.1-0.1-0.3-0.1-0.5-0.1
				c-0.3,0-0.6,0.1-0.8,0.4c-0.2,0.2-0.3,0.4-0.4,0.7c-0.1,0.3-0.1,0.5,0,0.8c0,0.1,0.1,0.2,0.1,0.3c0,0,0,0.1,0,0.1
				c0.1,0.2,0.2,0.3,0.4,0.4c0.1,0.1,0.2,0.1,0.3,0.1c0,0,0.1,0,0.1,0c0.1,0,0.2,0,0.3,0c0.1,0,0.2,0,0.3-0.1
				c0.2-0.1,0.4-0.2,0.6-0.4c0.1-0.1,0.2-0.3,0.3-0.4c0.1-0.2,0.2-0.4,0.2-0.7c0-0.1,0-0.2,0-0.3c0-0.1-0.1-0.2-0.1-0.3
				c-0.1-0.1-0.1-0.2-0.2-0.3c-0.1-0.1-0.2-0.2-0.3-0.2c-0.2-0.1-0.4-0.2-0.6-0.2c-0.1,0-0.2,0-0.3,0c0,0,0,0-0.1,0
				c-0.2,0.1-0.3,0.1-0.4,0.3c-0.1,0.1-0.2,0.3-0.3,0.5c0,0.2,0,0.4,0,0.6c0,0.1,0.1,0.2,0.2,0.3c0.1,0,0.1,0.1,0.2,0.1
				c0.1,0.1,0.2,0.1,0.3,0.1c0.1,0,0.1,0,0.2,0c0.1,0,0.1,0,0.2-0.1c0.1,0,0.1-0.1,0.2-0.1c0.1-0.1,0.2-0.1,0.2-0.2
				c0-0.1,0.1-0.1,0.1-0.2c0,0.1-0.1,0.1-0.1,0.2c0,0,0,0,0.1-0.1c-0.1,0-0.1,0.1-0.2,0.1c0,0,0,0,0.1,0c-0.1,0-0.1,0.1-0.2,0.1
				c0,0,0.1,0,0.1,0c-0.1,0-0.1,0-0.2,0c0,0,0.1,0,0.1,0c-0.1,0-0.1,0-0.2,0c0,0,0.1,0,0.1,0c-0.1,0-0.1-0.1-0.2-0.1
				c0,0,0.1,0,0.1,0.1c-0.1,0-0.1-0.1-0.2-0.1c0,0,0.1,0.1,0.1,0.1c0-0.1-0.1-0.1-0.1-0.2c0,0,0,0.1,0.1,0.1c0-0.1-0.1-0.1-0.1-0.2
				c0,0,0,0.1,0,0.1c0-0.1,0-0.1,0-0.2c0,0.1,0,0.1,0,0.2c0-0.1,0-0.1,0-0.2c0,0.1,0,0.1-0.1,0.2c0-0.1,0.1-0.1,0.1-0.2
				c0,0.1-0.1,0.1-0.1,0.2c0-0.1,0.1-0.1,0.1-0.2c0,0.1-0.1,0.1-0.1,0.1c0.1,0,0.1-0.1,0.2-0.1c0,0-0.1,0.1-0.1,0.1
				c0.1,0,0.1-0.1,0.2-0.1c0,0-0.1,0-0.1,0c0.1,0,0.1,0,0.2,0c0,0-0.1,0-0.1,0c0.1,0,0.1,0,0.2,0c-0.1,0-0.1,0-0.2,0
				c0.1,0,0.1,0.1,0.2,0.1c0,0-0.1,0-0.1-0.1c0.1,0,0.1,0.1,0.2,0.1c0,0-0.1-0.1-0.1-0.1c0,0.1,0.1,0.1,0.1,0.2c0,0,0-0.1-0.1-0.1
				c0,0.1,0.1,0.1,0.1,0.2c0-0.1,0-0.1-0.1-0.2c0,0.1,0,0.1,0,0.2c0-0.1,0-0.2,0-0.2c0,0.1,0,0.1,0,0.2c0-0.1,0-0.2,0.1-0.3
				c0,0.1-0.1,0.1-0.1,0.2c0-0.1,0.1-0.1,0.1-0.2c0,0-0.1,0.1-0.1,0.1c0,0,0,0,0,0c0.1-0.1,0.1-0.1,0.2-0.2c0,0-0.1,0.1-0.1,0.1
				c0,0,0,0,0.1-0.1c0,0-0.1,0.1-0.1,0.1c0,0,0,0,0.1,0c-0.1,0-0.1,0-0.2,0.1c0.1,0,0.1-0.1,0.2-0.1c-0.1,0-0.1,0-0.2,0.1
				c0,0,0,0,0.1,0c-0.1,0-0.1,0-0.2,0c0,0,0,0,0.1,0c-0.1,0-0.1,0-0.2,0c0,0,0,0,0,0c0.2,0.1,0.5,0,0.7-0.3c0-0.1,0.1-0.2,0.1-0.3
				C83.9,39.2,83.8,39.1,83.7,38.9L83.7,38.9z"/>
		</g>
	</g>
	<g>
		<g>
			<path class="st0" d="M82,43.8c0,0.1-0.1,0.3-0.1,0.4c0-0.1,0-0.1,0-0.2c0,0.2-0.1,0.5,0,0.7c0,0.1,0.1,0.2,0.1,0.3
				c0,0.1,0.1,0.1,0.2,0.2c0.1,0.1,0.1,0.1,0.2,0.1c0.2,0.1,0.4,0.2,0.6,0.2c0.1,0,0.2,0,0.3,0c0,0,0.1,0,0.1,0
				c0.1,0,0.2-0.1,0.3-0.1c0.1-0.1,0.2-0.1,0.3-0.2c0.1-0.2,0.2-0.3,0.3-0.5c0-0.1,0.1-0.2,0.1-0.4c0-0.1,0-0.3,0-0.4
				c0,0,0-0.1,0-0.1c0-0.1-0.1-0.2-0.1-0.3c-0.2-0.3-0.5-0.5-0.9-0.6c-0.1,0-0.2,0-0.4,0c-0.1,0-0.2,0-0.3,0c-0.1,0-0.2,0.1-0.3,0.1
				c0,0-0.1,0.1-0.1,0.1c0,0-0.1,0.1-0.1,0.1c-0.2,0.2-0.2,0.3-0.3,0.5c-0.1,0.2-0.1,0.3-0.1,0.5c0,0.1,0,0.1,0,0.2
				c0,0.1,0.1,0.2,0.1,0.3c0,0.1,0.1,0.1,0.1,0.1c0.1,0.1,0.2,0.1,0.3,0.1c0.1,0,0.3,0,0.4,0c0.1,0,0.2-0.1,0.3-0.1
				c0.1-0.1,0.2-0.1,0.2-0.2c0.1-0.1,0.1-0.2,0.2-0.3c0-0.1,0-0.1,0.1-0.2c0,0.1-0.1,0.1-0.1,0.2c0,0,0-0.1,0.1-0.1
				c0,0.1-0.1,0.1-0.1,0.2c0,0,0,0,0.1-0.1c-0.1,0-0.1,0.1-0.2,0.1c0,0,0,0,0.1,0c-0.1,0-0.1,0.1-0.2,0.1c0,0,0.1,0,0.1,0
				c-0.1,0-0.1,0-0.2,0c0.1,0,0.2,0,0.3,0c-0.1,0-0.1,0-0.2,0c0.1,0,0.1,0,0.2,0c-0.1,0-0.1-0.1-0.2-0.1c0,0,0.1,0,0.1,0.1
				c-0.1,0-0.1-0.1-0.2-0.1c0,0,0,0,0.1,0.1c0-0.1-0.1-0.1-0.1-0.2c0,0,0,0.1,0.1,0.1c0-0.1-0.1-0.1-0.1-0.2c0,0.1,0,0.1,0.1,0.2
				c0-0.1,0-0.1,0-0.2c0,0.1,0,0.1,0,0.2c0-0.1,0-0.1,0-0.2c0,0,0,0.1,0,0.1c0-0.1,0.1-0.1,0.1-0.2c0,0,0,0.1-0.1,0.1
				c0-0.1,0.1-0.1,0.1-0.2c0,0-0.1,0.1-0.1,0.1c0,0,0.1-0.1,0.1-0.1c0,0-0.1,0.1-0.1,0.1c0.1,0,0.1,0,0.2-0.1c-0.1,0-0.1,0-0.2,0
				c0.1,0,0.1,0,0.2,0c-0.1,0-0.2,0-0.2,0c0.1,0,0.1,0,0.2,0c-0.1,0-0.1,0-0.2,0c0.1,0,0.1,0,0.2,0c-0.1,0-0.1,0-0.2,0
				c0.1,0,0.1,0,0.2,0.1c0,0-0.1,0-0.1-0.1c0,0,0.1,0.1,0.1,0.1c0,0-0.1-0.1-0.1-0.1c0,0,0.1,0.1,0.1,0.1c0,0-0.1-0.1-0.1-0.2
				c0,0.1,0,0.1,0.1,0.2c0-0.1,0-0.1,0-0.2c0,0.1,0,0.1,0,0.2c0,0,0-0.1,0-0.1c0,0.1,0,0.1,0,0.2c0,0,0-0.1,0-0.1
				c0-0.2,0-0.3-0.1-0.5c-0.1-0.1-0.2-0.2-0.4-0.3c-0.1,0-0.3,0-0.5,0.1C82.2,43.5,82.1,43.7,82,43.8L82,43.8z"/>
		</g>
	</g>
	<g>
		<g>
			<path class="st0" d="M78.5,44.2C78.5,44.2,78.5,44.1,78.5,44.2c0,0,0,0.1,0,0.1c0,0,0,0,0,0c0,0.1,0,0.1,0,0.2c0,0,0,0,0,0
				c0,0.1-0.1,0.2-0.1,0.3c0,0,0,0,0,0c-0.1,0.1-0.2,0.2-0.3,0.3c0.1,0,0.1-0.1,0.2-0.1c0.1-0.1,0.2-0.2,0.2-0.3
				c0.1-0.2,0-0.4-0.2-0.6c-0.1-0.1-0.2-0.2-0.4-0.2c-0.2,0-0.4,0.1-0.6,0.2c-0.2,0.1-0.4,0.4-0.6,0.6c-0.1,0.3-0.2,0.5-0.2,0.8
				c0,0.3,0.1,0.6,0.2,0.8c0.1,0.2,0.3,0.3,0.4,0.4c0.2,0.1,0.4,0.1,0.6,0.2c0.2,0,0.3,0,0.5,0c0.2,0,0.4-0.2,0.6-0.3
				c0.1-0.1,0.3-0.3,0.3-0.4c0.1-0.2,0.2-0.3,0.2-0.5c0-0.2,0.1-0.5,0-0.7c-0.1-0.2-0.2-0.4-0.3-0.5c-0.2-0.2-0.4-0.3-0.6-0.3
				c-0.2-0.1-0.5-0.1-0.7,0c-0.1,0-0.2,0.1-0.3,0.1c-0.1,0.1-0.2,0.1-0.3,0.2c-0.2,0.3-0.4,0.7-0.2,1c0.1,0.3,0.3,0.5,0.6,0.6
				c0.1,0,0.3,0,0.4-0.1c0.1-0.1,0.3-0.2,0.4-0.3c0.1-0.1,0.1-0.2,0.1-0.3c0,0.1-0.1,0.1-0.1,0.2c0,0,0,0,0-0.1
				c0,0.1-0.1,0.1-0.1,0.2c0,0,0,0,0.1-0.1c-0.1,0-0.1,0.1-0.2,0.1c0,0,0,0,0.1,0c-0.1,0-0.1,0.1-0.2,0.1c0,0,0.1,0,0.1,0
				c-0.1,0-0.1,0-0.2,0c0,0,0.1,0,0.1,0c-0.1,0-0.1,0-0.2,0c0.1,0,0.1,0,0.2,0c-0.1,0-0.1-0.1-0.2-0.1c0,0,0.1,0,0.1,0.1
				c-0.1,0-0.1-0.1-0.2-0.1c0,0,0.1,0.1,0.1,0.1c0-0.1-0.1-0.1-0.1-0.2c0,0,0,0.1,0.1,0.1c0-0.1-0.1-0.1-0.1-0.2c0,0,0,0.1,0,0.1
				c0-0.1,0-0.1,0-0.2c0,0,0,0.1,0,0.1c0-0.1,0-0.1,0-0.2c0,0.1,0,0.1-0.1,0.2c0-0.1,0.1-0.1,0.1-0.2c0,0.1-0.1,0.2-0.2,0.3
				c0-0.1,0.1-0.1,0.1-0.2c0,0.1-0.1,0.1-0.2,0.2c0.1,0,0.1-0.1,0.2-0.1c0,0-0.1,0.1-0.1,0.1c0.1,0,0.1-0.1,0.2-0.1c0,0-0.1,0-0.1,0
				c0.1,0,0.1,0,0.2,0c-0.1,0-0.2,0-0.3,0c0.1,0,0.1,0,0.2,0c-0.1,0-0.1,0-0.2,0c0.1,0,0.1,0.1,0.2,0.1c0,0-0.1,0-0.1-0.1
				c0.1,0,0.1,0.1,0.2,0.1c0,0-0.1-0.1-0.1-0.1c0,0.1,0.1,0.1,0.1,0.2c0,0,0-0.1-0.1-0.1c0,0.1,0.1,0.1,0.1,0.2c0-0.1,0-0.1,0-0.2
				c0,0.1,0,0.1,0,0.2c0-0.1,0-0.2,0-0.3c0,0.1,0,0.1,0,0.2c0-0.1,0-0.2,0.1-0.3c0,0.1-0.1,0.1-0.1,0.2c0-0.1,0.1-0.2,0.1-0.2
				c0,0.1-0.1,0.1-0.1,0.2c0,0,0-0.1,0.1-0.1c0.1-0.1,0.1-0.2,0.1-0.3c0,0.1,0,0.1-0.1,0.2c0-0.1,0.1-0.1,0.1-0.2
				c0,0-0.1,0.1-0.1,0.1c0.1-0.1,0.2-0.2,0.2-0.3c-0.1,0.1-0.2,0.2-0.3,0.4c0,0,0,0,0,0c0,0-0.1,0-0.1,0.1c0,0,0,0,0,0
				c-0.2,0-0.3,0-0.5-0.1c0,0,0,0,0,0c-0.1-0.1-0.1-0.1-0.2-0.2c0,0,0,0,0,0c0,0,0-0.1-0.1-0.1c0,0,0,0,0,0c0-0.1,0-0.1,0-0.2
				c0,0.2,0.1,0.3,0.2,0.4c0.1,0.1,0.3,0.2,0.4,0.2c0.1,0,0.2,0,0.3-0.1C78.6,44.7,78.7,44.4,78.5,44.2L78.5,44.2z"/>
		</g>
	</g>
	<g>
		<g>
			<path class="st0" d="M77.3,40.2c-0.1,0.1-0.2,0.2-0.3,0.4c-0.1,0.1-0.2,0.3-0.2,0.4c-0.1,0.3,0,0.7,0.1,1
				c0.1,0.1,0.1,0.2,0.2,0.3c0.1,0.1,0.2,0.2,0.3,0.2c0.1,0.1,0.2,0.1,0.4,0.1c0.1,0,0.3,0,0.4,0c0.2,0,0.4-0.1,0.6-0.2
				c0.1-0.1,0.2-0.1,0.3-0.2c0.1-0.2,0.2-0.3,0.3-0.5c0,0,0-0.1,0-0.1c0-0.1,0-0.2,0-0.3c0-0.4-0.1-0.7-0.4-0.9
				c-0.1-0.1-0.2-0.2-0.3-0.2c-0.1-0.1-0.2-0.1-0.4-0.1c-0.2,0-0.4,0-0.6,0c-0.2,0-0.4,0.2-0.5,0.3c-0.2,0.1-0.3,0.3-0.3,0.5
				c0,0.1-0.1,0.2-0.1,0.3c0,0.1,0,0.1,0,0.2c0,0.1,0,0.2,0.1,0.3c0,0.1,0.1,0.2,0.2,0.3c0.1,0.1,0.2,0.1,0.3,0.2
				c0.1,0.1,0.2,0.1,0.3,0.1c0.2,0,0.4-0.1,0.6-0.2c0-0.1,0.1-0.1,0.1-0.2c0.1-0.1,0.1-0.3,0.1-0.4c0,0,0,0,0,0c0,0.1,0,0.1,0,0.2
				c0-0.1,0-0.2,0.1-0.3c0,0.1-0.1,0.1-0.1,0.2c0-0.1,0-0.1,0.1-0.2c0,0.1-0.1,0.1-0.1,0.2c0,0,0.1-0.1,0.1-0.1
				c-0.1,0-0.1,0.1-0.2,0.1c0,0,0.1,0,0.1-0.1c-0.1,0-0.1,0.1-0.2,0.1c0,0,0.1,0,0.1,0c-0.1,0-0.1,0-0.2,0c0,0,0.1,0,0.1,0
				c-0.1,0-0.1,0-0.2,0c0.1,0,0.1,0,0.1,0c-0.1,0-0.1-0.1-0.2-0.1c0,0,0.1,0,0.1,0.1c-0.1,0-0.1-0.1-0.2-0.1c0,0,0.1,0.1,0.1,0.1
				c0-0.1-0.1-0.1-0.1-0.2c0,0,0.1,0.1,0.1,0.1c0-0.1-0.1-0.1-0.1-0.2c0,0,0,0.1,0,0.1c0-0.1,0-0.1,0-0.2c0,0.1,0,0.1,0,0.2
				c0-0.1,0-0.1,0-0.2c0,0.1,0,0.1-0.1,0.2c0-0.1,0.1-0.1,0.1-0.2c0,0,0,0.1-0.1,0.1c0-0.1,0.1-0.1,0.1-0.2c0,0-0.1,0.1-0.1,0.1
				c0.1,0,0.1-0.1,0.2-0.1c0,0-0.1,0-0.1,0.1c0.1,0,0.1-0.1,0.2-0.1c0,0-0.1,0-0.1,0c0.1,0,0.1,0,0.2,0c-0.1,0-0.1,0-0.2,0
				c0.1,0,0.1,0,0.2,0c-0.1,0-0.1,0-0.2,0c0.1,0,0.1,0.1,0.2,0.1c-0.1,0-0.1-0.1-0.2-0.1c0.1,0,0.1,0.1,0.2,0.1c0,0-0.1-0.1-0.1-0.1
				c0,0.1,0.1,0.1,0.1,0.2c0-0.1-0.1-0.1-0.1-0.2c0,0.1,0,0.1,0.1,0.2c0,0,0-0.1,0-0.2c0,0.1,0,0.1,0,0.2c0-0.1,0-0.2,0-0.3
				c0,0.1,0,0.1,0,0.2c0-0.1,0-0.1,0-0.2c0,0,0,0.1-0.1,0.1c0-0.1,0.1-0.1,0.1-0.2c0.1-0.1,0.1-0.3,0.1-0.5c0-0.1-0.1-0.2-0.2-0.3
				C78,40,77.9,40,77.8,40C77.6,40,77.5,40,77.3,40.2L77.3,40.2z"/>
		</g>
	</g>
	<g>
		<g>
			<path class="st0" d="M77.3,36.4c-0.1,0.2-0.2,0.3-0.3,0.5c-0.1,0.3-0.2,0.5-0.2,0.8c0,0.2,0.1,0.4,0.2,0.6
				c0.1,0.2,0.3,0.3,0.5,0.4c0.2,0.1,0.4,0.2,0.7,0.2c0.1,0,0.2,0,0.3,0c0.1,0,0.2-0.1,0.3-0.1c0.2-0.1,0.3-0.3,0.5-0.4
				c0,0,0.1-0.1,0.1-0.1c0-0.1,0.1-0.2,0.1-0.3c0.1-0.3,0.1-0.6,0-0.8c0-0.1-0.1-0.3-0.2-0.4c-0.1-0.1-0.2-0.2-0.3-0.3
				c-0.2-0.2-0.4-0.3-0.7-0.4c-0.4-0.1-0.7,0-1,0.2c-0.2,0.1-0.3,0.3-0.4,0.5c-0.1,0.2,0,0.4,0,0.6c0,0.2,0.2,0.4,0.4,0.5
				c0.1,0,0.1,0.1,0.2,0.1c0.1,0,0.2,0,0.3,0c0.2,0,0.3-0.1,0.4-0.2c0-0.1,0.1-0.1,0.1-0.2c0.1-0.1,0.1-0.2,0.1-0.4c0,0,0,0,0,0
				c0,0.1,0,0.1,0,0.2c0,0,0-0.1,0-0.1c0,0.1-0.1,0.1-0.1,0.2c0,0,0-0.1,0.1-0.1c0,0.1-0.1,0.1-0.1,0.2c0,0,0,0,0.1-0.1
				c-0.1,0-0.1,0.1-0.2,0.1c0,0,0,0,0.1,0c-0.1,0-0.1,0.1-0.2,0.1c0,0,0.1,0,0.1,0c-0.1,0-0.1,0-0.2,0c0,0,0.1,0,0.1,0
				c-0.1,0-0.1,0-0.2,0c0.1,0,0.1,0,0.2,0c-0.1,0-0.1-0.1-0.2-0.1c0.1,0,0.1,0.1,0.2,0.1c-0.1,0-0.1-0.1-0.2-0.1
				c0.1,0.1,0.1,0.1,0.2,0.2c0-0.1-0.1-0.1-0.1-0.2c0,0.1,0.1,0.1,0.1,0.2c0-0.1-0.1-0.1-0.1-0.2c0,0.1,0,0.1,0,0.2
				c0-0.1,0-0.1,0-0.2c0,0.1,0,0.1,0,0.2c0-0.1,0-0.1,0-0.2c0,0.1,0,0.1,0,0.2c0-0.1,0.1-0.1,0.1-0.2c0,0.1-0.1,0.1-0.1,0.2
				c0-0.1,0.1-0.1,0.1-0.2c0,0-0.1,0.1-0.1,0.1c0.1,0,0.1-0.1,0.2-0.1c0,0-0.1,0-0.1,0.1c0.1,0,0.1-0.1,0.2-0.1c0,0-0.1,0-0.1,0
				c0.1,0,0.1,0,0.2,0c0,0-0.1,0-0.1,0c0.1,0,0.1,0,0.2,0c-0.1,0-0.2,0-0.2-0.1c0.1,0,0.1,0,0.2,0.1c-0.1,0-0.1,0-0.1-0.1
				c0,0,0.1,0.1,0.1,0.1c0,0-0.1-0.1-0.1-0.1c0,0,0.1,0.1,0.1,0.1c0,0,0-0.1-0.1-0.1c0,0.1,0,0.1,0.1,0.2c0-0.1,0-0.1,0-0.2
				c0,0.1,0,0.1,0,0.2c0-0.1,0-0.1,0-0.2c0,0.1,0,0.1,0,0.2c0-0.1,0.1-0.3,0.1-0.4c0,0.1,0,0.1-0.1,0.2c0-0.1,0.1-0.2,0.2-0.3
				c0.1-0.1,0.1-0.3,0.1-0.5c0-0.2-0.2-0.3-0.3-0.4c-0.2-0.1-0.3-0.1-0.5-0.1C77.5,36.2,77.4,36.3,77.3,36.4L77.3,36.4z"/>
		</g>
	</g>
	<g>
		<g>
			<path class="st0" d="M67.1,29.5c-0.1,0-0.3,0-0.4,0.1c-0.2,0.1-0.3,0.1-0.5,0.3c-0.2,0.2-0.4,0.5-0.4,0.8c0,0.3,0.2,0.6,0.4,0.9
				c0.2,0.2,0.5,0.4,0.7,0.4c0.1,0,0.3,0.1,0.5,0c0.1,0,0.2,0,0.3-0.1c0.1,0,0.2-0.1,0.3-0.1c0.1-0.1,0.3-0.2,0.4-0.3
				c0.2-0.1,0.2-0.3,0.3-0.5c0.1-0.2,0.1-0.6,0-0.8c-0.1-0.3-0.2-0.5-0.4-0.7c-0.1-0.1-0.2-0.2-0.4-0.2c-0.1,0-0.2-0.1-0.3-0.1
				c-0.1,0-0.2,0-0.3,0c-0.1,0-0.3,0-0.4,0.1c-0.2,0.1-0.3,0.1-0.4,0.2c-0.2,0.2-0.2,0.4-0.2,0.6c0,0.2,0,0.3,0.1,0.4
				c0.1,0.2,0.3,0.3,0.5,0.4c-0.1,0-0.1-0.1-0.2-0.1c0,0,0,0,0,0c0.1,0.1,0.2,0.1,0.4,0.1c0.1,0,0.2,0,0.3-0.1
				c0.1,0,0.2-0.1,0.2-0.1c0.1-0.1,0.2-0.2,0.2-0.3c0,0,0,0,0,0c0,0.1-0.1,0.1-0.1,0.2c0.1-0.1,0.1-0.2,0.1-0.4c0-0.1,0-0.2,0-0.2
				c0,0.1,0,0.1,0,0.2c0,0,0,0,0,0c0,0.1,0,0.1,0,0.2c0,0,0,0,0,0c0,0.1-0.1,0.1-0.1,0.2c0,0,0,0,0,0c-0.2,0.1-0.3,0.2-0.5,0.4
				c0.1,0,0.1,0,0.2,0c-0.1,0-0.1,0-0.2,0c0.1,0,0.1,0,0.2,0c-0.1,0-0.1,0-0.2,0c0.1,0,0.1,0,0.2,0c-0.1,0-0.1-0.1-0.2-0.1
				c0.1,0,0.1,0.1,0.2,0.1c-0.1,0-0.1-0.1-0.2-0.1c0.1,0,0.1,0.1,0.1,0.1c0-0.1-0.1-0.1-0.1-0.2c0,0.1,0.1,0.1,0.1,0.2
				c0-0.1-0.1-0.1-0.1-0.2c0,0.1,0,0.1,0,0.2c0-0.1,0-0.1,0-0.2c0,0,0,0.1,0,0.1c0-0.1,0-0.1,0-0.2c0,0,0,0.1,0,0.1
				c0-0.1,0.1-0.1,0.1-0.2c0,0,0,0.1-0.1,0.1c0-0.1,0.1-0.1,0.1-0.2c0,0-0.1,0.1-0.1,0.1c0.1,0,0.1-0.1,0.2-0.1
				c-0.1,0-0.1,0.1-0.2,0.1c0.1,0,0.1-0.1,0.2-0.1c-0.1,0-0.2,0.1-0.3,0.1c0.1,0,0.1,0,0.2,0c-0.1,0-0.1,0-0.2,0c0.1,0,0.1,0,0.2,0
				c-0.1,0-0.1,0-0.2,0c0.1,0,0.1,0.1,0.2,0.1c-0.1,0-0.1-0.1-0.2-0.1c0.1,0,0.1,0.1,0.2,0.1c0,0-0.1-0.1-0.1-0.1
				c0,0.1,0.1,0.1,0.1,0.2c0,0-0.1-0.1-0.1-0.1c0,0.1,0.1,0.1,0.1,0.2c0-0.1,0-0.1,0-0.2c0,0.1,0,0.1,0,0.2c0,0,0-0.1,0-0.1
				c0,0.1,0,0.1,0,0.2c0,0,0-0.1,0-0.1c0,0.1,0,0.1-0.1,0.2c0,0,0-0.1,0.1-0.1c0,0-0.1,0.1-0.1,0.1c0-0.1,0.1-0.1,0.1-0.1
				c0,0-0.1,0.1-0.1,0.1c0.1,0,0.1-0.1,0.2-0.1c0,0,0.1-0.1,0.1-0.1c0.1-0.1,0.1-0.1,0.1-0.2c0-0.1,0.1-0.3,0-0.4
				C67.6,29.6,67.4,29.5,67.1,29.5L67.1,29.5z"/>
		</g>
	</g>
	<g>
		<g>
			<path class="st0" d="M71.5,30.8c0.1,0.1,0.2,0.3,0.3,0.4c0.1,0.2,0.3,0.4,0.5,0.6c0,0,0.1,0,0.1,0.1c0.1,0,0.2,0.1,0.3,0.1
				c0.2,0,0.4,0,0.6,0c0.2-0.1,0.4-0.2,0.5-0.3c0.1-0.1,0.1-0.2,0.2-0.3c0,0,0.1-0.1,0.1-0.1c0-0.1,0.1-0.2,0.1-0.3
				c0-0.1,0-0.2,0.1-0.3c0-0.1,0-0.3,0-0.4c-0.1-0.4-0.3-0.6-0.6-0.8c0,0-0.1,0-0.1-0.1c-0.1,0-0.2-0.1-0.3-0.1c0,0-0.1,0-0.1,0
				c-0.1,0-0.2,0-0.3,0c-0.1,0-0.3,0-0.4,0.1c-0.1,0-0.3,0.1-0.4,0.2c-0.1,0.1-0.2,0.2-0.3,0.3c-0.1,0.1-0.1,0.2-0.2,0.3
				c0,0.1-0.1,0.2-0.1,0.3c0,0.1,0,0.2,0,0.3c0,0,0,0,0,0.1c0,0.1,0,0.1,0,0.2c0,0.1,0,0.1,0,0.2c0,0.1,0.1,0.2,0.1,0.3
				c0.1,0.1,0.2,0.3,0.4,0.4c0.1,0.1,0.2,0.1,0.4,0.1c0.1,0,0.3,0,0.4-0.1c0.1-0.1,0.2-0.2,0.3-0.3c0.1-0.1,0.1-0.2,0.1-0.4
				c0,0,0,0,0,0c0,0.1,0,0.1,0,0.2c0-0.1,0-0.2,0-0.3c0-0.1,0-0.1,0-0.2c0,0.1,0,0.1,0,0.2c0-0.1,0-0.2,0-0.3c0,0.1,0,0.1,0,0.2
				c0-0.1,0-0.1,0-0.2c0,0.1-0.1,0.1-0.1,0.2c0,0,0-0.1,0.1-0.1c0,0.1-0.1,0.1-0.1,0.2c0,0,0.1-0.1,0.1-0.1c-0.1,0-0.1,0.1-0.2,0.1
				c0.1,0,0.1-0.1,0.2-0.1c-0.1,0-0.1,0.1-0.2,0.1c0.1,0,0.1,0,0.2-0.1c-0.1,0-0.1,0-0.2,0c0.1,0,0.2,0,0.3,0c-0.1,0-0.1,0-0.2,0
				c0.1,0,0.2,0,0.2,0.1c-0.1,0-0.1-0.1-0.2-0.1c0.1,0,0.1,0.1,0.2,0.1c-0.1,0-0.1-0.1-0.2-0.1c0,0,0.1,0.1,0.1,0.1
				c0-0.1-0.1-0.1-0.1-0.2c0,0,0.1,0.1,0.1,0.1c0-0.1-0.1-0.1-0.1-0.2c0,0,0,0.1,0,0.2c0-0.1,0-0.1,0-0.2c0,0.1,0,0.1,0,0.2
				c0-0.1,0-0.1,0-0.2c0,0.1,0,0.1-0.1,0.2c0-0.1,0.1-0.1,0.1-0.2c0,0.1-0.1,0.2-0.1,0.2c0,0,0.1-0.1,0.1-0.1c0,0-0.1,0.1-0.1,0.1
				c0,0,0.1-0.1,0.1-0.1c0,0-0.1,0-0.1,0.1c0.1,0,0.1,0,0.2-0.1c0,0-0.1,0-0.1,0c0.1,0,0.1,0,0.2,0c0,0-0.1,0-0.1,0
				c0.1,0,0.1,0,0.2,0c0,0-0.1,0-0.1,0c0.1,0,0.1,0,0.2,0.1c-0.1,0-0.2-0.1-0.2-0.1c0,0,0.1,0.1,0.1,0.1c-0.1-0.1-0.2-0.2-0.3-0.3
				c0,0,0.1,0.1,0.1,0.1c-0.1-0.1-0.1-0.2-0.2-0.2c-0.1-0.1-0.2-0.2-0.4-0.3c-0.1,0-0.3,0-0.5,0.1C71.5,30.2,71.4,30.5,71.5,30.8
				L71.5,30.8z"/>
		</g>
	</g>
	<g>
		<g>
			<path class="st0" d="M78.1,30.2C78.1,30.2,78.1,30.2,78.1,30.2c0,0.1,0,0.1,0,0.1c0,0.2,0,0.2,0.1,0.4c0-0.1,0-0.1-0.1-0.2
				c0.1,0.2,0.1,0.3,0.3,0.5c0.1,0.1,0.2,0.2,0.3,0.2c0.2,0.1,0.5,0.2,0.7,0.2c0.2,0,0.5,0,0.7-0.1c0.2-0.1,0.3-0.1,0.4-0.3
				c0,0,0,0,0.1-0.1c0.1-0.1,0.1-0.2,0.2-0.2c0.3-0.6,0.2-1.3-0.3-1.7c-0.1-0.1-0.2-0.2-0.4-0.2c-0.1,0-0.3-0.1-0.4-0.1
				c-0.1,0-0.3,0-0.4,0c-0.1,0-0.1,0-0.2,0.1c-0.1,0.1-0.3,0.1-0.4,0.2c-0.2,0.1-0.3,0.2-0.4,0.4c-0.1,0.1-0.1,0.3-0.2,0.4
				c-0.1,0.3,0,0.7,0.2,1c0.2,0.2,0.4,0.2,0.6,0.2c0.2,0,0.4-0.2,0.6-0.4c0.1-0.2,0.1-0.4,0.1-0.5c0,0.1,0,0.1,0,0.2
				c0-0.1,0-0.1,0-0.2c0,0.1-0.1,0.1-0.1,0.2c0-0.1,0.1-0.1,0.1-0.2c0,0.1-0.1,0.1-0.1,0.2c0,0,0-0.1,0.1-0.1c0,0.1-0.1,0.1-0.1,0.2
				c0,0,0.1-0.1,0.1-0.1c-0.1,0-0.1,0.1-0.2,0.1c0.1,0,0.1-0.1,0.2-0.1c-0.1,0-0.1,0.1-0.2,0.1c0.1,0,0.1-0.1,0.2-0.1
				c-0.1,0-0.1,0-0.2,0c0.1,0,0.1,0,0.2,0c-0.1,0-0.1,0-0.2,0c0.1,0,0.1,0,0.2,0c-0.1,0-0.1-0.1-0.2-0.1c0,0,0.1,0,0.1,0.1
				c-0.1,0-0.1-0.1-0.2-0.1c0,0,0.1,0.1,0.1,0.1c0-0.1-0.1-0.1-0.1-0.2c0,0,0,0.1,0.1,0.1c0-0.1-0.1-0.1-0.1-0.2c0,0,0,0.1,0,0.1
				c0-0.1,0-0.1,0-0.2c0,0.1,0,0.1,0,0.2c0-0.1,0-0.1,0-0.2c0,0.1,0,0.1,0,0.2c0-0.1,0.1-0.1,0.1-0.2c0,0,0,0.1-0.1,0.1
				c0-0.1,0.1-0.1,0.1-0.2c0,0-0.1,0.1-0.1,0.1c0.1,0,0.1-0.1,0.2-0.1c-0.1,0-0.1,0.1-0.2,0.1c0.1,0,0.1-0.1,0.2-0.1
				c-0.1,0-0.1,0-0.2,0.1c0.1,0,0.1,0,0.2,0c-0.1,0-0.2,0-0.3,0c0.1,0,0.1,0,0.2,0c-0.1,0-0.2,0-0.3-0.1c0.1,0,0.1,0,0.2,0.1
				c-0.1,0-0.1-0.1-0.2-0.1c0,0,0.1,0.1,0.1,0.1c0,0-0.1-0.1-0.1-0.1c0,0,0.1,0.1,0.1,0.1c-0.1-0.1-0.1-0.2-0.3-0.3
				c0,0,0.1,0.1,0.1,0.1c0,0,0,0,0,0c0,0,0.1,0.1,0.1,0.1c0,0,0,0,0,0c-0.1-0.2-0.5-0.4-0.7-0.3c-0.1,0-0.2,0.1-0.3,0.2
				C78.2,29.8,78.1,30,78.1,30.2L78.1,30.2z"/>
		</g>
	</g>
	<g>
		<g>
			<path class="st0" d="M63.6,37c0.2,0,0.3-0.2,0.4-0.3c0,0-0.1,0.1-0.1,0.1c0.1-0.1,0.1-0.1,0.1-0.2c0,0,0-0.1,0-0.1
				c0-0.1,0-0.3,0-0.4c-0.1-0.2-0.1-0.3-0.2-0.4c-0.1-0.2-0.3-0.3-0.6-0.3c-0.3-0.1-0.6,0-0.8,0.1c-0.2,0.1-0.3,0.3-0.4,0.4
				c-0.1,0.2-0.1,0.4-0.2,0.6c0,0.2,0,0.3,0,0.5c0,0.1,0,0.2,0.1,0.3c0.1,0.1,0.1,0.3,0.2,0.4c0.1,0.1,0.2,0.2,0.3,0.3
				c0.2,0.1,0.4,0.3,0.6,0.3c0.4,0.1,0.8,0,1.1-0.2c0.2-0.1,0.3-0.3,0.5-0.5c0.1-0.1,0.2-0.3,0.2-0.4c0-0.2,0.1-0.3,0.1-0.5
				c0-0.3-0.1-0.4-0.2-0.7c-0.1-0.2-0.3-0.4-0.5-0.5c-0.2-0.1-0.4-0.2-0.7-0.2c-0.1,0-0.2,0-0.4,0c-0.1,0-0.2,0.1-0.3,0.1
				c-0.2,0.1-0.3,0.2-0.4,0.4c-0.1,0.2-0.1,0.3-0.1,0.5c0,0.1,0,0.3,0.1,0.4c0.1,0.1,0.2,0.2,0.4,0.3c0.1,0.1,0.3,0.1,0.4,0.1
				C63.4,37.1,63.6,37.1,63.6,37C63.7,36.9,63.7,36.9,63.6,37C63.6,37,63.6,37,63.6,37c0,0,0.1,0,0.1-0.1c0,0,0,0,0.1-0.1
				C63.8,36.9,63.7,36.9,63.6,37c0.1,0,0.1-0.1,0.1-0.1C63.7,36.9,63.6,37,63.6,37C63.6,37,63.6,37,63.6,37c0,0-0.1,0-0.2,0
				C63.5,37,63.5,37,63.6,37c-0.1,0-0.2,0-0.3,0c0.1,0,0.1,0,0.2,0c-0.1,0-0.1-0.1-0.2-0.1c0,0,0.1,0,0.1,0.1
				c-0.1,0-0.1-0.1-0.2-0.1c0,0,0.1,0.1,0.1,0.1c0-0.1-0.1-0.1-0.1-0.2c0,0,0.1,0.1,0.1,0.2c0-0.1-0.1-0.1-0.1-0.2
				c0,0.1,0,0.1,0,0.2c0-0.1,0-0.1,0-0.2c0,0.1,0,0.1,0,0.2c0-0.1,0-0.1,0-0.2c0,0.1,0,0.1-0.1,0.2c0-0.1,0.1-0.1,0.1-0.2
				c0,0.1-0.1,0.1-0.1,0.2c0-0.1,0.1-0.1,0.1-0.2c0,0.1-0.1,0.1-0.1,0.1c0.1,0,0.1-0.1,0.2-0.1c0,0-0.1,0.1-0.1,0.1
				c0.1,0,0.1-0.1,0.2-0.1c-0.1,0-0.1,0-0.2,0c0.1,0,0.1,0,0.2,0c0,0-0.1,0-0.1,0c0.1,0,0.1,0,0.2,0c-0.1,0-0.1,0-0.2,0
				c0.1,0,0.1,0.1,0.2,0.1c0,0-0.1,0-0.1-0.1c0.1,0,0.1,0.1,0.2,0.1c0,0-0.1-0.1-0.1-0.1C63.6,36.8,63.6,36.9,63.6,37
				c0-0.1-0.1-0.2-0.1-0.3c0,0.1,0.1,0.1,0.1,0.2c0-0.1-0.1-0.2-0.1-0.2c0,0.1,0.1,0.1,0.1,0.2c0-0.1-0.1-0.2-0.1-0.3
				c0,0.1,0,0.1,0,0.2c0-0.1,0-0.2,0-0.2c0,0.1,0,0.1,0,0.2c0-0.1,0-0.1,0-0.2c0,0.1-0.1,0.1-0.1,0.2c0,0,0-0.1,0.1-0.1
				c0,0.1-0.1,0.1-0.1,0.2c0,0,0.1-0.1,0.1-0.1c-0.1,0-0.1,0.1-0.2,0.1c0,0,0,0,0.1,0c-0.1,0-0.1,0.1-0.2,0.1c0,0,0.1,0,0.1,0
				c-0.1,0-0.1,0-0.2,0c0,0,0.1,0,0.1,0c-0.1,0-0.1,0-0.2,0c0.1,0,0.2,0,0.2,0c-0.1,0-0.1,0-0.2,0c0,0,0.1,0,0.1,0
				c-0.1,0-0.1,0-0.2-0.1c0,0,0.1,0,0.1,0.1c0,0-0.1-0.1-0.1-0.1c0,0,0,0,0,0c0,0-0.1-0.1-0.1-0.1c0.1,0.1,0.1,0.2,0.3,0.3
				c0,0-0.1-0.1-0.1-0.1c0,0,0,0,0,0c0,0-0.1-0.1-0.1-0.1c0.1,0.1,0.1,0.2,0.2,0.2c-0.1-0.1-0.2-0.2-0.2-0.2c0,0.1,0.1,0.1,0.1,0.2
				C63.2,37,63.4,37,63.6,37L63.6,37z"/>
		</g>
	</g>
	<g>
		<g>
			<path class="st0" d="M70.5,37c-0.1,0-0.3,0-0.4,0c-0.1,0-0.2,0-0.2,0.1c-0.1,0-0.2,0.1-0.3,0.1c-0.1,0.1-0.2,0.1-0.3,0.2
				c0,0,0.1-0.1,0.1-0.1c-0.1,0-0.1,0.1-0.2,0.1c-0.1,0.1-0.1,0.1-0.1,0.2c0,0,0,0.1-0.1,0.1c-0.1,0.2-0.1,0.3-0.1,0.6
				c0,0,0,0.1,0,0.1c0,0.1,0,0.2,0,0.3c0,0.1,0.1,0.3,0.1,0.4c0.1,0.1,0.1,0.2,0.2,0.3c0.1,0.1,0.2,0.2,0.3,0.3
				c0.1,0.1,0.2,0.1,0.4,0.2c0,0,0.1,0,0.1,0c0.1,0,0.2,0,0.3,0c0.1,0,0.2,0,0.3,0c0,0,0.1,0,0.1,0c0.2-0.1,0.3-0.2,0.5-0.3
				c0,0,0.1-0.1,0.1-0.1c0.1-0.1,0.1-0.2,0.2-0.3c0.1-0.1,0.2-0.3,0.2-0.5c0-0.1,0-0.2,0-0.3c0,0,0-0.1,0-0.1c0-0.1,0-0.2-0.1-0.3
				c0-0.1-0.1-0.2-0.1-0.3c0,0,0-0.1-0.1-0.1c-0.1-0.1-0.1-0.2-0.2-0.3c0,0-0.1-0.1-0.1-0.1c-0.1-0.1-0.2-0.1-0.3-0.2
				c-0.1-0.1-0.2-0.1-0.3-0.1c0,0-0.1,0-0.1,0c-0.1,0-0.2,0-0.3,0c-0.1,0-0.2,0-0.3,0c0,0,0,0-0.1,0c-0.1,0-0.2,0.1-0.2,0.1
				c0,0,0,0-0.1,0c-0.1,0-0.1,0.1-0.2,0.2c0,0,0,0,0,0c-0.1,0.1-0.1,0.1-0.2,0.2c-0.1,0.1-0.1,0.2-0.2,0.3c0,0,0,0.1,0,0.1
				c0,0.2,0,0.3,0,0.5c0-0.1,0-0.1,0-0.2c0,0,0,0,0,0.1c0,0.1,0,0.1,0,0.2c0,0.1,0.1,0.2,0.1,0.3c0,0.1,0.1,0.1,0.1,0.1
				c0.1,0.1,0.2,0.1,0.3,0.1c0.1,0,0.3,0,0.4,0c0.2,0,0.3-0.2,0.5-0.4c0,0,0,0,0,0c0,0.1-0.1,0.1-0.1,0.2c0.1-0.1,0.2-0.3,0.3-0.4
				c0,0.1-0.1,0.1-0.1,0.2c0-0.1,0.1-0.1,0.2-0.2c-0.1,0-0.1,0.1-0.2,0.1c0,0,0.1-0.1,0.1-0.1c-0.1,0-0.1,0.1-0.2,0.1
				c0,0,0.1,0,0.1,0c-0.1,0-0.1,0-0.2,0c0,0,0.1,0,0.1,0c-0.1,0-0.1,0-0.2,0c0.1,0,0.1,0,0.2,0c-0.1,0-0.1-0.1-0.2-0.1
				c0.1,0,0.1,0.1,0.1,0.1c-0.1,0-0.1-0.1-0.2-0.1c0,0,0.1,0.1,0.1,0.1c0-0.1-0.1-0.1-0.1-0.2c0,0.1,0.1,0.1,0.1,0.2
				c0-0.1-0.1-0.1-0.1-0.2c0,0.1,0,0.1,0,0.2c0-0.1,0-0.1,0-0.2c0,0.1,0,0.1,0,0.2c0-0.1,0-0.1,0-0.2c0,0.1,0,0.2-0.1,0.2
				c0-0.1,0.1-0.1,0.1-0.2c0,0.1-0.1,0.2-0.1,0.2c0-0.1,0.1-0.1,0.1-0.2c0,0.1-0.1,0.1-0.1,0.1c0.1,0,0.1-0.1,0.2-0.1
				c0,0-0.1,0.1-0.1,0.1c0.1,0,0.1-0.1,0.2-0.1c0,0-0.1,0-0.1,0c0.1,0,0.1,0,0.2,0c0,0-0.1,0-0.1,0c0.1,0,0.1,0,0.2,0
				c-0.1,0-0.1,0-0.2,0c0.1,0,0.1,0.1,0.2,0.1c-0.1,0-0.1-0.1-0.2-0.1c0.1,0,0.1,0.1,0.2,0.1c-0.1,0-0.1-0.1-0.2-0.2
				c0,0.1,0.1,0.1,0.1,0.2c0-0.1-0.1-0.1-0.1-0.2c0,0.1,0.1,0.1,0.1,0.2c0-0.1,0-0.1-0.1-0.2c0,0.1,0,0.1,0,0.2c0-0.1,0-0.1,0-0.2
				c0,0.1,0,0.1,0,0.2c0-0.1,0-0.1,0-0.2c0,0.1,0,0.1-0.1,0.2c0-0.1,0.1-0.1,0.1-0.2c0,0-0.1,0.1-0.1,0.1c0-0.1,0.1-0.1,0.1-0.1
				c0,0-0.1,0.1-0.1,0.1c0.1,0,0.1-0.1,0.2-0.1c-0.1,0-0.1,0-0.2,0.1c0.1,0,0.2-0.1,0.3-0.1c0.1,0,0.3-0.2,0.4-0.3
				c0.1-0.1,0.1-0.2,0.1-0.4c0-0.1-0.1-0.3-0.2-0.3C70.8,37.1,70.7,37,70.5,37L70.5,37z"/>
		</g>
	</g>
	<g>
		<g>
			<path class="st0" d="M69,44c-0.1,0.1-0.1,0.2-0.2,0.3c-0.1,0.1-0.1,0.2-0.2,0.3c-0.1,0.2-0.1,0.4-0.1,0.6c0,0.3,0.1,0.5,0.3,0.7
				c0.2,0.2,0.4,0.3,0.6,0.4c0.2,0.1,0.4,0.1,0.6,0.1c0.4,0,0.9-0.1,1.1-0.5c0.3-0.3,0.5-0.8,0.5-1.3c0-0.4-0.2-0.9-0.5-1.2
				c-0.1-0.2-0.3-0.3-0.5-0.5c-0.2-0.1-0.5-0.2-0.7-0.2c-0.4,0-0.8,0.1-1.1,0.4c-0.3,0.3-0.4,0.6-0.5,1c0,0.2-0.1,0.4-0.1,0.6
				c0,0.2,0,0.4,0.1,0.5c0,0.1,0.1,0.1,0.1,0.2c0,0.1,0.1,0.2,0.2,0.2c0.1,0.1,0.3,0.2,0.5,0.2c0.1,0,0.3,0,0.4-0.1
				c0.1-0.1,0.3-0.3,0.4-0.5c0-0.2,0.1-0.4,0.1-0.5c0,0.1,0,0.1,0,0.2c0-0.2,0.1-0.5,0.2-0.7c0,0.1-0.1,0.1-0.1,0.2
				c0-0.1,0.1-0.2,0.1-0.2c0,0.1-0.1,0.1-0.1,0.2c0,0,0.1-0.1,0.1-0.1c-0.1,0-0.1,0.1-0.2,0.1c0,0,0.1,0,0.1-0.1
				c-0.1,0-0.1,0.1-0.2,0.1c0,0,0.1,0,0.1,0c-0.1,0-0.1,0-0.2,0c0.1,0,0.1,0,0.2,0c-0.1,0-0.1,0-0.2,0c0.1,0,0.1,0,0.2,0
				c-0.1,0-0.1-0.1-0.2-0.1c0.1,0,0.1,0.1,0.2,0.1c-0.1,0-0.1-0.1-0.2-0.1c0.1,0.1,0.1,0.1,0.2,0.2c0-0.1-0.1-0.1-0.1-0.2
				c0.1,0.1,0.1,0.2,0.2,0.3c0-0.1-0.1-0.1-0.1-0.2c0,0.1,0.1,0.2,0.1,0.3c0-0.1,0-0.1,0-0.2c0,0.1,0,0.2,0,0.2c0-0.1,0-0.1,0-0.2
				c0,0.1,0,0.2-0.1,0.3c0-0.1,0.1-0.1,0.1-0.2c0,0.1-0.1,0.1-0.1,0.2c0-0.1,0.1-0.1,0.1-0.2c0,0-0.1,0.1-0.1,0.1
				c0.1,0,0.1-0.1,0.2-0.1c-0.1,0-0.1,0.1-0.2,0.1c0.1,0,0.1-0.1,0.2-0.1c-0.1,0-0.1,0-0.2,0.1c0.1,0,0.1,0,0.2,0
				c-0.1,0-0.2,0-0.3,0c0.1,0,0.1,0,0.2,0c-0.1,0-0.3-0.1-0.4-0.1c0.1,0,0.1,0,0.2,0.1c-0.1,0-0.1-0.1-0.2-0.1c0,0,0.1,0.1,0.1,0.1
				c0,0,0,0-0.1-0.1c0,0,0.1,0.1,0.1,0.1c0,0,0,0,0-0.1c0,0.1,0,0.1,0.1,0.2c0,0,0-0.1,0-0.1c0,0.1,0,0.1,0,0.2c0,0,0-0.1,0-0.1
				c0,0.1,0,0.1,0,0.2c0-0.1,0.1-0.2,0.1-0.4c0,0,0,0.1-0.1,0.1c0.1-0.1,0.1-0.2,0.2-0.3c0.1-0.3,0.1-0.7-0.2-0.8
				C69.5,43.7,69.1,43.8,69,44L69,44z"/>
		</g>
	</g>
</g>
</svg>
