<?xml version="1.0" encoding="utf-8"?>
<!-- Generator: Adobe Illustrator 24.0.1, SVG Export Plug-In . SVG Version: 6.00 Build 0)  -->
<svg version="1.1" id="Calque_1" xmlns="http://www.w3.org/2000/svg" xmlns:xlink="http://www.w3.org/1999/xlink" x="0px" y="0px"
	 viewBox="0 0 122 122" style="enable-background:new 0 0 122 122;" xml:space="preserve">
<style type="text/css">
	.st0{fill:#91D902;}
</style>
<g>
	<path d="M101.9,6.8c-0.7-4.4-4.8-7.4-9.3-6.8L16,11c-3,0.5-5.1,3.3-4.7,6.3l7.2,48.5c0.6,3.8,2,7.4,4.2,10.5
		c6.8,9.8,22.1,31.8,25.8,36.8c0.9,1.4,3.6,5.5,5.4,8.1c0.7,1,2.2,0.8,2.6-0.3c1.2-3.5,3.2-9.3,4.2-11.7c2.2-5.5,5.6-16.1,6.6-19.3
		c0.2-0.6,0.7-1,1.3-1.2l4.6-0.8L94.1,84l14.1-2.9c3-0.5,5.1-3.3,4.6-6.4C110.1,57.3,101.9,6.8,101.9,6.8"/>
</g>
<g>
	<g>
		<g>
			<g>
				<path class="st0" d="M37.6,68.7c0.1-2,0.8-3.3,2.9-3.6c2.2-0.4,4.6-0.2,6.8-0.2c4.3-0.1,8.5-0.1,12.8-0.2
					c7-0.1,14.1-0.5,21.1-0.4c1.1,0,2.3-0.1,3.3,0.1c1.9,0.4,1.9,2.7,1.9,4.3c0,1.1,1.6,1.1,1.6,0c0-1.9,0-4.1-1.8-5.3
					c-0.9-0.6-1.8-0.7-2.9-0.7c-3.3-0.1-6.6,0-9.9,0.1c-9.1,0.2-18.1,0.4-27.2,0.5c-2.3,0-5.1-0.3-7.3,0.6c-2,0.8-2.8,2.7-2.8,4.8
					C36.2,69.6,37.6,69.6,37.6,68.7L37.6,68.7z"/>
			</g>
		</g>
		<g>
			<g>
				<path class="st0" d="M36.9,69.3c2.5,0.2,5,0.1,7.5,0.1c3.2,0,6.3,0.1,9.5,0.1c8,0.1,16,0.4,23.9,0.3c3.2,0,6.4,0,9.6-0.4
					c1-0.1,0.6-1.7-0.4-1.5c-2.8,0.4-5.7,0.3-8.6,0.4c-4.2,0.1-8.4-0.1-12.6-0.1C59,68,52.1,68,45.3,67.9c-2.8,0-5.8-0.3-8.6,0.2
					C36,68.2,36.2,69.3,36.9,69.3L36.9,69.3z"/>
			</g>
		</g>
	</g>
	<g>
		<g>
			<g>
				<path class="st0" d="M41.7,63.6c0.1-1.7,0.7-2.7,2.4-2.9c1.9-0.3,3.9-0.1,5.8-0.1c3.5-0.1,7-0.1,10.5-0.1
					c5.8-0.1,11.7-0.4,17.5-0.4c0.9,0,1.9-0.1,2.7,0.1c1.5,0.3,1.5,2.1,1.5,3.5c0,1.1,1.6,1.1,1.6,0c0-1.6-0.1-3.4-1.4-4.5
					c-0.7-0.6-1.5-0.6-2.4-0.7c-2.8-0.1-5.5,0-8.3,0c-7.7,0.2-15.3,0.3-23,0.4c-2,0-4.3-0.3-6.2,0.6c-1.7,0.8-2.3,2.3-2.3,4.1
					C40.3,64.5,41.7,64.5,41.7,63.6L41.7,63.6z"/>
			</g>
		</g>
	</g>
	<g>
		<g>
			<path class="st0" d="M45,49.6c0.5,0.3,1.1,0.4,1.7,0.6c0.6,0.1,1.2,0.3,1.7,0.5c1,0.3,2,0.8,2.7,1.7c0.6,0.8,0.8,1.9,1.1,2.8
				c0.3,1.3,0.6,2.4,0.6,3.8c0.5-0.1,1.1-0.3,1.6-0.4c0-0.1-0.1-0.1-0.1-0.2c-0.2-0.3-0.5-0.5-0.9-0.4c-0.3,0.1-0.6,0.4-0.6,0.8
				c0,0.1,0,0.3,0.1,0.4c0.2,0.9,1.7,0.8,1.7-0.2c-0.1-1.5-0.3-2.9-0.7-4.3c-0.3-1.1-0.6-2.3-1.3-3.3c-0.8-1.1-1.9-1.7-3.1-2.2
				c-0.6-0.2-1.2-0.4-1.9-0.5c-0.7-0.2-1.4-0.4-2.1-0.4C44.7,48.4,44.4,49.3,45,49.6L45,49.6z"/>
		</g>
	</g>
	<g>
		<g>
			<path class="st0" d="M78.4,48.3c-0.6,0.1-1.3,0.4-1.9,0.6c-0.7,0.2-1.3,0.4-2,0.5c-1.2,0.3-2.4,0.7-3.2,1.6
				c-0.8,0.8-1.3,1.9-1.5,3c-0.3,1.4-0.4,3,0,4.5c0.3,1.1,2.1,0.6,1.7-0.5c-0.1-0.3-0.2-0.5-0.5-0.7c-0.5-0.3-1.3,0.1-1.2,0.7
				c0,0.1,0,0.1,0,0.2c0.6-0.1,1.1-0.2,1.7-0.2c-0.5-1.9-0.3-4.6,1.3-6.1c0.8-0.7,1.9-0.8,2.8-1.1c1.2-0.3,2.6-0.6,3.5-1.5
				C79.6,48.9,79,48.2,78.4,48.3L78.4,48.3z"/>
		</g>
	</g>
	<g>
		<g>
			<path class="st0" d="M52.5,53.1c2.2,0.2,4.4,0.8,6.5,0.2c1.8-0.5,2.9-1.9,3.5-3.6c-0.5-0.2-1.1-0.3-1.6-0.5
				c-0.4,2.1,1.8,3.3,3.5,3.6c2.2,0.4,4.7,0.6,6.9,0c1.1-0.3,0.6-2-0.5-1.7c-1.5,0.4-3.1,0.2-4.6,0.1c-0.8,0-1.7-0.1-2.5-0.4
				c-0.4-0.1-1.3-0.6-1.3-1.2c0.2-1.1-1.3-1.5-1.6-0.5c-0.5,1.5-1.5,2.5-3.1,2.6c-1,0.1-2,0.1-2.9,0c-0.8-0.1-1.7-0.4-2.5-0.2
				C51.4,51.9,51.7,53.1,52.5,53.1L52.5,53.1z"/>
		</g>
	</g>
	<g>
		<g>
			<path class="st0" d="M45.7,48.7c-0.2-0.3,0.3-1.3,0.5-1.6c0.4-0.7,1.1-1.3,1.8-1.7c1.9-1.2,4.2-1,6.3-1.4c1-0.2,1.9-0.5,2.9-0.7
				c0.7-0.1,1.5-0.3,1.9-0.9c0.3-0.5,0.3-1.3,0.2-1.9c0-0.7,0-1.4-0.3-2c-0.3-0.6-1.3-0.4-1.4,0.2c-0.2,0.6,0,1.4,0.1,2
				c0,0.3,0.1,0.7,0,0.9c0.1-0.3,0.1-0.1-0.1-0.1c-0.1,0-0.4,0.1-0.5,0.1c-1,0.2-1.9,0.5-2.8,0.7c-1.2,0.2-2.3,0.3-3.5,0.4
				c-2.2,0.3-4.3,1.3-5.6,3.1c-0.6,0.8-1.7,3.2-0.4,3.8C45.4,49.9,46.1,49.3,45.7,48.7L45.7,48.7z"/>
		</g>
	</g>
	<g>
		<g>
			<path class="st0" d="M64.7,38.9c-0.1,0.9-0.2,1.9,0,2.8c0.1,0.6,0.8,0.7,1.2,0.5c-0.2,0.1,0.3,0.1,0.4,0.1c0.3,0,0.5,0.1,0.8,0.1
				c0.5,0.1,1,0.3,1.6,0.4c1.5,0.5,3,0.9,4.6,1.3c1.2,0.3,2.5,0.7,3.4,1.7c0.8,0.8,1,2,1,3.1c0,1.1,1.7,1.1,1.8,0
				c0-1.4-0.3-2.9-1.2-4c-1-1.2-2.5-1.9-4-2.3c-0.8-0.2-1.6-0.4-2.3-0.6c-1-0.3-2-0.6-3.1-0.9c-1.1-0.3-2.5-0.8-3.6-0.3
				c0.4,0.2,0.8,0.3,1.2,0.5c-0.2-0.8-0.1-1.6-0.2-2.4C66,38,64.8,38,64.7,38.9L64.7,38.9z"/>
		</g>
	</g>
	<g>
		<g>
			<path class="st0" d="M55.9,28.9c-0.1,0.6-0.4,1.1-0.5,1.7c-0.1,0.7,0,1.4,0,2.1c0.1,1.1,0.1,2.2,0.3,3.3c0.2,1,0.5,1.9,1.1,2.7
				c0.6,0.7,1.5,1.2,2.4,1.5c3.2,1.2,7.4,0.1,8.8-3.1c0.5-1.1,0.6-2.3,0.7-3.5c0.1-1.4,0-2.8-0.2-4.2c-0.2-1.1-1.9-0.6-1.7,0.5
				c0.2,1,0.2,2.1,0.2,3.1c0,0.9-0.1,1.9-0.3,2.8c-0.4,1.3-1.4,2.2-2.6,2.8c-1.2,0.5-2.6,0.6-3.9,0.2c-0.7-0.2-1.4-0.5-1.9-0.9
				c-0.6-0.5-0.9-1.3-1-2.1c-0.2-1-0.2-2-0.3-3c-0.1-0.6-0.2-1.3-0.1-1.9c0-0.6,0.1-1.2,0.2-1.8C57.3,28.4,56.1,28.2,55.9,28.9
				L55.9,28.9z"/>
		</g>
	</g>
	<g>
		<g>
			<path class="st0" d="M56.2,34.7c-1.3,0.1-2.2-0.9-2.5-2.1c-0.3-1.3,0.7-2,1.8-2.3c1.2-0.4,2.4-0.5,3.6-0.9
				c1.5-0.5,2.8-1.5,3.9-2.7c-0.5-0.1-0.9-0.1-1.4-0.2c1.2,2.4,3.8,3,6.1,3.7c1.5,0.4,2.7,1.2,3,2.8c0.2,0.8-0.2,1.2-0.7,1.7
				c-0.2,0.2-0.5,0.3-0.7,0.5c-0.1,0.1-0.2,0.1-0.3,0.1c-0.1,0-0.1,0,0,0c-0.8-0.8-2.1,0.5-1.3,1.3c1.2,1.1,2.7,0.1,3.7-0.7
				c1.5-1.4,1.3-3.3,0.3-5c-1.9-3.2-7-1.8-8.6-5.2c-0.2-0.5-1-0.6-1.4-0.2c-1.4,1.5-3,2.2-4.9,2.7c-1.5,0.3-3.2,0.7-4.2,2
				c-1.1,1.3-0.8,3,0,4.3c0.8,1.3,2.4,2.6,3.9,1.7C57.1,35.7,56.9,34.7,56.2,34.7L56.2,34.7z"/>
		</g>
	</g>
	<g>
		<g>
			<path class="st0" d="M53.3,32.4c-0.1-0.8,0-1.6,0-2.4c0-0.9,0-1.8,0.1-2.7c0.2-1.7,0.7-3.3,1.7-4.7c1.7-2.4,4.7-4.2,7.7-3.4
				c2.8,0.7,5.1,3,6.3,5.6c0.7,1.5,1.1,3.2,1.5,4.7c0.3,1.3,0.6,2.9,0.2,4.3c-0.3,1.1,1.3,1.5,1.7,0.5c0.9-2.7-0.4-5.8-1.1-8.4
				c-0.7-2.6-2.3-4.9-4.5-6.6c-2.1-1.6-4.8-2.4-7.5-1.8c-2.7,0.7-5.1,2.8-6.4,5.2c-0.8,1.5-1.2,3.2-1.3,4.9
				c-0.1,1.6-0.3,3.6,0.2,5.1C52.2,33.7,53.5,33.3,53.3,32.4L53.3,32.4z"/>
		</g>
	</g>
</g>
</svg>
