<?xml version="1.0" encoding="utf-8"?>
<!-- Generator: Adobe Illustrator 24.0.1, SVG Export Plug-In . SVG Version: 6.00 Build 0)  -->
<svg version="1.1" id="Calque_1" xmlns="http://www.w3.org/2000/svg" xmlns:xlink="http://www.w3.org/1999/xlink" x="0px" y="0px"
	 viewBox="0 0 122 122" style="enable-background:new 0 0 122 122;" xml:space="preserve">
<style type="text/css">
	.st0{fill:#91D902;}
</style>
<g>
	<path d="M100.6,6.8c-0.7-4.4-4.8-7.4-9.3-6.8L14.7,11c-3,0.5-5.1,3.3-4.7,6.3l7.2,48.5c0.6,3.8,2,7.4,4.2,10.5
		c6.8,9.8,22.1,31.8,25.8,36.8c0.9,1.4,3.6,5.5,5.4,8.1c0.7,1,2.2,0.8,2.6-0.3c1.2-3.5,3.2-9.3,4.2-11.7c2.2-5.5,5.6-16.1,6.6-19.3
		c0.2-0.6,0.7-1,1.3-1.2l4.6-0.8L92.8,84l14.1-2.9c3-0.5,5.1-3.3,4.6-6.4C108.8,57.3,100.6,6.8,100.6,6.8"/>
</g>
<g>
	<g>
		<g>
			<path class="st0" d="M35.9,25.6c2,0.1,4-0.3,6-0.4c2.1-0.2,4.2-0.2,6.2,0c4.1,0.3,8.3,0.7,12.4,0.8c4.1,0.1,8.2-0.2,12.2-0.7
				c2.1-0.3,4.2-0.5,6.3-0.4c1,0,1.9,0,2.9,0c0.5,0,1,0,1.5,0c0.1,0,1.7,0,1.5-0.1c0-0.3-0.1-0.6-0.1-0.9c0,0,0,0.1-0.1,0.1
				c-0.5,0.8,0.8,1.6,1.3,0.8c0,0,0-0.1,0.1-0.1c0.2-0.3,0.1-0.7-0.1-0.9c-0.5-0.5-1.4-0.3-2.1-0.3c-1.1,0-2.3-0.1-3.4-0.1
				c-2.1,0-4.2,0-6.3,0.3c-4.2,0.5-8.4,1-12.7,0.9c-4.3-0.1-8.6-0.5-12.9-0.8c-2.1-0.1-4.2-0.2-6.3,0c-2.2,0.2-4.3,0.5-6.5,0.6
				C35,24.3,35,25.6,35.9,25.6L35.9,25.6z"/>
		</g>
	</g>
	<g>
		<g>
			<path class="st0" d="M36.2,30.7c1-0.2,2.1,0,3.1-0.1c0.9,0,1.9-0.1,2.8-0.1c2.1-0.1,4.1,0.1,6.2,0.2c4.1,0.3,8.2,0.5,12.4,0.5
				c4.2,0,8.3,0,12.5-0.2c2.1-0.1,4.2-0.2,6.4-0.2c1.9,0,4-0.2,5.9,0.3c0.9,0.3,1.3-1.2,0.4-1.4c-1.9-0.6-3.9-0.4-5.8-0.4
				c-2.1,0-4.3,0.1-6.4,0.1c-4.3,0.2-8.7,0.3-13,0.2c-4.3,0-8.6-0.2-12.8-0.5c-2.1-0.1-4.1-0.3-6.2-0.2c-1.9,0.1-4-0.2-5.8,0.4
				C35,29.6,35.3,30.8,36.2,30.7L36.2,30.7z"/>
		</g>
	</g>
	<g>
		<g>
			<path class="st0" d="M38.3,24.6c-0.7,1.1,1.2,2.3,1.9,2.7c1.2,0.8,2.5,1.6,3.8,2.3c0.3,0.2,0.5,0.3,0.8,0.5
				c0.1,0.1,0.2,0.1,0.3,0.2c0,0,0.1,0.1,0.1,0.1c0.1,0-0.2-0.1,0,0c-0.1-0.2-0.1-0.4-0.2-0.5c0,0,0,0,0,0.1c0-0.1,0.1-0.3,0.1-0.4
				c0,0,0,0,0,0c0.1-0.1,0.2-0.2,0.3-0.3c-0.1,0.1-0.2,0.1-0.2,0.2c-0.5,0.5,0,1.3,0.7,1.2c0,0,0,0,0.1,0c-0.1,0-0.3,0-0.4,0
				c0.1,0,0.2,0,0.3,0c0.2,0,0.5-0.1,0.6-0.4c0,0,0,0,0-0.1c0.1-0.3,0.1-0.7-0.1-0.9c-0.8-0.7-1.9-1.2-2.8-1.7
				c-0.6-0.4-1.3-0.7-1.9-1.1c-0.3-0.2-0.6-0.4-0.8-0.5c-0.1-0.1-0.3-0.2-0.4-0.3c-0.1,0-0.1-0.1-0.2-0.1c0.1,0.1,0,0-0.1-0.1
				c-0.2-0.2-0.4-0.4-0.6-0.5c-0.1-0.1,0.1,0.2,0,0c0,0,0-0.1-0.1-0.1c0.1,0,0.1,0.2,0,0.1c0-0.1,0,0,0,0c0,0,0,0,0,0.1
				c0-0.1,0-0.1,0-0.2c0,0.3,0,0.2,0,0.1C39.6,24.2,38.6,24.1,38.3,24.6L38.3,24.6z"/>
		</g>
	</g>
	<g>
		<g>
			<path class="st0" d="M44.7,29.9c0-0.1,0.1-0.1,0.1-0.2c0.1-0.1-0.1,0,0.1-0.1c0.1-0.1,0.2-0.2,0.2-0.3c0.2-0.2,0.3-0.3,0.6-0.4
				c0.5-0.3,1-0.6,1.4-0.9c0.6-0.4,1.1-0.9,1.7-1.4c0.3-0.2,0.5-0.4,0.8-0.6c0.4-0.3,0.9-0.6,0.8-1.2c-0.2-0.6-1.1-0.8-1.4-0.2
				c0,0,0,0.1,0,0.1c-0.1,0.2,0,0.1,0.1-0.1c-0.4,0.4-0.1,1.2,0.5,1.2c0.1,0,0.1,0,0.2,0c-0.1,0-0.2,0-0.1,0
				c-0.2-0.4-0.4-0.8-0.7-1.1c0,0,0,0,0,0.1c0.1-0.1,0.2-0.2,0.3-0.3c-0.7,0.4-1.3,0.9-1.9,1.4c-0.3,0.2-0.6,0.5-0.8,0.7
				c-0.1,0-0.1,0.1-0.2,0.1c0.1-0.1-0.1,0-0.1,0c-0.1,0.1-0.2,0.2-0.3,0.2c-0.5,0.3-1,0.7-1.5,1c-0.4,0.3-0.9,0.8-1.1,1.4
				c-0.1,0.3,0.1,0.7,0.4,0.8C44.2,30.4,44.5,30.2,44.7,29.9L44.7,29.9z"/>
		</g>
	</g>
	<g>
		<g>
			<path class="st0" d="M48,25.2C48,25.2,48,25.2,48,25.2c0,0,0-0.1,0-0.2c0,0.4,0.3,0.7,0.5,1c0.2,0.3,0.4,0.5,0.6,0.8
				c0.4,0.5,0.8,1,1.3,1.4c0.5,0.5,1,0.9,1.5,1.3c0.5,0.4,0.9,0.8,1.4,1.2c0.7,0.5,1.6-0.6,0.9-1.2c-0.9-0.8-1.8-1.6-2.7-2.4
				c-0.5-0.4-0.9-0.9-1.3-1.4c-0.2-0.2-0.4-0.5-0.6-0.7c-0.3-0.3-0.5-0.6-0.9-0.6c0.1,0,0.2,0.1,0.3,0.1c0,0,0,0-0.1,0
				c-0.2-0.2-0.5-0.1-0.7,0.1C47.9,24.7,47.9,24.9,48,25.2L48,25.2z"/>
		</g>
	</g>
	<g>
		<g>
			<path class="st0" d="M54.3,30.2c0.1-0.2-0.1,0.1,0.1-0.1c0,0,0.2-0.2,0.1-0.1c0.1-0.1,0.2-0.2,0.3-0.3c0.1-0.1,0.2-0.2,0.3-0.3
				c0,0,0.2-0.2,0.3-0.2c0.4-0.3,0.9-0.6,1.3-0.9c1-0.8,1.9-1.7,3-2.4c0.4-0.2,0.5-0.7,0.3-1.1c-0.2-0.4-0.7-0.5-1.1-0.3
				c-0.6,0.4-1.2,0.8-1.7,1.3c-0.3,0.2-0.5,0.5-0.8,0.7c-0.1,0.1-0.3,0.2-0.4,0.3c0,0-0.1,0.1-0.1,0.1c0.1-0.1-0.1,0.1-0.1,0.1
				c-0.5,0.4-1,0.7-1.5,1.1c-0.2,0.2-0.4,0.4-0.6,0.6c-0.2,0.3-0.3,0.6-0.5,0.9c-0.1,0.3,0.1,0.6,0.4,0.7
				C53.8,30.5,54.2,30.5,54.3,30.2L54.3,30.2z"/>
		</g>
	</g>
	<g>
		<g>
			<path class="st0" d="M57.9,26c0.7,1.1,1.5,2,2.4,2.9c0.4,0.3,0.8,0.6,1.1,1c0.2,0.2,0.3,0.3,0.5,0.5c0.1,0.1-0.1-0.1,0,0
				c0,0,0,0.1,0.1,0.1c0,0,0,0.1,0.1,0.1c-0.1-0.1-0.1-0.2,0-0.1c0.1,0.2,0.1,0.3,0,0.1c0.1,0.4,0.5,0.6,0.9,0.6
				c0.3,0,0.7-0.4,0.7-0.8c-0.1-0.6-0.4-1-0.8-1.4c-0.4-0.4-0.8-0.7-1.2-1c-0.4-0.3-0.8-0.7-1.2-1.1c-0.5-0.5-0.9-1.1-1.4-1.6
				c-0.3-0.2-0.6-0.3-0.9-0.1C57.9,25.3,57.7,25.7,57.9,26L57.9,26z"/>
		</g>
	</g>
	<g>
		<g>
			<path class="st0" d="M63.2,30.7c0.4-0.4,0.8-0.8,1.2-1.2c0.5-0.4,0.9-0.7,1.4-1.1c0.5-0.4,1-0.8,1.5-1.2c0.6-0.4,1.1-0.9,1.6-1.4
				c0.3-0.3,0.3-0.8,0-1.1c-0.3-0.3-0.8-0.3-1.1,0c-1,0.9-2.1,1.7-3.2,2.6c-0.5,0.4-0.9,0.7-1.4,1.1c-0.4,0.4-1,0.9-1.2,1.4
				c-0.1,0.3-0.1,0.7,0.2,0.9C62.6,30.9,63,30.9,63.2,30.7L63.2,30.7z"/>
		</g>
	</g>
	<g>
		<g>
			<path class="st0" d="M67.6,26.5c0.1,0,0.2,0.1,0.2,0.1c-0.2-0.1-0.1,0,0,0c0.1,0.1,0.2,0.1,0.3,0.2c0,0,0.1,0.1,0.1,0.1
				c0,0,0,0,0,0c0,0,0,0,0.1,0.1c0.1,0.1,0.2,0.2,0.3,0.2c0.3,0.3,0.6,0.7,1,1c0.2,0.2,0.5,0.4,0.8,0.6c0.1,0.1,0.3,0.2,0.4,0.2
				c0.1,0,0.1,0.1,0.2,0.1c0.1,0,0.2,0.1,0.1,0c0.5,0.4,0.9,1.2,1.6,1.2c0.5,0,1-0.7,0.7-1.2c-0.1-0.1-0.2-0.2-0.3-0.3
				c-0.2-0.1,0.1,0.1,0,0c-0.1-0.1-0.2-0.2-0.3-0.3c-0.2-0.2-0.5-0.5-0.7-0.7c-0.3-0.2-0.6-0.3-0.8-0.5c-0.1,0-0.2-0.1-0.2-0.2
				c0,0-0.1,0-0.1-0.1c0,0,0,0,0,0c-0.1-0.1-0.2-0.1-0.2-0.2c-0.4-0.3-0.7-0.7-1.1-1c-0.5-0.4-1.1-0.8-1.8-0.5
				C67.2,25.5,67.2,26.3,67.6,26.5L67.6,26.5z"/>
		</g>
	</g>
	<g>
		<g>
			<path class="st0" d="M73.1,29.7C73,29.9,73.1,29.8,73.1,29.7C73.2,29.5,73.2,29.5,73.1,29.7C73.1,29.7,73.1,29.6,73.1,29.7
				c0.1-0.1,0.1-0.2,0.1-0.2c0-0.1,0.1-0.1,0,0c0.2-0.2,0.3-0.4,0.5-0.5c0.4-0.3,0.8-0.7,1.2-1c0.5-0.4,1-0.9,1.4-1.4
				c0.6-0.6,1.2-1.1,1.8-1.7c0.3-0.3,0.3-0.8,0-1.1c-0.3-0.3-0.8-0.3-1.1,0c-0.6,0.6-1.2,1.2-1.9,1.8c-0.5,0.5-0.9,1-1.4,1.4
				c-0.4,0.4-0.8,0.7-1.2,1.1c-0.4,0.5-0.8,1-0.7,1.6c0,0.3,0.4,0.5,0.7,0.5C72.8,30.2,73,30,73.1,29.7L73.1,29.7z"/>
		</g>
	</g>
	<g>
		<g>
			<path class="st0" d="M76.2,25.3c0,0.1,0.1,0.2,0.1,0.2c0,0,0.1,0.1,0.1,0.1c-0.1-0.1-0.1-0.1,0,0c0.1,0,0.1,0.1,0.2,0.1
				c0.1,0-0.1-0.1,0,0c0,0,0.3,0.2,0.1,0.1c0,0,0.1,0.1,0.1,0.1c0.1,0.1,0.2,0.2,0.3,0.2c0.4,0.3,0.7,0.6,1.1,1
				c0.5,0.4,0.9,0.8,1.3,1.2c0.5,0.4,0.9,0.9,1.4,1.3c0.3,0.3,0.8,0.3,1.2,0c0.3-0.3,0.3-0.8,0-1.2c-0.9-0.9-1.9-1.7-2.8-2.5
				c-0.4-0.3-0.8-0.6-1.1-0.9c-0.4-0.3-1-0.9-1.6-0.7C76.1,24.5,76,24.9,76.2,25.3L76.2,25.3z"/>
		</g>
	</g>
	<g>
		<g>
			<g>
				<path class="st0" d="M58.6,40c0-0.1,0-0.2,0-0.3c0,0,0-0.2,0-0.2c0,0,0-0.2,0-0.2c0-0.1,0-0.2,0-0.3c0-0.5,0-0.6,0.1-1
					c0.2-0.9,0.7-1.9,1.4-2.5c0.3-0.3,0.6-0.4,1-0.5c-0.1,0,0.1,0,0.1,0c0.1,0,0.2,0,0.3,0c0.1,0,0,0,0,0c0,0,0.1,0,0.1,0
					c0.1,0,0.2,0.1,0.3,0.1c0.1,0-0.1,0,0,0c0,0,0.1,0,0.1,0c0.1,0,0.2,0.1,0.3,0.2c0,0,0.1,0.1,0,0c0,0,0.1,0.1,0.1,0.1
					c0.1,0.1,0.1,0.1,0.2,0.2c0.2,0.2,0.4,0.6,0.5,0.9c0.2,0.5,0.2,1.1,0.2,1.6c0,0.6,0,1.3,0.2,1.8c0.1,0.3,0.4,0.6,0.8,0.6
					c0.3,0,0.7-0.2,0.8-0.6c0.1-0.6,0-1.3,0-1.9c0-0.7-0.1-1.3-0.3-2c-0.3-1-1-2-2-2.4c-1-0.5-2.2-0.4-3.2,0.2
					c-1.1,0.7-1.8,1.9-2.2,3.1c-0.2,0.6-0.2,1.2-0.3,1.7c0,0.3,0,0.6,0,0.9c0.1,0.4,0.2,0.6,0.5,0.9C58,40.9,58.7,40.5,58.6,40
					L58.6,40z"/>
			</g>
		</g>
		<g>
			<g>
				<path class="st0" d="M58.1,40.7c0.5-0.1,1.1,0,1.7,0c0.5,0,1,0,1.5,0c1-0.1,2.1,0,3.2-0.1c0.4-0.1,0.6-0.5,0.6-0.9
					c-0.1-0.4-0.4-0.7-0.8-0.7c-0.5,0-1,0.1-1.5,0.1c-0.5,0-1.1,0-1.6,0.1c-0.6,0-1,0.1-1.6,0.1c-0.6,0-1.3-0.1-1.9,0.1
					c-0.4,0.1-0.6,0.5-0.5,0.9C57.3,40.6,57.7,40.7,58.1,40.7L58.1,40.7z"/>
			</g>
		</g>
	</g>
	<g>
		<g>
			<g>
				<path class="st0" d="M42.2,40.1c0.2,0.1-0.1-0.1-0.2-0.1c0,0-0.2-0.1-0.1-0.1c-0.2-0.1-0.3-0.3-0.5-0.5
					c-0.3-0.3-0.4-0.5-0.6-0.9c-0.5-0.8-0.9-2-0.7-2.9c0-0.1,0-0.2,0.1-0.3c0-0.1,0.1-0.1,0.1-0.2c0-0.1,0.1-0.2,0.1-0.2
					c0,0,0-0.1,0.1-0.1c0-0.1,0,0,0-0.1c0.1-0.1,0.1-0.1,0.2-0.2c0,0,0.2-0.2,0.1-0.1c0.1-0.1,0.1-0.1,0.2-0.1c0,0,0.1,0,0.1-0.1
					c0.1-0.1-0.1,0,0,0c0.1,0,0.2-0.1,0.2-0.1c0,0,0.3-0.1,0.2,0c-0.1,0,0.2,0,0.2,0c0.1,0,0.2,0,0.3,0c0.2,0,0.1,0,0,0
					c0.1,0,0.1,0,0.2,0c0.1,0,0.2,0,0.2,0.1c0.2,0.1,0.3,0.1,0.5,0.2c0.5,0.3,0.9,0.6,1.3,1c0.4,0.4,0.9,0.9,1.4,1.2
					c0.3,0.2,0.7,0.1,0.9-0.1c0.2-0.2,0.3-0.7,0.1-0.9c-0.4-0.5-0.9-0.9-1.4-1.3c-0.5-0.4-1-0.9-1.6-1.2c-0.9-0.5-2.1-0.7-3.1-0.3
					c-1,0.4-1.8,1.2-2.1,2.3c-0.4,1.3,0,2.8,0.6,3.9c0.3,0.5,0.7,1,1.1,1.5c0.5,0.5,1,1,1.7,0.9c0.3,0,0.5-0.3,0.5-0.6
					C42.6,40.5,42.4,40.3,42.2,40.1L42.2,40.1z"/>
			</g>
		</g>
		<g>
			<g>
				<path class="st0" d="M42.5,41.1C42.4,41.2,42.5,41,42.5,41.1c0.1-0.1,0.1-0.2,0.2-0.2c0.1-0.1,0.2-0.2,0.3-0.3
					c0.2-0.2,0.4-0.4,0.7-0.6c0.4-0.3,0.7-0.7,1.1-1.1c0.4-0.4,0.7-0.8,1.1-1.2c0.4-0.4,0.8-0.8,1.1-1.2c0.2-0.3,0.1-0.8-0.2-1.1
					c-0.3-0.2-0.8-0.2-1.1,0.1c-0.4,0.4-0.7,0.7-1,1.1c-0.4,0.4-0.7,0.8-1.1,1.2c-0.1,0.1-0.2,0.2-0.3,0.4c0,0-0.1,0.1,0,0
					c0,0-0.1,0.1-0.1,0.1c-0.2,0.2-0.4,0.4-0.6,0.6c-0.5,0.4-1,0.9-1.2,1.4c-0.2,0.3-0.1,0.8,0.3,1C41.9,41.5,42.2,41.4,42.5,41.1
					L42.5,41.1z"/>
			</g>
		</g>
	</g>
	<g>
		<g>
			<g>
				<path class="st0" d="M78.8,41.4c0.6,0.1,1.1-0.3,1.5-0.7c0.4-0.4,0.7-0.8,1-1.2c0.8-1.2,1.2-2.6,0.9-4c-0.2-1-0.8-2-1.8-2.4
					c-1-0.5-2.1-0.4-3.1,0c-0.7,0.3-1.2,0.7-1.8,1.2c-0.5,0.5-1.2,0.9-1.6,1.5c-0.2,0.3-0.1,0.7,0.1,0.9c0.2,0.2,0.6,0.3,0.9,0.1
					c0.4-0.2,0.8-0.7,1.2-1c0.4-0.3,0.8-0.7,1.2-0.9c0.4-0.3,0.6-0.4,1.1-0.5c0,0,0.1,0,0.1,0c0.1,0-0.1,0,0,0c0.1,0,0.2,0,0.3,0
					c0.1,0,0.2,0,0.3,0c0.1,0,0,0,0,0c0.1,0,0.1,0,0.2,0c0.1,0,0.2,0,0.2,0.1c0,0,0.1,0,0,0c-0.1,0,0.1,0,0.1,0
					c0.1,0,0.2,0.1,0.2,0.1c0,0,0.1,0.1,0,0c-0.1-0.1,0.1,0.1,0.1,0.1c0.1,0.1,0.1,0.1,0.2,0.2c0,0,0.1,0.1,0.1,0.1c0-0.1,0,0,0,0
					c0.1,0.1,0.1,0.2,0.1,0.2c0.1,0.1,0,0.1,0.1,0.2c0.3,0.9,0.1,1.9-0.3,2.8c-0.2,0.4-0.5,0.8-0.7,1.1c-0.2,0.2-0.3,0.4-0.5,0.5
					c-0.1,0.1,0,0-0.1,0.1c-0.1,0.1-0.4,0.3-0.2,0.2c-0.2,0.2-0.4,0.4-0.3,0.7C78.4,41,78.6,41.3,78.8,41.4L78.8,41.4z"/>
			</g>
		</g>
		<g>
			<g>
				<path class="st0" d="M79.6,40.3c-0.3-0.5-0.8-1-1.2-1.4c-0.2-0.2-0.4-0.4-0.6-0.6c0,0-0.1-0.1-0.1-0.1c0.1,0.1,0,0,0,0
					c-0.1-0.1-0.2-0.3-0.3-0.4c-0.3-0.4-0.7-0.8-1.1-1.2c-0.3-0.4-0.7-0.8-1-1.1c-0.3-0.3-0.8-0.3-1.1-0.1c-0.3,0.2-0.4,0.7-0.2,1.1
					c0.3,0.4,0.7,0.8,1.1,1.2c0.4,0.4,0.8,0.8,1.1,1.2c0.3,0.4,0.7,0.8,1,1.1c0.2,0.2,0.4,0.4,0.7,0.6c0.1,0.1,0.2,0.2,0.3,0.3
					c0,0.1,0.1,0.1,0.1,0.2c0,0,0.2,0.2,0.1,0.1c0.2,0.3,0.6,0.5,1,0.3C79.7,41.1,79.8,40.7,79.6,40.3L79.6,40.3z"/>
			</g>
		</g>
	</g>
	<g>
		<g>
			<path class="st0" d="M61.7,33.5C61.7,33.5,61.7,33.5,61.7,33.5c0,0,0,0.1,0,0.1c0-0.2,0.1-0.4,0.1-0.5c0.1-0.2,0.1-0.4,0.1-0.7
				c0-0.2,0.1-0.5,0.1-0.8c0-0.2,0-0.4-0.1-0.6c-0.1-0.2-0.3-0.4-0.6-0.4c-0.4-0.1-0.7,0.1-0.9,0.4c-0.1,0.1-0.1,0.3,0,0.5
				c0.1,0.2,0.2,0.3,0.3,0.4c0,0,0,0,0,0c-0.1,0-0.1-0.1-0.2-0.1c0,0,0,0,0,0c0-0.1-0.1-0.1-0.1-0.2c0,0,0,0,0,0
				c0-0.1-0.1-0.1-0.1-0.2c0,0.1,0,0.1,0,0.2c0-0.1,0-0.1,0-0.2c0,0.3,0,0.7-0.1,1c0,0.2,0,0.3,0,0.5c0,0.2,0,0.4,0.1,0.5
				c0.1,0.3,0.4,0.5,0.7,0.5C61.5,34.1,61.7,33.8,61.7,33.5L61.7,33.5z"/>
		</g>
	</g>
	<g>
		<g>
			<path class="st0" d="M39.9,33.5C39.9,33.5,39.9,33.5,39.9,33.5C39.9,33.7,39.9,33.6,39.9,33.5C39.9,33.5,39.9,33.5,39.9,33.5
				c0-0.2,0.1-0.3,0.1-0.4c0.1-0.3,0.1-0.5,0.1-0.8c0.1-0.7,0.2-1.7-0.6-1.9c-0.4-0.1-0.7,0.1-0.9,0.4c-0.1,0.1-0.1,0.3,0,0.5
				c0.1,0.2,0.2,0.3,0.3,0.4c0,0,0,0,0,0c-0.1,0-0.1-0.1-0.2-0.1c0,0,0,0,0,0c0-0.1-0.1-0.1-0.1-0.2c0,0,0,0,0,0
				c0-0.1-0.1-0.1-0.1-0.2c0,0,0,0,0,0c0-0.1,0-0.1,0-0.2c0,0.1,0,0.2,0.1,0.4c0-0.1,0-0.1,0-0.2c0,0.4,0,0.8-0.1,1.1
				c0,0.2,0,0.4,0,0.6c0,0.2,0,0.4,0.1,0.6c0.1,0.3,0.4,0.5,0.7,0.5C39.7,34.1,39.9,33.8,39.9,33.5L39.9,33.5z"/>
		</g>
	</g>
	<g>
		<g>
			<path class="st0" d="M81.7,33.5C81.7,33.5,81.7,33.5,81.7,33.5C81.7,33.7,81.7,33.6,81.7,33.5C81.7,33.5,81.7,33.5,81.7,33.5
				c0-0.2,0.1-0.3,0.1-0.4c0.1-0.3,0.1-0.5,0.1-0.8c0.1-0.7,0.2-1.7-0.6-1.9c-0.4-0.1-0.7,0.1-0.9,0.4c-0.1,0.1-0.1,0.3,0,0.5
				c0.1,0.2,0.2,0.3,0.3,0.4c0,0,0,0,0,0c-0.1,0-0.1-0.1-0.2-0.1c0,0,0,0,0,0c0-0.1-0.1-0.1-0.1-0.2c0,0,0,0,0,0
				c0-0.1-0.1-0.1-0.1-0.2c0,0,0,0,0,0c0-0.1,0-0.1,0-0.2c0,0.1,0,0.2,0.1,0.4c0-0.1,0-0.1,0-0.2c0,0.4,0,0.8-0.1,1.1
				c0,0.2,0,0.4,0,0.6c0,0.2,0,0.4,0.1,0.6c0.1,0.3,0.4,0.5,0.7,0.5C81.5,34.1,81.7,33.8,81.7,33.5L81.7,33.5z"/>
		</g>
	</g>
	<g>
		<g>
			<path class="st0" d="M35.9,51.1c0.8,0.2,1.7,0.1,2.5,0.1c1.1,0,2.2,0,3.3-0.2c2-0.2,4-0.1,6-0.2c4.2-0.3,8.4-0.1,12.7-0.3
				c8.5-0.4,16.9,0.8,25.4,0.8c0.9,0,0.9-1.5,0-1.5c-8.3,0.1-16.6-1.2-24.9-0.8c-4.1,0.2-8.3,0-12.4,0.3c-2,0.2-4,0-6,0.2
				c-1,0.1-2,0.2-3,0.3c-1,0-2.2,0.2-3.1,0C35.4,49.7,35.1,50.8,35.9,51.1L35.9,51.1z"/>
		</g>
	</g>
	<g>
		<g>
			<g>
				<path class="st0" d="M51.6,57.5c-0.2-0.9-1.2-1.2-2-1.2c-0.7,0-1.4,0.1-2.1,0.3c-0.9,0.4-1.8,0.9-2.4,1.7
					c-0.5,0.7-0.8,1.7-0.6,2.6c0.4,2.9,4.5,3.5,6.5,1.9c0.8-0.6,1.3-1.6,1.3-2.6c0-0.7-0.2-1.4-0.6-1.9c-0.3-0.4-0.8-0.6-1.2-0.9
					c-0.7-0.5-1.6,0.6-0.9,1.2c0.2,0.1,0.3,0.3,0.5,0.4c0.1,0,0.1,0.1,0.2,0.1c0,0,0.1,0,0.1,0.1c-0.1-0.1,0,0,0,0
					c0,0,0.1,0.1,0.1,0.1c0,0,0.1,0.1,0.1,0.2c0.1,0.1,0.1,0.4,0.1,0.6c0,0.4-0.1,0.7-0.2,1c0,0.1-0.1,0.1-0.1,0.1
					c0,0-0.1,0.2-0.1,0.1c0.1-0.1,0,0.1-0.1,0.1c0,0-0.1,0.1-0.1,0.1c0,0-0.1,0.1-0.1,0.1c-0.1,0.1,0,0,0,0c0,0,0,0-0.1,0
					c-0.1,0.1-0.2,0.1-0.3,0.2c-0.1,0-0.1,0.1-0.2,0.1c0.1-0.1,0.1,0,0,0c-0.1,0-0.2,0.1-0.4,0.1c-0.1,0-0.2,0-0.3,0.1
					c-0.1,0,0.1,0,0,0c-0.1,0-0.1,0-0.2,0c-0.1,0-0.2,0-0.4,0c-0.1,0-0.1,0-0.2,0c0,0-0.1,0-0.1,0c-0.1,0,0.1,0,0,0
					c-0.2,0-0.5-0.1-0.7-0.2c-0.1,0-0.1-0.1,0,0c0,0-0.1,0-0.1-0.1c-0.1-0.1-0.2-0.1-0.3-0.2c0,0-0.2-0.1-0.1-0.1
					c0.1,0.1,0,0-0.1-0.1c-0.1-0.1-0.2-0.2-0.3-0.3c-0.1-0.1,0,0,0,0c0-0.1-0.1-0.1-0.1-0.2c0,0-0.1-0.1-0.1-0.1c0,0,0,0,0-0.1
					c0-0.1,0,0.1,0,0c0-0.1-0.1-0.2-0.1-0.3c0-0.1,0-0.1,0,0c0-0.1,0-0.2,0-0.2c0-0.1,0-0.1,0-0.2c0,0,0-0.2,0-0.1
					c0,0.1,0-0.1,0-0.2c0-0.1,0.1-0.2,0.1-0.3c0.2-0.5,0.7-1,1.3-1.3c0.3-0.2,0.5-0.3,0.9-0.4c0.1,0,0.3-0.1,0.4-0.1
					c0.1,0,0.2,0,0.3,0c-0.1,0,0.1,0,0.1,0c0.2,0,0.3,0,0.5,0c0.1,0,0.2,0,0.3,0c0.1,0-0.1,0,0.1,0c0.1,0,0.2,0,0.2,0.1
					c0,0,0.1,0,0.1,0c-0.1,0-0.1-0.1,0,0c0,0,0.2,0.1,0.1,0c0,0,0.1,0,0.1,0.1c0,0-0.1-0.1,0,0C50.8,58.6,51.8,58.2,51.6,57.5
					L51.6,57.5z"/>
			</g>
		</g>
		<g>
			<g>
				<path class="st0" d="M43.4,69.6c0-0.7,0.4-1.3,0.6-1.9c0.3-0.6,0.5-1.2,0.9-1.7c0.8-1,2-1.5,3.3-1.5c1.2,0,2.4,0.4,3.3,1.2
					c1.1,1,1.6,2.7,1.9,4.1c0.2,1,1.7,0.6,1.5-0.4c-0.4-1.8-1.1-3.7-2.5-4.9c-1.2-1-2.8-1.5-4.3-1.5c-1.6,0.1-3.2,0.7-4.3,2
					c-0.5,0.7-0.9,1.4-1.2,2.2c-0.3,0.8-0.7,1.6-0.6,2.5C42.1,70.5,43.3,70.5,43.4,69.6L43.4,69.6z"/>
			</g>
		</g>
	</g>
	<g>
		<g>
			<g>
				<path class="st0" d="M63.4,57.5c-0.2-0.9-1.2-1.2-2-1.2c-0.7,0-1.4,0.1-2.1,0.3c-0.9,0.4-1.8,0.9-2.4,1.7
					c-0.5,0.7-0.8,1.7-0.6,2.6c0.4,2.9,4.5,3.5,6.5,1.9c0.8-0.6,1.3-1.6,1.3-2.6c0-0.7-0.2-1.4-0.6-1.9c-0.3-0.4-0.8-0.6-1.2-0.9
					c-0.7-0.5-1.6,0.6-0.9,1.2c0.2,0.1,0.3,0.3,0.5,0.4c0.1,0,0.1,0.1,0.2,0.1c0,0,0.1,0,0.1,0.1c-0.1-0.1,0,0,0,0
					c0,0,0.1,0.1,0.1,0.1c0,0,0.1,0.1,0.1,0.2c0.1,0.1,0.1,0.4,0.1,0.6c0,0.4-0.1,0.7-0.2,1c0,0.1-0.1,0.1-0.1,0.1
					c0,0-0.1,0.2-0.1,0.1c0.1-0.1,0,0.1-0.1,0.1c0,0-0.1,0.1-0.1,0.1c0,0-0.1,0.1-0.1,0.1c-0.1,0.1,0,0,0,0c0,0,0,0-0.1,0
					c-0.1,0.1-0.2,0.1-0.3,0.2c-0.1,0-0.1,0.1-0.2,0.1c0.1-0.1,0.1,0,0,0c-0.1,0-0.2,0.1-0.4,0.1c-0.1,0-0.2,0-0.3,0.1
					c-0.1,0,0.1,0,0,0c-0.1,0-0.1,0-0.2,0c-0.1,0-0.2,0-0.4,0c-0.1,0-0.1,0-0.2,0c0,0-0.1,0-0.1,0c-0.1,0,0.1,0,0,0
					c-0.2,0-0.5-0.1-0.7-0.2c-0.1,0-0.1-0.1,0,0c0,0-0.1,0-0.1-0.1c-0.1-0.1-0.2-0.1-0.3-0.2c0,0-0.2-0.1-0.1-0.1
					c0.1,0.1,0,0-0.1-0.1c-0.1-0.1-0.2-0.2-0.3-0.3c-0.1-0.1,0,0,0,0c0-0.1-0.1-0.1-0.1-0.2c0,0-0.1-0.1-0.1-0.1c0,0,0,0,0-0.1
					c0-0.1,0,0.1,0,0c0-0.1-0.1-0.2-0.1-0.3c0-0.1,0-0.1,0,0c0-0.1,0-0.2,0-0.2c0-0.1,0-0.1,0-0.2c0,0,0-0.2,0-0.1
					c0,0.1,0-0.1,0-0.2c0-0.1,0.1-0.2,0.1-0.3c0.2-0.5,0.7-1,1.3-1.3c0.3-0.2,0.5-0.3,0.9-0.4c0.1,0,0.3-0.1,0.4-0.1
					c0.1,0,0.2,0,0.3,0c-0.1,0,0.1,0,0.1,0c0.2,0,0.3,0,0.5,0c0.1,0,0.2,0,0.3,0c0.1,0-0.1,0,0.1,0c0.1,0,0.2,0,0.2,0.1
					c0,0,0.1,0,0.1,0c-0.1,0-0.1-0.1,0,0c0,0,0.2,0.1,0.1,0c0,0,0.1,0,0.1,0.1c0,0-0.1-0.1,0,0C62.6,58.6,63.5,58.2,63.4,57.5
					L63.4,57.5z"/>
			</g>
		</g>
		<g>
			<g>
				<path class="st0" d="M55.1,69.6c0-0.7,0.4-1.3,0.6-1.9c0.3-0.6,0.5-1.2,0.9-1.7c0.8-1,2-1.5,3.3-1.5c1.2,0,2.4,0.4,3.3,1.2
					c1.1,1,1.6,2.7,1.9,4.1c0.2,1,1.7,0.6,1.5-0.4c-0.4-1.8-1.1-3.7-2.5-4.9c-1.2-1-2.8-1.5-4.3-1.5c-1.6,0.1-3.2,0.7-4.3,2
					c-0.5,0.7-0.9,1.4-1.2,2.2c-0.3,0.8-0.7,1.6-0.6,2.5C53.8,70.5,55.1,70.5,55.1,69.6L55.1,69.6z"/>
			</g>
		</g>
	</g>
	<g>
		<g>
			<g>
				<path class="st0" d="M75,57.5c-0.2-0.9-1.2-1.2-2-1.2c-0.7,0-1.4,0.1-2.1,0.3c-0.9,0.4-1.8,0.9-2.4,1.7C68,59,67.8,60,67.9,60.9
					c0.4,2.9,4.5,3.5,6.5,1.9c0.8-0.6,1.3-1.6,1.3-2.6c0-0.7-0.2-1.4-0.6-1.9c-0.3-0.4-0.8-0.6-1.2-0.9c-0.7-0.5-1.6,0.6-0.9,1.2
					c0.2,0.1,0.3,0.3,0.5,0.4c0.1,0,0.1,0.1,0.2,0.1c0,0,0.1,0,0.1,0.1c-0.1-0.1,0,0,0,0c0,0,0.1,0.1,0.1,0.1c0,0,0.1,0.1,0.1,0.2
					c0.1,0.1,0.1,0.4,0.1,0.6c0,0.4-0.1,0.7-0.2,1c0,0.1-0.1,0.1-0.1,0.1c0,0-0.1,0.2-0.1,0.1c0.1-0.1,0,0.1-0.1,0.1
					c0,0-0.1,0.1-0.1,0.1c0,0-0.1,0.1-0.1,0.1c-0.1,0.1,0,0,0,0c0,0,0,0-0.1,0c-0.1,0.1-0.2,0.1-0.3,0.2c-0.1,0-0.1,0.1-0.2,0.1
					c0.1-0.1,0.1,0,0,0c-0.1,0-0.2,0.1-0.4,0.1c-0.1,0-0.2,0-0.3,0.1c-0.1,0,0.1,0,0,0c-0.1,0-0.1,0-0.2,0c-0.1,0-0.2,0-0.4,0
					c-0.1,0-0.1,0-0.2,0c0,0-0.1,0-0.1,0c-0.1,0,0.1,0,0,0c-0.2,0-0.5-0.1-0.7-0.2c-0.1,0-0.1-0.1,0,0c0,0-0.1,0-0.1-0.1
					c-0.1-0.1-0.2-0.1-0.3-0.2c0,0-0.2-0.1-0.1-0.1c0.1,0.1,0,0-0.1-0.1c-0.1-0.1-0.2-0.2-0.3-0.3c-0.1-0.1,0,0,0,0
					c0-0.1-0.1-0.1-0.1-0.2c0,0-0.1-0.1-0.1-0.1c0,0,0,0,0-0.1c0-0.1,0,0.1,0,0c0-0.1-0.1-0.2-0.1-0.3c0-0.1,0-0.1,0,0
					c0-0.1,0-0.2,0-0.2c0-0.1,0-0.1,0-0.2c0,0,0-0.2,0-0.1c0,0.1,0-0.1,0-0.2c0-0.1,0.1-0.2,0.1-0.3c0.2-0.5,0.7-1,1.3-1.3
					c0.3-0.2,0.5-0.3,0.9-0.4c0.1,0,0.3-0.1,0.4-0.1c0.1,0,0.2,0,0.3,0c-0.1,0,0.1,0,0.1,0c0.2,0,0.3,0,0.5,0c0.1,0,0.2,0,0.3,0
					c0.1,0-0.1,0,0.1,0c0.1,0,0.2,0,0.2,0.1c0,0,0.1,0,0.1,0c-0.1,0-0.1-0.1,0,0c0,0,0.2,0.1,0.1,0c0,0,0.1,0,0.1,0.1
					c0,0-0.1-0.1,0,0C74.2,58.6,75.1,58.2,75,57.5L75,57.5z"/>
			</g>
		</g>
		<g>
			<g>
				<path class="st0" d="M66.7,69.6c0-0.7,0.4-1.3,0.6-1.9c0.3-0.6,0.5-1.2,0.9-1.7c0.8-1,2-1.5,3.3-1.5c1.2,0,2.4,0.4,3.3,1.2
					c1.1,1,1.6,2.7,1.9,4.1c0.2,1,1.7,0.6,1.5-0.4c-0.4-1.8-1.1-3.7-2.5-4.9c-1.2-1-2.8-1.5-4.3-1.5c-1.6,0.1-3.2,0.7-4.3,2
					c-0.5,0.7-0.9,1.4-1.2,2.2c-0.3,0.8-0.7,1.6-0.6,2.5C65.4,70.5,66.7,70.5,66.7,69.6L66.7,69.6z"/>
			</g>
		</g>
	</g>
</g>
</svg>
