<?xml version="1.0" encoding="utf-8"?>
<!-- Generator: Adobe Illustrator 24.0.1, SVG Export Plug-In . SVG Version: 6.00 Build 0)  -->
<svg version="1.1" id="Calque_1" xmlns="http://www.w3.org/2000/svg" xmlns:xlink="http://www.w3.org/1999/xlink" x="0px" y="0px"
	 viewBox="0 0 122 122" style="enable-background:new 0 0 122 122;" xml:space="preserve">
<style type="text/css">
	.st0{fill:#91D902;}
</style>
<g>
	<path d="M102,6.9c-0.7-4.4-4.8-7.4-9.3-6.8l-76.6,11c-3,0.5-5.1,3.3-4.7,6.3l7.2,48.5c0.6,3.8,2,7.4,4.2,10.5
		c6.8,9.8,22.1,31.8,25.8,36.8c0.9,1.4,3.6,5.5,5.4,8.1c0.7,1,2.2,0.8,2.6-0.3c1.2-3.5,3.2-9.3,4.2-11.7c2.2-5.5,5.6-16.1,6.6-19.3
		c0.2-0.6,0.7-1,1.3-1.2l4.6-0.8l20.9-3.9l14.1-2.9c3-0.5,5.1-3.3,4.6-6.4C110.2,57.4,102,6.9,102,6.9"/>
</g>
<g>
	<path class="st0" d="M46.7,43.2C46.7,43.2,46.7,43.2,46.7,43.2C46.7,43.2,46.7,43.3,46.7,43.2C46.7,43.2,46.7,43.2,46.7,43.2
		C46.7,43.2,46.7,43.2,46.7,43.2z"/>
	<path class="st0" d="M48.4,45.9c0.8-0.5,1.3-1.4,1.3-2.3c0-0.5-0.1-1-0.4-1.4c-0.2-0.4-0.6-0.7-1.1-0.9c0-0.3,0.1-0.5,0.1-0.7
		c0-0.8-0.1-1.5-0.2-2.3c0.1,0,0.1,0,0.2,0c0.3,0,0.5-0.2,0.7-0.4c0,0,0.2-0.2,0.1-0.1c0.1,0,0.1-0.1,0.2-0.1
		c0.3-0.2,0.6-0.4,0.9-0.7c0.6-0.4,1.2-0.9,1.7-1.4c0.4-0.4,0.3-1-0.2-1.3c-0.6-0.4-1.3-0.8-1.9-1.1c-0.3-0.2-0.6-0.4-0.9-0.6
		c0,0-0.1-0.1-0.1-0.1c0,0,0,0,0,0c-0.1-0.1-0.1-0.1-0.2-0.2c-0.2-0.1-0.3-0.3-0.5-0.4c-0.1-0.1-0.3-0.1-0.4-0.1
		c-0.3-0.5-0.9-0.5-1.2,0.1c-0.2,0.6-0.2,1.3-0.2,1.9c0,0.6,0,1.2,0,1.8c0,0.8,0.1,1.5,0.2,2.3c0.1,0.7,0.2,1.5,0.2,2.2
		c0,0.2,0,0.4,0,0.6c0,0.1,0,0.2,0,0.3c0,0,0,0.1,0,0.1c0,0.1,0,0.2-0.1,0.3c-0.2,0-0.4,0.1-0.6,0.2c-0.4,0.3-0.7,0.7-0.9,1.2
		c-0.3,0.9-0.1,1.9,0.5,2.7C46.3,46.2,47.5,46.4,48.4,45.9z M46.6,43.4C46.6,43.4,46.6,43.5,46.6,43.4
		C46.6,43.5,46.6,43.4,46.6,43.4z M47.8,44.2C47.8,44.3,47.8,44.3,47.8,44.2c-0.1,0.1-0.1,0.1-0.2,0.2c0,0,0,0,0,0c0,0,0,0-0.1,0
		c0,0-0.1,0-0.1,0c0,0,0,0-0.1,0c0,0-0.1,0-0.1,0c-0.1,0-0.1,0-0.2,0c0,0,0,0,0,0c0,0,0,0,0,0c0,0-0.1,0-0.1,0c0,0,0,0,0.1,0
		c0,0-0.1,0-0.1,0c0,0-0.1-0.1-0.1-0.1c0,0,0,0,0,0c0,0,0,0,0,0c0,0-0.1-0.1-0.1-0.2c0,0,0-0.1,0-0.1c0-0.1,0-0.1,0-0.2
		c0,0,0,0.1,0,0.1c0,0,0-0.1,0-0.1c0,0,0,0,0,0c0,0,0,0,0,0c0,0,0,0,0,0c0,0,0,0,0,0c0-0.1,0-0.1,0-0.2c0,0,0,0,0,0c0,0,0,0,0,0
		c0-0.1,0-0.2,0.1-0.2c0,0.1,0,0,0,0c0,0,0-0.1,0-0.1c0,0,0,0,0,0.1c0,0,0,0,0,0c0-0.1,0.1-0.1,0.1-0.2c0,0,0,0,0.1-0.1
		c0,0,0,0,0.1,0c0.1,0,0.1-0.1,0.2-0.1c0,0,0,0,0,0c0,0,0.1,0,0.1,0c0,0,0,0,0.1,0c0,0,0,0,0,0c-0.1,0,0,0,0,0c0.1,0,0.1,0,0.1,0
		c0,0,0,0,0,0c0.1,0,0.1,0.1,0.2,0.1c0,0,0,0,0,0c0,0,0.1,0,0.1,0.1c0,0,0,0,0,0c0,0,0,0,0.1,0.1c0,0,0.1,0.1,0.1,0.1c0,0,0,0,0,0
		c0,0.1,0,0.1,0.1,0.2c0,0,0,0,0,0c0,0.1,0,0.1,0,0.2c0,0,0,0,0,0.1c0,0.1-0.1,0.2-0.1,0.4c0,0,0,0,0,0
		C47.9,44.1,47.9,44.2,47.8,44.2z M48.9,34.4c0.4,0.2,0.7,0.4,1.1,0.6c-0.1,0-0.1,0.1-0.2,0.1c0,0-0.1,0.1-0.1,0.1
		c-0.1,0.1-0.3,0.2-0.4,0.3c-0.3,0.2-0.6,0.4-0.9,0.6c-0.1,0.1-0.3,0.2-0.4,0.3c0-0.2,0-0.4-0.1-0.6c0-0.6-0.1-1.3-0.1-1.9
		c0-0.1,0-0.1,0-0.2C48.2,34,48.5,34.2,48.9,34.4z"/>
	<path class="st0" d="M47,44.4C47,44.5,47,44.5,47,44.4C47.1,44.5,47.1,44.5,47,44.4C47.1,44.5,47.1,44.5,47,44.4
		C47,44.4,47,44.4,47,44.4z"/>
	<polygon class="st0" points="46.6,43.8 46.6,43.8 46.6,43.8 	"/>
	<path class="st0" d="M88.6,34.9c0.5-3.5,0.7-7.6-0.6-11c-0.9-2.5-3.2-3.7-5.8-3.6c-0.5,0-0.7,0.4-0.8,0.8c-0.1,0.1-0.1,0.2-0.1,0.4
		c-0.1,1.8,0,3.6,0.2,5.5c-1,0.6-2.8,0.2-3.9,0.2c-2.2,0.1-4.4,0.4-6.6,0.5c-4.5,0.3-9.1,0-13.6-0.4c-4.3-0.4-8.6-0.6-12.9,0.1
		c-1.4,0.3-2.9,0.5-4.3,0.8c-1.1,0.2-2.2,0.6-2.8,1.6c-0.2,0.3-0.3,0.7-0.4,1.1C37,30.9,37,31,36.9,31.1c-0.2,0.8,0,1.6,0.1,2.4
		c0.2,1.2,0.1,2.4,0.1,3.6c0,2.1,0,4.2,0.2,6.3c0.2,2.1,0.4,4.2,0.3,6.4c-0.1,2.1-0.2,4.3-0.3,6.4c-0.1,2.1-0.2,4.2-0.3,6.3
		c-0.1,2-0.3,4.1-0.2,6.1c0.1,2.4,3.2,5.3,5.6,3.6c0.3-0.2,0.4-0.5,0.4-0.8c0-0.1,0-0.1,0-0.2c-0.1-1.2,0.1-2.4,0.1-3.6
		c0-0.7,0-1.5,0-2.2c0.5,0.1,1,0,1.6-0.1c0.8-0.1,1.6-0.1,2.4,0c1.6,0.1,3.3,0.1,4.9,0.3c3.3,0.3,6.6,0.1,9.9-0.2
		c3.6-0.3,7.1,0,10.7-0.1c3.3-0.1,6.5-0.3,9.8-0.1c2.6,0.1,4.5-0.9,5.1-3.6c0.1-0.3,0.1-0.7,0.1-1c0-0.1,0.1-0.2,0.1-0.3
		c0-0.1,0-0.2-0.1-0.3c0-0.6-0.1-1.1-0.1-1.7c0-1.3,0-2.6,0-3.9c0-2.9,0-5.8,0.1-8.7C87.7,41.9,88.1,38.4,88.6,34.9z M86.9,26.4
		c0.6,3.1,0.4,6.2-0.1,9.4c-0.9,5.6-1.1,11.3-1,17c0,1.7,0,3.3,0.1,5c0,0,0,0-0.1-0.1c-0.3-0.2-0.6-0.3-0.9-0.5
		c-0.6-0.2-1.3-0.4-1.9-0.4c0-0.2,0-0.4,0-0.5c0-0.4,0.1-0.8,0.1-1.3c0.1-0.1,0.1-0.3,0-0.5c0-0.3,0-0.7,0.1-1
		c0.3-3.6-0.1-7.2-0.2-10.8c-0.1-3.6,0.1-7.2,0.3-10.8c0.2-3.3-0.2-6.6-0.5-9.9c0.9,0,1.8,0.2,2.6,0.9
		C86.5,23.7,86.7,25.1,86.9,26.4z M71.2,29.3c2.3-0.2,4.6-0.5,6.9-0.5c1.1,0,2.4,0.2,3.5-0.1c0,0.8,0.1,1.6,0,2.4
		c-0.2,3.4-0.5,6.7-0.4,10.1c0,3.3,0.3,6.7,0.3,10c0,0.9-0.1,1.7-0.1,2.5c-0.3,0-0.6,0-1,0c-0.9,0-1.3-0.2-1.8-0.9
		c-0.4-0.4-0.7-0.9-1.1-1.3c-0.3-0.3-0.9-0.6-1.1-0.9c-0.2-0.3-0.1-0.9-0.3-1.3c-0.2-0.3-0.5-0.5-0.8-0.6c-0.9-0.3-1.9,0-2.8,0.2
		c-0.3-1.2-0.5-2.3-0.6-3.5c-0.1-1.2-0.4-2-1.2-3c-0.4-0.6-0.8-1.2-1.3-1.7c-0.4-0.5-1-0.6-0.5-1.2c0.6-0.8,1.4-1,1.4-2.1
		c0-1-0.8-1.9-1.5-2.6c-0.4-0.4-0.8-0.8-1.2-1.1c-0.1-0.1-0.2-0.2-0.4-0.2c0.1-0.1,0.3-0.2,0.4-0.3c0.4-0.3,0.7-0.6,1-1
		c0.5-0.8,0.9-1.8,0.9-2.7C70,29.4,70.6,29.4,71.2,29.3z M38.5,68.3c0-1.6,0.1-3.3,0.1-5c0.1-3.6,0.3-7.3,0.5-10.9
		c0.1-1.7,0.2-3.4,0.1-5.2c-0.1-1.8-0.3-3.6-0.5-5.4c-0.1-1.8-0.1-3.5-0.1-5.3c0-0.7,0-1.3,0-2c0.8,0.5,1.7,0.8,2.7,0.8
		c0.3,1.2-0.1,2.5-0.1,3.8c-0.1,1.6,0,3.2,0,4.8c0,3.3-0.2,6.6-0.3,10c-0.1,3.2,0.2,6.4,0.3,9.6c0,1.6,0,3.1,0,4.7
		c0,0.8-0.1,1.8,0.1,2.6C40.1,71.5,38.6,69.5,38.5,68.3z M81.1,63.3c-3-0.2-6,0.1-8.9,0.2c-3.2,0.1-6.3-0.1-9.5,0
		c-3.3,0.2-6.6,0.5-10,0.3c-1.6-0.1-3.1-0.2-4.7-0.3c-0.8,0-1.6-0.1-2.4-0.1c-0.8,0-1.8,0.4-2.6,0.3c0,0-0.1,0-0.1,0
		c0-0.4,0-0.8,0-1.2c-0.1-3.2-0.3-6.4-0.2-9.6c0.1-3.3,0.2-6.6,0.2-10c0-1.4-0.1-2.9,0-4.3c0.1-1.3,0.4-2.6-0.1-3.9
		c0-0.1-0.1-0.2-0.2-0.3c-0.1-0.3-0.3-0.5-0.7-0.5c-0.9-0.1-1.8-0.2-2.5-0.8c-0.6-0.5-1-1.6-0.6-2.4c0.6-1.1,2.7-1.1,3.8-1.2
		c2.1-0.3,4.1-0.8,6.3-0.9c2.5-0.1,5,0.1,7.5,0.3c3.9,0.3,7.7,0.6,11.6,0.6c-0.2,1.1-0.9,2.1-1.8,2.7c-0.6,0.4-1.3,0.7-1.1,1.5
		c0.2,0.7,0.9,1,1.5,1.4c0.5,0.3,0.9,0.8,1.3,1.2c0.6,0.7,0.7,1.2,0,1.9c-0.6,0.5-1.2,1.1-1.1,1.9c0.1,0.9,1.2,1.6,1.7,2.3
		c0.4,0.6,1,1.1,1.3,1.8c0.3,0.6,0.3,1.3,0.3,2c0.1,1.3,0.5,2.6,0.8,3.9c0.1,0.4,0.5,0.6,0.8,0.6c0.7,0,1.4-0.2,2.1-0.3
		c0.1,0,0.7-0.1,0.8-0.1c-0.2-0.1-0.1,0.3-0.1,0.3c0.3,1.1,1,1.3,1.8,2.1c0.7,0.8,1.2,1.8,2.3,2.3c0.8,0.4,1.7,0.4,2.6,0.4
		c0,0.2,0,0.4,0,0.6c0,0.2-0.1,0.4-0.1,0.6c0,0.2-0.2,0.5,0.1,0.2c-0.7,0.7,0.3,1.8,1.1,1.3c0.2,0,0.4,0.1,0.5,0.1
		c0.1,0,0.1,0,0.2,0c0,0,0,0,0,0c0.1,0,0.2,0.1,0.4,0.1c0.3,0.1,0.5,0.2,0.8,0.3c0,0,0.1,0,0.1,0c0.1,0,0.1,0.1,0.2,0.1
		c0.1,0.1,0.2,0.1,0.3,0.2c0,0,0.1,0,0.1,0.1c0,0,0.1,0.1,0.1,0.1c0.1,0.1,0.2,0.2,0.3,0.2c0.1,0.1,0.2,0.2,0.3,0.3
		c0,0,0.1,0.1,0.1,0.1c0,0,0.1,0.1,0.1,0.1c0,0,0,0.1,0.1,0.1c0,0,0.1,0.1,0.1,0.2c0,0,0,0,0,0c0,0.1,0,0.1,0,0.2
		c0,0.9-0.3,1.9-1,2.5C83.9,63.7,82.3,63.4,81.1,63.3z"/>
	<path class="st0" d="M75.5,56c-0.7-0.4-1.5-0.4-2.2,0.1c-0.3,0.2-0.6,0.5-0.8,0.7c-0.1,0.1-0.3,0.2-0.5,0.3c-0.6-1-1.1-2.1-2.4-2.3
		c-1.5-0.3-3.2,1.2-4.4,1.9c-0.4,0.2-0.9,0.6-1.3,0.7c0,0-0.3,0.2-0.3,0.2c-0.1,0-0.2-0.6-0.2-0.6c-0.3-0.9-0.4-1.8-0.1-2.7
		c0.4-1.7,1.3-3.2,2.2-4.6c0.8-1.3,1.7-2.5,0.9-4.1c-0.5-1.1-1.3-2.3-2.2-3.1c-1.3-1.3-3.4-3-5.4-2.8c-1.4,0.1-1.8,1.2-2.3,2.3
		c-0.4,0.9-0.7,0.9-1.6,1c-0.7,0-1.7,0.3-2.3,0c-0.9-0.4-1.6,0.8-0.7,1.3c1.1,0.6,2.4,0.3,3.5,0.3c1.3-0.1,2.1-0.6,2.6-1.9
		c0.2-0.4,0.3-1.2,0.8-1.4c0.4-0.2,0.9,0,1.2,0.1c1,0.4,1.9,1.1,2.7,1.7c0.8,0.8,1.5,1.6,2.1,2.6c0.5,1,0.3,1.4-0.2,2.4
		c-0.5,0.8-1,1.5-1.4,2.3c-0.7,1.3-1.4,2.8-1.6,4.3c-0.2,1.2,0,3.3,1,4.2c1.3,1.1,3.1-0.4,4.2-1.1c0.6-0.3,2-1.5,2.7-1.3
		c0.5,0.2,0.8,0.9,1.1,1.4c0,0,0,0,0,0c-0.2,0.1-0.3,0.2-0.4,0.3c-0.2,0-0.4,0-0.5,0.1c-0.4,0.2-0.6,0.8-0.3,1.2
		c0.2,0.3,0.4,0.6,0.6,0.9c0.1,0.1,0.1,0.2,0.2,0.3c0,0,0,0.1,0.1,0.1c0,0,0,0,0,0c0.1,0.1,0.2,0.2,0.3,0.4c0.4,0.6,0.9,1.1,1.7,1.3
		c0.8,0.1,1.6,0.1,2.3-0.3c0.3-0.1,0.4-0.1,0.8-0.2c0.4,0,0.7,0,1-0.1c0.7-0.3,1-1.2,1.1-2c0.1-0.8-0.1-1.6-0.5-2.3
		C76.5,57,76.1,56.4,75.5,56z M74.4,57.3C74.3,57.3,74.4,57.3,74.4,57.3L74.4,57.3z M75.1,60.3c-0.3,0-0.7,0-1,0.1
		c-0.3,0.1-0.5,0.3-0.7,0.3c0,0-0.1,0-0.1,0c0,0-0.1,0-0.1,0c-0.2,0-0.3,0-0.5,0c-0.2,0-0.2,0-0.3,0c0,0-0.1,0-0.1,0
		c-0.1,0-0.1-0.1-0.1,0c-0.1-0.1-0.3-0.4-0.4-0.5c-0.2-0.3-0.4-0.6-0.7-0.9c0,0,0.1,0,0.1-0.1c0.3-0.1,0.5-0.3,0.8-0.5
		c0.5-0.3,1.1-0.5,1.5-1c0.2-0.1,0.3-0.3,0.5-0.4c0,0,0.2-0.1,0.2-0.1c-0.1,0,0,0,0,0c0,0,0,0,0,0c0.4,0.1,0.7,0.3,0.9,0.7
		c0.2,0.4,0.4,0.9,0.4,1.4c0,0.3,0,0.4-0.1,0.7c0,0.1,0,0.1-0.1,0.2c0,0,0,0,0,0c0,0,0,0,0,0c0,0,0,0-0.1,0
		C75.3,60.3,75.2,60.3,75.1,60.3z M75.4,60.5C75.4,60.5,75.4,60.5,75.4,60.5C75.4,60.5,75.4,60.5,75.4,60.5z"/>
	<path class="st0" d="M55.5,55.7C55,55.4,54.3,55,54,54.6c-0.3-0.4,0.1-1,0.1-1.4c0.1-0.7,0.2-1.4,0.1-2.1c-0.1-0.7-0.7-1.4-1.3-1.7
		c-0.8-0.4-1.5,0.4-2,0.9c-0.4,0.4-0.9,1.1-1.5,1.3c-0.3,0.1-0.7,0-1,0c-0.1,0-0.2,0-0.3-0.1c-0.1,0-0.4-0.2-0.2-0.1c0,0,0,0,0,0
		c-0.1-0.1-0.3-0.1-0.4-0.1c-0.4,0-0.9,0.4-0.9,0.9c0,0.1,0.1,0.3,0.1,0.4c0,0.7-0.1,1.3-0.1,2c0,0.3,0,0.7,0,1
		c0,0.4-0.1,0.4-0.4,0.7c-0.4,0.4-0.9,0.7-1.1,1.3c-0.2,0.7,0.3,1.3,0.7,1.9c0.5,0.5,0.9,1.1,1.4,1.6c0.5,0.5,0.9,1.1,1.7,1.3
		c0.7,0.1,1.3,0,2-0.2c0.8-0.2,1.5-0.4,2.2-0.6c1.3-0.3,2.2-1.2,3.2-2.1c0.4-0.3,0.8-0.7,0.9-1.2c0.2-0.6-0.1-1.1-0.5-1.5
		C56.3,56.3,55.9,56,55.5,55.7z M53.6,59.3c-0.4,0.3-0.7,0.3-1.2,0.5c-0.5,0.1-1,0.3-1.6,0.4c-0.5,0.1-1,0.3-1.4,0.3
		c-0.4,0-0.7-0.4-0.9-0.7c-0.3-0.4-0.6-0.7-0.9-1.1c-0.2-0.2-0.4-0.4-0.5-0.6c-0.1-0.1-0.1-0.2-0.2-0.3c0.2-0.2,0.7-0.7,0.8-0.7
		c0.4-0.4,0.6-0.8,0.6-1.3c0.1-0.9,0-1.8,0-2.6c0.5,0.1,1,0.1,1.5,0c0.6-0.1,1.1-0.4,1.5-0.8c0.3-0.2,0.5-0.5,0.8-0.8
		c0.1-0.1,0.3-0.3,0.4-0.4c0,0,0,0,0,0c0.3,0.5,0.1,1.2,0,1.7c-0.2,0.9-0.5,1.8,0.1,2.6c0.5,0.7,1.4,1.2,2.1,1.7
		c0.2,0.2,0.5,0.3,0.7,0.5c0,0,0,0,0,0C54.9,58.3,54.2,58.9,53.6,59.3z"/>
</g>
</svg>
