<?xml version="1.0" encoding="utf-8"?>
<!-- Generator: Adobe Illustrator 24.0.1, SVG Export Plug-In . SVG Version: 6.00 Build 0)  -->
<svg version="1.1" id="Calque_1" xmlns="http://www.w3.org/2000/svg" xmlns:xlink="http://www.w3.org/1999/xlink" x="0px" y="0px"
	 viewBox="0 0 122 122" style="enable-background:new 0 0 122 122;" xml:space="preserve">
<style type="text/css">
	.st0{fill:#91D902;}
</style>
<g>
	<path d="M100.6,6.8c-0.7-4.4-4.8-7.4-9.3-6.8L14.7,11c-3,0.5-5.1,3.3-4.7,6.3l7.2,48.5c0.6,3.8,2,7.4,4.2,10.5
		c6.8,9.8,22.1,31.8,25.8,36.8c0.9,1.4,3.6,5.5,5.4,8.1c0.7,1,2.2,0.8,2.6-0.3c1.2-3.5,3.2-9.3,4.2-11.7c2.2-5.5,5.6-16.1,6.6-19.3
		c0.2-0.6,0.7-1,1.3-1.2l4.6-0.8L92.8,84l14.1-2.9c3-0.5,5.1-3.3,4.6-6.4C108.8,57.3,100.6,6.8,100.6,6.8"/>
</g>
<g>
	<g>
		<g>
			<path class="st0" d="M68.8,34c0,0.4,0.3,0.6,0.6,0.8c0.1,0,0.2,0.1,0.3,0.1c0.2,0.1-0.1-0.1,0,0c0,0,0.2,0.1,0.2,0.1
				c-0.1-0.1-0.1-0.1,0,0c0,0,0,0,0,0c0,0,0.2,0.2,0.1,0.1c-0.1-0.1,0.1,0.1,0.1,0.1c0,0.1,0.1,0.1,0.1,0.2c-0.1-0.2,0,0,0,0
				c0,0.1,0,0.1,0.1,0.2c0,0.2,0-0.1,0,0c0,0.1,0,0.1,0,0.2c0,0.1,0,0.2,0,0.3c0,0,0,0.1,0,0.1c0-0.1,0-0.2,0-0.1c0,0.1,0,0.1,0,0.2
				c0,0,0,0.1,0,0.1c0,0.1,0,0,0,0c-0.1,0.1-0.1,0.2-0.2,0.3c-0.1,0.1,0.1-0.1,0,0c0,0-0.1,0.1-0.1,0.1c0,0-0.1,0.1-0.1,0.1
				c-0.2,0.2,0.1-0.1,0,0c-0.1,0.1-0.2,0.1-0.3,0.2c0,0-0.1,0-0.1,0.1c-0.1,0-0.1,0,0.1,0c-0.1,0-0.2,0.1-0.3,0.1
				c-0.4,0.2-0.5,0.7-0.4,1.1c0.2,0.4,0.6,0.6,1,0.5c0.4-0.1,0.8-0.3,1.1-0.6c0.2-0.2,0.4-0.4,0.6-0.7c0.4-0.5,0.5-1.2,0.4-1.9
				c-0.1-0.8-0.4-1.7-1.1-2.2c-0.2-0.2-0.5-0.2-0.8-0.3c-0.1,0-0.1,0-0.2,0c-0.2,0-0.3,0-0.1,0c-0.1,0-0.2,0-0.2,0
				C69.1,33.3,68.8,33.6,68.8,34L68.8,34z"/>
		</g>
	</g>
	<g>
		<g>
			<path class="st0" d="M68.4,53.4c-1-0.9-2.1-1.6-3.1-2.5c-1.1-1-1.7-2.2-2.5-3.4c-1.4-2.4-2.3-4.8-2.4-7.6c-0.1-2.6,0.6-5,2.1-7.2
				c0.7-1.1,1.6-2.1,2.6-2.9c0.6-0.5,1.3-1,2-1.4c0.2-0.1,0.6-0.5,0.9-0.5c1.1,0.1,1.1-1.7,0-1.8c-0.9-0.1-2.2,0.9-2.9,1.4
				c-1.3,0.9-2.4,2-3.4,3.3c-1.9,2.4-3,5-3.1,8c-0.1,3,0.6,6.1,2.2,8.7c0.8,1.4,1.5,2.8,2.6,3.9c1.2,1.2,2.6,2.2,4,3.1
				C68.2,55.1,69,54,68.4,53.4L68.4,53.4z"/>
		</g>
	</g>
	<g>
		<g>
			<path class="st0" d="M67.7,27.8c0.3,0.2,0.6,0.5,0.9,0.7c0.5,0.3,1,0.6,1.5,0.9c1,0.7,2.1,1.6,2.8,2.7c1.5,2.2,2,5.1,2.1,7.7
				c0,2.7-1.2,5-2.4,7.4c-0.5,1-1,2.1-1.6,3c-0.9,1.3-2.1,2.1-3.3,3c0.4,0.1,0.8,0.2,1.2,0.3c0,0.1,0.1,0.2,0.1,0.3
				c0-1.2-1.8-1.2-1.8,0c0,0.2,0,0.4,0.2,0.6c0.2,0.4,0.8,0.6,1.2,0.3c1.3-0.9,2.5-1.8,3.5-3c0.9-1.1,1.5-2.4,2.1-3.7
				c0.7-1.3,1.3-2.7,1.8-4c0.6-1.6,0.8-2.9,0.8-4.7c-0.1-2.9-0.8-6-2.5-8.4c-0.8-1.1-1.9-2.1-3-2.8c-0.6-0.4-1.2-0.7-1.8-1.1
				c-0.4-0.3-0.6-0.5-1.2-0.6C67.3,26.3,67.1,27.4,67.7,27.8L67.7,27.8z"/>
		</g>
	</g>
	<g>
		<g>
			<path class="st0" d="M59,41c0.7,1.3,2.6,2,3.9,2.6c1.5,0.7,3.2,1,4.8,0.9c1.6-0.1,3.3-0.4,4.9-1c1.1-0.4,2.9-0.7,3.6-1.9
				c0.6-1-0.9-1.8-1.6-0.9c-0.2,0.3-0.9,0.4-1.2,0.5c-0.6,0.2-1.2,0.5-1.9,0.7c-0.7,0.2-1.5,0.4-2.2,0.5c-0.6,0.1-1.3,0.2-1.9,0.3
				c-1.4,0.1-2.8-0.2-4.1-0.8c-0.6-0.3-1.2-0.5-1.7-0.8c-0.6-0.3-1.1-0.8-1.7-1.1C59.3,39.8,58.7,40.4,59,41L59,41z"/>
		</g>
	</g>
	<g>
		<g>
			<path class="st0" d="M59.4,43.1c-0.7,0.8-1.3,1.7-1.9,2.6c-0.5,0.8-0.9,1.6-1,2.5c-0.3,1.8-0.2,3.6,0.9,5.1
				c0.5,0.7,1,1.4,1.8,1.7c0.4,0.2,0.9,0.2,1.3-0.2c0.3-0.3,0.3-0.6,0.3-0.9c0.2-0.9,0.5-1.6,1.2-2.2c0.3-0.3,0.6-0.5,1-0.7
				c0.3-0.1,0.6-0.2,0.9-0.4c0.8-0.8-0.4-2.1-1.3-1.3c0.3-0.2,0.2-0.1,0-0.1c-0.1,0-0.2,0.1-0.2,0.1c-0.3,0.1-0.6,0.3-0.8,0.4
				c-0.5,0.3-1,0.7-1.3,1.2c-0.4,0.4-0.7,0.9-0.9,1.5c-0.2,0.5-0.2,1.2-0.4,1.6c0.1-0.1,0.2-0.3,0.2-0.4c0,0,0,0,0,0
				c0.1-0.1,0.3-0.2,0.4-0.2c0.2-0.1,0.1,0-0.1-0.2c-0.2-0.1-0.3-0.3-0.4-0.4c-0.3-0.3-0.5-0.7-0.7-1c-0.4-0.7-0.4-1.6-0.4-2.4
				c0-0.9,0.3-1.8,0.8-2.5c0.6-1,1.3-1.8,1.8-2.9C60.9,43.2,59.9,42.6,59.4,43.1L59.4,43.1z"/>
		</g>
	</g>
	<g>
		<g>
			<path class="st0" d="M75,44.3c0.7,1.8,1.9,3.4,1.9,5.4c0,0.9-0.2,1.8-0.6,2.7c-0.2,0.3-0.4,0.6-0.6,0.8c-0.2,0.2-0.4,0.5-0.6,0.6
				c0.4,0.3,0.9,0.7,1.3,1c0.4-1.2-0.2-2.7-0.8-3.7c-0.4-0.6-0.8-1.1-1.4-1.5c-0.4-0.3-1-0.6-1.4-1c-0.8-0.7-1.8,0.2-1.4,1.1
				c0.2,0.5,0.8,0.8,1.2,1c0.4,0.3,0.9,0.6,1.2,1c0.5,0.6,1.1,1.8,0.8,2.6c-0.3,0.8,0.7,1.3,1.3,1c0.4-0.2,0.6-0.5,0.9-0.8
				c0.3-0.4,0.6-0.7,0.8-1.1c0.5-1,0.9-2.2,0.9-3.3c0.1-2.4-1-4.6-2.4-6.5c-0.2-0.3-0.5-0.4-0.9-0.3C75.1,43.6,74.9,44,75,44.3
				L75,44.3z"/>
		</g>
	</g>
	<g>
		<g>
			<path class="st0" d="M67,53.5c-0.5,0.3-1,0.4-1.5,0.7c-0.6,0.3-1.1,0.6-1.7,0.9c-1,0.6-2,1.3-2.8,2.2c-0.8,0.9-1.4,1.9-1.8,3.1
				c-0.3,0.9-0.7,2.3-0.2,3.3c0.5,1,2,0.8,2.9,0.6c1-0.2,2-0.4,2.9-0.7c1.7-0.6,3.5-1.5,3.9-3.4c-0.5,0.1-1.1,0.1-1.6,0.2
				c0.9,1.8,2.8,2.7,4.8,3.1c1.2,0.2,4.8,1,4.8-1.2c0-1-0.8-2.1-1.3-3c-0.6-0.9-1.1-1.8-1.8-2.7c-0.7-0.8-1.4-1.6-2.4-2
				c-1-0.5-2.1-0.7-3.1-1.1c-1.1-0.4-1.6,1.4-0.5,1.8c1.5,0.6,2.9,0.8,4.1,1.9c1.1,1.2,2,2.7,2.7,4.1c0.1,0.1,0.4,0.9,0.4,0.9
				c0.1-0.1,0.2-0.2,0.3-0.3c-0.1,0-0.2,0.1-0.3,0.1c-0.2,0-0.3,0-0.5,0c-0.7,0-1.5-0.1-2.2-0.3c-1.4-0.3-2.8-0.9-3.5-2.2
				c-0.3-0.7-1.4-0.5-1.6,0.2c-0.3,1.3-1.8,1.8-2.9,2.2c-0.6,0.2-1.3,0.3-2,0.5c-0.5,0.1-1,0.1-1.5,0.2c-0.6,0.1,0,0-0.1,0.2
				c0.1-0.1,0-0.5,0-0.6c0.1-1.9,1.3-3.5,2.7-4.6c0.7-0.6,1.5-1.1,2.3-1.5c0.8-0.4,1.7-0.6,2.3-1.3C68.6,54.1,67.8,53,67,53.5
				L67,53.5z"/>
		</g>
	</g>
	<g>
		<g>
			<path class="st0" d="M51,26.8c-1.5-0.2-2.9,1-3.3,2.4c-0.4,1.4,0.3,2.9,1.4,3.7c1.1,0.8,2.6,0.8,3.7,0.1c1.1-0.7,1.6-1.8,1.5-3.1
				c0-0.8-0.3-1.6-0.8-2.2c-0.5-0.5-1.3-1-2-0.9c-0.5,0-0.9,0.4-0.9,0.9c0,0.4,0.4,0.9,0.9,0.9c0,0,0.1,0,0.2,0c0,0,0,0,0,0
				c-0.1,0-0.1,0,0,0c0,0,0.1,0,0.1,0c-0.2,0-0.1,0,0,0c0.1,0.1,0.2,0.1,0.3,0.2c0.1,0.1-0.1-0.1,0,0c0.1,0,0.1,0.1,0.2,0.1
				c0.1,0,0.2,0.1,0.2,0.2c0-0.1-0.1-0.1,0,0c0,0.1,0.1,0.1,0.1,0.2c0,0-0.1-0.2,0,0c0,0,0,0.1,0,0.1c0,0.1,0,0.1,0,0.2
				c0,0,0,0.1,0,0.1c0-0.1,0-0.1,0,0c0,0.2,0,0.4,0,0.6c0,0,0,0.2,0,0.1c0-0.1,0,0.1,0,0.1c0,0.1-0.1,0.2-0.1,0.3c-0.1,0.2,0,0,0,0
				c0,0-0.1,0.1-0.1,0.1c0,0-0.1,0.2-0.1,0.2c0.1,0,0.1-0.1,0,0c0,0-0.1,0.1-0.1,0.1c0,0-0.1,0.1-0.1,0.1c0,0-0.2,0.1-0.1,0.1
				c0.1-0.1-0.1,0-0.1,0c0,0-0.1,0-0.1,0.1c-0.1,0.1-0.2,0.1-0.3,0.1c-0.1,0.1,0.2-0.1,0,0c0,0-0.1,0-0.1,0c-0.1,0-0.3,0.1-0.4,0.1
				c0.2,0-0.1,0-0.2,0c-0.1,0-0.1,0-0.2,0c0,0,0.2,0,0,0c-0.1,0-0.2-0.1-0.3-0.1c-0.1,0,0.2,0.1,0,0c-0.1,0-0.1-0.1-0.2-0.1
				c-0.1,0-0.3-0.2-0.1-0.1c-0.1-0.1-0.2-0.2-0.3-0.3c-0.1-0.1-0.1-0.2-0.2-0.2c0.1,0.1,0,0,0,0c0-0.1-0.1-0.1-0.1-0.2
				c0-0.1-0.1-0.1-0.1-0.2c-0.1-0.1,0,0.2,0,0c0-0.1-0.1-0.2-0.1-0.3c-0.1-0.2,0,0.1,0,0c0-0.1,0-0.1,0-0.2c0-0.1,0-0.1,0-0.2
				c0-0.2,0,0.2,0-0.1c0-0.1,0.1-0.2,0.1-0.4c0,0.1,0,0,0,0c0-0.1,0.1-0.1,0.1-0.2c0-0.1,0.1-0.1,0.1-0.2c0,0,0-0.1,0.1-0.1
				c-0.1,0.1-0.1,0.1,0,0c0.1-0.1,0.2-0.2,0.3-0.3c0,0,0.1-0.1,0,0c0.1,0,0.1-0.1,0.2-0.1c0.1-0.1,0.1,0,0,0c0.1,0,0.2-0.1,0.3-0.1
				c0.1,0,0.3-0.1,0.4-0.1c0.3-0.1,0.4-0.2,0.7-0.4c0.2-0.2,0.3-0.6,0.2-0.8C51.6,26.9,51.3,26.8,51,26.8L51,26.8z"/>
		</g>
	</g>
	<g>
		<g>
			<path class="st0" d="M44.3,36.8c-1.3,0.4-1.4,2.3-1.3,3.4c0.2,1.6,1.4,3.2,3,3.7c1.5,0.5,3.1-0.1,4.1-1.3c1-1.2,1.4-2.7,1.5-4.2
				c0-0.7,0.1-1.3,0.1-2c0-0.6,0-1.1,0-1.7c0-0.4-0.1-0.9,0-1.3c0.3-1.1-1.4-1.6-1.7-0.5C49.8,33.6,50,34.3,50,35c0,0.7,0,1.4,0,2.1
				c-0.1,1.1-0.1,2.2-0.5,3.3c-0.4,0.8-0.9,1.6-1.9,1.9c-1.2,0.3-2.1-0.5-2.6-1.4c-0.3-0.5-0.3-1.1-0.3-1.7c0-0.4,0.1-1,0.3-1.3
				C45.5,37.5,44.9,36.7,44.3,36.8L44.3,36.8z"/>
		</g>
	</g>
</g>
</svg>
