<?xml version="1.0" encoding="utf-8"?>
<!-- Generator: Adobe Illustrator 24.0.1, SVG Export Plug-In . SVG Version: 6.00 Build 0)  -->
<svg version="1.1" id="Calque_1" xmlns="http://www.w3.org/2000/svg" xmlns:xlink="http://www.w3.org/1999/xlink" x="0px" y="0px"
	 viewBox="0 0 122 122" style="enable-background:new 0 0 122 122;" xml:space="preserve">
<style type="text/css">
	.st0{fill:#91D902;}
</style>
<g>
	<path d="M101.2,6.8c-0.7-4.4-4.8-7.4-9.3-6.8L15.3,11c-3,0.5-5.1,3.3-4.7,6.3l7.2,48.5c0.6,3.8,2,7.4,4.2,10.5
		c6.8,9.8,22.1,31.8,25.8,36.8c0.9,1.4,3.6,5.5,5.4,8.1c0.7,1,2.2,0.8,2.6-0.3c1.2-3.5,3.2-9.3,4.2-11.7c2.2-5.5,5.6-16.1,6.6-19.3
		c0.2-0.6,0.7-1,1.3-1.2l4.6-0.8L93.4,84l14.1-2.9c3-0.5,5.1-3.3,4.6-6.4C109.4,57.3,101.2,6.8,101.2,6.8"/>
</g>
<g>
	<g>
		<g>
			<path class="st0" d="M69.8,52c-0.8-0.4-1.6,0-2.2,0.6c-0.5,0.5-0.9,1.1-1.2,1.7c-0.8,1.8,0.1,3.8,1.6,4.8c1.3,0.9,3,0.8,4.3-0.1
				c1.3-0.9,2-2.5,1.6-4.1c-0.2-0.9-0.9-1.8-1.7-2.4c-0.9-0.7-2-1.2-3.2-0.9c-0.5,0.1-0.8,0.6-0.6,1.1c0.1,0.5,0.6,0.7,1.1,0.6
				c0,0,0.3,0,0.1,0c0.1,0,0.2,0,0.3,0c0,0,0.3,0,0.1,0c0.1,0,0.2,0,0.3,0.1c0.1,0,0.1,0,0.2,0.1c0.2,0.1-0.1-0.1,0.1,0.1
				c0.2,0.1,0.4,0.2,0.5,0.3c0,0-0.1-0.1,0,0c0.1,0.1,0.1,0.1,0.2,0.2c0.1,0.1,0.2,0.3,0.4,0.4c0.2,0.2,0-0.1,0,0.1
				c0,0.1,0.1,0.1,0.1,0.2c0,0.1,0.1,0.1,0.1,0.2c0,0,0.2,0.3,0.1,0.1c0,0.1,0.1,0.2,0.1,0.3c0,0.1,0,0.1,0,0.2c0,0.2,0-0.2,0,0
				c0,0.1,0,0.2,0,0.3c0,0,0,0.3,0,0c0,0.1,0,0.2-0.1,0.3c0,0.1-0.1,0.2-0.1,0.3c0.1-0.2,0,0,0,0c0,0.1-0.1,0.1-0.1,0.2
				c-0.1,0.1-0.1,0.2-0.2,0.3c0,0,0.1-0.1,0,0c-0.1,0.1-0.1,0.1-0.2,0.2c0,0-0.1,0.1-0.1,0.1c0,0-0.2,0.2,0,0
				c-0.1,0.1-0.2,0.1-0.3,0.2c-0.1,0-0.1,0.1-0.2,0.1c0,0-0.2,0.1,0,0C70.9,58,70.7,58,70.6,58c-0.1,0-0.1,0-0.2,0
				c-0.2,0.1,0.2,0,0,0c-0.1,0-0.2,0-0.3,0c-0.1,0-0.1,0-0.2,0c0.2,0,0,0,0,0c-0.1,0-0.3-0.1-0.4-0.1c0.2,0.1,0,0-0.1,0
				c-0.1,0-0.1-0.1-0.2-0.1c-0.1,0-0.1-0.1-0.2-0.1c0.1,0.1,0,0,0,0c-0.1-0.1-0.3-0.2-0.4-0.4c0,0-0.2-0.2-0.1-0.1
				c-0.1-0.1-0.1-0.2-0.2-0.2c0-0.1-0.1-0.1-0.1-0.2c0,0-0.1-0.3-0.1-0.1C68,56.5,68,56.3,68,56.1c0-0.1,0-0.1,0-0.2
				c0,0.2,0-0.1,0-0.1c0-0.1,0-0.2,0-0.3c0-0.1,0-0.1,0-0.2c0,0.1,0,0.1,0,0c0-0.1,0-0.3,0.1-0.4c-0.1,0.1,0,0.1,0,0
				c0-0.1,0.1-0.1,0.1-0.2c0.1-0.1,0.1-0.2,0.2-0.3c0-0.1,0.1-0.1,0.1-0.2c0.1-0.1,0.1-0.1,0,0c0,0,0.1-0.1,0.1-0.1
				c0.1-0.1,0.2-0.2,0.3-0.3c0,0,0.1-0.1,0.2-0.1c0,0,0.2-0.2,0.1-0.1c-0.1,0.1,0.1,0,0.1,0c0.1,0,0.1-0.1,0.2-0.1
				c0.1-0.1-0.2,0.1,0,0c0.2-0.1-0.1,0,0,0c0.3,0,0.6-0.2,0.7-0.5C70.2,52.6,70.1,52.1,69.8,52L69.8,52z"/>
		</g>
	</g>
	<g>
		<g>
			<path class="st0" d="M58.7,36.7c1.1-0.7,2-1.7,3.1-2.4c1.3-0.8,2.7-1.6,4.3-1.6c1.5,0,3.2,0.5,4.6,1c1.1,0.4,2,1.1,2.8,2
				c2.6,3.2,2.5,8.5-0.4,11.5c-1.6,1.6-4.9,3.7-7.2,2.6c-1-0.5-1.9,1-0.9,1.5c2.7,1.3,5.9-0.2,8-1.9c2.1-1.6,3.5-3.8,3.9-6.4
				c0.4-2.5,0-5.2-1.3-7.4c-0.6-1.1-1.5-2-2.5-2.7c-1.4-1-3.1-1.3-4.8-1.7c-2-0.5-3.9-0.3-5.7,0.7c-0.9,0.5-1.8,1-2.6,1.6
				c-0.7,0.5-1.2,1.3-1.9,1.8C57.2,35.9,57.9,37.2,58.7,36.7L58.7,36.7z"/>
		</g>
	</g>
	<g>
		<g>
			<path class="st0" d="M67.2,31.4c-1.3,0.6-1.5,2.5-1.5,3.7c-0.1,1.5,0,3,0.4,4.4c1.1,3.7,4.3,6.7,8.1,7.5c1.1,0.2,1.6-1.5,0.5-1.7
				c-3.2-0.7-5.9-3-6.9-6.1c-0.4-1.1-0.4-2.4-0.4-3.5c0-1,0-2.4,0.6-3.2C68.5,31.8,67.9,31,67.2,31.4L67.2,31.4z"/>
		</g>
	</g>
	<g>
		<g>
			<path class="st0" d="M53.9,36.1c-1-0.1-1.9,0.5-2.7,0.9c-1,0.5-2,1.3-2.8,2.1c-1.4,1.7-2.5,3.8-2.8,6c-0.5,4.2,2.2,8.3,5.7,10.5
				c2,1.3,4.3,1.5,6.5,0.7c2-0.7,4.2-1.5,5.8-2.8c1.7-1.4,2.3-3.3,2.5-5.5c0.2-2.2,0.3-4.3-0.6-6.3c-0.5-1.1-1-2.4-1.8-3.3
				c-0.8-1-2-1.7-3.2-2.2c-1.2-0.5-2.4-0.7-3.7-0.7C56.1,35.5,54.6,35.5,53.9,36.1c-1,0.7-0.1,2.2,0.8,1.5c0.5-0.4,1.6-0.3,2.2-0.3
				c0.9,0,1.9,0.1,2.7,0.5c0.8,0.3,1.7,0.8,2.3,1.4c0.7,0.6,1.1,1.5,1.5,2.4c0.8,1.7,1.2,3.2,1.1,5.1c-0.1,1.7-0.2,3.6-1.3,4.9
				c-1.1,1.3-3,1.9-4.5,2.5c-1.8,0.7-3.6,1.4-5.4,0.5c-3-1.3-5.6-4.5-5.9-7.8c-0.2-2,0.6-4,1.8-5.7c0.6-0.8,1.2-1.5,2.1-2.1
				c0.4-0.3,0.8-0.5,1.3-0.7c0.4-0.2,0.9-0.6,1.4-0.7C54.9,37.5,54.9,36.2,53.9,36.1L53.9,36.1z"/>
		</g>
	</g>
	<g>
		<g>
			<path class="st0" d="M48.2,51.2c1.6,0.3,3.1-0.8,4.3-1.7c1.3-1,2.5-2.1,3.1-3.6c0.6-1.4,0.9-2.9,0.8-4.4
				c-0.1-1.7-0.9-3.2-1.1-4.8c-0.2-1.1-1.8-0.6-1.7,0.5c0.2,1.4,0.9,2.7,1.1,4.1c0.2,1.2,0,2.5-0.5,3.6c-0.5,1.2-1.4,2.2-2.4,3
				c-1.1,0.9-2.3,1.6-3.7,1.9C47.5,50,47.5,51.1,48.2,51.2L48.2,51.2z"/>
		</g>
	</g>
	<g>
		<g>
			<path class="st0" d="M55.5,56.6c1.4-0.2,2.7-1.5,3.7-2.4c1.1-1.1,2.1-2.3,2.9-3.6c1.1-1.6,1.8-3.5,2.1-5.4c0.3-1.9,0.5-4-0.3-5.8
				c-0.4-0.9-1.9-0.5-1.5,0.4c1.3,3.1,0.2,7.4-1.7,10.1c-1.5,2.1-3.3,4.4-5.7,5.4C54.1,55.6,54.8,56.7,55.5,56.6L55.5,56.6z"/>
		</g>
	</g>
	<g>
		<g>
			<path class="st0" d="M49,40.7c0.6,0.4,1.6,0.2,2.3,0.2c0.9,0,1.7,0,2.6,0.1c1.7,0.1,3.4,0.5,5,1.3c1.4,0.7,2.8,1.6,3.9,2.7
				c1,1,1.5,2.1,1.8,3.4c0.2,0.7,1.3,0.8,1.5,0c0.3-1.4-0.9-3.1-1.7-4.1c-1.1-1.3-2.7-2.4-4.2-3.2c-1.7-0.9-3.5-1.5-5.4-1.6
				c-1-0.1-2-0.1-3-0.1c-0.8,0-2.1-0.2-2.8,0.3C48.6,39.9,48.6,40.5,49,40.7L49,40.7z"/>
		</g>
	</g>
	<g>
		<g>
			<path class="st0" d="M47.6,46.3c0.6-0.1,1.1-0.3,1.8-0.2c0.7,0.1,1.4,0.2,2.1,0.5c1.3,0.4,2.4,1,3.6,1.7c2.5,1.5,5,2.9,6.1,5.7
				c0.4,1,1.8,0.6,1.6-0.4c-0.8-3.3-4.3-5.2-7-6.8c-1.3-0.8-2.8-1.5-4.3-1.9c-1.4-0.4-3.2-0.6-4.4,0.3C46.3,45.6,47,46.4,47.6,46.3
				L47.6,46.3z"/>
		</g>
	</g>
	<g>
		<g>
			<path class="st0" d="M63.5,39c0-0.1,0-0.2,0-0.3c0,0.1,0,0,0.1-0.1c0.3-0.2,0.7-0.5,1.1-0.6c0.9-0.4,1.9-0.7,2.9-1
				c0.9-0.2,1.9-0.5,2.9-0.5c1.6-0.1,2.9,0.5,4.2,1.2c0.9,0.5,1.7-0.9,0.8-1.4c-1.6-0.9-3.3-1.5-5.2-1.4c-1.2,0.1-2.4,0.3-3.6,0.7
				c-1.2,0.3-2.5,0.7-3.5,1.4c-0.9,0.5-1.9,1.7-0.7,2.6C63,39.8,63.5,39.4,63.5,39L63.5,39z"/>
		</g>
	</g>
	<g>
		<g>
			<path class="st0" d="M66.1,45.1c1.3-1.2,3-1.6,4.7-1.6c0.9,0,1.7,0.1,2.6,0.2c0.4,0.1,0.8,0.2,1.2,0.3c0.4,0.1,0.9,0.3,1.3,0.2
				c0.6-0.1,0.7-0.9,0.3-1.3c-0.3-0.3-0.9-0.4-1.3-0.6c-0.4-0.1-0.9-0.2-1.3-0.3c-1-0.2-2.1-0.3-3.1-0.2c-2,0.1-4.2,0.6-5.4,2.3
				C64.5,44.9,65.6,45.6,66.1,45.1L66.1,45.1z"/>
		</g>
	</g>
</g>
</svg>
