<?xml version="1.0" encoding="utf-8"?>
<!-- Generator: Adobe Illustrator 24.0.1, SVG Export Plug-In . SVG Version: 6.00 Build 0)  -->
<svg version="1.1" id="Calque_1" xmlns="http://www.w3.org/2000/svg" xmlns:xlink="http://www.w3.org/1999/xlink" x="0px" y="0px"
	 viewBox="0 0 122 122" style="enable-background:new 0 0 122 122;" xml:space="preserve">
<style type="text/css">
	.st0{fill:#91D902;}
</style>
<g>
	<path d="M101.4,6.8c-0.7-4.4-4.8-7.4-9.3-6.8L15.5,11c-3,0.5-5.1,3.3-4.7,6.3L18,65.8c0.6,3.8,2,7.4,4.2,10.5
		c6.8,9.8,22.1,31.8,25.8,36.8c0.9,1.4,3.6,5.5,5.4,8.1c0.7,1,2.2,0.8,2.6-0.3c1.2-3.5,3.2-9.3,4.2-11.7c2.2-5.5,5.6-16.1,6.6-19.3
		c0.2-0.6,0.7-1,1.3-1.2l4.6-0.8L93.6,84l14.1-2.9c3-0.5,5.1-3.3,4.6-6.4C109.6,57.3,101.4,6.8,101.4,6.8"/>
</g>
<g>
	<g>
		<g>
			<path class="st0" d="M40,52.2c1.8-0.3,3.5,1,5,1.8c1.5,0.9,3.1,1.4,4.9,1.2c2-0.3,3.5-1.7,5.4-2.2c2.2-0.5,4.4,0.1,6.4,0.8
				c1.9,0.7,3.6,1.5,5.6,1.4c1.9-0.1,3.5-0.8,5.2-1.5c2.2-0.9,4.1-1,6.3-0.1c1.4,0.6,2.8,1.3,4.3,0.9c1.1-0.3,0.6-2-0.5-1.7
				c-1.5,0.4-3.4-1-4.9-1.4c-1.9-0.5-3.7-0.2-5.5,0.5c-1.9,0.8-3.7,1.7-5.7,1.6c-2.1-0.1-4-1.3-6-1.9c-1.8-0.5-3.8-0.7-5.6-0.2
				c-1.9,0.5-3.6,2.1-5.6,2.2c-3.4,0.1-6.1-4.1-9.6-2.8C38.7,51.1,39,52.4,40,52.2L40,52.2z"/>
		</g>
	</g>
	<g>
		<g>
			<path class="st0" d="M40,57.1c1.8-0.3,3.5,1,5,1.8c1.5,0.9,3.1,1.4,4.9,1.2c2-0.3,3.5-1.7,5.4-2.2c2.2-0.5,4.4,0.1,6.4,0.8
				c1.9,0.7,3.6,1.5,5.6,1.4c1.9-0.1,3.5-0.8,5.2-1.5c2.2-0.9,4.1-1,6.3-0.1c1.4,0.6,2.8,1.3,4.3,0.9c1.1-0.3,0.6-2-0.5-1.7
				c-1.5,0.4-3.4-1-4.9-1.4c-1.9-0.5-3.7-0.2-5.5,0.5c-1.9,0.8-3.7,1.7-5.7,1.6c-2.1-0.1-4-1.3-6-1.9c-1.8-0.5-3.8-0.7-5.6-0.2
				c-1.9,0.5-3.6,2.1-5.6,2.2c-3.4,0.1-6.1-4.1-9.6-2.8C38.7,56,39,57.3,40,57.1L40,57.1z"/>
		</g>
	</g>
	<g>
		<g>
			<path class="st0" d="M40,62.6c1.8-0.3,3.5,1,5,1.8c1.5,0.9,3.1,1.4,4.9,1.2c2-0.3,3.5-1.7,5.4-2.2c2.2-0.5,4.4,0.1,6.4,0.8
				c1.9,0.7,3.6,1.5,5.6,1.4c1.9-0.1,3.5-0.8,5.2-1.5c2.2-0.9,4.1-1,6.3-0.1c1.4,0.6,2.8,1.3,4.3,0.9c1.1-0.3,0.6-2-0.5-1.7
				c-1.5,0.4-3.4-1-4.9-1.4c-1.9-0.5-3.7-0.2-5.5,0.5c-1.9,0.8-3.7,1.7-5.7,1.6c-2.1-0.1-4-1.3-6-1.9c-1.8-0.5-3.8-0.7-5.6-0.2
				c-1.9,0.5-3.6,2.1-5.6,2.2c-3.4,0.1-6.1-4.1-9.6-2.8C38.7,61.6,39,62.8,40,62.6L40,62.6z"/>
		</g>
	</g>
	<g>
		<g>
			<path class="st0" d="M50.1,53.9c0.5-1.2,0.2-2.3,0.1-3.6C50,48.8,50,47.3,50,45.7c-0.1-3,0.2-6,0.1-9C50,34,49.4,30.5,50.9,28
				c1.3-2.2,3.9-3.6,6.4-2.8c2.3,0.8,4.1,2.6,4.8,5c0.1,0.4,0.3,1.5-0.6,1.3c-0.4-0.1-0.7-1.2-0.9-1.5c-0.4-1-0.7-1.9-1.5-2.7
				c-1.5-1.5-4.1-1.5-5.7-0.1c-1.7,1.5-2.3,3.8-2.5,6c-0.3,3.2,0,6.4,0,9.6c0,1.7,0,3.4,0.1,5c0.1,1.8,0.5,3.6,0.6,5.4
				c0.1,1.2,1.9,1.2,1.8,0c-0.1-1.7-0.5-3.4-0.6-5.1c-0.1-1.8-0.1-3.5-0.1-5.3c0.1-3.1-0.2-6.3,0-9.4c0.1-1.3,0.3-2.7,1-3.8
				c0.9-1.4,2.7-2.2,4.1-1c1.4,1.3,1.2,5,4,4.7c2.4-0.3,2.3-2.8,1.5-4.5c-1-2.4-2.5-4-4.9-5c-2.4-1-4.9-0.8-6.9,0.9
				c-2.2,1.7-3.1,3.9-3.3,6.6c-0.1,1.8,0,3.6,0.1,5.4c0,1.9,0,3.8-0.1,5.7c0,1.9,0,3.8,0.1,5.7c0,0.9,0,1.9,0.1,2.8
				c0.1,0.9,0.3,1.7,0,2.6C48.2,54.5,49.7,54.9,50.1,53.9L50.1,53.9z"/>
		</g>
	</g>
	<g>
		<g>
			<path class="st0" d="M70.3,53.6c0.5-1.2,0.2-2.4,0.1-3.6c-0.1-1.6-0.2-3.3-0.2-4.9c-0.1-3.2,0.2-6.3,0.1-9.5
				c-0.1-2.8-0.6-6.3,1.3-8.7c1.9-2.4,4.5-2.9,7.2-1.5c1.1,0.6,1.9,1.4,2.6,2.5c0.3,0.6,1.5,2.4,1,3.1c-0.9,1.1-1.7-2-1.9-2.4
				c-0.4-1-1.1-1.8-2-2.2c-2.2-1-4.4-0.2-5.7,1.7c-1.3,1.9-1.5,4.4-1.6,6.6c-0.1,1.8,0.1,3.7,0.1,5.5c0,1.5-0.1,3-0.1,4.5
				c0,2.7,0,5.5,0.4,8.2c0.2,1.1,1.9,0.7,1.7-0.5C72.9,49.8,73,47,73,44.2c0-1.5,0.1-3,0.1-4.5c0-1.7-0.2-3.5-0.1-5.2
				c0.1-2.3,0.5-7.5,4.1-6.7c2.6,0.6,1.8,4.5,4.3,5.2c0.9,0.3,1.9-0.1,2.4-0.9c0.7-0.9,0.5-2.1,0.1-3.1c-0.9-2.3-2.3-4.2-4.5-5.2
				c-2.4-1.1-4.9-1.2-7.2,0.3c-2.2,1.6-3.4,3.7-3.6,6.5c-0.2,1.8,0,3.6,0,5.4c0.1,2,0,4.1-0.1,6.1c0,1.9,0,3.8,0.1,5.7
				c0,0.9,0,1.8,0.1,2.6c0.1,0.9,0.3,1.9,0,2.8C68.5,54.2,70,54.6,70.3,53.6L70.3,53.6z"/>
		</g>
	</g>
	<g>
		<g>
			<path class="st0" d="M52.1,45.7c1.2,0.4,2.8,0.2,4.1,0.2c1.6-0.1,3.1-0.1,4.6-0.1c1.6,0,3.1,0,4.7-0.1c1.2-0.1,2.5-0.1,3.6,0.3
				c1.1,0.3,1.5-1.3,0.5-1.7C68.4,44,67.1,44,65.8,44c-1.5,0.1-3,0.1-4.5,0.1c-1.5,0-3,0-4.5,0c-1.5,0.1-3,0-4.5,0.2
				C51.4,44.4,51.2,45.5,52.1,45.7L52.1,45.7z"/>
		</g>
	</g>
	<g>
		<g>
			<path class="st0" d="M52.3,37.9c1.4,0.3,3,0.2,4.4,0.3c1.4,0,2.8,0,4.2,0c1.4,0,2.8,0,4.2,0.1c1.4,0.1,2.8,0.4,4.2,0.4
				c1.1,0,1.1-1.7,0-1.7c-1.4,0-2.8-0.3-4.2-0.4c-1.4-0.1-2.8-0.1-4.2-0.1c-1.4,0-2.8,0-4.2,0c-1.4,0-3-0.3-4.4,0.1
				C51.6,36.7,51.6,37.7,52.3,37.9L52.3,37.9z"/>
		</g>
	</g>
</g>
</svg>
