<?xml version="1.0" encoding="utf-8"?>
<!-- Generator: Adobe Illustrator 24.0.1, SVG Export Plug-In . SVG Version: 6.00 Build 0)  -->
<svg version="1.1" id="Calque_1" xmlns="http://www.w3.org/2000/svg" xmlns:xlink="http://www.w3.org/1999/xlink" x="0px" y="0px"
	 viewBox="0 0 122 122" style="enable-background:new 0 0 122 122;" xml:space="preserve">
<style type="text/css">
	.st0{fill:#91D902;}
</style>
<g>
	<path d="M101.7,6.9c-0.7-4.4-4.8-7.4-9.3-6.8l-76.6,11c-3,0.5-5.1,3.3-4.7,6.3l7.2,48.5c0.6,3.8,2,7.4,4.2,10.5
		c6.8,9.8,22.1,31.8,25.8,36.8c0.9,1.4,3.6,5.5,5.4,8.1c0.7,1,2.2,0.8,2.6-0.3c1.2-3.5,3.2-9.3,4.2-11.7c2.2-5.5,5.6-16.1,6.6-19.3
		c0.2-0.6,0.7-1,1.3-1.2L73,88l20.9-3.9l14.1-2.9c3-0.5,5.1-3.3,4.6-6.4C109.9,57.4,101.7,6.9,101.7,6.9"/>
</g>
<g>
	<g>
		<g>
			<path class="st0" d="M44.7,62.3c0-1.9-0.5-3.7-0.6-5.5c-0.1-2.1-0.1-4.2,0.2-6.2c0.6-3.6,2.4-6.8,4.4-9.8c2-3.1,4.4-5.8,7.4-8
				c2.9-2.1,5.9-4.2,9.4-5.2c4.4-1.3,9.2-1,13.5,0.4c1,0.3,1.5-1.3,0.4-1.6c-4-1.3-8.1-1.6-12.3-0.9c-3.9,0.7-7.3,2.7-10.5,4.9
				c-3.1,2.2-5.8,4.5-8.1,7.7c-2.2,3.1-4.3,6.5-5.4,10.2c-0.6,2.2-0.8,4.5-0.8,6.8c0,1.2,0,2.4,0.2,3.5c0.1,1.2,0.5,2.5,0.6,3.7
				C43.4,63.2,44.6,63.3,44.7,62.3L44.7,62.3z"/>
		</g>
	</g>
	<g>
		<g>
			<path class="st0" d="M43.8,63.3c2.1,0.8,4.6,0.7,6.8,0.6c2.4-0.1,4.8-0.3,7.1-0.9c4.3-1.1,8.5-3.3,12.1-6
				c3.2-2.4,5.9-5.3,7.9-8.8c2.1-3.7,3.1-7.9,3.5-12.1c0.2-1.9-0.1-3.8-0.3-5.7c-0.2-1.2-0.3-3.2-1.7-3.7c-1.1-0.4-1.5,1.3-0.5,1.7
				c-0.3-0.1,0,0.1,0,0.3c0.1,0.3,0.2,0.5,0.2,0.8c0.2,0.7,0.3,1.4,0.3,2.2c0.2,1.6,0.3,3.1,0.2,4.6c-0.4,3.9-1.3,7.6-3.2,11
				C72.5,54,65.6,58.7,58.5,61c-4.5,1.5-9.7,1.7-14.3,0.8C43.2,61.6,42.8,62.9,43.8,63.3L43.8,63.3z"/>
		</g>
	</g>
	<g>
		<g>
			<path class="st0" d="M67.3,26.4c-0.8,1,0.2,2.7,0.7,3.6c0.7,1.3,1.4,2.6,2.4,3.7c1.1,1.3,2.4,2.4,3.8,3.4
				c0.7,0.5,1.5,0.9,2.4,1.2c0.8,0.3,1.7,0.4,2.4,0.8c1,0.5,1.9-1,0.9-1.5c-1.4-0.7-3-0.9-4.4-1.7C74.2,35,73,34,71.9,32.9
				c-0.9-1-1.7-2.1-2.3-3.3c-0.5-0.9-1.1-1.8-1.1-2.8C68.5,26,67.6,25.9,67.3,26.4L67.3,26.4z"/>
		</g>
	</g>
	<g>
		<g>
			<path class="st0" d="M44.1,51.6c0.5,0.1,1.1-0.1,1.6,0c0.6,0.1,1.2,0.4,1.7,0.7c1.1,0.6,2,1.4,2.9,2.3c1,1,1.9,2.2,2.7,3.4
				c0.4,0.6,0.8,1.3,1.1,2.1c0.3,0.8,0.4,1.6,0.6,2.5c0.2,1,1.5,0.6,1.6-0.2c0.1-0.9-0.2-1.9-0.5-2.7c-0.3-0.9-0.8-1.7-1.3-2.5
				c-0.9-1.4-2-2.7-3.2-3.9c-1-1-2.2-2-3.6-2.7c-1.1-0.5-3.2-1.2-4,0C43.5,51,43.7,51.6,44.1,51.6L44.1,51.6z"/>
		</g>
	</g>
	<g>
		<g>
			<path class="st0" d="M54.8,52.8c1.7-0.7,3.2-2.1,4.6-3.4c1.5-1.4,3-2.7,4.4-4.2c1.2-1.3,2.4-2.7,3.6-4.1c0.9-1.1,1.9-2.6,3.3-3.2
				c0.9-0.4,0.5-1.9-0.4-1.5c-1.4,0.6-2.5,1.8-3.5,3c-1.1,1.4-2.3,2.8-3.5,4.1c-1.4,1.5-2.9,2.9-4.4,4.3c-1.5,1.4-3.1,2.6-4.8,3.8
				C53.3,52.1,54,53.1,54.8,52.8L54.8,52.8z"/>
		</g>
	</g>
	<g>
		<g>
			<path class="st0" d="M64.4,37.8C64.3,37.7,64.4,37.8,64.4,37.8c0.1,0,0.1,0.1,0.1,0.1c0.1,0.1,0.2,0.2,0.3,0.3
				c0.1,0.1,0.3,0.4,0.5,0.6c0.4,0.5,0.7,1.1,1.2,1.5c0.2,0.2,0.5,0.4,0.7,0.6c0.2,0.1,0.3,0.3,0.5,0.4c0.1,0,0.1,0.1,0.2,0.1
				c0.2,0.1-0.1,0,0.1,0.1c0.2,0.2,0.5,0.4,0.7,0.6c0.1,0.1,0.2,0.2,0.4,0.4c0,0,0.1,0.1,0.1,0.1c0-0.1,0-0.1,0,0
				c0.1,0.1,0.1,0.2,0.2,0.2c0.2,0.4,0.8,0.6,1.2,0.3c0.4-0.2,0.6-0.8,0.3-1.2c-0.4-0.6-0.9-1.1-1.5-1.6c-0.2-0.1-0.3-0.2-0.5-0.4
				c-0.1-0.1-0.1-0.1-0.2-0.2c0,0-0.2-0.2-0.1-0.1c-0.3-0.2-0.5-0.4-0.8-0.7c-0.1-0.1-0.2-0.2-0.3-0.4c-0.1-0.1,0.1,0.1,0,0
				c0-0.1-0.1-0.1-0.1-0.2c-0.2-0.3-0.4-0.5-0.6-0.8c-0.4-0.5-0.9-1.1-1.5-1.4c-0.3-0.1-0.7,0.1-0.8,0.4
				C64,37.2,64.1,37.6,64.4,37.8L64.4,37.8z"/>
		</g>
	</g>
	<g>
		<g>
			<path class="st0" d="M60.7,41c0.2,0.2,0.5,0.4,0.7,0.6c0.1,0.1,0.2,0.2,0.3,0.3c0,0.1,0.1,0.1,0.1,0.2c0,0,0.1,0.1,0.1,0.1
				c0.4,0.5,0.8,1.1,1.3,1.6c0.9,1,2.1,1.8,3,2.8c0.3,0.3,0.9,0.3,1.2,0c0.3-0.3,0.3-0.8,0-1.2c-0.9-1-2.1-1.8-3.1-2.9
				c-0.4-0.5-0.8-1-1.2-1.5c-0.4-0.5-1-1.1-1.7-1.2c-0.3,0-0.6,0-0.7,0.3C60.5,40.5,60.5,40.8,60.7,41L60.7,41z"/>
		</g>
	</g>
	<g>
		<g>
			<path class="st0" d="M57.8,44.4c0.1,0,0.1-0.1,0.1-0.2c0-0.1,0-0.1,0,0c-0.2,0.1-0.3,0.1-0.5,0.2c0,0,0,0-0.1,0
				c-0.1-0.1-0.2-0.1-0.3-0.2c0.2,0.3,0.5,0.6,0.8,0.9c0.3,0.3,0.5,0.6,0.8,0.9c0.5,0.5,0.9,1,1.4,1.5c0.5,0.4,1,0.9,1.4,1.4
				c0.2,0.3,0.3,0.4,0.5,0.7c0.2,0.4,0.2,0.5,0.5,0.9c0.3,0.4,1.2,0.2,1.3-0.3c0-0.3,0.1-0.5,0-0.7c-0.1-0.2-0.2-0.4-0.2-0.5
				c-0.2-0.3-0.4-0.6-0.7-0.9c-0.5-0.5-1-1-1.5-1.5c-0.5-0.5-1.1-1-1.6-1.6c-0.6-0.6-1.2-1.3-1.9-1.7c-0.2-0.1-0.5-0.1-0.7,0
				c-0.2,0.1-0.3,0.2-0.4,0.4c0,0.1,0,0.1,0,0.2c0,0.1,0,0.2,0,0.1C56.6,44.4,57.4,44.8,57.8,44.4L57.8,44.4z"/>
		</g>
	</g>
	<g>
		<g>
			<path class="st0" d="M53,47.2c0,0.2,0.2,0.3,0.3,0.4c0.1,0.1,0.2,0.1,0.3,0.2c0.1,0.1,0,0,0,0c0.2,0.2,0.5,0.4,0.7,0.7
				c0.5,0.5,0.9,1,1.3,1.6c0.6,0.7,1.1,1.3,1.7,2c0.3,0.4,0.6,0.7,0.9,1.1c0.4,0.4,0.7,0.9,1.2,1.1c0.6,0.2,1.1-0.4,1-1
				c-0.1-0.5-0.6-1-1-1.3c-0.3-0.4-0.7-0.8-1-1.2c-0.6-0.7-1.2-1.3-1.7-2c-0.5-0.6-0.9-1.1-1.4-1.6c-0.3-0.3-0.5-0.4-0.8-0.6
				c-0.4-0.2-0.9-0.3-1.2,0C53,46.7,53,47,53,47.2L53,47.2z"/>
		</g>
	</g>
</g>
</svg>
