<?xml version="1.0" encoding="utf-8"?>
<!-- Generator: Adobe Illustrator 24.0.1, SVG Export Plug-In . SVG Version: 6.00 Build 0)  -->
<svg version="1.1" id="Calque_1" xmlns="http://www.w3.org/2000/svg" xmlns:xlink="http://www.w3.org/1999/xlink" x="0px" y="0px"
	 viewBox="0 0 122 122" style="enable-background:new 0 0 122 122;" xml:space="preserve">
<style type="text/css">
	.st0{fill:#91D902;}
</style>
<g>
	<path d="M100.6,6.8c-0.7-4.4-4.8-7.4-9.3-6.8L14.7,11c-3,0.5-5.1,3.3-4.7,6.3l7.2,48.5c0.6,3.8,2,7.4,4.2,10.5
		c6.8,9.8,22.1,31.8,25.8,36.8c0.9,1.4,3.6,5.5,5.4,8.1c0.7,1,2.2,0.8,2.6-0.3c1.2-3.5,3.2-9.3,4.2-11.7c2.2-5.5,5.6-16.1,6.6-19.3
		c0.2-0.6,0.7-1,1.3-1.2l4.6-0.8L92.8,84l14.1-2.9c3-0.5,5.1-3.3,4.6-6.4C108.8,57.3,100.6,6.8,100.6,6.8"/>
</g>
<g>
	<g>
		<g>
			<g>
				<path class="st0" d="M50,26.2c-0.8,0.4-1.4,1-2.1,1.6c-1,0.8-1.9,1.6-2.7,2.5c-1.2,1.4-1.8,3.1-2.3,4.8c-1,4.1-0.8,8.6-0.1,12.7
					c0.7,4.6,2.3,8.9,4.3,13.1c1.1,2.2,2.1,4.5,3.4,6.6c0.8,1.5,1.9,2.9,3.2,3.9c2.8,2.1,7.4,2,10.6,0.9c2.6-0.9,4-2.8,5.5-4.9
					c1.8-2.6,3.4-5.3,4.8-8c1.2-2.3,2.5-4.6,3.3-7c0.7-2,0.9-4.2,0.9-6.3c0-1.3,0.2-2.5,0.1-3.8c-0.1-1.3-0.4-2.6-0.7-3.8
					c-0.5-2.4-1.4-4.7-2.5-6.9c-0.5-1-1.2-2.1-2-2.9c-0.3-0.3-1.6-1.1-1.7-1.6c0-1.1-1.8-1.1-1.7,0c0,1.2,1.2,1.9,2,2.7
					c1.5,1.4,2.2,3.4,2.9,5.3c0.8,2,1.3,4,1.7,6.1c0.4,2.1,0.2,4.4,0,6.5c-0.3,5.4-3.5,10.4-6.2,14.9c-1.3,2.1-2.5,4.3-4.1,6.2
					c-2,2.4-5.4,2.8-8.4,2.6c-4.2-0.3-5.9-3.5-7.7-6.9c-2-3.9-4-7.9-5.2-12.2c-1.3-4.5-1.8-9.4-1.4-14.2c0.2-2,0.6-4.1,1.7-5.8
					c0.6-1,1.4-1.8,2.3-2.6c0.8-0.8,1.8-1.7,2.7-2.3C51.5,26.9,50.8,25.8,50,26.2L50,26.2z"/>
			</g>
		</g>
		<g>
			<g>
				<path class="st0" d="M78.1,36.2c0.5-1.1,1.8-2.5,3-1.9c1.2,0.6,2,2,1.7,3.3c-0.3,1.3-1.2,2.4-2.1,3.4c-0.6,0.7-1.1,1.4-1.7,2
					c-0.6,0.7-1.2,1.4-1.7,2.1c-0.5,0.8,0.6,1.7,1.3,1c0.8-0.8,1.5-1.8,2.2-2.6c0.6-0.8,1.3-1.5,1.9-2.4c1.1-1.4,2-3.1,1.8-4.9
					c-0.3-1.8-2-3.6-3.8-3.8c-1.9-0.2-3.5,1.7-3.8,3.4C76.7,36.7,77.8,36.9,78.1,36.2L78.1,36.2z"/>
			</g>
		</g>
		<g>
			<g>
				<path class="st0" d="M78.7,37.6C78.7,37.6,78.7,37.5,78.7,37.6C78.7,37.4,78.7,37.6,78.7,37.6c0,0,0.1-0.1,0.1-0.1
					c0,0,0.1-0.1,0.1-0.1c0,0,0,0,0.1-0.1c0.1-0.1-0.2,0.1,0,0c0.1-0.1,0.2-0.1,0.3-0.1c0,0,0.1,0,0.1-0.1c-0.2,0.1-0.1,0,0,0
					c0,0,0.1,0,0.1,0c0.1,0-0.2,0-0.1,0c0,0,0,0,0.1,0c0,0,0.1,0,0.1,0c0.1,0,0.1,0.1-0.1,0c0,0,0.1,0,0.1,0c0,0,0,0,0.1,0
					c0.1,0-0.1,0-0.1,0c0,0,0,0,0.1,0c0.1,0.1-0.1-0.1-0.1-0.1c0,0,0.1,0.1,0.1,0.1c0,0-0.1-0.2-0.1-0.1c0,0,0,0.1,0.1,0.1
					c0.1,0.1,0-0.1,0-0.1c0,0,0,0.1,0,0.1c0,0.1,0,0.2,0,0c0,0,0,0.1,0,0.1c0,0.1-0.1,0.2,0,0c0,0.1,0,0.2-0.1,0.3c0,0,0,0.1,0,0.1
					c0,0.1,0-0.1,0-0.1c0,0.1-0.1,0.1-0.1,0.2c-0.1,0.2-0.3,0.4-0.4,0.6c0,0-0.1,0.1-0.1,0.1c0,0,0,0.1-0.1,0.1
					c0.1-0.2,0.1-0.1,0-0.1c-0.1,0.1-0.1,0.1-0.2,0.2c0,0,0.1-0.2,0-0.1c0,0.1-0.1,0.1-0.1,0.2c-0.4,0.5-1.1,1.3-0.9,1.9
					c0.2,0.5,0.7,0.7,1.2,0.5c0.3-0.2,0.4-0.5,0.6-0.8c0.1-0.1,0.2-0.2,0.2-0.3c0-0.1,0.1-0.1,0.1-0.2c0,0,0.1-0.1,0,0
					c-0.1,0.1,0,0,0,0c0.4-0.5,0.8-1.1,1.1-1.7c0.2-0.6,0.3-1.4-0.1-1.9c-0.4-0.6-1.2-0.9-1.9-0.7c-0.7,0.2-1.3,0.7-1.5,1.5
					c-0.1,0.3,0.1,0.7,0.4,0.8C78.1,38,78.5,37.9,78.7,37.6L78.7,37.6z"/>
			</g>
		</g>
		<g>
			<g>
				<path class="st0" d="M43.8,35.5c-0.2-0.5-0.5-0.9-0.8-1.2c-0.3-0.4-0.7-0.8-1.1-1c-1.2-0.6-2.8-0.2-3.7,0.7
					c-1.9,2-1.1,4.9,0.4,6.8c1,1.3,2.4,1.9,3.8,2.5c0.4,0.2,0.9-0.2,1.1-0.6c0.1-0.5-0.2-0.9-0.6-1.1c-1.1-0.4-2.2-0.9-3-1.9
					c-0.7-0.9-1.2-2-1.1-3.2c0.1-1,0.8-1.8,1.8-1.9c0.5,0,0.7,0.2,1,0.4c0.2,0.2,0.4,0.4,0.6,0.6c0.1,0.1,0.2,0.2,0.3,0.3
					c0,0,0.2,0.3,0.1,0.1c0.2,0.3,0.5,0.4,0.9,0.3C43.7,36.2,43.9,35.8,43.8,35.5L43.8,35.5z"/>
			</g>
		</g>
		<g>
			<g>
				<path class="st0" d="M42.6,40.1c0.2,0.2,0-0.1-0.1-0.1c-0.1,0-0.3-0.3-0.2-0.1c0.1,0.1,0,0,0,0c0,0-0.1-0.1-0.1-0.1
					c0,0-0.1-0.1-0.1-0.1c0,0,0,0,0,0c-0.1-0.1,0.1,0.1,0.1,0.1c-0.1-0.1-0.1-0.2-0.2-0.3c-0.1-0.1-0.1-0.2-0.1-0.3
					c0,0,0-0.1-0.1-0.1c-0.1-0.1,0.1,0.2,0,0.1c0,0,0-0.1,0-0.1c-0.1-0.2-0.1-0.4-0.2-0.6c0,0,0-0.1,0-0.1c0-0.1,0,0.2,0,0.1
					c0,0,0-0.1,0-0.1c0-0.1,0-0.2,0-0.3c0-0.1,0.1-0.4,0-0.1c0-0.1,0-0.2,0.1-0.3c0,0,0-0.1,0-0.1c0.1-0.2-0.1,0.2,0,0.1
					c0,0,0-0.1,0.1-0.1c0,0,0,0,0,0c0.1-0.1-0.2,0.2-0.1,0.1c0,0,0,0,0.1-0.1c0.1-0.1,0.1,0-0.1,0c0,0,0.1,0,0.1-0.1c0,0,0,0,0.1,0
					c0.1-0.1-0.2,0.1-0.1,0c0,0,0.1,0,0.1,0c0.2,0-0.2,0,0,0c0.1,0,0.1,0,0.2,0c0,0,0,0,0.1,0c0.1,0-0.2,0-0.1,0
					c0.1,0,0.3,0.1,0.4,0.1c0,0,0.1,0,0.1,0c0.1,0,0,0,0,0c0.2,0.1,0.3,0.2,0.6,0.2c0.3,0,0.5-0.1,0.7-0.4c0.1-0.2,0.2-0.6,0-0.8
					c-0.4-0.6-1.4-0.8-2.2-0.7c-0.5,0.1-1,0.5-1.2,1c-0.5,1-0.3,2.3,0.3,3.2c0.4,0.6,1,1.3,1.7,1.3c0.3,0,0.5-0.2,0.6-0.4
					C42.9,40.6,42.8,40.3,42.6,40.1L42.6,40.1z"/>
			</g>
		</g>
		<g>
			<g>
				<path class="st0" d="M47.7,23.1c-0.5,1.9,1.2,4.2,2.9,4.9c1.4,0.5,2.9,0.4,4.4,0.4c1.8,0,3.5,0.2,5.3,0.2
					c1.7,0.1,3.5,0.1,5.2,0.1c1.4,0,3,0.1,4.4-0.5c2.1-0.9,2.5-3.2,2.9-5.2c0.2-1.1-1.4-1.5-1.6-0.4c-0.3,1.5-0.4,3.7-2.1,4.2
					c-1.2,0.4-2.7,0.2-4,0.3c-1.4,0-2.7,0-4.1-0.1c-2.5-0.1-5.1-0.2-7.6-0.2c-1.1,0-2.2-0.1-3.1-0.8c-0.7-0.6-1.3-1.6-1.2-2.6
					C49.2,22.5,47.9,22.3,47.7,23.1L47.7,23.1z"/>
			</g>
		</g>
		<g>
			<g>
				<path class="st0" d="M49,23.3c0.9-0.9,3.4-0.9,4.6-0.5c0.8,0.3,1.6,0.7,2.4,0.7c1,0.1,2.1-0.1,3-0.3c2.1-0.4,4.2-1.1,6.4-1
					c2,0.1,4.4,0.4,6.2,1.2c1,0.4,1.8-1,0.8-1.4c-2-0.9-4.3-1.2-6.5-1.4c-2.4-0.2-4.8,0.6-7.2,1c-1.2,0.2-2.4,0.4-3.6,0
					c-0.9-0.3-1.8-0.8-2.8-0.8c-1.3,0-3.8,0.1-4.5,1.5C47.6,23.1,48.4,23.9,49,23.3L49,23.3z"/>
			</g>
		</g>
		<g>
			<g>
				<path class="st0" d="M48.3,23.5c0.9,0.2,1.9,0.6,2.8,0.9c1,0.3,2,0.6,3,1.1c0.8,0.5,1.6,1,2.5,1.2c0.9,0.2,2,0.1,2.9-0.1
					c2.2-0.4,4.3-1.2,6.5-1.5c2.2-0.3,4.3-0.6,6.4-1.7c0.9-0.5,0.1-1.9-0.8-1.4c-2,0.9-3.9,1.2-6,1.5c-2.1,0.3-4.2,1.1-6.3,1.5
					c-1.1,0.2-2.1,0.3-3.2-0.2c-0.8-0.4-1.5-0.9-2.4-1.2c-1.6-0.6-3.5-1.3-5.2-1.4C47.7,22,47.5,23.3,48.3,23.5L48.3,23.5z"/>
			</g>
		</g>
	</g>
	<g>
		<g>
			<path class="st0" d="M72.4,28.8c-0.8,0.7-1.5,1.4-2.3,2.1c-0.7,0.6-1.6,1.4-1.9,2.3c-0.1,0.4-0.1,0.9,0.1,1.3
				c0.2,0.4,1.1,0.8,1.2,1.2c0.1,0.4-0.6,0.9-0.9,1.2c-0.5,0.5-0.8,1-1,1.6c-0.1,0.5,0.3,1.1,0.8,1.1c0.7,0,2.1-0.4,1.6,0.7
				c-0.4,0.8-1.2,1.5-1.7,2.2c-0.4,0.5-0.3,1,0.2,1.4c1,0.7,2.4,1.1,2.1,2.5c-0.4,1.7-1.8,3.1-1.3,4.9c0.2,0.9,1.5,0.7,1.6-0.2
				c0.1-2,1.9-3.7,1.5-5.8c-0.3-1.5-1.9-2.1-3-2.9c0.1,0.5,0.1,0.9,0.2,1.4c0.9-1.1,2.5-2.4,2.4-4.1c-0.2-1.9-2-1.7-3.5-1.8
				c0.3,0.4,0.5,0.7,0.8,1.1c0.3-1.1,1.6-1.5,1.9-2.7c0.1-0.5,0-1-0.2-1.4c-0.2-0.3-0.9-0.7-1.1-1c-0.2-0.6,1.1-1.6,1.5-2.1
				c0.7-0.7,1.4-1.3,2-2C74,29.1,73.1,28.2,72.4,28.8L72.4,28.8z"/>
		</g>
	</g>
	<g>
		<g>
			<path class="st0" d="M48.7,59.2c-0.1-0.6-0.6-1-0.6-1.7c0.1-0.5,0.3-1,0.6-1.5c0.6-0.8,1.4-1.4,2-2.2c0.3-0.4,0.6-0.7,0.6-1.3
				c0-0.3-0.1-0.5-0.2-0.7c-0.1-0.1-0.3-0.3-0.4-0.5c-0.1-0.2,0.2-0.8,0.4-1c0.3-0.5,0.7-1,1.2-1.4c0.8-0.6,0.1-1.7-0.8-1.3
				c-1.2,0.6-2.2,2-2.4,3.4c-0.1,0.5,0.1,1.3,0.6,1.5c0.2,0.1,0,0,0.1,0c-0.1-0.1,0.2-0.2,0,0c-0.2,0.1-0.4,0.4-0.6,0.6
				c-0.9,0.9-1.8,1.8-2.3,3c-0.5,1.2-0.5,3.3,1,3.7C48.4,60.2,48.8,59.7,48.7,59.2L48.7,59.2z"/>
		</g>
	</g>
</g>
</svg>
