<?xml version="1.0" encoding="utf-8"?>
<!-- Generator: Adobe Illustrator 24.0.1, SVG Export Plug-In . SVG Version: 6.00 Build 0)  -->
<svg version="1.1" id="Calque_1" xmlns="http://www.w3.org/2000/svg" xmlns:xlink="http://www.w3.org/1999/xlink" x="0px" y="0px"
	 viewBox="0 0 122 122" style="enable-background:new 0 0 122 122;" xml:space="preserve">
<style type="text/css">
	.st0{fill:#91D902;}
</style>
<g>
	<path d="M101.3,6.8C100.6,2.4,96.5-0.6,92,0L15.4,11c-3,0.5-5.1,3.3-4.7,6.3l7.2,48.5c0.6,3.8,2,7.4,4.2,10.5
		c6.8,9.8,22.1,31.8,25.8,36.8c0.9,1.4,3.6,5.5,5.4,8.1c0.7,1,2.2,0.8,2.6-0.3c1.2-3.5,3.2-9.3,4.2-11.7c2.2-5.5,5.6-16.1,6.6-19.3
		c0.2-0.6,0.7-1,1.3-1.2l4.6-0.8L93.5,84l14.1-2.9c3-0.5,5.1-3.3,4.6-6.4C109.5,57.3,101.3,6.8,101.3,6.8"/>
</g>
<g>
	<g>
		<g>
			<path class="st0" d="M59.5,61.1c-0.4-1.9,0.3-4.1,0.7-6c0.5-2.4,0.9-4.9,1.4-7.4c0.2-1.1,0.3-2.7,1.3-3.5
				c0.7-0.5,1.9-0.6,2.7-0.5c1.2,0,2.1,0.6,3.3,0.8c1,0.2,1.7-0.4,2.3-1.1c1.3-1.6,1.8-4,3.9-4.7c0.7-0.2,2.2-1.1,2.8-0.7
				c0.4,0.2,0.7,1,0.9,1.3c0.3,0.4,0.5,0.7,0.9,1c0.4,0.3,0.9,0.4,1.5,0.4c0.6,0,1-0.3,1.5,0.2c0.7,0.6,1,1.1,1.9,1.3
				c1.8,0.4,4.2-0.3,5,1.8c0.6,1.4,0.8,2.9,1.2,4.3c0.5,1.7,1,3.3,1.5,5c0.8,2.6,2.1,5.3,2.2,8.1c0,1.1,1.7,1.1,1.7,0
				c-0.1-2.6-1.2-5.2-2-7.6c-1-3.1-1.8-6.4-2.8-9.5c-0.7-2.3-2.1-3.3-4.5-3.5c-0.8-0.1-2.2,0.1-2.9-0.6c-0.3-0.3-0.3-0.6-0.6-0.8
				c-0.5-0.4-1.1-0.4-1.7-0.4c-1.7,0.1-1.7-1-2.7-2c-0.8-0.8-1.7-0.7-2.7-0.4c-1,0.3-2.1,0.6-2.9,1c-1,0.5-1.6,1.4-2.2,2.4
				c-0.5,0.8-1.3,3-2.4,3c-0.5,0-1.2-0.4-1.7-0.5c-0.7-0.2-1.4-0.2-2.2-0.2c-1.9,0.1-3.6,0.6-4.3,2.5c-1.2,3-1.3,6.5-1.9,9.6
				c-0.5,2.2-1.4,4.9-0.7,7.2C58.4,62.3,59.7,62,59.5,61.1L59.5,61.1z"/>
		</g>
	</g>
	<g>
		<g>
			<path class="st0" d="M58.9,62.2c4.3,0.2,8.6-0.3,12.9-0.3c2.3,0,4.7,0.2,7,0.2c2.5,0.1,5.1,0.1,7.6,0.2c1.1,0,2.1,0,3.2,0
				c1.9,0,3.8-0.2,5.8-0.3c1.1,0,1.1-1.7,0-1.7c-1.9,0-3.8,0.3-5.8,0.2c-1.1,0-2.1,0-3.2,0c-2.5,0-5.1-0.1-7.6-0.2
				c-2.3-0.1-4.7-0.2-7-0.2c-4.3,0-8.6,0.3-12.9,0.5C58,60.8,58,62.1,58.9,62.2L58.9,62.2z"/>
		</g>
	</g>
	<g>
		<g>
			<path class="st0" d="M28.4,60.7c-0.5-1.9,0.2-4.2,0.7-6.1c0.5-2.2,0.9-4.4,1.4-6.7c0.3-1.5,0.6-3,1-4.5c0.3-1.1,0.5-2.4,1.5-3.2
				c1.6-1.2,4.6-0.9,6.3-0.4c0.9,0.2,1.7,0.7,2.7,0.6c1.1-0.1,1.9-0.9,2.5-1.7c1.2-1.6,2-3.9,3.8-4.9c0.9-0.5,2.2-0.7,3.2-1
				c0.4-0.1,0.9-0.3,1.3-0.4c0.8-0.1,1.1,0.3,1.6,0.9c0.5,0.7,1,1.5,1.7,1.9c0.5,0.3,1,0.5,1.6,0.5c0.7,0,1.5-0.3,2.1,0
				c0.7,0.3,1.1,1.3,2,1.6c0.9,0.3,2,0.4,2.9,0.4c1.1,0,2.2,0,3.3,0.4c1.5,0.6,1.9,2.1,2.3,3.5c0.3,1,2,0.6,1.6-0.5
				c-0.7-2.3-1.6-4.3-4.2-4.9c-1-0.2-2.1-0.3-3.1-0.3c-0.9,0-2.1,0-2.8-0.6c-0.4-0.3-0.5-0.8-0.9-1.1c-0.4-0.3-1-0.4-1.5-0.4
				c-0.6,0-1.3,0.2-1.9,0.1c-0.8-0.2-1.3-1-1.7-1.6c-0.6-0.8-1.2-1.6-2.2-1.7c-1.1-0.2-2.2,0.3-3.2,0.7c-1.1,0.4-2.2,0.5-3.2,1.2
				c-0.9,0.6-1.5,1.4-2.1,2.3c-0.7,1.1-1.3,2.2-2.1,3.2c-0.5,0.5-0.8,0.9-1.6,0.8c-0.7-0.1-1.4-0.4-2-0.6c-2-0.5-4.7-0.6-6.6,0.3
				c-2.3,1.1-2.6,3.7-3.1,5.9c-0.7,3.1-1.2,6.3-2,9.5c-0.5,2.2-1.4,4.9-0.6,7.2C27.3,62,28.7,61.6,28.4,60.7L28.4,60.7z"/>
		</g>
	</g>
	<g>
		<g>
			<path class="st0" d="M27.9,61.9c5.5,0.4,11.1-0.4,16.7-0.4c4.6,0,9.2,0.3,13.8,0.3c1.1,0,1.1-1.6,0-1.7
				c-4.6-0.1-9.2-0.4-13.8-0.4c-5.5,0-11.1,0.2-16.7,0.6C27,60.6,27,61.8,27.9,61.9L27.9,61.9z"/>
		</g>
	</g>
	<g>
		<g>
			<path class="st0" d="M77.3,52.3c0.9,1.4,1.8,2.8,2.7,4.2c0.9,1.4,1.6,2.9,2.2,4.4c0.3,0.8,1.6,0.5,1.4-0.4
				c-0.4-1.7-1.3-3.2-2.2-4.7c-0.9-1.5-1.9-2.9-2.9-4.3C78,50.9,76.9,51.5,77.3,52.3L77.3,52.3z"/>
		</g>
	</g>
	<g>
		<g>
			<path class="st0" d="M72,60.7c-0.4-0.4-0.3-1.5-0.3-2.1c0-0.9,0-1.7,0.1-2.6c0.1-1.1,0.5-2.4,1.2-3.3c0.4-0.4,1.1-0.2,1.7-0.5
				c0.4-0.2,0.8-0.4,1.2-0.7c0.2-0.2,0.5-0.8,0.8-0.8c0.6-0.1,1.3,1.2,1.7,1.5c0.8,0.7,1.8,0.8,2.8,0.4c0.7-0.3,1.3-1,1.8,0
				c0.2,0.4,0.3,1,0.5,1.4c0.2,0.7,0.4,1.3,0.6,2c0.3,1.5,0.1,2.9-0.2,4.4c-0.2,0.8,1.1,1.5,1.5,0.6c1.3-2.7,0.3-5.9-0.6-8.5
				c-0.4-1.1-1-2.2-2.3-2.2c-0.5,0-1,0.2-1.4,0.5c-0.5,0.3-0.9,0.6-1.4,0.2c-0.4-0.3-0.6-0.7-1-1.1c-0.4-0.4-0.9-0.7-1.5-0.8
				c-1.2-0.1-1.6,0.8-2.4,1.5c-0.7,0.5-1.6,0.2-2.3,0.7c-1,0.8-1.5,2.3-1.8,3.5c-0.3,1.2-0.3,2.5-0.3,3.7c0,1,0.1,2.4,0.9,3.1
				C71.7,62.3,72.6,61.4,72,60.7L72,60.7z"/>
		</g>
	</g>
	<g>
		<g>
			<path class="st0" d="M72.2,52.4c0.5,1.6,1.3,3.1,2.2,4.6c0.4,0.7,0.9,1.5,1.4,2.2c0.5,0.7,0.9,1.5,1.5,2.1
				c0.6,0.6,1.5-0.2,1.1-0.9c-0.3-0.7-0.9-1.3-1.3-1.9c-0.5-0.7-0.9-1.4-1.4-2.1c-0.9-1.4-1.7-2.8-2.3-4.3
				C73.1,51.4,71.9,51.7,72.2,52.4L72.2,52.4z"/>
		</g>
	</g>
	<g>
		<g>
			<path class="st0" d="M74.4,51.8c0.7,1.8,2,3.3,3.1,4.8c0.6,0.9,1.2,1.8,1.6,2.7c0.3,0.7,0.5,1.2,0.5,1.8c0,0.6,1,1,1.3,0.3
				c0.4-0.8,0-1.7-0.3-2.4c-0.5-1-1.1-1.9-1.7-2.7c-0.7-0.9-1.3-1.8-2-2.8c-0.5-0.7-1-1.4-1.4-2.2C75.3,50.7,74.2,51.1,74.4,51.8
				L74.4,51.8z"/>
		</g>
	</g>
	<g>
		<g>
			<path class="st0" d="M78.9,53c0.5,1,1.1,1.9,1.7,2.8c0.3,0.5,0.6,0.9,1,1.4c0.2,0.2,0.4,0.5,0.6,0.7c0.2,0.2,0.4,0.5,0.6,0.6
				c0.6,0.3,1.2-0.3,0.9-0.9c-0.1-0.2-0.4-0.4-0.5-0.6c-0.1-0.2-0.3-0.4-0.4-0.5c-0.3-0.4-0.7-0.9-1-1.4c-0.6-0.9-1.1-1.8-1.6-2.7
				c-0.2-0.3-0.6-0.4-1-0.3C78.8,52.2,78.7,52.6,78.9,53L78.9,53z"/>
		</g>
	</g>
	<g>
		<g>
			<path class="st0" d="M80.7,53.5c0.4,0.6,0.8,1.3,1.1,1.9c0.2,0.3,0.3,0.6,0.5,0.9c0.2,0.3,0.4,0.7,0.7,1c0.3,0.2,0.6,0.3,0.9,0.1
				c0.3-0.2,0.3-0.6,0.2-0.9c-0.2-0.3-0.4-0.6-0.6-0.9c-0.2-0.3-0.4-0.6-0.6-1c-0.4-0.6-0.7-1.3-1.1-1.9c-0.2-0.3-0.6-0.5-1-0.3
				C80.6,52.7,80.5,53.1,80.7,53.5L80.7,53.5z"/>
		</g>
	</g>
	<g>
		<g>
			<path class="st0" d="M74,52.3c0.5,1.8,1.6,3.4,2.7,4.8c0.6,0.7,1.2,1.5,1.7,2.2c0.6,0.7,1,1.5,1.6,2.3c0.2,0.3,0.5,0.4,0.8,0.3
				c0.3-0.1,0.5-0.5,0.4-0.8c-0.3-0.8-0.9-1.6-1.4-2.3c-0.6-0.8-1.2-1.5-1.8-2.3c-1.1-1.4-2.2-2.9-2.7-4.6
				C75.1,51.1,73.8,51.4,74,52.3L74,52.3z"/>
		</g>
	</g>
</g>
</svg>
