<?xml version="1.0" encoding="utf-8"?>
<!-- Generator: Adobe Illustrator 24.0.1, SVG Export Plug-In . SVG Version: 6.00 Build 0)  -->
<svg version="1.1" id="Calque_1" xmlns="http://www.w3.org/2000/svg" xmlns:xlink="http://www.w3.org/1999/xlink" x="0px" y="0px"
	 viewBox="0 0 122 122" style="enable-background:new 0 0 122 122;" xml:space="preserve">
<style type="text/css">
	.st0{fill:#91D902;}
</style>
<g>
	<path d="M101.9,6.8c-0.7-4.4-4.8-7.4-9.3-6.8L16,11c-3,0.5-5.1,3.3-4.7,6.3l7.2,48.5c0.6,3.8,2,7.4,4.2,10.5
		c6.8,9.8,22.1,31.8,25.8,36.8c0.9,1.4,3.6,5.5,5.4,8.1c0.7,1,2.2,0.8,2.6-0.3c1.2-3.5,3.2-9.3,4.2-11.7c2.2-5.5,5.6-16.1,6.6-19.3
		c0.2-0.6,0.7-1,1.3-1.2l4.6-0.8L94.1,84l14.1-2.9c3-0.5,5.1-3.3,4.6-6.4C110.1,57.3,101.9,6.8,101.9,6.8"/>
</g>
<g>
	<g>
		<g>
			<path class="st0" d="M64.4,24c-2.5-1.7-5.1-3.5-7.9-4.5c-2.7-1-5.9-0.9-8.7-0.1c-2.7,0.8-5.6,2.6-7.4,4.8c-1.8,2.2-2.6,5-2.7,7.8
				c-0.1,3.1,0.7,6.5,2.2,9.2c1.4,2.6,3.3,5.3,5.6,7.1c4.3,3.3,10.2,3.7,15.2,2c2.7-0.9,5.3-2.4,7.3-4.5c2.2-2.4,2.9-5.1,2.9-8.2
				c0-1.1-1.8-1.1-1.8,0c0,2.6-0.4,4.8-2.2,6.7c-1.5,1.7-3.5,3-5.5,3.8c-4.3,1.8-9.5,2-13.6-0.4c-2.3-1.3-3.7-3.4-5.1-5.6
				c-1.6-2.4-2.7-5-3.1-8c-0.3-2.7,0.1-5.5,1.5-7.9c1.3-2.2,3.6-3.6,5.9-4.7c2.7-1.2,6.2-1.5,9-0.5c2.8,1,5.1,3,7.8,4.2
				C64.6,25.8,65.3,24.6,64.4,24L64.4,24z"/>
		</g>
	</g>
	<g>
		<g>
			<path class="st0" d="M57.3,50.6c0.3,0.2,0.6,0.3,1,0.4c0.4,0.2,0.8,0.3,1.3,0.4c1,0.3,2,0.5,3,0.8c0.9,0.3,1.8,0.5,2.7,0.8
				c0.5,0.1,0.9,0.3,1.4,0.5c0.4,0.2,0.9,0.4,1.3,0.4c0.7,0,1.1-0.9,0.6-1.4c-0.4-0.3-0.8-0.5-1.3-0.6c-0.5-0.2-0.9-0.3-1.4-0.5
				c-1-0.3-2-0.6-2.9-0.9c-1-0.3-2.1-0.5-3.1-0.8c-0.7-0.2-1.9-0.8-2.5-0.1C57.1,50,57.1,50.4,57.3,50.6L57.3,50.6z"/>
		</g>
	</g>
	<g>
		<g>
			<path class="st0" d="M69.3,40.2c0,0.3,0.1,0.7,0.2,1c0,0.4,0,0.8,0.1,1.2c0.1,0.8,0.4,1.5,0.5,2.3c0.1,0.8,0.2,1.5,0.4,2.3
				c0.1,0.4,0.2,0.8,0.2,1.2c0.1,0.4,0.1,0.8,0.3,1.1c0.5,0.7,1.4,0.4,1.5-0.4c0-0.4-0.1-0.8-0.2-1.2c-0.1-0.4-0.2-0.8-0.2-1.2
				c-0.2-0.8-0.3-1.6-0.4-2.4c-0.1-0.8-0.5-1.6-0.5-2.4c-0.1-0.8-0.1-1.7-0.8-2.1C69.9,39.4,69.2,39.7,69.3,40.2L69.3,40.2z"/>
		</g>
	</g>
	<g>
		<g>
			<path class="st0" d="M66.7,24.4c-3.3-0.4-6.8,0.8-8.4,3.8c-1.7,3.1-0.8,7.3,1.6,9.8c2.3,2.3,5.8,2.7,8.7,1.4
				c2.8-1.2,4.6-4.2,4.6-7.3c0-3.4-2.8-7-6.1-7.7c-1.1-0.2-1.6,1.5-0.5,1.7c2.4,0.4,4.3,2.7,4.8,5.1c0.4,2.3-0.8,4.9-2.8,6.1
				c-2,1.3-4.9,1.4-6.9-0.1c-2.2-1.6-3.2-5-2.2-7.5c0.5-1.4,1.6-2.6,2.9-3.1c1.4-0.6,2.8-0.5,4.3-0.7C67.7,25.9,67.7,24.6,66.7,24.4
				L66.7,24.4z"/>
		</g>
	</g>
	<g>
		<g>
			<path class="st0" d="M59.9,36.4c1,0.1,1.9-0.7,2.5-1.4c0.7-0.8,1.1-1.6,1.5-2.5c0.8-2,0.9-4.3,0.2-6.4c-0.1-0.3-0.3-0.5-0.6-0.6
				c-0.6-0.1-1,0.1-1.2,0.7c-0.2,0.5,0.3,1.1,0.8,1c0.1,0,0.3,0,0.4-0.1c-0.2,0-0.3,0-0.5,0c0,0,0.1,0,0.1,0
				c-0.2-0.2-0.4-0.4-0.6-0.6c0.5,1.7,0.6,3.6-0.1,5.3c-0.3,0.7-0.6,1.3-1,1.9c-0.5,0.6-1.1,1-1.7,1.4C59,35.5,59.2,36.3,59.9,36.4
				L59.9,36.4z"/>
		</g>
	</g>
	<g>
		<g>
			<path class="st0" d="M68.1,38.8c0.5-0.9,0.4-2,0.4-3c0-0.9,0.1-1.7,0.5-2.5c0.5-1.2,1.2-2.7,2.5-3.3c0.8-0.4,0.2-1.9-0.7-1.6
				c-1.6,0.7-2.6,2.4-3.2,3.9c-0.4,0.9-0.7,1.7-0.7,2.7c0,0.6,0,1.1,0,1.7c0,0.6-0.1,1.1,0,1.7C66.8,39.1,67.7,39.4,68.1,38.8
				L68.1,38.8z"/>
		</g>
	</g>
	<g>
		<g>
			<path class="st0" d="M42.9,25.7c-1.8,1.7-2.2,4.9-2.1,7.2c0.1,3.2,1.7,6.5,3.5,9.1c1.8,2.6,4.4,4.9,7.4,5.8
				c3.3,1,7.2,0.1,10.1-1.6c1.3-0.8,2.2-1.8,3-3.1c0.7-1.1,1.6-2.7,1-4.1c-0.4-1-2.1-0.6-1.7,0.5c0.5,1.1-0.8,2.8-1.4,3.6
				c-0.9,1.3-2.3,1.9-3.7,2.4c-2,0.7-4.1,1.1-6.1,0.7c-1.7-0.4-3.3-1.3-4.6-2.5c-2.5-2.2-4.5-5.5-5.4-8.7c-0.7-2.4-0.6-6.4,1.2-8.4
				C44.6,26.1,43.6,25.1,42.9,25.7L42.9,25.7z"/>
		</g>
	</g>
	<g>
		<g>
			<path class="st0" d="M43.8,26.9c0.6-0.5,1-1.2,1.6-1.8c0.6-0.6,1.5-0.9,2.3-1.1c1.9-0.4,3.9-0.5,5.8-0.5c1.4,0,2.9,0.5,4.1,1.2
				c0.6,0.3,2.1,1.1,2.1,1.8c-0.1,0.7,0.9,1.1,1.3,0.6c1.1-1.3-0.6-2.6-1.6-3.3c-1.4-0.9-3.1-1.6-4.8-1.9c-1.2-0.2-2.5,0-3.7,0.1
				c-1.1,0.1-2.3,0.2-3.4,0.4c-1,0.2-2,0.5-2.8,1.1c-0.8,0.6-1.5,1.6-2,2.5C42.3,26.8,43.3,27.4,43.8,26.9L43.8,26.9z"/>
		</g>
	</g>
	<g>
		<g>
			<path class="st0" d="M44.1,26c1.5,1.4,2.7,3.1,4.3,4.5c1.6,1.5,3.2,2.9,4.7,4.6c1.4,1.7,2.8,3.4,4.3,4.9c1.5,1.5,3,3.1,4.7,4.3
				c-0.1-0.4-0.2-0.8-0.3-1.2c0,0.1-0.1,0.1-0.1,0.2c-0.4,0.7,0.4,1.6,1.1,1.1c0.1,0,0.1-0.1,0.2-0.1c0.6-0.4,0.5-1.1,0-1.5
				c-3.5-2.6-6.2-6.1-9-9.3c-1.4-1.6-3.1-3-4.6-4.4c-1.5-1.4-2.6-3.2-4.4-4.2C44.2,24.6,43.5,25.5,44.1,26L44.1,26z"/>
		</g>
	</g>
	<g>
		<g>
			<path class="st0" d="M41.5,32.2c1.4,1.7,2.8,3.4,4.3,5c1.4,1.6,3,3,4.5,4.4c1.2,1.1,2.3,2.4,3.5,3.5c0.5,0.4,0.9,0.9,1.4,1.3
				c0.2,0.2,0.5,0.5,0.7,0.7c0,0.1,0.1,0.2,0.2,0.2c0.1,0.1,0.1,0.4,0-0.1c0.1,1.1,1.8,1.1,1.8,0c0-1.1-1.4-2.1-2.1-2.7
				c-1.2-1.1-2.3-2.4-3.5-3.5c-1.6-1.5-3.3-3-4.8-4.7c-1.6-1.7-3-3.6-4.8-5.2C41.8,30.6,40.9,31.5,41.5,32.2L41.5,32.2z"/>
		</g>
	</g>
	<g>
		<g>
			<path class="st0" d="M51,23.6C51,23.6,50.8,23.4,51,23.6c0.1,0.2-0.2-0.3,0.1,0.1c0.1,0.1,0.2,0.2,0.3,0.2
				c0.2,0.2,0.5,0.5,0.7,0.7c0.5,0.5,0.9,1.1,1.4,1.6c0.6,0.7,1.2,1.4,1.9,2c0.4,0.5,0.9,0.9,1.3,1.4c0.2,0.2,0.4,0.5,0.6,0.7
				c0.1,0.1,0.2,0.2,0.3,0.3c0,0,0.2,0.3,0.2,0.2c0.3-0.4,0.5-0.7,0.8-1.1c0,0,0,0,0,0c0.1,0,0.3,0.1,0.4,0.1
				c-0.2-0.1-0.3-0.1-0.6-0.2c-0.4-0.1-0.8,0.4-0.8,0.7c0,0.4,0.2,0.8,0.6,0.9c-0.2-0.1,0.1,0.1,0.2,0.1c0.5,0.1,1.1-0.3,1.1-0.8
				c-0.1-0.7-0.8-1.4-1.3-1.9c-0.5-0.5-0.9-1-1.4-1.5c-0.7-0.7-1.4-1.5-2.1-2.2c-0.5-0.6-1-1.2-1.6-1.7c-0.3-0.3-0.5-0.5-0.9-0.7
				c-0.4-0.2-0.9-0.2-1.2,0.2C50.7,23.1,50.8,23.5,51,23.6L51,23.6z"/>
		</g>
	</g>
	<g>
		<g>
			<path class="st0" d="M44.1,39.1c1.4-0.4,1.8-1.7,2.7-2.7c1.3-1.4,2.6-2.6,4-3.8c1.3-1.1,2.6-2.3,3.7-3.7c1.1-1.3,2.1-2.7,3.6-3.6
				c0.9-0.6,0-2-0.8-1.4c-1.4,0.9-2.4,2.2-3.5,3.4c-1.1,1.3-2.3,2.6-3.6,3.7c-1.3,1.1-2.6,2.3-3.8,3.6c-0.5,0.6-1.1,1.1-1.5,1.8
				c-0.3,0.5-0.6,1.2-1.2,1.5C42.9,38.3,43.4,39.4,44.1,39.1L44.1,39.1z"/>
		</g>
	</g>
	<g>
		<g>
			<path class="st0" d="M46.9,43.4c1.4-0.6,2.6-1.9,3.6-3c1.1-1.1,2.2-2.2,3.2-3.4c0.9-1.1,1.6-2.3,2.5-3.3c0.7-0.8,1.6-1.7,2.6-2.2
				c1-0.5,0.1-1.8-0.8-1.4c-1,0.4-1.9,1.4-2.7,2.2c-1,1-1.7,2.2-2.5,3.3c-0.9,1.3-2.1,2.4-3.2,3.5c-0.5,0.6-1.1,1.1-1.6,1.6
				c-0.6,0.6-1.2,1-1.7,1.7C45.9,42.9,46.4,43.6,46.9,43.4L46.9,43.4z"/>
		</g>
	</g>
	<g>
		<g>
			<path class="st0" d="M50.9,46.6c1.1-0.3,1.9-1.1,2.7-2c0.8-0.9,1.6-1.7,2.4-2.5c0.8-0.8,1.8-1.5,2.5-2.5c0.4-0.5,0.8-1.5,1.4-1.7
				c1-0.2,0.6-1.8-0.4-1.5c-0.9,0.2-1.5,1.1-2,1.8c-0.2,0.3-0.4,0.7-0.6,0.9c-0.5,0.5-1,0.9-1.5,1.4c-0.9,0.8-1.8,1.6-2.6,2.6
				c-0.7,0.8-1.4,1.6-2.3,2.2C49.8,45.8,50.1,46.8,50.9,46.6L50.9,46.6z"/>
		</g>
	</g>
	<g>
		<g>
			<path class="st0" d="M56.6,47.2c0.8-0.2,1.4-0.8,1.9-1.4c0.5-0.6,0.9-1.3,1.5-1.9c0.7-0.7,1.3-1.4,2-2.2c0.3-0.3,0.6-0.7,0.9-1
				c0.4-0.4,0.8-0.7,1-1.2c0.1-0.3-0.1-0.6-0.3-0.8c-0.3-0.2-0.5-0.2-0.8-0.1c-0.4,0.2-0.7,0.6-1,0.9c-0.3,0.3-0.6,0.7-0.9,1
				c-0.6,0.7-1.2,1.4-1.9,2.1c-0.5,0.6-1,1.2-1.5,1.9c-0.4,0.5-0.8,1.1-1.4,1.5C55.6,46.4,55.9,47.3,56.6,47.2L56.6,47.2z"/>
		</g>
	</g>
	<g>
		<g>
			<path class="st0" d="M42.5,33.3c1.1,0.2,1.9-0.7,2.5-1.5c0.7-0.9,1.5-1.7,2.2-2.6c0.7-0.8,1.4-1.6,2.1-2.4c0.3-0.4,0.7-0.8,1-1.1
				c0.4-0.4,0.9-0.7,1-1.3c0.2-0.6-0.4-1-0.9-0.9c-0.5,0.1-0.8,0.6-1.1,0.9c-0.3,0.3-0.7,0.7-1,1.1c-0.7,0.8-1.3,1.5-2,2.3
				c-0.7,0.8-1.4,1.5-2,2.3c-0.5,0.6-1,1.6-1.8,1.8C41.9,32.2,41.8,33.2,42.5,33.3L42.5,33.3z"/>
		</g>
	</g>
	<g>
		<g>
			<path class="st0" d="M68.5,53.4c0.8-0.4,1.4-1,1.9-1.7c0.3-0.3,0.6-0.6,0.9-0.9c0,0,0.5-0.4,0.4-0.4c0.2,0,0.6,0.5,0.7,0.6
				c0.7,0.7,1.4,1.5,2.1,2.2c0.8,0.8,1.7,1.5,2.4,2.3c0.7,0.7,1.4,1.6,2.1,2.3c0.8,0.8,1.6,1.5,2.4,2.2c0.7,0.7,1.3,1.4,2,2.1
				c0.2,0.2,0.3,0.3,0.5,0.5c0.1,0.1,0.3,0.3,0.4,0.4c0.1,0.1,0.1,0.1,0.2,0.2c0.1,0.2,0.2,0,0.1-0.4c-0.1,0-0.7,0.4-0.8,0.5
				c-0.4,0.3-0.7,0.6-1,0.9c-0.3,0.4-0.7,0.7-1,1.1c-0.1,0.1-0.4,0.4-0.4,0.6c-0.1,0.3,0.3-0.1,0.3-0.1c0-0.1-0.4-0.4-0.5-0.5
				c-0.3-0.3-0.6-0.7-0.9-1c-1.7-1.9-3.4-3.7-5.1-5.6c-0.7-0.8-1.4-1.6-2.2-2.3c-1.4-1.3-3.1-2.2-4.2-3.7c-0.7-0.9-2.2,0-1.5,0.9
				c1.2,1.6,2.9,2.7,4.4,4c0.8,0.7,1.5,1.5,2.3,2.3c1.9,2.1,3.8,4.2,5.7,6.3c0.6,0.7,1.5,1.8,2.5,1.3c0.7-0.3,1.2-1.3,1.7-1.8
				c0.4-0.4,0.7-0.8,1.2-1.1c0.4-0.3,0.8-0.5,1.1-0.9c0.4-0.6,0-1.3-0.4-1.8c-0.6-0.7-1.3-1.3-1.9-2c-0.8-0.8-1.6-1.6-2.5-2.3
				c-1-0.9-1.9-1.9-2.8-2.9c-0.9-1-1.9-1.8-2.9-2.7c-1-0.9-1.8-2.1-2.9-2.9c-2-1.4-3.6,2.1-5,2.9C66.9,52.6,67.7,53.9,68.5,53.4
				L68.5,53.4z"/>
		</g>
	</g>
</g>
</svg>
