<?xml version="1.0" encoding="utf-8"?>
<!-- Generator: Adobe Illustrator 24.0.1, SVG Export Plug-In . SVG Version: 6.00 Build 0)  -->
<svg version="1.1" id="Calque_1" xmlns="http://www.w3.org/2000/svg" xmlns:xlink="http://www.w3.org/1999/xlink" x="0px" y="0px"
	 viewBox="0 0 122 122" style="enable-background:new 0 0 122 122;" xml:space="preserve">
<style type="text/css">
	.st0{fill:#91D902;}
</style>
<g>
	<path d="M100.6,6.9c-0.7-4.4-4.8-7.4-9.3-6.8l-76.6,11c-3,0.5-5.1,3.3-4.7,6.3l7.2,48.5c0.6,3.8,2,7.4,4.2,10.5
		c6.8,9.8,22.1,31.8,25.8,36.8c0.9,1.4,3.6,5.5,5.4,8.1c0.7,1,2.2,0.8,2.6-0.3c1.2-3.5,3.2-9.3,4.2-11.7C61.6,103.8,65,93.2,66,90
		c0.2-0.6,0.7-1,1.3-1.2l4.6-0.8l20.9-3.9l14.1-2.9c3-0.5,5.1-3.3,4.6-6.4C108.8,57.4,100.6,6.9,100.6,6.9"/>
</g>
<g>
	<g>
		<g>
			<path class="st0" d="M62.1,21.5c-0.8-0.5-2-0.5-3-0.4c-1,0.1-1.9,0.6-2.6,1.4c-1.4,1.6-1.8,4.1-0.7,6c1,1.8,3.2,2.5,5.1,2.3
				c2-0.2,3.6-1.6,4.2-3.5c0.4-1.2,0.2-2.4-0.5-3.5c-0.4-0.6-0.8-1.1-1.2-1.7c-0.2-0.3-0.5-0.5-0.8-0.6c-0.3-0.1-0.6-0.2-0.8-0.3
				c-1-0.6-1.9,1-0.9,1.5c0.3,0.2,0.7,0.2,1,0.4c0.4,0.3,0.6,0.8,0.9,1.2c0.4,0.6,0.9,1.2,0.8,2c-0.2,1.4-1.1,2.4-2.3,2.7
				c-1.2,0.3-2.8,0-3.6-1c-0.9-1.1-0.9-2.9-0.1-4c0.5-0.7,1-1.1,1.8-1.3c0.8-0.2,1.6,0,2.5,0C62.5,22.9,62.7,21.9,62.1,21.5
				L62.1,21.5z"/>
		</g>
	</g>
	<g>
		<g>
			<path class="st0" d="M55.5,26.5c-0.7,0.5-1.3,1.1-1.9,1.6c-0.6,0.5-1.3,1-2,1.5c-0.7,0.5-1.2,1.1-1.8,1.7c-0.6,0.5-1.2,1-1.8,1.5
				c-0.5,0.4-1.1,0.9-1.3,1.4c-0.2,0.7,0.2,1.3,0.5,1.9c0.8,1.5,1.9,3,2.9,4.4c0.6,0.9,2.1,0,1.5-0.9c-0.9-1.3-1.8-2.6-2.6-3.9
				c-0.2-0.3-0.4-0.6-0.5-0.9c-0.1-0.1-0.1-0.5-0.2-0.2c0,0.2,0.1,0,0.2-0.1c0.5-0.5,1-0.9,1.5-1.3c1.1-0.9,2.1-1.9,3.2-2.8
				c1.2-0.9,2.3-1.8,3.3-2.9C56.9,27.1,56.2,26,55.5,26.5L55.5,26.5z"/>
		</g>
	</g>
	<g>
		<g>
			<path class="st0" d="M57.7,28.9c-0.7,0.2-1.3,0.7-1.9,1.1c-0.6,0.4-1.1,0.9-1.7,1.3c-1.1,0.9-2.2,1.8-3.2,2.9
				c-0.4,0.4-0.6,0.9-0.4,1.5c0.2,0.6,0.5,1.1,0.7,1.6c0.2,0.6,0.5,1.2,0.8,1.8c0.2,0.5,0.4,1,0.7,1.4c0.8,0.8,2-0.4,1.2-1.2
				c-0.2-0.2-0.3-0.7-0.5-1c-0.2-0.5-0.5-0.9-0.6-1.4c-0.2-0.5-0.5-1-0.7-1.6c0,0-0.1-0.2-0.1-0.2c0,0.1,0,0.3-0.1,0.4
				c0,0,0.1-0.1,0.1-0.1c0.2-0.1,0.5-0.5,0.7-0.7c0.8-0.8,1.7-1.6,2.7-2.3c0.5-0.4,1-0.7,1.4-1.1c0.5-0.4,1.1-0.7,1.5-1.2
				C58.7,29.6,58.4,28.8,57.7,28.9L57.7,28.9z"/>
		</g>
	</g>
	<g>
		<g>
			<path class="st0" d="M63.7,27.8c0.3,0.9,1,1.5,1.7,2.2c1,0.9,2,1.7,3,2.6c1.9,1.7,4,3.2,5.9,4.9c1.8,1.7,3.7,3.3,5.6,4.9
				c0.8,0.7,1.7,1.5,2.5,2.3c0.6,0.7,1.3,1.3,2.1,1.7c1,0.4,1.5-1.2,0.5-1.6c-0.8-0.3-1.3-1.2-1.9-1.8c-0.8-0.7-1.5-1.4-2.3-2.1
				c-1.8-1.5-3.6-3.1-5.3-4.7c-1.7-1.5-3.6-2.9-5.3-4.4c-0.9-0.7-1.7-1.5-2.6-2.2c-0.8-0.7-1.8-1.4-2.3-2.3
				C64.6,26.5,63.4,27,63.7,27.8L63.7,27.8z"/>
		</g>
	</g>
	<g>
		<g>
			<path class="st0" d="M61.8,68.1c-0.7,0-1.4,0.1-2.1,0c-0.8-0.1-1.3-0.3-1.8-0.9c-1-1.1-1.2-2.8-0.5-4.1c0.7-1.2,2.2-1.5,3.5-1.4
				c1.3,0.1,2.3,1,2.6,2.3c0.2,0.9,0.1,1.5-0.4,2.2c-0.3,0.4-0.6,0.9-0.9,1.3c-0.3,0.4-0.8,0.4-1.2,0.6c-1,0.6-0.1,2.1,0.9,1.5
				c0.5-0.3,1-0.3,1.4-0.7c0.4-0.4,0.8-1,1.1-1.5c0.7-0.9,1.1-1.9,0.9-3.1c-0.3-2-1.6-3.6-3.5-4.2c-1.8-0.5-4.2,0-5.4,1.5
				c-1.3,1.6-1.5,4.2-0.3,6c0.7,1,1.6,1.8,2.8,2.1c1,0.2,2.4,0.3,3.3-0.3C62.7,69,62.5,68.1,61.8,68.1L61.8,68.1z"/>
		</g>
	</g>
	<g>
		<g>
			<path class="st0" d="M56.4,63.3c-1-1.1-2.1-2-3.3-2.9c-1.1-0.8-2.1-1.9-3.2-2.8c-0.5-0.4-1-0.9-1.5-1.3c0,0-0.3-0.3-0.3-0.3
				c0,0.1,0,0.2,0.1,0.3c0-0.1,0.1-0.2,0.1-0.2c0.2-0.3,0.3-0.6,0.5-0.8c0.7-1.2,1.6-2.4,2.5-3.6c0.6-0.9-0.8-1.7-1.5-0.9
				c-0.9,1.3-1.9,2.6-2.7,3.9c-0.3,0.6-0.7,1.2-0.5,1.9c0.2,0.6,0.9,1.1,1.4,1.5c0.6,0.5,1.3,1,1.8,1.5c0.6,0.5,1.1,1.1,1.7,1.6
				c0.6,0.5,1.3,0.9,1.9,1.5c0.7,0.6,1.3,1.2,2,1.7C56.2,64.9,56.9,63.9,56.4,63.3L56.4,63.3z"/>
		</g>
	</g>
	<g>
		<g>
			<path class="st0" d="M58.4,61c-0.3-0.5-0.9-0.8-1.3-1.2c-0.5-0.4-1-0.7-1.5-1.1c-0.9-0.7-1.8-1.5-2.7-2.3
				c-0.2-0.2-0.4-0.4-0.6-0.6c-0.1-0.1-0.2-0.2-0.3-0.3c-0.1-0.1-0.1-0.1,0,0.1c0,0.1,0,0.1,0,0.2c0,0,0.5-1,0.6-1.2
				c0.3-0.8,0.6-1.6,1-2.4c0.5-1-1-1.8-1.5-0.9c-0.4,0.9-0.7,1.8-1.1,2.7c-0.2,0.5-0.6,1-0.7,1.6c0,0.6,0.4,1,0.8,1.4
				c1,0.9,1.9,1.8,3,2.6c0.5,0.4,1.1,0.9,1.7,1.3c0.5,0.4,1.2,0.9,1.8,1C58.2,62.1,58.8,61.5,58.4,61L58.4,61z"/>
		</g>
	</g>
	<g>
		<g>
			<path class="st0" d="M65,63.7c0.5-0.9,1.4-1.5,2.2-2.2c0.8-0.7,1.7-1.5,2.6-2.2c1.8-1.6,3.7-3,5.5-4.6c1.7-1.5,3.4-3.1,5.2-4.5
				c0.8-0.7,1.6-1.4,2.4-2.1c0.6-0.6,1.2-1.5,2-1.8c1-0.4,0.6-2-0.5-1.6c-0.8,0.3-1.4,0.9-2,1.6c-0.8,0.8-1.6,1.5-2.5,2.3
				c-1.9,1.7-3.8,3.3-5.7,5c-1.9,1.7-3.9,3.2-5.8,4.8c-1,0.9-2,1.7-3,2.6c-0.8,0.7-1.5,1.3-1.8,2.3C63.4,64,64.6,64.5,65,63.7
				L65,63.7z"/>
		</g>
	</g>
	<g>
		<g>
			<path class="st0" d="M50.8,40.9c1,0,2.1,0.1,3.1,0.1c0.3,0,0.6,0,1,0c0.2,0,0.7,0.1,0.8,0c-0.3-0.4-0.4-0.5-0.3-0.3
				c0-0.1,0,0,0,0.1c0,0.1,0,0.3,0,0.4c0,0.3-0.1,0.6-0.1,0.9c-0.1,0.9,0.1,1.9,0.1,2.8c0,1,0,2.1,0,3.1c0,0.5,0,1,0,1.6
				c0,0.2,0,0.5,0,0.7c0,0.2-0.1,0.5,0,0.7c0,0.2,0.1,0.1,0.3-0.2c0,0-0.1,0-0.1,0c-0.2,0-0.5,0-0.6,0.1c-0.5,0-1,0.1-1.4,0.1
				c-1,0-2,0-3-0.1c0.3,0.3,0.6,0.6,0.9,0.9c-0.1-2.2-0.1-4.4,0-6.5c0-0.9,0.1-1.9,0.1-2.8c0-0.3,0-0.6,0-0.9c0-0.2,0-0.3,0-0.5
				c0-0.2,0.2-0.3,0,0c0.7-0.8-0.5-2.1-1.2-1.2c-0.5,0.6-0.5,1.4-0.5,2.1c0,0.9,0,1.8-0.1,2.7c-0.1,2.4-0.2,4.8-0.1,7.2
				c0,0.5,0.4,0.8,0.9,0.9c1.7,0.2,3.5,0.1,5.3-0.2c0.8-0.1,1.1-0.6,1.2-1.4c0.1-0.9,0-2,0-2.9c0-1,0.1-1.9,0-2.9c0-1-0.1-2-0.2-3
				c0-1,0.5-2.6-0.8-3c-0.6-0.2-1.3-0.1-1.9-0.1c-1.2,0-2.3,0-3.5,0.1C49.8,39.4,49.8,40.8,50.8,40.9L50.8,40.9z"/>
		</g>
	</g>
	<g>
		<g>
			<path class="st0" d="M54.4,43.9c0.2-0.2,0.2-0.5,0.3-0.7c0-0.1,0-0.2,0-0.3c0-0.2,0-0.4,0-0.5c-0.3,0.3-0.7,0.5-1,0.8
				c0,0,0,0,0,0c-0.1,0-0.1-0.1-0.2-0.1c0,0,0,0,0,0c-0.1-0.1-0.2-0.2-0.3-0.3c0.1,0.2,0.1,0.2,0.3,0.3c-0.1,0-0.1-0.1-0.2-0.1
				c0,0,0,0,0,0c0-0.1-0.1-0.1-0.1-0.2c0,0,0,0,0,0c0.1,0.2,0.3,0.3,0.5,0.4c0.2,0,0.5,0,0.6-0.1c0.1-0.1,0.2-0.2,0.3-0.3
				c0.1-0.2,0.2-0.6,0-0.8c-0.1-0.2-0.3-0.4-0.5-0.4c-0.1,0-0.3,0-0.4,0c-0.1,0-0.2,0.1-0.3,0.1c-0.1,0.1-0.2,0.1-0.2,0.2
				c-0.1,0.1-0.1,0.3-0.1,0.4c0,0.2,0,0.4,0,0.5c0,0.1,0,0.2,0,0.3c0,0.3,0,0.5,0.3,0.7c0.1,0.1,0.3,0.2,0.5,0.2
				C54.1,44.1,54.3,44.1,54.4,43.9L54.4,43.9z"/>
		</g>
	</g>
	<g>
		<g>
			<path class="st0" d="M53.3,48.1C53.3,48.1,53.3,48.1,53.3,48.1c0.1-0.1,0.2-0.1,0.3-0.2c0,0,0,0,0,0c0.1,0,0.1,0,0.2,0
				c0,0,0,0,0,0c0.1,0,0.1,0,0.2,0c0,0,0,0,0,0c0.2,0.3,0.3,0.6,0.5,0.9c0,0,0-0.1,0-0.1c0,0,0-0.1,0-0.1c0,0,0,0,0,0c0,0,0,0,0-0.1
				c0-0.1,0-0.1,0-0.2c0-0.1,0-0.2,0-0.3c0,0.1,0,0.1,0,0.2c0-0.1,0-0.1,0-0.2c0-0.1,0.1-0.2,0.1-0.4c0-0.1,0-0.1,0-0.2
				c0-0.1-0.1-0.1-0.1-0.2c0-0.1-0.1-0.1-0.1-0.2c-0.1-0.1-0.2-0.1-0.3-0.2c-0.1,0-0.1-0.1-0.2-0.1c-0.1,0-0.1,0-0.2,0
				c-0.1,0-0.1,0-0.2,0.1c-0.1,0-0.2,0.1-0.3,0.2c0,0-0.1,0.1-0.1,0.1c-0.1,0.1-0.1,0.1-0.1,0.2c0,0,0,0.1,0,0.1c0,0,0,0,0,0.1
				c0,0.1,0,0.2,0,0.3c0,0.1,0,0.2,0,0.3c0,0.2,0,0.3,0.1,0.5c0,0,0,0.1,0,0.1c0,0,0,0,0,0.1c0,0.1,0.1,0.2,0.1,0.2
				c0.1,0.1,0.2,0.2,0.3,0.3c0.1,0.1,0.2,0.1,0.3,0.1c0.1,0,0.2,0,0.3,0c0.1,0,0.2-0.1,0.3-0.2c0,0,0.1-0.1,0.1-0.2c0,0,0-0.1,0-0.1
				c0-0.1,0-0.1,0-0.2c0,0,0-0.1,0-0.1c0,0,0-0.2,0-0.2c-0.1-0.2-0.3-0.4-0.5-0.5c-0.1,0-0.3,0-0.4,0C53.5,47.9,53.4,48,53.3,48.1
				L53.3,48.1z"/>
		</g>
	</g>
	<g>
		<g>
			<path class="st0" d="M43.1,46.2c-0.2,0.2,0.6,0.1,0.8,0.1c0.4,0,0.8,0,1.2,0c1.5,0.1,2.9,0.1,4.5,0c1.6-0.1,3.1-0.2,4.7-0.2
				c1.5,0,2.9,0.1,4.4,0c1.5-0.1,3-0.2,4.5,0c1.4,0.2,2.8,0.3,4.2,0.2c1.5-0.1,3-0.1,4.5-0.1c1.5,0.1,3.1,0,4.6,0.4c0-0.5,0-1,0-1.5
				c-0.1,0-0.1,0-0.2,0c-1,0.2-0.6,1.8,0.4,1.5c0.1,0,0.1,0,0.2,0c0.8-0.2,0.8-1.3,0-1.5c-1.4-0.3-2.9-0.3-4.3-0.4
				c-1.7-0.1-3.3-0.1-5,0c-1.6,0.1-3.1,0-4.7-0.2c-1.7-0.2-3.3,0-5,0.1c-1.6,0.1-3.1-0.1-4.7,0c-1.7,0.1-3.4,0.2-5.1,0.3
				c-1.4,0.1-2.7-0.1-4-0.1c-0.6,0-1.6-0.1-2.1,0.5C41.5,45.9,42.4,46.9,43.1,46.2L43.1,46.2z"/>
		</g>
	</g>
	<g>
		<g>
			<path class="st0" d="M81.6,42.5c-0.5-0.3-1.2-0.3-1.8-0.3c-0.5,0-1-0.1-1.5,0.1c-0.9,0.2-1.6,0.9-2.1,1.7c-0.5,0.8-0.7,2-0.4,2.9
				c0.3,0.9,1,1.4,1.8,1.8c0.5,0.2,1,0.4,1.6,0.5c0.6,0.1,1.2,0.2,1.7,0.2c0.4,0.1,1-0.1,1.1-0.6c0.1-0.4-0.1-1-0.6-1.1
				c-0.9-0.1-1.7-0.2-2.6-0.5c-0.1-0.1-0.3-0.1-0.4-0.2c0,0-0.1,0-0.1,0c0,0,0.1,0.1,0,0c-0.1,0-0.2-0.1-0.2-0.1
				c-0.1-0.1-0.3-0.1-0.4-0.2c0.1,0.1,0,0,0-0.1c0,0,0-0.1-0.1-0.1c-0.1-0.1,0.1,0.1,0,0c0,0-0.1-0.2-0.1-0.1c0,0.1,0-0.1,0-0.2
				c0,0,0-0.2,0-0.2c0,0.1,0-0.1,0-0.1c0-0.1,0-0.1,0-0.2c0-0.1,0-0.2,0-0.3c0,0,0-0.1,0-0.1c0,0,0,0.1,0,0c0-0.1,0-0.2,0.1-0.3
				c0,0,0-0.1,0-0.1c0,0,0-0.1,0,0c0.1-0.2,0.2-0.3,0.3-0.4c-0.1,0.1,0.1-0.1,0.1-0.1c0.1-0.1,0.1-0.1,0.2-0.2c0,0,0.1-0.1,0.1-0.1
				c0,0,0.1-0.1,0,0c-0.1,0.1,0,0,0,0c0,0,0.1,0,0.1-0.1c0.1,0,0.1-0.1,0.2-0.1c0,0,0.1,0,0.1-0.1c-0.1,0,0,0,0,0
				c0.1,0,0.2-0.1,0.3-0.1c0,0,0.1,0,0.1,0c-0.1,0,0,0,0.1,0c0.2,0,0.5,0,0.7,0c0.5,0,1.1,0.1,1.7,0C82.1,43.6,82.2,42.8,81.6,42.5
				L81.6,42.5z"/>
		</g>
	</g>
	<g>
		<g>
			<path class="st0" d="M41.7,42.4c-0.4,0.4-0.3,1.1-0.3,1.6c0,0.5,0,1,0,1.5c0,0.5,0,1,0,1.5c0,0.2,0,0.5,0,0.7
				c0-0.2-0.1,0.5,0,0.3c0,0.1,0,0.2,0,0.3c0,0.3,0.2,0.6,0.4,0.7c0,0,0.2,0.1,0.2,0.1c0.5,0.1,0.8-0.1,1-0.6c0-0.1,0-0.2,0-0.3
				c0-0.1,0-0.2-0.1-0.3c-0.2-0.2-0.2-0.2,0,0c0,0.3-0.1,0.7-0.1,1c0,0,0,0,0,0c-0.1,0.1-0.2,0.1-0.4,0.2c0,0,0,0,0,0
				c0.3-0.1,0.6-0.3,0.6-0.6C43,48,43,47.6,43,47.1c0-0.5,0-1,0-1.5c0-0.5-0.1-1-0.1-1.5c0-0.5,0-1.3-0.4-1.7
				C42.3,42.1,41.9,42.1,41.7,42.4L41.7,42.4z"/>
		</g>
	</g>
	<g>
		<g>
			<path class="st0" d="M42.2,42.3c-0.5-0.2-1.1,0.3-1.6,0.5c-0.2,0.1-0.4,0.2-0.7,0.3c-0.1,0.1-0.2,0.1-0.3,0.1
				c-0.1,0-0.1,0-0.2,0.1c0.1,0,0,0,0,0c-1,0.4-1.9,0.7-2.9,1.2c-0.2,0.1-0.4,0.4-0.4,0.6c0,0.3,0.1,0.5,0.2,0.7
				c0.8,1,2.2,1.3,3.3,2c0.4,0.3,0.9,0.6,1.3,0.9c0.3,0.2,0.6,0.5,1,0.6c0.4,0.1,1-0.1,1.1-0.6c0.1-0.4-0.1-1-0.6-1.1
				c0.2,0.1,0.2,0.1,0.1,0c-0.1,0-0.1-0.1-0.2-0.1c-0.2-0.1-0.4-0.2-0.5-0.4c-0.4-0.3-0.8-0.6-1.2-0.8c-0.4-0.3-0.8-0.5-1.3-0.7
				c-0.3-0.1-0.6-0.3-0.9-0.5c-0.1,0-0.1-0.1-0.2-0.1c0,0-0.2-0.2-0.1,0c-0.1,0-0.1-0.1-0.2-0.1c0,0-0.2-0.3-0.1-0.1
				c-0.1,0.4-0.2,0.8-0.3,1.2c0.1,0,0.2-0.1,0.3-0.1c-0.1,0,0,0,0,0c0.1,0,0.1,0,0.2-0.1c0.2-0.1,0.5-0.2,0.7-0.3
				c0.5-0.2,1-0.4,1.5-0.6c0.5-0.2,0.9-0.4,1.4-0.7c0.5-0.3,1.2-0.8,1.2-1.4C42.7,42.6,42.5,42.3,42.2,42.3L42.2,42.3z"/>
		</g>
	</g>
</g>
</svg>
