<?xml version="1.0" encoding="utf-8"?>
<!-- Generator: Adobe Illustrator 24.0.1, SVG Export Plug-In . SVG Version: 6.00 Build 0)  -->
<svg version="1.1" id="Calque_1" xmlns="http://www.w3.org/2000/svg" xmlns:xlink="http://www.w3.org/1999/xlink" x="0px" y="0px"
	 viewBox="0 0 122 122" style="enable-background:new 0 0 122 122;" xml:space="preserve">
<style type="text/css">
	.st0{fill:#91D902;}
</style>
<g>
	<path d="M101.5,6.8c-0.7-4.4-4.8-7.4-9.3-6.8L15.6,11c-3,0.5-5.1,3.3-4.7,6.3l7.2,48.5c0.6,3.8,2,7.4,4.2,10.5
		c6.8,9.8,22.1,31.8,25.8,36.8c0.9,1.4,3.6,5.5,5.4,8.1c0.7,1,2.2,0.8,2.6-0.3c1.2-3.5,3.2-9.3,4.2-11.7c2.2-5.5,5.6-16.1,6.6-19.3
		c0.2-0.6,0.7-1,1.3-1.2l4.6-0.8L93.7,84l14.1-2.9c3-0.5,5.1-3.3,4.6-6.4C109.7,57.3,101.5,6.8,101.5,6.8"/>
</g>
<g>
	<g>
		<g>
			<path class="st0" d="M60.1,43.2c-2.1-1.1-3.7,2-4.3,3.6c-0.7,2.2-0.1,4.9,1.7,6.4c2.1,1.8,5.4,1.9,7.8,0.7
				c1.3-0.7,2.4-1.8,2.8-3.2c0.4-1.4,0.1-2.8-0.5-4.1c-1.3-2.9-4.4-5.1-7.7-4.1c-1.1,0.3-0.6,2,0.5,1.7c2.1-0.7,4.2,0.5,5.2,2.3
				c0.5,0.9,0.9,1.9,0.9,2.9c0,1-0.5,1.9-1.4,2.5c-1.6,1.2-4.1,1.4-5.9,0.4c-0.8-0.4-1.3-1.1-1.7-1.9c-0.2-0.4-0.3-0.8-0.3-1.2
				c0-0.2,0-0.5,0-0.7c0-0.1,0-0.3,0-0.4c0,0,0-0.1,0-0.1c0,0.1,0,0.1,0,0c0.2-0.8,0.5-1.6,1-2.3c0.2-0.3,0.5-0.7,0.8-0.9
				c0.2-0.2,0.4-0.2,0.6-0.2C60.3,44.8,60.9,43.6,60.1,43.2L60.1,43.2z"/>
		</g>
	</g>
	<g>
		<g>
			<path class="st0" d="M60.9,30.4c-0.2,0.7-0.1,1.5-0.1,2.2c0,0.8,0,1.5,0,2.3c0,1.5,0,3,0,4.5c0,1.1,1.7,1.1,1.7,0
				c0-1.5,0-3-0.1-4.5c0-0.7,0-1.5-0.1-2.2c0-0.8,0-1.6-0.2-2.3C62,29.7,61,29.7,60.9,30.4L60.9,30.4z"/>
		</g>
	</g>
	<g>
		<g>
			<path class="st0" d="M61.2,57c-0.5,0.6-0.5,1.4-0.5,2.2c0,0.8,0.2,1.6,0.2,2.4c0.1,1.9-0.1,3.7-0.2,5.6c-0.1,1.1,1.6,1.1,1.7,0
				c0.1-1.8,0.3-3.6,0.2-5.4c0-0.8-0.2-1.5-0.2-2.3c-0.1-0.7,0.1-1.5-0.1-2.2C62.1,56.8,61.5,56.7,61.2,57L61.2,57z"/>
		</g>
	</g>
	<g>
		<g>
			<path class="st0" d="M53.2,48.1c-0.6-0.4-1.6-0.3-2.3-0.2c-0.8,0-1.6,0.1-2.4,0.1c-1.6,0.1-3.2,0.1-4.8,0.1
				c-0.7,0-1.1,0.8-0.7,1.3c0,0,0,0,0,0.1c0.2,0.3,0.6,0.5,1,0.4c0.2-0.1,0.3-0.1,0.4-0.3c-0.1,0.1-0.2,0.1-0.4,0.2c0,0,0,0,0.1,0
				c0.6-0.2,0.7-0.8,0.3-1.3c0-0.1-0.6-0.4-0.3-0.2c0.1,0.2,0.3,0.3,0.4,0.5c0,0,0,0,0-0.1c-0.3,0.4-0.6,0.7-0.8,1.1
				c1.6,0.1,3.2,0,4.8-0.1c0.8,0,1.6-0.1,2.3-0.1c0.4,0,0.8,0,1.2-0.1c0.4,0,0.9,0,1.2-0.3C53.6,48.9,53.6,48.4,53.2,48.1L53.2,48.1
				z"/>
		</g>
	</g>
	<g>
		<g>
			<path class="st0" d="M70.5,49.4c0.8,0.4,1.7,0.4,2.6,0.4c0.8,0,1.6-0.1,2.5-0.1c0.7,0,1.4-0.1,2.1-0.2c0.4,0,0.8-0.1,1.1,0
				c0.1,0,0.2,0,0.3,0.1c0,0,0.1,0,0.2,0.1c0.1,0,0.1,0,0.2,0.1c0.6,0.2,1.2-0.6,0.8-1.1c-0.4-0.7-1.4-0.8-2.1-0.8
				c-0.8,0-1.5,0.1-2.3,0.2c-0.8,0.1-1.5,0.1-2.3,0.1c-0.8,0.1-1.7,0.1-2.6-0.1C70.3,47.9,69.7,49.1,70.5,49.4L70.5,49.4z"/>
		</g>
	</g>
	<g>
		<g>
			<path class="st0" d="M56.6,35.2c-2.6,0.5-5.2,2.4-6.7,4.5c-1.9,2.5-2.9,5.6-2.9,8.8c0,5.8,3.4,11.2,8.8,13.5
				c6.2,2.6,13.3,0.8,17.7-4.3c2.2-2.5,2.6-5.7,3.1-8.9c0.4-3-0.3-6.3-2-8.8c-0.9-1.5-2.4-2.4-3.8-3.4c-1.5-1.1-3-2.1-4.9-2.4
				c-1-0.2-2-0.1-3-0.2c-1.1-0.1-2.1-0.3-3.2-0.2c-1.3,0.1-3.2,0.4-3.8,1.7c-0.5,1,1,1.8,1.5,0.9c0.5-1.1,2.9-0.9,3.9-0.9
				c1.5,0.1,3.2,0.1,4.7,0.5c1.5,0.3,2.7,1.1,3.9,2c1,0.8,2.1,1.4,3,2.4c1.8,2.1,2.5,5.4,2.2,8c-0.3,2.6-0.6,5.5-2.2,7.7
				c-1.6,2.2-4.1,3.8-6.7,4.8c-2.8,1.1-5.7,0.9-8.5,0.1c-4.8-1.5-8.3-5.8-8.8-10.8C48,44.3,51.2,38.3,57,36.6
				C57.9,36.3,57.5,35,56.6,35.2L56.6,35.2z"/>
		</g>
	</g>
</g>
</svg>
