<?xml version="1.0" encoding="utf-8"?>
<!-- Generator: Adobe Illustrator 24.0.1, SVG Export Plug-In . SVG Version: 6.00 Build 0)  -->
<svg version="1.1" id="Calque_1" xmlns="http://www.w3.org/2000/svg" xmlns:xlink="http://www.w3.org/1999/xlink" x="0px" y="0px"
	 viewBox="0 0 122 122" style="enable-background:new 0 0 122 122;" xml:space="preserve">
<style type="text/css">
	.st0{fill:#91D902;}
</style>
<g>
	<path d="M101.3,6.8C100.6,2.4,96.5-0.6,92,0L15.4,11c-3,0.5-5.1,3.3-4.7,6.3l7.2,48.5c0.6,3.8,2,7.4,4.2,10.5
		c6.8,9.8,22.1,31.8,25.8,36.8c0.9,1.4,3.6,5.5,5.4,8.1c0.7,1,2.2,0.8,2.6-0.3c1.2-3.5,3.2-9.3,4.2-11.7c2.2-5.5,5.6-16.1,6.6-19.3
		c0.2-0.6,0.7-1,1.3-1.2l4.6-0.8L93.5,84l14.1-2.9c3-0.5,5.1-3.3,4.6-6.4C109.5,57.3,101.3,6.8,101.3,6.8"/>
</g>
<g>
	<g>
		<g>
			<path class="st0" d="M47.4,24.2c0,1.7,0.1,3.4-0.1,5c-0.2,1.7-1.1,3.4-1.5,5c-0.4,1.6-0.8,3.1-1.4,4.6c-0.6,1.6-1.1,3.1-1.4,4.8
				c-0.5,3.5-0.8,7.1-1.3,10.6c-0.2,1.5-0.4,3-0.2,4.5c0.1,1.5,0.6,2.9,1,4.4c0.7,2.5,1.7,4.9,4,6.3c2.2,1.3,5.1,1.6,7.5,0.6
				c2.3-1,4-2.9,4.8-5.1c1.1-2.9,0.6-6.2,0.4-9.3c-0.2-3.3-0.4-6.5-0.9-9.7c-0.4-3.4-0.9-6.9-1.1-10.3c-0.1-1.1-1.8-1.1-1.7,0
				c0.2,5.1,1.3,10.1,1.6,15.3c0.2,3.2,0.5,6.4,0.6,9.6c0.1,2.5-0.6,5-2.5,6.8c-2,1.9-5,2.3-7.5,1.1c-2.7-1.3-3.4-3.9-4-6.6
				c-0.3-1.3-0.7-2.5-0.7-3.9c0-1.6,0.2-3.1,0.5-4.7c0.5-3.2,0.6-6.4,1.1-9.5c0.3-1.7,0.9-3.3,1.5-4.9c0.6-1.6,0.9-3.2,1.4-4.8
				c0.4-1.4,1.1-2.8,1.3-4.2c0.2-1.8,0-3.6,0-5.4C48.9,23.2,47.4,23.2,47.4,24.2L47.4,24.2z"/>
		</g>
	</g>
	<g>
		<g>
			<path class="st0" d="M42.9,46.3c-0.1,2.5,0.9,5.1,2.2,7.2c1.2,1.9,3,4,5.5,3.9c3-0.1,4.9-3.1,5.6-5.7c1-3.8,0.8-7.9,0.9-11.8
				c0-2.6,0.3-5.2,0.7-7.7c0.4-2.5,1.1-5,1.5-7.6c0.2-1.1-1.5-1.5-1.6-0.4c-0.7,4.8-2,9.4-2.2,14.3c-0.1,2.5-0.1,5-0.3,7.5
				C55,48.1,55,50,54.4,51.9c-0.5,1.6-1.6,3.4-3.4,3.8c-1.3,0.3-2.4-0.5-3.3-1.4c-1.9-2-3.2-5.2-3.4-8
				C44.3,45.4,42.9,45.4,42.9,46.3L42.9,46.3z"/>
		</g>
	</g>
	<g>
		<g>
			<path class="st0" d="M48,24.9c0.8,0.2,1.7,0.1,2.5,0c0.8-0.1,1.6-0.2,2.5-0.2c1.9,0,3.7,0,5.6,0c1,0,1-1.6,0-1.6
				c-1.8,0-3.7,0-5.5,0c-1.7,0-3.3,0.4-4.9,0.5C47.4,23.7,47.2,24.7,48,24.9L48,24.9z"/>
		</g>
	</g>
	<g>
		<g>
			<path class="st0" d="M48.7,26.2c1.5,0.1,2.9,0.6,4.4,0.8c1.6,0.2,3.2,0.3,4.7,0.8c1,0.3,1.4-1.2,0.4-1.5
				c-1.6-0.5-3.2-0.5-4.9-0.8c-1.5-0.2-3.1-0.9-4.6-0.7C47.8,24.9,47.7,26.1,48.7,26.2L48.7,26.2z"/>
		</g>
	</g>
	<g>
		<g>
			<path class="st0" d="M48.4,29.4c0.3,0.2,0.7,0.3,1.1,0.3c0.4,0.1,0.7,0.1,1.1,0.2c0.8,0.1,1.6,0.2,2.4,0.3c0.7,0,1.4,0.1,2.1,0.2
				c0.7,0.1,1.5,0.4,2.2,0.4c0.7,0,1.1-1.1,0.4-1.4c-0.7-0.3-1.5-0.4-2.3-0.5c-0.7-0.1-1.5-0.2-2.2-0.2c-0.7,0-1.5-0.1-2.2-0.2
				c-0.4,0-0.7-0.1-1.1-0.2c-0.4-0.1-0.9-0.2-1.3,0C48,28.4,48,29.1,48.4,29.4L48.4,29.4z"/>
		</g>
	</g>
	<g>
		<g>
			<path class="st0" d="M46.6,32.4c-0.1,0.2-0.1,0.4-0.1,0.6c0,0.2,0.1,0.3,0.2,0.5c0.1,0.3,0.3,0.6,0.4,0.9
				c0.3,0.6,0.7,1.3,1.1,1.9c0.2,0.3,0.4,0.5,0.6,0.8c0.3,0.3,0.8,0.3,1.1,0c0.3-0.3,0.3-0.8,0-1.1c-0.1-0.1-0.1-0.1-0.2-0.2
				c0,0,0,0-0.1-0.1c-0.1-0.1,0,0,0,0.1c0-0.1-0.1-0.1-0.1-0.2c-0.2-0.3-0.4-0.6-0.6-0.8c-0.4-0.6-0.7-1.2-1.1-1.8
				c-0.2-0.3-0.3-0.6-0.6-0.7C47.2,32.1,46.7,32.1,46.6,32.4L46.6,32.4z"/>
		</g>
	</g>
	<g>
		<g>
			<path class="st0" d="M48.2,30.1c0.1,0.3,0.3,0.5,0.4,0.7c0.3,0.4,0.5,0.8,0.8,1.2c0.6,0.9,1.1,1.7,1.7,2.6
				c0.1,0.2,0.3,0.4,0.5,0.6c0.2,0.3,0.5,0.4,0.8,0.4c0.5,0.1,0.8-0.5,0.7-1c0-0.2-0.2-0.4-0.3-0.6c0-0.1-0.1-0.1-0.1-0.2
				c0.1,0.1,0.1,0.1,0,0c0,0-0.1-0.1-0.1-0.1c-0.3-0.4-0.6-0.8-0.8-1.2c-0.6-0.8-1.2-1.7-1.8-2.5c-0.3-0.3-0.5-0.7-0.9-1
				c-0.2-0.2-0.6-0.1-0.8,0.1C48,29.5,48,29.8,48.2,30.1L48.2,30.1z"/>
		</g>
	</g>
	<g>
		<g>
			<path class="st0" d="M45.8,39.1c2.2-1.1,4.4-1.9,6.5-3.2c0.9-0.5,1.7-1.1,2.6-1.6c0.7-0.4,1.5-1,2.2-1.2c0.9-0.3,0.5-1.8-0.4-1.5
				c-0.9,0.3-1.6,0.8-2.4,1.3c-0.9,0.5-1.8,1.1-2.7,1.7c-0.9,0.6-1.9,1.1-2.9,1.5c-1.3,0.6-2.6,1.1-3.7,2
				C44.4,38.6,45.2,39.4,45.8,39.1L45.8,39.1z"/>
		</g>
	</g>
	<g>
		<g>
			<path class="st0" d="M44.1,44.2c0.4-0.1,0.9-0.4,1.2-0.7c0.4-0.3,0.8-0.6,1.2-0.9c1-0.7,2-1,3.1-1.5c1.2-0.5,2.3-1.2,3.5-1.8
				c1-0.6,2-1.4,3.1-1.8c0.9-0.3,0.6-1.6-0.4-1.5c-1.2,0.2-2.1,1.1-3.1,1.7c-1.2,0.7-2.4,1.5-3.7,2c-1.1,0.4-2.2,0.8-3.1,1.5
				c-0.4,0.3-0.9,0.6-1.3,0.9c-0.4,0.3-0.9,0.5-1.2,0.9C43,43.6,43.4,44.3,44.1,44.2L44.1,44.2z"/>
		</g>
	</g>
	<g>
		<g>
			<path class="st0" d="M50.6,40.1c0.3,0.5,0.7,1.1,1.1,1.6c0.4,0.5,0.7,1.1,1.1,1.7c0.4,0.6,0.8,1.1,1.2,1.7
				c0.2,0.3,0.4,0.6,0.7,0.9c0.1,0.1,0.2,0.2,0.3,0.3c0.1,0.1,0,0,0.1,0.1c0,0,0.1,0.2,0,0.1c0.1,0.4,0.6,0.7,1.1,0.6
				c0.4-0.1,0.7-0.6,0.6-1.1c-0.2-0.6-0.8-1-1.2-1.6c-0.5-0.6-0.9-1.2-1.3-1.8c-0.4-0.6-0.7-1.2-1.1-1.7c-0.4-0.6-0.8-1.3-1.5-1.7
				C51,38.6,50.3,39.5,50.6,40.1L50.6,40.1z"/>
		</g>
	</g>
	<g>
		<g>
			<path class="st0" d="M53.8,37.5c-0.4,0.2-0.4,0.6-0.3,1c0.1,0.3,0.3,0.5,0.4,0.7c0.2,0.3,0.5,0.5,0.7,0.8c0-0.1-0.1-0.1-0.1-0.2
				c0.1,0.2,0.2,0.3,0.4,0.5c0.1,0.2,0.2,0.3,0.3,0.5c0-0.1-0.1-0.1-0.1-0.2c0,0,0,0,0,0c0,0.1,0.1,0.3,0.2,0.4
				c0.1,0,0.1,0.1,0.2,0.1c0.2,0.1,0.5,0.1,0.8,0c0.2-0.1,0.4-0.2,0.5-0.5c0.1-0.1,0.1-0.2,0.1-0.3c0-0.2,0-0.3-0.1-0.4
				c-0.1-0.2-0.2-0.4-0.4-0.6c-0.2-0.2-0.4-0.5-0.5-0.7c-0.3-0.4-0.7-0.8-1.1-1.1c0.1,0,0.1,0.1,0.2,0.1c-0.1,0-0.1-0.1-0.1-0.1
				C54.4,37.5,54,37.4,53.8,37.5L53.8,37.5z"/>
		</g>
	</g>
	<g>
		<g>
			<path class="st0" d="M71,24.1c0,1.8-0.2,3.2,0.3,5c0.4,1.3,1.1,2.4,2.3,3.1c1.1,0.7,2.4,1,3.5,1.8c1.4,1,2.4,2.5,2.6,4.3
				c0.2,1.7-1,2.8-2,4.1c-1.1,1.4-2.3,2.7-3.1,4.3c-1.5,3.1-2.6,6.5-2.6,9.9c0,1.9,0.2,3.8,0.5,5.6c0.2,1.5,1,4-0.2,5.3
				c-1.2,1.4-3.3,1.7-4.4,0.1c-0.9-1.3-1.4-3-1.9-4.4c-1.6-3.8-3-7.7-3.5-11.9c-0.3-2.8-0.3-5.6-0.3-8.3c-0.1-2.8-0.2-5.6-0.1-8.4
				c0-1.1,0.1-2.1,0.2-3.2c0.1-1.1,0.1-2.3,0.1-3.4c0-1.2-0.2-2.6,0.2-3.7c-0.3,0.2-0.5,0.4-0.8,0.6c3.3,0,6.6,0.1,9.9,0.1
				c1.1,0,1.1-1.7,0-1.7c-3.3,0-6.6-0.1-9.9-0.2c-0.4,0-0.7,0.3-0.8,0.6c-0.6,2-0.2,4.3-0.3,6.4c-0.1,1.2-0.3,2.4-0.3,3.7
				c-0.1,2.7,0,5.4,0.1,8.1c0.1,2.9,0,5.9,0.3,8.9c0.4,4.4,1.8,8.5,3.5,12.6c1,2.5,2,6.9,5.3,7c1.5,0.1,3-0.7,4-1.7
				c1.1-1.1,1.2-2.8,1-4.3c-0.5-4.3-1.3-8.3-0.1-12.6c0.6-1.9,1.3-3.9,2.4-5.6c1-1.5,2.3-2.9,3.4-4.3c1.1-1.5,1.4-2.9,1-4.8
				c-0.4-1.7-1.5-3.2-2.8-4.3c-1.3-1.1-3-1.4-4.4-2.4c-2-1.5-1.4-4.2-1.7-6.4C72.3,23.2,71,23.2,71,24.1z"/>
		</g>
	</g>
	<g>
		<g>
			<path class="st0" d="M62.9,58.4c1.9,0.9,3.1-0.5,3.8-2.2c1-2.5,2-5.2,2.6-7.8c0.3-1.4,0.6-2.7,1-4c0.4-1.4,1.1-2.6,1.7-4
				c1.2-2.5,2.7-5.1,3.5-7.8c0.3-1-1.2-1.4-1.5-0.4c-0.7,2.3-2.1,4.4-3,6.6c-0.5,1.1-1.1,2.1-1.6,3.2c-0.4,1-0.7,2.1-0.9,3.1
				c-0.6,2.3-1,4.7-1.8,6.9c-0.4,1.1-0.8,2.1-1.2,3.2c-0.3,0.9-0.8,2.2-1.9,1.9C62.7,56.9,62.1,58.1,62.9,58.4L62.9,58.4z"/>
		</g>
	</g>
	<g>
		<g>
			<path class="st0" d="M61.3,27.4c0.7,0.5,1.8,0.5,2.6,0.5c0.9,0,1.9-0.1,2.8-0.1c0.8,0,1.6-0.1,2.4-0.1c0.8,0,1.6,0,2.3,0.3
				c0.8,0.3,1.4-1,0.6-1.4c-1.5-0.7-3.3-0.4-5-0.3c-0.9,0-1.7,0.1-2.6,0.1c-0.5,0-0.9,0-1.4,0c-0.4,0-0.8-0.2-1.2-0.2
				C61,26,60.6,26.9,61.3,27.4L61.3,27.4z"/>
		</g>
	</g>
	<g>
		<g>
			<path class="st0" d="M61.9,33c0.5-1.6,2.3-2.6,3.7-3.3c1-0.5,2-1.1,3.1-1.5c0.6-0.2,1.5-0.6,2.2-0.4c0.8,0.3,1.3-0.9,0.6-1.4
				c-0.9-0.5-2.1-0.1-3,0.2c-1.3,0.4-2.5,1-3.6,1.7c-1.7,1-4,2.3-4.1,4.5C60.6,33.6,61.7,33.7,61.9,33L61.9,33z"/>
		</g>
	</g>
	<g>
		<g>
			<path class="st0" d="M62.1,37.2c0.1-0.3,0.5-0.5,0.7-0.7c0.3-0.3,0.7-0.5,1-0.7c0.9-0.7,1.8-1.5,2.7-2.2c1.8-1.3,3.8-2.6,6.1-2.6
				c1,0,1-1.6,0-1.6c-2.6,0-5,1.5-7,3c-1,0.7-1.9,1.6-2.9,2.3c-0.7,0.5-1.8,1.1-1.9,2.1C60.8,37.6,61.8,37.9,62.1,37.2L62.1,37.2z"
				/>
		</g>
	</g>
	<g>
		<g>
			<path class="st0" d="M61,42c-0.2,0.7,0.6,1.4,1.1,1.8c0.6,0.5,1.2,0.9,1.8,1.2c1.4,0.8,2.9,1.6,4.6,1.8c0.5,0.1,1-0.1,1.1-0.7
				c0.1-0.6-0.3-0.9-0.8-1c-1.4-0.2-2.7-0.9-3.9-1.5c-0.6-0.3-1.1-0.6-1.6-1c-0.2-0.2-0.4-0.3-0.6-0.5c-0.2-0.2-0.4-0.5-0.8-0.6
				C61.4,41.5,61,41.7,61,42L61,42z"/>
		</g>
	</g>
	<g>
		<g>
			<path class="st0" d="M61.1,37.8c0.1,0.8,0.8,1.5,1.3,2c0.6,0.5,1.2,1,1.9,1.5c0.8,0.6,1.7,1,2.5,1.5c0.4,0.2,0.8,0.3,1.2,0.5
				c0.1,0,0.4,0.1,0.5,0.2c0.2,0.1,0.4,0.2,0.6,0.3c0.3,0,0.7,0,0.9-0.3c0.2-0.3,0.2-0.6,0.1-0.9c-0.4-0.7-1.5-0.8-2.1-1.1
				c-0.8-0.4-1.7-0.8-2.4-1.3c-0.6-0.4-1.1-0.8-1.6-1.2c-0.5-0.5-1-1-1.4-1.6C61.9,36.6,61,37,61.1,37.8L61.1,37.8z"/>
		</g>
	</g>
</g>
</svg>
