<?xml version="1.0" encoding="utf-8"?>
<!-- Generator: Adobe Illustrator 24.0.1, SVG Export Plug-In . SVG Version: 6.00 Build 0)  -->
<svg version="1.1" id="Calque_1" xmlns="http://www.w3.org/2000/svg" xmlns:xlink="http://www.w3.org/1999/xlink" x="0px" y="0px"
	 viewBox="0 0 122 122" style="enable-background:new 0 0 122 122;" xml:space="preserve">
<style type="text/css">
	.st0{fill:#91D902;}
</style>
<g>
	<path d="M101.5,6.8c-0.7-4.4-4.8-7.4-9.3-6.8L15.6,11c-3,0.5-5.1,3.3-4.7,6.3l7.2,48.5c0.6,3.8,2,7.4,4.2,10.5
		c6.8,9.8,22.1,31.8,25.8,36.8c0.9,1.4,3.6,5.5,5.4,8.1c0.7,1,2.2,0.8,2.6-0.3c1.2-3.5,3.2-9.3,4.2-11.7c2.2-5.5,5.6-16.1,6.6-19.3
		c0.2-0.6,0.7-1,1.3-1.2l4.6-0.8L93.7,84l14.1-2.9c3-0.5,5.1-3.3,4.6-6.4C109.7,57.3,101.5,6.8,101.5,6.8"/>
</g>
<g>
	<g>
		<g>
			<path class="st0" d="M37.6,29.8c1.8-0.8,3.9-0.8,5.8-1.3c2.4-0.6,4.7-1.2,7.1-1.7c4.3-0.9,8.9-1,13.1-2.7
				c0.9-0.4,0.5-1.9-0.4-1.5c-4.4,1.6-9,1.8-13.5,2.8c-2.4,0.5-4.7,1.1-7.1,1.7c-1.8,0.4-4,0.4-5.6,1.4C36,29.1,36.7,30.2,37.6,29.8
				L37.6,29.8z"/>
		</g>
	</g>
	<g>
		<g>
			<path class="st0" d="M36.4,29.6c0.5,3.6,1.7,7.2,2.6,10.7c0.8,3.1,1.7,6,3.7,8.5c1.9,2.4,4.4,4.4,7.2,5.8c1.4,0.7,3,1.4,4.6,1.7
				c0.5,0.1,1,0.2,1.6,0.3c0.3,0.1,1.4,0.2,1.5,0.4c0.6,0.9,2.1,0.1,1.5-0.9c-0.5-0.8-1.7-1-2.5-1.1c-1.2-0.2-2.4-0.5-3.6-0.9
				c-3.1-1.1-6-3-8.2-5.4c-2.3-2.5-3.3-5.4-4.1-8.5c-0.9-3.6-1.7-7.2-2.8-10.7C37.5,28.7,36.3,28.8,36.4,29.6L36.4,29.6z"/>
		</g>
	</g>
	<g>
		<g>
			<path class="st0" d="M62.9,23.6c0.1,2.9,1,5.8,1.6,8.6c0.6,3,0.7,6,0.5,9c-0.2,2.9-0.9,5.8-2.2,8.5c-1.1,2.3-2.6,4.6-4.7,6.1
				c-0.9,0.6-0.1,2.1,0.9,1.5c2.2-1.4,3.8-3.8,5-6c1.4-2.6,2.3-5.4,2.6-8.4c0.4-3.2,0.4-6.5-0.1-9.7c-0.5-3.3-1.5-6.4-2-9.7
				C64.1,22.6,62.9,22.8,62.9,23.6L62.9,23.6z"/>
		</g>
	</g>
	<g>
		<g>
			<path class="st0" d="M44.1,38.1C44.1,38.2,44.1,38,44.1,38.1c0-0.1,0.1-0.4,0.1-0.3c0-0.1,0.1-0.3,0.1-0.4c0,0,0.1-0.2,0-0.1
				c0-0.1,0.1-0.1,0.1-0.2c0.1-0.1,0.2-0.3,0.2-0.4c0.1-0.2,0.3-0.4,0.5-0.5c0,0,0.2-0.2,0.1-0.1c0.1,0,0.1-0.1,0.2-0.1
				c0,0,0.1-0.1,0.1-0.1c0,0,0.2-0.1,0.1-0.1c-0.1,0,0.1,0,0.1,0c0.1,0,0.2,0,0.3-0.1c-0.1,0,0.1,0,0.1,0c0.1,0,0.1,0,0.2,0
				c0.1,0,0.1,0,0,0c0,0,0.1,0,0.1,0c0.1,0,0.1,0,0.2,0c0.1,0,0.1,0,0.2,0.1c-0.1-0.1,0.1,0,0.1,0c0.6,0.3,0.9,0.6,1.5,1
				c0.3,0.3,0.9,0.1,1.1-0.3c0.2-0.4,0.1-0.9-0.3-1.1c-0.6-0.4-1.2-0.9-1.9-1.2c-0.8-0.3-1.6-0.3-2.4,0.1c-0.7,0.3-1.2,0.9-1.6,1.5
				c-0.4,0.6-0.7,1.4-0.5,2.2c0.1,0.3,0.4,0.5,0.7,0.5C43.9,38.7,44.1,38.4,44.1,38.1L44.1,38.1z"/>
		</g>
	</g>
	<g>
		<g>
			<path class="st0" d="M56,35.4C55.9,35.9,56,35.5,56,35.4c0.1-0.1,0.1-0.2,0.1-0.3c0-0.1,0.1-0.3,0.1-0.4c0,0,0-0.1,0-0.1
				c0,0.1,0,0.1,0,0c0-0.1,0.1-0.2,0.1-0.2c0.1-0.1,0.1-0.3,0.2-0.4c0.1-0.1,0.2-0.3,0.3-0.4c0,0,0-0.1,0.1-0.1c0,0.1,0,0.1,0,0
				c0-0.1,0.1-0.1,0.1-0.2c0.1-0.1,0.2-0.2,0.3-0.3c0,0,0,0,0,0c0,0,0.1,0,0.1-0.1c0.1,0,0.1-0.1,0.2-0.1c0.1-0.1-0.1,0,0.1,0
				c0.1,0,0.2,0,0.2-0.1c-0.2,0,0.1,0,0.1,0c0,0,0.1,0,0.1,0c-0.1,0-0.1,0,0,0c0.1,0,0.1,0,0.2,0.1c0,0,0.2,0.1,0.1,0
				c0.2,0.1,0.3,0.2,0.4,0.3c0.1,0.1-0.1-0.1,0.1,0.1c0.1,0.1,0.1,0.1,0.2,0.2c0.1,0.1,0.3,0.3,0.4,0.4c0.3,0.3,0.5,0.7,0.9,0.8
				c0.4,0.1,1-0.2,1-0.7c0-0.5-0.5-1-0.8-1.3c-0.3-0.3-0.6-0.6-1-0.8c-0.8-0.5-1.8-0.6-2.7-0.2c-0.7,0.3-1.3,1-1.7,1.7
				c-0.2,0.4-0.4,0.7-0.5,1.1c-0.1,0.2-0.1,0.3-0.1,0.5c0,0.1,0,0.3,0,0.4c0,0.1,0,0.2,0,0.3c0,0.1,0,0.1,0,0c0,0.4,0.3,0.7,0.7,0.7
				C55.7,36.1,55.9,35.8,56,35.4L56,35.4z"/>
		</g>
	</g>
	<g>
		<g>
			<path class="st0" d="M47.6,44.2c0.6,1.1,1.3,2.1,2.2,2.9c1,0.8,2.2,1.2,3.5,1.2c2.5,0.2,5.3-0.8,6.9-2.8c0.8-1,1.5-2.8,0.7-4
				c-0.4-0.6-1.5-0.4-1.4,0.4c0.1,0.6,0.2,1.1,0,1.7c-0.2,0.5-0.6,1-1,1.4c-1,0.8-2.2,1.4-3.5,1.6c-1.1,0.2-2.6,0.1-3.6-0.5
				c-1.1-0.6-1.8-1.7-2.5-2.7C48.3,42.8,47.1,43.4,47.6,44.2L47.6,44.2z"/>
		</g>
	</g>
	<g>
		<g>
			<path class="st0" d="M66.6,39.2c0.7,0.4,1.3,0.9,2.1,1.2c0.9,0.4,1.9,0.5,2.8,0.9c1.8,0.7,3.6,1.5,5.5,1.9c3,0.8,6.5,1.4,8.7,3.8
				c0.6,0.7,1.8-0.2,1.3-1c-2-2.8-6.2-3.5-9.3-4.3c-2.1-0.5-4-1.3-5.9-2c-1-0.4-2.2-0.5-3.1-1c-0.7-0.4-1.4-1-2.1-0.3
				C66.1,38.5,66.2,39,66.6,39.2L66.6,39.2z"/>
		</g>
	</g>
	<g>
		<g>
			<path class="st0" d="M56.1,56c-0.7,1.2-0.6,2.8-0.3,4.1c0.3,1.4,0.8,2.8,1.2,4.2c0.9,2.9,1.8,5.9,4,8.1c0.7,0.8,1.9-0.4,1.2-1.2
				c-2-1.9-2.7-4.7-3.5-7.3c-0.8-2.4-1.9-4.9-1.3-7.5C57.4,55.8,56.5,55.3,56.1,56L56.1,56z"/>
		</g>
	</g>
	<g>
		<g>
			<path class="st0" d="M62.3,72.9c1.7-0.7,3.5-1,5.3-1.5c1.9-0.5,3.7-1.3,5.5-2.1c3.2-1.6,5.5-3.7,7.4-6.7c1.9-2.9,3.1-6.1,4.5-9.3
				c0.6-1.3,1.2-2.6,1.6-4c0.3-0.7,0.6-2-0.4-2.3c-0.9-0.2-1.4,1-0.6,1.5c-0.8-0.5-0.1-0.7-0.4-0.2c-0.1,0.2-0.1,0.5-0.2,0.7
				c-0.2,0.5-0.4,0.9-0.5,1.4c-0.6,1.5-1.3,3-1.9,4.5c-1.1,2.7-2.3,5.4-4,7.8c-1.9,2.7-4.3,4.3-7.2,5.7c-1.6,0.7-3.3,1.3-5.1,1.7
				c-1.5,0.4-3.1,0.7-4.5,1.5C61,71.9,61.5,73.2,62.3,72.9L62.3,72.9z"/>
		</g>
	</g>
	<g>
		<g>
			<path class="st0" d="M65.6,46.2c0.1,0,0.1,0,0.2,0.1c0,0,0,0,0,0c0.1,0,0.1,0-0.1,0c0,0.1,0.2,0.1,0.3,0.2c0,0,0.2,0.1,0,0
				c0,0,0.1,0.1,0.1,0.1c0.1,0.1,0.1,0.1,0.2,0.2c0,0,0,0,0.1,0.1c-0.1-0.1-0.1-0.1-0.1-0.1c0,0,0.1,0.1,0.1,0.1
				c0.1,0.1,0.1,0.2,0.2,0.3c0,0.1,0,0.1,0.1,0.2c0.1,0.2-0.1-0.2,0,0c0,0.1,0.1,0.2,0.1,0.3c0,0.1,0.1,0.2,0.1,0.3c0,0,0,0.1,0,0.1
				c0,0.1,0,0.1,0,0c0,0.2,0,0.5,0,0.7c0,0.1,0,0.2,0,0.3c0,0.2,0-0.1,0,0c0,0,0,0.1,0,0.1c0,0.3-0.1,0.5-0.2,0.7
				c0,0.3,0.3,0.7,0.6,0.8c0.4,0.1,0.7-0.1,0.9-0.4c0.3-0.4,0.3-1.1,0.3-1.6c0-0.6-0.1-1.1-0.3-1.7c-0.2-0.6-0.5-1.1-0.9-1.5
				c-0.5-0.5-1-0.7-1.7-0.8c-0.4,0-0.7,0.3-0.7,0.6C65,45.7,65.3,46.1,65.6,46.2L65.6,46.2z"/>
		</g>
	</g>
	<g>
		<g>
			<path class="st0" d="M73.9,51.9c0.1-0.1,0.2-0.2,0.3-0.3c0,0,0.1-0.1,0.1-0.1c0.1-0.1-0.1,0.1,0,0c0,0,0.1-0.1,0.1-0.1
				c0.1-0.1,0.2-0.1,0.3-0.2c0.1,0,0.1-0.1,0.2-0.1c0.1,0-0.1,0-0.1,0c0,0,0.1,0,0.1,0c0.1,0,0.2-0.1,0.3-0.1c0.1,0,0.1,0,0.2,0
				c0,0,0.1,0,0.1,0c0,0-0.2,0-0.1,0c0.1,0,0.2,0,0.4,0c0.1,0,0.3,0,0.4,0c0,0-0.2,0-0.1,0c0,0,0.1,0,0.1,0c0.1,0,0.1,0,0.2,0
				c0.1,0,0.2,0.1,0.4,0.1c0.2,0.1-0.1-0.1,0,0c0.1,0,0.1,0,0.2,0.1c0.1,0.1,0.2,0.1,0.3,0.2c0.2,0.1-0.1-0.1,0,0
				c0,0,0.1,0.1,0.1,0.1c0.1,0.1,0.2,0.2,0.3,0.3c0,0-0.1-0.1-0.1-0.1c0,0,0,0.1,0.1,0.1c0,0,0.1,0.1,0.1,0.1c0,0,0,0.1,0.1,0.1
				c0,0.1,0-0.1,0-0.1c0,0,0,0.1,0,0.1c0,0.1,0.1,0.3,0.1,0.4c0,0,0-0.2,0-0.1c0,0,0,0.1,0,0.1c0,0.1,0,0.1,0,0.2c0,0.1,0,0.1,0,0.2
				c0-0.2,0,0,0,0.1c0,0.1,0,0.2-0.1,0.3c0,0,0,0.1,0,0.1c0,0.2,0,0.3,0,0.2c0-0.1,0-0.1,0,0c-0.1,0.4,0.1,0.8,0.4,0.9
				c0.3,0.1,0.8,0,1-0.3c0.7-1.2,0.3-3-0.8-3.9c-1-0.9-2.4-1.1-3.7-0.7c-0.8,0.2-1.5,0.7-2,1.4c-0.2,0.3-0.1,0.7,0.2,0.9
				C73.2,52.2,73.6,52.2,73.9,51.9L73.9,51.9z"/>
		</g>
	</g>
	<g>
		<g>
			<path class="st0" d="M60.5,60.3c0.6-0.5,1.1-1.2,1.8-1.6c0.7-0.4,1.4-0.6,2.2-0.7c1.3-0.1,2.6,0.2,3.7,0.9
				c1.1,0.6,2.1,1.5,2.8,2.6c0.3,0.5,0.6,1,0.7,1.5c0.1,0.6-0.2,1-0.4,1.5c-0.4,0.8,0.6,1.5,1.2,0.9c0.9-0.8,1-2.3,0.7-3.4
				c-0.4-1.2-1.3-2.3-2.3-3.1c-2-1.8-4.6-2.9-7.3-2.3c-0.8,0.2-1.6,0.5-2.3,1c-0.6,0.5-1.5,1.2-1.7,2C59.5,60,60,60.6,60.5,60.3
				L60.5,60.3z"/>
		</g>
	</g>
</g>
</svg>
