<?xml version="1.0" encoding="utf-8"?>
<!-- Generator: Adobe Illustrator 24.0.1, SVG Export Plug-In . SVG Version: 6.00 Build 0)  -->
<svg version="1.1" id="Calque_1" xmlns="http://www.w3.org/2000/svg" xmlns:xlink="http://www.w3.org/1999/xlink" x="0px" y="0px"
	 viewBox="0 0 122 122" style="enable-background:new 0 0 122 122;" xml:space="preserve">
<style type="text/css">
	.st0{fill:#91D902;}
</style>
<g>
	<path d="M100.6,6.8c-0.7-4.4-4.8-7.4-9.3-6.8L14.7,11c-3,0.5-5.1,3.3-4.7,6.3l7.2,48.5c0.6,3.8,2,7.4,4.2,10.5
		c6.8,9.8,22.1,31.8,25.8,36.8c0.9,1.4,3.6,5.5,5.4,8.1c0.7,1,2.2,0.8,2.6-0.3c1.2-3.5,3.2-9.3,4.2-11.7c2.2-5.5,5.6-16.1,6.6-19.3
		c0.2-0.6,0.7-1,1.3-1.2l4.6-0.8L92.8,84l14.1-2.9c3-0.5,5.1-3.3,4.6-6.4C108.8,57.3,100.6,6.8,100.6,6.8"/>
</g>
<g>
	<g>
		<g>
			<path class="st0" d="M40,68.3c-0.1-4.3,0.4-8.7,0.5-13c0-3.9,0-7.8,0-11.7c0-3.9-0.2-7.7-0.1-11.6c-0.3,0.3-0.7,0.5-1,0.8
				c1.2,0.2,2.3-0.2,3.5-0.1c-0.3-0.3-0.5-0.5-0.8-0.8c0.2,6.8,0.1,13.7,0,20.5c0,3.4-0.1,6.7-0.1,10.1c0,1.3,0.1,2.6,0.2,4
				c0,0.8,0.2,1.2-0.6,1.3c-0.6,0-1.3-0.1-1.9-0.1c-1.1,0-1.1,1.7,0,1.7c1.2,0,2.7,0.5,3.7-0.5c0.9-1,0.5-2.7,0.4-3.9
				c-0.2-3.4,0-6.9,0.1-10.3c0.1-7.6,0.3-15.1,0-22.7c0-0.5-0.3-0.8-0.8-0.8c-1-0.1-2.1,0.3-3.1,0.1c-0.5-0.1-1,0.2-1,0.8
				c-0.1,3.8,0.1,7.5,0.1,11.3c0,4,0,8,0,12c0,4.3-0.6,8.7-0.4,13C38.5,69.3,40,69.3,40,68.3L40,68.3z"/>
		</g>
	</g>
	<g>
		<g>
			<path class="st0" d="M79.4,68.3c-0.1-4.3,0.4-8.7,0.5-13c0-3.9,0-7.8,0-11.7c0-3.9-0.2-7.7-0.1-11.6c-0.3,0.3-0.7,0.5-1,0.8
				c1.2,0.2,2.3-0.2,3.5-0.1c-0.3-0.3-0.5-0.5-0.8-0.8c0.2,6.8,0.1,13.7,0,20.5c0,3.4-0.1,6.7-0.1,10.1c0,1.3,0.1,2.6,0.2,4
				c0,0.8,0.2,1.2-0.6,1.3c-0.6,0-1.3-0.1-1.9-0.1c-1.1,0-1.1,1.7,0,1.7c1.2,0,2.7,0.5,3.7-0.5c0.9-1,0.5-2.7,0.4-3.9
				c-0.2-3.4,0-6.9,0.1-10.3c0.1-7.6,0.3-15.1,0-22.7c0-0.5-0.3-0.8-0.8-0.8c-1-0.1-2.1,0.3-3.1,0.1c-0.5-0.1-1,0.2-1,0.8
				c-0.1,3.8,0.1,7.5,0.1,11.3c0,4,0,8,0,12c0,4.3-0.6,8.7-0.4,13C77.9,69.3,79.4,69.3,79.4,68.3L79.4,68.3z"/>
		</g>
	</g>
	<g>
		<g>
			<path class="st0" d="M43.7,36.7c0.7,0,0.7-1.2,0-1.2C42.9,35.6,42.9,36.7,43.7,36.7L43.7,36.7z"/>
		</g>
	</g>
	<g>
		<g>
			<path class="st0" d="M43.7,36.8c1.5-0.2,3.1-0.1,4.6,0c1.6,0.1,3.1,0,4.7,0.1c3.3,0.1,6.6-0.2,9.9-0.2c3.2,0,6.5,0,9.7-0.2
				c1.2-0.1,2.4-0.1,3.6-0.1c0.6,0,2-0.3,2.5,0c0.9,0.5,1.7-0.9,0.8-1.4c-0.7-0.4-1.6-0.3-2.3-0.3c-1.1,0-2.1,0.1-3.2,0.1
				c-3.5,0.2-6.9,0.3-10.4,0.3c-3.4,0-6.8,0.4-10.1,0.3c-1.7,0-3.4,0-5.1,0c-1.6-0.1-3.2-0.1-4.8,0.1C42.7,35.6,42.9,36.9,43.7,36.8
				L43.7,36.8z"/>
		</g>
	</g>
	<g>
		<g>
			<path class="st0" d="M43.7,40.8c1.5-0.2,3.1-0.1,4.6,0c1.6,0.1,3.1,0,4.7,0.1c3.3,0.1,6.6-0.2,9.9-0.2c3.2,0,6.5,0,9.7-0.2
				c1.2-0.1,2.4-0.1,3.6-0.1c0.6,0,2-0.3,2.5,0c0.9,0.5,1.7-0.9,0.8-1.4c-0.7-0.4-1.6-0.3-2.3-0.3c-1.1,0-2.1,0.1-3.2,0.1
				C70.5,38.9,67,39,63.6,39c-3.4,0-6.8,0.4-10.1,0.3c-1.7,0-3.4,0-5.1,0c-1.6-0.1-3.2-0.1-4.8,0.1C42.7,39.5,42.9,40.8,43.7,40.8
				L43.7,40.8z"/>
		</g>
	</g>
	<g>
		<g>
			<path class="st0" d="M43.7,44.1c1.5-0.2,3.1-0.1,4.6,0c1.6,0.1,3.1,0,4.7,0.1c3.3,0.1,6.6-0.2,9.9-0.2c3.2,0,6.5,0,9.7-0.2
				c1.2-0.1,2.4-0.1,3.6-0.1c0.6,0,2-0.3,2.5,0c0.9,0.5,1.7-0.9,0.8-1.4c-0.7-0.4-1.6-0.3-2.3-0.3C76.1,41.9,75,42,74,42
				c-3.5,0.2-6.9,0.3-10.4,0.3c-3.4,0-6.8,0.4-10.1,0.3c-1.7,0-3.4,0-5.1,0c-1.6-0.1-3.2-0.1-4.8,0.1C42.7,42.8,42.9,44.2,43.7,44.1
				L43.7,44.1z"/>
		</g>
	</g>
	<g>
		<g>
			<path class="st0" d="M43.7,48.6c1.5-0.2,3.1-0.1,4.6,0c1.6,0.1,3.1,0,4.7,0.1c3.3,0.1,6.6-0.2,9.9-0.2c3.2,0,6.5,0,9.7-0.2
				c1.2-0.1,2.4-0.1,3.6-0.1c0.6,0,2-0.3,2.5,0c0.9,0.5,1.7-0.9,0.8-1.4c-0.7-0.4-1.6-0.3-2.3-0.3c-1.1,0-2.1,0.1-3.2,0.1
				c-3.5,0.2-6.9,0.3-10.4,0.3c-3.4,0-6.8,0.4-10.1,0.3c-1.7,0-3.4,0-5.1,0c-1.6-0.1-3.2-0.1-4.8,0.1C42.7,47.3,42.9,48.6,43.7,48.6
				L43.7,48.6z"/>
		</g>
	</g>
	<g>
		<g>
			<path class="st0" d="M48.1,36.1c-0.2,0.9-0.1,1.8-0.2,2.7c0,1,0,1.9,0,2.9c0,0.9,0,1.8,0,2.7c0,0.4,0,0.9,0,1.3
				c0,0.5-0.1,1,0.1,1.4c0.2,0.8,1.3,0.8,1.5,0c0.1-0.4,0.1-0.9,0.1-1.3c0-0.4,0-0.9,0-1.3c0-0.9,0-1.9,0-2.8c0-0.9,0-1.9-0.1-2.8
				c0-0.9,0-1.9-0.2-2.8C49.2,35.4,48.2,35.4,48.1,36.1L48.1,36.1z"/>
		</g>
	</g>
	<g>
		<g>
			<path class="st0" d="M52.5,36.7c-0.5,1.6,0,3.3-0.1,4.9c-0.1,1.8-0.1,3.5-0.1,5.3c0,1.1,1.7,1.1,1.7,0c0-1.7,0-3.4,0.1-5.2
				c0.1-1.6-0.1-3.2-0.3-4.8C53.7,36.2,52.7,35.9,52.5,36.7L52.5,36.7z"/>
		</g>
	</g>
	<g>
		<g>
			<path class="st0" d="M58.3,36.8C58,37.1,58.1,37.6,58,38c0,0.5,0,1,0,1.5c0,0.9,0,1.8,0,2.7c0.1,0.8,0.1,1.7,0.2,2.5
				c0,0.4,0,0.9,0,1.3c0,0.4-0.2,0.7-0.2,1.1c-0.1,0.9,0.9,1.4,1.5,0.6c0.4-0.7,0.5-1.7,0.5-2.5c0-0.9-0.1-1.8-0.2-2.8
				c-0.1-0.9,0-1.8-0.1-2.8c0-0.5-0.1-1-0.1-1.5c0-0.5,0-1-0.3-1.4C59,36.4,58.6,36.4,58.3,36.8L58.3,36.8z"/>
		</g>
	</g>
	<g>
		<g>
			<path class="st0" d="M62.8,36.4c-0.5,0.6-0.6,1.4-0.6,2.1c0,0.8,0,1.6,0,2.4c0,0.9,0,1.7,0.1,2.6c0,1,0.1,2-0.2,2.9
				c0.3-0.2,0.7-0.4,1-0.6c0,0,0,0-0.1,0c0.2,0.3,0.4,0.5,0.6,0.8c0-0.2,0-0.4-0.2-0.5c-0.4-0.5-1.2-0.5-1.4,0.2c0,0,0,0.1,0,0.1
				c-0.1,0.4,0.1,0.7,0.4,0.9c0,0,0,0,0.1,0c0.4,0.3,1.1,0,1.2-0.5c0.5-1.8,0.2-3.8,0.1-5.7c0-0.8-0.1-1.5-0.1-2.3
				c0-0.7,0.1-1.4,0.1-2.2C64,36.3,63.1,36,62.8,36.4L62.8,36.4z"/>
		</g>
	</g>
	<g>
		<g>
			<path class="st0" d="M68,36.4c-0.2,1.7-0.2,3.4-0.2,5.1c-0.1,1.7-0.2,3.4-0.2,5.1c0,1.1,1.7,1.1,1.7,0c0-1.7,0.1-3.4,0.2-5.1
				c0.1-1.7,0.2-3.5-0.2-5.1C69,35.8,68,35.7,68,36.4L68,36.4z"/>
		</g>
	</g>
	<g>
		<g>
			<path class="st0" d="M72.5,36.2c-0.6,0.4-0.7,1.3-0.7,1.9c-0.1,0.8,0,1.6,0,2.3c0,0.9,0,1.8,0,2.7c0,0.6,0,1.1-0.1,1.7
				c-0.1,0.5-0.3,1.1-0.2,1.6c0.1,0.6,0.9,0.7,1.3,0.3c0.4-0.3,0.5-1,0.5-1.5c0.1-0.5,0.1-1.1,0.1-1.7c0-1,0-1.9-0.1-2.9
				c0-0.7-0.1-1.4-0.1-2.1c0-0.4,0-0.7,0-1.1c0-0.1,0-0.3,0-0.3c0-0.1,0.1-0.6,0.1-0.3C73.5,36.4,73,35.9,72.5,36.2L72.5,36.2z"/>
		</g>
	</g>
	<g>
		<g>
			<path class="st0" d="M73.8,22.8c-0.4-0.3-0.9-0.3-1.4-0.4c-0.5,0-0.9,0-1.4,0.1c-0.9,0.2-1.7,0.8-2.1,1.7
				c-0.7,1.7-0.5,3.8,0.8,5.2c1.3,1.4,3.5,1.4,5,0.4c1.5-1,2.3-3,1.9-4.7c-0.5-2-2.8-3-4.7-2.6c-0.4,0.1-0.7,0.5-0.6,0.9
				c0.1,0.4,0.4,0.7,0.8,0.7c0.3,0,0.6,0,1,0c-0.2,0,0.2,0,0.2,0.1c0.2,0,0.4,0.1,0.5,0.2c-0.2-0.1,0.1,0,0.1,0
				c0.1,0,0.1,0.1,0.2,0.1c0,0,0.1,0.1,0.1,0.1c0,0,0.2,0.2,0.1,0c0.1,0.1,0.2,0.2,0.3,0.3c0.2,0.2-0.1-0.1,0,0.1
				c0,0.1,0.1,0.2,0.1,0.2c0,0,0.1,0.2,0,0c0,0.1,0.1,0.1,0.1,0.2c0,0.1,0,0.2,0.1,0.2c0-0.2,0,0.1,0,0.1c0,0.2,0,0.3,0,0.5
				c0,0,0,0.2,0,0.1c0,0.1,0,0.2-0.1,0.3c0,0.2-0.1,0.3-0.1,0.5c-0.1,0.2,0.1-0.1,0,0.1c0,0,0,0.1-0.1,0.1c-0.1,0.1-0.2,0.3-0.3,0.4
				c0.1-0.1-0.1,0.1-0.1,0.1c-0.1,0.1-0.1,0.2-0.2,0.2c-0.2,0.2-0.3,0.3-0.6,0.4c0,0-0.3,0.1-0.1,0.1c-0.1,0-0.2,0.1-0.3,0.1
				c-0.2,0.1-0.3,0.1-0.5,0.1c0.2,0-0.1,0-0.1,0c-0.1,0-0.2,0-0.3,0c0,0-0.3,0-0.1,0c-0.1,0-0.1,0-0.2,0c-0.1,0-0.2,0-0.2-0.1
				c0,0-0.3-0.1-0.1,0c-0.2-0.1-0.3-0.2-0.5-0.3c0.1,0.1,0,0,0,0c0,0-0.1-0.1-0.1-0.1c-0.1-0.1-0.1-0.1-0.2-0.2
				c0.1,0.1-0.1-0.1-0.1-0.1c-0.2-0.3-0.3-0.4-0.3-0.8c-0.1-0.5-0.2-1.2,0-1.7c0-0.2,0.1-0.3,0.1-0.5c-0.1,0.2,0-0.1,0.1-0.1
				c0.1-0.1,0.1-0.2,0.2-0.3c-0.1,0.1,0.1-0.1,0.1-0.1c0,0,0.1-0.1,0.1-0.1c-0.1,0,0,0,0,0c0.2-0.1,0.2-0.1,0.4-0.2
				c0.1,0,0.2,0,0.3-0.1c0.1,0,0.1,0,0,0c0.1,0,0.1,0,0.2,0c0.2,0,0.4,0,0.5,0c0.1,0,0.2,0,0.3,0c0.1,0,0.1,0,0,0c0.1,0,0.1,0,0.2,0
				c0.2,0,0.5,0.1,0.7,0C74.1,24.1,74.4,23.3,73.8,22.8L73.8,22.8z"/>
		</g>
	</g>
</g>
</svg>
