<?xml version="1.0" encoding="utf-8"?>
<!-- Generator: Adobe Illustrator 23.1.1, SVG Export Plug-In . SVG Version: 6.00 Build 0)  -->
<svg version="1.1" id="Calque_1" xmlns="http://www.w3.org/2000/svg" xmlns:xlink="http://www.w3.org/1999/xlink" x="0px" y="0px"
	 viewBox="0 0 258 248" style="enable-background:new 0 0 258 248;" xml:space="preserve">
<style type="text/css">
	.st0{clip-path:url(#SVGID_2_);fill:#91D900;}
</style>
<g>
	<defs>
		<rect id="SVGID_1_" x="0.5" y="0.3" width="257.6" height="247.6"/>
	</defs>
	<clipPath id="SVGID_2_">
		<use xlink:href="#SVGID_1_"  style="overflow:visible;"/>
	</clipPath>
	<path class="st0" d="M60.2,67.3c4.5-3.5,3.2-12.7,0.3-16.8c-3.2-4.5-9.5-6.2-14.8-6.4C33.6,43.6,25,52.4,27.1,64.4
		c0.2,1.2-1.5,2.1-2.1,0.9c-2.8-5.7-0.6-12.9,3.5-17.4c4.8-5.3,12.2-7.2,19.1-6.3c6.6,0.8,13.9,3.7,16.5,10.3
		c2,4.9,2.4,13.8-2.8,16.8C60.5,69.1,59.4,67.9,60.2,67.3"/>
	<path class="st0" d="M62.9,68c-2,3.8-10.4,5.9-10.4-0.1c0-6,4.1-13.1-3.2-16.6c-5.9-2.9-16.9,1.4-14.8,9.1c0.4,1.6-1.8,2.1-2.4,0.7
		c-3.6-8.8,8.2-14.5,15.5-13.1c3.5,0.7,6.7,2.8,8.1,6.1c1,2.3,0.9,4.8,0.5,7.3c-0.2,1.3-0.9,3-0.8,4.3c0.4,4.2,4.2,2.8,6.4,1.3
		C62.5,66.5,63.2,67.3,62.9,68"/>
	<path class="st0" d="M117,28.4c3.1,2.2,6.7,0.8,7.5-3.2c0.4-2.1,0-5.3-0.5-7.3c-1.8-6.5-8.1-9.2-14.3-9.5
		c-4.7-0.3-10.1,0.1-14.3,2.5c-2.6,1.5-4.7,3.7-5.6,6.6c-0.4,1.6-0.6,3.2-0.5,4.8c0.4,1.5,0,2.7-1.2,3.7c0.3-1.4,2.7-1.1,2.5,0.3
		c0,0.2,0,0.3-0.1,0.5c-0.1,0.5-0.4,1.1-1,1.3c-0.2,0-0.4,0.1-0.6,0.1c-0.6,0.1-1.1-0.1-1.5-0.6c-1.8-2.4-1-7.3-0.4-10
		c0.7-3.3,2.6-5.9,5.2-7.9c6.6-4.9,18.1-5.4,25.4-2.1c7.8,3.4,10.1,11.2,9.2,19.2c-0.7,6.4-6.7,7.8-11,3.1
		C115.2,29.1,116.1,27.8,117,28.4"/>
	<path class="st0" d="M115.4,28.5c0.5-5.8,1-10.6-5.9-12.4c-5.5-1.4-15.5,0-14.3,8c0.2,1.5-2,2.3-2.4,0.7C89.2,8.7,125.8,8.8,117,29
		C116.7,29.7,115.4,29.3,115.4,28.5"/>
	<path class="st0" d="M111.4,17.7c-8.8,4.9-18.4,8.6-27.3,13.4c-8.9,4.8-17.6,10-26.2,15.6c-1.5,1-2.9-1.4-1.4-2.4
		c8.7-5.8,17.7-11.2,27-16c8.6-4.6,17.7-9.6,27.1-12.3C111.7,15.5,112.3,17.1,111.4,17.7"/>
	<path class="st0" d="M50.2,52.4c-6.7,4.5-14,8.1-21,12.2c-3.1,1.8-6.2,3.6-9.2,5.6c-3.6,2.4-9,5.2-11.3,9c-0.1-0.5-0.1-1.1-0.2-1.6
		c-0.3,0-0.6,0-0.9,0c1.2-0.6,2.2,0.8,1.4,1.8c-0.1,0.1-0.1,0.2-0.2,0.3c-0.2,0.3-0.9,0.5-1.2,0.3c-0.1-0.1-0.2-0.1-0.4-0.2
		c-0.9-0.4-1.2-1.1-0.8-2c1.3-2.9,5.2-5.1,7.8-7c3.4-2.5,6.9-4.7,10.5-6.8c7.9-4.7,16.1-9.5,24.5-13.4
		C50.4,49.9,51.4,51.6,50.2,52.4"/>
	<path class="st0" d="M120.6,9.9c2.4-2,5.3-3.3,8.1-4.7c2.8-1.4,5.6-2.9,8.6-4c1.3-0.5,2.1,1.6,1,2.3c-2.8,1.6-5.9,2.9-8.8,4.3
		c-2.6,1.3-5.3,2.7-8.1,3.5C120.6,11.5,119.9,10.4,120.6,9.9"/>
	<path class="st0" d="M139,0.5c3.2,2.7,5.3,7.1,7.6,10.7c2.9,4.6,6.2,9.1,8.7,13.9c0.7,1.4-1.2,2.5-2.1,1.2
		c-5.8-7.6-10.8-16.3-15.7-24.6C136.7,0.7,138.1-0.2,139,0.5"/>
	<path class="st0" d="M154.1,26.6C134,42,109.7,50.8,88.7,65c-21,14.2-40.2,31.5-62.9,43.1c-1.5,0.8-2.9-1.5-1.4-2.3
		c22.2-12.7,41.6-29.1,62.8-43.3c21-14.1,45-23.2,65.4-38.2C154.1,23.2,155.4,25.5,154.1,26.6"/>
	<path class="st0" d="M23.6,107.2c-5.8-8.5-11-17.9-16.1-26.9c-0.8-1.5,1.3-2.7,2.2-1.3c3,4.8,5.9,9.7,8.8,14.5
		c2.5,4.1,5.4,8.2,6.9,12.9C25.8,107.6,24.2,108.1,23.6,107.2"/>
	<path class="st0" d="M26.4,107.8c-2.5,5.9-4.8,12.1-7.7,17.8c-0.6,1.3-2.5,0.4-2.2-0.9c1.4-6.1,4.7-12.7,7.8-18.1
		C25,105.1,27,106.3,26.4,107.8"/>
	<path class="st0" d="M19.3,126c-5,1.5-6.5-5-8.4-8.3c-1.8-3.3-4-6.4-5.9-9.7c-1.7-2.9-2.6-6.4-4.5-9.1l1.7,0.4c0,0-0.1,0.1-0.1,0.1
		c0.1-0.6,0.2-1.2,0.2-1.8c0,0,0,0.1,0.1,0.1c0.5,0.6,0.3,1.5-0.5,1.7c0,0-0.1,0-0.1,0c-0.6,0.2-1.2-0.2-1.4-0.8c0-0.1,0-0.1,0-0.2
		c-0.3-1,0.9-2,1.8-1.4c1.3,0.9,1.4,2.3,2.1,3.7c1.2,2.7,2.7,5.2,4.2,7.8c1.4,2.3,2.8,4.6,4.2,6.9c1,1.7,3.4,8.5,5.9,8.1
		C20.2,123.6,20.8,125.6,19.3,126"/>
	<path class="st0" d="M9.6,78.1C7.3,85,5.5,91.9,3.9,99c-0.4,1.7-3.1,1-2.7-0.7c1.6-6.8,2.5-15,6.5-20.9C8.3,76.4,9.9,76.9,9.6,78.1
		"/>
	<path class="st0" d="M152.6,26.9c2.3,1.4,4.5,2.6,6.9,3.6c1,0.4,1.4,1.8,0.3,2.4c-7,3.7-14.2,6.6-21.9,8.5c0.3-0.6,0.5-1.3,0.8-1.9
		c0.7,0.5,1.5,1,2.2,1.5c1.1,0.3,1.2,1.8,0.3,2.4c-3.2,2.1-6.8,3-10.5,4.1c-2.7,0.8-5.6,1.6-7.7,3.6c-1.6,1.5-2.5,3.7-3.7,5.5
		c-1.7,2.5-3.1,3.2-5.9,3.8c-4.5,1-5.5,2-8.4,4.7c-1.6,1.6-3.4,3-5.2,4.4c-3.6,2.6-7.5,4.7-11.7,6.3c-5.4,2.1-11,3.1-15.9,6.5
		c-5.3,3.7-10.1,8.3-15.1,12.4c-2.2,1.8-4.4,3.7-6.6,5.5c-2.5,2-6.4,4.3-7.1,7.7c-0.1,0.6-0.7,1-1.3,1c-4.7,0.1-8.9-1-12.9-3.4
		c-1.5-0.9-0.1-3.3,1.4-2.4c1.9,1.1,8,4.4,10.2,2.9c1.2-0.8,2.3-3,3.4-4c4.7-4.3,9.8-8.2,14.7-12.3c4.8-4,9.5-8.7,15-11.7
		c5.3-2.8,11.4-3.7,16.9-6.3c5.6-2.7,10-6.5,14.5-10.7c1.2-1.1,2.4-2.3,3.9-2.8c3.4-1.3,6.1-0.4,8.5-4c2.3-3.6,4.1-6.2,8.1-7.9
		c4.6-2,9.7-2.4,14-5.2l0.3,2.4c-1.8-0.5-2.7-1.2-3.7-2.7c-0.5-0.7,0-1.7,0.8-1.9c7.5-1.8,14.5-4.5,21.3-8.2
		c0.1,0.8,0.2,1.6,0.3,2.4c-2.8-1.1-5.2-2.5-7.5-4.5C150.3,27.8,151.5,26.3,152.6,26.9"/>
	<path class="st0" d="M159.6,32.6c2.3,1,4.6,2.1,6.9,3.2c0.8,0.4,0.8,1.8,0,2.2c-5.2,2.4-10.3,4.8-15.5,7.2
		c-2.2,1-16.8,6.1-14.8,9.6c0.4,0.7,0,1.7-0.8,1.9c-2.1,0.6-4.6,0.9-6.6,1.8c-2,0.9-1,0.6-2.1,2.2c-1,1.4-1.8,2.5-3.2,3.6
		c-6.4,4.7-14.2,8.3-21.1,12.3c-13.1,7.6-26.2,16.6-40.5,21.9c0.3-0.6,0.6-1.1,0.9-1.7c0.1,1.2,0.4,2.3,1,3.4c0.3,0.7,0.1,1.8-0.8,2
		c-5.7,0.8-8.5,3.9-12.4,7.7c-2.2,2.2-4.7,3.7-7.8,4.1c-5.7,0.8-11.4-1.9-14.2-6.9c-0.8-1.5,1.4-2.8,2.3-1.3
		c3.9,6.6,12.5,7.5,17.8,2.2c4.2-4.2,7.3-7.6,13.5-8.4c-0.3,0.7-0.5,1.3-0.8,2c-0.7-1.3-1.1-2.5-1.3-4c-0.1-0.8,0.2-1.4,0.9-1.7
		C72.4,91.7,82.5,84.9,92.8,79c5-2.9,10-5.8,15-8.7c2.8-1.6,5.6-3.2,8.4-4.8c2.6-1.5,8.8-3.7,8.3-7.5c-0.1-0.6,0.5-1.1,1-1.2
		c3.1-0.9,6.3-1.7,9.4-2.6L134,56c-2.9-5.1,3.4-7.4,7.1-9.1c8-3.7,16.1-7.5,24.1-11.2V38c-2.3-1.1-4.5-2.2-6.8-3.4
		C157.1,33.9,158.3,32,159.6,32.6"/>
	<path class="st0" d="M27.5,106.4c19.5,20.9,38.3,42.3,58.9,62.1c9.4,9.1,19,17.9,29.2,26c10.9,8.6,22.4,15.3,34.4,22.2
		c1.2,0.7,0.4,2.9-1,2.3c-11.8-4.8-22.7-12.7-32.7-20.4c-10.7-8.3-20.8-17.5-30.6-26.9c-21-20.1-41.9-41.2-59.7-64.3
		C25.5,106.7,26.9,105.7,27.5,106.4"/>
	<path class="st0" d="M149.2,215.9c7.5-9,16.4-16.7,26.1-23.1c5.3-3.5,10.1-6.9,14.4-11.8c3.8-4.4,7.7-8.6,12.3-12.2
		c9.2-7.3,19.2-13.2,27.8-21.3c9.3-8.7,17.1-18.8,26-27.8c1.2-1.3,3,0.6,1.9,1.9c-7.7,9.6-16.3,18.9-25.2,27.3
		c-8.8,8.3-19,14.4-28.5,21.9c-8.6,6.8-14.5,16.1-23.7,22.1c-10.9,7.1-20.6,15.1-29.5,24.6C149.8,218.6,148.3,217,149.2,215.9"/>
	<path class="st0" d="M255.5,120.5c-19.4-9.7-38-20.1-54.4-34.3c-15.5-13.4-29.1-29.3-39.4-47c-0.9-1.5,1.4-2.8,2.3-1.3
		c10.8,17.3,23.6,33,39.1,46.4c16.4,14.2,34.9,23.8,53.8,34C258.2,119.1,256.9,121.3,255.5,120.5"/>
	<path class="st0" d="M240.7,137.1c4.4,2.1,8.5,4.6,12.6,7.3c0.9,0.6,0.9,1.8,0,2.4c-19.9,13.9-39.8,27.9-59.5,42
		c-9.6,6.9-18.9,14.1-27.8,21.9c-8.4,7.4-16.5,15-25.5,21.6c-1.5,1.1-2.9-1.4-1.4-2.5c9.4-7.2,18-15.2,26.9-23
		c8.4-7.3,17.3-14,26.3-20.5c19.7-14.2,39.6-28.1,59.6-41.9v2.4c-4-2.7-8.2-5.1-12.4-7.5C238.1,138.4,239.3,136.4,240.7,137.1"/>
	<path class="st0" d="M137.8,231.4c-10.1-10-20-20.1-30.6-29.5c-10.5-9.3-21.1-18.2-30.8-28.4c-18.8-19.8-35.2-41.8-51.3-63.8
		c-1-1.4,1.3-2.7,2.3-1.4c16.5,22.2,32.9,44.6,52.2,64.5c9.3,9.7,19.5,18.2,29.5,27.1c10.6,9.4,20.8,19.4,30.5,29.7
		C140.8,230.8,139,232.6,137.8,231.4"/>
	<path class="st0" d="M23.8,114.7c10,9.8,17.6,22.8,25.8,34.1c8.7,11.9,18.1,23.2,28.3,33.8c19.5,20.1,41.2,37.8,62.8,55.6
		c1.4,1.1-0.6,3.1-2,2c-21.9-17.8-43.8-35.8-63.4-56.2c-9.5-9.9-18.4-20.3-26.5-31.4c-4.5-6.1-8.9-12.4-13.4-18.6
		c-4.3-6-9.4-11.8-13.1-18.2C21.8,114.9,23,114,23.8,114.7"/>
	<path class="st0" d="M138.6,238.4c8.2-10.4,19.8-18.4,30-26.8c4.7-3.8,9.2-8,14.2-11.3c5.3-3.6,11.4-5.6,16.5-9.5
		c4.7-3.6,8.8-7.9,13.4-11.8c4.7-4,9.9-7.2,14.6-11.1c8.1-6.8,14.8-15.2,25.1-18.9c-0.2,0.8-0.4,1.6-0.6,2.4c-0.8-0.7-1.7-1.4-2.5-2
		c-1.4-1.2,0.6-3.1,2-2c0.9,0.7,1.7,1.3,2.6,2c0.9,0.7,0.2,2.1-0.6,2.4c-10.8,4.1-17.7,13.6-26.6,20.4c-4.8,3.7-9.7,7-14.2,11
		c-3.9,3.5-7.7,7.3-12,10.4c-4.6,3.4-9.8,5.2-14.6,8.2c-6,3.7-11.2,8.7-16.7,13.1c-9.9,8.1-20.2,15.8-28.8,25.2
		C139.3,241.3,137.7,239.6,138.6,238.4"/>
	<path class="st0" d="M250.3,151.7c1.6,1.4,3.3,2.9,4.9,4.3c0.5,0.5,0.6,1.6,0,2c-38.3,31.5-79.8,58.8-118.7,89.5
		c-1.4,1.1-3.4-0.8-2-2c37.7-32.1,80.1-58.4,118.7-89.5v2c-1.6-1.5-3.2-3-4.8-4.5C247.2,152.4,249,150.7,250.3,151.7"/>
	<path class="st0" d="M134.3,247.4c-4.8-4.5-10.5-7.9-15.3-12.4c-5.4-5.1-10.8-10.4-16.1-15.6c-10.8-10.5-21.4-21-31.7-31.9
		c-10.4-11-20.4-22.3-29.8-34.1c-4.6-5.8-9.2-11.6-13.7-17.5c-2.3-3-4.6-6-7-9c-1-1.3-2.7-2.7-2.4-4.5c0.1-0.5,0.4-1.2,1-1.3
		c0.8-0.1,1.3-0.1,1.9,0.6c0.4,0.4,0.5,1.1,0.2,1.6c-0.1,0.1-0.1,0.1-0.2,0.2c-0.9,1.4-3.2,0.1-2.3-1.3c0.6-1,8.2,8.6,8.8,9.5
		c2.2,2.8,4.3,5.6,6.5,8.3c4.6,5.9,9.1,11.7,13.9,17.4c9,10.9,18.4,21.3,28.2,31.5c9.7,10.2,19.7,20.1,29.8,29.9
		c4.9,4.8,9.8,9.6,14.7,14.3c4.7,4.4,10.9,7.7,15.1,12.6C137,246.9,135.5,248.5,134.3,247.4"/>
	<path class="st0" d="M115.8,101.1c0.1,5.9-5.2,8.4-5.8,1.7c-0.1-1.7,0.3-3.8,0.4-5.5c0.2-2.6-0.1-4.9,1.5-7.1
		c2.9-3.9,6.7-0.5,9.4,1.9c5.5,5.1,12,8.9,17.6,13.9c11.9,10.8,21.4,23.7,31,36.4c1,1.3,3.3-0.4,2.3-1.7
		c-8-10.9-16.1-21.7-25.6-31.3c-4.5-4.6-9.4-8.9-14.6-12.8c-2.9-2.1-5.9-4.1-8.6-6.5c-1.7-1.6-3.1-3.6-5.3-4.5
		c-2.8-1.1-8-0.1-9.6,2.6c-1.2,2.1-0.6,6.7-0.8,9c-0.2,2.8-0.9,6.2-0.1,8.9c0.9,3,3.9,4.4,6.8,3.4c3.7-1.3,4.7-5.3,3.8-8.8
		C117.7,99.6,115.7,99.8,115.8,101.1"/>
	<path class="st0" d="M165.5,149.2c-6.7-9.6-14.6-18.3-22.8-26.6c-4.3-4.3-8.7-8.5-13.2-12.6c-3.4-3.1-7.7-8.7-12-10.3
		c-0.8-0.3-1.8,0.4-1.8,1.3c0,0.1,0,0.2,0,0.4c0,0.7,0.5,1.2,1.2,1.3c0.1,0,0.2,0,0.3,0c1,0.1,1.6-1.3,0.9-2c0.1,0.3,0.1,0.7,0.2,1
		c-0.5,0.2-1,0.4-1.6,0.6c2.4,0.9,4.7,4,6.6,5.7c2.1,1.9,4.3,3.9,6.4,5.8c4.2,3.9,8.4,7.9,12.4,12c7.7,7.8,14.6,16.2,21.5,24.7
		C164.4,151.7,166.3,150.3,165.5,149.2"/>
	<path class="st0" d="M163.3,149.6c-3.7,2.9-7.3,7.7-2.7,11.9c4.6,4.1,8.9-1.8,11.9-4.9c2.6-2.6,5.1-5.4,7.4-8.4
		c1.6-2.1,2.7-3.5,1.2-5.9c-3.7-5.9-6.7-5.7-10.7-0.9c-1.1,1.3,0.5,2.9,1.8,1.9c0.4-0.3,2.7-2.7,3.1-2.7c1.6-0.1,3.4,4.2,3.2,4.9
		c-0.4,2.2-5.3,6.3-6.8,7.9c-1.1,1.1-5.1,6.3-6.6,6.3c-1.3-1-2.6-2.1-3.8-3.1c0.6-1.6,1.6-3.1,2.8-4.3c0.3-0.6,0.5-1,0.8-1.7
		C165.2,149.6,164,149.1,163.3,149.6"/>
	<path class="st0" d="M160.9,157.4c1.6,1.5,3.3,2.4,5.4,3c1.3,0.4,2.3-1.6,1-2.2c-1.5-0.7-2.9-1.5-4.2-2.7c-0.4,0.7-0.8,1.3-1.2,2
		c1.9,0.4,3.7,0.8,5.6,1.2c1.3,0.3,2.3-1.5,1-2.2c-1.6-0.9-3.3-1.8-4.9-2.7c-0.3,0.7-0.6,1.5-1,2.2c2.7,0.5,5.4,1,8.1,1.5
		c1.6,0.3,2.2-1.7,0.7-2.4c-2.2-1-4.3-1.9-6.5-2.8c-0.2,0.8-0.5,1.6-0.7,2.4c2.5,0.7,4.9,1.1,7.4,1.4c0.8,0.1,1.4-0.8,1.2-1.6
		c-0.8-2.7-5.1-2.8-7.3-3.4c-0.1,0.8-0.2,1.6-0.4,2.4c2.8,0.2,5.6,0.4,8.4,0.7c1.5,0.1,1.7-2,0.4-2.4c-2.8-0.9-5.6-1.9-8.3-2.8
		c-0.1,0.8-0.2,1.6-0.4,2.4c3.3,0.4,6.6,0.8,9.9,1.2c1.4,0.2,1.7-2.1,0.4-2.5c-2.9-0.9-5.9-1.7-8.8-2.5c-0.1,0.8-0.2,1.6-0.4,2.4
		c2.8,0.1,5.6,0.4,8.4,0.8c1.5,0.2,2.3-2,0.7-2.4c-2.9-0.7-5.8-1.4-8.7-2.2c0,0.8,0,1.5,0,2.3c3.5-0.4,6.8,1.1,10.3,0.1
		c1.3-0.4,1.1-2.3-0.3-2.4c-2.5-0.2-5-0.6-7.4-1.2c-0.1,0.8-0.2,1.5-0.4,2.3c2.8,0.2,5.5,0.4,8.3,0.6c1.4,0.1,1.7-2.1,0.4-2.4
		c-2.2-0.5-4.3-1.1-6.2-2.3c-0.2,0.7-0.4,1.5-0.6,2.2c2.2-0.1,4.3,0,6.5,0.2c1.4,0.1,1.6-1.9,0.4-2.3c-1.3-0.5-2.6-1-4-1.5
		c0,0.8,0,1.5,0,2.3c1-0.2,1.9-0.2,2.9,0c1.5,0.2,1.5-2.2,0-2.4c-1.3-0.2-2.3-0.1-3.5,0.1c-1.3,0.2-1,1.9,0,2.3c1.3,0.5,2.6,1,4,1.5
		c0.1-0.8,0.2-1.6,0.4-2.3c-2.2-0.2-4.3-0.3-6.5-0.2c-1.2,0-1.6,1.5-0.6,2.2c2.1,1.4,4.4,2.1,6.8,2.6c0.1-0.8,0.2-1.6,0.4-2.4
		c-2.8-0.2-5.5-0.3-8.3-0.5c-1.3-0.1-1.6,1.9-0.4,2.3c2.7,0.7,5.3,1.2,8,1.4c-0.1-0.8-0.2-1.6-0.3-2.4c-3.4,0.9-6.8-0.5-10.3,0
		c-1.2,0.2-1.1,2,0,2.3c2.9,0.8,5.8,1.5,8.7,2.3c0.1-0.8,0.2-1.6,0.4-2.4c-2.9-0.4-5.8-0.7-8.7-0.8c-1.4,0-1.7,2-0.4,2.4
		c2.9,0.9,5.8,1.7,8.8,2.6c0.1-0.8,0.2-1.6,0.4-2.5c-3.3-0.4-6.6-0.7-9.9-1.1c-1.4-0.2-1.6,2-0.4,2.4c2.8,1,5.5,1.9,8.3,2.9
		c0.1-0.8,0.2-1.6,0.4-2.4c-2.8-0.2-5.6-0.4-8.4-0.6c-1.4-0.1-1.7,2-0.4,2.4c0.8,0.2,5.4,1,5.6,1.7c0.4-0.5,0.8-1,1.2-1.6
		c-2.3-0.2-4.5-0.6-6.8-1.2c-1.3-0.4-2.3,1.6-1,2.2c2.2,1,4.3,1.9,6.5,2.9c0.3-0.8,0.7-1.5,1-2.3c-2.7-0.5-5.4-0.9-8.1-1.4
		c-1.3-0.2-2.3,1.5-1,2.2c1.6,0.9,3.3,1.9,4.9,2.8c0.3-0.7,0.7-1.5,1-2.2c-1.9-0.4-3.7-0.7-5.6-1.1c-1.1-0.2-2.2,1.1-1.2,2
		c1.4,1.3,2.9,2.3,4.6,3.1c0.3-0.7,0.7-1.5,1-2.2c-1.8-0.5-3.3-1.2-4.8-2.3C161.3,155,160,156.5,160.9,157.4"/>
	<path class="st0" d="M163.9,148.3c2.3-0.3,4.4-0.7,6.5-1.6c0.8-0.3,1.2-1.9,0-2.1c-2.9-0.5-5.9-0.9-8.8-1.4
		c-0.1,0.7-0.2,1.5-0.3,2.2c3.4,0.2,6.8,0.1,10.2-0.3c1.1-0.1,1.7-2,0.3-2.2c-4.4-0.9-8.7-1.7-13.1-2.6c-0.1,0.7-0.2,1.5-0.3,2.2
		c3.6,0.2,7.2,0.4,10.9,0.5c1.3,0.1,1.6-2,0.3-2.3c-3.8-0.9-7.7-1.8-11.5-2.7c-0.1,0.7-0.2,1.5-0.3,2.2c3.2,0.2,6.3,0.4,9.5,0.6
		c0-0.8,0-1.5,0-2.3c-4.5-0.3-8.8-1.2-13-2.8c-0.1,0.8-0.2,1.5-0.3,2.3c3.7,0.1,7.3,0.4,10.9,0.8c1.3,0.1,1.6-2,0.4-2.3
		c-4-1.1-7.9-2.3-11.7-3.9c-0.1,0.8-0.2,1.5-0.3,2.3c3.7,0.2,7.4,0.6,11.1,1.2c1.3,0.2,1.7-2.1,0.4-2.3c-4.5-0.7-8.9-1.9-13.1-3.7
		c-0.1,0.8-0.2,1.5-0.4,2.3c3.4,0.4,6.9,0.8,10.3,1.2c1.3,0.2,1.6-2,0.4-2.3c-4.4-1.2-8.9-2.4-13.3-3.6c-0.1,0.8-0.2,1.5-0.3,2.3
		c4-0.1,8,0.2,11.9,0.9c1.5,0.3,2.2-1.8,0.7-2.3c-4.5-1.3-9.1-2.6-13.7-4c-0.1,0.8-0.2,1.5-0.4,2.3c3.7,0.4,7.3,0.9,11,1.3
		c1.3,0.2,1.7-2,0.4-2.3c-5-1.1-9.8-2.4-14.6-4.1c-0.1,0.8-0.2,1.5-0.3,2.3c3.9,0.4,7.8,0.8,11.7,1.2c1.3,0.1,1.7-2.1,0.4-2.3
		c-5.8-1.2-11.5-2.9-17-5c-0.1,0.8-0.2,1.5-0.3,2.3c4.4,0.6,8.8,0.8,13.2,0.6c1.3-0.1,1.7-2,0.4-2.3c-5.4-1.4-10.8-2.9-16.2-4.3
		c-0.1,0.8-0.2,1.5-0.4,2.3c4.1,0.3,8.3,0.7,12.4,1c1.4,0.1,1.7-2,0.4-2.4c-5.1-1.4-10.2-2.5-15.4-3.2c0,0.8,0,1.5,0,2.3
		c4.9,0.2,9.8,0.4,14.7,0.6c1.3,0.1,1.7-2,0.4-2.3c-5.7-1.1-11.4-2.1-17.1-3.2c-0.1,0.8-0.2,1.5-0.3,2.3c3.9,0.5,7.5,0.5,11.4,0
		c1.2-0.1,1.1-1.9,0-2.3c-4.4-1.3-8.9-2.3-13.4-3.3c-0.1,0.7-0.2,1.5-0.3,2.2c4.2,0.2,8.3,0.3,12.5,0.5c1.3,0,1.7-2,0.4-2.3
		c-4.6-0.9-9.3-1.9-13.9-2.8c-0.2,0.7-0.4,1.5-0.6,2.2c4.2,0.7,8.2,0.8,12.5,0.2c1.2-0.2,1.1-2,0-2.3c-6-1.5-12.1-2.3-18.3-2.3
		c0,0.8,0,1.5,0,2.3c3.6-0.1,7.2-0.1,10.8-0.2c1.3,0,1.7-1.9,0.4-2.3c-3.2-1-6.4-1.7-9.8-2.2c0,0.8,0,1.5,0,2.3
		c3.1,0.3,6.1,0.4,9.3,0.3c1.5,0,1.6-2.4,0-2.4c-3.1,0.1-6.2,0.1-9.3-0.2c-1.3-0.1-1.6,2-0.3,2.2c3.2,0.5,6.3,1.3,9.4,2.2
		c0.1-0.8,0.2-1.5,0.4-2.3c-3.6,0.1-7.2,0.2-10.8,0.3c-1.5,0-1.5,2.3,0,2.3c6,0,11.9,0.7,17.7,2.2c0-0.8,0-1.5,0-2.3
		c-3.8,0.6-7.4,0.5-11.2-0.2c-1.4-0.3-2.1,1.9-0.6,2.2c4.6,1,9.3,1.9,13.9,2.9c0.1-0.8,0.2-1.5,0.4-2.3c-4.2-0.1-8.3-0.3-12.5-0.4
		c-1.3,0-1.6,2-0.3,2.2c4.5,1,9,2.1,13.4,3.4c0-0.8,0-1.5,0-2.3c-3.6,0.5-7.1,0.4-10.7,0c-1.3-0.2-1.6,2-0.3,2.3
		c5.7,1.1,11.4,2.2,17.1,3.3c0.1-0.8,0.2-1.5,0.4-2.3c-4.9-0.2-9.8-0.3-14.7-0.5c-1.5-0.1-1.5,2.1,0,2.3c5,0.7,9.9,1.8,14.7,3.2
		c0.1-0.8,0.2-1.6,0.4-2.4c-4.1-0.3-8.3-0.6-12.4-0.9c-1.3-0.1-1.6,2-0.4,2.3c5.4,1.4,10.8,2.9,16.2,4.3c0.1-0.8,0.2-1.6,0.4-2.3
		c-4.5,0.2-8.8,0.1-13.3-0.6c-1.4-0.2-1.5,1.8-0.3,2.3c5.5,2.1,11.2,3.8,17,5l0.4-2.3c-3.9-0.4-7.8-0.7-11.7-1.1
		c-1.4-0.1-1.5,1.9-0.3,2.3c4.8,1.7,9.7,3,14.6,4.1c0.1-0.8,0.2-1.6,0.4-2.3c-3.7-0.4-7.3-0.8-11-1.3c-1.3-0.2-1.6,1.9-0.4,2.3
		c4.5,1.3,9.1,2.7,13.6,4c0.2-0.8,0.4-1.5,0.7-2.3c-4.2-0.8-8.3-1.1-12.6-1c-1.3,0-1.6,1.9-0.3,2.3c4.4,1.2,8.9,2.5,13.3,3.7
		c0.1-0.8,0.2-1.6,0.4-2.3c-3.4-0.4-6.9-0.8-10.3-1.2c-1.4-0.2-1.5,1.8-0.4,2.3c4.3,1.8,8.8,3.1,13.4,3.7c0-0.8,0-1.6,0-2.4
		c-3.7-0.5-7.4-0.9-11.1-1.1c-1.4-0.1-1.5,1.8-0.3,2.3c3.8,1.5,7.7,2.8,11.7,3.9c0.1-0.8,0.2-1.5,0.4-2.3c-3.6-0.4-7.3-0.6-10.9-0.8
		c-1.4,0-1.5,1.8-0.3,2.3c4.4,1.7,8.9,2.6,13.6,2.8c1.5,0.1,1.5-2.2,0-2.3c-3.2-0.2-6.3-0.4-9.5-0.6c-1.3-0.1-1.6,1.9-0.3,2.2
		c3.8,0.9,7.7,1.8,11.5,2.7c0.1-0.8,0.2-1.5,0.3-2.3c-3.6-0.2-7.2-0.3-10.9-0.5c-1.3-0.1-1.6,2-0.3,2.2c4.4,0.9,8.7,1.7,13.1,2.6
		c0-0.7,0-1.5,0-2.2c-3.3,0.4-6.6,0.5-9.9,0.3c-1.2-0.1-1.6,2-0.3,2.2c2.9,0.5,5.9,0.9,8.8,1.4c-0.1-0.7-0.1-1.3-0.2-2
		c-2.1,0.8-3.8,1.3-6,1.5C162.5,146.4,162.7,148.4,163.9,148.3"/>
	<path class="st0" d="M111.5,105.4c-0.1,0-0.1-0.1-0.2-0.1c-0.2,0.5-0.4,0.9-0.6,1.4c1.4-0.3,2.7-0.7,4.1-1.2
		c0.8-0.3,1.3-1.6,0.3-2.1c-1.9-0.8-3.7-1.7-5.6-2.5c-0.1,0.8-0.2,1.5-0.3,2.3c2.4,0.2,6.7,1.6,8.5-0.6c0.4-0.5,0.4-0.9,0.2-1.5
		c-1-2.5-5.8-2.9-8-3.7c-0.1,0.8-0.2,1.5-0.4,2.3c3.4,0.5,6.7,1,10.1,1.4c1.9,0.3,4.2,1.1,5.9-0.1c0.8-0.5,0.8-2-0.3-2.2
		c-4.2-1-8.3-2-12.5-3c-0.1,0.8-0.2,1.5-0.4,2.3c4.7,0.7,9.5,1.6,14.3,1.4c1.3-0.1,1.7-2,0.4-2.3c-2.7-0.7-5.4-1.3-8.1-1.7
		c-3.1-0.4-6.6,0-9.4-1.2c-0.1,0.8-0.2,1.6-0.4,2.3c4.5-0.2,9-0.2,13.5,0.1c1.4,0.1,1.6-1.9,0.4-2.4c-4.1-1.5-8.2-2.6-12.4-3.3
		c-0.1,0.8-0.2,1.6-0.4,2.3c4.2-0.1,8.4,0.1,12.6,0.5c1.3,0.1,1.7-2,0.4-2.4c-1.8-0.4-3.7-0.9-5.5-1.3c-1.4-0.3-4.1-0.5-5.1-1.6
		c-0.3,0.7-0.6,1.3-0.9,2c3.8,0.1,7.5,0.7,11.2,1.5c1.5,0.3,2.1-1.8,0.7-2.2c-3.9-1.1-7.8-1.6-11.8-1.7c-1,0-1.6,1.3-0.9,2
		c1.2,1.2,2.7,1.4,4.3,1.8c2.5,0.6,4.9,1.2,7.4,1.8c0.1-0.8,0.2-1.6,0.4-2.4c-4.2-0.4-8.4-0.5-12.6-0.4c-1.3,0-1.7,2.1-0.4,2.3
		c4.3,0.7,8.4,1.8,12.4,3.3c0.1-0.8,0.2-1.6,0.4-2.4c-4.5-0.2-9-0.2-13.5,0c-1.4,0.1-1.6,1.8-0.4,2.3c2.4,1,4.9,0.7,7.4,0.9
		c3.4,0.3,6.8,1,10.1,1.9c0.1-0.8,0.2-1.6,0.4-2.3c-4.8,0.2-9.5-0.7-14.3-1.3c-1.3-0.2-1.6,2-0.4,2.3c4.1,1,8.3,2,12.4,3.1
		c-0.1-0.7-0.2-1.5-0.3-2.2c-1.6,0.9-5.6-0.4-7.4-0.6c-2.5-0.3-4.9-0.7-7.4-1c-1.4-0.2-1.6,1.9-0.4,2.3c1.1,0.4,6.1,1.3,6.6,2.6
		c0.1-0.5,0.1-1,0.2-1.5c-0.9,1.1-5.4,0.1-6.8,0c-1.4-0.1-1.5,1.8-0.3,2.3c1.8,0.8,3.6,1.5,5.4,2.3c0-0.7,0-1.5,0-2.2
		c-1.4,0.5-2.9,1-4.2,1.6c-0.7,0.3-0.6,1.3,0,1.7c0.6,0.4,0.8,0.4,1.5,0.3C112.2,106.8,112.2,105.6,111.5,105.4"/>
	<path class="st0" d="M121.4,96.8c1.3,0.3,2.5,0.5,3.8,0.8c0.8,0.1,2.8,0.1,3.4,0.6c-0.2-0.4-0.3-0.8-0.5-1.2c0,0,0,0.1,0,0.1
		c0.3-0.2,0.5-0.5,0.8-0.7c0,0-0.1,0-0.1,0c0.4,0.2,0.8,0.3,1.1,0.5c0,0,0-0.1-0.1-0.1c-0.5-0.7-1.8-0.6-1.8,0.5c0,0,0,0.1,0,0.1
		c0,0.4,0.3,0.9,0.7,1c0.5,0.1,0.9,0,1.3-0.3c0.4-0.3,0.4-0.9,0.2-1.3c-0.5-1.1-2.1-1-3.1-1.1c-1.8-0.2-3.6-0.5-5.3-0.6
		C120.6,95,120.4,96.5,121.4,96.8"/>
</g>
</svg>
