<?xml version="1.0" encoding="utf-8"?>
<!-- Generator: Adobe Illustrator 23.1.1, SVG Export Plug-In . SVG Version: 6.00 Build 0)  -->
<svg version="1.1" id="Calque_1" xmlns="http://www.w3.org/2000/svg" xmlns:xlink="http://www.w3.org/1999/xlink" x="0px" y="0px"
	 viewBox="0 0 353 319" style="enable-background:new 0 0 353 319;" xml:space="preserve">
<style type="text/css">
	.st0{clip-path:url(#SVGID_2_);fill:#91D900;}
</style>
<g>
	<defs>
		<rect id="SVGID_1_" x="0.4" y="0.1" width="352.1" height="319.2"/>
	</defs>
	<clipPath id="SVGID_2_">
		<use xlink:href="#SVGID_1_"  style="overflow:visible;"/>
	</clipPath>
	<path class="st0" d="M237,251c-9.4,0.5-18.8,1-28.1,1.4c-8.4,0.4-16.8,0.6-25.1,2c-9.2,1.7-18,2.4-27.4,2.5c-0.2,0-0.4,0.1-0.5,0.2
		c-2.8-9.9-6.6-19.7-9.9-29.5c-3.9-11.2-7.3-22.9-12-33.7c-0.2-0.5-1.1-0.3-1,0.3c2.6,11,6.7,21.8,10.1,32.5
		c3.4,10.7,6.6,21.8,10.7,32.3c-6.6,3.5-12.5,8.2-18.6,12.4c-7.3,5-14.4,10.3-21.8,15c-15.5,9.7-32.1,18.2-46.1,30.2c0,0,0,0,0,0
		c-10.2-32.5-20.4-65-31.4-97.1c-5.5-15.9-11.2-31.8-17.4-47.5c-3.1-7.7-5.4-15.3-7.4-23.4c-1.8-7.5-4-14.3-7.5-21.2
		c6.8-4,13-8.8,19.3-13.5c6.6-4.8,13.8-8.5,20.6-13C58.9,91,73.5,79.7,89.5,70.3c3.2,12,7.7,23.6,11.9,35.3
		c4.6,12.7,8.9,25.6,14,38.1c0.3,0.8,1.4,0.3,1.1-0.5c-7.5-24.9-17.6-48.9-24.5-74c16.2-2.4,32.8-3,49.2-4.1c0,0.1-0.1,0.2-0.1,0.3
		c-0.2,2.1,1.6,4.7,3.5,5.5c1.4,0.6,2.3-1.3,1.3-2.2c-0.7-0.6-1.3-1.1-1.8-1.9c-0.2-0.4-0.3-1-0.5-1.4c0-0.1,0-0.2-0.1-0.3
		c0,0,0-0.1-0.1-0.1c0.1,0,0.2,0,0.3,0c17.3-1.2,34.9-1.1,52.1-3.2c5.6,18.2,12.8,36.1,19.4,54c0.3,0.7,1.3,0.2,1.1-0.5
		c-5.8-18.1-11.7-36.3-18-54.3c29.1-18.6,58.1-37.8,86.3-57.6c1.3,7.4,5,14.2,7,21.4c1.7,6.2,4.3,12,6.4,18
		c6,16.6,11,33.7,16.7,50.4c11.3,33.2,22.4,66.5,34.3,99.5c-14.4,8.9-28.8,17.7-43.1,26.8c-0.6-0.2-1.3-0.4-1.8-0.4
		c-0.5-0.1-1,0.2-1.2,0.7c-0.2,0.4-0.1,1,0.4,1.3c0,0,0.1,0,0.1,0.1c-13.3,8.5-26.8,17.1-39.2,26.8c-0.2,0-0.5,0-0.8,0.1
		c-0.3,0.1-0.5,0.2-0.8,0.3c-1.3-4.9-2.8-9.8-4.5-14.6c1.5-0.7,2.9-1.7,3.7-3c0.6-0.9-0.3-2.5-1.5-1.9c-1.1,0.7-2.1,1.5-3.2,2.1
		c-0.8-2.3-1.7-4.7-2.6-7c-1.4-3.7-2.7-7.4-4-11.1c0.1,0,0.1,0,0.2,0c0.2,0,0.3,0.1,0.5,0.1c0.9,0.2,1.4-0.6,1.4-1.3
		c0.2-0.1,0.3-0.3,0.5-0.4c1-0.8,2-1.7,2.9-2.6c1.2-1.1-0.3-3.2-1.6-2c-1,0.9-1.9,1.8-2.9,2.7c-0.4,0.4-0.7,0.7-1,1
		c-0.3,0-0.6-0.1-0.9-0.1c-1.3-4-2.5-8-3.6-12.1c-5.3-18.3-13.4-35.8-19.5-53.9c-0.2-0.6-1.3-0.3-1.1,0.3
		c4.2,18.1,12.8,34.9,18,52.6c1.3,4.3,2.4,8.6,3.7,12.9c-0.2,0-0.4,0-0.7,0c-1.1,0-1.3,1.8-0.3,2.1c0.5,0.2,1.1,0.3,1.7,0.4
		c1.1,3.7,2.3,7.3,3.7,10.9c1.1,2.9,2.2,5.8,3.2,8.7c-1.3,0.4-2.7,0.5-4.1,0.7c-1.3,0.1-1.2,2,0,2.2c1.5,0.2,3.2,0.1,4.9-0.3
		c1.6,4.9,3.2,9.7,4.6,14.7C252.9,251.4,244.1,250.6,237,251 M351.4,191.6c-10.3-32.9-22.4-65.2-33.5-97.8
		c-5.6-16.5-10.9-33-16.3-49.5c-2.2-6.7-5.3-13.2-7.1-20c-2.1-7.7-6.1-14.9-7.3-22.8c-0.1-0.7-0.6-1.1-1.2-1.1c-0.4-0.3-1-0.4-1.5,0
		c-29.6,19.2-59.2,38.8-88.2,58.9c-0.1,0-0.2-0.1-0.3-0.1c-17.1-0.4-34.6,1.7-51.7,2.8c-8.5,0.6-17.1,1.2-25.6,1.9
		c-9.1,0.7-18.4,0.9-27.3,2.6c-0.5,0.1-0.9,0.4-1,0.8c-0.4,0-0.7,0.1-1,0.4C73.8,77.1,59,87.2,44,97.4c-6.8,4.6-14.2,8.1-20.9,12.9
		c-7.3,5.2-14.2,11-22,15.6c-1,0.6-0.8,2.1,0,2.5c3.6,7.6,6.1,15.2,7.9,23.4c1.6,7.4,4.1,14.3,6.9,21.3
		c6.2,15.7,11.9,31.5,17.4,47.5C44.4,253,54.1,285.9,65,318.5c0.4,1.1,1.7,0.9,2.2,0.1c0.4,0.3,0.9,0.4,1.4,0
		c14.4-11.1,30.1-19.9,45.6-29.4c14.1-8.7,27.1-18.9,41.1-27.7c0.6,0.1,1.3-0.3,1.4-0.9c0.1-0.1,0.3-0.2,0.4-0.2
		c0.4-0.2,0.5-0.5,0.5-0.9c8.6,0.7,17.2-0.5,25.7-2c8.9-1.6,17.9-1.8,26.9-2.2c9.7-0.5,19.4-1,29.1-1.5c6.7-0.3,14.4,0.3,21.1-1.6
		c0.4,0.6,1.1,0.9,1.8,0.4c14.7-10.2,29.1-20.6,44.2-30.2c14.5-9.3,29.2-18.2,43.8-27.4c0.7,0.2,1.5-0.3,1.7-1
		C352.9,193.2,352.4,191.9,351.4,191.6"/>
	<path class="st0" d="M238.1,141c0.4-1.3,1.1-2.5,1.4-3.9c0.5-2.2,0.4-4.4-0.2-6.5c3.3-0.4,7.8-5.4,9.4-6.8c1.3-1.2,3.2-2.6,2.9-4.5
		c-0.1-1.1-0.6-1.8-1.3-2.1c2.2-4.2-1.6-7.6-5.7-9.1c1.9-2.2,2.9-5,4.6-7.5c1.4-2.2,4-5.3,3.9-8.1c-0.1-2.4-1.9-3.8-3.6-3.6
		c0.4-0.7,0.9-1.5,1-1.9c0.3-1.1,0.1-2.1-0.1-3.2c0.1,0,0.2-0.1,0.3-0.1c0.9-0.7,1-1.9,1.3-3c0,0,0-0.1,0-0.1
		c0.5,0.8,1.1,1.6,1.6,2.3c0.7,1,2.5,0,1.9-1.1c-0.8-1.3-1.6-2.7-2.4-4c0.9,0,1.7,0.3,2.5,0.7c1.5,0.7,2.4-1.6,1-2.3
		c-0.2-0.1-0.4-0.2-0.6-0.2c0.3,0.1,0.6,0.1,0.9,0.2c0.7,0.1,1.2-0.4,1.3-0.9c0.2,0.9,1.7,0.9,1.7-0.1c0.1-1.3,0.3-2.5,0.5-3.7
		c0.1,0,0.3-0.1,0.4-0.1c0.1,0.3,0.3,0.6,0.4,0.8c-0.5,2.2-1.2,4.5-1.5,6.8c-0.1,1,1.2,1.3,1.6,0.4c0.6-1.3,1-2.6,1.4-4
		c0,0.1,0.1,0.2,0.1,0.2c-0.5,2.2-1.3,4.1-1.9,6.2c-0.3,1,0.9,1.7,1.6,0.9c0.9-1.1,1.5-2.4,2-3.8c0.2,0.3,0.3,0.7,0.5,1
		c0,0.2,0,0.5,0.2,0.7c0.2,0.2,0.4,0.5,0.5,0.7c0.8,1.1,2.5,0,2-1.2c-0.6-1.3-1.2-2.6-1.8-4c1.8-0.2,3.5,0.1,5.4,0.1
		c0.9,0,1.6-1.2,0.7-1.8c-0.5-0.4-1.1-0.6-1.7-0.8c0.2-0.2,0.4-0.4,0.4-0.7c0.1,0.1,0.2,0.3,0.3,0.4c0.9,1.1,1.6,0.5,2.5,1.2
		c1.4,1.1,0.9,2.4,0.6,4.6c-0.1,0.7,0.5,1.4,1.2,1.2c5.3-1.2,9.2-4.6,10.7-10c0.2-0.8-0.5-1.8-1.4-1.4c-0.4,0.1-0.8,0.1-1.2,0.2
		c0.2-0.4,0.3-0.8,0.4-1.2c0.3-1.6-0.7-1.9-0.6-3.2c0.2-1.5-0.4-1.2,1.3-2.4c1.9-1.4,4.8-2,6.8-0.8c3.5,2,1.7,6.9,4.7,9.5
		c0.6,0.6,1.2,0.8,1.9,0.9c-0.3,1.2-0.3,2.3-0.1,3.6c-1.7,0.8-2.9,2.4-3,4.4c0,1,0.7,1.8,0.7,2.7c0.1,1.8-1.4,2.7-2.1,4.1
		c-0.5,1-0.9,1.7-1,2.8c-0.2,2.2,0.1,5.1,0.2,7.3c0,1,0.1,1.3,0.5,2.3c0.3,1.1,0.6-0.1,0.7,1.7c0.1,1.3-0.9,2.8-1.5,3.9
		c-0.2,0.4,0,1,0.3,1.2c2.9,2,0.3,3.9-0.5,6.4c-1,3.1-0.6,7-0.7,10.2c0,0.6,0.3,1.1,0.9,1.2c0.6,0.1,2-0.3,2.4-0.1
		c2.1,0.9,0.3,2.8,0.2,4.4c-0.3,2.9,1.2,5.5,3,7.6c0.5,0.6,1.3,0.5,1.7,0c0.5-0.5,0.9-1.1,1.4-1.6c1.9,1.5,3.7,3.1,4.4,5.7
		c0.2,0.7,0.8,1.2,1.5,0.8c0.9-0.4,1.6-0.9,2.3-1.5c0.8,1.3,1,2.7,0.3,4.2c-0.1,0.5,0.4,1.1,0.9,1.2c0.5,0,2.3-0.1,2.7,0.2
		c0.7,0.6,0,3.2-0.1,4.1c-0.3,2.1-0.5,3.9-0.2,6c0.1,0.6,0.6,1,1.2,0.9c-0.5,3.9-2.1,5.8-4.6,5.7c-0.2,0-0.4,0.1-0.6,0.2
		c-0.2,0.2-0.6,0.2-0.8,0.6c-1,2.1,0,2.5-2.9,4c-2,1-4,1.2-5.2,3.4c-1.3,2.3-0.1,3.7,0,5.8c-1.6-0.7-3.1-0.7-4.4,0.8
		c-1.2,1.4-0.9,4.3-2.7,5.4c-2.5,1.5-1.5-0.4-2.2-1.3c-1.5-2.1-3.5-4-5.8-5.5c0.2-0.7,0.4-1.5,0.6-2.2c0.4-1.5-2.2-2.2-2.6-0.7
		c-0.1,0.5-0.3,1-0.4,1.5c-0.8-0.4-1.7-0.6-2.6-0.3c-1,0.3-1.3,1.5-2,1.9c-1.6,0.8-0.5,0.1-1.1-1.1c-0.5-1.1-0.4-1.5-1.4-2.4
		c-1.4-1.2-4.3-2-6.1-1.4c-1.5,0.5-2.5,2.2-4.1,2.9c-2.7,1.2-0.7,0.3-2.6-0.8c-1.3-0.8-2.5-0.2-3.5,0.7c-0.9-1.3-1.8-2.7-3.3-3.2
		c-1.3-0.5-6.7,0.8-6.8,0.1c-0.2-0.6-0.6-1.2-1.3-1c-0.6,0.1-1.1,0.3-1.6,0.4c-1.1-4-0.7-7.8,1.1-11.6c0.2-0.5-0.1-1.1-0.6-1.3
		c-1.1-0.4,1.8-4.3,2.1-5.2c0.5-1.2,0.8-2.4,0.4-3.7c-0.9-2.8-4-3.7-6.5-4.1c-0.6-0.1-1.1,0.4-1.2,0.9c-0.2,1.3-3.8-0.6-4.1-1.4
		C237.3,141.9,237.8,142,238.1,141 M250.6,71.4c-0.4,0.1-0.7,0.2-1.1,0.3c-0.1-0.2-0.3-0.5-0.4-0.7C249.5,71.1,250,71.2,250.6,71.4
		 M249.9,79.6c0-0.3,0-0.7,0-1.1c0,0.1,0-0.7,0.1-1.5c0.2,0.3,0.3,0.6,0.5,0.9C250.2,78.4,250.1,79,249.9,79.6 M252.1,75.3
		c-0.1,0-0.2,0.1-0.4,0.1c-0.1-0.2-0.2-0.4-0.4-0.6c0.6,0.1,1.1,0.3,1.7,0.4C252.8,75.2,252.4,75.2,252.1,75.3 M257.1,73.2
		c0.4,0.2,0.8,0.2,1.1,0c0,0.3,0,0.6,0,1c-0.1-0.2-0.3-0.4-0.6-0.5c-1.3-0.4-2.6-0.7-3.9-1C254.5,71.8,254.6,71.7,257.1,73.2
		 M258.3,69.8c0.2-1.3,0.3-2.5,0.4-3.8c0.1,0.4,0.3,0.7,0.4,1.1c-0.2,0.9-0.4,1.8-0.6,2.6c-0.1,0.1-0.2,0.1-0.3,0.2
		C258.3,69.9,258.3,69.9,258.3,69.8 M256.2,59.6c0.2,0.7,0.5,1.4,0.7,2c0,0.1-0.1,0.2-0.1,0.2c-0.1,0.5-0.2,1-0.3,1.6c0,0,0,0,0,0
		C256.4,62.1,256.2,60.9,256.2,59.6 M267.8,71.1c0.6-0.1,1.2-0.3,1.7-0.5c0.2,0,0.5,0,0.7-0.1c0,0.4,0,0.9,0.1,1.3
		c0,0-0.1-0.1-0.1-0.1c-0.9-0.3-1.8-0.4-2.8-0.6C267.6,71.1,267.7,71.1,267.8,71.1 M264.8,73.5c0.3,0,0.6,0.1,0.9,0.1
		c-0.3,0-0.5,0.1-0.7,0.2C264.9,73.7,264.9,73.6,264.8,73.5 M243.6,146.1c1.6,0.9,3.5,3.3,3.6,4.6c0,0.6-1.3,2.3-1.6,2.8
		c-0.6,1.2-1,2.2-1.3,3.5c-0.1,0.4,0.2,0.9,0.6,1.1c0.1,0,0.2,0.1,0.3,0.1c-1.6,3.9-1.9,7.9-0.7,12c-0.8,0.5-0.2,2.1,0.8,1.9
		c0.7-0.1,1.3-0.2,2-0.4c0.4,0.7,1,1.2,2.1,1.4c0.8,0.2,1.4,0,2.2,0c1.7-0.9,3.5-0.7,5.2,0.8c0.5,0.7,1,1.4,1.5,2
		c0.5,0.6,1.4,0.6,1.9,0c0.5-0.3,1.1-0.6,1.6-0.9c0.1,0.6,0.5,0.9,1,1c2,0.5,3.9-0.7,5.5-1.7c1.6-0.9,3-2.7,5.2-1.3
		c3.3,2.2,0.4,1.9,1.3,3.6c1.8,3.6,3.9,0.6,6.8,0.2c0,0,0,0,0.1,0c-0.2,0.6-0.5,1.2-0.8,1.8c-0.2,0.4-0.5,1.4-0.9,1.8
		c-0.6,0-1.1,0.7-0.9,1.4c0.3,0.8,1,1.1,1.8,0.9c0.9-0.3,1.4-1.3,1.8-2c0.6-1.1,1.2-2.3,1.6-3.5c1.8,0.6,3.4,1.8,4.2,3.4
		c0.4,0.9,0,1.9,0.4,2.7c0.4,1.1,1.2,1.6,2.4,1.7c4.5,0.3,5.3-9.1,9-7c0.4,0.2,0.7,0.1,0.9-0.1c0.3-0.1,0.6-0.3,0.7-0.8
		c0.2-0.8,0-1.6,0.1-2.3c-0.5-1.2-0.1-2.3,1.2-3.4c0.4-2.4,1.9-3.6,4.3-3.4c0.8-0.3,1.5-0.3,2-1c0.4-0.5,0.2-1.2,0.5-1.7
		c0.6-0.9-0.1-0.9,1.2-1.6c0.6-0.3,1.5-0.3,2.2-0.7c2.6-1.4,5.2-8.3,1.6-9c-0.1-3.6,1.7-6.9,0.7-10.4c-0.1-0.3-0.5-0.6-0.8-0.6
		c-1-0.1-2-0.1-2.9-0.2c0.5-2.3,0.3-4.3-1.9-5.8c-0.5-0.3-1.1-0.2-1.5,0.2c-0.5,0.3-1,0.7-1.4,1c-1.1-2.6-3.1-4.4-5.5-6.2
		c-0.5-0.4-1.1-0.2-1.5,0.2c-0.4,0.5-0.8,0.9-1.2,1.4c-1.8-2.7-1.4-5-0.7-8.2c0.2-0.8,0.6-1.6,0.3-2.5c-1-2.5-3-1.1-4.9-1
		c0-2.9-0.4-6.7,0.7-9.2c0.8-1.7,3.2-3.1,3-5.2c-0.2-1.8-1.1-1.3-1.6-2.2c-0.5-0.9-0.6-0.1-0.5-1.6c0.1-0.9,1-1.8,1-2.8
		c0-0.9-0.3-1.3-0.5-2c-0.2-0.9-0.6-1.9-0.6-3.2c0,0.7-0.2-4-0.2-3.2c-0.6-1.4-0.4-2.6,0.7-3.8c0.2-1.3,0.8-2.4,1.8-3.1
		c0.2-0.4,0.4-0.9,0.6-1.4c1.1-2.5-6.5-3.6,1.2-6.9c0.4-0.2,0.6-0.5,0.6-0.9c0.1-0.2,0.1-0.4,0.1-0.6c-0.5-1.5-0.3-3,0.4-4.4
		c0.4-0.9-0.5-1.7-1.4-1.3c-1.7,0.7-3.3-5-3.5-5.8c-0.2-1-0.3-3.1-0.8-3.9c-0.3-0.4-0.3-0.6-0.7-0.9c-2-1.7-6.3-0.5-8.4,0.3
		c-1.5,0.6-4.8,1.6-5.4,3.4c-0.2,0.7,0,1.1,0,1.7c0,0.3,0.5,0.6,0.6,0.9c0.4,1.8,0.4,3.1-0.5,4.7c-0.3,0.6,0.2,1.4,0.8,1.5
		c0.7,0,1.3,0,1.9-0.1c-1.4,2.8-3.6,4.9-6.6,6.1c0.4-1.8,0.9-4.2-0.2-5.1c-0.5-0.4-0.9-0.3-1.3-0.6c-0.4,0-0.7,0.1-1.1,0.2
		c-2-0.9-2.4-2.2-1.1-3.9c0.4-1-0.8-1.8-1.6-1.2c-0.6,0.4-1.2,0.7-1.8,0.9c-2.6-0.2-4.9-0.7-6.9-2.2c1,0.4,2,0.8,2.9,0.9
		c1,0.2,1.6-1.3,0.8-1.9c-1.1-0.8-2.5-1.3-3.8-1.9c-0.5-0.3-1.1-0.5-1.6-0.8c0.8-0.1,1.4-1.2,0.6-1.8c-1.9-1.3-3.8-2.4-5.6-3.9
		c-0.6-0.6-1.6,0-1.7,0.7c-0.4,2.2-0.3,4.6,0.6,6.7c0.3,0.8,1.4,0.6,1.6,0c-0.3,2-0.5,4.1,0,5.9c0.1,0.5,0.7,0.8,1.1,0.7
		c-0.1,0.1-0.2,0.3-0.3,0.4c-1-0.6-1.9-1.1-2.9-1.7c-0.4-0.2-0.9-0.3-1.3,0c0,0,0,0.1-0.1,0.1c-0.9-0.5-1.8-0.8-2.8-1.1
		c-0.9-0.2-2.2-0.7-3.2-0.5c-0.3-0.5-0.9-1.3-1.4-2.1c1.1,0.7,2.2,1.4,3.4,1.9c1.1,0.5,2.2-1.3,1.1-1.9c-2.5-1.5-4.8-3-7-4.9
		c-0.6-0.5-1.4-0.2-1.7,0.4c0-0.1,0-0.3,0-0.4c0-0.4-0.1-0.6,0.3-0.7c0.3-0.1,1.1,0.3,1.3,0.4c1,0.4,1.9,0.8,2.9,1.1
		c1.4,0.4,2.2-1.5,0.9-2.1c-1.8-0.8-5.4-2.9-7.1-0.9c-0.8,0.9-0.6,2.1-0.6,3.2c0.1,1.7,0,3.5,0.3,5.1c0.2,1.1,1.8,1.1,1.9,0
		c0.1-1.1,0.1-2.3,0.1-3.5c0.3,2.5,0.5,5,1,7.5c0.2,0.9,1.6,1,1.7,0c0-1.2,0-2.4-0.1-3.5c0.4,0.8,0.8,1.5,1.3,2.3
		c-0.6,2.5-1.4,5.1-1.3,7.7c0,1,1.4,0.9,1.8,0.2c0.3-0.6,0.5-1.2,0.7-1.8c0.2,0,0.3,0,0.5-0.1c0.2,0.2,0.5,0.4,0.6,0.6
		c0,0,0,0,0,0.1c-0.5,1.7-1,3.3-1.5,5c-0.3,1.1,1.2,1.8,1.7,0.7c0.1-0.1,0.1-0.2,0.1-0.3c0.2,0.8,0.4,1.7,0.4,2.5c0,3.3-3,5.5-1,8.4
		c0.5,0.8,1.8,0.4,1.9-0.5c0.4,0.9,0.7,1.7,1.1,2.6c-0.5,0.8-0.9,1.6-1.4,2.4c-0.8,1.3-1.7,2.6-2.6,3.9c-1,1.5-3.8,6.4-4.5,7
		c-0.8,0.7-0.4,1.9,0.6,2c3,0.6,8.9,3.2,5.1,7.5c-0.6,0.7,0.1,1.9,1.1,1.8c0.1,1.6-0.5,2.8-1.9,3.5c-0.7,0.6-1.3,1.1-2,1.7
		c-0.6,0.5-5.6,5.5-6.5,3.2c-0.6-1.3-2.6-0.4-2,0.9c2.2,4.7,1.7,9.4-1.5,13.5c-0.4,0.5-0.2,1.2,0.2,1.6
		C236.7,145.2,242.2,150.1,243.6,146.1"/>
	<path class="st0" d="M275.2,136.5c0.1,0.2,0.3,0.4,0.6,0.5c2.3,0.8,4.7,1.5,7,2.3c-0.6,2.3-1.1,4.6-1.6,6.8c0,0.1-0.1,0.2-0.1,0.3
		c0,0.1,0,0.1,0,0.2c-0.2,0.8-0.4,1.7-0.6,2.5c-0.1,0.5,0,1,0.4,1.3c0.2,1.1,1,1.9,2.8,1.6c0.4-0.1,0.9-0.4,1-0.8
		c0.9-3.3,1.9-6.6,2.9-9.9c0.1,0.3,0.3,0.6,0.4,1c0.4,0.8,1.5,0.4,1.5-0.4c0-0.2,0-0.3,0-0.5c1.6,0.5,3.3,1.1,4.9,1.6
		c1.2,0.4,2.4-1,1.7-2c2.2-2.7-3.4-4.3-6.8-5.1c0.9-3,1.9-6,2.9-9c0.2-0.6,0-1.5-0.7-1.7c-0.4-0.1-0.8-0.2-1.2-0.2
		c-0.6-0.6-1.7-0.7-2.1,0.3c0,0.1,0,0.1-0.1,0.2c-1.1,0.7-1.8,2.1-2.4,3.7c-0.6,1.7-1.1,3.4-1.6,5.1c-2.4-0.8-4.9-1.7-7.2-1.9
		c-2-0.1-3,0.8-3.3,2.6C273.4,136.2,274.4,136.7,275.2,136.5"/>
	<path class="st0" d="M83.6,193.6c-1.3,2.3-2.4,4.7-3.7,6.9c-0.9,1.4,1.1,3,2.1,1.6c1.5-2.2,3.1-4.7,4-7.2
		C86.4,193.6,84.4,192.2,83.6,193.6"/>
	<path class="st0" d="M95.1,179.8c-1.4,0.9-2.6,2.6-3.6,3.9c-1,1.4-2.1,2.9-2.8,4.4c-0.5,1.2,1.1,2.1,1.9,1.1c1-1.3,1.9-2.7,3-4
		c1-1.3,2.4-2.4,3.2-3.7C97.7,180.3,96.3,179.1,95.1,179.8"/>
	<path class="st0" d="M110.7,169.4c-1.5,0.4-2.8,1.4-4.1,2.2c-1.4,0.9-2.9,1.6-4,2.8c-0.6,0.6,0.1,1.8,0.9,1.6
		c1.6-0.4,2.9-1.4,4.3-2.2c1.3-0.8,2.8-1.4,3.9-2.6C112.4,170.6,111.6,169.2,110.7,169.4"/>
	<path class="st0" d="M126.5,164.5c-1.2-0.2-2.4-0.5-3.6-0.6c-0.6-0.1-1,0.3-1.2,0.7c-0.1,0-0.2,0-0.3,0c-1,0.2-1.6,0.9-2.4,1.5
		c-0.8,0.5-1.6,0.9-2.4,1.4c-0.9,0.6-0.2,2.1,0.8,1.9c1-0.2,2-0.6,2.9-1.1c0.9-0.5,2-1,2.4-2c0,0,0,0,0,0c1,0.3,2.1,0.5,3.1,0.7
		c1.1,0.2,2.3,0.7,3.5,0.5c0.9-0.1,1.4-1.5,0.5-2C128.7,164.8,127.6,164.7,126.5,164.5"/>
	<path class="st0" d="M140.9,169.2c-0.9-0.3-1.9-0.7-2.7-1.2c-0.8-0.5-1.6-1.3-2.5-1.3c-0.5,0-1.1,0.4-1,1c0.2,1.1,1.3,1.8,2.2,2.3
		c1,0.6,2,1.2,3.1,1.6C141.4,172.1,142.4,169.7,140.9,169.2"/>
	<path class="st0" d="M148.3,175.6c1.1,0.5,2.7,1.2,3.8,0.4c0.5-0.3,0.6-1.1,0.2-1.6c-0.7-0.9-2-0.8-3-1.2c-1-0.4-1.8-1.2-2.9-1.4
		c-0.2,0-0.3,0-0.5,0c0.4-0.9,1.1-1.7,1.7-2.5c0.5-0.8-0.3-2.1-1.2-1.5c-1.2,0.7-2.1,1.7-2.7,2.8c-0.6,1.1-1.4,2.7-1.1,3.9
		c0.3,1.3,1.8,1.4,2.4,0.3c0.3-0.5,0.4-1,0.5-1.6C145.9,174.4,147.2,175.1,148.3,175.6"/>
	<path class="st0" d="M157,177.6c-0.9-0.8-1.9,0.5-1.4,1.4c1.6,2.4,3.9,4.1,6.6,5.2c1.6,0.6,2.6-1.9,1-2.5
		C160.8,180.9,158.8,179.4,157,177.6"/>
	<path class="st0" d="M173.5,194.9c1.4,0.8,3-1.1,1.6-2.1c-2.5-1.8-4.7-3.6-6.8-5.9c-0.9-1-2.5,0.2-1.7,1.3
		C168.4,190.8,170.7,193.3,173.5,194.9"/>
	<path class="st0" d="M185.6,201.6C185.6,201.6,185.6,201.6,185.6,201.6C185.6,201.6,185.6,201.6,185.6,201.6
		C185.6,201.6,185.6,201.6,185.6,201.6 M186.3,199.8c-0.1,0-0.2,0-0.3,0.1c0,0,0,0,0,0c-0.3-0.1-0.5-0.3-0.8-0.4
		c-0.5-0.2-0.9-0.5-1.4-0.7c-1-0.5-2-1-3.1-1.4c-1.1-0.4-2.1,1.1-1.1,1.9c1.5,1.1,3.3,1.9,5,2.8c1.2,0.6,3.1,1.2,3.4-0.7
		c0.1-0.4-0.1-1-0.5-1.2C187.1,199.8,186.8,199.7,186.3,199.8"/>
	<path class="st0" d="M201,202.6c-2.4,0.2-4.7,0-7.2-0.4c-1.2-0.2-1.8,1.7-0.6,2.1c2.6,0.9,5.4,1.2,8.1,0.9
		C203.1,205.1,202.7,202.4,201,202.6"/>
	<path class="st0" d="M217.2,202.2c0.5-0.5,0.6-1.6-0.3-1.9c-1.3-0.4-2.4,0.1-3.7,0.2c-1.4,0.1-2.8,0.1-4.2,0.1
		c-1.1,0-1.3,1.9-0.3,2.1c1.4,0.4,2.8,0.5,4.3,0.4C214.5,203.1,216.2,203.2,217.2,202.2"/>
	<path class="st0" d="M231.4,202.2c-2.3-0.9-4.9-1.6-7.3-2.2c-1.4-0.3-1.8,1.8-0.6,2.3c2.3,1,4.8,1.8,7.2,2.4
		C232.2,205.1,232.8,202.8,231.4,202.2"/>
	<path class="st0" d="M243,207.9c-1.3-0.5-2.6-0.8-3.9-1.2c-1.1-0.4-2.3-0.8-3.5-0.7c-0.9,0.1-1,1.2-0.4,1.7
		c0.9,0.8,2.1,1.1,3.2,1.5c1.2,0.4,2.4,0.9,3.6,1.3C243.7,211,244.7,208.5,243,207.9"/>
	<path class="st0" d="M267.7,200.1c0.5-1-0.7-1.9-1.6-1.5c-1.2,0.5-2.2,1.6-3.2,2.3c-1,0.7-2.3,1.3-3.1,2.3
		c-0.6,0.7,0.1,1.6,0.9,1.5c1.4-0.1,2.7-1,3.8-1.8C265.7,202.2,267,201.4,267.7,200.1"/>
	<path class="st0" d="M277.3,187.5c0.6-1.4-1.3-2.3-2.2-1.3c-0.9,1-1.5,2.1-2.3,3.1c-0.8,1-1.8,1.9-2.6,2.9
		c-0.9,1.1,0.6,2.4,1.7,1.7c1.1-0.8,2.1-1.9,3-2.9C275.8,190,276.8,188.8,277.3,187.5"/>
	<path class="st0" d="M286.6,157.4c-0.6,1.2-0.8,2.7-1.1,4.1c-0.3,1.4-0.4,2.7-0.4,4.1c0.1,0.9,1.6,1.1,1.9,0.2
		c0.4-1.2,0.6-2.5,0.9-3.8c0.3-1.3,0.8-2.7,1-4C289,156.6,287.2,156.2,286.6,157.4"/>
	<path class="st0" d="M288.5,144c-0.6,1.2-0.4,2.7-0.3,4c0.1,1.4,0.3,2.8,0.8,4.2c0.4,1.1,1.9,0.5,1.9-0.5c0-1.3-0.2-2.6-0.2-4
		c0-1.2,0.2-2.4-0.2-3.6C290.2,143.1,288.8,143.3,288.5,144"/>
	<path class="st0" d="M152.4,78.3c1.1,0.7,2.9-0.7,1.8-1.8c-0.8-0.9-1.8-1.6-2.6-2.5c-0.8-0.9-1.5-1.9-2.3-2.8
		c-0.8-0.9-2.3-0.1-1.8,1.1C148.2,74.6,150.3,77.1,152.4,78.3"/>
	<path class="st0" d="M159.5,83.8c0.9,0.7,2.2,1.8,3.4,1.3c0.6-0.3,0.8-0.9,0.6-1.5c-0.3-1-1.7-1.3-2.4-1.9
		c-0.8-0.6-1.4-1.4-2.3-1.9c-0.9-0.5-1.8,0.2-1.6,1.2C157.6,82.2,158.7,83.1,159.5,83.8"/>
	<path class="st0" d="M168.9,85.1c0,0.1,0,0.2,0,0.4C168.9,85.4,168.9,85.2,168.9,85.1 M168.9,87.7c0.8,0.4,1.6,0.7,2.5,1
		c0.9,0.3,1.9,0.8,2.7,0.3c0.5-0.3,0.9-0.8,0.6-1.4c-0.6-1.1-1.9-1.2-3-1.6c-0.5-0.2-1.1-0.4-1.6-0.6c-0.3-0.1-0.6-0.2-0.9-0.3
		c-0.4-0.2-0.4-0.2-0.3,0c-0.1-0.4-0.3-0.6-0.7-0.7c0,0-0.1,0-0.1,0c-0.4-0.1-0.7,0.1-0.9,0.4C165.8,86.1,167.9,87.2,168.9,87.7"/>
	<path class="st0" d="M180.6,93.1c0.9,0.6,1.7,1.2,2.5,1.8c1.4,1,2.8-1,1.6-2.1c-1.5-1.4-3.9-2.8-6-3c-1-0.1-1.5,1.2-0.7,1.8
		C178.8,92.1,179.8,92.6,180.6,93.1"/>
	<path class="st0" d="M192.3,103.7c-1.2-1.5-2.1-3.2-3-4.8c-0.5-0.8-2.1-0.6-1.8,0.5c0.6,2.2,1.6,4.1,2.8,5.9
		C191.2,106.7,193.3,105,192.3,103.7"/>
	<path class="st0" d="M192.1,118.2c0.5-2.3,0.8-4.6,1.1-7c0.1-1.1-1.7-1.7-2-0.5c-0.6,2.3-1.3,4.7-1.7,7.1
		C189.2,119.5,191.7,119.8,192.1,118.2"/>
	<path class="st0" d="M184.3,131.4c1.5-2.3,2.9-4.5,4.7-6.5c0.8-0.8-0.6-2.1-1.4-1.4c-2,1.8-4.1,3.8-5.5,6.2
		C181.2,131.2,183.3,132.9,184.3,131.4"/>
	<path class="st0" d="M169.7,140.8c-0.1,0.6,0.5,1.4,1.2,1.2c1.6-0.4,2.5-1.9,3.7-3c1.3-1.3,2.6-2.5,3.9-3.7c1-0.9-0.2-2.4-1.3-1.6
		c-1.6,1-3.1,2.2-4.5,3.4C171.6,138.1,170,139.2,169.7,140.8"/>
	<path class="st0" d="M163.7,149.3c1-1.4,2.1-2.9,3.4-4.1c0.8-0.8-0.2-2.2-1.1-1.5c-1.5,1.2-2.9,2.3-4.1,3.9c-1,1.2-2.6,3.2-2.6,4.8
		c0,0.9,1,1.7,1.8,1C162.3,152.5,162.8,150.6,163.7,149.3"/>
	<path class="st0" d="M156.4,160.1c1.2,0.1,1.5-1.7,0.3-1.9c-1.7-0.3-3.4,0.3-4.6,1.5c-0.6,0.5-1.1,1.2-1.6,1.9
		c-0.2,0.3-0.9,1.6-1.4,2.1c-0.1,0-0.3,0-0.4,0.1c-0.6,0.2-0.9,0.6-1,1.2c-0.2,0.7,0.5,1.3,1.1,1.5c1.6,0.4,2.5-1.3,3.2-2.4
		C153,162.4,154.2,160,156.4,160.1"/>
	<path class="st0" d="M145.5,181.8c0-1-1.6-1.2-1.9-0.2c-0.9,2.7-0.8,7.2,1.2,9.4c0.7,0.8,2.2,0.3,2-0.9c-0.2-1.4-0.9-2.7-1.1-4.1
		C145.5,184.6,145.5,183.2,145.5,181.8"/>
	<path class="st0" d="M152.8,200.5c-1.1-0.9-2-2.1-2.6-3.4c-0.5-1-2.4-0.6-2,0.6c0.5,1.8,1.3,3.3,2.6,4.6c1.1,1.1,3.1,2.6,4.7,2.3
		c0.8-0.2,1.4-1.2,0.7-1.9C155.4,201.6,153.9,201.3,152.8,200.5"/>
	<path class="st0" d="M167.6,209c-1.3-0.3-2.5-0.4-3.8-0.9c-1.2-0.4-2.3-0.9-3.4-1.5c-1.2-0.5-2.1,1.2-1.1,2c2.1,1.7,5.3,3,8,3
		C169,211.6,169.3,209.4,167.6,209"/>
	<path class="st0" d="M177.9,212.8c-1.6-0.4-3.2-0.6-4.8-0.5c-1.2,0.1-1.1,1.8,0,2c1.5,0.3,3,0.6,4.5,1.1c1.3,0.4,2.5,1.2,3.9,1.4
		c1.3,0.2,1.7-1.4,0.9-2.2C181.3,213.6,179.4,213.2,177.9,212.8"/>
	<path class="st0" d="M192,222.5c-1-0.7-2-1.5-3-2.2c-1-0.8-2.4,0.6-1.5,1.6c0.9,1,1.9,1.9,2.9,2.7c1,0.8,2.2,1.9,3.4,2
		c1.1,0.1,1.6-1,1.1-1.9C194.4,223.7,192.9,223.2,192,222.5"/>
	<path class="st0" d="M208.2,230.5c-1.1-0.5-2.5-0.4-3.7-0.7c-1.3-0.3-2.6-0.6-3.9-1.1c-1.4-0.5-2.1,1.4-0.8,2.1
		c1.3,0.7,2.6,1.2,4,1.5c1.3,0.3,2.9,0.8,4.2,0.4C208.9,232.5,209.3,231,208.2,230.5"/>
	<path class="st0" d="M230.3,232.5c-2-0.8-4.4-0.8-6.5-0.9c-2.2-0.1-4.5-0.2-6.6,0.2c-1.1,0.2-1.2,1.9,0,2.1
		c2.2,0.3,4.5,0.2,6.7,0.3c2,0.1,4.1,0.6,6.2,0.3C231.1,234.4,231.3,232.9,230.3,232.5"/>
	<path class="st0" d="M245.1,232.7c-1.3-0.2-2.6,0.4-3.9,0.7c-1.3,0.3-2.6,0.7-3.8,1.2c-1.2,0.4-0.6,2.3,0.6,2.1
		c1.4-0.2,2.8-0.5,4.1-0.9c1.2-0.3,2.5-0.4,3.5-1.2C246.4,234.1,246,232.9,245.1,232.7"/>
	<path class="st0" d="M273.8,221.1c-1.3,0.5-2.4,1.5-3.6,2.2c-1.1,0.7-2.4,1.2-3.4,2c-0.8,0.6-0.2,2,0.8,1.8c1.5-0.3,2.8-1,4.1-1.7
		c1.2-0.7,2.7-1.3,3.6-2.4C276,221.9,274.8,220.7,273.8,221.1"/>
	<path class="st0" d="M285.7,217.5c-2.2,0.4-4.4,0.8-6.5,1.2c-1.3,0.3-1,2.2,0.3,2.1c2.2-0.2,4.4-0.4,6.6-0.6
		C287.7,220,287.4,217.2,285.7,217.5"/>
	<path class="st0" d="M298.8,217.6c-2-0.2-4.1-0.4-6.1-0.2c-1,0.1-1.3,1.8-0.3,2.1c1.9,0.5,4,0.6,6,0.8
		C300.2,220.4,300.5,217.7,298.8,217.6"/>
	<path class="st0" d="M197.1,181.8c-4.8-1.8-5.1-9.5-4.4-14.3c1.5,0.4,3.1,0.5,4.6,0.5c-1,1.8-0.6,4.8,0.2,6.4
		c0.4,0.9,2,0.6,1.8-0.5c-0.2-1.1-0.4-2.1-0.3-3.2c0.1-0.9,0.4-1.8,0.4-2.7h0c1.8,0,3.6,0.2,5.5,0.1
		C204.1,172.8,203.4,184.2,197.1,181.8 M195.7,140.1c-0.3-0.6-0.4-1.3-0.3-1.9c0-0.5,0.1-1.1,0.1-1.6c1.5,0,3,0.1,4.4,0.2
		c0.5,0.1,1.1,0.1,1.7,0.2c0.1,0,0.2,0,0.3,0c0,0.3,0,0.6-0.1,0.8c0,0.4-0.2,2.2-0.2,2.2c0,0-1.9,0-2.2,0c-0.8,0-1.5,0.1-2.3,0.1
		C196.7,140.1,196.2,140.1,195.7,140.1 M207.2,165.7c-1.9-0.5-4-0.4-6.1-0.3c1.1-2.1,0.8-5,0.7-7.6c-0.1-3.6-0.1-7.2-0.2-10.7
		c0-0.5,0-1.1,0.1-1.7c0.1-0.9,0.2-1.7,0.3-2.6c0-0.1,0-0.2,0-0.3c0.8-0.2,1.4-0.5,1.8-1.1c0.5-0.9,0.4-2.2,0.5-3.3
		c0.2-1.6,0.5-3.3,0.3-4.9c-0.1-1-1.7-1.3-2.1-0.3c-0.1,0.3-0.2,0.5-0.2,0.8c-0.2-0.3-0.5-0.6-0.9-0.7c-1.4-0.3-3.9-0.6-5.4,0.1
		c0-1-1.6-1.5-2-0.4c-0.7,2.2-1.6,5.4-1.1,7.7c0.5,2.1,2.7,2.1,4.5,2.1c0.2,0,0.5,0,0.8,0c-1.4,2-1,5.8-1.2,7.9
		c-0.4,4.9-0.8,9.9-0.5,14.8c-1.4-0.1-2.7-0.1-4.1,0.1c-0.3-0.2-0.6-0.4-1-0.2c-2.9,1.6-1.9,7.8-1.4,10.7c0.6,3.5,2.3,7.1,5.8,8.4
		c9.7,3.8,10.5-10.9,11.5-16.6C208.3,167.2,208.2,165.9,207.2,165.7"/>
	<path class="st0" d="M123.5,112.4c0.3-0.1,0.7-0.1,1-0.2c0.5,0.6,1,1.1,1.6,1.5c-2,0-4.1-0.1-6.1-0.3c0.2-0.6,0.3-1.2,0.5-1.8
		c0.2-0.6,0.3-1.3,0.5-1.9c0.4,0.1,0.8,0.1,1.3,0.2c0,0.4-0.1,0.8-0.1,1.2C122,111.8,122.6,112.6,123.5,112.4 M136.8,96.3
		c0.5,2,1,4.1,1.5,6.1c0.3,1.1,0.6,2.2,0.8,3.3c0.4,1.8,0.7,1.4-1.1,1.6c-4.5,0.6-9,1.3-13.4,2.2c0.2-3.5,0.6-7,0.8-10.5
		c0-0.2,0-0.3-0.1-0.4C129.2,97.9,132.9,97,136.8,96.3 M127.8,111.9c-0.1-0.1-0.3-0.2-0.4-0.3c1.3-0.3,2.6-0.5,3.8-0.7
		c-0.1,0.9,0.1,1.8,0.2,2.6c-0.5,0-1,0.1-1.5,0.1C129.4,112.8,128.6,112.4,127.8,111.9 M150.5,114.3c-2,1.5-4,3.1-6,4.6
		c-4.1,3-11.7,4.3-16.5,2.4c-2.5-1-4.5-2.9-6.3-4.9c1.5,0.2,3.1,0.2,4.6,0.2c-0.5,0.4-0.7,1.1-0.4,1.7c0.3,0.7,1.2,1.1,1.9,0.7
		c0.7-0.3,1.1-0.7,1.3-1.4c0.1-0.4-0.1-0.7-0.4-1c0.7,0,1.3-0.1,2-0.1c-0.1,0.2-0.2,0.5-0.1,0.8c0.1,0.9,1.1,1.6,2,1.1
		c0.5-0.3,0.8-0.6,0.9-1.2c0-0.3,0-0.6-0.2-0.9c0.6-0.1,1.3-0.1,1.9-0.2c-0.1,0.3-0.2,0.5-0.1,0.8c0,0.9,1.2,1.4,1.9,1.1
		c0.8-0.4,1.1-1.4,0.5-2.2c0.1,0.2,0.1,0.3,0.2,0.5c-0.1-0.2-0.1-0.4-0.2-0.5c0.9-0.1,1.7-0.2,2.6-0.3c-0.1,0.3-0.2,0.7,0,1.1
		c0.3,0.8,1.5,1.2,2.2,0.6c0.4-0.4,0.6-0.9,0.5-1.5c0-0.1-0.1-0.3-0.2-0.4C145.2,115.1,147.9,114.8,150.5,114.3 M132.9,87.8
		c0.4,0.8,0.7,1.6,1.1,2.5c0.1,0.2,1,2.1,1.1,1.8c0,0.1-1.9,0.3-2.1,0.3c-1.4,0.2-2.7,0.4-4.1,0.6c0.2-2.1,0.6-4.2,0.4-6.3
		c0-0.2-0.1-0.3-0.2-0.4c0.3-0.1,0.7-0.1,1-0.2c0.5-0.1,1.6-0.5,2-0.2C132.3,86.1,132.8,87.5,132.9,87.8 M117.2,115.5
		c0.2,0,0.3,0.1,0.5,0.1c3.7,4.6,7.4,7.7,12.4,8.7c-1,0-0.9-0.2-2.3-0.4c-3.3-0.5-5.4-0.4-8.3,1.3c-1,0.6,0,2.3,1.1,1.8
		c3.6-1.8,5.6-0.6,9,0c1.2,0.2,1.9,0.6,3.1,0.3c1.1-0.3,1.5-1,2.4-1.4c2.7-1.4,3.8-0.8,6.5-0.4c2.7,0.4,3-1.3,5.2-2.1
		c2.5-0.9,5.6,0.8,8.4-0.1c1.2-0.4,0.6-2.4-0.6-2.1c-2.8,0.7-5.4-1.3-8.1-0.4c-1.5,0.5-2.3,1.6-3.8,2c2-0.9,3.8-2.2,5.8-3.9
		c2.9-2.5,6-4.8,9.2-6.8c2.1-0.9,4.1-2,6-3.5c1.2-0.9,0-3.1-1.4-2.4c-1.6,0.9-3.2,1.8-4.7,2.8c-5.2,2.4-11.1,3-16.9,3.5
		c-1.9,0.2-3.8,0.4-5.7,0.5c0-0.5-0.1-1-0.1-1.5c0-0.4,0-0.9,0-1.3c2-0.1,4.8,0,6.2-1.1c1.2-1,0.7-2.4,0.4-3.7
		c-0.8-3.6-1.8-7.1-2.7-10.7c-0.1-0.6-0.7-1.1-1.3-1c-0.3,0-0.5,0.1-0.8,0.1c1-0.9,0.4-2.5-0.1-3.7c-0.6-1.3-1.2-2.7-1.8-4
		c-0.4-0.8-0.7-2-1.5-2.5c-0.7-0.4-1.5-0.3-2.2-0.2c0-0.2-0.1-0.3-0.1-0.5c0-0.8-0.2-1.7-0.4-2.3c-0.3-1.5-2.4-1.2-2.3,0.3
		c0.1,0.8,0.1,2,0.5,2.8c-0.6,0.1-1.3,0.2-1.9,0.4c-1.3,0.4-0.6,2.2,0.6,2.2c0.1,0,0.1,0,0.2,0c0,0,0,0,0,0
		c-0.8,2.5-0.7,5.1-1.3,7.7c-0.2,0.8,0.6,1.4,1.3,1.3c0.5-0.1,0.9-0.1,1.4-0.2c-2.4,0.5-4.8,1.1-7.1,1.8c-1.3,0.4-0.7,2.6,0.7,2.3
		c0.2-0.1,0.4-0.1,0.7-0.2c-0.5,2.6-0.8,5.2-1,7.9c-0.7,0-1.4-0.2-2.1-0.2c-0.7,0-1.2,0.4-1.4,1c-0.2,1-0.4,2.1-0.6,3.1
		c-0.1,0.4-0.2,0.8-0.3,1.3c-0.7,0-1.4,0.7-1.4,1.5C116.3,114.5,116.4,115.3,117.2,115.5"/>
	<path class="st0" d="M148.9,98.2c1.3,1.1,4.4,3,5.1,4.5c1.1,2.7-3.6,3.9-6.2,4.5c-1.3-4.9-2.9-9.6-5.1-14.1
		C144.8,94.8,146.9,96.4,148.9,98.2 M139.1,90.4c2.7,5.9,5.3,12,6.7,18.4c0.1,0.6,0.7,1.1,1.4,1c2.8-0.4,12.7-2.7,10.4-7.2
		c-1.4-2.6-5.3-5-7.6-6.9c-3.5-2.9-7.1-5.7-10.8-8.3c-1.3-0.9-2.7,1-1.4,1.9C138.2,89.6,138.6,90,139.1,90.4"/>
	<path class="st0" d="M266.1,57.2c0.2-0.5,0.4-1,0.6-1.6c0.1,0.2,0.2,0.4,0.3,0.6C266.7,56.5,266.4,56.8,266.1,57.2 M265.3,52.3
		c0,0.1,0.1,0.2,0.1,0.3c-0.1,0.3-0.3,0.6-0.4,0.8C265.2,53.1,265.2,52.7,265.3,52.3 M263.2,52c-0.1,1.1-0.3,2.2-0.3,3.3
		c0,0.7,0.7,1.1,1.2,0.9c-0.1,0.5-0.3,1-0.3,1.6c-0.1,1,1.2,1.5,1.8,0.8c-0.2,0.6-0.2,1.3-0.1,2c0.2,1.2,1.9,0.9,1.9-0.3
		c0-0.8,0.2-1.4,0.6-1.9c0.6,1.8,1.3,3.6,2.3,5.1c0.4,0.6,1.2,0.1,1.2-0.5c-0.2-1.7-0.7-3.6-1.3-5.4c0.6,0.1,1.3,0.4,1.7,1
		c0.9,1.1,2.4-0.2,1.7-1.3c-0.2-0.4-0.6-0.7-0.9-1c0.9-0.1,1.3-1.3,0.6-1.9c-1.5-1.3-3.9-2-5.8-2.7c-0.1-0.3-0.3-0.6-0.4-0.9
		c0.2,0.1,0.4,0.2,0.6,0.3c1,0.5,1.9,1.1,3.1,1.2c0.8,0.1,1.5-0.9,0.9-1.6c-1.4-1.6-3.9-2.4-5.9-3c-0.1-0.4-0.3-0.7-0.4-1.1
		c0.5,0.3,1.1,0.6,1.7,1c1,0.7,2.6-0.6,1.6-1.6c-1.5-1.6-3.7-2.4-5.8-2.6c-0.8-0.1-1.3,0.6-1.3,1.3c0,2.2,0.1,4.6,0.7,6.7
		C262.2,51.9,262.7,52.1,263.2,52"/>
	<path class="st0" d="M66.6,193.3c-0.6-1.1-1.1-2.2-1.7-3.4c0,0,0,0,0,0c0.3-0.1,0.5-0.3,0.6-0.6c1-1.9,2.4-3.3,3.6-5
		c1.1-1.4,0.4-1.6,1.3-0.4c0.6,0.7,0.9,1.8,1.3,2.7c0.1,0.3,0.2,0.5,0.4,0.8c-1.2,1-2.3,2.3-3.3,3.5
		C68.1,191.6,67.2,192.4,66.6,193.3 M78.8,180.3c-0.3,0.9-0.6,1.9-1,2.8c-0.3,0.6-2.1,5.1-2.3,5.1c-0.4-0.1-1.3-2.1-1.7-3.2
		C75.7,183.9,77.1,181.9,78.8,180.3 M73,189.3c0.6,1,1.3,1.9,2.4,2.2c0.4,0.1,0.9-0.2,1.1-0.5c1.6-1.9,2.4-4.8,3.4-7
		c0.9-2.1,1.5-4.1,1.5-6.4c0-0.7-1-1.2-1.6-0.9c-1.4,0.8-2.7,1.6-3.9,2.7c-1.1,1-2,2.5-3.2,3.4c-0.3-0.7-0.6-1.3-1-1.8
		c-3-3.1-7.7,5.5-8.7,7.3c-0.2,0.4-0.2,0.8,0,1c-0.4,0.2-0.7,0.6-0.6,1.2c0.3,1.5,0.7,2.4,1.5,3.2c3.6,7.9,6.7,16,10.3,23.8
		c0.6,1.4,2.5,0.5,2.1-0.9c-0.2-0.7-0.5-1.5-0.7-2.2c0,0,0-0.1,0.1-0.1c0.4-1.3,0.9-2.5,1.4-3.8c0.5-1.1,1.4-2.3,1.6-3.6
		c0.1-1.1-1.1-1.7-2-1.1c-1.1,0.8-1.6,2.4-2.2,3.6c-0.1,0.3-0.2,0.6-0.3,0.8c-1.9-5-4.1-9.9-6.5-14.7c1.1-0.9,1.9-2.1,2.8-3.2
		C71.4,191.5,72.3,190.5,73,189.3"/>
</g>
</svg>
