<?xml version="1.0" encoding="utf-8"?>
<!-- Generator: Adobe Illustrator 23.1.1, SVG Export Plug-In . SVG Version: 6.00 Build 0)  -->
<svg version="1.1" id="Calque_1" xmlns="http://www.w3.org/2000/svg" xmlns:xlink="http://www.w3.org/1999/xlink" x="0px" y="0px"
	 viewBox="0 0 274 182" style="enable-background:new 0 0 274 182;" xml:space="preserve">
<style type="text/css">
	.st0{clip-path:url(#SVGID_2_);fill:#91D900;}
</style>
<g>
	<defs>
		<rect id="SVGID_1_" x="-0.4" y="-0.1" width="273.4" height="182.2"/>
	</defs>
	<clipPath id="SVGID_2_">
		<use xlink:href="#SVGID_1_"  style="overflow:visible;"/>
	</clipPath>
	<path class="st0" d="M148.6,90.3c0.7-0.7-0.3-1.7-1.1-1.1c-9.2,7.2-17.1,16.3-24.7,25.2c-7.3,8.5-15.3,17.1-21.3,26.6
		c0,0,0,0,0,0.1c-0.2,0.2-0.3,0.4-0.2,0.7c0.3,1.5,1,3,1.6,4.5c0.6,1.4,1.3,2.9,2.2,4.2c0.5,0.7,1.6-0.1,1.4-0.8
		c-0.4-1.4-1.2-2.7-1.8-4.1c-0.6-1.3-1.1-2.7-1.8-3.9c7.4-8.7,14.4-17.8,21.9-26.5C132.3,106.3,140.5,98.4,148.6,90.3"/>
	<path class="st0" d="M192.6,80.8c-0.3,0-0.7,0.2-0.9,0.4c-0.2-0.7-0.4-1.5-0.6-2.2C191.7,79.5,192.1,80.1,192.6,80.8 M192.7,85
		c1.6,4.5,2.8,9.2,3.5,13.9C195,94.2,193.9,89.6,192.7,85 M198,119.7c-0.3-3.1-0.7-6.1-1.1-9.2c0.2,0.6,0.3,1.2,0.5,1.8
		c0.2,0.7,0.9,0.9,1.4,0.7c-0.1,1.1-0.1,2.2-0.2,3.2C198.4,117.5,198.2,118.6,198,119.7 M195.5,127.5c-0.9-5.7-1.8-11.3-2.8-17
		c1.2,5.1,2.3,10.2,3.5,15.2C196,126.3,195.7,126.9,195.5,127.5 M174.6,154.8c-0.1-11.8-1.8-23.5-3.8-35.1
		c2.1,10.7,3.9,21.4,5.6,32.1c0,0.3,0.2,0.5,0.4,0.6c-0.2,0.2-0.4,0.5-0.6,0.7C175.7,153.7,175.1,154.2,174.6,154.8 M152.2,170
		c-0.7-10.8-1.5-21.6-2.4-32.4c1.5,10.7,3,21.5,4.4,32.2C153.5,170,152.9,170,152.2,170 M140,163.6c0.4-0.2,0.7-0.5,0.7-1
		c-0.2-13.3-0.6-26.7-0.9-40c1.5,9.9,2.6,19.8,3.6,29.8c0.4,4.9,0.9,9.9,1.3,14.8c0,0.1,0.1,0.2,0.1,0.3
		C143.1,166.5,141.5,165.2,140,163.6 M134.2,156.5c0.6,0.3,1.6,0,1.6-0.9c-0.5-7.6-1-15.2-1.2-22.7c1.1,9.7,2.4,19.4,3.8,29.1
		C136.9,160.3,135.5,158.4,134.2,156.5 M126.5,126.8c-0.2,5.8,0,11.7,0.6,17.5c-0.7-1.4-1.4-2.7-2-3.8
		C124.7,135.6,125.1,131,126.5,126.8 M129.4,147c-0.1-6.8-0.2-13.5,0.5-20.3c1.3,9.7,2.6,19.4,3.9,29.1c-1.8-2.7-3.4-5.4-4.8-8
		C129.2,147.7,129.4,147.4,129.4,147 M128.5,121.9c0-0.1,0.1-0.1,0.1-0.2c0,0.2-0.1,0.5-0.1,0.7
		C128.5,122.3,128.5,122.1,128.5,121.9 M132.7,115.3c-0.2,5.6-0.2,11.2-0.1,16.9c-0.6-4.3-1.2-8.6-1.8-12.9c0-0.3-0.3-0.5-0.5-0.6
		C131,117.6,131.8,116.5,132.7,115.3 M134.7,112.9c0.8-1,1.7-2,2.6-2.9c0.2,11.2,0.5,22.4,0.8,33.6c-1.3-10.1-2.5-20.2-3.3-30.3
		C134.8,113.2,134.8,113,134.7,112.9 M141.3,105.8c0,4.6,0,9.3,0.1,13.9c-0.6-3.8-1.3-7.6-2-11.4c0-0.2-0.1-0.3-0.2-0.4
		C139.9,107.2,140.6,106.5,141.3,105.8 M156.4,92.1c1.4,8.3,2.8,16.6,4.3,24.9c0.2,3.6,0.4,7.2,0.7,10.6c0.2,2.5,0.4,5,0.7,7.6
		c-2.5-13.3-5.4-26.5-8.6-39.7c-0.1-0.3-0.2-0.5-0.4-0.6c0,0,0,0,0,0C154.1,94,155.2,93.1,156.4,92.1 M176.6,78.7
		c0.9,6.5,1.7,13,2.6,19.5c-1.7-6.1-3.4-12.2-5.1-18.3c0.7-0.4,1.4-0.7,2.1-1.1C176.3,78.9,176.4,78.8,176.6,78.7 M192.5,132.9
		c-1.7-8.6-3.4-17.2-5.1-25.8c2,7.2,3.9,14.4,5.9,21.5c0.2,0.6,0.7,0.9,1.2,0.8C193.9,130.7,193.2,131.8,192.5,132.9 M178.7,150.4
		c0.5-10.9-1.8-22-3.3-32.7c2.1,9.6,4.3,19.3,6.4,28.9c0,0,0,0,0,0.1c-0.5,0.6-0.9,1.2-1.4,1.7C179.9,149.1,179.3,149.7,178.7,150.4
		 M172,81.1c3.7,15.9,6.5,32,8.3,48.2c-3.4-15.7-6.9-31.3-10.3-47C170.6,81.9,171.3,81.5,172,81.1 M181.9,118.9
		c0.8,6.2,1,12.8,2.5,18.9c0.4,1.5,0.9,2.8,2,3.3c-0.8,1-1.7,2.1-2.6,3.1c-0.9-12-2.3-24-4.2-35.9c0.6,2.2,1.2,4.4,1.8,6.6
		C181.5,116.3,181.7,117.6,181.9,118.9 M179.3,77.6c0.8,3.9,1.5,7.8,2.3,11.7c-0.9-3.7-1.8-7.4-2.8-11.1c0-0.1-0.1-0.2-0.2-0.3
		C178.8,77.7,179,77.7,179.3,77.6 M182.7,108.1c-0.4-3.2-0.9-6.4-1.3-9.7c3,12.1,6,24.1,9,36.2c0.1,0.3,0.3,0.5,0.5,0.7
		c-0.7,0.9-1.3,1.8-2,2.8c-1.5-8-3.3-16-5.4-23.9C183.1,111.1,182.8,108.8,182.7,108.1 M166,85.9c-0.1-0.3-0.3-0.5-0.5-0.7
		c0.8-0.5,1.6-1.1,2.3-1.6c1.8,10.8,3.5,21.6,5.1,32.4c0.7,4.5,1.4,9,2.1,13.6C172.3,115,169.4,100.4,166,85.9 M162.5,88.3
		c-0.1-0.3-0.2-0.5-0.4-0.6c0.5-0.4,1.1-0.8,1.6-1.2c1.3,17,5.4,33.7,7.4,50.6C168.3,120.7,165.4,104.5,162.5,88.3 M170,142.7
		c0.8,4.6,1.7,9.3,2.5,13.9c0,0.1,0.1,0.2,0.1,0.3c-0.5,0.5-0.9,1-1.4,1.4C170.9,153.1,170.5,147.9,170,142.7 M168.9,159.9
		c0,0.2,0.1,0.4,0.3,0.5c-0.8,0.8-1.7,1.6-2.5,2.3c-0.8-8.4-1.5-16.9-2.3-25.3C165.9,144.9,167.4,152.4,168.9,159.9 M158.4,90.5
		c0.6-0.5,1.3-1,1.9-1.5c2.7,16.7,5.2,33.4,7,50.3c-1.6-8-3.1-16-4.5-24C162.1,106.9,161.4,98.2,158.4,90.5 M155.5,115
		c3.6,16.4,6.6,32.9,9.1,49.5c-1.1,0.9-2.3,1.7-3.4,2.5C159.3,149.7,157.4,132.3,155.5,115 M154.3,139.1c1.5,9.7,3,19.4,4.7,29.1
		c0,0,0,0.1,0,0.1c-0.9,0.5-1.8,0.8-2.6,1.1C155.9,159.3,155.2,149.2,154.3,139.1 M150.1,98.2c0-0.2-0.1-0.3-0.2-0.4
		c0.5-0.4,0.9-0.8,1.4-1.2c1,8.8,1.9,17.5,2.9,26.3C152.8,114.6,151.5,106.4,150.1,98.2 M146.9,100.3c0.4-0.3,0.7-0.7,1.1-1
		c1.5,12.4,2.8,24.8,3.9,37.2c-1.7-11.9-3.4-23.9-4.9-35.8C147,100.5,147,100.4,146.9,100.3 M143.4,104.5c0-0.3-0.1-0.4-0.3-0.6
		c0.6-0.6,1.1-1.1,1.7-1.7c0.7,10.1,1.5,20.2,2.3,30.3C145.9,123.2,144.6,113.9,143.4,104.5 M146.8,167.3c-0.3-4.1-0.7-8.1-1.1-12.2
		c-0.9-10.7-1.7-21.3-2-32c2.1,15.5,4.4,31,6.3,46.6c-1.4-0.3-2.7-0.8-3.9-1.4C146.4,168.2,146.9,167.9,146.8,167.3 M188.7,78.4
		c1.8,8.8,3.6,17.6,5.1,26.5c-2.2-9.5-4.4-19.1-6.6-28.6c0.7,0.2,1.4,0.6,2,1C188.8,77.5,188.6,77.9,188.7,78.4 M185.2,75.8
		c-0.2,0.2-0.3,0.6-0.3,1c1.7,10.2,3.3,20.4,5,30.6c-2.8-10.2-5.6-20.4-8.4-30.6c1.1-0.4,2.2-0.7,3.3-1
		C184.9,75.8,185,75.8,185.2,75.8 M187.2,73c-11.2,1.6-21,8.4-29.7,15.2c-9.7,7.6-19,16.2-26.8,25.8c-6.5,8.1-9.7,18.1-7.3,28.4
		c0.1,0.3,0.3,0.5,0.6,0.6c2.6,7.2,7.3,13.8,12.1,19.6c4.6,5.5,10.6,11.1,18.4,10c8-1.1,14.5-8.4,19.8-13.8
		c4.2-4.2,8.3-8.7,12.1-13.4c3.6-4.1,7.1-8.4,9.8-13c4.1-7.1,5.3-15.2,5.2-23.3c-0.1-8.4-1.2-16.9-4.5-24.7
		c-1.6-3.7-3.8-7.7-7.1-9.4c0.7,0,1.3,0,2,0c6.9,0.3,8.7,5.5,10.7,11c0.4,1,1.9,0.6,1.7-0.5C202.2,76.2,196.9,71.6,187.2,73"/>
	<path class="st0" d="M265.1,69.8c-4.3,8.7-11.5,15.4-18.9,21.5c-3.2,2.6-6,4.8-10.3,4c-2.6-0.5-5.2-1.7-7.6-2.7
		c-5.8-2.3-13.9-5.3-13.7-12.8c0-0.2,0-0.3-0.1-0.5c1.2-0.4,2.6,0,4.2,1.9c0.7,0.8,1.8-0.2,1.4-1.1c-2.1-3.9-6.9-4.2-9.7-0.9
		c-3.8,4.6-3.8,12.8-3.7,18.4c0.1,8.3,1.9,17.1,0.4,25.4c-1.5,8.8-6.8,14.9-11.8,21.9c-0.1,0.1-0.2,0.3-0.2,0.4
		c-2.4,2.7-4.8,5.3-6.9,8.1c-5.9,8-11.8,14.8-20.2,20.2c-8.2,5.2-19.2,8.6-28.1,2.9c-6.6-4.3-11.9-11.9-16.2-18.7
		c2.3,1.5,4.1,3.8,6,5.8c0.7,0.7,2.1-0.3,1.5-1.1c-2.5-3.4-5.5-6.7-9.6-8.1c-4.4-1.6-7.9,0.2-11.7,2.5c-2.3,1.4-5.1,4-7.8,4.3
		c-3.2,0.3-7.4-1.3-10.6-1.9c-2.8-0.5-4.7-0.5-6.7-3.1c-0.9-1.2-1.4-3.1-2-4.5c-1.4-3.3-2.9-6.6-4.4-9.8c-0.4-0.9-2.1-0.3-1.7,0.7
		c1.1,2.8,2.3,5.6,3.5,8.4c0.6,1.5,1.2,3.5,2,5.2c-6-1.8-11.9-3.6-17.9-5.5c-3.2-1-6.6-2.3-10-3.4c-11.7-4.6-23.7-7.4-34.6-14
		c-2.4-1.4-4.7-3.1-7.1-4.4c-2-1.1-4.4-1.7-6.4-2.8c-2-0.8-3.2-2.2-3.6-4c-1.3-2.3-0.3-3.9,3.1-4.9c-0.1,0.2-0.1,0.5,0,0.8
		c1.9,6.7,13,7.4,18.5,8.8c8.8,2.3,18.2,5.6,27.4,6.5c0.1,0.2,0.3,0.3,0.5,0.4c6.2,2.2,12.7,3.8,19,5.4c3.8,0.9,6.5,1.5,9.4-1.4
		c2.5-2.4,4-4.5,7.8-4.7c2.1-0.1,4.2,0.3,6.3,0.2c1-0.1,1.9-0.2,2.8-0.4c-2,2.6-3.9,5.4-5.5,8.2c-0.3,0.6,0,1.2,0.5,1.5
		c0.2,1.7,0.9,3.1,1.7,4.6c1.2,2.3,2.3,4.7,3.9,6.7c0.6,0.7,2.1,0.4,1.7-0.7c-1.4-4-4.3-7.3-5.5-11.4c0-0.1,0-0.1-0.1-0.1
		c17.1-21.3,35.6-42.6,58-58.6c11-7.9,25.4-16.9,39.5-14.4c7.2,1.3,20,3.5,21.3-7c0.2-1.4-1.9-1.5-2.3-0.3c-1.5,4.5-5,5.9-8.9,5.9
		c3.1-1.9,5.3-5.4,6.7-8.7c3.3-7.7,5.5-15.5,10.2-22.6C227.7,22,241,12.8,256.6,7.5c1.4-0.5,0.8-2.6-0.6-2.2
		c-9.9,2.6-19.2,8-26.9,14.8c-10.2-1.7-21.8,1.8-31.8,3.3c-11.9,1.8-23.8,3.4-35.4,6.4c-9.7,2.5-19.2,6.1-27.7,11.7
		c-3.9,2.6-7.6,5.6-10.9,9c-1.7,1.8-3.2,4-5,5.7c-1.2,1.1-4,2.9-5.7,2.1c-2.5-2.7-2.7-4.9-0.6-6.6c0.6-0.7,1.2-1.4,2-1.9
		c0.2,0,0.3,0,0.5-0.1c21.8-14.7,44.8-26.4,70.2-33.7c12.6-3.6,25.8-5.1,38.7-7.2c14-2.3,28-4.7,42.1-5.9c0.4,0.3,1,0.3,1.5-0.1
		c0,0,0.1,0,0.1,0c-0.8,1.6,1.2,6.7,1.7,8.2c0.5,1.6,1,3.4,1.9,4.9c-0.2,0.3-0.2,0.7-0.2,1c0,0.1,0,0.2,0,0.2c0,0.1,0,0.1,0,0.1
		c-0.5,1.2-2,2.9-2.3,3.7c-0.7,1.6-1.3,3.3-1.7,5c-1,4.4-1,9-0.5,13.5c0.6,5,2.2,9.8,2.6,14.9C268.9,59.5,267.5,65,265.1,69.8
		 M268,31.8c0.2-3.9,1-7.9,2.9-11.4c0.7-1.2,2.3-2.7,2.1-4.2c-0.1-0.4-0.3-0.8-0.5-1c-0.3-1.8-1-3.5-1.5-5.2
		c-0.7-2.4-1.1-4.9-1.6-7.4c-0.2-0.7-0.6-1.4-1.1-1.9c-0.1-0.5-0.5-0.9-1.2-0.9c-0.1,0-0.3,0-0.4,0c-0.1,0-0.1,0-0.2,0
		c-14.1,1.1-28.1,3.5-42,5.9c-13.8,2.3-27.9,3.9-41.4,7.9c-12.6,3.7-25,8.6-36.8,14.2c-11.1,5.3-22.4,11.4-31.7,19.5c0,0,0,0,0,0
		c-3.3,1.6-7,4.5-6.3,8.7c0.5,3.1,3.3,4.7,6.4,4.4c4.7-0.5,7.4-5.4,10.3-8.4c4.6-4.8,10.1-8.7,16-11.9c12.6-6.7,26.8-9.6,40.8-11.9
		c7.3-1.2,14.6-2.2,22-3.4c7.4-1.1,15.5-3.3,23.1-2.7c-2.1,2-4,4.1-5.8,6.3c-4.3,5.2-8,11.1-10.6,17.3c-3.6,8.3-4.6,16.7-13.2,21.1
		c-2-0.3-3.9-0.7-5.6-1c-5.5-0.9-10.7-0.3-15.9,1.5c-11.1,3.8-21.2,10.3-30.4,17.6c-9.9,7.8-18.8,16.7-27.6,25.7
		c-5.3,5.4-10.7,10.9-15.7,16.8c-0.3-0.1-0.7-0.1-1.1,0.3c-5,5.8-13.3,0.3-19,5c-1.1,0.9-1.8,2.4-3,3.2c-3.3,2.5-7.4,0.6-10.7-0.2
		c-4.5-1.1-8.9-2.4-13.4-3.4c-6.9-2.9-14.9-4.1-22.1-6c-3.8-0.9-7.5-1.9-11.2-2.9c-2.6-0.7-7.6-1.3-10.6-3.2c-2-3.5-3.6-9.5-8.5-6.1
		c-4.3,3-2.4,11,1.5,13.6c1.7,1.1,3.9,1.5,5.7,2.4c2,1,3.9,2.2,5.8,3.4c4.3,2.7,8.6,5.2,13.1,7.3c7.2,3.3,14.9,6.3,22.6,8.4
		c4.2,1.6,8.9,2.7,13,4c6.7,2.1,13.5,4.2,20.3,6.2c0,0,0.1,0,0.1,0c3.3,3.2,10.3,3.2,14.5,3.9c5,0.9,6.9-0.5,11.2-3.1
		c3.2-2,6.4-4.2,10.4-3.5c0.1,0,0.3,0.1,0.4,0.1c3.9,7.7,10.7,17.4,18.1,22.1c7.7,4.9,17.3,3.8,25.2,0.1
		c9.1-4.2,16.8-11.3,22.8-19.2c3.5-4.7,6.8-9.4,10.7-13.7c0.1-0.1,0.2-0.2,0.3-0.4c7.1-6.8,11.9-17.1,12.1-26.9
		c0.1-6.4-0.7-12.8-0.9-19.1c-0.1-3-0.1-6,0.3-9c0.2-2.1,1.2-7,3.1-9.6c0.6,9.8,13.4,13.8,21.3,16.3c4.5,1.4,7.8,0.8,11.6-2
		c5.3-3.8,10.4-8.5,14.7-13.5c6.9-7.9,11.9-18,10.8-28.7C270.2,45.9,267.6,39.1,268,31.8"/>
	<path class="st0" d="M258.5,23.9c-0.5-1.3-1-2.7-1.6-4c0.2,0.1,0.5,0.3,0.7,0.4C258,20.9,258.3,22.4,258.5,23.9 M248.1,80.9
		c-0.9-4.8-1.8-9.7-2.8-14.5c1.2,4.2,2.7,8.4,4.4,12.5C249.1,79.5,248.6,80.2,248.1,80.9 M244.5,84.3c-0.5-3.6-1.2-7.3-1.8-10.9
		c0.9,3.3,2,6.5,3.4,9.7c-0.2,0.2-0.4,0.4-0.7,0.6C245.1,83.8,244.8,84.1,244.5,84.3 M235.6,86.4c-0.3-3.9-0.7-7.8-1.1-11.7
		c1,4.2,2.3,8.2,4.3,11.7C237.7,86.5,236.6,86.5,235.6,86.4 M230.3,49.5c-0.1-0.4-0.3-0.8-0.4-1.2c-0.9-3.7-1.8-7.4-2.9-11
		c0.4-0.5,0.9-1,1.3-1.5c0.9,3.1,1.8,6.3,2.7,9.4c1.1,5,1.8,10.2,2.8,15.1c0.2,0.9,0.4,1.8,0.5,2.7c-0.2-0.6-0.3-1.2-0.5-1.8
		C232.7,57.3,231.5,53.4,230.3,49.5 M227.6,57c-0.4-3.7-0.7-7.6-1.3-11.3c-0.3-1.9-0.3-2.6-1.9-3.7c-0.2-0.1-0.4-0.2-0.5-0.1
		c0.3-0.6,0.6-1.2,1-1.7c0.4,2.1,1.4,4.2,2.1,6.2c0.2,0.5,0.3,1.1,0.5,1.6c2.2,9.4,3.9,19,5,28.6C230.6,70.2,229.3,63.6,227.6,57
		 M222,47.2c0.6,3.7,2.5,7.5,3.6,11c0.1,0.6,0.1,1.2,0.2,1.8c0.5,4.5,0.8,9,1.2,13.5c-2.4-7.7-4.1-15.6-4.9-23.6
		c0-0.3-0.2-0.6-0.4-0.7C221.8,48.6,221.9,47.9,222,47.2 M231,84.6c-0.5-1-1.1-1.9-1.6-2.9c0.1-0.2,0.2-0.4,0.2-0.6
		c-0.2-3.2-0.5-6.4-0.7-9.6c1.1,4.8,2.4,9.7,4.1,14.4C232.3,85.5,231.6,85.1,231,84.6 M241.1,85.8c-0.5-2.2-0.9-4.5-1.3-6.8
		c0.7,2.2,1.5,4.3,2.6,6.3C241.9,85.5,241.5,85.7,241.1,85.8 M231.4,32.5c3,13.4,6.5,27,9.1,40.5c-1-4.5-1.8-9.1-2.9-13.2
		c-1.4-5.2-2.9-10.4-4.3-15.6c-0.7-3.4-1.6-6.8-2.9-10c-0.1-0.2-0.2-0.3-0.3-0.4C230.5,33.4,230.9,33,231.4,32.5 M235.1,29
		c1.8,8,3.6,16,5.2,24c-2.1-7.5-4.5-14.9-7-22.3c0,0,0,0,0,0c0,0,0,0,0,0C233.9,30.1,234.5,29.6,235.1,29 M253.3,17.7
		c0.7,3.5,1.5,7,2.2,10.6c-1.2-3.5-2.4-7-3.6-10.5c0.3-0.1,0.6-0.2,0.8-0.3C252.9,17.5,253.1,17.6,253.3,17.7 M259.1,29.3
		c0.2,2.1,0.3,4.2,0.4,6.3c-0.4-2.1-0.9-4.2-1.3-6.3C258.4,29.4,258.8,29.4,259.1,29.3 M253.8,62.7c0.1,0.3,0.2,0.5,0.3,0.8
		c0.6,1.8,1,3.7,2.4,4.7c-0.4,0.9-0.8,1.7-1.3,2.5C255,68.1,254.5,65.4,253.8,62.7 M247.7,55.7c1.8,5.9,3.5,11.8,5.3,17.6
		c0.1,0.2,0.2,0.4,0.3,0.5c-0.5,0.8-1.1,1.5-1.6,2.3C250.4,69.4,249.1,62.6,247.7,55.7 M236.8,27.5c0.6-0.5,1.2-1,1.8-1.5
		c2.7,11.6,5.3,23.1,7.6,34.8c-2.9-10.9-5.2-21.9-8.9-32.6C237.3,27.9,237.1,27.6,236.8,27.5 M249.6,18.8c0.9,4.5,1.9,8.9,2.9,13.4
		c-1.2-4.3-2.4-8.6-4.5-12.5C248.5,19.4,249,19.2,249.6,18.8C249.6,18.9,249.6,18.9,249.6,18.8 M243.9,22.2c0.6-0.4,1.1-0.7,1.7-1.1
		c1.2,5.8,2.5,11.5,3.8,17.3C247.9,32.9,246.1,27.5,243.9,22.2 M240.8,24.4c0.3-0.2,0.5-0.4,0.8-0.6c0.8,3.9,1.6,7.7,2.5,11.6
		C242.9,31.7,241.8,28.1,240.8,24.4 M259.9,52.3c-1.2-4.5-2.3-9.1-3.4-13.6c1.1,3.2,2.2,6.3,3.2,9.5c0,0.1,0.1,0.2,0.2,0.4
		C259.9,49.8,259.9,51.1,259.9,52.3 M258.1,64.2c-2.2-8.5-4.2-17.1-6.2-25.6c0.1,0.2,0.1,0.5,0.2,0.7c2.1,6.7,4.5,13.4,7,19.9
		c0,0.1,0.1,0.2,0.1,0.2C259,61,258.6,62.6,258.1,64.2 M264.7,11.3c-1.9-2.1-5.5-0.9-7.6-0.1c-6.3,2.3-12,6.6-17.3,10.9
		c-3.1,2.2-6,4.7-8.8,7.3c-4.2,4.1-9.1,8.9-10.8,14.7c-3.6,12,0.2,27.5,7.1,38.3c-0.3,0.4-0.4,0.8-0.1,1.4c2.3,4.8,7.4,5.7,12.3,4.9
		c6.8-1.2,10.2-5.5,14.2-10.8c9.4-12.2,9.2-25.6,8.6-40.4c-0.3-5.8,0.2-15-3.1-20.2c-1.2-1.8-2.7-2.5-4.3-2.6c0.5-0.2,1-0.5,1.6-0.7
		c2.3-1,5.1-1.2,6.8,1.4c0.6,0.9,0.1,3.8,0.1,4.9c0,1.4,2,1.3,2.1,0C265.6,17.9,266.5,13.4,264.7,11.3"/>
</g>
</svg>
