<?xml version="1.0" encoding="utf-8"?>
<!-- Generator: Adobe Illustrator 23.1.1, SVG Export Plug-In . SVG Version: 6.00 Build 0)  -->
<svg version="1.1" id="Calque_1" xmlns="http://www.w3.org/2000/svg" xmlns:xlink="http://www.w3.org/1999/xlink" x="0px" y="0px"
	 viewBox="0 0 422 318" style="enable-background:new 0 0 422 318;" xml:space="preserve">
<style type="text/css">
	.st0{clip-path:url(#SVGID_2_);fill:#91D900;}
</style>
<g>
	<defs>
		<rect id="SVGID_1_" x="0.3" y="-0.3" width="420.9" height="317.8"/>
	</defs>
	<clipPath id="SVGID_2_">
		<use xlink:href="#SVGID_1_"  style="overflow:visible;"/>
	</clipPath>
	<path class="st0" d="M354.8,188.7c1,0-0.9-1.5-1.2-1.8c-1.7-1.6-3.5-3-5.3-4.5c0,0.1,0.1,0.2,0.1,0.4c0.4,1,1.4,1.6,2.1,2.4
		c0.1,0.1,0.1,0.1,0.1,0.2c0.7,0.6,1.3,1.2,2,1.8C353.2,187.6,354,188.7,354.8,188.7 M346.2,183.9c-0.6-1.1-0.1-2.8-0.2-4
		c-0.1-1.1,1.2-1.5,1.9-0.8c2.1,2.3,4.7,4,7,6.1c1.1,1,3.1,2.3,2.3,4c-0.6,1.3-2,2.5-3.3,1.7c-1.3-0.8-2.5-2.4-3.7-3.4
		c-0.5-0.5-1.1-1-1.6-1.5C347.7,185.4,346.7,184.7,346.2,183.9"/>
	<path class="st0" d="M333.5,167.4c-0.1-0.6-0.6-1.3-0.9-1.8c-0.7-1.1-2.1-2.7-3.4-3.1c-2.3-0.7-0.2,2.7,0.2,3.3
		c0.6,1,1.4,1.8,2.3,2.5C332.7,168.7,333.9,169,333.5,167.4 M334.4,170.7c-1.3,0.6-2.6,0-3.7-0.8c-0.2-0.1-0.3-0.3-0.3-0.4
		c-2.2-1.3-3.8-3.8-4.5-6.2c-0.3-1.1-0.1-2.3,0.9-2.9c1.3-0.8,2.7-0.2,3.9,0.5c2.4,1.4,4.9,4.2,5.1,7.1
		C335.9,169.1,335.5,170.2,334.4,170.7"/>
	<path class="st0" d="M316,148c-3.8-3.8-8.1-6.9-11.8-10.8c-1-1.1-2.7-3.7-4.1-5.1c-0.5,1-1.1,2-1.6,3c0.3,1.3,0.9,2.3,2,3.1
		c0.8,0.9,1.9,1.6,2.9,2.4c1.7,1.4,3.2,3,4.7,4.6c1.8,1.9,3.6,3.9,5.4,5.9c1.6,1.7,2.1,3.2,4.1,1.5C319.6,150.7,318,150,316,148
		 M294.2,133.1c-2,2.3,0.1,6.3,1.1,8.7c5.9,5.3,11.8,10.5,18,15.5c0,0,0.1,0,0.1,0c1.2-0.1,2.4-0.4,3.4-1c-3.9-0.8-7.6-6.8-10-9.3
		c-3.2-3.3-14.6-10.8-9.1-16C296.4,131.3,294.8,132.3,294.2,133.1 M281.8,129.6c0,0,0.1,0,0.1,0.1c0,0,0.1,0.1,0.1,0.1
		c0.5-2.6,1.6-5.3,2.6-7.7c-0.1-0.1-0.2-0.2-0.3-0.3c-0.4,1.1-0.7,2.3-1,3.5C282.9,126.7,282.2,128.1,281.8,129.6 M291.8,138.6
		C291.8,138.7,291.8,138.7,291.8,138.6C291.9,138.7,291.8,138.6,291.8,138.6C291.8,138.6,291.8,138.6,291.8,138.6 M291.2,133.3
		c0-0.1,0-0.2,0.1-0.3c-0.4,1.3-0.8,2.7-1.4,3.9c0.1,0.1,0.2,0.2,0.3,0.3C290.5,135.9,290.9,134.6,291.2,133.3 M290.2,126.8
		c-0.3,1-0.5,2-0.8,3c-0.5,1.7-1.1,3.3-2,4.8c0.4,0.4,0.8,0.7,1.2,1.1c0.4-1.8,1.1-3.7,1.5-5.5c0.2-1,0.3-2,0.8-2.8
		C290.6,127.2,290.4,127,290.2,126.8 M286,123.1c-0.7,2.6-1.4,5.5-2.6,7.8c0.2,0.2,0.4,0.4,0.6,0.6c0.3-1.2,0.9-2.3,1.2-3.5
		c0.4-1.4,0.6-3.1,1.4-4.3C286.4,123.5,286.2,123.3,286,123.1 M288,124.8c-0.5,2.7-1.5,5.4-2.6,8c0.3,0.2,0.5,0.5,0.8,0.7
		c0.6-1.4,1.1-2.8,1.5-4.3c0.3-1.2,0.8-2.5,1.1-3.8C288.5,125.2,288.2,125,288,124.8 M292.3,128.8c-0.3,1.1-0.5,2.3-0.8,3.4
		c0.3-0.9,0.6-1.7,1.4-2.3c0.1-0.1,0.3-0.1,0.4-0.1C293,129.4,292.7,129.1,292.3,128.8 M320.5,155.3c-0.5,2-2.8,3.5-4.9,3.9
		c0.3,0.2,0.6,0.4,0.8,0.7c1,0.8-0.2,2.4-1.2,1.6c-12.1-9.4-24.2-19.4-34.5-30.7c0,0,0-0.1-0.1-0.1c-0.4,0-0.9-0.2-0.9-0.8
		c0-1.9,1-3.7,1.4-5.6c0.4-1.6,0.7-3.3,1.6-4.7c0,0,0.1-0.1,0.1-0.1c0.1-0.1,0.1-0.2,0.2-0.3c0.6-0.8,1.7-0.2,1.8,0.6
		c1.8,1.3,3.7,2.7,5.4,4.2c0,0,0.1,0,0.1,0.1c1.8,1.5,3.5,3.2,4.8,5c1.1-0.6,2.4-0.9,3.6-0.4c2.3,0.9,4.1,3.9,5.7,5.7
		c2.5,2.8,5.3,5.3,8.1,7.8c2.4,2.2,9.1,6.8,9.1,10.6C321.8,153.8,321.3,154.7,320.5,155.3"/>
	<path class="st0" d="M211,133.3c-4.4,0.3-9.6-4.7-12.8-7.4c-0.6-0.5,0-1.6,0.7-1.2c3.8,2,7.2,5.6,11.6,5.8
		c5.2,0.2,10.4-3.7,14.5-6.8c0.9-0.7,1.9,0.6,1.1,1.4C222.6,128.4,215.9,133,211,133.3"/>
	<path class="st0" d="M313,192.3c3.6,2.2,7,3.7,11.1,1.7c2.4-1.2,4.3-3.5,6.1-5.5c0.7-0.8,1.9,0.2,1.3,1c-5,6.7-10.7,9.7-18.4,5.2
		c-10.3-6.1-19.5-13.7-30-19.4c-20.6-11.2-41.7-22.8-59.7-38.1c-0.8-0.7,0.1-1.8,1-1.2c17.4,12.1,34.5,24.1,53.3,34.2
		c8.2,4.4,16,9,23.7,14.2C305.1,187,309,189.8,313,192.3"/>
	<path class="st0" d="M331.6,202.1c2.7,1.2,5.2,2.8,7.8,4.2c1,0.6,2.2,1.3,3.4,1.4c2.7,0.3,4.5-1.9,6.1-3.6c0.7-0.8,2,0.2,1.3,1
		c-2,2.6-4.6,5.1-8.2,4.3c-3.8-0.8-8-3.8-11.2-6.1C330.1,202.8,330.8,201.7,331.6,202.1"/>
	<path class="st0" d="M366.3,221.8c-1.8-0.6-3.7-2.1-5.3-3.1c-2.2-1.4-4.5-2.7-6.6-4.2c-0.6-0.5,0-1.6,0.7-1.2c2,1.1,4,2.3,5.9,3.5
		c2.8,1.7,7.8,6.1,10,1.5c0.4-0.9,1.8-0.3,1.4,0.6C371.4,221.5,368.9,222.7,366.3,221.8"/>
	<path class="st0" d="M407.3,250.8c-3.4-6.2-7.3-12.1-11.4-17.9c-3.3-4.7-6.7-10.7-11.9-13.5c-0.3,0.7-0.6,1.4-0.9,2
		c12.2,9.8,20,24.8,25.6,39.2c3.8,9.9,9.7,23.4,6,34.1c-6.8,19.9-36.2,18.8-52.5,16.1c-16-2.7-31.4-8.6-45.7-16.1
		c-14.8-7.8-29.4-17.4-41.4-29.1c-18.9-18.4-34.4-40.4-51.4-60.6c-18.9-22.4-39.7-46.1-66-59.9c-16.3-8.6-46.9-16.7-56,6
		c-3.6,9-3.1,19.4-1.9,28.8c1.4,11.9,4.4,23.7,7.8,35.2c3.1,10.6,6.7,21.1,10.3,31.5c2.5,7.3,5.3,14.6,6.9,22.2
		c1.1,5.4,0.6,11.8-6,12.8c-7.4,1.1-14.8-4.8-20.4-8.8c-16-11.3-29.6-25.6-43.1-39.7c-7.4-7.7-14.7-15.6-22.7-22.8
		c-3.6-3.2-7.8-6.5-12.7-7.2c-6.3-0.9-11.2,3.1-13.8,8.5c-4.3,8.9-3.7,19.8-3.1,29.3c0.7,11.3,2.8,22.5,6.1,33.3
		c3.1,10,7.2,19.6,12.3,28.7c0.4-0.2,0.9-0.2,1.2,0.2c0.4,0.3,0.8,0.5,1.3,0.8c-2-5.7-5.4-11.1-7.7-16.7c-2.8-6.9-5.2-13.9-7-21.1
		c-3.5-13.9-4.8-28.5-2.9-42.7c1.1-8,5.3-18.9,15.4-16.1c5.5,1.5,9.7,6.4,13.6,10.2c4.6,4.6,9.1,9.3,13.5,14.1
		c8.9,9.8,17.6,19.8,27.2,28.9c9.7,9.1,21.8,20,35,23.3c7.3,1.9,16.2-0.7,17-9.4c0.7-8.4-3.3-18.1-5.8-26
		c-4.9-15.4-11.1-30.3-15.3-45.9c-3.9-14.2-7.2-30.6-3.7-45.2c1.2-5.1,3.6-10.1,8-13.3c5.4-3.9,12.4-3.6,18.7-3.2
		c0.5,0,0.8,0.3,0.9,0.7c8-0.5,15.5,2.5,22.7,5.8c8.4,3.7,16.6,8.1,23.9,13.7c15.4,11.7,27.8,27.8,40.1,42.6
		c25.3,30.1,48.9,62.6,81.3,85.5c16.6,11.7,34.9,20.1,54.9,24c0.1,0,0.2,0,0.2,0c13.6,2.3,27.5,2.9,41.2,0.4
		c5.8-1.1,11.8-2.9,16.4-6.7c5.7-4.8,7.6-12,7.4-19.2C418.4,274.5,413.4,261.9,407.3,250.8 M381.2,208.2c0,0.1-0.1,0.1-0.2,0.2
		c0.1,7.6-6.4,19.4-14.9,18.7c2.7,4.8,10.5-0.1,12.9-3.3c1.4-1.8,2.4-3.9,3.1-6.1c0.4-1.3,0.7-2.5,0.7-3.9
		C382.9,213.3,382.7,208.4,381.2,208.2 M364.4,193.2c-0.3,5-2.6,10.1-5.1,14.1c-1.5,2.3-6.3,6.4-11.2,8.8c6,2,11.7,5.6,16.9,9
		c0,0,0,0,0.1,0c7.8-0.4,14.2-9.7,13.8-17.2c0-0.1,0-0.1,0-0.2C373.8,203.6,368.6,198.4,364.4,193.2 M359.8,184.6
		c2.3,6.2,0.3,13.8-3.1,19.1c-3.5,5.5-10.8,11.7-17.7,10.7c-0.1,0-0.2,0.1-0.4,0c2.4,3.5,10.2-0.9,12.2-2.2c3-2,5.7-4.4,7.4-7.6
		C360.5,200.5,365.4,188.2,359.8,184.6 M294.9,123.4c-7.5-7.2-15.1-14.2-22.8-21.2c-7.5-6.8-15.4-13.3-22.7-20.2
		c1.7,13.1-5.4,27.2-12.5,37.6c-7.5,10.9-19.5,19.3-32.7,21.7c18.6,9.2,36.8,19.2,55.1,28.8c17.8,9.4,36.1,18.5,53,29.5
		c0.1,0.1,0.2,0.1,0.2,0.2c8.2,2.1,16.4,0.7,22.6-5.4c3.2-3.1,5.3-7,6.4-11.3c1-3.9,2.4-11-0.6-14.3c-0.1-0.1-0.1-0.1-0.1-0.2
		C325.3,153.8,310.5,138.2,294.9,123.4 M235.9,69.7c-2-1.6-4-3.4-5.7-5.4c0.3,13.1-2.8,26.3-9.7,37c-3.1,4.8-7.4,8.4-11.7,12
		c-4.9,4.1-9.8,8.1-15.4,11.2c-4.3,2.4-8.9,4-13.7,5.1c7,2.6,14.3,6.4,20.7,10.1c0.1,0,0.1-0.1,0.2-0.1c13.5-3,25.7-9.5,33.9-20.9
		c8.1-11.2,14.4-25.6,12.2-39.5c0-0.1-0.1-0.2,0-0.3c0-0.1,0-0.1,0-0.2C244.3,75.1,238.9,72.2,235.9,69.7 M224.2,43.5
		c0.2,2.9,0.2,5.8,0.1,8.6c-0.2,13.4-2.3,27.1-8.9,39c-9.1,16.4-23.7,30.9-41.3,37c6.8-1,13.5-3,19.5-6.6c4.6-2.8,8.8-6.2,13-9.6
		c4.3-3.6,8.8-7.2,11.9-12.1C228.9,83.3,229.8,62,224.2,43.5 M177.5,3.3c-0.1,0.4-0.1,0.8-0.2,1.3c1.6,0.2,3.2,0.4,4.8,0.7
		c0.1-0.4,0.2-0.7,0.3-1.1c-0.1,0-0.2-0.1-0.4-0.1C180.6,3.8,179,3.5,177.5,3.3 M152,3.6c0,0.2,0,0.4-0.1,0.6c0,0,0.1,0,0.1,0
		c1.3-0.1,2.6-0.2,3.9-0.3c0.1-0.3,0.2-0.6,0.2-1C154.7,3.2,153.3,3.4,152,3.6 M127.8,13.5c0,0.2-0.1,0.4-0.1,0.6
		c1.1-0.4,2.2-0.7,3.3-1.1c0.1-0.6,0.2-1.2,0.4-1.8C130.2,12,129,12.7,127.8,13.5 M110.7,103.1c0.6-0.7,1.2-1.4,1.8-2
		c-0.8-1.2-1.6-2.5-2.3-3.8c-0.7,0.6-1.4,1.2-2.1,1.8c0.1,0.2,0.2,0.4,0.4,0.6C109.1,100.9,109.9,102,110.7,103.1 M120,112.7
		c0.2-0.2,0.5-0.4,0.7-0.6c-1.1-1.2-2.2-2.5-3.2-3.8c-0.4,0.4-0.8,0.7-1.3,1.1C117.5,110.5,118.7,111.7,120,112.7 M211.8,22
		c-0.1,0-0.2-0.1-0.2-0.1c-0.4-0.3-0.7-0.6-1.1-1c0.1,0.3,0.1,0.7,0.2,1c1,0.8,2,1.7,2.9,2.6C213,23.7,212.4,22.8,211.8,22
		 M183.7,10c1.1,0.2,2.2,0.5,3.3,0.7c0.1-0.7,0.2-1.3,0.3-2c-1.1-0.3-2.3-0.6-3.4-0.8C183.7,8.6,183.7,9.3,183.7,10 M177,8.8
		c1.4,0.2,2.9,0.4,4.3,0.7c0.1-0.7,0.2-1.3,0.4-2c-1.5-0.3-3-0.5-4.6-0.7C177.1,7.5,177,8.2,177,8.8 M170.7,6.2
		c-0.1,0.6-0.2,1.3-0.2,1.9c1.5,0.1,2.9,0.2,4.4,0.4c0.1-0.7,0.1-1.3,0.2-2C173.6,6.4,172.2,6.3,170.7,6.2 M157.3,8
		c1.8-0.1,3.5-0.1,5.3-0.1c0.1-0.6,0.2-1.3,0.4-1.9c-1.8,0-3.6,0.1-5.4,0.2C157.4,6.7,157.4,7.4,157.3,8 M151.5,8.5
		c1.2-0.1,2.3-0.2,3.5-0.3c0.1-0.6,0.2-1.3,0.3-1.9c-0.4,0-0.9,0.1-1.3,0.1c-0.8,0.1-1.6,0.2-2.4,0.2C151.6,7.2,151.6,7.9,151.5,8.5
		 M145.8,7.3c-0.2,0.7-0.4,1.4-0.5,2.1c1.4-0.2,2.7-0.5,4.1-0.6c0.1-0.6,0.1-1.3,0.2-1.9C148.3,6.9,147,7.1,145.8,7.3 M146.6,4.9
		c1.1-0.1,2.2-0.3,3.3-0.4c0-0.2,0-0.3,0.1-0.5C148.8,4.3,147.7,4.6,146.6,4.9 M134.4,12c0.5-0.1,1-0.3,1.5-0.4
		c0.1-0.7,0.2-1.3,0.4-2c-0.9,0.4-1.8,0.8-2.7,1.3c-0.1,0.5-0.1,1-0.2,1.4C133.7,12.2,134,12.1,134.4,12 M133,18.3
		c0.7-0.2,1.4-0.4,2.2-0.5c0.1-1.2,0.2-2.5,0.3-3.7c-0.8,0.2-1.5,0.4-2.3,0.7C133.1,15.9,133,17.1,133,18.3 M127.2,19.9
		c1-0.3,1.9-0.6,2.9-0.8c0.1,0,0.2-0.1,0.4-0.1c0-1.2,0.1-2.3,0.3-3.5c-1.1,0.4-2.2,0.7-3.3,1.2C127.3,17.8,127.3,18.8,127.2,19.9
		 M120.1,20.1c0,0.8,0,1.5,0,2.3c1.6-0.7,3.3-1.3,4.9-1.8c0.1-1,0.2-2,0.3-3C123.5,18.3,121.8,19.1,120.1,20.1 M114.4,25.1
		c0,0.1,0,0.1,0,0.2c1.2-0.7,2.4-1.4,3.6-2c0-0.7,0.1-1.3,0.1-2c-0.1,0.1-0.3,0.2-0.4,0.3C116.5,22.8,115.4,23.9,114.4,25.1
		 M107.8,34.3c0-0.1,0-0.3,0-0.4c-0.1,0.2-0.3,0.5-0.5,0.7C107.5,34.5,107.7,34.4,107.8,34.3 M103.7,42.4c0-0.1,0-0.3,0-0.4
		c-0.1,0.2-0.2,0.5-0.3,0.7C103.5,42.6,103.6,42.5,103.7,42.4 M102.8,83c-0.4-0.9-0.8-1.7-1.2-2.6c-0.2,0.2-0.3,0.4-0.5,0.6
		c0.2,1,0.5,2,0.7,3C102.1,83.6,102.4,83.3,102.8,83 M112.6,92.5c-0.8-1.3-1.6-2.7-2.3-4.1c-0.7,0.5-1.4,1.1-2,1.6
		c0.7,1.4,1.5,2.7,2.3,4C111.2,93.5,111.9,93,112.6,92.5 M116.2,98.1c-0.6-0.9-1.2-1.8-1.8-2.8c-0.2-0.3-0.4-0.6-0.5-0.9
		c-0.7,0.5-1.4,1-2,1.6c0.8,1.2,1.5,2.4,2.3,3.6C114.7,99.1,115.4,98.6,116.2,98.1 M125.3,108.9c-1.2-1.2-2.4-2.5-3.5-3.8
		c-0.9,0.5-1.7,1.1-2.5,1.7c1.1,1.3,2.2,2.6,3.3,3.8C123.4,110,124.3,109.5,125.3,108.9 M128.1,116c1-0.6,1.9-1.2,2.9-1.8
		c-1.4-1.2-2.7-2.4-4-3.6c-1,0.5-2,1-3,1.6C125.3,113.6,126.7,114.8,128.1,116 M160.7,124.4c-1.2,0.3-2.4,0.7-3.6,1
		c0.6,0.4,1.3,0.7,1.9,1c1-0.4,2.1-0.8,3.1-1.2C161.6,125,161.2,124.7,160.7,124.4 M167.1,122.8c-1.1,0.3-2.3,0.5-3.4,0.8
		c0.3,0.2,0.6,0.4,0.9,0.6c0.9-0.4,1.8-0.8,2.7-1.2C167.2,123,167.1,122.9,167.1,122.8 M175.5,114.9c-1.8,0.2-3.7,0.5-5.5,0.9
		c1.5,1,3,1.9,4.5,2.7c0.5-0.1,1.1-0.2,1.6-0.3c0.1,0,0.1,0,0.2,0c0.7-0.4,1.4-0.8,2.1-1.3C177.5,116.3,176.5,115.6,175.5,114.9
		 M179.1,114.6c0.5,0.4,1,0.7,1.5,1c0.5-0.4,1.1-0.7,1.6-1.1C181.2,114.5,180.1,114.5,179.1,114.6 M184.6,107.8
		c-1.5,0-3,0.1-4.5,0.2c2,1.3,4.2,2.5,6.5,3.4c0.6-0.5,1.2-0.9,1.8-1.4C187,109.3,185.8,108.6,184.6,107.8 M189.1,107.8
		c0.4,0.2,0.7,0.4,1.1,0.6c0.2-0.2,0.4-0.4,0.7-0.6C190.3,107.8,189.7,107.8,189.1,107.8 M190.3,102.6c1.2,0.8,2.3,1.7,3.5,2.4
		c0.6-0.6,1.2-1.2,1.8-1.8C193.8,103.1,192.1,102.8,190.3,102.6 M198.5,98.4c-2.1-0.2-4.2-0.5-6.4-0.9c1.8,1.3,3.8,2.4,5.8,3.2
		c0.5-0.6,1-1.1,1.5-1.7C199.1,98.8,198.8,98.6,198.5,98.4 M202.4,93.4c0.3,0.3,0.6,0.5,0.9,0.8c0.1-0.2,0.3-0.4,0.4-0.5
		C203.2,93.5,202.8,93.5,202.4,93.4 M202.4,87.8c-2.3-0.5-4.6-0.9-7-1.2c1.2,1.2,2.3,2.4,3.5,3.6c2.1,0.4,4.1,0.8,6.2,1.3
		c0.2-0.2,0.3-0.5,0.4-0.7C204.5,89.8,203.5,88.8,202.4,87.8 M207,83c0.7,0.7,1.4,1.4,2.1,2.1c0.2-0.4,0.5-0.8,0.7-1.3
		C208.9,83.5,207.9,83.2,207,83 M211.9,77.6c-2.1-0.8-4.1-1.5-6.3-2.1c1.7,2,3.5,3.9,5.5,5.7c0.5-1,0.9-1.9,1.4-2.9
		C212.3,78,212.1,77.8,211.9,77.6 M211.9,69.6c-1.5-0.5-3-0.9-4.5-1.3c1.7,2.2,3.4,4.5,5.2,6.7c0.4,0.2,0.7,0.3,1.1,0.5
		c0.3-0.9,0.7-1.7,1-2.6C213.7,71.8,212.8,70.7,211.9,69.6 M215.4,70.6C215.4,70.6,215.4,70.6,215.4,70.6
		C215.4,70.5,215.4,70.5,215.4,70.6C215.4,70.6,215.4,70.6,215.4,70.6 M216.2,67c-0.9-1.2-1.8-2.5-2.7-3.9c-1.4-0.4-2.8-0.7-4.2-1.1
		c1,1.7,2.1,3.3,3.2,4.9c1,0.4,2.1,0.7,3.1,1.1c0.2,0.1,0.3,0.2,0.4,0.3c0.1-0.4,0.2-0.8,0.3-1.2C216.3,67.1,216.3,67.1,216.2,67
		 M211.6,26.3c0.3,0.2,0.6,0.4,0.9,0.6c-0.3-0.3-0.6-0.6-0.9-0.9C211.6,26.2,211.6,26.3,211.6,26.3 M205.9,21.6
		c0.1,0.5,0.1,0.9,0.2,1.4c0.9,0.5,1.8,1,2.6,1.5c0-0.3-0.1-0.6-0.1-0.9C207.7,22.9,206.8,22.2,205.9,21.6 M205.5,18.2
		c0.9,0.6,1.8,1.2,2.7,1.8c0-0.4-0.1-0.7-0.1-1.1c-0.9-0.7-1.8-1.4-2.7-2C205.4,17.4,205.5,17.8,205.5,18.2 M200.5,13.9
		c0.1,0.5,0.1,1.1,0.2,1.6c0.9,0.4,1.8,0.9,2.7,1.4c0-0.5,0-0.9,0-1.4C202.4,15,201.5,14.5,200.5,13.9 M194.5,13
		c1.3,0.5,2.6,1,3.9,1.5c0-0.6,0-1.1,0-1.7c-1.3-0.6-2.5-1.2-3.8-1.7C194.5,11.8,194.5,12.4,194.5,13 M192.5,12.3
		c0-0.6,0.1-1.3,0.2-1.9c-1-0.4-2-0.7-3-1c-0.1,0.7-0.1,1.3-0.2,2C190.5,11.7,191.5,12,192.5,12.3 M189.3,16.9c1,0.2,2,0.5,3.1,0.8
		c0-0.9,0-1.8,0-2.7c-1-0.3-2-0.7-3-1C189.3,14.9,189.3,15.9,189.3,16.9 M183.4,15.7c1.1,0.2,2.3,0.4,3.4,0.6
		c-0.1-1-0.1-2.1-0.1-3.1c-1.1-0.3-2.2-0.5-3.2-0.8C183.5,13.6,183.5,14.6,183.4,15.7 M176.9,14.9c1.3,0.1,2.6,0.3,3.9,0.4
		c0.1-1.1,0.1-2.3,0.2-3.4c-1.4-0.3-2.7-0.5-4.1-0.7C176.9,12.5,176.9,13.7,176.9,14.9 M170.1,14.5c1.5,0.1,3.1,0.1,4.6,0.3
		c0-1.3,0-2.5,0-3.8c-1.5-0.2-3-0.3-4.4-0.5C170.2,11.8,170.1,13.2,170.1,14.5 M156.8,14.6c1.7-0.1,3.3-0.2,5-0.2
		c0.1-1.4,0.2-2.8,0.4-4.2c-1.7,0-3.4,0.1-5.2,0.2C157,11.8,156.9,13.2,156.8,14.6 M151.2,15.1c1-0.1,2.1-0.2,3.1-0.3
		c0.1-1.4,0.2-2.8,0.3-4.2c-1.1,0.1-2.2,0.2-3.3,0.3C151.3,12.3,151.2,13.7,151.2,15.1 M144.4,16c1.5-0.2,3-0.4,4.5-0.6
		c0-1.4,0.1-2.8,0.2-4.2c-1.4,0.2-2.9,0.4-4.3,0.7C144.6,13.2,144.5,14.6,144.4,16 M137.8,22.1c1.5-0.3,3-0.6,4.5-0.9
		c0-0.8,0-1.7,0-2.5c-1.5,0.3-3,0.6-4.5,0.9C137.7,20.4,137.8,21.3,137.8,22.1 M133,23.3c0.7-0.2,1.4-0.4,2.1-0.6
		c0-0.9-0.1-1.7-0.1-2.6c-0.7,0.2-1.4,0.3-2.1,0.5C133,21.5,133,22.4,133,23.3 M127.2,25c0.2-0.1,0.3-0.1,0.5-0.2
		c0.9-0.3,1.9-0.6,2.8-0.9c0-0.9-0.1-1.8-0.1-2.7c-1.1,0.3-2.2,0.6-3.3,1C127.1,23.2,127.1,24.1,127.2,25 M120.3,27.5
		c1.5-0.6,3.1-1.2,4.6-1.7c0-0.9,0-1.8,0-2.7c-1.6,0.6-3.2,1.2-4.7,1.9C120.2,25.8,120.2,26.6,120.3,27.5 M114.6,30
		c1.1-0.5,2.2-1.1,3.3-1.5c0-0.8,0-1.6,0-2.4c-1.2,0.6-2.3,1.3-3.4,2C114.5,28.8,114.6,29.4,114.6,30 M110.1,37.9
		c0.8-0.5,1.6-0.9,2.5-1.4c-0.1-0.8-0.1-1.7-0.1-2.5c-0.9,0.5-1.7,1.1-2.5,1.7C110,36.4,110,37.1,110.1,37.9 M107.7,39.3
		c0-0.7,0-1.4,0-2c-0.8,0.6-1.6,1.3-2.3,2c0.1,0.5,0.1,1,0.2,1.5C106.3,40.3,107,39.8,107.7,39.3 M106.3,45.8
		c0.6-0.4,1.2-0.8,1.8-1.1c-0.1-0.8-0.2-1.5-0.2-2.3c-0.6,0.5-1.3,0.9-1.9,1.4C106.1,44.5,106.2,45.1,106.3,45.8 M99.8,58.7
		C99.8,58.7,99.8,58.7,99.8,58.7C99.8,58.7,99.8,58.7,99.8,58.7C99.8,58.7,99.8,58.7,99.8,58.7 M99.5,64.9c0.4-0.4,0.8-0.8,1.2-1.2
		c-0.1-0.6-0.2-1.2-0.4-1.9c-0.3,0.3-0.5,0.7-0.8,1C99.5,63.6,99.5,64.3,99.5,64.9 M103.8,74.2c-0.4-1.2-0.8-2.3-1.2-3.5
		c-0.6,0.7-1.2,1.4-1.7,2.1c0.3,1,0.7,2.1,1,3.1C102.6,75.4,103.2,74.8,103.8,74.2 M106.2,80c-0.5-1-0.9-2.1-1.3-3.2
		c-0.6,0.6-1.3,1.2-1.9,1.8c0.4,1,0.8,2,1.2,2.9C104.8,81.1,105.5,80.6,106.2,80 M107.3,82.4c-0.7,0.5-1.3,1.1-2,1.7
		c0.6,1.2,1.1,2.4,1.7,3.5c0.6-0.6,1.3-1.1,2-1.6C108.4,84.8,107.8,83.6,107.3,82.4 M114.5,82.4c-0.6-1.2-1.2-2.4-1.7-3.6
		c-1.2,0.7-2.4,1.4-3.6,2.2c0.5,1.2,1.1,2.4,1.7,3.6C112,83.9,113.3,83.1,114.5,82.4 M118,88.9c-0.8-1.4-1.6-2.8-2.3-4.2
		c-1.2,0.7-2.4,1.5-3.6,2.3c0.7,1.4,1.5,2.8,2.3,4.2C115.6,90.4,116.8,89.7,118,88.9 M125.3,100.1c-0.7-1-1.5-2-2.2-3.1
		c-1.2,0.5-2.5,1.1-3.6,1.8c0.8,1.1,1.6,2.1,2.5,3.1C123,101.3,124.1,100.7,125.3,100.1 M130.4,106.5c-1.2-1.4-2.4-2.8-3.5-4.2
		c-1.1,0.5-2.2,1.1-3.3,1.7c1.2,1.3,2.4,2.6,3.7,3.9C128.4,107.4,129.4,107,130.4,106.5 M135.4,111.8c-1.1-1.1-2.2-2.2-3.3-3.4
		c-1,0.4-2,0.8-2.9,1.2c1.3,1.2,2.5,2.3,3.9,3.5C133.8,112.7,134.6,112.3,135.4,111.8 M138.2,117.3c0.7-0.3,1.4-0.6,2-0.9
		c-1-0.9-2-1.8-2.9-2.7c-0.7,0.4-1.5,0.7-2.2,1.1C136.1,115.6,137.1,116.5,138.2,117.3 M136,118.4c-1-0.8-2.1-1.6-3.1-2.5
		c-1,0.5-2,1.1-2.9,1.7c1.2,0.9,2.4,1.8,3.6,2.7C134.4,119.6,135.2,119,136,118.4 M145.5,120.7c-1.2-0.9-2.3-1.8-3.4-2.7
		c-0.6,0.3-1.3,0.5-1.9,0.8c1.2,0.9,2.4,1.8,3.7,2.7C144.4,121.2,144.9,120.9,145.5,120.7 M154.4,120c-1.3,0.4-2.5,0.9-3.7,1.3
		c1.1,0.7,2.2,1.5,3.3,2.2c1.3-0.4,2.6-0.7,3.8-1.1C156.6,121.7,155.5,120.9,154.4,120 M160.6,118.2c-0.2,0.1-0.4,0.1-0.6,0.2
		c-0.9,0.3-1.9,0.5-2.8,0.8c1.2,0.9,2.4,1.7,3.6,2.6c1.1-0.3,2.3-0.6,3.4-0.9C163,120,161.8,119.1,160.6,118.2 M160.6,111.5
		c-1.1,0.3-2.2,0.7-3.3,1c1.2,1,2.5,2,3.7,3c0.2-0.1,0.4-0.1,0.6-0.2c0.9-0.3,1.9-0.5,2.8-0.8C163.1,113.7,161.8,112.6,160.6,111.5
		 M168.6,109.5c-1.8,0.4-3.6,0.8-5.4,1.3c1.3,1.1,2.7,2.2,4.1,3.2c1.8-0.4,3.6-0.8,5.4-1.1C171.3,111.7,170,110.6,168.6,109.5
		 M176.5,101.9c-1.2,0.1-2.4,0.2-3.6,0.4c1.2,1.1,2.5,2.2,3.8,3.2c1.3-0.2,2.7-0.3,4-0.4C179.3,104.1,177.9,103,176.5,101.9
		 M185.9,102.1c-1.9-0.2-3.8-0.3-5.8-0.3c1.5,1.1,3,2.3,4.6,3.3c2,0,3.9,0.2,5.8,0.5C189,104.5,187.4,103.3,185.9,102.1 M187.9,96.9
		c-1.4-0.2-2.8-0.3-4.2-0.4c-0.3,0-0.7,0-1,0c1.4,1.2,2.8,2.4,4.2,3.5c2.1,0.2,4.3,0.4,6.4,0.7C191.4,99.7,189.6,98.4,187.9,96.9
		 M189.8,91.6c-1.7-0.2-3.4-0.3-5.1-0.3c1.1,1.1,2.3,2.2,3.5,3.3c2.1,0.3,4.1,0.6,6.2,0.9C192.9,94.2,191.3,92.9,189.8,91.6
		 M187.2,85.9c1.1,1.1,2.1,2.1,3.2,3.1c1.6,0.2,3.2,0.4,4.9,0.6c-1.1-1.1-2.1-2.2-3.2-3.4C190.5,86.1,188.9,86,187.2,85.9
		 M186.1,79.2c-1.8-0.1-3.6-0.2-5.4-0.3c1.3,1.5,2.6,3,4,4.5c1.7,0.1,3.3,0.1,5,0.2C188.5,82.1,187.3,80.7,186.1,79.2 M195.3,80.3
		c-2-0.3-4-0.6-6.1-0.8c1.2,1.5,2.4,2.9,3.6,4.3c2.1,0.2,4.2,0.4,6.3,0.8C197.9,83.1,196.6,81.8,195.3,80.3 M195.9,73.2
		c-1.3-0.2-2.6-0.4-3.9-0.6c1.3,1.7,2.7,3.4,4.1,5c1.4,0.2,2.7,0.5,4,0.8C198.6,76.8,197.2,75,195.9,73.2 M199.1,73.9
		c1.5,1.9,3,3.7,4.5,5.5c1.3,0.3,2.5,0.7,3.8,1.1c-1.8-1.8-3.5-3.8-5.1-5.8C201.2,74.3,200.2,74.1,199.1,73.9 M196.2,65.9
		c-1-0.2-2-0.3-3-0.4c1.1,1.7,2.2,3.4,3.4,5.1c1,0.2,2,0.3,3,0.5C198.4,69.4,197.3,67.7,196.2,65.9 M199,66.4
		c1.2,1.8,2.4,3.6,3.7,5.3c2,0.5,4,1,5.9,1.7c-1.6-2-3.1-4-4.5-6C202.4,67,200.7,66.7,199,66.4 M199.3,60.2
		c-1.4-0.2-2.9-0.4-4.3-0.6c0.6,1.2,1.3,2.4,2,3.5c1.6,0.3,3.2,0.6,4.7,0.9C200.8,62.7,200,61.5,199.3,60.2 M202.1,60.7
		c0.9,1.4,1.8,2.7,2.7,4c1.5,0.4,3,0.8,4.4,1.2c-1-1.4-1.9-2.9-2.8-4.4C205,61.2,203.6,60.9,202.1,60.7 M202.7,54.4
		c-1.6-0.3-3.1-0.6-4.7-0.9c0.7,1.4,1.4,2.7,2.2,4.1c1.5,0.2,3,0.5,4.5,0.8C204,57.1,203.4,55.8,202.7,54.4 M209,55.6
		c-1.2-0.2-2.5-0.5-3.7-0.7c0.7,1.4,1.4,2.7,2.1,4c1.3,0.3,2.6,0.6,4,0.9C210.6,58.5,209.8,57.1,209,55.6 M218.3,41.7
		c0,0-0.1-0.1-0.1-0.1c-0.9-1.2-2-2.3-3.2-3.1c0.3,1,0.7,2,1,3c0.8,0.6,1.7,1.1,2.4,1.8C218.4,42.6,218.3,42.1,218.3,41.7
		 M217.4,36.5c-1.2-1.4-2.6-2.7-4.2-3.8c0.2,0.6,0.4,1.3,0.5,1.9c1.4,0.9,2.7,1.8,3.8,2.9C217.6,37.2,217.5,36.8,217.4,36.5
		 M206.8,26.6c0.8,0.3,1.7,0.7,2.5,1.1c0-0.1,0-0.2-0.1-0.3c-0.9-0.6-1.7-1.1-2.6-1.6C206.7,26.1,206.7,26.3,206.8,26.6 M201.5,23.2
		c0.1,0.5,0.1,1,0.2,1.5c0.8,0.2,1.6,0.5,2.4,0.8c-0.1-0.4-0.1-0.8-0.2-1.2C203.1,23.9,202.3,23.6,201.5,23.2 M201.2,20.7
		c0.8,0.3,1.6,0.7,2.3,1.1c-0.1-0.6-0.1-1.1-0.1-1.7c-0.8-0.5-1.6-0.9-2.4-1.3C201.1,19.3,201.1,20,201.2,20.7 M198.6,19.6
		c-0.1-0.7-0.1-1.5-0.1-2.2c-1.3-0.6-2.7-1.2-4-1.7c0,0.8,0,1.7,0,2.5C195.9,18.7,197.3,19.1,198.6,19.6 M194.8,22.8
		c1.4,0.4,2.8,0.7,4.3,1.1c-0.1-0.6-0.1-1.2-0.2-1.9c-1.4-0.5-2.8-1-4.2-1.5C194.6,21.4,194.7,22.1,194.8,22.8 M189.5,21.6
		c1.1,0.2,2.1,0.5,3.2,0.7c-0.1-0.8-0.1-1.6-0.2-2.4c-1-0.3-2.1-0.5-3.1-0.8C189.4,20,189.4,20.8,189.5,21.6 M183.5,20.5
		c1.3,0.2,2.5,0.4,3.8,0.6c-0.1-0.8-0.2-1.7-0.2-2.5c-1.2-0.2-2.4-0.5-3.6-0.7C183.4,18.9,183.4,19.7,183.5,20.5 M177.2,19.7
		c1.2,0.1,2.4,0.3,3.6,0.4c0-0.8,0-1.7,0-2.5c-1.2-0.2-2.5-0.3-3.7-0.4C177.1,18.1,177.1,18.9,177.2,19.7 M170.2,19.2
		c1.6,0.1,3.1,0.2,4.7,0.3c-0.1-0.8-0.1-1.7-0.2-2.5c-1.5-0.1-3.1-0.2-4.6-0.3C170.2,17.6,170.2,18.4,170.2,19.2 M164.5,19.1
		c1.3,0,2.5,0,3.8,0.1c-0.1-0.8-0.1-1.6-0.2-2.4c-1.2,0-2.5,0-3.7,0C164.5,17.5,164.5,18.3,164.5,19.1 M156.8,19.3
		c1.4-0.1,2.8-0.2,4.2-0.2c0.2,0,0.5,0,0.7,0c0-0.8,0-1.6,0-2.4c-1.7,0-3.3,0.1-5,0.2C156.8,17.7,156.8,18.5,156.8,19.3 M151.3,19.8
		c1-0.1,2-0.2,3-0.3c0-0.8,0-1.6,0-2.4c-1,0.1-2,0.2-3,0.3C151.2,18.2,151.3,19,151.3,19.8 M148.9,20.1c0-0.8,0-1.6,0-2.5
		c-1.5,0.2-3,0.4-4.5,0.7c0,0.8,0,1.7,0,2.5C145.9,20.5,147.4,20.3,148.9,20.1 M144.8,26c1.5-0.3,3-0.5,4.4-0.7
		c-0.1-1-0.2-1.9-0.2-2.9c-1.5,0.2-3,0.4-4.5,0.7C144.6,24.1,144.7,25.1,144.8,26 M138.2,27.4c1.5-0.3,2.9-0.7,4.4-0.9
		c-0.1-1-0.2-1.9-0.2-2.9c-1.5,0.3-3,0.6-4.4,0.9C138,25.4,138.1,26.4,138.2,27.4 M133.4,28.6c0.8-0.2,1.5-0.4,2.3-0.6
		c-0.1-1-0.2-2-0.3-2.9c-0.7,0.2-1.5,0.4-2.2,0.6C133.2,26.6,133.3,27.6,133.4,28.6 M127.5,30.4c1.2-0.4,2.3-0.8,3.5-1.1
		c-0.1-1-0.2-2-0.3-2.9c-0.2,0-0.3,0.1-0.5,0.1c-1,0.3-1.9,0.6-2.9,0.9C127.3,28.4,127.4,29.4,127.5,30.4 M120.8,32.8
		c1.5-0.6,3-1.1,4.4-1.6c-0.1-1-0.2-2-0.2-3c-1.5,0.5-3,1.1-4.5,1.7C120.6,30.9,120.7,31.9,120.8,32.8 M118.3,33.9
		c-0.1-0.9-0.2-1.9-0.2-2.9c-1.1,0.5-2.2,1-3.2,1.6c0.1,0.9,0.2,1.8,0.3,2.6C116.2,34.8,117.2,34.3,118.3,33.9 M115.8,40.8
		c1.1-0.5,2.2-0.9,3.3-1.3c-0.2-1.1-0.4-2.3-0.6-3.4c-1.1,0.5-2.1,1-3.2,1.6C115.5,38.7,115.7,39.7,115.8,40.8 M113.1,42
		c-0.1-0.9-0.2-1.9-0.3-2.9c-0.8,0.5-1.6,1-2.4,1.5c0.1,0.9,0.2,1.7,0.3,2.6C111.4,42.8,112.2,42.4,113.1,42 M111.5,49.9
		c0.9-0.5,1.8-0.9,2.7-1.4c-0.3-1.4-0.6-2.8-0.8-4.3c-0.9,0.4-1.7,0.9-2.6,1.3C111,47,111.2,48.5,111.5,49.9 M106.1,59.3
		c-0.2-0.8-0.4-1.7-0.6-2.5c-1,0.8-2,1.6-2.9,2.5c0.1,0.7,0.3,1.5,0.4,2.2C104.1,60.8,105.1,60,106.1,59.3 M109.4,70.4
		c-0.5-1.3-0.9-2.7-1.3-4c-1.1,0.7-2.2,1.4-3.2,2.2c0.4,1.3,0.8,2.6,1.2,3.9C107.1,71.8,108.3,71.1,109.4,70.4 M110.4,73
		c-1.2,0.7-2.3,1.4-3.4,2.2c0.4,1.1,0.8,2.3,1.3,3.4c1.1-0.8,2.3-1.5,3.6-2.1C111.3,75.3,110.8,74.1,110.4,73 M116.8,73.9
		c-0.5-1.1-1-2.2-1.5-3.3c-0.8,0.4-1.7,0.7-2.5,1.1c0.4,1.2,0.9,2.3,1.3,3.5C115.1,74.7,116,74.3,116.8,73.9 M119.8,79.7
		c-0.6-1.1-1.2-2.3-1.8-3.5c-0.9,0.4-1.9,0.9-2.8,1.4c0.5,1.2,1.1,2.4,1.6,3.6C117.8,80.6,118.8,80.1,119.8,79.7 M123.5,86.1
		c-0.8-1.3-1.6-2.7-2.4-4.1c-1,0.5-2.1,1-3.1,1.5c0.7,1.4,1.5,2.8,2.3,4.2C121.3,87.1,122.4,86.6,123.5,86.1 M131.5,97.7
		c-0.8-1-1.5-1.9-2.2-2.9c-1.3,0.4-2.5,0.9-3.8,1.3c0.7,1,1.4,2,2.2,3C128.9,98.5,130.2,98.1,131.5,97.7 M136,104.5
		c0.3-0.1,0.7-0.2,1-0.3c-1.3-1.4-2.5-2.8-3.7-4.3c-1.3,0.4-2.6,0.9-3.9,1.4c1.2,1.5,2.4,2.9,3.6,4.3C134,105.2,135,104.9,136,104.5
		 M141.5,108.9c-0.9-0.9-1.8-1.8-2.7-2.8c-1.4,0.4-2.7,0.9-4.1,1.4c1,1.1,2,2.1,3,3.1C139,110,140.2,109.5,141.5,108.9 M144.5,114.7
		c0.7-0.3,1.5-0.6,2.2-0.9c-1.1-1-2.2-2-3.3-3c-1.3,0.5-2.5,1.1-3.8,1.7c1,1,2.1,1.9,3.2,2.8C143.4,115.1,144,114.9,144.5,114.7
		 M151.4,114.6c1.1,0.9,2.2,1.8,3.4,2.7c1.2-0.3,2.3-0.7,3.5-1c-1.2-0.9-2.3-1.9-3.5-2.9C153.6,113.8,152.5,114.2,151.4,114.6
		 M149.4,108.6c-1.2,0.4-2.3,0.9-3.5,1.3c1.1,1,2.2,2,3.4,3c1.1-0.4,2.3-0.9,3.4-1.3C151.6,110.6,150.5,109.6,149.4,108.6
		 M155.3,106.6c-1.2,0.4-2.3,0.7-3.5,1.1c1.1,1,2.2,2,3.4,3c1.1-0.4,2.2-0.7,3.3-1.1C157.4,108.7,156.4,107.7,155.3,106.6
		 M165.7,103.8c1.1,1,2.3,2.1,3.4,3.1c1.5-0.3,3.1-0.6,4.6-0.9c-1.2-1-2.4-2.1-3.5-3.2C168.7,103.1,167.2,103.4,165.7,103.8
		 M171.7,97.5c-1,0.2-2,0.4-3,0.6c0.8,0.8,1.5,1.6,2.3,2.4c1.1-0.1,2.3-0.3,3.4-0.3C173.5,99.3,172.6,98.4,171.7,97.5 M174.7,91.3
		c-1.8,0.1-3.5,0.3-5.3,0.5c1,1.1,2,2.1,3,3.1c1.7-0.3,3.4-0.5,5.1-0.6C176.5,93.3,175.6,92.3,174.7,91.3 M179,88.4
		c-0.9-0.9-1.8-1.8-2.6-2.8c-1.4,0-2.8,0-4.2,0.1c0.9,1,1.8,2.1,2.7,3.1c1.4-0.1,2.9-0.1,4.3-0.2C179.2,88.5,179.1,88.5,179,88.4
		 M183.7,85.8c-1.4-0.1-2.9-0.1-4.3-0.1c0.9,1,1.8,2,2.8,3c1.5,0,3.1,0.1,4.6,0.2c-1-1-2-2-3-3C183.7,85.8,183.7,85.8,183.7,85.8
		 M173.3,78.8c1.2,1.5,2.5,2.9,3.7,4.3c1.5,0,2.9,0,4.4,0.1c-1.3-1.4-2.6-2.9-3.8-4.4C176.2,78.8,174.7,78.8,173.3,78.8 M172.2,71.4
		c-1.5,0-2.9,0-4.4,0.1c1.1,1.6,2.2,3.2,3.4,4.7c1.4-0.1,2.9-0.1,4.3-0.1C174.4,74.6,173.3,73,172.2,71.4 M180.5,71.6
		c-1.8-0.1-3.7-0.1-5.5-0.2c1.1,1.6,2.3,3.1,3.5,4.7c1.8,0,3.6,0.1,5.4,0.2C182.7,74.8,181.6,73.2,180.5,71.6 M183.5,71.8
		c1.1,1.6,2.2,3.2,3.4,4.7c1.9,0.2,3.8,0.4,5.7,0.6c-1.3-1.6-2.6-3.2-3.8-4.9C187,72,185.3,71.9,183.5,71.8 M183.6,64.6
		c-1.6-0.1-3.2-0.2-4.7-0.2c0.9,1.6,1.9,3.2,2.9,4.7c1.2,0.1,2.4,0.1,3.5,0.2c0.5,0,1,0.1,1.5,0.1C185.7,67.9,184.6,66.3,183.6,64.6
		 M186.4,64.8c1.1,1.7,2.2,3.3,3.4,4.9c1.3,0.1,2.6,0.3,3.9,0.4c-1.1-1.6-2.2-3.3-3.2-5C189.1,65,187.7,64.9,186.4,64.8 M186.7,58.5
		c-0.1,0-0.2,0-0.2,0c-1.4-0.2-2.8-0.3-4.2-0.5c0.7,1.3,1.5,2.5,2.2,3.8c1.4,0.1,2.8,0.2,4.1,0.3C187.9,60.9,187.3,59.7,186.7,58.5
		 M189.2,58.8c0.6,1.2,1.3,2.4,2,3.5c1,0.1,2,0.2,3.1,0.4c-0.7-1.2-1.3-2.3-1.9-3.5C191.3,59.1,190.3,58.9,189.2,58.8 M188.8,51.9
		c-0.7-0.1-1.3-0.2-2-0.3c-0.4-0.1-0.8-0.1-1.3-0.2c0.7,1.5,1.4,2.9,2.1,4.4c1.1,0.1,2.1,0.3,3.2,0.4
		C190.2,54.8,189.5,53.4,188.8,51.9 M191.3,52.3c0.7,1.4,1.3,2.8,2.1,4.2c1.4,0.2,2.8,0.4,4.1,0.6c-0.7-1.3-1.4-2.7-2.1-4.1
		C194,52.8,192.7,52.6,191.3,52.3 M192.5,46.2c-0.8-0.1-1.6-0.2-2.4-0.2c-0.5-0.1-1.1-0.1-1.6-0.1c0.2,0.5,0.4,1,0.6,1.5
		c0.3,0.6,0.5,1.2,0.8,1.8c1.3,0.2,2.7,0.4,4,0.6C193.4,48.6,192.9,47.4,192.5,46.2 M199.5,47.1c-1.5-0.2-3-0.4-4.6-0.6
		c0.5,1.3,1,2.5,1.5,3.7c1.6,0.3,3.2,0.6,4.7,0.9C200.6,49.8,200,48.4,199.5,47.1 M205.6,48.2c-1.2-0.3-2.4-0.5-3.6-0.7
		c0.6,1.4,1.2,2.7,1.8,4.1c1.2,0.2,2.4,0.5,3.7,0.7C206.7,51,206.1,49.6,205.6,48.2 M213.5,50.7c-1.8-0.7-3.6-1.3-5.5-1.8
		c0.6,1.3,1.2,2.6,1.8,3.9c1.8,0.4,3.6,0.8,5.4,1.1C214.7,52.9,214.1,51.8,213.5,50.7 M217.5,45.4c0.2,0.1,0.3,0.2,0.5,0.3
		c-0.2-0.1-0.4-0.3-0.5-0.4C217.4,45.3,217.4,45.3,217.5,45.4 M211.6,41.6c0.1,0.3,0.3,0.7,0.5,1c0.6,0.3,1.3,0.5,1.9,0.8
		c-0.1-0.3-0.2-0.5-0.3-0.8C213,42.3,212.3,42,211.6,41.6 M209.2,35.2c0.4,1,0.7,2.1,1.1,3.1c0.7,0.3,1.4,0.6,2.1,1
		c-0.4-1-0.7-2.1-1-3.1C210.7,35.9,209.9,35.5,209.2,35.2 M208.1,31.9c0.8,0.3,1.6,0.6,2.3,1c-0.2-0.7-0.4-1.5-0.6-2.2
		c-0.8-0.4-1.6-0.8-2.4-1.2C207.7,30.2,207.9,31.1,208.1,31.9 M202.5,30c0.9,0.3,1.8,0.6,2.7,0.9c-0.2-0.9-0.5-1.8-0.7-2.6
		c-0.8-0.3-1.7-0.6-2.5-0.9C202.2,28.2,202.3,29.1,202.5,30 M183.8,25.7c1.4,0.2,2.7,0.5,4,0.7c-0.1-0.9-0.2-1.9-0.3-2.8
		c-1.3-0.3-2.6-0.5-3.9-0.7C183.6,23.8,183.7,24.8,183.8,25.7 M177.8,24.9c1.1,0.1,2.2,0.2,3.4,0.4c-0.1-0.9-0.2-1.9-0.2-2.8
		c-1.2-0.2-2.3-0.3-3.5-0.4C177.5,23,177.6,24,177.8,24.9 M170.7,24.4c1.6,0.1,3.3,0.2,4.9,0.3c-0.1-0.9-0.3-1.9-0.4-2.8
		c-1.6-0.1-3.2-0.2-4.8-0.3C170.5,22.5,170.6,23.4,170.7,24.4 M157.2,24.5c0.9-0.1,1.7-0.1,2.6-0.2c0.8,0,1.5,0,2.3-0.1
		c-0.1-1-0.1-1.9-0.2-2.9c-0.7,0-1.5,0-2.2,0.1c-0.9,0-1.8,0.1-2.7,0.2C157,22.6,157.1,23.6,157.2,24.5 M151.6,25c1-0.1,2-0.2,3-0.3
		c-0.1-1-0.2-1.9-0.2-2.9c-1,0.1-2,0.2-3,0.3C151.4,23.1,151.5,24.1,151.6,25 M139.3,33.6c1.4-0.3,2.8-0.6,4.2-0.8
		c0-0.1,0-0.2-0.1-0.4c-0.2-1.3-0.4-2.5-0.5-3.8c-1.4,0.3-2.9,0.5-4.3,0.9C138.7,30.8,139,32.2,139.3,33.6 M134.2,34.7
		c0.8-0.2,1.7-0.4,2.5-0.6c-0.3-1.4-0.6-2.7-0.8-4.1c-0.8,0.2-1.6,0.4-2.3,0.6C133.8,32,134,33.3,134.2,34.7 M128.3,36.4
		c1.2-0.4,2.5-0.7,3.7-1c-0.3-1.3-0.5-2.7-0.7-4c-1.2,0.3-2.4,0.7-3.6,1.1C127.9,33.7,128.1,35,128.3,36.4 M123,44.8
		c1.4-0.6,2.9-1.1,4.3-1.6c-0.3-1.3-0.6-2.6-0.9-3.9c-0.3,0.1-0.6,0.2-0.9,0.3c-1.2,0.4-2.3,0.8-3.5,1.2
		C122.4,42.1,122.7,43.4,123,44.8 M120.5,45.7c-0.4-1.4-0.7-2.7-1-4.1c-1.1,0.4-2.3,0.9-3.4,1.4c0.2,1.4,0.5,2.9,0.8,4.3
		C118.2,46.7,119.4,46.2,120.5,45.7 M118.3,53.1c1-0.4,1.9-0.8,2.9-1.3c0.4-0.2,0.7-0.3,1.1-0.5c-0.3-1-0.6-2-0.9-2.9
		c-1.2,0.5-2.5,1-3.8,1.6C117.8,51,118,52.1,118.3,53.1 M112.6,55.7c1-0.5,2-0.9,2.9-1.4c-0.3-1-0.5-2-0.8-3
		c-0.9,0.5-1.9,0.9-2.8,1.5C112.2,53.7,112.4,54.7,112.6,55.7 M110.4,56.8c-0.3-0.9-0.5-1.9-0.7-2.8c-0.6,0.3-1.1,0.7-1.6,1
		c0.2,0.9,0.4,1.8,0.6,2.7C109.3,57.5,109.8,57.1,110.4,56.8 M111.9,61.7c-0.3-0.8-0.5-1.5-0.7-2.3c-0.6,0.3-1.2,0.7-1.8,1
		c0.2,0.7,0.4,1.4,0.6,2.1C110.6,62.3,111.3,62,111.9,61.7 M112.7,64.1c-0.7,0.3-1.4,0.6-2.1,1c0.4,1.4,0.9,2.7,1.3,4.1
		c0.8-0.4,1.6-0.7,2.3-1C113.7,66.8,113.2,65.4,112.7,64.1 M119,66.2c0.2-0.1,0.4-0.2,0.6-0.2c-0.5-1.3-1.1-2.6-1.5-4
		c-1.1,0.4-2.1,0.8-3.2,1.2c0.5,1.4,1,2.7,1.5,4C117.3,66.9,118.1,66.6,119,66.2 M122.1,71.6c-0.5-1-1-2.1-1.4-3.1
		c-1.1,0.4-2.2,0.8-3.2,1.2c0.5,1.1,1,2.2,1.5,3.3C120,72.5,121,72,122.1,71.6 M124.1,77.6c0.3-0.1,0.6-0.2,0.9-0.4
		c-0.6-1.1-1.2-2.2-1.8-3.4c-1.1,0.4-2.2,0.9-3.3,1.4c0.6,1.2,1.2,2.3,1.8,3.5C122.6,78.4,123.4,78,124.1,77.6 M128.9,83.8
		c-0.9-1.4-1.7-2.8-2.6-4.2c-1.1,0.5-2.2,0.9-3.3,1.4c0.8,1.4,1.6,2.8,2.5,4.2C126.6,84.7,127.8,84.3,128.9,83.8 M130,92
		c1.2-0.4,2.5-0.8,3.7-1.2c-1.2-1.7-2.4-3.4-3.6-5.2c-1.2,0.4-2.4,0.9-3.5,1.3c0.1,0.2,0.3,0.4,0.4,0.6C128,89.1,129,90.6,130,92
		 M137.7,95.9c-0.8-1-1.6-2-2.4-3.1c-1,0.3-2.1,0.6-3.1,1c-0.2,0.1-0.4,0.1-0.6,0.2c0.7,1,1.5,2,2.3,2.9
		C135.1,96.6,136.4,96.2,137.7,95.9 M143.1,102.2c-1.2-1.3-2.4-2.7-3.6-4.1c-1.3,0.3-2.6,0.7-3.9,1c1.2,1.4,2.5,2.8,3.7,4.2
		C140.6,103,141.9,102.6,143.1,102.2 M145,104.2c-1.2,0.4-2.5,0.8-3.7,1.2c0.8,0.9,1.7,1.7,2.5,2.5c1.1-0.5,2.3-1,3.5-1.4
		C146.5,105.7,145.7,104.9,145,104.2 M151.3,102.3c-1.3,0.4-2.6,0.8-3.9,1.1c0.7,0.7,1.5,1.5,2.2,2.2c1.2-0.4,2.4-0.8,3.6-1.2
		C152.6,103.7,152,103,151.3,102.3 M158.9,100.3c-1.7,0.4-3.4,0.8-5,1.3c0.6,0.7,1.2,1.4,1.9,2c1.7-0.5,3.4-0.9,5.1-1.3
		C160.2,101.7,159.5,101,158.9,100.3 M161.9,99.6c-0.1,0-0.3,0.1-0.4,0.1c0.7,0.7,1.4,1.3,2,2c1.6-0.3,3.2-0.6,4.9-0.9
		c-0.7-0.7-1.4-1.5-2.1-2.2C164.8,99,163.3,99.3,161.9,99.6 M161.3,93.1c-1.2,0.3-2.3,0.5-3.5,0.8c-0.5,0.1-0.9,0.2-1.4,0.3
		c1,1.1,2,2.2,3,3.3c1.6-0.4,3.2-0.8,4.8-1.1C163.3,95.4,162.3,94.3,161.3,93.1 M163.8,92.6C163.8,92.7,163.8,92.7,163.8,92.6
		c1,1.2,2,2.2,3,3.3c0.9-0.2,1.9-0.4,2.8-0.6c-1-1.1-2-2.1-3-3.2C165.6,92.3,164.7,92.5,163.8,92.6 M162,86.5c-1,0.1-2,0.3-3,0.4
		c1,1.2,2,2.4,3,3.6c0.9-0.2,1.9-0.4,2.8-0.5C163.8,88.8,162.9,87.7,162,86.5 M164.6,79.3c-1.6,0.1-3.1,0.3-4.7,0.4
		c1,1.4,1.9,2.8,3,4.2c1.7-0.2,3.3-0.3,5-0.4C166.8,82.1,165.7,80.7,164.6,79.3 M166.9,79.1c1.1,1.4,2.2,2.8,3.3,4.2
		c1.3-0.1,2.6-0.1,3.9-0.1c-1.2-1.4-2.4-2.8-3.6-4.3C169.4,78.9,168.2,79,166.9,79.1 M161.8,71.8c1.1,1.6,2.2,3.2,3.3,4.8
		c1.2-0.1,2.4-0.2,3.5-0.2c-1.2-1.6-2.3-3.1-3.3-4.8C164.2,71.7,163,71.7,161.8,71.8 M161.7,65.7c-0.1-0.2-0.2-0.5-0.4-0.7
		c-1.2,0.1-2.4,0.2-3.6,0.3c0.8,1.3,1.5,2.6,2.3,3.9c1.2-0.1,2.4-0.1,3.5-0.2C163,67.9,162.4,66.8,161.7,65.7 M167.9,64.5
		c-1.4,0.1-2.8,0.1-4.2,0.2c0.8,1.4,1.6,2.8,2.5,4.1c1.5,0,2.9-0.1,4.4-0.1C169.6,67.5,168.8,66,167.9,64.5 M170.5,64.4
		c0.9,1.5,1.8,3,2.8,4.5c1.8,0,3.7,0.1,5.5,0.1c-1-1.5-1.9-3.1-2.9-4.7C174.1,64.4,172.3,64.4,170.5,64.4 M172.1,57.5
		c-1.8,0-3.6,0-5.4,0.1c0.7,1.4,1.4,2.8,2.2,4.2c1.8-0.1,3.6-0.1,5.4-0.2C173.5,60.2,172.8,58.8,172.1,57.5 M175.1,57.5
		c0.7,1.4,1.4,2.7,2.2,4c1.5,0,3.1,0,4.6,0.1c-0.7-1.3-1.5-2.6-2.1-3.9C178.1,57.7,176.6,57.6,175.1,57.5 M176.5,51.2
		c-0.1-0.1-0.1-0.2-0.1-0.4c-1.5,0-3,0-4.5,0c0.4,1,0.9,2,1.4,3.1c0.1,0.3,0.3,0.6,0.4,0.9c1.5,0,3,0.1,4.6,0.2
		C177.6,53.7,177,52.4,176.5,51.2 M178.6,50.9c0.7,1.4,1.4,2.8,2.1,4.2c1.4,0.1,2.8,0.3,4.3,0.4c0.1,0,0.2,0,0.3,0
		c-0.7-1.4-1.3-2.9-2-4.4C181.7,51.1,180.2,50.9,178.6,50.9 M180.9,45.2c-1.6-0.1-3.2-0.2-4.9-0.3c0.4,1,0.8,2,1.3,3.1
		c1.2,0,2.3,0.1,3.5,0.2c0.4,0,0.9,0.1,1.3,0.1C181.7,47.3,181.3,46.3,180.9,45.2 M184.2,40.3c-1-0.1-2-0.1-3-0.2
		c0.3,0.8,0.5,1.7,0.8,2.5c1,0.1,2,0.1,3,0.2C184.8,42,184.5,41.1,184.2,40.3 M191,41.8c-0.1-0.3-0.2-0.7-0.3-1
		c-1.4-0.1-2.8-0.2-4.2-0.4c0.3,0.8,0.5,1.7,0.8,2.5c1,0.1,2.1,0.2,3.1,0.3c0.3,0,0.7,0.1,1,0.1C191.3,42.8,191.2,42.3,191,41.8
		 M197.5,42c-0.1-0.2-0.1-0.3-0.2-0.5c-1.4-0.2-2.8-0.4-4.3-0.5c0.3,0.9,0.5,1.7,0.8,2.5c0,0,0,0,0,0c1.5,0.1,2.9,0.3,4.4,0.5
		C198,43.4,197.8,42.7,197.5,42 M203.4,42.7c-1.2-0.3-2.5-0.5-3.7-0.8c0.1,0.3,0.2,0.6,0.3,0.9c0.2,0.5,0.4,1,0.6,1.5
		c1.2,0.2,2.4,0.4,3.6,0.6C204,44.2,203.7,43.5,203.4,42.7 M204.5,38.7c0,0.1,0,0.1,0.1,0.2c0.1,0.5,0.3,0.9,0.4,1.4
		c1.4,0.4,2.8,0.8,4.1,1.2c-0.2-0.4-0.4-0.9-0.6-1.3C207.2,39.6,205.8,39.2,204.5,38.7 M203.7,36c1.2,0.4,2.4,0.7,3.5,1.1
		c-0.4-1-0.7-2.1-1.1-3.1c-0.5-0.2-0.9-0.3-1.4-0.5c-0.6-0.2-1.2-0.4-1.8-0.6C203.3,33.9,203.5,35,203.7,36 M197,34.3
		c1.4,0.3,2.8,0.6,4.2,1c-0.3-1.1-0.5-2.2-0.8-3.3c-1.4-0.5-2.9-0.9-4.4-1.3C196.4,31.9,196.7,33.1,197,34.3 M191.1,33.1
		c1.2,0.2,2.5,0.5,3.7,0.7c-0.3-1.2-0.6-2.5-0.9-3.7c-1.2-0.3-2.4-0.6-3.5-0.8C190.6,30.6,190.8,31.9,191.1,33.1 M184.6,32.1
		c1.4,0.2,2.8,0.4,4.2,0.7c-0.2-1.3-0.5-2.6-0.7-3.9c-1.4-0.3-2.8-0.5-4.1-0.7C184.2,29.4,184.4,30.7,184.6,32.1 M171.8,30.9
		c1.7,0.1,3.3,0.2,5,0.3c-0.3-1.4-0.6-2.8-0.8-4.2c-1.6-0.2-3.3-0.3-4.9-0.4C171.3,28.1,171.5,29.5,171.8,30.9 M158,31.1
		c1.6-0.1,3.3-0.2,4.9-0.2c-0.3-1.4-0.5-2.8-0.6-4.3c-1.3,0-2.6,0.1-3.9,0.2c-0.3,0-0.7,0-1,0.1C157.6,28.2,157.8,29.7,158,31.1
		 M153.5,37.7c0.3,0,0.7-0.1,1-0.1c0.8-0.1,1.6-0.1,2.4-0.2c-0.3-1.3-0.6-2.6-0.9-3.8c-1.1,0.1-2.2,0.2-3.3,0.3
		C152.9,35.1,153.2,36.4,153.5,37.7 M146.8,38.5c1.4-0.2,2.9-0.4,4.3-0.6c-0.3-1.3-0.6-2.6-0.8-3.8c-1.5,0.2-2.9,0.4-4.3,0.6
		C146.3,36,146.5,37.3,146.8,38.5 M140.8,39.6c1.3-0.3,2.6-0.5,3.9-0.7c-0.3-1.3-0.6-2.5-0.8-3.8c-1.4,0.2-2.7,0.5-4.1,0.8
		C140.1,37.1,140.4,38.3,140.8,39.6 M135.5,40.8c1-0.2,1.9-0.5,2.9-0.7c-0.4-1.3-0.7-2.5-1-3.8c-0.9,0.2-1.8,0.4-2.7,0.6
		C134.9,38.3,135.2,39.6,135.5,40.8 M133.3,41.4c-0.1-0.2-0.1-0.5-0.2-0.7c-0.2-1-0.5-2.1-0.7-3.1c-1.3,0.3-2.5,0.7-3.7,1.1
		c0.3,1.3,0.5,2.6,0.8,3.9C130.8,42.1,132,41.7,133.3,41.4 M131,47.9c1.3-0.4,2.5-0.9,3.8-1.3c-0.3-0.9-0.5-1.7-0.8-2.6
		c-1.3,0.4-2.6,0.7-3.8,1.1C130.4,46.1,130.7,47,131,47.9 M128.8,48.7c-0.3-0.9-0.5-1.8-0.8-2.8c-0.7,0.3-1.5,0.5-2.2,0.8
		c-0.7,0.2-1.4,0.5-2.1,0.8c0.3,1,0.5,1.9,0.8,2.9C126,49.8,127.4,49.2,128.8,48.7 M126.9,63.3c-0.6-1.2-1.1-2.5-1.6-3.7
		c-0.4,0.1-0.8,0.3-1.2,0.4c-1.1,0.4-2.3,0.8-3.4,1.2c0.4,1.3,0.9,2.6,1.4,3.9C123.7,64.5,125.3,63.9,126.9,63.3 M124.4,70.6
		c1.7-0.7,3.3-1.3,5-1.9c-0.5-1-1-1.9-1.4-2.9c-1.2,0.4-2.4,0.9-3.6,1.3c-0.4,0.2-0.9,0.3-1.3,0.5C123.5,68.6,124,69.6,124.4,70.6
		 M132.5,74.4c-0.6-1.1-1.2-2.2-1.8-3.3c-1,0.3-1.9,0.7-2.9,1c-0.7,0.3-1.5,0.6-2.3,0.9c0.5,1.1,1.1,2.2,1.7,3.3
		C129,75.6,130.7,75,132.5,74.4 M131,82.9c0,0.1,0.1,0.1,0.1,0.2c1.8-0.6,3.6-1.1,5.4-1.6c-0.4-0.7-0.8-1.4-1.2-2.1
		c-0.5-0.8-1-1.7-1.5-2.5c-1.8,0.6-3.5,1.2-5.3,1.9C129.3,80.1,130.1,81.5,131,82.9 M141,88.6c-1.1-1.7-2.2-3.4-3.2-5.1
		c-1.8,0.4-3.6,0.9-5.4,1.5c1.2,1.8,2.4,3.5,3.6,5.2C137.6,89.6,139.3,89.1,141,88.6 M144.9,94.3c-0.9-1.2-1.7-2.4-2.5-3.6
		c-1.6,0.5-3.3,1-4.9,1.5c0.8,1.1,1.7,2.1,2.6,3.2C141.7,95,143.3,94.6,144.9,94.3 M146.6,96.5c-1.6,0.3-3.1,0.7-4.7,1
		c1.2,1.3,2.3,2.6,3.5,3.9c1.4-0.4,2.7-0.8,4.1-1.2C148.6,99,147.6,97.8,146.6,96.5 M149.1,96c0.9,1.2,1.9,2.4,2.9,3.6
		c1.6-0.4,3.3-0.9,4.9-1.3c-1-1.1-2-2.2-2.9-3.4C152.4,95.3,150.8,95.6,149.1,96 M149.2,88.9c-1.5,0.4-3,0.7-4.4,1.1
		c0.9,1.3,1.8,2.5,2.7,3.8c1.6-0.3,3.2-0.7,4.8-1C151.2,91.5,150.2,90.2,149.2,88.9 M156.5,87.3c-1.7,0.3-3.3,0.6-4.9,1
		c1,1.3,2.1,2.6,3.1,3.9c0.7-0.2,1.5-0.4,2.2-0.5c0.9-0.2,1.8-0.4,2.6-0.7C158.5,89.8,157.5,88.6,156.5,87.3 M154.1,80.4
		c1,1.4,2.1,2.9,3.1,4.2c1-0.2,2-0.3,3.1-0.5c-1-1.4-2-2.8-2.9-4.2C156.3,80.1,155.2,80.3,154.1,80.4 M152.8,72.5
		c-1.2,0.1-2.4,0.3-3.6,0.5c1.1,1.7,2.2,3.4,3.3,5.1c1.1-0.2,2.2-0.3,3.4-0.5C154.8,75.9,153.8,74.3,152.8,72.5 M156.7,72.1
		c-0.5,0-0.9,0.1-1.4,0.1c1,1.7,2,3.4,3.1,5c1.5-0.2,3-0.3,4.4-0.5c-1.2-1.6-2.3-3.2-3.4-4.9C158.5,72,157.6,72.1,156.7,72.1
		 M155.4,65.6c-1.2,0.1-2.4,0.3-3.6,0.5c0.6,1.2,1.3,2.5,2,3.7c0.2,0,0.4-0.1,0.6-0.1c1.1-0.1,2.2-0.2,3.3-0.3
		C156.9,68.1,156.1,66.9,155.4,65.6 M158,58.3c-1,0.1-2,0.3-3,0.4c-0.2,0-0.5,0.1-0.7,0.1c0.7,1.3,1.4,2.6,2.1,3.9
		c1.2-0.1,2.4-0.3,3.6-0.4C159.3,61,158.6,59.6,158,58.3 M161.6,51.5c-1.3,0.1-2.6,0.3-3.9,0.5c0.4,1.1,0.9,2.3,1.4,3.4
		c1.3-0.2,2.7-0.3,4-0.4C162.6,53.9,162.1,52.7,161.6,51.5 M163.9,51.3c0.5,1.2,1,2.4,1.6,3.6c1.8-0.1,3.6-0.1,5.3-0.2
		c-0.6-1.3-1.2-2.5-1.7-3.8C167.3,51,165.6,51.1,163.9,51.3 M166.7,44.8c-1.7,0-3.5,0.1-5.2,0.1c0.4,1.2,0.9,2.5,1.3,3.7
		c1.7-0.2,3.4-0.3,5.1-0.4C167.5,47,167.1,45.9,166.7,44.8 M169.5,44.8c0.4,1.1,0.8,2.2,1.2,3.3c1.5-0.1,3-0.1,4.4-0.1
		c-0.4-1-0.8-2.1-1.2-3.1C172.5,44.8,171,44.8,169.5,44.8 M172.3,39.7c-1.5,0-2.9,0-4.4,0c0.2,0.8,0.5,1.5,0.7,2.3
		c1.5,0,3,0,4.4,0.1C172.7,41.3,172.5,40.5,172.3,39.7 M174.2,39.8c0.3,0.8,0.5,1.6,0.8,2.4c1.6,0.1,3.3,0.1,4.9,0.2
		c-0.3-0.8-0.5-1.6-0.8-2.5C177.5,39.9,175.9,39.8,174.2,39.8 M167.1,36.9c1.5,0,2.9,0,4.4,0c-0.3-1.2-0.6-2.5-0.9-3.7
		c-1.4,0-2.9-0.1-4.3-0.1C166.5,34.4,166.8,35.6,167.1,36.9 M160.6,42.2c1.7-0.1,3.4-0.1,5.1-0.2c-0.2-0.8-0.5-1.5-0.7-2.3
		c-1.7,0-3.4,0.1-5.1,0.2C160.2,40.7,160.4,41.5,160.6,42.2 M154.7,42.6c1.2-0.1,2.4-0.2,3.6-0.3c-0.2-0.7-0.4-1.5-0.7-2.2
		c-0.3,0-0.6,0-0.9,0.1c-0.9,0.1-1.8,0.2-2.6,0.3C154.3,41.2,154.5,41.9,154.7,42.6 M148.2,43.5c1.4-0.2,2.8-0.4,4.2-0.6
		c-0.2-0.7-0.4-1.5-0.6-2.2c-1.4,0.2-2.9,0.4-4.3,0.6C147.7,42,148,42.8,148.2,43.5 M142.4,44.6c1.2-0.3,2.4-0.5,3.6-0.8
		c-0.2-0.7-0.4-1.5-0.6-2.3c-1.3,0.2-2.5,0.4-3.7,0.7C141.8,43.1,142.1,43.9,142.4,44.6 M140,45.2c-0.3-0.8-0.6-1.6-0.8-2.4
		c-1,0.2-2,0.5-3,0.7c0.2,0.8,0.5,1.7,0.7,2.5C137.9,45.7,139,45.5,140,45.2 M139.1,52.8c1.2-0.3,2.3-0.6,3.5-0.8
		c-0.6-1.4-1.2-2.8-1.7-4.2c-1.1,0.3-2.2,0.6-3.3,0.9C138.1,50,138.6,51.4,139.1,52.8 M133.1,54.4c1.3-0.4,2.6-0.7,3.9-1.1
		c-0.5-1.4-1-2.7-1.4-4.1c-1.3,0.4-2.6,0.8-3.8,1.3C132.2,51.8,132.6,53.1,133.1,54.4 M130.9,55c-0.5-1.2-0.9-2.5-1.3-3.7
		c-1.4,0.5-2.8,1.1-4.2,1.7c0.4,1.1,0.8,2.3,1.2,3.4C128.1,55.8,129.5,55.4,130.9,55 M133.4,61.2c-0.5-1.2-1-2.4-1.5-3.7
		c-1.4,0.4-2.8,0.9-4.3,1.3c0.5,1.2,1,2.5,1.6,3.7C130.6,62.1,132,61.6,133.4,61.2 M135.9,66.7c-0.5-1-0.9-2-1.4-3
		c-1.4,0.4-2.8,0.9-4.2,1.4c0.5,1,0.9,2,1.4,2.9C133.1,67.5,134.5,67.1,135.9,66.7 M138.8,72.5c-0.6-1.1-1.2-2.2-1.7-3.3
		c-1.4,0.4-2.8,0.8-4.1,1.2c0.6,1.1,1.1,2.2,1.7,3.3C136.1,73.2,137.4,72.8,138.8,72.5 M144.4,82c-1.4,0.3-2.9,0.6-4.3,0.9
		c1,1.7,2.1,3.3,3.2,5c1.4-0.4,2.9-0.8,4.3-1.2C146.5,85.2,145.5,83.6,144.4,82 M151.6,80.8c-1.6,0.2-3.2,0.5-4.9,0.8
		c1,1.5,2.1,3.1,3.2,4.6c1.6-0.4,3.2-0.7,4.9-1.1C153.7,83.7,152.7,82.3,151.6,80.8 M142.3,74.4c1,1.7,1.9,3.4,3,5
		c1.6-0.3,3.2-0.6,4.8-0.9c-1.1-1.7-2.2-3.3-3.2-5.1C145.3,73.7,143.8,74,142.3,74.4 M144.9,70.1c-0.5-0.8-0.9-1.7-1.4-2.5
		c-1.4,0.3-2.9,0.6-4.3,1c0.6,1.1,1.2,2.3,1.8,3.4c1.5-0.4,3-0.7,4.4-1C145.2,70.7,145,70.4,144.9,70.1 M145.7,67.1
		c0.6,1.1,1.2,2.2,1.9,3.3c0,0.1,0.1,0.1,0.1,0.2c1.2-0.2,2.5-0.4,3.7-0.6c-0.7-1.2-1.3-2.4-1.9-3.6C148.2,66.6,147,66.9,145.7,67.1
		 M152,59.2c-1.1,0.2-2.2,0.4-3.3,0.7c0.6,1.2,1.2,2.4,1.8,3.7c1.1-0.2,2.1-0.3,3.2-0.5c0.1,0,0.2,0,0.2,0c-0.2-0.4-0.4-0.8-0.7-1.2
		C152.9,61,152.4,60.1,152,59.2 M155.1,52.4c-1.2,0.2-2.4,0.4-3.6,0.6c0.5,1.1,1,2.2,1.5,3.3c1.3-0.2,2.6-0.4,3.9-0.6
		c-0.5-1.1-0.9-2.2-1.4-3.4C155.4,52.3,155.3,52.4,155.1,52.4 M148.2,50.8C148.3,50.8,148.3,50.8,148.2,50.8c-0.5-1.4-1-2.9-1.5-4.3
		c-1.2,0.2-2.3,0.4-3.5,0.7c0.5,1.4,1.1,2.9,1.7,4.3C146,51.2,147.1,51,148.2,50.8 M147.6,57.4c1.1-0.2,2.2-0.5,3.2-0.7
		c-0.5-1.1-1-2.2-1.5-3.3c-1.1,0.2-2.2,0.4-3.3,0.6C146.5,55.1,147,56.3,147.6,57.4 M141.6,58.8c1.2-0.3,2.4-0.6,3.7-0.9
		c-0.5-1.1-1-2.3-1.5-3.4c-1.2,0.3-2.4,0.5-3.6,0.8C140.6,56.5,141.1,57.7,141.6,58.8 M139.5,59.4c-0.5-1.2-1-2.3-1.5-3.5
		c-1.3,0.3-2.7,0.7-4,1.1c0.5,1.2,1,2.4,1.5,3.6C136.8,60.1,138.1,59.8,139.5,59.4 M144.4,64.6c1.3-0.3,2.5-0.5,3.8-0.7
		c-0.6-1.2-1.2-2.3-1.7-3.5c-1.2,0.3-2.5,0.6-3.7,0.9C143.3,62.4,143.8,63.5,144.4,64.6 M140.6,61.9c-1.4,0.4-2.7,0.8-4.1,1.2
		c0.5,1,0.9,2.1,1.4,3.1c1.4-0.4,2.8-0.7,4.2-1C141.7,64,141.1,62.9,140.6,61.9 M156.7,49.3c1.3-0.2,2.5-0.4,3.8-0.5
		c-0.5-1.3-0.9-2.5-1.4-3.8c-1.1,0.1-2.2,0.1-3.3,0.2c-0.2,0-0.3,0-0.5,0.1C155.8,46.6,156.3,48,156.7,49.3 M153.2,45.5
		c-1.4,0.2-2.8,0.4-4.2,0.6c0.5,1.4,1,2.9,1.5,4.3c1.3-0.2,2.7-0.5,4-0.7C154.1,48.3,153.6,46.9,153.2,45.5 M138.8,80.8
		c1.4-0.3,2.8-0.7,4.2-1c-1-1.6-2-3.3-2.9-4.9c-1.4,0.4-2.8,0.7-4.1,1.1c0.7,1.2,1.3,2.3,2,3.5C138.3,79.9,138.6,80.4,138.8,80.8
		 M159.3,37.2c1.7-0.1,3.3-0.2,5-0.2c-0.3-1.3-0.6-2.5-0.9-3.8c-1.7,0-3.3,0.1-5,0.2C158.7,34.6,159,35.9,159.3,37.2 M177.4,33.6
		c-1.7-0.1-3.4-0.2-5-0.3c0.3,1.2,0.6,2.4,1,3.6c1.7,0,3.3,0.1,5,0.2C178,35.9,177.7,34.7,177.4,33.6 M182.6,34.1
		c-1-0.1-2.1-0.2-3.1-0.3c0.3,1.1,0.6,2.3,0.9,3.4c1,0.1,2,0.1,3,0.2C183.1,36.3,182.8,35.2,182.6,34.1 M189.3,35.2
		c-1.4-0.3-2.9-0.5-4.3-0.7c0.2,1,0.4,2,0.7,3c1.4,0.1,2.8,0.2,4.2,0.4C189.7,37,189.5,36.1,189.3,35.2 M198.6,39
		c1.3,0.2,2.6,0.5,3.9,0.7c-0.2-0.6-0.3-1.2-0.5-1.8c-1.3-0.4-2.7-0.7-4.1-1.1C198.1,37.6,198.4,38.3,198.6,39 M195.6,36.4
		c-1.3-0.3-2.6-0.5-3.9-0.8c0.2,0.9,0.4,1.7,0.6,2.5c1.3,0.1,2.7,0.3,4,0.5C196,37.9,195.8,37.1,195.6,36.4 M166.4,61.9
		c-0.6-1.2-1.3-2.4-1.9-3.7c-0.1-0.2-0.2-0.3-0.2-0.5c-1.4,0.1-2.7,0.2-4.1,0.3c0.6,1.4,1.3,2.8,2,4.2C163.7,62,165,61.9,166.4,61.9
		 M119.9,58.6c1.5-0.5,2.9-1.1,4.4-1.6c-0.4-1.1-0.8-2.1-1.2-3.2c-1.4,0.6-2.7,1.2-4.1,1.8C119.3,56.7,119.5,57.6,119.9,58.6
		 M115.1,60.5c0.7-0.3,1.4-0.6,2.1-0.8c-0.3-0.9-0.6-1.8-0.9-2.8c-1,0.5-2,1-3,1.5c0.2,0.8,0.5,1.7,0.8,2.5
		C114.4,60.7,114.8,60.6,115.1,60.5 M151.8,27.3c0.2,1.4,0.3,2.8,0.5,4.2c1.1-0.1,2.1-0.2,3.2-0.3c-0.3-1.4-0.5-2.8-0.7-4.2
		C153.9,27.1,152.8,27.2,151.8,27.3 M165.1,26.6c0.2,1.4,0.4,2.8,0.6,4.2c1.4,0,2.8,0,4.3,0.1c-0.3-1.4-0.5-2.8-0.8-4.2
		C167.9,26.6,166.5,26.6,165.1,26.6 M178.1,27.3c0.2,1.4,0.5,2.8,0.8,4.1c1.1,0.1,2.1,0.2,3.2,0.3c-0.3-1.3-0.5-2.7-0.7-4.1
		C180.3,27.5,179.2,27.4,178.1,27.3 M210.5,44.8c-1.5-0.6-3.1-1-4.6-1.5c0.2,0.7,0.5,1.4,0.8,2.1c1.6,0.4,3.2,0.8,4.8,1.3
		C211.2,46.2,210.9,45.5,210.5,44.8 M215.5,46.9c-0.6-0.3-1.2-0.6-1.8-0.9c0.3,0.6,0.6,1.3,0.9,1.9c0.6,0.3,1.3,0.6,1.9,0.9
		C216.1,48.3,215.8,47.6,215.5,46.9 M186.1,45.6c-1-0.1-2-0.2-3-0.2c0.4,1.1,0.8,2.1,1.2,3.1c1,0.1,2.1,0.2,3.1,0.4
		c-0.1-0.2-0.2-0.5-0.3-0.7C186.8,47.3,186.4,46.5,186.1,45.6 M172.6,89c-0.5-0.5-0.9-1.1-1.4-1.6c-0.5-0.5-0.9-1.1-1.3-1.6
		c-1.7,0.1-3.5,0.2-5.2,0.4c0.9,1.1,1.8,2.3,2.8,3.4C169.1,89.3,170.8,89.1,172.6,89 M121.1,34.9c0.2,1.2,0.4,2.4,0.6,3.6
		c1.5-0.5,2.9-1,4.4-1.5c-0.2-1.3-0.4-2.6-0.6-3.9C124,33.7,122.5,34.3,121.1,34.9 M145,28.2c0.2,1.4,0.4,2.8,0.6,4.2
		c1.5-0.2,2.9-0.4,4.4-0.6c-0.2-1.4-0.4-2.8-0.6-4.2C148,27.8,146.5,28,145,28.2 M164.6,21.4c0.1,0.9,0.1,1.9,0.2,2.8
		c1.4,0,2.7,0,4.1,0.1c-0.1-0.9-0.3-1.9-0.4-2.8C167.2,21.4,165.9,21.4,164.6,21.4 M190.2,24.2c-0.2,0-0.4-0.1-0.6-0.1
		c0.1,0.9,0.2,1.9,0.3,2.8c0.9,0.2,1.9,0.4,2.8,0.6c0.2,0,0.4,0.1,0.5,0.1c-0.2-1-0.3-1.9-0.5-2.9C192,24.6,191.1,24.4,190.2,24.2
		 M195,25.3c0.1,1,0.3,1.9,0.5,2.9c1.4,0.3,2.9,0.7,4.4,1.1c-0.2-0.9-0.3-1.9-0.5-2.8C197.9,26,196.5,25.6,195,25.3 M218,54.5
		c0.2,0,0.4,0.1,0.6,0.3c0-0.5,0.1-1.1,0.1-1.6c-0.7-0.4-1.4-0.7-2-1.1C217,52.9,217.4,53.7,218,54.5
		C217.9,54.5,217.9,54.5,218,54.5 M180.2,94.1c1.5-0.1,3.1,0,4.6,0.1c-1-1-2.1-2-3.1-3c-1.5,0-3,0-4.5,0.1
		C178.2,92.2,179.1,93.1,180.2,94.1C180.1,94.1,180.2,94.1,180.2,94.1 M183.3,99.9c-1.2-1.1-2.4-2.2-3.6-3.3
		c-1.7,0.1-3.4,0.3-5.1,0.5c1.1,1,2.1,1.9,3.2,2.9C179.7,99.9,181.5,99.8,183.3,99.9 M161.2,108.9c1.7-0.5,3.4-0.9,5.2-1.4
		c-1.1-1-2.2-2-3.3-3c-0.7,0.2-1.4,0.4-2,0.5c-1,0.3-2.1,0.6-3.1,0.9C158.9,106.9,160,107.9,161.2,108.9
		C161.1,108.9,161.2,108.9,161.2,108.9 M148.2,119.6c1.3-0.5,2.5-0.9,3.8-1.4c-1.1-0.8-2.1-1.7-3.2-2.6c-1.2,0.5-2.6,0.9-4,1.4
		C145.9,117.9,147,118.7,148.2,119.6 M124.2,94c1.2-0.5,2.4-0.9,3.7-1.3c-1.1-1.6-2.2-3.2-3.2-4.8c-1.1,0.5-2.2,1.1-3.3,1.7
		c0.1,0.1,0.1,0.2,0.2,0.3C122.4,91.3,123.3,92.7,124.2,94 M104.1,65.9c1-0.7,2.1-1.4,3.2-2c-0.2-0.6-0.3-1.2-0.5-1.8
		c-1.1,0.7-2.1,1.5-3.1,2.3C103.9,64.9,104,65.4,104.1,65.9 M100,69.7c0.5-0.7,1.1-1.3,1.7-1.9c-0.1-0.4-0.2-0.8-0.4-1.3
		c-0.6,0.6-1.2,1.2-1.7,1.9c0.1,0.1,0.2,0.2,0.2,0.4C99.9,69.1,100,69.4,100,69.7 M101.6,52.9c0.2,1.1,0.3,2.2,0.5,3.4
		c0.9-0.8,1.9-1.6,2.9-2.4c-0.2-1.3-0.4-2.5-0.6-3.8C103.4,50.9,102.5,51.9,101.6,52.9 M106.7,48.2c0.2,1.3,0.5,2.6,0.7,4
		c0.5-0.3,1.1-0.7,1.6-1c-0.3-1.4-0.5-2.7-0.7-4.1C107.8,47.4,107.3,47.8,106.7,48.2 M216.5,64.1c0.2,0.2,0.3,0.4,0.5,0.7
		c0-0.2,0.1-0.3,0.1-0.5C216.9,64.2,216.7,64.1,216.5,64.1 M217.6,61.6c0.2-0.9,0.3-1.8,0.4-2.7c-0.3-0.6-0.7-1.2-1-1.8
		c-1.8-0.3-3.7-0.6-5.5-1c0.8,1.5,1.7,3,2.6,4.5C215.3,60.9,216.5,61.2,217.6,61.6 M208,86.8c-1.7-1.6-3.3-3.2-4.9-4.9
		c-1.4-0.3-2.8-0.7-4.2-0.9c1.3,1.5,2.7,2.9,4.1,4.3C204.7,85.7,206.3,86.2,208,86.8 M206.8,89C206.8,89,206.8,89,206.8,89
		C206.7,89,206.8,89,206.8,89C206.8,89,206.8,89,206.8,89 M201.8,96.2c0.1-0.1,0.2-0.2,0.2-0.3c-1.2-1-2.4-2.1-3.6-3.2
		c-1.5-0.2-3.1-0.5-4.6-0.7c1.6,1.4,3.3,2.7,5,4C199.8,96.1,200.8,96.2,201.8,96.2 M183,112.3c-2.3-1.1-4.4-2.5-6.4-4
		c-1.7,0.2-3.3,0.4-5,0.7c1.4,1.2,2.9,2.3,4.4,3.4C178.3,112.1,180.7,112,183,112.3 M171,119.2c-1.4-0.8-2.8-1.7-4.1-2.7
		c-1.2,0.3-2.4,0.6-3.6,0.9c1.2,0.9,2.4,1.8,3.6,2.7C168.3,119.8,169.7,119.4,171,119.2 M151,124.5c-1.1-0.7-2.1-1.4-3.1-2.1
		c-0.5,0.2-1.1,0.4-1.6,0.7c1.1,0.7,2.1,1.4,3.2,2.1C149.9,125,150.5,124.7,151,124.5 M154.2,128.2
		C154.2,128.2,154.2,128.2,154.2,128.2c0.7-0.2,1.3-0.4,1.9-0.6c-0.7-0.4-1.4-0.8-2.1-1.2c-0.6,0.2-1.3,0.4-1.9,0.5
		C152.8,127.3,153.5,127.8,154.2,128.2 M139.5,123.9C139.5,123.9,139.5,124,139.5,123.9c0.7-0.4,1.4-0.9,2.2-1.3
		c-1.2-0.9-2.5-1.8-3.7-2.7c-0.8,0.5-1.6,1.1-2.3,1.7C136.9,122.5,138.2,123.2,139.5,123.9 M118.1,96.9c1.2-0.7,2.4-1.3,3.7-1.9
		c-0.9-1.4-1.8-2.8-2.6-4.2c-1.2,0.7-2.4,1.5-3.5,2.3c0.6,1,1.2,1.9,1.9,2.8C117.6,96.3,117.8,96.6,118.1,96.9 M101.8,47.6
		c-0.2,0.7-0.4,1.4-0.6,2.1c0,0.1,0,0.3,0,0.4c0.9-1,1.8-1.8,2.8-2.7c-0.1-0.6-0.1-1.3-0.2-1.9C103.2,46.2,102.5,46.9,101.8,47.6
		 M109.7,32.1c0,0.3,0,0.5,0.1,0.8c0.9-0.6,1.7-1.1,2.6-1.6c0-0.5,0-1,0-1.6C111.4,30.4,110.5,31.2,109.7,32.1 M143.1,9.8
		c0.2-0.7,0.3-1.5,0.5-2.2c-1.7,0.3-3.4,0.7-5,1.2c-0.1,0.7-0.2,1.4-0.3,2.1C139.9,10.5,141.5,10.1,143.1,9.8 M139.9,12.9
		c-0.6,0.2-1.3,0.3-1.9,0.5c-0.1,1.3-0.2,2.5-0.2,3.8c1.5-0.3,3-0.6,4.5-0.9c0.1-1.3,0.2-2.7,0.4-4
		C141.7,12.5,140.8,12.7,139.9,12.9 M166.6,10.3c-0.7,0-1.3,0-2-0.1c-0.1,1.4-0.2,2.8-0.2,4.1c1.2,0,2.4,0,3.6,0c0-1.4,0-2.7,0.1-4
		C167.6,10.4,167.1,10.3,166.6,10.3 M164.8,7.9c1.1,0,2.3,0.1,3.5,0.1c0.1-0.6,0.2-1.3,0.3-1.9C167.4,6,166.2,6,165.1,6
		C165,6.6,164.9,7.2,164.8,7.9 M146.9,126.5c0.1,0,0.1-0.1,0.2-0.1c-1.1-0.7-2.2-1.5-3.3-2.2c-0.6,0.3-1.1,0.5-1.7,0.8
		C143.7,125.5,145.3,126,146.9,126.5 M121.6,113.9c1.1,0.8,2.2,1.6,3.3,2.3c-0.9-0.9-1.9-1.8-2.7-2.7
		C121.9,113.7,121.7,113.8,121.6,113.9 M115.9,102.3c0.6,0.9,1.3,1.8,1.9,2.6c0.7-0.6,1.5-1.2,2.3-1.8c-0.9-1-1.7-2.1-2.5-3.2
		c-0.8,0.5-1.5,1-2.2,1.6C115.5,101.8,115.7,102.1,115.9,102.3 M114.9,108c0.4-0.5,0.9-1,1.3-1.5c-0.7-0.9-1.4-1.9-2.1-2.9
		c-0.2-0.2-0.3-0.5-0.5-0.7c-0.6,0.5-1.2,1.1-1.8,1.7C112.8,105.8,113.8,106.9,114.9,108 M107,97.3c0.7-0.7,1.4-1.3,2.1-1.9
		c-0.7-1.3-1.5-2.7-2.2-4c-0.6,0.6-1.3,1.3-1.8,2C105.6,94.7,106.3,96,107,97.3 M104,90.8c0.5-0.6,1.1-1.3,1.7-1.9
		c-0.2-0.5-0.5-0.9-0.7-1.4c-0.3-0.7-0.7-1.4-1-2.1c-0.5,0.5-0.9,1-1.3,1.5C103,88.2,103.5,89.5,104,90.8 M158,2.8
		c-0.1,0.3-0.1,0.7-0.2,1c1.9-0.1,3.7-0.1,5.5-0.1c0.1-0.4,0.2-0.8,0.3-1.3C161.8,2.5,159.9,2.6,158,2.8 M165.5,2.4
		c-0.1,0.4-0.1,0.9-0.2,1.3c1.2,0,2.5,0.1,3.8,0.1c0.1-0.4,0.2-0.9,0.4-1.3C168.2,2.4,166.9,2.4,165.5,2.4 M171.3,2.6
		c-0.1,0.4-0.2,0.9-0.2,1.3c1.3,0.1,2.6,0.2,4,0.3c0.1,0,0.3,0,0.4,0c0.1-0.4,0.2-0.9,0.3-1.3C174.2,2.9,172.7,2.7,171.3,2.6
		 M184,4.6c0,0.3-0.1,0.7-0.1,1c1.3,0.3,2.6,0.5,3.9,0.9c0.1-0.2,0.2-0.5,0.3-0.7C186.8,5.3,185.4,4.9,184,4.6 M190,6.4
		c0,0.2-0.1,0.4-0.1,0.6c1,0.3,2.1,0.6,3.1,0.9c0-0.1,0-0.1,0-0.2C192,7.3,191,6.8,190,6.4 M218,28.9c13.5,40.6-16.4,86.3-56,99.4
		c9.3-1.3,18.2-4.4,26.1-10c9.6-6.8,18.2-16.9,24.1-26.9c6.1-10.2,8.6-22,9.4-33.7C222.2,48.6,222.8,37.2,218,28.9 M328.7,207.3
		c3.4,1.8,7,3.3,10.4,5.3c0,0,0,0,0,0c12.1,0.4,22.7-15.9,18.9-27c-4.3-3.9-8.9-7.9-13-12.1c0.1,1.9-0.1,3.9-0.3,5.7
		c-0.6,5.5-2.7,11-6.3,15.3c-4.1,5-10.5,8.4-17,8.9C323.9,204.6,326.3,206,328.7,207.3 M421.2,289.8c-0.5,13.3-8.7,21.6-21.2,24.9
		c-14.7,3.9-31.1,3.6-45.9,0.3c-34-5.3-63.7-26.8-87.3-50.8c-27.5-27.9-49.7-60.4-76.7-88.8c-8.1-8.5-16.9-15.7-27.3-21.3
		c-10-5.4-21.6-11.5-33.2-11c-0.2,0-0.3-0.1-0.5-0.1c-7.5-0.4-15.4-0.3-20.2,6.4c-4.1,5.7-4.8,13.3-4.8,20
		c-0.1,15.4,3.9,30.5,8.7,45.1c4.7,14.1,10.2,27.9,14.1,42.2c2.4,8.8,7,22-3,27.8c-9,5.2-19.3-0.2-27.1-5
		c-10.4-6.3-19.5-14.4-28-22.9c-8.3-8.4-16.1-17.4-24.1-26.1c-4.3-4.6-8.6-9.2-13.2-13.6c-5.2-5-13.8-12.6-19.8-3.9
		c-4.4,6.4-4.3,16.6-4.3,24c0,7.9,0.9,15.8,2.5,23.5c1.7,8.3,4.2,16.4,7.4,24.2c2.8,7,7.1,13.7,9,20.9c0.2,0.7-0.2,1.4-1,1.3
		c-1.7-0.3-2.8-0.8-3.8-2c-0.4,0.2-0.9,0.3-1.1-0.2C9.9,286.6,3.2,266.5,1.2,245.6c-1.2-12.7-3.6-36.3,10.6-43.4
		c6.7-3.3,13.7-0.2,19.1,4c7.3,5.7,13.7,12.8,20.1,19.5c14.2,14.7,28.1,30,44.5,42.4c4.8,3.6,28.7,20.9,27.6,4.2
		c-0.3-3.8-1.6-7.7-2.8-11.4c-2.9-9.3-6.2-18.5-9.3-27.8c-6.9-20.8-14.3-43-14.4-65.1c0-8.1,1.1-16.9,5.9-23.7
		c4.8-6.9,12.8-9.9,21-10.3c25.1-1.3,48,15,65.7,31c22.2,20,40.7,43.8,59.5,66.9c7.9,9.7,15.8,19.5,24.5,28.6
		c11.5,11.9,25.5,21.7,39.9,29.7c15.1,8.4,31.5,15.1,48.6,18.1c11.9,2.1,25.1,2.8,36.6-1.6c8.5-3.3,15.2-10,14.9-19.6
		c-0.3-7.1-2.9-14.4-5.2-21c-3-8.6-6.8-16.9-11.5-24.7c-4-6.7-8.8-13-14.8-17.9c-3.4,5.4-16.4,13.1-18.5,2.9
		c-5.9-3.3-11.7-6.4-17.8-9.4c-4.6,1.7-8.7,1.4-9.7-3.7c-3.3-1.4-6.4-3.2-9.5-4.8c-3.1-1.7-6.4-3.3-9.3-5.3c-2-0.3-3.9-0.8-5.7-1.7
		c-0.2-0.1-0.3-0.2-0.4-0.4c-17.8-9.9-35.4-20-53.5-29.5c-18.4-9.7-37.1-19.1-55.3-29.3c-0.3-0.2-0.5-0.5-0.5-0.8c0,0-0.1,0-0.1,0
		c-0.2,0.5-0.7,0.8-1.4,0.5c-8-3.2-16.7-7.2-23.9-11.9c-6.4,1.1-13.1,1.2-19.5,0.8c-0.9,0-1.8,0-2.7,0c-0.5,0-0.7-0.4-0.8-0.8
		c-8.8-0.8-17.3-4.9-24.9-9.2c-6.9-3.9-13.4-8.7-18.4-14.8c-11.7-14.1-15-36.5-11.8-54.2c0.2-1.3,0.5-2.6,0.8-3.8
		c0-0.1,0-0.2,0.1-0.3c2.3-8.9,6.6-16.5,12.4-23.1c0,0,0-0.1,0-0.1c1.3-2.2,3.2-4,5.4-5.6c0.5-0.5,1.1-1,1.7-1.5
		c0.1-0.2,0.3-0.4,0.5-0.4c2.8-2.4,5.8-4.7,8.9-6.8c3-2,6.2-3.8,9.5-5.2c0.1-0.2,0.1-0.3,0.2-0.5c0.2-0.7,1.1-0.7,1.6-0.2
		c12.4-4.9,26.5-5.9,39.6-3.8c8,1.3,15.3,3.7,22.1,8.3c5,3.4,10.7,7.8,14.2,13c0.2,0,0.3,0.1,0.5,0.3c3.4,2.9,5.5,6.6,6.8,10.6
		c0.2,0.1,0.4,0.3,0.5,0.5c4,8.3,6.5,17.8,7.1,27.4c3.5,3.8,7.2,7,11.3,10.3c2.1,1.7,7.4,5,7.9,8c16.9,12.9,32.4,28.5,47.8,43.2
		c15.4,14.6,31,29.2,45.4,44.8c0.1,0,0.1,0.1,0.2,0.2c0.8,0.8,1.4,1.8,1.8,2.9c4.4,3.5,8.6,7.6,12.7,11.7c4.6-0.2,6.9,4.5,7.3,8.6
		c0,0,0,0,0,0c3,2.8,5.8,5.9,8.7,8.8c2.4,2.4,4.9,4.6,7.3,7.1c2-1.4,4.2,2.5,4.6,4.4c0.5,2.2,0.3,4.5-0.3,6.8
		c5.1,1.8,8.1,7,11.1,11.2c4.6,6.4,9,12.9,12.9,19.8C415.6,260.7,421.7,275.3,421.2,289.8"/>
</g>
</svg>
