<?xml version="1.0" encoding="utf-8"?>
<!-- Generator: Adobe Illustrator 24.0.1, SVG Export Plug-In . SVG Version: 6.00 Build 0)  -->
<svg version="1.1" id="Calque_1" xmlns="http://www.w3.org/2000/svg" xmlns:xlink="http://www.w3.org/1999/xlink" x="0px" y="0px"
	 viewBox="0 0 306 239.8" style="enable-background:new 0 0 306 239.8;" xml:space="preserve">
<style type="text/css">
	.st0{clip-path:url(#SVGID_2_);fill:#91D900;}
</style>
<g>
	<defs>
		<rect id="SVGID_1_" width="306" height="239.8"/>
	</defs>
	<clipPath id="SVGID_2_">
		<use xlink:href="#SVGID_1_"  style="overflow:visible;"/>
	</clipPath>
	<path class="st0" d="M433.4,433.7c-0.4-1.1-1.5-2.2-2.1-3.2c-1.1-1.7-2.3-3.4-3.4-5.1c-2.7-4.1-5.5-8.2-8.2-12.4
		c-11-16.5-22.1-32.9-33.3-49.2c-22.4-32.7-45.3-65-68.7-97c-20.4-27.8-41-55.5-63.3-81.8c-3.1,8.1-11.9,14.2-19.2,18
		c-1.6,0.8-3.4,1.7-5.2,2.1c28.3,35.3,58,69.5,87.1,104.1c29.3,34.8,59.3,68.9,91,101.5c3.9,4,7.9,8.1,11.9,12
		c1.8,1.8,3.6,3.6,5.3,5.3c1.9,1.9,4.3,5.5,6.7,6.7c0.5,0.4,0.9,0.9,1.4,1.3C434,435.2,434,434.4,433.4,433.7 M401.7,379.9
		c14.2,11.4,28,23.3,42.8,33.9c3.5,2.5,7,4.9,10.6,7.2c3.7,2.4,8.2,6.2,12.5,7.6c1.7,0.6,1.5,2.1,1.3-0.9c-0.2-1.9-0.9-2.5-2.1-3.9
		c-1.4-1.6-2.8-3.2-4.3-4.7c-3.1-3.3-6.4-6.4-9.6-9.5c-24.1-23.6-46.9-48.4-70.5-72.4c-11.6-11.8-23.4-23.5-35.6-34.8
		c13.2,18.6,26.3,37.3,39.2,56c4.9,7.1,9.7,14.2,14.6,21.4C400.8,379.6,401.3,379.6,401.7,379.9 M244.7,171
		c-0.4,0.7-0.8,1.3-1.2,1.8c-3.2,4.2-7.8,7.7-11.9,11c-1,0.8-2,1.6-3,2.4c2.1,2.9,4.4,5.9,6.2,9c0.9,1.6,1.4,3.8-0.6,4.9
		c-1.8,0.9-3.6-0.1-4.9-1.3c-2.5-2.4-4.7-5.4-6.3-8.5c-1.6,1-3.2,1.9-4.9,2.6c-0.2,0.1-0.3,0.1-0.5,0.2c2.7,3.2,6.1,8.9,9.4,9.5
		c2.6,0.5,5.5-1.4,7.6-2.6c7.7-4.2,17.1-11,18.1-20.4c-1.6-1.4-2.9-3.2-4.3-4.7C247.3,173.6,246,172.4,244.7,171 M238.7,169.3
		c-3.7,4.4-7.9,8.3-12.4,11.8c-0.4,0.3-0.9,0.7-1.3,1c0,0.1,0,0.3-0.1,0.4c-0.4,0.6-0.7,1.3-0.3,1.9c0.3,0.6,0.9,0.6,1.4,0.7
		c2-1.5,4-3.1,5.9-4.7c2.6-2.2,5.2-4.5,7.7-6.9c1.9-1.9,3-2.6,2.3-5.4C240.9,164.4,240.3,167.4,238.7,169.3 M236.7,160.6
		c-0.2,0.5-0.5,0.9-0.7,1.3c-3.6,6-9.4,11.2-15.4,15.2c0.4,0.6,0.7,1.3,1.2,1.9c0.4,0.6,0.8,1.1,1.2,1.6c2-1.6,3.9-3.2,5.7-4.8
		c2.1-1.9,4.1-3.8,6.1-5.9c1.5-1.6,3.1-4.4,4.9-5.9c-0.4-0.4-0.8-0.9-1.1-1.4C237.8,162,237.3,161.3,236.7,160.6 M230.9,155.2
		c0.3-0.3,0.7-0.6,1.1-0.9c-10.6-10.2-20.4-21.1-31-31.3c-10.1-9.8-20.5-19.3-30.6-29.2c-0.3,0.5-0.6,0.9-0.9,1.4c0,0.1,0,0.1,0,0.2
		c-0.1,0.4-0.3,0.6-0.6,0.7c-0.4,0.5-0.7,0.9-1.1,1.4c0,0,0,0.1,0,0.1c0,0.8-0.6,1.2-1.2,1.1c-0.9,0.8-1.9,1.6-3,2.3
		c-1.5,0.9-3,1.6-4.6,2c7.2,12.2,13.7,24.5,21.8,36.3c8.2,11.9,17.7,23.2,25.1,35.6c0.2,0,0.5,0.1,0.7,0.2c1.1-0.5,2.1-1.1,3.2-1.6
		c-14.1-20.7-31.7-39.3-43.2-61.6c-0.5-0.9,0.7-1.9,1.5-1.1c10.2,9.4,18.2,20.7,26.8,31.5c7,8.8,17.1,16.8,21.7,27.3
		c1.4-0.9,2.7-1.8,3.9-2.9C224.6,163.3,227.2,159,230.9,155.2 M124.1,22.8c-3.8-1.6-7.7-3.3-11.1-5.5c0.9,1.1,1.8,2.3,2.8,3.4
		c0.7,0.8-0.1,1.9-1.1,1.4c-4.2-2.1-7.2-5.4-9.8-9.1c0,0.3,0,0.5,0,0.8c0,0.7-0.9,1.3-1.4,0.8c-2.6-2-4.6-4.3-5.9-7.2
		c-2.9,9.8,6.4,18.9,10.1,27.4c0.4,1-0.7,2-1.6,1.2c-3.4-3.1-6.3-6.5-8.7-10.3c1.3,5.4,3.9,10.4,7.2,15c0.6,0.9-0.6,1.8-1.4,1.4
		c-1.3-0.6-2.7-1.3-4-1.9c2.4,2.6,4.6,5.5,6.3,8.6c0.6,1,1.6,4.3,2.8,0.5c0.2-0.7-0.7-2.6-0.8-3.4c-0.2-1.2-0.6-2.6-0.1-3.8
		c2.5-6.1,7.4,3.8,7.8,6.1c1,5.2,1,10.4,3,15.4c1,2.5,2.5,4.9,4.5,6.7c1.6,1.4,3.5,2.5,5.6,2.8c1.5,0.4,3,0.2,4.4-0.6l0.8-7.6
		c-1.2-3.9-6.5-7.4-9-10.6c-2.3-2.9-4.1-6.1-2.9-9.9c0.3-0.8,1.2-1.1,1.8-0.5c1.7,1.7,3.5,4,5.5,5.4c2.4,1.7,1.8,0.9,0.6-1
		c-2.2-3.2-5.8-6.1-8.7-8.7c-3.3-2.9-8.6-6.7-7.2-11.8c0.1-0.4,0.4-0.7,0.7-0.7c4.3-1,8.7,6.2,11,8.9c1.2,1.5,2.6,3.4,4.2,5.4
		c2.1,2.2,4.1,4.4,6.1,6.7c2.1,1.8,4.4,3.2,6.8,3.5c0,0,0,0,0,0c-1.2-5.9-5.1-10.3-9.7-14c-3.1-2.5-7.8-4.5-9.7-8.1
		c-0.4-0.8,0.3-1.8,1.2-1.5c2.5,0.7,5,1.4,7.5,2.2c0.2,0,5.7,1.5,7.6,1.3c0-0.2,0.1-0.3,0.1-0.5c0,0,0,0,0,0
		C140.2,29.4,125.7,23.5,124.1,22.8 M140.7,33.4c1.8,1.2,3.5,2.5,5.2,4c-1.6-1.4-3.2-2.8-5-4.1C140.9,33.3,140.8,33.4,140.7,33.4
		 M139.3,36.4c-0.6-0.7-1.2-1.3-1.9-2c-0.1-0.1-0.2-0.3-0.2-0.4c-0.5,0-1.1-0.1-1.6-0.1C136.9,34.6,138.1,35.5,139.3,36.4
		 M140.4,53.9c-0.1-0.1,0-0.3,0-0.4c-0.2-0.1-0.3-0.1-0.5-0.2C140.1,53.5,140.3,53.7,140.4,53.9 M116.7,32.2c0.1,0.7,0.5,1.4,1.5,2
		c1.1,1.3,2.5,2.3,3.7,3.4c0.6,0.6,1.3,1.2,1.9,1.7C121.4,37,119,34.7,116.7,32.2 M117.4,30.4c0.1,0.1,0.3,0.2,0.4,0.3
		C117.7,30.6,117.5,30.4,117.4,30.4C117.4,30.3,117.4,30.3,117.4,30.4 M133.7,50.5c1.9,2,3.8,4.1,5.5,6.3c0.2-0.1,0.4-0.1,0.6-0.1
		c-2.3-2.6-4.6-5.2-6.8-7.8C133.2,49.4,133.5,50,133.7,50.5 M136,60.8c-1.4-1.9-2.9-3.9-4.3-5.8c-0.4-0.6,0.5-1.3,1-0.8
		c-0.2-0.3-0.4-0.5-0.7-0.8c-1.1,0.2-2.5-0.6-4-1.8C130.8,54.5,133.5,57.6,136,60.8 M123.7,47.4c0.2,0.2,0.3,0.3,0.5,0.5
		C124,47.6,123.8,47.5,123.7,47.4C123.7,47.3,123.7,47.3,123.7,47.4 M137.2,67.1c0,0,0.1,0.1,0.1,0.1c3,4.2,6,8.4,9.1,12.5
		c-1.4-2-2.8-4.1-4.2-6.1c-1.7-2.5-3.4-5-5.3-7.3C137.1,66.5,137.2,66.8,137.2,67.1 M136.6,71.3c2.1,2.5,4.3,5,6.4,7.4
		c-2.1-2.9-4-5.9-5.9-9C137.1,70.3,136.9,70.8,136.6,71.3 M134.2,74.4c4.1,4.7,7.9,9.5,12.5,13.7c2,1.8,4,3.4,6.1,4.8
		c-6.6-5.7-12.7-12.8-17-20.1C135.3,73.4,134.8,73.9,134.2,74.4 M134.4,82.8c-2.2-2.3-4.1-4.8-5.9-7.2c-0.4-0.1-0.8-0.2-1.3-0.3
		C129.6,77.8,131.9,80.4,134.4,82.8 M134.2,86c-4.2-3.8-7.8-8.1-10.5-12.4c-1.6-1-3-2.2-4.2-3.5C123.6,76.1,128.6,81.5,134.2,86
		 M147.1,96.8c-1.8-0.8-3.6-1.6-5.3-2.6C143.5,95.2,145.3,96.1,147.1,96.8 M157.8,74.4c2.2,3.9,4,8.2,5.7,12.4
		c-1.4-4.9-3.4-9.4-5.8-13.8C157.8,73.4,157.9,73.9,157.8,74.4 M149.5,61c0.2,0.3,0.3,0.6,0.2,0.9c0.5,0.5,0.9,1,1.3,1.4
		c0.5,0.5,1.1,1.1,1.7,1.7c-2.6-3.7-5.4-7.3-8.4-11c-0.1,0.1-0.3,0.1-0.4,0.1c-0.3,0-0.5,0-0.8-0.1C145.4,56.2,147.5,58.5,149.5,61
		 M133.1,54.6c0.4,0.4,0.7,0.8,1.1,1.3C133.8,55.5,133.4,55.1,133.1,54.6 M143.8,71.6c0.4,0.6,0.9,1.3,1.3,1.9
		C144.7,72.8,144.3,72.2,143.8,71.6 M159.7,90.6c-0.6-1.1-1.1-2.1-1.7-3.2c-1.8-3.2-3.9-6.2-5.8-9.4c-0.4-0.3-0.8-0.7-1.1-1.1
		c-0.2-0.3-0.4-0.6-0.6-0.9c-0.2,0-0.3-0.1-0.5-0.3c-0.7-0.8-1.4-1.6-2-2.4C152,79,155.9,84.8,159.7,90.6 M159.8,83.8
		c-1.3-1.9-2.6-3.6-4-5.4c-0.2,0.1-0.3,0.2-0.5,0.2c2.7,3.5,5.1,7.4,7.1,11.4C161.6,88,160.7,85.9,159.8,83.8 M144.2,64.4
		c-0.3-0.4-0.6-0.8-0.9-1.2C143.6,63.6,143.9,64,144.2,64.4 M154.3,70.4c-1.1-1.7-2.6-3.2-3.9-4.7c-1.9-2.1-4.9-5.6-8.1-6.7
		c-0.1,0-0.3,0-0.4,0c4.4,4.1,6.8,9.4,9.6,14.7c0.3,0.6,0.6,1.2,1,1.8C155.5,74.1,156.1,72.4,154.3,70.4 M114.3,65.5
		c2.4,4.6,5.2,9,8.5,13c-2.3-2.9-4.4-6-6.3-9.2C115.8,68.1,115,66.8,114.3,65.5 M131.1,75.7c3.5,3.8,6.9,7.5,10.8,10.9
		c-3.4-3.6-6.4-7.6-8.9-11.4C132.3,75.4,131.7,75.6,131.1,75.7 M142.7,56.9c0.3,0.1,0.5,0.2,0.8,0.3c-0.9-0.9-1.7-1.9-2.6-2.8
		C141.5,55.3,142.1,56.1,142.7,56.9 M162.2,75.5c2.5,5.5,4.3,11.4,5.1,17.3C167,86.7,165,81,162.2,75.5 M162.9,70.6
		c-3-5.1-6.2-10.1-9.6-15c-3.1-4.3-6.2-8.6-9.9-12.4c4.5,5.1,8.4,10.9,11.9,16.3c4.5,7,10.8,15.7,13.3,24.7
		C167.9,79.4,165.4,74.9,162.9,70.6 M151.3,49.1c1.4,1.8,2.7,3.5,3.9,5.3c4.1,5.8,8,11.8,11.4,18.1c0.3,0.6,0.7,1.2,1,1.9
		c-2.3-5.9-5.8-11.5-8.8-15.9C156.5,55.1,154,52.1,151.3,49.1 M139.4,33.8C139.4,33.8,139.5,33.8,139.4,33.8
		C139.5,33.8,139.5,33.8,139.4,33.8C139.5,33.8,139.4,33.8,139.4,33.8 M113,70.7c5.7,7.5,11.5,14.7,19.3,20.3
		c0.3,0.2,0.6,0.4,0.9,0.6c-2.3-1.8-4.5-3.7-6.5-5.5c-8.9-8.4-15.8-19.3-18.9-31.2c-0.2,0-0.4,0-0.5-0.1
		C108.5,60.4,110.4,65.7,113,70.7 M113.2,49.4c-0.1-0.9-0.3-1.8-0.6-2.6c-0.2-0.8-0.6-1.4-1-1.8C112.2,46.5,112.7,47.9,113.2,49.4
		 M115,61.1c-1.2-2-1.9-4.3-2.6-6.6c-0.9-3-1.8-6-2.4-9c-0.1,0.2-0.2,0.5-0.2,0.8c-0.4,1.9,1.2,3.9,0.9,6c1.5,4.2,3.3,8.2,5.4,12
		C115.6,63.3,115.3,62.2,115,61.1 M144.8,51.8c3.5,3.2,6.8,6.8,9.7,10.7c-0.7-1.1-1.4-2.1-2.1-3.2c-2.7-4.2-5.6-8-8.8-11.6
		C144.2,49,144.6,50.4,144.8,51.8 M103.8,98.6c-0.2,0.5-0.5,0.9-0.8,1.3c-0.1,0.3-0.2,0.5-0.4,0.8c-0.1,0.2-0.3,0.3-0.4,0.4
		c-1.4,1.9-3.1,3.7-4.4,5.4c-1.1,1.3-2.3,2.5-3.7,3.6c0,0.4-0.3,0.8-0.8,0.9c0,0-0.1,0-0.1,0c10.2,12.3,20.2,24.5,31.7,35.6
		c12,11.6,23.9,23.1,34.8,35.7c0,0,0,0,0,0c1.9-1,3.8-2.2,5.5-3.5c-9.6-8.8-18.7-18.2-27.7-27.4c-9.2-9.4-18.8-18.8-27.3-28.9
		c-0.2-0.1-0.3-0.2-0.5-0.3c-1.1-0.7-0.1-2.4,1-1.7c5.7,3.4,10.5,8.4,15.5,12.7c5.8,5,11.5,10,17.3,15c9,7.8,21.3,15.7,26.2,27
		c6-5.5,10.8-12.5,13.7-19.9c0.1-0.4,0.3-0.7,0.5-1.1c-13.7-9.2-26.6-19.7-40.1-29.3C130.8,115.6,117.6,106.7,103.8,98.6 M71.9,44.6
		c4.9,4.5,9.3,9.6,13.6,14.5c4.2,4.7,8.2,9.7,11.6,15c-2.2-3.8-4.8-7.4-7.3-10.8C84.7,56.4,78.7,50.1,71.9,44.6 M44.4,28.9
		c-5.1-1.8-10.1-3.5-15.2-5.3c0.2,0.6,0.4,1.2,0.6,1.8c0.3,1-0.8,1.7-1.6,1.3C20.3,22.5,13,17.4,7,10.7c-1.5,3.4-1.3,7-0.4,10.7
		c0.2,0.9-0.8,1.9-1.7,1.3c-0.2-0.1-0.4-0.3-0.6-0.4c1.3,9.1,8.7,18.2,14.9,24.3c0.9,0.9-0.3,2.6-1.4,1.8c-3.8-2.8-7.4-5.8-10.9-8.9
		c1.8,4.4,4.4,8.2,8,11.5c0.8,0.7,0.1,1.8-0.8,1.9c-0.5,0.1-1,0.1-1.5,0.1c4.3,3,7.6,7.3,12.2,9.8c-0.1-2-1-4.4,1.1-5.5
		c1.5-0.8,3.1,0.1,4.2,1.2c2.3,2.2,3,6.1,4.4,8.9c2.1,4.2,5.1,8,8.8,11c1,0.8,2.4,2.7,3.4,0.7c0.1-0.2-0.8-2.4-0.8-2.7
		c0-0.6,0-1.4,0.2-1.9c0.7-1.6,2.1-2.1,3.8-1.9c3,0.3,5.7,3.5,8,5.1c0.4,0.3,1.7,1.3,2.3,1.4c0.6-0.2,1.2-0.4,1.9-0.5
		c2.4,0,2.6-1,0.7-2.9c-1.6-2.8-4.1-4.2-6.6-6c-2.1-1.5-4.2-3.5-4.3-6.3c0-0.8,0.3-1.5,0.4-2.2c0.6-3.5-1.5-4.2-4.4-6.1
		c-1.5-1-13.5-6.8-8.7-10.3c4-3,13.7,5.9,16.4,7.9c1.6,1.2,3.3,2.4,5.1,3.4c3.1,1.8,9.2,2.9,4.6-3.8c-2.7-4.1-8.3-6-12.3-8.4
		c-2.7-1.6-9.7-7.4-4.2-9.9c0.7-0.3,1.2-0.2,1.8-0.3c1.1,0.4,2,0.2,2.7-0.6c1.7-0.7,1.5-1.2-0.7-1.4C50.5,30.4,46.7,29.8,44.4,28.9
		 M43.3,94c-7.2-6.5-13.4-15-18.1-23.4C29.6,79.6,35.8,87.5,43.3,94 M88.2,66.2c2.6,3.3,5.2,6.6,7.5,10c-3.3-5.3-7.1-10.2-11.2-14.8
		c-7-8.1-14.5-16.9-23.8-22.6C71.4,46,80.2,56.2,88.2,66.2 M69.3,58.4C69.3,58.4,69.3,58.4,69.3,58.4c5.6,4.2,10.8,9.2,15.5,14.6
		c-2.3-2.9-4.7-5.7-7.1-8.5c-2.5-2.9-5.1-5.6-7.8-8.3C70,57,69.8,57.7,69.3,58.4 M60.2,58.7C60.2,58.7,60.2,58.7,60.2,58.7
		C60.1,58.7,60.1,58.7,60.2,58.7C60.1,58.7,60.1,58.7,60.2,58.7 M43.5,47.7c2.4,1.3,4.7,2.7,7.1,4.2c-0.1-0.1-0.3-0.2-0.4-0.3
		c-1.4-1-2.9-2-4.4-2.9c-0.5-0.3-2.7-1.6-3.1-1.4c-0.8,0.3-0.8,0.7-0.6,1C42.1,47.8,42.8,47.4,43.5,47.7 M55.3,58.4
		C63,64.3,70.2,71,77.1,77.8c-1.3-1.5-2.6-2.9-4-4.4c-5.5-5.8-11.6-11-18-15.6C55.2,58,55.3,58.2,55.3,58.4 M55.1,64.2
		c8.3,5.1,15.7,12.1,22.6,18.8c3.7,3.5,7.3,7.1,10.8,10.7c0.3,0.3,0.7,0.7,1,1c-1-1.6-2-3.2-3.1-4.8c-9.5-10.6-20.8-20-31.2-29.4
		c-0.1,0.2-0.2,0.3-0.2,0.4C55,62.1,54.9,63.2,55.1,64.2 M65.7,77C65.8,77,65.8,77,65.7,77c2.8,1.6,5.6,3.4,8.3,5.4
		c-3.4-3.2-6.9-6.3-10.5-9.3c0.7,1,1.4,2,1.9,3.1C65.6,76.5,65.7,76.8,65.7,77 M65.9,80.4c2.8,1.6,5.5,3.4,8.3,5.4
		c-2.7-2.1-5.4-4.2-8-6.4C66.1,79.8,66,80.1,65.9,80.4 M72.6,92.5c4.3,3.1,8.7,5.9,13.2,8.6c-2.8-2.3-5.7-4.5-8.7-6.7
		c-5-3.6-10.9-7.2-14.9-12c-0.1-0.1-0.1-0.2-0.2-0.3c-0.7-0.1-1.5-0.3-2.4-0.7c-1.5-0.6-2.8-1.6-4.1-2.6c-1.2-0.9-2.3-2.2-3.5-2.7
		C58.8,81.6,65.5,87.3,72.6,92.5 M49.6,76.3c-0.3,0.2-0.5,0.3-0.7,0.5C54.8,83,60.8,88.5,68,93.1c3.3,2.1,6.8,4,10.3,5.9
		c-2.8-1.9-5.5-3.9-8.1-5.8C63.1,88,56,82.5,49.8,76.3C49.8,76.3,49.7,76.3,49.6,76.3 M49.2,81.2c-0.1,0.4-0.1,0.7-0.2,0.9
		c6.3,5.8,12.6,11.4,20.1,15.7c3.8,2.2,7.6,3.9,11.6,5.4c-11.7-5.8-23.6-13-31.5-23C49.3,80.5,49.3,80.8,49.2,81.2 M55.3,92.3
		c3.5,2.5,7.3,4.7,11.2,6.6c-7.1-4.4-13.5-9.8-18.4-15.7c-0.3,0.2-0.6,0.3-0.9,0.2c-1.2-0.4-2.4-1-3.5-1.7
		C47.1,85.7,51,89.3,55.3,92.3 M29.6,61.5c0,0.1,0.1,0.1,0.1,0.2C29.7,61.7,29.7,61.6,29.6,61.5L29.6,61.5z M84.8,109.9
		c-11.2-0.6-22.4-6.1-31.4-12.3c-11.9-8.2-21.3-19.9-28.6-32.3c-0.3-0.1-0.6-0.3-0.8-0.4c7.8,11.5,15.1,24.3,26.8,32.3
		C60.9,104.1,72.6,110.1,84.8,109.9 M54.4,102.2c6.3,4,14.1,8.1,21.7,9.4C68.5,109.9,61.1,106.2,54.4,102.2 M64.2,81.9
		c5.5,3.7,10.8,8.1,16.2,12c0.6,0.4,1.1,0.8,1.7,1.2c-0.6-0.6-1.3-1.2-1.9-1.7C75.2,89.2,70,85.5,65,81.5
		C64.8,81.7,64.5,81.8,64.2,81.9 M99.1,88.6c0.7,1.1,1.4,2.3,2.1,3.5c-1.2-4.7-4.3-9.4-6.5-12.9c-0.6-0.9-1.1-1.7-1.7-2.5
		C95.5,80.4,97.6,84.4,99.1,88.6 M84,68.4c0.7,0.9,1.5,1.8,2.2,2.7c-4.6-6.4-10-12.2-15.9-17.6C75.2,58.1,79.7,63.2,84,68.4
		 M92.8,83.4c1.3,2,2.5,4.1,3.5,6.3c-0.3-0.8-0.6-1.6-0.9-2.4C94.5,85.9,93.7,84.6,92.8,83.4 M92,93.1c1.3,1.6,2.6,3.2,3.8,4.8
		C90.5,86.2,81.3,77,71.6,68.6c1.3,1.2,2.5,2.5,3.7,3.7C81.2,78.4,87.3,85.4,92,93.1 M65.1,60.4c7.3,5.2,14,11.5,20.1,18
		c2.2,2.4,4.3,4.8,6.3,7.4c-1.8-3-3.9-5.8-6.1-8.5c-5.2-6.3-11.6-11.5-17.2-17.6C67.3,60.3,66.2,60.5,65.1,60.4 M53.9,36.2
		c-0.3,0-0.7,0-1,0.1c-0.1,0-0.3,0.1-0.6,0.1C64.3,44,74.5,54,83.8,64.7c0.4,0.5,0.8,1,1.3,1.5c-0.8-1-1.6-1.9-2.4-2.9
		c-8.4-10.2-17.4-19.1-28.4-26.5C54.1,36.6,54,36.4,53.9,36.2 M27,62.1c0.1,0.1-0.3,2.7-0.3,2.8c0,0,0,0,0,0
		c4,5.2,7.4,10.8,11.5,15.9c4.2,5.1,9,9.7,14.3,13.7c7.9,5.8,17.6,11.1,27.6,12.9c-3.2-1.1-6.2-2.5-9.1-3.7
		c-6.2-2.6-12.2-5.8-17.6-9.7C42.8,86.2,33,74.1,27.6,62C27.4,62,27.2,62.1,27,62.1 M165.2,186.2c0.6-0.4,1.2-0.8,1.7-1.2
		c-0.9-0.6-1.6-1.6-1.9-2.6c-1.7,1.1-3.4,2.1-5.2,2.9C161.7,187.3,163.5,187.7,165.2,186.2 M166.3,190.4c0.8,0.7,1.8,1.5,2.5,2.3
		c2.1-1.2,4.1-2.5,6-3.9c-1.5-1-2.8-2.7-3.4-4.3c-0.6,0.5-1.2,1-1.8,1.5c-1.3,1.1-3,2.4-4.7,3.2
		C165.4,189.6,165.9,190.1,166.3,190.4 M174.6,196.1c0.5-0.3,0.9-0.5,1.4-0.8c0.5-0.3,1.1-0.7,1.6-1c-0.9-0.7-1.6-1.7-1.7-2.8
		c-2,1.4-4,2.5-6,3.1C170.8,197.6,172.4,198.1,174.6,196.1 M191.8,175.2c-1.9,2.8-4.1,5.4-6.5,7.8c-1.3,1.3-2.8,2.9-4.5,4.4
		c-0.2,0.9,0,1.8,0.7,2.4c0.5,0.4,1,0.4,1.5,0.4c1.8-1.5,3.5-3.1,5.1-4.7c4.6-4.7,7.9-10,10.8-15.9c-0.7-1-1.5-1.9-2.2-2.9
		C194.8,169.4,193.6,172.6,191.8,175.2 M169.8,178.8c0.4,0.9,0.9,1.7,1.8,2.3c0.4-0.4,0.8-0.8,1.3-1.2c2.3-2.2,4.5-4.5,6.6-6.9
		c2.5-2.9,4.7-6.1,6.6-9.5c0.6-1.1,3.2-5.2,2.9-6.1c-1-0.5-2-0.9-3-1.4c-0.3,1.1-0.7,2.2-1.2,3.2
		C181.7,166.3,176.3,173.4,169.8,178.8 M168.4,176.5c-5.7-11.3-17.7-19.3-27-27.4c-5-4.4-10-8.7-15-13.1c-1.6-1.4-3.1-2.8-4.7-4.2
		c5.8,6.1,11.5,12.3,17.3,18.3c9.2,9.3,18.7,18.3,27.9,27.7C167.3,177.3,167.9,176.9,168.4,176.5 M170.2,182.3
		c-0.8-0.6-1.4-1.4-1.8-2.4c-0.6,0.4-1.1,0.9-1.7,1.3c0.2,0.6,0.4,1.2,0.9,1.7c0.3,0.3,0.7,0.5,1.1,0.7
		C169.2,183.1,169.7,182.7,170.2,182.3 M178,186.3c-0.5-0.5-1.1-1-1.5-1.5c-0.8-0.9-1.5-1.8-2.2-2.8c-0.5,0.4-1,0.9-1.4,1.3
		c0.5,1.1,0.9,2.1,1.8,2.9c0.5,0.6,1.2,0.9,1.8,1.3C177,187.1,177.5,186.7,178,186.3 M194.8,164.2c-0.8-0.6-1.5-1.3-2.2-1.9
		c-0.7-0.6-1.5-1.1-2.2-1.7c-3.4,7.7-8.8,14.6-15,20.4c0,0,0.1,0,0.1,0.1c0.7,0.9,1.5,1.8,2.3,2.6c0.5,0.5,1.1,0.9,1.6,1.4
		c2.1-1.8,4-3.8,5.8-5.8c2.5-2.8,4.8-5.7,6.6-9c1.1-2,1.9-4,3.4-5.7C195,164.5,194.9,164.4,194.8,164.2 M179.9,192.7
		c0.4-0.3,0.9-0.7,1.3-1c-0.3-0.2-0.6-0.3-0.8-0.6c-0.7-0.6-1-1.5-1.1-2.3c-0.6,0.5-1.3,1.1-1.9,1.6c0.1,1.2,0.7,2.2,1.8,2.9
		C179.4,193.1,179.7,192.9,179.9,192.7 M183.4,193.4c1.1,1,2.1,2.2,3.2,3.2c0.7,0.7,1.4,1.3,2.1,1.9c0.5,0.5,1.1,0.8,1.7,1
		c1,0.4,1.4,0,1.3-1.1c0.5-0.8,0.3-1.5-0.4-2.1c-0.3-0.4-0.6-0.7-0.9-1.1c-0.6-0.6-1.1-1.2-1.8-1.7c-0.9-0.8-1.9-1.5-2.8-2.2
		C185,192.1,184.2,192.8,183.4,193.4 M185.7,208.2c10.8-2.8,20.5-11.3,25.1-21.4c-0.4-0.5-0.7-1.1-1-1.5c-0.4-0.7-1-1.5-1.4-2.3
		c-1.1,0-2.1-0.3-3.1-1.1c-1.7-1.4-1.9-3.7-1-5.6c-1.2-1.4-2.4-2.8-3.6-4.3c-3,6.8-7.7,13-13.4,18.1c1.9,1.2,3.6,2.8,4.9,4.4
		c1.4,1.6,3,3.9,1.5,6c-3.3,4.4-9.6-3-11.6-6.1c-0.9,0.7-1.9,1.4-2.8,2c-1,0.6-2.4,1.6-3.9,2.3C178.5,202.1,182.7,204.5,185.7,208.2
		 M219.5,189.4c0.3-0.2,0.6-0.4,1-0.6c-0.3-0.2-0.6-0.4-0.8-0.6c-0.5-0.4-1-1-1.2-1.6c-1.6,0.8-3.2,1.4-4.9,1.6
		c0.7,2.7,1.9,3.5,3.5,2.5C217.9,190.4,218.7,189.9,219.5,189.4 M224.2,189.6c1.2,1.8,2.6,3.5,4,5.2c0.6,0.7,5,6.1,5.2,1.9
		c0-0.6-1.4-2-1.7-2.5c-0.6-0.9-1.2-1.8-1.8-2.6c-0.9-1.3-1.8-2.7-2.8-4.1C226.2,188.2,225.2,188.9,224.2,189.6 M217.6,179
		c0.2,0.8,0.4,1.7,0.8,2.4c0.3,0.6,0.7,1.1,1.2,1.6c0.6-0.4,1.2-0.8,1.9-1.3c-0.4-0.5-0.8-0.9-1.2-1.4c-0.5-0.6-1-1.3-1.4-2.1
		C218.5,178.5,218.1,178.7,217.6,179 M214.8,170.7c-2.6-5.7-6.7-10.3-10.9-14.9c-4.4-4.7-8.5-9.7-12.5-14.8
		c-6.4-8.3-12.7-16.7-19.9-24.2c11.8,19.7,28.2,36.1,39.8,55.9C212.5,172.1,213.7,171.4,214.8,170.7 M212,179.1
		c0.3-0.2,0.7-0.4,1-0.5c-0.6-0.3-1.1-0.8-1.5-1.3c-0.3-0.4-0.7-0.9-0.9-1.4c-1.1,0.5-2.3,0.9-3.4,1.3
		C208.7,179.6,210.3,180.2,212,179.1 M214.2,174.2c-0.6,0.3-1.2,0.7-1.9,1c0.1,0.4,0.8,1.2,0.9,1.3c0.4,0.5,1,0.8,1.7,0.7
		c0.2,0,0.4,0,0.6,0.1c0.1,0,0.1-0.1,0.2-0.1C214.8,176.4,214.2,175.3,214.2,174.2 M211,182.4c0.3,0.5,0.5,1,0.8,1.4
		c0.4,0.7,1.1,1.4,1.5,2.2c1.6-0.5,3.2-1.2,4.8-2.1c-1.1-1.1-1.8-2.6-2.1-4c-0.4,0.2-0.8,0.5-1.2,0.7
		C213.7,181.2,212.4,181.9,211,182.4 M234.9,158.4c-0.9-2.2-3.6,0.6-4.2,1.3c-3.6,4.8-8.1,9.1-13.3,12.5c-0.1,0.5-0.6,0.8-1.1,0.7
		c0,0-0.1,0-0.1,0.1c-0.1,0.8-0.2,1.7,0.3,2.4c0.3,0.3,0.6,0.5,0.9,0.6c0.1,0,0.1-0.1,0.2-0.1c2.8-1.9,5.5-3.9,8-6.2
		c2-1.8,3.9-3.7,5.6-5.8C231.9,163.1,235.3,159.5,234.9,158.4 M223,185.4c-0.3-0.4-0.4-0.9-0.5-1.4c-0.8,0.6-1.6,1.1-2.4,1.6
		c0.2,0.5,0.4,0.9,0.8,1.2c0.4,0.4,0.9,0.6,1.5,0.7c0.5-0.3,1-0.7,1.5-1c0.1,0,0.1-0.1,0.2-0.1C223.7,186.2,223.3,185.8,223,185.4
		 M289.8,281.2c-13.1-11.1-25.7-22.8-38.7-33.9c-6.6-5.7-13.3-11.4-20-17c-3.5-2.9-6.9-5.8-10.4-8.7c-1.4-1.2-2.9-2.7-4.5-3.7
		c-2.7-1.8-4.3-1.7-6.6-0.4c16.9,12.4,32.8,26.5,49,39.8c12,9.8,24.1,19.5,35.9,29.6C293,285,291.4,283.1,289.8,281.2 M221.1,236.3
		c11.7,10.6,23.5,21,35.5,31.3c12,10.2,24.2,20.2,36.5,30c9.7,7.7,20,15,29.8,22.7c-6.4-7.5-12.7-15-19.1-22.5
		c-15-13.1-30.5-25.7-45.9-38.4c-16.5-13.6-33.8-26.7-49.6-41.1c-1,0.3-1.7-1.1-0.7-1.8c1.7-1.3,3.8-3.6,6.1-3.3
		c1.5,0.2,3.1,2.3,4.2,3.1c2,1.6,4,3.3,6,5c7.7,6.4,15.4,12.9,23,19.4c10.6,9.1,21.4,18.1,31.9,27.4c-0.2-0.2-0.3-0.4-0.5-0.6
		c-17.4-20.4-34.7-40.9-51.1-62.1c-0.2,0-0.3,0-0.5,0c-2.1-0.3-2.2-0.7-3.8-2.5c-2.5-2.9-5.1-5.9-7.4-9c-1.4,0.2-2.9,0.1-4-0.9
		c-0.2-0.2-0.3-0.3-0.5-0.5c-2.1,3.7-5.3,6.7-8.7,9.6c-3.8,3.3-7.6,6.1-12.2,7.5C201.8,216,211.3,227.4,221.1,236.3 M427.5,434
		c-34.1-33.3-66.1-68.7-97.1-104.9c-0.2-0.3-0.4-0.5-0.7-0.8c-0.2,0-0.5,0-0.7-0.1c-12.7-8.1-24.5-18.3-36.3-27.7
		c-12.1-9.6-24-19.4-35.8-29.4c-11.8-10-23.4-20.2-34.8-30.6c-11.2-10.2-21.8-22.2-34.8-30.1c-0.1-0.1-0.3-0.2-0.3-0.3
		c-0.4,0.1-0.9,0.1-1.3,0.2c-0.3,0-0.5-0.1-0.7-0.3c-0.2,0-0.3-0.1-0.5-0.2c-2.1-1.7-4-3.7-6.1-5.4c-1.9-1.5-3.8-2.9-5.2-4.9
		c-1.7,0.5-3.4,0.6-4.7-0.2c-2-1.3-2.2-3.6-1-5.3c-0.8-0.5-1.6-1.2-2.3-1.8c-0.8-0.7-1.9-1.4-2.6-2.3c-1,0.1-2.1,0.1-3.1-0.4
		c-2.2-1-2.9-3-2.2-5c0-0.3,0.1-0.6,0.3-0.8c-11.5-12.1-23-24-35-35.7c-11.3-11-22.5-22.8-31.4-35.8c-2.6,1.4-5.5,2.2-8.5,2.3
		c-13.3,0.4-27.6-8.2-37.6-16.1C32.9,89,23.7,76.5,19.6,61.8C16,58.9,12.9,55.4,8.9,53c-0.1,0-0.2,0-0.3,0c-1.7-0.2-1.4-2.6,0.3-2.3
		c0.9,0.2,1.8,0.3,2.7,0.3c-4-4.2-6.7-9.2-8.3-14.9c-0.3-1.1,1.1-1.9,1.9-1.1c1.3,1.3,2.7,2.5,4,3.7c-4.1-5.7-7.3-12.2-7.4-18.8
		c0-0.8,1-1.5,1.7-1c0.1,0.1,0.2,0.2,0.3,0.3c-0.5-3.8-0.1-7.4,1.9-10.9C6.1,7.6,7.1,7.4,7.6,8c5.4,6.3,12,11.3,19.2,15.4
		c-0.1-0.4-0.3-0.8-0.4-1.3c-0.3-0.8,0.6-1.6,1.4-1.4c8.8,3.1,17.6,6,26.4,9.2c1.2,0.5,2.4,1.3,3,2.2C69.1,38.3,79.6,47,88.2,57.5
		c8.2,9.9,17.7,22.5,17.1,36.1c0,0.9-0.2,1.8-0.5,2.6c14.5,7.7,27.9,17.4,41.2,26.9c13.3,9.4,27.1,18.6,39.5,29.3
		c0.2-0.2,0.5-0.3,0.7-0.4c-2.6-3.8-5.2-7.7-7.7-11.4c-8-11.6-16.7-24-21.8-37.2c-10.3,1.2-22-6.2-29.3-12
		c-11.8-9.2-20.4-22.7-21.8-37.8c-1.4-1.5-2.2-4.1-3.2-5.8c-1.9-3.1-4.2-5.8-6.7-8.5c-0.3-0.4-0.3-0.8-0.1-1.1
		c-0.3-0.7,0.6-1.7,1.5-1.3c1.2,0.6,2.4,1.1,3.6,1.7c-3.5-5.6-5.8-11.6-6.2-18.4c-0.1-1,1.4-1.4,1.9-0.5c1.6,3.3,3.5,6.4,5.7,9.2
		c-4.7-7.8-9.9-15.7-5.6-24.8c0.4-0.8,1.5-0.5,1.8,0.2c1,2.8,2.5,5,4.5,7c-0.1-0.9-0.4-1.8-0.7-2.7c-0.3-1,1.2-1.6,1.7-0.7
		c2,3.2,4.1,6.3,6.8,8.8c-0.5-0.6-0.9-1.3-1.3-2c-0.3-0.5,0.1-1,0.6-1.1c0.2-0.2,0.5-0.2,0.8-0.1c5.7,3.4,11.4,6,17.5,8.6
		c3.7,1.6,10.3,3.7,13,7.2c0.4-0.1,0.8,0,1,0.5c0.1,0.3,0.3,0.7,0.4,1c0.1,0.2,0.1,0.4,0.1,0.6c11.8,8.6,21.4,21.9,27.8,34.9
		c3.6,7.2,4.3,17,1.1,24.7c10.6,9.7,21,19.7,31.3,29.7c10.6,10.2,21.8,20.5,31,32.1c0.1,0.1,0.1,0.2,0.2,0.3
		c0.9-0.1,1.8,0.2,2.6,1.1c0.9,1,1,2.2,0.9,3.4c0,0,0,0,0,0c0.8,1,1.6,2,2.4,3c0.5,0.6,1.1,1.2,1.5,1.9c1.2-0.3,2.4,0.1,3.4,1.1
		c1.2,1.3,1.3,2.9,0.9,4.4c1.7,1.3,3.2,2.9,4.7,4.5c1.5,1.7,3.3,3.4,4.4,5.5c0.4,0.2,0.7,0.6,0.7,1.2c0,0.8-0.1,1.6-0.3,2.3
		c20.7,24,39.7,49.5,58.6,75c8.7,11.8,17.3,23.7,25.9,35.6c29.4,27,57,55.8,84.7,84.6c13.3,13.8,27.3,26.9,40.5,40.8
		c2,2.1,11.3,10,7.2,13.7c-1.8,1.6-4.1,0-5.7-0.9c-4.5-2.5-8.9-5.3-13.2-8.1c-17.4-11.4-33.8-24.7-49.5-38.4
		c5.7,8.5,11.4,17,17.1,25.5c2.7,4.1,5.5,8.3,8.2,12.4c2.7,4,6,8.2,8,12.6c0.8,1.8,1.3,4.1-0.8,5C432.9,441.2,429.2,435.7,427.5,434
		"/>
</g>
</svg>
