<?xml version="1.0" encoding="utf-8"?>
<!-- Generator: Adobe Illustrator 23.1.1, SVG Export Plug-In . SVG Version: 6.00 Build 0)  -->
<svg version="1.1" id="Calque_1" xmlns="http://www.w3.org/2000/svg" xmlns:xlink="http://www.w3.org/1999/xlink" x="0px" y="0px"
	 viewBox="0 0 25.4 25.2" style="enable-background:new 0 0 25.4 25.2;" xml:space="preserve">
<style type="text/css">
	.st0{clip-path:url(#SVGID_2_);fill:#91D900;}
	.st1{clip-path:url(#SVGID_4_);fill:#FFFFFF;}
	.st2{clip-path:url(#SVGID_6_);fill:#FFFFFF;}
	.st3{clip-path:url(#SVGID_8_);fill:#FFFFFF;}
</style>
<g>
	<g>
		<defs>
			<rect id="SVGID_1_" x="0.2" y="0.1" width="25" height="25"/>
		</defs>
		<clipPath id="SVGID_2_">
			<use xlink:href="#SVGID_1_"  style="overflow:visible;"/>
		</clipPath>
		<path class="st0" d="M12.7,25.1c6.9,0,12.5-5.6,12.5-12.5S19.6,0.1,12.7,0.1S0.2,5.7,0.2,12.6S5.8,25.1,12.7,25.1"/>
	</g>
</g>
<g>
	<g>
		<defs>
			<circle id="SVGID_3_" cx="12.7" cy="12.6" r="12.5"/>
		</defs>
		<clipPath id="SVGID_4_">
			<use xlink:href="#SVGID_3_"  style="overflow:visible;"/>
		</clipPath>
		<path class="st1" d="M14.9,11.8L14.9,11.8h-2.1H9.4v2h3.3c-0.5,1.4-1.8,2.4-3.3,2.4c-1.9,0-3.5-1.6-3.5-3.6S7.4,9,9.4,9
			c0.9,0,1.6,0.3,2.2,0.8h0.1l1.4-1.5c-1-0.9-2.3-1.5-3.8-1.5c-3.1,0-5.6,2.6-5.6,5.7c0,3.2,2.5,5.7,5.6,5.7c0.4,0,0.8,0,1.2-0.1
			c0.8-0.2,1.6-0.5,2.2-1c0.6-0.5,1.2-1.1,1.6-1.9c0.2-0.4,0.3-0.8,0.4-1.2c0.1-0.5,0.1-1,0.1-1.5v-0.7H14.9z"/>
	</g>
	<g>
		<defs>
			<circle id="SVGID_5_" cx="12.7" cy="12.6" r="12.5"/>
		</defs>
		<clipPath id="SVGID_6_">
			<use xlink:href="#SVGID_5_"  style="overflow:visible;"/>
		</clipPath>
		<rect x="18.4" y="10.1" class="st2" width="1.6" height="4.9"/>
	</g>
	<g>
		<defs>
			<circle id="SVGID_7_" cx="12.7" cy="12.6" r="12.5"/>
		</defs>
		<clipPath id="SVGID_8_">
			<use xlink:href="#SVGID_7_"  style="overflow:visible;"/>
		</clipPath>
		<rect x="16.7" y="11.8" class="st3" width="4.9" height="1.6"/>
	</g>
</g>
</svg>
