<?xml version="1.0" encoding="utf-8"?>
<!-- Generator: Adobe Illustrator 24.2.0, SVG Export Plug-In . SVG Version: 6.00 Build 0)  -->
<svg version="1.1"
	 id="Calque_1" xmlns:cc="http://creativecommons.org/ns#" xmlns:dc="http://purl.org/dc/elements/1.1/" xmlns:inkscape="http://www.inkscape.org/namespaces/inkscape" xmlns:rdf="http://www.w3.org/1999/02/22-rdf-syntax-ns#" xmlns:sodipodi="http://sodipodi.sourceforge.net/DTD/sodipodi-0.dtd" xmlns:svg="http://www.w3.org/2000/svg"
	 xmlns="http://www.w3.org/2000/svg" xmlns:xlink="http://www.w3.org/1999/xlink" x="0px" y="0px" viewBox="0 0 118.3 141.9"
	 style="enable-background:new 0 0 118.3 141.9;" xml:space="preserve">
<style type="text/css">
	.st0{clip-path:url(#SVGID_2_);}
	.st1{fill:none;}
	.st2{fill:#A7D900;}
</style>
<sodipodi:namedview  bordercolor="#666666" borderopacity="1" gridtolerance="10" guidetolerance="10" id="namedview839" inkscape:current-layer="Calque_1" inkscape:cx="38.184655" inkscape:cy="100.97645" inkscape:pageopacity="0" inkscape:pageshadow="2" inkscape:window-height="792" inkscape:window-maximized="0" inkscape:window-width="1190" inkscape:window-x="171" inkscape:window-y="58" inkscape:zoom="3.2135308" objecttolerance="10" pagecolor="#ffffff" showgrid="false">
	</sodipodi:namedview>
<g id="g12">
	<g>
		<defs>
			<rect id="SVGID_1_" width="118.3" height="141.9"/>
		</defs>
		<clipPath id="SVGID_2_">
			<use xlink:href="#SVGID_1_"  style="overflow:visible;"/>
		</clipPath>
		<path id="path10" class="st0" d="M105.4,8c-0.8-5.1-5.6-8.7-10.8-7.9L5.5,12.9c-3.5,0.5-5.9,3.8-5.4,7.3l8.3,56.4
			c0.7,4.4,2.3,8.6,4.9,12.3c8,11.4,25.7,36.9,30,42.9c1.1,1.7,4.2,6.3,6.3,9.4c0.8,1.2,2.6,0.9,3-0.4c1.4-4,3.8-10.8,4.9-13.6
			c2.6-6.4,6.5-18.7,7.7-22.5c0.2-0.7,0.8-1.2,1.6-1.3l5.4-0.9l24.4-4.8l16.4-3.3c3.5-0.6,5.9-3.9,5.4-7.4C115,66.7,105.4,8,105.4,8
			"/>
	</g>
</g>
<g id="g868" transform="matrix(0.48284663,0,0,0.48284663,31.672974,27.742866)">
	<rect x="10.8" y="25.6" class="st1" width="50.9" height="61"/>
	<path id="path854" class="st2" d="M126.9,33.5c-2.3-15.2-24-22.5-37-16.9c-17.1,7.3-20.8,25-13.7,40.9
		c6.6,14.5,18.4,22.4,33.9,16.4c16.2-6.2,24.6-24,17.8-40.5c-1.3-3.3-7-1.3-6,2c4,12,0.5,25.6-11.3,31.4
		c-11.5,5.6-20.8,2.4-27.2-8.6C77.6,48,76,35.7,85.2,27c10.3-9.9,31.5-7.4,36.4,7.6C122.8,37.7,127.4,36.9,126.9,33.5"/>
	<rect x="10.8" y="25.6" class="st1" width="50.9" height="61"/>
	<path id="path856" class="st2" d="M3.9,86.5c24.3-10.8,53-23.6,73.2-41.2c3-2.7-1.2-7.3-4.3-4.6C52.4,58.2,24.7,68.4,1.6,82
		C-1.1,83.6,0.9,87.7,3.9,86.5"/>
	<rect x="10.8" y="25.6" class="st1" width="50.9" height="61"/>
	<path id="path858" class="st2" d="M11.8,101.4c11.3-3.7,22.6-6.1,33.8-10.2c15-5.5,29.5-12.4,44.6-17.5c3.8-1.2,2.6-7.6-1.2-6.2
		c-13.1,4.4-25.6,10.2-38.4,15.2c-13.3,5.2-27.4,8.1-40.4,13.8C7.4,97.6,8.9,102.4,11.8,101.4"/>
	<rect x="10.8" y="25.6" class="st1" width="50.9" height="61"/>
	<path id="path860" class="st2" d="M2.3,81.9C-5.9,88.3,6.8,108,15,100c2-1.9,0.4-6-2.6-5.1c-2.5,0.7-3.7-0.4-5-2.7
		c-1.2-2-2-4.6-0.7-6.8C8.6,82.8,4.9,79.9,2.3,81.9"/>
	<rect x="10.8" y="25.6" class="st1" width="50.9" height="61"/>
	<path id="path862" class="st2" d="M60.9,49.5c-4.5,3.7-2.8,11.1-0.6,15.7c2.7,5.6,7.2,11,12.9,13.4c3.3,1.4,6-4.2,2.7-5.7
		c-7.2-3.4-13.5-12.6-10.8-20.6C65.9,49.7,62.9,48,60.9,49.5"/>
	<rect x="10.8" y="25.6" class="st1" width="50.9" height="61"/>
	<path id="path864" class="st2" d="M90.5,21.2c-2.9,17.5,7.1,40.6,22.7,49.1c3.6,2,7.1-3.4,3.5-5.4c-14.3-7.7-21.3-27.6-20.4-43.4
		C96.6,17.7,91.1,17.6,90.5,21.2"/>
	<rect x="10.8" y="25.6" class="st1" width="50.9" height="61"/>
	<path id="path866" class="st2" d="M15.6-1.7c17.3,13.8,15.9,36.6-0.3,50.2C6.5,55.9-4,61.8-10.9,71.3C-22.4,87-15.5,102.9,4.6,97.5
		c4.1-1.1,2.8-7.6-1.3-6.4C-1.5,92.3-8.7,86.9-9.7,82c-0.6-3.3,6.4-10,8.7-12.3c3.8-3.8,8.3-6.9,12.6-10.2
		c7.7-6,16.3-11.8,20.3-21.1c6.9-15.9,0.4-34.8-13.3-44.7C15.7-8.7,12.8-4,15.6-1.7"/>
</g>
</svg>
