<?xml version="1.0" encoding="UTF-8" standalone="no"?>
<svg
   xmlns:dc="http://purl.org/dc/elements/1.1/"
   xmlns:cc="http://creativecommons.org/ns#"
   xmlns:rdf="http://www.w3.org/1999/02/22-rdf-syntax-ns#"
   xmlns:svg="http://www.w3.org/2000/svg"
   xmlns="http://www.w3.org/2000/svg"
   xmlns:xlink="http://www.w3.org/1999/xlink"
   version="1.1"
   id="Calque_1"
   x="0px"
   y="0px"
   viewBox="0 0 118.3 141.9"
   style="enable-background:new 0 0 118.3 141.9;"
   xml:space="preserve"><metadata
   id="metadata39"><rdf:RDF><cc:Work
       rdf:about=""><dc:format>image/svg+xml</dc:format><dc:type
         rdf:resource="http://purl.org/dc/dcmitype/StillImage" /><dc:title></dc:title></cc:Work></rdf:RDF></metadata><defs
   id="defs37"><rect
     height="122.4"
     width="164.8"
     id="SVGID_1_-2" /><rect
     id="SVGID_1_-1"
     width="133.3"
     height="122.4" /><rect
     id="SVGID_1_-6"
     width="155.7"
     height="122.3" /><rect
     id="SVGID_1_-0"
     width="300.6"
     height="236.1" /><rect
     id="SVGID_3_"
     width="300.6"
     height="236.1" /><rect
     id="SVGID_5_"
     width="300.6"
     height="236.1" /><rect
     id="SVGID_7_"
     width="300.6"
     height="236.1" /><rect
     id="SVGID_9_"
     width="300.6"
     height="236.1" /><rect
     id="SVGID_11_"
     width="300.6"
     height="236.1" /><rect
     id="SVGID_13_"
     width="300.6"
     height="236.1" /><rect
     id="SVGID_15_"
     width="300.6"
     height="236.1" /><rect
     id="SVGID_17_"
     width="300.6"
     height="236.1" /><rect
     id="SVGID_19_"
     width="300.6"
     height="236.1" /><rect
     id="SVGID_21_"
     width="300.6"
     height="236.1" /><rect
     id="SVGID_23_"
     width="300.6"
     height="236.1" /><rect
     id="SVGID_25_"
     width="300.6"
     height="236.1" /><rect
     id="SVGID_27_"
     width="300.6"
     height="236.1" /><rect
     id="SVGID_29_"
     width="300.6"
     height="236.1" /><rect
     id="SVGID_1_-25"
     width="139.6"
     height="122.4" /><rect
     id="SVGID_1_-256"
     y="-0.2"
     width="126.7"
     height="122.7" /></defs>
<style
   type="text/css"
   id="style2">
	.st0{clip-path:url(#SVGID_2_);fill:#181716;}
	.st1{clip-path:url(#SVGID_4_);fill:#91D900;}
</style>
<g
   style="fill:#000000;fill-opacity:1"
   id="g12">
	<defs
   id="defs5">
		<rect
   id="SVGID_1_"
   width="118.3"
   height="141.9" />
	</defs>
	<clipPath
   id="SVGID_2_">
		<use
   xlink:href="#SVGID_1_"
   style="overflow:visible;"
   id="use7" />
	</clipPath>
	<path
   style="fill:#000000;fill-opacity:1"
   class="st0"
   d="M105.4,8c-0.8-5.1-5.6-8.7-10.8-7.9L5.5,12.9c-3.5,0.5-5.9,3.8-5.4,7.3l8.3,56.4c0.7,4.4,2.3,8.6,4.9,12.3   c8,11.4,25.7,36.9,30,42.9c1.1,1.7,4.2,6.3,6.3,9.4c0.8,1.2,2.6,0.9,3-0.4c1.4-4,3.8-10.8,4.9-13.6c2.6-6.4,6.5-18.7,7.7-22.5   c0.2-0.7,0.8-1.2,1.6-1.3l5.4-0.9l24.4-4.8l16.4-3.3c3.5-0.6,5.9-3.9,5.4-7.4C115,66.7,105.4,8,105.4,8"
   clip-path="url(#SVGID_2_)"
   id="path10" />
</g>

<style
   id="style846"
   type="text/css">
	.st0{clip-path:url(#SVGID_2_);fill:#A7D900;}
</style><style
   type="text/css"
   id="style849">
	.st0{clip-path:url(#SVGID_2_);fill:#A7D900;}
</style><style
   type="text/css"
   id="style963">
	.st0{clip-path:url(#SVGID_2_);fill:#A7D900;}
</style><style
   type="text/css"
   id="style1313">
	.st0{clip-path:url(#SVGID_2_);fill:#A7D900;}
</style><style
   type="text/css"
   id="style1374">
	.st0{clip-path:url(#SVGID_2_);fill:#A7D900;}
</style><g
   transform="matrix(0.48284661,0,0,0.48284661,30.8335,26.807081)"
   id="g1398">
	<defs
   id="defs1377">
		<rect
   x="0"
   id="rect1409"
   y="-0.2"
   width="126.7"
   height="122.7" />
	</defs>
	<clipPath
   id="SVGID_2_-1">
		<use
   height="100%"
   width="100%"
   y="0"
   x="0"
   xlink:href="#SVGID_1_-256"
   style="overflow:visible"
   id="use1379" />
	</clipPath>
	<path
   style="fill:#a7d900"
   class="st0"
   d="m 20.6,90.3 c -3,2 -2.7,7.1 -2.8,10.3 -0.2,6.4 -1.4,12.9 -1.3,19.3 0.1,3.6 5.6,3.6 5.5,0 -0.1,-5.6 1.2,-11.1 1.1,-16.7 -0.1,-3.8 0.2,-7.3 0.6,-11 0.3,-1.6 -1.8,-2.7 -3.1,-1.9"
   clip-path="url(#SVGID_2_)"
   id="path1382" />
	<path
   style="fill:#a7d900"
   class="st0"
   d="m 77.5,83.4 c 3.5,1.5 6.4,-4.1 7.6,-6.5 2.1,-4.3 2.4,-9.7 0.3,-14 -1.6,-3.4 -6.5,-0.4 -5,2.9 1.1,2.4 0.8,5.8 -0.1,8.2 -0.4,0.9 -0.9,1.8 -1.3,2.7 -0.3,0.5 -0.6,0.9 -0.8,1.4 -0.3,0.7 -1.1,0.6 -0.1,0.6 -2.9,-0.1 -3,3.8 -0.6,4.7"
   clip-path="url(#SVGID_2_)"
   id="path1384" />
	<path
   style="fill:#a7d900"
   class="st0"
   d="m 93,95.6 c 6.4,-6 11.2,-11.9 13.1,-20.7 1.2,-5.6 2.3,-13 -1.9,-17.7 -2.2,-2.5 -5.4,0.7 -4.3,3.3 2.1,4.9 1.4,10.7 -0.1,15.7 -2.1,7.1 -6.9,10.6 -10.7,16.4 -1.6,2.4 1.9,4.8 3.9,3"
   clip-path="url(#SVGID_2_)"
   id="path1386" />
	<path
   style="fill:#a7d900"
   class="st0"
   d="m 106.8,109 c 7.7,-6.2 13.9,-11.7 17.4,-21.5 3.9,-11.1 2.8,-23.7 -0.1,-34.9 -0.9,-3.7 -6.6,-2.1 -5.7,1.6 2.6,10.6 3.8,22.6 -0.3,32.9 -3.3,8.4 -8.9,12.4 -15,18.3 -2.4,2.3 1.2,5.7 3.7,3.6"
   clip-path="url(#SVGID_2_)"
   id="path1388" />
	<path
   style="fill:#a7d900"
   class="st0"
   d="m 59.5,1.3 c -2.7,6.9 -1.7,15.6 2.7,21.6 2.3,3.1 6.4,5.4 8.3,8.6 3.7,6.1 -4.5,5.7 -7.8,7.9 -3,2.1 -0.2,7.1 2.9,5 5,-3.4 16.7,-3.2 12.2,-12.9 -2,-4.2 -6.7,-6.8 -9.7,-10.2 C 63.1,15.6 62.8,9 63.8,1.9 64.1,-0.7 60.3,-0.8 59.5,1.3"
   clip-path="url(#SVGID_2_)"
   id="path1390" />
	<path
   style="fill:#a7d900"
   class="st0"
   d="m 62.7,40.5 c -1.7,1.5 -1.4,4.2 -1.2,6.3 0.2,3 0,6.1 0,9.1 0,3.6 5.7,3.6 5.7,0 0,-4.7 0.3,-9.8 -0.6,-14.4 -0.4,-1.8 -2.7,-2 -3.9,-1"
   clip-path="url(#SVGID_2_)"
   id="path1392" />
	<path
   style="fill:#a7d900"
   class="st0"
   d="m 65.4,53.9 c -3.5,-0.8 -7.1,-0.3 -10.6,-0.4 -3.5,-0.1 -7,-0.8 -10.5,-0.6 -1.2,0.1 -2.5,0.8 -2.8,2.1 -1.1,4.8 0.3,10 3.2,13.9 1.5,2 3.6,3.6 5.9,4.7 2.2,1.1 4.8,0.9 7,1.9 3.3,1.5 6.2,-3.4 2.9,-5 -3,-1.5 -6.4,-1.2 -9.2,-3.3 -3.2,-2.3 -5.1,-7 -4.2,-10.8 -0.9,0.7 -1.8,1.4 -2.8,2.1 7,-0.3 14.1,1.6 21.1,-0.3 2.1,-0.4 2.2,-3.8 0,-4.3"
   clip-path="url(#SVGID_2_)"
   id="path1394" />
	<path
   style="fill:#a7d900"
   class="st0"
   d="m 0.4,81.6 c 4.1,5.7 11,7.6 17.2,10.3 7.3,3.1 14.4,6.4 22.4,6.5 5.5,0.1 12,-0.8 16.2,-4.7 7,-6.4 -0.1,-12.1 3.8,-19.3 1.8,-3.3 -3.3,-6.3 -5.1,-3 -1.9,3.5 -1.6,5.8 -2,9.5 -0.4,3.7 1,7.3 -3.5,10.1 -2.7,1.7 -6.4,1.7 -9.5,1.6 C 33,92.4 27,89.6 20.5,86.9 15.1,84.6 8.6,82.9 4.5,78.4 2.6,76.3 -1.3,79.2 0.4,81.6"
   clip-path="url(#SVGID_2_)"
   id="path1396" />
</g></svg>