<?xml version="1.0" encoding="utf-8"?>
<!-- Generator: Adobe Illustrator 24.0.1, SVG Export Plug-In . SVG Version: 6.00 Build 0)  -->
<svg version="1.1" id="Calque_1" xmlns="http://www.w3.org/2000/svg" xmlns:xlink="http://www.w3.org/1999/xlink" x="0px" y="0px"
	 viewBox="0 0 122 122" style="enable-background:new 0 0 122 122;" xml:space="preserve">
<style type="text/css">
	.st0{fill:#91D902;}
</style>
<g>
	<path d="M100.8,6.8c-0.7-4.4-4.8-7.4-9.3-6.8L14.9,11c-3,0.5-5.1,3.3-4.7,6.3l7.2,48.5c0.6,3.8,2,7.4,4.2,10.5
		c6.8,9.8,22.1,31.8,25.8,36.8c0.9,1.4,3.6,5.5,5.4,8.1c0.7,1,2.2,0.8,2.6-0.3c1.2-3.5,3.2-9.3,4.2-11.7c2.2-5.5,5.6-16.1,6.6-19.3
		c0.2-0.6,0.7-1,1.3-1.2l4.6-0.8L93,84l14.1-2.9c3-0.5,5.1-3.3,4.6-6.4C109,57.3,100.8,6.8,100.8,6.8"/>
</g>
<g>
	<g>
		<g>
			<path class="st0" d="M46.3,45.3c1.2,1.8,4.3,1.8,6.2,1.8c2.5,0,5.1-0.4,7.6-0.7c3-0.4,6.1-1.1,9.1-1.3c2.2-0.2,4.4,0,6.6-0.4
				c1.2-0.2,0.9-2.1-0.3-2.1c-2.1,0-4.1,0.1-6.2,0.3c-2.8,0.2-5.6,0.8-8.3,1.2c-2.4,0.3-4.7,0.7-7.1,0.9c-1.2,0.1-2.5,0.1-3.7,0
				c-1.1-0.1-1.9-0.6-3-0.8C46.6,43.9,45.9,44.6,46.3,45.3L46.3,45.3z"/>
		</g>
	</g>
	<g>
		<g>
			<path class="st0" d="M59.7,28.4c-0.3,3-0.1,6.1,0.1,9.1c0.1,2.6,0.2,5.3,0.4,7.9c0.4,5,1,10,0.6,15c-0.1,1.5,2.1,1.4,2.3,0
				c0.5-5-0.2-10.1-0.7-15c-0.2-2.5-0.3-5.1-0.5-7.7c-0.2-3.1-0.1-6.2-0.4-9.3C61.4,27.3,59.8,27.3,59.7,28.4L59.7,28.4z"/>
		</g>
	</g>
</g>
</svg>
