<?xml version="1.0" encoding="utf-8"?>
<!-- Generator: Adobe Illustrator 24.2.0, SVG Export Plug-In . SVG Version: 6.00 Build 0)  -->
<svg version="1.1"
	 id="Calque_1" xmlns:cc="http://creativecommons.org/ns#" xmlns:dc="http://purl.org/dc/elements/1.1/" xmlns:rdf="http://www.w3.org/1999/02/22-rdf-syntax-ns#" xmlns:svg="http://www.w3.org/2000/svg"
	 xmlns="http://www.w3.org/2000/svg" xmlns:xlink="http://www.w3.org/1999/xlink" x="0px" y="0px" viewBox="0 0 118.3 141.9"
	 style="enable-background:new 0 0 118.3 141.9;" xml:space="preserve">
<style type="text/css">
	.st0{clip-path:url(#SVGID_2_);}
	.st1{fill:none;}
	.st2{fill:#A7D900;}
</style>
<g id="g12" transform="translate(-0.01878972,-0.43216365)">
	<g>
		<defs>
			<rect id="SVGID_1_" x="0" y="0" width="118.3" height="141.9"/>
		</defs>
		<clipPath id="SVGID_2_">
			<use xlink:href="#SVGID_1_"  style="overflow:visible;"/>
		</clipPath>
		<path id="path10" class="st0" d="M105.4,8c-0.8-5.1-5.6-8.7-10.8-7.9L5.5,12.9c-3.5,0.5-5.9,3.8-5.4,7.3l8.3,56.4
			c0.7,4.4,2.3,8.6,4.9,12.3c8,11.4,25.7,36.9,30,42.9c1.1,1.7,4.2,6.3,6.3,9.4c0.8,1.2,2.6,0.9,3-0.4c1.4-4,3.8-10.8,4.9-13.6
			c2.6-6.4,6.5-18.7,7.7-22.5c0.2-0.7,0.8-1.2,1.6-1.3l5.4-0.9l24.4-4.8l16.4-3.3c3.5-0.6,5.9-3.9,5.4-7.4C115,66.7,105.4,8,105.4,8
			"/>
	</g>
</g>
<g id="g2441" transform="matrix(0.48289682,0,0,0.48289682,31.635956,26.992082)">
	<rect x="27" y="37.3" class="st1" width="57.1" height="68.5"/>
	<path id="path2401" class="st2" d="M16.5,62.8c-1.7,0.2-3.4,0.4-4.7,1.6c-1.3,1.2-1.9,2.9-2.2,4.5c-0.6,3.8,1.6,7.1,5.4,8
		c3.1,0.7,7-0.1,8.6-3.1c1.8-3.4-0.6-8.2-3.9-9.6c-2.1-0.9-4.6,1-3.3,3.3c0.5,0.9,3.1,2.5,2.7,3.8c-0.3,0.8-1.8,0.8-2.5,0.7
		c-3.4-0.5-1.9-4.5,0.5-5.3C19,66.1,18.9,62.6,16.5,62.8"/>
	<rect x="27" y="37.3" class="st1" width="57.1" height="68.5"/>
	<path id="path2403" class="st2" d="M102,65c-2.1-3.2-6.7-3.6-9.9-1.8c-3.7,2.1-3.8,7.2-1.3,10.3c2.7,3.3,8.3,4.3,11.4,0.9
		c1.5-1.6,1.8-3.9,1.4-6c-0.3-2.1-1.6-3.5-3.5-4.5c-2-1.1-4.8,1.2-3.3,3.3c0.9,1.2,2.6,2.1,1.4,3.7c0.3-0.4-0.4,0.2-0.6,0.2
		c-0.3,0.1-0.6,0.1-0.9,0.1c-0.8-0.1-1.6-0.6-2.1-1.3c-2.1-2.9,2.9-3.5,4.6-2.3C100.9,68.9,103,66.6,102,65"/>
	<rect x="27" y="37.3" class="st1" width="57.1" height="68.5"/>
	<path id="path2405" class="st2" d="M-0.2,90.7c7.6-2.1,13.7-8.1,18.1-14.4c1.5-2.1-2-4.9-3.6-2.8C9.7,79.3,5,83.9-1.9,86.9
		C-4.1,87.8-2.5,91.4-0.2,90.7"/>
	<rect x="27" y="37.3" class="st1" width="57.1" height="68.5"/>
	<path id="path2407" class="st2" d="M16.9,76.4c11.3,9.5,20.9,14.3,36.4,15.7c16.6,1.5,33-4,45.1-15.4c2.2-2.1-1.1-5.4-3.3-3.3
		C82,85.7,64.4,89.7,46.9,86.3c-11.3-2.2-18.5-6.8-27.6-13C17.5,72,15.1,74.9,16.9,76.4"/>
	<rect x="27" y="37.3" class="st1" width="57.1" height="68.5"/>
	<path id="path2409" class="st2" d="M95.7,74.8c0.8,4,5.1,6.6,8.3,8.6c3.9,2.5,8.7,4.5,13.2,5.7c2.4,0.7,3.7-2.2,2.3-3.9
		c-2.1-2.6-7.5-3.2-10.3-4.6c-3.6-1.8-7.2-4.1-9.5-7.4C98.2,71.1,95.2,72.3,95.7,74.8"/>
	<rect x="27" y="37.3" class="st1" width="57.1" height="68.5"/>
	<path id="path2411" class="st2" d="M-1.7,121.7c40.5,2.3,80.5,0.2,120.8-0.8c3.1-0.1,3.1-5,0-4.9c-20.1,0.5-40.5,3-60.5,2.6
		c-20.1-0.4-40.2-2-60.4-0.8C-4.2,118-4.2,121.6-1.7,121.7"/>
	<rect x="27" y="37.3" class="st1" width="57.1" height="68.5"/>
	<path id="path2413" class="st2" d="M95.9,73.9c-1.7,8.2-1.1,17.4-1.2,25.7c-0.1,6.4-0.7,13.3,0.7,19.6c0.5,2.5,4.5,2.5,5.1,0
		c1.2-5.1-0.4-12.8-0.4-18c0-9-0.2-17.9-0.4-26.8C99.6,72.4,96.4,71.8,95.9,73.9"/>
	<rect x="27" y="37.3" class="st1" width="57.1" height="68.5"/>
	<path id="path2415" class="st2" d="M15.2,73.9c-1.7,8.2-1.1,17.4-1.2,25.7c-0.1,6.4-0.7,13.3,0.7,19.6c0.5,2.5,4.5,2.5,5.1,0
		c1.2-5.1-0.4-12.8-0.4-18c0-9-0.2-17.9-0.4-26.8C18.9,72.4,15.6,71.8,15.2,73.9"/>
	<rect x="27" y="37.3" class="st1" width="57.1" height="68.5"/>
	<path id="path2417" class="st2" d="M16.3,5.4c9.2,2.3,19.9-0.1,29.3-0.2c3,0,3-4.6,0-4.6c-9.5,0.1-19.2,1.7-28.7,0.8
		C14.6,1.2,14.2,4.8,16.3,5.4"/>
	<rect x="27" y="37.3" class="st1" width="57.1" height="68.5"/>
	<path id="path2419" class="st2" d="M15.1,3.1c-0.5,3.4,0.3,7.2,0.2,10.6c-0.1,5.5-0.3,11-0.3,16.6c0,2.9,4.5,2.9,4.5,0
		c0-5.2,0.2-10.4,0.2-15.6c0-3.5-0.9-7.6-0.5-11C19.5,1.4,15.5,0.8,15.1,3.1"/>
	<rect x="27" y="37.3" class="st1" width="57.1" height="68.5"/>
	<path id="path2421" class="st2" d="M43.2,3c-0.4,4.9-0.4,9.8-0.7,14.6c-0.2,3.5,0.3,7.4-0.2,10.8c-0.4,2.5,2.8,4.2,4.3,1.8
		c1.5-2.4,0.4-6.9,0.6-9.7c0.3-5.9,0.6-11.7,0.2-17.6C47.2,0.3,43.4,0.3,43.2,3"/>
	<rect x="27" y="37.3" class="st1" width="57.1" height="68.5"/>
	<path id="path2423" class="st2" d="M16.8,32.1c9.1,2.2,18.4,0.5,27.6,1c3,0.2,3-4.4,0-4.7c-4-0.4-8.2,0.1-12.2,0.1
		c-4.9,0-9.9-0.1-14.8-0.5C15,27.7,14.6,31.5,16.8,32.1"/>
	<rect x="27" y="37.3" class="st1" width="57.1" height="68.5"/>
	<path id="path2425" class="st2" d="M55.1,4C54.6,8.2,54,12.1,54,16.4c0,4,0.5,8.2,0,12.2c-0.4,2.9,3.9,4.3,4.6,1.3
		c0.9-4,0.4-8.4,0.2-12.5c-0.1-4.6,0.7-9.3,0.1-13.8C58.6,1.1,55.3,2,55.1,4"/>
	<rect x="27" y="37.3" class="st1" width="57.1" height="68.5"/>
	<path id="path2427" class="st2" d="M56.4,5.2c4.4,2.5,10.4,1.5,15.3,1.4c8.4-0.2,16.7-0.8,25.2-0.2c2.9,0.2,2.9-4.3,0-4.5
		c-12.7-0.8-26.6,2.6-39-0.1C55.8,1.3,54.5,4.1,56.4,5.2"/>
	<rect x="27" y="37.3" class="st1" width="57.1" height="68.5"/>
	<path id="path2429" class="st2" d="M96.6,4.9c-0.9,3.5-1.6,7-1.7,10.7c-0.1,2.5,0,5.1,0,7.6c0,1.5,0.5,3.8-0.2,5.2
		c-1.3,2.8,2.9,5.3,4.2,2.5c1.6-3.4,0.9-7.8,0.9-11.5c0-4.7,1.5-9.9,0.6-14.5C99.9,3,97,3.1,96.6,4.9"/>
	<rect x="27" y="37.3" class="st1" width="57.1" height="68.5"/>
	<path id="path2431" class="st2" d="M57.5,31.9c12.7,0.1,25.6-0.8,38.2,0c3.1,0.2,3.1-4.7,0-4.9c-12.3-0.8-25.9-0.6-38.2,0.8
		C54.8,28,54.7,31.9,57.5,31.9"/>
	<rect x="27" y="37.3" class="st1" width="57.1" height="68.5"/>
	<path id="path2433" class="st2" d="M39.1,41.3c13.8,1.3,27.7,0,41.5-0.5c3.1-0.1,3.1-5,0-4.9c-13.7,0.4-27.9,0.1-41.5,1.4
		C36.6,37.5,36.6,41,39.1,41.3"/>
	<rect x="27" y="37.3" class="st1" width="57.1" height="68.5"/>
	<path id="path2435" class="st2" d="M37.4,39.9c0.4,11-0.3,21.7-0.5,32.7c-0.1,3.1,4.8,3.1,4.8,0c0.2-11.2,1.6-22.1-0.1-33.2
		C41.2,37,37.3,37.5,37.4,39.9"/>
	<rect x="27" y="37.3" class="st1" width="57.1" height="68.5"/>
	<path id="path2437" class="st2" d="M78.9,38.7c-0.8,11.7-0.6,23.6-1.4,35.3c-0.2,3.2,4.8,3.2,5,0c0.8-11.8,1.6-23.5,0.7-35.3
		C83,36,79.1,36,78.9,38.7"/>
	<rect x="27" y="37.3" class="st1" width="57.1" height="68.5"/>
	<path id="path2439" class="st2" d="M38.2,76c4.8,2,11.8,1.5,16.9,1.2c7.5-0.4,15-0.6,22.5-0.6c3.2,0,3.2-4.9,0-5
		c-13-0.2-25.9,1.1-38.9,0.6C36.4,72.2,36.4,75.3,38.2,76"/>
</g>
</svg>
