<?xml version="1.0" encoding="UTF-8" standalone="no"?>
<svg
   xmlns:dc="http://purl.org/dc/elements/1.1/"
   xmlns:cc="http://creativecommons.org/ns#"
   xmlns:rdf="http://www.w3.org/1999/02/22-rdf-syntax-ns#"
   xmlns:svg="http://www.w3.org/2000/svg"
   xmlns="http://www.w3.org/2000/svg"
   xmlns:xlink="http://www.w3.org/1999/xlink"
   xml:space="preserve"
   style="enable-background:new 0 0 118.3 141.9;"
   viewBox="0 0 118.3 141.9"
   y="0px"
   x="0px"
   id="Calque_1"
   version="1.1"><metadata
   id="metadata39"><rdf:RDF><cc:Work
       rdf:about=""><dc:format>image/svg+xml</dc:format><dc:type
         rdf:resource="http://purl.org/dc/dcmitype/StillImage" /><dc:title></dc:title></cc:Work></rdf:RDF></metadata><defs
   id="defs37"><rect
     id="SVGID_1_-2"
     width="164.8"
     height="122.4" /><rect
     id="SVGID_1_-3"
     y="-0.2"
     width="126.7"
     height="122.7" /><rect
     id="SVGID_1_-4"
     width="155.7"
     height="122.3" /></defs>
<style
   id="style2"
   type="text/css">
	.st0{clip-path:url(#SVGID_2_);fill:#181716;}
	.st1{clip-path:url(#SVGID_4_);fill:#91D900;}
</style>
<g
   id="g12">
	<defs
   id="defs5">
		<rect
   height="141.9"
   width="118.3"
   id="SVGID_1_" />
	</defs>
	<clipPath
   id="SVGID_2_">
		<use
   id="use7"
   style="overflow:visible;"
   xlink:href="#SVGID_1_" />
	</clipPath>
	<path
   id="path10"
   clip-path="url(#SVGID_2_)"
   d="M105.4,8c-0.8-5.1-5.6-8.7-10.8-7.9L5.5,12.9c-3.5,0.5-5.9,3.8-5.4,7.3l8.3,56.4c0.7,4.4,2.3,8.6,4.9,12.3   c8,11.4,25.7,36.9,30,42.9c1.1,1.7,4.2,6.3,6.3,9.4c0.8,1.2,2.6,0.9,3-0.4c1.4-4,3.8-10.8,4.9-13.6c2.6-6.4,6.5-18.7,7.7-22.5   c0.2-0.7,0.8-1.2,1.6-1.3l5.4-0.9l24.4-4.8l16.4-3.3c3.5-0.6,5.9-3.9,5.4-7.4C115,66.7,105.4,8,105.4,8"
   class="st0" />
</g>

<style
   type="text/css"
   id="style846">
	.st0{clip-path:url(#SVGID_2_);fill:#A7D900;}
</style><style
   type="text/css"
   id="style900">
	.st0{clip-path:url(#SVGID_2_);fill:#A7D900;}
</style><style
   type="text/css"
   id="style949">
	.st0{clip-path:url(#SVGID_2_);fill:#A7D900;}
</style><g
   transform="matrix(0.48284663,0,0,0.48284663,31.672974,27.79033)"
   id="g987">
	<defs
   id="defs952">
		<rect
   y="0"
   x="0"
   id="rect998"
   width="155.7"
   height="122.3" />
	</defs>
	<clipPath
   id="SVGID_2_-9">
		<use
   height="100%"
   width="100%"
   y="0"
   x="0"
   xlink:href="#SVGID_1_-4"
   style="overflow:visible"
   id="use954" />
	</clipPath>
	<path
   style="fill:#a7d900"
   class="st0"
   d="m 3.4,4.9 c 25.8,-1.2 52.2,0.3 78.1,-0.3 13.1,-0.3 25.8,1.7 38.8,2.2 9.7,0.4 22.1,-3.2 31.4,-0.5 2.8,0.8 4.1,-3.6 1.2,-4.4 -8.3,-2.4 -18.6,0.5 -27.1,0.5 C 113.1,2.3 100.5,0.1 87.7,0 73.4,-0.1 59,1.3 44.7,1.3 31,1.2 17.1,-0.4 3.4,0.7 0.7,0.9 0.7,5.1 3.4,4.9"
   clip-path="url(#SVGID_2_)"
   id="path957" />
	<path
   style="fill:#a7d900"
   class="st0"
   d="M 2.9,92.4 C 53,93.3 103,94 153.1,94 c 3.1,0 3.1,-4.8 0,-4.8 h -0.7 c -3.1,0 -3.1,4.8 0,4.8 h 0.7 v -4.8 c -50,0 -100.3,-2.9 -150.2,-1 -2.7,0.1 -2.7,4.1 0,4.2"
   clip-path="url(#SVGID_2_)"
   id="path959" />
	<path
   style="fill:#a7d900"
   class="st0"
   d="m 16.6,88.4 c 1.7,-28.3 0.8,-57 2.9,-85.1 0.2,-2.7 -4.4,-3.4 -4.8,-0.7 0,-0.1 0,-0.2 0.1,-0.3 -1.5,2.3 2,5.1 3.8,3 C 19,4.9 19.3,4.5 19.5,3.9 17.9,3.7 16.3,3.5 14.7,3.3 c -1.2,13.3 -0.2,26.9 -0.4,40.3 -0.3,15 -1.8,29.9 -1.8,44.9 -0.2,2.7 3.9,2.7 4.1,-0.1"
   clip-path="url(#SVGID_2_)"
   id="path961" />
	<path
   style="fill:#a7d900"
   class="st0"
   d="m 142.6,89.7 c -0.9,-5.8 1.1,-14.5 1,-20.7 -0.1,-7.1 -0.8,-14.1 -0.5,-21.2 0.5,-14 1.3,-27.8 0.8,-41.9 -0.1,-2 -2.8,-3.6 -4.3,-1.8 -0.1,0.1 -0.2,0.2 -0.3,0.3 -2.1,2.5 1.4,6 3.6,3.6 0.1,-0.1 0.2,-0.2 0.3,-0.3 -1.4,-0.6 -2.9,-1.2 -4.3,-1.8 0.3,15.9 -0.9,31.6 -1,47.5 0,6.7 0.9,13.4 0.8,20.1 -0.1,6.1 -1.6,11.4 -0.1,17.4 0.6,2.7 4.4,1.5 4,-1.2"
   clip-path="url(#SVGID_2_)"
   id="path963" />
	<path
   style="fill:#a7d900"
   class="st0"
   d="m 31.8,53.4 c 11.8,-5.1 21,-12.5 26.9,-24.3 3.1,-6.2 8,-17.2 6.9,-24.4 -0.5,-3.3 -5.3,-1.8 -4.9,1.4 0.9,6.6 -5.4,19.3 -8.4,24.3 -2.7,4.4 -6.2,8.7 -10.3,12 -3.9,3.2 -8.7,4.7 -12.6,7.8 -2.1,1.6 0.5,4.1 2.4,3.2"
   clip-path="url(#SVGID_2_)"
   id="path965" />
	<path
   style="fill:#a7d900"
   class="st0"
   d="m 29.3,52.9 c 8,11.6 11.2,22.9 11.4,37.1 0.1,3.4 5.4,3.4 5.3,0 -0.2,-12.6 -2.4,-32 -14,-39.8 -1.6,-1.1 -3.8,1.1 -2.7,2.7"
   clip-path="url(#SVGID_2_)"
   id="path967" />
	<path
   style="fill:#a7d900"
   class="st0"
   d="m 7.4,55.1 c 2.9,2.7 7.8,1.9 11.4,1.8 5.8,-0.3 11.7,0 17.5,-0.6 3.2,-0.3 3.3,-4.7 0,-5 C 31.2,50.8 25.9,51.2 20.8,51.5 16.8,51.7 12.9,51.4 9,51.4 7,51.2 5.9,53.7 7.4,55.1"
   clip-path="url(#SVGID_2_)"
   id="path969" />
	<path
   style="fill:#a7d900"
   class="st0"
   d="m 127.6,50.2 c -3.3,-2.7 -7.3,-4 -10.8,-6.5 -4.9,-3.5 -9,-8.2 -12.1,-13.3 -3.1,-4.9 -9.3,-17.8 -8.4,-24.3 0.4,-3.2 -4.4,-4.6 -4.9,-1.4 -1.2,7.2 3.7,18.2 6.9,24.4 5.9,11.7 15,19.1 26.9,24.3 1.8,0.9 4.4,-1.6 2.4,-3.2"
   clip-path="url(#SVGID_2_)"
   id="path971" />
	<path
   style="fill:#a7d900"
   class="st0"
   d="m 124.9,50.2 c -11.6,7.9 -13.8,27.2 -14,39.8 0,3.4 5.3,3.4 5.3,0 0.2,-14.2 3.4,-25.5 11.4,-37.1 1.1,-1.6 -1.1,-3.8 -2.7,-2.7"
   clip-path="url(#SVGID_2_)"
   id="path973" />
	<path
   style="fill:#a7d900"
   class="st0"
   d="m 147.9,51.3 c -4,0 -7.8,0.3 -11.8,0.1 -5.1,-0.2 -10.4,-0.6 -15.5,-0.2 -3.3,0.3 -3.2,4.7 0,5 5.8,0.6 11.7,0.3 17.5,0.6 3.6,0.2 8.5,1 11.4,-1.8 1.4,-1.2 0.4,-3.8 -1.6,-3.7"
   clip-path="url(#SVGID_2_)"
   id="path975" />
	<path
   style="fill:#a7d900"
   class="st0"
   d="m 1.7,121 c 9.2,2.4 19.7,0.7 29.2,0.7 12.2,0.1 24.4,0.6 36.7,0.3 28.4,-0.6 57.2,-0.7 85.6,-0.4 3.3,0 3.1,-4.6 0,-5 -0.5,-0.1 -0.9,-0.1 -1.4,-0.2 -2.7,-0.4 -3.3,4.1 -0.6,4.8 0.5,0.1 0.9,0.2 1.4,0.3 0.2,-1.6 0.4,-3.3 0.7,-4.9 -26.9,-0.4 -53.8,0.4 -80.7,0.2 -11.4,-0.1 -22.7,0.2 -34.1,-0.1 -11.3,-0.2 -24.4,1.8 -35.5,-0.5 -3,-0.5 -4.3,4 -1.3,4.8"
   clip-path="url(#SVGID_2_)"
   id="path977" />
	<path
   style="fill:#a7d900"
   class="st0"
   d="m 14.8,119.2 c -0.4,-6.7 10.2,-14.1 15.8,-13.7 3.3,0.2 6,1.7 8.3,4.2 0.6,0.7 4.4,5.1 4,6.3 -0.9,2.7 3.1,4.3 4.5,1.9 1.9,-3.2 -1.6,-7.3 -3.5,-9.8 -3.2,-4.2 -7.1,-7 -12.6,-7.5 -6.3,-0.5 -11.1,2.4 -15.1,7 -2.8,3.2 -6.9,7.6 -5.6,12.1 0.6,2.4 4.3,2 4.2,-0.5"
   clip-path="url(#SVGID_2_)"
   id="path979" />
	<path
   style="fill:#a7d900"
   class="st0"
   d="m 47.6,115.5 c 0,-15.7 30.2,-13.9 28,2.4 -0.4,2.8 4.1,3.2 4.8,0.6 3,-10.2 -10.3,-20 -19.5,-19.4 -6.1,0.4 -22.8,8.8 -17.3,17.4 1.1,1.8 4,1.2 4,-1"
   clip-path="url(#SVGID_2_)"
   id="path981" />
	<path
   style="fill:#a7d900"
   class="st0"
   d="m 80.6,116.6 c 0.5,-3.1 1.7,-7.3 4.5,-9.1 2.3,-1.4 6.6,-1.8 9.3,-1.6 6.4,0.5 12.5,5.5 12.1,12.2 -0.2,3.3 4.8,3.2 5.1,0 C 113.3,97 74.1,94.6 76.4,116 c 0.2,2.2 3.8,3.2 4.2,0.6"
   clip-path="url(#SVGID_2_)"
   id="path983" />
	<path
   style="fill:#a7d900"
   class="st0"
   d="m 110.7,116.1 c 1.2,-7.2 9.5,-12.3 16.3,-9.7 5.5,2.1 8.5,6.9 11.2,11.8 1.3,2.4 5.1,0.8 4.4,-1.8 -2.3,-8.1 -10.7,-15.5 -19.3,-15.8 -8,-0.3 -16.4,6.9 -17.1,14.9 -0.3,2.6 4.1,3.2 4.5,0.6"
   clip-path="url(#SVGID_2_)"
   id="path985" />
</g></svg>