<?xml version="1.0" encoding="utf-8"?>
<!-- Generator: Adobe Illustrator 24.2.0, SVG Export Plug-In . SVG Version: 6.00 Build 0)  -->
<svg version="1.1"
	 id="Calque_1" xmlns:cc="http://creativecommons.org/ns#" xmlns:dc="http://purl.org/dc/elements/1.1/" xmlns:rdf="http://www.w3.org/1999/02/22-rdf-syntax-ns#" xmlns:svg="http://www.w3.org/2000/svg"
	 xmlns="http://www.w3.org/2000/svg" xmlns:xlink="http://www.w3.org/1999/xlink" x="0px" y="0px" viewBox="0 0 118.3 141.9"
	 style="enable-background:new 0 0 118.3 141.9;" xml:space="preserve">
<style type="text/css">
	.st0{clip-path:url(#SVGID_2_);}
	.st1{fill:none;}
	.st2{fill:#A7D900;}
</style>
<g id="g12">
	<g>
		<defs>
			<rect id="SVGID_1_" width="118.3" height="141.9"/>
		</defs>
		<clipPath id="SVGID_2_">
			<use xlink:href="#SVGID_1_"  style="overflow:visible;"/>
		</clipPath>
		<path id="path10" class="st0" d="M105.4,8c-0.8-5.1-5.6-8.7-10.8-7.9L5.5,12.9c-3.5,0.5-5.9,3.8-5.4,7.3l8.3,56.4
			c0.7,4.4,2.3,8.6,4.9,12.3c8,11.4,25.7,36.9,30,42.9c1.1,1.7,4.2,6.3,6.3,9.4c0.8,1.2,2.6,0.9,3-0.4c1.4-4,3.8-10.8,4.9-13.6
			c2.6-6.4,6.5-18.7,7.7-22.5c0.2-0.7,0.8-1.2,1.6-1.3l5.4-0.9l24.4-4.8l16.4-3.3c3.5-0.6,5.9-3.9,5.4-7.4C115,66.7,105.4,8,105.4,8
			"/>
	</g>
</g>
<g id="g1183" transform="matrix(0.19006356,0,0,0.19006356,31.669896,33.970168)">
	<g id="g1041">
		<rect x="47.9" y="57.5" class="st1" width="22.5" height="27"/>
		<path id="path1039" class="st2" d="M6.6,9.5C56.4,7.1,107.3,10,157.4,8.9c25.3-0.6,49.8,3.3,74.9,4.2c18.7,0.8,42.7-6.2,60.6-1
			c5.4,1.5,7.9-7,2.3-8.5c-16-4.6-35.9,1-52.3,1C218.4,4.4,194,0.2,169.3,0c-27.6-0.2-55.4,2.5-83,2.5C59.9,2.3,33-0.8,6.6,1.4
			C1.4,1.7,1.4,9.8,6.6,9.5"/>
	</g>
	<g id="g1051">
		<rect x="121.7" y="95.6" class="st1" width="57.1" height="44.9"/>
		<path id="path1049" class="st2" d="M5.6,178.4c96.7,1.7,193.3,3.1,290,3.1c6,0,6-9.3,0-9.3h-1.4c-6,0-6,9.3,0,9.3h1.4v-9.3
			c-96.5,0-193.7-5.6-290-1.9C0.4,170.5,0.4,178.2,5.6,178.4"/>
	</g>
	<g id="g1061">
		<rect x="121.7" y="95.6" class="st1" width="57.1" height="44.9"/>
		<path id="path1059" class="st2" d="M32.1,170.7C35.3,116,33.6,60.6,37.6,6.4C38,1.2,29.2-0.2,28.4,5c0-0.2,0-0.4,0.2-0.6
			c-2.9,4.4,3.9,9.8,7.3,5.8c0.8-0.8,1.4-1.5,1.7-2.7c-3.1-0.4-6.2-0.8-9.3-1.2C26,32,27.9,58.2,27.5,84.1
			c-0.6,29-3.5,57.7-3.5,86.7C23.7,176.1,31.7,176.1,32.1,170.7"/>
	</g>
	<g id="g1071">
		<rect x="121.7" y="95.6" class="st1" width="57.1" height="44.9"/>
		<path id="path1069" class="st2" d="M275.3,173.2c-1.7-11.2,2.1-28,1.9-40c-0.2-13.7-1.5-27.2-1-40.9c1-27,2.5-53.7,1.5-80.9
			c-0.2-3.9-5.4-7-8.3-3.5c-0.2,0.2-0.4,0.4-0.6,0.6c-4.1,4.8,2.7,11.6,7,7c0.2-0.2,0.4-0.4,0.6-0.6c-2.7-1.2-5.6-2.3-8.3-3.5
			c0.6,30.7-1.7,61-1.9,91.7c0,12.9,1.7,25.9,1.5,38.8c-0.2,11.8-3.1,22-0.2,33.6C268.8,180.7,276.1,178.4,275.3,173.2"/>
	</g>
	<g id="g1081">
		<rect x="121.7" y="95.6" class="st1" width="57.1" height="44.9"/>
		<path id="path1079" class="st2" d="M61.4,103.1c22.8-9.8,40.5-24.1,51.9-46.9c6-12,15.4-33.2,13.3-47.1c-1-6.4-10.2-3.5-9.5,2.7
			c1.7,12.7-10.4,37.3-16.2,46.9c-5.2,8.5-12,16.8-19.9,23.2C73.5,88.1,64.2,91,56.7,97C52.7,100,57.7,104.8,61.4,103.1"/>
	</g>
	<g id="g1091">
		<rect x="121.7" y="95.6" class="st1" width="57.1" height="44.9"/>
		<path id="path1089" class="st2" d="M56.6,102.1c15.4,22.4,21.6,44.2,22,71.6c0.2,6.6,10.4,6.6,10.2,0c-0.4-24.3-4.6-61.8-27-76.8
			C58.7,94.8,54.4,99,56.6,102.1"/>
	</g>
	<g id="g1101">
		<rect x="121.7" y="95.6" class="st1" width="57.1" height="44.9"/>
		<path id="path1099" class="st2" d="M14.3,106.4c5.6,5.2,15.1,3.7,22,3.5c11.2-0.6,22.6,0,33.8-1.2c6.2-0.6,6.4-9.1,0-9.7
			c-9.8-1-20.1-0.2-29.9,0.4c-7.7,0.4-15.3-0.2-22.8-0.2C13.5,98.9,11.4,103.7,14.3,106.4"/>
	</g>
	<g id="g1111">
		<rect x="121.7" y="95.6" class="st1" width="57.1" height="44.9"/>
		<path id="path1109" class="st2" d="M246.4,96.9c-6.4-5.2-14.1-7.7-20.9-12.5c-9.5-6.8-17.4-15.8-23.4-25.7
			c-6-9.5-18-34.4-16.2-46.9c0.8-6.2-8.5-8.9-9.5-2.7c-2.3,13.9,7.1,35.1,13.3,47.1c11.4,22.6,29,36.9,51.9,46.9
			C245.2,104.8,250.2,100,246.4,96.9"/>
	</g>
	<g id="g1121">
		<rect x="121.7" y="95.6" class="st1" width="57.1" height="44.9"/>
		<path id="path1119" class="st2" d="M241.1,96.9c-22.4,15.3-26.6,52.5-27,76.8c0,6.6,10.2,6.6,10.2,0c0.4-27.4,6.6-49.2,22-71.6
			C248.5,99,244.2,94.8,241.1,96.9"/>
	</g>
	<g id="g1131">
		<rect x="121.7" y="95.6" class="st1" width="57.1" height="44.9"/>
		<path id="path1129" class="st2" d="M285.6,99c-7.7,0-15.1,0.6-22.8,0.2c-9.8-0.4-20.1-1.2-29.9-0.4c-6.4,0.6-6.2,9.1,0,9.7
			c11.2,1.2,22.6,0.6,33.8,1.2c7,0.4,16.4,1.9,22-3.5C291.3,103.9,289.4,98.9,285.6,99"/>
	</g>
	<g id="g1141">
		<rect x="121.7" y="95.6" class="st1" width="57.1" height="44.9"/>
		<path id="path1139" class="st2" d="M3.3,233.6c17.8,4.6,38,1.4,56.4,1.4c23.6,0.2,47.1,1.2,70.9,0.6c54.8-1.2,110.4-1.4,165.3-0.8
			c6.4,0,6-8.9,0-9.7c-1-0.2-1.7-0.2-2.7-0.4c-5.2-0.8-6.4,7.9-1.2,9.3c1,0.2,1.7,0.4,2.7,0.6c0.4-3.1,0.8-6.4,1.4-9.5
			c-51.9-0.8-103.9,0.8-155.8,0.4c-22-0.2-43.8,0.4-65.8-0.2c-21.8-0.4-47.1,3.5-68.5-1C0,223.4-2.5,232.1,3.3,233.6"/>
	</g>
	<g id="g1151">
		<rect x="121.7" y="95.6" class="st1" width="57.1" height="44.9"/>
		<path id="path1149" class="st2" d="M28.6,230.1c-0.8-12.9,19.7-27.2,30.5-26.5c6.4,0.4,11.6,3.3,16,8.1c1.2,1.4,8.5,9.8,7.7,12.2
			c-1.7,5.2,6,8.3,8.7,3.7c3.7-6.2-3.1-14.1-6.8-18.9c-6.2-8.1-13.7-13.5-24.3-14.5c-12.2-1-21.4,4.6-29.2,13.5
			c-5.4,6.2-13.3,14.7-10.8,23.4C21.6,235.7,28.8,235,28.6,230.1"/>
	</g>
	<g id="g1161">
		<rect x="121.7" y="95.6" class="st1" width="57.1" height="44.9"/>
		<path id="path1159" class="st2" d="M91.9,223c0-30.3,58.3-26.8,54.1,4.6c-0.8,5.4,7.9,6.2,9.3,1.2c5.8-19.7-19.9-38.6-37.6-37.5
			c-11.8,0.8-44,17-33.4,33.6C86.3,228.4,91.9,227.2,91.9,223"/>
	</g>
	<g id="g1171">
		<rect x="121.7" y="95.6" class="st1" width="57.1" height="44.9"/>
		<path id="path1169" class="st2" d="M155.6,225.1c1-6,3.3-14.1,8.7-17.6c4.4-2.7,12.7-3.5,18-3.1c12.4,1,24.1,10.6,23.4,23.6
			c-0.4,6.4,9.3,6.2,9.8,0c3.3-40.7-72.4-45.4-68-4.1C147.9,228.2,154.8,230.1,155.6,225.1"/>
	</g>
	<g id="g1181">
		<rect x="121.7" y="95.6" class="st1" width="57.1" height="44.9"/>
		<path id="path1179" class="st2" d="M213.7,224.2c2.3-13.9,18.3-23.7,31.5-18.7c10.6,4.1,16.4,13.3,21.6,22.8
			c2.5,4.6,9.8,1.5,8.5-3.5c-4.4-15.6-20.7-29.9-37.3-30.5c-15.4-0.6-31.7,13.3-33,28.8C204.5,228,213,229.2,213.7,224.2"/>
	</g>
</g>
</svg>
