<?xml version="1.0" encoding="UTF-8" standalone="no"?>
<svg
   xmlns:dc="http://purl.org/dc/elements/1.1/"
   xmlns:cc="http://creativecommons.org/ns#"
   xmlns:rdf="http://www.w3.org/1999/02/22-rdf-syntax-ns#"
   xmlns:svg="http://www.w3.org/2000/svg"
   xmlns="http://www.w3.org/2000/svg"
   xmlns:xlink="http://www.w3.org/1999/xlink"
   version="1.1"
   id="Calque_1"
   x="0px"
   y="0px"
   viewBox="0 0 118.3 141.9"
   style="enable-background:new 0 0 118.3 141.9;"
   xml:space="preserve"><metadata
   id="metadata39"><rdf:RDF><cc:Work
       rdf:about=""><dc:format>image/svg+xml</dc:format><dc:type
         rdf:resource="http://purl.org/dc/dcmitype/StillImage" /><dc:title></dc:title></cc:Work></rdf:RDF></metadata><defs
   id="defs37"><rect
     height="122.4"
     width="164.8"
     id="SVGID_1_-2" /><rect
     id="SVGID_1_-1"
     width="133.3"
     height="122.4" /></defs>
<style
   type="text/css"
   id="style2">
	.st0{clip-path:url(#SVGID_2_);fill:#181716;}
	.st1{clip-path:url(#SVGID_4_);fill:#91D900;}
</style>
<g
   style="fill:#000000;fill-opacity:1"
   id="g12">
	<defs
   id="defs5">
		<rect
   id="SVGID_1_"
   width="118.3"
   height="141.9" />
	</defs>
	<clipPath
   id="SVGID_2_">
		<use
   xlink:href="#SVGID_1_"
   style="overflow:visible;"
   id="use7" />
	</clipPath>
	<path
   style="fill:#000000;fill-opacity:1"
   class="st0"
   d="M105.4,8c-0.8-5.1-5.6-8.7-10.8-7.9L5.5,12.9c-3.5,0.5-5.9,3.8-5.4,7.3l8.3,56.4c0.7,4.4,2.3,8.6,4.9,12.3   c8,11.4,25.7,36.9,30,42.9c1.1,1.7,4.2,6.3,6.3,9.4c0.8,1.2,2.6,0.9,3-0.4c1.4-4,3.8-10.8,4.9-13.6c2.6-6.4,6.5-18.7,7.7-22.5   c0.2-0.7,0.8-1.2,1.6-1.3l5.4-0.9l24.4-4.8l16.4-3.3c3.5-0.6,5.9-3.9,5.4-7.4C115,66.7,105.4,8,105.4,8"
   clip-path="url(#SVGID_2_)"
   id="path10" />
</g>

<style
   id="style846"
   type="text/css">
	.st0{clip-path:url(#SVGID_2_);fill:#A7D900;}
</style><style
   type="text/css"
   id="style849">
	.st0{clip-path:url(#SVGID_2_);fill:#A7D900;}
</style><g
   transform="matrix(0.48284661,0,0,0.48284661,31.672974,26.861546)"
   id="g911">
	<defs
   id="defs852">
		<rect
   y="0"
   x="0"
   id="rect922"
   width="133.3"
   height="122.4" />
	</defs>
	<clipPath
   id="SVGID_2_-3">
		<use
   height="100%"
   width="100%"
   y="0"
   x="0"
   xlink:href="#SVGID_1_-1"
   style="overflow:visible"
   id="use854" />
	</clipPath>
	<path
   style="fill:#a7d900"
   class="st0"
   d="M 2.1,6.7 C 23.4,6.2 44,6.9 65.4,7.5 71.8,7.7 128,4.9 128,2.8 c 0.1,3.1 4.9,3.1 4.8,0 0,-0.1 0,-0.3 0,-0.4 C 132.8,1.1 131.7,0 130.4,0 108.6,-0.2 87.2,3.4 65.4,2.8 43.9,2.2 23.6,0.8 2.1,2.4 c -2.8,0.2 -2.8,4.3 0,4.3"
   clip-path="url(#SVGID_2_)"
   id="path857" />
	<path
   style="fill:#a7d900"
   class="st0"
   d="m 2.2,19.7 c 20.1,-1.5 40.3,1.1 60.4,1.4 21.6,0.4 46.3,-4.5 67.5,0 2.9,0.6 4.2,-3.9 1.2,-4.5 -20.9,-4.2 -44.6,0.2 -65.8,0 C 44.6,16.4 22.4,12.3 1.7,15.8 -0.5,16.1 0,19.9 2.2,19.7"
   clip-path="url(#SVGID_2_)"
   id="path859" />
	<path
   style="fill:#a7d900"
   class="st0"
   d="m 7.9,3.5 c -2,3.5 3.8,6.8 6.1,8.3 2.3,1.5 4.7,2.9 7.1,4.3 0.9,0.5 1.9,1.1 2.8,1.6 0.3,0.2 0.9,0.7 1.3,0.8 2.2,0.7 -3,1.1 0.4,-2.5 -1.3,1.4 -0.4,3.6 1.5,3.7 0.6,0 1.1,-0.1 1.6,-0.4 1.3,-0.7 1.7,-2.8 0.5,-3.8 C 26.5,13.3 23.3,11.8 20.3,10 18.5,8.9 16.7,7.8 14.9,6.6 14.1,6.1 13.5,5.5 12.7,5 12.2,4.6 11.7,3.6 11.8,4.5 11.6,2.6 9,1.5 7.9,3.5"
   clip-path="url(#SVGID_2_)"
   id="path861" />
	<path
   style="fill:#a7d900"
   class="st0"
   d="M 25.1,17.6 C 26.9,15.1 30,13.9 32.4,12.1 34,10.8 35.6,9.4 37.3,8.2 38.3,7.5 39.6,7 40,5.5 40.8,1.9 35,1.6 35.3,4.9 35.4,4.6 35.4,4.3 35.5,4 c -1.3,1.7 0.8,3.4 2.4,3.2 0.1,0 0.1,0 0.2,0 C 37.6,7.1 37,7 36.4,6.9 c 0,0 0,0 0.1,0 C 36.2,5.8 35.9,4.7 35.7,3.7 35.3,4.3 33,5.6 32.1,6.3 c -1.4,1.1 -2.7,2.4 -4.2,3.4 -2.3,1.6 -5.2,3.1 -6.4,5.8 -1.1,2.5 2,4.4 3.6,2.1"
   clip-path="url(#SVGID_2_)"
   id="path863" />
	<path
   style="fill:#a7d900"
   class="st0"
   d="m 32.9,4.8 c 0.9,3 3.8,6 6,8.2 2.4,2.3 5,4.6 7.7,6.7 2.2,1.7 5.1,-2.1 3,-3.9 -2.4,-2 -4.9,-4.1 -7.2,-6.3 C 40.2,7.4 38.3,4.1 35.6,2.7 34.3,2 32.4,3.2 32.9,4.8"
   clip-path="url(#SVGID_2_)"
   id="path865" />
	<path
   style="fill:#a7d900"
   class="st0"
   d="m 50,18.2 c 1.6,-2.2 4.2,-3.4 6.3,-5 C 58.8,11.3 61,9.1 63.6,7.5 66.3,5.9 63.8,1.7 61.2,3.3 58,5.2 55.5,8 52.5,10.2 c -2.5,1.8 -4.9,3.5 -6,6.5 -0.9,2.2 2.3,3.2 3.5,1.5"
   clip-path="url(#SVGID_2_)"
   id="path867" />
	<path
   style="fill:#a7d900"
   class="st0"
   d="m 58.8,7.3 c 1.8,2.6 3.5,5.1 5.9,7.2 1.3,1.2 4,2.7 4.7,4.4 1.2,2.9 5.5,1.9 4.8,-1.3 C 73.6,15.2 71,13.3 69.2,11.8 66.6,9.6 64.6,7 62.2,4.7 60.5,3.1 57.4,5.3 58.8,7.3"
   clip-path="url(#SVGID_2_)"
   id="path869" />
	<path
   style="fill:#a7d900"
   class="st0"
   d="M 73.1,19.6 C 77.4,14.8 83.1,11.3 88,7 90.3,4.9 86.9,1.6 84.6,3.6 c -2.7,2.3 -5.5,4.5 -8.3,6.8 -2.4,2 -5,3.9 -6.6,6.6 -1.2,2.1 1.7,4.5 3.4,2.6"
   clip-path="url(#SVGID_2_)"
   id="path871" />
	<path
   style="fill:#a7d900"
   class="st0"
   d="m 84.1,8.8 c 2.1,1.2 3.5,3.1 5.3,4.7 1.2,1 2.7,1.7 3.9,2.7 1.2,1.1 1.9,2 3.4,2.6 2.3,0.9 4.2,-2.6 2.4,-4.1 -1.2,-1 -2.2,-2.2 -3.5,-3.1 C 94.2,10.6 92.8,9.9 91.5,8.7 89.7,6.9 87.4,4.5 84.6,5.1 82.9,5.4 82.6,8 84.1,8.8"
   clip-path="url(#SVGID_2_)"
   id="path873" />
	<path
   style="fill:#a7d900"
   class="st0"
   d="m 98.6,17.4 c 1.1,-2.1 3.3,-3.3 5,-4.9 2.8,-2.5 5.5,-5.2 8.1,-7.8 2.3,-2.3 -1.3,-5.8 -3.5,-3.5 -2.9,2.9 -5.8,5.9 -8.8,8.6 -1.7,1.5 -5,3.8 -4.7,6.5 0.1,2 2.8,3.2 3.9,1.1"
   clip-path="url(#SVGID_2_)"
   id="path875" />
	<path
   style="fill:#a7d900"
   class="st0"
   d="m 106.4,6 c 1.3,1.7 3.5,3.2 5.1,4.6 2.4,2 4.7,4.2 6.9,6.3 2.4,2.3 6,-1.3 3.6,-3.6 -2.4,-2.4 -5,-4.6 -7.7,-6.8 -1.7,-1.4 -4.1,-4.1 -6.5,-3.9 -1.8,0 -2.5,2 -1.4,3.4"
   clip-path="url(#SVGID_2_)"
   id="path877" />
	<path
   style="fill:#a7d900"
   class="st0"
   d="M 61.2,43.5 C 60.9,39.2 62,30.7 68,30.9 c 5.8,0.2 4.5,8.9 5.2,12.6 0.5,2.9 4.7,2 4.8,-0.7 0.3,-7 -2,-18.3 -11.5,-16.8 -4.2,0.7 -7.2,4.1 -8.8,7.9 -1.3,3 -2.6,8.4 -0.1,11 1.2,1.4 3.7,0.4 3.6,-1.4"
   clip-path="url(#SVGID_2_)"
   id="path879" />
	<path
   style="fill:#a7d900"
   class="st0"
   d="m 59.1,45.7 c 5.5,-0.3 10.9,0.3 16.4,-0.3 3.2,-0.3 3.4,-5.3 0,-5.1 -2.8,0.2 -5.6,0.2 -8.3,0.4 -2.9,0.3 -5.9,-0.2 -8.7,0.6 -2.4,0.7 -2,4.6 0.6,4.4"
   clip-path="url(#SVGID_2_)"
   id="path881" />
	<path
   style="fill:#a7d900"
   class="st0"
   d="M 19,43.8 C 15.8,41 10.5,34.1 14.9,30.1 c 4.2,-3.9 9.4,3.1 12.5,5.3 2.4,1.7 4.8,-1.9 3,-3.9 -4.8,-5.2 -14.3,-11.7 -20,-3.8 -2.6,3.6 -2.2,8.4 -0.5,12.3 1.3,2.9 4,7.3 7.5,7.5 1.8,0 2.9,-2.5 1.6,-3.7"
   clip-path="url(#SVGID_2_)"
   id="path883" />
	<path
   style="fill:#a7d900"
   class="st0"
   d="m 19,46.9 c 1.8,-2.1 4,-3.7 5.8,-5.8 1.8,-2.1 3.9,-3.9 5.6,-6 2,-2.5 -1.4,-6.1 -3.6,-3.6 -1.9,2.1 -3.9,4.1 -5.7,6.3 -1.8,2.2 -4.3,3.9 -5.6,6.4 -1.1,2.1 1.7,4.7 3.5,2.7"
   clip-path="url(#SVGID_2_)"
   id="path885" />
	<path
   style="fill:#a7d900"
   class="st0"
   d="m 113.7,47.5 c 3.4,-0.1 6.1,-4.4 7.4,-7.2 1.8,-3.9 2.3,-8.9 -0.3,-12.5 -5.7,-7.9 -15.2,-1.4 -20,3.8 -1.8,2 0.6,5.6 3,3.9 3.1,-2.2 8.3,-9.2 12.5,-5.3 4.4,4 -0.9,10.9 -4.1,13.7 -1.3,1.1 -0.3,3.6 1.5,3.6"
   clip-path="url(#SVGID_2_)"
   id="path887" />
	<path
   style="fill:#a7d900"
   class="st0"
   d="m 115.7,44.2 c -1.3,-2.5 -3.9,-4.2 -5.6,-6.4 -1.8,-2.2 -3.8,-4.2 -5.7,-6.3 -2.3,-2.5 -5.6,1.1 -3.6,3.6 1.7,2.1 3.8,4 5.6,6 1.8,2.1 4,3.7 5.8,5.8 1.7,2 4.6,-0.5 3.5,-2.7"
   clip-path="url(#SVGID_2_)"
   id="path889" />
	<path
   style="fill:#a7d900"
   class="st0"
   d="m 69.2,27.2 c 0.3,-1.5 0.8,-2.8 1,-4.3 0.2,-1.8 -0.5,-3.9 -2.7,-3.8 -1.4,0 -2.7,1.5 -2.2,2.9 0,0.1 0.1,0.2 0.1,0.3 0,0.2 0,-0.3 0,0.1 0,0.5 -0.1,1.1 -0.1,1.6 -0.1,1.1 -0.2,2.2 0.2,3.2 0.5,1.7 3.3,2.1 3.7,0"
   clip-path="url(#SVGID_2_)"
   id="path891" />
	<path
   style="fill:#a7d900"
   class="st0"
   d="m 12.7,26.7 c -0.1,0.4 0.2,-0.5 0.2,-0.6 0.1,-0.3 0.2,-0.6 0.2,-0.9 0.2,-0.9 0.4,-1.9 0.4,-2.9 0.2,-1.9 -0.4,-4 -2.7,-4 -1.4,-0.1 -2.8,1.5 -2.2,2.9 0,0.1 0.1,0.2 0.1,0.4 -0.1,-0.6 0,0.2 0,0.3 0,0.6 -0.1,1.2 -0.1,1.8 -0.1,1.2 -0.1,2.4 0.2,3.6 0.7,2.2 3.6,1.5 3.9,-0.6"
   clip-path="url(#SVGID_2_)"
   id="path893" />
	<path
   style="fill:#a7d900"
   class="st0"
   d="m 121,26.7 c -0.1,0.4 0.2,-0.5 0.2,-0.6 0.1,-0.3 0.2,-0.6 0.2,-0.9 0.2,-0.9 0.4,-1.9 0.4,-2.9 0.2,-1.9 -0.4,-4 -2.7,-4 -1.4,-0.1 -2.8,1.5 -2.2,2.9 0,0.1 0.1,0.2 0.1,0.4 -0.1,-0.6 0,0.2 0,0.3 0,0.6 -0.1,1.2 -0.1,1.8 -0.1,1.2 -0.1,2.4 0.2,3.6 0.8,2.2 3.7,1.5 3.9,-0.6"
   clip-path="url(#SVGID_2_)"
   id="path895" />
	<path
   style="fill:#a7d900"
   class="st0"
   d="M 1.9,72.5 C 20,75 40.5,71.9 58.8,71.4 c 24.2,-0.6 48.1,1.6 72.3,1.9 2.9,0 2.9,-4.6 0,-4.6 -23.3,0.1 -46.4,-2.6 -69.7,-1.8 -19.3,0.7 -39.7,2.8 -59,1.7 -2.2,-0.1 -2.7,3.6 -0.5,3.9"
   clip-path="url(#SVGID_2_)"
   id="path897" />
	<path
   style="fill:#a7d900"
   class="st0"
   d="m 43.1,88.7 c -1.6,-6 -11.4,-2.9 -14.7,-0.6 -4.7,3.3 -6.2,10.3 -1.7,14.4 3.7,3.3 9.8,3.6 14,1.1 2.4,-1.5 4.1,-4.1 4.4,-7 0.3,-4 -1.7,-6.3 -4.8,-8.3 -2.2,-1.4 -4.9,2 -2.9,3.7 1.9,1.6 3.9,3 2.4,5.8 -0.5,1 -1.4,1.7 -2.5,2.1 -2.2,0.9 -5.1,0.7 -7,-0.7 -2.8,-2.1 -1.4,-5.8 1.2,-7.5 1.7,-1.1 6.6,-3.1 8.3,-1.1 1.3,1.6 3.8,-0.1 3.3,-1.9"
   clip-path="url(#SVGID_2_)"
   id="path899" />
	<path
   style="fill:#a7d900"
   class="st0"
   d="m 21.7,120.7 c 1,-6.5 5,-13.3 12.2,-13.5 8.2,-0.2 11.4,6.4 13.1,13.4 0.7,3.1 5.5,1.8 4.8,-1.3 -2.3,-9.4 -7.9,-17.5 -18.7,-16.9 -8.9,0.5 -15.6,9 -15.6,17.7 0,2.4 3.8,3.1 4.2,0.6"
   clip-path="url(#SVGID_2_)"
   id="path901" />
	<path
   style="fill:#a7d900"
   class="st0"
   d="m 73.5,88.7 c -1.6,-6 -11.4,-2.9 -14.7,-0.6 -4.7,3.3 -6.2,10.3 -1.7,14.4 3.7,3.3 9.8,3.6 14,1.1 2.4,-1.5 4.1,-4.1 4.4,-7 0.3,-4 -1.7,-6.3 -4.8,-8.3 -2.2,-1.4 -4.9,2 -2.9,3.7 1.9,1.6 3.9,3 2.4,5.8 -0.5,1 -1.4,1.7 -2.5,2.1 -2.2,0.9 -5.1,0.7 -7,-0.7 -2.8,-2.1 -1.4,-5.8 1.2,-7.5 1.7,-1.1 6.6,-3.1 8.3,-1.1 1.3,1.6 3.8,-0.1 3.3,-1.9"
   clip-path="url(#SVGID_2_)"
   id="path903" />
	<path
   style="fill:#a7d900"
   class="st0"
   d="m 52.1,120.7 c 1,-6.5 5,-13.3 12.2,-13.5 8.2,-0.2 11.4,6.4 13.1,13.4 0.7,3.1 5.5,1.8 4.8,-1.3 -2.3,-9.4 -7.9,-17.5 -18.7,-16.9 -8.9,0.5 -15.6,9 -15.6,17.7 0,2.4 3.8,3.1 4.2,0.6"
   clip-path="url(#SVGID_2_)"
   id="path905" />
	<path
   style="fill:#a7d900"
   class="st0"
   d="m 103.6,88.7 c -1.6,-6 -11.4,-2.9 -14.7,-0.6 -4.7,3.3 -6.2,10.3 -1.7,14.4 3.7,3.3 9.8,3.6 14,1.1 2.4,-1.5 4.1,-4.1 4.4,-7 0.3,-4 -1.7,-6.3 -4.8,-8.3 -2.2,-1.4 -4.9,2 -2.9,3.7 1.9,1.6 3.9,3 2.4,5.8 -0.5,1 -1.4,1.7 -2.5,2.1 -2.2,0.9 -5.1,0.7 -7,-0.7 -2.8,-2.1 -1.4,-5.8 1.2,-7.5 1.7,-1.1 6.6,-3.1 8.3,-1.1 1.3,1.6 3.8,-0.1 3.3,-1.9"
   clip-path="url(#SVGID_2_)"
   id="path907" />
	<path
   style="fill:#a7d900"
   class="st0"
   d="m 82.2,120.7 c 1,-6.5 5,-13.3 12.2,-13.5 8.2,-0.2 11.4,6.4 13.1,13.4 0.7,3.1 5.5,1.8 4.8,-1.3 -2.3,-9.4 -7.9,-17.5 -18.7,-16.9 -8.9,0.5 -15.6,9 -15.6,17.7 0,2.4 3.9,3.1 4.2,0.6"
   clip-path="url(#SVGID_2_)"
   id="path909" />
</g></svg>