<?xml version="1.0" encoding="utf-8"?>
<!-- Generator: Adobe Illustrator 24.2.0, SVG Export Plug-In . SVG Version: 6.00 Build 0)  -->
<svg version="1.1"
	 id="Calque_1" xmlns:cc="http://creativecommons.org/ns#" xmlns:dc="http://purl.org/dc/elements/1.1/" xmlns:rdf="http://www.w3.org/1999/02/22-rdf-syntax-ns#" xmlns:svg="http://www.w3.org/2000/svg"
	 xmlns="http://www.w3.org/2000/svg" xmlns:xlink="http://www.w3.org/1999/xlink" x="0px" y="0px" viewBox="0 0 118.3 141.9"
	 style="enable-background:new 0 0 118.3 141.9;" xml:space="preserve">
<style type="text/css">
	.st0{clip-path:url(#SVGID_2_);}
	.st1{fill:none;}
	.st2{fill:#A7D900;}
</style>
<g id="g12">
	<g>
		<defs>
			<rect id="SVGID_1_" width="118.3" height="141.9"/>
		</defs>
		<clipPath id="SVGID_2_">
			<use xlink:href="#SVGID_1_"  style="overflow:visible;"/>
		</clipPath>
		<path id="path10" class="st0" d="M105.4,8c-0.8-5.1-5.6-8.7-10.8-7.9L5.5,12.9c-3.5,0.5-5.9,3.8-5.4,7.3l8.3,56.4
			c0.7,4.4,2.3,8.6,4.9,12.3c8,11.4,25.7,36.9,30,42.9c1.1,1.7,4.2,6.3,6.3,9.4c0.8,1.2,2.6,0.9,3-0.4c1.4-4,3.8-10.8,4.9-13.6
			c2.6-6.4,6.5-18.7,7.7-22.5c0.2-0.7,0.8-1.2,1.6-1.3l5.4-0.9l24.4-4.8l16.4-3.3c3.5-0.6,5.9-3.9,5.4-7.4C115,66.7,105.4,8,105.4,8
			"/>
	</g>
</g>
<g id="g1345" transform="matrix(0.48284661,0,0,0.48284661,30.8335,26.852609)">
	<rect x="24.9" y="27.7" class="st1" width="57.1" height="68.5"/>
	<path id="path1321" class="st2" d="M50.5,73.3c-2-6.8-13.3-3.2-17.2-0.4c-5.4,3.9-7.2,11.9-1.9,16.7c4.3,3.9,11.5,4.2,16.4,1.2
		c2.8-1.7,4.8-4.8,5-8c0.4-4.7-2-7.3-5.6-9.7c-2.3-1.5-5.1,2-2.9,3.8c2.4,2,4.8,4,2.9,7.5c-0.7,1.3-1.9,2.2-3.2,2.7
		c-2.7,1.1-6.4,0.8-8.8-0.9c-3.7-2.7-1.9-7.5,1.4-9.7c2.2-1.5,8.3-3.8,10.4-1.2C48.4,77,51.1,75.2,50.5,73.3"/>
	<rect x="24.9" y="27.7" class="st1" width="57.1" height="68.5"/>
	<path id="path1323" class="st2" d="M24.7,111.7c1.1-8.1,6.2-16.4,15.1-16.5c10-0.2,14.1,7.8,16.2,16.4c0.8,3.2,5.7,1.8,4.9-1.4
		c-2.8-11.2-9.3-20.8-22.1-20c-10.5,0.6-18.3,10.6-18.5,20.9C20.3,113.5,24.3,114.2,24.7,111.7"/>
	<rect x="24.9" y="27.7" class="st1" width="57.1" height="68.5"/>
	<path id="path1325" class="st2" d="M25.5,12.9c-2-6.8-13.3-3.2-17.2-0.4c-5.4,3.9-7.2,11.9-1.9,16.7c4.3,3.9,11.5,4.2,16.4,1.2
		c2.8-1.7,4.8-4.8,5-8c0.4-4.7-2-7.3-5.6-9.7c-2.3-1.5-5.1,2-2.9,3.8c2.4,2,4.8,4,2.9,7.5c-0.7,1.3-1.9,2.2-3.2,2.8
		c-2.7,1.1-6.4,0.8-8.8-0.9c-3.7-2.7-1.9-7.5,1.4-9.7c2.2-1.5,8.3-3.8,10.4-1.2C23.4,16.6,26,14.8,25.5,12.9"/>
	<rect x="24.9" y="27.7" class="st1" width="57.1" height="68.5"/>
	<path id="path1327" class="st2" d="M-0.8,79.2C-0.1,67.7-3,52.7,2.8,42.3C8,33,21,32,27.2,41c2.6,3.8,3.5,8.3,3.7,12.8
		c0.3,6,0.3,12.1,0.4,18.1c0.1,3.3,5.2,3.3,5.1,0c-0.2-7.2,0.5-15-0.6-22.1C33.7,36.7,22.5,26.4,8.9,30.7
		c-18.2,5.7-14.4,34-14.1,48.5C-5.1,82.1-0.9,82.1-0.8,79.2"/>
	<rect x="24.9" y="27.7" class="st1" width="57.1" height="68.5"/>
	<path id="path1329" class="st2" d="M87.1,73.3c-2-6.8-13.3-3.2-17.2-0.4c-5.4,3.9-7.2,11.9-1.9,16.7c4.3,3.9,11.5,4.2,16.4,1.2
		c2.8-1.7,4.8-4.8,5-8c0.4-4.7-2-7.3-5.6-9.7c-2.3-1.5-5.1,2-2.9,3.8c2.4,2,4.8,4,2.9,7.5c-0.7,1.3-1.9,2.2-3.2,2.7
		c-2.7,1.1-6.4,0.8-8.8-0.9c-3.7-2.7-1.9-7.5,1.4-9.7c2.2-1.5,8.3-3.8,10.4-1.2C85,77,87.7,75.2,87.1,73.3"/>
	<rect x="24.9" y="27.7" class="st1" width="57.1" height="68.5"/>
	<path id="path1331" class="st2" d="M61.3,111.7c1.1-8.1,6.2-16.4,15.1-16.5c10-0.2,14.1,7.8,16.2,16.4c0.8,3.2,5.7,1.8,4.9-1.4
		c-2.8-11.2-9.3-20.8-22.1-20c-10.5,0.6-18.3,10.6-18.5,20.9C56.9,113.5,61,114.2,61.3,111.7"/>
	<rect x="24.9" y="27.7" class="st1" width="57.1" height="68.5"/>
	<path id="path1333" class="st2" d="M123.4,73.3c-2-6.8-13.3-3.2-17.2-0.4c-5.4,3.9-7.2,11.9-1.9,16.7c4.3,3.9,11.5,4.2,16.4,1.2
		c2.8-1.7,4.8-4.8,5-8c0.4-4.7-2-7.3-5.6-9.7c-2.3-1.5-5.1,2-2.9,3.8c2.4,2,4.8,4,2.9,7.5c-0.7,1.3-1.9,2.2-3.2,2.7
		c-2.7,1.1-6.4,0.8-8.8-0.9c-3.7-2.7-1.9-7.5,1.4-9.7c2.2-1.5,8.3-3.8,10.4-1.2C121.3,77,124,75.2,123.4,73.3"/>
	<rect x="24.9" y="27.7" class="st1" width="57.1" height="68.5"/>
	<path id="path1335" class="st2" d="M97.6,111.7c1.1-8.1,6.2-16.4,15.1-16.5c10-0.2,14.1,7.8,16.2,16.4c0.8,3.2,5.7,1.8,4.9-1.4
		c-2.8-11.2-9.3-20.8-22.1-20c-10.5,0.6-18.3,10.6-18.5,20.9C93.2,113.5,97.2,114.2,97.6,111.7"/>
	<rect x="24.9" y="27.7" class="st1" width="57.1" height="68.5"/>
	<path id="path1337" class="st2" d="M20.5,11.8c0.1-3.8-0.9-9.5,0.3-13c1.3-4-1.3-1.7,2-3.2c2.1-0.9,10.8,0.8,14.1,0.8
		c21.9-0.1,45,1.8,66.8-0.5c8.9-1,8.6-4.4,9.8,2.5c0.7,3.9,0.1,8.6,0.2,12.6c0.2,10.8-1,22.6,0.5,33.3c0.7,5.1-1.9,5.5,2.2,3.9
		c-1.3,0.5-4.5,0.2-5.7,0c-9-1.1-18.9,0-28,0c-16.5,0-32.9,0-49.4,0.1c-2.9,0-2.9,4.5,0,4.5c27.7,0,55.5-0.1,83.2-0.1
		c1.2,0,2.3-1,2.3-2.3c-0.3-19.1-0.6-38.1-0.9-57.2c0-1.2-1-2.3-2.3-2.3c-32.1,1.3-64.5,1-96.9,1.2c-1.2,0-2.1,1-2.1,2.1
		c0,5.8,0,11.7,0,17.5C16.6,14.3,20.4,14.3,20.5,11.8"/>
	<rect x="24.9" y="27.7" class="st1" width="57.1" height="68.5"/>
	<path id="path1339" class="st2" d="M40.5,14c19.2,0.8,38.5,0.3,57.7,0.1c2.9,0,2.9-4.6,0-4.5C79,9.8,59.7,9.3,40.5,10.1
		C38,10.2,38,13.9,40.5,14"/>
	<rect x="24.9" y="27.7" class="st1" width="57.1" height="68.5"/>
	<path id="path1341" class="st2" d="M69.3,25.2c9.5,0.8,19.3,0.3,28.8,0.1c2.9-0.1,2.9-4.6,0-4.5c-9.5,0.2-19.2-0.3-28.8,0.5
		C66.8,21.5,66.8,25,69.3,25.2"/>
	<rect x="24.9" y="27.7" class="st1" width="57.1" height="68.5"/>
	<path id="path1343" class="st2" d="M69.3,36.7c9.5,0.8,19.3,0.3,28.8,0.1c2.9-0.1,2.9-4.6,0-4.5c-9.6,0.2-19.3-0.3-28.8,0.5
		C66.8,33,66.8,36.5,69.3,36.7"/>
</g>
</svg>
