<?xml version="1.0" encoding="UTF-8" standalone="no"?>
<svg
   xmlns:dc="http://purl.org/dc/elements/1.1/"
   xmlns:cc="http://creativecommons.org/ns#"
   xmlns:rdf="http://www.w3.org/1999/02/22-rdf-syntax-ns#"
   xmlns:svg="http://www.w3.org/2000/svg"
   xmlns="http://www.w3.org/2000/svg"
   xmlns:xlink="http://www.w3.org/1999/xlink"
   version="1.1"
   id="Calque_1"
   x="0px"
   y="0px"
   viewBox="0 0 118.3 141.9"
   style="enable-background:new 0 0 118.3 141.9;"
   xml:space="preserve"><metadata
   id="metadata39"><rdf:RDF><cc:Work
       rdf:about=""><dc:format>image/svg+xml</dc:format><dc:type
         rdf:resource="http://purl.org/dc/dcmitype/StillImage" /><dc:title></dc:title></cc:Work></rdf:RDF></metadata><defs
   id="defs37"><rect
     height="122.4"
     width="164.8"
     id="SVGID_1_-2" /><rect
     id="SVGID_1_-1"
     width="133.3"
     height="122.4" /><rect
     id="SVGID_1_-6"
     width="155.7"
     height="122.3" /><rect
     id="SVGID_1_-0"
     width="300.6"
     height="236.1" /><rect
     id="SVGID_3_"
     width="300.6"
     height="236.1" /><rect
     id="SVGID_5_"
     width="300.6"
     height="236.1" /><rect
     id="SVGID_7_"
     width="300.6"
     height="236.1" /><rect
     id="SVGID_9_"
     width="300.6"
     height="236.1" /><rect
     id="SVGID_11_"
     width="300.6"
     height="236.1" /><rect
     id="SVGID_13_"
     width="300.6"
     height="236.1" /><rect
     id="SVGID_15_"
     width="300.6"
     height="236.1" /><rect
     id="SVGID_17_"
     width="300.6"
     height="236.1" /><rect
     id="SVGID_19_"
     width="300.6"
     height="236.1" /><rect
     id="SVGID_21_"
     width="300.6"
     height="236.1" /><rect
     id="SVGID_23_"
     width="300.6"
     height="236.1" /><rect
     id="SVGID_25_"
     width="300.6"
     height="236.1" /><rect
     id="SVGID_27_"
     width="300.6"
     height="236.1" /><rect
     id="SVGID_29_"
     width="300.6"
     height="236.1" /><rect
     id="SVGID_1_-25"
     width="139.6"
     height="122.4" /></defs>
<style
   type="text/css"
   id="style2">
	.st0{clip-path:url(#SVGID_2_);fill:#181716;}
	.st1{clip-path:url(#SVGID_4_);fill:#91D900;}
</style>
<g
   style="fill:#000000;fill-opacity:1"
   id="g12">
	<defs
   id="defs5">
		<rect
   id="SVGID_1_"
   width="118.3"
   height="141.9" />
	</defs>
	<clipPath
   id="SVGID_2_">
		<use
   xlink:href="#SVGID_1_"
   style="overflow:visible;"
   id="use7" />
	</clipPath>
	<path
   style="fill:#000000;fill-opacity:1"
   class="st0"
   d="M105.4,8c-0.8-5.1-5.6-8.7-10.8-7.9L5.5,12.9c-3.5,0.5-5.9,3.8-5.4,7.3l8.3,56.4c0.7,4.4,2.3,8.6,4.9,12.3   c8,11.4,25.7,36.9,30,42.9c1.1,1.7,4.2,6.3,6.3,9.4c0.8,1.2,2.6,0.9,3-0.4c1.4-4,3.8-10.8,4.9-13.6c2.6-6.4,6.5-18.7,7.7-22.5   c0.2-0.7,0.8-1.2,1.6-1.3l5.4-0.9l24.4-4.8l16.4-3.3c3.5-0.6,5.9-3.9,5.4-7.4C115,66.7,105.4,8,105.4,8"
   clip-path="url(#SVGID_2_)"
   id="path10" />
</g>

<style
   id="style846"
   type="text/css">
	.st0{clip-path:url(#SVGID_2_);fill:#A7D900;}
</style><style
   type="text/css"
   id="style849">
	.st0{clip-path:url(#SVGID_2_);fill:#A7D900;}
</style><style
   type="text/css"
   id="style963">
	.st0{clip-path:url(#SVGID_2_);fill:#A7D900;}
</style><style
   type="text/css"
   id="style1313">
	.st0{clip-path:url(#SVGID_2_);fill:#A7D900;}
</style><g
   transform="matrix(0.48284661,0,0,0.48284661,30.8335,26.852609)"
   id="g1345">
	<defs
   id="defs1316">
		<rect
   y="0"
   x="0"
   id="rect1356"
   width="139.60001"
   height="122.4" />
	</defs>
	<clipPath
   id="SVGID_2_-5">
		<use
   height="100%"
   width="100%"
   y="0"
   x="0"
   xlink:href="#SVGID_1_-25"
   style="overflow:visible"
   id="use1318" />
	</clipPath>
	<path
   style="fill:#a7d900"
   class="st0"
   d="m 56.2,82.3 c -2,-6.8 -13.3,-3.2 -17.2,-0.4 -5.4,3.9 -7.2,11.9 -1.9,16.7 4.3,3.9 11.5,4.2 16.4,1.2 2.8,-1.7 4.8,-4.8 5,-8 0.4,-4.7 -2,-7.3 -5.6,-9.7 -2.3,-1.5 -5.1,2 -2.9,3.8 2.4,2 4.8,4 2.9,7.5 -0.7,1.3 -1.9,2.2 -3.2,2.7 -2.7,1.1 -6.4,0.8 -8.8,-0.9 -3.7,-2.7 -1.9,-7.5 1.4,-9.7 2.2,-1.5 8.3,-3.8 10.4,-1.2 1.4,1.7 4.1,-0.1 3.5,-2"
   clip-path="url(#SVGID_2_)"
   id="path1321" />
	<path
   style="fill:#a7d900"
   class="st0"
   d="m 30.4,120.7 c 1.1,-8.1 6.2,-16.4 15.1,-16.5 10,-0.2 14.1,7.8 16.2,16.4 0.8,3.2 5.7,1.8 4.9,-1.4 C 63.8,108 57.3,98.4 44.5,99.2 34,99.8 26.2,109.8 26,120.1 c 0,2.4 4,3.1 4.4,0.6"
   clip-path="url(#SVGID_2_)"
   id="path1323" />
	<path
   style="fill:#a7d900"
   class="st0"
   d="M 31.2,21.9 C 29.2,15.1 17.9,18.7 14,21.5 8.6,25.4 6.8,33.4 12.1,38.2 c 4.3,3.9 11.5,4.2 16.4,1.2 2.8,-1.7 4.8,-4.8 5,-8 0.4,-4.7 -2,-7.3 -5.6,-9.7 -2.3,-1.5 -5.1,2 -2.9,3.8 2.4,2 4.8,4 2.9,7.5 -0.7,1.3 -1.9,2.2 -3.2,2.8 -2.7,1.1 -6.4,0.8 -8.8,-0.9 -3.7,-2.7 -1.9,-7.5 1.4,-9.7 2.2,-1.5 8.3,-3.8 10.4,-1.2 1.4,1.6 4,-0.2 3.5,-2.1"
   clip-path="url(#SVGID_2_)"
   id="path1325" />
	<path
   style="fill:#a7d900"
   class="st0"
   d="M 4.9,88.2 C 5.6,76.7 2.7,61.7 8.5,51.3 13.7,42 26.7,41 32.9,50 c 2.6,3.8 3.5,8.3 3.7,12.8 0.3,6 0.3,12.1 0.4,18.1 0.1,3.3 5.2,3.3 5.1,0 -0.2,-7.2 0.5,-15 -0.6,-22.1 C 39.4,45.7 28.2,35.4 14.6,39.7 -3.6,45.4 0.2,73.7 0.5,88.2 c 0.1,2.9 4.3,2.9 4.4,0"
   clip-path="url(#SVGID_2_)"
   id="path1327" />
	<path
   style="fill:#a7d900"
   class="st0"
   d="m 92.8,82.3 c -2,-6.8 -13.3,-3.2 -17.2,-0.4 -5.4,3.9 -7.2,11.9 -1.9,16.7 4.3,3.9 11.5,4.2 16.4,1.2 2.8,-1.7 4.8,-4.8 5,-8 0.4,-4.7 -2,-7.3 -5.6,-9.7 -2.3,-1.5 -5.1,2 -2.9,3.8 2.4,2 4.8,4 2.9,7.5 -0.7,1.3 -1.9,2.2 -3.2,2.7 -2.7,1.1 -6.4,0.8 -8.8,-0.9 -3.7,-2.7 -1.9,-7.5 1.4,-9.7 2.2,-1.5 8.3,-3.8 10.4,-1.2 1.4,1.7 4.1,-0.1 3.5,-2"
   clip-path="url(#SVGID_2_)"
   id="path1329" />
	<path
   style="fill:#a7d900"
   class="st0"
   d="m 67,120.7 c 1.1,-8.1 6.2,-16.4 15.1,-16.5 10,-0.2 14.1,7.8 16.2,16.4 0.8,3.2 5.7,1.8 4.9,-1.4 -2.8,-11.2 -9.3,-20.8 -22.1,-20 -10.5,0.6 -18.3,10.6 -18.5,20.9 0,2.4 4.1,3.1 4.4,0.6"
   clip-path="url(#SVGID_2_)"
   id="path1331" />
	<path
   style="fill:#a7d900"
   class="st0"
   d="m 129.1,82.3 c -2,-6.8 -13.3,-3.2 -17.2,-0.4 -5.4,3.9 -7.2,11.9 -1.9,16.7 4.3,3.9 11.5,4.2 16.4,1.2 2.8,-1.7 4.8,-4.8 5,-8 0.4,-4.7 -2,-7.3 -5.6,-9.7 -2.3,-1.5 -5.1,2 -2.9,3.8 2.4,2 4.8,4 2.9,7.5 -0.7,1.3 -1.9,2.2 -3.2,2.7 -2.7,1.1 -6.4,0.8 -8.8,-0.9 -3.7,-2.7 -1.9,-7.5 1.4,-9.7 2.2,-1.5 8.3,-3.8 10.4,-1.2 1.4,1.7 4.1,-0.1 3.5,-2"
   clip-path="url(#SVGID_2_)"
   id="path1333" />
	<path
   style="fill:#a7d900"
   class="st0"
   d="m 103.3,120.7 c 1.1,-8.1 6.2,-16.4 15.1,-16.5 10,-0.2 14.1,7.8 16.2,16.4 0.8,3.2 5.7,1.8 4.9,-1.4 -2.8,-11.2 -9.3,-20.8 -22.1,-20 -10.5,0.6 -18.3,10.6 -18.5,20.9 0,2.4 4,3.1 4.4,0.6"
   clip-path="url(#SVGID_2_)"
   id="path1335" />
	<path
   style="fill:#a7d900"
   class="st0"
   d="m 26.2,20.8 c 0.1,-3.8 -0.9,-9.5 0.3,-13 1.3,-4 -1.3,-1.7 2,-3.2 2.1,-0.9 10.8,0.8 14.1,0.8 21.9,-0.1 45,1.8 66.8,-0.5 8.9,-1 8.6,-4.4 9.8,2.5 0.7,3.9 0.1,8.6 0.2,12.6 0.2,10.8 -1,22.6 0.5,33.3 0.7,5.1 -1.9,5.5 2.2,3.9 -1.3,0.5 -4.5,0.2 -5.7,0 -9,-1.1 -18.9,0 -28,0 -16.5,0 -32.9,0 -49.4,0.1 -2.9,0 -2.9,4.5 0,4.5 27.7,0 55.5,-0.1 83.2,-0.1 1.2,0 2.3,-1 2.3,-2.3 -0.3,-19.1 -0.6,-38.1 -0.9,-57.2 0,-1.2 -1,-2.3 -2.3,-2.3 -32.1,1.3 -64.5,1 -96.9,1.2 -1.2,0 -2.1,1 -2.1,2.1 0,5.8 0,11.7 0,17.5 0,2.6 3.8,2.6 3.9,0.1"
   clip-path="url(#SVGID_2_)"
   id="path1337" />
	<path
   style="fill:#a7d900"
   class="st0"
   d="m 46.2,23 c 19.2,0.8 38.5,0.3 57.7,0.1 2.9,0 2.9,-4.6 0,-4.5 -19.2,0.2 -38.5,-0.3 -57.7,0.5 -2.5,0.1 -2.5,3.8 0,3.9"
   clip-path="url(#SVGID_2_)"
   id="path1339" />
	<path
   style="fill:#a7d900"
   class="st0"
   d="m 75,34.2 c 9.5,0.8 19.3,0.3 28.8,0.1 2.9,-0.1 2.9,-4.6 0,-4.5 -9.5,0.2 -19.2,-0.3 -28.8,0.5 -2.5,0.2 -2.5,3.7 0,3.9"
   clip-path="url(#SVGID_2_)"
   id="path1341" />
	<path
   style="fill:#a7d900"
   class="st0"
   d="m 75,45.7 c 9.5,0.8 19.3,0.3 28.8,0.1 2.9,-0.1 2.9,-4.6 0,-4.5 -9.6,0.2 -19.3,-0.3 -28.8,0.5 -2.5,0.2 -2.5,3.7 0,3.9"
   clip-path="url(#SVGID_2_)"
   id="path1343" />
</g></svg>