<?xml version="1.0" encoding="UTF-8" standalone="no"?>
<svg
   xmlns:dc="http://purl.org/dc/elements/1.1/"
   xmlns:cc="http://creativecommons.org/ns#"
   xmlns:rdf="http://www.w3.org/1999/02/22-rdf-syntax-ns#"
   xmlns:svg="http://www.w3.org/2000/svg"
   xmlns="http://www.w3.org/2000/svg"
   xmlns:xlink="http://www.w3.org/1999/xlink"
   version="1.1"
   id="Calque_1"
   x="0px"
   y="0px"
   viewBox="0 0 118.3 141.9"
   style="enable-background:new 0 0 118.3 141.9;"
   xml:space="preserve"><metadata
   id="metadata39"><rdf:RDF><cc:Work
       rdf:about=""><dc:format>image/svg+xml</dc:format><dc:type
         rdf:resource="http://purl.org/dc/dcmitype/StillImage" /><dc:title></dc:title></cc:Work></rdf:RDF></metadata><defs
   id="defs37"><rect
     height="122.4"
     width="164.8"
     id="SVGID_1_-2" /><rect
     id="SVGID_1_-1"
     width="133.3"
     height="122.4" /><rect
     id="SVGID_1_-6"
     width="155.7"
     height="122.3" /><rect
     id="SVGID_1_-0"
     width="300.6"
     height="236.1" /><rect
     id="SVGID_3_"
     width="300.6"
     height="236.1" /><rect
     id="SVGID_5_"
     width="300.6"
     height="236.1" /><rect
     id="SVGID_7_"
     width="300.6"
     height="236.1" /><rect
     id="SVGID_9_"
     width="300.6"
     height="236.1" /><rect
     id="SVGID_11_"
     width="300.6"
     height="236.1" /><rect
     id="SVGID_13_"
     width="300.6"
     height="236.1" /><rect
     id="SVGID_15_"
     width="300.6"
     height="236.1" /><rect
     id="SVGID_17_"
     width="300.6"
     height="236.1" /><rect
     id="SVGID_19_"
     width="300.6"
     height="236.1" /><rect
     id="SVGID_21_"
     width="300.6"
     height="236.1" /><rect
     id="SVGID_23_"
     width="300.6"
     height="236.1" /><rect
     id="SVGID_25_"
     width="300.6"
     height="236.1" /><rect
     id="SVGID_27_"
     width="300.6"
     height="236.1" /><rect
     id="SVGID_29_"
     width="300.6"
     height="236.1" /><rect
     id="SVGID_1_-25"
     width="139.6"
     height="122.4" /><rect
     id="SVGID_1_-256"
     y="-0.2"
     width="126.7"
     height="122.7" /><rect
     id="SVGID_1_-10"
     width="208.9"
     height="122.8" /><rect
     id="SVGID_1_-7"
     width="103.8"
     height="122.3" /></defs>
<style
   type="text/css"
   id="style2">
	.st0{clip-path:url(#SVGID_2_);fill:#181716;}
	.st1{clip-path:url(#SVGID_4_);fill:#91D900;}
</style>
<g
   style="fill:#000000;fill-opacity:1"
   id="g12">
	<defs
   id="defs5">
		<rect
   id="SVGID_1_"
   width="118.3"
   height="141.9" />
	</defs>
	<clipPath
   id="SVGID_2_">
		<use
   xlink:href="#SVGID_1_"
   style="overflow:visible;"
   id="use7" />
	</clipPath>
	<path
   style="fill:#000000;fill-opacity:1"
   class="st0"
   d="M105.4,8c-0.8-5.1-5.6-8.7-10.8-7.9L5.5,12.9c-3.5,0.5-5.9,3.8-5.4,7.3l8.3,56.4c0.7,4.4,2.3,8.6,4.9,12.3   c8,11.4,25.7,36.9,30,42.9c1.1,1.7,4.2,6.3,6.3,9.4c0.8,1.2,2.6,0.9,3-0.4c1.4-4,3.8-10.8,4.9-13.6c2.6-6.4,6.5-18.7,7.7-22.5   c0.2-0.7,0.8-1.2,1.6-1.3l5.4-0.9l24.4-4.8l16.4-3.3c3.5-0.6,5.9-3.9,5.4-7.4C115,66.7,105.4,8,105.4,8"
   clip-path="url(#SVGID_2_)"
   id="path10" />
</g>

<style
   id="style846"
   type="text/css">
	.st0{clip-path:url(#SVGID_2_);fill:#A7D900;}
</style><style
   type="text/css"
   id="style849">
	.st0{clip-path:url(#SVGID_2_);fill:#A7D900;}
</style><style
   type="text/css"
   id="style963">
	.st0{clip-path:url(#SVGID_2_);fill:#A7D900;}
</style><style
   type="text/css"
   id="style1313">
	.st0{clip-path:url(#SVGID_2_);fill:#A7D900;}
</style><style
   type="text/css"
   id="style1374">
	.st0{clip-path:url(#SVGID_2_);fill:#A7D900;}
</style><style
   type="text/css"
   id="style1423">
	.st0{clip-path:url(#SVGID_2_);fill:#A7D900;}
</style><style
   type="text/css"
   id="style1466">
	.st0{clip-path:url(#SVGID_2_);fill:#A7D900;}
</style><g
   transform="matrix(0.55047281,0,0,0.55047281,30.828627,22.732174)"
   id="g1508">
	<defs
   id="defs1469">
		<rect
   y="0"
   x="0"
   id="rect1519"
   width="103.8"
   height="122.3" />
	</defs>
	<clipPath
   id="SVGID_2_-02">
		<use
   height="100%"
   width="100%"
   y="0"
   x="0"
   xlink:href="#SVGID_1_-7"
   style="overflow:visible"
   id="use1471" />
	</clipPath>
	<path
   style="fill:#a7d900"
   class="st0"
   d="m 49.5,4.9 c 23,5.7 18.7,26.9 25,44.6 2.7,7.7 7.7,18.1 16.5,20 3.2,0.7 4.6,-4.1 1.4,-5 C 75.1,59.9 77.5,31 72.6,17.9 68.6,7.3 61.5,2.6 50.7,0.9 48,0.4 46.8,4.2 49.5,4.9"
   clip-path="url(#SVGID_2_)"
   id="path1474" />
	<path
   style="fill:#a7d900"
   class="st0"
   d="m 49.8,4.4 c 6.8,1.3 13.3,0.7 18.8,6 5.6,5.4 8.1,12.3 11.8,18.9 4,7.1 12.2,13.8 20.9,12.7 3.2,-0.4 3.4,-5.4 0,-5.2 C 86.1,37.9 81.7,17.4 73.2,8.2 66.4,0.8 59.7,1 50.4,0 47.9,-0.3 47.3,3.9 49.8,4.4"
   clip-path="url(#SVGID_2_)"
   id="path1476" />
	<path
   style="fill:#a7d900"
   class="st0"
   d="m 6.4,59.7 c 2.2,0.9 4.9,-1.1 6.5,-2.4 1.9,-1.6 3.4,-4.4 3.5,-7 0.1,-2.5 -3.7,-3.6 -4.8,-1.3 -0.7,1.4 -0.9,3.2 -2,4.4 -0.8,0.9 -1.9,1.6 -3.1,2 -2.3,0.7 -2.2,3.5 -0.1,4.3"
   clip-path="url(#SVGID_2_)"
   id="path1478" />
	<path
   style="fill:#a7d900"
   class="st0"
   d="m 11.4,50.9 c 1.2,4.3 4.6,7 8.8,8.2 3.1,0.9 4.4,-3.2 2,-4.9 -1.2,-0.8 -2.7,-1 -3.8,-1.8 -1.2,-0.8 -1.8,-2.3 -2.6,-3.4 -1.5,-2 -5.1,-0.9 -4.4,1.9"
   clip-path="url(#SVGID_2_)"
   id="path1480" />
	<path
   style="fill:#a7d900"
   class="st0"
   d="m 21.7,54.5 c -2.2,-0.9 -4.9,1.1 -6.5,2.4 -1.9,1.6 -3.4,4.4 -3.5,7 -0.1,2.5 3.7,3.6 4.8,1.3 0.7,-1.4 0.9,-3.2 2,-4.4 0.8,-0.9 1.9,-1.6 3.1,-2 2.3,-0.8 2.1,-3.6 0.1,-4.3"
   clip-path="url(#SVGID_2_)"
   id="path1482" />
	<path
   style="fill:#a7d900"
   class="st0"
   d="m 16.7,63.2 c -1.2,-4.3 -4.6,-7 -8.8,-8.2 -3.1,-0.9 -4.4,3.2 -2,4.9 1.2,0.8 2.7,1 3.8,1.8 1.2,0.8 1.8,2.3 2.6,3.4 1.5,2.1 5.1,1 4.4,-1.9"
   clip-path="url(#SVGID_2_)"
   id="path1484" />
	<path
   style="fill:#a7d900"
   class="st0"
   d="m 1.6,30.4 c 4.1,0.8 8.3,-2.3 11.2,-4.9 3.3,-2.9 5.8,-7.7 6.4,-12.1 C 19.7,10.1 15.4,8.9 14.2,12 13,15.1 12.3,18.6 9.9,21.1 8,23.2 5,25.7 2.2,26 0,26.3 -1.1,29.9 1.6,30.4"
   clip-path="url(#SVGID_2_)"
   id="path1486" />
	<path
   style="fill:#a7d900"
   class="st0"
   d="m 14.4,13.4 c 1.4,3.8 3.5,7.6 6.6,10.2 2.9,2.5 6.8,3.8 10.4,5.2 2.9,1.1 4.6,-3.4 2,-4.9 -2.6,-1.6 -5.8,-2.2 -8.4,-4 -2.9,-2.1 -4.4,-5.4 -6.2,-8.4 -1.4,-2.2 -5.4,-0.8 -4.4,1.9"
   clip-path="url(#SVGID_2_)"
   id="path1488" />
	<path
   style="fill:#a7d900"
   class="st0"
   d="M 33.1,24.1 C 29,23.3 24.8,26.4 21.9,29 c -3.3,2.9 -5.8,7.7 -6.4,12.1 -0.5,3.3 3.8,4.5 5,1.4 1.2,-3.1 1.9,-6.6 4.3,-9.1 1.9,-2 4.9,-4.5 7.7,-4.9 2.2,-0.3 3.3,-3.9 0.6,-4.4"
   clip-path="url(#SVGID_2_)"
   id="path1490" />
	<path
   style="fill:#a7d900"
   class="st0"
   d="M 20.3,41.1 C 18.9,37.3 16.8,33.5 13.7,30.9 10.8,28.4 6.9,27.1 3.3,25.7 c -2.9,-1.1 -4.6,3.4 -2,4.9 2.6,1.6 5.8,2.2 8.4,4 2.9,2.1 4.5,5.4 6.2,8.4 1.3,2.2 5.4,0.8 4.4,-1.9"
   clip-path="url(#SVGID_2_)"
   id="path1492" />
	<path
   style="fill:#a7d900"
   class="st0"
   d="m 42.2,95.7 c 3.7,0.8 7.6,-2.1 10.2,-4.4 3,-2.7 5,-7 5.4,-11 0.4,-3.1 -4.1,-3.1 -5.1,-0.7 -1.1,2.7 -1.7,5.7 -3.8,7.9 -1.8,1.8 -4.2,3.6 -6.8,4 -2.1,0.3 -2,3.8 0.1,4.2"
   clip-path="url(#SVGID_2_)"
   id="path1494" />
	<path
   style="fill:#a7d900"
   class="st0"
   d="m 52.9,80.9 c 1.2,3.3 3,6.7 5.7,9 2.6,2.2 6,3.4 9.1,4.5 2.9,1.1 4.5,-3.3 2,-4.9 -2.3,-1.4 -5,-1.9 -7.2,-3.4 C 60,84.4 58.8,81.5 57.2,79 55.9,76.8 51.9,78.2 52.9,80.9"
   clip-path="url(#SVGID_2_)"
   id="path1496" />
	<path
   style="fill:#a7d900"
   class="st0"
   d="m 69.3,89.7 c -3.7,-0.8 -7.6,2.1 -10.2,4.4 -2.9,2.7 -5,7 -5.4,11 -0.4,3.1 4.1,3.1 5.1,0.7 1.1,-2.7 1.7,-5.7 3.8,-7.9 1.8,-1.8 4.2,-3.6 6.8,-4 2.1,-0.3 2,-3.7 -0.1,-4.2"
   clip-path="url(#SVGID_2_)"
   id="path1498" />
	<path
   style="fill:#a7d900"
   class="st0"
   d="m 58.6,104.5 c -1.2,-3.3 -3,-6.7 -5.7,-9 -2.6,-2.2 -6,-3.4 -9.1,-4.5 -2.9,-1.1 -4.5,3.3 -2,4.9 2.3,1.4 5,1.9 7.2,3.4 2.5,1.7 3.7,4.6 5.3,7.1 1.3,2.2 5.3,0.8 4.3,-1.9"
   clip-path="url(#SVGID_2_)"
   id="path1500" />
	<path
   style="fill:#a7d900"
   class="st0"
   d="M 47.7,3.1 C 33.8,38.2 23.5,74.5 12,110.4 c -1.1,3.3 4.2,4.8 5.2,1.4 C 23.2,92.9 28.1,73.6 34.5,54.7 40.2,37.9 47.8,21.4 51.9,4.1 52.5,1.4 48.7,0.5 47.7,3.1"
   clip-path="url(#SVGID_2_)"
   id="path1502" />
	<path
   style="fill:#a7d900"
   class="st0"
   d="m 48,4.2 c 4,17.3 11.6,33.8 17.4,50.6 6.4,18.8 11.3,38.1 17.3,57 1.1,3.3 6.3,1.9 5.2,-1.4 C 76.3,74.5 66,38.2 52.2,3.1 51.1,0.5 47.3,1.4 48,4.2"
   clip-path="url(#SVGID_2_)"
   id="path1504" />
	<path
   style="fill:#a7d900"
   class="st0"
   d="m 11.9,111.8 c 2.6,11.1 19.4,10.1 27.9,10.3 13.9,0.3 34.3,1.6 46.1,-7.2 2.7,-2 0.1,-6.6 -2.7,-4.6 -9,6.4 -21.8,5.8 -32.4,6.3 -8,0.4 -31.1,2.4 -34.3,-6.1 -1,-2.8 -5.3,-1.8 -4.6,1.3"
   clip-path="url(#SVGID_2_)"
   id="path1506" />
</g></svg>