<?xml version="1.0" encoding="UTF-8" standalone="no"?>
<svg
   xmlns:dc="http://purl.org/dc/elements/1.1/"
   xmlns:cc="http://creativecommons.org/ns#"
   xmlns:rdf="http://www.w3.org/1999/02/22-rdf-syntax-ns#"
   xmlns:svg="http://www.w3.org/2000/svg"
   xmlns="http://www.w3.org/2000/svg"
   xmlns:xlink="http://www.w3.org/1999/xlink"
   xml:space="preserve"
   style="enable-background:new 0 0 118.3 141.9;"
   viewBox="0 0 118.3 141.9"
   y="0px"
   x="0px"
   id="Calque_1"
   version="1.1"><metadata
   id="metadata39"><rdf:RDF><cc:Work
       rdf:about=""><dc:format>image/svg+xml</dc:format><dc:type
         rdf:resource="http://purl.org/dc/dcmitype/StillImage" /><dc:title></dc:title></cc:Work></rdf:RDF></metadata><defs
   id="defs37"><rect
     id="SVGID_1_-2"
     width="164.8"
     height="122.4" /><rect
     height="122.4"
     width="133.3"
     id="SVGID_1_-1" /><rect
     height="122.3"
     width="155.7"
     id="SVGID_1_-6" /><rect
     height="236.1"
     width="300.6"
     id="SVGID_1_-0" /><rect
     height="236.1"
     width="300.6"
     id="SVGID_3_" /><rect
     height="236.1"
     width="300.6"
     id="SVGID_5_" /><rect
     height="236.1"
     width="300.6"
     id="SVGID_7_" /><rect
     height="236.1"
     width="300.6"
     id="SVGID_9_" /><rect
     height="236.1"
     width="300.6"
     id="SVGID_11_" /><rect
     height="236.1"
     width="300.6"
     id="SVGID_13_" /><rect
     height="236.1"
     width="300.6"
     id="SVGID_15_" /><rect
     height="236.1"
     width="300.6"
     id="SVGID_17_" /><rect
     height="236.1"
     width="300.6"
     id="SVGID_19_" /><rect
     height="236.1"
     width="300.6"
     id="SVGID_21_" /><rect
     height="236.1"
     width="300.6"
     id="SVGID_23_" /><rect
     height="236.1"
     width="300.6"
     id="SVGID_25_" /><rect
     height="236.1"
     width="300.6"
     id="SVGID_27_" /><rect
     height="236.1"
     width="300.6"
     id="SVGID_29_" /><rect
     id="SVGID_1_-9"
     width="154"
     height="122.5" /><rect
     id="SVGID_1_-5"
     width="125.1"
     height="122.2" /></defs>
<style
   id="style2"
   type="text/css">
	.st0{clip-path:url(#SVGID_2_);fill:#181716;}
	.st1{clip-path:url(#SVGID_4_);fill:#91D900;}
</style>
<g
   transform="translate(-0.01878972,-0.43216365)"
   id="g12"
   style="fill:#000000;fill-opacity:1">
	<defs
   id="defs5">
		<rect
   y="0"
   x="0"
   height="141.89999"
   width="118.3"
   id="SVGID_1_" />
	</defs>
	<clipPath
   id="SVGID_2_">
		<use
   height="100%"
   width="100%"
   y="0"
   x="0"
   id="use7"
   style="overflow:visible"
   xlink:href="#SVGID_1_" />
	</clipPath>
	<path
   id="path10"
   clip-path="url(#SVGID_2_)"
   d="M 105.4,8 C 104.6,2.9 99.8,-0.7 94.6,0.1 L 5.5,12.9 C 2,13.4 -0.4,16.7 0.1,20.2 l 8.3,56.4 c 0.7,4.4 2.3,8.6 4.9,12.3 8,11.4 25.7,36.9 30,42.9 1.1,1.7 4.2,6.3 6.3,9.4 0.8,1.2 2.6,0.9 3,-0.4 1.4,-4 3.8,-10.8 4.9,-13.6 2.6,-6.4 6.5,-18.7 7.7,-22.5 0.2,-0.7 0.8,-1.2 1.6,-1.3 l 5.4,-0.9 24.4,-4.8 16.4,-3.3 c 3.5,-0.6 5.9,-3.9 5.4,-7.4 -3.4,-20.3 -13,-79 -13,-79"
   class="st0"
   style="fill:#000000;fill-opacity:1" />
</g>

<style
   type="text/css"
   id="style846">
	.st0{clip-path:url(#SVGID_2_);fill:#A7D900;}
</style><style
   id="style849"
   type="text/css">
	.st0{clip-path:url(#SVGID_2_);fill:#A7D900;}
</style><style
   id="style963"
   type="text/css">
	.st0{clip-path:url(#SVGID_2_);fill:#A7D900;}
</style><style
   type="text/css"
   id="style2209">
	.st0{clip-path:url(#SVGID_2_);fill:#A7D900;}
</style><style
   type="text/css"
   id="style2393">
	.st0{clip-path:url(#SVGID_2_);fill:#A7D900;}
</style><text
   id="text2480"
   y="83.043671"
   x="42.9207"
   style="font-style:normal;font-variant:normal;font-weight:normal;font-stretch:normal;font-size:71.70778656px;line-height:125%;font-family:BlowBrush;-inkscape-font-specification:'BlowBrush, Normal';font-variant-ligatures:normal;font-variant-caps:normal;font-variant-numeric:normal;font-feature-settings:normal;text-align:start;letter-spacing:0px;word-spacing:0px;writing-mode:lr-tb;text-anchor:start;fill:#a7d900;fill-opacity:1;stroke:none;stroke-width:4.48187304px;stroke-linecap:butt;stroke-linejoin:miter;stroke-opacity:1"
   xml:space="preserve"><tspan
     style="font-style:normal;font-variant:normal;font-weight:normal;font-stretch:normal;font-size:71.70778656px;font-family:BlowBrush;-inkscape-font-specification:'BlowBrush, Normal';font-variant-ligatures:normal;font-variant-caps:normal;font-variant-numeric:normal;font-feature-settings:normal;text-align:start;writing-mode:lr-tb;text-anchor:start;fill:#a7d900;fill-opacity:1;stroke-width:4.48187304px"
     y="83.043671"
     x="42.9207"
     id="tspan2478">?</tspan></text>
</svg>