<?xml version="1.0" encoding="UTF-8" standalone="no"?>
<!-- Generator: Adobe Illustrator 25.0.0, SVG Export Plug-In . SVG Version: 6.00 Build 0)  -->

<svg
   xmlns:dc="http://purl.org/dc/elements/1.1/"
   xmlns:cc="http://creativecommons.org/ns#"
   xmlns:rdf="http://www.w3.org/1999/02/22-rdf-syntax-ns#"
   xmlns:svg="http://www.w3.org/2000/svg"
   xmlns="http://www.w3.org/2000/svg"
   xmlns:xlink="http://www.w3.org/1999/xlink"
   xmlns:sodipodi="http://sodipodi.sourceforge.net/DTD/sodipodi-0.dtd"
   xmlns:inkscape="http://www.inkscape.org/namespaces/inkscape"
   version="1.1"
   id="Calque_1"
   x="0px"
   y="0px"
   viewBox="0 0 118.3 141.9"
   style="enable-background:new 0 0 118.3 141.9;"
   xml:space="preserve"
   sodipodi:docname="icon-promenades.svg"
   inkscape:version="0.92.4 (5da689c313, 2019-01-14)"><metadata
   id="metadata144"><rdf:RDF><cc:Work
       rdf:about=""><dc:format>image/svg+xml</dc:format><dc:type
         rdf:resource="http://purl.org/dc/dcmitype/StillImage" /><dc:title></dc:title></cc:Work></rdf:RDF></metadata><defs
   id="defs142"><clipPath
     id="SVGID_2_-9"><use
       height="100%"
       width="100%"
       y="0"
       x="0"
       xlink:href="#SVGID_1_-8"
       style="overflow:visible"
       id="use5" /></clipPath><clipPath
     id="clipPath856"><use
       height="100%"
       width="100%"
       y="0"
       x="0"
       xlink:href="#SVGID_1_-8"
       style="overflow:visible"
       id="use854" /></clipPath><clipPath
     id="clipPath860"><use
       height="100%"
       width="100%"
       y="0"
       x="0"
       xlink:href="#SVGID_1_-8"
       style="overflow:visible"
       id="use858" /></clipPath><clipPath
     id="clipPath864"><use
       height="100%"
       width="100%"
       y="0"
       x="0"
       xlink:href="#SVGID_1_-8"
       style="overflow:visible"
       id="use862" /></clipPath><clipPath
     id="clipPath868"><use
       height="100%"
       width="100%"
       y="0"
       x="0"
       xlink:href="#SVGID_1_-8"
       style="overflow:visible"
       id="use866" /></clipPath><clipPath
     id="clipPath872"><use
       height="100%"
       width="100%"
       y="0"
       x="0"
       xlink:href="#SVGID_1_-8"
       style="overflow:visible"
       id="use870" /></clipPath><clipPath
     id="clipPath876"><use
       height="100%"
       width="100%"
       y="0"
       x="0"
       xlink:href="#SVGID_1_-8"
       style="overflow:visible"
       id="use874" /></clipPath><clipPath
     id="clipPath880"><use
       height="100%"
       width="100%"
       y="0"
       x="0"
       xlink:href="#SVGID_1_-8"
       style="overflow:visible"
       id="use878" /></clipPath><clipPath
     id="clipPath884"><use
       height="100%"
       width="100%"
       y="0"
       x="0"
       xlink:href="#SVGID_1_-8"
       style="overflow:visible"
       id="use882" /></clipPath><clipPath
     id="clipPath888"><use
       height="100%"
       width="100%"
       y="0"
       x="0"
       xlink:href="#SVGID_1_-8"
       style="overflow:visible"
       id="use886" /></clipPath><clipPath
     id="clipPath892"><use
       height="100%"
       width="100%"
       y="0"
       x="0"
       xlink:href="#SVGID_1_-8"
       style="overflow:visible"
       id="use890" /></clipPath><rect
     id="SVGID_1_-8"
     x="1.2"
     y="1.4"
     width="246.3"
     height="120.1" /></defs><sodipodi:namedview
   pagecolor="#ffffff"
   bordercolor="#666666"
   borderopacity="1"
   objecttolerance="10"
   gridtolerance="10"
   guidetolerance="10"
   inkscape:pageopacity="0"
   inkscape:pageshadow="2"
   inkscape:window-width="1469"
   inkscape:window-height="946"
   id="namedview140"
   showgrid="false"
   inkscape:zoom="2.3520396"
   inkscape:cx="85.712683"
   inkscape:cy="80.764925"
   inkscape:window-x="0"
   inkscape:window-y="0"
   inkscape:window-maximized="0"
   inkscape:current-layer="Calque_1" />
<style
   type="text/css"
   id="style2">
	.st0{clip-path:url(#SVGID_2_);}
	.st1{display:none;}
	.st2{display:inline;}
	.st3{fill:none;}
	.st4{fill:#A7D900;}
	.st5{clip-path:url(#SVGID_4_);fill:#A7D900;}
	.st6{clip-path:url(#SVGID_6_);fill:#A7D900;}
	.st7{clip-path:url(#SVGID_8_);fill:#A7D900;}
	.st8{clip-path:url(#SVGID_10_);fill:#A7D900;}
	.st9{clip-path:url(#SVGID_12_);fill:#A7D900;}
	.st10{clip-path:url(#SVGID_14_);fill:#A7D900;}
</style>
<g
   id="g12">
	<g
   id="g13">
		<g
   id="g11">
			<defs
   id="defs5">
				<rect
   id="SVGID_1_"
   width="118.3"
   height="141.9" />
			</defs>
			<clipPath
   id="SVGID_2_">
				<use
   xlink:href="#SVGID_1_"
   style="overflow:visible;"
   id="use7" />
			</clipPath>
			<path
   id="path10"
   class="st0"
   d="M105.4,8c-0.8-5.1-5.6-8.7-10.8-7.9L5.5,12.9c-3.5,0.5-5.9,3.8-5.4,7.3l8.3,56.4     c0.7,4.4,2.3,8.6,4.9,12.3c8,11.4,25.7,36.9,30,42.9c1.1,1.7,4.2,6.3,6.3,9.4c0.8,1.2,2.6,0.9,3-0.4c1.4-4,3.8-10.8,4.9-13.6     c2.6-6.4,6.5-18.7,7.7-22.5c0.2-0.7,0.8-1.2,1.6-1.3l5.4-0.9l24.4-4.8l16.4-3.3c3.5-0.6,5.9-3.9,5.4-7.4     C115,66.7,105.4,8,105.4,8"
   clip-path="url(#SVGID_2_)" />
		</g>
	</g>
</g>
<g
   id="g1183"
   transform="matrix(0.19006356,0,0,0.19006356,31.669896,33.970168)"
   class="st1">
	<g
   id="g1041"
   class="st2">
		<rect
   x="42.2"
   y="57.5"
   class="st3"
   width="22.5"
   height="27"
   id="rect16" />
		<path
   id="path1039"
   class="st4"
   d="M0.9,9.5C50.7,7.1,101.6,10,151.7,8.9c25.3-0.6,49.8,3.3,74.9,4.2c18.7,0.8,42.7-6.2,60.6-1    c5.4,1.5,7.9-7,2.3-8.5c-16-4.6-35.9,1-52.3,1c-24.5-0.2-48.9-4.4-73.6-4.6c-27.6-0.2-55.4,2.5-83,2.5C54.2,2.3,27.3-0.8,0.9,1.4    C-4.3,1.7-4.3,9.8,0.9,9.5" />
	</g>
	<g
   id="g1051"
   class="st2">
		<rect
   x="116"
   y="95.6"
   class="st3"
   width="57.1"
   height="44.9"
   id="rect20" />
		<path
   id="path1049"
   class="st4"
   d="M-0.1,178.4c96.7,1.7,193.3,3.1,290,3.1c6,0,6-9.3,0-9.3h-1.4c-6,0-6,9.3,0,9.3h1.4v-9.3    c-96.5,0-193.7-5.6-290-1.9C-5.3,170.5-5.3,178.2-0.1,178.4" />
	</g>
	<g
   id="g1061"
   class="st2">
		<rect
   x="116"
   y="95.6"
   class="st3"
   width="57.1"
   height="44.9"
   id="rect24" />
		<path
   id="path1059"
   class="st4"
   d="M26.4,170.7C29.6,116,27.9,60.6,31.9,6.4c0.4-5.2-8.4-6.6-9.2-1.4c0-0.2,0-0.4,0.2-0.6    c-2.9,4.4,3.9,9.8,7.3,5.8c0.8-0.8,1.4-1.5,1.7-2.7c-3.1-0.4-6.2-0.8-9.3-1.2c-2.3,25.7-0.4,51.9-0.8,77.8    c-0.6,29-3.5,57.7-3.5,86.7C18,176.1,26,176.1,26.4,170.7" />
	</g>
	<g
   id="g1071"
   class="st2">
		<rect
   x="116"
   y="95.6"
   class="st3"
   width="57.1"
   height="44.9"
   id="rect28" />
		<path
   id="path1069"
   class="st4"
   d="M269.6,173.2c-1.7-11.2,2.1-28,1.9-40c-0.2-13.7-1.5-27.2-1-40.9c1-27,2.5-53.7,1.5-80.9    c-0.2-3.9-5.4-7-8.3-3.5c-0.2,0.2-0.4,0.4-0.6,0.6c-4.1,4.8,2.7,11.6,7,7c0.2-0.2,0.4-0.4,0.6-0.6c-2.7-1.2-5.6-2.3-8.3-3.5    c0.6,30.7-1.7,61-1.9,91.7c0,12.9,1.7,25.9,1.5,38.8c-0.2,11.8-3.1,22-0.2,33.6C263.1,180.7,270.4,178.4,269.6,173.2" />
	</g>
	<g
   id="g1081"
   class="st2">
		<rect
   x="116"
   y="95.6"
   class="st3"
   width="57.1"
   height="44.9"
   id="rect32" />
		<path
   id="path1079"
   class="st4"
   d="M55.7,103.1c22.8-9.8,40.5-24.1,51.9-46.9c6-12,15.4-33.2,13.3-47.1c-1-6.4-10.2-3.5-9.5,2.7    c1.7,12.7-10.4,37.3-16.2,46.9c-5.2,8.5-12,16.8-19.9,23.2C67.8,88.1,58.5,91,51,97C47,100,52,104.8,55.7,103.1" />
	</g>
	<g
   id="g1091"
   class="st2">
		<rect
   x="116"
   y="95.6"
   class="st3"
   width="57.1"
   height="44.9"
   id="rect36" />
		<path
   id="path1089"
   class="st4"
   d="M50.9,102.1c15.4,22.4,21.6,44.2,22,71.6c0.2,6.6,10.4,6.6,10.2,0c-0.4-24.3-4.6-61.8-27-76.8    C53,94.8,48.7,99,50.9,102.1" />
	</g>
	<g
   id="g1101"
   class="st2">
		<rect
   x="116"
   y="95.6"
   class="st3"
   width="57.1"
   height="44.9"
   id="rect40" />
		<path
   id="path1099"
   class="st4"
   d="M8.6,106.4c5.6,5.2,15.1,3.7,22,3.5c11.2-0.6,22.6,0,33.8-1.2c6.2-0.6,6.4-9.1,0-9.7    c-9.8-1-20.1-0.2-29.9,0.4c-7.7,0.4-15.3-0.2-22.8-0.2C7.8,98.9,5.7,103.7,8.6,106.4" />
	</g>
	<g
   id="g1111"
   class="st2">
		<rect
   x="116"
   y="95.6"
   class="st3"
   width="57.1"
   height="44.9"
   id="rect44" />
		<path
   id="path1109"
   class="st4"
   d="M240.7,96.9c-6.4-5.2-14.1-7.7-20.9-12.5c-9.5-6.8-17.4-15.8-23.4-25.7    c-6-9.5-18-34.4-16.2-46.9c0.8-6.2-8.5-8.9-9.5-2.7c-2.3,13.9,7.1,35.1,13.3,47.1c11.4,22.6,29,36.9,51.9,46.9    C239.5,104.8,244.5,100,240.7,96.9" />
	</g>
	<g
   id="g1121"
   class="st2">
		<rect
   x="116"
   y="95.6"
   class="st3"
   width="57.1"
   height="44.9"
   id="rect48" />
		<path
   id="path1119"
   class="st4"
   d="M235.4,96.9c-22.4,15.3-26.6,52.5-27,76.8c0,6.6,10.2,6.6,10.2,0c0.4-27.4,6.6-49.2,22-71.6    C242.8,99,238.5,94.8,235.4,96.9" />
	</g>
	<g
   id="g1131"
   class="st2">
		<rect
   x="116"
   y="95.6"
   class="st3"
   width="57.1"
   height="44.9"
   id="rect52" />
		<path
   id="path1129"
   class="st4"
   d="M279.9,99c-7.7,0-15.1,0.6-22.8,0.2c-9.8-0.4-20.1-1.2-29.9-0.4c-6.4,0.6-6.2,9.1,0,9.7    c11.2,1.2,22.6,0.6,33.8,1.2c7,0.4,16.4,1.9,22-3.5C285.6,103.9,283.7,98.9,279.9,99" />
	</g>
	<g
   id="g1141"
   class="st2">
		<rect
   x="116"
   y="95.6"
   class="st3"
   width="57.1"
   height="44.9"
   id="rect56" />
		<path
   id="path1139"
   class="st4"
   d="M-2.4,233.6c17.8,4.6,38,1.4,56.4,1.4c23.6,0.2,47.1,1.2,70.9,0.6    c54.8-1.2,110.4-1.4,165.3-0.8c6.4,0,6-8.9,0-9.7c-1-0.2-1.7-0.2-2.7-0.4c-5.2-0.8-6.4,7.9-1.2,9.3c1,0.2,1.7,0.4,2.7,0.6    c0.4-3.1,0.8-6.4,1.4-9.5c-51.9-0.8-103.9,0.8-155.8,0.4c-22-0.2-43.8,0.4-65.8-0.2c-21.8-0.4-47.1,3.5-68.5-1    C-5.7,223.4-8.2,232.1-2.4,233.6" />
	</g>
	<g
   id="g1151"
   class="st2">
		<rect
   x="116"
   y="95.6"
   class="st3"
   width="57.1"
   height="44.9"
   id="rect60" />
		<path
   id="path1149"
   class="st4"
   d="M22.9,230.1c-0.8-12.9,19.7-27.2,30.5-26.5c6.4,0.4,11.6,3.3,16,8.1c1.2,1.4,8.5,9.8,7.7,12.2    c-1.7,5.2,6,8.3,8.7,3.7c3.7-6.2-3.1-14.1-6.8-18.9c-6.2-8.1-13.7-13.5-24.3-14.5c-12.2-1-21.4,4.6-29.2,13.5    c-5.4,6.2-13.3,14.7-10.8,23.4C15.9,235.7,23.1,235,22.9,230.1" />
	</g>
	<g
   id="g1161"
   class="st2">
		<rect
   x="116"
   y="95.6"
   class="st3"
   width="57.1"
   height="44.9"
   id="rect64" />
		<path
   id="path1159"
   class="st4"
   d="M86.2,223c0-30.3,58.3-26.8,54.1,4.6c-0.8,5.4,7.9,6.2,9.3,1.2c5.8-19.7-19.9-38.6-37.6-37.5    c-11.8,0.8-44,17-33.4,33.6C80.6,228.4,86.2,227.2,86.2,223" />
	</g>
	<g
   id="g1171"
   class="st2">
		<rect
   x="116"
   y="95.6"
   class="st3"
   width="57.1"
   height="44.9"
   id="rect68" />
		<path
   id="path1169"
   class="st4"
   d="M149.9,225.1c1-6,3.3-14.1,8.7-17.6c4.4-2.7,12.7-3.5,18-3.1c12.4,1,24.1,10.6,23.4,23.6    c-0.4,6.4,9.3,6.2,9.8,0c3.3-40.7-72.4-45.4-68-4.1C142.2,228.2,149.1,230.1,149.9,225.1" />
	</g>
	<g
   id="g1181"
   class="st2">
		<rect
   x="116"
   y="95.6"
   class="st3"
   width="57.1"
   height="44.9"
   id="rect72" />
		<path
   id="path1179"
   class="st4"
   d="M208,224.2c2.3-13.9,18.3-23.7,31.5-18.7c10.6,4.1,16.4,13.3,21.6,22.8    c2.5,4.6,9.8,1.5,8.5-3.5c-4.4-15.6-20.7-29.9-37.3-30.5c-15.4-0.6-31.7,13.3-33,28.8C198.8,228,207.3,229.2,208,224.2" />
	</g>
</g>

<g
   transform="matrix(0.24565087,0,0,0.24565087,30.842998,34.72288)"
   id="g30"><defs
     id="defs3"><rect
       id="rect1016"
       x="1.2"
       y="1.4"
       width="246.3"
       height="120.1" /></defs><clipPath
     id="clipPath898"><use
       height="100%"
       width="100%"
       y="0"
       x="0"
       xlink:href="#SVGID_1_-8"
       style="overflow:visible"
       id="use896" /></clipPath><path
     inkscape:connector-curvature="0"
     style="fill:#a7d900"
     d="m 7.5,14.4 c 2.4,-0.6 4.6,-1.7 6.9,-2.7 2.1,-0.9 4.9,-1.5 6,-3.7 C 21.3,6 21,3.2 18.9,2.1 14.3,0 9.5,4.8 5.3,6.2 0.1,7.8 2.2,15.8 7.5,14.4"
     clip-path="url(#SVGID_2_-9)"
     id="path8" /><path
     inkscape:connector-curvature="0"
     style="fill:#a7d900"
     d="m 12.5,5.8 c -1.1,10 14,15.3 21.2,18 C 50.4,29.9 66.2,22 78,10.2 82.4,5.8 75.6,-1.1 71.1,3.3 61.8,12.7 50.5,19.1 37,14.7 34.3,13.8 21.1,9.3 21,5.8 20.8,0.3 13.1,0.5 12.5,5.8"
     clip-path="url(#SVGID_2_-9)"
     id="path10-5" /><path
     inkscape:connector-curvature="0"
     style="fill:#a7d900"
     d="m 74.6,10.2 c 11,0.1 21.9,11.2 30.8,17.1 13.1,8.8 25.7,15.9 40.9,20.5 19.6,5.9 40,9.8 59.9,14.5 30.6,7.3 30.9,20.3 31.1,51.1 3.3,-0.4 6.5,-0.9 9.8,-1.3 -0.1,-0.3 -0.2,-0.6 -0.3,-0.9 -2.3,-5.9 -11.9,-3.4 -9.6,2.7 0.1,0.3 0.2,0.6 0.3,0.9 1.9,5 9.9,4.6 9.8,-1.3 C 247.2,100.8 249.5,76.2 240.8,65 230.2,51.2 199,50.8 183.9,47.2 155.9,40.4 131.3,33.9 107.3,17.1 95.1,8.6 89.3,0.9 74.6,1.4 c -5.7,0.2 -5.7,8.8 0,8.8"
     clip-path="url(#SVGID_2_-9)"
     id="path12" /><path
     inkscape:connector-curvature="0"
     style="fill:#a7d900"
     d="m 9.9,114 c 2.2,-5.3 1.4,-11 1.3,-16.7 -0.3,-11.6 0.2,-23.1 1,-34.7 1.3,-18.6 1.6,-35.3 -2,-53.4 -1,-5.1 -8.5,-3.6 -8.7,1.2 -0.7,16 2.2,32.3 1.2,48.8 -0.6,9.3 -1.5,18.6 -1.5,28 0.1,7.8 2.5,17 0.8,24.7 -1.3,5.3 5.9,6.9 7.9,2.1"
     clip-path="url(#SVGID_2_-9)"
     id="path14" /><path
     inkscape:connector-curvature="0"
     style="fill:#a7d900"
     d="m 7.2,118 c 45.1,-0.6 90.2,-0.3 135.4,0.2 21.5,0.3 42.5,0.8 64,1.8 10.2,0.5 25,2.8 34.8,-0.1 5.7,-1.7 3.2,-10.6 -2.4,-8.9 -10.9,3.3 -28.6,-0.1 -39.7,-0.8 -22.8,-1.4 -45.3,-0.8 -68.1,-1.5 -40.9,-1.2 -83.4,-3.1 -124,1 -5.1,0.6 -5.4,8.4 0,8.3"
     clip-path="url(#SVGID_2_-9)"
     id="path16" /><path
     inkscape:connector-curvature="0"
     style="fill:#a7d900"
     d="m 6.2,104 c 75.5,0.1 155.8,-13 230.5,2.1 5.6,1.1 8,-7.4 2.4,-8.6 C 202.5,90 162.2,91.6 124.9,91.1 85.4,90.6 45.6,93.9 6.2,95.6 0.9,95.8 0.8,104 6.2,104"
     clip-path="url(#SVGID_2_-9)"
     id="path18" /><path
     inkscape:connector-curvature="0"
     style="fill:#a7d900"
     d="m 187.7,50.5 c -7.6,0.5 -16.3,7.7 -21.2,13.1 -6.3,7 -11.1,18.1 -13.8,27 -1.5,5 5.8,8 8.4,3.5 3.8,-6.6 6.1,-14.1 10.1,-20.7 3.4,-5.4 11.3,-13 17.6,-14.7 4.5,-1.1 3.7,-8.5 -1.1,-8.2"
     clip-path="url(#SVGID_2_-9)"
     id="path20" /><path
     inkscape:connector-curvature="0"
     style="fill:#a7d900"
     d="m 10,42.5 c -0.1,0 -0.1,0 -0.2,0 -6,-0.9 -7.3,7.7 -1.1,8.3 6.5,0.7 13.9,0.3 20.1,2.4 7.9,2.7 15.1,9.2 19.2,16.4 3.5,6.2 3,11.2 2.7,17.8 -0.2,3.5 -0.8,8.5 2.4,11 3.6,2.8 8.4,0.3 7.6,-4.4 -1,-5.6 0.6,-11.2 0,-16.9 C 59.7,68.8 54.9,61.3 49.1,55.5 38,44.7 22.6,40.3 7.5,42.5 c 0.8,2.7 1.5,5.4 2.3,8.2 0.1,0 0.1,0 0.2,-0.1 3.7,-1 4.2,-7.5 0,-8.1"
     clip-path="url(#SVGID_2_-9)"
     id="path22" /><path
     inkscape:connector-curvature="0"
     style="fill:#a7d900"
     d="m 108.8,21.5 c -3.7,-1.9 -7.8,1.1 -10.7,3.3 -3,2.3 -6.2,5 -7.8,8.5 -2.9,6.1 5.9,9.9 8.5,3.6 0.8,-2 3.3,-4 5,-5.3 1.9,-1.5 5.3,-2.5 6.3,-4.8 0.9,-1.8 0.7,-4.3 -1.3,-5.3"
     clip-path="url(#SVGID_2_-9)"
     id="path24" /><path
     inkscape:connector-curvature="0"
     style="fill:#a7d900"
     d="m 120.2,34.8 c -5.3,2.1 -10.4,6.2 -13.6,11 -3.5,5.2 6.1,10 8.2,3.5 0.1,-0.2 0.1,-0.4 0.2,-0.6 1,-3.2 -2.2,-5.6 -5,-5 -0.2,0 -0.5,0.1 -0.7,0.1 1.5,2.5 2.9,5 4.4,7.5 3,-3.5 5.9,-6.4 9.7,-9.1 3.2,-2.5 1.4,-9.3 -3.2,-7.4"
     clip-path="url(#SVGID_2_-9)"
     id="path26" /><path
     inkscape:connector-curvature="0"
     style="fill:#a7d900"
     d="m 130.9,40.2 c -3,4 -3.1,9.3 -5.4,13.5 -2.9,5.3 5.3,10 8,4.7 2.4,-4.7 3.4,-10.1 4.8,-15.1 1.4,-4.7 -4.8,-6.6 -7.4,-3.1"
     clip-path="url(#SVGID_2_-9)"
     id="path28" /></g></svg>