<?xml version="1.0" encoding="utf-8"?>
<!-- Generator: Adobe Illustrator 25.0.0, SVG Export Plug-In . SVG Version: 6.00 Build 0)  -->
<svg version="1.1"
	 id="Calque_1" xmlns:cc="http://creativecommons.org/ns#" xmlns:dc="http://purl.org/dc/elements/1.1/" xmlns:rdf="http://www.w3.org/1999/02/22-rdf-syntax-ns#" xmlns:svg="http://www.w3.org/2000/svg"
	 xmlns="http://www.w3.org/2000/svg" xmlns:xlink="http://www.w3.org/1999/xlink" x="0px" y="0px" viewBox="0 0 118.3 141.9"
	 style="enable-background:new 0 0 118.3 141.9;" xml:space="preserve">
<style type="text/css">
	.st0{clip-path:url(#SVGID_2_);}
	.st1{display:none;}
	.st2{display:inline;fill:none;}
	.st3{display:inline;fill:#A7D900;}
	.st4{clip-path:url(#SVGID_4_);fill:#A7D900;}
	.st5{clip-path:url(#SVGID_6_);fill:#A7D900;}
	.st6{clip-path:url(#SVGID_8_);fill:#A7D900;}
	.st7{clip-path:url(#SVGID_10_);fill:#A7D900;}
	.st8{clip-path:url(#SVGID_12_);fill:#A7D900;}
	.st9{clip-path:url(#SVGID_14_);fill:#A7D900;}
	.st10{clip-path:url(#SVGID_16_);fill:#A7D900;}
	.st11{clip-path:url(#SVGID_18_);fill:#A7D900;}
</style>
<g id="g12">
	<g>
		<g>
			<defs>
				<rect id="SVGID_1_" width="118.3" height="141.9"/>
			</defs>
			<clipPath id="SVGID_2_">
				<use xlink:href="#SVGID_1_"  style="overflow:visible;"/>
			</clipPath>
			<path id="path10" class="st0" d="M105.4,8c-0.8-5.1-5.6-8.7-10.8-7.9L5.5,12.9c-3.5,0.5-5.9,3.8-5.4,7.3l8.3,56.4
				c0.7,4.4,2.3,8.6,4.9,12.3c8,11.4,25.7,36.9,30,42.9c1.1,1.7,4.2,6.3,6.3,9.4c0.8,1.2,2.6,0.9,3-0.4c1.4-4,3.8-10.8,4.9-13.6
				c2.6-6.4,6.5-18.7,7.7-22.5c0.2-0.7,0.8-1.2,1.6-1.3l5.4-0.9l24.4-4.8l16.4-3.3c3.5-0.6,5.9-3.9,5.4-7.4
				C115,66.7,105.4,8,105.4,8"/>
		</g>
	</g>
</g>
<g id="g1508" transform="matrix(0.55047281,0,0,0.55047281,30.828627,22.732174)" class="st1">
	<rect x="26.6" y="31.9" class="st2" width="65.1" height="78.1"/>
	<path id="path1474" class="st3" d="M49.5,4.9c23,5.7,18.7,26.9,25,44.6c2.7,7.7,7.7,18.1,16.5,20c3.2,0.7,4.6-4.1,1.4-5
		C75.1,59.9,77.5,31,72.6,17.9c-4-10.6-11.1-15.3-21.9-17C48,0.4,46.8,4.2,49.5,4.9"/>
	<rect x="26.6" y="31.9" class="st2" width="65.1" height="78.1"/>
	<path id="path1476" class="st3" d="M49.8,4.4c6.8,1.3,13.3,0.7,18.8,6c5.6,5.4,8.1,12.3,11.8,18.9c4,7.1,12.2,13.8,20.9,12.7
		c3.2-0.4,3.4-5.4,0-5.2C86.1,37.9,81.7,17.4,73.2,8.2C66.4,0.8,59.7,1,50.4,0C47.9-0.3,47.3,3.9,49.8,4.4"/>
	<rect x="26.6" y="31.9" class="st2" width="65.1" height="78.1"/>
	<path id="path1478" class="st3" d="M6.4,59.7c2.2,0.9,4.9-1.1,6.5-2.4c1.9-1.6,3.4-4.4,3.5-7c0.1-2.5-3.7-3.6-4.8-1.3
		c-0.7,1.4-0.9,3.2-2,4.4c-0.8,0.9-1.9,1.6-3.1,2C4.2,56.1,4.3,58.9,6.4,59.7"/>
	<rect x="26.6" y="31.9" class="st2" width="65.1" height="78.1"/>
	<path id="path1480" class="st3" d="M11.4,50.9c1.2,4.3,4.6,7,8.8,8.2c3.1,0.9,4.4-3.2,2-4.9c-1.2-0.8-2.7-1-3.8-1.8
		c-1.2-0.8-1.8-2.3-2.6-3.4C14.3,47,10.7,48.1,11.4,50.9"/>
	<rect x="26.6" y="31.9" class="st2" width="65.1" height="78.1"/>
	<path id="path1482" class="st3" d="M21.7,54.5c-2.2-0.9-4.9,1.1-6.5,2.4c-1.9,1.6-3.4,4.4-3.5,7c-0.1,2.5,3.7,3.6,4.8,1.3
		c0.7-1.4,0.9-3.2,2-4.4c0.8-0.9,1.9-1.6,3.1-2C23.9,58,23.7,55.2,21.7,54.5"/>
	<rect x="26.6" y="31.9" class="st2" width="65.1" height="78.1"/>
	<path id="path1484" class="st3" d="M16.7,63.2c-1.2-4.3-4.6-7-8.8-8.2c-3.1-0.9-4.4,3.2-2,4.9c1.2,0.8,2.7,1,3.8,1.8
		c1.2,0.8,1.8,2.3,2.6,3.4C13.8,67.2,17.4,66.1,16.7,63.2"/>
	<rect x="26.6" y="31.9" class="st2" width="65.1" height="78.1"/>
	<path id="path1486" class="st3" d="M1.6,30.4c4.1,0.8,8.3-2.3,11.2-4.9c3.3-2.9,5.8-7.7,6.4-12.1c0.5-3.3-3.8-4.5-5-1.4
		s-1.9,6.6-4.3,9.1C8,23.2,5,25.7,2.2,26C0,26.3-1.1,29.9,1.6,30.4"/>
	<rect x="26.6" y="31.9" class="st2" width="65.1" height="78.1"/>
	<path id="path1488" class="st3" d="M14.4,13.4c1.4,3.8,3.5,7.6,6.6,10.2c2.9,2.5,6.8,3.8,10.4,5.2c2.9,1.1,4.6-3.4,2-4.9
		c-2.6-1.6-5.8-2.2-8.4-4c-2.9-2.1-4.4-5.4-6.2-8.4C17.4,9.3,13.4,10.7,14.4,13.4"/>
	<rect x="26.6" y="31.9" class="st2" width="65.1" height="78.1"/>
	<path id="path1490" class="st3" d="M33.1,24.1c-4.1-0.8-8.3,2.3-11.2,4.9c-3.3,2.9-5.8,7.7-6.4,12.1c-0.5,3.3,3.8,4.5,5,1.4
		c1.2-3.1,1.9-6.6,4.3-9.1c1.9-2,4.9-4.5,7.7-4.9C34.7,28.2,35.8,24.6,33.1,24.1"/>
	<rect x="26.6" y="31.9" class="st2" width="65.1" height="78.1"/>
	<path id="path1492" class="st3" d="M20.3,41.1c-1.4-3.8-3.5-7.6-6.6-10.2c-2.9-2.5-6.8-3.8-10.4-5.2c-2.9-1.1-4.6,3.4-2,4.9
		c2.6,1.6,5.8,2.2,8.4,4c2.9,2.1,4.5,5.4,6.2,8.4C17.2,45.2,21.3,43.8,20.3,41.1"/>
	<rect x="26.6" y="31.9" class="st2" width="65.1" height="78.1"/>
	<path id="path1494" class="st3" d="M42.2,95.7c3.7,0.8,7.6-2.1,10.2-4.4c3-2.7,5-7,5.4-11c0.4-3.1-4.1-3.1-5.1-0.7
		c-1.1,2.7-1.7,5.7-3.8,7.9c-1.8,1.8-4.2,3.6-6.8,4C40,91.8,40.1,95.3,42.2,95.7"/>
	<rect x="26.6" y="31.9" class="st2" width="65.1" height="78.1"/>
	<path id="path1496" class="st3" d="M52.9,80.9c1.2,3.3,3,6.7,5.7,9c2.6,2.2,6,3.4,9.1,4.5c2.9,1.1,4.5-3.3,2-4.9
		c-2.3-1.4-5-1.9-7.2-3.4c-2.5-1.7-3.7-4.6-5.3-7.1C55.9,76.8,51.9,78.2,52.9,80.9"/>
	<rect x="26.6" y="31.9" class="st2" width="65.1" height="78.1"/>
	<path id="path1498" class="st3" d="M69.3,89.7c-3.7-0.8-7.6,2.1-10.2,4.4c-2.9,2.7-5,7-5.4,11c-0.4,3.1,4.1,3.1,5.1,0.7
		c1.1-2.7,1.7-5.7,3.8-7.9c1.8-1.8,4.2-3.6,6.8-4C71.5,93.6,71.4,90.2,69.3,89.7"/>
	<rect x="26.6" y="31.9" class="st2" width="65.1" height="78.1"/>
	<path id="path1500" class="st3" d="M58.6,104.5c-1.2-3.3-3-6.7-5.7-9c-2.6-2.2-6-3.4-9.1-4.5c-2.9-1.1-4.5,3.3-2,4.9
		c2.3,1.4,5,1.9,7.2,3.4c2.5,1.7,3.7,4.6,5.3,7.1C55.6,108.6,59.6,107.2,58.6,104.5"/>
	<rect x="26.6" y="31.9" class="st2" width="65.1" height="78.1"/>
	<path id="path1502" class="st3" d="M47.7,3.1C33.8,38.2,23.5,74.5,12,110.4c-1.1,3.3,4.2,4.8,5.2,1.4c6-18.9,10.9-38.2,17.3-57.1
		c5.7-16.8,13.3-33.3,17.4-50.6C52.5,1.4,48.7,0.5,47.7,3.1"/>
	<rect x="26.6" y="31.9" class="st2" width="65.1" height="78.1"/>
	<path id="path1504" class="st3" d="M48,4.2C52,21.5,59.6,38,65.4,54.8c6.4,18.8,11.3,38.1,17.3,57c1.1,3.3,6.3,1.9,5.2-1.4
		C76.3,74.5,66,38.2,52.2,3.1C51.1,0.5,47.3,1.4,48,4.2"/>
	<rect x="26.6" y="31.9" class="st2" width="65.1" height="78.1"/>
	<path id="path1506" class="st3" d="M11.9,111.8c2.6,11.1,19.4,10.1,27.9,10.3c13.9,0.3,34.3,1.6,46.1-7.2c2.7-2,0.1-6.6-2.7-4.6
		c-9,6.4-21.8,5.8-32.4,6.3c-8,0.4-31.1,2.4-34.3-6.1C15.5,107.7,11.2,108.7,11.9,111.8"/>
</g>
<g>
	<g>
		<defs>
			<rect id="SVGID_3_" x="33.1" y="21.8" width="57.5" height="67.1"/>
		</defs>
		<clipPath id="SVGID_4_">
			<use xlink:href="#SVGID_3_"  style="overflow:visible;"/>
		</clipPath>
		<path class="st4" d="M47.2,22.6c-6-2.6-11.7,2.4-12.3,8.4c-0.5,5.7,3.1,10.4,8.8,11.1c4.9,0.7,10-2.1,11.4-7
			c1.4-5.3-1.4-12.1-7.5-12.2c-1.6-0.1-1.9,2.4-0.4,2.7c8.3,1.9,6,13.7-2.2,13.7c-10.4-0.1-9-17,1.2-14.4
			C47.5,25.2,48.5,23.2,47.2,22.6"/>
	</g>
	<g>
		<defs>
			<rect id="SVGID_5_" x="33.1" y="21.8" width="57.5" height="67.1"/>
		</defs>
		<clipPath id="SVGID_6_">
			<use xlink:href="#SVGID_5_"  style="overflow:visible;"/>
		</clipPath>
		<path class="st5" d="M42.7,53.6c-1.6-4.1-3.3-8.1-5-12.2c-0.4,0.5-0.9,1.2-1.3,1.7c5.5,0.1,11.1-0.3,16.6-0.3
			c-0.4-0.6-0.9-1.2-1.3-1.8c-1.4,4.2-2.7,8.3-4,12.5c-0.5,1.7,2.1,2.4,2.7,0.7c1.3-4.2,2.7-8.3,4-12.5c0.3-0.9-0.4-1.8-1.3-1.8
			c-5.6,0.1-11.2,0.4-16.7,0.3c-0.8,0-1.6,0.9-1.3,1.7c1.8,4.2,3.5,8.3,5.3,12.5C40.9,55.9,43.2,54.9,42.7,53.6"/>
	</g>
	<g>
		<defs>
			<rect id="SVGID_7_" x="33.1" y="21.8" width="57.5" height="67.1"/>
		</defs>
		<clipPath id="SVGID_8_">
			<use xlink:href="#SVGID_7_"  style="overflow:visible;"/>
		</clipPath>
		<path class="st6" d="M47.7,61.1c2.1,5.8,4.3,11.6,6.5,17.4c0.4-0.5,0.9-1.2,1.3-1.7c-7-0.1-14,0.3-21,0.3c0.4,0.6,0.9,1.2,1.3,1.8
			c2.3-5.9,4.6-11.8,6.9-17.7c0.7-1.6-2-2.4-2.7-0.7c-2.3,5.9-4.6,11.7-6.9,17.6c-0.3,0.9,0.5,1.8,1.3,1.8c7-0.1,14-0.4,21-0.3
			c0.8,0,1.6-0.9,1.3-1.7c-2.2-5.8-4.4-11.6-6.7-17.3C49.5,59,47.1,59.6,47.7,61.1"/>
	</g>
	<g>
		<defs>
			<rect id="SVGID_9_" x="33.1" y="21.8" width="57.5" height="67.1"/>
		</defs>
		<clipPath id="SVGID_10_">
			<use xlink:href="#SVGID_9_"  style="overflow:visible;"/>
		</clipPath>
		<path class="st7" d="M52.5,54.6c-0.1,1.9,0.2,3.9-0.3,5.9c0.4-0.3,0.8-0.6,1.2-0.9c-5.5-0.1-10.9-0.1-16.4-0.1
			c0.4,0.4,0.9,0.9,1.3,1.3c0-2.5,0.1-4.9-0.4-7.3c-0.4,0.5-0.9,1.1-1.3,1.7c5.7,0.3,11.4,0.5,17.1,0.8c1.8,0.1,1.8-2.6,0-2.7
			C48,53,42.3,52.8,36.6,52.6c-0.9-0.1-1.5,0.9-1.3,1.6c0.5,2.1,0.4,4.4,0.4,6.6c0,0.7,0.6,1.3,1.3,1.3c5.5,0,10.9,0,16.4-0.1
			c0.5,0,1-0.4,1.2-0.9c0.5-2.1,0.4-4.4,0.2-6.5C54.6,53.2,52.6,53.1,52.5,54.6"/>
	</g>
	<g>
		<defs>
			<rect id="SVGID_11_" x="33.1" y="21.8" width="57.5" height="67.1"/>
		</defs>
		<clipPath id="SVGID_12_">
			<use xlink:href="#SVGID_11_"  style="overflow:visible;"/>
		</clipPath>
		<path class="st8" d="M54.3,79.1c-0.2,2.7,0.3,5.5-0.4,8.2c0.4-0.3,0.8-0.6,1.3-0.9c-6.7-0.1-13.4-0.1-20.1-0.1
			c0.4,0.4,0.9,0.9,1.3,1.3c0-3.3,0.2-6.6-0.5-9.9c-0.4-1.7-3-1-2.6,0.7c0.7,3,0.5,6.1,0.5,9.2c0,0.7,0.6,1.3,1.3,1.3
			c6.7,0,13.4,0,20.1-0.1c0.5,0,1.1-0.4,1.3-0.9c0.7-2.9,0.4-6,0.2-8.8C56.4,77.7,54.4,77.7,54.3,79.1"/>
	</g>
	<g>
		<defs>
			<rect id="SVGID_13_" x="33.1" y="21.8" width="57.5" height="67.1"/>
		</defs>
		<clipPath id="SVGID_14_">
			<use xlink:href="#SVGID_13_"  style="overflow:visible;"/>
		</clipPath>
		<path class="st9" d="M62.5,25.6c4.4,5,3.1,2.7,8.7,4.3c4.3,1.2,8.8,4.7,12.8,6.8c5.5,2.9,3.6,1,3.6,7c0,0.7,0.2,2.9-0.3,3.5
			c1.3-1.6,0-0.8-1.3-0.9c-3.5-0.2-2.9,0.9-4.3-1.7c-0.2-0.4-0.7-0.7-1.2-0.7c-2.6,0-5.2,0-7.8,0c-0.9,0-1.7,1.2-1.2,2
			c3.2,4.8,10.3,12.6,11.6,16.8c1,3.3,0,8.1,0.1,11.5c0,2.8,0,5.5,0,8.3c0,0.5-0.2,5.4,0.9,3.7c0.7-1.2,0.5-0.3-1.2-0.7
			c-1.9-0.5-4.5-0.1-6.4-0.1c-1.9,0-11.2,1.6-12.6,0.3c-0.4-0.4,0.3-10.6,0.2-12.1c-0.3-5.3-0.5-10.6-0.6-15.9
			c-0.1-11.1,0.4-22.2,0.6-33.2c0-1.8-2.7-1.8-2.7,0c-0.3,20.6-2.7,42.5,0.8,62.9c0.1,0.5,0.8,1,1.3,1c2.9-0.1,5.8-0.2,8.7-0.2
			c2.8-0.1,9.1-1.3,11.6,0.1c0.7,0.4,1.8,0.1,2-0.8c0.7-3.3,0.1-7.2,0.1-10.6c0-4.1,1.1-10.1-0.1-14.2c-1.8-6.3-8.3-12.7-12-18.2
			l-1.2,2c3.9,0,6.5-1,8,1.6c0.2,0.4,0.7,0.7,1.2,0.7c2.2,0,4.5,0,6.7,0c0.8,0,1.3-0.6,1.3-1.3c0.2-3.2,0.5-6.4,0.7-9.5
			c0.1-0.4-0.3-0.9-0.7-1.1c-4.7-2.5-9.4-4.9-14.1-7.4c-1.3-0.7-2.8-1.8-4.2-2.2c-3.7-1-4.4,0.1-7.5-3.5
			C63.2,22.8,61.5,24.5,62.5,25.6"/>
	</g>
	<g>
		<defs>
			<rect id="SVGID_15_" x="33.1" y="21.8" width="57.5" height="67.1"/>
		</defs>
		<clipPath id="SVGID_16_">
			<use xlink:href="#SVGID_15_"  style="overflow:visible;"/>
		</clipPath>
		<path class="st10" d="M62.3,78.5c0.7,2.1,3.3,2,5.1,2.1C72.5,81,77.7,81,82.9,81c1.8,0,1.8-2.7,0-2.7c-3.9-0.1-7.8-0.2-11.6-0.2
			c-1.5,0-5.9,0.5-7.2-0.6C63.2,76.9,61.9,77.5,62.3,78.5"/>
	</g>
	<g>
		<defs>
			<rect id="SVGID_17_" x="33.1" y="21.8" width="57.5" height="67.1"/>
		</defs>
		<clipPath id="SVGID_18_">
			<use xlink:href="#SVGID_17_"  style="overflow:visible;"/>
		</clipPath>
		<path class="st11" d="M70.3,56.6c1.2,0.9,2,2.7,2.9,3.8c0.8,1,1.6,1.9,2.3,2.9c1.7,2.4,1.6,6,1.5,8.9c-0.1,1.9,3,1.9,3,0
			c0.1-3.2,0.2-7.3-1.7-10c-1.2-1.6-2.6-3.1-3.8-4.8c-0.9-1.2-1.5-2.3-2.8-3.1C70.2,53.4,69,55.6,70.3,56.6"/>
	</g>
</g>
</svg>
