<?xml version="1.0" encoding="utf-8"?>
<!-- Generator: Adobe Illustrator 24.2.0, SVG Export Plug-In . SVG Version: 6.00 Build 0)  -->
<svg version="1.1"
	 id="Calque_1" xmlns:cc="http://creativecommons.org/ns#" xmlns:dc="http://purl.org/dc/elements/1.1/" xmlns:rdf="http://www.w3.org/1999/02/22-rdf-syntax-ns#" xmlns:svg="http://www.w3.org/2000/svg"
	 xmlns="http://www.w3.org/2000/svg" xmlns:xlink="http://www.w3.org/1999/xlink" x="0px" y="0px" viewBox="0 0 118.3 141.9"
	 style="enable-background:new 0 0 118.3 141.9;" xml:space="preserve">
<style type="text/css">
	.st0{clip-path:url(#SVGID_2_);}
	.st1{fill:none;}
	.st2{fill:#A7D900;}
</style>
<g id="g12">
	<g>
		<defs>
			<rect id="SVGID_1_" width="118.3" height="141.9"/>
		</defs>
		<clipPath id="SVGID_2_">
			<use xlink:href="#SVGID_1_"  style="overflow:visible;"/>
		</clipPath>
		<path id="path10" class="st0" d="M105.4,8c-0.8-5.1-5.6-8.7-10.8-7.9L5.5,12.9c-3.5,0.5-5.9,3.8-5.4,7.3l8.3,56.4
			c0.7,4.4,2.3,8.6,4.9,12.3c8,11.4,25.7,36.9,30,42.9c1.1,1.7,4.2,6.3,6.3,9.4c0.8,1.2,2.6,0.9,3-0.4c1.4-4,3.8-10.8,4.9-13.6
			c2.6-6.4,6.5-18.7,7.7-22.5c0.2-0.7,0.8-1.2,1.6-1.3l5.4-0.9l24.4-4.8l16.4-3.3c3.5-0.6,5.9-3.9,5.4-7.4C115,66.7,105.4,8,105.4,8
			"/>
	</g>
</g>
<g id="g911" transform="matrix(0.48284661,0,0,0.48284661,31.672974,26.861546)">
	<rect x="23.9" y="32.5" class="st1" width="57.1" height="68.5"/>
	<path id="path857" class="st2" d="M-4.6,2.5C16.7,2,37.3,2.7,58.7,3.3c6.4,0.2,62.6-2.6,62.6-4.7c0.1,3.1,4.9,3.1,4.8,0
		c0-0.1,0-0.3,0-0.4c0-1.3-1.1-2.4-2.4-2.4c-21.8-0.2-43.2,3.4-65,2.8C37.2-2,16.9-3.4-4.6-1.8C-7.4-1.6-7.4,2.5-4.6,2.5"/>
	<rect x="23.9" y="32.5" class="st1" width="57.1" height="68.5"/>
	<path id="path859" class="st2" d="M-4.5,15.5c20.1-1.5,40.3,1.1,60.4,1.4c21.6,0.4,46.3-4.5,67.5,0c2.9,0.6,4.2-3.9,1.2-4.5
		c-20.9-4.2-44.6,0.2-65.8,0C37.9,12.2,15.7,8.1-5,11.6C-7.2,11.9-6.7,15.7-4.5,15.5"/>
	<rect x="23.9" y="32.5" class="st1" width="57.1" height="68.5"/>
	<path id="path861" class="st2" d="M1.2-0.7c-2,3.5,3.8,6.8,6.1,8.3s4.7,2.9,7.1,4.3c0.9,0.5,1.9,1.1,2.8,1.6
		c0.3,0.2,0.9,0.7,1.3,0.8c2.2,0.7-3,1.1,0.4-2.5c-1.3,1.4-0.4,3.6,1.5,3.7c0.6,0,1.1-0.1,1.6-0.4c1.3-0.7,1.7-2.8,0.5-3.8
		c-2.7-2.2-5.9-3.7-8.9-5.5C11.8,4.7,10,3.6,8.2,2.4C7.4,1.9,6.8,1.3,6,0.8C5.5,0.4,5-0.6,5.1,0.3C4.9-1.6,2.3-2.7,1.2-0.7"/>
	<rect x="23.9" y="32.5" class="st1" width="57.1" height="68.5"/>
	<path id="path863" class="st2" d="M18.4,13.4c1.8-2.5,4.9-3.7,7.3-5.5c1.6-1.3,3.2-2.7,4.9-3.9c1-0.7,2.3-1.2,2.7-2.7
		c0.8-3.6-5-3.9-4.7-0.6c0.1-0.3,0.1-0.6,0.2-0.9c-1.3,1.7,0.8,3.4,2.4,3.2c0.1,0,0.1,0,0.2,0c-0.5-0.1-1.1-0.2-1.7-0.3
		c0,0,0,0,0.1,0c-0.3-1.1-0.6-2.2-0.8-3.2c-0.4,0.6-2.7,1.9-3.6,2.6c-1.4,1.1-2.7,2.4-4.2,3.4c-2.3,1.6-5.2,3.1-6.4,5.8
		C13.7,13.8,16.8,15.7,18.4,13.4"/>
	<rect x="23.9" y="32.5" class="st1" width="57.1" height="68.5"/>
	<path id="path865" class="st2" d="M26.2,0.6c0.9,3,3.8,6,6,8.2c2.4,2.3,5,4.6,7.7,6.7c2.2,1.7,5.1-2.1,3-3.9
		c-2.4-2-4.9-4.1-7.2-6.3c-2.2-2.1-4.1-5.4-6.8-6.8C27.6-2.2,25.7-1,26.2,0.6"/>
	<rect x="23.9" y="32.5" class="st1" width="57.1" height="68.5"/>
	<path id="path867" class="st2" d="M43.3,14c1.6-2.2,4.2-3.4,6.3-5c2.5-1.9,4.7-4.1,7.3-5.7c2.7-1.6,0.2-5.8-2.4-4.2
		C51.3,1,48.8,3.8,45.8,6c-2.5,1.8-4.9,3.5-6,6.5C38.9,14.7,42.1,15.7,43.3,14"/>
	<rect x="23.9" y="32.5" class="st1" width="57.1" height="68.5"/>
	<path id="path869" class="st2" d="M52.1,3.1c1.8,2.6,3.5,5.1,5.9,7.2c1.3,1.2,4,2.7,4.7,4.4c1.2,2.9,5.5,1.9,4.8-1.3
		c-0.6-2.4-3.2-4.3-5-5.8c-2.6-2.2-4.6-4.8-7-7.1C53.8-1.1,50.7,1.1,52.1,3.1"/>
	<rect x="23.9" y="32.5" class="st1" width="57.1" height="68.5"/>
	<path id="path871" class="st2" d="M66.4,15.4c4.3-4.8,10-8.3,14.9-12.6c2.3-2.1-1.1-5.4-3.4-3.4c-2.7,2.3-5.5,4.5-8.3,6.8
		c-2.4,2-5,3.9-6.6,6.6C61.8,14.9,64.7,17.3,66.4,15.4"/>
	<rect x="23.9" y="32.5" class="st1" width="57.1" height="68.5"/>
	<path id="path873" class="st2" d="M77.4,4.6c2.1,1.2,3.5,3.1,5.3,4.7c1.2,1,2.7,1.7,3.9,2.7c1.2,1.1,1.9,2,3.4,2.6
		c2.3,0.9,4.2-2.6,2.4-4.1c-1.2-1-2.2-2.2-3.5-3.1c-1.4-1-2.8-1.7-4.1-2.9c-1.8-1.8-4.1-4.2-6.9-3.6C76.2,1.2,75.9,3.8,77.4,4.6"/>
	<rect x="23.9" y="32.5" class="st1" width="57.1" height="68.5"/>
	<path id="path875" class="st2" d="M91.9,13.2c1.1-2.1,3.3-3.3,5-4.9c2.8-2.5,5.5-5.2,8.1-7.8c2.3-2.3-1.3-5.8-3.5-3.5
		c-2.9,2.9-5.8,5.9-8.8,8.6c-1.7,1.5-5,3.8-4.7,6.5C88.1,14.1,90.8,15.3,91.9,13.2"/>
	<rect x="23.9" y="32.5" class="st1" width="57.1" height="68.5"/>
	<path id="path877" class="st2" d="M99.7,1.8c1.3,1.7,3.5,3.2,5.1,4.6c2.4,2,4.7,4.2,6.9,6.3c2.4,2.3,6-1.3,3.6-3.6
		c-2.4-2.4-5-4.6-7.7-6.8c-1.7-1.4-4.1-4.1-6.5-3.9C99.3-1.6,98.6,0.4,99.7,1.8"/>
	<rect x="23.9" y="32.5" class="st1" width="57.1" height="68.5"/>
	<path id="path879" class="st2" d="M54.5,39.3c-0.3-4.3,0.8-12.8,6.8-12.6c5.8,0.2,4.5,8.9,5.2,12.6c0.5,2.9,4.7,2,4.8-0.7
		c0.3-7-2-18.3-11.5-16.8c-4.2,0.7-7.2,4.1-8.8,7.9c-1.3,3-2.6,8.4-0.1,11C52.1,42.1,54.6,41.1,54.5,39.3"/>
	<rect x="23.9" y="32.5" class="st1" width="57.1" height="68.5"/>
	<path id="path881" class="st2" d="M52.4,41.5c5.5-0.3,10.9,0.3,16.4-0.3c3.2-0.3,3.4-5.3,0-5.1c-2.8,0.2-5.6,0.2-8.3,0.4
		c-2.9,0.3-5.9-0.2-8.7,0.6C49.4,37.8,49.8,41.7,52.4,41.5"/>
	<rect x="23.9" y="32.5" class="st1" width="57.1" height="68.5"/>
	<path id="path883" class="st2" d="M12.3,39.6c-3.2-2.8-8.5-9.7-4.1-13.7c4.2-3.9,9.4,3.1,12.5,5.3c2.4,1.7,4.8-1.9,3-3.9
		c-4.8-5.2-14.3-11.7-20-3.8c-2.6,3.6-2.2,8.4-0.5,12.3c1.3,2.9,4,7.3,7.5,7.5C12.5,43.3,13.6,40.8,12.3,39.6"/>
	<rect x="23.9" y="32.5" class="st1" width="57.1" height="68.5"/>
	<path id="path885" class="st2" d="M12.3,42.7c1.8-2.1,4-3.7,5.8-5.8c1.8-2.1,3.9-3.9,5.6-6c2-2.5-1.4-6.1-3.6-3.6
		c-1.9,2.1-3.9,4.1-5.7,6.3c-1.8,2.2-4.3,3.9-5.6,6.4C7.7,42.1,10.5,44.7,12.3,42.7"/>
	<rect x="23.9" y="32.5" class="st1" width="57.1" height="68.5"/>
	<path id="path887" class="st2" d="M107,43.3c3.4-0.1,6.1-4.4,7.4-7.2c1.8-3.9,2.3-8.9-0.3-12.5c-5.7-7.9-15.2-1.4-20,3.8
		c-1.8,2,0.6,5.6,3,3.9c3.1-2.2,8.3-9.2,12.5-5.3c4.4,4-0.9,10.9-4.1,13.7C104.2,40.8,105.2,43.3,107,43.3"/>
	<rect x="23.9" y="32.5" class="st1" width="57.1" height="68.5"/>
	<path id="path889" class="st2" d="M109,40c-1.3-2.5-3.9-4.2-5.6-6.4c-1.8-2.2-3.8-4.2-5.7-6.3c-2.3-2.5-5.6,1.1-3.6,3.6
		c1.7,2.1,3.8,4,5.6,6c1.8,2.1,4,3.7,5.8,5.8C107.2,44.7,110.1,42.2,109,40"/>
	<rect x="23.9" y="32.5" class="st1" width="57.1" height="68.5"/>
	<path id="path891" class="st2" d="M62.5,23c0.3-1.5,0.8-2.8,1-4.3c0.2-1.8-0.5-3.9-2.7-3.8c-1.4,0-2.7,1.5-2.2,2.9
		c0,0.1,0.1,0.2,0.1,0.3c0,0.2,0-0.3,0,0.1c0,0.5-0.1,1.1-0.1,1.6c-0.1,1.1-0.2,2.2,0.2,3.2C59.3,24.7,62.1,25.1,62.5,23"/>
	<rect x="23.9" y="32.5" class="st1" width="57.1" height="68.5"/>
	<path id="path893" class="st2" d="M6,22.5c-0.1,0.4,0.2-0.5,0.2-0.6c0.1-0.3,0.2-0.6,0.2-0.9c0.2-0.9,0.4-1.9,0.4-2.9
		c0.2-1.9-0.4-4-2.7-4C2.7,14,1.3,15.6,1.9,17c0,0.1,0.1,0.2,0.1,0.4c-0.1-0.6,0,0.2,0,0.3c0,0.6-0.1,1.2-0.1,1.8
		c-0.1,1.2-0.1,2.4,0.2,3.6C2.8,25.3,5.7,24.6,6,22.5"/>
	<rect x="23.9" y="32.5" class="st1" width="57.1" height="68.5"/>
	<path id="path895" class="st2" d="M114.3,22.5c-0.1,0.4,0.2-0.5,0.2-0.6c0.1-0.3,0.2-0.6,0.2-0.9c0.2-0.9,0.4-1.9,0.4-2.9
		c0.2-1.9-0.4-4-2.7-4c-1.4-0.1-2.8,1.5-2.2,2.9c0,0.1,0.1,0.2,0.1,0.4c-0.1-0.6,0,0.2,0,0.3c0,0.6-0.1,1.2-0.1,1.8
		c-0.1,1.2-0.1,2.4,0.2,3.6C111.2,25.3,114.1,24.6,114.3,22.5"/>
	<rect x="23.9" y="32.5" class="st1" width="57.1" height="68.5"/>
	<path id="path897" class="st2" d="M-4.8,68.3c18.1,2.5,38.6-0.6,56.9-1.1c24.2-0.6,48.1,1.6,72.3,1.9c2.9,0,2.9-4.6,0-4.6
		c-23.3,0.1-46.4-2.6-69.7-1.8c-19.3,0.7-39.7,2.8-59,1.7C-6.5,64.3-7,68-4.8,68.3"/>
	<rect x="23.9" y="32.5" class="st1" width="57.1" height="68.5"/>
	<path id="path899" class="st2" d="M36.4,84.5c-1.6-6-11.4-2.9-14.7-0.6C17,87.2,15.5,94.2,20,98.3c3.7,3.3,9.8,3.6,14,1.1
		c2.4-1.5,4.1-4.1,4.4-7c0.3-4-1.7-6.3-4.8-8.3c-2.2-1.4-4.9,2-2.9,3.7c1.9,1.6,3.9,3,2.4,5.8c-0.5,1-1.4,1.7-2.5,2.1
		c-2.2,0.9-5.1,0.7-7-0.7c-2.8-2.1-1.4-5.8,1.2-7.5c1.7-1.1,6.6-3.1,8.3-1.1C34.4,88,36.9,86.3,36.4,84.5"/>
	<rect x="23.9" y="32.5" class="st1" width="57.1" height="68.5"/>
	<path id="path901" class="st2" d="M15,116.5c1-6.5,5-13.3,12.2-13.5c8.2-0.2,11.4,6.4,13.1,13.4c0.7,3.1,5.5,1.8,4.8-1.3
		c-2.3-9.4-7.9-17.5-18.7-16.9c-8.9,0.5-15.6,9-15.6,17.7C10.8,118.3,14.6,119,15,116.5"/>
	<rect x="23.9" y="32.5" class="st1" width="57.1" height="68.5"/>
	<path id="path903" class="st2" d="M66.8,84.5c-1.6-6-11.4-2.9-14.7-0.6c-4.7,3.3-6.2,10.3-1.7,14.4c3.7,3.3,9.8,3.6,14,1.1
		c2.4-1.5,4.1-4.1,4.4-7c0.3-4-1.7-6.3-4.8-8.3c-2.2-1.4-4.9,2-2.9,3.7c1.9,1.6,3.9,3,2.4,5.8c-0.5,1-1.4,1.7-2.5,2.1
		c-2.2,0.9-5.1,0.7-7-0.7c-2.8-2.1-1.4-5.8,1.2-7.5c1.7-1.1,6.6-3.1,8.3-1.1C64.8,88,67.3,86.3,66.8,84.5"/>
	<rect x="23.9" y="32.5" class="st1" width="57.1" height="68.5"/>
	<path id="path905" class="st2" d="M45.4,116.5c1-6.5,5-13.3,12.2-13.5c8.2-0.2,11.4,6.4,13.1,13.4c0.7,3.1,5.5,1.8,4.8-1.3
		c-2.3-9.4-7.9-17.5-18.7-16.9c-8.9,0.5-15.6,9-15.6,17.7C41.2,118.3,45,119,45.4,116.5"/>
	<rect x="23.9" y="32.5" class="st1" width="57.1" height="68.5"/>
	<path id="path907" class="st2" d="M96.9,84.5c-1.6-6-11.4-2.9-14.7-0.6c-4.7,3.3-6.2,10.3-1.7,14.4c3.7,3.3,9.8,3.6,14,1.1
		c2.4-1.5,4.1-4.1,4.4-7c0.3-4-1.7-6.3-4.8-8.3c-2.2-1.4-4.9,2-2.9,3.7c1.9,1.6,3.9,3,2.4,5.8c-0.5,1-1.4,1.7-2.5,2.1
		c-2.2,0.9-5.1,0.7-7-0.7c-2.8-2.1-1.4-5.8,1.2-7.5c1.7-1.1,6.6-3.1,8.3-1.1C94.9,88,97.4,86.3,96.9,84.5"/>
	<rect x="23.9" y="32.5" class="st1" width="57.1" height="68.5"/>
	<path id="path909" class="st2" d="M75.5,116.5c1-6.5,5-13.3,12.2-13.5c8.2-0.2,11.4,6.4,13.1,13.4c0.7,3.1,5.5,1.8,4.8-1.3
		c-2.3-9.4-7.9-17.5-18.7-16.9c-8.9,0.5-15.6,9-15.6,17.7C71.3,118.3,75.2,119,75.5,116.5"/>
</g>
</svg>
