<?xml version="1.0" encoding="UTF-8" standalone="no"?>
<svg
   xmlns:dc="http://purl.org/dc/elements/1.1/"
   xmlns:cc="http://creativecommons.org/ns#"
   xmlns:rdf="http://www.w3.org/1999/02/22-rdf-syntax-ns#"
   xmlns:svg="http://www.w3.org/2000/svg"
   xmlns="http://www.w3.org/2000/svg"
   xmlns:xlink="http://www.w3.org/1999/xlink"
   xmlns:sodipodi="http://sodipodi.sourceforge.net/DTD/sodipodi-0.dtd"
   xmlns:inkscape="http://www.inkscape.org/namespaces/inkscape"
   xml:space="preserve"
   style="enable-background:new 0 0 118.3 141.9;"
   viewBox="0 0 118.3 141.9"
   y="0px"
   x="0px"
   id="Calque_1"
   version="1.1"
   sodipodi:docname="icon-concerts.svg"
   inkscape:version="0.92.4 (5da689c313, 2019-01-14)"><sodipodi:namedview
   pagecolor="#ffffff"
   bordercolor="#666666"
   borderopacity="1"
   objecttolerance="10"
   gridtolerance="10"
   guidetolerance="10"
   inkscape:pageopacity="0"
   inkscape:pageshadow="2"
   inkscape:window-width="1190"
   inkscape:window-height="792"
   id="namedview839"
   showgrid="false"
   inkscape:zoom="3.2135308"
   inkscape:cx="38.184655"
   inkscape:cy="100.97645"
   inkscape:window-x="171"
   inkscape:window-y="58"
   inkscape:window-maximized="0"
   inkscape:current-layer="Calque_1" /><metadata
   id="metadata39"><rdf:RDF><cc:Work
       rdf:about=""><dc:format>image/svg+xml</dc:format><dc:type
         rdf:resource="http://purl.org/dc/dcmitype/StillImage" /><dc:title /></cc:Work></rdf:RDF></metadata><defs
   id="defs37"><rect
     id="SVGID_1_-2"
     width="164.8"
     height="122.4" /></defs>
<style
   id="style2"
   type="text/css">
	.st0{clip-path:url(#SVGID_2_);fill:#181716;}
	.st1{clip-path:url(#SVGID_4_);fill:#91D900;}
</style>
<g
   id="g12"
   style="fill:#000000;fill-opacity:1">
	<defs
   id="defs5">
		<rect
   height="141.9"
   width="118.3"
   id="SVGID_1_" />
	</defs>
	<clipPath
   id="SVGID_2_">
		<use
   id="use7"
   style="overflow:visible;"
   xlink:href="#SVGID_1_" />
	</clipPath>
	<path
   id="path10"
   clip-path="url(#SVGID_2_)"
   d="M105.4,8c-0.8-5.1-5.6-8.7-10.8-7.9L5.5,12.9c-3.5,0.5-5.9,3.8-5.4,7.3l8.3,56.4c0.7,4.4,2.3,8.6,4.9,12.3   c8,11.4,25.7,36.9,30,42.9c1.1,1.7,4.2,6.3,6.3,9.4c0.8,1.2,2.6,0.9,3-0.4c1.4-4,3.8-10.8,4.9-13.6c2.6-6.4,6.5-18.7,7.7-22.5   c0.2-0.7,0.8-1.2,1.6-1.3l5.4-0.9l24.4-4.8l16.4-3.3c3.5-0.6,5.9-3.9,5.4-7.4C115,66.7,105.4,8,105.4,8"
   class="st0"
   style="fill:#000000;fill-opacity:1" />
</g>

<style
   type="text/css"
   id="style846">
	.st0{clip-path:url(#SVGID_2_);fill:#A7D900;}
</style><g
   transform="matrix(0.48284663,0,0,0.48284663,31.672974,27.742866)"
   id="g868">
	<defs
   id="defs849">
		<rect
   y="0"
   x="0"
   id="rect879"
   width="164.8"
   height="122.4" />
	</defs>
	<clipPath
   id="SVGID_2_-0">
		<use
   height="100%"
   width="100%"
   y="0"
   x="0"
   xlink:href="#SVGID_1_-2"
   style="overflow:visible"
   id="use851" />
	</clipPath>
	<path
   style="fill:#a7d900"
   class="st0"
   d="M 160.9,45.6 C 158.3,28.5 134,20.3 119.4,26.6 100.2,34.8 96,54.7 104,72.5 c 7.4,16.3 20.7,25.2 38.1,18.4 18.2,-7 27.6,-26.9 20,-45.5 -1.5,-3.7 -7.9,-1.5 -6.7,2.3 4.5,13.5 0.6,28.7 -12.7,35.2 -12.9,6.3 -23.3,2.7 -30.5,-9.7 -6.6,-11.3 -8.4,-25.1 1.9,-34.9 11.6,-11.1 35.4,-8.3 40.9,8.5 1.3,3.5 6.5,2.6 5.9,-1.2"
   clip-path="url(#SVGID_2_)"
   id="path854" />
	<path
   style="fill:#a7d900"
   class="st0"
   d="M 22.9,105.1 C 50.2,93 82.4,78.6 105.1,58.9 c 3.4,-3 -1.3,-8.2 -4.8,-5.2 -23,19.6 -54.1,31.1 -80,46.4 -3.1,1.8 -0.8,6.4 2.6,5"
   clip-path="url(#SVGID_2_)"
   id="path856" />
	<path
   style="fill:#a7d900"
   class="st0"
   d="m 31.7,121.8 c 12.7,-4.2 25.4,-6.8 38,-11.5 16.8,-6.2 33.1,-13.9 50.1,-19.6 4.3,-1.4 2.9,-8.5 -1.4,-7 -14.7,4.9 -28.7,11.4 -43.1,17.1 -14.9,5.8 -30.8,9.1 -45.4,15.5 -3.1,1.3 -1.4,6.6 1.8,5.5"
   clip-path="url(#SVGID_2_)"
   id="path858" />
	<path
   style="fill:#a7d900"
   class="st0"
   d="m 21.1,99.9 c -9.3,7.2 5,29.3 14.2,20.4 2.2,-2.1 0.4,-6.7 -2.9,-5.7 -2.8,0.8 -4.1,-0.5 -5.6,-3 -1.3,-2.2 -2.3,-5.2 -0.8,-7.6 2.1,-3.1 -2,-6.3 -4.9,-4.1"
   clip-path="url(#SVGID_2_)"
   id="path860" />
	<path
   style="fill:#a7d900"
   class="st0"
   d="m 86.9,63.6 c -5.1,4.2 -3.1,12.5 -0.7,17.6 3,6.3 8.1,12.3 14.5,15 3.7,1.6 6.7,-4.7 3,-6.4 C 95.6,86 88.6,75.6 91.6,66.7 92.5,63.8 89.1,61.9 86.9,63.6"
   clip-path="url(#SVGID_2_)"
   id="path862" />
	<path
   style="fill:#a7d900"
   class="st0"
   d="m 120.1,31.8 c -3.2,19.6 8,45.6 25.5,55.1 4,2.2 8,-3.8 3.9,-6.1 -16.1,-8.7 -23.9,-31 -22.9,-48.7 0.3,-4.2 -5.8,-4.3 -6.5,-0.3"
   clip-path="url(#SVGID_2_)"
   id="path864" />
	<path
   style="fill:#a7d900"
   class="st0"
   d="M 36,6.1 C 55.4,21.6 53.9,47.2 35.7,62.5 25.8,70.8 14,77.4 6.2,88 c -12.9,17.7 -5.1,35.5 17.4,29.4 4.6,-1.2 3.1,-8.5 -1.5,-7.2 C 16.8,111.6 8.7,105.6 7.6,100 6.9,96.3 14.8,88.8 17.4,86.2 21.7,81.9 26.7,78.4 31.5,74.7 40.2,68 49.8,61.4 54.3,51 62,33.1 54.8,11.9 39.4,0.8 36.1,-1.8 32.8,3.5 36,6.1"
   clip-path="url(#SVGID_2_)"
   id="path866" />
</g></svg>