<?xml version="1.0" encoding="utf-8"?>
<!-- Generator: Adobe Illustrator 24.2.0, SVG Export Plug-In . SVG Version: 6.00 Build 0)  -->
<svg version="1.1"
	 id="Calque_1" xmlns:cc="http://creativecommons.org/ns#" xmlns:dc="http://purl.org/dc/elements/1.1/" xmlns:rdf="http://www.w3.org/1999/02/22-rdf-syntax-ns#" xmlns:svg="http://www.w3.org/2000/svg"
	 xmlns="http://www.w3.org/2000/svg" xmlns:xlink="http://www.w3.org/1999/xlink" x="0px" y="0px" viewBox="0 0 118.3 141.9"
	 style="enable-background:new 0 0 118.3 141.9;" xml:space="preserve">
<style type="text/css">
	.st0{clip-path:url(#SVGID_2_);}
	.st1{fill:none;}
	.st2{fill:#A7D900;}
</style>
<g id="g12">
	<g>
		<defs>
			<rect id="SVGID_1_" width="118.3" height="141.9"/>
		</defs>
		<clipPath id="SVGID_2_">
			<use xlink:href="#SVGID_1_"  style="overflow:visible;"/>
		</clipPath>
		<path id="path10" class="st0" d="M105.4,8c-0.8-5.1-5.6-8.7-10.8-7.9L5.5,12.9c-3.5,0.5-5.9,3.8-5.4,7.3l8.3,56.4
			c0.7,4.4,2.3,8.6,4.9,12.3c8,11.4,25.7,36.9,30,42.9c1.1,1.7,4.2,6.3,6.3,9.4c0.8,1.2,2.6,0.9,3-0.4c1.4-4,3.8-10.8,4.9-13.6
			c2.6-6.4,6.5-18.7,7.7-22.5c0.2-0.7,0.8-1.2,1.6-1.3l5.4-0.9l24.4-4.8l16.4-3.3c3.5-0.6,5.9-3.9,5.4-7.4C115,66.7,105.4,8,105.4,8
			"/>
	</g>
</g>
<g id="g1398" transform="matrix(0.48284661,0,0,0.48284661,30.8335,26.807081)">
	<rect x="26.4" y="36.8" class="st1" width="57.1" height="68.5"/>
	<path id="path1382" class="st2" d="M16.4,90.4c-3,2-2.7,7.1-2.8,10.3c-0.2,6.4-1.4,12.9-1.3,19.3c0.1,3.6,5.6,3.6,5.5,0
		c-0.1-5.6,1.2-11.1,1.1-16.7c-0.1-3.8,0.2-7.3,0.6-11C19.8,90.7,17.7,89.6,16.4,90.4"/>
	<rect x="26.4" y="36.8" class="st1" width="57.1" height="68.5"/>
	<path id="path1384" class="st2" d="M73.3,83.5c3.5,1.5,6.4-4.1,7.6-6.5c2.1-4.3,2.4-9.7,0.3-14c-1.6-3.4-6.5-0.4-5,2.9
		c1.1,2.4,0.8,5.8-0.1,8.2c-0.4,0.9-0.9,1.8-1.3,2.7c-0.3,0.5-0.6,0.9-0.8,1.4c-0.3,0.7-1.1,0.6-0.1,0.6
		C71,78.7,70.9,82.6,73.3,83.5"/>
	<rect x="26.4" y="36.8" class="st1" width="57.1" height="68.5"/>
	<path id="path1386" class="st2" d="M88.8,95.7c6.4-6,11.2-11.9,13.1-20.7c1.2-5.6,2.3-13-1.9-17.7c-2.2-2.5-5.4,0.7-4.3,3.3
		c2.1,4.9,1.4,10.7-0.1,15.7c-2.1,7.1-6.9,10.6-10.7,16.4C83.3,95.1,86.8,97.5,88.8,95.7"/>
	<rect x="26.4" y="36.8" class="st1" width="57.1" height="68.5"/>
	<path id="path1388" class="st2" d="M102.6,109.1c7.7-6.2,13.9-11.7,17.4-21.5c3.9-11.1,2.8-23.7-0.1-34.9c-0.9-3.7-6.6-2.1-5.7,1.6
		c2.6,10.6,3.8,22.6-0.3,32.9c-3.3,8.4-8.9,12.4-15,18.3C96.5,107.8,100.1,111.2,102.6,109.1"/>
	<rect x="26.4" y="36.8" class="st1" width="57.1" height="68.5"/>
	<path id="path1390" class="st2" d="M55.3,1.4C52.6,8.3,53.6,17,58,23c2.3,3.1,6.4,5.4,8.3,8.6c3.7,6.1-4.5,5.7-7.8,7.9
		c-3,2.1-0.2,7.1,2.9,5c5-3.4,16.7-3.2,12.2-12.9c-2-4.2-6.7-6.8-9.7-10.2c-5-5.7-5.3-12.3-4.3-19.4C59.9-0.6,56.1-0.7,55.3,1.4"/>
	<rect x="26.4" y="36.8" class="st1" width="57.1" height="68.5"/>
	<path id="path1392" class="st2" d="M58.5,40.6c-1.7,1.5-1.4,4.2-1.2,6.3c0.2,3,0,6.1,0,9.1c0,3.6,5.7,3.6,5.7,0
		c0-4.7,0.3-9.8-0.6-14.4C62,39.8,59.7,39.6,58.5,40.6"/>
	<rect x="26.4" y="36.8" class="st1" width="57.1" height="68.5"/>
	<path id="path1394" class="st2" d="M61.2,54c-3.5-0.8-7.1-0.3-10.6-0.4c-3.5-0.1-7-0.8-10.5-0.6c-1.2,0.1-2.5,0.8-2.8,2.1
		c-1.1,4.8,0.3,10,3.2,13.9c1.5,2,3.6,3.6,5.9,4.7c2.2,1.1,4.8,0.9,7,1.9c3.3,1.5,6.2-3.4,2.9-5c-3-1.5-6.4-1.2-9.2-3.3
		c-3.2-2.3-5.1-7-4.2-10.8c-0.9,0.7-1.8,1.4-2.8,2.1c7-0.3,14.1,1.6,21.1-0.3C63.3,57.9,63.4,54.5,61.2,54"/>
	<rect x="26.4" y="36.8" class="st1" width="57.1" height="68.5"/>
	<path id="path1396" class="st2" d="M-3.8,81.7c4.1,5.7,11,7.6,17.2,10.3c7.3,3.1,14.4,6.4,22.4,6.5c5.5,0.1,12-0.8,16.2-4.7
		c7-6.4-0.1-12.1,3.8-19.3c1.8-3.3-3.3-6.3-5.1-3c-1.9,3.5-1.6,5.8-2,9.5c-0.4,3.7,1,7.3-3.5,10.1c-2.7,1.7-6.4,1.7-9.5,1.6
		c-6.9-0.2-12.9-3-19.4-5.7c-5.4-2.3-11.9-4-16-8.5C-1.6,76.4-5.5,79.3-3.8,81.7"/>
</g>
</svg>
