<?xml version="1.0" encoding="UTF-8" standalone="no"?>
<svg
   xmlns:dc="http://purl.org/dc/elements/1.1/"
   xmlns:cc="http://creativecommons.org/ns#"
   xmlns:rdf="http://www.w3.org/1999/02/22-rdf-syntax-ns#"
   xmlns:svg="http://www.w3.org/2000/svg"
   xmlns="http://www.w3.org/2000/svg"
   xmlns:xlink="http://www.w3.org/1999/xlink"
   xmlns:sodipodi="http://sodipodi.sourceforge.net/DTD/sodipodi-0.dtd"
   xmlns:inkscape="http://www.inkscape.org/namespaces/inkscape"
   xml:space="preserve"
   style="enable-background:new 0 0 118.3 141.9;"
   viewBox="0 0 118.3 141.9"
   y="0px"
   x="0px"
   id="Calque_1"
   version="1.1"
   sodipodi:docname="icon-marches-et-brocantes.svg"
   inkscape:version="0.92.4 (5da689c313, 2019-01-14)"><sodipodi:namedview
   pagecolor="#ffffff"
   bordercolor="#666666"
   borderopacity="1"
   objecttolerance="10"
   gridtolerance="10"
   guidetolerance="10"
   inkscape:pageopacity="0"
   inkscape:pageshadow="2"
   inkscape:window-width="1562"
   inkscape:window-height="792"
   id="namedview839"
   showgrid="false"
   inkscape:zoom="2.2723094"
   inkscape:cx="53.561715"
   inkscape:cy="124.78215"
   inkscape:window-x="69"
   inkscape:window-y="0"
   inkscape:window-maximized="0"
   inkscape:current-layer="Calque_1"
   showguides="true"
   inkscape:guide-bbox="true"
   inkscape:snap-bbox="true"
   inkscape:bbox-nodes="true"
   inkscape:snap-bbox-edge-midpoints="true"
   inkscape:snap-bbox-midpoints="true"
   inkscape:bbox-paths="true"
   inkscape:snap-nodes="false"
   inkscape:snap-others="false"><sodipodi:guide
     position="31.672974,85.494413"
     orientation="1,0"
     id="guide955"
     inkscape:locked="false" /><sodipodi:guide
     position="88.79373,93.355263"
     orientation="1,0"
     id="guide959"
     inkscape:locked="false" /><sodipodi:guide
     position="59.393878,85.494416"
     orientation="0,1"
     id="guide961"
     inkscape:locked="false" /></sodipodi:namedview><metadata
   id="metadata39"><rdf:RDF><cc:Work
       rdf:about=""><dc:format>image/svg+xml</dc:format><dc:type
         rdf:resource="http://purl.org/dc/dcmitype/StillImage" /><dc:title></dc:title></cc:Work></rdf:RDF></metadata><defs
   id="defs37"><rect
     id="SVGID_1_-2"
     width="164.8"
     height="122.4" /><rect
     height="122.4"
     width="133.3"
     id="SVGID_1_-1" /><rect
     height="122.3"
     width="155.7"
     id="SVGID_1_-6" /><rect
     height="236.1"
     width="300.6"
     id="SVGID_1_-0" /><rect
     height="236.1"
     width="300.6"
     id="SVGID_3_" /><rect
     height="236.1"
     width="300.6"
     id="SVGID_5_" /><rect
     height="236.1"
     width="300.6"
     id="SVGID_7_" /><rect
     height="236.1"
     width="300.6"
     id="SVGID_9_" /><rect
     height="236.1"
     width="300.6"
     id="SVGID_11_" /><rect
     height="236.1"
     width="300.6"
     id="SVGID_13_" /><rect
     height="236.1"
     width="300.6"
     id="SVGID_15_" /><rect
     height="236.1"
     width="300.6"
     id="SVGID_17_" /><rect
     height="236.1"
     width="300.6"
     id="SVGID_19_" /><rect
     height="236.1"
     width="300.6"
     id="SVGID_21_" /><rect
     height="236.1"
     width="300.6"
     id="SVGID_23_" /><rect
     height="236.1"
     width="300.6"
     id="SVGID_25_" /><rect
     height="236.1"
     width="300.6"
     id="SVGID_27_" /><rect
     height="236.1"
     width="300.6"
     id="SVGID_29_" /><rect
     height="122.4"
     width="139.6"
     id="SVGID_1_-25" /><rect
     height="122.7"
     width="126.7"
     y="-0.2"
     id="SVGID_1_-256" /><rect
     height="122.8"
     width="208.9"
     id="SVGID_1_-10" /></defs>
<style
   id="style2"
   type="text/css">
	.st0{clip-path:url(#SVGID_2_);fill:#181716;}
	.st1{clip-path:url(#SVGID_4_);fill:#91D900;}
</style>
<g
   id="g12"
   style="fill:#000000;fill-opacity:1">
	<defs
   id="defs5">
		<rect
   height="141.9"
   width="118.3"
   id="SVGID_1_" />
	</defs>
	<clipPath
   id="SVGID_2_">
		<use
   id="use7"
   style="overflow:visible;"
   xlink:href="#SVGID_1_" />
	</clipPath>
	<path
   id="path10"
   clip-path="url(#SVGID_2_)"
   d="M105.4,8c-0.8-5.1-5.6-8.7-10.8-7.9L5.5,12.9c-3.5,0.5-5.9,3.8-5.4,7.3l8.3,56.4c0.7,4.4,2.3,8.6,4.9,12.3   c8,11.4,25.7,36.9,30,42.9c1.1,1.7,4.2,6.3,6.3,9.4c0.8,1.2,2.6,0.9,3-0.4c1.4-4,3.8-10.8,4.9-13.6c2.6-6.4,6.5-18.7,7.7-22.5   c0.2-0.7,0.8-1.2,1.6-1.3l5.4-0.9l24.4-4.8l16.4-3.3c3.5-0.6,5.9-3.9,5.4-7.4C115,66.7,105.4,8,105.4,8"
   class="st0"
   style="fill:#000000;fill-opacity:1" />
</g>

<style
   type="text/css"
   id="style846">
	.st0{clip-path:url(#SVGID_2_);fill:#A7D900;}
</style><style
   id="style849"
   type="text/css">
	.st0{clip-path:url(#SVGID_2_);fill:#A7D900;}
</style><style
   id="style963"
   type="text/css">
	.st0{clip-path:url(#SVGID_2_);fill:#A7D900;}
</style><style
   id="style1313"
   type="text/css">
	.st0{clip-path:url(#SVGID_2_);fill:#A7D900;}
</style><style
   id="style1374"
   type="text/css">
	.st0{clip-path:url(#SVGID_2_);fill:#A7D900;}
</style><style
   id="style1423"
   type="text/css">
	.st0{clip-path:url(#SVGID_2_);fill:#A7D900;}
</style><g
   id="g1443"
   transform="matrix(0.48284661,0,0,0.48284661,30.8335,26.72423)">
	<defs
   id="defs1426">
		<rect
   height="122.8"
   width="208.89999"
   id="rect1454"
   x="0"
   y="0" />
	</defs>
	<clipPath
   id="SVGID_2_-0">
		<use
   id="use1428"
   style="overflow:visible"
   xlink:href="#SVGID_1_-10"
   x="0"
   y="0"
   width="100%"
   height="100%" />
	</clipPath>
	<path
   id="path1431"
   clip-path="url(#SVGID_2_)"
   d="m 62.6,20.8 c -5.4,3.1 -7.4,8.6 -9.7,14.1 -2.5,5.8 -4.6,11.7 -6.1,17.9 -0.6,2.7 -1.1,5.4 -1.5,8.2 C 39.8,61.6 35.5,59.2 32.2,53.8 23.7,40.6 23.2,22.3 2.5,25.8 0.2,26.2 -0.6,29.2 0.4,31 3.2,36.2 6.8,41.6 7.2,47.8 7.5,52.1 6,56.7 6,61 c 0,6.2 1,12.7 3.5,18.4 6.1,13.9 17,17.7 30.5,21.6 4.5,1.3 6.4,-5.7 1.9,-7 C 22.5,88.3 11.8,78.2 13.2,56.8 14,43.8 12.5,38.8 6.5,27.4 c -0.7,1.7 -1.4,3.4 -2.1,5.2 22,-3.8 17,43 42,35.6 4.7,-1.4 4.6,-3.8 5.8,-8.2 3.1,-10.7 4.6,-27 14,-34.5 2.7,-2.2 -0.7,-6.4 -3.6,-4.7"
   class="st0"
   inkscape:connector-curvature="0"
   style="fill:#a7d900" />
	<path
   id="path1433"
   clip-path="url(#SVGID_2_)"
   d="m 63.8,26.1 c 29.7,4.6 59.5,-2.5 88.9,0 -0.8,-2 -1.6,-3.9 -2.5,-5.9 -0.2,0.2 -0.4,0.3 -0.7,0.5 -3.1,2.4 0.9,7.5 4.2,5.4 0.2,-0.2 0.5,-0.3 0.7,-0.5 3,-2 1.7,-6.2 -1.8,-6.5 -15,-1.3 -30.8,1.5 -45.9,1.9 -14.1,0.3 -28.2,-0.4 -42.3,-1 -3.2,-0.2 -4.1,5.5 -0.6,6.1"
   class="st0"
   inkscape:connector-curvature="0"
   style="fill:#a7d900" />
	<path
   id="path1435"
   clip-path="url(#SVGID_2_)"
   d="m 39.6,99 c 5.2,7.7 6.6,15.6 15.4,20.2 7.4,4 17.6,3.7 25.7,3.5 16.5,-0.3 32,-1.9 48.6,-1.2 10.1,0.4 23.4,2 33.1,-2.2 14.1,-6.2 17,-23.3 15.4,-37.1 -2.1,-18.9 -12.6,-42.8 -21.1,-59.3 -2.2,-4.2 -8.5,-0.5 -6.3,3.7 6.3,12.5 12.2,29.3 16.6,42.6 7.2,22 6,41.7 -22.2,44.9 -17.6,2 -35.5,-1.2 -53.3,0.6 -8.7,0.8 -20.7,2.8 -29,-0.2 C 52.1,110.7 50.8,102.1 44.3,95.6 41.8,93.3 37.7,96.2 39.6,99"
   class="st0"
   inkscape:connector-curvature="0"
   style="fill:#a7d900" />
	<path
   id="path1437"
   clip-path="url(#SVGID_2_)"
   d="m 102,10.9 c 0.4,-1.2 0,-3.4 1,-4.1 0.9,-0.7 4.5,0.3 5.6,0.4 1.8,0.1 4.2,-0.2 5.9,0.5 1.9,0.8 1.4,2.7 2,4.5 1.5,4.1 8,2.4 6.6,-1.8 C 121.9,7 122.4,4 118.7,2 c -3.3,-1.8 -7.4,-1.4 -11,-1.6 -3.1,-0.2 -7,-0.9 -9.6,1.4 -2.3,2 -3,6.4 -1.8,9.2 1.1,2.4 4.7,2.8 5.7,-0.1"
   class="st0"
   inkscape:connector-curvature="0"
   style="fill:#a7d900" />
	<path
   id="path1439"
   clip-path="url(#SVGID_2_)"
   d="m 161.2,37.2 c 5.7,-0.7 11.3,-1.4 16.9,-2.5 9.2,-1.8 18.6,-3.9 21.7,7.8 2.2,8.2 2.7,17.9 0.3,26.1 -3.8,12.6 -12.7,16.8 -24.1,20.6 -4.6,1.5 -2.6,8.8 2,7.3 10.7,-3.6 19.9,-6.8 25.7,-17.2 6.2,-11.1 6.2,-23.2 3.9,-35.4 -1.6,-8.2 -5,-17 -14.2,-18.4 -9,-1.4 -24.6,2.9 -32.9,6.1 -2.8,1.1 -2.8,6.1 0.7,5.6"
   class="st0"
   inkscape:connector-curvature="0"
   style="fill:#a7d900" />
	<path
   id="path1441"
   clip-path="url(#SVGID_2_)"
   d="m 68,21.1 c -0.2,-9 28.7,-5.1 35,-4.9 5.6,0.1 46.1,-4.4 44.4,4.3 -0.8,4.3 5.6,6.2 6.7,1.8 C 159.6,-1 125.2,9.3 112.4,9.3 104.3,9.3 96.2,8.5 88.1,8.9 82.5,9.1 73.8,7.6 68.8,9.2 c -6.6,2.2 -7.3,4.6 -6.8,11.9 0.1,3.9 6.1,4 6,0"
   class="st0"
   inkscape:connector-curvature="0"
   style="fill:#a7d900" />
</g></svg>