<?xml version="1.0" encoding="UTF-8" standalone="no"?>
<svg
   xmlns:dc="http://purl.org/dc/elements/1.1/"
   xmlns:cc="http://creativecommons.org/ns#"
   xmlns:rdf="http://www.w3.org/1999/02/22-rdf-syntax-ns#"
   xmlns:svg="http://www.w3.org/2000/svg"
   xmlns="http://www.w3.org/2000/svg"
   xmlns:xlink="http://www.w3.org/1999/xlink"
   version="1.1"
   id="Calque_1"
   x="0px"
   y="0px"
   viewBox="0 0 118.3 141.9"
   style="enable-background:new 0 0 118.3 141.9;"
   xml:space="preserve"><metadata
   id="metadata39"><rdf:RDF><cc:Work
       rdf:about=""><dc:format>image/svg+xml</dc:format><dc:type
         rdf:resource="http://purl.org/dc/dcmitype/StillImage" /><dc:title></dc:title></cc:Work></rdf:RDF></metadata><defs
   id="defs37"><rect
     height="122.4"
     width="164.8"
     id="SVGID_1_-2" /><rect
     id="SVGID_1_-1"
     width="133.3"
     height="122.4" /><rect
     id="SVGID_1_-6"
     width="155.7"
     height="122.3" /><rect
     id="SVGID_1_-0"
     width="300.6"
     height="236.1" /><rect
     id="SVGID_3_"
     width="300.6"
     height="236.1" /><rect
     id="SVGID_5_"
     width="300.6"
     height="236.1" /><rect
     id="SVGID_7_"
     width="300.6"
     height="236.1" /><rect
     id="SVGID_9_"
     width="300.6"
     height="236.1" /><rect
     id="SVGID_11_"
     width="300.6"
     height="236.1" /><rect
     id="SVGID_13_"
     width="300.6"
     height="236.1" /><rect
     id="SVGID_15_"
     width="300.6"
     height="236.1" /><rect
     id="SVGID_17_"
     width="300.6"
     height="236.1" /><rect
     id="SVGID_19_"
     width="300.6"
     height="236.1" /><rect
     id="SVGID_21_"
     width="300.6"
     height="236.1" /><rect
     id="SVGID_23_"
     width="300.6"
     height="236.1" /><rect
     id="SVGID_25_"
     width="300.6"
     height="236.1" /><rect
     id="SVGID_27_"
     width="300.6"
     height="236.1" /><rect
     id="SVGID_29_"
     width="300.6"
     height="236.1" /></defs>
<style
   type="text/css"
   id="style2">
	.st0{clip-path:url(#SVGID_2_);fill:#181716;}
	.st1{clip-path:url(#SVGID_4_);fill:#91D900;}
</style>
<g
   style="fill:#000000;fill-opacity:1"
   id="g12">
	<defs
   id="defs5">
		<rect
   id="SVGID_1_"
   width="118.3"
   height="141.9" />
	</defs>
	<clipPath
   id="SVGID_2_">
		<use
   xlink:href="#SVGID_1_"
   style="overflow:visible;"
   id="use7" />
	</clipPath>
	<path
   style="fill:#000000;fill-opacity:1"
   class="st0"
   d="M105.4,8c-0.8-5.1-5.6-8.7-10.8-7.9L5.5,12.9c-3.5,0.5-5.9,3.8-5.4,7.3l8.3,56.4c0.7,4.4,2.3,8.6,4.9,12.3   c8,11.4,25.7,36.9,30,42.9c1.1,1.7,4.2,6.3,6.3,9.4c0.8,1.2,2.6,0.9,3-0.4c1.4-4,3.8-10.8,4.9-13.6c2.6-6.4,6.5-18.7,7.7-22.5   c0.2-0.7,0.8-1.2,1.6-1.3l5.4-0.9l24.4-4.8l16.4-3.3c3.5-0.6,5.9-3.9,5.4-7.4C115,66.7,105.4,8,105.4,8"
   clip-path="url(#SVGID_2_)"
   id="path10" />
</g>

<style
   id="style846"
   type="text/css">
	.st0{clip-path:url(#SVGID_2_);fill:#A7D900;}
</style><style
   type="text/css"
   id="style849">
	.st0{clip-path:url(#SVGID_2_);fill:#A7D900;}
</style><style
   type="text/css"
   id="style963">
	.st0{clip-path:url(#SVGID_2_);fill:#A7D900;}
</style><g
   transform="matrix(0.19006356,0,0,0.19006356,31.669896,33.970168)"
   id="g1183">
	<g
   id="g1041">
		<defs
   id="defs1034">
			<rect
   y="0"
   x="0"
   id="rect1207"
   width="300.60001"
   height="236.10001" />
		</defs>
		<clipPath
   id="SVGID_2_-4">
			<use
   height="100%"
   width="100%"
   y="0"
   x="0"
   xlink:href="#SVGID_1_-0"
   style="overflow:visible"
   id="use1036" />
		</clipPath>
		<path
   style="fill:#a7d900"
   d="M 6.6,9.5 C 56.4,7.1 107.3,10 157.4,8.9 c 25.3,-0.6 49.8,3.3 74.9,4.2 18.7,0.8 42.7,-6.2 60.6,-1 5.4,1.5 7.9,-7 2.3,-8.5 -16,-4.6 -35.9,1 -52.3,1 C 218.4,4.4 194,0.2 169.3,0 141.7,-0.2 113.9,2.5 86.3,2.5 59.9,2.3 33,-0.8 6.6,1.4 1.4,1.7 1.4,9.8 6.6,9.5"
   clip-path="url(#SVGID_2_)"
   id="path1039" />
	</g>
	<g
   id="g1051">
		<defs
   id="defs1044">
			<rect
   y="0"
   x="0"
   id="rect1214"
   width="300.60001"
   height="236.10001" />
		</defs>
		<clipPath
   id="SVGID_4_">
			<use
   height="100%"
   width="100%"
   y="0"
   x="0"
   xlink:href="#SVGID_3_"
   style="overflow:visible"
   id="use1046" />
		</clipPath>
		<path
   style="fill:#a7d900"
   d="m 5.6,178.4 c 96.7,1.7 193.3,3.1 290,3.1 6,0 6,-9.3 0,-9.3 h -1.4 c -6,0 -6,9.3 0,9.3 h 1.4 v -9.3 c -96.5,0 -193.7,-5.6 -290,-1.9 -5.2,0.2 -5.2,7.9 0,8.1"
   clip-path="url(#SVGID_4_)"
   id="path1049" />
	</g>
	<g
   id="g1061">
		<defs
   id="defs1054">
			<rect
   y="0"
   x="0"
   id="rect1221"
   width="300.60001"
   height="236.10001" />
		</defs>
		<clipPath
   id="SVGID_6_">
			<use
   height="100%"
   width="100%"
   y="0"
   x="0"
   xlink:href="#SVGID_5_"
   style="overflow:visible"
   id="use1056" />
		</clipPath>
		<path
   style="fill:#a7d900"
   d="M 32.1,170.7 C 35.3,116 33.6,60.6 37.6,6.4 38,1.2 29.2,-0.2 28.4,5 c 0,-0.2 0,-0.4 0.2,-0.6 -2.9,4.4 3.9,9.8 7.3,5.8 C 36.7,9.4 37.3,8.7 37.6,7.5 34.5,7.1 31.4,6.7 28.3,6.3 26,32 27.9,58.2 27.5,84.1 c -0.6,29 -3.5,57.7 -3.5,86.7 -0.3,5.3 7.7,5.3 8.1,-0.1"
   clip-path="url(#SVGID_6_)"
   id="path1059" />
	</g>
	<g
   id="g1071">
		<defs
   id="defs1064">
			<rect
   y="0"
   x="0"
   id="rect1228"
   width="300.60001"
   height="236.10001" />
		</defs>
		<clipPath
   id="SVGID_8_">
			<use
   height="100%"
   width="100%"
   y="0"
   x="0"
   xlink:href="#SVGID_7_"
   style="overflow:visible"
   id="use1066" />
		</clipPath>
		<path
   style="fill:#a7d900"
   d="m 275.3,173.2 c -1.7,-11.2 2.1,-28 1.9,-40 -0.2,-13.7 -1.5,-27.2 -1,-40.9 1,-27 2.5,-53.7 1.5,-80.9 -0.2,-3.9 -5.4,-7 -8.3,-3.5 -0.2,0.2 -0.4,0.4 -0.6,0.6 -4.1,4.8 2.7,11.6 7,7 0.2,-0.2 0.4,-0.4 0.6,-0.6 -2.7,-1.2 -5.6,-2.3 -8.3,-3.5 0.6,30.7 -1.7,61 -1.9,91.7 0,12.9 1.7,25.9 1.5,38.8 -0.2,11.8 -3.1,22 -0.2,33.6 1.3,5.2 8.6,2.9 7.8,-2.3"
   clip-path="url(#SVGID_8_)"
   id="path1069" />
	</g>
	<g
   id="g1081">
		<defs
   id="defs1074">
			<rect
   y="0"
   x="0"
   id="rect1235"
   width="300.60001"
   height="236.10001" />
		</defs>
		<clipPath
   id="SVGID_10_">
			<use
   height="100%"
   width="100%"
   y="0"
   x="0"
   xlink:href="#SVGID_9_"
   style="overflow:visible"
   id="use1076" />
		</clipPath>
		<path
   style="fill:#a7d900"
   d="m 61.4,103.1 c 22.8,-9.8 40.5,-24.1 51.9,-46.9 6,-12 15.4,-33.2 13.3,-47.1 -1,-6.4 -10.2,-3.5 -9.5,2.7 1.7,12.7 -10.4,37.3 -16.2,46.9 C 95.7,67.2 88.9,75.5 81,81.9 73.5,88.1 64.2,91 56.7,97 c -4,3 1,7.8 4.7,6.1"
   clip-path="url(#SVGID_10_)"
   id="path1079" />
	</g>
	<g
   id="g1091">
		<defs
   id="defs1084">
			<rect
   y="0"
   x="0"
   id="rect1242"
   width="300.60001"
   height="236.10001" />
		</defs>
		<clipPath
   id="SVGID_12_">
			<use
   height="100%"
   width="100%"
   y="0"
   x="0"
   xlink:href="#SVGID_11_"
   style="overflow:visible"
   id="use1086" />
		</clipPath>
		<path
   style="fill:#a7d900"
   d="m 56.6,102.1 c 15.4,22.4 21.6,44.2 22,71.6 0.2,6.6 10.4,6.6 10.2,0 -0.4,-24.3 -4.6,-61.8 -27,-76.8 -3.1,-2.1 -7.4,2.1 -5.2,5.2"
   clip-path="url(#SVGID_12_)"
   id="path1089" />
	</g>
	<g
   id="g1101">
		<defs
   id="defs1094">
			<rect
   y="0"
   x="0"
   id="rect1249"
   width="300.60001"
   height="236.10001" />
		</defs>
		<clipPath
   id="SVGID_14_">
			<use
   height="100%"
   width="100%"
   y="0"
   x="0"
   xlink:href="#SVGID_13_"
   style="overflow:visible"
   id="use1096" />
		</clipPath>
		<path
   style="fill:#a7d900"
   d="m 14.3,106.4 c 5.6,5.2 15.1,3.7 22,3.5 11.2,-0.6 22.6,0 33.8,-1.2 6.2,-0.6 6.4,-9.1 0,-9.7 -9.8,-1 -20.1,-0.2 -29.9,0.4 -7.7,0.4 -15.3,-0.2 -22.8,-0.2 -3.9,-0.3 -6,4.5 -3.1,7.2"
   clip-path="url(#SVGID_14_)"
   id="path1099" />
	</g>
	<g
   id="g1111">
		<defs
   id="defs1104">
			<rect
   y="0"
   x="0"
   id="rect1256"
   width="300.60001"
   height="236.10001" />
		</defs>
		<clipPath
   id="SVGID_16_">
			<use
   height="100%"
   width="100%"
   y="0"
   x="0"
   xlink:href="#SVGID_15_"
   style="overflow:visible"
   id="use1106" />
		</clipPath>
		<path
   style="fill:#a7d900"
   d="M 246.4,96.9 C 240,91.7 232.3,89.2 225.5,84.4 216,77.6 208.1,68.6 202.1,58.7 c -6,-9.5 -18,-34.4 -16.2,-46.9 0.8,-6.2 -8.5,-8.9 -9.5,-2.7 -2.3,13.9 7.1,35.1 13.3,47.1 11.4,22.6 29,36.9 51.9,46.9 3.6,1.7 8.6,-3.1 4.8,-6.2"
   clip-path="url(#SVGID_16_)"
   id="path1109" />
	</g>
	<g
   id="g1121">
		<defs
   id="defs1114">
			<rect
   y="0"
   x="0"
   id="rect1263"
   width="300.60001"
   height="236.10001" />
		</defs>
		<clipPath
   id="SVGID_18_">
			<use
   height="100%"
   width="100%"
   y="0"
   x="0"
   xlink:href="#SVGID_17_"
   style="overflow:visible"
   id="use1116" />
		</clipPath>
		<path
   style="fill:#a7d900"
   d="m 241.1,96.9 c -22.4,15.3 -26.6,52.5 -27,76.8 0,6.6 10.2,6.6 10.2,0 0.4,-27.4 6.6,-49.2 22,-71.6 2.2,-3.1 -2.1,-7.3 -5.2,-5.2"
   clip-path="url(#SVGID_18_)"
   id="path1119" />
	</g>
	<g
   id="g1131">
		<defs
   id="defs1124">
			<rect
   y="0"
   x="0"
   id="rect1270"
   width="300.60001"
   height="236.10001" />
		</defs>
		<clipPath
   id="SVGID_20_">
			<use
   height="100%"
   width="100%"
   y="0"
   x="0"
   xlink:href="#SVGID_19_"
   style="overflow:visible"
   id="use1126" />
		</clipPath>
		<path
   style="fill:#a7d900"
   d="m 285.6,99 c -7.7,0 -15.1,0.6 -22.8,0.2 -9.8,-0.4 -20.1,-1.2 -29.9,-0.4 -6.4,0.6 -6.2,9.1 0,9.7 11.2,1.2 22.6,0.6 33.8,1.2 7,0.4 16.4,1.9 22,-3.5 2.6,-2.3 0.7,-7.3 -3.1,-7.2"
   clip-path="url(#SVGID_20_)"
   id="path1129" />
	</g>
	<g
   id="g1141">
		<defs
   id="defs1134">
			<rect
   y="0"
   x="0"
   id="rect1277"
   width="300.60001"
   height="236.10001" />
		</defs>
		<clipPath
   id="SVGID_22_">
			<use
   height="100%"
   width="100%"
   y="0"
   x="0"
   xlink:href="#SVGID_21_"
   style="overflow:visible"
   id="use1136" />
		</clipPath>
		<path
   style="fill:#a7d900"
   d="m 3.3,233.6 c 17.8,4.6 38,1.4 56.4,1.4 23.6,0.2 47.1,1.2 70.9,0.6 54.8,-1.2 110.4,-1.4 165.3,-0.8 6.4,0 6,-8.9 0,-9.7 -1,-0.2 -1.7,-0.2 -2.7,-0.4 -5.2,-0.8 -6.4,7.9 -1.2,9.3 1,0.2 1.7,0.4 2.7,0.6 0.4,-3.1 0.8,-6.4 1.4,-9.5 -51.9,-0.8 -103.9,0.8 -155.8,0.4 -22,-0.2 -43.8,0.4 -65.8,-0.2 -21.8,-0.4 -47.1,3.5 -68.5,-1 -6,-0.9 -8.5,7.8 -2.7,9.3"
   clip-path="url(#SVGID_22_)"
   id="path1139" />
	</g>
	<g
   id="g1151">
		<defs
   id="defs1144">
			<rect
   y="0"
   x="0"
   id="rect1284"
   width="300.60001"
   height="236.10001" />
		</defs>
		<clipPath
   id="SVGID_24_">
			<use
   height="100%"
   width="100%"
   y="0"
   x="0"
   xlink:href="#SVGID_23_"
   style="overflow:visible"
   id="use1146" />
		</clipPath>
		<path
   style="fill:#a7d900"
   d="m 28.6,230.1 c -0.8,-12.9 19.7,-27.2 30.5,-26.5 6.4,0.4 11.6,3.3 16,8.1 1.2,1.4 8.5,9.8 7.7,12.2 -1.7,5.2 6,8.3 8.7,3.7 3.7,-6.2 -3.1,-14.1 -6.8,-18.9 -6.2,-8.1 -13.7,-13.5 -24.3,-14.5 -12.2,-1 -21.4,4.6 -29.2,13.5 -5.4,6.2 -13.3,14.7 -10.8,23.4 1.2,4.6 8.4,3.9 8.2,-1"
   clip-path="url(#SVGID_24_)"
   id="path1149" />
	</g>
	<g
   id="g1161">
		<defs
   id="defs1154">
			<rect
   y="0"
   x="0"
   id="rect1291"
   width="300.60001"
   height="236.10001" />
		</defs>
		<clipPath
   id="SVGID_26_">
			<use
   height="100%"
   width="100%"
   y="0"
   x="0"
   xlink:href="#SVGID_25_"
   style="overflow:visible"
   id="use1156" />
		</clipPath>
		<path
   style="fill:#a7d900"
   d="m 91.9,223 c 0,-30.3 58.3,-26.8 54.1,4.6 -0.8,5.4 7.9,6.2 9.3,1.2 5.8,-19.7 -19.9,-38.6 -37.6,-37.5 -11.8,0.8 -44,17 -33.4,33.6 2,3.5 7.6,2.3 7.6,-1.9"
   clip-path="url(#SVGID_26_)"
   id="path1159" />
	</g>
	<g
   id="g1171">
		<defs
   id="defs1164">
			<rect
   y="0"
   x="0"
   id="rect1298"
   width="300.60001"
   height="236.10001" />
		</defs>
		<clipPath
   id="SVGID_28_">
			<use
   height="100%"
   width="100%"
   y="0"
   x="0"
   xlink:href="#SVGID_27_"
   style="overflow:visible"
   id="use1166" />
		</clipPath>
		<path
   style="fill:#a7d900"
   d="m 155.6,225.1 c 1,-6 3.3,-14.1 8.7,-17.6 4.4,-2.7 12.7,-3.5 18,-3.1 12.4,1 24.1,10.6 23.4,23.6 -0.4,6.4 9.3,6.2 9.8,0 3.3,-40.7 -72.4,-45.4 -68,-4.1 0.4,4.3 7.3,6.2 8.1,1.2"
   clip-path="url(#SVGID_28_)"
   id="path1169" />
	</g>
	<g
   id="g1181">
		<defs
   id="defs1174">
			<rect
   y="0"
   x="0"
   id="rect1305"
   width="300.60001"
   height="236.10001" />
		</defs>
		<clipPath
   id="SVGID_30_">
			<use
   height="100%"
   width="100%"
   y="0"
   x="0"
   xlink:href="#SVGID_29_"
   style="overflow:visible"
   id="use1176" />
		</clipPath>
		<path
   style="fill:#a7d900"
   d="m 213.7,224.2 c 2.3,-13.9 18.3,-23.7 31.5,-18.7 10.6,4.1 16.4,13.3 21.6,22.8 2.5,4.6 9.8,1.5 8.5,-3.5 -4.4,-15.6 -20.7,-29.9 -37.3,-30.5 -15.4,-0.6 -31.7,13.3 -33,28.8 -0.5,4.9 8,6.1 8.7,1.1"
   clip-path="url(#SVGID_30_)"
   id="path1179" />
	</g>
</g></svg>