<?xml version="1.0" encoding="UTF-8" standalone="no"?>
<svg
   xmlns:dc="http://purl.org/dc/elements/1.1/"
   xmlns:cc="http://creativecommons.org/ns#"
   xmlns:rdf="http://www.w3.org/1999/02/22-rdf-syntax-ns#"
   xmlns:svg="http://www.w3.org/2000/svg"
   xmlns="http://www.w3.org/2000/svg"
   xmlns:xlink="http://www.w3.org/1999/xlink"
   xml:space="preserve"
   style="enable-background:new 0 0 118.3 141.9;"
   viewBox="0 0 118.3 141.9"
   y="0px"
   x="0px"
   id="Calque_1"
   version="1.1"><metadata
   id="metadata39"><rdf:RDF><cc:Work
       rdf:about=""><dc:format>image/svg+xml</dc:format><dc:type
         rdf:resource="http://purl.org/dc/dcmitype/StillImage" /><dc:title></dc:title></cc:Work></rdf:RDF></metadata><defs
   id="defs37"><rect
     id="SVGID_1_-2"
     width="164.8"
     height="122.4" /><rect
     height="122.4"
     width="133.3"
     id="SVGID_1_-1" /><rect
     height="122.3"
     width="155.7"
     id="SVGID_1_-6" /><rect
     height="236.1"
     width="300.6"
     id="SVGID_1_-0" /><rect
     height="236.1"
     width="300.6"
     id="SVGID_3_" /><rect
     height="236.1"
     width="300.6"
     id="SVGID_5_" /><rect
     height="236.1"
     width="300.6"
     id="SVGID_7_" /><rect
     height="236.1"
     width="300.6"
     id="SVGID_9_" /><rect
     height="236.1"
     width="300.6"
     id="SVGID_11_" /><rect
     height="236.1"
     width="300.6"
     id="SVGID_13_" /><rect
     height="236.1"
     width="300.6"
     id="SVGID_15_" /><rect
     height="236.1"
     width="300.6"
     id="SVGID_17_" /><rect
     height="236.1"
     width="300.6"
     id="SVGID_19_" /><rect
     height="236.1"
     width="300.6"
     id="SVGID_21_" /><rect
     height="236.1"
     width="300.6"
     id="SVGID_23_" /><rect
     height="236.1"
     width="300.6"
     id="SVGID_25_" /><rect
     height="236.1"
     width="300.6"
     id="SVGID_27_" /><rect
     height="236.1"
     width="300.6"
     id="SVGID_29_" /><rect
     id="SVGID_1_-9"
     width="154"
     height="122.5" /><rect
     id="SVGID_1_-5"
     width="125.1"
     height="122.2" /></defs>
<style
   id="style2"
   type="text/css">
	.st0{clip-path:url(#SVGID_2_);fill:#181716;}
	.st1{clip-path:url(#SVGID_4_);fill:#91D900;}
</style>
<g
   transform="translate(-0.01878972,-0.43216365)"
   id="g12"
   style="fill:#000000;fill-opacity:1">
	<defs
   id="defs5">
		<rect
   y="0"
   x="0"
   height="141.89999"
   width="118.3"
   id="SVGID_1_" />
	</defs>
	<clipPath
   id="SVGID_2_">
		<use
   height="100%"
   width="100%"
   y="0"
   x="0"
   id="use7"
   style="overflow:visible"
   xlink:href="#SVGID_1_" />
	</clipPath>
	<path
   id="path10"
   clip-path="url(#SVGID_2_)"
   d="M 105.4,8 C 104.6,2.9 99.8,-0.7 94.6,0.1 L 5.5,12.9 C 2,13.4 -0.4,16.7 0.1,20.2 l 8.3,56.4 c 0.7,4.4 2.3,8.6 4.9,12.3 8,11.4 25.7,36.9 30,42.9 1.1,1.7 4.2,6.3 6.3,9.4 0.8,1.2 2.6,0.9 3,-0.4 1.4,-4 3.8,-10.8 4.9,-13.6 2.6,-6.4 6.5,-18.7 7.7,-22.5 0.2,-0.7 0.8,-1.2 1.6,-1.3 l 5.4,-0.9 24.4,-4.8 16.4,-3.3 c 3.5,-0.6 5.9,-3.9 5.4,-7.4 -3.4,-20.3 -13,-79 -13,-79"
   class="st0"
   style="fill:#000000;fill-opacity:1" />
</g>

<style
   type="text/css"
   id="style846">
	.st0{clip-path:url(#SVGID_2_);fill:#A7D900;}
</style><style
   id="style849"
   type="text/css">
	.st0{clip-path:url(#SVGID_2_);fill:#A7D900;}
</style><style
   id="style963"
   type="text/css">
	.st0{clip-path:url(#SVGID_2_);fill:#A7D900;}
</style><style
   type="text/css"
   id="style2209">
	.st0{clip-path:url(#SVGID_2_);fill:#A7D900;}
</style><style
   type="text/css"
   id="style2393">
	.st0{clip-path:url(#SVGID_2_);fill:#A7D900;}
</style><g
   transform="matrix(0.48289682,0,0,0.48289682,31.635956,26.992082)"
   id="g2441">
	<defs
   id="defs2396">
		<rect
   y="0"
   x="0"
   id="rect2452"
   width="125.1"
   height="122.2" />
	</defs>
	<clipPath
   id="SVGID_2_-2">
		<use
   height="100%"
   width="100%"
   y="0"
   x="0"
   xlink:href="#SVGID_1_-5"
   style="overflow:visible"
   id="use2398" />
	</clipPath>
	<path
   style="fill:#a7d900"
   class="st0"
   d="m 20.1,62.2 c -1.7,0.2 -3.4,0.4 -4.7,1.6 -1.3,1.2 -1.9,2.9 -2.2,4.5 -0.6,3.8 1.6,7.1 5.4,8 3.1,0.7 7,-0.1 8.6,-3.1 1.8,-3.4 -0.6,-8.2 -3.9,-9.6 -2.1,-0.9 -4.6,1 -3.3,3.3 0.5,0.9 3.1,2.5 2.7,3.8 -0.3,0.8 -1.8,0.8 -2.5,0.7 -3.4,-0.5 -1.9,-4.5 0.5,-5.3 1.9,-0.6 1.8,-4.1 -0.6,-3.9"
   clip-path="url(#SVGID_2_)"
   id="path2401" />
	<path
   style="fill:#a7d900"
   class="st0"
   d="m 105.6,64.4 c -2.1,-3.2 -6.7,-3.6 -9.9,-1.8 -3.7,2.1 -3.8,7.2 -1.3,10.3 2.7,3.3 8.3,4.3 11.4,0.9 1.5,-1.6 1.8,-3.9 1.4,-6 -0.3,-2.1 -1.6,-3.5 -3.5,-4.5 -2,-1.1 -4.8,1.2 -3.3,3.3 0.9,1.2 2.6,2.1 1.4,3.7 0.3,-0.4 -0.4,0.2 -0.6,0.2 -0.3,0.1 -0.6,0.1 -0.9,0.1 -0.8,-0.1 -1.6,-0.6 -2.1,-1.3 -2.1,-2.9 2.9,-3.5 4.6,-2.3 1.7,1.3 3.8,-1 2.8,-2.6"
   clip-path="url(#SVGID_2_)"
   id="path2403" />
	<path
   style="fill:#a7d900"
   class="st0"
   d="M 3.4,90.1 C 11,88 17.1,82 21.5,75.7 23,73.6 19.5,70.8 17.9,72.9 13.3,78.7 8.6,83.3 1.7,86.3 c -2.2,0.9 -0.6,4.5 1.7,3.8"
   clip-path="url(#SVGID_2_)"
   id="path2405" />
	<path
   style="fill:#a7d900"
   class="st0"
   d="m 20.5,75.8 c 11.3,9.5 20.9,14.3 36.4,15.7 16.6,1.5 33,-4 45.1,-15.4 2.2,-2.1 -1.1,-5.4 -3.3,-3.3 C 85.6,85.1 68,89.1 50.5,85.7 39.2,83.5 32,78.9 22.9,72.7 c -1.8,-1.3 -4.2,1.6 -2.4,3.1"
   clip-path="url(#SVGID_2_)"
   id="path2407" />
	<path
   style="fill:#a7d900"
   class="st0"
   d="m 99.3,74.2 c 0.8,4 5.1,6.6 8.3,8.6 3.9,2.5 8.7,4.5 13.2,5.7 2.4,0.7 3.7,-2.2 2.3,-3.9 -2.1,-2.6 -7.5,-3.2 -10.3,-4.6 -3.6,-1.8 -7.2,-4.1 -9.5,-7.4 -1.5,-2.1 -4.5,-0.9 -4,1.6"
   clip-path="url(#SVGID_2_)"
   id="path2409" />
	<path
   style="fill:#a7d900"
   class="st0"
   d="m 1.9,121.1 c 40.5,2.3 80.5,0.2 120.8,-0.8 3.1,-0.1 3.1,-5 0,-4.9 -20.1,0.5 -40.5,3 -60.5,2.6 -20.1,-0.4 -40.2,-2 -60.4,-0.8 -2.4,0.2 -2.4,3.8 0.1,3.9"
   clip-path="url(#SVGID_2_)"
   id="path2411" />
	<path
   style="fill:#a7d900"
   class="st0"
   d="m 99.5,73.3 c -1.7,8.2 -1.1,17.4 -1.2,25.7 -0.1,6.4 -0.7,13.3 0.7,19.6 0.5,2.5 4.5,2.5 5.1,0 1.2,-5.1 -0.4,-12.8 -0.4,-18 0,-9 -0.2,-17.9 -0.4,-26.8 -0.1,-2 -3.3,-2.6 -3.8,-0.5"
   clip-path="url(#SVGID_2_)"
   id="path2413" />
	<path
   style="fill:#a7d900"
   class="st0"
   d="m 18.8,73.3 c -1.7,8.2 -1.1,17.4 -1.2,25.7 -0.1,6.4 -0.7,13.3 0.7,19.6 0.5,2.5 4.5,2.5 5.1,0 1.2,-5.1 -0.4,-12.8 -0.4,-18 0,-9 -0.2,-17.9 -0.4,-26.8 -0.1,-2 -3.4,-2.6 -3.8,-0.5"
   clip-path="url(#SVGID_2_)"
   id="path2415" />
	<path
   style="fill:#a7d900"
   class="st0"
   d="m 19.9,4.8 c 9.2,2.3 19.9,-0.1 29.3,-0.2 3,0 3,-4.6 0,-4.6 C 39.7,0.1 30,1.7 20.5,0.8 18.2,0.6 17.8,4.2 19.9,4.8"
   clip-path="url(#SVGID_2_)"
   id="path2417" />
	<path
   style="fill:#a7d900"
   class="st0"
   d="m 18.7,2.5 c -0.5,3.4 0.3,7.2 0.2,10.6 -0.1,5.5 -0.3,11 -0.3,16.6 0,2.9 4.5,2.9 4.5,0 0,-5.2 0.2,-10.4 0.2,-15.6 0,-3.5 -0.9,-7.6 -0.5,-11 0.3,-2.3 -3.7,-2.9 -4.1,-0.6"
   clip-path="url(#SVGID_2_)"
   id="path2419" />
	<path
   style="fill:#a7d900"
   class="st0"
   d="m 46.8,2.4 c -0.4,4.9 -0.4,9.8 -0.7,14.6 -0.2,3.5 0.3,7.4 -0.2,10.8 -0.4,2.5 2.8,4.2 4.3,1.8 1.5,-2.4 0.4,-6.9 0.6,-9.7 C 51.1,14 51.4,8.2 51,2.3 50.8,-0.3 47,-0.3 46.8,2.4"
   clip-path="url(#SVGID_2_)"
   id="path2421" />
	<path
   style="fill:#a7d900"
   class="st0"
   d="m 20.4,31.5 c 9.1,2.2 18.4,0.5 27.6,1 3,0.2 3,-4.4 0,-4.7 -4,-0.4 -8.2,0.1 -12.2,0.1 -4.9,0 -9.9,-0.1 -14.8,-0.5 -2.4,-0.3 -2.8,3.5 -0.6,4.1"
   clip-path="url(#SVGID_2_)"
   id="path2423" />
	<path
   style="fill:#a7d900"
   class="st0"
   d="m 58.7,3.4 c -0.5,4.2 -1.1,8.1 -1.1,12.4 0,4 0.5,8.2 0,12.2 -0.4,2.9 3.9,4.3 4.6,1.3 0.9,-4 0.4,-8.4 0.2,-12.5 C 62.3,12.2 63.1,7.5 62.5,3 62.2,0.5 58.9,1.4 58.7,3.4"
   clip-path="url(#SVGID_2_)"
   id="path2425" />
	<path
   style="fill:#a7d900"
   class="st0"
   d="M 60,4.6 C 64.4,7.1 70.4,6.1 75.3,6 83.7,5.8 92,5.2 100.5,5.8 103.4,6 103.4,1.5 100.5,1.3 87.8,0.5 73.9,3.9 61.5,1.2 59.4,0.7 58.1,3.5 60,4.6"
   clip-path="url(#SVGID_2_)"
   id="path2427" />
	<path
   style="fill:#a7d900"
   class="st0"
   d="m 100.2,4.3 c -0.9,3.5 -1.6,7 -1.7,10.7 -0.1,2.5 0,5.1 0,7.6 0,1.5 0.5,3.8 -0.2,5.2 -1.3,2.8 2.9,5.3 4.2,2.5 1.6,-3.4 0.9,-7.8 0.9,-11.5 0,-4.7 1.5,-9.9 0.6,-14.5 -0.5,-1.9 -3.4,-1.8 -3.8,0"
   clip-path="url(#SVGID_2_)"
   id="path2429" />
	<path
   style="fill:#a7d900"
   class="st0"
   d="m 61.1,31.3 c 12.7,0.1 25.6,-0.8 38.2,0 3.1,0.2 3.1,-4.7 0,-4.9 -12.3,-0.8 -25.9,-0.6 -38.2,0.8 -2.7,0.2 -2.8,4.1 0,4.1"
   clip-path="url(#SVGID_2_)"
   id="path2431" />
	<path
   style="fill:#a7d900"
   class="st0"
   d="m 42.7,40.7 c 13.8,1.3 27.7,0 41.5,-0.5 3.1,-0.1 3.1,-5 0,-4.9 -13.7,0.4 -27.9,0.1 -41.5,1.4 -2.5,0.2 -2.5,3.7 0,4"
   clip-path="url(#SVGID_2_)"
   id="path2433" />
	<path
   style="fill:#a7d900"
   class="st0"
   d="m 41,39.3 c 0.4,11 -0.3,21.7 -0.5,32.7 -0.1,3.1 4.8,3.1 4.8,0 0.2,-11.2 1.6,-22.1 -0.1,-33.2 -0.4,-2.4 -4.3,-1.9 -4.2,0.5"
   clip-path="url(#SVGID_2_)"
   id="path2435" />
	<path
   style="fill:#a7d900"
   class="st0"
   d="m 82.5,38.1 c -0.8,11.7 -0.6,23.6 -1.4,35.3 -0.2,3.2 4.8,3.2 5,0 0.8,-11.8 1.6,-23.5 0.7,-35.3 -0.2,-2.7 -4.1,-2.7 -4.3,0"
   clip-path="url(#SVGID_2_)"
   id="path2437" />
	<path
   style="fill:#a7d900"
   class="st0"
   d="m 41.8,75.4 c 4.8,2 11.8,1.5 16.9,1.2 7.5,-0.4 15,-0.6 22.5,-0.6 3.2,0 3.2,-4.9 0,-5 -13,-0.2 -25.9,1.1 -38.9,0.6 -2.3,0 -2.3,3.1 -0.5,3.8"
   clip-path="url(#SVGID_2_)"
   id="path2439" />
</g></svg>