<?xml version="1.0" encoding="utf-8"?>
<!-- Generator: Adobe Illustrator 25.0.0, SVG Export Plug-In . SVG Version: 6.00 Build 0)  -->
<svg version="1.1"
	 id="Calque_1" xmlns:cc="http://creativecommons.org/ns#" xmlns:dc="http://purl.org/dc/elements/1.1/" xmlns:rdf="http://www.w3.org/1999/02/22-rdf-syntax-ns#" xmlns:svg="http://www.w3.org/2000/svg"
	 xmlns="http://www.w3.org/2000/svg" xmlns:xlink="http://www.w3.org/1999/xlink" x="0px" y="0px" viewBox="0 0 118.3 141.9"
	 style="enable-background:new 0 0 118.3 141.9;" xml:space="preserve">
<style type="text/css">
	.st0{clip-path:url(#SVGID_2_);}
	.st1{display:none;}
	.st2{display:inline;}
	.st3{fill:none;}
	.st4{fill:#A7D900;}
	.st5{clip-path:url(#SVGID_4_);fill:#A7D900;}
	.st6{clip-path:url(#SVGID_6_);fill:#A7D900;}
	.st7{clip-path:url(#SVGID_8_);fill:#A7D900;}
	.st8{clip-path:url(#SVGID_10_);fill:#A7D900;}
	.st9{clip-path:url(#SVGID_12_);fill:#A7D900;}
	.st10{clip-path:url(#SVGID_14_);fill:#A7D900;}
</style>
<g id="g12">
	<g>
		<g>
			<defs>
				<rect id="SVGID_1_" width="118.3" height="141.9"/>
			</defs>
			<clipPath id="SVGID_2_">
				<use xlink:href="#SVGID_1_"  style="overflow:visible;"/>
			</clipPath>
			<path id="path10" class="st0" d="M105.4,8c-0.8-5.1-5.6-8.7-10.8-7.9L5.5,12.9c-3.5,0.5-5.9,3.8-5.4,7.3l8.3,56.4
				c0.7,4.4,2.3,8.6,4.9,12.3c8,11.4,25.7,36.9,30,42.9c1.1,1.7,4.2,6.3,6.3,9.4c0.8,1.2,2.6,0.9,3-0.4c1.4-4,3.8-10.8,4.9-13.6
				c2.6-6.4,6.5-18.7,7.7-22.5c0.2-0.7,0.8-1.2,1.6-1.3l5.4-0.9l24.4-4.8l16.4-3.3c3.5-0.6,5.9-3.9,5.4-7.4
				C115,66.7,105.4,8,105.4,8"/>
		</g>
	</g>
</g>
<g id="g1183" transform="matrix(0.19006356,0,0,0.19006356,31.669896,33.970168)" class="st1">
	<g id="g1041" class="st2">
		<rect x="42.2" y="57.5" class="st3" width="22.5" height="27"/>
		<path id="path1039" class="st4" d="M0.9,9.5C50.7,7.1,101.6,10,151.7,8.9c25.3-0.6,49.8,3.3,74.9,4.2c18.7,0.8,42.7-6.2,60.6-1
			c5.4,1.5,7.9-7,2.3-8.5c-16-4.6-35.9,1-52.3,1c-24.5-0.2-48.9-4.4-73.6-4.6c-27.6-0.2-55.4,2.5-83,2.5C54.2,2.3,27.3-0.8,0.9,1.4
			C-4.3,1.7-4.3,9.8,0.9,9.5"/>
	</g>
	<g id="g1051" class="st2">
		<rect x="116" y="95.6" class="st3" width="57.1" height="44.9"/>
		<path id="path1049" class="st4" d="M-0.1,178.4c96.7,1.7,193.3,3.1,290,3.1c6,0,6-9.3,0-9.3h-1.4c-6,0-6,9.3,0,9.3h1.4v-9.3
			c-96.5,0-193.7-5.6-290-1.9C-5.3,170.5-5.3,178.2-0.1,178.4"/>
	</g>
	<g id="g1061" class="st2">
		<rect x="116" y="95.6" class="st3" width="57.1" height="44.9"/>
		<path id="path1059" class="st4" d="M26.4,170.7C29.6,116,27.9,60.6,31.9,6.4c0.4-5.2-8.4-6.6-9.2-1.4c0-0.2,0-0.4,0.2-0.6
			c-2.9,4.4,3.9,9.8,7.3,5.8c0.8-0.8,1.4-1.5,1.7-2.7c-3.1-0.4-6.2-0.8-9.3-1.2c-2.3,25.7-0.4,51.9-0.8,77.8
			c-0.6,29-3.5,57.7-3.5,86.7C18,176.1,26,176.1,26.4,170.7"/>
	</g>
	<g id="g1071" class="st2">
		<rect x="116" y="95.6" class="st3" width="57.1" height="44.9"/>
		<path id="path1069" class="st4" d="M269.6,173.2c-1.7-11.2,2.1-28,1.9-40c-0.2-13.7-1.5-27.2-1-40.9c1-27,2.5-53.7,1.5-80.9
			c-0.2-3.9-5.4-7-8.3-3.5c-0.2,0.2-0.4,0.4-0.6,0.6c-4.1,4.8,2.7,11.6,7,7c0.2-0.2,0.4-0.4,0.6-0.6c-2.7-1.2-5.6-2.3-8.3-3.5
			c0.6,30.7-1.7,61-1.9,91.7c0,12.9,1.7,25.9,1.5,38.8c-0.2,11.8-3.1,22-0.2,33.6C263.1,180.7,270.4,178.4,269.6,173.2"/>
	</g>
	<g id="g1081" class="st2">
		<rect x="116" y="95.6" class="st3" width="57.1" height="44.9"/>
		<path id="path1079" class="st4" d="M55.7,103.1c22.8-9.8,40.5-24.1,51.9-46.9c6-12,15.4-33.2,13.3-47.1c-1-6.4-10.2-3.5-9.5,2.7
			c1.7,12.7-10.4,37.3-16.2,46.9c-5.2,8.5-12,16.8-19.9,23.2C67.8,88.1,58.5,91,51,97C47,100,52,104.8,55.7,103.1"/>
	</g>
	<g id="g1091" class="st2">
		<rect x="116" y="95.6" class="st3" width="57.1" height="44.9"/>
		<path id="path1089" class="st4" d="M50.9,102.1c15.4,22.4,21.6,44.2,22,71.6c0.2,6.6,10.4,6.6,10.2,0c-0.4-24.3-4.6-61.8-27-76.8
			C53,94.8,48.7,99,50.9,102.1"/>
	</g>
	<g id="g1101" class="st2">
		<rect x="116" y="95.6" class="st3" width="57.1" height="44.9"/>
		<path id="path1099" class="st4" d="M8.6,106.4c5.6,5.2,15.1,3.7,22,3.5c11.2-0.6,22.6,0,33.8-1.2c6.2-0.6,6.4-9.1,0-9.7
			c-9.8-1-20.1-0.2-29.9,0.4c-7.7,0.4-15.3-0.2-22.8-0.2C7.8,98.9,5.7,103.7,8.6,106.4"/>
	</g>
	<g id="g1111" class="st2">
		<rect x="116" y="95.6" class="st3" width="57.1" height="44.9"/>
		<path id="path1109" class="st4" d="M240.7,96.9c-6.4-5.2-14.1-7.7-20.9-12.5c-9.5-6.8-17.4-15.8-23.4-25.7
			c-6-9.5-18-34.4-16.2-46.9c0.8-6.2-8.5-8.9-9.5-2.7c-2.3,13.9,7.1,35.1,13.3,47.1c11.4,22.6,29,36.9,51.9,46.9
			C239.5,104.8,244.5,100,240.7,96.9"/>
	</g>
	<g id="g1121" class="st2">
		<rect x="116" y="95.6" class="st3" width="57.1" height="44.9"/>
		<path id="path1119" class="st4" d="M235.4,96.9c-22.4,15.3-26.6,52.5-27,76.8c0,6.6,10.2,6.6,10.2,0c0.4-27.4,6.6-49.2,22-71.6
			C242.8,99,238.5,94.8,235.4,96.9"/>
	</g>
	<g id="g1131" class="st2">
		<rect x="116" y="95.6" class="st3" width="57.1" height="44.9"/>
		<path id="path1129" class="st4" d="M279.9,99c-7.7,0-15.1,0.6-22.8,0.2c-9.8-0.4-20.1-1.2-29.9-0.4c-6.4,0.6-6.2,9.1,0,9.7
			c11.2,1.2,22.6,0.6,33.8,1.2c7,0.4,16.4,1.9,22-3.5C285.6,103.9,283.7,98.9,279.9,99"/>
	</g>
	<g id="g1141" class="st2">
		<rect x="116" y="95.6" class="st3" width="57.1" height="44.9"/>
		<path id="path1139" class="st4" d="M-2.4,233.6c17.8,4.6,38,1.4,56.4,1.4c23.6,0.2,47.1,1.2,70.9,0.6
			c54.8-1.2,110.4-1.4,165.3-0.8c6.4,0,6-8.9,0-9.7c-1-0.2-1.7-0.2-2.7-0.4c-5.2-0.8-6.4,7.9-1.2,9.3c1,0.2,1.7,0.4,2.7,0.6
			c0.4-3.1,0.8-6.4,1.4-9.5c-51.9-0.8-103.9,0.8-155.8,0.4c-22-0.2-43.8,0.4-65.8-0.2c-21.8-0.4-47.1,3.5-68.5-1
			C-5.7,223.4-8.2,232.1-2.4,233.6"/>
	</g>
	<g id="g1151" class="st2">
		<rect x="116" y="95.6" class="st3" width="57.1" height="44.9"/>
		<path id="path1149" class="st4" d="M22.9,230.1c-0.8-12.9,19.7-27.2,30.5-26.5c6.4,0.4,11.6,3.3,16,8.1c1.2,1.4,8.5,9.8,7.7,12.2
			c-1.7,5.2,6,8.3,8.7,3.7c3.7-6.2-3.1-14.1-6.8-18.9c-6.2-8.1-13.7-13.5-24.3-14.5c-12.2-1-21.4,4.6-29.2,13.5
			c-5.4,6.2-13.3,14.7-10.8,23.4C15.9,235.7,23.1,235,22.9,230.1"/>
	</g>
	<g id="g1161" class="st2">
		<rect x="116" y="95.6" class="st3" width="57.1" height="44.9"/>
		<path id="path1159" class="st4" d="M86.2,223c0-30.3,58.3-26.8,54.1,4.6c-0.8,5.4,7.9,6.2,9.3,1.2c5.8-19.7-19.9-38.6-37.6-37.5
			c-11.8,0.8-44,17-33.4,33.6C80.6,228.4,86.2,227.2,86.2,223"/>
	</g>
	<g id="g1171" class="st2">
		<rect x="116" y="95.6" class="st3" width="57.1" height="44.9"/>
		<path id="path1169" class="st4" d="M149.9,225.1c1-6,3.3-14.1,8.7-17.6c4.4-2.7,12.7-3.5,18-3.1c12.4,1,24.1,10.6,23.4,23.6
			c-0.4,6.4,9.3,6.2,9.8,0c3.3-40.7-72.4-45.4-68-4.1C142.2,228.2,149.1,230.1,149.9,225.1"/>
	</g>
	<g id="g1181" class="st2">
		<rect x="116" y="95.6" class="st3" width="57.1" height="44.9"/>
		<path id="path1179" class="st4" d="M208,224.2c2.3-13.9,18.3-23.7,31.5-18.7c10.6,4.1,16.4,13.3,21.6,22.8
			c2.5,4.6,9.8,1.5,8.5-3.5c-4.4-15.6-20.7-29.9-37.3-30.5c-15.4-0.6-31.7,13.3-33,28.8C198.8,228,207.3,229.2,208,224.2"/>
	</g>
</g>
<g>
	<g>
		<defs>
			<rect id="SVGID_3_" x="36.3" y="34.7" width="44.6" height="43.5"/>
		</defs>
		<clipPath id="SVGID_4_">
			<use xlink:href="#SVGID_3_"  style="overflow:visible;"/>
		</clipPath>
		<path class="st5" d="M79.9,75.8c-9.1-0.7-20.7,1.3-29.4-1.7c-13.3-4.6-16-24.6-4.8-33.1c7.8-5.9,19.9-5.3,26.4,2.4
			c8.3,9.8,3.7,27.1-9.3,29.1c-1.2,0.2-1,2.4,0.3,2.3c12.7-1.2,18.5-16,14.1-27.4c-4.4-11.3-18-15.6-28.5-11
			C37.1,41.5,33.2,56,39,67.2c7.3,14.2,28.1,10.4,40.9,10.6C81.2,77.9,81.1,75.9,79.9,75.8"/>
	</g>
	<g>
		<defs>
			<rect id="SVGID_5_" x="36.3" y="34.7" width="44.6" height="43.5"/>
		</defs>
		<clipPath id="SVGID_6_">
			<use xlink:href="#SVGID_5_"  style="overflow:visible;"/>
		</clipPath>
		<path class="st6" d="M68.3,50.5c1.5-3-1.2-6-4.1-6.3c-2.8-0.2-5.1,1.6-5.5,4.5c-0.3,2.5,1.1,5,3.5,5.6
			C64.8,55,68.5,53.5,68.3,50.5c-0.1-1.4-1.8-1.7-2.2-0.4c-0.5,1.5-1.6,2.3-3.2,1.9c-1.2-0.4-1.8-1.5-1.8-2.7c0-3.9,6-3.6,5.3,0.4
			C66.3,50.8,67.8,51.6,68.3,50.5"/>
	</g>
	<g>
		<defs>
			<rect id="SVGID_7_" x="36.3" y="34.7" width="44.6" height="43.5"/>
		</defs>
		<clipPath id="SVGID_8_">
			<use xlink:href="#SVGID_7_"  style="overflow:visible;"/>
		</clipPath>
		<path class="st7" d="M68.9,65c1.5-3-1.2-6-4.1-6.3c-2.8-0.2-5.1,1.6-5.5,4.5c-0.3,2.5,1.1,5,3.5,5.6C65.4,69.6,69.1,68.1,68.9,65
			c-0.1-1.4-1.8-1.7-2.2-0.4c-0.5,1.5-1.6,2.3-3.2,1.9c-1.2-0.4-1.8-1.5-1.8-2.7c0-3.9,6-3.6,5.3,0.4C66.9,65.3,68.4,66.2,68.9,65"
			/>
	</g>
	<g>
		<defs>
			<rect id="SVGID_9_" x="36.3" y="34.7" width="44.6" height="43.5"/>
		</defs>
		<clipPath id="SVGID_10_">
			<use xlink:href="#SVGID_9_"  style="overflow:visible;"/>
		</clipPath>
		<path class="st8" d="M55.2,65c1.5-3-1.2-6-4.1-6.3c-2.8-0.2-5.1,1.6-5.5,4.5c-0.3,2.5,1.1,5,3.5,5.6C51.6,69.6,55.4,68.1,55.2,65
			c-0.1-1.4-1.8-1.7-2.2-0.4c-0.5,1.5-1.6,2.3-3.2,1.9C48.6,66.2,48,65,48,63.8c0-3.9,6-3.6,5.3,0.4C53.1,65.3,54.6,66.2,55.2,65"/>
	</g>
	<g>
		<defs>
			<rect id="SVGID_11_" x="36.3" y="34.7" width="44.6" height="43.5"/>
		</defs>
		<clipPath id="SVGID_12_">
			<use xlink:href="#SVGID_11_"  style="overflow:visible;"/>
		</clipPath>
		<path class="st9" d="M55.2,50.5c1.5-3-1.2-6-4.1-6.3c-2.8-0.2-5.1,1.6-5.5,4.5c-0.3,2.5,1.1,5,3.5,5.6
			C51.6,55,55.4,53.5,55.2,50.5c-0.1-1.4-1.8-1.7-2.2-0.4c-0.5,1.5-1.6,2.3-3.2,1.9c-1.2-0.4-1.8-1.5-1.8-2.7c0-3.9,6-3.6,5.3,0.4
			C53.1,50.8,54.6,51.6,55.2,50.5"/>
	</g>
	<g>
		<defs>
			<rect id="SVGID_13_" x="36.3" y="34.7" width="44.6" height="43.5"/>
		</defs>
		<clipPath id="SVGID_14_">
			<use xlink:href="#SVGID_13_"  style="overflow:visible;"/>
		</clipPath>
		<path class="st10" d="M56,55.7c-1,1-0.2,2.6,1,2.9s2.4-0.4,2.6-1.7c0.2-1.1-0.6-2.2-1.7-2.4c-1.1-0.2-2.7,0.8-2.2,2.1
			c0.3,0.8,1.2,1.2,1.9,0.5c0.8-0.9-0.5,0.2-0.4-0.6c0-0.1,0-0.1,0.2-0.2c0.3-0.2,0.5,0.2,0.3-0.2C57.4,55.4,56.5,55.1,56,55.7"/>
	</g>
</g>
</svg>
