<?xml version="1.0" encoding="utf-8"?>
<!-- Generator: Adobe Illustrator 24.2.0, SVG Export Plug-In . SVG Version: 6.00 Build 0)  -->
<svg version="1.1"
	 id="Calque_1" xmlns:cc="http://creativecommons.org/ns#" xmlns:dc="http://purl.org/dc/elements/1.1/" xmlns:inkscape="http://www.inkscape.org/namespaces/inkscape" xmlns:rdf="http://www.w3.org/1999/02/22-rdf-syntax-ns#" xmlns:sodipodi="http://sodipodi.sourceforge.net/DTD/sodipodi-0.dtd" xmlns:svg="http://www.w3.org/2000/svg"
	 xmlns="http://www.w3.org/2000/svg" xmlns:xlink="http://www.w3.org/1999/xlink" x="0px" y="0px" viewBox="0 0 118.3 141.9"
	 style="enable-background:new 0 0 118.3 141.9;" xml:space="preserve">
<style type="text/css">
	.st0{clip-path:url(#SVGID_2_);}
	.st1{fill:none;}
	.st2{fill:#A7D900;}
</style>
<sodipodi:namedview  bordercolor="#666666" borderopacity="1" gridtolerance="10" guidetolerance="10" id="namedview839" inkscape:bbox-nodes="true" inkscape:bbox-paths="true" inkscape:current-layer="Calque_1" inkscape:cx="53.561715" inkscape:cy="124.78215" inkscape:guide-bbox="true" inkscape:pageopacity="0" inkscape:pageshadow="2" inkscape:snap-bbox="true" inkscape:snap-bbox-edge-midpoints="true" inkscape:snap-bbox-midpoints="true" inkscape:snap-nodes="false" inkscape:snap-others="false" inkscape:window-height="792" inkscape:window-maximized="0" inkscape:window-width="1562" inkscape:window-x="69" inkscape:window-y="0" inkscape:zoom="2.2723094" objecttolerance="10" pagecolor="#ffffff" showgrid="false" showguides="true">
	<sodipodi:guide  id="guide955" inkscape:locked="false" orientation="1,0" position="31.672974,85.494413"></sodipodi:guide>
	<sodipodi:guide  id="guide959" inkscape:locked="false" orientation="1,0" position="88.79373,93.355263"></sodipodi:guide>
	<sodipodi:guide  id="guide961" inkscape:locked="false" orientation="0,1" position="59.393878,85.494416"></sodipodi:guide>
</sodipodi:namedview>
<g id="g12">
	<g>
		<defs>
			<rect id="SVGID_1_" width="118.3" height="141.9"/>
		</defs>
		<clipPath id="SVGID_2_">
			<use xlink:href="#SVGID_1_"  style="overflow:visible;"/>
		</clipPath>
		<path id="path10" class="st0" d="M105.4,8c-0.8-5.1-5.6-8.7-10.8-7.9L5.5,12.9c-3.5,0.5-5.9,3.8-5.4,7.3l8.3,56.4
			c0.7,4.4,2.3,8.6,4.9,12.3c8,11.4,25.7,36.9,30,42.9c1.1,1.7,4.2,6.3,6.3,9.4c0.8,1.2,2.6,0.9,3-0.4c1.4-4,3.8-10.8,4.9-13.6
			c2.6-6.4,6.5-18.7,7.7-22.5c0.2-0.7,0.8-1.2,1.6-1.3l5.4-0.9l24.4-4.8l16.4-3.3c3.5-0.6,5.9-3.9,5.4-7.4C115,66.7,105.4,8,105.4,8
			"/>
	</g>
</g>
<g id="g1443" transform="matrix(0.48284661,0,0,0.48284661,30.8335,26.72423)">
	<rect x="5.6" y="40.7" class="st1" width="41" height="49.2"/>
	<path id="path1431" inkscape:connector-curvature="0" class="st2" d="M28.6,29.3c-3.9,2.2-5.3,6.2-7,10.1
		c-1.8,4.2-3.3,8.4-4.4,12.8c-0.4,1.9-0.8,3.9-1.1,5.9c-3.9,0.4-7-1.3-9.4-5.2c-6.1-9.5-6.5-22.6-21.3-20.1
		c-1.7,0.3-2.2,2.4-1.5,3.7c2,3.7,4.6,7.6,4.9,12.1c0.2,3.1-0.9,6.4-0.9,9.5c0,4.4,0.7,9.1,2.5,13.2c4.4,10,12.2,12.7,21.9,15.5
		c3.2,0.9,4.6-4.1,1.4-5C-0.2,77.7-7.9,70.5-6.9,55.1c0.6-9.3-0.5-12.9-4.8-21.1c-0.5,1.2-1,2.4-1.5,3.7C2.6,35-1,68.6,17,63.3
		c3.4-1,3.3-2.7,4.2-5.9c2.2-7.7,3.3-19.4,10-24.8C33.1,31.1,30.7,28.1,28.6,29.3"/>
	<rect x="5.6" y="40.7" class="st1" width="41" height="49.2"/>
	<path id="path1433" inkscape:connector-curvature="0" class="st2" d="M29.5,33.1c21.3,3.3,42.7-1.8,63.8,0
		c-0.6-1.4-1.1-2.8-1.8-4.2c-0.1,0.1-0.3,0.2-0.5,0.4c-2.2,1.7,0.6,5.4,3,3.9c0.1-0.1,0.4-0.2,0.5-0.4c2.2-1.4,1.2-4.4-1.3-4.7
		c-10.8-0.9-22.1,1.1-32.9,1.4c-10.1,0.2-20.2-0.3-30.3-0.7C27.6,28.6,26.9,32.7,29.5,33.1"/>
	<rect x="5.6" y="40.7" class="st1" width="41" height="49.2"/>
	<path id="path1435" inkscape:connector-curvature="0" class="st2" d="M12.1,85.4c3.7,5.5,4.7,11.2,11,14.5
		c5.3,2.9,12.6,2.7,18.4,2.5c11.8-0.2,23-1.4,34.9-0.9c7.2,0.3,16.8,1.4,23.7-1.6c10.1-4.4,12.2-16.7,11-26.6
		c-1.5-13.6-9-30.7-15.1-42.5c-1.6-3-6.1-0.4-4.5,2.7c4.5,9,8.8,21,11.9,30.6c5.2,15.8,4.3,29.9-15.9,32.2
		c-12.6,1.4-25.5-0.9-38.2,0.4c-6.2,0.6-14.9,2-20.8-0.1c-7.5-2.7-8.4-8.9-13.1-13.6C13.7,81.3,10.7,83.4,12.1,85.4"/>
	<rect x="5.6" y="40.7" class="st1" width="41" height="49.2"/>
	<path id="path1437" inkscape:connector-curvature="0" class="st2" d="M56.9,22.2c0.3-0.9,0-2.4,0.7-2.9c0.6-0.5,3.2,0.2,4,0.3
		c1.3,0.1,3-0.1,4.2,0.4c1.4,0.6,1,1.9,1.4,3.2c1.1,2.9,5.7,1.7,4.7-1.3c-0.9-2.4-0.5-4.6-3.2-6c-2.4-1.3-5.3-1-7.9-1.1
		c-2.2-0.1-5-0.6-6.9,1c-1.7,1.4-2.2,4.6-1.3,6.6C53.6,24,56.1,24.3,56.9,22.2"/>
	<rect x="5.6" y="40.7" class="st1" width="41" height="49.2"/>
	<path id="path1439" inkscape:connector-curvature="0" class="st2" d="M99.3,41.1c4.1-0.5,8.1-1,12.1-1.8c6.6-1.3,13.3-2.8,15.6,5.6
		c1.6,5.9,1.9,12.8,0.2,18.7c-2.7,9-9.1,12.1-17.3,14.8c-3.3,1.1-1.9,6.3,1.4,5.2c7.7-2.6,14.3-4.9,18.4-12.3
		c4.4-8,4.4-16.6,2.8-25.4c-1.1-5.9-3.6-12.2-10.2-13.2c-6.5-1-17.6,2.1-23.6,4.4C96.8,37.8,96.8,41.4,99.3,41.1"/>
	<rect x="5.6" y="40.7" class="st1" width="41" height="49.2"/>
	<path id="path1441" inkscape:connector-curvature="0" class="st2" d="M32.5,29.5c-0.1-6.5,20.6-3.7,25.1-3.5
		c4,0.1,33.1-3.2,31.9,3.1c-0.6,3.1,4,4.4,4.8,1.3c3.9-16.7-20.7-9.3-29.9-9.3c-5.8,0-11.6-0.6-17.4-0.3c-4,0.1-10.3-0.9-13.8,0.2
		c-4.7,1.6-5.2,3.3-4.9,8.5C28.2,32.3,32.5,32.4,32.5,29.5"/>
</g>
</svg>
