<?xml version="1.0" encoding="utf-8"?>
<!-- Generator: Adobe Illustrator 24.2.0, SVG Export Plug-In . SVG Version: 6.00 Build 0)  -->
<svg version="1.1"
	 id="Calque_1" xmlns:cc="http://creativecommons.org/ns#" xmlns:dc="http://purl.org/dc/elements/1.1/" xmlns:rdf="http://www.w3.org/1999/02/22-rdf-syntax-ns#" xmlns:svg="http://www.w3.org/2000/svg"
	 xmlns="http://www.w3.org/2000/svg" xmlns:xlink="http://www.w3.org/1999/xlink" x="0px" y="0px" viewBox="0 0 118.3 141.9"
	 style="enable-background:new 0 0 118.3 141.9;" xml:space="preserve">
<style type="text/css">
	.st0{clip-path:url(#SVGID_2_);}
	.st1{fill:none;}
	.st2{fill:#A7D900;}
</style>
<g id="g12" transform="translate(-0.01878972,-0.43216365)">
	<g>
		<defs>
			<rect id="SVGID_1_" x="0" y="0" width="118.3" height="141.9"/>
		</defs>
		<clipPath id="SVGID_2_">
			<use xlink:href="#SVGID_1_"  style="overflow:visible;"/>
		</clipPath>
		<path id="path10" class="st0" d="M105.4,8c-0.8-5.1-5.6-8.7-10.8-7.9L5.5,12.9c-3.5,0.5-5.9,3.8-5.4,7.3l8.3,56.4
			c0.7,4.4,2.3,8.6,4.9,12.3c8,11.4,25.7,36.9,30,42.9c1.1,1.7,4.2,6.3,6.3,9.4c0.8,1.2,2.6,0.9,3-0.4c1.4-4,3.8-10.8,4.9-13.6
			c2.6-6.4,6.5-18.7,7.7-22.5c0.2-0.7,0.8-1.2,1.6-1.3l5.4-0.9l24.4-4.8l16.4-3.3c3.5-0.6,5.9-3.9,5.4-7.4C115,66.7,105.4,8,105.4,8
			"/>
	</g>
</g>
<g id="g2257" transform="matrix(0.48293254,0,0,0.48293254,31.63173,26.900403)">
	<rect x="14.1" y="29.2" class="st1" width="57.1" height="68.5"/>
	<path id="path2217" class="st2" d="M58.4-3.3c0.7,8.8-1.3,17.9-1,26.8c0.2,9.8,0.1,19.6,0.3,29.4c0.4,18.8,1,37.4,0.9,56.2
		c0,3,4.6,3,4.6,0c0-19.6-0.7-39.2-1.1-58.8c-0.2-10.7-0.6-21.7-0.5-32.4c0.1-7.4,1.8-14.4,0.7-21.7C62-6,58.2-5.5,58.4-3.3"/>
	<rect x="14.1" y="29.2" class="st1" width="57.1" height="68.5"/>
	<path id="path2219" class="st2" d="M73.3,38c-6.6-8-22.6-3.3-28.3,3.6c-6.6,8.1-8.5,22.8,0,30.2c8.6,7.6,23.8,9.2,31.8-0.1
		c6.9-8.1,4.6-23.1-2.2-30.6c-2.1-2.3-5.5,1.1-3.4,3.4C76,49.8,78,61,74.4,67.1c-5.5,9.1-20,7.5-26.8,0.8c-5.7-5.6-4.1-16.3,0-22.3
		c4.9-7,16.2-9.1,23.5-4.8C73,41.9,74.5,39.5,73.3,38"/>
	<rect x="14.1" y="29.2" class="st1" width="57.1" height="68.5"/>
	<path id="path2221" class="st2" d="M-13.8-2c9.7-3.9,24.7-1.2,34.9-1.3c12.2-0.1,24.4,0.6,36.6,0.8c25.1,0.4,50.4,1,75.5,0.6
		c2.8,0,2.8-4.4,0-4.3c-27.6,0.2-55.4,0.1-83-0.7C36-7.4,21.7-7.5,7.4-7.4c-6.8,0.1-16.2-1-22.7,2C-17.1-4.5-15.8-1.2-13.8-2"/>
	<rect x="14.1" y="29.2" class="st1" width="57.1" height="68.5"/>
	<path id="path2223" class="st2" d="M-11.6,115c48.7-3.5,97.8-0.4,146.3-5.1c2.8-0.3,2.9-4.8,0-4.5c-48.6,4.9-97.8-0.2-146.3,5.8
		C-14,111.5-14.1,115.2-11.6,115"/>
	<rect x="14.1" y="29.2" class="st1" width="57.1" height="68.5"/>
	<path id="path2225" class="st2" d="M131.3-4.1c4.4,36.9-1.1,74.7,1.1,111.7c0.2,2.9,4.7,2.9,4.5,0c-1.2-20-0.9-39.5-0.3-59.5
		c0.5-16.7,2.1-36.4-1.6-52.8C134.7-6.7,131.1-6.3,131.3-4.1"/>
	<rect x="14.1" y="29.2" class="st1" width="57.1" height="68.5"/>
	<path id="path2227" class="st2" d="M-16.2-3.8c-1.5,38.8,3.6,77.6,2.3,116.4c-0.1,2.9,4.4,2.9,4.5,0c1.2-38.5-1.3-77.9-3-116.4
		C-12.5-6.2-16.1-6.2-16.2-3.8"/>
	<rect x="14.1" y="29.2" class="st1" width="57.1" height="68.5"/>
	<path id="path2229" class="st2" d="M-9.3,86.4c7.5,0,14.6-1.5,22-2c2.5-0.2,2.6-3.9,0-3.9c-3.5-0.1-6.8,1-10.2,1.4
		c-4,0.4-7.9,0.6-11.8,0.7C-11.8,82.7-11.8,86.4-9.3,86.4"/>
	<rect x="14.1" y="29.2" class="st1" width="57.1" height="68.5"/>
	<path id="path2231" class="st2" d="M-11.7,22.4c2.7,1.5,6.1,0.8,9,0.4c4.7-0.6,9.3-1,14.1-0.8c2.6,0.1,2.6-3.9,0-4.1
		c-4-0.2-8,0-11.9,0.5c-3.2,0.4-6.5,1.4-9.8,0.7C-12.2,18.8-13.5,21.4-11.7,22.4"/>
	<rect x="14.1" y="29.2" class="st1" width="57.1" height="68.5"/>
	<path id="path2233" class="st2" d="M10.3,19.4C9.2,39.9,8,62,10.5,82.5c0.3,2.5,4.3,2.6,4,0c-2.6-20.9,0.1-42.2-0.9-63.1
		C13.6,17.2,10.4,17.2,10.3,19.4"/>
	<rect x="14.1" y="29.2" class="st1" width="57.1" height="68.5"/>
	<path id="path2235" class="st2" d="M-8.3,39.6c2.3,0.9,6.2,1.5,8.1-0.5c1.3-1.3,0-3.5-1.8-3.1c-2,0.5-3.4,0.7-5.4,0.1
		C-9.6,35.5-10.5,38.8-8.3,39.6"/>
	<rect x="14.1" y="29.2" class="st1" width="57.1" height="68.5"/>
	<path id="path2237" class="st2" d="M-7.7,71.7c1.2,0.5,2.7,0.3,4,0.1c1.3-0.2,2.9-0.3,4-1.1c0.8-0.6,1.2-1.4,0.8-2.3
		c-0.3-0.8-1.3-1.4-2.2-1.1c-1.4,0.5-3.9,1.4-5.5,0.9C-9,67.4-9.8,70.9-7.7,71.7"/>
	<rect x="14.1" y="29.2" class="st1" width="57.1" height="68.5"/>
	<path id="path2239" class="st2" d="M-2.8,37.6c0.5,10.5,0.5,21,0.5,31.6c0,2.5,3.8,2.5,3.9,0c0.1-10.6,0.8-21.6-1.1-32
		C0.1,35.2-2.9,35.7-2.8,37.6"/>
	<rect x="14.1" y="29.2" class="st1" width="57.1" height="68.5"/>
	<path id="path2241" class="st2" d="M12.2,40c5.1,3.4,10,6.1,11.2,12.7c0.8,4.6-0.7,9.5-4.7,12.1c-2,1.3-4.3,1.9-6.2,3.3
		c-2.1,1.5-0.2,5,2.1,3.6c3.4-2.1,7.3-3,9.9-6.2c2.5-3.1,3.6-7.7,3.3-11.6c-0.7-8.7-6.7-13.3-13.7-17.2C12,35.5,10.2,38.7,12.2,40"
		/>
	<rect x="14.1" y="29.2" class="st1" width="57.1" height="68.5"/>
	<path id="path2243" class="st2" d="M133.1,17.5c-7.5,0-14.6,1.5-22,2c-2.5,0.2-2.6,3.9,0,3.9c3.5,0.1,6.8-1,10.2-1.4
		c3.9-0.4,7.8-0.6,11.7-0.7C135.5,21.2,135.5,17.5,133.1,17.5"/>
	<rect x="14.1" y="29.2" class="st1" width="57.1" height="68.5"/>
	<path id="path2245" class="st2" d="M135.4,81.5c-2.7-1.5-6.1-0.8-9-0.4c-4.7,0.6-9.3,1-14.1,0.8c-2.6-0.1-2.6,3.9,0,4.1
		c4,0.2,8,0,11.9-0.5c3.2-0.4,6.5-1.4,9.8-0.7C136,85.2,137.3,82.5,135.4,81.5"/>
	<rect x="14.1" y="29.2" class="st1" width="57.1" height="68.5"/>
	<path id="path2247" class="st2" d="M113.5,84.5c1.1-20.6,2.3-42.6-0.2-63.1c-0.3-2.5-4.3-2.6-4,0c2.6,20.9-0.1,42.2,0.9,63.1
		C110.2,86.7,113.4,86.7,113.5,84.5"/>
	<rect x="14.1" y="29.2" class="st1" width="57.1" height="68.5"/>
	<path id="path2249" class="st2" d="M132.1,64.3c-2.3-0.9-6.2-1.5-8.1,0.5c-1.3,1.3,0,3.5,1.8,3.1c2-0.5,3.4-0.7,5.4-0.1
		C133.4,68.4,134.2,65.1,132.1,64.3"/>
	<rect x="14.1" y="29.2" class="st1" width="57.1" height="68.5"/>
	<path id="path2251" class="st2" d="M131.5,32.2c-1.2-0.5-2.7-0.3-4-0.1c-1.3,0.2-2.9,0.3-4,1.1c-0.8,0.6-1.2,1.4-0.8,2.3
		c0.3,0.8,1.3,1.4,2.2,1.1c1.4-0.5,3.9-1.4,5.5-0.9C132.7,36.5,133.6,33.1,131.5,32.2"/>
	<rect x="14.1" y="29.2" class="st1" width="57.1" height="68.5"/>
	<path id="path2253" class="st2" d="M126.6,66.4c-0.5-10.5-0.5-21-0.5-31.6c0-2.5-3.8-2.5-3.9,0c-0.1,10.6-0.8,21.6,1.1,32
		C123.6,68.7,126.7,68.3,126.6,66.4"/>
	<rect x="14.1" y="29.2" class="st1" width="57.1" height="68.5"/>
	<path id="path2255" class="st2" d="M111.5,63.9c-5.1-3.4-10-6.1-11.2-12.7c-0.8-4.6,0.7-9.5,4.7-12.1c2-1.3,4.3-1.9,6.2-3.3
		c2.1-1.5,0.2-5-2.1-3.6c-3.4,2.1-7.3,3-9.9,6.2c-2.5,3.1-3.6,7.7-3.3,11.6c0.7,8.7,6.7,13.3,13.7,17.2
		C111.8,68.4,113.6,65.3,111.5,63.9"/>
</g>
</svg>
