<?xml version="1.0" encoding="UTF-8" standalone="no"?>
<svg
   xmlns:dc="http://purl.org/dc/elements/1.1/"
   xmlns:cc="http://creativecommons.org/ns#"
   xmlns:rdf="http://www.w3.org/1999/02/22-rdf-syntax-ns#"
   xmlns:svg="http://www.w3.org/2000/svg"
   xmlns="http://www.w3.org/2000/svg"
   xmlns:xlink="http://www.w3.org/1999/xlink"
   xml:space="preserve"
   style="enable-background:new 0 0 118.3 141.9;"
   viewBox="0 0 118.3 141.9"
   y="0px"
   x="0px"
   id="Calque_1"
   version="1.1"><metadata
   id="metadata39"><rdf:RDF><cc:Work
       rdf:about=""><dc:format>image/svg+xml</dc:format><dc:type
         rdf:resource="http://purl.org/dc/dcmitype/StillImage" /><dc:title></dc:title></cc:Work></rdf:RDF></metadata><defs
   id="defs37"><rect
     id="SVGID_1_-2"
     width="164.8"
     height="122.4" /><rect
     height="122.4"
     width="133.3"
     id="SVGID_1_-1" /><rect
     height="122.3"
     width="155.7"
     id="SVGID_1_-6" /><rect
     height="236.1"
     width="300.6"
     id="SVGID_1_-0" /><rect
     height="236.1"
     width="300.6"
     id="SVGID_3_" /><rect
     height="236.1"
     width="300.6"
     id="SVGID_5_" /><rect
     height="236.1"
     width="300.6"
     id="SVGID_7_" /><rect
     height="236.1"
     width="300.6"
     id="SVGID_9_" /><rect
     height="236.1"
     width="300.6"
     id="SVGID_11_" /><rect
     height="236.1"
     width="300.6"
     id="SVGID_13_" /><rect
     height="236.1"
     width="300.6"
     id="SVGID_15_" /><rect
     height="236.1"
     width="300.6"
     id="SVGID_17_" /><rect
     height="236.1"
     width="300.6"
     id="SVGID_19_" /><rect
     height="236.1"
     width="300.6"
     id="SVGID_21_" /><rect
     height="236.1"
     width="300.6"
     id="SVGID_23_" /><rect
     height="236.1"
     width="300.6"
     id="SVGID_25_" /><rect
     height="236.1"
     width="300.6"
     id="SVGID_27_" /><rect
     height="236.1"
     width="300.6"
     id="SVGID_29_" /><rect
     id="SVGID_1_-9"
     width="154"
     height="122.5" /></defs>
<style
   id="style2"
   type="text/css">
	.st0{clip-path:url(#SVGID_2_);fill:#181716;}
	.st1{clip-path:url(#SVGID_4_);fill:#91D900;}
</style>
<g
   transform="translate(-0.01878972,-0.43216365)"
   id="g12"
   style="fill:#000000;fill-opacity:1">
	<defs
   id="defs5">
		<rect
   y="0"
   x="0"
   height="141.89999"
   width="118.3"
   id="SVGID_1_" />
	</defs>
	<clipPath
   id="SVGID_2_">
		<use
   height="100%"
   width="100%"
   y="0"
   x="0"
   id="use7"
   style="overflow:visible"
   xlink:href="#SVGID_1_" />
	</clipPath>
	<path
   id="path10"
   clip-path="url(#SVGID_2_)"
   d="M 105.4,8 C 104.6,2.9 99.8,-0.7 94.6,0.1 L 5.5,12.9 C 2,13.4 -0.4,16.7 0.1,20.2 l 8.3,56.4 c 0.7,4.4 2.3,8.6 4.9,12.3 8,11.4 25.7,36.9 30,42.9 1.1,1.7 4.2,6.3 6.3,9.4 0.8,1.2 2.6,0.9 3,-0.4 1.4,-4 3.8,-10.8 4.9,-13.6 2.6,-6.4 6.5,-18.7 7.7,-22.5 0.2,-0.7 0.8,-1.2 1.6,-1.3 l 5.4,-0.9 24.4,-4.8 16.4,-3.3 c 3.5,-0.6 5.9,-3.9 5.4,-7.4 -3.4,-20.3 -13,-79 -13,-79"
   class="st0"
   style="fill:#000000;fill-opacity:1" />
</g>

<style
   type="text/css"
   id="style846">
	.st0{clip-path:url(#SVGID_2_);fill:#A7D900;}
</style><style
   id="style849"
   type="text/css">
	.st0{clip-path:url(#SVGID_2_);fill:#A7D900;}
</style><style
   id="style963"
   type="text/css">
	.st0{clip-path:url(#SVGID_2_);fill:#A7D900;}
</style><style
   type="text/css"
   id="style2209">
	.st0{clip-path:url(#SVGID_2_);fill:#A7D900;}
</style><g
   transform="matrix(0.48293254,0,0,0.48293254,31.63173,26.900403)"
   id="g2257">
	<defs
   id="defs2212">
		<rect
   y="0"
   x="0"
   id="rect2268"
   width="154"
   height="122.5" />
	</defs>
	<clipPath
   id="SVGID_2_-9">
		<use
   height="100%"
   width="100%"
   y="0"
   x="0"
   xlink:href="#SVGID_1_-9"
   style="overflow:visible"
   id="use2214" />
	</clipPath>
	<path
   style="fill:#a7d900"
   class="st0"
   d="m 74.9,4.2 c 0.7,8.8 -1.3,17.9 -1,26.8 0.2,9.8 0.1,19.6 0.3,29.4 0.4,18.8 1,37.4 0.9,56.2 0,3 4.6,3 4.6,0 C 79.7,97 79,77.4 78.6,57.8 78.4,47.1 78,36.1 78.1,25.4 78.2,18 79.9,11 78.8,3.7 78.5,1.5 74.7,2 74.9,4.2"
   clip-path="url(#SVGID_2_)"
   id="path2217" />
	<path
   style="fill:#a7d900"
   class="st0"
   d="m 89.8,45.5 c -6.6,-8 -22.6,-3.3 -28.3,3.6 -6.6,8.1 -8.5,22.8 0,30.2 8.6,7.6 23.8,9.2 31.8,-0.1 6.9,-8.1 4.6,-23.1 -2.2,-30.6 -2.1,-2.3 -5.5,1.1 -3.4,3.4 4.8,5.3 6.8,16.5 3.2,22.6 -5.5,9.1 -20,7.5 -26.8,0.8 -5.7,-5.6 -4.1,-16.3 0,-22.3 4.9,-7 16.2,-9.1 23.5,-4.8 1.9,1.1 3.4,-1.3 2.2,-2.8"
   clip-path="url(#SVGID_2_)"
   id="path2219" />
	<path
   style="fill:#a7d900"
   class="st0"
   d="M 2.7,5.5 C 12.4,1.6 27.4,4.3 37.6,4.2 49.8,4.1 62,4.8 74.2,5 c 25.1,0.4 50.4,1 75.5,0.6 2.8,0 2.8,-4.4 0,-4.3 C 122.1,1.5 94.3,1.4 66.7,0.6 52.5,0.1 38.2,0 23.9,0.1 17.1,0.2 7.7,-0.9 1.2,2.1 -0.6,3 0.7,6.3 2.7,5.5"
   clip-path="url(#SVGID_2_)"
   id="path2221" />
	<path
   style="fill:#a7d900"
   class="st0"
   d="m 4.9,122.5 c 48.7,-3.5 97.8,-0.4 146.3,-5.1 2.8,-0.3 2.9,-4.8 0,-4.5 -48.6,4.9 -97.8,-0.2 -146.3,5.8 -2.4,0.3 -2.5,4 0,3.8"
   clip-path="url(#SVGID_2_)"
   id="path2223" />
	<path
   style="fill:#a7d900"
   class="st0"
   d="m 147.8,3.4 c 4.4,36.9 -1.1,74.7 1.1,111.7 0.2,2.9 4.7,2.9 4.5,0 -1.2,-20 -0.9,-39.5 -0.3,-59.5 0.5,-16.7 2.1,-36.4 -1.6,-52.8 -0.3,-2 -3.9,-1.6 -3.7,0.6"
   clip-path="url(#SVGID_2_)"
   id="path2225" />
	<path
   style="fill:#a7d900"
   class="st0"
   d="M 0.3,3.7 C -1.2,42.5 3.9,81.3 2.6,120.1 2.5,123 7,123 7.1,120.1 8.3,81.6 5.8,42.2 4.1,3.7 4,1.3 0.4,1.3 0.3,3.7"
   clip-path="url(#SVGID_2_)"
   id="path2227" />
	<path
   style="fill:#a7d900"
   class="st0"
   d="m 7.2,93.9 c 7.5,0 14.6,-1.5 22,-2 2.5,-0.2 2.6,-3.9 0,-3.9 -3.5,-0.1 -6.8,1 -10.2,1.4 -4,0.4 -7.9,0.6 -11.8,0.7 -2.5,0.1 -2.5,3.8 0,3.8"
   clip-path="url(#SVGID_2_)"
   id="path2229" />
	<path
   style="fill:#a7d900"
   class="st0"
   d="m 4.8,29.9 c 2.7,1.5 6.1,0.8 9,0.4 4.7,-0.6 9.3,-1 14.1,-0.8 2.6,0.1 2.6,-3.9 0,-4.1 -4,-0.2 -8,0 -11.9,0.5 -3.2,0.4 -6.5,1.4 -9.8,0.7 C 4.3,26.3 3,28.9 4.8,29.9"
   clip-path="url(#SVGID_2_)"
   id="path2231" />
	<path
   style="fill:#a7d900"
   class="st0"
   d="M 26.8,26.9 C 25.7,47.4 24.5,69.5 27,90 c 0.3,2.5 4.3,2.6 4,0 -2.6,-20.9 0.1,-42.2 -0.9,-63.1 0,-2.2 -3.2,-2.2 -3.3,0"
   clip-path="url(#SVGID_2_)"
   id="path2233" />
	<path
   style="fill:#a7d900"
   class="st0"
   d="m 8.2,47.1 c 2.3,0.9 6.2,1.5 8.1,-0.5 1.3,-1.3 0,-3.5 -1.8,-3.1 -2,0.5 -3.4,0.7 -5.4,0.1 C 6.9,43 6,46.3 8.2,47.1"
   clip-path="url(#SVGID_2_)"
   id="path2235" />
	<path
   style="fill:#a7d900"
   class="st0"
   d="m 8.8,79.2 c 1.2,0.5 2.7,0.3 4,0.1 1.3,-0.2 2.9,-0.3 4,-1.1 0.8,-0.6 1.2,-1.4 0.8,-2.3 -0.3,-0.8 -1.3,-1.4 -2.2,-1.1 -1.4,0.5 -3.9,1.4 -5.5,0.9 -2.4,-0.8 -3.2,2.7 -1.1,3.5"
   clip-path="url(#SVGID_2_)"
   id="path2237" />
	<path
   style="fill:#a7d900"
   class="st0"
   d="m 13.7,45.1 c 0.5,10.5 0.5,21 0.5,31.6 0,2.5 3.8,2.5 3.9,0 0.1,-10.6 0.8,-21.6 -1.1,-32 -0.4,-2 -3.4,-1.5 -3.3,0.4"
   clip-path="url(#SVGID_2_)"
   id="path2239" />
	<path
   style="fill:#a7d900"
   class="st0"
   d="m 28.7,47.5 c 5.1,3.4 10,6.1 11.2,12.7 0.8,4.6 -0.7,9.5 -4.7,12.1 -2,1.3 -4.3,1.9 -6.2,3.3 -2.1,1.5 -0.2,5 2.1,3.6 3.4,-2.1 7.3,-3 9.9,-6.2 2.5,-3.1 3.6,-7.7 3.3,-11.6 -0.7,-8.7 -6.7,-13.3 -13.7,-17.2 -2.1,-1.2 -3.9,2 -1.9,3.3"
   clip-path="url(#SVGID_2_)"
   id="path2241" />
	<path
   style="fill:#a7d900"
   class="st0"
   d="m 149.6,25 c -7.5,0 -14.6,1.5 -22,2 -2.5,0.2 -2.6,3.9 0,3.9 3.5,0.1 6.8,-1 10.2,-1.4 3.9,-0.4 7.8,-0.6 11.7,-0.7 2.5,-0.1 2.5,-3.8 0.1,-3.8"
   clip-path="url(#SVGID_2_)"
   id="path2243" />
	<path
   style="fill:#a7d900"
   class="st0"
   d="m 151.9,89 c -2.7,-1.5 -6.1,-0.8 -9,-0.4 -4.7,0.6 -9.3,1 -14.1,0.8 -2.6,-0.1 -2.6,3.9 0,4.1 4,0.2 8,0 11.9,-0.5 3.2,-0.4 6.5,-1.4 9.8,-0.7 2,0.4 3.3,-2.3 1.4,-3.3"
   clip-path="url(#SVGID_2_)"
   id="path2245" />
	<path
   style="fill:#a7d900"
   class="st0"
   d="m 130,92 c 1.1,-20.6 2.3,-42.6 -0.2,-63.1 -0.3,-2.5 -4.3,-2.6 -4,0 2.6,20.9 -0.1,42.2 0.9,63.1 0,2.2 3.2,2.2 3.3,0"
   clip-path="url(#SVGID_2_)"
   id="path2247" />
	<path
   style="fill:#a7d900"
   class="st0"
   d="m 148.6,71.8 c -2.3,-0.9 -6.2,-1.5 -8.1,0.5 -1.3,1.3 0,3.5 1.8,3.1 2,-0.5 3.4,-0.7 5.4,-0.1 2.2,0.6 3,-2.7 0.9,-3.5"
   clip-path="url(#SVGID_2_)"
   id="path2249" />
	<path
   style="fill:#a7d900"
   class="st0"
   d="m 148,39.7 c -1.2,-0.5 -2.7,-0.3 -4,-0.1 -1.3,0.2 -2.9,0.3 -4,1.1 -0.8,0.6 -1.2,1.4 -0.8,2.3 0.3,0.8 1.3,1.4 2.2,1.1 1.4,-0.5 3.9,-1.4 5.5,-0.9 2.3,0.8 3.2,-2.6 1.1,-3.5"
   clip-path="url(#SVGID_2_)"
   id="path2251" />
	<path
   style="fill:#a7d900"
   class="st0"
   d="m 143.1,73.9 c -0.5,-10.5 -0.5,-21 -0.5,-31.6 0,-2.5 -3.8,-2.5 -3.9,0 -0.1,10.6 -0.8,21.6 1.1,32 0.3,1.9 3.4,1.5 3.3,-0.4"
   clip-path="url(#SVGID_2_)"
   id="path2253" />
	<path
   style="fill:#a7d900"
   class="st0"
   d="m 128,71.4 c -5.1,-3.4 -10,-6.1 -11.2,-12.7 -0.8,-4.6 0.7,-9.5 4.7,-12.1 2,-1.3 4.3,-1.9 6.2,-3.3 2.1,-1.5 0.2,-5 -2.1,-3.6 -3.4,2.1 -7.3,3 -9.9,6.2 -2.5,3.1 -3.6,7.7 -3.3,11.6 0.7,8.7 6.7,13.3 13.7,17.2 2.2,1.2 4,-1.9 1.9,-3.3"
   clip-path="url(#SVGID_2_)"
   id="path2255" />
</g></svg>