<?xml version="1.0" encoding="utf-8"?>
<!-- Generator: Adobe Illustrator 23.1.1, SVG Export Plug-In . SVG Version: 6.00 Build 0)  -->
<svg version="1.1" id="Calque_1" xmlns="http://www.w3.org/2000/svg" xmlns:xlink="http://www.w3.org/1999/xlink" x="0px" y="0px"
	 viewBox="0 0 25.4 25.2" style="enable-background:new 0 0 25.4 25.2;" xml:space="preserve">
<style type="text/css">
	.st0{clip-path:url(#SVGID_2_);fill:#91D900;}
	.st1{clip-path:url(#SVGID_4_);fill:#FFFFFF;}
	.st2{clip-path:url(#SVGID_6_);fill:#FFFFFF;}
	.st3{clip-path:url(#SVGID_8_);fill:#FFFFFF;}
</style>
<g>
	<g>
		<defs>
			<rect id="SVGID_1_" x="0.2" y="0.1" width="25" height="25"/>
		</defs>
		<clipPath id="SVGID_2_">
			<use xlink:href="#SVGID_1_"  style="overflow:visible;"/>
		</clipPath>
		<path class="st0" d="M12.7,25.1c6.9,0,12.5-5.6,12.5-12.5S19.6,0.1,12.7,0.1S0.2,5.7,0.2,12.6S5.8,25.1,12.7,25.1"/>
	</g>
</g>
<g>
	<g>
		<defs>
			<circle id="SVGID_3_" cx="12.7" cy="12.6" r="12.5"/>
		</defs>
		<clipPath id="SVGID_4_">
			<use xlink:href="#SVGID_3_"  style="overflow:visible;"/>
		</clipPath>
		<path class="st1" d="M18.4,14.8c0,1.9-1.6,3.5-3.5,3.5h-4.3c-1.9,0-3.5-1.6-3.5-3.5v-4.3c0-2,1.5-3.5,3.4-3.5h4.3
			c1.9,0,3.5,1.6,3.5,3.5v4.3H18.4z M15.4,5.6H10c-2.4,0-4.3,1.9-4.3,4.3v5.4c0,2.4,1.9,4.3,4.3,4.3h5.4c2.4,0,4.3-1.9,4.3-4.3V9.9
			C19.7,7.5,17.8,5.6,15.4,5.6"/>
	</g>
	<g>
		<defs>
			<circle id="SVGID_5_" cx="12.7" cy="12.6" r="12.5"/>
		</defs>
		<clipPath id="SVGID_6_">
			<use xlink:href="#SVGID_5_"  style="overflow:visible;"/>
		</clipPath>
		<path class="st2" d="M12.9,14.9c-1.2,0-2.2-1-2.2-2.2s1-2.2,2.2-2.2s2.2,1,2.2,2.2C15.1,13.9,14.1,14.9,12.9,14.9 M12.9,8.9
			c-2,0-3.7,1.7-3.7,3.7s1.7,3.7,3.7,3.7s3.7-1.7,3.7-3.7S14.9,8.9,12.9,8.9"/>
	</g>
	<g>
		<defs>
			<circle id="SVGID_7_" cx="12.7" cy="12.6" r="12.5"/>
		</defs>
		<clipPath id="SVGID_8_">
			<use xlink:href="#SVGID_7_"  style="overflow:visible;"/>
		</clipPath>
		<path class="st3" d="M17.3,8.9c0,0.5-0.4,0.9-0.9,0.9s-0.9-0.4-0.9-0.9S15.9,8,16.4,8C16.9,8,17.3,8.4,17.3,8.9"/>
	</g>
</g>
</svg>
