<?xml version="1.0" encoding="utf-8"?>
<!-- Generator: Adobe Illustrator 23.1.1, SVG Export Plug-In . SVG Version: 6.00 Build 0)  -->
<svg version="1.1" id="Calque_1" xmlns="http://www.w3.org/2000/svg" xmlns:xlink="http://www.w3.org/1999/xlink" x="0px" y="0px"
	 viewBox="0 0 1200 4" style="enable-background:new 0 0 1200 4;" xml:space="preserve">
<style type="text/css">
	.st0{clip-path:url(#SVGID_2_);fill:#91D900;}
</style>
<g>
	<defs>
		<rect id="SVGID_1_" x="0.6" y="0.4" width="1199.6" height="3.4"/>
	</defs>
	<clipPath id="SVGID_2_">
		<use xlink:href="#SVGID_1_"  style="overflow:visible;"/>
	</clipPath>
	<path class="st0" d="M0.9,2.9c0.6,0.7,1.9,0.5,2.8,0.5c1,0,2.3,0.2,3.2-0.1c1.2-0.5,1.2-2.1,0-2.5C5.9,0.4,4.7,0.6,3.7,0.6
		c-0.9,0-2.2-0.2-2.8,0.5C0.5,1.7,0.5,2.3,0.9,2.9"/>
	<path class="st0" d="M13.4,3.2c0.9,0.2,1.8,0.2,2.7,0.3c0.9,0.1,1.9,0.3,2.7-0.1c1.2-0.5,1.4-2.3,0-2.7c-0.9-0.2-1.8-0.1-2.7-0.1
		c-0.9,0-1.8-0.1-2.7,0C12.2,0.9,12.2,2.9,13.4,3.2"/>
	<path class="st0" d="M26.1,3.5C27.4,3.2,28.7,3,30,3.3c2,0.4,2.4-2.5,0.4-2.8c-1.7-0.2-3.3,0-5,0.4C23.8,1.4,24.5,3.9,26.1,3.5"/>
	<path class="st0" d="M37.3,3.2c1.5,0.2,3,0.2,4.5,0.2c1.8,0,1.9-2.9,0-2.9c-1.5,0-3,0-4.5,0.2C36.1,1,36.1,3.1,37.3,3.2"/>
	<path class="st0" d="M49.2,3.4c0.6,0,1.1-0.1,1.7-0.1c0.4,0,1.3,0.1,1.5,0.1c2.3,0.4,2.4-3.1,0.4-2.9c-1.4,0.1-2.9-0.3-4.2,0.5
		C47.4,1.6,47.9,3.5,49.2,3.4"/>
	<path class="st0" d="M59.8,3.3c1.8,0.3,3.7,0.3,5.5,0.1c1.8-0.3,1-3.5-0.8-2.8C63,1,61.3,0.6,59.8,0.9C58.6,1,58.6,3.1,59.8,3.3"/>
	<path class="st0" d="M71.8,3.3c1.3,0.3,2.7,0.1,4,0.3c1.9,0.2,1.9-2.9,0-3c-1.3-0.1-2.8,0-4,0.3C70.6,1.1,70.5,3,71.8,3.3"/>
	<path class="st0" d="M83,3.3c0.6,0.1,1.2,0,1.8,0.1c0.6,0,1.1,0.2,1.8,0.1c1.1-0.2,1.2-1.6,0.6-2.3c-1.1-1.1-3.2-0.6-4.5-0.5
		c-0.6,0.1-1,0.9-0.9,1.4C81.9,2.8,82.4,3.2,83,3.3"/>
	<path class="st0" d="M93.5,3.2c0.7,0.1,1.4,0,2.1,0c0.7,0,1.3,0.4,1.9,0.3c1-0.1,1.5-1,1.1-2c-0.8-1.8-4-1.1-5.5-0.9
		c-0.6,0.1-1,0.8-0.9,1.4C92.3,2.8,92.9,3.1,93.5,3.2"/>
	<path class="st0" d="M104.7,3.4c0.9,0,1.8-0.2,2.7-0.1c0.9,0,1.9,0.3,2.8,0.1c1.4-0.4,1.3-2.3,0-2.7c-0.9-0.3-2.2-0.2-3.2-0.2
		c-1,0-2.4,0-3.2,0.8C103.1,2.1,103.7,3.4,104.7,3.4"/>
	<path class="st0" d="M117.7,3.2C117.7,3.2,117.7,3.2,117.7,3.2c-0.4-0.1-0.9-0.2-1.4-0.2c0.6,0.7,1.4,0.3,2.2,0.3
		c0.8,0,1.5,0,2.3,0c2.1,0.2,1.7-3.6-0.4-2.9c-0.4,0.1-1.2,0.1-1.8,0.1c-0.7,0-1.4,0.1-2,0.4c-0.4,0.2-0.7,0.7-0.7,1.1c0,0,0,0,0,0
		c0.1-0.3,0.2-0.6,0.4-0.9c0,0,0,0-0.1,0.1C115.3,2.3,116.5,3.9,117.7,3.2"/>
	<path class="st0" d="M128.6,3.1c-0.5,0.1-0.6,0.2-0.3,0.1c0.2,0,0.2,0,0.1,0c-0.2,0,0.2,0,0.3,0c0.3,0,0.7,0,1,0.1
		c0.2,0,0.4,0.1,0.7,0.1c0.1,0,0.3,0.1,0.1,0c0.3,0.1,0.5,0.2,0.8,0.2c1.1-0.1,1.8-1.1,1.2-2.1c-0.5-0.9-1.9-1-2.9-1
		c-1,0-2,0.1-2.6,1C126.2,2.5,127.6,3.7,128.6,3.1"/>
	<path class="st0" d="M137.6,2.8c0.6,0.6,1.6,0.5,2.4,0.6c0.9,0.1,1.8,0.2,2.7,0.2c-0.2-0.9-0.5-1.8-0.7-2.8
		c-0.3,0.1-0.4,0.3-0.7,0.5c-1,0.8-0.1,2.3,1,2.4c0.4,0,0.8-0.1,1.2-0.3c1.4-0.6,0.6-2.8-0.7-2.8c-0.9,0-1.9-0.1-2.8-0.1
		c-0.9,0-1.9-0.1-2.5,0.8C137.1,1.7,137.2,2.4,137.6,2.8"/>
	<path class="st0" d="M149.6,3.2c1.4,0.3,3.1,0.7,4.4,0c1.2-0.6,0.7-2.8-0.7-2.6c-0.6,0.1-1.1,0.2-1.7,0.2c-0.6,0-1.1-0.1-1.7,0
		C148.7,0.8,148.1,2.9,149.6,3.2"/>
	<path class="st0" d="M160.3,3.1c1.2,0.4,2.6,0.4,3.9,0.4c1.9,0.1,1.9-3,0-2.9c-1.2,0.1-2.4,0.2-3.6,0.1
		C159.1,0.5,159,2.7,160.3,3.1"/>
	<path class="st0" d="M172,3.2C172,3.2,172,3.1,172,3.2c-0.2,0-0.6,0-0.9,0.1c0.6,0.2,1.5,0.1,2.2,0.1c0.8,0.1,1.6,0.2,2.4,0.2
		c1.9,0.1,1.9-3,0-2.9c-0.9,0-1.9-0.1-2.8-0.1c-0.5,0-1,0-1.4,0.1c-0.2,0.1-0.4,0.1-0.6,0.2c-0.2,0.1-0.4,0.3-0.5,0.5
		c-0.2,0.5-0.2,0.4,0.1-0.1C169.4,2.2,170.8,3.9,172,3.2"/>
	<path class="st0" d="M182.2,3c1.8,0.9,3.6,0.3,5.4,0.5c1.9,0.2,1.9-3.2,0-3c-1.4,0.2-3,0.3-4.4,0.1c-0.7-0.1-1.3,0.1-1.5,0.8
		C181.5,1.9,181.7,2.7,182.2,3"/>
	<path class="st0" d="M194.6,3.4c0.6,0.2,1.4,0,2,0c0.9,0,1.5,0,2.2-0.6c0.8-0.7,0.4-2.1-0.6-2.3c-0.8-0.2-1.5,0.1-2.3,0.2
		c-0.9,0.1-1.5,0.3-2,1C193.4,2.3,193.9,3.2,194.6,3.4"/>
	<path class="st0" d="M204.7,3.2c0.9,0.1,1.8,0.2,2.6,0.3c0.8,0.1,1.7,0.3,2.5-0.1c1-0.6,0.8-1.9,0-2.5c-0.6-0.5-1.7-0.3-2.5-0.3
		c-0.9,0-1.8,0-2.6,0.2C203.5,0.9,203.5,3,204.7,3.2"/>
	<path class="st0" d="M216,3.3c1.6,0.2,3.1,0.1,4.7,0.2c2,0.1,2-3.2,0-3c-1.6,0.1-3.1,0-4.7,0.2C214.7,0.9,214.7,3.1,216,3.3"/>
	<path class="st0" d="M227.9,3.5c0.6,0,1.3,0,2.1,0c0.9,0.1,1.9,0.1,2.6-0.6c0.9-0.9,0.2-2.4-1-2.5c-0.4,0-0.7,0.1-1,0.1
		c-0.4,0-0.8,0-1.2,0c-0.8,0-1.8,0-2.3,0.6C226.3,2,226.7,3.5,227.9,3.5"/>
	<path class="st0" d="M238.5,3c1.4,0.3,2.9,0.7,4.4,0.5c1.4-0.2,1.3-2.5,0-2.8c-1.4-0.3-3-0.4-4.4-0.1C237.3,0.9,237.3,2.8,238.5,3"
		/>
	<path class="st0" d="M249.4,3.4c0.8,0.1,1.7,0.1,2.5,0.1c0.8,0,1.8,0.1,2.5-0.2c1.3-0.5,1.3-2.2,0-2.7c-0.8-0.3-1.6-0.1-2.4,0
		c-0.8,0.1-1.5,0.1-2.3,0.1C248.3,0.8,247.8,3.2,249.4,3.4"/>
	<path class="st0" d="M260.9,3.3c0.9,0.3,2,0.2,3,0.2c1.9,0,1.9-3,0-3c-1,0-2,0-3,0.2C259.7,1.1,259.7,3,260.9,3.3"/>
	<path class="st0" d="M270.8,3.2c1.4,0.2,3.2,0.6,4.6,0.2c1.2-0.4,1.5-2.5,0-2.7c-0.7-0.1-1.4-0.1-2.1-0.1c-0.7,0-1.4-0.1-2.1,0
		c-0.7,0.1-1.2,0.5-1.3,1.2C269.7,2.3,270.1,3.1,270.8,3.2"/>
	<path class="st0" d="M282.2,3.4c1.2,0.1,2.5,0.1,3.7,0.2c2,0.1,2-3.2,0-3.1c-1.2,0.1-2.5,0-3.7,0.2C280.4,0.8,280.4,3.2,282.2,3.4"
		/>
	<path class="st0" d="M292.8,3.3c1.7,0.3,4.6,0.9,6-0.4c0.9-0.9,0.2-2.5-1-2.5c-0.7,0-1.5,0.3-2.2,0.3c-0.8,0-1.6-0.1-2.4,0
		c-0.7,0.1-1.2,0.4-1.3,1.2C291.7,2.5,292.1,3.2,292.8,3.3"/>
	<path class="st0" d="M304.7,3.2c0.8,0.1,1.6,0.2,2.4,0.3s1.6,0.2,2.4,0c1.2-0.4,1.5-2.4,0-2.7c-0.8-0.2-1.6-0.1-2.4-0.1
		c-0.8,0-1.6-0.1-2.4,0.1C303.4,0.9,303.4,3,304.7,3.2"/>
	<path class="st0" d="M315.9,3.1c1.4,0.3,2.8,0.5,4.2,0.6c2,0.1,2-3.2,0-3.1c-1.4,0.1-2.8-0.3-4.2,0C314.6,0.8,314.7,2.9,315.9,3.1"
		/>
	<path class="st0" d="M325.8,2.9c0.6,0.7,1.9,0.5,2.8,0.5c1,0,2.3,0.2,3.2-0.1c1.2-0.5,1.2-2.1,0-2.5c-0.9-0.3-2.2-0.1-3.2-0.1
		c-0.9,0-2.2-0.2-2.8,0.5C325.3,1.7,325.3,2.3,325.8,2.9"/>
	<path class="st0" d="M338.3,3.2c0.9,0.2,1.8,0.2,2.7,0.3c0.9,0.1,1.9,0.3,2.7-0.1c1.2-0.5,1.4-2.3,0-2.7c-0.9-0.2-1.8-0.1-2.7-0.1
		c-0.9,0-1.8-0.1-2.7,0C337,0.9,337.1,2.9,338.3,3.2"/>
	<path class="st0" d="M351,3.5c1.3-0.3,2.6-0.5,3.9-0.2c2,0.4,2.4-2.5,0.4-2.8c-1.7-0.2-3.3,0-5,0.4C348.6,1.4,349.3,3.9,351,3.5"/>
	<path class="st0" d="M362.1,3.2c1.5,0.2,3,0.2,4.5,0.2c1.9,0,1.9-2.9,0-2.9c-1.5,0-3,0-4.5,0.2C360.9,1,360.9,3.1,362.1,3.2"/>
	<path class="st0" d="M374,3.4c0.6,0,1.1-0.1,1.7-0.1c0.4,0,1.3,0.1,1.5,0.1c2.3,0.4,2.4-3.1,0.4-2.9c-1.4,0.1-2.9-0.3-4.2,0.5
		C372.3,1.6,372.7,3.5,374,3.4"/>
	<path class="st0" d="M384.6,3.3c1.8,0.3,3.7,0.3,5.5,0.1s1-3.5-0.8-2.8c-1.5,0.5-3.2,0.1-4.7,0.4C383.4,1,383.5,3.1,384.6,3.3"/>
	<path class="st0" d="M396.6,3.3c1.3,0.3,2.7,0.1,4,0.3c1.9,0.2,1.9-2.9,0-3c-1.3-0.1-2.8,0-4,0.3C395.4,1.1,395.4,3,396.6,3.3"/>
	<path class="st0" d="M407.9,3.3c0.6,0.1,1.2,0,1.8,0.1c0.6,0,1.1,0.2,1.8,0.1c1.1-0.2,1.2-1.6,0.6-2.3c-1.1-1.1-3.2-0.6-4.5-0.5
		c-0.6,0.1-1,0.9-0.9,1.4C406.7,2.8,407.2,3.2,407.9,3.3"/>
	<path class="st0" d="M418.4,3.2c0.7,0.1,1.4,0,2.1,0c0.7,0,1.3,0.4,1.9,0.3c1-0.1,1.5-1,1.1-2c-0.8-1.8-4-1.1-5.5-0.9
		c-0.6,0.1-1,0.8-0.9,1.4C417.2,2.8,417.7,3.1,418.4,3.2"/>
	<path class="st0" d="M429.6,3.4c0.9,0,1.8-0.2,2.7-0.1c0.9,0,1.9,0.3,2.8,0.1c1.4-0.4,1.3-2.3,0-2.7c-0.9-0.3-2.2-0.2-3.2-0.2
		c-1,0-2.4,0-3.2,0.8C428,2.1,428.5,3.4,429.6,3.4"/>
	<path class="st0" d="M442.5,3.2C442.6,3.2,442.6,3.2,442.5,3.2c-0.4-0.1-0.9-0.2-1.4-0.2c0.6,0.7,1.4,0.3,2.2,0.3
		c0.8,0,1.5,0,2.3,0c2.1,0.2,1.7-3.6-0.4-2.9c-0.4,0.1-1.2,0.1-1.8,0.1c-0.7,0-1.4,0.1-2,0.4c-0.4,0.2-0.7,0.7-0.7,1.1c0,0,0,0,0,0
		c0.1-0.3,0.2-0.6,0.4-0.9c0,0,0,0-0.1,0.1C440.1,2.3,441.3,3.9,442.5,3.2"/>
	<path class="st0" d="M453.5,3.1c-0.5,0.1-0.6,0.2-0.3,0.1c0.2,0,0.2,0,0.1,0c-0.2,0,0.2,0,0.3,0c0.3,0,0.7,0,1,0.1
		c0.2,0,0.4,0.1,0.7,0.1c0.1,0,0.3,0.1,0.1,0c0.3,0.1,0.5,0.2,0.8,0.2c1.1-0.1,1.8-1.1,1.2-2.1c-0.5-0.9-1.9-1-2.9-1
		c-1,0-2,0.1-2.6,1C451.1,2.5,452.5,3.7,453.5,3.1"/>
	<path class="st0" d="M462.4,2.8c0.6,0.6,1.6,0.5,2.4,0.6c0.9,0.1,1.8,0.2,2.7,0.2c-0.2-0.9-0.5-1.8-0.7-2.8
		c-0.3,0.1-0.4,0.3-0.7,0.5c-1,0.8-0.1,2.3,1,2.4c0.4,0,0.8-0.1,1.2-0.3c1.4-0.6,0.6-2.8-0.7-2.8c-0.9,0-1.9-0.1-2.8-0.1
		c-0.9,0-1.9-0.1-2.5,0.8C461.9,1.7,462.1,2.4,462.4,2.8"/>
	<path class="st0" d="M474.5,3.2c1.4,0.3,3.1,0.7,4.4,0c1.2-0.6,0.7-2.8-0.7-2.6c-0.6,0.1-1.1,0.2-1.7,0.2c-0.6,0-1.1-0.1-1.7,0
		C473.5,0.8,473,2.9,474.5,3.2"/>
	<path class="st0" d="M485.1,3.1c1.2,0.4,2.6,0.4,3.9,0.4c1.9,0.1,1.9-3,0-2.9c-1.2,0.1-2.4,0.2-3.6,0.1
		C484,0.5,483.9,2.7,485.1,3.1"/>
	<path class="st0" d="M496.8,3.2C496.9,3.2,496.9,3.1,496.8,3.2c-0.2,0-0.6,0-0.9,0.1c0.6,0.2,1.5,0.1,2.2,0.1
		c0.8,0.1,1.6,0.2,2.4,0.2c1.9,0.1,1.9-3,0-2.9c-0.9,0-1.9-0.1-2.8-0.1c-0.5,0-1,0-1.4,0.1c-0.2,0.1-0.4,0.1-0.6,0.2
		c-0.2,0.1-0.4,0.3-0.5,0.5c-0.2,0.5-0.2,0.4,0.1-0.1C494.3,2.2,495.7,3.9,496.8,3.2"/>
	<path class="st0" d="M507.1,3c1.8,0.9,3.6,0.3,5.4,0.5c1.9,0.2,1.9-3.2,0-3c-1.4,0.2-3,0.3-4.4,0.1c-0.7-0.1-1.3,0.1-1.5,0.8
		C506.3,1.9,506.5,2.7,507.1,3"/>
	<path class="st0" d="M519.5,3.4c0.6,0.2,1.4,0,2,0c0.9,0,1.5,0,2.2-0.6c0.8-0.7,0.4-2.1-0.6-2.3c-0.8-0.2-1.5,0.1-2.3,0.2
		c-0.9,0.1-1.5,0.3-2,1C518.3,2.3,518.8,3.2,519.5,3.4"/>
	<path class="st0" d="M529.6,3.2c0.9,0.1,1.8,0.2,2.6,0.3c0.8,0.1,1.7,0.3,2.5-0.1c1-0.6,0.8-1.9,0-2.5c-0.6-0.5-1.7-0.3-2.5-0.3
		c-0.9,0-1.8,0-2.6,0.2C528.3,0.9,528.3,3,529.6,3.2"/>
	<path class="st0" d="M540.8,3.3c1.6,0.2,3.1,0.1,4.7,0.2c2,0.1,2-3.2,0-3c-1.6,0.1-3.1,0-4.7,0.2C539.5,0.9,539.5,3.1,540.8,3.3"/>
	<path class="st0" d="M552.8,3.5c0.6,0,1.3,0,2.1,0c0.9,0.1,1.9,0.1,2.6-0.6c0.9-0.9,0.2-2.4-1-2.5c-0.4,0-0.7,0.1-1,0.1
		c-0.4,0-0.8,0-1.2,0c-0.8,0-1.8,0-2.3,0.6C551.1,2,551.6,3.5,552.8,3.5"/>
	<path class="st0" d="M563.3,3c1.4,0.3,2.9,0.7,4.4,0.5c1.4-0.2,1.3-2.5,0-2.8c-1.4-0.3-3-0.4-4.4-0.1C562.1,0.9,562.2,2.8,563.3,3"
		/>
	<path class="st0" d="M574.2,3.4c0.8,0.1,1.7,0.1,2.5,0.1c0.8,0,1.8,0.1,2.5-0.2c1.3-0.5,1.4-2.2,0-2.7c-0.8-0.3-1.6-0.1-2.4,0
		c-0.8,0.1-1.5,0.1-2.3,0.1C573.1,0.8,572.6,3.2,574.2,3.4"/>
	<path class="st0" d="M585.8,3.3c0.9,0.3,2,0.2,3,0.2c1.9,0,1.9-3,0-3c-1,0-2,0-3,0.2C584.5,1.1,584.5,3,585.8,3.3"/>
	<path class="st0" d="M595.6,3.2c1.4,0.2,3.2,0.6,4.6,0.2c1.2-0.4,1.5-2.5,0-2.7c-0.7-0.1-1.4-0.1-2.1-0.1c-0.7,0-1.4-0.1-2.1,0
		c-0.7,0.1-1.2,0.5-1.3,1.2C594.6,2.3,595,3.1,595.6,3.2"/>
	<path class="st0" d="M607.1,3.4c1.2,0.1,2.5,0.1,3.7,0.2c2,0.1,2-3.2,0-3.1c-1.2,0.1-2.5,0-3.7,0.2C605.3,0.8,605.3,3.2,607.1,3.4"
		/>
	<path class="st0" d="M617.6,3.3c1.7,0.3,4.6,0.9,6-0.4c0.9-0.9,0.2-2.5-1-2.5c-0.7,0-1.5,0.3-2.2,0.3c-0.8,0-1.6-0.1-2.4,0
		c-0.7,0.1-1.2,0.4-1.3,1.2C616.6,2.5,617,3.2,617.6,3.3"/>
	<path class="st0" d="M629.5,3.2c0.8,0.1,1.6,0.2,2.4,0.3s1.6,0.2,2.4,0c1.2-0.4,1.5-2.4,0-2.7c-0.8-0.2-1.6-0.1-2.4-0.1
		c-0.8,0-1.6-0.1-2.4,0.1C628.3,0.9,628.3,3,629.5,3.2"/>
	<path class="st0" d="M640.8,3.1c1.4,0.3,2.8,0.5,4.2,0.6c2,0.1,2-3.2,0-3.1c-1.4,0.1-2.8-0.3-4.2,0C639.5,0.8,639.5,2.9,640.8,3.1"
		/>
	<path class="st0" d="M650.6,2.9c0.6,0.7,1.9,0.5,2.8,0.5c1,0,2.3,0.2,3.2-0.1c1.2-0.5,1.2-2.1,0-2.5c-0.9-0.3-2.2-0.1-3.2-0.1
		c-0.9,0-2.2-0.2-2.8,0.5C650.2,1.7,650.2,2.3,650.6,2.9"/>
	<path class="st0" d="M663.1,3.2c0.9,0.2,1.8,0.2,2.7,0.3c0.9,0.1,1.9,0.3,2.7-0.1c1.2-0.5,1.4-2.3,0-2.7c-0.9-0.2-1.8-0.1-2.7-0.1
		c-0.9,0-1.8-0.1-2.7,0C661.9,0.9,661.9,2.9,663.1,3.2"/>
	<path class="st0" d="M675.8,3.5c1.3-0.3,2.6-0.5,3.9-0.2c2,0.4,2.4-2.5,0.4-2.8c-1.7-0.2-3.3,0-5,0.4
		C673.5,1.4,674.2,3.9,675.8,3.5"/>
	<path class="st0" d="M687,3.2c1.5,0.2,3,0.2,4.5,0.2c1.8,0,1.9-2.9,0-2.9c-1.5,0-3,0-4.5,0.2C685.8,1,685.8,3.1,687,3.2"/>
	<path class="st0" d="M698.9,3.4c0.6,0,1.1-0.1,1.7-0.1c0.4,0,1.3,0.1,1.5,0.1c2.3,0.4,2.4-3.1,0.4-2.9c-1.4,0.1-2.9-0.3-4.2,0.5
		C697.1,1.6,697.6,3.5,698.9,3.4"/>
	<path class="st0" d="M709.5,3.3c1.8,0.3,3.7,0.3,5.5,0.1s1-3.5-0.8-2.8c-1.5,0.5-3.2,0.1-4.7,0.4C708.3,1,708.3,3.1,709.5,3.3"/>
	<path class="st0" d="M721.5,3.3c1.3,0.3,2.7,0.1,4,0.3c1.9,0.2,1.9-2.9,0-3c-1.3-0.1-2.8,0-4,0.3C720.3,1.1,720.3,3,721.5,3.3"/>
	<path class="st0" d="M732.8,3.3c0.6,0.1,1.2,0,1.8,0.1c0.6,0,1.1,0.2,1.8,0.1c1.1-0.2,1.2-1.6,0.6-2.3c-1.1-1.1-3.2-0.6-4.5-0.5
		c-0.6,0.1-1,0.9-0.9,1.4C731.6,2.8,732.1,3.2,732.8,3.3"/>
	<path class="st0" d="M743.2,3.2c0.7,0.1,1.4,0,2.1,0c0.7,0,1.3,0.4,1.9,0.3c1-0.1,1.5-1,1.1-2c-0.8-1.8-4-1.1-5.5-0.9
		c-0.6,0.1-1,0.8-0.9,1.4C742,2.8,742.6,3.1,743.2,3.2"/>
	<path class="st0" d="M754.5,3.4c0.9,0,1.8-0.2,2.7-0.1c0.9,0,1.9,0.3,2.8,0.1c1.4-0.4,1.3-2.3,0-2.7c-0.9-0.3-2.2-0.2-3.2-0.2
		c-1,0-2.4,0-3.2,0.8C752.9,2.1,753.4,3.4,754.5,3.4"/>
	<path class="st0" d="M767.4,3.2C767.4,3.2,767.4,3.2,767.4,3.2C767,3.1,766.5,3,766,3c0.6,0.7,1.4,0.3,2.2,0.3c0.8,0,1.5,0,2.3,0
		c2.1,0.2,1.7-3.6-0.4-2.9c-0.4,0.1-1.2,0.1-1.8,0.1c-0.7,0-1.4,0.1-2,0.4c-0.4,0.2-0.7,0.7-0.7,1.1c0,0,0,0,0,0
		c0.1-0.3,0.2-0.6,0.4-0.9c0,0,0,0-0.1,0.1C765,2.3,766.2,3.9,767.4,3.2"/>
	<path class="st0" d="M778.3,3.1c-0.5,0.1-0.6,0.2-0.3,0.1c0.2,0,0.2,0,0.1,0c-0.2,0,0.2,0,0.3,0c0.3,0,0.7,0,1,0.1
		c0.2,0,0.4,0.1,0.7,0.1c0.1,0,0.3,0.1,0.1,0c0.3,0.1,0.5,0.2,0.8,0.2c1.1-0.1,1.8-1.1,1.2-2.1c-0.5-0.9-1.9-1-2.9-1
		c-1,0-2,0.1-2.6,1C775.9,2.5,777.3,3.7,778.3,3.1"/>
	<path class="st0" d="M787.3,2.8c0.6,0.6,1.6,0.5,2.4,0.6c0.9,0.1,1.8,0.2,2.7,0.2c-0.2-0.9-0.5-1.8-0.7-2.8
		c-0.3,0.1-0.4,0.3-0.7,0.5c-1,0.8-0.1,2.3,1,2.4c0.4,0,0.8-0.1,1.2-0.3c1.4-0.6,0.6-2.8-0.7-2.8c-1,0-1.9-0.1-2.8-0.1
		c-0.9,0-1.9-0.1-2.5,0.8C786.8,1.7,786.9,2.4,787.3,2.8"/>
	<path class="st0" d="M799.3,3.2c1.4,0.3,3.1,0.7,4.4,0c1.2-0.6,0.7-2.8-0.7-2.6c-0.6,0.1-1.1,0.2-1.7,0.2c-0.6,0-1.1-0.1-1.7,0
		C798.4,0.8,797.8,2.9,799.3,3.2"/>
	<path class="st0" d="M810,3.1c1.2,0.4,2.6,0.4,3.9,0.4c1.9,0.1,1.9-3,0-2.9c-1.2,0.1-2.4,0.2-3.6,0.1C808.8,0.5,808.8,2.7,810,3.1"
		/>
	<path class="st0" d="M821.7,3.2C821.7,3.2,821.8,3.1,821.7,3.2c-0.2,0-0.6,0-0.9,0.1c0.6,0.2,1.5,0.1,2.2,0.1
		c0.8,0.1,1.6,0.2,2.4,0.2c1.9,0.1,1.9-3,0-2.9c-0.9,0-1.9-0.1-2.8-0.1c-0.5,0-1,0-1.4,0.1c-0.2,0.1-0.4,0.1-0.6,0.2
		c-0.2,0.1-0.4,0.3-0.5,0.5c-0.2,0.5-0.2,0.4,0.1-0.1C819.2,2.2,820.5,3.9,821.7,3.2"/>
	<path class="st0" d="M832,3c1.8,0.9,3.6,0.3,5.4,0.5c1.9,0.2,1.9-3.2,0-3c-1.4,0.2-3,0.3-4.4,0.1c-0.7-0.1-1.3,0.1-1.5,0.8
		C831.2,1.9,831.4,2.7,832,3"/>
	<path class="st0" d="M844.3,3.4c0.6,0.2,1.4,0,2,0c0.9,0,1.5,0,2.2-0.6c0.8-0.7,0.4-2.1-0.6-2.3c-0.8-0.2-1.5,0.1-2.3,0.2
		c-0.9,0.1-1.5,0.3-2,1C843.1,2.3,843.6,3.2,844.3,3.4"/>
	<path class="st0" d="M854.5,3.2c0.9,0.1,1.8,0.2,2.6,0.3c0.8,0.1,1.7,0.3,2.5-0.1c1-0.6,0.8-1.9,0-2.5c-0.6-0.5-1.7-0.3-2.5-0.3
		c-0.9,0-1.8,0-2.6,0.2C853.2,0.9,853.2,3,854.5,3.2"/>
	<path class="st0" d="M865.7,3.3c1.6,0.2,3.1,0.1,4.7,0.2c2,0.1,2-3.2,0-3c-1.6,0.1-3.1,0-4.7,0.2C864.4,0.9,864.4,3.1,865.7,3.3"/>
	<path class="st0" d="M877.7,3.5c0.6,0,1.3,0,2.1,0c0.9,0.1,1.9,0.1,2.6-0.6c0.9-0.9,0.2-2.4-1-2.5c-0.4,0-0.7,0.1-1,0.1
		c-0.4,0-0.8,0-1.2,0c-0.8,0-1.8,0-2.3,0.6C876,2,876.4,3.5,877.7,3.5"/>
	<path class="st0" d="M888.2,3c1.4,0.3,2.9,0.7,4.4,0.5c1.4-0.2,1.3-2.5,0-2.8c-1.4-0.3-3-0.4-4.4-0.1C887,0.9,887,2.8,888.2,3"/>
	<path class="st0" d="M899.1,3.4c0.8,0.1,1.7,0.1,2.5,0.1c0.8,0,1.8,0.1,2.5-0.2c1.3-0.5,1.4-2.2,0-2.7c-0.8-0.3-1.6-0.1-2.4,0
		c-0.8,0.1-1.5,0.1-2.3,0.1C898,0.8,897.5,3.2,899.1,3.4"/>
	<path class="st0" d="M910.6,3.3c0.9,0.3,2,0.2,3,0.2c1.9,0,1.9-3,0-3c-1,0-2,0-3,0.2C909.4,1.1,909.4,3,910.6,3.3"/>
	<path class="st0" d="M920.5,3.2c1.4,0.2,3.2,0.6,4.6,0.2c1.2-0.4,1.5-2.5,0-2.7c-0.7-0.1-1.4-0.1-2.1-0.1c-0.7,0-1.4-0.1-2.1,0
		c-0.7,0.1-1.2,0.5-1.3,1.2C919.4,2.3,919.8,3.1,920.5,3.2"/>
	<path class="st0" d="M931.9,3.4c1.2,0.1,2.5,0.1,3.7,0.2c2,0.1,2-3.2,0-3.1c-1.2,0.1-2.5,0-3.7,0.2C930.2,0.8,930.2,3.2,931.9,3.4"
		/>
	<path class="st0" d="M942.5,3.3c1.7,0.3,4.6,0.9,6-0.4c0.9-0.9,0.2-2.5-1-2.5c-0.7,0-1.5,0.3-2.2,0.3c-0.8,0-1.6-0.1-2.4,0
		c-0.7,0.1-1.2,0.4-1.3,1.2C941.5,2.5,941.8,3.2,942.5,3.3"/>
	<path class="st0" d="M954.4,3.2c0.8,0.1,1.6,0.2,2.4,0.3s1.6,0.2,2.4,0c1.2-0.4,1.5-2.4,0-2.7c-0.8-0.2-1.6-0.1-2.4-0.1
		c-0.8,0-1.6-0.1-2.4,0.1C953.1,0.9,953.2,3,954.4,3.2"/>
	<path class="st0" d="M965.6,3.1c1.4,0.3,2.8,0.5,4.2,0.6c2,0.1,2-3.2,0-3.1c-1.4,0.1-2.8-0.3-4.2,0C964.4,0.8,964.4,2.9,965.6,3.1"
		/>
	<path class="st0" d="M975.5,2.9c0.6,0.7,1.9,0.5,2.8,0.5c1,0,2.3,0.2,3.2-0.1c1.2-0.5,1.2-2.1,0-2.5c-0.9-0.3-2.2-0.1-3.2-0.1
		c-0.9,0-2.2-0.2-2.8,0.5C975.1,1.7,975.1,2.3,975.5,2.9"/>
	<path class="st0" d="M988,3.2c0.9,0.2,1.8,0.2,2.7,0.3c0.9,0.1,1.9,0.3,2.7-0.1c1.2-0.5,1.4-2.3,0-2.7c-0.9-0.2-1.8-0.1-2.7-0.1
		c-0.9,0-1.8-0.1-2.7,0C986.8,0.9,986.8,2.9,988,3.2"/>
	<path class="st0" d="M1001.9,2.9c0.6,0.7,1.9,0.5,2.8,0.5c1,0,2.3,0.2,3.2-0.1c1.2-0.5,1.2-2.1,0-2.5c-0.9-0.3-2.2-0.1-3.2-0.1
		c-0.9,0-2.2-0.2-2.8,0.5C1001.4,1.7,1001.4,2.3,1001.9,2.9"/>
	<path class="st0" d="M1014.4,3.2c0.9,0.2,1.8,0.2,2.7,0.3c0.9,0.1,1.9,0.3,2.7-0.1c1.2-0.5,1.4-2.3,0-2.7c-0.9-0.2-1.8-0.1-2.7-0.1
		c-0.9,0-1.8-0.1-2.7,0C1013.1,0.9,1013.2,2.9,1014.4,3.2"/>
	<path class="st0" d="M1027.1,3.5c1.3-0.3,2.6-0.5,3.9-0.2c2,0.4,2.4-2.5,0.4-2.8c-1.7-0.2-3.3,0-5,0.4
		C1024.7,1.4,1025.4,3.9,1027.1,3.5"/>
	<path class="st0" d="M1038.2,3.2c1.5,0.2,3,0.2,4.5,0.2c1.8,0,1.9-2.9,0-2.9c-1.5,0-3,0-4.5,0.2C1037,1,1037,3.1,1038.2,3.2"/>
	<path class="st0" d="M1050.1,3.4c0.6,0,1.1-0.1,1.7-0.1c0.4,0,1.3,0.1,1.5,0.1c2.3,0.4,2.4-3.1,0.4-2.9c-1.4,0.1-2.9-0.3-4.2,0.5
		C1048.4,1.6,1048.8,3.5,1050.1,3.4"/>
	<path class="st0" d="M1060.7,3.3c1.8,0.3,3.7,0.3,5.5,0.1c1.8-0.3,1-3.5-0.8-2.8c-1.5,0.5-3.2,0.1-4.7,0.4
		C1059.5,1,1059.5,3.1,1060.7,3.3"/>
	<path class="st0" d="M1072.7,3.3c1.3,0.3,2.7,0.1,4,0.3c1.9,0.2,1.9-2.9,0-3c-1.3-0.1-2.8,0-4,0.3C1071.5,1.1,1071.5,3,1072.7,3.3"
		/>
	<path class="st0" d="M1084,3.3c0.6,0.1,1.2,0,1.8,0.1c0.6,0,1.1,0.2,1.8,0.1c1.1-0.2,1.2-1.6,0.6-2.3c-1.1-1.1-3.2-0.6-4.5-0.5
		c-0.6,0.1-1,0.9-0.9,1.4C1082.8,2.8,1083.3,3.2,1084,3.3"/>
	<path class="st0" d="M1094.5,3.2c0.7,0.1,1.4,0,2.1,0c0.7,0,1.3,0.4,1.9,0.3c1-0.1,1.5-1,1.1-2c-0.8-1.8-4-1.1-5.5-0.9
		c-0.6,0.1-1,0.8-0.9,1.4C1093.3,2.8,1093.8,3.1,1094.5,3.2"/>
	<path class="st0" d="M1105.7,3.4c0.9,0,1.8-0.2,2.7-0.1c0.9,0,1.9,0.3,2.8,0.1c1.4-0.4,1.3-2.3,0-2.7c-0.9-0.3-2.2-0.2-3.2-0.2
		c-1,0-2.4,0-3.2,0.8C1104.1,2.1,1104.6,3.4,1105.7,3.4"/>
	<path class="st0" d="M1118.6,3.2C1118.6,3.2,1118.7,3.2,1118.6,3.2c-0.4-0.1-0.9-0.2-1.4-0.2c0.6,0.7,1.4,0.3,2.2,0.3
		c0.8,0,1.5,0,2.3,0c2.1,0.2,1.7-3.6-0.4-2.9c-0.4,0.1-1.2,0.1-1.8,0.1c-0.7,0-1.4,0.1-2,0.4c-0.4,0.2-0.7,0.7-0.7,1.1c0,0,0,0,0,0
		c0.1-0.3,0.2-0.6,0.4-0.9c0,0,0,0-0.1,0.1C1116.2,2.3,1117.4,3.9,1118.6,3.2"/>
	<path class="st0" d="M1129.6,3.1c-0.5,0.1-0.6,0.2-0.3,0.1c0.2,0,0.2,0,0.1,0c-0.2,0,0.2,0,0.3,0c0.3,0,0.7,0,1,0.1
		c0.2,0,0.4,0.1,0.7,0.1c0.1,0,0.3,0.1,0.1,0c0.3,0.1,0.5,0.2,0.8,0.2c1.1-0.1,1.8-1.1,1.2-2.1c-0.5-0.9-1.9-1-2.9-1
		c-1,0-2,0.1-2.6,1C1127.2,2.5,1128.6,3.7,1129.6,3.1"/>
	<path class="st0" d="M1138.5,2.8c0.6,0.6,1.6,0.5,2.4,0.6c0.9,0.1,1.8,0.2,2.7,0.2c-0.2-0.9-0.5-1.8-0.7-2.8
		c-0.3,0.1-0.4,0.3-0.7,0.5c-1,0.8-0.1,2.3,1,2.4c0.4,0,0.8-0.1,1.2-0.3c1.4-0.6,0.6-2.8-0.7-2.8c-0.9,0-1.9-0.1-2.8-0.1
		c-0.9,0-1.9-0.1-2.5,0.8C1138,1.7,1138.2,2.4,1138.5,2.8"/>
	<path class="st0" d="M1150.6,3.2c1.4,0.3,3.1,0.7,4.4,0c1.2-0.6,0.7-2.8-0.7-2.6c-0.6,0.1-1.1,0.2-1.7,0.2c-0.6,0-1.1-0.1-1.7,0
		C1149.6,0.8,1149,2.9,1150.6,3.2"/>
	<path class="st0" d="M1161.2,3.1c1.2,0.4,2.6,0.4,3.9,0.4c1.9,0.1,1.9-3,0-2.9c-1.2,0.1-2.4,0.2-3.6,0.1
		C1160.1,0.5,1160,2.7,1161.2,3.1"/>
	<path class="st0" d="M1172.9,3.2C1172.9,3.2,1173,3.1,1172.9,3.2c-0.2,0-0.6,0-0.9,0.1c0.6,0.2,1.5,0.1,2.2,0.1
		c0.8,0.1,1.6,0.2,2.4,0.2c1.9,0.1,1.9-3,0-2.9c-0.9,0-1.9-0.1-2.8-0.1c-0.5,0-1,0-1.4,0.1c-0.2,0.1-0.4,0.1-0.6,0.2
		c-0.2,0.1-0.4,0.3-0.5,0.5c-0.2,0.5-0.2,0.4,0.1-0.1C1170.4,2.2,1171.7,3.9,1172.9,3.2"/>
	<path class="st0" d="M1183.2,3c1.8,0.9,3.6,0.3,5.4,0.5c1.9,0.2,1.9-3.2,0-3c-1.4,0.2-3,0.3-4.4,0.1c-0.7-0.1-1.3,0.1-1.5,0.8
		C1182.4,1.9,1182.6,2.7,1183.2,3"/>
	<path class="st0" d="M1195.5,3.4c0.6,0.2,1.4,0,2,0c0.9,0,1.5,0,2.2-0.6c0.8-0.7,0.4-2.1-0.6-2.3c-0.8-0.2-1.5,0.1-2.3,0.2
		c-0.9,0.1-1.5,0.3-2,1C1194.3,2.3,1194.9,3.2,1195.5,3.4"/>
</g>
</svg>
