<?xml version="1.0" encoding="utf-8"?>
<!-- Generator: Adobe Illustrator 24.0.1, SVG Export Plug-In . SVG Version: 6.00 Build 0)  -->
<svg version="1.1" id="Calque_1" xmlns="http://www.w3.org/2000/svg" xmlns:xlink="http://www.w3.org/1999/xlink" x="0px" y="0px"
	 viewBox="0 0 50 50" style="enable-background:new 0 0 50 50;" xml:space="preserve">
<style type="text/css">
	.st0{fill:#91D902;}
	.st1{fill:#FFFFFF;}
</style>
<circle class="st0" cx="25" cy="25" r="25"/>
<path class="st1" d="M18.9,35.6V21.3h-4.8v14.4L18.9,35.6L18.9,35.6z M16.5,19.3c1.7,0,2.7-1.1,2.7-2.5s-1-2.5-2.7-2.5
	c-1.6,0-2.7,1.1-2.7,2.5C13.9,18.2,14.9,19.3,16.5,19.3L16.5,19.3L16.5,19.3z M21.6,35.6h4.8v-8c0-0.4,0-0.9,0.2-1.2
	c0.3-0.9,1.1-1.7,2.4-1.7c1.7,0,2.4,1.3,2.4,3.2v7.7h4.8v-8.2c0-4.4-2.4-6.5-5.5-6.5c-2.6,0-3.7,1.4-4.3,2.4l0,0v-2.1h-4.8
	C21.6,22.6,21.6,35.6,21.6,35.6L21.6,35.6z"/>
</svg>
