<?xml version="1.0" encoding="utf-8"?>
<!-- Generator: Adobe Illustrator 23.0.4, SVG Export Plug-In . SVG Version: 6.00 Build 0)  -->
<svg version="1.1" id="Calque_1" xmlns="http://www.w3.org/2000/svg" xmlns:xlink="http://www.w3.org/1999/xlink" x="0px" y="0px"
	 viewBox="0 0 171.2 60.7" style="enable-background:new 0 0 171.2 60.7;" xml:space="preserve">
<g>
	<path style="fill:#9C9C9C;" d="M27.4,17.1C27.4,17.1,27.5,17.1,27.4,17.1c0.1,0,0.2-0.1,0.2-0.2c0.1-0.3,0.3-0.6,0.4-0.8
		c0.2-0.4,0.4-0.8,0.8-1.1c0.2-0.2,0.3-0.3,0.6-0.3c0.1,0.1,0.1,0.1,0.2,0.2c0.3,0.3,0.7,0.3,1,0.1c0.4-0.3,0.5-0.7,0.2-1.1
		c-0.2-0.3-0.6-0.5-1-0.4c-0.5,0.1-0.9,0.3-1.2,0.7c-0.6,0.6-0.9,1.2-1.2,2c-0.1,0.2-0.1,0.4-0.1,0.6C27.3,16.9,27.4,17,27.4,17.1
		 M11.8,24.2c-0.4,0-0.8,0.1-1.2,0.2c-0.3,0.1-0.6,0.2-0.9,0.3c-0.1,0-0.3,0-0.5,0.1c0.2-0.4,0.4-0.7,0.6-1c0.5-0.8,1.1-1.5,1.7-2.2
		c0.8-1,1.7-1.9,2.5-2.9c0.9-0.9,1.8-1.8,2.8-2.6c1.4-1.2,2.9-2.1,4.5-3c0.5-0.2,0.9-0.5,1.4-0.8c1-0.5,1.9-0.9,2.9-1.4
		c0.5-0.3,1.1-0.5,1.6-0.7c0.7-0.3,1.5-0.5,2.3-0.7c0.8-0.1,1.2,0.3,1.6,0.8c0.2,0.2,0.3,0.6,0.3,0.9c0,0.1,0,0.2,0.1,0.4
		c0.1,0.3,0.2,0.4,0.6,0.4c0.5-0.1,1-0.1,1.4-0.2c0.8-0.1,1.5-0.1,2.3,0c0.2,0,0.4,0.1,0.6,0.1c0.2,0.1,0.5,0,0.8,0
		c0.2-0.1,0.4-0.1,0.6-0.1c0.2,0,0.4,0.1,0.6,0.3c0.3,0.3,0.4,0.7,0.5,1.1c0.2,0.8,0.3,1.6,0.2,2.4c0,0.6,0,1.2-0.1,1.8
		c0,0.2-0.1,0.4-0.3,0.5c-0.2,0.1-0.2,0.2-0.3,0.3c-0.2,0.5-0.5,0.9-0.8,1.2c0,0-0.1,0-0.1,0.1c0-0.1-0.1-0.2-0.1-0.3
		c-0.1-0.3-0.1-0.6-0.3-0.8c-0.1-0.1-0.2-0.2-0.3-0.3c-0.2,0-0.2-0.1-0.3-0.2c-0.4-0.5-0.9-0.8-1.5-0.9c-0.6-0.1-1.1-0.1-1.7,0.1
		c-1.1,0.3-2,1-2.9,1.8c-0.7,0.7-1.3,1.5-1.7,2.3c-0.8,1.5-1.2,3-1.1,4.7c0,0.9,0.2,1.8,0.8,2.5c0.7,0.9,1.6,1.3,2.7,1.2
		c1.3-0.1,2.3-0.8,3.3-1.7c0.8-0.8,1.5-1.6,2-2.6c0.1-0.1,0.1-0.3,0.3-0.4c0.1,0,0.2-0.2,0.3-0.3c0.2-0.4,0.3-0.7,0.3-1.1
		c0-0.1,0-0.1,0-0.2c0.2,0.1,0.3,0.2,0.4,0.4c0.2,0.3,0.3,0.6,0.3,1c0,0.3,0.1,0.5,0.4,0.6c0.5,0.4,0.8,0.9,0.6,1.6
		c0,0.1-0.1,0.3-0.1,0.4c-0.1,0.2-0.1,0.4,0,0.5c0,0.2,0.1,0.3,0.1,0.5c0,0.2,0,0.3,0.1,0.5c0.1,0.6-0.3,1.3-0.9,1.6
		c-0.3,0.1-0.6,0.2-0.8,0c-0.1-0.1-0.2-0.1-0.4,0c-0.7,0.2-1.4,0.6-2,1c-0.1,0.1-0.2,0.1-0.4,0.3c0.2,0.1,0.4,0.3,0.6,0.4
		c1,0.5,1.9,1.1,2.8,1.8c0.5,0.3,0.8,0.7,1,1.3c0,0.1,0,0.2,0,0.3c0,0.5,0,1,0,1.5c0,0.3-0.1,0.3-0.4,0.3c-0.9-0.2-1.8-0.4-2.7-0.6
		c-0.9-0.2-1.7-0.2-2.6,0c-0.4,0.1-0.8,0.2-1.2,0.3c0.5-0.5,1.1-0.5,1.7-0.6C33.8,36,33.7,36,33.7,36c-0.5-0.1-1.1-0.2-1.6-0.3
		c-1.2,0-2.4,0.1-3.6,0.4c-0.3,0.1-0.6,0.2-0.9,0.3c-0.1-0.2,0-0.5-0.1-0.7c0-0.2,0-0.4,0-0.7c-0.3,0.6-0.8,0.8-1.2,1.2
		c-0.5,0.5-1,0.9-1.5,1.4c-0.3,0.4-0.7,0.7-1.1,1.1c-0.6,0.7-1.4,1.2-2.2,1.7c-1.5,1-2.7,2.2-3.7,3.6c-0.2,0.4-0.5,0.7-0.7,1
		c-0.3,0.4-0.6,0.7-1,0.9c-0.1,0.1-0.2,0.1-0.4,0.1c-0.1,0-0.1,0-0.2,0.1c0,0,0,0.1,0.1,0.2c0.1,0.1,0.3,0.3,0.4,0.4
		c0.2,0.2,0.3,0.4,0.5,0.6c0.1,0.1,0.2,0.2,0.3,0.1c0.1,0,0.2,0,0.3,0c0.4,0,0.8-0.1,1.2-0.2c0.2,0,0.4,0,0.6-0.1
		c0.8-0.1,1.6,0,2.3,0c0.9,0,1.7,0.1,2.6,0.2c0.3,0.1,0.6,0.1,1,0.2c1,0.2,1.9,0.6,2.6,1.2c0.1,0.1,0.2,0.1,0.2,0.2
		c0.3,0.5,0.6,1,0.8,1.5c0,0.1,0,0.2,0,0.2c0,0.3,0,0.7,0,1c0,0.3-0.2,0.5-0.5,0.5c-0.8,0-1.5,0.2-2.1,0.5c-0.6,0.3-1.2,0.6-1.7,1
		c-0.6,0.5-1.1,1-1.5,1.6c-0.4,0.6-0.8,1.3-1.1,1.9c-0.4,0.8-0.8,1.6-1.2,2.4c-0.1,0.2-0.2,0.5-0.3,0.7c0,0.1-0.1,0.1-0.1,0.2
		c-0.1-0.3-0.3-0.5-0.4-0.8c-0.3-0.6-0.6-1.3-0.9-1.9c-0.3-0.5-0.6-1-1-1.5c-0.4-0.6-0.9-1.1-1.3-1.7c-0.2-0.2-0.4-0.4-0.6-0.5
		c-0.4-0.3-0.8-0.6-1.2-0.8c-0.4-0.3-0.9-0.5-1.3-0.6c-0.6-0.1-1.1-0.3-1.7-0.4c-0.3-0.1-0.7-0.1-1-0.1c-0.4,0-0.6-0.2-0.8-0.5
		c-0.4-0.8-0.7-1.6-0.7-2.5C9.1,49,9,48.5,9,48c0-1.4,0.3-2.8,0.7-4.2c0.2-0.8,0.6-1.5,1-2.2c0.4-0.7,0.7-1.3,1.1-1.9
		c0,0,0-0.1,0.1-0.1c-0.3,0-0.5,0.2-0.7,0.3c-0.6,0.5-1.3,1-1.8,1.6c-0.5,0.5-0.8,1.1-1.1,1.8c-0.1,0.2-0.2,0.4-0.2,0.7
		c0,0.1-0.1,0.3-0.1,0.4c-0.2,0-0.3-0.2-0.3-0.3c-0.6-1-0.9-2-1.1-3.1c-0.1-0.6-0.1-1.2-0.1-1.9c0-1,0.1-2.1,0.5-3.1
		c0.3-0.7,0.7-1.4,1.1-2c0.3-0.5,0.7-0.9,1.1-1.3c0.2-0.2,0.4-0.4,0.6-0.7c-0.4,0.1-0.7,0.2-1,0.4C8.2,33,7.6,33.4,7.1,34
		c-0.1,0.2-0.3,0.3-0.4,0.5c-0.1-0.1-0.1-0.2-0.1-0.3c0-0.5,0-0.9,0.1-1.3c0.1-0.6,0.3-1.2,0.5-1.8c0.2-0.6,0.5-1.2,0.7-1.7
		c0.1-0.3,0.3-0.6,0.4-0.9c0.3-0.8,0.9-1.4,1.3-2c0.4-0.6,1-1.1,1.5-1.6C11.4,24.6,11.6,24.4,11.8,24.2"/>
	<path style="fill:#9C9C9C;" d="M19.3,2.3c-0.1-0.4,0.1-0.6,0.3-0.9C20,1,20.4,0.7,20.8,0.5C21.2,0.3,21.6,0.1,22,0c0,0,0.1,0,0.1,0
		c1-0.1,2,0,3,0.5c0.9,0.4,1.6,1,2.1,1.8c0.2,0.4,0.5,0.8,0.5,1.3c0,0.3,0,0.6,0,1c0,0.3-0.2,0.6-0.5,0.8c-0.3,0.3-0.6,0.5-0.8,0.8
		c-0.2,0.2-0.4,0.5-0.5,0.7C26,7,26,7,26,7.3c0.5-0.2,0.9-0.6,1.4-0.8v2.1c-0.4,0.1-0.7,0.3-1,0.4c-0.6,0.3-1.3,0.6-1.9,0.9
		c-0.1,0.1-0.3,0.1-0.4,0.2c-0.6,0.3-1.2,0.7-1.8,1c-0.4,0.2-0.8,0.5-1.1,0.7c-0.7,0.5-1.5,0.9-2.2,1.4c-0.7,0.5-1.4,0.9-2,1.4
		c-0.3,0.2-0.6,0.4-0.8,0.7c-0.6,0.5-1.3,1-1.9,1.6c-0.5,0.5-1,1-1.4,1.6c-0.4,0.4-0.7,0.9-1.1,1.4c0,0-0.1,0.1-0.1,0.1
		c-0.1,0-0.1-0.1-0.1-0.2c0.1-0.2,0.1-0.4,0.2-0.6c0.1-0.5,0.1-0.9,0-1.4c0-0.1-0.1-0.2-0.1-0.3c-0.2,0.2-0.4,0.5-0.6,0.7
		c-0.2,0.2-0.4,0.4-0.6,0.6c-0.7,0.5-1.3,0.4-1.8,0c-0.3-0.2-0.6-0.5-0.8-0.9C7.2,17.2,7,16.3,7,15.5c0-1.1,0.3-2,1.1-2.8
		c0.3-0.3,0.7-0.4,1.1-0.6c0.1,0,0.2,0,0.2,0c0.3,0,0.4,0.2,0.4,0.5c0,0.3-0.1,0.5,0,0.8c0,0.8,0.6,1.4,1.4,1.5
		c0.6,0.1,1.2-0.2,1.7-0.6c0.3-0.2,0.5-0.5,0.8-0.7c0.6-0.6,0.8-1.4,0.8-2.2c0-0.8-0.4-1.4-1.1-1.7c-0.2-0.1-0.4-0.1-0.6-0.1
		c-0.3,0-0.5,0.2-0.5,0.4c-0.1,0.3,0.1,0.6,0.4,0.7c0.1,0,0.2,0,0.4,0.1c0.2,0,0.3,0.1,0.4,0.4c0,0.2-0.1,0.4-0.2,0.6
		c-0.3,0.4-0.7,0.7-1.2,0.7c-0.2,0-0.5,0-0.7-0.1c-0.7-0.3-1.2-1.1-1.2-1.8c0-0.9,0.7-1.9,1.5-2c0.2,0,0.4-0.1,0.5-0.2
		c0.1-0.1,0.3-0.1,0.4-0.2c0.2-0.2,0.2-0.5,0.1-0.7c-0.1-0.2-0.5-0.3-0.7-0.1c-0.1,0.1-0.3,0.2-0.4,0.3c-0.2-0.2-0.3-0.7-0.2-1.1
		c0.1-0.4,0.4-0.6,0.8-0.7c-0.1-0.3-0.3-0.5-0.4-0.8c-0.1-0.3-0.2-0.6-0.1-0.9c0.7-0.1,1.3,0.1,1.8,0.6c0.4-0.5,0.8-1,1.5-0.9
		c0,0.1-0.1,0.1-0.1,0.2c-0.2,0.4-0.2,0.9-0.1,1.3c0,0,0,0.1,0.1,0.1c0.2,0.3,0.4,0.3,0.7,0.1c0.3-0.3,0.4-0.6,0.5-1
		c0.1-0.3,0.1-0.7,0.4-1c0.4-0.5,0.9-0.9,1.6-0.8c0.5,0,1,0.2,1.3,0.8c0.5,0.9,0.4,1.7-0.1,2.5c-0.2,0.3-0.4,0.4-0.8,0.3
		c-0.2,0-0.4-0.3-0.4-0.6c0-0.2,0.1-0.3,0.4-0.3c0.1,0,0.3,0.1,0.3-0.1c0-0.1,0-0.2-0.1-0.3c-0.2-0.3-0.5-0.3-0.8-0.2
		c-0.4,0.2-0.5,0.5-0.5,0.9c0,0.5,0.2,0.9,0.6,1.3c0.4,0.3,0.9,0.6,1.5,0.6c0.3,0,0.5-0.1,0.8-0.2c1-0.4,1.5-1.1,1.7-2.2
		c0.1-0.6,0.1-1.1-0.2-1.6c-0.4-0.7-0.9-1.2-1.7-1.3C19.6,2.4,19.5,2.3,19.3,2.3"/>
	<path style="fill:#181716;" d="M109.3,41.1v17.8h-2.2c0-0.1,0-0.3,0-0.4c0-3.7,0-7.3,0-11c0-0.1,0-0.2,0-0.3c0-0.2-0.1-0.3-0.2-0.3
		c-0.1,0-0.2,0.1-0.2,0.2c-0.1,0.2-0.1,0.4-0.2,0.7c-0.4,1.6-0.8,3.3-1.2,4.9c-0.5,2-1,4-1.4,5.9c0,0.1,0,0.2-0.1,0.2h-2
		c-0.1-0.4-0.2-0.8-0.3-1.2c-0.9-3.5-1.7-6.9-2.6-10.4c0-0.1-0.1-0.2-0.1-0.3c0-0.1-0.1-0.2-0.2-0.2c-0.1,0-0.2,0.1-0.2,0.2
		c0,0.1,0,0.2,0,0.3c0,3.7,0,7.4,0,11.1v0.4h-2.2c-0.1-0.2-0.1-17.4,0-17.8c0.1,0,0.2,0,0.2,0c0.8,0,1.6,0,2.4,0
		c0.5,0,0.8,0.2,1.1,0.5c0.2,0.3,0.4,0.6,0.4,0.9c0.7,2.9,1.3,5.8,2,8.7c0.1,0.5,0.2,0.9,0.2,1.4c0,0.1,0,0.2,0.1,0.2
		c0,0.1,0.1,0.2,0.2,0.2c0.1,0,0.2-0.1,0.2-0.2c0-0.1,0-0.2,0-0.3c0.2-0.8,0.3-1.6,0.5-2.4c0.5-2.3,1-4.7,1.6-7.1
		c0.1-0.3,0.1-0.7,0.2-1c0.2-0.5,0.5-0.9,1.1-1c0.1,0,0.1,0,0.2,0C107.5,41.1,108.4,41.1,109.3,41.1"/>
	<path style="fill:#181716;" d="M22,59.1c0-0.2,0.1-0.3,0.1-0.4c0.2-0.5,0.5-0.9,0.8-1.4c0.3-0.5,0.6-1,1-1.4c1-1.4,2.4-2.4,4-3.1
		c0.4-0.2,0.7-0.3,1.1-0.2c0.1,0,0.1,0,0.3,0c0-0.2,0-0.3,0-0.5c-0.1-0.6,0.1-1.2,0.4-1.8c0.2-0.4,0.5-0.7,0.9-0.9
		c0.7-0.4,1.3-0.8,2-1c0.7-0.2,1.3-0.4,2-0.5c0.1,0,0.3,0,0.4,0c-0.5,0.2-1,0.4-1.4,0.7c0.1,0,0.2,0,0.3-0.1c1-0.2,2-0.3,3-0.2
		c0.4,0,0.8,0,1.2-0.1c0,0,0.1,0,0.2,0c-0.3,0.3-0.6,0.4-1,0.5c0.5,0.3,1.1,0.2,1.5-0.1c0,0.2-0.2,0.3-0.3,0.5c0,0,0,0,0,0
		c0.6,0.3,0.6,0.3,0.6,1c0,2,0,4,0,6c0,1-0.4,1.8-1.2,2.3c-0.2,0.2-0.4,0.3-0.6,0.4c-0.3,0.2-0.7,0.3-1.1,0.3c-4.6,0-9.1,0-13.7,0
		C22.3,59.2,22.2,59.1,22,59.1"/>
	<path style="fill:#181716;" d="M115.6,15.1h2.2c0,0,0,0,0,0c0,0,0,0,0,0c0,5.8,0,11.7,0,17.5c0,0.1,0,0.2,0,0.3h-2.4
		c-0.2-0.4-0.4-0.8-0.6-1.3c-0.6-1.4-1.3-2.8-1.9-4.2c-0.8-1.7-1.6-3.4-2.3-5.1c-0.3-0.6-0.5-1.2-0.8-1.8c0-0.1-0.1-0.1-0.1-0.2
		c-0.1-0.1-0.2-0.1-0.2-0.1c-0.1,0-0.2,0.1-0.2,0.2c0,0.1,0,0.2,0,0.2c0,0.3,0,0.6,0,1c0,3.6,0,7.2,0,10.8V33h-2.3V15.1
		c0.1,0,0.2,0,0.2,0c0.8,0,1.5,0,2.3,0c0.5,0,0.8,0.2,1,0.7c0.8,1.9,1.7,3.7,2.5,5.6c0.5,1.2,1.1,2.4,1.6,3.6
		c0.1,0.3,0.2,0.6,0.3,0.9c0,0.1,0.1,0.2,0.1,0.3c0,0.1,0.1,0.2,0.2,0.2s0.2-0.1,0.2-0.2c0-0.1,0-0.2,0-0.3c0-1.2,0-2.4,0-3.5v-6.8
		L115.6,15.1L115.6,15.1z"/>
	<path style="fill:#181716;" d="M114.9,46.4c0,0.4,0,0.8,0,1.3c0,0.2,0.1,0.3,0.3,0.3c0.1,0,0.1,0,0.1,0c0.8,0,1.5,0,2.2,0
		c0.4,0,0.7-0.2,0.9-0.5c0.4-0.6,0.4-1.7,0-2.3c-0.2-0.2-0.4-0.4-0.7-0.4c-0.8,0-1.7,0-2.5,0c-0.3,0-0.4,0.1-0.4,0.4
		C114.9,45.6,114.9,46,114.9,46.4 M116.8,51.8c-0.5,0-0.9,0-1.4,0c-0.4,0-0.4,0-0.4,0.4c0,0.9,0,1.7,0,2.6c0,0,0,0.1,0,0.1
		c0,0.2,0.1,0.2,0.3,0.3c0.1,0,0.1,0,0.2,0c0.9,0,1.8,0,2.7,0c0.4,0,0.7-0.2,0.9-0.5c0.5-0.8,0.5-1.6,0-2.4c-0.2-0.4-0.5-0.6-1-0.5
		C117.6,51.8,117.2,51.8,116.8,51.8 M112.7,58.9V41.1c0.1,0,0.2,0,0.3,0c1.5,0,3,0,4.4,0c0.9,0,1.6,0.3,2.1,1
		c0.6,0.6,0.9,1.4,1.2,2.2c0.2,0.7,0.3,1.4,0.3,2.1c0,0.8-0.2,1.5-0.4,2.2c-0.1,0.3-0.2,0.5-0.5,0.7c-0.2,0.1-0.2,0.3,0,0.4
		c0.3,0.2,0.5,0.4,0.7,0.7c0.3,0.6,0.5,1.3,0.6,2c0.2,1.4,0.1,2.7-0.5,4c-0.3,0.7-0.7,1.4-1.4,1.9c-0.5,0.4-1,0.6-1.7,0.6
		c-1.6,0-3.3,0-4.9,0C113,58.9,112.8,58.9,112.7,58.9"/>
	<path style="fill:#181716;" d="M153.6,18.9c-0.4,0-0.7,0-1.1,0c-0.4,0-0.5,0.1-0.5,0.5c0,0,0,0,0,0.1c0,3.1,0,6.2,0,9.3
		c0,0.1,0,0.2,0,0.3c0,0.1,0.1,0.2,0.2,0.2c0.1,0,0.2,0,0.2,0c0.6,0,1.2,0,1.9,0c0.7,0,1.3-0.2,1.9-0.7c0.7-0.5,1.1-1.2,1.4-2
		c0.6-1.5,0.6-3,0.1-4.6c-0.3-1-0.8-1.8-1.5-2.4c-0.5-0.4-1.1-0.7-1.8-0.7C154.1,18.9,153.9,18.9,153.6,18.9 M149.7,15.1h0.4
		c1.4,0,2.9,0,4.3,0c1.1,0,2,0.3,2.8,1c1,0.7,1.6,1.7,2.1,2.8c0.6,1.2,0.9,2.5,1,3.8c0.2,2.2-0.1,4.4-1,6.4
		c-0.5,1.1-1.2,2.1-2.1,2.8c-0.9,0.7-1.8,1.1-3,1c-0.6,0-1.3,0-1.9,0c-0.3,0-0.5,0-0.8-0.2c-0.6-0.3-1.2-0.7-1.5-1.3
		c-0.3-0.5-0.4-1-0.4-1.6c0-4.8,0-9.6,0-14.4L149.7,15.1L149.7,15.1z"/>
	<path style="fill:#181716;" d="M83.6,24c0-0.9-0.1-1.8-0.5-2.6c-0.4-0.9-0.9-1.7-1.7-2.2c-0.9-0.6-2.1-0.7-3,0
		c-0.6,0.4-1,0.8-1.3,1.4c-0.6,0.9-0.8,2-0.9,3c-0.1,1.4,0.2,2.6,0.8,3.8c0.3,0.6,0.8,1.1,1.4,1.5c0.8,0.5,1.6,0.6,2.5,0.3
		c0.8-0.3,1.3-0.9,1.7-1.5C83.2,26.5,83.6,25.3,83.6,24 M73.8,24.2c0-1.9,0.3-3.5,0.9-5c0.4-1,1-1.9,1.7-2.7c0.8-0.9,1.8-1.4,3-1.6
		c0.8-0.1,1.6,0.1,2.4,0.5c1,0.5,1.7,1.3,2.3,2.2c0.8,1.2,1.3,2.6,1.6,4.1c0.2,0.9,0.2,1.8,0.2,2.6c-0.1,1.8-0.4,3.5-1.2,5.2
		c-0.5,1-1.2,1.9-2.1,2.6c-0.7,0.5-1.4,0.8-2.3,0.9c-1,0.1-1.9-0.2-2.7-0.7c-1.1-0.7-1.8-1.6-2.4-2.7c-0.7-1.4-1.1-2.9-1.2-4.4
		C73.8,24.9,73.8,24.4,73.8,24.2"/>
	<path style="fill:#181716;" d="M65.3,21.2c0,0.6,0,1.3,0,2c0,0.4,0.1,0.4,0.4,0.4c0.6,0,1.2,0,1.9,0c0.3,0,0.6-0.1,0.8-0.3
		c0.3-0.3,0.5-0.6,0.6-1c0.4-1.1,0.2-2.1-0.5-3c-0.2-0.3-0.6-0.5-1-0.5c-0.6,0-1.2,0-1.8,0c-0.3,0-0.4,0.1-0.4,0.4
		C65.3,19.9,65.3,20.6,65.3,21.2 M72.8,33c-0.1,0-0.2,0-0.3,0c-0.5,0-1,0-1.4,0c-0.6,0-1-0.2-1.4-0.7c-0.1-0.2-0.2-0.4-0.4-0.6
		c-0.5-0.9-0.9-1.9-1.4-2.8c-0.2-0.4-0.4-0.8-0.6-1.2c-0.1-0.2-0.2-0.3-0.5-0.3c-0.4,0-0.8,0-1.2,0c-0.3,0-0.4,0.1-0.4,0.4
		c0,1.2,0,2.4,0,3.6V33h-2.3c0,0,0,0,0,0s0,0,0,0c0-5.9,0-11.8,0-17.6c0,0,0-0.1,0-0.1c0.1,0,0.2,0,0.3,0c1.4,0,2.8,0,4.2,0
		c1,0,1.8,0.4,2.5,1.2c0.7,0.8,1.1,1.8,1.3,2.8c0.4,1.7,0.4,3.4-0.2,5.1c-0.3,0.8-0.7,1.5-1.2,2.1c-0.1,0.1-0.1,0.1-0.2,0.2
		c-0.1,0.1-0.1,0.2,0,0.4c0,0,0,0.1,0.1,0.1c0.9,1.8,1.8,3.6,2.7,5.4C72.6,32.5,72.7,32.7,72.8,33"/>
	<path style="fill:#181716;" d="M125.9,50.3c0,0.6,0.2,1.5,0.5,2.4c0.3,0.8,0.8,1.5,1.4,2c1,0.8,2.2,0.8,3.2,0.1
		c0.6-0.4,1-1,1.3-1.7c0.8-1.7,0.9-3.4,0.4-5.2c-0.3-1-0.7-1.8-1.4-2.5c-1.1-1.1-2.5-1.1-3.7-0.1c-0.4,0.4-0.7,0.8-1,1.3
		C126.1,47.7,125.9,48.8,125.9,50.3 M135.3,50c0,1.7-0.3,3.4-1,5c-0.4,1-0.9,1.8-1.6,2.6c-0.9,0.9-1.9,1.5-3.1,1.5
		c-0.8,0-1.6-0.2-2.2-0.7c-1-0.6-1.7-1.5-2.2-2.5c-0.6-1-0.9-2.2-1.2-3.3c-0.1-0.6-0.2-1.3-0.2-2c-0.1-1.8,0.2-3.6,0.8-5.3
		c0.4-1.1,1-2.1,1.8-3c0.6-0.6,1.2-1.1,2.1-1.3c1.2-0.4,2.4-0.1,3.4,0.6c0.9,0.6,1.6,1.5,2.1,2.4c0.7,1.3,1.1,2.6,1.3,4
		C135.3,48.7,135.3,49.4,135.3,50"/>
	<path style="fill:#9C9C9C;" d="M84.8,37c0.1,0.2,0.1,0.3,0.1,0.4c-0.2,0.7-0.4,1.3-0.7,2c-1.1,2.2-2.2,4.4-3.2,6.7
		c-0.5,1-0.9,1.9-1.4,2.9c-0.1,0.1-0.1,0.2-0.2,0.3c-0.2,0.4-0.2,0.9,0,1.3c0.4,0.9,0.9,1.9,1.3,2.8c0.7,1.5,1.4,2.9,2.1,4.3
		c0.2,0.3,0.3,0.7,0.5,1c0,0.1,0.1,0.1,0.1,0.2c-0.1,0-0.2,0-0.3,0c-0.4,0-0.9,0-1.3,0c-0.7,0-1.2-0.2-1.5-0.8
		c-0.3-0.5-0.5-0.9-0.7-1.4c-0.4-0.8-0.8-1.7-1.2-2.5c-0.2-0.3-0.4-0.7-0.4-1.1c0-0.1,0-0.1-0.1-0.2c-0.1-0.1-0.2-0.2-0.3-0.1
		c-0.1,0-0.2,0.1-0.2,0.2c-0.5,1.6-1.4,3.1-2.1,4.7c-0.1,0.3-0.3,0.6-0.6,0.8c-0.2,0.2-0.5,0.4-0.8,0.4c-0.5,0.1-0.9,0.2-1.3,0.5
		c-0.3,0.2-0.6,0.5-0.9,0.8c-0.1,0.1-0.2,0.2-0.3,0.4c-0.1-0.1-0.1-0.2-0.1-0.3c0.2-0.8,0.4-1.6,0.8-2.3c0.9-1.7,1.8-3.5,2.6-5.3
		c0.3-0.7,0.7-1.4,1-2c0.2-0.4,0.2-0.9,0.1-1.3c-0.2-0.5-0.5-1-0.7-1.6c-0.9-1.9-1.8-3.8-2.8-5.8c-0.1-0.3-0.2-0.5-0.4-0.8
		c0,0,0-0.1,0-0.1c0.7,0,1.3,0,1.9,0c0.5,0,0.9,0.3,1.2,0.7c0.2,0.4,0.4,0.7,0.6,1.1c0.5,1,0.9,2,1.4,2.9c0.1,0.2,0.2,0.5,0.3,0.8
		c0,0.1,0,0.1,0.1,0.2c0.1,0.1,0.1,0.2,0.2,0.1c0.1,0,0.1-0.1,0.2-0.2c0,0,0,0,0,0c0.2-0.9,0.7-1.7,1.1-2.6c0.3-0.7,0.6-1.3,0.9-1.9
		c0.3-0.6,0.6-1.2,0.9-1.7c0.1-0.2,0.2-0.4,0.3-0.6c0.3-0.7,0.9-1.1,1.6-1.4c0.2-0.1,0.5-0.2,0.7-0.3c0.4-0.2,0.7-0.5,1-0.8
		C84.5,37.3,84.6,37.2,84.8,37"/>
	<path style="fill:#181716;" d="M152.6,47.2v0.9c0,0.4,0,0.8,0,1.2c0,0.2,0.1,0.3,0.3,0.3c0.1,0,0.2,0,0.2,0c0.5,0,1,0,1.5,0
		c0.6,0,1-0.2,1.3-0.7c0.7-1.1,0.7-2.3,0-3.4c-0.3-0.4-0.7-0.7-1.2-0.7c-0.5,0-1,0-1.5,0c-0.5,0-0.6,0-0.6,0.5
		C152.6,46,152.6,46.6,152.6,47.2 M152.6,58.9h-2.2c-0.1-0.2-0.1-17.4,0-17.8c0.1,0,0.2,0,0.3,0c1.4,0,2.7,0,4.1,0
		c0.9,0,1.7,0.4,2.3,1.1c0.7,0.8,1.1,1.8,1.4,2.8c0.2,0.9,0.3,1.8,0.3,2.7c-0.1,1.6-0.4,3-1.4,4.3c-0.1,0.1-0.2,0.2-0.3,0.4
		c-0.1,0.1-0.1,0.3-0.1,0.5c0.4,0.9,0.9,1.8,1.3,2.7c0.5,1.1,1.1,2.3,1.6,3.4c-0.1,0-0.2,0-0.2,0c-0.5,0-1,0-1.5,0
		c-0.5,0-0.9-0.2-1.1-0.5c-0.2-0.3-0.4-0.6-0.5-0.9c-0.6-1.2-1.2-2.5-1.8-3.8c0-0.1-0.1-0.1-0.1-0.2c-0.1-0.2-0.2-0.2-0.3-0.2
		c-0.4,0-0.9,0-1.3,0c-0.2,0-0.3,0.1-0.3,0.3c0,0.1,0,0.2,0,0.2c0,1.6,0,3.1,0,4.7C152.6,58.7,152.6,58.8,152.6,58.9"/>
	<path style="fill:#181716;" d="M166.9,49.1h4c0,0.1,0,0.2,0,0.3c0,2.4,0,4.7,0,7.1c0,0.2-0.1,0.3-0.1,0.5c-0.9,1.3-2.1,2-3.7,2.1
		c-1.6,0.1-2.9-0.6-3.9-1.7c-0.9-1-1.5-2.3-1.9-3.6c-0.4-1.5-0.6-3-0.5-4.5c0.1-1.9,0.5-3.7,1.5-5.4c0.6-1,1.3-1.8,2.2-2.4
		c1.4-0.8,2.8-0.8,4.2,0.1c0.9,0.6,1.5,1.3,2.1,2.2c0.1,0.2,0.2,0.4,0.4,0.6c-0.3,0.4-0.5,0.8-0.8,1.2c-0.4,0.6-1.1,0.7-1.7,0.2
		c-0.1-0.1-0.2-0.2-0.3-0.3c-0.6-0.5-1.2-0.8-1.9-0.8c-0.5,0-1,0.2-1.4,0.5c-0.6,0.5-1.1,1.1-1.4,1.8c-0.9,2.1-0.9,4.1,0.1,6.2
		c0.3,0.7,0.8,1.3,1.4,1.7c1.1,0.8,2.5,0.5,3.3,0c0.2-0.1,0.2-0.2,0.2-0.4c0-0.5,0-1,0-1.5c0-0.3-0.1-0.3-0.3-0.4
		c-0.6-0.1-1-0.5-1.2-1c-0.1-0.3-0.2-0.7-0.2-1C166.9,50.1,166.9,49.6,166.9,49.1"/>
	<path style="fill:#181716;" d="M170.8,29.5V33h-7.6c-0.1-0.2-0.1-17.3,0-17.8c2.5,0,5,0,7.6,0c0.1,0.2,0.1,2.9,0,3.4h-0.4H166
		c-0.1,0-0.1,0-0.2,0c-0.3,0-0.4,0.1-0.4,0.4c0,1,0,2,0,2.9c0,0.3,0.1,0.4,0.4,0.4c1.2,0,2.3,0,3.5,0h0.4v3.5h-0.3
		c-1.2,0-2.3,0-3.5,0c-0.1,0-0.2,0-0.2,0c-0.2,0-0.3,0.1-0.3,0.3c0,0.1,0,0.1,0,0.2c0,1,0,1.9,0,2.9c0,0.1,0,0.1,0,0.2
		c0,0.2,0.1,0.3,0.3,0.3c0.1,0,0.2,0,0.2,0c1.4,0,2.9,0,4.4,0H170.8z"/>
	<path style="fill:#181716;" d="M140.7,25.7h-0.4c-1.1,0-2.2,0-3.4,0c-0.1,0-0.1,0-0.2,0c-0.2,0-0.3,0.1-0.3,0.3c0,1,0,2.1,0,3.1
		c0,0.2,0.1,0.3,0.3,0.3c0.1,0,0.1,0,0.2,0c1.5,0,2.9,0,4.4,0h0.4V33h-7.6c-0.1-0.2-0.1-17.3,0-17.8h7.6v3.4h-0.4H137
		c-0.1,0-0.1,0-0.2,0c-0.3,0-0.4,0.1-0.4,0.4c0,1,0,2,0,2.9c0,0.3,0.1,0.4,0.4,0.4c1.2,0,2.4,0,3.5,0h0.4L140.7,25.7L140.7,25.7z"/>
	<path style="fill:#181716;" d="M92.4,48.2v3.4c-0.1,0-0.2,0-0.3,0c-1.1,0-2.2,0-3.3,0c-0.1,0-0.2,0-0.3,0c-0.2,0-0.2,0.1-0.2,0.2
		c0,0.1,0,0.1,0,0.2c0,1,0,1.9,0,2.9c0,0,0,0,0,0.1c0,0.3,0.1,0.4,0.4,0.4c0.9,0,1.9,0,2.8,0c0.6,0,1.3,0,1.9,0
		c0.1,0.3,0.1,2.9,0,3.4H86V41.1c0.2-0.1,6.9-0.1,7.3,0v3.4H93h-4.2c-0.1,0-0.1,0-0.2,0c-0.3,0-0.4,0.1-0.4,0.4c0,1,0,2,0,2.9
		c0,0.3,0.1,0.4,0.4,0.4c0.5,0,0.9,0,1.4,0c0.8,0,1.5,0,2.2,0C92.3,48.2,92.4,48.2,92.4,48.2"/>
	<path style="fill:#181716;" d="M144.9,41.1h2.2v0.3c0,3.5,0,7,0,10.5c0,1.6-0.3,3.1-1.1,4.5c-0.4,0.7-0.9,1.3-1.5,1.9
		c-1.3,1-2.9,1-4.1,0c-0.8-0.7-1.4-1.5-1.8-2.5c-0.4-1-0.7-2.1-0.8-3.2c0-0.5,0-1,0-1.5c0-3.2,0-6.4,0-9.6v-0.4c0.4,0,0.7,0,1.1,0
		s0.7,0,1.1,0c0.1,0.1,0.1,0.2,0.1,0.4c0,3.5,0,7,0,10.5c0,0.8,0.2,1.6,0.7,2.3c0.2,0.2,0.4,0.5,0.6,0.7c0.8,0.7,1.7,0.6,2.4-0.1
		c0.6-0.6,0.9-1.3,1.1-2.1c0.1-0.3,0.1-0.7,0.1-1.1c0-3.4,0-6.8,0-10.2L144.9,41.1L144.9,41.1z"/>
	<path style="fill:#181716;" d="M53.8,21.2c0,0.7,0,1.3,0,2c0,0.3,0.1,0.4,0.4,0.4c0.6,0,1.2,0,1.8,0c0.6,0,1-0.2,1.3-0.7
		c0.4-0.6,0.5-1.2,0.5-1.9c0-0.7-0.3-1.3-0.7-1.8c-0.2-0.2-0.5-0.4-0.9-0.4c-0.6,0-1.2,0-1.8,0c-0.4,0-0.5,0-0.5,0.5
		C53.8,20,53.8,20.6,53.8,21.2 M51.5,15.1H52c1.4,0,2.8,0,4.2,0c0.8,0,1.5,0.3,2,0.8c0.7,0.6,1.1,1.4,1.4,2.2c0.4,1,0.5,2,0.5,3.1
		c0,1.3-0.2,2.5-0.8,3.7c-0.4,0.8-0.8,1.4-1.5,2c-0.5,0.4-1,0.5-1.6,0.5c-0.6,0-1.3,0-1.9,0c-0.3,0-0.4,0.1-0.4,0.4
		c0,1.6,0,3.2,0,4.8v0.3c-0.3-0.1-0.6-0.2-0.8-0.4c-1-0.6-1.5-1.5-1.5-2.7c0-4.8,0-9.6,0-14.4L51.5,15.1L51.5,15.1z"/>
	<path style="fill:#9C9C9C;" d="M67.6,41.1h2.2c0,0.1,0,0.2,0,0.3c0,3.6,0,7.2,0,10.8c0,1.8-0.5,3.4-1.4,4.9c-0.3,0.5-0.8,1-1.2,1.3
		c-1.3,1-2.9,0.9-4.2-0.2c-0.7-0.6-1.2-1.3-1.6-2.2c-0.6-1.3-0.9-2.8-0.9-4.2c0-3.4,0-6.7,0-10.1v-0.7h2.2v0.4c0,3.4,0,6.9,0,10.3
		c0,1,0.3,1.9,0.9,2.7c0.2,0.2,0.4,0.4,0.6,0.5c0.7,0.5,1.5,0.4,2.2-0.2c0.7-0.6,1-1.3,1.2-2.1c0.1-0.3,0.1-0.6,0.1-0.9
		c0-3.5,0-6.9,0-10.4L67.6,41.1L67.6,41.1z"/>
	<path style="fill:#181716;" d="M131.4,18.4c-0.2,0.4-0.5,0.7-0.7,1c-0.1,0.1-0.1,0.2-0.2,0.3c-0.6,0.5-1.2,0.5-1.6,0.1
		c-0.1-0.1-0.2-0.2-0.3-0.3c-0.7-0.6-1.6-0.9-2.5-0.7c-0.4,0.1-0.8,0.4-1.2,0.7c-0.7,0.6-1.1,1.4-1.4,2.2c-0.3,0.8-0.4,1.7-0.4,2.6
		c0.1,1.4,0.4,2.7,1.3,3.8c0.3,0.4,0.6,0.6,1,0.9c1,0.6,2.1,0.6,3-0.1c0.2-0.1,0.3-0.3,0.5-0.4c0.2-0.1,0.4-0.3,0.6-0.4
		c0.5-0.2,0.9,0,1.3,0.4c0.3,0.4,0.6,0.8,0.8,1.2c-0.1,0.2-0.2,0.4-0.3,0.5c-0.6,0.8-1.2,1.5-2,2.1c-0.6,0.4-1.3,0.7-2.1,0.8
		c-0.8,0.1-1.6-0.1-2.3-0.5c-1-0.5-1.8-1.3-2.4-2.3c-0.8-1.3-1.3-2.7-1.5-4.2c-0.2-1-0.2-2-0.1-3c0.1-1.8,0.6-3.5,1.5-5.1
		c0.5-0.9,1.2-1.7,2.1-2.3c1.5-1,3.2-1.1,4.8,0.1c0.9,0.6,1.6,1.5,2.2,2.3C131.3,18.2,131.3,18.3,131.4,18.4"/>
	<path style="fill:#181716;" d="M93.7,33h-2.1c-1.7-5.9-3.4-11.9-5.2-17.8c0.1,0,0.2,0,0.3,0c0.4,0,0.7,0,1.1,0
		c0.4,0,0.7,0.1,0.9,0.4c0.3,0.3,0.6,0.7,0.7,1.1c0.5,1.8,1.1,3.6,1.6,5.5c0.4,1.3,0.7,2.5,1.1,3.8c0.1,0.4,0.2,0.8,0.2,1.2
		c0,0.1,0,0.2,0,0.2c0,0.2,0.1,0.3,0.3,0.3c0.1,0,0.2-0.1,0.2-0.3c0-0.1,0-0.2,0-0.3c0.2-0.8,0.4-1.5,0.6-2.3
		c0.8-2.6,1.5-5.2,2.3-7.8c0.1-0.3,0.2-0.5,0.3-0.8c0.1-0.2,0.3-0.4,0.4-0.6c0.2-0.2,0.4-0.3,0.6-0.3c0.5,0,1.1,0,1.7,0
		C97.2,21.1,95.4,27,93.7,33"/>
	<path style="fill:#181716;" d="M0,54.1h0.4c3.9,0,7.9,0,11.8,0c0.4,0,0.8,0.1,1.2,0.3c0.4,0.2,0.8,0.4,1.1,0.7
		c0.7,0.6,1.4,1.2,1.9,1.9c0.5,0.6,1,1.3,1.5,2c0,0,0,0.1,0,0.1c-0.1,0-0.1,0.1-0.2,0.1c-0.1,0-0.2,0-0.2,0c-4.9,0-9.7,0-14.6,0
		c-0.6,0-1.1-0.2-1.6-0.5c-0.8-0.5-1.2-1.2-1.4-2.1c0,0,0-0.1,0-0.1C0,55.6,0,54.9,0,54.1"/>
	<path style="fill:#9C9C9C;" d="M60,59.2c-0.2,0-0.3,0-0.4,0c-1.5,0-3,0-4.5,0c-0.3,0-0.7,0-1,0c-0.1,0-0.2,0-0.3-0.1
		c-1-0.4-1.7-1-2.1-2c-0.1-0.2-0.1-0.4-0.2-0.7c0-0.3,0-0.7,0-1.1c0-4.6,0-9.2,0-13.8v-0.4h2.2c0,0,0,0,0,0c0,0,0,0,0,0
		c0,0,0,0.1,0,0.1c0,4.7,0,9.3,0,14c0,0,0,0,0,0s0,0,0,0c0.1,0.1,0.2,0,0.3,0c0.8,0,1.6,0,2.4,0c0.2,0,0.4,0.1,0.5,0.2
		c0.8,0.7,1.5,1.5,2.1,2.3c0.2,0.3,0.5,0.7,0.7,1C59.9,58.9,59.9,59,60,59.2"/>
	<path style="fill:#181716;" d="M103.4,16V33h-2.3V16C102.3,16.4,102.4,16.3,103.4,16"/>
	<path style="fill:#181716;" d="M0,44.3c1.6,0,3.2,0,4.9,0c0.1,0,0.1,0,0.2,0c0,0.1,0,0.2,0,0.3c0,0.4,0,0.7,0,1.1
		c0,0.9,0.2,1.8,0.6,2.6C5.8,48.6,6,49,6.3,49.4H0.1C0,49.1,0,45,0,44.3"/>
	<path style="fill:#181716;" d="M0,20v-5c0.2-0.1,3.8-0.1,4.8-0.1c0.1,0,0.2,0,0.2,0.1v5H0z"/>
	<path style="fill:#181716;" d="M0,39.6v-5.1h5c0,0.1,0,0.2,0,0.3c0,1.5,0,3,0,4.5c0,0,0,0.1,0,0.1c0,0.1-0.1,0.2-0.2,0.2
		c-0.1,0-0.1,0-0.2,0c-1.5,0-2.9,0-4.3,0C0.3,39.6,0.2,39.6,0,39.6"/>
	<path style="fill:#181716;" d="M5.1,29.8H0v-5c0.3-0.1,4.7-0.1,5,0C5.1,25,5.1,29.5,5.1,29.8"/>
	<path style="fill:#181716;" d="M102.2,11.9c0.8-0.1,1.5,0.7,1.5,1.5c0,0.8-0.7,1.5-1.5,1.5c-0.8,0-1.5-0.7-1.5-1.4
		C100.7,12.5,101.3,11.9,102.2,11.9"/>
</g>
</svg>
