<?xml version="1.0" encoding="utf-8"?>
<!-- Generator: Adobe Illustrator 24.2.3, SVG Export Plug-In . SVG Version: 6.00 Build 0)  -->
<!DOCTYPE svg PUBLIC "-//W3C//DTD SVG 1.1//EN" "http://www.w3.org/Graphics/SVG/1.1/DTD/svg11.dtd" [
	<!ENTITY ns_extend "http://ns.adobe.com/Extensibility/1.0/">
	<!ENTITY ns_ai "http://ns.adobe.com/AdobeIllustrator/10.0/">
	<!ENTITY ns_graphs "http://ns.adobe.com/Graphs/1.0/">
	<!ENTITY ns_vars "http://ns.adobe.com/Variables/1.0/">
	<!ENTITY ns_imrep "http://ns.adobe.com/ImageReplacement/1.0/">
	<!ENTITY ns_sfw "http://ns.adobe.com/SaveForWeb/1.0/">
	<!ENTITY ns_custom "http://ns.adobe.com/GenericCustomNamespace/1.0/">
	<!ENTITY ns_adobe_xpath "http://ns.adobe.com/XPath/1.0/">
]>
<svg version="1.1" xmlns:x="&ns_extend;" xmlns:i="&ns_ai;" xmlns:graph="&ns_graphs;"
	 xmlns="http://www.w3.org/2000/svg" xmlns:xlink="http://www.w3.org/1999/xlink" x="0px" y="0px" viewBox="0 0 171.2 65.3"
	 style="enable-background:new 0 0 171.2 65.3;" xml:space="preserve">
<style type="text/css">
	.st0{display:none;}
	.st1{display:inline;}
	.st2{fill:#9C9C9C;}
	.st3{fill:#181716;}
	.st4{fill:#1D1D1B;}
</style>
<metadata>
	<sfw  xmlns="&ns_sfw;">
		<slices></slices>
		<sliceSourceBounds  bottomLeftOrigin="true" height="63.8" width="171.2" x="0" y="-0.1"></sliceSourceBounds>
	</sfw>
</metadata>
<g id="Calque_1" class="st0">
	<g class="st1">
		<path class="st2" d="M27.4,21.8C27.4,21.8,27.5,21.8,27.4,21.8c0.1,0,0.2-0.1,0.2-0.2c0.1-0.3,0.3-0.6,0.4-0.8
			c0.2-0.4,0.4-0.8,0.8-1.1c0.2-0.2,0.3-0.3,0.6-0.3c0.1,0.1,0.1,0.1,0.2,0.2c0.3,0.3,0.7,0.3,1,0.1c0.4-0.3,0.5-0.7,0.2-1.1
			c-0.2-0.3-0.6-0.5-1-0.4c-0.5,0.1-0.9,0.3-1.2,0.7c-0.6,0.6-0.9,1.2-1.2,2c-0.1,0.2-0.1,0.4-0.1,0.6
			C27.3,21.6,27.4,21.7,27.4,21.8 M11.8,28.8c-0.4,0-0.8,0.1-1.2,0.2c-0.3,0.1-0.6,0.2-0.9,0.3c-0.1,0-0.3,0-0.5,0.1
			c0.2-0.4,0.4-0.7,0.6-1c0.5-0.8,1.1-1.5,1.7-2.2c0.8-1,1.7-1.9,2.5-2.9c0.9-0.9,1.8-1.8,2.8-2.6c1.4-1.2,2.9-2.1,4.5-3
			c0.5-0.2,0.9-0.5,1.4-0.8c1-0.5,1.9-0.9,2.9-1.4c0.5-0.3,1.1-0.5,1.6-0.7c0.7-0.3,1.5-0.5,2.3-0.7c0.8-0.1,1.2,0.3,1.6,0.8
			c0.2,0.2,0.3,0.6,0.3,0.9c0,0.1,0,0.2,0.1,0.4c0.1,0.3,0.2,0.4,0.6,0.4c0.5-0.1,1-0.1,1.4-0.2c0.8-0.1,1.5-0.1,2.3,0
			c0.2,0,0.4,0.1,0.6,0.1c0.2,0.1,0.5,0,0.8,0c0.2-0.1,0.4-0.1,0.6-0.1c0.2,0,0.4,0.1,0.6,0.3c0.3,0.3,0.4,0.7,0.5,1.1
			c0.2,0.8,0.3,1.6,0.2,2.4c0,0.6,0,1.2-0.1,1.8c0,0.2-0.1,0.4-0.3,0.5c-0.2,0.1-0.2,0.2-0.3,0.3c-0.2,0.5-0.5,0.9-0.8,1.2
			c0,0-0.1,0-0.1,0.1c0-0.1-0.1-0.2-0.1-0.3c-0.1-0.3-0.1-0.6-0.3-0.8c-0.1-0.1-0.2-0.2-0.3-0.3c-0.2,0-0.2-0.1-0.3-0.2
			c-0.4-0.5-0.9-0.8-1.5-0.9c-0.6-0.1-1.1-0.1-1.7,0.1c-1.1,0.3-2,1-2.9,1.8c-0.7,0.7-1.3,1.5-1.7,2.3c-0.8,1.5-1.2,3-1.1,4.7
			c0,0.9,0.2,1.7,0.8,2.5c0.7,0.9,1.6,1.3,2.7,1.2c1.3-0.1,2.3-0.8,3.3-1.7c0.8-0.8,1.5-1.6,2-2.6c0.1-0.1,0.1-0.3,0.3-0.4
			c0.1,0,0.2-0.2,0.3-0.3c0.2-0.4,0.3-0.7,0.3-1.1c0-0.1,0-0.1,0-0.2c0.2,0.1,0.3,0.2,0.4,0.4c0.2,0.3,0.3,0.6,0.3,1
			c0,0.3,0.1,0.5,0.4,0.6c0.5,0.4,0.8,0.9,0.6,1.6c0,0.1-0.1,0.3-0.1,0.4c-0.1,0.2-0.1,0.4,0,0.5c0,0.2,0.1,0.3,0.1,0.5
			c0,0.2,0,0.3,0.1,0.5c0.1,0.6-0.3,1.3-0.9,1.6c-0.3,0.1-0.6,0.2-0.8,0c-0.1-0.1-0.2-0.1-0.4,0c-0.7,0.2-1.4,0.6-2,1
			c-0.1,0.1-0.2,0.2-0.4,0.3c0.2,0.1,0.4,0.3,0.6,0.4c1,0.5,1.9,1.1,2.8,1.8c0.5,0.3,0.8,0.7,1,1.3c0,0.1,0,0.2,0,0.3
			c0,0.5,0,1,0,1.5c0,0.3-0.1,0.3-0.4,0.3c-0.9-0.2-1.8-0.4-2.7-0.6c-0.9-0.2-1.7-0.2-2.6,0c-0.4,0.1-0.8,0.2-1.2,0.3
			c0.5-0.5,1.1-0.5,1.7-0.6c-0.1-0.1-0.1-0.1-0.2-0.1c-0.5-0.1-1.1-0.2-1.6-0.3c-1.2,0-2.4,0.1-3.6,0.4c-0.3,0.1-0.6,0.2-0.9,0.3
			c-0.1-0.2,0-0.5-0.1-0.7c0-0.2,0-0.4,0-0.7c-0.3,0.6-0.8,0.8-1.2,1.2c-0.5,0.5-1,0.9-1.5,1.4c-0.3,0.4-0.7,0.7-1.1,1.1
			c-0.6,0.7-1.4,1.2-2.2,1.7c-1.5,1-2.7,2.2-3.7,3.6c-0.2,0.4-0.5,0.7-0.7,1c-0.3,0.4-0.6,0.7-1,0.9c-0.1,0.1-0.2,0.1-0.4,0.1
			c-0.1,0-0.1,0-0.2,0.1c0,0,0,0.1,0.1,0.2c0.1,0.1,0.3,0.3,0.4,0.4c0.2,0.2,0.3,0.4,0.5,0.6c0.1,0.1,0.2,0.2,0.3,0.1
			c0.1,0,0.2,0,0.3,0c0.4,0,0.8-0.1,1.2-0.2c0.2,0,0.4,0,0.6-0.1c0.8-0.1,1.6,0,2.3,0c0.9,0,1.7,0.1,2.6,0.2c0.3,0.1,0.6,0.1,1,0.2
			c1,0.2,1.9,0.6,2.6,1.2c0.1,0.1,0.2,0.1,0.2,0.2c0.3,0.5,0.6,1,0.8,1.5c0,0.1,0,0.2,0,0.2c0,0.3,0,0.7,0,1c0,0.3-0.2,0.5-0.5,0.5
			c-0.8,0-1.5,0.2-2.1,0.5c-0.6,0.3-1.2,0.6-1.7,1c-0.6,0.5-1.1,1-1.5,1.6c-0.4,0.6-0.8,1.3-1.1,1.9c-0.4,0.8-0.8,1.6-1.2,2.4
			c-0.1,0.2-0.2,0.5-0.3,0.7c0,0.1-0.1,0.1-0.1,0.2c-0.1-0.3-0.3-0.5-0.4-0.8c-0.3-0.6-0.6-1.3-0.9-1.9c-0.3-0.5-0.6-1-1-1.5
			c-0.4-0.6-0.9-1.1-1.3-1.7c-0.2-0.2-0.4-0.4-0.6-0.5c-0.4-0.3-0.8-0.6-1.2-0.8c-0.4-0.3-0.9-0.5-1.3-0.6c-0.6-0.1-1.1-0.3-1.7-0.4
			c-0.3-0.1-0.7-0.1-1-0.1c-0.4,0-0.6-0.2-0.8-0.5c-0.4-0.8-0.7-1.6-0.7-2.5c0-0.5-0.1-1-0.1-1.5c0-1.4,0.3-2.8,0.7-4.2
			c0.2-0.8,0.6-1.5,1-2.2c0.4-0.7,0.7-1.3,1.1-1.9c0,0,0-0.1,0.1-0.1c-0.3,0-0.5,0.2-0.7,0.3c-0.6,0.5-1.3,1-1.8,1.6
			c-0.5,0.5-0.8,1.1-1.1,1.8c-0.1,0.2-0.2,0.4-0.2,0.7C8.1,48.8,8,48.9,8,49c-0.2,0-0.3-0.2-0.3-0.3c-0.6-1-0.9-2-1.1-3.1
			c-0.1-0.6-0.1-1.2-0.1-1.9c0-1,0.1-2.1,0.5-3.1c0.3-0.7,0.7-1.4,1.1-2c0.3-0.5,0.7-0.9,1.1-1.3c0.2-0.2,0.4-0.4,0.6-0.7
			c-0.4,0.1-0.7,0.2-1,0.4c-0.6,0.5-1.2,0.9-1.7,1.5C7,38.9,6.8,39,6.7,39.2c-0.1-0.1-0.1-0.2-0.1-0.3c0-0.5,0-0.9,0.1-1.3
			c0.1-0.6,0.3-1.2,0.5-1.8c0.2-0.6,0.5-1.2,0.7-1.7c0.1-0.3,0.3-0.6,0.4-0.9c0.3-0.8,0.9-1.3,1.3-2c0.4-0.6,1-1.1,1.5-1.6
			C11.4,29.3,11.6,29.1,11.8,28.8"/>
		<path class="st2" d="M19.3,7c-0.1-0.4,0.1-0.6,0.3-0.9c0.4-0.4,0.8-0.7,1.2-0.9c0.4-0.2,0.8-0.3,1.2-0.4c0,0,0.1,0,0.1,0
			c1-0.1,2,0,3,0.5c0.9,0.4,1.6,1,2.1,1.8c0.2,0.4,0.5,0.8,0.5,1.3c0,0.3,0,0.6,0,1c0,0.3-0.2,0.6-0.5,0.8c-0.3,0.3-0.6,0.5-0.8,0.8
			c-0.2,0.2-0.4,0.5-0.5,0.7c-0.1,0.1-0.1,0.1,0,0.4c0.5-0.2,0.9-0.6,1.4-0.8v2.1c-0.4,0.1-0.7,0.3-1,0.4c-0.6,0.3-1.3,0.6-1.9,0.9
			c-0.1,0.1-0.3,0.1-0.4,0.2c-0.6,0.3-1.2,0.7-1.8,1c-0.4,0.2-0.8,0.5-1.1,0.7c-0.7,0.5-1.5,0.9-2.2,1.4c-0.7,0.5-1.4,1-2,1.4
			c-0.3,0.2-0.6,0.4-0.8,0.7c-0.6,0.5-1.3,1-1.9,1.6c-0.5,0.5-1,1-1.4,1.6c-0.4,0.4-0.7,0.9-1.1,1.4c0,0-0.1,0.1-0.1,0.1
			c-0.1,0-0.1-0.1-0.1-0.2c0.1-0.2,0.1-0.4,0.2-0.6c0.1-0.5,0.1-0.9,0-1.4c0-0.1-0.1-0.2-0.1-0.3c-0.2,0.2-0.4,0.5-0.6,0.7
			c-0.2,0.2-0.4,0.4-0.6,0.6c-0.7,0.5-1.3,0.4-1.8,0c-0.3-0.2-0.6-0.5-0.8-0.9C7.2,21.8,7,21,7,20.1c0-1.1,0.3-2,1.1-2.8
			c0.3-0.3,0.7-0.4,1.1-0.6c0.1,0,0.2,0,0.2,0c0.3,0,0.4,0.2,0.4,0.5c0,0.3-0.1,0.5,0,0.8c0,0.8,0.6,1.4,1.4,1.5
			c0.6,0.1,1.2-0.2,1.7-0.6c0.3-0.2,0.5-0.5,0.8-0.7c0.6-0.6,0.8-1.4,0.8-2.2c0-0.8-0.4-1.4-1.1-1.7c-0.2-0.1-0.4-0.1-0.6-0.1
			c-0.3,0-0.5,0.2-0.5,0.4c-0.1,0.3,0.1,0.6,0.4,0.7c0.1,0,0.2,0,0.4,0.1c0.2,0,0.3,0.1,0.4,0.4c0,0.2-0.1,0.4-0.2,0.6
			c-0.3,0.4-0.7,0.7-1.2,0.7c-0.2,0-0.5,0-0.7-0.1c-0.7-0.3-1.2-1.1-1.2-1.7c0-0.9,0.7-1.9,1.5-2c0.2,0,0.4-0.1,0.5-0.2
			c0.1-0.1,0.3-0.1,0.4-0.2c0.2-0.2,0.2-0.5,0.1-0.7c-0.1-0.2-0.5-0.3-0.7-0.1c-0.1,0.1-0.3,0.2-0.4,0.3c-0.2-0.2-0.3-0.7-0.2-1.1
			c0.1-0.4,0.4-0.6,0.8-0.7c-0.1-0.3-0.3-0.5-0.4-0.8c-0.1-0.3-0.2-0.6-0.1-0.9c0.7-0.1,1.3,0.1,1.8,0.6c0.4-0.5,0.8-1,1.5-0.9
			c0,0.1-0.1,0.1-0.1,0.2c-0.2,0.4-0.2,0.9-0.1,1.3c0,0,0,0.1,0.1,0.1c0.2,0.3,0.4,0.3,0.7,0.1c0.3-0.3,0.4-0.6,0.5-1
			c0.1-0.3,0.1-0.7,0.4-1c0.4-0.5,0.9-0.9,1.6-0.8c0.5,0,1,0.2,1.3,0.8c0.5,0.9,0.4,1.7-0.1,2.5c-0.2,0.3-0.4,0.4-0.8,0.3
			c-0.2,0-0.4-0.3-0.4-0.6c0-0.2,0.1-0.3,0.4-0.3c0.1,0,0.3,0.1,0.3-0.1c0-0.1,0-0.2-0.1-0.4c-0.2-0.3-0.5-0.3-0.8-0.2
			c-0.4,0.2-0.5,0.5-0.5,0.9c0,0.5,0.2,0.9,0.6,1.3c0.4,0.3,0.9,0.6,1.5,0.6c0.3,0,0.5-0.1,0.8-0.1c1-0.4,1.5-1.1,1.7-2.2
			c0.1-0.6,0.1-1.1-0.2-1.6c-0.4-0.7-0.9-1.2-1.7-1.3C19.6,7,19.5,7,19.3,7"/>
		<path class="st3" d="M109.3,45.7v17.8h-2.2c0-0.1,0-0.3,0-0.4c0-3.7,0-7.3,0-11c0-0.1,0-0.2,0-0.3c0-0.2-0.1-0.3-0.2-0.3
			c-0.1,0-0.2,0.1-0.2,0.2c-0.1,0.2-0.1,0.4-0.2,0.7c-0.4,1.6-0.8,3.3-1.2,4.9c-0.5,2-1,4-1.4,5.9c0,0.1,0,0.2-0.1,0.2h-2
			c-0.1-0.4-0.2-0.8-0.3-1.2c-0.9-3.5-1.7-6.9-2.6-10.4c0-0.1-0.1-0.2-0.1-0.3c0-0.1-0.1-0.2-0.2-0.2c-0.1,0-0.2,0.1-0.2,0.2
			c0,0.1,0,0.2,0,0.3c0,3.7,0,7.4,0,11.1v0.4h-2.2c-0.1-0.2-0.1-17.4,0-17.8c0.1,0,0.2,0,0.2,0c0.8,0,1.6,0,2.4,0
			c0.5,0,0.8,0.2,1.1,0.5c0.2,0.3,0.4,0.6,0.4,0.9c0.7,2.9,1.3,5.8,2,8.7c0.1,0.5,0.2,0.9,0.2,1.4c0,0.1,0,0.2,0.1,0.2
			c0,0.1,0.1,0.2,0.2,0.2c0.1,0,0.2-0.1,0.2-0.2c0-0.1,0-0.2,0-0.3c0.2-0.8,0.3-1.6,0.5-2.4c0.5-2.3,1-4.7,1.6-7.1
			c0.1-0.3,0.1-0.7,0.2-1c0.2-0.5,0.5-0.9,1.1-1c0.1,0,0.1,0,0.2,0C107.5,45.7,108.4,45.7,109.3,45.7"/>
		<path class="st3" d="M22,63.8c0-0.2,0.1-0.3,0.1-0.4c0.2-0.5,0.5-0.9,0.8-1.4c0.3-0.5,0.6-1,1-1.4c1-1.4,2.4-2.4,4-3.1
			c0.4-0.2,0.7-0.3,1.1-0.2c0.1,0,0.1,0,0.3,0c0-0.2,0-0.3,0-0.5c-0.1-0.6,0.1-1.2,0.4-1.8c0.2-0.4,0.5-0.7,0.9-0.9
			c0.7-0.4,1.3-0.8,2-1c0.7-0.2,1.3-0.4,2-0.5c0.1,0,0.3,0,0.4,0c-0.5,0.2-1,0.4-1.4,0.7c0.1,0,0.2,0,0.3-0.1c1-0.2,2-0.3,3-0.2
			c0.4,0,0.8,0,1.2-0.1c0,0,0.1,0,0.2,0c-0.3,0.3-0.6,0.4-1,0.5c0.5,0.3,1.1,0.2,1.5-0.1c0,0.2-0.2,0.3-0.3,0.5c0,0,0,0,0,0
			c0.6,0.3,0.6,0.3,0.6,1c0,2,0,4,0,6c0,1-0.4,1.8-1.2,2.3c-0.2,0.2-0.4,0.3-0.6,0.4c-0.3,0.2-0.7,0.3-1.1,0.3c-4.6,0-9.1,0-13.7,0
			C22.3,63.8,22.2,63.8,22,63.8"/>
		<path class="st3" d="M115.6,19.8h2.2c0,0,0,0,0,0s0,0,0,0c0,5.8,0,11.7,0,17.5c0,0.1,0,0.2,0,0.3h-2.4c-0.2-0.4-0.4-0.8-0.6-1.3
			c-0.6-1.4-1.3-2.8-1.9-4.2c-0.8-1.7-1.6-3.4-2.3-5.1c-0.3-0.6-0.5-1.2-0.8-1.8c0-0.1-0.1-0.1-0.1-0.2c-0.1-0.1-0.2-0.1-0.2-0.1
			c-0.1,0-0.2,0.1-0.2,0.2c0,0.1,0,0.2,0,0.2c0,0.3,0,0.6,0,1c0,3.6,0,7.2,0,10.8v0.4h-2.3V19.8c0.1,0,0.2,0,0.2,0
			c0.8,0,1.5,0,2.3,0c0.5,0,0.8,0.2,1,0.7c0.8,1.9,1.7,3.8,2.5,5.6c0.5,1.2,1.1,2.4,1.6,3.6c0.1,0.3,0.2,0.6,0.3,0.9
			c0,0.1,0.1,0.2,0.1,0.3c0,0.1,0.1,0.2,0.2,0.2s0.2-0.1,0.2-0.2c0-0.1,0-0.2,0-0.3c0-1.2,0-2.4,0-3.5v-6.8L115.6,19.8L115.6,19.8z"
			/>
		<path class="st3" d="M114.9,51c0,0.4,0,0.8,0,1.3c0,0.2,0.1,0.3,0.3,0.3c0.1,0,0.1,0,0.1,0c0.8,0,1.5,0,2.2,0
			c0.4,0,0.7-0.2,0.9-0.5c0.4-0.6,0.4-1.7,0-2.3c-0.2-0.2-0.4-0.4-0.7-0.4c-0.8,0-1.7,0-2.5,0c-0.3,0-0.4,0.1-0.4,0.4
			C114.9,50.2,114.9,50.6,114.9,51 M116.8,56.4c-0.5,0-0.9,0-1.4,0c-0.4,0-0.4,0-0.4,0.4c0,0.9,0,1.7,0,2.6c0,0,0,0.1,0,0.1
			c0,0.2,0.1,0.2,0.3,0.3c0.1,0,0.1,0,0.2,0c0.9,0,1.8,0,2.7,0c0.4,0,0.7-0.2,0.9-0.5c0.5-0.8,0.5-1.6,0-2.4c-0.2-0.4-0.5-0.6-1-0.5
			C117.6,56.4,117.2,56.4,116.8,56.4 M112.7,63.6V45.7c0.1,0,0.2,0,0.3,0c1.5,0,3,0,4.4,0c0.9,0,1.6,0.3,2.1,1
			c0.6,0.6,0.9,1.4,1.2,2.2c0.2,0.7,0.3,1.4,0.3,2.1c0,0.8-0.2,1.5-0.4,2.2c-0.1,0.3-0.2,0.5-0.5,0.7c-0.2,0.1-0.2,0.3,0,0.4
			c0.3,0.2,0.5,0.4,0.7,0.7c0.3,0.6,0.5,1.3,0.6,2c0.2,1.4,0.1,2.7-0.5,4c-0.3,0.7-0.7,1.4-1.4,1.9c-0.5,0.4-1,0.6-1.7,0.6
			c-1.6,0-3.3,0-4.9,0C113,63.6,112.8,63.6,112.7,63.6"/>
		<path class="st3" d="M153.6,23.5c-0.4,0-0.7,0-1.1,0c-0.4,0-0.5,0.1-0.5,0.5c0,0,0,0,0,0.1c0,3.1,0,6.2,0,9.3c0,0.1,0,0.2,0,0.3
			c0,0.1,0.1,0.2,0.2,0.2c0.1,0,0.2,0,0.2,0c0.6,0,1.2,0,1.9,0c0.7,0,1.3-0.2,1.9-0.7c0.7-0.5,1.1-1.2,1.4-2c0.6-1.5,0.6-3,0.1-4.6
			c-0.3-1-0.8-1.8-1.5-2.4c-0.5-0.4-1.1-0.7-1.8-0.7C154.1,23.5,153.9,23.5,153.6,23.5 M149.7,19.8h0.4c1.4,0,2.9,0,4.3,0
			c1.1,0,2,0.3,2.8,1c1,0.7,1.6,1.7,2.1,2.8c0.6,1.2,0.9,2.5,1,3.8c0.2,2.2-0.1,4.4-1,6.4c-0.5,1.1-1.2,2.1-2.1,2.8
			c-0.9,0.7-1.8,1.1-3,1c-0.6,0-1.3,0-1.9,0c-0.3,0-0.5,0-0.8-0.2c-0.6-0.3-1.2-0.7-1.5-1.3c-0.3-0.5-0.4-1-0.4-1.6
			c0-4.8,0-9.6,0-14.4L149.7,19.8L149.7,19.8z"/>
		<path class="st3" d="M83.6,28.7c0-0.9-0.1-1.8-0.5-2.6c-0.4-0.9-0.9-1.7-1.7-2.2c-0.9-0.6-2.1-0.7-3,0c-0.6,0.4-1,0.8-1.3,1.4
			c-0.6,0.9-0.8,2-0.9,3c-0.1,1.4,0.2,2.6,0.8,3.8c0.3,0.6,0.8,1.2,1.4,1.5c0.8,0.5,1.6,0.6,2.5,0.3c0.8-0.3,1.3-0.9,1.7-1.5
			C83.2,31.2,83.6,30,83.6,28.7 M73.8,28.9c0-1.9,0.3-3.5,0.9-5c0.4-1,1-1.9,1.7-2.7c0.8-0.9,1.8-1.5,3-1.6c0.8-0.1,1.6,0.1,2.4,0.5
			c1,0.5,1.7,1.3,2.3,2.2c0.8,1.2,1.3,2.6,1.6,4.1c0.2,0.9,0.2,1.8,0.2,2.6c-0.1,1.8-0.4,3.5-1.2,5.2c-0.5,1-1.2,1.9-2.1,2.6
			c-0.7,0.5-1.4,0.8-2.3,0.9c-1,0.1-1.9-0.2-2.7-0.7c-1.1-0.7-1.8-1.6-2.4-2.7c-0.7-1.4-1.1-2.9-1.2-4.4
			C73.8,29.5,73.8,29.1,73.8,28.9"/>
		<path class="st3" d="M65.3,25.9c0,0.6,0,1.3,0,2c0,0.4,0.1,0.4,0.4,0.4c0.6,0,1.2,0,1.9,0c0.3,0,0.6-0.1,0.8-0.3
			c0.3-0.3,0.5-0.6,0.6-1c0.4-1.1,0.2-2.1-0.5-3c-0.2-0.3-0.6-0.5-1-0.5c-0.6,0-1.2,0-1.8,0c-0.3,0-0.4,0.1-0.4,0.4
			C65.3,24.6,65.3,25.2,65.3,25.9 M72.8,37.6c-0.1,0-0.2,0-0.3,0c-0.5,0-1,0-1.4,0c-0.6,0-1-0.2-1.4-0.7c-0.1-0.2-0.2-0.4-0.4-0.6
			c-0.5-0.9-0.9-1.9-1.4-2.8c-0.2-0.4-0.4-0.8-0.6-1.2c-0.1-0.2-0.2-0.3-0.5-0.3c-0.4,0-0.8,0-1.2,0c-0.3,0-0.4,0.1-0.4,0.4
			c0,1.2,0,2.4,0,3.6v1.6h-2.3c0,0,0,0,0,0s0,0,0,0c0-5.9,0-11.8,0-17.6c0,0,0-0.1,0-0.1c0.1,0,0.2,0,0.3,0c1.4,0,2.8,0,4.2,0
			c1,0,1.8,0.4,2.5,1.2c0.7,0.8,1.1,1.8,1.3,2.8c0.4,1.7,0.4,3.4-0.2,5.1c-0.3,0.8-0.7,1.5-1.2,2.1c-0.1,0.1-0.1,0.1-0.2,0.2
			c-0.1,0.1-0.1,0.2,0,0.4c0,0,0,0.1,0.1,0.1c0.9,1.8,1.8,3.6,2.7,5.4C72.6,37.1,72.7,37.4,72.8,37.6"/>
		<path class="st3" d="M125.9,55c0,0.6,0.2,1.5,0.5,2.4c0.3,0.8,0.8,1.5,1.4,2c1,0.8,2.2,0.8,3.2,0.1c0.6-0.4,1-1,1.3-1.7
			c0.8-1.7,0.9-3.4,0.4-5.2c-0.3-1-0.7-1.8-1.4-2.5c-1.1-1.1-2.5-1.1-3.7-0.1c-0.4,0.4-0.7,0.8-1,1.3
			C126.1,52.4,125.9,53.5,125.9,55 M135.3,54.7c0,1.7-0.3,3.4-1,5c-0.4,1-0.9,1.8-1.6,2.6c-0.9,0.9-1.9,1.5-3.1,1.5
			c-0.8,0-1.6-0.2-2.2-0.7c-1-0.6-1.7-1.5-2.2-2.5c-0.6-1-0.9-2.2-1.2-3.3c-0.1-0.6-0.2-1.3-0.2-2c-0.1-1.8,0.2-3.6,0.8-5.3
			c0.4-1.1,1-2.1,1.8-3c0.6-0.6,1.2-1.1,2.1-1.3c1.2-0.4,2.4-0.1,3.4,0.6c0.9,0.6,1.6,1.5,2.1,2.4c0.7,1.3,1.1,2.6,1.3,4
			C135.3,53.4,135.3,54,135.3,54.7"/>
		<path class="st2" d="M84.8,41.7c0.1,0.2,0.1,0.3,0.1,0.4c-0.2,0.7-0.4,1.3-0.7,2c-1.1,2.2-2.2,4.4-3.2,6.7c-0.5,1-0.9,1.9-1.4,2.9
			c-0.1,0.1-0.1,0.2-0.2,0.3c-0.2,0.4-0.2,0.9,0,1.3c0.4,0.9,0.9,1.9,1.3,2.8c0.7,1.5,1.4,2.9,2.1,4.3c0.2,0.3,0.3,0.7,0.5,1
			c0,0.1,0.1,0.1,0.1,0.2c-0.1,0-0.2,0-0.3,0c-0.4,0-0.9,0-1.3,0c-0.7,0-1.2-0.2-1.5-0.8c-0.3-0.5-0.5-0.9-0.7-1.4
			c-0.4-0.8-0.8-1.7-1.2-2.5c-0.2-0.3-0.4-0.7-0.4-1.1c0-0.1,0-0.1-0.1-0.2c-0.1-0.1-0.2-0.2-0.3-0.1c-0.1,0-0.2,0.1-0.2,0.2
			c-0.5,1.6-1.4,3.1-2.1,4.7c-0.1,0.3-0.3,0.6-0.6,0.8c-0.2,0.2-0.5,0.4-0.8,0.4c-0.5,0.1-0.9,0.2-1.3,0.5c-0.3,0.2-0.6,0.5-0.9,0.8
			c-0.1,0.1-0.2,0.2-0.3,0.4c-0.1-0.1-0.1-0.2-0.1-0.3c0.2-0.8,0.4-1.6,0.8-2.3c0.9-1.7,1.8-3.5,2.6-5.3c0.3-0.7,0.7-1.4,1-2
			c0.2-0.4,0.2-0.9,0.1-1.3c-0.2-0.5-0.5-1-0.7-1.6c-0.9-1.9-1.8-3.8-2.8-5.8c-0.1-0.3-0.2-0.5-0.4-0.8c0,0,0-0.1,0-0.1
			c0.7,0,1.3,0,1.9,0c0.5,0,0.9,0.3,1.2,0.7c0.2,0.4,0.4,0.7,0.6,1.1c0.5,1,0.9,2,1.4,2.9c0.1,0.2,0.2,0.5,0.3,0.8
			c0,0.1,0,0.1,0.1,0.2c0.1,0.1,0.1,0.2,0.2,0.1c0.1,0,0.1-0.1,0.2-0.2c0,0,0,0,0,0c0.2-0.9,0.7-1.7,1.1-2.6
			c0.3-0.7,0.6-1.3,0.9-1.9c0.3-0.6,0.6-1.2,0.9-1.7c0.1-0.2,0.2-0.4,0.3-0.6c0.3-0.7,0.9-1.1,1.6-1.4c0.2-0.1,0.5-0.2,0.7-0.3
			c0.4-0.2,0.7-0.5,1-0.8C84.5,42,84.6,41.8,84.8,41.7"/>
		<path class="st3" d="M152.6,51.9v0.9c0,0.4,0,0.8,0,1.2c0,0.2,0.1,0.3,0.3,0.3c0.1,0,0.2,0,0.2,0c0.5,0,1,0,1.5,0
			c0.6,0,1-0.2,1.3-0.7c0.7-1.1,0.7-2.3,0-3.4c-0.3-0.4-0.7-0.7-1.2-0.7c-0.5,0-1,0-1.5,0c-0.5,0-0.6,0-0.6,0.5
			C152.6,50.6,152.6,51.2,152.6,51.9 M152.6,63.6h-2.2c-0.1-0.2-0.1-17.4,0-17.8c0.1,0,0.2,0,0.3,0c1.4,0,2.7,0,4.1,0
			c0.9,0,1.7,0.4,2.3,1.1c0.7,0.8,1.1,1.8,1.4,2.8c0.2,0.9,0.3,1.8,0.3,2.7c-0.1,1.6-0.4,3-1.4,4.3c-0.1,0.1-0.2,0.2-0.3,0.4
			c-0.1,0.1-0.1,0.3-0.1,0.5c0.4,0.9,0.9,1.8,1.3,2.7c0.5,1.1,1.1,2.3,1.6,3.4c-0.1,0-0.2,0-0.2,0c-0.5,0-1,0-1.5,0
			c-0.5,0-0.9-0.2-1.1-0.5c-0.2-0.3-0.4-0.6-0.5-0.9c-0.6-1.2-1.2-2.5-1.8-3.8c0-0.1-0.1-0.1-0.1-0.2c-0.1-0.2-0.2-0.2-0.3-0.2
			c-0.4,0-0.9,0-1.3,0c-0.2,0-0.3,0.1-0.3,0.3c0,0.1,0,0.2,0,0.2c0,1.6,0,3.1,0,4.7C152.6,63.4,152.6,63.5,152.6,63.6"/>
		<path class="st3" d="M166.9,53.8h4c0,0.1,0,0.2,0,0.3c0,2.4,0,4.7,0,7.1c0,0.2-0.1,0.3-0.1,0.5c-0.9,1.3-2.1,2-3.7,2.1
			c-1.6,0.1-2.9-0.6-3.9-1.7c-0.9-1-1.5-2.3-1.9-3.6c-0.4-1.5-0.6-3-0.5-4.5c0.1-1.9,0.5-3.7,1.5-5.4c0.6-1,1.3-1.8,2.2-2.4
			c1.4-0.8,2.8-0.8,4.2,0.1c0.9,0.6,1.5,1.3,2.1,2.2c0.1,0.2,0.2,0.4,0.4,0.6c-0.3,0.4-0.5,0.8-0.8,1.2c-0.4,0.6-1.1,0.7-1.7,0.2
			c-0.1-0.1-0.2-0.2-0.3-0.3c-0.6-0.5-1.2-0.8-1.9-0.8c-0.5,0-1,0.2-1.4,0.5c-0.6,0.5-1.1,1.1-1.4,1.8c-0.9,2.1-0.9,4.1,0.1,6.2
			c0.3,0.7,0.8,1.3,1.4,1.7c1.1,0.8,2.5,0.5,3.3,0c0.2-0.1,0.2-0.2,0.2-0.4c0-0.5,0-1,0-1.5c0-0.3-0.1-0.3-0.3-0.4
			c-0.6-0.1-1-0.5-1.2-1c-0.1-0.3-0.2-0.7-0.2-1C166.9,54.7,166.9,54.3,166.9,53.8"/>
		<path class="st3" d="M170.8,34.2v3.4h-7.6c-0.1-0.2-0.1-17.3,0-17.8c2.5,0,5,0,7.6,0c0.1,0.2,0.1,2.9,0,3.4h-0.4H166
			c-0.1,0-0.1,0-0.2,0c-0.3,0-0.4,0.1-0.4,0.4c0,1,0,2,0,2.9c0,0.3,0.1,0.4,0.4,0.4c1.2,0,2.3,0,3.5,0h0.4v3.5h-0.3
			c-1.2,0-2.3,0-3.5,0c-0.1,0-0.2,0-0.2,0c-0.2,0-0.3,0.1-0.3,0.3c0,0.1,0,0.1,0,0.2c0,1,0,1.9,0,2.9c0,0.1,0,0.1,0,0.2
			c0,0.2,0.1,0.3,0.3,0.3c0.1,0,0.2,0,0.2,0c1.4,0,2.9,0,4.4,0H170.8z"/>
		<path class="st3" d="M140.7,30.4h-0.4c-1.1,0-2.2,0-3.4,0c-0.1,0-0.1,0-0.2,0c-0.2,0-0.3,0.1-0.3,0.3c0,1,0,2.1,0,3.1
			c0,0.2,0.1,0.3,0.3,0.3c0.1,0,0.1,0,0.2,0c1.5,0,2.9,0,4.4,0h0.4v3.4h-7.6c-0.1-0.2-0.1-17.3,0-17.8h7.6v3.4h-0.4H137
			c-0.1,0-0.1,0-0.2,0c-0.3,0-0.4,0.1-0.4,0.4c0,1,0,2,0,2.9c0,0.3,0.1,0.4,0.4,0.4c1.2,0,2.4,0,3.5,0h0.4L140.7,30.4L140.7,30.4z"
			/>
		<path class="st3" d="M92.4,52.9v3.4c-0.1,0-0.2,0-0.3,0c-1.1,0-2.2,0-3.3,0c-0.1,0-0.2,0-0.3,0c-0.2,0-0.2,0.1-0.2,0.2
			c0,0.1,0,0.1,0,0.2c0,1,0,1.9,0,2.9c0,0,0,0,0,0.1c0,0.3,0.1,0.4,0.4,0.4c0.9,0,1.9,0,2.8,0c0.6,0,1.3,0,1.9,0
			c0.1,0.3,0.1,2.9,0,3.4H86V45.8c0.2-0.1,6.9-0.1,7.3,0v3.4H93h-4.2c-0.1,0-0.1,0-0.2,0c-0.3,0-0.4,0.1-0.4,0.4c0,1,0,2,0,2.9
			c0,0.3,0.1,0.4,0.4,0.4c0.5,0,0.9,0,1.4,0c0.8,0,1.5,0,2.2,0C92.3,52.9,92.4,52.9,92.4,52.9"/>
		<path class="st3" d="M144.9,45.7h2.2v0.3c0,3.5,0,7,0,10.5c0,1.6-0.3,3.1-1.1,4.5c-0.4,0.7-0.9,1.3-1.5,1.9c-1.3,1-2.9,1-4.1,0
			c-0.8-0.7-1.4-1.5-1.8-2.5c-0.4-1-0.7-2.1-0.8-3.2c0-0.5,0-1,0-1.5c0-3.2,0-6.4,0-9.6v-0.4c0.4,0,0.7,0,1.1,0s0.7,0,1.1,0
			c0.1,0.1,0.1,0.2,0.1,0.4c0,3.5,0,7,0,10.5c0,0.8,0.2,1.6,0.7,2.3c0.2,0.2,0.4,0.5,0.6,0.7c0.8,0.7,1.7,0.6,2.4-0.1
			c0.6-0.6,0.9-1.3,1.1-2.1c0.1-0.3,0.1-0.7,0.1-1.1c0-3.4,0-6.8,0-10.2L144.9,45.7L144.9,45.7z"/>
		<path class="st3" d="M53.8,25.9c0,0.7,0,1.3,0,2c0,0.3,0.1,0.4,0.4,0.4c0.6,0,1.2,0,1.8,0c0.6,0,1-0.2,1.3-0.7
			c0.4-0.6,0.5-1.2,0.5-1.9c0-0.7-0.3-1.3-0.7-1.8c-0.2-0.2-0.5-0.4-0.9-0.4c-0.6,0-1.2,0-1.8,0c-0.4,0-0.5,0-0.5,0.5
			C53.8,24.6,53.8,25.3,53.8,25.9 M51.5,19.8H52c1.4,0,2.8,0,4.2,0c0.8,0,1.5,0.3,2,0.8c0.7,0.6,1.1,1.4,1.4,2.2
			c0.4,1,0.5,2,0.5,3.1c0,1.3-0.2,2.5-0.8,3.7c-0.4,0.8-0.8,1.4-1.5,2c-0.5,0.4-1,0.5-1.6,0.5c-0.6,0-1.3,0-1.9,0
			c-0.3,0-0.4,0.1-0.4,0.4c0,1.6,0,3.2,0,4.8v0.3c-0.3-0.1-0.6-0.2-0.8-0.4c-1-0.6-1.5-1.5-1.5-2.7c0-4.8,0-9.6,0-14.4L51.5,19.8
			L51.5,19.8z"/>
		<path class="st2" d="M67.6,45.8h2.2c0,0.1,0,0.2,0,0.3c0,3.6,0,7.2,0,10.8c0,1.8-0.5,3.4-1.4,4.9c-0.3,0.5-0.8,1-1.2,1.3
			c-1.3,1-2.9,0.9-4.2-0.2c-0.7-0.6-1.2-1.3-1.6-2.2c-0.6-1.3-0.9-2.8-0.9-4.2c0-3.4,0-6.7,0-10.1v-0.7h2.2v0.4c0,3.4,0,6.9,0,10.3
			c0,1,0.3,1.9,0.9,2.7c0.2,0.2,0.4,0.4,0.6,0.5c0.7,0.5,1.5,0.4,2.2-0.2c0.7-0.6,1-1.3,1.2-2.1c0.1-0.3,0.1-0.6,0.1-0.9
			c0-3.5,0-6.9,0-10.4L67.6,45.8L67.6,45.8z"/>
		<path class="st3" d="M131.4,23c-0.2,0.4-0.5,0.7-0.7,1c-0.1,0.1-0.1,0.2-0.2,0.3c-0.6,0.5-1.2,0.5-1.6,0.1
			c-0.1-0.1-0.2-0.2-0.3-0.3c-0.7-0.6-1.6-0.9-2.5-0.7c-0.4,0.1-0.8,0.4-1.2,0.7c-0.7,0.6-1.1,1.4-1.4,2.2c-0.3,0.8-0.4,1.7-0.4,2.6
			c0.1,1.4,0.4,2.7,1.3,3.8c0.3,0.4,0.6,0.7,1,0.9c1,0.6,2.1,0.6,3-0.1c0.2-0.1,0.3-0.3,0.5-0.4c0.2-0.1,0.4-0.3,0.6-0.4
			c0.5-0.2,0.9,0,1.3,0.4c0.3,0.4,0.6,0.8,0.8,1.2c-0.1,0.2-0.2,0.4-0.3,0.5c-0.6,0.8-1.2,1.5-2,2.1c-0.6,0.4-1.3,0.7-2.1,0.8
			c-0.8,0.1-1.6-0.1-2.3-0.5c-1-0.5-1.8-1.3-2.4-2.3c-0.8-1.3-1.3-2.7-1.5-4.2c-0.2-1-0.2-2-0.1-3c0.1-1.8,0.6-3.5,1.5-5.1
			c0.5-0.9,1.2-1.7,2.1-2.3c1.5-1,3.2-1.1,4.8,0c0.9,0.6,1.6,1.5,2.2,2.4C131.3,22.9,131.3,22.9,131.4,23"/>
		<path class="st3" d="M93.7,37.6h-2.1c-1.7-5.9-3.4-11.9-5.2-17.8c0.1,0,0.2,0,0.3,0c0.4,0,0.7,0,1.1,0c0.4,0,0.7,0.1,0.9,0.4
			c0.3,0.3,0.6,0.7,0.7,1.1c0.5,1.8,1.1,3.6,1.6,5.5c0.4,1.3,0.7,2.5,1.1,3.8c0.1,0.4,0.2,0.8,0.2,1.2c0,0.1,0,0.2,0,0.2
			c0,0.2,0.1,0.3,0.3,0.3c0.1,0,0.2-0.1,0.2-0.3c0-0.1,0-0.2,0-0.3c0.2-0.8,0.4-1.5,0.6-2.3c0.8-2.6,1.5-5.2,2.3-7.8
			c0.1-0.3,0.2-0.5,0.3-0.8c0.1-0.2,0.3-0.4,0.4-0.6c0.2-0.2,0.4-0.3,0.6-0.3c0.5,0,1.1,0,1.7,0C97.2,25.8,95.4,31.7,93.7,37.6"/>
		<path class="st3" d="M0,58.8h0.4c3.9,0,7.9,0,11.8,0c0.4,0,0.8,0.1,1.2,0.3c0.4,0.2,0.8,0.4,1.1,0.7c0.7,0.6,1.4,1.2,1.9,1.9
			c0.5,0.6,1,1.3,1.5,2c0,0,0,0.1,0,0.1c-0.1,0-0.1,0.1-0.2,0.1c-0.1,0-0.2,0-0.2,0c-4.9,0-9.7,0-14.6,0c-0.6,0-1.1-0.2-1.6-0.5
			C0.6,62.8,0.2,62,0,61.1c0,0,0-0.1,0-0.1C0,60.3,0,59.5,0,58.8"/>
		<path class="st2" d="M60,63.8c-0.2,0-0.3,0-0.4,0c-1.5,0-3,0-4.5,0c-0.3,0-0.7,0-1,0c-0.1,0-0.2,0-0.3-0.1c-1-0.4-1.7-1-2.1-2
			c-0.1-0.2-0.1-0.4-0.2-0.7c0-0.3,0-0.7,0-1.1c0-4.6,0-9.2,0-13.8v-0.4h2.2c0,0,0,0,0,0c0,0,0,0,0,0c0,0,0,0.1,0,0.1
			c0,4.7,0,9.3,0,14c0,0,0,0,0,0s0,0,0,0c0.1,0.1,0.2,0,0.3,0c0.8,0,1.6,0,2.4,0c0.2,0,0.4,0.1,0.5,0.2c0.8,0.7,1.5,1.5,2.1,2.3
			c0.2,0.3,0.5,0.7,0.7,1C59.9,63.6,59.9,63.7,60,63.8"/>
		<path class="st3" d="M103.4,20.7v16.9h-2.3V20.7C102.3,21,102.4,20.9,103.4,20.7"/>
		<path class="st3" d="M0,48.9c1.6,0,3.2,0,4.9,0c0.1,0,0.1,0,0.2,0c0,0.1,0,0.2,0,0.3c0,0.4,0,0.7,0,1.1c0,0.9,0.2,1.8,0.6,2.6
			C5.8,53.3,6,53.6,6.3,54H0.1C0,53.8,0,49.6,0,48.9"/>
		<path class="st3" d="M0,24.7v-5c0.2-0.1,3.8-0.1,4.8-0.1c0.1,0,0.2,0,0.2,0.1v5H0z"/>
		<path class="st3" d="M0,44.2v-5.1h5c0,0.1,0,0.2,0,0.3c0,1.5,0,3,0,4.5c0,0,0,0.1,0,0.1c0,0.1-0.1,0.2-0.2,0.2c-0.1,0-0.1,0-0.2,0
			c-1.5,0-2.9,0-4.3,0C0.3,44.3,0.2,44.3,0,44.2"/>
		<path class="st3" d="M5.1,34.5H0v-5c0.3-0.1,4.7-0.1,5,0C5.1,29.7,5.1,34.1,5.1,34.5"/>
		<path class="st3" d="M102.2,16.6c0.8-0.1,1.5,0.7,1.5,1.5c0,0.8-0.7,1.5-1.5,1.5c-0.8,0-1.5-0.7-1.5-1.4
			C100.7,17.2,101.3,16.6,102.2,16.6"/>
	</g>
</g>
<g id="Layer_2">
	<g>
		<g>
			<path class="st4" d="M28.9,20.2c0.1-0.1,0.2-0.1,0.3-0.2c0.3-0.3,0.6-0.6,0.9-0.8c0.4-0.3,0.7-0.6,1.2-0.7c0.2-0.1,0.3,0,0.4,0.2
				c0.1,0.1,0.1,0.2,0.1,0.3c0.2,0.3,0.5,0.4,0.8,0.3c0.3-0.1,0.6-0.4,0.6-0.7c0-0.3-0.2-0.7-0.6-0.8c-0.3-0.1-0.6-0.2-0.9-0.1
				c-1.1,0.2-1.8,0.8-2.4,1.6c-0.2,0.2-0.3,0.5-0.4,0.7C28.9,20,28.9,20.1,28.9,20.2 M39.2,23.7c-0.2-0.4-0.3-0.8-0.5-1.2
				c-0.5-0.9-1.2-1.5-2.1-1.7c-0.6-0.1-1.2-0.2-1.9,0c-1.5,0.4-2.7,1.2-3.6,2.4c-0.9,1.2-1.6,2.5-2,3.9c-0.1,0.5-0.2,1-0.2,1.5
				c0,0.8,0,1.6,0.2,2.4c0.3,1,0.7,1.9,1.6,2.5c0.7,0.5,1.4,0.7,2.3,0.6c1.8-0.3,3.1-1.3,4.3-2.6c0.5-0.5,0.8-1.1,1.1-1.8
				c0.3-0.7,0.7-1.3,0.8-2.2c0.3,0.4,0.5,0.7,0.5,1.2c0,0.3,0.1,0.5,0.4,0.7c0.3,0.2,0.5,0.6,0.6,1c0.1,0.3,0,0.6-0.1,0.8
				c0,0.2-0.1,0.3-0.2,0.5c0.1,0.2,0.1,0.5,0.2,0.7c0.2,0.7-0.1,1.6-0.6,2c-0.3,0.2-0.5,0.4-0.8,0.4c-0.1,0-0.2,0-0.4,0
				c-0.1-0.2-0.2-0.4-0.4-0.6c-0.9,0.3-1.5,0.9-2.3,1.5c0.1,0.1,0.2,0.2,0.3,0.2c1.1,0.6,2.1,1.2,3.1,2c0.4,0.3,0.7,0.6,0.9,1
				c0.1,0.2,0.2,0.5,0.3,0.7c0,0.6,0,1.2,0,1.9c-0.2,0-0.3,0-0.4-0.1c-1.5-0.7-3.1-0.8-4.7-0.7c-0.5,0-1.1,0.2-1.6,0.4
				c-0.1,0-0.2,0-0.3,0.1c0.3-0.4,0.7-0.6,1.6-0.7c-0.3-0.3-0.6-0.3-0.9-0.4c-1.3-0.3-2.7-0.3-4,0c-0.5,0.1-1.1,0.3-1.5,0.8
				c-0.1-0.6,0.1-1.2-0.2-1.8c-0.1,0.1-0.1,0.2-0.2,0.2c-0.8,1.3-1.7,2.5-2.9,3.5c-0.6,0.5-1.3,1.1-1.9,1.6
				c-0.9,0.7-1.9,1.4-2.7,2.2c-0.5,0.6-1,1.2-1.5,1.8c-0.4,0.5-0.8,1-1.2,1.6c-0.1,0.2-0.3,0.3-0.4,0.4c-0.1,0.1-0.3,0.2-0.5,0.1
				c0,0-0.2,0.1-0.2,0.2c0,0.1,0,0.2,0.1,0.2c0.4,0.4,0.7,0.8,1.1,1.2c1.7-0.4,3.4-0.4,5.1-0.4c1.1,0,2.2,0.2,3.2,0.4
				c0.7,0.2,1.4,0.4,2,0.8c0.4,0.3,0.8,0.5,1.2,0.8c0.7,0.6,1.1,1.4,1.3,2.3c0.2,0.9-0.3,1.2-1,1.4c-0.3,0.1-0.6,0.1-0.9,0.1
				c-1.2,0-2.4,0.3-3.5,0.8c-0.3,0.1-0.7,0.4-0.9,0.6c-0.6,0.6-1.1,1.2-1.5,1.9c-0.8,1.4-1.4,3-2.1,4.5c0,0-0.1,0.1-0.1,0.2
				c-0.1-0.1-0.1-0.2-0.2-0.2c-0.5-1.1-1-2.2-1.5-3.3c-0.5-1.1-1.1-2.2-2.1-3.1c-0.6-0.5-1.3-1-2-1.5c-1.4-0.9-2.5-2-3.5-3.4
				c-0.3-0.5-0.6-1-0.9-1.4c-0.5-0.7-0.5-1.4-0.3-2.2c0.3-1.3,0.8-2.5,1.4-3.7c0.4-0.9,0.9-1.7,1.4-2.6c-1.4,0.3-3.7,2.7-3.9,4.7
				c-0.1-0.1-0.2-0.1-0.2-0.2c-0.5-0.6-0.8-1.4-1-2.2c-0.2-1-0.3-2-0.3-2.9c0-1.2,0.2-2.4,0.8-3.5c0.6-1.1,1.3-2.1,2.2-3
				c0.1-0.1,0.3-0.3,0.4-0.4c-1.4,0.4-2.3,1.4-3.3,2.4c0-1.1,0-2.1,0.2-3.1c0.6-2.1,1.5-4,3-5.6c0.8-0.9,1.6-1.7,2.6-2.4
				c0,0,0.1-0.1,0.1-0.1c-0.4,0.1-0.8,0.3-1.2,0.6c-0.5,0.4-1.1,0.7-1.8,0.8c-0.2,0-0.3,0-0.6,0.1c0.1-0.1,0.2-0.2,0.2-0.2
				c0.2-0.2,0.5-0.4,0.6-0.7c0.8-1.3,1.8-2.4,2.8-3.5c1.1-1.3,2.3-2.5,3.6-3.7c1.4-1.3,3.1-2.4,4.7-3.3c0.8-0.5,1.6-0.9,2.5-1.4
				c1.5-0.7,3-1.4,4.6-2c0.6-0.2,1.3-0.3,2-0.3c0.3,0,0.6,0.1,0.8,0.3c0.4,0.4,0.6,0.8,0.7,1.4c0,0.5,0.3,0.7,0.8,0.7
				c0.2,0,0.5-0.1,0.7-0.1c0.5-0.1,1.1-0.2,1.6-0.2c0.5,0,1.1,0.1,1.6,0.2c0.3,0.1,0.7,0.1,1,0c0.1,0,0.2-0.1,0.4-0.1
				c0.3,0,0.6,0,0.7,0.3c0.1,0.3,0.3,0.5,0.4,0.8c0.2,0.8,0.4,1.7,0.3,2.5c0,0.6-0.1,1.3-0.1,1.9c0,0.2-0.1,0.4-0.3,0.5
				c-0.2,0.1-0.3,0.3-0.4,0.5C39.8,23.1,39.6,23.4,39.2,23.7"/>
			<path class="st4" d="M10.5,16.2c0,0.3,0,0.6,0,0.9c0,0.6,0.2,1.1,0.5,1.6c0.2,0.3,0.5,0.5,0.9,0.5c0.4,0,0.8,0.1,1.2,0
				c1.4-0.2,3-1.4,3-3.4c0-0.8-0.2-1.4-0.9-1.9c-0.3-0.2-0.6-0.3-0.9-0.2c-0.4,0-0.6,0.3-0.6,0.7c0,0.3,0.2,0.6,0.6,0.6
				c0.2,0,0.4,0,0.5,0c0.3,0.6,0.2,1-0.2,1.4c-0.8,0.7-1.8,0.6-2.6-0.2c-0.8-0.9-0.7-2.6,0.4-3.4c0.3-0.3,0.8-0.4,1.2-0.5
				c0.2-0.1,0.5-0.2,0.6-0.4c0.2-0.2,0.2-0.4,0.1-0.6C14.2,11.1,14,11,13.7,11c-0.1,0-0.3,0.1-0.3,0.1c-0.2,0.1-0.3,0.3-0.5,0.4
				c-0.3-0.4-0.2-0.8-0.2-1.2c0.1-0.5,0.5-0.7,0.9-0.8C13.2,9,13,8.4,13,7.6c0.8-0.2,1.5,0.1,2.1,0.6c0.2-0.4,0.5-0.7,0.9-0.8
				c0.2-0.1,0.4-0.2,0.7,0c-0.3,0.4-0.3,0.8-0.3,1.3c0,0.2,0.1,0.4,0.3,0.6c0.4,0.3,0.8,0.3,0.9-0.2c0.2-0.5,0.3-1,0.4-1.4
				c0.1-0.6,0.4-1,0.9-1.4c0.5-0.4,1.1-0.3,1.6,0.2c0.3,0.3,0.4,0.6,0.5,1c0.2,0.8,0.2,1.6-0.2,2.3c0,0.1-0.1,0.2-0.2,0.2
				c-0.2,0.3-0.5,0.3-0.8,0.1c-0.2-0.2-0.3-0.6-0.1-0.9c0.1-0.2,0.3,0,0.4,0c0.2-0.2,0.1-0.3,0-0.5c-0.1-0.1-0.3-0.2-0.5-0.2
				c-0.3,0-0.5,0.2-0.6,0.4c-0.2,0.4-0.3,0.9-0.1,1.3c0.2,0.6,0.6,1,1.2,1.3c0.8,0.3,1.5,0,1.9-0.8c0.1-0.3,0.2-0.6,0.3-0.9
				C22.5,8.4,22.5,7.2,22,6c-0.2-0.4-0.4-0.8-0.9-1c0.3-0.4,0.7-0.6,1.2-0.7c1-0.1,2-0.1,3,0.3c1.1,0.4,2.2,1,2.9,2.1
				c0.3,0.5,0.6,1,0.6,1.6c0.1,0.6-0.1,1-0.5,1.4c-0.5,0.5-1.1,0.9-1.5,1.5c-0.1,0.1-0.2,0.2-0.1,0.4c0.5,0.1,0.5,0.1,1.9-0.9
				c0.2,0.1,0.3,0.2,0.3,0.4c0,0.4,0.1,0.9-0.1,1.3c0,0.1,0,0.2,0,0.4c-0.3,0.1-0.6,0.3-0.9,0.4c-2.8,1.2-5.6,2.6-8.1,4.2
				c-1.7,1.1-3.2,2.5-4.6,3.9c-0.8,0.8-1.5,1.6-2.2,2.4c-0.2,0.2-0.4,0.4-0.7,0.5c-0.1,0.1-0.2,0-0.4,0.1c0.4-0.7,0.6-1.4,0.2-2.2
				c-0.2,0.2-0.3,0.3-0.4,0.4c-0.2,0.2-0.4,0.4-0.6,0.6c-0.9,0.7-1.8,0.3-2.3-0.3c-0.6-0.7-0.9-1.5-1-2.4c-0.1-0.7-0.1-1.3,0.1-2
				c0.3-0.8,0.7-1.5,1.4-2c0.2-0.1,0.3-0.2,0.5-0.3C10.2,16.2,10.4,16.2,10.5,16.2"/>
			<path class="st4" d="M107.3,63.5c-0.4,0.1-1.7,0.1-2.3,0v-0.6V51.2c0-0.1,0-0.3,0-0.4c0-0.2-0.1-0.3-0.3-0.3
				c-0.2,0.1-0.2,0.3-0.3,0.5c-0.5,2.4-1.1,4.8-1.6,7.2c-0.4,1.6-0.7,3.3-1.1,4.9c0,0.1-0.1,0.2-0.1,0.3c-0.4,0.1-1.4,0.1-2,0
				c-0.2-0.7-0.3-1.4-0.5-2.1c-0.5-2.1-1-4.3-1.5-6.4c-0.3-1.4-0.6-2.7-0.9-4.1c0-0.2,0-0.6-0.3-0.5c-0.3,0-0.2,0.4-0.2,0.5
				c0,4,0,7.9,0,11.9c0,0.2,0,0.4,0,0.6c-0.4,0.1-1.5,0.1-2.2,0V44.1h0.7c0.6,0,1.2,0,1.8,0c0.6,0,1,0.3,1.3,0.7
				c0.3,0.5,0.4,1,0.5,1.5c0.4,2,0.8,4.1,1.3,6.1c0.3,1.3,0.5,2.6,0.8,3.8c0,0.2,0,0.4,0.1,0.6c0,0.2,0.1,0.3,0.3,0.3
				c0.1,0,0.2-0.1,0.2-0.3c0.3-2.5,1-4.9,1.4-7.4c0.2-1.2,0.5-2.5,0.8-3.7c0.1-0.4,0.2-0.7,0.4-1c0.3-0.4,0.6-0.6,1.1-0.6
				c0.8,0,1.7,0,2.5,0c0,0,0,0,0.1,0.1c0,0,0,0,0,0c0,6.3,0,12.6,0,18.9C107.3,63.2,107.3,63.3,107.3,63.5"/>
			<path class="st4" d="M107.3,38.8H105c-0.1-0.4-0.1-17.8,0-19.2c0.1,0,0.2,0,0.3,0c0.7,0,1.5,0,2.2,0c0.5,0,0.9,0.2,1.1,0.7
				c0.8,2,1.7,4,2.5,6c0.5,1.2,1,2.4,1.5,3.7c0.2,0.4,0.3,0.8,0.4,1.2c0,0.1,0,0.2,0.1,0.3c0,0.1,0.1,0.3,0.3,0.2
				c0.1,0,0.2-0.2,0.2-0.3c0-0.1,0-0.3,0-0.4c0-3.6,0-7.1,0-10.7v-0.6c0.4-0.1,1.8-0.1,2.3,0v19.2c-0.4,0-0.8,0-1.2,0
				c-0.4,0-0.8,0-1.2,0c-0.3-0.6-0.5-1.2-0.8-1.8c-0.9-2.1-1.8-4.1-2.6-6.2c-0.7-1.7-1.5-3.5-2.2-5.2c-0.1-0.2-0.1-0.4-0.3-0.4
				c-0.2,0-0.2,0.1-0.2,0.5c0,4.2,0,8.3,0,12.5V38.8z"/>
			<path class="st4" d="M112.9,49.9c0,0.4,0,0.9,0,1.3c0,0.4,0,0.4,0.4,0.4c0.8,0,1.5,0,2.3,0c0.4,0,0.7-0.2,0.9-0.5
				c0.4-0.8,0.4-1.6,0-2.5c-0.1-0.3-0.4-0.5-0.7-0.5c-0.8,0-1.7,0-2.5,0c-0.3,0-0.3,0.1-0.3,0.4C112.9,49,112.9,49.4,112.9,49.9
				 M112.9,57.6c0,0.5,0,1,0,1.4c0,0.3,0.1,0.4,0.4,0.4c0.9,0,1.8,0,2.7,0c0.4,0,0.7-0.2,1-0.6c0.2-0.4,0.3-0.8,0.3-1.3
				c0-0.6-0.1-1.1-0.5-1.6c-0.2-0.2-0.4-0.3-0.6-0.3c-1,0-1.9,0-2.9,0c-0.3,0-0.4,0.1-0.4,0.4C112.9,56.6,112.9,57.1,112.9,57.6
				 M110.6,44.1h2c0.9,0,1.9,0,2.8,0c0.7,0,1.3,0.2,1.8,0.7c0.6,0.6,1,1.3,1.3,2c0.3,0.7,0.4,1.5,0.5,2.3c0.1,0.9,0,1.7-0.2,2.5
				c-0.1,0.5-0.3,1-0.7,1.4c-0.1,0.1-0.1,0.3,0,0.4c0.6,0.4,0.9,1,1,1.6c0.6,1.9,0.5,3.9-0.2,5.8c-0.2,0.6-0.5,1.2-0.9,1.7
				c-0.6,0.7-1.2,1.1-2.1,1c-1.6,0-3.1,0-4.7,0.1c-0.2,0-0.4,0-0.6,0V44.1z"/>
			<path class="st4" d="M22.6,63.7c0.6-1.3,1.2-2.4,2-3.4c0.6-0.8,1.5-1.3,2.4-1.6c0.3-0.1,0.6-0.1,0.8-0.1c1.2-0.1,2.4-0.2,3.5,0
				c0.2,0,0.4,0,0.6,0c0.4,0,0.5-0.2,0.4-0.6c-0.1-0.2-0.2-0.4-0.3-0.6c-0.2-0.4-0.4-0.8-0.4-1.2c0-1.1,0.4-1.9,1.2-2.6
				c0.6-0.4,1.2-0.8,1.8-1.2c0.2-0.1,0.4-0.2,0.6-0.3c-0.5,0.6-1.2,0.9-1.6,1.6c0.3-0.1,0.6-0.3,0.9-0.4c0.2-0.1,0.4,0,0.6,0.1
				c1.4,0.7,2.8,0.6,4.1-0.3c0.3-0.2,0.6-0.4,1-0.6c-0.1,0.1-0.2,0.2-0.3,0.4c-0.1,0.1-0.2,0.3-0.3,0.4c-0.1,0.1-0.3,0.2-0.5,0.4
				c0.6-0.1,1-0.4,1.4-0.6c0,0.1,0,0.3,0,0.4c0,2.3,0,4.7,0,7c0,1.2-0.5,2.1-1.5,2.7c-0.5,0.3-1,0.5-1.6,0.5c-2.8,0-5.7,0-8.5,0
				c-2,0-3.9,0-5.9,0.1C23.1,63.7,22.9,63.7,22.6,63.7"/>
			<path class="st4" d="M150.5,29.2c0,1.7,0,3.3,0,5c0,0.6,0,0.6,0.6,0.6c0.6,0,1.1,0,1.7,0c0.7,0,1.3-0.2,1.8-0.7
				c0.6-0.6,1-1.3,1.3-2.1c0.3-0.9,0.5-1.8,0.5-2.7c0-0.9-0.1-1.8-0.4-2.6c-0.3-0.9-0.7-1.7-1.4-2.4c-0.5-0.5-1.1-0.7-1.8-0.7
				c-0.6,0-1.1,0-1.7,0c-0.5,0-0.6,0-0.6,0.6C150.5,25.8,150.5,27.5,150.5,29.2 M148.2,19.5h0.6c1.3,0,2.6,0,3.9,0
				c1.2,0,2.2,0.4,3.1,1.2c0.8,0.8,1.4,1.7,1.8,2.7c0.6,1.3,0.9,2.7,1,4.1c0,0.7,0.1,1.5,0.1,2.2c-0.1,2.2-0.5,4.3-1.7,6.2
				c-0.5,0.9-1.1,1.6-2,2.2c-0.7,0.5-1.4,0.7-2.2,0.7c-0.7,0-1.4,0-2,0c-0.2,0-0.5-0.1-0.7-0.2c-1.3-0.6-1.9-1.7-1.9-3
				c0-5.2,0-10.5,0-15.7V19.5z"/>
			<path class="st4" d="M63.2,26.1c0,0.7,0,1.4,0,2c0,0.5,0,0.5,0.5,0.5c0.6,0,1.1,0,1.7,0c0.4,0,0.6-0.1,0.9-0.4
				c0.5-0.5,0.7-1.1,0.8-1.7c0.1-1-0.1-1.9-0.7-2.6c-0.2-0.3-0.5-0.5-1-0.5c-0.6,0-1.1,0-1.7,0c-0.5,0-0.5,0-0.5,0.5
				C63.2,24.7,63.2,25.4,63.2,26.1 M63.2,38.8H61c0,0,0,0-0.1,0c0,0,0,0,0,0c0-6.4,0-12.7,0-19.1c0,0,0-0.1,0-0.2h0.4
				c1.3,0,2.7,0,4,0c1,0,1.7,0.4,2.4,1.1c0.7,0.8,1.2,1.8,1.5,2.8c0.3,1.2,0.4,2.4,0.3,3.6c-0.2,1.7-0.6,3.3-1.8,4.7
				c-0.1,0.1-0.1,0.2-0.2,0.3c1,2.3,2.1,4.6,3.1,6.9c-0.7,0-1.4,0-2,0c-0.4,0-0.7-0.2-0.9-0.6c-0.2-0.3-0.4-0.7-0.6-1
				c-0.6-1.3-1.2-2.7-1.8-4c-0.1-0.3-0.3-0.5-0.7-0.4c-0.4,0-0.9,0-1.3,0c-0.2,0.2-0.1,0.4-0.1,0.6c0,1.6,0,3.3,0,4.9
				C63.2,38.4,63.3,38.6,63.2,38.8"/>
			<path class="st4" d="M69.7,44.1c0.7,0,1.3,0,2,0c0.4,0,0.8,0.2,1.1,0.6c0.2,0.3,0.4,0.6,0.5,1c0.6,1.2,1.1,2.5,1.6,3.7
				c0.1,0.3,0.2,0.6,0.3,0.9c0,0.1,0.1,0.2,0.2,0.2c0.1,0,0.2-0.1,0.2-0.2c0.4-1.4,1.1-2.7,1.7-4c0.5-1.2,1.1-2.4,1.7-3.5
				c0.3-0.6,0.8-1.1,1.5-1.4c0.9-0.3,1.5-0.8,2.1-1.6c0.1-0.1,0.1-0.1,0.2-0.3c0,0.3,0,0.4,0,0.6c-0.2,0.7-0.3,1.4-0.6,2
				c-0.8,1.8-1.7,3.7-2.5,5.5c-0.8,1.7-1.5,3.4-2.2,5.1c-0.3,0.6-0.3,1.2,0,1.8c0.8,1.9,1.7,3.8,2.5,5.6c0.5,1,0.9,2.1,1.4,3.1
				c0,0.1,0.1,0.1,0.1,0.2c-0.3,0.1-1.7,0.1-2,0c-0.6-0.1-1-0.5-1.3-1c-0.2-0.4-0.4-0.8-0.6-1.2c-0.5-1.2-1-2.3-1.5-3.5
				c-0.1-0.2-0.1-0.3-0.2-0.5c0-0.1-0.1-0.2-0.1-0.3c-0.1-0.2-0.3-0.1-0.4,0c0,0-0.1,0.1-0.1,0.1c-0.1,0.7-0.5,1.3-0.7,1.9
				c-0.4,1-0.8,1.9-1.3,2.9c-0.1,0.2-0.2,0.4-0.3,0.6c-0.3,0.5-0.7,0.9-1.3,1c-0.7,0.1-1.2,0.4-1.6,0.9c-0.2,0.3-0.5,0.5-0.8,0.9
				c0-0.3,0-0.4,0-0.6c0.2-0.8,0.4-1.5,0.7-2.2c1.3-2.6,2.4-5.2,3.6-7.8c0.1-0.2,0.2-0.5,0.3-0.7c0.1-0.4,0-0.8-0.2-1.3
				c-0.6-1.3-1.1-2.5-1.7-3.8c-0.7-1.5-1.4-3.1-2-4.6C69.7,44.3,69.7,44.2,69.7,44.1"/>
			<path class="st4" d="M150.6,50.7c0,0.7,0,1.5,0,2.2c0,0.4,0.1,0.4,0.4,0.4c0.6,0,1.1,0,1.7,0c0.4,0,0.7-0.1,1-0.5
				c0.2-0.2,0.3-0.5,0.4-0.7c0.3-0.7,0.3-1.4,0.2-2.1c-0.1-0.6-0.3-1.2-0.8-1.6c-0.2-0.2-0.4-0.3-0.7-0.3c-0.6,0-1.2,0-1.8,0
				c-0.4,0-0.5,0-0.5,0.5C150.6,49.3,150.6,50,150.6,50.7 M150.6,63.5c-0.4,0.1-1.7,0.1-2.2,0V44.1c0.1,0,0.3,0,0.4,0
				c1.3,0,2.5,0,3.8,0c1.1,0,1.9,0.4,2.5,1.2c0.7,0.9,1.1,1.9,1.3,2.9c0.3,1.3,0.3,2.6,0.2,3.9c-0.1,1.5-0.6,2.9-1.5,4.1
				c-0.1,0.1-0.2,0.3-0.3,0.4c1,2.3,2,4.6,3,6.9c-0.7,0-1.3,0-1.9,0c-0.6,0-1-0.5-1.2-1c-0.3-0.5-0.5-1.1-0.8-1.7
				c-0.4-1-0.9-2-1.3-3c-0.1-0.3-0.3-0.4-0.6-0.4c-0.4,0-0.7,0-1.1,0c-0.3,0-0.3,0.1-0.4,0.4c0,0.1,0,0.2,0,0.3c0,1.6,0,3.2,0,4.8
				V63.5z"/>
			<path class="st4" d="M164.9,52.8h4.1c0,0.1,0,0.3,0,0.4c0,2.5,0,5,0,7.5c0,0.3-0.1,0.5-0.2,0.7c-1.1,1.6-2.6,2.3-4.6,2.2
				c-0.9-0.1-1.6-0.5-2.2-1.1c-1.1-1-1.8-2.3-2.3-3.7c-0.4-1.2-0.7-2.4-0.8-3.7c0-0.7-0.1-1.4-0.1-2.1c0.1-2.1,0.5-4,1.5-5.9
				c0.5-0.9,1.1-1.7,1.9-2.4c0.7-0.5,1.4-0.8,2.2-0.9c0.6-0.1,1.2,0.1,1.7,0.4c1,0.5,1.7,1.3,2.3,2.1c0.3,0.4,0.5,0.7,0.8,1.2
				c-0.2,0.4-0.5,0.9-0.8,1.3c-0.5,0.7-1.2,0.8-1.8,0.2c-0.2-0.2-0.3-0.4-0.5-0.5c-1-0.9-2.2-0.7-3.2,0.1c-0.8,0.7-1.3,1.6-1.5,2.6
				c-0.5,1.9-0.5,3.7,0.2,5.6c0.4,1,0.9,1.8,1.8,2.4c0.9,0.6,2.2,0.5,3.1-0.1c0.2-0.1,0.3-0.3,0.3-0.5c0-0.5,0-1,0-1.6
				c0-0.2-0.1-0.4-0.3-0.4c-0.8-0.1-1.2-0.8-1.4-1.5c-0.2-0.6-0.1-1.1-0.1-1.7C164.9,53.2,164.9,53.1,164.9,52.8"/>
			<path class="st4" d="M82.1,28.6c0-0.2,0-0.5,0-0.7c-0.1-1.4-0.5-2.7-1.5-3.7c-0.9-1-2.2-1.3-3.4-0.8c-1,0.4-1.8,1.1-2.4,1.9
				c-0.8,1.1-1.2,2.3-1.4,3.7c-0.1,1-0.1,2,0.1,3c0.2,1,0.7,1.9,1.4,2.6c0.8,0.7,1.7,1,2.8,0.8c0.8-0.2,1.5-0.6,2.1-1.2
				c0.5-0.5,0.9-1.1,1.3-1.8C81.8,31.3,82.1,30,82.1,28.6 M83.7,29.1c0,1.8-0.2,3.6-0.9,5.2c-0.5,1.3-1.2,2.5-2.2,3.4
				c-0.5,0.4-1,0.8-1.6,1c-1.3,0.5-2.5,0.2-3.6-0.5c-1-0.7-1.7-1.5-2.2-2.6c-0.7-1.3-1.1-2.7-1.4-4.2c-0.2-1-0.2-2.1-0.2-3.1
				c0.1-1.9,0.5-3.8,1.4-5.6c0.6-1.2,1.4-2.3,2.6-3c1.4-0.8,2.8-0.8,4.2,0c0.9,0.6,1.6,1.3,2.1,2.2c0.8,1.3,1.2,2.6,1.5,4.1
				C83.7,27.2,83.8,28.2,83.7,29.1"/>
			<path class="st4" d="M131.6,52.9c0-0.3-0.1-0.7-0.1-1.1c-0.2-1.1-0.6-2.1-1.4-2.9c-0.9-0.8-1.9-1.1-3-0.7c-1,0.3-1.7,1-2.3,1.8
				c-1.4,2-1.9,4.1-1.4,6.5c0.2,0.9,0.6,1.7,1.2,2.4c0.8,0.8,1.7,1.3,2.9,1c1-0.2,1.8-0.8,2.5-1.6C131.1,56.7,131.6,55,131.6,52.9
				 M133.2,54.6c0,1.6-0.4,3.8-1.5,5.9c-0.4,0.8-1,1.6-1.7,2.2c-0.8,0.7-1.8,1.1-2.9,1c-0.9-0.1-1.6-0.5-2.2-1
				c-1-0.8-1.6-1.9-2.1-3.1c-0.6-1.3-0.9-2.7-1-4.1c-0.1-0.9-0.1-1.9-0.1-2.8c0.1-1.9,0.5-3.6,1.4-5.3c0.6-1.2,1.3-2.2,2.5-2.9
				c0.7-0.4,1.4-0.7,2.2-0.6c0.8,0.1,1.5,0.4,2.1,0.9c1,0.8,1.7,1.9,2.3,3C132.9,49.7,133.3,51.8,133.2,54.6"/>
			<path class="st4" d="M132.1,19.5h7.6v3.7h-0.4c-1.4,0-2.8,0-4.3,0c-0.1,0-0.1,0-0.2,0c-0.3,0-0.4,0.1-0.4,0.5c0,1,0,2,0,3
				c0,0.4,0.1,0.5,0.5,0.5c1.1,0,2.3,0,3.4,0h0.3c0.1,0.4,0.1,2.7,0.1,3.8c-0.5,0-0.9,0-1.4,0c-0.4,0-0.9,0-1.3,0h-1.4
				c0,0.2-0.1,0.4-0.1,0.5c0,1,0,2.1,0,3.1c0,0.4,0.1,0.5,0.5,0.5c1.4,0,2.8,0,4.3,0h0.5c0.1,0.4,0.1,2.3,0.1,3.7c0,0,0,0,0,0
				c0,0,0,0,0,0c-2.3,0-4.6,0-6.9,0c-0.2,0-0.4,0-0.5,0C132,38.3,132,21,132.1,19.5"/>
			<path class="st4" d="M91.3,47.9h-0.6c-1.4,0-2.7,0-4.1,0c-0.4,0-0.5,0-0.5,0.5c0,1,0,2,0,3.1c0,0.4,0,0.5,0.5,0.5
				c1,0,2.1,0,3.1,0h0.5c0.1,0.4,0.1,2.8,0,3.7c-0.1,0-0.3,0-0.4,0c-1,0-2,0-3,0c-0.1,0-0.2,0-0.3,0c-0.4,0-0.5,0-0.5,0.5
				c0,0,0,0,0,0.1c0,1.1,0,2.2,0,3.2c0,0.1,0,0.2,0,0.3c0.2,0.2,0.4,0.1,0.6,0.1c1.3,0,2.7,0,4,0h0.5c0.1,0.4,0.1,3.1,0,3.7
				c-0.4,0.1-5.7,0.2-7.3,0.1c0,0,0,0,0,0s0,0,0,0c0-6.3,0-12.7,0-19c0-0.1,0-0.2,0-0.3h7.3C91.4,44.5,91.4,46.8,91.3,47.9"/>
			<path class="st4" d="M167.9,27.2v3.7c-0.1,0-0.3,0-0.4,0c-1.1,0-2.2,0-3.2,0c-0.2,0-0.3,0-0.5,0v4c0.4,0.1,0.9,0.1,1.3,0.1
				c0.4,0,0.9,0,1.3,0h1.3h1.3v3.7c-0.4,0.1-6.3,0.1-7.4,0.1c0,0,0,0,0,0c0,0,0,0,0,0c0,0,0,0,0-0.1c0-6.4,0-12.7,0-19.1h7.5v3.7
				h-0.8c-1.2,0-2.4,0-3.7,0c-0.2,0-0.4,0-0.7,0.1c0,0.2,0,0.3,0,0.5c0,1,0,1.9,0,2.9c0,0.5,0,0.5,0.5,0.5c1,0,2,0,3.1,0H167.9z"/>
			<path class="st4" d="M51.7,28.7c0.7,0,1.4,0,2.1,0c0.5,0,0.9-0.2,1.1-0.6c0.9-1.3,0.8-3-0.1-4.2c-0.2-0.2-0.4-0.4-0.8-0.5
				c-0.7,0-1.4,0-2.1,0c-0.3,0-0.3,0.1-0.3,0.3c0,0.1,0,0.2,0,0.3c0,1.3,0,2.7,0,4C51.7,28.3,51.7,28.5,51.7,28.7 M51.7,32.8v5.9
				c-0.1,0-0.2,0-0.2,0c-1.3-0.5-2.1-1.8-2.1-3.1c0-5.2,0-10.4,0-15.7c0-0.1,0-0.3,0-0.5c0.2,0,0.4,0,0.6,0c1.3,0,2.6,0,3.9,0
				c0.8,0,1.5,0.3,2,0.8c0.8,0.8,1.3,1.8,1.6,2.8c0.4,1.4,0.5,2.8,0.4,4.2c-0.1,1.2-0.5,2.3-1,3.3c-0.3,0.6-0.7,1.1-1.2,1.5
				c-0.5,0.4-1.1,0.6-1.7,0.6c-0.6,0-1.1,0-1.7,0C52.1,32.8,52,32.8,51.7,32.8"/>
			<path class="st4" d="M58.3,44.2c0.1,0,0.2-0.1,0.3-0.1c0.7,0,1.3,0,2,0v0.5c0,3.7,0,7.4,0,11.1c0,0.7,0.1,1.5,0.4,2.1
				c0.2,0.5,0.5,1,0.9,1.3c0.7,0.6,1.6,0.7,2.3,0c0.7-0.6,1-1.5,1.2-2.3c0.1-0.4,0.1-0.8,0.1-1.2c0-3.6,0-7.3,0-10.9v-0.5
				c0.4-0.1,1.7-0.1,2.2,0c0,0.1,0,0.3,0,0.4c0,3.8,0,7.7,0,11.5c0,1.7-0.4,3.4-1.2,4.9c-0.4,0.9-1,1.6-1.8,2.2
				c-0.5,0.3-1.1,0.6-1.7,0.5c-0.6,0-1.3-0.2-1.8-0.6c-0.5-0.4-0.9-0.8-1.3-1.3c-0.8-1.1-1.2-2.5-1.5-3.8c-0.2-1-0.2-2-0.2-3
				c0-3.4,0-6.8,0-10.2V44.2z"/>
			<path class="st4" d="M142.8,44.1h2.3v0.5c0,3.7,0,7.5,0,11.2c0,1.7-0.3,3.3-1,4.8c-0.4,1-1,1.8-1.9,2.4c-1.2,0.8-2.5,0.8-3.7-0.1
				c-0.9-0.7-1.5-1.7-1.9-2.7c-0.4-1-0.7-2.1-0.8-3.3c0-0.6-0.1-1.2-0.1-1.8c0-3.5,0-7.1,0-10.6v-0.6h2.3v0.6c0,3.7,0,7.4,0,11
				c0,1,0.2,2,0.8,2.8c0.2,0.2,0.4,0.4,0.6,0.6c0.6,0.6,1.5,0.5,2,0.1c0.6-0.4,0.9-1,1.1-1.6c0.2-0.6,0.3-1.3,0.3-1.9
				c0-3.7,0-7.4,0-11.1V44.1z"/>
			<path class="st4" d="M129.3,23c-0.3,0.4-0.5,0.8-0.8,1.2c-0.1,0.1-0.2,0.2-0.2,0.3c-0.4,0.4-1,0.5-1.5,0
				c-0.1-0.1-0.3-0.3-0.4-0.4c-1.1-1.1-2.6-1-3.7,0c-0.6,0.6-1,1.3-1.3,2.1c-0.4,1-0.6,2-0.5,3c0,1.4,0.3,2.8,1.2,4.1
				c0.5,0.7,1,1.3,1.8,1.5c0.7,0.2,1.3,0.1,1.9-0.2c0.3-0.2,0.6-0.4,0.9-0.7c0.7-0.7,1.4-0.6,1.9,0.1c0.3,0.4,0.5,0.8,0.8,1.2
				c-0.3,0.6-0.6,1-1,1.4c-0.6,0.8-1.3,1.4-2.2,1.9c-1,0.5-2.1,0.5-3.1,0.1c-1.1-0.5-1.9-1.3-2.5-2.3c-0.9-1.4-1.4-3-1.7-4.6
				c-0.2-1.2-0.3-2.4-0.2-3.6c0.2-2.3,0.7-4.5,2.1-6.4c0.4-0.6,1-1.2,1.6-1.6c1.5-1,3.1-1,4.6,0.1C127.9,20.9,128.7,21.9,129.3,23"
				/>
			<path class="st4" d="M84.4,19.5c0.6,0,1,0,1.5,0c0.3,0,0.5,0.1,0.7,0.3c0.4,0.3,0.6,0.8,0.8,1.3c0.3,1.3,0.7,2.6,1,3.8
				c0.6,2.1,1.1,4.3,1.7,6.4c0.1,0.3,0.1,0.7,0.2,1c0,0.1,0,0.2,0,0.3c0,0.1,0.1,0.3,0.3,0.3c0.2,0,0.2-0.1,0.2-0.3
				c0-0.2,0-0.3,0.1-0.5c0.2-0.8,0.4-1.6,0.6-2.4c0.8-2.9,1.6-5.8,2.3-8.7c0.1-0.4,0.3-0.8,0.6-1.1c0.2-0.2,0.4-0.3,0.6-0.3
				c0.5,0,1.1,0,1.6,0c0,0,0.1,0.1,0.1,0.1c0,0,0,0,0,0.1C95,26,93.3,32.4,91.6,38.8h-2.1C87.8,32.4,86.1,26,84.4,19.5"/>
			<path class="st4" d="M19.7,63.6c-0.2,0-0.4,0-0.5,0c-3.3,0-6.6,0-9.8,0c-1.5,0-3,0-4.5,0c-1.5,0-2.9-1.1-3.2-2.5
				c-0.1-0.3-0.1-0.6-0.1-1c0-0.5,0-1.1,0-1.6c0.2,0,0.3,0,0.5,0c3.9,0,7.7,0,11.6,0c2.1,0,3.6,0.9,4.7,2.6c0.4,0.7,0.8,1.4,1.2,2
				C19.6,63.3,19.6,63.5,19.7,63.6"/>
			<path class="st4" d="M49.3,44.1h2.2v15.2c0.2,0,0.3,0,0.5,0c0.7,0,1.5,0,2.2,0c0.2,0,0.4,0.1,0.6,0.2c1.1,1.1,2.1,2.3,2.9,3.6
				c0,0.1,0.1,0.1,0.1,0.2c-0.1,0-0.2,0.1-0.3,0.1c-1.6,0-3.1,0-4.7,0c-0.4,0-0.7,0-1.1-0.1c-0.1,0-0.1,0-0.2-0.1
				c-1.3-0.5-2.2-1.7-2.2-3.1c0-5.2,0-10.3,0-15.5C49.3,44.5,49.3,44.3,49.3,44.1"/>
			<path class="st4" d="M98.9,20.5c0.8,0.3,1.5,0.4,2.3,0v18.3c-0.4,0.1-0.8,0-1.2,0c-0.4,0-0.7,0-1.2,0V20.5z"/>
			<path class="st4" d="M1.6,48.7h5c0.5,1.9,1.4,3.5,2.5,5.1H1.6V48.7z"/>
			<path class="st4" d="M1.6,44v-5C2,38.9,6,38.9,6.7,39v5c-0.6,0.1-1.1,0-1.7,0c-0.6,0-1.1,0-1.7,0C2.8,44,2.2,44,1.6,44"/>
			<path class="st4" d="M6.7,29.1v5H1.6v-5C1.9,29.1,5.7,29,6.7,29.1"/>
		</g>
		<rect x="1.6" y="19.3" class="st4" width="5.1" height="5"/>
		<g>
			<path class="st4" d="M101.6,17.6c0,0.6-0.1,1-0.5,1.3c-0.5,0.5-1.2,0.5-1.8,0.1c-1-0.7-0.9-2.3,0.1-2.8c1.1-0.6,2.1,0.3,2.2,1.1
				C101.6,17.5,101.6,17.6,101.6,17.6"/>
			<path class="st4" d="M24,46.2c-0.7,0.7-1.6,1.3-2,2.3c0.1,0.1,0.2,0.2,0.3,0.2c0.4,0.3,0.5,0.5,0.4,0.9c-0.1,0.4-0.4,0.6-0.8,0.5
				c-0.4,0-0.7-0.4-0.7-0.7c0-0.4,0-0.8,0.2-1.1c0.5-1.1,1.3-1.8,2.4-2.2c0,0,0.1,0,0.1,0C23.9,46.2,23.9,46.2,24,46.2"/>
		</g>
	</g>
	<g>
		<path d="M51.9,11.5c-0.5-0.1-0.9-0.4-1.2-0.6s-0.6-0.7-0.9-1.1s-0.3-1-0.3-1.6V2.4c0-0.2,0.1-0.4,0.2-0.5s0.3-0.2,0.5-0.2
			c0.2,0,0.3,0.1,0.5,0.2s0.2,0.3,0.2,0.5v5.7c0,0.4,0.1,0.8,0.2,1.1s0.3,0.6,0.6,0.8s0.5,0.3,0.8,0.4s0.6,0.2,0.9,0.2
			s0.6-0.1,0.9-0.2s0.6-0.2,0.8-0.4s0.4-0.5,0.6-0.8s0.2-0.7,0.2-1.1V2.4c0-0.2,0.1-0.4,0.2-0.5s0.3-0.2,0.5-0.2
			c0.2,0,0.3,0.1,0.5,0.2s0.2,0.3,0.2,0.5v5.7c0,0.5-0.1,0.9-0.2,1.3s-0.3,0.7-0.6,1s-0.5,0.5-0.9,0.7s-0.7,0.3-1.1,0.4
			s-0.8,0.1-1.2,0.1C52.8,11.7,52.3,11.6,51.9,11.5z"/>
		<path d="M59.9,11.4c-0.1-0.1-0.2-0.2-0.2-0.4V5.3c0-0.2,0.1-0.3,0.2-0.4s0.3-0.2,0.4-0.2s0.3,0,0.4,0.1s0.2,0.2,0.2,0.4v0.6
			c0.2-0.4,0.5-0.7,0.9-1s0.9-0.3,1.4-0.3c0.8,0,1.4,0.2,1.8,0.7s0.7,1.1,0.7,2v3.7c0,0.2-0.1,0.3-0.2,0.4s-0.3,0.2-0.4,0.2
			s-0.3-0.1-0.4-0.2s-0.2-0.2-0.2-0.4V7.2c0-0.6-0.1-1-0.4-1.3s-0.7-0.5-1.1-0.5c-0.5,0-1,0.2-1.3,0.6S61,6.9,60.9,7.5v3.4
			c0,0.2-0.1,0.3-0.2,0.4s-0.3,0.2-0.4,0.2S60,11.5,59.9,11.4z"/>
		<path d="M69.1,11.2c-0.5-0.3-0.9-0.7-1.2-1.2s-0.4-1.2-0.4-1.9c0-0.6,0.1-1.2,0.4-1.7s0.6-1,1.1-1.3s1.1-0.5,1.8-0.5
			c0.5,0,1,0.1,1.4,0.3s0.7,0.4,1,0.7s0.4,0.7,0.5,1s0.2,0.8,0.2,1.3c0,0.1,0,0.2-0.1,0.3s-0.2,0.1-0.3,0.1h-4.7
			c0,0.8,0.2,1.4,0.6,1.8s0.9,0.6,1.6,0.6c0.4,0,0.8-0.1,1.1-0.2s0.6-0.3,1-0.6c0.1-0.1,0.2-0.1,0.3-0.1c0.1,0,0.2,0,0.3,0.1
			s0.1,0.2,0.1,0.3c0,0.1-0.1,0.3-0.2,0.4c-0.7,0.6-1.6,1-2.6,1C70.2,11.6,69.6,11.5,69.1,11.2z M72.7,7.6c0-0.6-0.2-1.2-0.5-1.6
			s-0.8-0.6-1.4-0.6c-0.3,0-0.6,0.1-0.9,0.2s-0.5,0.3-0.6,0.5S69,6.6,68.9,6.8s-0.2,0.5-0.2,0.8H72.7z"/>
		<path d="M80,2.9c-0.1-0.1-0.2-0.3-0.2-0.5S79.9,2,80,1.9s0.3-0.2,0.6-0.2c0.2,0,0.4,0.1,0.6,0.2s0.2,0.3,0.2,0.6
			c0,0.2-0.1,0.4-0.2,0.5s-0.3,0.2-0.6,0.2S80.1,3.1,80,2.9z M80.1,11.4C80,11.3,80,11.1,80,10.9V5.3C80,5.2,80,5,80.2,4.9
			s0.3-0.2,0.4-0.2c0.2,0,0.3,0.1,0.4,0.2s0.2,0.3,0.2,0.5v5.6c0,0.2-0.1,0.3-0.2,0.5s-0.3,0.2-0.4,0.2S80.3,11.5,80.1,11.4z"/>
		<path d="M83.6,11.4c-0.1-0.1-0.2-0.2-0.2-0.4V5.3c0-0.2,0.1-0.3,0.2-0.4s0.3-0.2,0.4-0.2s0.3,0,0.4,0.1s0.2,0.2,0.2,0.4v0.6
			c0.2-0.4,0.5-0.7,0.9-1s0.9-0.3,1.4-0.3c0.8,0,1.4,0.2,1.8,0.7c0.4,0.4,0.7,1.1,0.7,2v3.7c0,0.2-0.1,0.3-0.2,0.4
			c-0.1,0.1-0.3,0.2-0.4,0.2c-0.2,0-0.3-0.1-0.4-0.2c-0.1-0.1-0.2-0.2-0.2-0.4V7.2c0-0.6-0.1-1-0.4-1.3c-0.3-0.3-0.7-0.5-1.1-0.5
			c-0.5,0-1,0.2-1.3,0.6s-0.6,0.9-0.6,1.5v3.4c0,0.2-0.1,0.3-0.2,0.4s-0.3,0.2-0.4,0.2S83.8,11.5,83.6,11.4z"/>
		<path d="M91.7,2.9c-0.1-0.1-0.2-0.3-0.2-0.5s0.1-0.4,0.2-0.5c0.1-0.1,0.3-0.2,0.6-0.2c0.2,0,0.4,0.1,0.6,0.2
			C93,2,93.1,2.2,93.1,2.4c0,0.2-0.1,0.4-0.2,0.5c-0.1,0.1-0.3,0.2-0.6,0.2C92,3.2,91.9,3.1,91.7,2.9z M91.9,11.4
			c-0.1-0.1-0.2-0.3-0.2-0.5V5.3c0-0.2,0.1-0.3,0.2-0.5c0.1-0.1,0.3-0.2,0.4-0.2c0.2,0,0.3,0.1,0.4,0.2c0.1,0.1,0.2,0.3,0.2,0.5v5.6
			c0,0.2-0.1,0.3-0.2,0.5c-0.1,0.1-0.3,0.2-0.4,0.2C92.1,11.5,92,11.5,91.9,11.4z"/>
		<path d="M96.1,11.1c-0.3-0.3-0.5-0.9-0.5-1.6V5.6h-0.8c-0.2,0-0.3,0-0.3-0.1c-0.1-0.1-0.1-0.2-0.1-0.3c0-0.1,0-0.2,0.1-0.3
			c0.1-0.1,0.2-0.1,0.3-0.1h0.8l0.2-1.9c0-0.1,0.1-0.3,0.2-0.4c0.1-0.1,0.3-0.2,0.4-0.2c0.1,0,0.3,0,0.3,0.1
			c0.1,0.1,0.1,0.2,0.1,0.4v2h1.3c0.2,0,0.3,0,0.3,0.1s0.1,0.2,0.1,0.3c0,0.3-0.2,0.4-0.5,0.4h-1.3v3.7c0,0.5,0.1,0.8,0.2,1
			c0.1,0.2,0.3,0.3,0.6,0.3h0.1l0.5,0h0c0.2,0,0.3,0,0.4,0.1c0.1,0.1,0.1,0.2,0.1,0.3c0,0.1,0,0.2-0.1,0.3c0,0.1-0.1,0.1-0.2,0.2
			s-0.2,0.1-0.3,0.1s-0.2,0-0.4,0h-0.4C96.9,11.6,96.4,11.5,96.1,11.1z"/>
		<path d="M100.5,2.9c-0.1-0.1-0.2-0.3-0.2-0.5s0.1-0.4,0.2-0.5c0.1-0.1,0.3-0.2,0.6-0.2c0.2,0,0.4,0.1,0.6,0.2
			c0.1,0.1,0.2,0.3,0.2,0.6c0,0.2-0.1,0.4-0.2,0.5c-0.1,0.1-0.3,0.2-0.6,0.2C100.9,3.2,100.7,3.1,100.5,2.9z M100.7,11.4
			c-0.1-0.1-0.2-0.3-0.2-0.5V5.3c0-0.2,0.1-0.3,0.2-0.5c0.1-0.1,0.3-0.2,0.4-0.2c0.2,0,0.3,0.1,0.4,0.2c0.1,0.1,0.2,0.3,0.2,0.5v5.6
			c0,0.2-0.1,0.3-0.2,0.5c-0.1,0.1-0.3,0.2-0.4,0.2C101,11.5,100.8,11.5,100.7,11.4z"/>
		<path d="M104.1,11.1c-0.4-0.3-0.7-0.8-0.7-1.5c0-0.3,0-0.5,0.1-0.7s0.1-0.4,0.2-0.5c0.1-0.1,0.2-0.3,0.4-0.4
			c0.2-0.1,0.4-0.2,0.6-0.3s0.5-0.1,0.8-0.2c0.3,0,0.7-0.1,1-0.1c0.4,0,0.8,0,1.3,0V6.9c0-0.5-0.1-0.8-0.4-1.1s-0.6-0.3-1.1-0.3
			c-0.3,0-0.6,0-0.8,0.1c-0.3,0.1-0.5,0.1-0.7,0.2c-0.2,0.1-0.4,0.1-0.6,0.2c0,0-0.1,0-0.2,0c-0.1,0-0.2,0-0.3-0.1
			c-0.1-0.1-0.1-0.2-0.1-0.3c0-0.1,0.1-0.2,0.2-0.3c0.7-0.4,1.5-0.6,2.5-0.6c0.8,0,1.5,0.2,2,0.6s0.7,1,0.7,1.8v4
			c0,0.2-0.1,0.3-0.2,0.4c-0.1,0.1-0.3,0.2-0.4,0.2s-0.3,0-0.4-0.1s-0.2-0.2-0.2-0.4v-0.7c-0.4,0.9-1.1,1.3-2.1,1.3
			C105.1,11.7,104.5,11.5,104.1,11.1z M107.3,10.2c0.4-0.4,0.6-1,0.6-1.7V8.3c-0.6,0-1,0-1.4,0s-0.7,0.1-0.9,0.1s-0.5,0.1-0.6,0.2
			s-0.2,0.2-0.3,0.4c-0.1,0.1-0.1,0.3-0.1,0.6c0,0.4,0.1,0.7,0.4,0.9s0.6,0.3,1,0.3C106.5,10.8,107,10.6,107.3,10.2z"/>
		<path d="M112.3,11.1c-0.3-0.3-0.5-0.9-0.5-1.6V5.6H111c-0.2,0-0.3,0-0.3-0.1c-0.1-0.1-0.1-0.2-0.1-0.3c0-0.1,0-0.2,0.1-0.3
			c0.1-0.1,0.2-0.1,0.3-0.1h0.8l0.2-1.9c0-0.1,0.1-0.3,0.2-0.4c0.1-0.1,0.3-0.2,0.4-0.2c0.1,0,0.3,0,0.3,0.1
			c0.1,0.1,0.1,0.2,0.1,0.4v2h1.3c0.2,0,0.3,0,0.3,0.1s0.1,0.2,0.1,0.3c0,0.3-0.2,0.4-0.5,0.4h-1.3v3.7c0,0.5,0.1,0.8,0.2,1
			c0.1,0.2,0.3,0.3,0.6,0.3h0.1l0.5,0h0c0.2,0,0.3,0,0.4,0.1c0.1,0.1,0.1,0.2,0.1,0.3c0,0.1,0,0.2-0.1,0.3c0,0.1-0.1,0.1-0.2,0.2
			s-0.2,0.1-0.3,0.1s-0.2,0-0.4,0h-0.4C113.1,11.6,112.6,11.5,112.3,11.1z"/>
		<path d="M116.8,2.9c-0.1-0.1-0.2-0.3-0.2-0.5s0.1-0.4,0.2-0.5c0.1-0.1,0.3-0.2,0.6-0.2c0.2,0,0.4,0.1,0.6,0.2
			c0.1,0.1,0.2,0.3,0.2,0.6c0,0.2-0.1,0.4-0.2,0.5c-0.1,0.1-0.3,0.2-0.6,0.2C117.1,3.2,116.9,3.1,116.8,2.9z M116.9,11.4
			c-0.1-0.1-0.2-0.3-0.2-0.5V5.3c0-0.2,0.1-0.3,0.2-0.5c0.1-0.1,0.3-0.2,0.4-0.2c0.2,0,0.3,0.1,0.4,0.2c0.1,0.1,0.2,0.3,0.2,0.5v5.6
			c0,0.2-0.1,0.3-0.2,0.5c-0.1,0.1-0.3,0.2-0.4,0.2C117.2,11.5,117,11.5,116.9,11.4z"/>
		<path d="M122.1,11.3c-0.1-0.1-0.3-0.4-0.4-0.7l-2.1-5.1c0-0.1,0-0.1,0-0.2c0-0.2,0.1-0.3,0.2-0.4c0.1-0.1,0.3-0.2,0.4-0.2
			c0.2,0,0.4,0.1,0.5,0.4l2.1,5.1l2.1-5.1c0.1-0.3,0.3-0.4,0.5-0.4c0.2,0,0.3,0.1,0.4,0.2c0.1,0.1,0.2,0.3,0.2,0.4
			c0,0.1,0,0.1,0,0.2l-2.1,5.1c-0.1,0.3-0.3,0.6-0.4,0.7c-0.1,0.1-0.4,0.2-0.6,0.2C122.5,11.5,122.3,11.5,122.1,11.3z"/>
		<path d="M128.8,11.2c-0.5-0.3-0.9-0.7-1.2-1.2c-0.3-0.5-0.4-1.2-0.4-1.9c0-0.6,0.1-1.2,0.4-1.7s0.6-1,1.1-1.3s1.1-0.5,1.8-0.5
			c0.5,0,1,0.1,1.4,0.3s0.7,0.4,1,0.7s0.4,0.7,0.5,1s0.2,0.8,0.2,1.3c0,0.1,0,0.2-0.1,0.3s-0.2,0.1-0.3,0.1h-4.7
			c0,0.8,0.2,1.4,0.6,1.8s0.9,0.6,1.6,0.6c0.4,0,0.8-0.1,1.1-0.2s0.6-0.3,1-0.6c0.1-0.1,0.2-0.1,0.3-0.1c0.1,0,0.2,0,0.3,0.1
			c0.1,0.1,0.1,0.2,0.1,0.3c0,0.1-0.1,0.3-0.2,0.4c-0.7,0.6-1.6,1-2.6,1C129.8,11.6,129.3,11.5,128.8,11.2z M132.4,7.6
			c0-0.6-0.2-1.2-0.5-1.6s-0.8-0.6-1.4-0.6c-0.3,0-0.6,0.1-0.9,0.2s-0.5,0.3-0.6,0.5c-0.2,0.2-0.3,0.4-0.4,0.7
			c-0.1,0.3-0.2,0.5-0.2,0.8H132.4z"/>
		<path d="M140.8,11.4c-0.4-0.2-0.7-0.5-0.9-0.8s-0.4-0.7-0.5-1.1c-0.1-0.4-0.2-0.9-0.2-1.4c0-0.5,0.1-0.9,0.2-1.4s0.3-0.8,0.6-1.1
			c0.3-0.3,0.6-0.6,1-0.7c0.4-0.2,0.8-0.3,1.3-0.3c0.5,0,1,0.1,1.3,0.3c0.4,0.2,0.7,0.5,0.9,1V2.3c0-0.2,0.1-0.3,0.2-0.4
			s0.3-0.2,0.4-0.2c0.2,0,0.3,0.1,0.4,0.2s0.2,0.2,0.2,0.4v8.6c0,0.2-0.1,0.3-0.2,0.4s-0.3,0.2-0.4,0.2c-0.2,0-0.4-0.1-0.5-0.2
			s-0.2-0.2-0.2-0.4v-0.6c-0.2,0.4-0.5,0.8-0.9,1c-0.4,0.2-0.9,0.3-1.4,0.3C141.6,11.7,141.1,11.6,140.8,11.4z M144.4,8.1
			c0-0.3,0-0.7-0.1-1s-0.2-0.6-0.4-0.8c-0.2-0.3-0.4-0.5-0.6-0.6c-0.3-0.2-0.6-0.2-0.9-0.2c-0.4,0-0.7,0.1-0.9,0.2
			c-0.3,0.2-0.5,0.4-0.6,0.6s-0.3,0.6-0.3,0.9c-0.1,0.3-0.1,0.6-0.1,0.9c0,0.3,0,0.6,0.1,0.9s0.2,0.6,0.3,0.9s0.3,0.5,0.6,0.7
			c0.3,0.2,0.6,0.3,0.9,0.3C143.7,10.8,144.4,9.9,144.4,8.1z"/>
		<path d="M149.1,11.2c-0.5-0.3-0.9-0.7-1.2-1.2c-0.3-0.5-0.4-1.2-0.4-1.9c0-0.6,0.1-1.2,0.4-1.7s0.6-1,1.1-1.3s1.1-0.5,1.8-0.5
			c0.5,0,1,0.1,1.4,0.3s0.7,0.4,1,0.7s0.4,0.7,0.5,1s0.2,0.8,0.2,1.3c0,0.1,0,0.2-0.1,0.3s-0.2,0.1-0.3,0.1h-4.7
			c0,0.8,0.2,1.4,0.6,1.8s0.9,0.6,1.6,0.6c0.4,0,0.8-0.1,1.1-0.2s0.6-0.3,1-0.6c0.1-0.1,0.2-0.1,0.3-0.1c0.1,0,0.2,0,0.3,0.1
			c0.1,0.1,0.1,0.2,0.1,0.3c0,0.1-0.1,0.3-0.2,0.4c-0.7,0.6-1.6,1-2.6,1C150.2,11.6,149.6,11.5,149.1,11.2z M152.8,7.6
			c0-0.6-0.2-1.2-0.5-1.6s-0.8-0.6-1.4-0.6c-0.3,0-0.6,0.1-0.9,0.2s-0.5,0.3-0.6,0.5c-0.2,0.2-0.3,0.4-0.4,0.7
			c-0.1,0.3-0.2,0.5-0.2,0.8H152.8z"/>
		<path d="M160.2,11.4c-0.1-0.1-0.2-0.3-0.2-0.5V2.4c0-0.2,0.1-0.3,0.2-0.5c0.1-0.1,0.3-0.2,0.4-0.2c0.2,0,0.3,0.1,0.4,0.2
			c0.1,0.1,0.2,0.3,0.2,0.5v8.5c0,0.2-0.1,0.3-0.2,0.5c-0.1,0.1-0.3,0.2-0.4,0.2S160.3,11.5,160.2,11.4z"/>
		<path d="M163.7,11.1c-0.4-0.3-0.7-0.8-0.7-1.5c0-0.3,0-0.5,0.1-0.7s0.1-0.4,0.2-0.5s0.2-0.3,0.4-0.4s0.4-0.2,0.6-0.3
			s0.5-0.1,0.8-0.2s0.7-0.1,1-0.1c0.4,0,0.8,0,1.3,0V6.9c0-0.5-0.1-0.8-0.4-1.1s-0.6-0.3-1.1-0.3c-0.3,0-0.6,0-0.8,0.1
			s-0.5,0.1-0.7,0.2s-0.4,0.1-0.6,0.2c0,0-0.1,0-0.2,0c-0.1,0-0.2,0-0.3-0.1s-0.1-0.2-0.1-0.3c0-0.1,0.1-0.2,0.2-0.3
			c0.7-0.4,1.5-0.6,2.5-0.6c0.8,0,1.5,0.2,2,0.6c0.5,0.4,0.7,1,0.7,1.8v4c0,0.2-0.1,0.3-0.2,0.4c-0.1,0.1-0.3,0.2-0.4,0.2
			s-0.3,0-0.4-0.1c-0.1-0.1-0.2-0.2-0.2-0.4v-0.7c-0.4,0.9-1.1,1.3-2.1,1.3C164.7,11.7,164.1,11.5,163.7,11.1z M166.9,10.2
			c0.4-0.4,0.6-1,0.6-1.7V8.3c-0.6,0-1,0-1.4,0s-0.7,0.1-0.9,0.1s-0.5,0.1-0.6,0.2s-0.2,0.2-0.3,0.4c-0.1,0.1-0.1,0.3-0.1,0.6
			c0,0.4,0.1,0.7,0.4,0.9s0.6,0.3,1,0.3C166.1,10.8,166.5,10.6,166.9,10.2z"/>
	</g>
</g>
</svg>
