<?xml version="1.0" encoding="utf-8"?>
<!-- Generator: Adobe Illustrator 23.1.1, SVG Export Plug-In . SVG Version: 6.00 Build 0)  -->
<svg version="1.1" id="Calque_1" xmlns="http://www.w3.org/2000/svg" xmlns:xlink="http://www.w3.org/1999/xlink" x="0px" y="0px"
	 viewBox="0 0 35.6 36.1" style="enable-background:new 0 0 35.6 36.1;" xml:space="preserve">
<style type="text/css">
	.st0{clip-path:url(#SVGID_2_);fill:#91D900;}
	.st1{clip-path:url(#SVGID_4_);fill:#91D900;}
	.st2{clip-path:url(#SVGID_6_);fill:#91D900;}
	.st3{clip-path:url(#SVGID_8_);fill:#91D900;}
	.st4{clip-path:url(#SVGID_10_);fill:#91D900;}
	.st5{clip-path:url(#SVGID_12_);fill:#91D900;}
	.st6{clip-path:url(#SVGID_14_);fill:#91D900;}
</style>
<g>
	<g>
		<defs>
			<rect id="SVGID_1_" width="35.6" height="36.1"/>
		</defs>
		<clipPath id="SVGID_2_">
			<use xlink:href="#SVGID_1_"  style="overflow:visible;"/>
		</clipPath>
		<path class="st0" d="M2.8,15c1,6.6,0.5,13.9,2.5,20.3C5.4,35.7,5.8,36,6.2,36c7.8,0.1,15.6,0.1,23.3,0.1c0.5,0,0.9-0.4,0.9-0.9
			c0.6-7,1.2-14,1.9-21c0.1-1.2-1.8-1.2-1.9,0c-0.6,7-1.2,14-1.9,21c0.3-0.3,0.6-0.6,0.9-0.9c-5.7,0-11.3-0.1-17-0.1
			c-1.2,0-5.3,0.7-6.3,0c0.6,0.5,0.1-3,0-3.8c-0.2-1.7-0.3-3.5-0.5-5.2c-0.3-3.6-0.7-7.1-1.4-10.6C4.2,13.5,2.7,14,2.8,15"/>
	</g>
	<g>
		<defs>
			<rect id="SVGID_3_" width="35.6" height="36.1"/>
		</defs>
		<clipPath id="SVGID_4_">
			<use xlink:href="#SVGID_3_"  style="overflow:visible;"/>
		</clipPath>
		<path class="st1" d="M1.3,14.8c11.1,0.1,22.3-0.2,33.5,0.1c0.5,0,0.9-0.4,0.9-0.9c-0.1-1.7-0.2-3.3-0.2-5c0-0.5-0.4-0.9-0.9-0.9
			c-11.2,0-22.4,0-33.6,0C0.4,8.1,0,8.6,0,9c0.1,1.6,0.2,3.3,0.4,4.9c0.1,1.1,1.9,1.1,1.8,0c-0.1-1,0.2-2.9-0.3-3.7
			C1.2,8.9,2.8,9.5,1,9.9c0.1,0,0.3,0,0.4,0c1.9,0.1,3.8,0,5.6,0c6.3,0,12.7,0,19,0c2.3,0,4.7,0.3,6.9,0c0.4-0.1,0.9,0,1.4,0
			c-0.3,0-0.6-1.3-0.7-0.3c-0.1,0.7,0.1,1.6,0.1,2.3c0.1,2.5,0,1.5-2.2,1.1c-3-0.4-6.4,0-9.4,0c-6.9,0-13.9-0.1-20.8-0.1
			C0.1,13.1,0.1,14.8,1.3,14.8"/>
	</g>
	<g>
		<defs>
			<rect id="SVGID_5_" width="35.6" height="36.1"/>
		</defs>
		<clipPath id="SVGID_6_">
			<use xlink:href="#SVGID_5_"  style="overflow:visible;"/>
		</clipPath>
		<path class="st2" d="M10.1,8.7c1.1-2.4,2-4.9,3.1-7.3c0.5-1.1-1.1-2-1.6-1c-0.6,1.2-1,2.4-1.5,3.6C9.6,5.4,8.9,6.7,8.6,8.1
			C8.4,8.9,9.7,9.6,10.1,8.7"/>
	</g>
	<g>
		<defs>
			<rect id="SVGID_7_" width="35.6" height="36.1"/>
		</defs>
		<clipPath id="SVGID_8_">
			<use xlink:href="#SVGID_7_"  style="overflow:visible;"/>
		</clipPath>
		<path class="st3" d="M23.5,1.2c0.4,2.5,1.4,4.8,1.4,7.4c0,1.1,1.6,1.3,1.9,0.3c0.8-2.5-0.9-5.7-1.6-8.1
			C24.8-0.4,23.3,0.1,23.5,1.2"/>
	</g>
	<g>
		<defs>
			<rect id="SVGID_9_" width="35.6" height="36.1"/>
		</defs>
		<clipPath id="SVGID_10_">
			<use xlink:href="#SVGID_9_"  style="overflow:visible;"/>
		</clipPath>
		<path class="st4" d="M8.4,19.9c2.8,0.8,5.6,0.3,8.5,0.2c3.5-0.2,7,0.1,10.5,0c1.2,0,1.2-1.9,0-1.9c-3.3,0-6.5-0.2-9.8,0
			c-3,0.1-6,0.6-9,0.2C7.7,18.3,7.5,19.7,8.4,19.9"/>
	</g>
	<g>
		<defs>
			<rect id="SVGID_11_" width="35.6" height="36.1"/>
		</defs>
		<clipPath id="SVGID_12_">
			<use xlink:href="#SVGID_11_"  style="overflow:visible;"/>
		</clipPath>
		<path class="st5" d="M10.4,24.5c2.7,0.2,5.5,0,8.3-0.1c2.1-0.1,4.8-0.6,6.8-0.1c1.2,0.3,1.7-1.6,0.5-1.9c-2-0.5-4.3,0-6.3,0
			c-3.1,0.1-6.2,0.2-9.3,0.5C9.4,23,9.4,24.4,10.4,24.5"/>
	</g>
	<g>
		<defs>
			<rect id="SVGID_13_" width="35.6" height="36.1"/>
		</defs>
		<clipPath id="SVGID_14_">
			<use xlink:href="#SVGID_13_"  style="overflow:visible;"/>
		</clipPath>
		<path class="st6" d="M12.6,30.5c3.5,0.4,7,0.3,10.5-0.2c1.2-0.2,1.3-3.9,0-3.9c-3.5,0-7,0.2-10.5,0.7
			C11.5,27.1,11.5,30.3,12.6,30.5"/>
	</g>
</g>
</svg>
