<?xml version="1.0" encoding="utf-8"?>
<!-- Generator: Adobe Illustrator 23.0.4, SVG Export Plug-In . SVG Version: 6.00 Build 0)  -->
<svg version="1.1" id="Calque_1" xmlns="http://www.w3.org/2000/svg" xmlns:xlink="http://www.w3.org/1999/xlink" x="0px" y="0px"
	 viewBox="0 0 139.6 122.4" style="enable-background:new 0 0 139.6 122.4;" xml:space="preserve">
<style type="text/css">
	.st0{clip-path:url(#SVGID_2_);fill:#A7D900;}
</style>
<g>
	<defs>
		<rect id="SVGID_1_" width="139.6" height="122.4"/>
	</defs>
	<clipPath id="SVGID_2_">
		<use xlink:href="#SVGID_1_"  style="overflow:visible;"/>
	</clipPath>
	<path class="st0" d="M56.2,82.3c-2-6.8-13.3-3.2-17.2-0.4c-5.4,3.9-7.2,11.9-1.9,16.7c4.3,3.9,11.5,4.2,16.4,1.2
		c2.8-1.7,4.8-4.8,5-8c0.4-4.7-2-7.3-5.6-9.7c-2.3-1.5-5.1,2-2.9,3.8c2.4,2,4.8,4,2.9,7.5c-0.7,1.3-1.9,2.2-3.2,2.7
		c-2.7,1.1-6.4,0.8-8.8-0.9c-3.7-2.7-1.9-7.5,1.4-9.7c2.2-1.5,8.3-3.8,10.4-1.2C54.1,86,56.8,84.2,56.2,82.3"/>
	<path class="st0" d="M30.4,120.7c1.1-8.1,6.2-16.4,15.1-16.5c10-0.2,14.1,7.8,16.2,16.4c0.8,3.2,5.7,1.8,4.9-1.4
		c-2.8-11.2-9.3-20.8-22.1-20c-10.5,0.6-18.3,10.6-18.5,20.9C26,122.5,30,123.2,30.4,120.7"/>
	<path class="st0" d="M31.2,21.9c-2-6.8-13.3-3.2-17.2-0.4c-5.4,3.9-7.2,11.9-1.9,16.7c4.3,3.9,11.5,4.2,16.4,1.2
		c2.8-1.7,4.8-4.8,5-8c0.4-4.7-2-7.3-5.6-9.7c-2.3-1.5-5.1,2-2.9,3.8c2.4,2,4.8,4,2.9,7.5c-0.7,1.3-1.9,2.2-3.2,2.8
		c-2.7,1.1-6.4,0.8-8.8-0.9c-3.7-2.7-1.9-7.5,1.4-9.7c2.2-1.5,8.3-3.8,10.4-1.2C29.1,25.6,31.7,23.8,31.2,21.9"/>
	<path class="st0" d="M4.9,88.2c0.7-11.5-2.2-26.5,3.6-36.9c5.2-9.3,18.2-10.3,24.4-1.3c2.6,3.8,3.5,8.3,3.7,12.8
		c0.3,6,0.3,12.1,0.4,18.1c0.1,3.3,5.2,3.3,5.1,0c-0.2-7.2,0.5-15-0.6-22.1c-2.1-13.1-13.3-23.4-26.9-19.1
		c-18.2,5.7-14.4,34-14.1,48.5C0.6,91.1,4.8,91.1,4.9,88.2"/>
	<path class="st0" d="M92.8,82.3c-2-6.8-13.3-3.2-17.2-0.4c-5.4,3.9-7.2,11.9-1.9,16.7c4.3,3.9,11.5,4.2,16.4,1.2
		c2.8-1.7,4.8-4.8,5-8c0.4-4.7-2-7.3-5.6-9.7c-2.3-1.5-5.1,2-2.9,3.8c2.4,2,4.8,4,2.9,7.5c-0.7,1.3-1.9,2.2-3.2,2.7
		c-2.7,1.1-6.4,0.8-8.8-0.9c-3.7-2.7-1.9-7.5,1.4-9.7c2.2-1.5,8.3-3.8,10.4-1.2C90.7,86,93.4,84.2,92.8,82.3"/>
	<path class="st0" d="M67,120.7c1.1-8.1,6.2-16.4,15.1-16.5c10-0.2,14.1,7.8,16.2,16.4c0.8,3.2,5.7,1.8,4.9-1.4
		c-2.8-11.2-9.3-20.8-22.1-20c-10.5,0.6-18.3,10.6-18.5,20.9C62.6,122.5,66.7,123.2,67,120.7"/>
	<path class="st0" d="M129.1,82.3c-2-6.8-13.3-3.2-17.2-0.4c-5.4,3.9-7.2,11.9-1.9,16.7c4.3,3.9,11.5,4.2,16.4,1.2
		c2.8-1.7,4.8-4.8,5-8c0.4-4.7-2-7.3-5.6-9.7c-2.3-1.5-5.1,2-2.9,3.8c2.4,2,4.8,4,2.9,7.5c-0.7,1.3-1.9,2.2-3.2,2.7
		c-2.7,1.1-6.4,0.8-8.8-0.9c-3.7-2.7-1.9-7.5,1.4-9.7c2.2-1.5,8.3-3.8,10.4-1.2C127,86,129.7,84.2,129.1,82.3"/>
	<path class="st0" d="M103.3,120.7c1.1-8.1,6.2-16.4,15.1-16.5c10-0.2,14.1,7.8,16.2,16.4c0.8,3.2,5.7,1.8,4.9-1.4
		c-2.8-11.2-9.3-20.8-22.1-20c-10.5,0.6-18.3,10.6-18.5,20.9C98.9,122.5,102.9,123.2,103.3,120.7"/>
	<path class="st0" d="M26.2,20.8c0.1-3.8-0.9-9.5,0.3-13c1.3-4-1.3-1.7,2-3.2c2.1-0.9,10.8,0.8,14.1,0.8c21.9-0.1,45,1.8,66.8-0.5
		c8.9-1,8.6-4.4,9.8,2.5c0.7,3.9,0.1,8.6,0.2,12.6c0.2,10.8-1,22.6,0.5,33.3c0.7,5.1-1.9,5.5,2.2,3.9c-1.3,0.5-4.5,0.2-5.7,0
		c-9-1.1-18.9,0-28,0c-16.5,0-32.9,0-49.4,0.1c-2.9,0-2.9,4.5,0,4.5c27.7,0,55.5-0.1,83.2-0.1c1.2,0,2.3-1,2.3-2.3
		c-0.3-19.1-0.6-38.1-0.9-57.2c0-1.2-1-2.3-2.3-2.3C89.2,1.2,56.8,0.9,24.4,1.1c-1.2,0-2.1,1-2.1,2.1c0,5.8,0,11.7,0,17.5
		C22.3,23.3,26.1,23.3,26.2,20.8"/>
	<path class="st0" d="M46.2,23c19.2,0.8,38.5,0.3,57.7,0.1c2.9,0,2.9-4.6,0-4.5c-19.2,0.2-38.5-0.3-57.7,0.5
		C43.7,19.2,43.7,22.9,46.2,23"/>
	<path class="st0" d="M75,34.2c9.5,0.8,19.3,0.3,28.8,0.1c2.9-0.1,2.9-4.6,0-4.5C94.3,30,84.6,29.5,75,30.3
		C72.5,30.5,72.5,34,75,34.2"/>
	<path class="st0" d="M75,45.7c9.5,0.8,19.3,0.3,28.8,0.1c2.9-0.1,2.9-4.6,0-4.5c-9.6,0.2-19.3-0.3-28.8,0.5
		C72.5,42,72.5,45.5,75,45.7"/>
</g>
</svg>
