<?xml version="1.0" encoding="utf-8"?>
<!-- Generator: Adobe Illustrator 23.0.4, SVG Export Plug-In . SVG Version: 6.00 Build 0)  -->
<svg version="1.1" id="Calque_1" xmlns="http://www.w3.org/2000/svg" xmlns:xlink="http://www.w3.org/1999/xlink" x="0px" y="0px"
	 viewBox="0 0 125.1 122.4" style="enable-background:new 0 0 125.1 122.4;" xml:space="preserve">
<style type="text/css">
	.st0{clip-path:url(#SVGID_2_);fill:#A7D900;}
</style>
<g>
	<defs>
		<rect id="SVGID_1_" width="125.1" height="122.2"/>
	</defs>
	<clipPath id="SVGID_2_">
		<use xlink:href="#SVGID_1_"  style="overflow:visible;"/>
	</clipPath>
	<path class="st0" d="M20.1,62.2c-1.7,0.2-3.4,0.4-4.7,1.6c-1.3,1.2-1.9,2.9-2.2,4.5c-0.6,3.8,1.6,7.1,5.4,8c3.1,0.7,7-0.1,8.6-3.1
		c1.8-3.4-0.6-8.2-3.9-9.6c-2.1-0.9-4.6,1-3.3,3.3c0.5,0.9,3.1,2.5,2.7,3.8c-0.3,0.8-1.8,0.8-2.5,0.7c-3.4-0.5-1.9-4.5,0.5-5.3
		C22.6,65.5,22.5,62,20.1,62.2"/>
	<path class="st0" d="M105.6,64.4c-2.1-3.2-6.7-3.6-9.9-1.8c-3.7,2.1-3.8,7.2-1.3,10.3c2.7,3.3,8.3,4.3,11.4,0.9
		c1.5-1.6,1.8-3.9,1.4-6c-0.3-2.1-1.6-3.5-3.5-4.5c-2-1.1-4.8,1.2-3.3,3.3c0.9,1.2,2.6,2.1,1.4,3.7c0.3-0.4-0.4,0.2-0.6,0.2
		c-0.3,0.1-0.6,0.1-0.9,0.1c-0.8-0.1-1.6-0.6-2.1-1.3c-2.1-2.9,2.9-3.5,4.6-2.3C104.5,68.3,106.6,66,105.6,64.4"/>
	<path class="st0" d="M3.4,90.1C11,88,17.1,82,21.5,75.7c1.5-2.1-2-4.9-3.6-2.8c-4.6,5.8-9.3,10.4-16.2,13.4
		C-0.5,87.2,1.1,90.8,3.4,90.1"/>
	<path class="st0" d="M20.5,75.8c11.3,9.5,20.9,14.3,36.4,15.7c16.6,1.5,33-4,45.1-15.4c2.2-2.1-1.1-5.4-3.3-3.3
		C85.6,85.1,68,89.1,50.5,85.7c-11.3-2.2-18.5-6.8-27.6-13C21.1,71.4,18.7,74.3,20.5,75.8"/>
	<path class="st0" d="M99.3,74.2c0.8,4,5.1,6.6,8.3,8.6c3.9,2.5,8.7,4.5,13.2,5.7c2.4,0.7,3.7-2.2,2.3-3.9
		c-2.1-2.6-7.5-3.2-10.3-4.6c-3.6-1.8-7.2-4.1-9.5-7.4C101.8,70.5,98.8,71.7,99.3,74.2"/>
	<path class="st0" d="M1.9,121.1c40.5,2.3,80.5,0.2,120.8-0.8c3.1-0.1,3.1-5,0-4.9c-20.1,0.5-40.5,3-60.5,2.6
		c-20.1-0.4-40.2-2-60.4-0.8C-0.6,117.4-0.6,121,1.9,121.1"/>
	<path class="st0" d="M99.5,73.3c-1.7,8.2-1.1,17.4-1.2,25.7c-0.1,6.4-0.7,13.3,0.7,19.6c0.5,2.5,4.5,2.5,5.1,0
		c1.2-5.1-0.4-12.8-0.4-18c0-9-0.2-17.9-0.4-26.8C103.2,71.8,100,71.2,99.5,73.3"/>
	<path class="st0" d="M18.8,73.3c-1.7,8.2-1.1,17.4-1.2,25.7c-0.1,6.4-0.7,13.3,0.7,19.6c0.5,2.5,4.5,2.5,5.1,0
		c1.2-5.1-0.4-12.8-0.4-18c0-9-0.2-17.9-0.4-26.8C22.5,71.8,19.2,71.2,18.8,73.3"/>
	<path class="st0" d="M19.9,4.8c9.2,2.3,19.9-0.1,29.3-0.2c3,0,3-4.6,0-4.6C39.7,0.1,30,1.7,20.5,0.8C18.2,0.6,17.8,4.2,19.9,4.8"/>
	<path class="st0" d="M18.7,2.5c-0.5,3.4,0.3,7.2,0.2,10.6c-0.1,5.5-0.3,11-0.3,16.6c0,2.9,4.5,2.9,4.5,0c0-5.2,0.2-10.4,0.2-15.6
		c0-3.5-0.9-7.6-0.5-11C23.1,0.8,19.1,0.2,18.7,2.5"/>
	<path class="st0" d="M46.8,2.4c-0.4,4.9-0.4,9.8-0.7,14.6c-0.2,3.5,0.3,7.4-0.2,10.8c-0.4,2.5,2.8,4.2,4.3,1.8
		c1.5-2.4,0.4-6.9,0.6-9.7c0.3-5.9,0.6-11.7,0.2-17.6C50.8-0.3,47-0.3,46.8,2.4"/>
	<path class="st0" d="M20.4,31.5c9.1,2.2,18.4,0.5,27.6,1c3,0.2,3-4.4,0-4.7c-4-0.4-8.2,0.1-12.2,0.1c-4.9,0-9.9-0.1-14.8-0.5
		C18.6,27.1,18.2,30.9,20.4,31.5"/>
	<path class="st0" d="M58.7,3.4c-0.5,4.2-1.1,8.1-1.1,12.4c0,4,0.5,8.2,0,12.2c-0.4,2.9,3.9,4.3,4.6,1.3c0.9-4,0.4-8.4,0.2-12.5
		c-0.1-4.6,0.7-9.3,0.1-13.8C62.2,0.5,58.9,1.4,58.7,3.4"/>
	<path class="st0" d="M60,4.6C64.4,7.1,70.4,6.1,75.3,6c8.4-0.2,16.7-0.8,25.2-0.2c2.9,0.2,2.9-4.3,0-4.5c-12.7-0.8-26.6,2.6-39-0.1
		C59.4,0.7,58.1,3.5,60,4.6"/>
	<path class="st0" d="M100.2,4.3c-0.9,3.5-1.6,7-1.7,10.7c-0.1,2.5,0,5.1,0,7.6c0,1.5,0.5,3.8-0.2,5.2c-1.3,2.8,2.9,5.3,4.2,2.5
		c1.6-3.4,0.9-7.8,0.9-11.5c0-4.7,1.5-9.9,0.6-14.5C103.5,2.4,100.6,2.5,100.2,4.3"/>
	<path class="st0" d="M61.1,31.3c12.7,0.1,25.6-0.8,38.2,0c3.1,0.2,3.1-4.7,0-4.9c-12.3-0.8-25.9-0.6-38.2,0.8
		C58.4,27.4,58.3,31.3,61.1,31.3"/>
	<path class="st0" d="M42.7,40.7c13.8,1.3,27.7,0,41.5-0.5c3.1-0.1,3.1-5,0-4.9c-13.7,0.4-27.9,0.1-41.5,1.4
		C40.2,36.9,40.2,40.4,42.7,40.7"/>
	<path class="st0" d="M41,39.3c0.4,11-0.3,21.7-0.5,32.7c-0.1,3.1,4.8,3.1,4.8,0c0.2-11.2,1.6-22.1-0.1-33.2
		C44.8,36.4,40.9,36.9,41,39.3"/>
	<path class="st0" d="M82.5,38.1c-0.8,11.7-0.6,23.6-1.4,35.3c-0.2,3.2,4.8,3.2,5,0c0.8-11.8,1.6-23.5,0.7-35.3
		C86.6,35.4,82.7,35.4,82.5,38.1"/>
	<path class="st0" d="M41.8,75.4c4.8,2,11.8,1.5,16.9,1.2c7.5-0.4,15-0.6,22.5-0.6c3.2,0,3.2-4.9,0-5c-13-0.2-25.9,1.1-38.9,0.6
		C40,71.6,40,74.7,41.8,75.4"/>
</g>
</svg>
