<?xml version="1.0" encoding="utf-8"?>
<!-- Generator: Adobe Illustrator 23.1.1, SVG Export Plug-In . SVG Version: 6.00 Build 0)  -->
<svg version="1.1" id="Calque_1" xmlns="http://www.w3.org/2000/svg" xmlns:xlink="http://www.w3.org/1999/xlink" x="0px" y="0px"
	 viewBox="0 0 128.4 118.2" style="enable-background:new 0 0 128.4 118.2;" xml:space="preserve">
<style type="text/css">
	.st0{clip-path:url(#SVGID_2_);fill:#91D900;}
</style>
<g>
	<defs>
		<rect id="SVGID_1_" width="128.4" height="118.2"/>
	</defs>
	<clipPath id="SVGID_2_">
		<use xlink:href="#SVGID_1_"  style="overflow:visible;"/>
	</clipPath>
	<path class="st0" d="M63.8,3.7c-5.9,27.2-30,30.3-52,39.1c-12.2,4.8-13.8,12-9.9,24c3.5,10.8,7,18.8,19.7,15.6
		c21.6-5.5,52.3-22.4,67.6,4.3c1.2,2,4.2,0.7,4.1-1.3C93.2,73,86.1,59.2,82.4,47.5c-4.7-14.7-9.3-29.4-14-44.1
		c-0.9-2.8-5.2-1.4-4.3,1.4c4.2,13.3,8.4,26.6,12.6,39.9c3.9,12.3,11.9,27.9,12,40.9c1.4-0.4,2.8-0.9,4.1-1.3
		c-6.2-10.9-21.5-17.9-34-17.7c-15.2,0.2-42.5,22.7-51.6,2.1c-1.2-2.7-3.2-8.2-3.1-11C4.4,48.1,17,45.8,23.6,43.5
		C31.1,41,39,38.9,46,35.2c11.9-6.3,19.5-17.6,22.3-30.6C68.9,1.8,64.4,0.8,63.8,3.7"/>
	<path class="st0" d="M33.3,39.3c3.6,11.2,7.3,22.4,10.9,33.6c0.9,2.8,5.2,1.4,4.3-1.4c-3.6-11.2-7.3-22.4-10.9-33.6
		C36.7,35.2,32.4,36.6,33.3,39.3"/>
	<path class="st0" d="M77,33.2c12.5-4.9,19.1,16.2,6.9,19.2c-2.8,0.7-1.4,5,1.4,4.3c8.8-2.2,11.2-12,8.3-19.8
		c-2.7-7.3-10.7-10.8-18-8C72.9,29.9,74.3,34.2,77,33.2"/>
	<path class="st0" d="M95,20.1c13.1,2,16.5,23.4,8.9,32.6c-1.8,2.2,1.5,5.3,3.4,3c9.6-11.7,5.6-37.5-11.3-40.1
		C93.1,15.3,92.1,19.7,95,20.1"/>
	<path class="st0" d="M104,4.5c12.2,2.4,16.7,13.5,18.9,24.5c2.1,10.7,0.7,18.5-5.6,27.4c-1.7,2.3,1.7,5.4,3.4,3
		c7.9-11.2,9.3-20,6.3-33.5c-2.7-12.3-8.9-23.2-22-25.9C102.1-0.5,101.1,3.9,104,4.5"/>
	<path class="st0" d="M24.7,80.1c3.6,11.1,6.8,23.3,12.2,33.7c2.7,5.2,6.1,5.1,11.3,3.2c4.8-1.7,12.2-3.9,11.7-10
		c-0.4-5.6-4-11.8-6-17.1c-2.2-6-4.3-12-6.5-18c-1-2.7-5.3-1.3-4.3,1.4c2.5,7,5,14,7.6,21c1,2.9,2.5,6,3.2,9c1.5,6,0.5,6.4-5.7,8.9
		c-5.2,2.1-5.9,1.1-8.5-3.5c-1.5-2.6-2.3-6.1-3.4-8.9c-2.6-7-5-14-7.3-21C28.1,76,23.8,77.4,24.7,80.1"/>
</g>
</svg>
