<?xml version="1.0" encoding="utf-8"?>
<!-- Generator: Adobe Illustrator 24.2.1, SVG Export Plug-In . SVG Version: 6.00 Build 0)  -->
<svg version="1.1" id="Calque_1" xmlns="http://www.w3.org/2000/svg" xmlns:xlink="http://www.w3.org/1999/xlink" x="0px" y="0px"
	 viewBox="0 0 110 118.2" style="enable-background:new 0 0 110 118.2;" xml:space="preserve">
<style type="text/css">
	.st0{fill:#91D902;}
</style>
<g>
	<g>
		<g>
			<path class="st0" d="M82.5,9.3C81.1,2.2,73.2,0,66.7,0C61,0,54.5,0.7,48.8,2.9C40.9,5.7,33.7,10,28.7,17.2
				c-4.3,5.7-6.5,14.3-5,21.5C27.3,63.1,61,68.1,78.2,55.2c6.5-5,10.8-12.9,10.8-21.5c0-5.7-1.4-11.5-5-15.8c-2.9-3.6-6.5-5-10-7.9
				c-5-3.6-11.5,4.3-6.5,8.6c2.2,2.2,5.7,3.6,7.2,5.7c2.2,1.4,2.9,4.3,2.9,7.9c0,2.9-0.7,6.5-2.2,9.3c0,0.7-0.7,0.7-0.7,1.4
				c0,0-0.7,1.4-0.7,0.7c0-0.7-0.7,0.7-0.7,0.7c-0.7,0.7-0.7,0.7-1.4,1.4c0-0.7,0-0.7-0.7,0c-0.7,0.7,0,0,0,0s-0.7,0-0.7,0.7
				c-0.7,0.7-2.2,1.4-2.9,1.4c-0.7,0-0.7,0.7-1.4,0.7c0.7-0.7,0,0-0.7,0c-0.7,0.7-2.2,0.7-3.6,0.7c-0.7,0-2.2,0.7-2.9,0.7
				c-0.7,0,0.7,0-0.7,0c-0.7,0-1.4,0-1.4,0c-0.7,0-2.2,0-2.9,0c-0.7,0-1.4,0-1.4,0h-0.7c-0.7,0,0.7,0,0,0c-2.2-0.7-4.3-0.7-6.5-1.4
				c-0.7,0-1.4-0.7-0.7,0c-0.7,0-0.7-0.7-1.4-0.7c-0.7-0.7-2.2-0.7-2.9-1.4c0,0-1.4-0.7-0.7-0.7c0.7,0.7-0.7-0.7-0.7-0.7
				c-0.7-0.7-1.4-1.4-2.2-2.2s0,0,0,0c0-0.7-0.7-0.7-0.7-1.4c0-0.7-0.7-0.7-0.7-1.4v-0.7c0-0.7,0,0.7,0,0s-0.7-2.2-0.7-2.9
				c0-0.7,0-1.4,0-0.7c0-0.7,0-1.4,0-2.2c0-0.7,0-0.7,0-1.4c0-0.7,0-1.4,0-1.4v-1.4c0-0.7,0.7-2.2,0.7-2.9
				c2.2-5.7,6.5-9.3,11.5-11.5c2.9-1.4,5-2.2,7.9-3.6c1.4,0,2.2-0.7,3.6-0.7c1.4,0,2.2,0,3.6-0.7c1.4,0,2.9,0,4.3,0
				c0.7,0,1.4,0,2.2,0s0,0,1.4,0c0.7,0,1.4,0,2.2,0.7h0.7c-0.7,0,0,0,0,0s1.4,1.4,0.7,0.7c0,0,0,0,0.7,0.7c0.7,0.7-0.7-0.7,0,0
				C76.7,17.2,83.2,14.3,82.5,9.3L82.5,9.3z"/>
		</g>
	</g>
	<g>
		<g>
			<path class="st0" d="M10.8,113.3c0-5.7,2.9-11.5,5.7-17.2c2.2-5,4.3-10.8,7.9-15.1c7.2-9.3,17.9-13.6,29.4-13.6
				c10.8,0,21.5,3.6,28.7,10.8c10,9.3,13.6,23,16.5,35.9c1.4,7.2,12.9,4.3,10.8-2.9c-3.6-15.1-9.3-31.6-21.5-42.3
				c-10-8.6-23.7-12.9-36.6-12.2C38,57.4,24.4,62.4,15.8,73.9c-4.3,5.7-7.2,12.2-10,18.6S0,106.2,0,113.3
				C1.4,119.8,10.8,119.8,10.8,113.3L10.8,113.3z"/>
		</g>
	</g>
</g>
</svg>
