<?xml version="1.0" encoding="utf-8"?>
<!-- Generator: Adobe Illustrator 23.0.4, SVG Export Plug-In . SVG Version: 6.00 Build 0)  -->
<svg version="1.1" id="Calque_1" xmlns="http://www.w3.org/2000/svg" xmlns:xlink="http://www.w3.org/1999/xlink" x="0px" y="0px"
	 viewBox="0 0 111.4 122.4" style="enable-background:new 0 0 111.4 122.4;" xml:space="preserve">
<style type="text/css">
	.st0{clip-path:url(#SVGID_2_);fill:#A7D900;}
</style>
<g>
	<defs>
		<rect id="SVGID_1_" width="111.4" height="122.4"/>
	</defs>
	<clipPath id="SVGID_2_">
		<use xlink:href="#SVGID_1_"  style="overflow:visible;"/>
	</clipPath>
	<path class="st0" d="M29.9,82.9c-1.9-6.9-13.2-3.3-17.1-0.6c-5.5,3.9-7.2,11.9-1.9,16.7c4.3,3.9,11.5,4.2,16.3,1.3
		c2.8-1.7,4.8-4.8,5.1-8.1c0.4-4.7-2-7.3-5.6-9.7c-2.5-1.6-5.5,2.2-3.2,4.1c2.3,1.9,4.6,3.7,2.8,7c-0.6,1.2-1.7,2.1-3,2.6
		c-2.6,1.1-6.1,0.8-8.4-0.9c-3.4-2.6-1.7-7,1.4-9.1c2.1-1.4,7.9-3.7,9.9-1.3C27.6,86.9,30.4,85,29.9,82.9"/>
	<path class="st0" d="M4.7,120.6c1.1-7.7,5.9-15.8,14.5-16c9.7-0.2,13.6,7.6,15.6,15.8c0.8,3.4,6.1,2,5.3-1.5
		c-2.7-11-9.2-20.5-21.8-19.7C7.9,99.9,0.1,109.7,0,119.9C0,122.5,4.3,123.3,4.7,120.6"/>
	<path class="st0" d="M65.6,82.9c-1.9-6.9-13.2-3.3-17.1-0.6c-5.5,3.9-7.2,11.9-1.9,16.7c4.3,3.9,11.5,4.2,16.3,1.3
		c2.8-1.7,4.8-4.8,5.1-8.1c0.4-4.7-2-7.3-5.6-9.7c-2.5-1.6-5.5,2.2-3.2,4.1c2.3,1.9,4.6,3.7,2.8,7c-0.6,1.2-1.7,2.1-3,2.6
		c-2.6,1.1-6.1,0.8-8.4-0.9c-3.4-2.6-1.7-7,1.4-9.1c2.1-1.4,7.9-3.7,9.9-1.3C63.4,86.9,66.2,85,65.6,82.9"/>
	<path class="st0" d="M40.4,120.6c1.1-7.7,5.9-15.8,14.5-16c9.7-0.2,13.6,7.6,15.6,15.8c0.8,3.4,6.1,2,5.3-1.5
		c-2.7-11-9.2-20.5-21.8-19.7c-10.4,0.6-18.2,10.5-18.3,20.7C35.7,122.5,40,123.3,40.4,120.6"/>
	<path class="st0" d="M101.1,82.9c-1.9-6.9-13.2-3.3-17.1-0.6c-5.5,3.9-7.2,11.9-1.9,16.7c4.3,3.9,11.5,4.2,16.3,1.3
		c2.8-1.7,4.8-4.8,5.1-8.1c0.4-4.7-2-7.3-5.6-9.7c-2.5-1.6-5.5,2.2-3.2,4.1c2.3,1.9,4.6,3.7,2.8,7c-0.6,1.2-1.7,2.1-3,2.6
		c-2.6,1.1-6.1,0.8-8.4-0.9c-3.4-2.6-1.7-7,1.4-9.1c2.1-1.4,7.9-3.7,9.9-1.3C98.8,86.9,101.6,85,101.1,82.9"/>
	<path class="st0" d="M75.9,120.6c1.1-7.7,5.9-15.8,14.5-16c9.7-0.2,13.6,7.6,15.6,15.8c0.8,3.4,6.1,2,5.3-1.5
		c-2.7-11-9.2-20.5-21.8-19.7c-10.4,0.6-18.2,10.5-18.3,20.7C71.2,122.5,75.5,123.3,75.9,120.6"/>
	<path class="st0" d="M96.2,48.4c2.5-9.6-8.5-19-17.5-18.9C67,29.6,60.4,39.2,60.9,50.1c0.4,10.1,5.6,17.6,16.1,17.8
		c10.8,0.2,20.3-8.3,20.1-19.5c-0.1-3.5-5.2-3.5-5.4,0c-0.5,7.8-5.9,14-13.9,14.1c-7.4,0.1-10.7-4.5-11.4-11.5
		c-0.6-6.9,1.7-13.4,8.9-15.5c7.7-2.3,16.7,4.2,16.5,12.4C91.6,50.3,95.5,50.9,96.2,48.4"/>
	<path class="st0" d="M14.3,51.2c16-0.3,35.5-1.3,50.6-6.7c3.3-1.2,1.9-6.3-1.4-5.2C47.8,44.6,30,44,13.7,47
		C11.3,47.4,11.9,51.2,14.3,51.2"/>
	<path class="st0" d="M15.8,61.4c16.9,1.3,33.5,1.1,50.5,2c3.5,0.2,3.5-5.3,0-5.5c-8.8-0.5-17.5,0.1-26.3,0
		c-8-0.1-16.2-1.5-24.2-1.1C12.9,57,12.9,61.2,15.8,61.4"/>
	<path class="st0" d="M14.5,46.9c-7.7,1.7-3.7,18.4,3.8,14.4c1.9-1,1.6-4.2-0.6-4.7c-0.5-0.1-0.9-0.1-1.1-0.2c0.5,0.2,0-0.1,0,0
		c-0.4-0.5-0.6-1.2-0.7-1.9c-0.2-1.5,0.1-2.6,1.1-3.5C19,49.3,16.7,46.4,14.5,46.9"/>
	<path class="st0" d="M54.8,41.8c-3.8,0.8-4.8,5.9-4.6,9.2c0.2,3.9,1.6,8.3,4.4,11.1c2.5,2.5,6.3-1.3,3.9-3.9
		c-1.7-1.8-2.5-4.4-2.8-6.8c-0.4-2.7,0.2-4.2,1.6-6.3C58.4,43.3,56.5,41.4,54.8,41.8"/>
	<path class="st0" d="M77.2,32.5c-6,9.6-5.2,25.4,2.1,34.1c2.3,2.7,6.2-1.2,3.9-3.9c-6-7.2-5.2-19.5-1.7-27.7
		C82.8,32.2,79,29.7,77.2,32.5"/>
	<path class="st0" d="M39.9,3.7c6.9,12.4,0,23.7-12.4,27.7c-7,2.3-15,3.4-20.8,8.2c-9.6,7.9-5.2,16.9,6,18.1c3.6,0.4,3.6-5.2,0-5.6
		c-14.5-1.7,1.8-11,4.9-12.1c3.3-1.2,6.8-2,10.2-3c5.1-1.5,10.3-3.2,14.1-7.2c7.4-7.7,8-19.9,2.4-28.7C42.5-1.5,38.4,0.9,39.9,3.7"
		/>
</g>
</svg>
