<?xml version="1.0" encoding="utf-8"?>
<!-- Generator: Adobe Illustrator 23.0.4, SVG Export Plug-In . SVG Version: 6.00 Build 0)  -->
<svg version="1.1" id="Calque_1" xmlns="http://www.w3.org/2000/svg" xmlns:xlink="http://www.w3.org/1999/xlink" x="0px" y="0px"
	 viewBox="0 0 133.3 122.4" style="enable-background:new 0 0 133.3 122.4;" xml:space="preserve">
<style type="text/css">
	.st0{clip-path:url(#SVGID_2_);fill:#A7D900;}
</style>
<g>
	<defs>
		<rect id="SVGID_1_" width="133.3" height="122.4"/>
	</defs>
	<clipPath id="SVGID_2_">
		<use xlink:href="#SVGID_1_"  style="overflow:visible;"/>
	</clipPath>
	<path class="st0" d="M2.1,6.7C23.4,6.2,44,6.9,65.4,7.5c6.4,0.2,62.6-2.6,62.6-4.7c0.1,3.1,4.9,3.1,4.8,0c0-0.1,0-0.3,0-0.4
		c0-1.3-1.1-2.4-2.4-2.4c-21.8-0.2-43.2,3.4-65,2.8c-21.5-0.6-41.8-2-63.3-0.4C-0.7,2.6-0.7,6.7,2.1,6.7"/>
	<path class="st0" d="M2.2,19.7c20.1-1.5,40.3,1.1,60.4,1.4c21.6,0.4,46.3-4.5,67.5,0c2.9,0.6,4.2-3.9,1.2-4.5
		c-20.9-4.2-44.6,0.2-65.8,0c-20.9-0.2-43.1-4.3-63.8-0.8C-0.5,16.1,0,19.9,2.2,19.7"/>
	<path class="st0" d="M7.9,3.5c-2,3.5,3.8,6.8,6.1,8.3c2.3,1.5,4.7,2.9,7.1,4.3c0.9,0.5,1.9,1.1,2.8,1.6c0.3,0.2,0.9,0.7,1.3,0.8
		c2.2,0.7-3,1.1,0.4-2.5c-1.3,1.4-0.4,3.6,1.5,3.7c0.6,0,1.1-0.1,1.6-0.4c1.3-0.7,1.7-2.8,0.5-3.8c-2.7-2.2-5.9-3.7-8.9-5.5
		c-1.8-1.1-3.6-2.2-5.4-3.4c-0.8-0.5-1.4-1.1-2.2-1.6c-0.5-0.4-1-1.4-0.9-0.5C11.6,2.6,9,1.5,7.9,3.5"/>
	<path class="st0" d="M25.1,17.6c1.8-2.5,4.9-3.7,7.3-5.5c1.6-1.3,3.2-2.7,4.9-3.9C38.3,7.5,39.6,7,40,5.5c0.8-3.6-5-3.9-4.7-0.6
		c0.1-0.3,0.1-0.6,0.2-0.9c-1.3,1.7,0.8,3.4,2.4,3.2c0.1,0,0.1,0,0.2,0C37.6,7.1,37,7,36.4,6.9c0,0,0,0,0.1,0
		c-0.3-1.1-0.6-2.2-0.8-3.2c-0.4,0.6-2.7,1.9-3.6,2.6c-1.4,1.1-2.7,2.4-4.2,3.4c-2.3,1.6-5.2,3.1-6.4,5.8
		C20.4,18,23.5,19.9,25.1,17.6"/>
	<path class="st0" d="M32.9,4.8c0.9,3,3.8,6,6,8.2c2.4,2.3,5,4.6,7.7,6.7c2.2,1.7,5.1-2.1,3-3.9c-2.4-2-4.9-4.1-7.2-6.3
		c-2.2-2.1-4.1-5.4-6.8-6.8C34.3,2,32.4,3.2,32.9,4.8"/>
	<path class="st0" d="M50,18.2c1.6-2.2,4.2-3.4,6.3-5c2.5-1.9,4.7-4.1,7.3-5.7c2.7-1.6,0.2-5.8-2.4-4.2C58,5.2,55.5,8,52.5,10.2
		c-2.5,1.8-4.9,3.5-6,6.5C45.6,18.9,48.8,19.9,50,18.2"/>
	<path class="st0" d="M58.8,7.3c1.8,2.6,3.5,5.1,5.9,7.2c1.3,1.2,4,2.7,4.7,4.4c1.2,2.9,5.5,1.9,4.8-1.3c-0.6-2.4-3.2-4.3-5-5.8
		c-2.6-2.2-4.6-4.8-7-7.1C60.5,3.1,57.4,5.3,58.8,7.3"/>
	<path class="st0" d="M73.1,19.6c4.3-4.8,10-8.3,14.9-12.6c2.3-2.1-1.1-5.4-3.4-3.4c-2.7,2.3-5.5,4.5-8.3,6.8c-2.4,2-5,3.9-6.6,6.6
		C68.5,19.1,71.4,21.5,73.1,19.6"/>
	<path class="st0" d="M84.1,8.8c2.1,1.2,3.5,3.1,5.3,4.7c1.2,1,2.7,1.7,3.9,2.7c1.2,1.1,1.9,2,3.4,2.6c2.3,0.9,4.2-2.6,2.4-4.1
		c-1.2-1-2.2-2.2-3.5-3.1c-1.4-1-2.8-1.7-4.1-2.9c-1.8-1.8-4.1-4.2-6.9-3.6C82.9,5.4,82.6,8,84.1,8.8"/>
	<path class="st0" d="M98.6,17.4c1.1-2.1,3.3-3.3,5-4.9c2.8-2.5,5.5-5.2,8.1-7.8c2.3-2.3-1.3-5.8-3.5-3.5c-2.9,2.9-5.8,5.9-8.8,8.6
		c-1.7,1.5-5,3.8-4.7,6.5C94.8,18.3,97.5,19.5,98.6,17.4"/>
	<path class="st0" d="M106.4,6c1.3,1.7,3.5,3.2,5.1,4.6c2.4,2,4.7,4.2,6.9,6.3c2.4,2.3,6-1.3,3.6-3.6c-2.4-2.4-5-4.6-7.7-6.8
		c-1.7-1.4-4.1-4.1-6.5-3.9C106,2.6,105.3,4.6,106.4,6"/>
	<path class="st0" d="M61.2,43.5C60.9,39.2,62,30.7,68,30.9c5.8,0.2,4.5,8.9,5.2,12.6c0.5,2.9,4.7,2,4.8-0.7
		C78.3,35.8,76,24.5,66.5,26c-4.2,0.7-7.2,4.1-8.8,7.9c-1.3,3-2.6,8.4-0.1,11C58.8,46.3,61.3,45.3,61.2,43.5"/>
	<path class="st0" d="M59.1,45.7c5.5-0.3,10.9,0.3,16.4-0.3c3.2-0.3,3.4-5.3,0-5.1c-2.8,0.2-5.6,0.2-8.3,0.4
		c-2.9,0.3-5.9-0.2-8.7,0.6C56.1,42,56.5,45.9,59.1,45.7"/>
	<path class="st0" d="M19,43.8c-3.2-2.8-8.5-9.7-4.1-13.7c4.2-3.9,9.4,3.1,12.5,5.3c2.4,1.7,4.8-1.9,3-3.9
		c-4.8-5.2-14.3-11.7-20-3.8C7.8,31.3,8.2,36.1,9.9,40c1.3,2.9,4,7.3,7.5,7.5C19.2,47.5,20.3,45,19,43.8"/>
	<path class="st0" d="M19,46.9c1.8-2.1,4-3.7,5.8-5.8c1.8-2.1,3.9-3.9,5.6-6c2-2.5-1.4-6.1-3.6-3.6c-1.9,2.1-3.9,4.1-5.7,6.3
		c-1.8,2.2-4.3,3.9-5.6,6.4C14.4,46.3,17.2,48.9,19,46.9"/>
	<path class="st0" d="M113.7,47.5c3.4-0.1,6.1-4.4,7.4-7.2c1.8-3.9,2.3-8.9-0.3-12.5c-5.7-7.9-15.2-1.4-20,3.8c-1.8,2,0.6,5.6,3,3.9
		c3.1-2.2,8.3-9.2,12.5-5.3c4.4,4-0.9,10.9-4.1,13.7C110.9,45,111.9,47.5,113.7,47.5"/>
	<path class="st0" d="M115.7,44.2c-1.3-2.5-3.9-4.2-5.6-6.4c-1.8-2.2-3.8-4.2-5.7-6.3c-2.3-2.5-5.6,1.1-3.6,3.6c1.7,2.1,3.8,4,5.6,6
		c1.8,2.1,4,3.7,5.8,5.8C113.9,48.9,116.8,46.4,115.7,44.2"/>
	<path class="st0" d="M69.2,27.2c0.3-1.5,0.8-2.8,1-4.3c0.2-1.8-0.5-3.9-2.7-3.8c-1.4,0-2.7,1.5-2.2,2.9c0,0.1,0.1,0.2,0.1,0.3
		c0,0.2,0-0.3,0,0.1c0,0.5-0.1,1.1-0.1,1.6c-0.1,1.1-0.2,2.2,0.2,3.2C66,28.9,68.8,29.3,69.2,27.2"/>
	<path class="st0" d="M12.7,26.7c-0.1,0.4,0.2-0.5,0.2-0.6c0.1-0.3,0.2-0.6,0.2-0.9c0.2-0.9,0.4-1.9,0.4-2.9c0.2-1.9-0.4-4-2.7-4
		c-1.4-0.1-2.8,1.5-2.2,2.9c0,0.1,0.1,0.2,0.1,0.4c-0.1-0.6,0,0.2,0,0.3c0,0.6-0.1,1.2-0.1,1.8c-0.1,1.2-0.1,2.4,0.2,3.6
		C9.5,29.5,12.4,28.8,12.7,26.7"/>
	<path class="st0" d="M121,26.7c-0.1,0.4,0.2-0.5,0.2-0.6c0.1-0.3,0.2-0.6,0.2-0.9c0.2-0.9,0.4-1.9,0.4-2.9c0.2-1.9-0.4-4-2.7-4
		c-1.4-0.1-2.8,1.5-2.2,2.9c0,0.1,0.1,0.2,0.1,0.4c-0.1-0.6,0,0.2,0,0.3c0,0.6-0.1,1.2-0.1,1.8c-0.1,1.2-0.1,2.4,0.2,3.6
		C117.9,29.5,120.8,28.8,121,26.7"/>
	<path class="st0" d="M1.9,72.5C20,75,40.5,71.9,58.8,71.4c24.2-0.6,48.1,1.6,72.3,1.9c2.9,0,2.9-4.6,0-4.6
		c-23.3,0.1-46.4-2.6-69.7-1.8c-19.3,0.7-39.7,2.8-59,1.7C0.2,68.5-0.3,72.2,1.9,72.5"/>
	<path class="st0" d="M43.1,88.7c-1.6-6-11.4-2.9-14.7-0.6c-4.7,3.3-6.2,10.3-1.7,14.4c3.7,3.3,9.8,3.6,14,1.1
		c2.4-1.5,4.1-4.1,4.4-7c0.3-4-1.7-6.3-4.8-8.3c-2.2-1.4-4.9,2-2.9,3.7c1.9,1.6,3.9,3,2.4,5.8c-0.5,1-1.4,1.7-2.5,2.1
		c-2.2,0.9-5.1,0.7-7-0.7c-2.8-2.1-1.4-5.8,1.2-7.5c1.7-1.1,6.6-3.1,8.3-1.1C41.1,92.2,43.6,90.5,43.1,88.7"/>
	<path class="st0" d="M21.7,120.7c1-6.5,5-13.3,12.2-13.5c8.2-0.2,11.4,6.4,13.1,13.4c0.7,3.1,5.5,1.8,4.8-1.3
		c-2.3-9.4-7.9-17.5-18.7-16.9c-8.9,0.5-15.6,9-15.6,17.7C17.5,122.5,21.3,123.2,21.7,120.7"/>
	<path class="st0" d="M73.5,88.7c-1.6-6-11.4-2.9-14.7-0.6c-4.7,3.3-6.2,10.3-1.7,14.4c3.7,3.3,9.8,3.6,14,1.1
		c2.4-1.5,4.1-4.1,4.4-7c0.3-4-1.7-6.3-4.8-8.3c-2.2-1.4-4.9,2-2.9,3.7c1.9,1.6,3.9,3,2.4,5.8c-0.5,1-1.4,1.7-2.5,2.1
		c-2.2,0.9-5.1,0.7-7-0.7c-2.8-2.1-1.4-5.8,1.2-7.5c1.7-1.1,6.6-3.1,8.3-1.1C71.5,92.2,74,90.5,73.5,88.7"/>
	<path class="st0" d="M52.1,120.7c1-6.5,5-13.3,12.2-13.5c8.2-0.2,11.4,6.4,13.1,13.4c0.7,3.1,5.5,1.8,4.8-1.3
		c-2.3-9.4-7.9-17.5-18.7-16.9c-8.9,0.5-15.6,9-15.6,17.7C47.9,122.5,51.7,123.2,52.1,120.7"/>
	<path class="st0" d="M103.6,88.7c-1.6-6-11.4-2.9-14.7-0.6c-4.7,3.3-6.2,10.3-1.7,14.4c3.7,3.3,9.8,3.6,14,1.1
		c2.4-1.5,4.1-4.1,4.4-7c0.3-4-1.7-6.3-4.8-8.3c-2.2-1.4-4.9,2-2.9,3.7c1.9,1.6,3.9,3,2.4,5.8c-0.5,1-1.4,1.7-2.5,2.1
		c-2.2,0.9-5.1,0.7-7-0.7c-2.8-2.1-1.4-5.8,1.2-7.5c1.7-1.1,6.6-3.1,8.3-1.1C101.6,92.2,104.1,90.5,103.6,88.7"/>
	<path class="st0" d="M82.2,120.7c1-6.5,5-13.3,12.2-13.5c8.2-0.2,11.4,6.4,13.1,13.4c0.7,3.1,5.5,1.8,4.8-1.3
		c-2.3-9.4-7.9-17.5-18.7-16.9c-8.9,0.5-15.6,9-15.6,17.7C78,122.5,81.9,123.2,82.2,120.7"/>
</g>
</svg>
