<?xml version="1.0" encoding="utf-8"?>
<!-- Generator: Adobe Illustrator 23.0.4, SVG Export Plug-In . SVG Version: 6.00 Build 0)  -->
<svg version="1.1" id="Calque_1" xmlns="http://www.w3.org/2000/svg" xmlns:xlink="http://www.w3.org/1999/xlink" x="0px" y="0px"
	 viewBox="0 0 144.1 122.4" style="enable-background:new 0 0 144.1 122.4;" xml:space="preserve">
<style type="text/css">
	.st0{clip-path:url(#SVGID_2_);fill:#A7D900;}
</style>
<g>
	<defs>
		<rect id="SVGID_1_" width="144.1" height="122.4"/>
	</defs>
	<clipPath id="SVGID_2_">
		<use xlink:href="#SVGID_1_"  style="overflow:visible;"/>
	</clipPath>
	<path class="st0" d="M7.8,118.8c-1.4-13,0.3-26.2,0.1-39.3C7.7,65.6,7,51.8,6.8,37.9c-1.1,1.1-2.3,2.3-3.4,3.4c27,0,53.9,0,80.9,0
		c-1.2-1.2-2.3-2.3-3.4-3.4c0.5,27,0.9,53.9,1.4,80.9c1.2-1.2,2.3-2.3,3.5-3.5c-27,0-53.9,0-80.9,0c-4.5,0-4.5,7,0,7
		c27,0,53.9,0,80.9,0c1.9,0,3.5-1.6,3.5-3.5c-0.5-27-0.9-53.9-1.4-80.9c0-1.9-1.6-3.4-3.4-3.4c-27,0-53.9,0-80.9,0
		C1.6,34.5,0,36,0,37.9c0.1,14.9,1,29.9,1.3,44.8C1.4,95,0,107.4,1.9,119.6C2.4,122.9,8.2,122.1,7.8,118.8"/>
	<path class="st0" d="M9.2,37.1c8.4-6.5,18.2-11.4,27.3-16.8c6.2-3.7,13.9-11.5,20.7-13.5c7.2-2.1,18.6,0,25.9,0
		c19.2,0,38.4,0,57.6,0c-0.5-1.9-1.1-3.9-1.6-5.8c-18.8,11.4-37.7,22.7-56.4,34.2c-3.5,2.1-0.3,7.6,3.2,5.5
		c18.8-11.3,37.5-22.9,56.3-34.3c2.6-1.6,1.6-5.8-1.6-5.8c-22.5,0-45,0-67.5,0c-5.4,0-12.7-1.4-17.9,0.3c-9.8,3.2-20,13-29,18.4
		c-7.1,4.3-14.6,8.5-20.9,13.9C2.6,35.5,6.5,39.2,9.2,37.1"/>
	<path class="st0" d="M87.5,121.8c17.6-12.5,35.2-25,52.7-37.6c-1.7-1-3.5-2-5.2-3c0,0.3,0,0.5-0.1,0.8h6.9
		c-1.5-26,2.4-52.1,2.3-78.1c0-4.4-6.9-4.5-6.9,0c0.1,26-3.7,52-2.3,78.1c0.3,4.5,6.6,4.4,6.9,0c0-0.3,0-0.5,0.1-0.8
		c0.2-2.5-3.1-4.5-5.2-3c-17.6,12.5-35.2,25-52.7,37.6C80.4,118.4,83.8,124.4,87.5,121.8"/>
	<path class="st0" d="M61.5,7.2c-0.9,14,0.4,28,0.8,41.9c0.3,9.6-1,20,1.2,29.4c1,4.2,7.4,2.4,6.4-1.8c-2.4-10.2-0.8-22.4-1.2-32.8
		c-0.5-12.2-0.8-24.5-1.8-36.7C66.6,3.8,61.7,3.7,61.5,7.2"/>
	<path class="st0" d="M12.2,115.6c20.4-9.8,38.1-21.5,56.3-34.9c3.3-2.4,0.1-8-3.3-5.6c-8.6,6.4-17.1,13.3-26,19.2
		c-9.5,6.3-20.4,10.2-29.8,16.7C6.7,112.9,9.1,117.1,12.2,115.6"/>
	<path class="st0" d="M66.3,78.2c8.8,3.9,19.2,4,28.7,5c14.5,1.5,29.1,1.4,43.7,1.4c4.4,0,4.4-6.8,0-6.8c-22.8,0.1-48,1.1-70.2-4.9
		C65.4,72,63.2,76.9,66.3,78.2"/>
</g>
</svg>
