<?xml version="1.0" encoding="utf-8"?>
<!-- Generator: Adobe Illustrator 23.0.4, SVG Export Plug-In . SVG Version: 6.00 Build 0)  -->
<svg version="1.1" id="Calque_1" xmlns="http://www.w3.org/2000/svg" xmlns:xlink="http://www.w3.org/1999/xlink" x="0px" y="0px"
	 viewBox="0 0 125.5 122.4" style="enable-background:new 0 0 125.5 122.4;" xml:space="preserve">
<style type="text/css">
	.st0{clip-path:url(#SVGID_2_);fill:#A7D900;}
</style>
<g>
	<defs>
		<rect id="SVGID_1_" width="125.5" height="122.4"/>
	</defs>
	<clipPath id="SVGID_2_">
		<use xlink:href="#SVGID_1_"  style="overflow:visible;"/>
	</clipPath>
	<path class="st0" d="M122.7,115.8c-25.6-1.9-58.3,3.8-82.8-4.7C2.5,98.1-5.1,41.7,26.3,18c21.9-16.5,56-14.9,74.3,6.7
		c23.5,27.7,10.5,76.2-26.1,82.1c-3.5,0.6-2.8,6.8,0.9,6.5c35.7-3.4,52-45.2,39.6-77.2C102.7,4.2,64.4-7.8,34.7,5.1
		C2.1,19.1-8.8,60.1,7.5,91.7c20.6,39.9,79.1,29.2,115.2,29.9C126.4,121.7,126.3,116,122.7,115.8"/>
	<path class="st0" d="M90.2,44.5c4.3-8.5-3.3-17-11.5-17.8c-7.9-0.7-14.4,4.6-15.4,12.7c-0.8,7,3.1,14,9.9,15.9
		c7.1,2,17.6-2.2,17-11c-0.2-3.7-5.2-4.5-6.3-0.9c-1.3,4.1-4.6,6.5-8.9,5.3c-3.3-1-5.1-4.2-5-7.6c0.1-10.9,17-10,15,1.1
		C84.4,45.3,88.6,47.7,90.2,44.5"/>
	<path class="st0" d="M91.9,85.5c4.3-8.5-3.3-17-11.5-17.8C72.5,67,65.9,72.3,65,80.4c-0.8,7,3.1,14,9.9,15.9c7.1,2,17.6-2.2,17-11
		c-0.2-3.7-5.2-4.5-6.3-0.9c-1.3,4.1-4.6,6.5-8.9,5.3c-3.3-1-5.1-4.2-5-7.6c0.1-10.9,17-10,15,1.1C86.1,86.3,90.3,88.7,91.9,85.5"/>
	<path class="st0" d="M53.1,85.5c4.3-8.5-3.3-17-11.5-17.8c-7.9-0.7-14.4,4.6-15.4,12.7c-0.8,7,3.1,14,9.9,15.9
		c7.1,2,17.6-2.2,17-11c-0.2-3.7-5.2-4.5-6.3-0.9c-1.3,4.1-4.6,6.5-8.9,5.3c-3.3-1-5.1-4.2-5-7.6c0.1-10.9,17-10,15,1.1
		C47.3,86.3,51.5,88.7,53.1,85.5"/>
	<path class="st0" d="M53.1,44.5c4.3-8.5-3.3-17-11.5-17.8c-7.9-0.7-14.4,4.6-15.4,12.7c-0.8,7,3.1,14,9.9,15.9
		c7.1,2,17.6-2.2,17-11c-0.2-3.7-5.2-4.5-6.3-0.9c-1.3,4.1-4.6,6.5-8.9,5.3c-3.3-1-5.1-4.2-5-7.6c0.1-10.9,17-10,15,1.1
		C47.3,45.3,51.5,47.7,53.1,44.5"/>
	<path class="st0" d="M55.4,59.2c-2.7,2.8-0.6,7.2,2.8,8.1c3.4,0.9,6.8-1.2,7.3-4.8c0.5-3.2-1.6-6.1-4.7-6.7c-3.2-0.5-7.7,2.2-6.2,6
		c0.9,2.2,3.5,3.4,5.4,1.5c2.3-2.5-1.3,0.5-1.1-1.6c0-0.3,0.1-0.2,0.6-0.5c0.9-0.5,1.3,0.7,0.8-0.7C59.5,58.4,56.9,57.6,55.4,59.2"
		/>
</g>
</svg>
