<?xml version="1.0" encoding="utf-8"?>
<!-- Generator: Adobe Illustrator 23.0.4, SVG Export Plug-In . SVG Version: 6.00 Build 0)  -->
<svg version="1.1" id="Calque_1" xmlns="http://www.w3.org/2000/svg" xmlns:xlink="http://www.w3.org/1999/xlink" x="0px" y="0px"
	 viewBox="0 0 208.9 122.4" style="enable-background:new 0 0 208.9 122.4;" xml:space="preserve">
<style type="text/css">
	.st0{clip-path:url(#SVGID_2_);fill:#A7D900;}
</style>
<g>
	<defs>
		<rect id="SVGID_1_" width="208.9" height="122.8"/>
	</defs>
	<clipPath id="SVGID_2_">
		<use xlink:href="#SVGID_1_"  style="overflow:visible;"/>
	</clipPath>
	<path class="st0" d="M62.6,20.8c-5.4,3.1-7.4,8.6-9.7,14.1c-2.5,5.8-4.6,11.7-6.1,17.9c-0.6,2.7-1.1,5.4-1.5,8.2
		c-5.5,0.6-9.8-1.8-13.1-7.2c-8.5-13.2-9-31.5-29.7-28c-2.3,0.4-3.1,3.4-2.1,5.2c2.8,5.2,6.4,10.6,6.8,16.8C7.5,52.1,6,56.7,6,61
		c0,6.2,1,12.7,3.5,18.4c6.1,13.9,17,17.7,30.5,21.6c4.5,1.3,6.4-5.7,1.9-7c-19.4-5.7-30.1-15.8-28.7-37.2c0.8-13-0.7-18-6.7-29.4
		c-0.7,1.7-1.4,3.4-2.1,5.2c22-3.8,17,43,42,35.6c4.7-1.4,4.6-3.8,5.8-8.2c3.1-10.7,4.6-27,14-34.5C68.9,23.3,65.5,19.1,62.6,20.8"
		/>
	<path class="st0" d="M63.8,26.1c29.7,4.6,59.5-2.5,88.9,0c-0.8-2-1.6-3.9-2.5-5.9c-0.2,0.2-0.4,0.3-0.7,0.5
		c-3.1,2.4,0.9,7.5,4.2,5.4c0.2-0.2,0.5-0.3,0.7-0.5c3-2,1.7-6.2-1.8-6.5c-15-1.3-30.8,1.5-45.9,1.9c-14.1,0.3-28.2-0.4-42.3-1
		C61.2,19.8,60.3,25.5,63.8,26.1"/>
	<path class="st0" d="M39.6,99c5.2,7.7,6.6,15.6,15.4,20.2c7.4,4,17.6,3.7,25.7,3.5c16.5-0.3,32-1.9,48.6-1.2
		c10.1,0.4,23.4,2,33.1-2.2c14.1-6.2,17-23.3,15.4-37.1c-2.1-18.9-12.6-42.8-21.1-59.3c-2.2-4.2-8.5-0.5-6.3,3.7
		c6.3,12.5,12.2,29.3,16.6,42.6c7.2,22,6,41.7-22.2,44.9c-17.6,2-35.5-1.2-53.3,0.6c-8.7,0.8-20.7,2.8-29-0.2
		c-10.4-3.8-11.7-12.4-18.2-18.9C41.8,93.3,37.7,96.2,39.6,99"/>
	<path class="st0" d="M102,10.9c0.4-1.2,0-3.4,1-4.1c0.9-0.7,4.5,0.3,5.6,0.4c1.8,0.1,4.2-0.2,5.9,0.5c1.9,0.8,1.4,2.7,2,4.5
		c1.5,4.1,8,2.4,6.6-1.8c-1.2-3.4-0.7-6.4-4.4-8.4c-3.3-1.8-7.4-1.4-11-1.6c-3.1-0.2-7-0.9-9.6,1.4c-2.3,2-3,6.4-1.8,9.2
		C97.4,13.4,101,13.8,102,10.9"/>
	<path class="st0" d="M161.2,37.2c5.7-0.7,11.3-1.4,16.9-2.5c9.2-1.8,18.6-3.9,21.7,7.8c2.2,8.2,2.7,17.9,0.3,26.1
		c-3.8,12.6-12.7,16.8-24.1,20.6c-4.6,1.5-2.6,8.8,2,7.3c10.7-3.6,19.9-6.8,25.7-17.2c6.2-11.1,6.2-23.2,3.9-35.4
		c-1.6-8.2-5-17-14.2-18.4c-9-1.4-24.6,2.9-32.9,6.1C157.7,32.7,157.7,37.7,161.2,37.2"/>
	<path class="st0" d="M68,21.1c-0.2-9,28.7-5.1,35-4.9c5.6,0.1,46.1-4.4,44.4,4.3c-0.8,4.3,5.6,6.2,6.7,1.8
		c5.5-23.3-28.9-13-41.7-13c-8.1,0-16.2-0.8-24.3-0.4c-5.6,0.2-14.3-1.3-19.3,0.3c-6.6,2.2-7.3,4.6-6.8,11.9
		C62.1,25,68.1,25.1,68,21.1"/>
</g>
</svg>
