<?xml version="1.0" encoding="utf-8"?>
<!-- Generator: Adobe Illustrator 24.2.3, SVG Export Plug-In . SVG Version: 6.00 Build 0)  -->
<!DOCTYPE svg PUBLIC "-//W3C//DTD SVG 1.1//EN" "http://www.w3.org/Graphics/SVG/1.1/DTD/svg11.dtd" [
	<!ENTITY ns_extend "http://ns.adobe.com/Extensibility/1.0/">
	<!ENTITY ns_ai "http://ns.adobe.com/AdobeIllustrator/10.0/">
	<!ENTITY ns_graphs "http://ns.adobe.com/Graphs/1.0/">
	<!ENTITY ns_vars "http://ns.adobe.com/Variables/1.0/">
	<!ENTITY ns_imrep "http://ns.adobe.com/ImageReplacement/1.0/">
	<!ENTITY ns_sfw "http://ns.adobe.com/SaveForWeb/1.0/">
	<!ENTITY ns_custom "http://ns.adobe.com/GenericCustomNamespace/1.0/">
	<!ENTITY ns_adobe_xpath "http://ns.adobe.com/XPath/1.0/">
]>
<svg version="1.1" xmlns:x="&ns_extend;" xmlns:i="&ns_ai;" xmlns:graph="&ns_graphs;"
	 xmlns="http://www.w3.org/2000/svg" xmlns:xlink="http://www.w3.org/1999/xlink" x="0px" y="0px" viewBox="0 0 128.4 118.2"
	 style="enable-background:new 0 0 128.4 118.2;" xml:space="preserve">
<style type="text/css">
	.st0{display:none;}
	.st1{display:inline;}
	.st2{fill:#91D902;}
</style>
<metadata>
	<sfw  xmlns="&ns_sfw;">
		<slices></slices>
		<sliceSourceBounds  bottomLeftOrigin="true" height="112.8" width="190.5" x="19.8" y="1.9"></sliceSourceBounds>
	</sfw>
</metadata>
<g id="Calque_1">
</g>
<g id="Layer_2" class="st0">
	<g class="st1">
		<g>
			<path class="st2" d="M123,109.4c0.4-11.4,1.8-22.7,4.2-33.9c0.6-2.7,1.2-5.5,1.9-8.2c0.5-1.8,1-4,2.6-5.2
				c1.8-1.4,4.6-1.5,6.7-1.8c2.6-0.4,5.3-0.6,7.9-0.9c11.3-1,22.8-0.8,34.1,0.5c2.7,0.3,5.4,0.7,8.1,1.2c1.3,0.2,2.7,0.5,4,0.7
				c1.4,0.3,2.8,0.7,4.1,0.9c0.8,0.1,0.1,0.1,0-0.2c0.1,0.2,0.2,0.4,0.2,0.6c0.2,0.7,0.4,1.4,0.6,2c0.4,1.4,0.8,2.7,1.2,4.1
				c0.7,2.6,1.5,5.1,2.2,7.7c3.1,11.5,5.2,23,4.2,34.9c-0.1,1.3,1.2,2.5,2.5,2.5c1.4,0,2.4-1.1,2.5-2.5c0.9-11.4-0.8-22.6-3.7-33.7
				c-1.4-5.5-2.9-11.2-4.6-16.6c-0.4-1.3-1.1-2.6-2.4-3.3c-1.3-0.7-3-0.9-4.5-1.2c-3-0.6-6-1.1-9-1.6c-12-1.7-24.1-2.3-36.1-1.5
				c-3,0.2-6.1,0.5-9.1,0.8c-2.7,0.3-5.6,0.5-8.2,1.3c-2.6,0.8-4.9,2.3-6.2,4.7c-1.3,2.3-1.9,4.9-2.5,7.5
				c-3.3,13.4-5.2,27.1-5.7,40.8C117.9,112.6,122.9,112.6,123,109.4L123,109.4z"/>
		</g>
	</g>
	<g class="st1">
		<g>
			<path class="st2" d="M140.4,80c-0.3,9.6-0.6,19.3-0.7,28.9c-0.1,3.2,4.9,3.2,5,0c0.2-9.6,0.4-19.3,0.7-28.9
				C145.4,76.8,140.5,76.8,140.4,80L140.4,80z"/>
		</g>
	</g>
	<g class="st1">
		<g>
			<path class="st2" d="M183,78.5c0.5,11.8,0.6,23.6,0.1,35.4c-0.1,3.2,4.9,3.2,5,0c0.4-11.8,0.4-23.6-0.1-35.4
				C187.8,75.3,182.8,75.3,183,78.5L183,78.5z"/>
		</g>
	</g>
	<g class="st1">
		<g>
			<path class="st2" d="M188,94.9c5.5-3.3,11.2-5.1,17.6-4.8c1.3,0.1,2.5-1.2,2.5-2.5c0-1.4-1.1-2.4-2.5-2.5
				c-7.2-0.3-13.9,1.8-20.1,5.5C182.7,92.2,185.2,96.5,188,94.9L188,94.9z"/>
		</g>
	</g>
	<g class="st1">
		<g>
			<path class="st2" d="M142.5,91.2c-3.4-0.6-6.8-1.3-10.1-1.9c-3.3-0.6-6.7-1.5-10-1.2c-1.3,0.1-2.5,1.1-2.5,2.5
				c0,1.3,1.1,2.6,2.5,2.5c3.1-0.2,6.1,0.6,9.1,1.1c3.2,0.6,6.5,1.2,9.7,1.8c1.3,0.3,2.7-0.4,3.1-1.7
				C144.5,93.1,143.8,91.5,142.5,91.2L142.5,91.2z"/>
		</g>
	</g>
	<g class="st1">
		<g>
			<path class="st2" d="M162.2,4.8c-8.8,1.6-17,7.3-19.5,16.2c-1.3,4.6-0.7,9.3,1.5,13.6c2.2,4.3,5.1,8.4,9.2,10.9
				c4,2.5,8.9,3.6,13.7,3.5c4.7-0.2,9.8-1.3,13.8-3.8c4.3-2.6,6.6-6.8,7.1-11.8c0.3-2.3,0.1-4.8,0-7.1c-0.1-2.6-0.4-5.2-1-7.8
				c-0.6-2.6-1.8-5.1-3.5-7.2c-1.7-2.1-4.1-3.4-6.6-4.3c-5.5-2-11.4-2.3-17.1-1.3c-1.3,0.2-2.1,1.9-1.7,3.1c0.4,1.4,1.7,2,3.1,1.7
				c4.1-0.7,8.4-0.4,12.4,0.7c1.8,0.5,3.6,1.1,5.1,2.2c1.3,1,2.3,2.7,2.9,4.3c1.6,3.9,1.5,8.4,1.6,12.5c0.1,3.6-0.5,7.3-3.3,9.8
				c-2.7,2.4-6.9,3.5-10.4,3.9c-3.8,0.5-7.8,0.2-11.3-1.4c-3.6-1.6-6-4.3-8-7.6c-2-3.3-3.5-6.7-3-10.6c1.2-8.3,8.7-13.2,16.4-14.6
				c1.3-0.2,2.1-1.9,1.7-3.1C164.8,5.1,163.5,4.5,162.2,4.8L162.2,4.8z"/>
		</g>
	</g>
</g>
<g id="Layer_3">
	<path class="st2" d="M106.3,81.2c-2.2-9.5-6.1-19.7-15.1-24.7c-4-2.2-8.5-2.9-13-2.4c-0.3-1-0.6-2-0.8-3c-0.2-0.8-0.4-1.6-0.5-2.5
		c0-0.2-0.1-0.3-0.1-0.5c3.5-4.7,4.8-11.8,5.4-17.1c1-9-0.9-18.7-8.5-24.4c-3.4-2.6-8.2-3.6-12.4-3.1c-4.5,0.6-7.7,4.1-10,7.8
		c-0.7-0.3-1.7-0.2-2.1,0.7c-3.6,7.9-3.7,17.1-1,25.3c1.2,3.8,3,7.6,5.5,10.7c-0.1,0.4-0.2,0.8-0.3,1.2c-0.2,0.9-0.5,1.8-0.7,2.7
		c-0.2,0.9-0.5,1.9-0.7,2.8c-0.3-0.1-0.7-0.2-1-0.2c-4.9,0.5-9.5,2-13.9,4c-1.4,0.6-2.8,1.3-4.1,2.1c-2.4,1.4-4.1,3.2-5.2,5.8
		c-1.8,4.6-3,9.6-4.2,14.3c-1.3,5-2.3,10.1-2.9,15.2c-0.7,5.6-1.2,11.5,0.2,17c0.6,2.3,3.9,1.7,4-0.5c0.2-4.6,0.1-9.2,0.6-13.8
		c0.1-1.1,0.3-2.3,0.5-3.4c2.1-0.2,4.3-0.4,6.4-0.5c1.3-0.1,2.6-0.1,3.8-0.1c0.4,0,1.2,0,1.5,0.1c0.2,0,0.5,0.1,0.7,0.1
		c-0.2,6.4,0.3,12.8,1.6,19.1c0.6,2.8,4.8,1.6,4.2-1.2c-1.4-7.3-1.8-14.7-1.3-22c0.2-3.7-0.3-7.9-0.9-11.3c-0.2-1.3-2.4-1.6-2.9-0.4
		c-0.8,1.7-0.5,3.9-0.4,5.7c0.1,2,0.1,3.9-0.1,5.9c-0.6-0.1-1.3-0.2-1.9-0.2c-1.3,0-2.7,0.1-4.1,0.1c-2,0.1-4,0.3-6,0.6
		c0.4-2.2,0.9-4.3,1.5-6.5c1.1-4.5,2.5-8.9,3.8-13.3c0.6-1.8,0.9-4,2.4-5.2c1.1-0.9,2.6-1.6,3.9-2.3c3.8-1.9,8-3.5,12.3-4
		c1,2.2,1.8,4.5,3.9,6c3,2.3,7.4,2.4,10.9,2.4c3.6,0,7.1-0.8,9.9-3.1c2.2-1.8,3.6-4.3,4.6-6.9c2.7,0.3,5.6,0.7,7.8,1.8
		c3.3,1.6,6.2,4.4,8.2,7.5c2.6,4.2,3.9,9.2,5,13.9c0.2,0.9,0.4,1.9,0.6,2.8c-0.2,0-0.5,0.1-0.7,0.1c-1.6,0.3-3.1,0.6-4.7,0.9
		c-1.8,0.4-3.7,0.9-5.4,1.7c0-3.1,0-6.2,0-9.2c0-2.6-3.8-2.6-4,0C86,84.3,86,90.6,86,96.8c0,3,0,6.1-0.2,9.1c-0.1,1.3-0.2,2.6-0.3,4
		c-0.1,1.2-0.4,2.6-0.3,3.9c0.1,1.7,2.5,2.6,3.4,0.9c1.2-2.4,1.3-5.5,1.5-8.2c0.3-3.1,0.4-6.2,0.5-9.3c0-1.7,0.1-3.4,0.1-5.1
		c0.2-0.1,0.5-0.3,0.7-0.4c0.1-0.1,0.3-0.1,0.4-0.2c0,0,0.1,0,0.1,0c0,0,0,0,0.1,0c0.3-0.1,0.7-0.3,1-0.4c1.5-0.5,3-0.9,4.4-1.2
		c1.5-0.3,2.9-0.6,4.4-0.8c0.1,0,0.2,0,0.3,0c0.3,2.2,0.6,4.4,0.7,6.6c0.4,5.7,0.5,11.3,0.5,17c0,3.5,5.5,3.5,5.5,0
		C108.8,102.1,108.7,91.5,106.3,81.2z M51.7,15.8c0.7,0.2,1.4,0.1,1.9-0.6c2-2.5,4.3-5.5,7.5-6.5c1.1-0.3,2.7-0.2,4,0
		c1.4,0.2,2.8,0.6,4.1,1.3c6.4,3.5,8.3,11.1,8.1,17.9c-0.1,4.1-0.7,8.3-1.9,12.2c-0.6,1.8-1.4,3.6-2.5,5.1c-1,1.3-2.4,2.8-4.1,3.1
		c-1.8,0.3-3.9,0.1-5.7-0.2c-1.7-0.3-3.6-0.6-5-1.7c-1.3-1.1-2.3-2.8-3.1-4.3c-0.9-1.6-1.7-3.2-2.3-4.9C50.2,30.2,50,22.9,51.7,15.8
		z M72.2,62c-2,1.8-4.7,2.1-7.3,2.1c-2.5,0-6.2,0.2-8.3-1.4c-1-0.7-1.6-1.8-2.2-2.9c0.3-0.2,0.6-0.6,0.7-1c0.5-1.9,1-3.8,1.4-5.7
		c0.2-0.7,0.3-1.4,0.5-2.1c3,1.7,6.9,2.2,10.3,2.2c2.3,0,4.3-0.6,5.9-1.6c0.1,0.2,0.1,0.4,0.2,0.6c0.4,1.7,1,3.3,1.6,4.9
		c0.1,0.1,0.1,0.3,0.2,0.4C74.4,59.2,73.5,60.8,72.2,62z"/>
</g>
</svg>
