<?xml version="1.0" encoding="utf-8"?>
<!-- Generator: Adobe Illustrator 23.0.4, SVG Export Plug-In . SVG Version: 6.00 Build 0)  -->
<svg version="1.1" id="Calque_1" xmlns="http://www.w3.org/2000/svg" xmlns:xlink="http://www.w3.org/1999/xlink" x="0px" y="0px"
	 viewBox="0 0 154 122.4" style="enable-background:new 0 0 154 122.4;" xml:space="preserve">
<style type="text/css">
	.st0{clip-path:url(#SVGID_2_);fill:#A7D900;}
</style>
<g>
	<defs>
		<rect id="SVGID_1_" width="154" height="122.5"/>
	</defs>
	<clipPath id="SVGID_2_">
		<use xlink:href="#SVGID_1_"  style="overflow:visible;"/>
	</clipPath>
	<path class="st0" d="M74.9,4.2c0.7,8.8-1.3,17.9-1,26.8c0.2,9.8,0.1,19.6,0.3,29.4c0.4,18.8,1,37.4,0.9,56.2c0,3,4.6,3,4.6,0
		c0-19.6-0.7-39.2-1.1-58.8c-0.2-10.7-0.6-21.7-0.5-32.4c0.1-7.4,1.8-14.4,0.7-21.7C78.5,1.5,74.7,2,74.9,4.2"/>
	<path class="st0" d="M89.8,45.5c-6.6-8-22.6-3.3-28.3,3.6c-6.6,8.1-8.5,22.8,0,30.2c8.6,7.6,23.8,9.2,31.8-0.1
		c6.9-8.1,4.6-23.1-2.2-30.6c-2.1-2.3-5.5,1.1-3.4,3.4c4.8,5.3,6.8,16.5,3.2,22.6c-5.5,9.1-20,7.5-26.8,0.8
		c-5.7-5.6-4.1-16.3,0-22.3c4.9-7,16.2-9.1,23.5-4.8C89.5,49.4,91,47,89.8,45.5"/>
	<path class="st0" d="M2.7,5.5c9.7-3.9,24.7-1.2,34.9-1.3C49.8,4.1,62,4.8,74.2,5c25.1,0.4,50.4,1,75.5,0.6c2.8,0,2.8-4.4,0-4.3
		c-27.6,0.2-55.4,0.1-83-0.7C52.5,0.1,38.2,0,23.9,0.1c-6.8,0.1-16.2-1-22.7,2C-0.6,3,0.7,6.3,2.7,5.5"/>
	<path class="st0" d="M4.9,122.5c48.7-3.5,97.8-0.4,146.3-5.1c2.8-0.3,2.9-4.8,0-4.5c-48.6,4.9-97.8-0.2-146.3,5.8
		C2.5,119,2.4,122.7,4.9,122.5"/>
	<path class="st0" d="M147.8,3.4c4.4,36.9-1.1,74.7,1.1,111.7c0.2,2.9,4.7,2.9,4.5,0c-1.2-20-0.9-39.5-0.3-59.5
		c0.5-16.7,2.1-36.4-1.6-52.8C151.2,0.8,147.6,1.2,147.8,3.4"/>
	<path class="st0" d="M0.3,3.7c-1.5,38.8,3.6,77.6,2.3,116.4c-0.1,2.9,4.4,2.9,4.5,0c1.2-38.5-1.3-77.9-3-116.4
		C4,1.3,0.4,1.3,0.3,3.7"/>
	<path class="st0" d="M7.2,93.9c7.5,0,14.6-1.5,22-2c2.5-0.2,2.6-3.9,0-3.9c-3.5-0.1-6.8,1-10.2,1.4C15,89.8,11.1,90,7.2,90.1
		C4.7,90.2,4.7,93.9,7.2,93.9"/>
	<path class="st0" d="M4.8,29.9c2.7,1.5,6.1,0.8,9,0.4c4.7-0.6,9.3-1,14.1-0.8c2.6,0.1,2.6-3.9,0-4.1c-4-0.2-8,0-11.9,0.5
		c-3.2,0.4-6.5,1.4-9.8,0.7C4.3,26.3,3,28.9,4.8,29.9"/>
	<path class="st0" d="M26.8,26.9C25.7,47.4,24.5,69.5,27,90c0.3,2.5,4.3,2.6,4,0c-2.6-20.9,0.1-42.2-0.9-63.1
		C30.1,24.7,26.9,24.7,26.8,26.9"/>
	<path class="st0" d="M8.2,47.1c2.3,0.9,6.2,1.5,8.1-0.5c1.3-1.3,0-3.5-1.8-3.1c-2,0.5-3.4,0.7-5.4,0.1C6.9,43,6,46.3,8.2,47.1"/>
	<path class="st0" d="M8.8,79.2c1.2,0.5,2.7,0.3,4,0.1c1.3-0.2,2.9-0.3,4-1.1c0.8-0.6,1.2-1.4,0.8-2.3c-0.3-0.8-1.3-1.4-2.2-1.1
		c-1.4,0.5-3.9,1.4-5.5,0.9C7.5,74.9,6.7,78.4,8.8,79.2"/>
	<path class="st0" d="M13.7,45.1c0.5,10.5,0.5,21,0.5,31.6c0,2.5,3.8,2.5,3.9,0c0.1-10.6,0.8-21.6-1.1-32
		C16.6,42.7,13.6,43.2,13.7,45.1"/>
	<path class="st0" d="M28.7,47.5c5.1,3.4,10,6.1,11.2,12.7c0.8,4.6-0.7,9.5-4.7,12.1c-2,1.3-4.3,1.9-6.2,3.3c-2.1,1.5-0.2,5,2.1,3.6
		c3.4-2.1,7.3-3,9.9-6.2c2.5-3.1,3.6-7.7,3.3-11.6c-0.7-8.7-6.7-13.3-13.7-17.2C28.5,43,26.7,46.2,28.7,47.5"/>
	<path class="st0" d="M149.6,25c-7.5,0-14.6,1.5-22,2c-2.5,0.2-2.6,3.9,0,3.9c3.5,0.1,6.8-1,10.2-1.4c3.9-0.4,7.8-0.6,11.7-0.7
		C152,28.7,152,25,149.6,25"/>
	<path class="st0" d="M151.9,89c-2.7-1.5-6.1-0.8-9-0.4c-4.7,0.6-9.3,1-14.1,0.8c-2.6-0.1-2.6,3.9,0,4.1c4,0.2,8,0,11.9-0.5
		c3.2-0.4,6.5-1.4,9.8-0.7C152.5,92.7,153.8,90,151.9,89"/>
	<path class="st0" d="M130,92c1.1-20.6,2.3-42.6-0.2-63.1c-0.3-2.5-4.3-2.6-4,0c2.6,20.9-0.1,42.2,0.9,63.1
		C126.7,94.2,129.9,94.2,130,92"/>
	<path class="st0" d="M148.6,71.8c-2.3-0.9-6.2-1.5-8.1,0.5c-1.3,1.3,0,3.5,1.8,3.1c2-0.5,3.4-0.7,5.4-0.1
		C149.9,75.9,150.7,72.6,148.6,71.8"/>
	<path class="st0" d="M148,39.7c-1.2-0.5-2.7-0.3-4-0.1c-1.3,0.2-2.9,0.3-4,1.1c-0.8,0.6-1.2,1.4-0.8,2.3c0.3,0.8,1.3,1.4,2.2,1.1
		c1.4-0.5,3.9-1.4,5.5-0.9C149.2,44,150.1,40.6,148,39.7"/>
	<path class="st0" d="M143.1,73.9c-0.5-10.5-0.5-21-0.5-31.6c0-2.5-3.8-2.5-3.9,0c-0.1,10.6-0.8,21.6,1.1,32
		C140.1,76.2,143.2,75.8,143.1,73.9"/>
	<path class="st0" d="M128,71.4c-5.1-3.4-10-6.1-11.2-12.7c-0.8-4.6,0.7-9.5,4.7-12.1c2-1.3,4.3-1.9,6.2-3.3c2.1-1.5,0.2-5-2.1-3.6
		c-3.4,2.1-7.3,3-9.9,6.2c-2.5,3.1-3.6,7.7-3.3,11.6c0.7,8.7,6.7,13.3,13.7,17.2C128.3,75.9,130.1,72.8,128,71.4"/>
</g>
</svg>
