<?xml version="1.0" encoding="utf-8"?>
<!-- Generator: Adobe Illustrator 23.0.4, SVG Export Plug-In . SVG Version: 6.00 Build 0)  -->
<svg version="1.1" id="Calque_1" xmlns="http://www.w3.org/2000/svg" xmlns:xlink="http://www.w3.org/1999/xlink" x="0px" y="0px"
	 viewBox="0 0 104.9 122.4" style="enable-background:new 0 0 104.9 122.4;" xml:space="preserve">
<style type="text/css">
	.st0{clip-path:url(#SVGID_2_);fill:#A7D900;}
</style>
<g>
	<defs>
		<rect id="SVGID_1_" width="104.9" height="122.4"/>
	</defs>
	<clipPath id="SVGID_2_">
		<use xlink:href="#SVGID_1_"  style="overflow:visible;"/>
	</clipPath>
	<path class="st0" d="M25.6,1.3C14.7-3.5,4.2,5.7,3.2,16.6c-0.9,10.4,5.6,19,16,20.3c8.9,1.2,18.2-3.9,20.7-12.8
		c2.6-9.6-2.6-22-13.6-22.3c-2.9-0.1-3.5,4.4-0.7,5c15.1,3.5,10.9,25-4,24.9C2.6,31.5,5.2,0.7,23.8,5.5C26.2,6.1,28,2.4,25.6,1.3"/>
	<path class="st0" d="M17.5,57.8c-2.9-7.5-6-14.8-9.1-22.2c-0.8,1-1.6,2.1-2.4,3.1c10,0.2,20.2-0.5,30.3-0.5
		c-0.8-1.1-1.6-2.1-2.4-3.2c-2.5,7.6-4.9,15.2-7.3,22.8c-1,3.1,3.9,4.4,4.9,1.3c2.4-7.6,4.9-15.2,7.3-22.8c0.5-1.6-0.8-3.2-2.4-3.2
		C26.2,33.2,16,33.8,6,33.7c-1.4,0-3,1.6-2.4,3.1c3.2,7.6,6.3,15.2,9.6,22.7C14.2,62,18.4,60.2,17.5,57.8"/>
	<path class="st0" d="M26.5,71.6c3.9,10.6,7.9,21.1,11.9,31.7c0.8-1,1.6-2.1,2.4-3.1c-12.7-0.2-25.5,0.5-38.2,0.5
		c0.8,1.1,1.6,2.1,2.4,3.2c4.2-10.7,8.3-21.5,12.5-32.2c1.2-3-3.7-4.4-4.9-1.3C8.4,81.1,4.3,91.8,0.1,102.5
		c-0.6,1.6,0.9,3.2,2.4,3.2c12.7-0.1,25.5-0.7,38.2-0.6c1.5,0,3-1.6,2.4-3.1c-4.1-10.5-8-21.1-12.2-31.6
		C29.9,67.7,25.5,68.8,26.5,71.6"/>
	<path class="st0" d="M35.4,59.7c-0.2,3.5,0.4,7.2-0.6,10.7c0.7-0.6,1.5-1.1,2.2-1.7c-10-0.1-19.9-0.1-29.9-0.1
		c0.8,0.8,1.6,1.6,2.4,2.4c0-4.5,0.2-8.9-0.8-13.3c-0.8,1-1.6,2-2.3,3.1c10.4,0.5,20.7,0.9,31.1,1.4c3.2,0.1,3.2-4.8,0-4.9
		C27.1,56.8,16.7,56.4,6.4,56C4.7,55.9,3.7,57.6,4,59c1,3.9,0.7,8,0.7,12c0,1.3,1.1,2.4,2.4,2.4c10,0,19.9,0,29.9-0.1
		c1,0,1.9-0.7,2.2-1.7c1-3.8,0.7-8,0.3-11.9C39.2,57.1,35.5,57,35.4,59.7"/>
	<path class="st0" d="M38.6,104.4c-0.3,4.9,0.6,10.1-0.7,14.9c0.8-0.6,1.5-1.1,2.3-1.7c-12.2-0.1-24.4-0.1-36.6-0.1
		c0.8,0.8,1.6,1.6,2.4,2.4c0-6.1,0.3-12-1-18c-0.7-3.1-5.4-1.8-4.8,1.3c1.2,5.5,0.9,11.1,0.9,16.7c0,1.3,1.1,2.4,2.4,2.4
		c12.2,0,24.4,0,36.6-0.1c1,0,2-0.7,2.3-1.7c1.3-5.2,0.8-10.9,0.4-16.1C42.5,101.8,38.7,101.8,38.6,104.4"/>
	<path class="st0" d="M53.6,6.8c8,9.2,5.6,4.9,15.8,7.8c7.9,2.2,16.1,8.6,23.4,12.4c10,5.3,6.5,1.9,6.6,12.8c0,1.3,0.4,5.3-0.5,6.4
		c2.4-2.9,0-1.5-2.3-1.6c-6.3-0.4-5.3,1.6-7.8-3.1c-0.4-0.7-1.2-1.2-2.1-1.2c-4.8,0-9.5,0-14.3,0c-1.7,0-3.1,2.1-2.1,3.6
		c5.9,8.7,18.8,23,21.1,30.7c1.8,6,0,14.8,0.1,21c0,5.1,0,10.1,0,15.2c0,1-0.3,9.9,1.6,6.7c1.3-2.2,1-0.5-2.1-1.3
		c-3.4-0.9-8.2-0.1-11.6-0.1c-3.5,0-20.4,2.9-22.9,0.5c-0.8-0.8,0.5-19.3,0.3-22c-0.5-9.7-1-19.3-1.1-29
		c-0.2-20.2,0.8-40.4,1.1-60.6c0-3.2-5-3.2-5,0c-0.5,37.5-4.9,77.5,1.5,114.7c0.2,1,1.4,1.8,2.4,1.8c5.3-0.2,10.6-0.3,15.9-0.4
		c5.1-0.1,16.5-2.4,21.1,0.1c1.3,0.7,3.3,0.2,3.6-1.5c1.2-6.1,0.2-13.2,0.2-19.3c0-7.5,2-18.5-0.1-25.8
		c-3.2-11.4-15.1-23.2-21.8-33.1l-2.1,3.6c7.1,0,11.8-1.9,14.5,3c0.4,0.7,1.2,1.2,2.1,1.2c4.1,0,8.2,0,12.2,0c1.4,0,2.3-1.1,2.4-2.4
		c0.4-5.8,0.9-11.6,1.3-17.4c0.1-0.8-0.5-1.7-1.2-2c-8.6-4.5-17.2-9-25.7-13.5c-2.4-1.2-5.1-3.3-7.7-4c-6.8-1.8-8,0.1-13.6-6.3
		C54.8,1.7,51.8,4.8,53.6,6.8"/>
	<path class="st0" d="M53.1,103.3c1.3,3.8,6,3.7,9.3,3.9c9.4,0.6,18.9,0.7,28.3,0.7c3.2,0,3.2-4.9,0-5c-7.1-0.1-14.2-0.3-21.2-0.4
		c-2.8,0-10.8,0.9-13.2-1.1C54.9,100.4,52.5,101.4,53.1,103.3"/>
	<path class="st0" d="M67.8,63.3c2.1,1.6,3.6,4.9,5.2,7c1.4,1.8,2.9,3.4,4.2,5.2c3.1,4.4,2.9,10.9,2.7,16.2c-0.1,3.5,5.4,3.5,5.5,0
		c0.1-5.9,0.4-13.3-3.1-18.3c-2.1-3-4.8-5.7-7-8.7c-1.6-2.2-2.8-4.2-5.1-5.6C67.5,57.6,65.4,61.5,67.8,63.3"/>
</g>
</svg>
