<?xml version="1.0" encoding="utf-8"?>
<!-- Generator: Adobe Illustrator 23.0.4, SVG Export Plug-In . SVG Version: 6.00 Build 0)  -->
<svg version="1.1" id="Calque_1" xmlns="http://www.w3.org/2000/svg" xmlns:xlink="http://www.w3.org/1999/xlink" x="0px" y="0px"
	 viewBox="0 0 126.7 122.4" style="enable-background:new 0 0 126.7 122.4;" xml:space="preserve">
<style type="text/css">
	.st0{clip-path:url(#SVGID_2_);fill:#A7D900;}
</style>
<g>
	<defs>
		<rect id="SVGID_1_" y="-0.2" width="126.7" height="122.7"/>
	</defs>
	<clipPath id="SVGID_2_">
		<use xlink:href="#SVGID_1_"  style="overflow:visible;"/>
	</clipPath>
	<path class="st0" d="M20.6,90.3c-3,2-2.7,7.1-2.8,10.3c-0.2,6.4-1.4,12.9-1.3,19.3c0.1,3.6,5.6,3.6,5.5,0
		c-0.1-5.6,1.2-11.1,1.1-16.7c-0.1-3.8,0.2-7.3,0.6-11C24,90.6,21.9,89.5,20.6,90.3"/>
	<path class="st0" d="M77.5,83.4c3.5,1.5,6.4-4.1,7.6-6.5c2.1-4.3,2.4-9.7,0.3-14c-1.6-3.4-6.5-0.4-5,2.9c1.1,2.4,0.8,5.8-0.1,8.2
		c-0.4,0.9-0.9,1.8-1.3,2.7c-0.3,0.5-0.6,0.9-0.8,1.4c-0.3,0.7-1.1,0.6-0.1,0.6C75.2,78.6,75.1,82.5,77.5,83.4"/>
	<path class="st0" d="M93,95.6c6.4-6,11.2-11.9,13.1-20.7c1.2-5.6,2.3-13-1.9-17.7c-2.2-2.5-5.4,0.7-4.3,3.3
		c2.1,4.9,1.4,10.7-0.1,15.7c-2.1,7.1-6.9,10.6-10.7,16.4C87.5,95,91,97.4,93,95.6"/>
	<path class="st0" d="M106.8,109c7.7-6.2,13.9-11.7,17.4-21.5c3.9-11.1,2.8-23.7-0.1-34.9c-0.9-3.7-6.6-2.1-5.7,1.6
		c2.6,10.6,3.8,22.6-0.3,32.9c-3.3,8.4-8.9,12.4-15,18.3C100.7,107.7,104.3,111.1,106.8,109"/>
	<path class="st0" d="M59.5,1.3c-2.7,6.9-1.7,15.6,2.7,21.6c2.3,3.1,6.4,5.4,8.3,8.6c3.7,6.1-4.5,5.7-7.8,7.9c-3,2.1-0.2,7.1,2.9,5
		c5-3.4,16.7-3.2,12.2-12.9c-2-4.2-6.7-6.8-9.7-10.2C63.1,15.6,62.8,9,63.8,1.9C64.1-0.7,60.3-0.8,59.5,1.3"/>
	<path class="st0" d="M62.7,40.5c-1.7,1.5-1.4,4.2-1.2,6.3c0.2,3,0,6.1,0,9.1c0,3.6,5.7,3.6,5.7,0c0-4.7,0.3-9.8-0.6-14.4
		C66.2,39.7,63.9,39.5,62.7,40.5"/>
	<path class="st0" d="M65.4,53.9c-3.5-0.8-7.1-0.3-10.6-0.4c-3.5-0.1-7-0.8-10.5-0.6c-1.2,0.1-2.5,0.8-2.8,2.1
		c-1.1,4.8,0.3,10,3.2,13.9c1.5,2,3.6,3.6,5.9,4.7c2.2,1.1,4.8,0.9,7,1.9c3.3,1.5,6.2-3.4,2.9-5c-3-1.5-6.4-1.2-9.2-3.3
		c-3.2-2.3-5.1-7-4.2-10.8c-0.9,0.7-1.8,1.4-2.8,2.1c7-0.3,14.1,1.6,21.1-0.3C67.5,57.8,67.6,54.4,65.4,53.9"/>
	<path class="st0" d="M0.4,81.6c4.1,5.7,11,7.6,17.2,10.3c7.3,3.1,14.4,6.4,22.4,6.5c5.5,0.1,12-0.8,16.2-4.7
		c7-6.4-0.1-12.1,3.8-19.3c1.8-3.3-3.3-6.3-5.1-3c-1.9,3.5-1.6,5.8-2,9.5c-0.4,3.7,1,7.3-3.5,10.1c-2.7,1.7-6.4,1.7-9.5,1.6
		C33,92.4,27,89.6,20.5,86.9c-5.4-2.3-11.9-4-16-8.5C2.6,76.3-1.3,79.2,0.4,81.6"/>
</g>
</svg>
