<?xml version="1.0" encoding="utf-8"?>
<!-- Generator: Adobe Illustrator 23.0.4, SVG Export Plug-In . SVG Version: 6.00 Build 0)  -->
<svg version="1.1" id="Calque_1" xmlns="http://www.w3.org/2000/svg" xmlns:xlink="http://www.w3.org/1999/xlink" x="0px" y="0px"
	 viewBox="0 0 104.1 122.4" style="enable-background:new 0 0 104.1 122.4;" xml:space="preserve">
<style type="text/css">
	.st0{clip-path:url(#SVGID_2_);fill:#A7D900;}
</style>
<g>
	<defs>
		<rect id="SVGID_1_" width="104.1" height="122.4"/>
	</defs>
	<clipPath id="SVGID_2_">
		<use xlink:href="#SVGID_1_"  style="overflow:visible;"/>
	</clipPath>
	<path class="st0" d="M4.2,42.1C18.2,41.6,32,39,46,38.9c17.8-0.2,34.9,0.8,52.6,1.7c2,0.1,3.4-3.4,1.7-5c-0.1-0.1-0.2-0.2-0.3-0.3
		c-2.4-2.3-5.7,1.4-3.4,4.1c0.1,0.1,0.2,0.2,0.2,0.3c0.6-1.7,1.2-3.4,1.7-5C66.8,32.6,36,32.8,4.2,37C1.6,37.4,1.4,42.3,4.2,42.1"/>
	<path class="st0" d="M20,5.5c0.6,5.4-0.4,10.5-0.6,15.9c-0.1,3.7,4.8,3.7,4.7,0c-0.1-5.4,2-12.8-0.8-17.6C22.1,1.6,19.7,3,20,5.5"
		/>
	<path class="st0" d="M40.7,2.5c-0.3,3.8-0.6,7.6-0.7,11.4c-0.1,2.8-0.5,7.4,1.4,9.4c1.8,1.9,4.3,0.1,3.8-2.7c-1-6.1,0-12-0.4-18.1
		C44.7-0.8,40.9-0.8,40.7,2.5"/>
	<path class="st0" d="M61.4,2.6c-0.8,2.6-0.4,5.5-0.3,8.2c0.1,3.5-0.4,7-0.7,10.5c-0.3,3.7,4.6,3.7,4.8,0c0-0.4,0.1-0.8,0.1-1.2
		c0.2-3.3-3.7-3.6-4.5-0.7c-0.1,0.4-0.2,0.8-0.3,1.2c1.6,0.3,3.2,0.5,4.8,0.8c0.6-6.1,0-12,0.3-18C65.8,0.2,62.2,0.1,61.4,2.6"/>
	<path class="st0" d="M84,4.3c-2.6,0.5-2.4,5.4-2.3,7.7c0.1,3.1,0.4,5.8-0.6,8.6c-0.9,2.5,1.8,4,3.4,3.1c2.5-1.4,2.2-6.1,2-8.8
		c-0.1-1.7-0.3-3.5-0.3-5.2c0-1.3,0.4-2.6,0.2-3.9C86.2,4.6,84.9,4.1,84,4.3"/>
	<path class="st0" d="M4.1,18c32.3-6.7,64.7-3.7,97.1,0.1c3,0.4,3-5.4,0-5.7C69.1,8.8,34.7,3.6,3,13C0.2,13.8,1.4,18.5,4.1,18"/>
	<path class="st0" d="M1.5,14.8c-2.6,12.2-1,28.9-0.4,41.5c1.1,20.9,2.6,42.4,3,63.3c0.1,3.8,5,3.8,4.9,0C8.6,101,7.4,82.1,6.6,63.5
		c-0.7-15-2.9-32.5-1-47.3C6,12.9,2.2,11.5,1.5,14.8"/>
	<path class="st0" d="M99.2,15.2c1.3,14.3-2.1,31.4-2.7,45.8c-0.7,19,0.6,37.2,1.3,56.1c0.1,3.7,5,3.7,4.8,0
		c-0.8-20.1-2-39.4-1.3-59.6c0.5-13.4,4.6-29.8,1.8-42.9C102.5,12,98.9,12.4,99.2,15.2"/>
	<path class="st0" d="M6.5,122.2c15.3,0.2,30.8-1.7,46.2-1.8c15.6-0.1,32.1,1.6,47.5-0.5c3-0.4,3-6.1,0-5.7
		c-15.4,2.1-31.9,0.4-47.5,0.5c-15.5,0.1-30.7,1.3-46.2,2.2C3.7,117.1,3.7,122.2,6.5,122.2"/>
	<path class="st0" d="M21.4,62.6c1.1-0.1,2.1,0.1,3.2-0.2c2.2-0.5,2.1-4.7,0-5.2c-1.4-0.4-3-0.2-4.2,0.7
		C18.7,59.1,19.3,62.9,21.4,62.6"/>
	<path class="st0" d="M35.4,62.3c1.7,0.5,4.4,0.7,5.4-1.4c0.8-1.6,0-3.2-1.3-3.8c-0.8-0.4-1.4,0-2.2,0.1c-0.7,0.1-1.3,0-2,0.2
		C33.4,58,33.5,61.7,35.4,62.3"/>
	<path class="st0" d="M50,62.2c1-0.3,2.3,0.3,3.3,0.4c2.6,0.3,3-4.6,0.6-5.4c-1.7-0.6-3.3-0.2-5,0.3C46.4,58.3,47.4,62.9,50,62.2"/>
	<path class="st0" d="M64.3,62.7c0.9,0.2,1.8,0.3,2.7,0.4c2.9,0.1,2.9-5.5,0-5.4c-0.9,0-1.8,0.2-2.7,0.4
		C62.4,58.4,62.4,62.3,64.3,62.7"/>
	<path class="st0" d="M77.5,61.2c1.1,0.7,2.5,1.2,3.8,1.2c2.2,0,2.7-3.3,1.1-4.7c-1-0.8-2.6-1.1-3.8-1C76.6,56.7,75.7,60,77.5,61.2"
		/>
	<path class="st0" d="M20.6,81.1c1.5,0.1,3.1,0.2,4.6-0.1c2-0.5,2.1-4.6,0-5.1c-1.7-0.3-3.5,0.1-5.2,0.5
		C17.7,76.9,18.4,81,20.6,81.1"/>
	<path class="st0" d="M41.4,70.7c-2.2-0.9-4.9,0.2-7.1,0.9c-1.1,0.3-1.7,1.5-1.7,2.7c-0.2,3-1,7.4,0.4,10.1c1.2,2.4,3.6,2,5.6,2
		c2.5,0.1,4.6-0.5,5.5-3.7c0.8-2.8,0.2-6.4-0.2-9.2c-0.2-1.3-1.5-2.1-2.5-2c-1.2,0.2-1.9,1.3-2,2.7c-0.2,1.8,0.3,3.6,0.3,5.4
		c0,0.2-0.1,0.9-0.1,1.1c0.1,0.4-0.2,0.1,0.3,0c-0.5,0.1-1.1,0-1.6-0.1c-0.6,0-1.3-0.1-1.9,0c-1.1,0.2,0.8,0.3,0.5,0.7
		c0.3-0.4,0-2.9,0-3.5c0-1.2,0.1-2.5,0.2-3.7c-0.6,0.9-1.2,1.8-1.7,2.7c1.9-0.7,4-0.9,5.9-1.8C43.2,74.5,43.3,71.5,41.4,70.7"/>
	<path class="st0" d="M49.4,80.2c1.3,0.2,2.4,0.4,3.7,0.2c2.1-0.3,2.1-4.7,0-5c-1.3-0.2-2.4,0-3.7,0.2C47.5,76,47.5,79.8,49.4,80.2"
		/>
	<path class="st0" d="M64.1,79.7c0.9,0.2,1.8,0.4,2.7,0.3c2.8-0.4,2.8-4.8,0-5.3c-0.9-0.1-1.8,0.1-2.7,0.3
		C62.2,75.4,62.2,79.4,64.1,79.7"/>
	<path class="st0" d="M79.3,80.1c1-0.3,2.1,0.1,3.1,0c2.8-0.3,2.8-4.8,0-5.2c-1.4-0.2-2.9-0.1-4.2,0.5
		C75.7,76.3,76.7,80.8,79.3,80.1"/>
	<path class="st0" d="M20.7,99c1.9,0.5,3.9,1.1,5.8,0.5c2.6-0.7,1.7-4.8-0.6-5.1c-1.7-0.2-3.5-0.2-5.2,0.1
		C18.8,94.9,18.9,98.5,20.7,99"/>
	<path class="st0" d="M36.7,99c0.9,0.2,1.8,0.3,2.7,0.3c3,0.1,3-5.6,0-5.6c-0.9,0-1.8,0.1-2.7,0.3C34.6,94.4,34.6,98.7,36.7,99"/>
	<path class="st0" d="M49.8,99.4c1.1,0.2,2.2,0.5,3.4,0.8c1.1,0.2,2.2-0.2,2.7-1.6c0.4-1.2,0.1-2.8-0.9-3.4
		c-1.6-0.9-3.4-0.9-5.1-0.6C47.8,95,47.8,99.1,49.8,99.4"/>
</g>
</svg>
