<?xml version="1.0" encoding="utf-8"?>
<!-- Generator: Adobe Illustrator 23.0.4, SVG Export Plug-In . SVG Version: 6.00 Build 0)  -->
<svg version="1.1" id="Calque_1" xmlns="http://www.w3.org/2000/svg" xmlns:xlink="http://www.w3.org/1999/xlink" x="0px" y="0px"
	 viewBox="0 0 91.5 122.4" style="enable-background:new 0 0 91.5 122.4;" xml:space="preserve">
<style type="text/css">
	.st0{clip-path:url(#SVGID_2_);fill:#A7D900;}
</style>
<g>
	<defs>
		<rect id="SVGID_1_" width="91.5" height="122.4"/>
	</defs>
	<clipPath id="SVGID_2_">
		<use xlink:href="#SVGID_1_"  style="overflow:visible;"/>
	</clipPath>
	<path class="st0" d="M76.5,104.4c4.2,0,8.5,0,12.7,0c1.2,0,2.3-1.2,2.3-2.6c-0.6-21.1-1.2-42.3-1.8-63.4c0-1.4-1-2.6-2.3-2.6
		c-28.2,0.4-56.6,2.9-84.8,1.7c-1.2-0.1-2.3,1.2-2.3,2.6C0.2,60.7,0.1,81.3,0,101.9c0,1.4,1.1,2.6,2.3,2.6
		c5.3-0.1,10.5-0.3,15.8-0.4c2.9-0.1,3-5.3,0-5.2c-3.3,0.1-7.6-0.6-10.8,0.3c-0.8,0.2-3.5,0.5-4.3,0.1c0.1,0.1,2.4,3.9,1.6,0.8
		c-2-7.5,0.1-19.4,0.1-27.2c0-6.6-2.9-24.6,0.2-30.3c0.9-1.7,1.6-0.8,6.1-0.2c7.2,1,15.8,0,23.2,0.2c9.9,0.3,19.8-0.2,29.7-0.7
		c3.3-0.2,20.8-2.9,21.3-2.4c2.4,2.5,0.6,21.6,0.7,25.2c0.3,10.1-0.5,21.1,0.9,31c0.7,5-1.5,5.6,1.5,3.5c-2.4,1.6-8.9,0-11.8,0.1
		C73.6,99.3,73.6,104.4,76.5,104.4"/>
	<path class="st0" d="M2.3,80.4c27.9,2.4,56.4-2.8,84.3,2.1c3.1,0.5,4.4-4.8,1.3-5.3c-28.2-5-57.3-0.2-85.6-1.7
		C-0.5,75.3-0.4,80.2,2.3,80.4"/>
	<path class="st0" d="M24.1,80.3c-0.2,13.3-0.3,26.9,1.4,40.1c0.1,1.2,1.4,2,2.3,2c13,0,26-0.1,38.9-0.2c1.3,0,2.4-1.3,2.4-2.8
		c0.1-13.2,0.1-26.5,0.2-39.7c0-3.5-4.8-3.5-4.9,0c-0.1,13.2-0.2,26.5-0.2,39.7c0.8-0.9,1.6-1.8,2.4-2.8c-13,0.1-26,0.1-38.9,0.3
		c0.8,0.7,1.6,1.3,2.3,2c-1.7-12.7-1.6-25.8-2.2-38.6C28,77.4,24.2,77.4,24.1,80.3"/>
	<path class="st0" d="M17.2,91.5c-0.8,2.5-0.3,5.5-0.1,8c0.1,2.5,0.4,5,1.2,7.4c1.1,3.2,5.2,7.4,8.5,5.9c2.4-1.1,2.2-5.1-0.6-5.3
		c-2.8-0.1-3.8-3.6-4.2-6.1c-0.4-2.8-0.9-6.5-0.7-9.3C21.5,89.4,18,89.2,17.2,91.5"/>
	<path class="st0" d="M73.3,92.2c0.3,3.1-0.3,7.6-0.9,10.5c-0.7,3.4-2.2,4.3-5.2,4.3c-2.3,0-3.3,3.7-1.2,5c3.2,2,8.1-0.6,9.8-4
		c1.1-2.3,1.4-5.2,1.6-7.8c0.2-2.7,0.8-6.1-0.1-8.7C76.6,89.3,73,89.4,73.3,92.2"/>
	<path class="st0" d="M23.8,39.6c0.4-8.3,0.3-16.6,0.5-24.9C24.4,10.8,25,5.8,23.9,2c-0.8,1.2-1.6,2.3-2.4,3.5c16.3,0,32.6,0,48.9,0
		c-0.8-0.9-1.6-1.8-2.4-2.8c0,11.5-0.7,23.4,0.1,34.8c0.3,3.4,4.5,3.4,4.7,0C73.7,26.1,73,14.3,73,2.8C73,1.3,71.8,0,70.5,0
		C54.2,0,37.9,0,21.6,0c-1.5,0-2.8,1.8-2.4,3.5c1.2,4.3,0.2,10.7,0.1,15.1c-0.2,7,0.1,14,0.2,21C19.6,42.7,23.7,42.7,23.8,39.6"/>
	<path class="st0" d="M72.5,54.5c2.5,0.4,5,0.3,7.5,0.4c3.3,0,3.3-5.8,0-5.7c-2.5,0-5-0.1-7.5,0.4C70.3,49.9,70.3,54.1,72.5,54.5"/>
	<path class="st0" d="M34.2,98.3c8-0.3,16.4-0.6,24.3,0.9c3,0.6,4.4-4.3,1.3-5.3c-4.1-1.3-9.2-0.9-13.5-1.3
		c-3.9-0.4-8.9-0.4-12.6,1.2C31.6,94.7,31.7,98.4,34.2,98.3"/>
	<path class="st0" d="M33.8,106.7c8.2,1.1,16.5-0.2,24.7,0c3.3,0.1,3.3-5.8,0-5.9c-8-0.1-16.8-0.1-24.7,1
		C31,102.2,31,106.3,33.8,106.7"/>
</g>
</svg>
