<?xml version="1.0" encoding="utf-8"?>
<!-- Generator: Adobe Illustrator 23.0.4, SVG Export Plug-In . SVG Version: 6.00 Build 0)  -->
<svg version="1.1" id="Calque_1" xmlns="http://www.w3.org/2000/svg" xmlns:xlink="http://www.w3.org/1999/xlink" x="0px" y="0px"
	 viewBox="0 0 155.7 122.4" style="enable-background:new 0 0 155.7 122.4;" xml:space="preserve">
<style type="text/css">
	.st0{clip-path:url(#SVGID_2_);fill:#A7D900;}
</style>
<g>
	<defs>
		<rect id="SVGID_1_" width="155.7" height="122.3"/>
	</defs>
	<clipPath id="SVGID_2_">
		<use xlink:href="#SVGID_1_"  style="overflow:visible;"/>
	</clipPath>
	<path class="st0" d="M3.4,4.9c25.8-1.2,52.2,0.3,78.1-0.3c13.1-0.3,25.8,1.7,38.8,2.2c9.7,0.4,22.1-3.2,31.4-0.5
		c2.8,0.8,4.1-3.6,1.2-4.4c-8.3-2.4-18.6,0.5-27.1,0.5C113.1,2.3,100.5,0.1,87.7,0c-14.3-0.1-28.7,1.3-43,1.3
		C31,1.2,17.1-0.4,3.4,0.7C0.7,0.9,0.7,5.1,3.4,4.9"/>
	<path class="st0" d="M2.9,92.4C53,93.3,103,94,153.1,94c3.1,0,3.1-4.8,0-4.8h-0.7c-3.1,0-3.1,4.8,0,4.8h0.7v-4.8
		c-50,0-100.3-2.9-150.2-1C0.2,88.3,0.2,92.3,2.9,92.4"/>
	<path class="st0" d="M16.6,88.4c1.7-28.3,0.8-57,2.9-85.1c0.2-2.7-4.4-3.4-4.8-0.7c0-0.1,0-0.2,0.1-0.3c-1.5,2.3,2,5.1,3.8,3
		c0.4-0.4,0.7-0.8,0.9-1.4c-1.6-0.2-3.2-0.4-4.8-0.6c-1.2,13.3-0.2,26.9-0.4,40.3c-0.3,15-1.8,29.9-1.8,44.9
		C12.3,91.2,16.4,91.2,16.6,88.4"/>
	<path class="st0" d="M142.6,89.7c-0.9-5.8,1.1-14.5,1-20.7c-0.1-7.1-0.8-14.1-0.5-21.2c0.5-14,1.3-27.8,0.8-41.9
		c-0.1-2-2.8-3.6-4.3-1.8c-0.1,0.1-0.2,0.2-0.3,0.3c-2.1,2.5,1.4,6,3.6,3.6c0.1-0.1,0.2-0.2,0.3-0.3c-1.4-0.6-2.9-1.2-4.3-1.8
		c0.3,15.9-0.9,31.6-1,47.5c0,6.7,0.9,13.4,0.8,20.1c-0.1,6.1-1.6,11.4-0.1,17.4C139.2,93.6,143,92.4,142.6,89.7"/>
	<path class="st0" d="M31.8,53.4c11.8-5.1,21-12.5,26.9-24.3c3.1-6.2,8-17.2,6.9-24.4c-0.5-3.3-5.3-1.8-4.9,1.4
		c0.9,6.6-5.4,19.3-8.4,24.3c-2.7,4.4-6.2,8.7-10.3,12c-3.9,3.2-8.7,4.7-12.6,7.8C27.3,51.8,29.9,54.3,31.8,53.4"/>
	<path class="st0" d="M29.3,52.9c8,11.6,11.2,22.9,11.4,37.1c0.1,3.4,5.4,3.4,5.3,0c-0.2-12.6-2.4-32-14-39.8
		C30.4,49.1,28.2,51.3,29.3,52.9"/>
	<path class="st0" d="M7.4,55.1c2.9,2.7,7.8,1.9,11.4,1.8c5.8-0.3,11.7,0,17.5-0.6c3.2-0.3,3.3-4.7,0-5c-5.1-0.5-10.4-0.1-15.5,0.2
		c-4,0.2-7.9-0.1-11.8-0.1C7,51.2,5.9,53.7,7.4,55.1"/>
	<path class="st0" d="M127.6,50.2c-3.3-2.7-7.3-4-10.8-6.5c-4.9-3.5-9-8.2-12.1-13.3c-3.1-4.9-9.3-17.8-8.4-24.3
		c0.4-3.2-4.4-4.6-4.9-1.4c-1.2,7.2,3.7,18.2,6.9,24.4c5.9,11.7,15,19.1,26.9,24.3C127,54.3,129.6,51.8,127.6,50.2"/>
	<path class="st0" d="M124.9,50.2c-11.6,7.9-13.8,27.2-14,39.8c0,3.4,5.3,3.4,5.3,0c0.2-14.2,3.4-25.5,11.4-37.1
		C128.7,51.3,126.5,49.1,124.9,50.2"/>
	<path class="st0" d="M147.9,51.3c-4,0-7.8,0.3-11.8,0.1c-5.1-0.2-10.4-0.6-15.5-0.2c-3.3,0.3-3.2,4.7,0,5
		c5.8,0.6,11.7,0.3,17.5,0.6c3.6,0.2,8.5,1,11.4-1.8C150.9,53.8,149.9,51.2,147.9,51.3"/>
	<path class="st0" d="M1.7,121c9.2,2.4,19.7,0.7,29.2,0.7c12.2,0.1,24.4,0.6,36.7,0.3c28.4-0.6,57.2-0.7,85.6-0.4c3.3,0,3.1-4.6,0-5
		c-0.5-0.1-0.9-0.1-1.4-0.2c-2.7-0.4-3.3,4.1-0.6,4.8c0.5,0.1,0.9,0.2,1.4,0.3c0.2-1.6,0.4-3.3,0.7-4.9c-26.9-0.4-53.8,0.4-80.7,0.2
		c-11.4-0.1-22.7,0.2-34.1-0.1c-11.3-0.2-24.4,1.8-35.5-0.5C0,115.7-1.3,120.2,1.7,121"/>
	<path class="st0" d="M14.8,119.2c-0.4-6.7,10.2-14.1,15.8-13.7c3.3,0.2,6,1.7,8.3,4.2c0.6,0.7,4.4,5.1,4,6.3
		c-0.9,2.7,3.1,4.3,4.5,1.9c1.9-3.2-1.6-7.3-3.5-9.8c-3.2-4.2-7.1-7-12.6-7.5c-6.3-0.5-11.1,2.4-15.1,7c-2.8,3.2-6.9,7.6-5.6,12.1
		C11.2,122.1,14.9,121.7,14.8,119.2"/>
	<path class="st0" d="M47.6,115.5c0-15.7,30.2-13.9,28,2.4c-0.4,2.8,4.1,3.2,4.8,0.6c3-10.2-10.3-20-19.5-19.4
		c-6.1,0.4-22.8,8.8-17.3,17.4C44.7,118.3,47.6,117.7,47.6,115.5"/>
	<path class="st0" d="M80.6,116.6c0.5-3.1,1.7-7.3,4.5-9.1c2.3-1.4,6.6-1.8,9.3-1.6c6.4,0.5,12.5,5.5,12.1,12.2
		c-0.2,3.3,4.8,3.2,5.1,0c1.7-21.1-37.5-23.5-35.2-2.1C76.6,118.2,80.2,119.2,80.6,116.6"/>
	<path class="st0" d="M110.7,116.1c1.2-7.2,9.5-12.3,16.3-9.7c5.5,2.1,8.5,6.9,11.2,11.8c1.3,2.4,5.1,0.8,4.4-1.8
		c-2.3-8.1-10.7-15.5-19.3-15.8c-8-0.3-16.4,6.9-17.1,14.9C105.9,118.1,110.3,118.7,110.7,116.1"/>
</g>
</svg>
