<?xml version="1.0" encoding="utf-8"?>
<!-- Generator: Adobe Illustrator 23.0.4, SVG Export Plug-In . SVG Version: 6.00 Build 0)  -->
<svg version="1.1" id="Calque_1" xmlns="http://www.w3.org/2000/svg" xmlns:xlink="http://www.w3.org/1999/xlink" x="0px" y="0px"
	 viewBox="0 0 164.7 122.4" style="enable-background:new 0 0 164.7 122.4;" xml:space="preserve">
<style type="text/css">
	.st0{clip-path:url(#SVGID_2_);fill:#A7D900;}
</style>
<g>
	<defs>
		<rect id="SVGID_1_" width="164.8" height="122.4"/>
	</defs>
	<clipPath id="SVGID_2_">
		<use xlink:href="#SVGID_1_"  style="overflow:visible;"/>
	</clipPath>
	<path class="st0" d="M160.9,45.6c-2.6-17.1-26.9-25.3-41.5-19c-19.2,8.2-23.4,28.1-15.4,45.9c7.4,16.3,20.7,25.2,38.1,18.4
		c18.2-7,27.6-26.9,20-45.5c-1.5-3.7-7.9-1.5-6.7,2.3c4.5,13.5,0.6,28.7-12.7,35.2c-12.9,6.3-23.3,2.7-30.5-9.7
		c-6.6-11.3-8.4-25.1,1.9-34.9c11.6-11.1,35.4-8.3,40.9,8.5C156.3,50.3,161.5,49.4,160.9,45.6"/>
	<path class="st0" d="M22.9,105.1c27.3-12.1,59.5-26.5,82.2-46.2c3.4-3-1.3-8.2-4.8-5.2c-23,19.6-54.1,31.1-80,46.4
		C17.2,101.9,19.5,106.5,22.9,105.1"/>
	<path class="st0" d="M31.7,121.8c12.7-4.2,25.4-6.8,38-11.5c16.8-6.2,33.1-13.9,50.1-19.6c4.3-1.4,2.9-8.5-1.4-7
		c-14.7,4.9-28.7,11.4-43.1,17.1c-14.9,5.8-30.8,9.1-45.4,15.5C26.8,117.6,28.5,122.9,31.7,121.8"/>
	<path class="st0" d="M21.1,99.9c-9.3,7.2,5,29.3,14.2,20.4c2.2-2.1,0.4-6.7-2.9-5.7c-2.8,0.8-4.1-0.5-5.6-3
		c-1.3-2.2-2.3-5.2-0.8-7.6C28.1,100.9,24,97.7,21.1,99.9"/>
	<path class="st0" d="M86.9,63.6c-5.1,4.2-3.1,12.5-0.7,17.6c3,6.3,8.1,12.3,14.5,15c3.7,1.6,6.7-4.7,3-6.4
		C95.6,86,88.6,75.6,91.6,66.7C92.5,63.8,89.1,61.9,86.9,63.6"/>
	<path class="st0" d="M120.1,31.8c-3.2,19.6,8,45.6,25.5,55.1c4,2.2,8-3.8,3.9-6.1c-16.1-8.7-23.9-31-22.9-48.7
		C126.9,27.9,120.8,27.8,120.1,31.8"/>
	<path class="st0" d="M36,6.1c19.4,15.5,17.9,41.1-0.3,56.4C25.8,70.8,14,77.4,6.2,88c-12.9,17.7-5.1,35.5,17.4,29.4
		c4.6-1.2,3.1-8.5-1.5-7.2c-5.3,1.4-13.4-4.6-14.5-10.2c-0.7-3.7,7.2-11.2,9.8-13.8c4.3-4.3,9.3-7.8,14.1-11.5
		c8.7-6.7,18.3-13.3,22.8-23.7c7.7-17.9,0.5-39.1-14.9-50.2C36.1-1.8,32.8,3.5,36,6.1"/>
</g>
</svg>
