<?xml version="1.0" encoding="utf-8"?>
<!-- Generator: Adobe Illustrator 23.0.4, SVG Export Plug-In . SVG Version: 6.00 Build 0)  -->
<svg version="1.1" id="Calque_1" xmlns="http://www.w3.org/2000/svg" xmlns:xlink="http://www.w3.org/1999/xlink" x="0px" y="0px"
	 viewBox="0 0 103.8 122.4" style="enable-background:new 0 0 103.8 122.4;" xml:space="preserve">
<style type="text/css">
	.st0{clip-path:url(#SVGID_2_);fill:#A7D900;}
</style>
<g>
	<defs>
		<rect id="SVGID_1_" width="103.8" height="122.3"/>
	</defs>
	<clipPath id="SVGID_2_">
		<use xlink:href="#SVGID_1_"  style="overflow:visible;"/>
	</clipPath>
	<path class="st0" d="M49.5,4.9c23,5.7,18.7,26.9,25,44.6c2.7,7.7,7.7,18.1,16.5,20c3.2,0.7,4.6-4.1,1.4-5
		C75.1,59.9,77.5,31,72.6,17.9c-4-10.6-11.1-15.3-21.9-17C48,0.4,46.8,4.2,49.5,4.9"/>
	<path class="st0" d="M49.8,4.4c6.8,1.3,13.3,0.7,18.8,6c5.6,5.4,8.1,12.3,11.8,18.9c4,7.1,12.2,13.8,20.9,12.7
		c3.2-0.4,3.4-5.4,0-5.2C86.1,37.9,81.7,17.4,73.2,8.2C66.4,0.8,59.7,1,50.4,0C47.9-0.3,47.3,3.9,49.8,4.4"/>
	<path class="st0" d="M6.4,59.7c2.2,0.9,4.9-1.1,6.5-2.4c1.9-1.6,3.4-4.4,3.5-7c0.1-2.5-3.7-3.6-4.8-1.3c-0.7,1.4-0.9,3.2-2,4.4
		c-0.8,0.9-1.9,1.6-3.1,2C4.2,56.1,4.3,58.9,6.4,59.7"/>
	<path class="st0" d="M11.4,50.9c1.2,4.3,4.6,7,8.8,8.2c3.1,0.9,4.4-3.2,2-4.9c-1.2-0.8-2.7-1-3.8-1.8c-1.2-0.8-1.8-2.3-2.6-3.4
		C14.3,47,10.7,48.1,11.4,50.9"/>
	<path class="st0" d="M21.7,54.5c-2.2-0.9-4.9,1.1-6.5,2.4c-1.9,1.6-3.4,4.4-3.5,7c-0.1,2.5,3.7,3.6,4.8,1.3c0.7-1.4,0.9-3.2,2-4.4
		c0.8-0.9,1.9-1.6,3.1-2C23.9,58,23.7,55.2,21.7,54.5"/>
	<path class="st0" d="M16.7,63.2c-1.2-4.3-4.6-7-8.8-8.2c-3.1-0.9-4.4,3.2-2,4.9c1.2,0.8,2.7,1,3.8,1.8c1.2,0.8,1.8,2.3,2.6,3.4
		C13.8,67.2,17.4,66.1,16.7,63.2"/>
	<path class="st0" d="M1.6,30.4c4.1,0.8,8.3-2.3,11.2-4.9c3.3-2.9,5.8-7.7,6.4-12.1c0.5-3.3-3.8-4.5-5-1.4c-1.2,3.1-1.9,6.6-4.3,9.1
		C8,23.2,5,25.7,2.2,26C0,26.3-1.1,29.9,1.6,30.4"/>
	<path class="st0" d="M14.4,13.4c1.4,3.8,3.5,7.6,6.6,10.2c2.9,2.5,6.8,3.8,10.4,5.2c2.9,1.1,4.6-3.4,2-4.9c-2.6-1.6-5.8-2.2-8.4-4
		c-2.9-2.1-4.4-5.4-6.2-8.4C17.4,9.3,13.4,10.7,14.4,13.4"/>
	<path class="st0" d="M33.1,24.1c-4.1-0.8-8.3,2.3-11.2,4.9c-3.3,2.9-5.8,7.7-6.4,12.1c-0.5,3.3,3.8,4.5,5,1.4
		c1.2-3.1,1.9-6.6,4.3-9.1c1.9-2,4.9-4.5,7.7-4.9C34.7,28.2,35.8,24.6,33.1,24.1"/>
	<path class="st0" d="M20.3,41.1c-1.4-3.8-3.5-7.6-6.6-10.2c-2.9-2.5-6.8-3.8-10.4-5.2c-2.9-1.1-4.6,3.4-2,4.9
		c2.6,1.6,5.8,2.2,8.4,4c2.9,2.1,4.5,5.4,6.2,8.4C17.2,45.2,21.3,43.8,20.3,41.1"/>
	<path class="st0" d="M42.2,95.7c3.7,0.8,7.6-2.1,10.2-4.4c3-2.7,5-7,5.4-11c0.4-3.1-4.1-3.1-5.1-0.7c-1.1,2.7-1.7,5.7-3.8,7.9
		c-1.8,1.8-4.2,3.6-6.8,4C40,91.8,40.1,95.3,42.2,95.7"/>
	<path class="st0" d="M52.9,80.9c1.2,3.3,3,6.7,5.7,9c2.6,2.2,6,3.4,9.1,4.5c2.9,1.1,4.5-3.3,2-4.9c-2.3-1.4-5-1.9-7.2-3.4
		c-2.5-1.7-3.7-4.6-5.3-7.1C55.9,76.8,51.9,78.2,52.9,80.9"/>
	<path class="st0" d="M69.3,89.7c-3.7-0.8-7.6,2.1-10.2,4.4c-2.9,2.7-5,7-5.4,11c-0.4,3.1,4.1,3.1,5.1,0.7c1.1-2.7,1.7-5.7,3.8-7.9
		c1.8-1.8,4.2-3.6,6.8-4C71.5,93.6,71.4,90.2,69.3,89.7"/>
	<path class="st0" d="M58.6,104.5c-1.2-3.3-3-6.7-5.7-9c-2.6-2.2-6-3.4-9.1-4.5c-2.9-1.1-4.5,3.3-2,4.9c2.3,1.4,5,1.9,7.2,3.4
		c2.5,1.7,3.7,4.6,5.3,7.1C55.6,108.6,59.6,107.2,58.6,104.5"/>
	<path class="st0" d="M47.7,3.1C33.8,38.2,23.5,74.5,12,110.4c-1.1,3.3,4.2,4.8,5.2,1.4c6-18.9,10.9-38.2,17.3-57.1
		c5.7-16.8,13.3-33.3,17.4-50.6C52.5,1.4,48.7,0.5,47.7,3.1"/>
	<path class="st0" d="M48,4.2c4,17.3,11.6,33.8,17.4,50.6c6.4,18.8,11.3,38.1,17.3,57c1.1,3.3,6.3,1.9,5.2-1.4
		C76.3,74.5,66,38.2,52.2,3.1C51.1,0.5,47.3,1.4,48,4.2"/>
	<path class="st0" d="M11.9,111.8c2.6,11.1,19.4,10.1,27.9,10.3c13.9,0.3,34.3,1.6,46.1-7.2c2.7-2,0.1-6.6-2.7-4.6
		c-9,6.4-21.8,5.8-32.4,6.3c-8,0.4-31.1,2.4-34.3-6.1C15.5,107.7,11.2,108.7,11.9,111.8"/>
</g>
</svg>
