<?xml version="1.0" encoding="utf-8"?>
<!-- Generator: Adobe Illustrator 23.0.4, SVG Export Plug-In . SVG Version: 6.00 Build 0)  -->
<svg version="1.1" id="Calque_1" xmlns="http://www.w3.org/2000/svg" xmlns:xlink="http://www.w3.org/1999/xlink" x="0px" y="0px"
	 viewBox="0 0 248.7 122.4" style="enable-background:new 0 0 248.7 122.4;" xml:space="preserve">
<g>
	<defs>
		<rect id="SVGID_1_" x="1.2" y="1.4" width="246.3" height="120.1"/>
	</defs>
	<clipPath id="SVGID_2_">
		<use xlink:href="#SVGID_1_"  style="overflow:visible;"/>
	</clipPath>
	<path style="clip-path:url(#SVGID_2_);fill:#A7D900;" d="M7.5,14.4c2.4-0.6,4.6-1.7,6.9-2.7c2.1-0.9,4.9-1.5,6-3.7
		C21.3,6,21,3.2,18.9,2.1C14.3,0,9.5,4.8,5.3,6.2C0.1,7.8,2.2,15.8,7.5,14.4"/>
	<path style="clip-path:url(#SVGID_2_);fill:#A7D900;" d="M12.5,5.8c-1.1,10,14,15.3,21.2,18C50.4,29.9,66.2,22,78,10.2
		c4.4-4.4-2.4-11.3-6.9-6.9C61.8,12.7,50.5,19.1,37,14.7c-2.7-0.9-15.9-5.4-16-8.9C20.8,0.3,13.1,0.5,12.5,5.8"/>
	<path style="clip-path:url(#SVGID_2_);fill:#A7D900;" d="M74.6,10.2c11,0.1,21.9,11.2,30.8,17.1c13.1,8.8,25.7,15.9,40.9,20.5
		c19.6,5.9,40,9.8,59.9,14.5c30.6,7.3,30.9,20.3,31.1,51.1c3.3-0.4,6.5-0.9,9.8-1.3c-0.1-0.3-0.2-0.6-0.3-0.9
		c-2.3-5.9-11.9-3.4-9.6,2.7c0.1,0.3,0.2,0.6,0.3,0.9c1.9,5,9.9,4.6,9.8-1.3c-0.1-12.7,2.2-37.3-6.5-48.5
		c-10.6-13.8-41.8-14.2-56.9-17.8c-28-6.8-52.6-13.3-76.6-30.1C95.1,8.6,89.3,0.9,74.6,1.4C68.9,1.6,68.9,10.2,74.6,10.2"/>
	<path style="clip-path:url(#SVGID_2_);fill:#A7D900;" d="M9.9,114c2.2-5.3,1.4-11,1.3-16.7c-0.3-11.6,0.2-23.1,1-34.7
		c1.3-18.6,1.6-35.3-2-53.4c-1-5.1-8.5-3.6-8.7,1.2c-0.7,16,2.2,32.3,1.2,48.8c-0.6,9.3-1.5,18.6-1.5,28c0.1,7.8,2.5,17,0.8,24.7
		C0.7,117.2,7.9,118.8,9.9,114"/>
	<path style="clip-path:url(#SVGID_2_);fill:#A7D900;" d="M7.2,118c45.1-0.6,90.2-0.3,135.4,0.2c21.5,0.3,42.5,0.8,64,1.8
		c10.2,0.5,25,2.8,34.8-0.1c5.7-1.7,3.2-10.6-2.4-8.9c-10.9,3.3-28.6-0.1-39.7-0.8c-22.8-1.4-45.3-0.8-68.1-1.5
		c-40.9-1.2-83.4-3.1-124,1C2.1,110.3,1.8,118.1,7.2,118"/>
	<path style="clip-path:url(#SVGID_2_);fill:#A7D900;" d="M6.2,104c75.5,0.1,155.8-13,230.5,2.1c5.6,1.1,8-7.4,2.4-8.6
		c-36.6-7.5-76.9-5.9-114.2-6.4c-39.5-0.5-79.3,2.8-118.7,4.5C0.9,95.8,0.8,104,6.2,104"/>
	<path style="clip-path:url(#SVGID_2_);fill:#A7D900;" d="M187.7,50.5c-7.6,0.5-16.3,7.7-21.2,13.1c-6.3,7-11.1,18.1-13.8,27
		c-1.5,5,5.8,8,8.4,3.5c3.8-6.6,6.1-14.1,10.1-20.7c3.4-5.4,11.3-13,17.6-14.7C193.3,57.6,192.5,50.2,187.7,50.5"/>
	<path style="clip-path:url(#SVGID_2_);fill:#A7D900;" d="M10,42.5c-0.1,0-0.1,0-0.2,0c-6-0.9-7.3,7.7-1.1,8.3
		c6.5,0.7,13.9,0.3,20.1,2.4c7.9,2.7,15.1,9.2,19.2,16.4c3.5,6.2,3,11.2,2.7,17.8c-0.2,3.5-0.8,8.5,2.4,11c3.6,2.8,8.4,0.3,7.6-4.4
		c-1-5.6,0.6-11.2,0-16.9c-1-8.3-5.8-15.8-11.6-21.6C38,44.7,22.6,40.3,7.5,42.5c0.8,2.7,1.5,5.4,2.3,8.2c0.1,0,0.1,0,0.2-0.1
		C13.7,49.6,14.2,43.1,10,42.5"/>
	<path style="clip-path:url(#SVGID_2_);fill:#A7D900;" d="M108.8,21.5c-3.7-1.9-7.8,1.1-10.7,3.3c-3,2.3-6.2,5-7.8,8.5
		c-2.9,6.1,5.9,9.9,8.5,3.6c0.8-2,3.3-4,5-5.3c1.9-1.5,5.3-2.5,6.3-4.8C111,25,110.8,22.5,108.8,21.5"/>
	<path style="clip-path:url(#SVGID_2_);fill:#A7D900;" d="M120.2,34.8c-5.3,2.1-10.4,6.2-13.6,11c-3.5,5.2,6.1,10,8.2,3.5
		c0.1-0.2,0.1-0.4,0.2-0.6c1-3.2-2.2-5.6-5-5c-0.2,0-0.5,0.1-0.7,0.1c1.5,2.5,2.9,5,4.4,7.5c3-3.5,5.9-6.4,9.7-9.1
		C126.6,39.7,124.8,32.9,120.2,34.8"/>
	<path style="clip-path:url(#SVGID_2_);fill:#A7D900;" d="M130.9,40.2c-3,4-3.1,9.3-5.4,13.5c-2.9,5.3,5.3,10,8,4.7
		c2.4-4.7,3.4-10.1,4.8-15.1C139.7,38.6,133.5,36.7,130.9,40.2"/>
</g>
</svg>
