<?xml version="1.0" encoding="utf-8"?>
<!-- Generator: Adobe Illustrator 23.1.1, SVG Export Plug-In . SVG Version: 6.00 Build 0)  -->
<svg version="1.1" id="Calque_1" xmlns="http://www.w3.org/2000/svg" xmlns:xlink="http://www.w3.org/1999/xlink" x="0px" y="0px"
	 viewBox="0 0 172.2 170.5" style="enable-background:new 0 0 172.2 170.5;" xml:space="preserve">
<style type="text/css">
	.st0{clip-path:url(#SVGID_2_);}
	.st1{clip-path:url(#SVGID_4_);}
</style>
<g>
	<g>
		<defs>
			<rect id="SVGID_1_" x="0.8" width="170.5" height="170.5"/>
		</defs>
		<clipPath id="SVGID_2_">
			<use xlink:href="#SVGID_1_"  style="overflow:visible;"/>
		</clipPath>
		<path class="st0" d="M97.8,147.1c-19.6,0-38.1-7.6-52-21.5l0,0l0,0c-13.9-13.9-21.5-32.4-21.5-52c0-19.7,7.6-38.1,21.5-52
			S78.2,0,97.8,0s38.1,7.6,52,21.5c13.9,13.9,21.5,32.3,21.5,52c0,19.6-7.6,38.1-21.5,52C135.9,139.4,117.5,147.1,97.8,147.1z
			 M97.8,18.4c-14.7,0-28.6,5.7-39,16.2C48.4,45,42.6,58.8,42.6,73.5s5.7,28.6,16.2,39l0,0c10.4,10.4,24.3,16.2,39,16.2
			s28.6-5.7,39-16.2c10.4-10.4,16.2-24.3,16.2-39s-5.7-28.6-16.2-39C126.4,24.1,112.5,18.4,97.8,18.4z"/>
	</g>
	<g>
		<defs>
			<rect id="SVGID_3_" x="0.8" width="170.5" height="170.5"/>
		</defs>
		<clipPath id="SVGID_4_">
			<use xlink:href="#SVGID_3_"  style="overflow:visible;"/>
		</clipPath>
		<path class="st1" d="M10,170.5c-2.4,0-4.7-0.9-6.5-2.7c-3.6-3.6-3.6-9.4,0-13l39-39c3.6-3.6,9.4-3.6,13,0s3.6,9.4,0,13l-39,39
			C14.7,169.6,12.4,170.5,10,170.5z"/>
	</g>
</g>
</svg>
