<?xml version="1.0" encoding="utf-8"?>
<!-- Generator: Adobe Illustrator 23.1.1, SVG Export Plug-In . SVG Version: 6.00 Build 0)  -->
<svg version="1.1" id="Calque_1" xmlns="http://www.w3.org/2000/svg" xmlns:xlink="http://www.w3.org/1999/xlink" x="0px" y="0px"
	 viewBox="0 0 25.4 25.2" style="enable-background:new 0 0 25.4 25.2;" xml:space="preserve">
<style type="text/css">
	.st0{clip-path:url(#SVGID_2_);fill:#91D900;}
</style>
<g>
	<g>
		<defs>
			<rect id="SVGID_1_" x="0.2" y="0.1" width="25" height="25"/>
		</defs>
		<clipPath id="SVGID_2_">
			<use xlink:href="#SVGID_1_"  style="overflow:visible;"/>
		</clipPath>
		<path class="st0" d="M19.5,8.5c-0.1,0.1-0.4,0.5-0.7,0.8c-0.5,0.5-0.6,0.6-0.6,1.1c0,0.7-0.3,2.2-0.7,3c-0.6,1.6-2,3.1-3.3,3.9
			c-1.9,1.1-4.4,1.4-6.5,0.8c-0.7-0.2-2-0.8-2-0.9c0,0,0.4-0.1,0.8-0.1c0.9,0,1.9-0.3,2.7-0.8L9.7,16l-0.5-0.3
			c-0.9-0.3-1.6-1-1.9-1.6c-0.1-0.2-0.1-0.2,0.5-0.2h0.5L8,13.6c-0.5-0.3-1.1-0.8-1.3-1.2C6.5,12,6.2,11,6.2,11s0.2,0,0.5,0.1
			c0.7,0.2,0.8,0.2,0.4-0.2c-0.8-0.8-0.9-1.9-0.6-3l0.2-0.5L7.2,8c1.3,1.3,2.9,2.1,4.8,2.3l0.5,0.1V10c-0.1-1.2,0.7-2.4,2-2.9
			C15,6.9,15.7,6.9,16.2,7c0.2,0.1,0.5,0.2,0.9,0.5l0.5,0.3L18,7.6c0.3-0.1,0.7-0.2,0.9-0.3c0.2-0.1,0.4-0.2,0.4-0.2
			c0,0.2-0.4,0.8-0.7,1.1c-0.4,0.5-0.3,0.5,0.5,0.2C19.7,8.2,19.7,8.2,19.5,8.5 M12.7,0.1C5.8,0.1,0.2,5.7,0.2,12.6
			s5.6,12.5,12.5,12.5s12.5-5.6,12.5-12.5S19.6,0.1,12.7,0.1"/>
	</g>
</g>
</svg>
