<?xml version="1.0" encoding="utf-8"?>
<!-- Generator: Adobe Illustrator 23.1.1, SVG Export Plug-In . SVG Version: 6.00 Build 0)  -->
<svg version="1.1" id="Calque_1" xmlns="http://www.w3.org/2000/svg" xmlns:xlink="http://www.w3.org/1999/xlink" x="0px" y="0px"
	 viewBox="0 0 25.4 25.2" style="enable-background:new 0 0 25.4 25.2;" xml:space="preserve">
<style type="text/css">
	.st0{clip-path:url(#SVGID_2_);fill:#91D900;}
	.st1{fill:#91D900;}
</style>
<g>
	<g>
		<defs>
			<rect id="SVGID_1_" x="0.2" y="0.1" width="25" height="25"/>
		</defs>
		<clipPath id="SVGID_2_">
			<use xlink:href="#SVGID_1_"  style="overflow:visible;"/>
		</clipPath>
		<path class="st0" d="M19.7,15.4c0,1-0.8,1.7-1.7,1.7c0,0-1.5,0.2-5.3,0.2c-3.9,0-5.3-0.2-5.3-0.2c-1,0-1.8-0.8-1.8-1.7V9.7
			c0-1,0.8-1.7,1.8-1.7c0,0,1.4-0.2,5.3-0.2C16.5,7.7,18,8,18,8c1,0,1.7,0.8,1.7,1.7V15.4L19.7,15.4z M12.7,0.1
			C5.8,0.1,0.2,5.7,0.2,12.6s5.6,12.5,12.5,12.5s12.5-5.6,12.5-12.5S19.6,0.1,12.7,0.1"/>
	</g>
</g>
<polygon class="st1" points="10.6,15.3 15.3,12.6 10.6,9.8 "/>
</svg>
